<?xml version="1.0" encoding="UTF-8" standalone="no"?>
<!DOCTYPE svg PUBLIC "-//W3C//DTD SVG 1.1//EN"
 "http://www.w3.org/Graphics/SVG/1.1/DTD/svg11.dtd">
<!-- Generated by graphviz version 2.40.1 (20161225.0304)
 -->
<!-- Title: DptDptCorrelationsFilterAnalysisTask Pages: 1 -->
<svg width="1671pt" height="948pt"
 viewBox="0.00 0.00 1670.50 948.00" xmlns="http://www.w3.org/2000/svg" xmlns:xlink="http://www.w3.org/1999/xlink">
<g id="graph0" class="graph" transform="scale(1 1) rotate(0) translate(4 944)">
<title>DptDptCorrelationsFilterAnalysisTask</title>
<!-- Node1 -->
<g id="node1" class="node">
<title>Node1</title>
<polygon fill="#bfbfbf" stroke="#000000" points="336.5,-.5 336.5,-112.5 470.5,-112.5 470.5,-.5 336.5,-.5"/>
<text text-anchor="start" x="344.5" y="-100.5" font-family="Helvetica,sans-Serif" font-size="10.00" fill="#000000">DptDptCorrelationsFilter</text>
<text text-anchor="middle" x="403.5" y="-89.5" font-family="Helvetica,sans-Serif" font-size="10.00" fill="#000000">AnalysisTask</text>
<polyline fill="none" stroke="#000000" points="336.5,-82.5 470.5,-82.5 "/>
<text text-anchor="start" x="344.5" y="-70.5" font-family="Helvetica,sans-Serif" font-size="10.00" fill="#000000">+ fOutCentMultB</text>
<text text-anchor="start" x="344.5" y="-59.5" font-family="Helvetica,sans-Serif" font-size="10.00" fill="#000000">+ fOutCentMultA</text>
<text text-anchor="start" x="344.5" y="-48.5" font-family="Helvetica,sans-Serif" font-size="10.00" fill="#000000">+ fOutVertexZB</text>
<text text-anchor="start" x="344.5" y="-37.5" font-family="Helvetica,sans-Serif" font-size="10.00" fill="#000000">+ fOutVertexZA</text>
<polyline fill="none" stroke="#000000" points="336.5,-30.5 470.5,-30.5 "/>
<text text-anchor="start" x="344.5" y="-18.5" font-family="Helvetica,sans-Serif" font-size="10.00" fill="#000000">+ init()</text>
<text text-anchor="start" x="344.5" y="-7.5" font-family="Helvetica,sans-Serif" font-size="10.00" fill="#000000">+ process()</text>
</g>
<!-- Node2 -->
<g id="node2" class="node">
<title>Node2</title>
<g id="a_node2"><a xlink:href="../../d6/d86/structo2_1_1framework_1_1Produces.html" target="_top" xlink:title="{o2::framework::Produces\l\&lt; aod::AcceptedEvents \&gt;\n||}">
<polygon fill="none" stroke="#000000" points="45,-320 45,-388 186,-388 186,-320 45,-320"/>
<text text-anchor="start" x="53" y="-376" font-family="Helvetica,sans-Serif" font-size="10.00" fill="#000000">o2::framework::Produces</text>
<text text-anchor="middle" x="115.5" y="-365" font-family="Helvetica,sans-Serif" font-size="10.00" fill="#000000">&lt; aod::AcceptedEvents &gt;</text>
<polyline fill="none" stroke="#000000" points="45,-358 186,-358 "/>
<text text-anchor="middle" x="115.5" y="-346" font-family="Helvetica,sans-Serif" font-size="10.00" fill="#000000"> </text>
<polyline fill="none" stroke="#000000" points="45,-339 186,-339 "/>
<text text-anchor="middle" x="115.5" y="-327" font-family="Helvetica,sans-Serif" font-size="10.00" fill="#000000"> </text>
</a>
</g>
</g>
<!-- Node2&#45;&gt;Node1 -->
<g id="edge1" class="edge">
<title>Node2&#45;&gt;Node1</title>
<path fill="none" stroke="#404040" d="M127.4524,-319.8784C145.7312,-272.0466 184.8053,-184.8899 243.5,-131 266.6109,-109.781 296.8307,-93.6177 324.7755,-81.8604"/>
<polygon fill="none" stroke="#404040" points="325.0477,-81.7503 329.1097,-75.7921 336.1719,-77.2499 332.11,-83.2082 325.0477,-81.7503"/>
<text text-anchor="middle" x="288" y="-189" font-family="Helvetica,sans-Serif" font-size="10.00" fill="#000000"> +acceptedevents</text>
</g>
<!-- Node3 -->
<g id="node3" class="node">
<title>Node3</title>
<g id="a_node3"><a xlink:href="../../d6/d86/structo2_1_1framework_1_1Produces.html" target="_top" xlink:title="{o2::framework::Produces\&lt; T \&gt;\n||}">
<polygon fill="none" stroke="#000000" points="0,-535 0,-592 167,-592 167,-535 0,-535"/>
<text text-anchor="middle" x="83.5" y="-580" font-family="Helvetica,sans-Serif" font-size="10.00" fill="#000000">o2::framework::Produces&lt; T &gt;</text>
<polyline fill="none" stroke="#000000" points="0,-573 167,-573 "/>
<text text-anchor="middle" x="83.5" y="-561" font-family="Helvetica,sans-Serif" font-size="10.00" fill="#000000"> </text>
<polyline fill="none" stroke="#000000" points="0,-554 167,-554 "/>
<text text-anchor="middle" x="83.5" y="-542" font-family="Helvetica,sans-Serif" font-size="10.00" fill="#000000"> </text>
</a>
</g>
</g>
<!-- Node3&#45;&gt;Node2 -->
<g id="edge2" class="edge">
<title>Node3&#45;&gt;Node2</title>
<path fill="none" stroke="#ffa500" d="M56.5206,-525.8521C45.1366,-505.365 36.0485,-479.4777 43.5,-456 51.4343,-431.0013 67.9533,-406.847 83.1692,-388.3237"/>
<polygon fill="#ffa500" stroke="#ffa500" points="53.5735,-527.7445 61.6792,-534.5672 59.5974,-524.1789 53.5735,-527.7445"/>
<text text-anchor="middle" x="107.5" y="-459" font-family="Helvetica,sans-Serif" font-size="10.00" fill="#000000"> &lt; aod::AcceptedEvents &gt;</text>
</g>
<!-- Node4 -->
<g id="node4" class="node">
<title>Node4</title>
<g id="a_node4"><a xlink:href="../../d6/d86/structo2_1_1framework_1_1Produces.html" target="_top" xlink:title="{o2::framework::Produces\l\&lt; aod::ScannedTracks \&gt;\n||}">
<polygon fill="none" stroke="#000000" points="245.5,-320 245.5,-388 383.5,-388 383.5,-320 245.5,-320"/>
<text text-anchor="start" x="253.5" y="-376" font-family="Helvetica,sans-Serif" font-size="10.00" fill="#000000">o2::framework::Produces</text>
<text text-anchor="middle" x="314.5" y="-365" font-family="Helvetica,sans-Serif" font-size="10.00" fill="#000000">&lt; aod::ScannedTracks &gt;</text>
<polyline fill="none" stroke="#000000" points="245.5,-358 383.5,-358 "/>
<text text-anchor="middle" x="314.5" y="-346" font-family="Helvetica,sans-Serif" font-size="10.00" fill="#000000"> </text>
<polyline fill="none" stroke="#000000" points="245.5,-339 383.5,-339 "/>
<text text-anchor="middle" x="314.5" y="-327" font-family="Helvetica,sans-Serif" font-size="10.00" fill="#000000"> </text>
</a>
</g>
</g>
<!-- Node3&#45;&gt;Node4 -->
<g id="edge4" class="edge">
<title>Node3&#45;&gt;Node4</title>
<path fill="none" stroke="#ffa500" d="M122.5947,-528.044C165.6094,-489.0328 234.2643,-426.7679 276.7398,-388.2457"/>
<polygon fill="#ffa500" stroke="#ffa500" points="120.1913,-525.4986 115.1352,-534.8092 124.8939,-530.6838 120.1913,-525.4986"/>
<text text-anchor="middle" x="260.5" y="-459" font-family="Helvetica,sans-Serif" font-size="10.00" fill="#000000"> &lt; aod::ScannedTracks &gt;</text>
</g>
<!-- Node4&#45;&gt;Node1 -->
<g id="edge3" class="edge">
<title>Node4&#45;&gt;Node1</title>
<path fill="none" stroke="#404040" d="M321.1762,-319.8512C330.2496,-275.6369 347.9592,-196.4858 370.5,-131 371.3093,-128.6488 372.1631,-126.2692 373.0514,-123.8762"/>
<polygon fill="none" stroke="#404040" points="373.0731,-123.8201 371.5201,-116.7782 377.423,-112.6363 378.976,-119.6782 373.0731,-123.8201"/>
<text text-anchor="middle" x="411.5" y="-189" font-family="Helvetica,sans-Serif" font-size="10.00" fill="#000000"> +scannedtracks</text>
</g>
<!-- Node5 -->
<g id="node5" class="node">
<title>Node5</title>
<g id="a_node5"><a xlink:href="../../d4/d79/structo2_1_1framework_1_1OutputObj.html" target="_top" xlink:title="{o2::framework::OutputObj\l\&lt; TDirectory \&gt;\n||+ spec()\l+ OutputObj()\l+ OutputObj()\l+ setObject()\l+ setObject()\l+ setObject()\l+ setHash()\l+ operator&#45;\&gt;()\l+ operator*()\l+ ref()\l}">
<polygon fill="none" stroke="#000000" points="422,-270.5 422,-437.5 565,-437.5 565,-270.5 422,-270.5"/>
<text text-anchor="start" x="430" y="-425.5" font-family="Helvetica,sans-Serif" font-size="10.00" fill="#000000">o2::framework::OutputObj</text>
<text text-anchor="middle" x="493.5" y="-414.5" font-family="Helvetica,sans-Serif" font-size="10.00" fill="#000000">&lt; TDirectory &gt;</text>
<polyline fill="none" stroke="#000000" points="422,-407.5 565,-407.5 "/>
<text text-anchor="middle" x="493.5" y="-395.5" font-family="Helvetica,sans-Serif" font-size="10.00" fill="#000000"> </text>
<polyline fill="none" stroke="#000000" points="422,-388.5 565,-388.5 "/>
<text text-anchor="start" x="430" y="-376.5" font-family="Helvetica,sans-Serif" font-size="10.00" fill="#000000">+ spec()</text>
<text text-anchor="start" x="430" y="-365.5" font-family="Helvetica,sans-Serif" font-size="10.00" fill="#000000">+ OutputObj()</text>
<text text-anchor="start" x="430" y="-354.5" font-family="Helvetica,sans-Serif" font-size="10.00" fill="#000000">+ OutputObj()</text>
<text text-anchor="start" x="430" y="-343.5" font-family="Helvetica,sans-Serif" font-size="10.00" fill="#000000">+ setObject()</text>
<text text-anchor="start" x="430" y="-332.5" font-family="Helvetica,sans-Serif" font-size="10.00" fill="#000000">+ setObject()</text>
<text text-anchor="start" x="430" y="-321.5" font-family="Helvetica,sans-Serif" font-size="10.00" fill="#000000">+ setObject()</text>
<text text-anchor="start" x="430" y="-310.5" font-family="Helvetica,sans-Serif" font-size="10.00" fill="#000000">+ setHash()</text>
<text text-anchor="start" x="430" y="-299.5" font-family="Helvetica,sans-Serif" font-size="10.00" fill="#000000">+ operator&#45;&gt;()</text>
<text text-anchor="start" x="430" y="-288.5" font-family="Helvetica,sans-Serif" font-size="10.00" fill="#000000">+ operator*()</text>
<text text-anchor="start" x="430" y="-277.5" font-family="Helvetica,sans-Serif" font-size="10.00" fill="#000000">+ ref()</text>
</a>
</g>
</g>
<!-- Node5&#45;&gt;Node1 -->
<g id="edge5" class="edge">
<title>Node5&#45;&gt;Node1</title>
<path fill="none" stroke="#404040" d="M486.1259,-270.2384C480.377,-227.4373 470.247,-175.201 452.5,-131 451.4924,-128.4904 450.3941,-125.9764 449.2223,-123.4703"/>
<polygon fill="none" stroke="#404040" points="449.1161,-123.2619 442.8273,-119.7331 443.6659,-112.5709 449.9546,-116.0997 449.1161,-123.2619"/>
<text text-anchor="middle" x="507" y="-189" font-family="Helvetica,sans-Serif" font-size="10.00" fill="#000000"> +fOutput</text>
</g>
<!-- Node6 -->
<g id="node6" class="node">
<title>Node6</title>
<polygon fill="none" stroke="#bfbfbf" points="853,-717 853,-774 992,-774 992,-717 853,-717"/>
<text text-anchor="middle" x="922.5" y="-762" font-family="Helvetica,sans-Serif" font-size="10.00" fill="#000000">OutputObjHandlingPolicy</text>
<polyline fill="none" stroke="#bfbfbf" points="853,-755 992,-755 "/>
<text text-anchor="middle" x="922.5" y="-743" font-family="Helvetica,sans-Serif" font-size="10.00" fill="#000000"> </text>
<polyline fill="none" stroke="#bfbfbf" points="853,-736 992,-736 "/>
<text text-anchor="middle" x="922.5" y="-724" font-family="Helvetica,sans-Serif" font-size="10.00" fill="#000000"> </text>
</g>
<!-- Node6&#45;&gt;Node5 -->
<g id="edge6" class="edge">
<title>Node6&#45;&gt;Node5</title>
<path fill="none" stroke="#404040" d="M885.1674,-716.9839C861.1579,-699.3536 828.8752,-676.9377 798.5,-660 781.1186,-650.3079 769.9995,-657.4859 757.5,-642 712.7727,-586.5863 767.3922,-542.5869 725.5,-485 689.0085,-434.8372 627.0828,-401.2809 576.3849,-380.6981"/>
<polygon fill="none" stroke="#404040" points="576.2555,-380.6472 569.207,-382.1699 565.0905,-376.2491 572.139,-374.7265 576.2555,-380.6472"/>
<text text-anchor="middle" x="778" y="-561" font-family="Helvetica,sans-Serif" font-size="10.00" fill="#000000"> +policy</text>
</g>
<!-- Node14 -->
<g id="node14" class="node">
<title>Node14</title>
<g id="a_node14"><a xlink:href="../../d4/d79/structo2_1_1framework_1_1OutputObj.html" target="_top" xlink:title="{o2::framework::OutputObj\&lt; T \&gt;\n||+ OutputObj()\l+ OutputObj()\l+ setObject()\l+ setObject()\l+ setObject()\l+ setHash()\l+ spec()\l+ operator&#45;\&gt;()\l+ operator*()\l+ ref()\l}">
<polygon fill="none" stroke="#000000" points="981.5,-485.5 981.5,-641.5 1153.5,-641.5 1153.5,-485.5 981.5,-485.5"/>
<text text-anchor="middle" x="1067.5" y="-629.5" font-family="Helvetica,sans-Serif" font-size="10.00" fill="#000000">o2::framework::OutputObj&lt; T &gt;</text>
<polyline fill="none" stroke="#000000" points="981.5,-622.5 1153.5,-622.5 "/>
<text text-anchor="middle" x="1067.5" y="-610.5" font-family="Helvetica,sans-Serif" font-size="10.00" fill="#000000"> </text>
<polyline fill="none" stroke="#000000" points="981.5,-603.5 1153.5,-603.5 "/>
<text text-anchor="start" x="989.5" y="-591.5" font-family="Helvetica,sans-Serif" font-size="10.00" fill="#000000">+ OutputObj()</text>
<text text-anchor="start" x="989.5" y="-580.5" font-family="Helvetica,sans-Serif" font-size="10.00" fill="#000000">+ OutputObj()</text>
<text text-anchor="start" x="989.5" y="-569.5" font-family="Helvetica,sans-Serif" font-size="10.00" fill="#000000">+ setObject()</text>
<text text-anchor="start" x="989.5" y="-558.5" font-family="Helvetica,sans-Serif" font-size="10.00" fill="#000000">+ setObject()</text>
<text text-anchor="start" x="989.5" y="-547.5" font-family="Helvetica,sans-Serif" font-size="10.00" fill="#000000">+ setObject()</text>
<text text-anchor="start" x="989.5" y="-536.5" font-family="Helvetica,sans-Serif" font-size="10.00" fill="#000000">+ setHash()</text>
<text text-anchor="start" x="989.5" y="-525.5" font-family="Helvetica,sans-Serif" font-size="10.00" fill="#000000">+ spec()</text>
<text text-anchor="start" x="989.5" y="-514.5" font-family="Helvetica,sans-Serif" font-size="10.00" fill="#000000">+ operator&#45;&gt;()</text>
<text text-anchor="start" x="989.5" y="-503.5" font-family="Helvetica,sans-Serif" font-size="10.00" fill="#000000">+ operator*()</text>
<text text-anchor="start" x="989.5" y="-492.5" font-family="Helvetica,sans-Serif" font-size="10.00" fill="#000000">+ ref()</text>
</a>
</g>
</g>
<!-- Node6&#45;&gt;Node14 -->
<g id="edge17" class="edge">
<title>Node6&#45;&gt;Node14</title>
<path fill="none" stroke="#404040" d="M940.6203,-716.6959C951.6087,-699.7781 966.2246,-678.21 980.5,-660 982.7919,-657.0764 985.1489,-654.1296 987.5533,-651.1747"/>
<polygon fill="none" stroke="#404040" points="987.72,-650.9733 988.4639,-643.8006 995.3709,-641.7286 994.627,-648.9013 987.72,-650.9733"/>
<text text-anchor="middle" x="1001" y="-663" font-family="Helvetica,sans-Serif" font-size="10.00" fill="#000000"> +policy</text>
</g>
<!-- Node16 -->
<g id="node16" class="node">
<title>Node16</title>
<g id="a_node16"><a xlink:href="../../d4/d79/structo2_1_1framework_1_1OutputObj.html" target="_top" xlink:title="{o2::framework::OutputObj\l\&lt; TH1F \&gt;\n||+ spec()\l+ OutputObj()\l+ OutputObj()\l+ setObject()\l+ setObject()\l+ setObject()\l+ setHash()\l+ operator&#45;\&gt;()\l+ operator*()\l+ ref()\l}">
<polygon fill="none" stroke="#000000" points="968,-270.5 968,-437.5 1111,-437.5 1111,-270.5 968,-270.5"/>
<text text-anchor="start" x="976" y="-425.5" font-family="Helvetica,sans-Serif" font-size="10.00" fill="#000000">o2::framework::OutputObj</text>
<text text-anchor="middle" x="1039.5" y="-414.5" font-family="Helvetica,sans-Serif" font-size="10.00" fill="#000000">&lt; TH1F &gt;</text>
<polyline fill="none" stroke="#000000" points="968,-407.5 1111,-407.5 "/>
<text text-anchor="middle" x="1039.5" y="-395.5" font-family="Helvetica,sans-Serif" font-size="10.00" fill="#000000"> </text>
<polyline fill="none" stroke="#000000" points="968,-388.5 1111,-388.5 "/>
<text text-anchor="start" x="976" y="-376.5" font-family="Helvetica,sans-Serif" font-size="10.00" fill="#000000">+ spec()</text>
<text text-anchor="start" x="976" y="-365.5" font-family="Helvetica,sans-Serif" font-size="10.00" fill="#000000">+ OutputObj()</text>
<text text-anchor="start" x="976" y="-354.5" font-family="Helvetica,sans-Serif" font-size="10.00" fill="#000000">+ OutputObj()</text>
<text text-anchor="start" x="976" y="-343.5" font-family="Helvetica,sans-Serif" font-size="10.00" fill="#000000">+ setObject()</text>
<text text-anchor="start" x="976" y="-332.5" font-family="Helvetica,sans-Serif" font-size="10.00" fill="#000000">+ setObject()</text>
<text text-anchor="start" x="976" y="-321.5" font-family="Helvetica,sans-Serif" font-size="10.00" fill="#000000">+ setObject()</text>
<text text-anchor="start" x="976" y="-310.5" font-family="Helvetica,sans-Serif" font-size="10.00" fill="#000000">+ setHash()</text>
<text text-anchor="start" x="976" y="-299.5" font-family="Helvetica,sans-Serif" font-size="10.00" fill="#000000">+ operator&#45;&gt;()</text>
<text text-anchor="start" x="976" y="-288.5" font-family="Helvetica,sans-Serif" font-size="10.00" fill="#000000">+ operator*()</text>
<text text-anchor="start" x="976" y="-277.5" font-family="Helvetica,sans-Serif" font-size="10.00" fill="#000000">+ ref()</text>
</a>
</g>
</g>
<!-- Node6&#45;&gt;Node16 -->
<g id="edge23" class="edge">
<title>Node6&#45;&gt;Node16</title>
<path fill="none" stroke="#404040" d="M919.6494,-716.6208C914.3403,-656.714 905.6747,-521.4689 931.5,-485 944.1875,-467.0835 961.0091,-481.4923 977.5,-467 984.0291,-461.2622 990.0043,-454.664 995.4433,-447.5987"/>
<polygon fill="none" stroke="#404040" points="995.539,-447.4651 995.783,-440.2581 1002.5295,-437.7114 1002.2855,-444.9184 995.539,-447.4651"/>
<text text-anchor="middle" x="952" y="-561" font-family="Helvetica,sans-Serif" font-size="10.00" fill="#000000"> +policy</text>
</g>
<!-- Node7 -->
<g id="node7" class="node">
<title>Node7</title>
<g id="a_node7"><a xlink:href="../../d3/d87/classuint32__t.html" target="_top" xlink:title="{uint32_t\n||}">
<polygon fill="none" stroke="#000000" points="615.5,-717 615.5,-774 671.5,-774 671.5,-717 615.5,-717"/>
<text text-anchor="middle" x="643.5" y="-762" font-family="Helvetica,sans-Serif" font-size="10.00" fill="#000000">uint32_t</text>
<polyline fill="none" stroke="#000000" points="615.5,-755 671.5,-755 "/>
<text text-anchor="middle" x="643.5" y="-743" font-family="Helvetica,sans-Serif" font-size="10.00" fill="#000000"> </text>
<polyline fill="none" stroke="#000000" points="615.5,-736 671.5,-736 "/>
<text text-anchor="middle" x="643.5" y="-724" font-family="Helvetica,sans-Serif" font-size="10.00" fill="#000000"> </text>
</a>
</g>
</g>
<!-- Node7&#45;&gt;Node5 -->
<g id="edge7" class="edge">
<title>Node7&#45;&gt;Node5</title>
<path fill="none" stroke="#404040" d="M615.1751,-739.4605C571.7964,-728.5158 490.285,-700.8583 455.5,-642 421.3405,-584.2001 432.9842,-508.6333 452.0314,-449.4081"/>
<polygon fill="none" stroke="#404040" points="452.1118,-449.1681 450.2277,-442.2075 455.9282,-437.7911 457.8123,-444.7517 452.1118,-449.1681"/>
<text text-anchor="middle" x="489.5" y="-561" font-family="Helvetica,sans-Serif" font-size="10.00" fill="#000000"> +mTaskHash</text>
</g>
<!-- Node7&#45;&gt;Node14 -->
<g id="edge16" class="edge">
<title>Node7&#45;&gt;Node14</title>
<path fill="none" stroke="#404040" d="M671.6277,-726.4294C702.8626,-706.2884 755.4939,-675.3668 805.5,-660 874.7472,-638.7204 900.4443,-669.4142 967.5,-642 968.5279,-641.5798 969.554,-641.1457 970.578,-640.6986"/>
<polygon fill="none" stroke="#404040" points="970.651,-640.6634 974.311,-634.4501 981.454,-635.4389 977.794,-641.6521 970.651,-640.6634"/>
<text text-anchor="middle" x="839.5" y="-663" font-family="Helvetica,sans-Serif" font-size="10.00" fill="#000000"> +mTaskHash</text>
</g>
<!-- Node7&#45;&gt;Node16 -->
<g id="edge24" class="edge">
<title>Node7&#45;&gt;Node16</title>
<path fill="none" stroke="#404040" d="M635.6634,-716.9949C623.2246,-665.0577 605.3505,-554.0193 657.5,-485 693.9518,-436.7564 854.7038,-394.0524 955.705,-371.3248"/>
<polygon fill="none" stroke="#404040" points="956,-371.2593 960.9881,-366.0517 967.7136,-368.6532 962.7255,-373.8608 956,-371.2593"/>
<text text-anchor="middle" x="691.5" y="-561" font-family="Helvetica,sans-Serif" font-size="10.00" fill="#000000"> +mTaskHash</text>
</g>
<!-- Node8 -->
<g id="node8" class="node">
<title>Node8</title>
<polygon fill="none" stroke="#bfbfbf" points="1173,-866 1173,-923 1202,-923 1202,-866 1173,-866"/>
<text text-anchor="middle" x="1187.5" y="-911" font-family="Helvetica,sans-Serif" font-size="10.00" fill="#000000">int</text>
<polyline fill="none" stroke="#bfbfbf" points="1173,-904 1202,-904 "/>
<text text-anchor="middle" x="1187.5" y="-892" font-family="Helvetica,sans-Serif" font-size="10.00" fill="#000000"> </text>
<polyline fill="none" stroke="#bfbfbf" points="1173,-885 1202,-885 "/>
<text text-anchor="middle" x="1187.5" y="-873" font-family="Helvetica,sans-Serif" font-size="10.00" fill="#000000"> </text>
</g>
<!-- Node8&#45;&gt;Node5 -->
<g id="edge8" class="edge">
<title>Node8&#45;&gt;Node5</title>
<path fill="none" stroke="#404040" d="M1172.8177,-893.1063C1093.3502,-885.422 714.3328,-846.9354 606.5,-802 515.5004,-764.0792 472.1044,-758.9168 427.5,-671 392.2163,-601.4547 414.5534,-514.1952 442.4236,-448.8417"/>
<polygon fill="none" stroke="#404040" points="442.4798,-448.7137 441.2307,-441.6116 447.3061,-437.727 448.5552,-444.8291 442.4798,-448.7137"/>
<text text-anchor="middle" x="445.5" y="-663" font-family="Helvetica,sans-Serif" font-size="10.00" fill="#000000"> +label</text>
</g>
<!-- Node11 -->
<g id="node11" class="node">
<title>Node11</title>
<g id="a_node11"><a xlink:href="../../da/d96/structo2_1_1framework_1_1InputSpec.html" target="_top" xlink:title="{o2::framework::InputSpec\n||+ InputSpec()\l+ InputSpec()\l+ InputSpec()\l+ InputSpec()\l+ InputSpec()\l+ operator==()\l}">
<polygon fill="none" stroke="#000000" points="1360.5,-689.5 1360.5,-801.5 1502.5,-801.5 1502.5,-689.5 1360.5,-689.5"/>
<text text-anchor="middle" x="1431.5" y="-789.5" font-family="Helvetica,sans-Serif" font-size="10.00" fill="#000000">o2::framework::InputSpec</text>
<polyline fill="none" stroke="#000000" points="1360.5,-782.5 1502.5,-782.5 "/>
<text text-anchor="middle" x="1431.5" y="-770.5" font-family="Helvetica,sans-Serif" font-size="10.00" fill="#000000"> </text>
<polyline fill="none" stroke="#000000" points="1360.5,-763.5 1502.5,-763.5 "/>
<text text-anchor="start" x="1368.5" y="-751.5" font-family="Helvetica,sans-Serif" font-size="10.00" fill="#000000">+ InputSpec()</text>
<text text-anchor="start" x="1368.5" y="-740.5" font-family="Helvetica,sans-Serif" font-size="10.00" fill="#000000">+ InputSpec()</text>
<text text-anchor="start" x="1368.5" y="-729.5" font-family="Helvetica,sans-Serif" font-size="10.00" fill="#000000">+ InputSpec()</text>
<text text-anchor="start" x="1368.5" y="-718.5" font-family="Helvetica,sans-Serif" font-size="10.00" fill="#000000">+ InputSpec()</text>
<text text-anchor="start" x="1368.5" y="-707.5" font-family="Helvetica,sans-Serif" font-size="10.00" fill="#000000">+ InputSpec()</text>
<text text-anchor="start" x="1368.5" y="-696.5" font-family="Helvetica,sans-Serif" font-size="10.00" fill="#000000">+ operator==()</text>
</a>
</g>
</g>
<!-- Node8&#45;&gt;Node11 -->
<g id="edge14" class="edge">
<title>Node8&#45;&gt;Node11</title>
<path fill="none" stroke="#404040" d="M1202.162,-890.5906C1230.9101,-882.497 1296.0115,-862.0303 1343.5,-831 1353.029,-824.7735 1362.4142,-817.421 1371.3004,-809.6839"/>
<polygon fill="none" stroke="#404040" points="1371.4519,-809.5473 1373.2305,-802.559 1380.3653,-801.5129 1378.5868,-808.5012 1371.4519,-809.5473"/>
<text text-anchor="middle" x="1380.5" y="-823" font-family="Helvetica,sans-Serif" font-size="10.00" fill="#000000"> +binding</text>
</g>
<!-- Node8&#45;&gt;Node14 -->
<g id="edge18" class="edge">
<title>Node8&#45;&gt;Node14</title>
<path fill="none" stroke="#404040" d="M1172.7506,-890.1449C1142.3208,-880.2644 1073.1209,-852.9568 1045.5,-802 1021.113,-757.0093 1025.2582,-700.1558 1036.1386,-653.2434"/>
<polygon fill="none" stroke="#404040" points="1036.1513,-653.192 1033.7113,-646.4062 1039.0366,-641.544 1041.4766,-648.3298 1036.1513,-653.192"/>
<text text-anchor="middle" x="1063.5" y="-743" font-family="Helvetica,sans-Serif" font-size="10.00" fill="#000000"> +label</text>
</g>
<!-- Node8&#45;&gt;Node16 -->
<g id="edge25" class="edge">
<title>Node8&#45;&gt;Node16</title>
<path fill="none" stroke="#404040" d="M1202.0016,-880.9262C1238.3964,-845.7361 1333.0701,-746.9608 1366.5,-642 1387.676,-575.5131 1405.6042,-542.791 1366.5,-485 1312.4959,-405.1889 1201.0874,-373.9972 1123.3999,-361.81"/>
<polygon fill="none" stroke="#404040" points="1123.1062,-361.7667 1116.586,-364.8468 1111.2351,-360.0127 1117.7553,-356.9327 1123.1062,-361.7667"/>
<text text-anchor="middle" x="1377.5" y="-663" font-family="Helvetica,sans-Serif" font-size="10.00" fill="#000000"> +label</text>
</g>
<!-- Node9 -->
<g id="node9" class="node">
<title>Node9</title>
<polygon fill="none" stroke="#bfbfbf" points="768.5,-717 768.5,-774 806.5,-774 806.5,-717 768.5,-717"/>
<text text-anchor="middle" x="787.5" y="-762" font-family="Helvetica,sans-Serif" font-size="10.00" fill="#000000">bool</text>
<polyline fill="none" stroke="#bfbfbf" points="768.5,-755 806.5,-755 "/>
<text text-anchor="middle" x="787.5" y="-743" font-family="Helvetica,sans-Serif" font-size="10.00" fill="#000000"> </text>
<polyline fill="none" stroke="#bfbfbf" points="768.5,-736 806.5,-736 "/>
<text text-anchor="middle" x="787.5" y="-724" font-family="Helvetica,sans-Serif" font-size="10.00" fill="#000000"> </text>
</g>
<!-- Node9&#45;&gt;Node5 -->
<g id="edge9" class="edge">
<title>Node9&#45;&gt;Node5</title>
<path fill="none" stroke="#404040" d="M768.1186,-734.3959C746.9398,-722.4688 711.8418,-703.3042 680.5,-689 628.0155,-665.0464 597.2277,-685.6465 559.5,-642 559.5,-642 534.6169,-533.4193 515.408,-449.5986"/>
<polygon fill="none" stroke="#404040" points="515.3592,-449.3852 510.12,-444.4303 512.6786,-437.6884 517.9178,-442.6433 515.3592,-449.3852"/>
<text text-anchor="middle" x="590.5" y="-561" font-family="Helvetica,sans-Serif" font-size="10.00" fill="#000000"> +isdangling</text>
</g>
<!-- Node9&#45;&gt;Node14 -->
<g id="edge20" class="edge">
<title>Node9&#45;&gt;Node14</title>
<path fill="none" stroke="#404040" d="M806.5196,-723.2259C816.9297,-711.9709 830.5299,-698.6851 844.5,-689 869.8319,-671.4381 878.6674,-670.8997 907.5,-660 933.5421,-650.1552 942.786,-654.8191 967.5,-642 968.5072,-641.4776 969.5142,-640.9445 970.5208,-640.4014"/>
<polygon fill="none" stroke="#404040" points="970.8616,-640.2056 974.0713,-633.7482 981.2665,-634.2274 978.0568,-640.6848 970.8616,-640.2056"/>
<text text-anchor="middle" x="938.5" y="-663" font-family="Helvetica,sans-Serif" font-size="10.00" fill="#000000"> +isdangling</text>
</g>
<!-- Node9&#45;&gt;Node16 -->
<g id="edge26" class="edge">
<title>Node9&#45;&gt;Node16</title>
<path fill="none" stroke="#404040" d="M791.269,-716.5544C800.303,-651.2266 825.0305,-495.0013 859.5,-456 885.9002,-426.1289 923.2424,-402.9865 957.0765,-386.3532"/>
<polygon fill="none" stroke="#404040" points="957.089,-386.3473 960.7825,-380.1539 967.92,-381.1812 964.2265,-387.3746 957.089,-386.3473"/>
<text text-anchor="middle" x="872.5" y="-561" font-family="Helvetica,sans-Serif" font-size="10.00" fill="#000000"> +isdangling</text>
</g>
<!-- Node10 -->
<g id="node10" class="node">
<title>Node10</title>
<polygon fill="none" stroke="#bfbfbf" points="225.5,-535 225.5,-592 367.5,-592 367.5,-535 225.5,-535"/>
<text text-anchor="middle" x="296.5" y="-580" font-family="Helvetica,sans-Serif" font-size="10.00" fill="#000000">shared_ptr&lt; TDirectory &gt;</text>
<polyline fill="none" stroke="#bfbfbf" points="225.5,-573 367.5,-573 "/>
<text text-anchor="middle" x="296.5" y="-561" font-family="Helvetica,sans-Serif" font-size="10.00" fill="#000000"> </text>
<polyline fill="none" stroke="#bfbfbf" points="225.5,-554 367.5,-554 "/>
<text text-anchor="middle" x="296.5" y="-542" font-family="Helvetica,sans-Serif" font-size="10.00" fill="#000000"> </text>
</g>
<!-- Node10&#45;&gt;Node5 -->
<g id="edge10" class="edge">
<title>Node10&#45;&gt;Node5</title>
<path fill="none" stroke="#404040" d="M301.152,-534.6217C306.4726,-510.5331 317.4754,-476.8849 339.5,-456 357.5515,-438.8826 370.7958,-450.157 392.5,-438 399.029,-434.343 405.5435,-430.2434 411.9401,-425.8749"/>
<polygon fill="none" stroke="#404040" points="412.0972,-425.7633 414.672,-419.0275 421.8799,-418.8135 419.3052,-425.5493 412.0972,-425.7633"/>
<text text-anchor="middle" x="360.5" y="-459" font-family="Helvetica,sans-Serif" font-size="10.00" fill="#000000"> +object</text>
</g>
<!-- Node11&#45;&gt;Node5 -->
<g id="edge11" class="edge">
<title>Node11&#45;&gt;Node5</title>
<path fill="none" stroke="#404040" d="M1360.2736,-731.7233C1307.9222,-717.8859 1239.0973,-691.2804 1198.5,-642 1152.9816,-586.7459 1214.7986,-533.8855 1162.5,-485 1143.924,-467.6363 1074.5204,-471.5332 1049.5,-467 881.342,-436.5331 685.7392,-395.461 577.1269,-372.1518"/>
<polygon fill="none" stroke="#404040" points="577.017,-372.1283 570.3104,-374.7783 565.2849,-369.6068 571.9914,-366.9569 577.017,-372.1283"/>
<text text-anchor="middle" x="1215.5" y="-561" font-family="Helvetica,sans-Serif" font-size="10.00" fill="#000000"> +spec</text>
</g>
<!-- Node11&#45;&gt;Node14 -->
<g id="edge21" class="edge">
<title>Node11&#45;&gt;Node14</title>
<path fill="none" stroke="#404040" d="M1360.1938,-728.5061C1277.3116,-708.5566 1150.6225,-677.3717 1141.5,-671 1133.2891,-665.2651 1125.7075,-658.3056 1118.7827,-650.7154"/>
<polygon fill="none" stroke="#404040" points="1118.7495,-650.6766 1111.8113,-648.7114 1110.9568,-641.5511 1117.895,-643.5163 1118.7495,-650.6766"/>
<text text-anchor="middle" x="1158.5" y="-663" font-family="Helvetica,sans-Serif" font-size="10.00" fill="#000000"> +spec</text>
</g>
<!-- Node11&#45;&gt;Node16 -->
<g id="edge27" class="edge">
<title>Node11&#45;&gt;Node16</title>
<path fill="none" stroke="#404040" d="M1442.2114,-689.3794C1451.0132,-625.2571 1454.3828,-520.8435 1399.5,-456 1363.9829,-414.0369 1218.057,-382.9741 1123.2478,-366.742"/>
<polygon fill="none" stroke="#404040" points="1123.2091,-366.7355 1116.6277,-369.6826 1111.376,-364.7409 1117.9574,-361.7939 1123.2091,-366.7355"/>
<text text-anchor="middle" x="1463.5" y="-561" font-family="Helvetica,sans-Serif" font-size="10.00" fill="#000000"> +spec</text>
</g>
<!-- Node12 -->
<g id="node12" class="node">
<title>Node12</title>
<polygon fill="none" stroke="#bfbfbf" points="1392.5,-866 1392.5,-923 1480.5,-923 1480.5,-866 1392.5,-866"/>
<text text-anchor="middle" x="1436.5" y="-911" font-family="Helvetica,sans-Serif" font-size="10.00" fill="#000000">enum Lifetime</text>
<polyline fill="none" stroke="#bfbfbf" points="1392.5,-904 1480.5,-904 "/>
<text text-anchor="middle" x="1436.5" y="-892" font-family="Helvetica,sans-Serif" font-size="10.00" fill="#000000"> </text>
<polyline fill="none" stroke="#bfbfbf" points="1392.5,-885 1480.5,-885 "/>
<text text-anchor="middle" x="1436.5" y="-873" font-family="Helvetica,sans-Serif" font-size="10.00" fill="#000000"> </text>
</g>
<!-- Node12&#45;&gt;Node11 -->
<g id="edge12" class="edge">
<title>Node12&#45;&gt;Node11</title>
<path fill="none" stroke="#404040" d="M1435.5359,-865.7713C1435.0378,-850.9277 1434.4069,-832.1262 1433.7928,-813.825"/>
<polygon fill="none" stroke="#404040" points="1433.7853,-813.5982 1429.5862,-807.7357 1433.3827,-801.6049 1437.5817,-807.4674 1433.7853,-813.5982"/>
<text text-anchor="middle" x="1458.5" y="-823" font-family="Helvetica,sans-Serif" font-size="10.00" fill="#000000"> +lifetime</text>
</g>
<!-- Node13 -->
<g id="node13" class="node">
<title>Node13</title>
<polygon fill="none" stroke="#bfbfbf" points="1498.5,-849.5 1498.5,-939.5 1662.5,-939.5 1662.5,-849.5 1498.5,-849.5"/>
<text text-anchor="start" x="1506.5" y="-927.5" font-family="Helvetica,sans-Serif" font-size="10.00" fill="#000000">variant&lt; o2::framework</text>
<text text-anchor="start" x="1506.5" y="-916.5" font-family="Helvetica,sans-Serif" font-size="10.00" fill="#000000">::ConcreteDataMatcher,</text>
<text text-anchor="start" x="1506.5" y="-905.5" font-family="Helvetica,sans-Serif" font-size="10.00" fill="#000000"> o2::framework::data_matcher</text>
<text text-anchor="middle" x="1580.5" y="-894.5" font-family="Helvetica,sans-Serif" font-size="10.00" fill="#000000">::DataDescriptorMatcher &gt;</text>
<polyline fill="none" stroke="#bfbfbf" points="1498.5,-887.5 1662.5,-887.5 "/>
<text text-anchor="middle" x="1580.5" y="-875.5" font-family="Helvetica,sans-Serif" font-size="10.00" fill="#000000"> </text>
<polyline fill="none" stroke="#bfbfbf" points="1498.5,-868.5 1662.5,-868.5 "/>
<text text-anchor="middle" x="1580.5" y="-856.5" font-family="Helvetica,sans-Serif" font-size="10.00" fill="#000000"> </text>
</g>
<!-- Node13&#45;&gt;Node11 -->
<g id="edge13" class="edge">
<title>Node13&#45;&gt;Node11</title>
<path fill="none" stroke="#404040" d="M1535.3907,-849.3907C1523.0245,-837.0245 1509.3716,-823.3716 1496.141,-810.141"/>
<polygon fill="none" stroke="#404040" points="1496.0107,-810.0107 1488.9396,-808.5964 1487.5254,-801.5254 1494.5964,-802.9396 1496.0107,-810.0107"/>
<text text-anchor="middle" x="1540.5" y="-823" font-family="Helvetica,sans-Serif" font-size="10.00" fill="#000000"> +matcher</text>
</g>
<!-- Node14&#45;&gt;Node5 -->
<g id="edge15" class="edge">
<title>Node14&#45;&gt;Node5</title>
<path fill="none" stroke="#ffa500" d="M972.2706,-487.4907C970.6823,-486.6347 969.0916,-485.8036 967.5,-485 965.2017,-483.8395 696.9592,-409.9718 565.0728,-373.6852"/>
<polygon fill="#ffa500" stroke="#ffa500" points="970.9082,-490.7425 981.3303,-492.648 974.3712,-484.6591 970.9082,-490.7425"/>
<text text-anchor="middle" x="935" y="-459" font-family="Helvetica,sans-Serif" font-size="10.00" fill="#000000"> &lt; TDirectory &gt;</text>
</g>
<!-- Node14&#45;&gt;Node16 -->
<g id="edge29" class="edge">
<title>Node14&#45;&gt;Node16</title>
<path fill="none" stroke="#ffa500" d="M1055.7422,-475.5262C1054.0676,-462.9967 1052.349,-450.1384 1050.6858,-437.6937"/>
<polygon fill="#ffa500" stroke="#ffa500" points="1052.2799,-476.0418 1057.0738,-485.4899 1059.2182,-475.1144 1052.2799,-476.0418"/>
<text text-anchor="middle" x="1079" y="-459" font-family="Helvetica,sans-Serif" font-size="10.00" fill="#000000"> &lt; TH1F &gt;</text>
</g>
<!-- Node15 -->
<g id="node15" class="node">
<title>Node15</title>
<polygon fill="none" stroke="#bfbfbf" points="1090,-717 1090,-774 1187,-774 1187,-717 1090,-717"/>
<text text-anchor="middle" x="1138.5" y="-762" font-family="Helvetica,sans-Serif" font-size="10.00" fill="#000000">shared_ptr&lt; T &gt;</text>
<polyline fill="none" stroke="#bfbfbf" points="1090,-755 1187,-755 "/>
<text text-anchor="middle" x="1138.5" y="-743" font-family="Helvetica,sans-Serif" font-size="10.00" fill="#000000"> </text>
<polyline fill="none" stroke="#bfbfbf" points="1090,-736 1187,-736 "/>
<text text-anchor="middle" x="1138.5" y="-724" font-family="Helvetica,sans-Serif" font-size="10.00" fill="#000000"> </text>
</g>
<!-- Node15&#45;&gt;Node14 -->
<g id="edge19" class="edge">
<title>Node15&#45;&gt;Node14</title>
<path fill="none" stroke="#404040" d="M1107.526,-716.8059C1095.7249,-703.998 1083.4529,-687.9726 1076.5,-671 1074.2658,-665.5463 1072.445,-659.8089 1070.9695,-653.9402"/>
<polygon fill="none" stroke="#404040" points="1070.877,-653.5003 1065.7265,-648.4533 1068.4043,-641.7578 1073.5548,-646.8049 1070.877,-653.5003"/>
<text text-anchor="middle" x="1097.5" y="-663" font-family="Helvetica,sans-Serif" font-size="10.00" fill="#000000"> +object</text>
</g>
<!-- Node16&#45;&gt;Node1 -->
<g id="edge22" class="edge">
<title>Node16&#45;&gt;Node1</title>
<path fill="none" stroke="#404040" d="M967.779,-320.4513C847.4745,-264.1767 605.9998,-151.2228 481.5734,-93.0202"/>
<polygon fill="none" stroke="#404040" points="481.5034,-92.9875 474.3738,-94.0685 470.6338,-87.903 477.7635,-86.8221 481.5034,-92.9875"/>
<text text-anchor="middle" x="848.5" y="-244" font-family="Helvetica,sans-Serif" font-size="10.00" fill="#000000"> +fOutEtaA</text>
<text text-anchor="middle" x="848.5" y="-233" font-family="Helvetica,sans-Serif" font-size="10.00" fill="#000000">+fOutEtaB</text>
<text text-anchor="middle" x="848.5" y="-222" font-family="Helvetica,sans-Serif" font-size="10.00" fill="#000000">+fOutPtA</text>
<text text-anchor="middle" x="848.5" y="-211" font-family="Helvetica,sans-Serif" font-size="10.00" fill="#000000">+fOutPtB</text>
<text text-anchor="middle" x="848.5" y="-200" font-family="Helvetica,sans-Serif" font-size="10.00" fill="#000000">+fOutPtPosA</text>
<text text-anchor="middle" x="848.5" y="-189" font-family="Helvetica,sans-Serif" font-size="10.00" fill="#000000">+fOutPtNegA</text>
<text text-anchor="middle" x="848.5" y="-178" font-family="Helvetica,sans-Serif" font-size="10.00" fill="#000000">+fOutPtPosB</text>
<text text-anchor="middle" x="848.5" y="-167" font-family="Helvetica,sans-Serif" font-size="10.00" fill="#000000">+fOutPhiA</text>
<text text-anchor="middle" x="848.5" y="-156" font-family="Helvetica,sans-Serif" font-size="10.00" fill="#000000">+fOutPtNegB</text>
<text text-anchor="middle" x="848.5" y="-145" font-family="Helvetica,sans-Serif" font-size="10.00" fill="#000000">+fOutPhiB</text>
<text text-anchor="middle" x="848.5" y="-134" font-family="Helvetica,sans-Serif" font-size="10.00" fill="#000000">...</text>
</g>
<!-- Node17 -->
<g id="node17" class="node">
<title>Node17</title>
<polygon fill="none" stroke="#bfbfbf" points="1241.5,-535 1241.5,-592 1357.5,-592 1357.5,-535 1241.5,-535"/>
<text text-anchor="middle" x="1299.5" y="-580" font-family="Helvetica,sans-Serif" font-size="10.00" fill="#000000">shared_ptr&lt; TH1F &gt;</text>
<polyline fill="none" stroke="#bfbfbf" points="1241.5,-573 1357.5,-573 "/>
<text text-anchor="middle" x="1299.5" y="-561" font-family="Helvetica,sans-Serif" font-size="10.00" fill="#000000"> </text>
<polyline fill="none" stroke="#bfbfbf" points="1241.5,-554 1357.5,-554 "/>
<text text-anchor="middle" x="1299.5" y="-542" font-family="Helvetica,sans-Serif" font-size="10.00" fill="#000000"> </text>
</g>
<!-- Node17&#45;&gt;Node16 -->
<g id="edge28" class="edge">
<title>Node17&#45;&gt;Node16</title>
<path fill="none" stroke="#404040" d="M1275.9039,-534.8248C1262.4745,-519.29 1244.9005,-500.2175 1227.5,-485 1194.7989,-456.4015 1155.7871,-428.3643 1121.7991,-405.6134"/>
<polygon fill="none" stroke="#404040" points="1121.4231,-405.3638 1114.212,-405.3785 1111.4249,-398.7277 1118.6361,-398.7131 1121.4231,-405.3638"/>
<text text-anchor="middle" x="1224.5" y="-459" font-family="Helvetica,sans-Serif" font-size="10.00" fill="#000000"> +object</text>
</g>
</g>
</svg>
