<?xml version="1.0" encoding="UTF-8" standalone="no"?>
<!DOCTYPE svg PUBLIC "-//W3C//DTD SVG 1.1//EN"
 "http://www.w3.org/Graphics/SVG/1.1/DTD/svg11.dtd">
<!-- Generated by graphviz version 2.40.1 (20161225.0304)
 -->
<!-- Title: o2::raw::RawFileReader::LinkBlock Pages: 1 -->
<svg width="628pt" height="694pt"
 viewBox="0.00 0.00 628.40 694.00" xmlns="http://www.w3.org/2000/svg" xmlns:xlink="http://www.w3.org/1999/xlink">
<g id="graph0" class="graph" transform="scale(1 1) rotate(0) translate(4 690)">
<title>o2::raw::RawFileReader::LinkBlock</title>
<!-- Node1 -->
<g id="node1" class="node">
<title>Node1</title>
<polygon fill="#bfbfbf" stroke="#000000" points="296.4003,-.5 296.4003,-112.5 425.4003,-112.5 425.4003,-.5 296.4003,-.5"/>
<text text-anchor="start" x="304.4003" y="-100.5" font-family="Helvetica,sans-Serif" font-size="10.00" fill="#000000">o2::raw::RawFileReader</text>
<text text-anchor="middle" x="360.9003" y="-89.5" font-family="Helvetica,sans-Serif" font-size="10.00" fill="#000000">::LinkBlock</text>
<polyline fill="none" stroke="#000000" points="296.4003,-82.5 425.4003,-82.5 "/>
<text text-anchor="middle" x="360.9003" y="-70.5" font-family="Helvetica,sans-Serif" font-size="10.00" fill="#000000"> </text>
<polyline fill="none" stroke="#000000" points="296.4003,-63.5 425.4003,-63.5 "/>
<text text-anchor="start" x="304.4003" y="-51.5" font-family="Helvetica,sans-Serif" font-size="10.00" fill="#000000">+ LinkBlock()</text>
<text text-anchor="start" x="304.4003" y="-40.5" font-family="Helvetica,sans-Serif" font-size="10.00" fill="#000000">+ LinkBlock()</text>
<text text-anchor="start" x="304.4003" y="-29.5" font-family="Helvetica,sans-Serif" font-size="10.00" fill="#000000">+ setFlag()</text>
<text text-anchor="start" x="304.4003" y="-18.5" font-family="Helvetica,sans-Serif" font-size="10.00" fill="#000000">+ testFlag()</text>
<text text-anchor="start" x="304.4003" y="-7.5" font-family="Helvetica,sans-Serif" font-size="10.00" fill="#000000">+ print()</text>
</g>
<!-- Node2 -->
<g id="node2" class="node">
<title>Node2</title>
<g id="a_node2"><a xlink:href="../../d1/d21/structo2_1_1InteractionRecord.html" target="_top" xlink:title="{o2::InteractionRecord\n||+ InteractionRecord()\l+ InteractionRecord()\l+ InteractionRecord()\l+ InteractionRecord()\l+ clear()\l+ isDummy()\l+ setFromNS()\l+ bc2ns()\l+ operator==()\l+ operator!=()\l+ differenceInBC()\l+ toLong()\l+ setFromLong()\l+ operator\&gt;()\l+ operator\&gt;=()\l+ operator\&lt;()\l+ operator\&lt;=()\l+ operator&#45;&#45;()\l+ operator&#45;&#45;()\l+ operator++()\l+ operator++()\l+ operator+=()\l+ operator&#45;=()\l+ operator+=()\l+ operator&#45;=()\l+ operator+()\l+ operator&#45;()\l+ operator+()\l+ operator&#45;()\l+ print()\l+ ClassDefNV()\l+ bc2ns()\l+ ns2bc()\l}">
<polygon fill="none" stroke="#000000" points="116.4003,-160.5 116.4003,-569.5 237.4003,-569.5 237.4003,-160.5 116.4003,-160.5"/>
<text text-anchor="middle" x="176.9003" y="-557.5" font-family="Helvetica,sans-Serif" font-size="10.00" fill="#000000">o2::InteractionRecord</text>
<polyline fill="none" stroke="#000000" points="116.4003,-550.5 237.4003,-550.5 "/>
<text text-anchor="middle" x="176.9003" y="-538.5" font-family="Helvetica,sans-Serif" font-size="10.00" fill="#000000"> </text>
<polyline fill="none" stroke="#000000" points="116.4003,-531.5 237.4003,-531.5 "/>
<text text-anchor="start" x="124.4003" y="-519.5" font-family="Helvetica,sans-Serif" font-size="10.00" fill="#000000">+ InteractionRecord()</text>
<text text-anchor="start" x="124.4003" y="-508.5" font-family="Helvetica,sans-Serif" font-size="10.00" fill="#000000">+ InteractionRecord()</text>
<text text-anchor="start" x="124.4003" y="-497.5" font-family="Helvetica,sans-Serif" font-size="10.00" fill="#000000">+ InteractionRecord()</text>
<text text-anchor="start" x="124.4003" y="-486.5" font-family="Helvetica,sans-Serif" font-size="10.00" fill="#000000">+ InteractionRecord()</text>
<text text-anchor="start" x="124.4003" y="-475.5" font-family="Helvetica,sans-Serif" font-size="10.00" fill="#000000">+ clear()</text>
<text text-anchor="start" x="124.4003" y="-464.5" font-family="Helvetica,sans-Serif" font-size="10.00" fill="#000000">+ isDummy()</text>
<text text-anchor="start" x="124.4003" y="-453.5" font-family="Helvetica,sans-Serif" font-size="10.00" fill="#000000">+ setFromNS()</text>
<text text-anchor="start" x="124.4003" y="-442.5" font-family="Helvetica,sans-Serif" font-size="10.00" fill="#000000">+ bc2ns()</text>
<text text-anchor="start" x="124.4003" y="-431.5" font-family="Helvetica,sans-Serif" font-size="10.00" fill="#000000">+ operator==()</text>
<text text-anchor="start" x="124.4003" y="-420.5" font-family="Helvetica,sans-Serif" font-size="10.00" fill="#000000">+ operator!=()</text>
<text text-anchor="start" x="124.4003" y="-409.5" font-family="Helvetica,sans-Serif" font-size="10.00" fill="#000000">+ differenceInBC()</text>
<text text-anchor="start" x="124.4003" y="-398.5" font-family="Helvetica,sans-Serif" font-size="10.00" fill="#000000">+ toLong()</text>
<text text-anchor="start" x="124.4003" y="-387.5" font-family="Helvetica,sans-Serif" font-size="10.00" fill="#000000">+ setFromLong()</text>
<text text-anchor="start" x="124.4003" y="-376.5" font-family="Helvetica,sans-Serif" font-size="10.00" fill="#000000">+ operator&gt;()</text>
<text text-anchor="start" x="124.4003" y="-365.5" font-family="Helvetica,sans-Serif" font-size="10.00" fill="#000000">+ operator&gt;=()</text>
<text text-anchor="start" x="124.4003" y="-354.5" font-family="Helvetica,sans-Serif" font-size="10.00" fill="#000000">+ operator&lt;()</text>
<text text-anchor="start" x="124.4003" y="-343.5" font-family="Helvetica,sans-Serif" font-size="10.00" fill="#000000">+ operator&lt;=()</text>
<text text-anchor="start" x="124.4003" y="-332.5" font-family="Helvetica,sans-Serif" font-size="10.00" fill="#000000">+ operator&#45;&#45;()</text>
<text text-anchor="start" x="124.4003" y="-321.5" font-family="Helvetica,sans-Serif" font-size="10.00" fill="#000000">+ operator&#45;&#45;()</text>
<text text-anchor="start" x="124.4003" y="-310.5" font-family="Helvetica,sans-Serif" font-size="10.00" fill="#000000">+ operator++()</text>
<text text-anchor="start" x="124.4003" y="-299.5" font-family="Helvetica,sans-Serif" font-size="10.00" fill="#000000">+ operator++()</text>
<text text-anchor="start" x="124.4003" y="-288.5" font-family="Helvetica,sans-Serif" font-size="10.00" fill="#000000">+ operator+=()</text>
<text text-anchor="start" x="124.4003" y="-277.5" font-family="Helvetica,sans-Serif" font-size="10.00" fill="#000000">+ operator&#45;=()</text>
<text text-anchor="start" x="124.4003" y="-266.5" font-family="Helvetica,sans-Serif" font-size="10.00" fill="#000000">+ operator+=()</text>
<text text-anchor="start" x="124.4003" y="-255.5" font-family="Helvetica,sans-Serif" font-size="10.00" fill="#000000">+ operator&#45;=()</text>
<text text-anchor="start" x="124.4003" y="-244.5" font-family="Helvetica,sans-Serif" font-size="10.00" fill="#000000">+ operator+()</text>
<text text-anchor="start" x="124.4003" y="-233.5" font-family="Helvetica,sans-Serif" font-size="10.00" fill="#000000">+ operator&#45;()</text>
<text text-anchor="start" x="124.4003" y="-222.5" font-family="Helvetica,sans-Serif" font-size="10.00" fill="#000000">+ operator+()</text>
<text text-anchor="start" x="124.4003" y="-211.5" font-family="Helvetica,sans-Serif" font-size="10.00" fill="#000000">+ operator&#45;()</text>
<text text-anchor="start" x="124.4003" y="-200.5" font-family="Helvetica,sans-Serif" font-size="10.00" fill="#000000">+ print()</text>
<text text-anchor="start" x="124.4003" y="-189.5" font-family="Helvetica,sans-Serif" font-size="10.00" fill="#000000">+ ClassDefNV()</text>
<text text-anchor="start" x="124.4003" y="-178.5" font-family="Helvetica,sans-Serif" font-size="10.00" fill="#000000">+ bc2ns()</text>
<text text-anchor="start" x="124.4003" y="-167.5" font-family="Helvetica,sans-Serif" font-size="10.00" fill="#000000">+ ns2bc()</text>
</a>
</g>
</g>
<!-- Node2&#45;&gt;Node1 -->
<g id="edge1" class="edge">
<title>Node2&#45;&gt;Node1</title>
<path fill="none" stroke="#404040" d="M237.5357,-224.8335C253.5408,-192.9808 271.9719,-160.0085 291.9003,-131 293.8656,-128.1393 295.9367,-125.2779 298.0857,-122.433"/>
<polygon fill="none" stroke="#404040" points="298.2166,-122.2672 298.7946,-115.0792 305.6519,-112.8482 305.0739,-120.0361 298.2166,-122.2672"/>
<text text-anchor="middle" x="301.4003" y="-134" font-family="Helvetica,sans-Serif" font-size="10.00" fill="#000000"> +ir</text>
</g>
<!-- Node3 -->
<g id="node3" class="node">
<title>Node3</title>
<polygon fill="none" stroke="#bfbfbf" points="113.9003,-628.5 113.9003,-685.5 163.9003,-685.5 163.9003,-628.5 113.9003,-628.5"/>
<text text-anchor="middle" x="138.9003" y="-673.5" font-family="Helvetica,sans-Serif" font-size="10.00" fill="#000000">double</text>
<polyline fill="none" stroke="#bfbfbf" points="113.9003,-666.5 163.9003,-666.5 "/>
<text text-anchor="middle" x="138.9003" y="-654.5" font-family="Helvetica,sans-Serif" font-size="10.00" fill="#000000"> </text>
<polyline fill="none" stroke="#bfbfbf" points="113.9003,-647.5 163.9003,-647.5 "/>
<text text-anchor="middle" x="138.9003" y="-635.5" font-family="Helvetica,sans-Serif" font-size="10.00" fill="#000000"> </text>
</g>
<!-- Node3&#45;&gt;Node2 -->
<g id="edge2" class="edge">
<title>Node3&#45;&gt;Node2</title>
<path fill="none" stroke="#404040" d="M138.3559,-628.4151C138.3665,-615.9765 138.7123,-601.2451 139.9003,-588 140.0871,-585.9174 140.2822,-583.8248 140.4851,-581.7237"/>
<polygon fill="none" stroke="#404040" points="140.5036,-581.5423 137.1376,-575.165 141.7297,-569.6051 145.0957,-575.9824 140.5036,-581.5423"/>
<text text-anchor="middle" x="177.9003" y="-596.5" font-family="Helvetica,sans-Serif" font-size="10.00" fill="#000000"> +DummyTime</text>
</g>
<!-- Node4 -->
<g id="node4" class="node">
<title>Node4</title>
<polygon fill="none" stroke="#bfbfbf" points="7.9003,-628.5 7.9003,-685.5 63.9003,-685.5 63.9003,-628.5 7.9003,-628.5"/>
<text text-anchor="middle" x="35.9003" y="-673.5" font-family="Helvetica,sans-Serif" font-size="10.00" fill="#000000">uint16_t</text>
<polyline fill="none" stroke="#bfbfbf" points="7.9003,-666.5 63.9003,-666.5 "/>
<text text-anchor="middle" x="35.9003" y="-654.5" font-family="Helvetica,sans-Serif" font-size="10.00" fill="#000000"> </text>
<polyline fill="none" stroke="#bfbfbf" points="7.9003,-647.5 63.9003,-647.5 "/>
<text text-anchor="middle" x="35.9003" y="-635.5" font-family="Helvetica,sans-Serif" font-size="10.00" fill="#000000"> </text>
</g>
<!-- Node4&#45;&gt;Node1 -->
<g id="edge5" class="edge">
<title>Node4&#45;&gt;Node1</title>
<path fill="none" stroke="#404040" d="M28.0972,-628.3507C7.476,-545.8744 -39.6946,-304.5573 69.9003,-160 96.3068,-125.1695 207.096,-92.7266 284.0839,-73.7558"/>
<polygon fill="none" stroke="#404040" points="284.4709,-73.6619 289.3568,-68.3583 296.1317,-70.8285 291.2457,-76.1321 284.4709,-73.6619"/>
<text text-anchor="middle" x="88.4003" y="-362.5" font-family="Helvetica,sans-Serif" font-size="10.00" fill="#000000"> +fileID</text>
</g>
<!-- Node4&#45;&gt;Node2 -->
<g id="edge3" class="edge">
<title>Node4&#45;&gt;Node2</title>
<path fill="none" stroke="#404040" d="M49.6767,-628.4702C64.1397,-598.5184 87.9526,-549.2039 111.089,-501.2901"/>
<polygon fill="none" stroke="#404040" points="111.1045,-501.258 110.1115,-494.1156 116.3225,-490.4519 117.3155,-497.5943 111.1045,-501.258"/>
<text text-anchor="middle" x="98.9003" y="-602" font-family="Helvetica,sans-Serif" font-size="10.00" fill="#000000"> +DummyBC</text>
<text text-anchor="middle" x="98.9003" y="-591" font-family="Helvetica,sans-Serif" font-size="10.00" fill="#000000">+bc</text>
</g>
<!-- Node5 -->
<g id="node5" class="node">
<title>Node5</title>
<g id="a_node5"><a xlink:href="../../d3/d87/classuint32__t.html" target="_top" xlink:title="{uint32_t\n||}">
<polygon fill="none" stroke="#000000" points="252.9003,-628.5 252.9003,-685.5 308.9003,-685.5 308.9003,-628.5 252.9003,-628.5"/>
<text text-anchor="middle" x="280.9003" y="-673.5" font-family="Helvetica,sans-Serif" font-size="10.00" fill="#000000">uint32_t</text>
<polyline fill="none" stroke="#000000" points="252.9003,-666.5 308.9003,-666.5 "/>
<text text-anchor="middle" x="280.9003" y="-654.5" font-family="Helvetica,sans-Serif" font-size="10.00" fill="#000000"> </text>
<polyline fill="none" stroke="#000000" points="252.9003,-647.5 308.9003,-647.5 "/>
<text text-anchor="middle" x="280.9003" y="-635.5" font-family="Helvetica,sans-Serif" font-size="10.00" fill="#000000"> </text>
</a>
</g>
</g>
<!-- Node5&#45;&gt;Node1 -->
<g id="edge9" class="edge">
<title>Node5&#45;&gt;Node1</title>
<path fill="none" stroke="#404040" d="M302.43,-628.3306C305.8381,-622.5247 308.8949,-616.2697 310.9003,-610 341.4065,-514.6297 318.6277,-258.9589 333.9003,-160 335.6767,-148.4901 338.2031,-136.408 341.0055,-124.7248"/>
<polygon fill="none" stroke="#404040" points="341.0927,-124.3759 338.669,-117.5843 344.0059,-112.7349 346.4297,-119.5264 341.0927,-124.3759"/>
<text text-anchor="middle" x="348.9003" y="-368" font-family="Helvetica,sans-Serif" font-size="10.00" fill="#000000"> +tfID</text>
<text text-anchor="middle" x="348.9003" y="-357" font-family="Helvetica,sans-Serif" font-size="10.00" fill="#000000">+size</text>
</g>
<!-- Node5&#45;&gt;Node2 -->
<g id="edge4" class="edge">
<title>Node5&#45;&gt;Node2</title>
<path fill="none" stroke="#404040" d="M252.7297,-629.8443C247.5386,-623.7187 242.5984,-616.9572 238.9003,-610 233.9627,-600.7109 229.4062,-591.0127 225.2026,-581.0635"/>
<polygon fill="none" stroke="#404040" points="225.1168,-580.8519 219.1544,-576.796 220.605,-569.7323 226.5674,-573.7882 225.1168,-580.8519"/>
<text text-anchor="middle" x="274.9003" y="-602" font-family="Helvetica,sans-Serif" font-size="10.00" fill="#000000"> +orbit</text>
<text text-anchor="middle" x="274.9003" y="-591" font-family="Helvetica,sans-Serif" font-size="10.00" fill="#000000">+DummyOrbit</text>
</g>
<!-- Node6 -->
<g id="node6" class="node">
<title>Node6</title>
<polygon fill="none" stroke="#bfbfbf" points="372.9003,-336.5 372.9003,-393.5 422.9003,-393.5 422.9003,-336.5 372.9003,-336.5"/>
<text text-anchor="middle" x="397.9003" y="-381.5" font-family="Helvetica,sans-Serif" font-size="10.00" fill="#000000">uint8_t</text>
<polyline fill="none" stroke="#bfbfbf" points="372.9003,-374.5 422.9003,-374.5 "/>
<text text-anchor="middle" x="397.9003" y="-362.5" font-family="Helvetica,sans-Serif" font-size="10.00" fill="#000000"> </text>
<polyline fill="none" stroke="#bfbfbf" points="372.9003,-355.5 422.9003,-355.5 "/>
<text text-anchor="middle" x="397.9003" y="-343.5" font-family="Helvetica,sans-Serif" font-size="10.00" fill="#000000"> </text>
</g>
<!-- Node6&#45;&gt;Node1 -->
<g id="edge6" class="edge">
<title>Node6&#45;&gt;Node1</title>
<path fill="none" stroke="#404040" d="M394.4527,-336.2541C388.7105,-288.3767 377.035,-191.0283 369.0888,-124.7741"/>
<polygon fill="none" stroke="#404040" points="369.0798,-124.6983 364.3937,-119.2174 367.6507,-112.7837 372.3368,-118.2647 369.0798,-124.6983"/>
<text text-anchor="middle" x="387.4003" y="-134" font-family="Helvetica,sans-Serif" font-size="10.00" fill="#000000"> +flags</text>
</g>
<!-- Node7 -->
<g id="node7" class="node">
<title>Node7</title>
<polygon fill="none" stroke="#bfbfbf" points="440.9003,-336.5 440.9003,-393.5 556.9003,-393.5 556.9003,-336.5 440.9003,-336.5"/>
<text text-anchor="middle" x="498.9003" y="-381.5" font-family="Helvetica,sans-Serif" font-size="10.00" fill="#000000">unique_ptr&lt; char[]&gt;</text>
<polyline fill="none" stroke="#bfbfbf" points="440.9003,-374.5 556.9003,-374.5 "/>
<text text-anchor="middle" x="498.9003" y="-362.5" font-family="Helvetica,sans-Serif" font-size="10.00" fill="#000000"> </text>
<polyline fill="none" stroke="#bfbfbf" points="440.9003,-355.5 556.9003,-355.5 "/>
<text text-anchor="middle" x="498.9003" y="-343.5" font-family="Helvetica,sans-Serif" font-size="10.00" fill="#000000"> </text>
</g>
<!-- Node7&#45;&gt;Node1 -->
<g id="edge7" class="edge">
<title>Node7&#45;&gt;Node1</title>
<path fill="none" stroke="#404040" d="M492.3314,-336.4894C482.3878,-295.9528 461.4864,-219.9304 431.9003,-160 425.7827,-147.608 418.3386,-135.0036 410.6007,-123.0527"/>
<polygon fill="none" stroke="#404040" points="410.3905,-122.7362 403.7388,-119.9514 403.7511,-112.7403 410.4028,-115.5251 410.3905,-122.7362"/>
<text text-anchor="middle" x="453.9003" y="-134" font-family="Helvetica,sans-Serif" font-size="10.00" fill="#000000"> +dataCache</text>
</g>
<!-- Node8 -->
<g id="node8" class="node">
<title>Node8</title>
<polygon fill="none" stroke="#bfbfbf" points="575.4003,-336.5 575.4003,-393.5 620.4003,-393.5 620.4003,-336.5 575.4003,-336.5"/>
<text text-anchor="middle" x="597.9003" y="-381.5" font-family="Helvetica,sans-Serif" font-size="10.00" fill="#000000">size_t</text>
<polyline fill="none" stroke="#bfbfbf" points="575.4003,-374.5 620.4003,-374.5 "/>
<text text-anchor="middle" x="597.9003" y="-362.5" font-family="Helvetica,sans-Serif" font-size="10.00" fill="#000000"> </text>
<polyline fill="none" stroke="#bfbfbf" points="575.4003,-355.5 620.4003,-355.5 "/>
<text text-anchor="middle" x="597.9003" y="-343.5" font-family="Helvetica,sans-Serif" font-size="10.00" fill="#000000"> </text>
</g>
<!-- Node8&#45;&gt;Node1 -->
<g id="edge8" class="edge">
<title>Node8&#45;&gt;Node1</title>
<path fill="none" stroke="#404040" d="M601.1208,-336.4517C604.3746,-293.8137 604.3676,-212.8642 565.9003,-160 535.0415,-117.5918 481.7659,-91.4379 437.2601,-76.0315"/>
<polygon fill="none" stroke="#404040" points="437.2472,-76.0272 430.2929,-77.9346 425.8575,-72.2488 432.8118,-70.3415 437.2472,-76.0272"/>
<text text-anchor="middle" x="569.9003" y="-134" font-family="Helvetica,sans-Serif" font-size="10.00" fill="#000000"> +offset</text>
</g>
</g>
</svg>
