<?xml version="1.0" encoding="UTF-8" standalone="no"?>
<!DOCTYPE svg PUBLIC "-//W3C//DTD SVG 1.1//EN"
 "http://www.w3.org/Graphics/SVG/1.1/DTD/svg11.dtd">
<!-- Generated by graphviz version 2.40.1 (20161225.0304)
 -->
<!-- Title: o2::header::RAWDataHeaderV6 Pages: 1 -->
<!--zoomable 391 -->
<svg id="main" version="1.1" xmlns="http://www.w3.org/2000/svg" xmlns:xlink="http://www.w3.org/1999/xlink" xml:space="preserve" onload="init(evt)">
<style type="text/css"><![CDATA[
.edge:hover path { stroke: red; }
.edge:hover polygon { stroke: red; fill: red; }
]]></style>
<script type="text/javascript"><![CDATA[
var edges = document.getElementsByTagName('g');
if (edges && edges.length) {
  for (var i=0;i<edges.length;i++) {
    if (edges[i].id.substr(0,4)=='edge') {
      edges[i].setAttribute('class','edge');
    }
  }
}
]]></script>
        <defs>
                <circle id="rim" cx="0" cy="0" r="7"/>
                <circle id="rim2" cx="0" cy="0" r="3.5"/>
                <g id="zoomPlus">
                        <use xlink:href="#rim" fill="#404040">
                                <set attributeName="fill" to="#808080" begin="zoomplus.mouseover" end="zoomplus.mouseout"/>
                        </use>
                        <path d="M-4,0h8M0,-4v8" fill="none" stroke="white" stroke-width="1.5" pointer-events="none"/>
                </g>
                <g id="zoomMin">
                        <use xlink:href="#rim" fill="#404040">
                                <set attributeName="fill" to="#808080" begin="zoomminus.mouseover" end="zoomminus.mouseout"/>
                        </use>
                        <path d="M-4,0h8" fill="none" stroke="white" stroke-width="1.5" pointer-events="none"/>
                </g>
                <g id="dirArrow">
                        <path fill="none" stroke="white" stroke-width="1.5" d="M0,-3.0v7 M-2.5,-0.5L0,-3.0L2.5,-0.5"/>
                </g>
               <g id="resetDef">
                       <use xlink:href="#rim2" fill="#404040">
                               <set attributeName="fill" to="#808080" begin="reset.mouseover" end="reset.mouseout"/>
                       </use>
               </g>
        </defs>

<script type="text/javascript">
var viewWidth = 1228;
var viewHeight = 391;
var sectionId = 'dynsection-0';
</script>
<script xlink:href="../../svgpan.js"/>
<svg id="graph" class="graph">
<g id="viewport">
<title>o2::header::RAWDataHeaderV6</title>
<!-- Node1 -->
<g id="node1" class="node">
<title>Node1</title>
<polygon fill="#bfbfbf" stroke="#000000" points="460.5,-.5 460.5,-167.5 627.5,-167.5 627.5,-.5 460.5,-.5"/>
<text text-anchor="middle" x="544" y="-155.5" font-family="Helvetica,sans-Serif" font-size="10.00" fill="#000000">o2::header::RAWDataHeaderV6</text>
<polyline fill="none" stroke="#000000" points="460.5,-148.5 627.5,-148.5 "/>
<text text-anchor="start" x="468.5" y="-136.5" font-family="Helvetica,sans-Serif" font-size="10.00" fill="#000000">+ zero0</text>
<text text-anchor="start" x="468.5" y="-125.5" font-family="Helvetica,sans-Serif" font-size="10.00" fill="#000000">+ word1</text>
<text text-anchor="start" x="468.5" y="-114.5" font-family="Helvetica,sans-Serif" font-size="10.00" fill="#000000">+ word2</text>
<text text-anchor="start" x="468.5" y="-103.5" font-family="Helvetica,sans-Serif" font-size="10.00" fill="#000000">+ word3</text>
<text text-anchor="start" x="468.5" y="-92.5" font-family="Helvetica,sans-Serif" font-size="10.00" fill="#000000">+ word4</text>
<text text-anchor="start" x="468.5" y="-81.5" font-family="Helvetica,sans-Serif" font-size="10.00" fill="#000000">+ pageCnt</text>
<text text-anchor="start" x="468.5" y="-70.5" font-family="Helvetica,sans-Serif" font-size="10.00" fill="#000000">+ stop</text>
<text text-anchor="start" x="468.5" y="-59.5" font-family="Helvetica,sans-Serif" font-size="10.00" fill="#000000">+ zero4</text>
<text text-anchor="start" x="468.5" y="-48.5" font-family="Helvetica,sans-Serif" font-size="10.00" fill="#000000">+ word5</text>
<text text-anchor="start" x="468.5" y="-37.5" font-family="Helvetica,sans-Serif" font-size="10.00" fill="#000000">+ word6</text>
<text text-anchor="start" x="468.5" y="-26.5" font-family="Helvetica,sans-Serif" font-size="10.00" fill="#000000">+ detectorField</text>
<polyline fill="none" stroke="#000000" points="460.5,-19.5 627.5,-19.5 "/>
<text text-anchor="middle" x="544" y="-7.5" font-family="Helvetica,sans-Serif" font-size="10.00" fill="#000000"> </text>
</g>
<!-- Node2 -->
<g id="node2" class="node">
<title>Node2</title>
<g id="a_node2"><a xlink:href="../../d6/d30/classuint64__t.html" target="_top" xlink:title="{uint64_t\n||}">
<polygon fill="none" stroke="#000000" points="0,-325.5 0,-382.5 56,-382.5 56,-325.5 0,-325.5"/>
<text text-anchor="middle" x="28" y="-370.5" font-family="Helvetica,sans-Serif" font-size="10.00" fill="#000000">uint64_t</text>
<polyline fill="none" stroke="#000000" points="0,-363.5 56,-363.5 "/>
<text text-anchor="middle" x="28" y="-351.5" font-family="Helvetica,sans-Serif" font-size="10.00" fill="#000000"> </text>
<polyline fill="none" stroke="#000000" points="0,-344.5 56,-344.5 "/>
<text text-anchor="middle" x="28" y="-332.5" font-family="Helvetica,sans-Serif" font-size="10.00" fill="#000000"> </text>
</a>
</g>
</g>
<!-- Node2&#45;&gt;Node1 -->
<g id="edge1" class="edge">
<title>Node2&#45;&gt;Node1</title>
<path fill="none" stroke="#404040" d="M22.6458,-325.1935C17.5313,-288.0013 15.0602,-223.6035 50,-186 102.9465,-129.017 320.2874,-102.0016 448.3729,-90.8024"/>
<polygon fill="none" stroke="#404040" points="448.5247,-90.7895 454.1622,-86.2931 460.4811,-89.7675 454.8435,-94.264 448.5247,-90.7895"/>
<text text-anchor="middle" x="84" y="-299" font-family="Helvetica,sans-Serif" font-size="10.00" fill="#000000"> +word7</text>
<text text-anchor="middle" x="84" y="-288" font-family="Helvetica,sans-Serif" font-size="10.00" fill="#000000">+triggerType</text>
<text text-anchor="middle" x="84" y="-277" font-family="Helvetica,sans-Serif" font-size="10.00" fill="#000000">+sourceID</text>
<text text-anchor="middle" x="84" y="-266" font-family="Helvetica,sans-Serif" font-size="10.00" fill="#000000">+zero6</text>
<text text-anchor="middle" x="84" y="-255" font-family="Helvetica,sans-Serif" font-size="10.00" fill="#000000">+detectorPAR</text>
<text text-anchor="middle" x="84" y="-244" font-family="Helvetica,sans-Serif" font-size="10.00" fill="#000000">+feeId</text>
<text text-anchor="middle" x="84" y="-233" font-family="Helvetica,sans-Serif" font-size="10.00" fill="#000000">+priority</text>
<text text-anchor="middle" x="84" y="-222" font-family="Helvetica,sans-Serif" font-size="10.00" fill="#000000">+headerSize</text>
<text text-anchor="middle" x="84" y="-211" font-family="Helvetica,sans-Serif" font-size="10.00" fill="#000000">+version</text>
<text text-anchor="middle" x="84" y="-200" font-family="Helvetica,sans-Serif" font-size="10.00" fill="#000000">+word0</text>
<text text-anchor="middle" x="84" y="-189" font-family="Helvetica,sans-Serif" font-size="10.00" fill="#000000">...</text>
</g>
<!-- Node3 -->
<g id="node3" class="node">
<title>Node3</title>
<polygon fill="none" stroke="#bfbfbf" points="82,-325.5 82,-382.5 138,-382.5 138,-325.5 82,-325.5"/>
<text text-anchor="middle" x="110" y="-370.5" font-family="Helvetica,sans-Serif" font-size="10.00" fill="#000000">uint16_t</text>
<polyline fill="none" stroke="#bfbfbf" points="82,-363.5 138,-363.5 "/>
<text text-anchor="middle" x="110" y="-351.5" font-family="Helvetica,sans-Serif" font-size="10.00" fill="#000000"> </text>
<polyline fill="none" stroke="#bfbfbf" points="82,-344.5 138,-344.5 "/>
<text text-anchor="middle" x="110" y="-332.5" font-family="Helvetica,sans-Serif" font-size="10.00" fill="#000000"> </text>
</g>
<!-- Node3&#45;&gt;Node1 -->
<g id="edge2" class="edge">
<title>Node3&#45;&gt;Node1</title>
<path fill="none" stroke="#404040" d="M115.9308,-325.4904C125.2106,-288.0199 146.7639,-222.6735 190,-186 228.9776,-152.9386 357.2643,-121.4023 448.1542,-102.3731"/>
<polygon fill="none" stroke="#404040" points="448.4083,-102.3205 453.4723,-97.1867 460.1589,-99.8866 455.0949,-105.0204 448.4083,-102.3205"/>
<text text-anchor="middle" x="208.5" y="-244" font-family="Helvetica,sans-Serif" font-size="10.00" fill="#000000"> +cruID</text>
</g>
<!-- Node4 -->
<g id="node4" class="node">
<title>Node4</title>
<polygon fill="none" stroke="#bfbfbf" points="156.5,-325.5 156.5,-382.5 269.5,-382.5 269.5,-325.5 156.5,-325.5"/>
<text text-anchor="middle" x="213" y="-370.5" font-family="Helvetica,sans-Serif" font-size="10.00" fill="#000000">anonymous:+@101</text>
<polyline fill="none" stroke="#bfbfbf" points="156.5,-363.5 269.5,-363.5 "/>
<text text-anchor="middle" x="213" y="-351.5" font-family="Helvetica,sans-Serif" font-size="10.00" fill="#000000"> </text>
<polyline fill="none" stroke="#bfbfbf" points="156.5,-344.5 269.5,-344.5 "/>
<text text-anchor="middle" x="213" y="-332.5" font-family="Helvetica,sans-Serif" font-size="10.00" fill="#000000"> </text>
</g>
<!-- Node4&#45;&gt;Node1 -->
<g id="edge3" class="edge">
<title>Node4&#45;&gt;Node1</title>
<path fill="none" stroke="#404040" d="M222.4587,-325.3159C235.9012,-288.5542 263.8029,-224.9345 307,-186 347.1147,-149.8438 402.0085,-125.1204 448.8647,-109.0805"/>
<polygon fill="none" stroke="#404040" points="448.8903,-109.072 453.3231,-103.3842 460.2782,-105.2884 455.8455,-110.9762 448.8903,-109.072"/>
<text text-anchor="middle" x="327" y="-244" font-family="Helvetica,sans-Serif" font-size="10.00" fill="#000000"> +@101</text>
</g>
<!-- Node5 -->
<g id="node5" class="node">
<title>Node5</title>
<polygon fill="none" stroke="#bfbfbf" points="287.5,-325.5 287.5,-382.5 394.5,-382.5 394.5,-325.5 287.5,-325.5"/>
<text text-anchor="middle" x="341" y="-370.5" font-family="Helvetica,sans-Serif" font-size="10.00" fill="#000000">anonymous:+@91</text>
<polyline fill="none" stroke="#bfbfbf" points="287.5,-363.5 394.5,-363.5 "/>
<text text-anchor="middle" x="341" y="-351.5" font-family="Helvetica,sans-Serif" font-size="10.00" fill="#000000"> </text>
<polyline fill="none" stroke="#bfbfbf" points="287.5,-344.5 394.5,-344.5 "/>
<text text-anchor="middle" x="341" y="-332.5" font-family="Helvetica,sans-Serif" font-size="10.00" fill="#000000"> </text>
</g>
<!-- Node5&#45;&gt;Node1 -->
<g id="edge4" class="edge">
<title>Node5&#45;&gt;Node1</title>
<path fill="none" stroke="#404040" d="M345.7672,-325.334C352.839,-289.7287 368.8841,-228.5002 401,-186 414.5582,-168.0579 432.1718,-151.9885 450.3791,-138.2019"/>
<polygon fill="none" stroke="#404040" points="450.5487,-138.0778 453.0292,-131.3067 460.2334,-130.9921 457.753,-137.7632 450.5487,-138.0778"/>
<text text-anchor="middle" x="418" y="-244" font-family="Helvetica,sans-Serif" font-size="10.00" fill="#000000"> +@91</text>
</g>
<!-- Node6 -->
<g id="node6" class="node">
<title>Node6</title>
<g id="a_node6"><a xlink:href="../../d3/d87/classuint32__t.html" target="_top" xlink:title="{uint32_t\n||}">
<polygon fill="none" stroke="#000000" points="413,-325.5 413,-382.5 469,-382.5 469,-325.5 413,-325.5"/>
<text text-anchor="middle" x="441" y="-370.5" font-family="Helvetica,sans-Serif" font-size="10.00" fill="#000000">uint32_t</text>
<polyline fill="none" stroke="#000000" points="413,-363.5 469,-363.5 "/>
<text text-anchor="middle" x="441" y="-351.5" font-family="Helvetica,sans-Serif" font-size="10.00" fill="#000000"> </text>
<polyline fill="none" stroke="#000000" points="413,-344.5 469,-344.5 "/>
<text text-anchor="middle" x="441" y="-332.5" font-family="Helvetica,sans-Serif" font-size="10.00" fill="#000000"> </text>
</a>
</g>
</g>
<!-- Node6&#45;&gt;Node1 -->
<g id="edge5" class="edge">
<title>Node6&#45;&gt;Node1</title>
<path fill="none" stroke="#404040" d="M438.6281,-325.388C436.8949,-290.8999 437.5776,-231.8648 457,-186 458.0693,-183.475 459.2244,-180.9664 460.4552,-178.478"/>
<polygon fill="none" stroke="#404040" points="460.577,-178.2536 459.926,-171.0719 466.3049,-167.7088 466.9558,-174.8905 460.577,-178.2536"/>
<text text-anchor="middle" x="497" y="-282.5" font-family="Helvetica,sans-Serif" font-size="10.00" fill="#000000"> +linkID</text>
<text text-anchor="middle" x="497" y="-271.5" font-family="Helvetica,sans-Serif" font-size="10.00" fill="#000000">+endPointID</text>
<text text-anchor="middle" x="497" y="-260.5" font-family="Helvetica,sans-Serif" font-size="10.00" fill="#000000">+reserved2</text>
<text text-anchor="middle" x="497" y="-249.5" font-family="Helvetica,sans-Serif" font-size="10.00" fill="#000000">+memorySize</text>
<text text-anchor="middle" x="497" y="-238.5" font-family="Helvetica,sans-Serif" font-size="10.00" fill="#000000">+offsetToNext</text>
<text text-anchor="middle" x="497" y="-227.5" font-family="Helvetica,sans-Serif" font-size="10.00" fill="#000000">+orbit</text>
<text text-anchor="middle" x="497" y="-216.5" font-family="Helvetica,sans-Serif" font-size="10.00" fill="#000000">+packetCounter</text>
<text text-anchor="middle" x="497" y="-205.5" font-family="Helvetica,sans-Serif" font-size="10.00" fill="#000000">+bunchCrossing</text>
</g>
<!-- Node7 -->
<g id="node7" class="node">
<title>Node7</title>
<polygon fill="none" stroke="#bfbfbf" points="487.5,-325.5 487.5,-382.5 594.5,-382.5 594.5,-325.5 487.5,-325.5"/>
<text text-anchor="middle" x="541" y="-370.5" font-family="Helvetica,sans-Serif" font-size="10.00" fill="#000000">anonymous:+@87</text>
<polyline fill="none" stroke="#bfbfbf" points="487.5,-363.5 594.5,-363.5 "/>
<text text-anchor="middle" x="541" y="-351.5" font-family="Helvetica,sans-Serif" font-size="10.00" fill="#000000"> </text>
<polyline fill="none" stroke="#bfbfbf" points="487.5,-344.5 594.5,-344.5 "/>
<text text-anchor="middle" x="541" y="-332.5" font-family="Helvetica,sans-Serif" font-size="10.00" fill="#000000"> </text>
</g>
<!-- Node7&#45;&gt;Node1 -->
<g id="edge6" class="edge">
<title>Node7&#45;&gt;Node1</title>
<path fill="none" stroke="#404040" d="M541.3182,-325.3609C541.7014,-290.8712 542.3649,-231.1584 542.936,-179.7577"/>
<polygon fill="none" stroke="#404040" points="542.938,-179.5723 539.0049,-173.5282 543.0714,-167.5731 547.0045,-173.6172 542.938,-179.5723"/>
<text text-anchor="middle" x="559" y="-244" font-family="Helvetica,sans-Serif" font-size="10.00" fill="#000000"> +@87</text>
</g>
<!-- Node8 -->
<g id="node8" class="node">
<title>Node8</title>
<polygon fill="none" stroke="#bfbfbf" points="612.5,-325.5 612.5,-382.5 719.5,-382.5 719.5,-325.5 612.5,-325.5"/>
<text text-anchor="middle" x="666" y="-370.5" font-family="Helvetica,sans-Serif" font-size="10.00" fill="#000000">anonymous:+@93</text>
<polyline fill="none" stroke="#bfbfbf" points="612.5,-363.5 719.5,-363.5 "/>
<text text-anchor="middle" x="666" y="-351.5" font-family="Helvetica,sans-Serif" font-size="10.00" fill="#000000"> </text>
<polyline fill="none" stroke="#bfbfbf" points="612.5,-344.5 719.5,-344.5 "/>
<text text-anchor="middle" x="666" y="-332.5" font-family="Helvetica,sans-Serif" font-size="10.00" fill="#000000"> </text>
</g>
<!-- Node8&#45;&gt;Node1 -->
<g id="edge7" class="edge">
<title>Node8&#45;&gt;Node1</title>
<path fill="none" stroke="#404040" d="M653.0594,-325.3609C637.3765,-290.6529 610.1518,-230.4015 586.8278,-178.7828"/>
<polygon fill="none" stroke="#404040" points="586.7039,-178.5085 580.5881,-174.6879 581.7626,-167.5731 587.8784,-171.3937 586.7039,-178.5085"/>
<text text-anchor="middle" x="659" y="-244" font-family="Helvetica,sans-Serif" font-size="10.00" fill="#000000"> +@93</text>
</g>
<!-- Node9 -->
<g id="node9" class="node">
<title>Node9</title>
<polygon fill="none" stroke="#bfbfbf" points="737.5,-325.5 737.5,-382.5 844.5,-382.5 844.5,-325.5 737.5,-325.5"/>
<text text-anchor="middle" x="791" y="-370.5" font-family="Helvetica,sans-Serif" font-size="10.00" fill="#000000">anonymous:+@89</text>
<polyline fill="none" stroke="#bfbfbf" points="737.5,-363.5 844.5,-363.5 "/>
<text text-anchor="middle" x="791" y="-351.5" font-family="Helvetica,sans-Serif" font-size="10.00" fill="#000000"> </text>
<polyline fill="none" stroke="#bfbfbf" points="737.5,-344.5 844.5,-344.5 "/>
<text text-anchor="middle" x="791" y="-332.5" font-family="Helvetica,sans-Serif" font-size="10.00" fill="#000000"> </text>
</g>
<!-- Node9&#45;&gt;Node1 -->
<g id="edge8" class="edge">
<title>Node9&#45;&gt;Node1</title>
<path fill="none" stroke="#404040" d="M776.14,-325.4351C756.9556,-290.2055 721.1105,-229.638 680,-186 667.2168,-172.4309 652.4623,-159.3482 637.4876,-147.3379"/>
<polygon fill="none" stroke="#404040" points="637.0743,-147.0137 629.8848,-146.4567 627.6337,-139.6059 634.8233,-140.1629 637.0743,-147.0137"/>
<text text-anchor="middle" x="782" y="-244" font-family="Helvetica,sans-Serif" font-size="10.00" fill="#000000"> +@89</text>
</g>
<!-- Node10 -->
<g id="node10" class="node">
<title>Node10</title>
<polygon fill="none" stroke="#bfbfbf" points="862.5,-325.5 862.5,-382.5 969.5,-382.5 969.5,-325.5 862.5,-325.5"/>
<text text-anchor="middle" x="916" y="-370.5" font-family="Helvetica,sans-Serif" font-size="10.00" fill="#000000">anonymous:+@95</text>
<polyline fill="none" stroke="#bfbfbf" points="862.5,-363.5 969.5,-363.5 "/>
<text text-anchor="middle" x="916" y="-351.5" font-family="Helvetica,sans-Serif" font-size="10.00" fill="#000000"> </text>
<polyline fill="none" stroke="#bfbfbf" points="862.5,-344.5 969.5,-344.5 "/>
<text text-anchor="middle" x="916" y="-332.5" font-family="Helvetica,sans-Serif" font-size="10.00" fill="#000000"> </text>
</g>
<!-- Node10&#45;&gt;Node1 -->
<g id="edge9" class="edge">
<title>Node10&#45;&gt;Node1</title>
<path fill="none" stroke="#404040" d="M903.4716,-325.4423C885.947,-288.5225 850.8129,-224.422 803,-186 755.3702,-147.7251 691.6099,-122.3766 639.2713,-106.5225"/>
<polygon fill="none" stroke="#404040" points="639.1153,-106.4766 632.2297,-108.6188 627.604,-103.0868 634.4896,-100.9446 639.1153,-106.4766"/>
<text text-anchor="middle" x="909" y="-244" font-family="Helvetica,sans-Serif" font-size="10.00" fill="#000000"> +@95</text>
</g>
<!-- Node11 -->
<g id="node11" class="node">
<title>Node11</title>
<polygon fill="none" stroke="#bfbfbf" points="987.5,-325.5 987.5,-382.5 1094.5,-382.5 1094.5,-325.5 987.5,-325.5"/>
<text text-anchor="middle" x="1041" y="-370.5" font-family="Helvetica,sans-Serif" font-size="10.00" fill="#000000">anonymous:+@97</text>
<polyline fill="none" stroke="#bfbfbf" points="987.5,-363.5 1094.5,-363.5 "/>
<text text-anchor="middle" x="1041" y="-351.5" font-family="Helvetica,sans-Serif" font-size="10.00" fill="#000000"> </text>
<polyline fill="none" stroke="#bfbfbf" points="987.5,-344.5 1094.5,-344.5 "/>
<text text-anchor="middle" x="1041" y="-332.5" font-family="Helvetica,sans-Serif" font-size="10.00" fill="#000000"> </text>
</g>
<!-- Node11&#45;&gt;Node1 -->
<g id="edge10" class="edge">
<title>Node11&#45;&gt;Node1</title>
<path fill="none" stroke="#404040" d="M1029.7596,-325.2249C1013.5108,-287.4571 979.8384,-221.7787 930,-186 883.8527,-152.8711 738.5532,-120.3496 639.992,-101.2394"/>
<polygon fill="none" stroke="#404040" points="639.6984,-101.183 633.0515,-103.9792 627.9138,-98.9191 634.5608,-96.1229 639.6984,-101.183"/>
<text text-anchor="middle" x="1038" y="-244" font-family="Helvetica,sans-Serif" font-size="10.00" fill="#000000"> +@97</text>
</g>
<!-- Node12 -->
<g id="node12" class="node">
<title>Node12</title>
<polygon fill="none" stroke="#bfbfbf" points="1112.5,-325.5 1112.5,-382.5 1219.5,-382.5 1219.5,-325.5 1112.5,-325.5"/>
<text text-anchor="middle" x="1166" y="-370.5" font-family="Helvetica,sans-Serif" font-size="10.00" fill="#000000">anonymous:+@99</text>
<polyline fill="none" stroke="#bfbfbf" points="1112.5,-363.5 1219.5,-363.5 "/>
<text text-anchor="middle" x="1166" y="-351.5" font-family="Helvetica,sans-Serif" font-size="10.00" fill="#000000"> </text>
<polyline fill="none" stroke="#bfbfbf" points="1112.5,-344.5 1219.5,-344.5 "/>
<text text-anchor="middle" x="1166" y="-332.5" font-family="Helvetica,sans-Serif" font-size="10.00" fill="#000000"> </text>
</g>
<!-- Node12&#45;&gt;Node1 -->
<g id="edge11" class="edge">
<title>Node12&#45;&gt;Node1</title>
<path fill="none" stroke="#404040" d="M1156.0299,-325.4222C1141.157,-287.25 1109.3869,-220.4423 1059,-186 992.073,-140.2516 769.4923,-108.8314 639.8914,-93.9164"/>
<polygon fill="none" stroke="#404040" points="639.5712,-93.8801 633.1578,-97.1767 627.648,-92.5246 634.0614,-89.2279 639.5712,-93.8801"/>
<text text-anchor="middle" x="1164" y="-244" font-family="Helvetica,sans-Serif" font-size="10.00" fill="#000000"> +@99</text>
</g>
</g>
</svg>
        <g id="navigator" transform="translate(0 0)" fill="#404254">
                <rect fill="#f2f5e9" fill-opacity="0.5" stroke="#606060" stroke-width=".5" x="0" y="0" width="60" height="60"/>
                <use id="zoomplus" xlink:href="#zoomPlus" x="17" y="9" onmousedown="handleZoom(evt,'in')"/>
                <use id="zoomminus" xlink:href="#zoomMin" x="42" y="9" onmousedown="handleZoom(evt,'out')"/>
                <use id="reset" xlink:href="#resetDef" x="30" y="36" onmousedown="handleReset()"/>
                <g id="arrowUp" xlink:href="#dirArrow" transform="translate(30 24)" onmousedown="handlePan(0,-1)">
                  <use xlink:href="#rim" fill="#404040">
                        <set attributeName="fill" to="#808080" begin="arrowUp.mouseover" end="arrowUp.mouseout"/>
                  </use>
                  <path fill="none" stroke="white" stroke-width="1.5" d="M0,-3.0v7 M-2.5,-0.5L0,-3.0L2.5,-0.5"/>
                </g>
                <g id="arrowRight" xlink:href="#dirArrow" transform="rotate(90) translate(36 -43)" onmousedown="handlePan(1,0)">
                  <use xlink:href="#rim" fill="#404040">
                        <set attributeName="fill" to="#808080" begin="arrowRight.mouseover" end="arrowRight.mouseout"/>
                  </use>
                  <path fill="none" stroke="white" stroke-width="1.5" d="M0,-3.0v7 M-2.5,-0.5L0,-3.0L2.5,-0.5"/>
                </g>
                <g id="arrowDown" xlink:href="#dirArrow" transform="rotate(180) translate(-30 -48)" onmousedown="handlePan(0,1)">
                  <use xlink:href="#rim" fill="#404040">
                        <set attributeName="fill" to="#808080" begin="arrowDown.mouseover" end="arrowDown.mouseout"/>
                  </use>
                  <path fill="none" stroke="white" stroke-width="1.5" d="M0,-3.0v7 M-2.5,-0.5L0,-3.0L2.5,-0.5"/>
                </g>
                <g id="arrowLeft" xlink:href="#dirArrow" transform="rotate(270) translate(-36 17)" onmousedown="handlePan(-1,0)">
                  <use xlink:href="#rim" fill="#404040">
                        <set attributeName="fill" to="#808080" begin="arrowLeft.mouseover" end="arrowLeft.mouseout"/>
                  </use>
                  <path fill="none" stroke="white" stroke-width="1.5" d="M0,-3.0v7 M-2.5,-0.5L0,-3.0L2.5,-0.5"/>
                </g>
        </g>
        <svg viewBox="0 0 15 15" width="100%" height="30px" preserveAspectRatio="xMaxYMin meet">
         <g id="arrow_out" transform="scale(0.3 0.3)">
          <a xlink:href="structo2_1_1header_1_1RAWDataHeaderV6__coll__graph_org.svg" target="_base">
           <rect id="button" ry="5" rx="5" y="6" x="6" height="38" width="38"
                fill="#f2f5e9" fill-opacity="0.5" stroke="#606060" stroke-width="1.0"/>
           <path id="arrow"
             d="M 11.500037,31.436501 C 11.940474,20.09759 22.043105,11.32322 32.158766,21.979434 L 37.068811,17.246167 C 37.068811,17.246167 37.088388,32 37.088388,32 L 22.160133,31.978069 C 22.160133,31.978069 26.997745,27.140456 26.997745,27.140456 C 18.528582,18.264221 13.291696,25.230495 11.500037,31.436501 z"
             style="fill:#404040;"/>
          </a>
         </g>
        </svg>
</svg>
