<?xml version="1.0" encoding="UTF-8" standalone="no"?>
<!DOCTYPE svg PUBLIC "-//W3C//DTD SVG 1.1//EN"
 "http://www.w3.org/Graphics/SVG/1.1/DTD/svg11.dtd">
<!-- Generated by graphviz version 2.40.1 (20161225.0304)
 -->
<!-- Title: /home/travis/build/AliceO2Group/AliceO2/Detectors/ITSMFT/common/reconstruction/include/ITSMFTReconstruction/AlpideCoder.h Pages: 1 -->
<!--zoomable 318 -->
<svg id="main" version="1.1" xmlns="http://www.w3.org/2000/svg" xmlns:xlink="http://www.w3.org/1999/xlink" xml:space="preserve" onload="init(evt)">
<style type="text/css"><![CDATA[
.edge:hover path { stroke: red; }
.edge:hover polygon { stroke: red; fill: red; }
]]></style>
<script type="text/javascript"><![CDATA[
var edges = document.getElementsByTagName('g');
if (edges && edges.length) {
  for (var i=0;i<edges.length;i++) {
    if (edges[i].id.substr(0,4)=='edge') {
      edges[i].setAttribute('class','edge');
    }
  }
}
]]></script>
        <defs>
                <circle id="rim" cx="0" cy="0" r="7"/>
                <circle id="rim2" cx="0" cy="0" r="3.5"/>
                <g id="zoomPlus">
                        <use xlink:href="#rim" fill="#404040">
                                <set attributeName="fill" to="#808080" begin="zoomplus.mouseover" end="zoomplus.mouseout"/>
                        </use>
                        <path d="M-4,0h8M0,-4v8" fill="none" stroke="white" stroke-width="1.5" pointer-events="none"/>
                </g>
                <g id="zoomMin">
                        <use xlink:href="#rim" fill="#404040">
                                <set attributeName="fill" to="#808080" begin="zoomminus.mouseover" end="zoomminus.mouseout"/>
                        </use>
                        <path d="M-4,0h8" fill="none" stroke="white" stroke-width="1.5" pointer-events="none"/>
                </g>
                <g id="dirArrow">
                        <path fill="none" stroke="white" stroke-width="1.5" d="M0,-3.0v7 M-2.5,-0.5L0,-3.0L2.5,-0.5"/>
                </g>
               <g id="resetDef">
                       <use xlink:href="#rim2" fill="#404040">
                               <set attributeName="fill" to="#808080" begin="reset.mouseover" end="reset.mouseout"/>
                       </use>
               </g>
        </defs>

<script type="text/javascript">
var viewWidth = 1235;
var viewHeight = 318;
var sectionId = 'dynsection-0';
</script>
<script xlink:href="../../svgpan.js"/>
<svg id="graph" class="graph">
<g id="viewport">
<title>/home/travis/build/AliceO2Group/AliceO2/Detectors/ITSMFT/common/reconstruction/include/ITSMFTReconstruction/AlpideCoder.h</title>
<!-- Node0 -->
<g id="node1" class="node">
<title>Node0</title>
<polygon fill="#bfbfbf" stroke="#000000" points="746.2721,-246.5 746.2721,-309.5 943.2721,-309.5 943.2721,-246.5 746.2721,-246.5"/>
<text text-anchor="start" x="754.2721" y="-297.5" font-family="Helvetica,sans-Serif" font-size="10.00" fill="#000000">/home/travis/build</text>
<text text-anchor="start" x="754.2721" y="-286.5" font-family="Helvetica,sans-Serif" font-size="10.00" fill="#000000">/AliceO2Group/AliceO2</text>
<text text-anchor="start" x="754.2721" y="-275.5" font-family="Helvetica,sans-Serif" font-size="10.00" fill="#000000">/Detectors/ITSMFT/common</text>
<text text-anchor="start" x="754.2721" y="-264.5" font-family="Helvetica,sans-Serif" font-size="10.00" fill="#000000">/reconstruction/include</text>
<text text-anchor="middle" x="844.7721" y="-253.5" font-family="Helvetica,sans-Serif" font-size="10.00" fill="#000000">/ITSMFTReconstruction/AlpideCoder.h</text>
</g>
<!-- Node1 -->
<g id="node2" class="node">
<title>Node1</title>
<polygon fill="none" stroke="#bfbfbf" points="546.2721,-.5 546.2721,-19.5 605.2721,-19.5 605.2721,-.5 546.2721,-.5"/>
<text text-anchor="middle" x="575.7721" y="-7.5" font-family="Helvetica,sans-Serif" font-size="10.00" fill="#000000">Rtypes.h</text>
</g>
<!-- Node0&#45;&gt;Node1 -->
<g id="edge1" class="edge">
<title>Node0&#45;&gt;Node1</title>
<path fill="none" stroke="#191970" d="M746.2055,-273.0692C586.6678,-264.2368 279.293,-243.4503 175.7721,-210 83.5613,-180.2043 36.8279,-167.093 3.7721,-76 .74,-67.6443 -2.2561,-62.5325 3.7721,-56 21.8441,-36.4163 409.3546,-17.432 536.067,-11.728"/>
<polygon fill="#191970" stroke="#191970" points="536.2875,-15.2217 546.1212,-11.2787 535.9749,-8.2287 536.2875,-15.2217"/>
</g>
<!-- Node2 -->
<g id="node3" class="node">
<title>Node2</title>
<polygon fill="none" stroke="#bfbfbf" points="1025.7721,-185 1025.7721,-204 1071.7721,-204 1071.7721,-185 1025.7721,-185"/>
<text text-anchor="middle" x="1048.7721" y="-192" font-family="Helvetica,sans-Serif" font-size="10.00" fill="#000000">cstdio</text>
</g>
<!-- Node0&#45;&gt;Node2 -->
<g id="edge2" class="edge">
<title>Node0&#45;&gt;Node2</title>
<path fill="none" stroke="#191970" d="M923.0012,-246.3349C951.0272,-234.9409 982.8386,-221.9507 1011.7721,-210 1013.3653,-209.342 1014.9962,-208.6663 1016.6428,-207.9825"/>
<polygon fill="#191970" stroke="#191970" points="1018.2056,-211.123 1026.0889,-204.0447 1015.5121,-204.662 1018.2056,-211.123"/>
</g>
<!-- Node3 -->
<g id="node4" class="node">
<title>Node3</title>
<polygon fill="none" stroke="#bfbfbf" points="12.7721,-56.5 12.7721,-75.5 62.7721,-75.5 62.7721,-56.5 12.7721,-56.5"/>
<text text-anchor="middle" x="37.7721" y="-63.5" font-family="Helvetica,sans-Serif" font-size="10.00" fill="#000000">cstdint</text>
</g>
<!-- Node0&#45;&gt;Node3 -->
<g id="edge3" class="edge">
<title>Node0&#45;&gt;Node3</title>
<path fill="none" stroke="#191970" d="M746.2333,-269.8398C567.6819,-253.5207 199.2691,-212.3528 92.7721,-143 70.9208,-128.77 55.0221,-102.5837 46.0951,-84.7385"/>
<polygon fill="#191970" stroke="#191970" points="49.2005,-83.1185 41.7556,-75.5803 42.8747,-86.1158 49.2005,-83.1185"/>
</g>
<!-- Node4 -->
<g id="node5" class="node">
<title>Node4</title>
<polygon fill="none" stroke="#bfbfbf" points="598.2721,-118 598.2721,-137 645.2721,-137 645.2721,-118 598.2721,-118"/>
<text text-anchor="middle" x="621.7721" y="-125" font-family="Helvetica,sans-Serif" font-size="10.00" fill="#000000">vector</text>
</g>
<!-- Node0&#45;&gt;Node4 -->
<g id="edge4" class="edge">
<title>Node0&#45;&gt;Node4</title>
<path fill="none" stroke="#191970" d="M746.2552,-254.928C701.7944,-242.62 655.8691,-226.6105 640.7721,-210 625.2178,-192.8863 621.6061,-165.6441 621.1324,-147.1888"/>
<polygon fill="#191970" stroke="#191970" points="624.6329,-147.0134 621.1643,-137.0024 617.6329,-146.9914 624.6329,-147.0134"/>
</g>
<!-- Node5 -->
<g id="node6" class="node">
<title>Node5</title>
<polygon fill="none" stroke="#bfbfbf" points="1089.7721,-185 1089.7721,-204 1133.7721,-204 1133.7721,-185 1089.7721,-185"/>
<text text-anchor="middle" x="1111.7721" y="-192" font-family="Helvetica,sans-Serif" font-size="10.00" fill="#000000">string</text>
</g>
<!-- Node0&#45;&gt;Node5 -->
<g id="edge5" class="edge">
<title>Node0&#45;&gt;Node5</title>
<path fill="none" stroke="#191970" d="M943.4181,-253.9055C986.2306,-242.3448 1036.5822,-227.2461 1080.7721,-210 1082.1385,-209.4668 1083.5256,-208.8945 1084.9173,-208.2956"/>
<polygon fill="#191970" stroke="#191970" points="1086.3949,-211.4685 1093.9934,-204.0852 1083.4491,-205.1185 1086.3949,-211.4685"/>
</g>
<!-- Node6 -->
<g id="node7" class="node">
<title>Node6</title>
<polygon fill="none" stroke="#bfbfbf" points="1152.2721,-185 1152.2721,-204 1227.2721,-204 1227.2721,-185 1152.2721,-185"/>
<text text-anchor="middle" x="1189.7721" y="-192" font-family="Helvetica,sans-Serif" font-size="10.00" fill="#000000">FairLogger.h</text>
</g>
<!-- Node0&#45;&gt;Node6 -->
<g id="edge6" class="edge">
<title>Node0&#45;&gt;Node6</title>
<path fill="none" stroke="#191970" d="M943.3346,-257.9503C1001.6703,-245.4781 1076.8237,-228.3548 1142.7721,-210 1145.9175,-209.1246 1149.1647,-208.1675 1152.4142,-207.1723"/>
<polygon fill="#191970" stroke="#191970" points="1153.5923,-210.4707 1162.0699,-204.116 1151.4798,-203.797 1153.5923,-210.4707"/>
</g>
<!-- Node7 -->
<g id="node8" class="node">
<title>Node7</title>
<polygon fill="none" stroke="#bfbfbf" points="929.7721,-118 929.7721,-137 989.7721,-137 989.7721,-118 929.7721,-118"/>
<text text-anchor="middle" x="959.7721" y="-125" font-family="Helvetica,sans-Serif" font-size="10.00" fill="#000000">iostream</text>
</g>
<!-- Node0&#45;&gt;Node7 -->
<g id="edge7" class="edge">
<title>Node0&#45;&gt;Node7</title>
<path fill="none" stroke="#191970" d="M903.6126,-246.4598C917.6017,-236.4722 931.2209,-224.2518 940.7721,-210 953.4512,-191.0809 957.7424,-164.8392 959.1546,-147.0707"/>
<polygon fill="#191970" stroke="#191970" points="962.6532,-147.1921 959.7187,-137.0117 955.6642,-146.8 962.6532,-147.1921"/>
</g>
<!-- Node8 -->
<g id="node9" class="node">
<title>Node8</title>
<g id="a_node9"><a xlink:href="../../d0/d35/PayLoadCont_8h.html" target="_top" xlink:title="Declaration of class for continuos buffer of ALPIDE data. ">
<polygon fill="none" stroke="#000000" points="650.2721,-185 650.2721,-204 739.2721,-204 739.2721,-185 650.2721,-185"/>
<text text-anchor="middle" x="694.7721" y="-192" font-family="Helvetica,sans-Serif" font-size="10.00" fill="#000000">PayLoadCont.h</text>
</a>
</g>
</g>
<!-- Node0&#45;&gt;Node8 -->
<g id="edge8" class="edge">
<title>Node0&#45;&gt;Node8</title>
<path fill="none" stroke="#191970" d="M788.0636,-246.4322C765.0321,-233.6114 739.5497,-219.4262 721.0452,-209.1253"/>
<polygon fill="#191970" stroke="#191970" points="722.4944,-205.9263 712.0545,-204.1205 719.0896,-212.0425 722.4944,-205.9263"/>
</g>
<!-- Node11 -->
<g id="node12" class="node">
<title>Node11</title>
<polygon fill="none" stroke="#bfbfbf" points="1007.7721,-118 1007.7721,-137 1045.7721,-137 1045.7721,-118 1007.7721,-118"/>
<text text-anchor="middle" x="1026.7721" y="-125" font-family="Helvetica,sans-Serif" font-size="10.00" fill="#000000">map</text>
</g>
<!-- Node0&#45;&gt;Node11 -->
<g id="edge13" class="edge">
<title>Node0&#45;&gt;Node11</title>
<path fill="none" stroke="#191970" d="M909.024,-246.4428C927.0313,-236.1041 945.9832,-223.7085 961.7721,-210 983.6129,-191.0371 1003.3434,-163.8991 1015.1933,-145.9976"/>
<polygon fill="#191970" stroke="#191970" points="1018.4456,-147.4129 1020.9292,-137.1132 1012.5647,-143.6161 1018.4456,-147.4129"/>
</g>
<!-- Node12 -->
<g id="node13" class="node">
<title>Node12</title>
<g id="a_node13"><a xlink:href="../../da/d8d/PixelData_8h.html" target="_top" xlink:title="Transient data classes for single pixel and set of pixels from current chip. ">
<polygon fill="none" stroke="#000000" points="426.2721,-179.5 426.2721,-209.5 549.2721,-209.5 549.2721,-179.5 426.2721,-179.5"/>
<text text-anchor="start" x="434.2721" y="-197.5" font-family="Helvetica,sans-Serif" font-size="10.00" fill="#000000">ITSMFTReconstruction</text>
<text text-anchor="middle" x="487.7721" y="-186.5" font-family="Helvetica,sans-Serif" font-size="10.00" fill="#000000">/PixelData.h</text>
</a>
</g>
</g>
<!-- Node0&#45;&gt;Node12 -->
<g id="edge14" class="edge">
<title>Node0&#45;&gt;Node12</title>
<path fill="none" stroke="#191970" d="M745.8018,-254.8515C686.5522,-240.9934 612.6077,-223.6982 559.0838,-211.1793"/>
<polygon fill="#191970" stroke="#191970" points="559.8698,-207.7688 549.3355,-208.8993 558.2755,-214.5848 559.8698,-207.7688"/>
</g>
<!-- Node21 -->
<g id="node22" class="node">
<title>Node21</title>
<g id="a_node22"><a xlink:href="../../d0/d7b/NoiseMap_8h.html" target="_top" xlink:title="Definition of the ITSMFT NoiseMap. ">
<polygon fill="none" stroke="#000000" points="757.7721,-185 757.7721,-204 931.7721,-204 931.7721,-185 757.7721,-185"/>
<text text-anchor="middle" x="844.7721" y="-192" font-family="Helvetica,sans-Serif" font-size="10.00" fill="#000000">DataFormatsITSMFT/NoiseMap.h</text>
</a>
</g>
</g>
<!-- Node0&#45;&gt;Node21 -->
<g id="edge28" class="edge">
<title>Node0&#45;&gt;Node21</title>
<path fill="none" stroke="#191970" d="M844.7721,-246.4322C844.7721,-235.6773 844.7721,-223.9624 844.7721,-214.3857"/>
<polygon fill="#191970" stroke="#191970" points="848.2722,-214.3112 844.7721,-204.3112 841.2722,-214.3112 848.2722,-214.3112"/>
</g>
<!-- Node8&#45;&gt;Node1 -->
<g id="edge12" class="edge">
<title>Node8&#45;&gt;Node1</title>
<path fill="none" stroke="#191970" d="M693.5743,-184.6809C689.9835,-156.5793 678.5723,-76.5381 662.7721,-56 650.8412,-40.4914 632.1739,-29.6527 615.1851,-22.4093"/>
<polygon fill="#191970" stroke="#191970" points="616.0261,-18.978 605.4398,-18.5519 613.4497,-25.4867 616.0261,-18.978"/>
</g>
<!-- Node8&#45;&gt;Node4 -->
<g id="edge10" class="edge">
<title>Node8&#45;&gt;Node4</title>
<path fill="none" stroke="#191970" d="M684.313,-184.9005C672.7125,-174.2535 653.7892,-156.8856 639.7916,-144.0385"/>
<polygon fill="#191970" stroke="#191970" points="641.9459,-141.2649 632.2119,-137.0817 637.2126,-146.4221 641.9459,-141.2649"/>
</g>
<!-- Node9 -->
<g id="node10" class="node">
<title>Node9</title>
<polygon fill="none" stroke="#bfbfbf" points="785.7721,-118 785.7721,-137 835.7721,-137 835.7721,-118 785.7721,-118"/>
<text text-anchor="middle" x="810.7721" y="-125" font-family="Helvetica,sans-Serif" font-size="10.00" fill="#000000">cstring</text>
</g>
<!-- Node8&#45;&gt;Node9 -->
<g id="edge9" class="edge">
<title>Node8&#45;&gt;Node9</title>
<path fill="none" stroke="#191970" d="M711.3921,-184.9005C730.7734,-173.7062 763.0177,-155.0823 785.5037,-142.0947"/>
<polygon fill="#191970" stroke="#191970" points="787.2742,-145.114 794.183,-137.0817 783.7731,-139.0525 787.2742,-145.114"/>
</g>
<!-- Node10 -->
<g id="node11" class="node">
<title>Node10</title>
<polygon fill="none" stroke="#bfbfbf" points="702.2721,-118 702.2721,-137 767.2721,-137 767.2721,-118 702.2721,-118"/>
<text text-anchor="middle" x="734.7721" y="-125" font-family="Helvetica,sans-Serif" font-size="10.00" fill="#000000">functional</text>
</g>
<!-- Node8&#45;&gt;Node10 -->
<g id="edge11" class="edge">
<title>Node8&#45;&gt;Node10</title>
<path fill="none" stroke="#191970" d="M700.5032,-184.9005C706.5626,-174.751 716.2682,-158.4941 723.8062,-145.8679"/>
<polygon fill="#191970" stroke="#191970" points="726.9308,-147.462 729.0517,-137.0817 720.9204,-143.8737 726.9308,-147.462"/>
</g>
<!-- Node12&#45;&gt;Node3 -->
<g id="edge27" class="edge">
<title>Node12&#45;&gt;Node3</title>
<path fill="none" stroke="#191970" d="M425.9697,-188.2493C343.2673,-179.329 201.3686,-161.9199 152.7721,-143 115.4135,-128.4553 77.9013,-100.1607 56.3055,-82.2181"/>
<polygon fill="#191970" stroke="#191970" points="58.4767,-79.4703 48.5844,-75.6765 53.9517,-84.8112 58.4767,-79.4703"/>
</g>
<!-- Node12&#45;&gt;Node4 -->
<g id="edge25" class="edge">
<title>Node12&#45;&gt;Node4</title>
<path fill="none" stroke="#191970" d="M517.8444,-179.4639C540.4291,-168.1715 571.155,-152.8086 593.3337,-141.7192"/>
<polygon fill="#191970" stroke="#191970" points="595.1853,-144.7066 602.5643,-137.1039 592.0547,-138.4456 595.1853,-144.7066"/>
</g>
<!-- Node13 -->
<g id="node14" class="node">
<title>Node13</title>
<g id="a_node14"><a xlink:href="../../d3/d1e/DataFormats_2Detectors_2ITSMFT_2common_2include_2DataFormatsITSMFT_2Digit_8h.html" target="_top" xlink:title="DataFormatsITSMFT/Digit.h">
<polygon fill="none" stroke="#000000" points="368.2721,-118 368.2721,-137 517.2721,-137 517.2721,-118 368.2721,-118"/>
<text text-anchor="middle" x="442.7721" y="-125" font-family="Helvetica,sans-Serif" font-size="10.00" fill="#000000">DataFormatsITSMFT/Digit.h</text>
</a>
</g>
</g>
<!-- Node12&#45;&gt;Node13 -->
<g id="edge15" class="edge">
<title>Node12&#45;&gt;Node13</title>
<path fill="none" stroke="#191970" d="M477.5609,-179.2967C470.822,-169.2631 461.9615,-156.0709 454.8693,-145.5113"/>
<polygon fill="#191970" stroke="#191970" points="457.6708,-143.4049 449.1897,-137.055 451.8598,-147.3078 457.6708,-143.4049"/>
</g>
<!-- Node15 -->
<g id="node16" class="node">
<title>Node15</title>
<g id="a_node16"><a xlink:href="../../d9/d80/InteractionRecord_8h.html" target="_top" xlink:title="CommonDataFormat/Interaction\lRecord.h">
<polygon fill="none" stroke="#000000" points="161.7721,-112.5 161.7721,-142.5 335.7721,-142.5 335.7721,-112.5 161.7721,-112.5"/>
<text text-anchor="start" x="169.7721" y="-130.5" font-family="Helvetica,sans-Serif" font-size="10.00" fill="#000000">CommonDataFormat/Interaction</text>
<text text-anchor="middle" x="248.7721" y="-119.5" font-family="Helvetica,sans-Serif" font-size="10.00" fill="#000000">Record.h</text>
</a>
</g>
</g>
<!-- Node12&#45;&gt;Node15 -->
<g id="edge18" class="edge">
<title>Node12&#45;&gt;Node15</title>
<path fill="none" stroke="#191970" d="M434.1359,-179.4639C398.1297,-169.3701 350.522,-156.024 312.5702,-145.3848"/>
<polygon fill="#191970" stroke="#191970" points="313.2159,-141.931 302.6423,-142.6017 311.3264,-148.6711 313.2159,-141.931"/>
</g>
<!-- Node20 -->
<g id="node21" class="node">
<title>Node20</title>
<polygon fill="none" stroke="#bfbfbf" points="535.2721,-118 535.2721,-137 580.2721,-137 580.2721,-118 535.2721,-118"/>
<text text-anchor="middle" x="557.7721" y="-125" font-family="Helvetica,sans-Serif" font-size="10.00" fill="#000000">utility</text>
</g>
<!-- Node12&#45;&gt;Node20 -->
<g id="edge26" class="edge">
<title>Node12&#45;&gt;Node20</title>
<path fill="none" stroke="#191970" d="M503.6562,-179.2967C514.5625,-168.8578 529.0411,-154.9997 540.2777,-144.2446"/>
<polygon fill="#191970" stroke="#191970" points="542.9852,-146.498 547.7893,-137.055 538.145,-141.4411 542.9852,-146.498"/>
</g>
<!-- Node13&#45;&gt;Node1 -->
<g id="edge16" class="edge">
<title>Node13&#45;&gt;Node1</title>
<path fill="none" stroke="#191970" d="M483.7107,-117.9465C507.8002,-110.3437 537.1058,-97.3384 555.7721,-76 566.9685,-63.2008 571.8975,-44.2882 574.067,-29.9854"/>
<polygon fill="#191970" stroke="#191970" points="577.5837,-30.0499 575.2824,-19.7081 570.6321,-29.2278 577.5837,-30.0499"/>
</g>
<!-- Node14 -->
<g id="node15" class="node">
<title>Node14</title>
<polygon fill="none" stroke="#bfbfbf" points="603.7721,-56.5 603.7721,-75.5 653.7721,-75.5 653.7721,-56.5 603.7721,-56.5"/>
<text text-anchor="middle" x="628.7721" y="-63.5" font-family="Helvetica,sans-Serif" font-size="10.00" fill="#000000">climits</text>
</g>
<!-- Node13&#45;&gt;Node14 -->
<g id="edge17" class="edge">
<title>Node13&#45;&gt;Node14</title>
<path fill="none" stroke="#191970" d="M471.8346,-117.8906C504.7543,-107.0059 558.3898,-89.2716 593.6324,-77.6188"/>
<polygon fill="#191970" stroke="#191970" points="595.0981,-80.8206 603.4938,-74.3582 592.9005,-74.1745 595.0981,-80.8206"/>
</g>
<!-- Node15&#45;&gt;Node3 -->
<g id="edge23" class="edge">
<title>Node15&#45;&gt;Node3</title>
<path fill="none" stroke="#191970" d="M196.8694,-112.4414C163.86,-102.8544 119.9546,-90.0849 72.8085,-76.2982"/>
<polygon fill="#191970" stroke="#191970" points="73.6012,-72.8834 63.0207,-73.4349 71.6358,-79.6019 73.6012,-72.8834"/>
</g>
<!-- Node16 -->
<g id="node17" class="node">
<title>Node16</title>
<g id="a_node17"><a xlink:href="../../d2/d45/GPUCommonRtypes_8h.html" target="_top" xlink:title="GPUCommonRtypes.h">
<polygon fill="none" stroke="#000000" points="355.2721,-56.5 355.2721,-75.5 480.2721,-75.5 480.2721,-56.5 355.2721,-56.5"/>
<text text-anchor="middle" x="417.7721" y="-63.5" font-family="Helvetica,sans-Serif" font-size="10.00" fill="#000000">GPUCommonRtypes.h</text>
</a>
</g>
</g>
<!-- Node15&#45;&gt;Node16 -->
<g id="edge19" class="edge">
<title>Node15&#45;&gt;Node16</title>
<path fill="none" stroke="#191970" d="M290.1142,-112.4554C318.3123,-102.194 355.2753,-88.7429 382.1664,-78.9571"/>
<polygon fill="#191970" stroke="#191970" points="383.3829,-82.239 391.5831,-75.5303 380.9891,-75.6611 383.3829,-82.239"/>
</g>
<!-- Node17 -->
<g id="node18" class="node">
<title>Node17</title>
<polygon fill="none" stroke="#bfbfbf" points="498.2721,-56.5 498.2721,-75.5 547.2721,-75.5 547.2721,-56.5 498.2721,-56.5"/>
<text text-anchor="middle" x="522.7721" y="-63.5" font-family="Helvetica,sans-Serif" font-size="10.00" fill="#000000">iosfwd</text>
</g>
<!-- Node15&#45;&gt;Node17 -->
<g id="edge21" class="edge">
<title>Node15&#45;&gt;Node17</title>
<path fill="none" stroke="#191970" d="M325.853,-112.4842C370.5959,-103.4106 428.2095,-91.1204 487.953,-76.0723"/>
<polygon fill="#191970" stroke="#191970" points="489.118,-79.3876 497.9487,-73.5335 487.3948,-72.603 489.118,-79.3876"/>
</g>
<!-- Node18 -->
<g id="node19" class="node">
<title>Node18</title>
<polygon fill="none" stroke="#bfbfbf" points="81.2721,-56.5 81.2721,-75.5 128.2721,-75.5 128.2721,-56.5 81.2721,-56.5"/>
<text text-anchor="middle" x="104.7721" y="-63.5" font-family="Helvetica,sans-Serif" font-size="10.00" fill="#000000">cmath</text>
</g>
<!-- Node15&#45;&gt;Node18 -->
<g id="edge22" class="edge">
<title>Node15&#45;&gt;Node18</title>
<path fill="none" stroke="#191970" d="M213.5458,-112.4554C189.9405,-102.374 159.1267,-89.2139 136.3245,-79.4755"/>
<polygon fill="#191970" stroke="#191970" points="137.6581,-76.2393 127.087,-75.5303 134.9087,-82.6767 137.6581,-76.2393"/>
</g>
<!-- Node19 -->
<g id="node20" class="node">
<title>Node19</title>
<g id="a_node20"><a xlink:href="../../d4/dc6/LHCConstants_8h.html" target="_top" xlink:title="Header to collect LHC related constants. ">
<polygon fill="none" stroke="#000000" points="146.7721,-56.5 146.7721,-75.5 336.7721,-75.5 336.7721,-56.5 146.7721,-56.5"/>
<text text-anchor="middle" x="241.7721" y="-63.5" font-family="Helvetica,sans-Serif" font-size="10.00" fill="#000000">CommonConstants/LHCConstants.h</text>
</a>
</g>
</g>
<!-- Node15&#45;&gt;Node19 -->
<g id="edge24" class="edge">
<title>Node15&#45;&gt;Node19</title>
<path fill="none" stroke="#191970" d="M247.0418,-112.2977C246.1309,-104.2945 245.0029,-94.3843 244.0245,-85.7889"/>
<polygon fill="#191970" stroke="#191970" points="247.5015,-85.3869 242.8929,-75.8469 240.5464,-86.1786 247.5015,-85.3869"/>
</g>
<!-- Node16&#45;&gt;Node1 -->
<g id="edge20" class="edge">
<title>Node16&#45;&gt;Node1</title>
<path fill="none" stroke="#191970" d="M444.9333,-56.3733C470.9788,-47.1419 510.4837,-33.1402 539.27,-22.9375"/>
<polygon fill="#191970" stroke="#191970" points="540.7092,-26.1408 548.9654,-19.5011 538.3706,-19.5429 540.7092,-26.1408"/>
</g>
<!-- Node21&#45;&gt;Node1 -->
<g id="edge29" class="edge">
<title>Node21&#45;&gt;Node1</title>
<path fill="none" stroke="#191970" d="M851.6432,-184.9172C862.4875,-168.5088 880.775,-134.6183 864.7721,-112 835.2621,-70.2906 687.3746,-33.7554 615.3353,-18.1058"/>
<polygon fill="#191970" stroke="#191970" points="615.7915,-14.6242 605.28,-15.9503 614.3242,-21.4687 615.7915,-14.6242"/>
</g>
<!-- Node21&#45;&gt;Node4 -->
<g id="edge32" class="edge">
<title>Node21&#45;&gt;Node4</title>
<path fill="none" stroke="#191970" d="M812.8217,-184.9005C770.8998,-172.3052 697.6732,-150.3043 655.0854,-137.5089"/>
<polygon fill="#191970" stroke="#191970" points="656.0497,-134.1441 645.4655,-134.6186 654.0354,-140.8481 656.0497,-134.1441"/>
</g>
<!-- Node21&#45;&gt;Node7 -->
<g id="edge30" class="edge">
<title>Node21&#45;&gt;Node7</title>
<path fill="none" stroke="#191970" d="M861.2488,-184.9005C880.3776,-173.7559 912.1455,-155.2477 934.4237,-142.2682"/>
<polygon fill="#191970" stroke="#191970" points="936.4474,-145.1399 943.326,-137.0817 932.9236,-139.0916 936.4474,-145.1399"/>
</g>
<!-- Node21&#45;&gt;Node11 -->
<g id="edge33" class="edge">
<title>Node21&#45;&gt;Node11</title>
<path fill="none" stroke="#191970" d="M879.0904,-184.9878C910.7524,-175.7546 958.7695,-160.5842 998.7721,-143 999.764,-142.564 1000.7672,-142.1045 1001.7743,-141.6276"/>
<polygon fill="#191970" stroke="#191970" points="1003.4388,-144.7075 1010.7406,-137.0306 1000.2451,-138.4784 1003.4388,-144.7075"/>
</g>
<!-- Node21&#45;&gt;Node14 -->
<g id="edge31" class="edge">
<title>Node21&#45;&gt;Node14</title>
<path fill="none" stroke="#191970" d="M848.272,-184.8287C853.6872,-167.981 861.8039,-133.0409 844.7721,-112 822.4497,-84.4231 719.5125,-72.6776 664.1862,-68.286"/>
<polygon fill="#191970" stroke="#191970" points="664.3516,-64.7886 654.1166,-67.5262 663.8249,-71.7688 664.3516,-64.7886"/>
</g>
</g>
</svg>
        <g id="navigator" transform="translate(0 0)" fill="#404254">
                <rect fill="#f2f5e9" fill-opacity="0.5" stroke="#606060" stroke-width=".5" x="0" y="0" width="60" height="60"/>
                <use id="zoomplus" xlink:href="#zoomPlus" x="17" y="9" onmousedown="handleZoom(evt,'in')"/>
                <use id="zoomminus" xlink:href="#zoomMin" x="42" y="9" onmousedown="handleZoom(evt,'out')"/>
                <use id="reset" xlink:href="#resetDef" x="30" y="36" onmousedown="handleReset()"/>
                <g id="arrowUp" xlink:href="#dirArrow" transform="translate(30 24)" onmousedown="handlePan(0,-1)">
                  <use xlink:href="#rim" fill="#404040">
                        <set attributeName="fill" to="#808080" begin="arrowUp.mouseover" end="arrowUp.mouseout"/>
                  </use>
                  <path fill="none" stroke="white" stroke-width="1.5" d="M0,-3.0v7 M-2.5,-0.5L0,-3.0L2.5,-0.5"/>
                </g>
                <g id="arrowRight" xlink:href="#dirArrow" transform="rotate(90) translate(36 -43)" onmousedown="handlePan(1,0)">
                  <use xlink:href="#rim" fill="#404040">
                        <set attributeName="fill" to="#808080" begin="arrowRight.mouseover" end="arrowRight.mouseout"/>
                  </use>
                  <path fill="none" stroke="white" stroke-width="1.5" d="M0,-3.0v7 M-2.5,-0.5L0,-3.0L2.5,-0.5"/>
                </g>
                <g id="arrowDown" xlink:href="#dirArrow" transform="rotate(180) translate(-30 -48)" onmousedown="handlePan(0,1)">
                  <use xlink:href="#rim" fill="#404040">
                        <set attributeName="fill" to="#808080" begin="arrowDown.mouseover" end="arrowDown.mouseout"/>
                  </use>
                  <path fill="none" stroke="white" stroke-width="1.5" d="M0,-3.0v7 M-2.5,-0.5L0,-3.0L2.5,-0.5"/>
                </g>
                <g id="arrowLeft" xlink:href="#dirArrow" transform="rotate(270) translate(-36 17)" onmousedown="handlePan(-1,0)">
                  <use xlink:href="#rim" fill="#404040">
                        <set attributeName="fill" to="#808080" begin="arrowLeft.mouseover" end="arrowLeft.mouseout"/>
                  </use>
                  <path fill="none" stroke="white" stroke-width="1.5" d="M0,-3.0v7 M-2.5,-0.5L0,-3.0L2.5,-0.5"/>
                </g>
        </g>
        <svg viewBox="0 0 15 15" width="100%" height="30px" preserveAspectRatio="xMaxYMin meet">
         <g id="arrow_out" transform="scale(0.3 0.3)">
          <a xlink:href="AlpideCoder_8h__incl_org.svg" target="_base">
           <rect id="button" ry="5" rx="5" y="6" x="6" height="38" width="38"
                fill="#f2f5e9" fill-opacity="0.5" stroke="#606060" stroke-width="1.0"/>
           <path id="arrow"
             d="M 11.500037,31.436501 C 11.940474,20.09759 22.043105,11.32322 32.158766,21.979434 L 37.068811,17.246167 C 37.068811,17.246167 37.088388,32 37.088388,32 L 22.160133,31.978069 C 22.160133,31.978069 26.997745,27.140456 26.997745,27.140456 C 18.528582,18.264221 13.291696,25.230495 11.500037,31.436501 z"
             style="fill:#404040;"/>
          </a>
         </g>
        </svg>
</svg>
