<?xml version="1.0" encoding="UTF-8" standalone="no"?>
<!DOCTYPE svg PUBLIC "-//W3C//DTD SVG 1.1//EN"
 "http://www.w3.org/Graphics/SVG/1.1/DTD/svg11.dtd">
<!-- Generated by graphviz version 2.40.1 (20161225.0304)
 -->
<!-- Title: /home/travis/build/AliceO2Group/AliceO2/Common/Field/include/Field/MagFieldFast.h Pages: 1 -->
<!--zoomable 317 -->
<svg id="main" version="1.1" xmlns="http://www.w3.org/2000/svg" xmlns:xlink="http://www.w3.org/1999/xlink" xml:space="preserve" onload="init(evt)">
<style type="text/css"><![CDATA[
.edge:hover path { stroke: red; }
.edge:hover polygon { stroke: red; fill: red; }
]]></style>
<script type="text/javascript"><![CDATA[
var edges = document.getElementsByTagName('g');
if (edges && edges.length) {
  for (var i=0;i<edges.length;i++) {
    if (edges[i].id.substr(0,4)=='edge') {
      edges[i].setAttribute('class','edge');
    }
  }
}
]]></script>
        <defs>
                <circle id="rim" cx="0" cy="0" r="7"/>
                <circle id="rim2" cx="0" cy="0" r="3.5"/>
                <g id="zoomPlus">
                        <use xlink:href="#rim" fill="#404040">
                                <set attributeName="fill" to="#808080" begin="zoomplus.mouseover" end="zoomplus.mouseout"/>
                        </use>
                        <path d="M-4,0h8M0,-4v8" fill="none" stroke="white" stroke-width="1.5" pointer-events="none"/>
                </g>
                <g id="zoomMin">
                        <use xlink:href="#rim" fill="#404040">
                                <set attributeName="fill" to="#808080" begin="zoomminus.mouseover" end="zoomminus.mouseout"/>
                        </use>
                        <path d="M-4,0h8" fill="none" stroke="white" stroke-width="1.5" pointer-events="none"/>
                </g>
                <g id="dirArrow">
                        <path fill="none" stroke="white" stroke-width="1.5" d="M0,-3.0v7 M-2.5,-0.5L0,-3.0L2.5,-0.5"/>
                </g>
               <g id="resetDef">
                       <use xlink:href="#rim2" fill="#404040">
                               <set attributeName="fill" to="#808080" begin="reset.mouseover" end="reset.mouseout"/>
                       </use>
               </g>
        </defs>

<script type="text/javascript">
var viewWidth = 4411;
var viewHeight = 317;
var sectionId = 'dynsection-1';
</script>
<script xlink:href="../../svgpan.js"/>
<svg id="graph" class="graph">
<g id="viewport">
<title>/home/travis/build/AliceO2Group/AliceO2/Common/Field/include/Field/MagFieldFast.h</title>
<!-- Node14 -->
<g id="node1" class="node">
<title>Node14</title>
<polygon fill="#bfbfbf" stroke="#000000" points="507.5,-256.5 507.5,-308.5 635.5,-308.5 635.5,-256.5 507.5,-256.5"/>
<text text-anchor="start" x="515.5" y="-296.5" font-family="Helvetica,sans-Serif" font-size="10.00" fill="#000000">/home/travis/build</text>
<text text-anchor="start" x="515.5" y="-285.5" font-family="Helvetica,sans-Serif" font-size="10.00" fill="#000000">/AliceO2Group/AliceO2</text>
<text text-anchor="start" x="515.5" y="-274.5" font-family="Helvetica,sans-Serif" font-size="10.00" fill="#000000">/Common/Field/include</text>
<text text-anchor="middle" x="571.5" y="-263.5" font-family="Helvetica,sans-Serif" font-size="10.00" fill="#000000">/Field/MagFieldFast.h</text>
</g>
<!-- Node15 -->
<g id="node2" class="node">
<title>Node15</title>
<g id="a_node2"><a xlink:href="../../db/d4b/MagneticField_8h.html" target="_top" xlink:title="Definition of the MagF class. ">
<polygon fill="none" stroke="#000000" points="1946.5,-167.5 1946.5,-219.5 2074.5,-219.5 2074.5,-167.5 1946.5,-167.5"/>
<text text-anchor="start" x="1954.5" y="-207.5" font-family="Helvetica,sans-Serif" font-size="10.00" fill="#000000">/home/travis/build</text>
<text text-anchor="start" x="1954.5" y="-196.5" font-family="Helvetica,sans-Serif" font-size="10.00" fill="#000000">/AliceO2Group/AliceO2</text>
<text text-anchor="start" x="1954.5" y="-185.5" font-family="Helvetica,sans-Serif" font-size="10.00" fill="#000000">/Common/Field/include</text>
<text text-anchor="middle" x="2010.5" y="-174.5" font-family="Helvetica,sans-Serif" font-size="10.00" fill="#000000">/Field/MagneticField.h</text>
</a>
</g>
</g>
<!-- Node14&#45;&gt;Node15 -->
<g id="edge1" class="edge">
<title>Node14&#45;&gt;Node15</title>
<path fill="none" stroke="#191970" d="M645.769,-277.9066C896.8255,-262.3791 1711.2545,-212.0079 1946.3924,-197.465"/>
<polygon fill="#191970" stroke="#191970" points="645.4217,-274.4213 635.6568,-278.532 645.8538,-281.4079 645.4217,-274.4213"/>
</g>
<!-- Node20 -->
<g id="node7" class="node">
<title>Node20</title>
<g id="a_node7"><a xlink:href="../../d6/dda/testMagneticField_8cxx.html" target="_top" xlink:title="/home/travis/build\l/AliceO2Group/AliceO2\l/Common/Field/test/testMagnetic\lField.cxx">
<polygon fill="none" stroke="#000000" points="0,-78.5 0,-130.5 177,-130.5 177,-78.5 0,-78.5"/>
<text text-anchor="start" x="8" y="-118.5" font-family="Helvetica,sans-Serif" font-size="10.00" fill="#000000">/home/travis/build</text>
<text text-anchor="start" x="8" y="-107.5" font-family="Helvetica,sans-Serif" font-size="10.00" fill="#000000">/AliceO2Group/AliceO2</text>
<text text-anchor="start" x="8" y="-96.5" font-family="Helvetica,sans-Serif" font-size="10.00" fill="#000000">/Common/Field/test/testMagnetic</text>
<text text-anchor="middle" x="88.5" y="-85.5" font-family="Helvetica,sans-Serif" font-size="10.00" fill="#000000">Field.cxx</text>
</a>
</g>
</g>
<!-- Node14&#45;&gt;Node20 -->
<g id="edge29" class="edge">
<title>Node14&#45;&gt;Node20</title>
<path fill="none" stroke="#191970" d="M497.646,-258.7497C463.1345,-247.4129 421.5703,-233.4181 384.5,-220 303.9731,-190.8522 212.2548,-154.5794 152.535,-130.5433"/>
<polygon fill="#191970" stroke="#191970" points="496.5907,-262.0869 507.1834,-261.8741 498.7699,-255.4348 496.5907,-262.0869"/>
</g>
<!-- Node22 -->
<g id="node9" class="node">
<title>Node22</title>
<g id="a_node9"><a xlink:href="../../d8/dee/Propagator_8cxx.html" target="_top" xlink:title="/home/travis/build\l/AliceO2Group/AliceO2\l/Detectors/Base/src/Propagator.cxx">
<polygon fill="none" stroke="#000000" points="195,-84 195,-125 382,-125 382,-84 195,-84"/>
<text text-anchor="start" x="203" y="-113" font-family="Helvetica,sans-Serif" font-size="10.00" fill="#000000">/home/travis/build</text>
<text text-anchor="start" x="203" y="-102" font-family="Helvetica,sans-Serif" font-size="10.00" fill="#000000">/AliceO2Group/AliceO2</text>
<text text-anchor="middle" x="288.5" y="-91" font-family="Helvetica,sans-Serif" font-size="10.00" fill="#000000">/Detectors/Base/src/Propagator.cxx</text>
</a>
</g>
</g>
<!-- Node14&#45;&gt;Node22 -->
<g id="edge30" class="edge">
<title>Node14&#45;&gt;Node22</title>
<path fill="none" stroke="#191970" d="M521.4452,-251.0168C463.7008,-214.697 370.4146,-156.0223 321.2439,-125.0951"/>
<polygon fill="#191970" stroke="#191970" points="519.718,-254.0651 530.0463,-256.4266 523.4449,-248.1397 519.718,-254.0651"/>
</g>
<!-- Node24 -->
<g id="node11" class="node">
<title>Node24</title>
<g id="a_node11"><a xlink:href="../../db/d6a/MatchTOF_8cxx.html" target="_top" xlink:title="/home/travis/build\l/AliceO2Group/AliceO2\l/Detectors/GlobalTracking\l/src/MatchTOF.cxx">
<polygon fill="none" stroke="#000000" points="400.5,-78.5 400.5,-130.5 542.5,-130.5 542.5,-78.5 400.5,-78.5"/>
<text text-anchor="start" x="408.5" y="-118.5" font-family="Helvetica,sans-Serif" font-size="10.00" fill="#000000">/home/travis/build</text>
<text text-anchor="start" x="408.5" y="-107.5" font-family="Helvetica,sans-Serif" font-size="10.00" fill="#000000">/AliceO2Group/AliceO2</text>
<text text-anchor="start" x="408.5" y="-96.5" font-family="Helvetica,sans-Serif" font-size="10.00" fill="#000000">/Detectors/GlobalTracking</text>
<text text-anchor="middle" x="471.5" y="-85.5" font-family="Helvetica,sans-Serif" font-size="10.00" fill="#000000">/src/MatchTOF.cxx</text>
</a>
</g>
</g>
<!-- Node14&#45;&gt;Node24 -->
<g id="edge31" class="edge">
<title>Node14&#45;&gt;Node24</title>
<path fill="none" stroke="#191970" d="M551.8159,-247.4624C532.5086,-213.0953 503.513,-161.4831 486.153,-130.5823"/>
<polygon fill="#191970" stroke="#191970" points="548.7952,-249.2314 556.7447,-256.2355 554.8981,-245.8028 548.7952,-249.2314"/>
</g>
<!-- Node25 -->
<g id="node12" class="node">
<title>Node25</title>
<g id="a_node12"><a xlink:href="../../dc/d59/MatchTPCITS_8cxx.html" target="_top" xlink:title="/home/travis/build\l/AliceO2Group/AliceO2\l/Detectors/GlobalTracking\l/src/MatchTPCITS.cxx">
<polygon fill="none" stroke="#000000" points="560.5,-78.5 560.5,-130.5 702.5,-130.5 702.5,-78.5 560.5,-78.5"/>
<text text-anchor="start" x="568.5" y="-118.5" font-family="Helvetica,sans-Serif" font-size="10.00" fill="#000000">/home/travis/build</text>
<text text-anchor="start" x="568.5" y="-107.5" font-family="Helvetica,sans-Serif" font-size="10.00" fill="#000000">/AliceO2Group/AliceO2</text>
<text text-anchor="start" x="568.5" y="-96.5" font-family="Helvetica,sans-Serif" font-size="10.00" fill="#000000">/Detectors/GlobalTracking</text>
<text text-anchor="middle" x="631.5" y="-85.5" font-family="Helvetica,sans-Serif" font-size="10.00" fill="#000000">/src/MatchTPCITS.cxx</text>
</a>
</g>
</g>
<!-- Node14&#45;&gt;Node25 -->
<g id="edge32" class="edge">
<title>Node14&#45;&gt;Node25</title>
<path fill="none" stroke="#191970" d="M583.6075,-246.5812C595.1905,-212.2182 612.3809,-161.2201 622.7082,-130.5823"/>
<polygon fill="#191970" stroke="#191970" points="580.2308,-245.6414 580.3532,-256.2355 586.8641,-247.8773 580.2308,-245.6414"/>
</g>
<!-- Node41 -->
<g id="node28" class="node">
<title>Node41</title>
<g id="a_node28"><a xlink:href="../../d7/dd5/MagFieldFast_8cxx.html" target="_top" xlink:title="Implementation of the fast magnetic field parametrization MagFieldFast. ">
<polygon fill="none" stroke="#000000" points="2092.5,-173 2092.5,-214 2284.5,-214 2284.5,-173 2092.5,-173"/>
<text text-anchor="start" x="2100.5" y="-202" font-family="Helvetica,sans-Serif" font-size="10.00" fill="#000000">/home/travis/build</text>
<text text-anchor="start" x="2100.5" y="-191" font-family="Helvetica,sans-Serif" font-size="10.00" fill="#000000">/AliceO2Group/AliceO2</text>
<text text-anchor="middle" x="2188.5" y="-180" font-family="Helvetica,sans-Serif" font-size="10.00" fill="#000000">/Common/Field/src/MagFieldFast.cxx</text>
</a>
</g>
</g>
<!-- Node14&#45;&gt;Node41 -->
<g id="edge28" class="edge">
<title>Node14&#45;&gt;Node41</title>
<path fill="none" stroke="#191970" d="M646.0772,-281.4493C910.328,-277.4091 1801.276,-261 2083.5,-220 2093.826,-218.4999 2104.6099,-216.4047 2115.1676,-214.0429"/>
<polygon fill="#191970" stroke="#191970" points="645.7705,-277.9534 635.8247,-281.6046 645.8766,-284.9526 645.7705,-277.9534"/>
</g>
<!-- Node16 -->
<g id="node3" class="node">
<title>Node16</title>
<g id="a_node3"><a xlink:href="../../da/d34/MagFieldFact_8h.html" target="_top" xlink:title="Definition of the MagFieldFact: factory for ALIDE mag. field from MagFieldParam. ">
<polygon fill="none" stroke="#000000" points="2265.5,-78.5 2265.5,-130.5 2393.5,-130.5 2393.5,-78.5 2265.5,-78.5"/>
<text text-anchor="start" x="2273.5" y="-118.5" font-family="Helvetica,sans-Serif" font-size="10.00" fill="#000000">/home/travis/build</text>
<text text-anchor="start" x="2273.5" y="-107.5" font-family="Helvetica,sans-Serif" font-size="10.00" fill="#000000">/AliceO2Group/AliceO2</text>
<text text-anchor="start" x="2273.5" y="-96.5" font-family="Helvetica,sans-Serif" font-size="10.00" fill="#000000">/Common/Field/include</text>
<text text-anchor="middle" x="2329.5" y="-85.5" font-family="Helvetica,sans-Serif" font-size="10.00" fill="#000000">/Field/MagFieldFact.h</text>
</a>
</g>
</g>
<!-- Node15&#45;&gt;Node16 -->
<g id="edge2" class="edge">
<title>Node15&#45;&gt;Node16</title>
<path fill="none" stroke="#191970" d="M2084.8803,-166.7787C2160.9357,-146.0649 2184.0499,-151.5742 2256.5,-131 2259.3534,-130.1897 2262.2555,-129.323 2265.1768,-128.4155"/>
<polygon fill="#191970" stroke="#191970" points="2083.5148,-163.526 2074.8232,-169.5845 2085.3959,-170.2685 2083.5148,-163.526"/>
</g>
<!-- Node17 -->
<g id="node4" class="node">
<title>Node17</title>
<g id="a_node4"><a xlink:href="../../d0/dec/MagFieldFact_8cxx.html" target="_top" xlink:title="/home/travis/build\l/AliceO2Group/AliceO2\l/Common/Field/src/MagFieldFact.cxx">
<polygon fill="none" stroke="#000000" points="2279.5,-.5 2279.5,-41.5 2471.5,-41.5 2471.5,-.5 2279.5,-.5"/>
<text text-anchor="start" x="2287.5" y="-29.5" font-family="Helvetica,sans-Serif" font-size="10.00" fill="#000000">/home/travis/build</text>
<text text-anchor="start" x="2287.5" y="-18.5" font-family="Helvetica,sans-Serif" font-size="10.00" fill="#000000">/AliceO2Group/AliceO2</text>
<text text-anchor="middle" x="2375.5" y="-7.5" font-family="Helvetica,sans-Serif" font-size="10.00" fill="#000000">/Common/Field/src/MagFieldFact.cxx</text>
</a>
</g>
</g>
<!-- Node15&#45;&gt;Node17 -->
<g id="edge4" class="edge">
<title>Node15&#45;&gt;Node17</title>
<path fill="none" stroke="#191970" d="M2084.7096,-167.2655C2168.8846,-153.2578 2356.8714,-182.0675 2402.5,-131 2424.642,-106.2186 2405.7829,-66.2177 2390.4073,-41.8917"/>
<polygon fill="#191970" stroke="#191970" points="2083.861,-163.8657 2074.7367,-169.2507 2085.2276,-170.731 2083.861,-163.8657"/>
</g>
<!-- Node18 -->
<g id="node5" class="node">
<title>Node18</title>
<g id="a_node5"><a xlink:href="../../df/d54/MagFieldParam_8cxx.html" target="_top" xlink:title="Implementation of the MagFieldParam class. ">
<polygon fill="none" stroke="#000000" points="2450,-84 2450,-125 2653,-125 2653,-84 2450,-84"/>
<text text-anchor="start" x="2458" y="-113" font-family="Helvetica,sans-Serif" font-size="10.00" fill="#000000">/home/travis/build</text>
<text text-anchor="start" x="2458" y="-102" font-family="Helvetica,sans-Serif" font-size="10.00" fill="#000000">/AliceO2Group/AliceO2</text>
<text text-anchor="middle" x="2551.5" y="-91" font-family="Helvetica,sans-Serif" font-size="10.00" fill="#000000">/Common/Field/src/MagFieldParam.cxx</text>
</a>
</g>
</g>
<!-- Node15&#45;&gt;Node18 -->
<g id="edge5" class="edge">
<title>Node15&#45;&gt;Node18</title>
<path fill="none" stroke="#191970" d="M2084.5512,-166.9946C2238.6268,-132.8937 2283.5127,-156.0357 2435.5,-131 2445.7934,-129.3044 2456.5398,-127.2466 2467.1598,-125.0354"/>
<polygon fill="#191970" stroke="#191970" points="2083.7113,-163.596 2074.7279,-169.2128 2085.2532,-170.4241 2083.7113,-163.596"/>
</g>
<!-- Node19 -->
<g id="node6" class="node">
<title>Node19</title>
<g id="a_node6"><a xlink:href="../../d2/d78/MagneticField_8cxx.html" target="_top" xlink:title="/home/travis/build\l/AliceO2Group/AliceO2\l/Common/Field/src/MagneticField.cxx">
<polygon fill="none" stroke="#000000" points="2671,-84 2671,-125 2868,-125 2868,-84 2671,-84"/>
<text text-anchor="start" x="2679" y="-113" font-family="Helvetica,sans-Serif" font-size="10.00" fill="#000000">/home/travis/build</text>
<text text-anchor="start" x="2679" y="-102" font-family="Helvetica,sans-Serif" font-size="10.00" fill="#000000">/AliceO2Group/AliceO2</text>
<text text-anchor="middle" x="2769.5" y="-91" font-family="Helvetica,sans-Serif" font-size="10.00" fill="#000000">/Common/Field/src/MagneticField.cxx</text>
</a>
</g>
</g>
<!-- Node15&#45;&gt;Node19 -->
<g id="edge6" class="edge">
<title>Node15&#45;&gt;Node19</title>
<path fill="none" stroke="#191970" d="M2084.5545,-167.0418C2337.7742,-115.8726 2410.8948,-169.6539 2662.5,-131 2672.7145,-129.4308 2683.3806,-127.3444 2693.8535,-125.029"/>
<polygon fill="#191970" stroke="#191970" points="2083.7868,-163.6263 2074.6963,-169.0682 2085.1962,-170.483 2083.7868,-163.6263"/>
</g>
<!-- Node15&#45;&gt;Node20 -->
<g id="edge7" class="edge">
<title>Node15&#45;&gt;Node20</title>
<path fill="none" stroke="#191970" d="M1935.9312,-193.2548C1637.8628,-191.918 531.4756,-183.4521 185.5,-131 182.7384,-130.5813 179.943,-130.1115 177.129,-129.5984"/>
<polygon fill="#191970" stroke="#191970" points="1936.1757,-196.7558 1946.1908,-193.2995 1936.2062,-189.7559 1936.1757,-196.7558"/>
</g>
<!-- Node21 -->
<g id="node8" class="node">
<title>Node21</title>
<g id="a_node8"><a xlink:href="../../d3/dee/Base_2src_2Detector_8cxx.html" target="_top" xlink:title="/home/travis/build\l/AliceO2Group/AliceO2\l/Detectors/Base/src/Detector.cxx">
<polygon fill="none" stroke="#000000" points="2886.5,-84 2886.5,-125 3062.5,-125 3062.5,-84 2886.5,-84"/>
<text text-anchor="start" x="2894.5" y="-113" font-family="Helvetica,sans-Serif" font-size="10.00" fill="#000000">/home/travis/build</text>
<text text-anchor="start" x="2894.5" y="-102" font-family="Helvetica,sans-Serif" font-size="10.00" fill="#000000">/AliceO2Group/AliceO2</text>
<text text-anchor="middle" x="2974.5" y="-91" font-family="Helvetica,sans-Serif" font-size="10.00" fill="#000000">/Detectors/Base/src/Detector.cxx</text>
</a>
</g>
</g>
<!-- Node15&#45;&gt;Node21 -->
<g id="edge8" class="edge">
<title>Node15&#45;&gt;Node21</title>
<path fill="none" stroke="#191970" d="M2084.5053,-167.0699C2431.7862,-99.5596 2531.7756,-185.3743 2877.5,-131 2887.0712,-129.4947 2897.0515,-127.3965 2906.8136,-125.0333"/>
<polygon fill="#191970" stroke="#191970" points="2083.8175,-163.638 2074.6838,-169.007 2085.1721,-170.5057 2083.8175,-163.638"/>
</g>
<!-- Node15&#45;&gt;Node22 -->
<g id="edge9" class="edge">
<title>Node15&#45;&gt;Node22</title>
<path fill="none" stroke="#191970" d="M1935.8086,-192.7294C1659.4874,-189.5498 695.4889,-175.4528 391.5,-131 381.2688,-129.5039 370.585,-127.3942 360.1363,-125.0111"/>
<polygon fill="#191970" stroke="#191970" points="1936.0848,-196.2326 1946.1239,-192.8466 1936.1644,-189.2331 1936.0848,-196.2326"/>
</g>
<!-- Node23 -->
<g id="node10" class="node">
<title>Node23</title>
<g id="a_node10"><a xlink:href="../../d3/d0f/FIT_2FDD_2simulation_2src_2Detector_8cxx.html" target="_top" xlink:title="/home/travis/build\l/AliceO2Group/AliceO2\l/Detectors/FIT/FDD/simulation\l/src/Detector.cxx">
<polygon fill="none" stroke="#000000" points="3080.5,-78.5 3080.5,-130.5 3242.5,-130.5 3242.5,-78.5 3080.5,-78.5"/>
<text text-anchor="start" x="3088.5" y="-118.5" font-family="Helvetica,sans-Serif" font-size="10.00" fill="#000000">/home/travis/build</text>
<text text-anchor="start" x="3088.5" y="-107.5" font-family="Helvetica,sans-Serif" font-size="10.00" fill="#000000">/AliceO2Group/AliceO2</text>
<text text-anchor="start" x="3088.5" y="-96.5" font-family="Helvetica,sans-Serif" font-size="10.00" fill="#000000">/Detectors/FIT/FDD/simulation</text>
<text text-anchor="middle" x="3161.5" y="-85.5" font-family="Helvetica,sans-Serif" font-size="10.00" fill="#000000">/src/Detector.cxx</text>
</a>
</g>
</g>
<!-- Node15&#45;&gt;Node23 -->
<g id="edge10" class="edge">
<title>Node15&#45;&gt;Node23</title>
<path fill="none" stroke="#191970" d="M2084.6163,-167.0578C2516.6811,-84.7979 2641.0897,-201.0719 3071.5,-131 3074.3938,-130.5289 3077.3256,-129.993 3080.2757,-129.4038"/>
<polygon fill="#191970" stroke="#191970" points="2083.8337,-163.6442 2074.6774,-168.9746 2085.1593,-170.5175 2083.8337,-163.6442"/>
</g>
<!-- Node15&#45;&gt;Node24 -->
<g id="edge11" class="edge">
<title>Node15&#45;&gt;Node24</title>
<path fill="none" stroke="#191970" d="M1936.2325,-193.03C1678.1651,-190.9736 821.4256,-180.4928 551.5,-131 548.6218,-130.4723 545.705,-129.8652 542.7732,-129.1945"/>
<polygon fill="#191970" stroke="#191970" points="1936.2253,-196.5299 1946.2522,-193.1079 1936.2798,-189.5301 1936.2253,-196.5299"/>
</g>
<!-- Node15&#45;&gt;Node25 -->
<g id="edge12" class="edge">
<title>Node15&#45;&gt;Node25</title>
<path fill="none" stroke="#191970" d="M1936.0716,-192.5713C1696.7746,-189.1689 948.9478,-175.1842 711.5,-131 708.6232,-130.4647 705.7076,-129.8513 702.7768,-129.1752"/>
<polygon fill="#191970" stroke="#191970" points="1936.3553,-196.0755 1946.4034,-192.7161 1936.4535,-189.0762 1936.3553,-196.0755"/>
</g>
<!-- Node26 -->
<g id="node13" class="node">
<title>Node26</title>
<g id="a_node13"><a xlink:href="../../d7/dca/CookedTracker_8cxx.html" target="_top" xlink:title="Implementation of the &quot;Cooked Matrix&quot; ITS tracker. ">
<polygon fill="none" stroke="#000000" points="3261,-78.5 3261,-130.5 3462,-130.5 3462,-78.5 3261,-78.5"/>
<text text-anchor="start" x="3269" y="-118.5" font-family="Helvetica,sans-Serif" font-size="10.00" fill="#000000">/home/travis/build</text>
<text text-anchor="start" x="3269" y="-107.5" font-family="Helvetica,sans-Serif" font-size="10.00" fill="#000000">/AliceO2Group/AliceO2</text>
<text text-anchor="start" x="3269" y="-96.5" font-family="Helvetica,sans-Serif" font-size="10.00" fill="#000000">/Detectors/ITSMFT/ITS</text>
<text text-anchor="middle" x="3361.5" y="-85.5" font-family="Helvetica,sans-Serif" font-size="10.00" fill="#000000">/reconstruction/src/CookedTracker.cxx</text>
</a>
</g>
</g>
<!-- Node15&#45;&gt;Node26 -->
<g id="edge13" class="edge">
<title>Node15&#45;&gt;Node26</title>
<path fill="none" stroke="#191970" d="M2084.5099,-167.1347C2354.476,-119.2283 2997.2772,-165.1698 3251.5,-131 3254.615,-130.5813 3257.7702,-130.1115 3260.9486,-129.5985"/>
<polygon fill="#191970" stroke="#191970" points="2083.8701,-163.6936 2074.6735,-168.9541 2085.1433,-170.5769 2083.8701,-163.6936"/>
</g>
<!-- Node27 -->
<g id="node14" class="node">
<title>Node27</title>
<g id="a_node14"><a xlink:href="../../d6/dbc/CookedTrackerSpec_8cxx.html" target="_top" xlink:title="/home/travis/build\l/AliceO2Group/AliceO2\l/Detectors/ITSMFT/ITS\l/workflow/src/CookedTrackerSpec.cxx">
<polygon fill="none" stroke="#000000" points="3480.5,-78.5 3480.5,-130.5 3680.5,-130.5 3680.5,-78.5 3480.5,-78.5"/>
<text text-anchor="start" x="3488.5" y="-118.5" font-family="Helvetica,sans-Serif" font-size="10.00" fill="#000000">/home/travis/build</text>
<text text-anchor="start" x="3488.5" y="-107.5" font-family="Helvetica,sans-Serif" font-size="10.00" fill="#000000">/AliceO2Group/AliceO2</text>
<text text-anchor="start" x="3488.5" y="-96.5" font-family="Helvetica,sans-Serif" font-size="10.00" fill="#000000">/Detectors/ITSMFT/ITS</text>
<text text-anchor="middle" x="3580.5" y="-85.5" font-family="Helvetica,sans-Serif" font-size="10.00" fill="#000000">/workflow/src/CookedTrackerSpec.cxx</text>
</a>
</g>
</g>
<!-- Node15&#45;&gt;Node27 -->
<g id="edge14" class="edge">
<title>Node15&#45;&gt;Node27</title>
<path fill="none" stroke="#191970" d="M2084.8851,-167.0663C2403.346,-110.9357 3168.9302,-171.2379 3471.5,-131 3474.3957,-130.6149 3477.3263,-130.184 3480.2778,-129.7139"/>
<polygon fill="#191970" stroke="#191970" points="2083.8763,-163.6927 2074.6701,-168.9363 2085.1369,-170.5783 2083.8763,-163.6927"/>
</g>
<!-- Node28 -->
<g id="node15" class="node">
<title>Node28</title>
<g id="a_node15"><a xlink:href="../../de/d95/ITSMFT_2ITS_2workflow_2src_2TrackerSpec_8cxx.html" target="_top" xlink:title="/home/travis/build\l/AliceO2Group/AliceO2\l/Detectors/ITSMFT/ITS\l/workflow/src/TrackerSpec.cxx">
<polygon fill="none" stroke="#000000" points="3699,-78.5 3699,-130.5 3862,-130.5 3862,-78.5 3699,-78.5"/>
<text text-anchor="start" x="3707" y="-118.5" font-family="Helvetica,sans-Serif" font-size="10.00" fill="#000000">/home/travis/build</text>
<text text-anchor="start" x="3707" y="-107.5" font-family="Helvetica,sans-Serif" font-size="10.00" fill="#000000">/AliceO2Group/AliceO2</text>
<text text-anchor="start" x="3707" y="-96.5" font-family="Helvetica,sans-Serif" font-size="10.00" fill="#000000">/Detectors/ITSMFT/ITS</text>
<text text-anchor="middle" x="3780.5" y="-85.5" font-family="Helvetica,sans-Serif" font-size="10.00" fill="#000000">/workflow/src/TrackerSpec.cxx</text>
</a>
</g>
</g>
<!-- Node15&#45;&gt;Node28 -->
<g id="edge15" class="edge">
<title>Node15&#45;&gt;Node28</title>
<path fill="none" stroke="#191970" d="M2084.5474,-167.1258C2450.6232,-102.7328 3339.8727,-184.8757 3689.5,-131 3692.59,-130.5239 3695.7225,-129.9724 3698.8743,-129.3595"/>
<polygon fill="#191970" stroke="#191970" points="2083.8795,-163.6897 2074.6677,-168.9234 2085.1327,-170.5766 2083.8795,-163.6897"/>
</g>
<!-- Node29 -->
<g id="node16" class="node">
<title>Node29</title>
<g id="a_node16"><a xlink:href="../../d0/d6b/ITSMFT_2MFT_2simulation_2src_2Detector_8cxx.html" target="_top" xlink:title="/home/travis/build\l/AliceO2Group/AliceO2\l/Detectors/ITSMFT/MFT\l/simulation/src/Detector.cxx">
<polygon fill="none" stroke="#000000" points="3880,-78.5 3880,-130.5 4033,-130.5 4033,-78.5 3880,-78.5"/>
<text text-anchor="start" x="3888" y="-118.5" font-family="Helvetica,sans-Serif" font-size="10.00" fill="#000000">/home/travis/build</text>
<text text-anchor="start" x="3888" y="-107.5" font-family="Helvetica,sans-Serif" font-size="10.00" fill="#000000">/AliceO2Group/AliceO2</text>
<text text-anchor="start" x="3888" y="-96.5" font-family="Helvetica,sans-Serif" font-size="10.00" fill="#000000">/Detectors/ITSMFT/MFT</text>
<text text-anchor="middle" x="3956.5" y="-85.5" font-family="Helvetica,sans-Serif" font-size="10.00" fill="#000000">/simulation/src/Detector.cxx</text>
</a>
</g>
</g>
<!-- Node15&#45;&gt;Node29 -->
<g id="edge16" class="edge">
<title>Node15&#45;&gt;Node29</title>
<path fill="none" stroke="#191970" d="M2084.7397,-167.091C2490.8357,-95.877 3482.4928,-194.2461 3871.5,-131 3874.2463,-130.5535 3877.0266,-130.0388 3879.8226,-129.4676"/>
<polygon fill="#191970" stroke="#191970" points="2083.8824,-163.6893 2074.6661,-168.9151 2085.1297,-170.5772 2083.8824,-163.6893"/>
</g>
<!-- Node30 -->
<g id="node17" class="node">
<title>Node30</title>
<g id="a_node17"><a xlink:href="../../d1/dd0/ITSMFT_2MFT_2workflow_2src_2TrackerSpec_8cxx.html" target="_top" xlink:title="/home/travis/build\l/AliceO2Group/AliceO2\l/Detectors/ITSMFT/MFT\l/workflow/src/TrackerSpec.cxx">
<polygon fill="none" stroke="#000000" points="4051,-78.5 4051,-130.5 4214,-130.5 4214,-78.5 4051,-78.5"/>
<text text-anchor="start" x="4059" y="-118.5" font-family="Helvetica,sans-Serif" font-size="10.00" fill="#000000">/home/travis/build</text>
<text text-anchor="start" x="4059" y="-107.5" font-family="Helvetica,sans-Serif" font-size="10.00" fill="#000000">/AliceO2Group/AliceO2</text>
<text text-anchor="start" x="4059" y="-96.5" font-family="Helvetica,sans-Serif" font-size="10.00" fill="#000000">/Detectors/ITSMFT/MFT</text>
<text text-anchor="middle" x="4132.5" y="-85.5" font-family="Helvetica,sans-Serif" font-size="10.00" fill="#000000">/workflow/src/TrackerSpec.cxx</text>
</a>
</g>
</g>
<!-- Node15&#45;&gt;Node30 -->
<g id="edge17" class="edge">
<title>Node15&#45;&gt;Node30</title>
<path fill="none" stroke="#191970" d="M2084.6993,-167.096C2528.2328,-89.2836 3615.3944,-196.5836 4042.5,-131 4045.2369,-130.5797 4048.0072,-130.0984 4050.7944,-129.566"/>
<polygon fill="#191970" stroke="#191970" points="2083.8834,-163.6867 2074.6649,-168.9087 2085.1279,-170.5752 2083.8834,-163.6867"/>
</g>
<!-- Node31 -->
<g id="node18" class="node">
<title>Node31</title>
<g id="a_node18"><a xlink:href="../../d1/d96/TrackAtVertexSpec_8cxx.html" target="_top" xlink:title="Implementation of a data processor to extrapolate the tracks to the vertex. ">
<polygon fill="none" stroke="#000000" points="4232.5,-78.5 4232.5,-130.5 4402.5,-130.5 4402.5,-78.5 4232.5,-78.5"/>
<text text-anchor="start" x="4240.5" y="-118.5" font-family="Helvetica,sans-Serif" font-size="10.00" fill="#000000">/home/travis/build</text>
<text text-anchor="start" x="4240.5" y="-107.5" font-family="Helvetica,sans-Serif" font-size="10.00" fill="#000000">/AliceO2Group/AliceO2</text>
<text text-anchor="start" x="4240.5" y="-96.5" font-family="Helvetica,sans-Serif" font-size="10.00" fill="#000000">/Detectors/MUON/MCH/Tracking</text>
<text text-anchor="middle" x="4317.5" y="-85.5" font-family="Helvetica,sans-Serif" font-size="10.00" fill="#000000">/src/TrackAtVertexSpec.cxx</text>
</a>
</g>
</g>
<!-- Node15&#45;&gt;Node31 -->
<g id="edge18" class="edge">
<title>Node15&#45;&gt;Node31</title>
<path fill="none" stroke="#191970" d="M2084.5382,-167.1225C2567.6177,-82.2941 3756.1405,-199.629 4223.5,-131 4226.4357,-130.5689 4229.4094,-130.0729 4232.402,-129.5229"/>
<polygon fill="#191970" stroke="#191970" points="2083.884,-163.6839 2074.6639,-168.903 2085.1263,-170.5729 2083.884,-163.6839"/>
</g>
<!-- Node32 -->
<g id="node19" class="node">
<title>Node32</title>
<g id="a_node19"><a xlink:href="../../d1/d8b/TrackFinder_8cxx.html" target="_top" xlink:title="Implementation of a class to reconstruct tracks. ">
<polygon fill="none" stroke="#000000" points="720.5,-78.5 720.5,-130.5 890.5,-130.5 890.5,-78.5 720.5,-78.5"/>
<text text-anchor="start" x="728.5" y="-118.5" font-family="Helvetica,sans-Serif" font-size="10.00" fill="#000000">/home/travis/build</text>
<text text-anchor="start" x="728.5" y="-107.5" font-family="Helvetica,sans-Serif" font-size="10.00" fill="#000000">/AliceO2Group/AliceO2</text>
<text text-anchor="start" x="728.5" y="-96.5" font-family="Helvetica,sans-Serif" font-size="10.00" fill="#000000">/Detectors/MUON/MCH/Tracking</text>
<text text-anchor="middle" x="805.5" y="-85.5" font-family="Helvetica,sans-Serif" font-size="10.00" fill="#000000">/src/TrackFinder.cxx</text>
</a>
</g>
</g>
<!-- Node15&#45;&gt;Node32 -->
<g id="edge19" class="edge">
<title>Node15&#45;&gt;Node32</title>
<path fill="none" stroke="#191970" d="M1936.0982,-191.4357C1720.8127,-185.126 1099.8663,-164.4647 899.5,-131 896.5733,-130.5112 893.6075,-129.9654 890.6216,-129.3726"/>
<polygon fill="#191970" stroke="#191970" points="1936.2478,-194.9414 1946.3455,-191.7341 1936.4517,-187.9444 1936.2478,-194.9414"/>
</g>
<!-- Node33 -->
<g id="node20" class="node">
<title>Node33</title>
<g id="a_node20"><a xlink:href="../../d6/d6d/TrackFinderOriginal_8cxx.html" target="_top" xlink:title="Implementation of a class to reconstruct tracks with the original algorithm. ">
<polygon fill="none" stroke="#000000" points="908.5,-78.5 908.5,-130.5 1078.5,-130.5 1078.5,-78.5 908.5,-78.5"/>
<text text-anchor="start" x="916.5" y="-118.5" font-family="Helvetica,sans-Serif" font-size="10.00" fill="#000000">/home/travis/build</text>
<text text-anchor="start" x="916.5" y="-107.5" font-family="Helvetica,sans-Serif" font-size="10.00" fill="#000000">/AliceO2Group/AliceO2</text>
<text text-anchor="start" x="916.5" y="-96.5" font-family="Helvetica,sans-Serif" font-size="10.00" fill="#000000">/Detectors/MUON/MCH/Tracking</text>
<text text-anchor="middle" x="993.5" y="-85.5" font-family="Helvetica,sans-Serif" font-size="10.00" fill="#000000">/src/TrackFinderOriginal.cxx</text>
</a>
</g>
</g>
<!-- Node15&#45;&gt;Node33 -->
<g id="edge20" class="edge">
<title>Node15&#45;&gt;Node33</title>
<path fill="none" stroke="#191970" d="M1936.1575,-190.4562C1746.8676,-182.3868 1250.1874,-159.1269 1087.5,-131 1084.5762,-130.4945 1081.6128,-129.9343 1078.629,-129.3292"/>
<polygon fill="#191970" stroke="#191970" points="1936.15,-193.9589 1946.2894,-190.8861 1936.4468,-186.9652 1936.15,-193.9589"/>
</g>
<!-- Node34 -->
<g id="node21" class="node">
<title>Node34</title>
<g id="a_node21"><a xlink:href="../../de/db3/MUON_2MCH_2Tracking_2src_2TrackFitter_8cxx.html" target="_top" xlink:title="/home/travis/build\l/AliceO2Group/AliceO2\l/Detectors/MUON/MCH/Tracking\l/src/TrackFitter.cxx">
<polygon fill="none" stroke="#000000" points="1096.5,-78.5 1096.5,-130.5 1266.5,-130.5 1266.5,-78.5 1096.5,-78.5"/>
<text text-anchor="start" x="1104.5" y="-118.5" font-family="Helvetica,sans-Serif" font-size="10.00" fill="#000000">/home/travis/build</text>
<text text-anchor="start" x="1104.5" y="-107.5" font-family="Helvetica,sans-Serif" font-size="10.00" fill="#000000">/AliceO2Group/AliceO2</text>
<text text-anchor="start" x="1104.5" y="-96.5" font-family="Helvetica,sans-Serif" font-size="10.00" fill="#000000">/Detectors/MUON/MCH/Tracking</text>
<text text-anchor="middle" x="1181.5" y="-85.5" font-family="Helvetica,sans-Serif" font-size="10.00" fill="#000000">/src/TrackFitter.cxx</text>
</a>
</g>
</g>
<!-- Node15&#45;&gt;Node34 -->
<g id="edge21" class="edge">
<title>Node15&#45;&gt;Node34</title>
<path fill="none" stroke="#191970" d="M1936.0563,-191.7533C1802.7903,-187.61 1515.0819,-174.0422 1276.5,-131 1273.2141,-130.4072 1269.8776,-129.7509 1266.5173,-129.0444"/>
<polygon fill="#191970" stroke="#191970" points="1936.0526,-195.2547 1946.1538,-192.0583 1936.264,-188.2579 1936.0526,-195.2547"/>
</g>
<!-- Node35 -->
<g id="node22" class="node">
<title>Node35</title>
<g id="a_node22"><a xlink:href="../../de/da5/FrameStructure_8cxx.html" target="_top" xlink:title="/home/travis/build\l/AliceO2Group/AliceO2\l/Detectors/Passive/src\l/FrameStructure.cxx">
<polygon fill="none" stroke="#000000" points="1285,-78.5 1285,-130.5 1412,-130.5 1412,-78.5 1285,-78.5"/>
<text text-anchor="start" x="1293" y="-118.5" font-family="Helvetica,sans-Serif" font-size="10.00" fill="#000000">/home/travis/build</text>
<text text-anchor="start" x="1293" y="-107.5" font-family="Helvetica,sans-Serif" font-size="10.00" fill="#000000">/AliceO2Group/AliceO2</text>
<text text-anchor="start" x="1293" y="-96.5" font-family="Helvetica,sans-Serif" font-size="10.00" fill="#000000">/Detectors/Passive/src</text>
<text text-anchor="middle" x="1348.5" y="-85.5" font-family="Helvetica,sans-Serif" font-size="10.00" fill="#000000">/FrameStructure.cxx</text>
</a>
</g>
</g>
<!-- Node15&#45;&gt;Node35 -->
<g id="edge22" class="edge">
<title>Node15&#45;&gt;Node35</title>
<path fill="none" stroke="#191970" d="M1936.2402,-191.3779C1823.6065,-186.8729 1603.4331,-173.0171 1421.5,-131 1418.4785,-130.3022 1415.4106,-129.5159 1412.3292,-128.6625"/>
<polygon fill="#191970" stroke="#191970" points="1936.3424,-194.8844 1946.4701,-191.7731 1936.6127,-187.8896 1936.3424,-194.8844"/>
</g>
<!-- Node36 -->
<g id="node23" class="node">
<title>Node36</title>
<g id="a_node23"><a xlink:href="../../da/d8e/SpaceCharge_8cxx.html" target="_top" xlink:title="Implementation of the interface for the ALICE TPC space&#45;charge distortions calculations. ">
<polygon fill="none" stroke="#000000" points="1430,-78.5 1430,-130.5 1573,-130.5 1573,-78.5 1430,-78.5"/>
<text text-anchor="start" x="1438" y="-118.5" font-family="Helvetica,sans-Serif" font-size="10.00" fill="#000000">/home/travis/build</text>
<text text-anchor="start" x="1438" y="-107.5" font-family="Helvetica,sans-Serif" font-size="10.00" fill="#000000">/AliceO2Group/AliceO2</text>
<text text-anchor="start" x="1438" y="-96.5" font-family="Helvetica,sans-Serif" font-size="10.00" fill="#000000">/Detectors/TPC/simulation</text>
<text text-anchor="middle" x="1501.5" y="-85.5" font-family="Helvetica,sans-Serif" font-size="10.00" fill="#000000">/src/SpaceCharge.cxx</text>
</a>
</g>
</g>
<!-- Node15&#45;&gt;Node36 -->
<g id="edge23" class="edge">
<title>Node15&#45;&gt;Node36</title>
<path fill="none" stroke="#191970" d="M1936.2301,-186.5542C1850.2947,-177.6211 1704.9111,-159.7384 1582.5,-131 1579.4751,-130.2898 1576.4014,-129.5179 1573.3073,-128.699"/>
<polygon fill="#191970" stroke="#191970" points="1936.1045,-190.0597 1946.4098,-187.5994 1936.8196,-183.0963 1936.1045,-190.0597"/>
</g>
<!-- Node37 -->
<g id="node24" class="node">
<title>Node37</title>
<g id="a_node24"><a xlink:href="../../d8/dd6/TRDCommonParam_8cxx.html" target="_top" xlink:title="/home/travis/build\l/AliceO2Group/AliceO2\l/Detectors/TRD/base/src\l/TRDCommonParam.cxx">
<polygon fill="none" stroke="#000000" points="1591,-78.5 1591,-130.5 1726,-130.5 1726,-78.5 1591,-78.5"/>
<text text-anchor="start" x="1599" y="-118.5" font-family="Helvetica,sans-Serif" font-size="10.00" fill="#000000">/home/travis/build</text>
<text text-anchor="start" x="1599" y="-107.5" font-family="Helvetica,sans-Serif" font-size="10.00" fill="#000000">/AliceO2Group/AliceO2</text>
<text text-anchor="start" x="1599" y="-96.5" font-family="Helvetica,sans-Serif" font-size="10.00" fill="#000000">/Detectors/TRD/base/src</text>
<text text-anchor="middle" x="1658.5" y="-85.5" font-family="Helvetica,sans-Serif" font-size="10.00" fill="#000000">/TRDCommonParam.cxx</text>
</a>
</g>
</g>
<!-- Node15&#45;&gt;Node37 -->
<g id="edge24" class="edge">
<title>Node15&#45;&gt;Node37</title>
<path fill="none" stroke="#191970" d="M1936.2528,-178.8939C1880.598,-167.3983 1802.7691,-150.1592 1735.5,-131 1732.5087,-130.148 1729.4629,-129.2468 1726.3939,-128.311"/>
<polygon fill="#191970" stroke="#191970" points="1935.8797,-182.3902 1946.3792,-180.9727 1937.2874,-175.5332 1935.8797,-182.3902"/>
</g>
<!-- Node38 -->
<g id="node25" class="node">
<title>Node38</title>
<g id="a_node25"><a xlink:href="../../dc/d6e/testTRDDiffusionCoefficient_8cxx.html" target="_top" xlink:title="This task tests the Diffusion Coefficient module of the TRD digitization. ">
<polygon fill="none" stroke="#000000" points="1744,-78.5 1744,-130.5 1919,-130.5 1919,-78.5 1744,-78.5"/>
<text text-anchor="start" x="1752" y="-118.5" font-family="Helvetica,sans-Serif" font-size="10.00" fill="#000000">/home/travis/build</text>
<text text-anchor="start" x="1752" y="-107.5" font-family="Helvetica,sans-Serif" font-size="10.00" fill="#000000">/AliceO2Group/AliceO2</text>
<text text-anchor="start" x="1752" y="-96.5" font-family="Helvetica,sans-Serif" font-size="10.00" fill="#000000">/Detectors/TRD/base/test</text>
<text text-anchor="middle" x="1831.5" y="-85.5" font-family="Helvetica,sans-Serif" font-size="10.00" fill="#000000">/testTRDDiffusionCoefficient.cxx</text>
</a>
</g>
</g>
<!-- Node15&#45;&gt;Node38 -->
<g id="edge25" class="edge">
<title>Node15&#45;&gt;Node38</title>
<path fill="none" stroke="#191970" d="M1948.5658,-162.7059C1927.4768,-152.2203 1904.1249,-140.6096 1883.8608,-130.5341"/>
<polygon fill="#191970" stroke="#191970" points="1947.2497,-165.9603 1957.7622,-167.2784 1950.3662,-159.6923 1947.2497,-165.9603"/>
</g>
<!-- Node39 -->
<g id="node26" class="node">
<title>Node39</title>
<g id="a_node26"><a xlink:href="../../dd/d2b/o2__sim__its__ALP3_8cxx.html" target="_top" xlink:title="/home/travis/build\l/AliceO2Group/AliceO2\l/Framework/TestWorkflows\l/src/o2_sim_its_ALP3.cxx">
<polygon fill="none" stroke="#000000" points="1937.5,-78.5 1937.5,-130.5 2083.5,-130.5 2083.5,-78.5 1937.5,-78.5"/>
<text text-anchor="start" x="1945.5" y="-118.5" font-family="Helvetica,sans-Serif" font-size="10.00" fill="#000000">/home/travis/build</text>
<text text-anchor="start" x="1945.5" y="-107.5" font-family="Helvetica,sans-Serif" font-size="10.00" fill="#000000">/AliceO2Group/AliceO2</text>
<text text-anchor="start" x="1945.5" y="-96.5" font-family="Helvetica,sans-Serif" font-size="10.00" fill="#000000">/Framework/TestWorkflows</text>
<text text-anchor="middle" x="2010.5" y="-85.5" font-family="Helvetica,sans-Serif" font-size="10.00" fill="#000000">/src/o2_sim_its_ALP3.cxx</text>
</a>
</g>
</g>
<!-- Node15&#45;&gt;Node39 -->
<g id="edge26" class="edge">
<title>Node15&#45;&gt;Node39</title>
<path fill="none" stroke="#191970" d="M2010.5,-157.1155C2010.5,-148.2061 2010.5,-138.8475 2010.5,-130.5341"/>
<polygon fill="#191970" stroke="#191970" points="2007.0001,-157.2784 2010.5,-167.2784 2014.0001,-157.2785 2007.0001,-157.2784"/>
</g>
<!-- Node40 -->
<g id="node27" class="node">
<title>Node40</title>
<g id="a_node27"><a xlink:href="../../d7/d11/o2__sim__tpc_8cxx.html" target="_top" xlink:title="/home/travis/build\l/AliceO2Group/AliceO2\l/Framework/TestWorkflows\l/src/o2_sim_tpc.cxx">
<polygon fill="none" stroke="#000000" points="2101.5,-78.5 2101.5,-130.5 2247.5,-130.5 2247.5,-78.5 2101.5,-78.5"/>
<text text-anchor="start" x="2109.5" y="-118.5" font-family="Helvetica,sans-Serif" font-size="10.00" fill="#000000">/home/travis/build</text>
<text text-anchor="start" x="2109.5" y="-107.5" font-family="Helvetica,sans-Serif" font-size="10.00" fill="#000000">/AliceO2Group/AliceO2</text>
<text text-anchor="start" x="2109.5" y="-96.5" font-family="Helvetica,sans-Serif" font-size="10.00" fill="#000000">/Framework/TestWorkflows</text>
<text text-anchor="middle" x="2174.5" y="-85.5" font-family="Helvetica,sans-Serif" font-size="10.00" fill="#000000">/src/o2_sim_tpc.cxx</text>
</a>
</g>
</g>
<!-- Node15&#45;&gt;Node40 -->
<g id="edge27" class="edge">
<title>Node15&#45;&gt;Node40</title>
<path fill="none" stroke="#191970" d="M2067.7645,-162.4235C2086.9495,-152.0122 2108.1275,-140.5192 2126.527,-130.5341"/>
<polygon fill="#191970" stroke="#191970" points="2065.9382,-159.4324 2058.8184,-167.2784 2069.277,-165.5849 2065.9382,-159.4324"/>
</g>
<!-- Node16&#45;&gt;Node17 -->
<g id="edge3" class="edge">
<title>Node16&#45;&gt;Node17</title>
<path fill="none" stroke="#191970" d="M2348.9063,-69.2733C2354.0831,-59.8763 2359.509,-50.0272 2364.0997,-41.6941"/>
<polygon fill="#191970" stroke="#191970" points="2345.8144,-67.6324 2344.0547,-78.0801 2351.9456,-71.0101 2345.8144,-67.6324"/>
</g>
</g>
</svg>
        <g id="navigator" transform="translate(0 0)" fill="#404254">
                <rect fill="#f2f5e9" fill-opacity="0.5" stroke="#606060" stroke-width=".5" x="0" y="0" width="60" height="60"/>
                <use id="zoomplus" xlink:href="#zoomPlus" x="17" y="9" onmousedown="handleZoom(evt,'in')"/>
                <use id="zoomminus" xlink:href="#zoomMin" x="42" y="9" onmousedown="handleZoom(evt,'out')"/>
                <use id="reset" xlink:href="#resetDef" x="30" y="36" onmousedown="handleReset()"/>
                <g id="arrowUp" xlink:href="#dirArrow" transform="translate(30 24)" onmousedown="handlePan(0,-1)">
                  <use xlink:href="#rim" fill="#404040">
                        <set attributeName="fill" to="#808080" begin="arrowUp.mouseover" end="arrowUp.mouseout"/>
                  </use>
                  <path fill="none" stroke="white" stroke-width="1.5" d="M0,-3.0v7 M-2.5,-0.5L0,-3.0L2.5,-0.5"/>
                </g>
                <g id="arrowRight" xlink:href="#dirArrow" transform="rotate(90) translate(36 -43)" onmousedown="handlePan(1,0)">
                  <use xlink:href="#rim" fill="#404040">
                        <set attributeName="fill" to="#808080" begin="arrowRight.mouseover" end="arrowRight.mouseout"/>
                  </use>
                  <path fill="none" stroke="white" stroke-width="1.5" d="M0,-3.0v7 M-2.5,-0.5L0,-3.0L2.5,-0.5"/>
                </g>
                <g id="arrowDown" xlink:href="#dirArrow" transform="rotate(180) translate(-30 -48)" onmousedown="handlePan(0,1)">
                  <use xlink:href="#rim" fill="#404040">
                        <set attributeName="fill" to="#808080" begin="arrowDown.mouseover" end="arrowDown.mouseout"/>
                  </use>
                  <path fill="none" stroke="white" stroke-width="1.5" d="M0,-3.0v7 M-2.5,-0.5L0,-3.0L2.5,-0.5"/>
                </g>
                <g id="arrowLeft" xlink:href="#dirArrow" transform="rotate(270) translate(-36 17)" onmousedown="handlePan(-1,0)">
                  <use xlink:href="#rim" fill="#404040">
                        <set attributeName="fill" to="#808080" begin="arrowLeft.mouseover" end="arrowLeft.mouseout"/>
                  </use>
                  <path fill="none" stroke="white" stroke-width="1.5" d="M0,-3.0v7 M-2.5,-0.5L0,-3.0L2.5,-0.5"/>
                </g>
        </g>
        <svg viewBox="0 0 15 15" width="100%" height="30px" preserveAspectRatio="xMaxYMin meet">
         <g id="arrow_out" transform="scale(0.3 0.3)">
          <a xlink:href="MagFieldFast_8h__dep__incl_org.svg" target="_base">
           <rect id="button" ry="5" rx="5" y="6" x="6" height="38" width="38"
                fill="#f2f5e9" fill-opacity="0.5" stroke="#606060" stroke-width="1.0"/>
           <path id="arrow"
             d="M 11.500037,31.436501 C 11.940474,20.09759 22.043105,11.32322 32.158766,21.979434 L 37.068811,17.246167 C 37.068811,17.246167 37.088388,32 37.088388,32 L 22.160133,31.978069 C 22.160133,31.978069 26.997745,27.140456 26.997745,27.140456 C 18.528582,18.264221 13.291696,25.230495 11.500037,31.436501 z"
             style="fill:#404040;"/>
          </a>
         </g>
        </svg>
</svg>
