<?xml version="1.0" encoding="UTF-8" standalone="no"?>
<!DOCTYPE svg PUBLIC "-//W3C//DTD SVG 1.1//EN"
 "http://www.w3.org/Graphics/SVG/1.1/DTD/svg11.dtd">
<!-- Generated by graphviz version 2.40.1 (20161225.0304)
 -->
<!-- Title: /home/travis/build/AliceO2Group/AliceO2/Analysis/DataModel/src/PIDTPC.cxx Pages: 1 -->
<svg width="634pt" height="296pt"
 viewBox="0.00 0.00 633.50 296.00" xmlns="http://www.w3.org/2000/svg" xmlns:xlink="http://www.w3.org/1999/xlink">
<g id="graph0" class="graph" transform="scale(1 1) rotate(0) translate(4 292)">
<title>/home/travis/build/AliceO2Group/AliceO2/Analysis/DataModel/src/PIDTPC.cxx</title>
<!-- Node0 -->
<g id="node1" class="node">
<title>Node0</title>
<polygon fill="#bfbfbf" stroke="#000000" points="285.5,-235.5 285.5,-287.5 419.5,-287.5 419.5,-235.5 285.5,-235.5"/>
<text text-anchor="start" x="293.5" y="-275.5" font-family="Helvetica,sans-Serif" font-size="10.00" fill="#000000">/home/travis/build</text>
<text text-anchor="start" x="293.5" y="-264.5" font-family="Helvetica,sans-Serif" font-size="10.00" fill="#000000">/AliceO2Group/AliceO2</text>
<text text-anchor="start" x="293.5" y="-253.5" font-family="Helvetica,sans-Serif" font-size="10.00" fill="#000000">/Analysis/DataModel/src</text>
<text text-anchor="middle" x="352.5" y="-242.5" font-family="Helvetica,sans-Serif" font-size="10.00" fill="#000000">/PIDTPC.cxx</text>
</g>
<!-- Node1 -->
<g id="node2" class="node">
<title>Node1</title>
<g id="a_node2"><a xlink:href="../../df/d83/PIDTPC_8h.html" target="_top" xlink:title="Implementation of the TPC detector response for PID. ">
<polygon fill="none" stroke="#000000" points="312.5,-179.5 312.5,-198.5 392.5,-198.5 392.5,-179.5 312.5,-179.5"/>
<text text-anchor="middle" x="352.5" y="-186.5" font-family="Helvetica,sans-Serif" font-size="10.00" fill="#000000">PID/PIDTPC.h</text>
</a>
</g>
</g>
<!-- Node0&#45;&gt;Node1 -->
<g id="edge1" class="edge">
<title>Node0&#45;&gt;Node1</title>
<path fill="none" stroke="#191970" d="M352.5,-235.3258C352.5,-226.5142 352.5,-216.8397 352.5,-208.621"/>
<polygon fill="#191970" stroke="#191970" points="356.0001,-208.534 352.5,-198.534 349.0001,-208.534 356.0001,-208.534"/>
</g>
<!-- Node2 -->
<g id="node3" class="node">
<title>Node2</title>
<polygon fill="none" stroke="#bfbfbf" points="225,-.5 225,-19.5 284,-19.5 284,-.5 225,-.5"/>
<text text-anchor="middle" x="254.5" y="-7.5" font-family="Helvetica,sans-Serif" font-size="10.00" fill="#000000">Rtypes.h</text>
</g>
<!-- Node1&#45;&gt;Node2 -->
<g id="edge2" class="edge">
<title>Node1&#45;&gt;Node2</title>
<path fill="none" stroke="#191970" d="M316.7072,-179.4977C297.9462,-172.5711 276.4418,-161.1442 264.5,-143 241.7871,-108.4902 245.8761,-57.4808 250.4406,-29.733"/>
<polygon fill="#191970" stroke="#191970" points="253.9205,-30.1605 252.2854,-19.6926 247.0358,-28.8954 253.9205,-30.1605"/>
</g>
<!-- Node3 -->
<g id="node4" class="node">
<title>Node3</title>
<polygon fill="none" stroke="#bfbfbf" points="443.5,-62 443.5,-81 499.5,-81 499.5,-62 443.5,-62"/>
<text text-anchor="middle" x="471.5" y="-69" font-family="Helvetica,sans-Serif" font-size="10.00" fill="#000000">TMath.h</text>
</g>
<!-- Node1&#45;&gt;Node3 -->
<g id="edge3" class="edge">
<title>Node1&#45;&gt;Node3</title>
<path fill="none" stroke="#191970" d="M381.8559,-179.4707C400.6959,-172.0781 424.5339,-160.1687 440.5,-143 454.1247,-128.3491 462.3527,-106.767 466.8726,-91.1496"/>
<polygon fill="#191970" stroke="#191970" points="470.2651,-92.0109 469.4301,-81.449 463.4964,-90.2263 470.2651,-92.0109"/>
</g>
<!-- Node4 -->
<g id="node5" class="node">
<title>Node4</title>
<g id="a_node5"><a xlink:href="../../dd/da4/Logger_8h.html" target="_top" xlink:title="Framework/Logger.h">
<polygon fill="none" stroke="#000000" points="504,-123.5 504,-142.5 619,-142.5 619,-123.5 504,-123.5"/>
<text text-anchor="middle" x="561.5" y="-130.5" font-family="Helvetica,sans-Serif" font-size="10.00" fill="#000000">Framework/Logger.h</text>
</a>
</g>
</g>
<!-- Node1&#45;&gt;Node4 -->
<g id="edge4" class="edge">
<title>Node1&#45;&gt;Node4</title>
<path fill="none" stroke="#191970" d="M388.4284,-179.3733C423.7837,-169.9001 477.888,-155.4032 516.1788,-145.1435"/>
<polygon fill="#191970" stroke="#191970" points="517.287,-148.4701 526.0405,-142.5011 515.4753,-141.7086 517.287,-148.4701"/>
</g>
<!-- Node6 -->
<g id="node7" class="node">
<title>Node6</title>
<g id="a_node7"><a xlink:href="../../d5/d08/DataFormats_2Reconstruction_2include_2ReconstructionDataFormats_2PID_8h.html" target="_top" xlink:title="ReconstructionDataFormats\l/PID.h">
<polygon fill="none" stroke="#000000" points="55.5,-56.5 55.5,-86.5 207.5,-86.5 207.5,-56.5 55.5,-56.5"/>
<text text-anchor="start" x="63.5" y="-74.5" font-family="Helvetica,sans-Serif" font-size="10.00" fill="#000000">ReconstructionDataFormats</text>
<text text-anchor="middle" x="131.5" y="-63.5" font-family="Helvetica,sans-Serif" font-size="10.00" fill="#000000">/PID.h</text>
</a>
</g>
</g>
<!-- Node1&#45;&gt;Node6 -->
<g id="edge6" class="edge">
<title>Node1&#45;&gt;Node6</title>
<path fill="none" stroke="#191970" d="M314.9563,-179.4379C287.9711,-171.715 251.2527,-159.429 221.5,-143 196.8069,-129.3648 171.9439,-108.9885 154.6269,-93.4725"/>
<polygon fill="#191970" stroke="#191970" points="156.9768,-90.8786 147.2292,-86.7271 152.2604,-96.0512 156.9768,-90.8786"/>
</g>
<!-- Node8 -->
<g id="node9" class="node">
<title>Node8</title>
<g id="a_node9"><a xlink:href="../../dc/d68/DetectorResponse_8h.html" target="_top" xlink:title="Handler for any detector (or other entity) response. This provides the basic quantities computed by a...">
<polygon fill="none" stroke="#000000" points="273.5,-123.5 273.5,-142.5 431.5,-142.5 431.5,-123.5 273.5,-123.5"/>
<text text-anchor="middle" x="352.5" y="-130.5" font-family="Helvetica,sans-Serif" font-size="10.00" fill="#000000">PIDBase/DetectorResponse.h</text>
</a>
</g>
</g>
<!-- Node1&#45;&gt;Node8 -->
<g id="edge9" class="edge">
<title>Node1&#45;&gt;Node8</title>
<path fill="none" stroke="#191970" d="M352.5,-179.2455C352.5,-171.9382 352.5,-161.6944 352.5,-152.7046"/>
<polygon fill="#191970" stroke="#191970" points="356.0001,-152.6426 352.5,-142.6427 349.0001,-152.6427 356.0001,-152.6426"/>
</g>
<!-- Node5 -->
<g id="node6" class="node">
<title>Node5</title>
<polygon fill="none" stroke="#bfbfbf" points="517.5,-62 517.5,-81 625.5,-81 625.5,-62 517.5,-62"/>
<text text-anchor="middle" x="571.5" y="-69" font-family="Helvetica,sans-Serif" font-size="10.00" fill="#000000">fairlogger/Logger.h</text>
</g>
<!-- Node4&#45;&gt;Node5 -->
<g id="edge5" class="edge">
<title>Node4&#45;&gt;Node5</title>
<path fill="none" stroke="#191970" d="M563.0625,-123.3906C564.4487,-114.8657 566.518,-102.1392 568.2604,-91.4235"/>
<polygon fill="#191970" stroke="#191970" points="571.7651,-91.677 569.9155,-81.2449 564.8558,-90.5535 571.7651,-91.677"/>
</g>
<!-- Node6&#45;&gt;Node2 -->
<g id="edge7" class="edge">
<title>Node6&#45;&gt;Node2</title>
<path fill="none" stroke="#191970" d="M161.5892,-56.4554C181.3019,-46.599 206.9002,-33.7999 226.2347,-24.1327"/>
<polygon fill="#191970" stroke="#191970" points="228.0603,-27.133 235.4394,-19.5303 224.9298,-20.872 228.0603,-27.133"/>
</g>
<!-- Node7 -->
<g id="node8" class="node">
<title>Node7</title>
<g id="a_node8"><a xlink:href="../../d3/d9d/PhysicsConstants_8h.html" target="_top" xlink:title="Header to collect physics constants. ">
<polygon fill="none" stroke="#000000" points="0,-.5 0,-19.5 207,-19.5 207,-.5 0,-.5"/>
<text text-anchor="middle" x="103.5" y="-7.5" font-family="Helvetica,sans-Serif" font-size="10.00" fill="#000000">CommonConstants/PhysicsConstants.h</text>
</a>
</g>
</g>
<!-- Node6&#45;&gt;Node7 -->
<g id="edge8" class="edge">
<title>Node6&#45;&gt;Node7</title>
<path fill="none" stroke="#191970" d="M124.5786,-56.2977C120.8539,-48.1166 116.222,-37.943 112.2496,-29.2179"/>
<polygon fill="#191970" stroke="#191970" points="115.3122,-27.4978 107.9832,-19.8469 108.9414,-30.3983 115.3122,-27.4978"/>
</g>
<!-- Node8&#45;&gt;Node2 -->
<g id="edge10" class="edge">
<title>Node8&#45;&gt;Node2</title>
<path fill="none" stroke="#191970" d="M336.057,-123.3623C322.9564,-115.0411 304.8291,-102.0122 292.5,-87 278.2195,-69.6117 267.5687,-45.9604 261.2318,-29.476"/>
<polygon fill="#191970" stroke="#191970" points="264.42,-28.0036 257.6956,-19.8162 257.8466,-30.41 264.42,-28.0036"/>
</g>
<!-- Node8&#45;&gt;Node3 -->
<g id="edge11" class="edge">
<title>Node8&#45;&gt;Node3</title>
<path fill="none" stroke="#191970" d="M371.0938,-123.3906C390.6553,-113.2811 421.6501,-97.2628 444.0309,-85.6962"/>
<polygon fill="#191970" stroke="#191970" points="445.76,-88.7425 453.0368,-81.0419 442.5461,-82.5238 445.76,-88.7425"/>
</g>
<!-- Node8&#45;&gt;Node6 -->
<g id="edge12" class="edge">
<title>Node8&#45;&gt;Node6</title>
<path fill="none" stroke="#191970" d="M317.9688,-123.3906C285.2204,-114.2774 235.218,-100.3627 195.2335,-89.2358"/>
<polygon fill="#191970" stroke="#191970" points="196.135,-85.8537 185.5627,-86.5446 194.2583,-92.5975 196.135,-85.8537"/>
</g>
<!-- Node9 -->
<g id="node10" class="node">
<title>Node9</title>
<g id="a_node10"><a xlink:href="../../d0/ded/ParamBase_8h.html" target="_top" xlink:title="Set of utilities to handle the parametrization of the PID response for each detector These are the ba...">
<polygon fill="none" stroke="#000000" points="301.5,-62 301.5,-81 425.5,-81 425.5,-62 301.5,-62"/>
<text text-anchor="middle" x="363.5" y="-69" font-family="Helvetica,sans-Serif" font-size="10.00" fill="#000000">PIDBase/ParamBase.h</text>
</a>
</g>
</g>
<!-- Node8&#45;&gt;Node9 -->
<g id="edge13" class="edge">
<title>Node8&#45;&gt;Node9</title>
<path fill="none" stroke="#191970" d="M354.2188,-123.3906C355.7435,-114.8657 358.0198,-102.1392 359.9364,-91.4235"/>
<polygon fill="#191970" stroke="#191970" points="363.4416,-91.7049 361.757,-81.2449 356.5509,-90.4724 363.4416,-91.7049"/>
</g>
<!-- Node10 -->
<g id="node11" class="node">
<title>Node10</title>
<polygon fill="none" stroke="#bfbfbf" points="330,-.5 330,-19.5 397,-19.5 397,-.5 330,-.5"/>
<text text-anchor="middle" x="363.5" y="-7.5" font-family="Helvetica,sans-Serif" font-size="10.00" fill="#000000">TNamed.h</text>
</g>
<!-- Node9&#45;&gt;Node10 -->
<g id="edge14" class="edge">
<title>Node9&#45;&gt;Node10</title>
<path fill="none" stroke="#191970" d="M363.5,-61.8906C363.5,-53.3657 363.5,-40.6392 363.5,-29.9235"/>
<polygon fill="#191970" stroke="#191970" points="367.0001,-29.7448 363.5,-19.7449 360.0001,-29.7449 367.0001,-29.7448"/>
</g>
</g>
</svg>
