<?xml version="1.0" encoding="UTF-8" standalone="no"?>
<!DOCTYPE svg PUBLIC "-//W3C//DTD SVG 1.1//EN"
 "http://www.w3.org/Graphics/SVG/1.1/DTD/svg11.dtd">
<!-- Generated by graphviz version 2.40.1 (20161225.0304)
 -->
<!-- Title: o2::framework::DataSamplingHeader Pages: 1 -->
<svg width="1544pt" height="1058pt"
 viewBox="0.00 0.00 1544.43 1058.00" xmlns="http://www.w3.org/2000/svg" xmlns:xlink="http://www.w3.org/1999/xlink">
<g id="graph0" class="graph" transform="scale(1 1) rotate(0) translate(4 1054)">
<title>o2::framework::DataSamplingHeader</title>
<!-- Node2 -->
<g id="node1" class="node">
<title>Node2</title>
<polygon fill="#bfbfbf" stroke="#000000" points="919.9314,-.5 919.9314,-112.5 1082.9314,-112.5 1082.9314,-.5 919.9314,-.5"/>
<text text-anchor="start" x="927.9314" y="-100.5" font-family="Helvetica,sans-Serif" font-size="10.00" fill="#000000">o2::framework::DataSampling</text>
<text text-anchor="middle" x="1001.4314" y="-89.5" font-family="Helvetica,sans-Serif" font-size="10.00" fill="#000000">Header</text>
<polyline fill="none" stroke="#000000" points="919.9314,-82.5 1082.9314,-82.5 "/>
<text text-anchor="middle" x="1001.4314" y="-70.5" font-family="Helvetica,sans-Serif" font-size="10.00" fill="#000000"> </text>
<polyline fill="none" stroke="#000000" points="919.9314,-63.5 1082.9314,-63.5 "/>
<text text-anchor="start" x="927.9314" y="-51.5" font-family="Helvetica,sans-Serif" font-size="10.00" fill="#000000">+ DataSamplingHeader()</text>
<text text-anchor="start" x="927.9314" y="-40.5" font-family="Helvetica,sans-Serif" font-size="10.00" fill="#000000">+ DataSamplingHeader()</text>
<text text-anchor="start" x="927.9314" y="-29.5" font-family="Helvetica,sans-Serif" font-size="10.00" fill="#000000">+ DataSamplingHeader()</text>
<text text-anchor="start" x="927.9314" y="-18.5" font-family="Helvetica,sans-Serif" font-size="10.00" fill="#000000">+ operator=()</text>
<text text-anchor="start" x="927.9314" y="-7.5" font-family="Helvetica,sans-Serif" font-size="10.00" fill="#000000">+ Get()</text>
</g>
<!-- Node3 -->
<g id="node2" class="node">
<title>Node3</title>
<g id="a_node2"><a xlink:href="../../d8/dbd/structo2_1_1header_1_1BaseHeader.html" target="_top" xlink:title="the base header struct Every header type must begin (i.e. derive) with this. Don&#39;t use this struct di...">
<polygon fill="none" stroke="#000000" points="914.9314,-160.5 914.9314,-327.5 1087.9314,-327.5 1087.9314,-160.5 914.9314,-160.5"/>
<text text-anchor="middle" x="1001.4314" y="-315.5" font-family="Helvetica,sans-Serif" font-size="10.00" fill="#000000">o2::header::BaseHeader</text>
<polyline fill="none" stroke="#000000" points="914.9314,-308.5 1087.9314,-308.5 "/>
<text text-anchor="middle" x="1001.4314" y="-296.5" font-family="Helvetica,sans-Serif" font-size="10.00" fill="#000000"> </text>
<polyline fill="none" stroke="#000000" points="914.9314,-289.5 1087.9314,-289.5 "/>
<text text-anchor="start" x="922.9314" y="-277.5" font-family="Helvetica,sans-Serif" font-size="10.00" fill="#000000">+ BaseHeader()</text>
<text text-anchor="start" x="922.9314" y="-266.5" font-family="Helvetica,sans-Serif" font-size="10.00" fill="#000000">+ BaseHeader()</text>
<text text-anchor="start" x="922.9314" y="-255.5" font-family="Helvetica,sans-Serif" font-size="10.00" fill="#000000">+ BaseHeader()</text>
<text text-anchor="start" x="922.9314" y="-244.5" font-family="Helvetica,sans-Serif" font-size="10.00" fill="#000000">+ size()</text>
<text text-anchor="start" x="922.9314" y="-233.5" font-family="Helvetica,sans-Serif" font-size="10.00" fill="#000000">+ data()</text>
<text text-anchor="start" x="922.9314" y="-222.5" font-family="Helvetica,sans-Serif" font-size="10.00" fill="#000000">+ next()</text>
<text text-anchor="start" x="922.9314" y="-211.5" font-family="Helvetica,sans-Serif" font-size="10.00" fill="#000000">+ next()</text>
<text text-anchor="start" x="922.9314" y="-200.5" font-family="Helvetica,sans-Serif" font-size="10.00" fill="#000000">+ sanityCheck()</text>
<text text-anchor="start" x="922.9314" y="-189.5" font-family="Helvetica,sans-Serif" font-size="10.00" fill="#000000">+ throwInconsistentStackError()</text>
<text text-anchor="start" x="922.9314" y="-178.5" font-family="Helvetica,sans-Serif" font-size="10.00" fill="#000000">+ get()</text>
<text text-anchor="start" x="922.9314" y="-167.5" font-family="Helvetica,sans-Serif" font-size="10.00" fill="#000000">+ get()</text>
</a>
</g>
</g>
<!-- Node3&#45;&gt;Node2 -->
<g id="edge1" class="edge">
<title>Node3&#45;&gt;Node2</title>
<path fill="none" stroke="#191970" d="M1001.4314,-150.1C1001.4314,-137.2415 1001.4314,-124.3866 1001.4314,-112.5032"/>
<polygon fill="none" stroke="#191970" points="997.9315,-150.3946 1001.4314,-160.3947 1004.9315,-150.3947 997.9315,-150.3946"/>
</g>
<!-- Node4 -->
<g id="node3" class="node">
<title>Node4</title>
<g id="a_node3"><a xlink:href="../../d9/db3/structo2_1_1header_1_1Descriptor.html" target="_top" xlink:title="{o2::header::Descriptor\l\&lt; gSizeHeaderDescriptionString \&gt;\n||+ Descriptor()\l+ Descriptor()\l+ Descriptor()\l+ Descriptor()\l+ operator=()\l+ operator ItgType()\l+ runtimeInit()\l+ operator==()\l+ operator==()\l+ operator\&lt;()\l+ operator!=()\l+ operator!=()\l+ as()\l+ print()\l}">
<polygon fill="none" stroke="#000000" points="788.9314,-441.5 788.9314,-652.5 973.9314,-652.5 973.9314,-441.5 788.9314,-441.5"/>
<text text-anchor="start" x="796.9314" y="-640.5" font-family="Helvetica,sans-Serif" font-size="10.00" fill="#000000">o2::header::Descriptor</text>
<text text-anchor="middle" x="881.4314" y="-629.5" font-family="Helvetica,sans-Serif" font-size="10.00" fill="#000000">&lt; gSizeHeaderDescriptionString &gt;</text>
<polyline fill="none" stroke="#000000" points="788.9314,-622.5 973.9314,-622.5 "/>
<text text-anchor="middle" x="881.4314" y="-610.5" font-family="Helvetica,sans-Serif" font-size="10.00" fill="#000000"> </text>
<polyline fill="none" stroke="#000000" points="788.9314,-603.5 973.9314,-603.5 "/>
<text text-anchor="start" x="796.9314" y="-591.5" font-family="Helvetica,sans-Serif" font-size="10.00" fill="#000000">+ Descriptor()</text>
<text text-anchor="start" x="796.9314" y="-580.5" font-family="Helvetica,sans-Serif" font-size="10.00" fill="#000000">+ Descriptor()</text>
<text text-anchor="start" x="796.9314" y="-569.5" font-family="Helvetica,sans-Serif" font-size="10.00" fill="#000000">+ Descriptor()</text>
<text text-anchor="start" x="796.9314" y="-558.5" font-family="Helvetica,sans-Serif" font-size="10.00" fill="#000000">+ Descriptor()</text>
<text text-anchor="start" x="796.9314" y="-547.5" font-family="Helvetica,sans-Serif" font-size="10.00" fill="#000000">+ operator=()</text>
<text text-anchor="start" x="796.9314" y="-536.5" font-family="Helvetica,sans-Serif" font-size="10.00" fill="#000000">+ operator ItgType()</text>
<text text-anchor="start" x="796.9314" y="-525.5" font-family="Helvetica,sans-Serif" font-size="10.00" fill="#000000">+ runtimeInit()</text>
<text text-anchor="start" x="796.9314" y="-514.5" font-family="Helvetica,sans-Serif" font-size="10.00" fill="#000000">+ operator==()</text>
<text text-anchor="start" x="796.9314" y="-503.5" font-family="Helvetica,sans-Serif" font-size="10.00" fill="#000000">+ operator==()</text>
<text text-anchor="start" x="796.9314" y="-492.5" font-family="Helvetica,sans-Serif" font-size="10.00" fill="#000000">+ operator&lt;()</text>
<text text-anchor="start" x="796.9314" y="-481.5" font-family="Helvetica,sans-Serif" font-size="10.00" fill="#000000">+ operator!=()</text>
<text text-anchor="start" x="796.9314" y="-470.5" font-family="Helvetica,sans-Serif" font-size="10.00" fill="#000000">+ operator!=()</text>
<text text-anchor="start" x="796.9314" y="-459.5" font-family="Helvetica,sans-Serif" font-size="10.00" fill="#000000">+ as()</text>
<text text-anchor="start" x="796.9314" y="-448.5" font-family="Helvetica,sans-Serif" font-size="10.00" fill="#000000">+ print()</text>
</a>
</g>
</g>
<!-- Node4&#45;&gt;Node3 -->
<g id="edge2" class="edge">
<title>Node4&#45;&gt;Node3</title>
<path fill="none" stroke="#404040" d="M892.9146,-441.3212C898.8505,-409.6949 907.8371,-375.5816 921.4314,-346 922.5768,-343.5077 923.7943,-341.0216 925.0747,-338.5467"/>
<polygon fill="none" stroke="#404040" points="925.2288,-338.2696 924.6494,-331.0818 931.0615,-327.7825 931.6408,-334.9703 925.2288,-338.2696"/>
<text text-anchor="middle" x="954.4314" y="-382" font-family="Helvetica,sans-Serif" font-size="10.00" fill="#000000"> +description</text>
</g>
<!-- Node5 -->
<g id="node4" class="node">
<title>Node5</title>
<polygon fill="none" stroke="#bfbfbf" points="376.9314,-992.5 376.9314,-1049.5 415.9314,-1049.5 415.9314,-992.5 376.9314,-992.5"/>
<text text-anchor="middle" x="396.4314" y="-1037.5" font-family="Helvetica,sans-Serif" font-size="10.00" fill="#000000">Type</text>
<polyline fill="none" stroke="#bfbfbf" points="376.9314,-1030.5 415.9314,-1030.5 "/>
<text text-anchor="middle" x="396.4314" y="-1018.5" font-family="Helvetica,sans-Serif" font-size="10.00" fill="#000000"> </text>
<polyline fill="none" stroke="#bfbfbf" points="376.9314,-1011.5 415.9314,-1011.5 "/>
<text text-anchor="middle" x="396.4314" y="-999.5" font-family="Helvetica,sans-Serif" font-size="10.00" fill="#000000"> </text>
</g>
<!-- Node5&#45;&gt;Node4 -->
<g id="edge3" class="edge">
<title>Node5&#45;&gt;Node4</title>
<path fill="none" stroke="#404040" d="M415.9602,-1018.8109C448.1317,-1014.4913 513.3909,-1002.6727 560.4314,-974 587.0102,-957.7994 594.8234,-950.9948 608.4314,-923 650.0899,-837.299 574.1953,-779.5045 640.4314,-711 670.9097,-679.4779 698.3835,-712.9455 737.4314,-693 754.2351,-684.4168 770.2531,-673.1297 785.0906,-660.6262"/>
<polygon fill="none" stroke="#404040" points="785.1331,-660.5891 787.0223,-653.6298 794.1729,-652.6971 792.2837,-659.6564 785.1331,-660.5891"/>
<text text-anchor="middle" x="652.9314" y="-814.5" font-family="Helvetica,sans-Serif" font-size="10.00" fill="#000000"> +itg</text>
</g>
<!-- Node9 -->
<g id="node8" class="node">
<title>Node9</title>
<g id="a_node8"><a xlink:href="../../d9/db3/structo2_1_1header_1_1Descriptor.html" target="_top" xlink:title="{o2::header::Descriptor\l\&lt; N, PrinterPolicy \&gt;\n||+ Descriptor()\l+ Descriptor()\l+ Descriptor()\l+ operator=()\l+ operator ItgType()\l+ Descriptor()\l+ runtimeInit()\l+ operator==()\l+ operator\&lt;()\l+ operator!=()\l+ operator==()\l+ operator!=()\l+ as()\l+ print()\l}">
<polygon fill="none" stroke="#000000" points="313.9314,-711.5 313.9314,-922.5 438.9314,-922.5 438.9314,-711.5 313.9314,-711.5"/>
<text text-anchor="start" x="321.9314" y="-910.5" font-family="Helvetica,sans-Serif" font-size="10.00" fill="#000000">o2::header::Descriptor</text>
<text text-anchor="middle" x="376.4314" y="-899.5" font-family="Helvetica,sans-Serif" font-size="10.00" fill="#000000">&lt; N, PrinterPolicy &gt;</text>
<polyline fill="none" stroke="#000000" points="313.9314,-892.5 438.9314,-892.5 "/>
<text text-anchor="middle" x="376.4314" y="-880.5" font-family="Helvetica,sans-Serif" font-size="10.00" fill="#000000"> </text>
<polyline fill="none" stroke="#000000" points="313.9314,-873.5 438.9314,-873.5 "/>
<text text-anchor="start" x="321.9314" y="-861.5" font-family="Helvetica,sans-Serif" font-size="10.00" fill="#000000">+ Descriptor()</text>
<text text-anchor="start" x="321.9314" y="-850.5" font-family="Helvetica,sans-Serif" font-size="10.00" fill="#000000">+ Descriptor()</text>
<text text-anchor="start" x="321.9314" y="-839.5" font-family="Helvetica,sans-Serif" font-size="10.00" fill="#000000">+ Descriptor()</text>
<text text-anchor="start" x="321.9314" y="-828.5" font-family="Helvetica,sans-Serif" font-size="10.00" fill="#000000">+ operator=()</text>
<text text-anchor="start" x="321.9314" y="-817.5" font-family="Helvetica,sans-Serif" font-size="10.00" fill="#000000">+ operator ItgType()</text>
<text text-anchor="start" x="321.9314" y="-806.5" font-family="Helvetica,sans-Serif" font-size="10.00" fill="#000000">+ Descriptor()</text>
<text text-anchor="start" x="321.9314" y="-795.5" font-family="Helvetica,sans-Serif" font-size="10.00" fill="#000000">+ runtimeInit()</text>
<text text-anchor="start" x="321.9314" y="-784.5" font-family="Helvetica,sans-Serif" font-size="10.00" fill="#000000">+ operator==()</text>
<text text-anchor="start" x="321.9314" y="-773.5" font-family="Helvetica,sans-Serif" font-size="10.00" fill="#000000">+ operator&lt;()</text>
<text text-anchor="start" x="321.9314" y="-762.5" font-family="Helvetica,sans-Serif" font-size="10.00" fill="#000000">+ operator!=()</text>
<text text-anchor="start" x="321.9314" y="-751.5" font-family="Helvetica,sans-Serif" font-size="10.00" fill="#000000">+ operator==()</text>
<text text-anchor="start" x="321.9314" y="-740.5" font-family="Helvetica,sans-Serif" font-size="10.00" fill="#000000">+ operator!=()</text>
<text text-anchor="start" x="321.9314" y="-729.5" font-family="Helvetica,sans-Serif" font-size="10.00" fill="#000000">+ as()</text>
<text text-anchor="start" x="321.9314" y="-718.5" font-family="Helvetica,sans-Serif" font-size="10.00" fill="#000000">+ print()</text>
</a>
</g>
</g>
<!-- Node5&#45;&gt;Node9 -->
<g id="edge8" class="edge">
<title>Node5&#45;&gt;Node9</title>
<path fill="none" stroke="#404040" d="M382.9048,-992.4444C380.6453,-986.4752 378.6439,-980.1301 377.4314,-974 374.9412,-961.4095 373.3331,-948.1392 372.367,-934.8651"/>
<polygon fill="none" stroke="#404040" points="372.3558,-934.6723 368.0115,-928.9168 371.6534,-922.6929 375.9977,-928.4485 372.3558,-934.6723"/>
<text text-anchor="middle" x="389.9314" y="-955" font-family="Helvetica,sans-Serif" font-size="10.00" fill="#000000"> +itg</text>
</g>
<!-- Node10 -->
<g id="node9" class="node">
<title>Node10</title>
<g id="a_node9"><a xlink:href="../../d9/db3/structo2_1_1header_1_1Descriptor.html" target="_top" xlink:title="{o2::header::Descriptor\l\&lt; gSizeSerializationMethodString \&gt;\n||+ Descriptor()\l+ Descriptor()\l+ Descriptor()\l+ Descriptor()\l+ operator=()\l+ operator ItgType()\l+ runtimeInit()\l+ operator==()\l+ operator==()\l+ operator\&lt;()\l+ operator!=()\l+ operator!=()\l+ as()\l+ print()\l}">
<polygon fill="none" stroke="#000000" points="435.9314,-441.5 435.9314,-652.5 626.9314,-652.5 626.9314,-441.5 435.9314,-441.5"/>
<text text-anchor="start" x="443.9314" y="-640.5" font-family="Helvetica,sans-Serif" font-size="10.00" fill="#000000">o2::header::Descriptor</text>
<text text-anchor="middle" x="531.4314" y="-629.5" font-family="Helvetica,sans-Serif" font-size="10.00" fill="#000000">&lt; gSizeSerializationMethodString &gt;</text>
<polyline fill="none" stroke="#000000" points="435.9314,-622.5 626.9314,-622.5 "/>
<text text-anchor="middle" x="531.4314" y="-610.5" font-family="Helvetica,sans-Serif" font-size="10.00" fill="#000000"> </text>
<polyline fill="none" stroke="#000000" points="435.9314,-603.5 626.9314,-603.5 "/>
<text text-anchor="start" x="443.9314" y="-591.5" font-family="Helvetica,sans-Serif" font-size="10.00" fill="#000000">+ Descriptor()</text>
<text text-anchor="start" x="443.9314" y="-580.5" font-family="Helvetica,sans-Serif" font-size="10.00" fill="#000000">+ Descriptor()</text>
<text text-anchor="start" x="443.9314" y="-569.5" font-family="Helvetica,sans-Serif" font-size="10.00" fill="#000000">+ Descriptor()</text>
<text text-anchor="start" x="443.9314" y="-558.5" font-family="Helvetica,sans-Serif" font-size="10.00" fill="#000000">+ Descriptor()</text>
<text text-anchor="start" x="443.9314" y="-547.5" font-family="Helvetica,sans-Serif" font-size="10.00" fill="#000000">+ operator=()</text>
<text text-anchor="start" x="443.9314" y="-536.5" font-family="Helvetica,sans-Serif" font-size="10.00" fill="#000000">+ operator ItgType()</text>
<text text-anchor="start" x="443.9314" y="-525.5" font-family="Helvetica,sans-Serif" font-size="10.00" fill="#000000">+ runtimeInit()</text>
<text text-anchor="start" x="443.9314" y="-514.5" font-family="Helvetica,sans-Serif" font-size="10.00" fill="#000000">+ operator==()</text>
<text text-anchor="start" x="443.9314" y="-503.5" font-family="Helvetica,sans-Serif" font-size="10.00" fill="#000000">+ operator==()</text>
<text text-anchor="start" x="443.9314" y="-492.5" font-family="Helvetica,sans-Serif" font-size="10.00" fill="#000000">+ operator&lt;()</text>
<text text-anchor="start" x="443.9314" y="-481.5" font-family="Helvetica,sans-Serif" font-size="10.00" fill="#000000">+ operator!=()</text>
<text text-anchor="start" x="443.9314" y="-470.5" font-family="Helvetica,sans-Serif" font-size="10.00" fill="#000000">+ operator!=()</text>
<text text-anchor="start" x="443.9314" y="-459.5" font-family="Helvetica,sans-Serif" font-size="10.00" fill="#000000">+ as()</text>
<text text-anchor="start" x="443.9314" y="-448.5" font-family="Helvetica,sans-Serif" font-size="10.00" fill="#000000">+ print()</text>
</a>
</g>
</g>
<!-- Node5&#45;&gt;Node10 -->
<g id="edge14" class="edge">
<title>Node5&#45;&gt;Node10</title>
<path fill="none" stroke="#404040" d="M405.7762,-992.3724C411.622,-976.5405 420.0211,-956.912 430.4314,-941 436.4559,-931.7917 442.1686,-932.6638 447.4314,-923 493.8309,-837.8 468.0513,-802.8 499.4314,-711 502.2631,-702.7161 504.9232,-701.3875 507.4314,-693 510.1783,-683.8143 512.6344,-674.2036 514.8261,-664.4871"/>
<polygon fill="none" stroke="#404040" points="514.8579,-664.3381 512.2026,-657.6337 517.3701,-652.604 520.0253,-659.3084 514.8579,-664.3381"/>
<text text-anchor="middle" x="511.9314" y="-814.5" font-family="Helvetica,sans-Serif" font-size="10.00" fill="#000000"> +itg</text>
</g>
<!-- Node15 -->
<g id="node14" class="node">
<title>Node15</title>
<g id="a_node14"><a xlink:href="../../d9/db3/structo2_1_1header_1_1Descriptor.html" target="_top" xlink:title="{o2::header::Descriptor\l\&lt; deviceIDTypeSize \&gt;\n||+ Descriptor()\l+ Descriptor()\l+ Descriptor()\l+ Descriptor()\l+ operator=()\l+ operator ItgType()\l+ runtimeInit()\l+ operator==()\l+ operator==()\l+ operator\&lt;()\l+ operator!=()\l+ operator!=()\l+ as()\l+ print()\l}">
<polygon fill="none" stroke="#000000" points="116.9314,-441.5 116.9314,-652.5 241.9314,-652.5 241.9314,-441.5 116.9314,-441.5"/>
<text text-anchor="start" x="124.9314" y="-640.5" font-family="Helvetica,sans-Serif" font-size="10.00" fill="#000000">o2::header::Descriptor</text>
<text text-anchor="middle" x="179.4314" y="-629.5" font-family="Helvetica,sans-Serif" font-size="10.00" fill="#000000">&lt; deviceIDTypeSize &gt;</text>
<polyline fill="none" stroke="#000000" points="116.9314,-622.5 241.9314,-622.5 "/>
<text text-anchor="middle" x="179.4314" y="-610.5" font-family="Helvetica,sans-Serif" font-size="10.00" fill="#000000"> </text>
<polyline fill="none" stroke="#000000" points="116.9314,-603.5 241.9314,-603.5 "/>
<text text-anchor="start" x="124.9314" y="-591.5" font-family="Helvetica,sans-Serif" font-size="10.00" fill="#000000">+ Descriptor()</text>
<text text-anchor="start" x="124.9314" y="-580.5" font-family="Helvetica,sans-Serif" font-size="10.00" fill="#000000">+ Descriptor()</text>
<text text-anchor="start" x="124.9314" y="-569.5" font-family="Helvetica,sans-Serif" font-size="10.00" fill="#000000">+ Descriptor()</text>
<text text-anchor="start" x="124.9314" y="-558.5" font-family="Helvetica,sans-Serif" font-size="10.00" fill="#000000">+ Descriptor()</text>
<text text-anchor="start" x="124.9314" y="-547.5" font-family="Helvetica,sans-Serif" font-size="10.00" fill="#000000">+ operator=()</text>
<text text-anchor="start" x="124.9314" y="-536.5" font-family="Helvetica,sans-Serif" font-size="10.00" fill="#000000">+ operator ItgType()</text>
<text text-anchor="start" x="124.9314" y="-525.5" font-family="Helvetica,sans-Serif" font-size="10.00" fill="#000000">+ runtimeInit()</text>
<text text-anchor="start" x="124.9314" y="-514.5" font-family="Helvetica,sans-Serif" font-size="10.00" fill="#000000">+ operator==()</text>
<text text-anchor="start" x="124.9314" y="-503.5" font-family="Helvetica,sans-Serif" font-size="10.00" fill="#000000">+ operator==()</text>
<text text-anchor="start" x="124.9314" y="-492.5" font-family="Helvetica,sans-Serif" font-size="10.00" fill="#000000">+ operator&lt;()</text>
<text text-anchor="start" x="124.9314" y="-481.5" font-family="Helvetica,sans-Serif" font-size="10.00" fill="#000000">+ operator!=()</text>
<text text-anchor="start" x="124.9314" y="-470.5" font-family="Helvetica,sans-Serif" font-size="10.00" fill="#000000">+ operator!=()</text>
<text text-anchor="start" x="124.9314" y="-459.5" font-family="Helvetica,sans-Serif" font-size="10.00" fill="#000000">+ as()</text>
<text text-anchor="start" x="124.9314" y="-448.5" font-family="Helvetica,sans-Serif" font-size="10.00" fill="#000000">+ print()</text>
</a>
</g>
</g>
<!-- Node5&#45;&gt;Node15 -->
<g id="edge24" class="edge">
<title>Node5&#45;&gt;Node15</title>
<path fill="none" stroke="#404040" d="M376.8756,-1019.0839C346.413,-1015.2329 287.0244,-1004.1628 247.4314,-974 225.9556,-957.6392 224.7952,-947.9295 214.4314,-923 177.4204,-833.972 224.0182,-789.7776 168.4314,-711 159.6854,-698.6052 146.8059,-706.2567 139.4314,-693 134.6782,-684.4553 137.9121,-680.659 139.4314,-671 139.7725,-668.8318 140.1452,-666.6498 140.5465,-664.4582"/>
<polygon fill="none" stroke="#404040" points="140.5527,-664.4278 137.8323,-657.7495 142.9506,-652.6698 145.671,-659.3481 140.5527,-664.4278"/>
<text text-anchor="middle" x="226.9314" y="-814.5" font-family="Helvetica,sans-Serif" font-size="10.00" fill="#000000"> +itg</text>
</g>
<!-- Node6 -->
<g id="node5" class="node">
<title>Node6</title>
<polygon fill="none" stroke="#bfbfbf" points="813.4314,-992.5 813.4314,-1049.5 851.4314,-1049.5 851.4314,-992.5 813.4314,-992.5"/>
<text text-anchor="middle" x="832.4314" y="-1037.5" font-family="Helvetica,sans-Serif" font-size="10.00" fill="#000000">char</text>
<polyline fill="none" stroke="#bfbfbf" points="813.4314,-1030.5 851.4314,-1030.5 "/>
<text text-anchor="middle" x="832.4314" y="-1018.5" font-family="Helvetica,sans-Serif" font-size="10.00" fill="#000000"> </text>
<polyline fill="none" stroke="#bfbfbf" points="813.4314,-1011.5 851.4314,-1011.5 "/>
<text text-anchor="middle" x="832.4314" y="-999.5" font-family="Helvetica,sans-Serif" font-size="10.00" fill="#000000"> </text>
</g>
<!-- Node6&#45;&gt;Node3 -->
<g id="edge12" class="edge">
<title>Node6&#45;&gt;Node3</title>
<path fill="none" stroke="#404040" d="M851.6715,-1015.4878C885.7928,-1004.4988 955.6438,-976.2163 980.4314,-923 1027.3265,-822.3215 1016.5855,-502.2569 1007.6327,-340.1129"/>
<polygon fill="none" stroke="#404040" points="1007.6124,-339.7496 1003.2814,-333.9839 1006.9377,-327.7685 1011.2687,-333.5342 1007.6124,-339.7496"/>
<text text-anchor="middle" x="1050.4314" y="-679.5" font-family="Helvetica,sans-Serif" font-size="10.00" fill="#000000"> +magicString</text>
</g>
<!-- Node6&#45;&gt;Node4 -->
<g id="edge4" class="edge">
<title>Node6&#45;&gt;Node4</title>
<path fill="none" stroke="#404040" d="M851.8233,-1008.9521C875.7743,-992.793 915.3223,-961.6134 931.4314,-923 965.7378,-840.7681 949.8128,-740.4265 927.1709,-664.0894"/>
<polygon fill="none" stroke="#404040" points="927.145,-664.0044 921.5656,-659.4359 923.6367,-652.5287 929.2161,-657.0971 927.145,-664.0044"/>
<text text-anchor="middle" x="963.9314" y="-814.5" font-family="Helvetica,sans-Serif" font-size="10.00" fill="#000000"> +str</text>
</g>
<!-- Node6&#45;&gt;Node9 -->
<g id="edge9" class="edge">
<title>Node6&#45;&gt;Node9</title>
<path fill="none" stroke="#404040" d="M813.2655,-1017.6668C745.6666,-1005.6557 519.1764,-963.1744 458.4314,-923 454.9292,-920.6838 451.5133,-918.1673 448.1888,-915.4904"/>
<polygon fill="none" stroke="#404040" points="448.1201,-915.4306 440.9679,-914.5104 439.0666,-907.5545 446.2187,-908.4747 448.1201,-915.4306"/>
<text text-anchor="middle" x="613.9314" y="-955" font-family="Helvetica,sans-Serif" font-size="10.00" fill="#000000"> +str</text>
</g>
<!-- Node6&#45;&gt;Node10 -->
<g id="edge15" class="edge">
<title>Node6&#45;&gt;Node10</title>
<path fill="none" stroke="#404040" d="M831.1306,-992.3795C827.2157,-912.6266 814.316,-692.319 790.4314,-671 744.9443,-630.3989 710.0679,-677.9421 654.4314,-653 648.71,-650.4351 643.0543,-647.5157 637.4961,-644.3228"/>
<polygon fill="none" stroke="#404040" points="637.1741,-644.1259 629.9685,-644.4091 626.9357,-637.8667 634.1413,-637.5836 637.1741,-644.1259"/>
<text text-anchor="middle" x="839.9314" y="-814.5" font-family="Helvetica,sans-Serif" font-size="10.00" fill="#000000"> +str</text>
</g>
<!-- Node6&#45;&gt;Node15 -->
<g id="edge25" class="edge">
<title>Node6&#45;&gt;Node15</title>
<path fill="none" stroke="#404040" d="M813.4018,-993.9986C800.9424,-975.0067 785.3676,-948.523 776.4314,-923 738.3861,-814.3369 816.3717,-728.1581 716.4314,-671 660.3822,-638.9442 489.2449,-667.9517 426.4314,-653 365.6805,-638.5392 300.9466,-610.2303 252.9958,-586.5034"/>
<polygon fill="none" stroke="#404040" points="252.8359,-586.4234 245.68,-587.3139 242.1057,-581.0509 249.2617,-580.1604 252.8359,-586.4234"/>
<text text-anchor="middle" x="788.9314" y="-814.5" font-family="Helvetica,sans-Serif" font-size="10.00" fill="#000000"> +str</text>
</g>
<!-- Node7 -->
<g id="node6" class="node">
<title>Node7</title>
<polygon fill="none" stroke="#bfbfbf" points="108.9314,-992.5 108.9314,-1049.5 137.9314,-1049.5 137.9314,-992.5 108.9314,-992.5"/>
<text text-anchor="middle" x="123.4314" y="-1037.5" font-family="Helvetica,sans-Serif" font-size="10.00" fill="#000000">int</text>
<polyline fill="none" stroke="#bfbfbf" points="108.9314,-1030.5 137.9314,-1030.5 "/>
<text text-anchor="middle" x="123.4314" y="-1018.5" font-family="Helvetica,sans-Serif" font-size="10.00" fill="#000000"> </text>
<polyline fill="none" stroke="#bfbfbf" points="108.9314,-1011.5 137.9314,-1011.5 "/>
<text text-anchor="middle" x="123.4314" y="-999.5" font-family="Helvetica,sans-Serif" font-size="10.00" fill="#000000"> </text>
</g>
<!-- Node7&#45;&gt;Node4 -->
<g id="edge5" class="edge">
<title>Node7&#45;&gt;Node4</title>
<path fill="none" stroke="#404040" d="M138.002,-1019.2186C175.8381,-1014.6035 280.3305,-1001.9268 367.4314,-992 404.0784,-987.8234 507.0838,-1000.7944 532.4314,-974 572.6526,-931.4831 506.1964,-753.5038 546.4314,-711 571.9397,-684.0534 678.0703,-707.0036 712.4314,-693 727.0873,-687.0271 726.9325,-679.2612 740.4314,-671 754.2976,-662.5141 761.5502,-663.4548 778.7503,-652.7909"/>
<polygon fill="none" stroke="#404040" points="778.7946,-652.761 781.5283,-646.0882 788.7393,-646.0452 786.0056,-652.718 778.7946,-652.761"/>
<text text-anchor="middle" x="575.4314" y="-825.5" font-family="Helvetica,sans-Serif" font-size="10.00" fill="#000000"> +arraySize</text>
<text text-anchor="middle" x="575.4314" y="-814.5" font-family="Helvetica,sans-Serif" font-size="10.00" fill="#000000">+size</text>
<text text-anchor="middle" x="575.4314" y="-803.5" font-family="Helvetica,sans-Serif" font-size="10.00" fill="#000000">+bitcount</text>
</g>
<!-- Node7&#45;&gt;Node9 -->
<g id="edge10" class="edge">
<title>Node7&#45;&gt;Node9</title>
<path fill="none" stroke="#404040" d="M137.9765,-1015.4547C169.8899,-1002.777 247.353,-969.1681 299.4314,-923 301.4367,-921.2224 303.4204,-919.3838 305.3804,-917.4938"/>
<polygon fill="none" stroke="#404040" points="305.4064,-917.4673 306.7568,-910.3838 313.8148,-908.9058 312.4644,-915.9894 305.4064,-917.4673"/>
<text text-anchor="middle" x="303.4314" y="-966" font-family="Helvetica,sans-Serif" font-size="10.00" fill="#000000"> +arraySize</text>
<text text-anchor="middle" x="303.4314" y="-955" font-family="Helvetica,sans-Serif" font-size="10.00" fill="#000000">+size</text>
<text text-anchor="middle" x="303.4314" y="-944" font-family="Helvetica,sans-Serif" font-size="10.00" fill="#000000">+bitcount</text>
</g>
<!-- Node7&#45;&gt;Node10 -->
<g id="edge16" class="edge">
<title>Node7&#45;&gt;Node10</title>
<path fill="none" stroke="#404040" d="M117.7305,-992.3299C104.9146,-924.6411 77.1535,-757.1356 106.4314,-711 128.8028,-675.7476 152.4747,-686.0194 191.4314,-671 217.0116,-661.1378 224.4813,-661.8427 250.4314,-653 308.366,-633.2584 372.253,-609.3338 424.4521,-589.2134"/>
<polygon fill="none" stroke="#404040" points="424.5534,-589.1743 428.7083,-583.2805 435.7468,-584.8489 431.5919,-590.7427 424.5534,-589.1743"/>
<text text-anchor="middle" x="135.4314" y="-825.5" font-family="Helvetica,sans-Serif" font-size="10.00" fill="#000000"> +arraySize</text>
<text text-anchor="middle" x="135.4314" y="-814.5" font-family="Helvetica,sans-Serif" font-size="10.00" fill="#000000">+size</text>
<text text-anchor="middle" x="135.4314" y="-803.5" font-family="Helvetica,sans-Serif" font-size="10.00" fill="#000000">+bitcount</text>
</g>
<!-- Node7&#45;&gt;Node15 -->
<g id="edge26" class="edge">
<title>Node7&#45;&gt;Node15</title>
<path fill="none" stroke="#404040" d="M108.7041,-1011.7718C85.9647,-996.5419 43.1833,-963.7376 26.4314,-923 -9.4025,-835.8578 -8.1108,-798.6622 26.4314,-711 43.062,-668.7946 76.2418,-631.0389 107.4644,-602.4236"/>
<polygon fill="none" stroke="#404040" points="107.691,-602.221 109.4967,-595.2396 116.6356,-594.2213 114.8298,-601.2027 107.691,-602.221"/>
<text text-anchor="middle" x="55.4314" y="-825.5" font-family="Helvetica,sans-Serif" font-size="10.00" fill="#000000"> +arraySize</text>
<text text-anchor="middle" x="55.4314" y="-814.5" font-family="Helvetica,sans-Serif" font-size="10.00" fill="#000000">+size</text>
<text text-anchor="middle" x="55.4314" y="-803.5" font-family="Helvetica,sans-Serif" font-size="10.00" fill="#000000">+bitcount</text>
</g>
<!-- Node8 -->
<g id="node7" class="node">
<title>Node8</title>
<polygon fill="none" stroke="#bfbfbf" points="540.9314,-992.5 540.9314,-1049.5 647.9314,-1049.5 647.9314,-992.5 540.9314,-992.5"/>
<text text-anchor="middle" x="594.4314" y="-1037.5" font-family="Helvetica,sans-Serif" font-size="10.00" fill="#000000">anonymous:+@71</text>
<polyline fill="none" stroke="#bfbfbf" points="540.9314,-1030.5 647.9314,-1030.5 "/>
<text text-anchor="middle" x="594.4314" y="-1018.5" font-family="Helvetica,sans-Serif" font-size="10.00" fill="#000000"> </text>
<polyline fill="none" stroke="#bfbfbf" points="540.9314,-1011.5 647.9314,-1011.5 "/>
<text text-anchor="middle" x="594.4314" y="-999.5" font-family="Helvetica,sans-Serif" font-size="10.00" fill="#000000"> </text>
</g>
<!-- Node8&#45;&gt;Node4 -->
<g id="edge6" class="edge">
<title>Node8&#45;&gt;Node4</title>
<path fill="none" stroke="#404040" d="M648.1973,-1008.6585C718.4364,-991.3556 835.5452,-958.0539 861.4314,-923 890.7581,-883.2873 892.4413,-759.55 888.8917,-664.761"/>
<polygon fill="none" stroke="#404040" points="888.8916,-664.7567 884.6537,-658.9223 888.4093,-652.7664 892.6472,-658.6008 888.8916,-664.7567"/>
<text text-anchor="middle" x="907.4314" y="-814.5" font-family="Helvetica,sans-Serif" font-size="10.00" fill="#000000"> +@71</text>
</g>
<!-- Node8&#45;&gt;Node9 -->
<g id="edge11" class="edge">
<title>Node8&#45;&gt;Node9</title>
<path fill="none" stroke="#404040" d="M540.6659,-1014.0561C511.1116,-1007.8352 475.4762,-996.0954 450.4314,-974 437.4881,-962.5809 426.6321,-948.4116 417.5774,-933.2945"/>
<polygon fill="none" stroke="#404040" points="417.4948,-933.148 411.0611,-929.891 411.5931,-922.6995 418.0267,-925.9565 417.4948,-933.148"/>
<text text-anchor="middle" x="467.4314" y="-955" font-family="Helvetica,sans-Serif" font-size="10.00" fill="#000000"> +@71</text>
</g>
<!-- Node8&#45;&gt;Node10 -->
<g id="edge17" class="edge">
<title>Node8&#45;&gt;Node10</title>
<path fill="none" stroke="#404040" d="M624.5621,-992.3208C641.2995,-974.2407 660.5005,-949.3813 669.4314,-923 699.6445,-833.7532 730.3878,-782.8481 669.4314,-711 637.6662,-673.5589 595.7089,-727.152 560.4314,-693 551.9566,-684.7955 545.5819,-674.8753 540.8279,-664.112"/>
<polygon fill="none" stroke="#404040" points="540.7228,-663.8368 534.845,-659.6594 536.4403,-652.627 542.3182,-656.8044 540.7228,-663.8368"/>
<text text-anchor="middle" x="722.4314" y="-814.5" font-family="Helvetica,sans-Serif" font-size="10.00" fill="#000000"> +@71</text>
</g>
<!-- Node8&#45;&gt;Node15 -->
<g id="edge27" class="edge">
<title>Node8&#45;&gt;Node15</title>
<path fill="none" stroke="#404040" d="M540.7795,-1012.7751C457.1579,-998.7165 302.0227,-967.2371 270.4314,-923 215.0912,-845.5073 299.2049,-785.1268 239.4314,-711 225.1296,-693.2639 205.1658,-711.179 191.4314,-693 184.9708,-684.4487 180.3121,-674.7565 177.0369,-664.5307"/>
<polygon fill="none" stroke="#404040" points="176.9983,-664.3856 171.5868,-659.6195 173.9049,-652.7912 179.3164,-657.5572 176.9983,-664.3856"/>
<text text-anchor="middle" x="287.4314" y="-814.5" font-family="Helvetica,sans-Serif" font-size="10.00" fill="#000000"> +@71</text>
</g>
<!-- Node9&#45;&gt;Node2 -->
<g id="edge31" class="edge">
<title>Node9&#45;&gt;Node2</title>
<path fill="none" stroke="#404040" d="M360.95,-711.2341C360.3537,-705.0734 359.8382,-698.9617 359.4314,-693 351.5426,-577.3778 368.2042,-541.2013 426.4314,-441 535.1124,-253.9745 775.5211,-139.7811 908.4817,-88.5196"/>
<polygon fill="none" stroke="#404040" points="908.6137,-88.4694 912.7968,-82.5955 919.8277,-84.1976 915.6446,-90.0715 908.6137,-88.4694"/>
<text text-anchor="middle" x="549.9314" y="-387.5" font-family="Helvetica,sans-Serif" font-size="10.00" fill="#000000"> +sHeaderType</text>
<text text-anchor="middle" x="549.9314" y="-376.5" font-family="Helvetica,sans-Serif" font-size="10.00" fill="#000000">+sSerializationMethod</text>
</g>
<!-- Node9&#45;&gt;Node4 -->
<g id="edge7" class="edge">
<title>Node9&#45;&gt;Node4</title>
<path fill="none" stroke="#ffa500" d="M446.733,-720.1816C450.5219,-716.9087 454.4247,-713.8279 458.4314,-711 461.3452,-708.9435 576.9386,-671.7208 580.4314,-671 667.4042,-653.0512 699.3672,-691.4206 779.4314,-653 782.5398,-651.5084 785.6041,-649.8793 788.6201,-648.1314"/>
<polygon fill="#ffa500" stroke="#ffa500" points="444.133,-717.8166 439.1192,-727.15 448.859,-722.9804 444.133,-717.8166"/>
<text text-anchor="start" x="580.4314" y="-685" font-family="Helvetica,sans-Serif" font-size="10.00" fill="#000000"> &lt; gSizeHeaderDescription</text>
<text text-anchor="middle" x="646.4314" y="-674" font-family="Helvetica,sans-Serif" font-size="10.00" fill="#000000">String &gt;</text>
</g>
<!-- Node9&#45;&gt;Node10 -->
<g id="edge18" class="edge">
<title>Node9&#45;&gt;Node10</title>
<path fill="none" stroke="#ffa500" d="M360.0796,-701.2901C361.7748,-690.7486 364.7478,-680.4832 369.4314,-671 384.0176,-641.4665 409.3857,-617.0263 435.777,-597.8764"/>
<polygon fill="#ffa500" stroke="#ffa500" points="356.5751,-701.1132 358.8317,-711.4649 363.5231,-701.9654 356.5751,-701.1132"/>
<text text-anchor="start" x="369.4314" y="-685" font-family="Helvetica,sans-Serif" font-size="10.00" fill="#000000"> &lt; gSizeSerializationMethod</text>
<text text-anchor="middle" x="438.4314" y="-674" font-family="Helvetica,sans-Serif" font-size="10.00" fill="#000000">String &gt;</text>
</g>
<!-- Node9&#45;&gt;Node15 -->
<g id="edge28" class="edge">
<title>Node9&#45;&gt;Node15</title>
<path fill="none" stroke="#ffa500" d="M305.8411,-715.4338C303.7465,-713.8775 301.6097,-712.3962 299.4314,-711 265.088,-688.988 238.3516,-721.7684 209.4314,-693 198.2405,-681.8678 190.6795,-667.7513 185.6538,-652.7046"/>
<polygon fill="#ffa500" stroke="#ffa500" points="303.7302,-718.2279 313.7098,-721.7858 308.1271,-712.7811 303.7302,-718.2279"/>
<text text-anchor="middle" x="265.4314" y="-679.5" font-family="Helvetica,sans-Serif" font-size="10.00" fill="#000000"> &lt; deviceIDTypeSize &gt;</text>
</g>
<!-- Node10&#45;&gt;Node3 -->
<g id="edge13" class="edge">
<title>Node10&#45;&gt;Node3</title>
<path fill="none" stroke="#404040" d="M611.8912,-441.4537C642.0217,-407.3706 678.4732,-371.774 717.4314,-346 773.9433,-308.6129 845.8456,-282.9676 903.1617,-266.743"/>
<polygon fill="none" stroke="#404040" points="903.2255,-266.7254 907.9404,-261.2692 914.7903,-263.523 910.0753,-268.9791 903.2255,-266.7254"/>
<text text-anchor="middle" x="753.4314" y="-382" font-family="Helvetica,sans-Serif" font-size="10.00" fill="#000000"> +serialization</text>
</g>
<!-- Node11 -->
<g id="node10" class="node">
<title>Node11</title>
<g id="a_node10"><a xlink:href="../../d3/d87/classuint32__t.html" target="_top" xlink:title="{uint32_t\n||}">
<polygon fill="none" stroke="#000000" points="1259.4314,-518.5 1259.4314,-575.5 1315.4314,-575.5 1315.4314,-518.5 1259.4314,-518.5"/>
<text text-anchor="middle" x="1287.4314" y="-563.5" font-family="Helvetica,sans-Serif" font-size="10.00" fill="#000000">uint32_t</text>
<polyline fill="none" stroke="#000000" points="1259.4314,-556.5 1315.4314,-556.5 "/>
<text text-anchor="middle" x="1287.4314" y="-544.5" font-family="Helvetica,sans-Serif" font-size="10.00" fill="#000000"> </text>
<polyline fill="none" stroke="#000000" points="1259.4314,-537.5 1315.4314,-537.5 "/>
<text text-anchor="middle" x="1287.4314" y="-525.5" font-family="Helvetica,sans-Serif" font-size="10.00" fill="#000000"> </text>
</a>
</g>
</g>
<!-- Node11&#45;&gt;Node2 -->
<g id="edge30" class="edge">
<title>Node11&#45;&gt;Node2</title>
<path fill="none" stroke="#404040" d="M1301.1346,-518.4007C1318.3427,-478.2038 1342.728,-403.4826 1317.4314,-346 1271.8996,-242.5356 1169.1136,-159.9132 1093.0675,-109.8356"/>
<polygon fill="none" stroke="#404040" points="1093.0555,-109.8278 1085.8449,-109.9119 1082.9939,-103.2883 1090.2045,-103.2042 1093.0555,-109.8278"/>
<text text-anchor="middle" x="1371.9314" y="-258" font-family="Helvetica,sans-Serif" font-size="10.00" fill="#000000"> +totalEvaluatedMessages</text>
<text text-anchor="middle" x="1371.9314" y="-247" font-family="Helvetica,sans-Serif" font-size="10.00" fill="#000000">+totalAcceptedMessages</text>
<text text-anchor="middle" x="1371.9314" y="-236" font-family="Helvetica,sans-Serif" font-size="10.00" fill="#000000">+deviceIDTypeSize</text>
<text text-anchor="middle" x="1371.9314" y="-225" font-family="Helvetica,sans-Serif" font-size="10.00" fill="#000000">+sVersion</text>
</g>
<!-- Node11&#45;&gt;Node3 -->
<g id="edge19" class="edge">
<title>Node11&#45;&gt;Node3</title>
<path fill="none" stroke="#404040" d="M1271.4749,-518.0593C1258.2543,-493.3171 1239.5698,-456.5035 1226.4314,-423 1213.3921,-389.749 1226.3511,-373.3924 1203.4314,-346 1176.4144,-313.7106 1136.6193,-290.5807 1099.4785,-274.5999"/>
<polygon fill="none" stroke="#404040" points="1099.1408,-274.4601 1092.0667,-275.8594 1088.0543,-269.8676 1095.1284,-268.4684 1099.1408,-274.4601"/>
<text text-anchor="middle" x="1271.9314" y="-415" font-family="Helvetica,sans-Serif" font-size="10.00" fill="#000000"> +headerVersion</text>
<text text-anchor="middle" x="1271.9314" y="-404" font-family="Helvetica,sans-Serif" font-size="10.00" fill="#000000">+headerSize</text>
<text text-anchor="middle" x="1271.9314" y="-393" font-family="Helvetica,sans-Serif" font-size="10.00" fill="#000000">+sMagicString</text>
<text text-anchor="middle" x="1271.9314" y="-382" font-family="Helvetica,sans-Serif" font-size="10.00" fill="#000000">+flagsNextHeader</text>
<text text-anchor="middle" x="1271.9314" y="-371" font-family="Helvetica,sans-Serif" font-size="10.00" fill="#000000">+magicStringInt</text>
<text text-anchor="middle" x="1271.9314" y="-360" font-family="Helvetica,sans-Serif" font-size="10.00" fill="#000000">+flagsUnused</text>
<text text-anchor="middle" x="1271.9314" y="-349" font-family="Helvetica,sans-Serif" font-size="10.00" fill="#000000">+flags</text>
</g>
<!-- Node12 -->
<g id="node11" class="node">
<title>Node12</title>
<polygon fill="none" stroke="#bfbfbf" points="663.9314,-518.5 663.9314,-575.5 770.9314,-575.5 770.9314,-518.5 663.9314,-518.5"/>
<text text-anchor="middle" x="717.4314" y="-563.5" font-family="Helvetica,sans-Serif" font-size="10.00" fill="#000000">anonymous:+@73</text>
<polyline fill="none" stroke="#bfbfbf" points="663.9314,-556.5 770.9314,-556.5 "/>
<text text-anchor="middle" x="717.4314" y="-544.5" font-family="Helvetica,sans-Serif" font-size="10.00" fill="#000000"> </text>
<polyline fill="none" stroke="#bfbfbf" points="663.9314,-537.5 770.9314,-537.5 "/>
<text text-anchor="middle" x="717.4314" y="-525.5" font-family="Helvetica,sans-Serif" font-size="10.00" fill="#000000"> </text>
</g>
<!-- Node12&#45;&gt;Node3 -->
<g id="edge20" class="edge">
<title>Node12&#45;&gt;Node3</title>
<path fill="none" stroke="#404040" d="M732.4844,-518.2887C744.3251,-496.4864 761.7295,-466.0827 779.4314,-441 811.2595,-395.9013 818.9268,-383.5005 859.4314,-346 873.4497,-333.0214 889.158,-320.2593 904.878,-308.3916"/>
<polygon fill="none" stroke="#404040" points="905.0226,-308.2841 907.4508,-301.4941 914.6524,-301.124 912.2242,-307.914 905.0226,-308.2841"/>
<text text-anchor="middle" x="876.4314" y="-382" font-family="Helvetica,sans-Serif" font-size="10.00" fill="#000000"> +@73</text>
</g>
<!-- Node13 -->
<g id="node12" class="node">
<title>Node13</title>
<polygon fill="none" stroke="#bfbfbf" points="1029.9314,-518.5 1029.9314,-575.5 1136.9314,-575.5 1136.9314,-518.5 1029.9314,-518.5"/>
<text text-anchor="middle" x="1083.4314" y="-563.5" font-family="Helvetica,sans-Serif" font-size="10.00" fill="#000000">anonymous:+@75</text>
<polyline fill="none" stroke="#bfbfbf" points="1029.9314,-556.5 1136.9314,-556.5 "/>
<text text-anchor="middle" x="1083.4314" y="-544.5" font-family="Helvetica,sans-Serif" font-size="10.00" fill="#000000"> </text>
<polyline fill="none" stroke="#bfbfbf" points="1029.9314,-537.5 1136.9314,-537.5 "/>
<text text-anchor="middle" x="1083.4314" y="-525.5" font-family="Helvetica,sans-Serif" font-size="10.00" fill="#000000"> </text>
</g>
<!-- Node13&#45;&gt;Node3 -->
<g id="edge21" class="edge">
<title>Node13&#45;&gt;Node3</title>
<path fill="none" stroke="#404040" d="M1070.6672,-518.4452C1059.9928,-493.6336 1045.0149,-456.5142 1035.4314,-423 1027.78,-396.2425 1021.372,-366.7347 1016.2564,-339.5274"/>
<polygon fill="none" stroke="#404040" points="1016.2367,-339.4192 1011.2193,-334.2398 1014.0705,-327.6163 1019.0879,-332.7957 1016.2367,-339.4192"/>
<text text-anchor="middle" x="1052.4314" y="-382" font-family="Helvetica,sans-Serif" font-size="10.00" fill="#000000"> +@75</text>
</g>
<!-- Node14 -->
<g id="node13" class="node">
<title>Node14</title>
<polygon fill="none" stroke="#bfbfbf" points="1154.9314,-518.5 1154.9314,-575.5 1197.9314,-575.5 1197.9314,-518.5 1154.9314,-518.5"/>
<text text-anchor="middle" x="1176.4314" y="-563.5" font-family="Helvetica,sans-Serif" font-size="10.00" fill="#000000">const</text>
<polyline fill="none" stroke="#bfbfbf" points="1154.9314,-556.5 1197.9314,-556.5 "/>
<text text-anchor="middle" x="1176.4314" y="-544.5" font-family="Helvetica,sans-Serif" font-size="10.00" fill="#000000"> </text>
<polyline fill="none" stroke="#bfbfbf" points="1154.9314,-537.5 1197.9314,-537.5 "/>
<text text-anchor="middle" x="1176.4314" y="-525.5" font-family="Helvetica,sans-Serif" font-size="10.00" fill="#000000"> </text>
</g>
<!-- Node14&#45;&gt;Node3 -->
<g id="edge22" class="edge">
<title>Node14&#45;&gt;Node3</title>
<path fill="none" stroke="#404040" d="M1175.1216,-518.2114C1172.5508,-494.5907 1165.3274,-461.768 1145.4314,-441 1128.2219,-423.0362 1109.6925,-440.9142 1092.4314,-423 1067.6494,-397.2802 1084.6164,-378.3276 1069.4314,-346 1068.2735,-343.5349 1067.0614,-341.0613 1065.8035,-338.5864"/>
<polygon fill="none" stroke="#404040" points="1065.6692,-338.3346 1059.3156,-334.924 1060.0201,-327.7473 1066.3737,-331.1579 1065.6692,-338.3346"/>
<text text-anchor="middle" x="1147.9314" y="-393" font-family="Helvetica,sans-Serif" font-size="10.00" fill="#000000"> +sHeaderType</text>
<text text-anchor="middle" x="1147.9314" y="-382" font-family="Helvetica,sans-Serif" font-size="10.00" fill="#000000">+sSerializationMethod</text>
<text text-anchor="middle" x="1147.9314" y="-371" font-family="Helvetica,sans-Serif" font-size="10.00" fill="#000000">+sVersion</text>
</g>
<!-- Node15&#45;&gt;Node2 -->
<g id="edge23" class="edge">
<title>Node15&#45;&gt;Node2</title>
<path fill="none" stroke="#404040" d="M179.7681,-441.2672C185.1476,-357.2363 204.5845,-240.7925 266.4314,-160 283.2289,-138.0569 295.0084,-139.0919 321.4314,-131 428.646,-98.1662 747.6695,-73.236 907.6996,-62.4139"/>
<polygon fill="none" stroke="#404040" points="907.9036,-62.4003 913.6223,-58.0076 919.8767,-61.597 914.1579,-65.9897 907.9036,-62.4003"/>
<text text-anchor="middle" x="293.9314" y="-241.5" font-family="Helvetica,sans-Serif" font-size="10.00" fill="#000000"> +deviceID</text>
</g>
<!-- Node16 -->
<g id="node15" class="node">
<title>Node16</title>
<g id="a_node15"><a xlink:href="../../d6/d30/classuint64__t.html" target="_top" xlink:title="{uint64_t\n||}">
<polygon fill="none" stroke="#000000" points="1480.4314,-215.5 1480.4314,-272.5 1536.4314,-272.5 1536.4314,-215.5 1480.4314,-215.5"/>
<text text-anchor="middle" x="1508.4314" y="-260.5" font-family="Helvetica,sans-Serif" font-size="10.00" fill="#000000">uint64_t</text>
<polyline fill="none" stroke="#000000" points="1480.4314,-253.5 1536.4314,-253.5 "/>
<text text-anchor="middle" x="1508.4314" y="-241.5" font-family="Helvetica,sans-Serif" font-size="10.00" fill="#000000"> </text>
<polyline fill="none" stroke="#000000" points="1480.4314,-234.5 1536.4314,-234.5 "/>
<text text-anchor="middle" x="1508.4314" y="-222.5" font-family="Helvetica,sans-Serif" font-size="10.00" fill="#000000"> </text>
</a>
</g>
</g>
<!-- Node16&#45;&gt;Node2 -->
<g id="edge29" class="edge">
<title>Node16&#45;&gt;Node2</title>
<path fill="none" stroke="#404040" d="M1500.9816,-215.4278C1494.722,-196.9722 1483.9234,-173.892 1466.4314,-160 1409.8439,-115.0585 1213.8403,-83.2455 1095.1221,-67.5785"/>
<polygon fill="none" stroke="#404040" points="1095.0722,-67.5721 1088.6056,-70.7633 1083.1727,-66.0216 1089.6393,-62.8304 1095.0722,-67.5721"/>
<text text-anchor="middle" x="1474.9314" y="-134" font-family="Helvetica,sans-Serif" font-size="10.00" fill="#000000"> +sampleTimeUs</text>
</g>
</g>
</svg>
