<?xml version="1.0" encoding="UTF-8" standalone="no"?>
<!DOCTYPE svg PUBLIC "-//W3C//DTD SVG 1.1//EN"
 "http://www.w3.org/Graphics/SVG/1.1/DTD/svg11.dtd">
<!-- Generated by graphviz version 2.40.1 (20161225.0304)
 -->
<!-- Title: o2::header::NameHeader&lt; N &gt; Pages: 1 -->
<!--zoomable 1080 -->
<svg id="main" version="1.1" xmlns="http://www.w3.org/2000/svg" xmlns:xlink="http://www.w3.org/1999/xlink" xml:space="preserve" onload="init(evt)">
<style type="text/css"><![CDATA[
.edge:hover path { stroke: red; }
.edge:hover polygon { stroke: red; fill: red; }
]]></style>
<script type="text/javascript"><![CDATA[
var edges = document.getElementsByTagName('g');
if (edges && edges.length) {
  for (var i=0;i<edges.length;i++) {
    if (edges[i].id.substr(0,4)=='edge') {
      edges[i].setAttribute('class','edge');
    }
  }
}
]]></script>
        <defs>
                <circle id="rim" cx="0" cy="0" r="7"/>
                <circle id="rim2" cx="0" cy="0" r="3.5"/>
                <g id="zoomPlus">
                        <use xlink:href="#rim" fill="#404040">
                                <set attributeName="fill" to="#808080" begin="zoomplus.mouseover" end="zoomplus.mouseout"/>
                        </use>
                        <path d="M-4,0h8M0,-4v8" fill="none" stroke="white" stroke-width="1.5" pointer-events="none"/>
                </g>
                <g id="zoomMin">
                        <use xlink:href="#rim" fill="#404040">
                                <set attributeName="fill" to="#808080" begin="zoomminus.mouseover" end="zoomminus.mouseout"/>
                        </use>
                        <path d="M-4,0h8" fill="none" stroke="white" stroke-width="1.5" pointer-events="none"/>
                </g>
                <g id="dirArrow">
                        <path fill="none" stroke="white" stroke-width="1.5" d="M0,-3.0v7 M-2.5,-0.5L0,-3.0L2.5,-0.5"/>
                </g>
               <g id="resetDef">
                       <use xlink:href="#rim2" fill="#404040">
                               <set attributeName="fill" to="#808080" begin="reset.mouseover" end="reset.mouseout"/>
                       </use>
               </g>
        </defs>

<script type="text/javascript">
var viewWidth = 915;
var viewHeight = 1080;
var sectionId = 'dynsection-1';
</script>
<script xlink:href="../../svgpan.js"/>
<svg id="graph" class="graph">
<g id="viewport">
<title>o2::header::NameHeader&lt; N &gt;</title>
<!-- Node2 -->
<g id="node1" class="node">
<title>Node2</title>
<polygon fill="#bfbfbf" stroke="#000000" points="505.3757,-.5 505.3757,-112.5 674.3757,-112.5 674.3757,-.5 505.3757,-.5"/>
<text text-anchor="middle" x="589.8757" y="-100.5" font-family="Helvetica,sans-Serif" font-size="10.00" fill="#000000">o2::header::NameHeader&lt; N &gt;</text>
<polyline fill="none" stroke="#000000" points="505.3757,-93.5 674.3757,-93.5 "/>
<text text-anchor="middle" x="589.8757" y="-81.5" font-family="Helvetica,sans-Serif" font-size="10.00" fill="#000000"> </text>
<polyline fill="none" stroke="#000000" points="505.3757,-74.5 674.3757,-74.5 "/>
<text text-anchor="start" x="513.3757" y="-62.5" font-family="Helvetica,sans-Serif" font-size="10.00" fill="#000000">+ NameHeader()</text>
<text text-anchor="start" x="513.3757" y="-51.5" font-family="Helvetica,sans-Serif" font-size="10.00" fill="#000000">+ NameHeader()</text>
<text text-anchor="start" x="513.3757" y="-40.5" font-family="Helvetica,sans-Serif" font-size="10.00" fill="#000000">+ getName()</text>
<text text-anchor="start" x="513.3757" y="-29.5" font-family="Helvetica,sans-Serif" font-size="10.00" fill="#000000">+ getNameLength()</text>
<text text-anchor="start" x="513.3757" y="-18.5" font-family="Helvetica,sans-Serif" font-size="10.00" fill="#000000">+ sHeaderType()</text>
<text text-anchor="start" x="513.3757" y="-7.5" font-family="Helvetica,sans-Serif" font-size="10.00" fill="#000000">+ sHeaderType()</text>
</g>
<!-- Node3 -->
<g id="node2" class="node">
<title>Node3</title>
<g id="a_node2"><a xlink:href="../../d8/dbd/structo2_1_1header_1_1BaseHeader.html" target="_top" xlink:title="the base header struct Every header type must begin (i.e. derive) with this. Don&#39;t use this struct di...">
<polygon fill="none" stroke="#000000" points="408.3757,-182.5 408.3757,-349.5 581.3757,-349.5 581.3757,-182.5 408.3757,-182.5"/>
<text text-anchor="middle" x="494.8757" y="-337.5" font-family="Helvetica,sans-Serif" font-size="10.00" fill="#000000">o2::header::BaseHeader</text>
<polyline fill="none" stroke="#000000" points="408.3757,-330.5 581.3757,-330.5 "/>
<text text-anchor="middle" x="494.8757" y="-318.5" font-family="Helvetica,sans-Serif" font-size="10.00" fill="#000000"> </text>
<polyline fill="none" stroke="#000000" points="408.3757,-311.5 581.3757,-311.5 "/>
<text text-anchor="start" x="416.3757" y="-299.5" font-family="Helvetica,sans-Serif" font-size="10.00" fill="#000000">+ BaseHeader()</text>
<text text-anchor="start" x="416.3757" y="-288.5" font-family="Helvetica,sans-Serif" font-size="10.00" fill="#000000">+ BaseHeader()</text>
<text text-anchor="start" x="416.3757" y="-277.5" font-family="Helvetica,sans-Serif" font-size="10.00" fill="#000000">+ BaseHeader()</text>
<text text-anchor="start" x="416.3757" y="-266.5" font-family="Helvetica,sans-Serif" font-size="10.00" fill="#000000">+ size()</text>
<text text-anchor="start" x="416.3757" y="-255.5" font-family="Helvetica,sans-Serif" font-size="10.00" fill="#000000">+ data()</text>
<text text-anchor="start" x="416.3757" y="-244.5" font-family="Helvetica,sans-Serif" font-size="10.00" fill="#000000">+ next()</text>
<text text-anchor="start" x="416.3757" y="-233.5" font-family="Helvetica,sans-Serif" font-size="10.00" fill="#000000">+ next()</text>
<text text-anchor="start" x="416.3757" y="-222.5" font-family="Helvetica,sans-Serif" font-size="10.00" fill="#000000">+ sanityCheck()</text>
<text text-anchor="start" x="416.3757" y="-211.5" font-family="Helvetica,sans-Serif" font-size="10.00" fill="#000000">+ throwInconsistentStackError()</text>
<text text-anchor="start" x="416.3757" y="-200.5" font-family="Helvetica,sans-Serif" font-size="10.00" fill="#000000">+ get()</text>
<text text-anchor="start" x="416.3757" y="-189.5" font-family="Helvetica,sans-Serif" font-size="10.00" fill="#000000">+ get()</text>
</a>
</g>
</g>
<!-- Node3&#45;&gt;Node2 -->
<g id="edge1" class="edge">
<title>Node3&#45;&gt;Node2</title>
<path fill="none" stroke="#191970" d="M537.0829,-172.922C546.3887,-152.4002 555.9689,-131.2734 564.3709,-112.7449"/>
<polygon fill="none" stroke="#191970" points="533.7741,-171.744 532.8318,-182.2969 540.1493,-174.6349 533.7741,-171.744"/>
</g>
<!-- Node4 -->
<g id="node3" class="node">
<title>Node4</title>
<g id="a_node3"><a xlink:href="../../d9/db3/structo2_1_1header_1_1Descriptor.html" target="_top" xlink:title="{o2::header::Descriptor\l\&lt; gSizeHeaderDescriptionString \&gt;\n||+ Descriptor()\l+ Descriptor()\l+ Descriptor()\l+ Descriptor()\l+ operator=()\l+ operator ItgType()\l+ runtimeInit()\l+ operator==()\l+ operator==()\l+ operator\&lt;()\l+ operator!=()\l+ operator!=()\l+ as()\l+ print()\l}">
<polygon fill="none" stroke="#000000" points="278.3757,-463.5 278.3757,-674.5 463.3757,-674.5 463.3757,-463.5 278.3757,-463.5"/>
<text text-anchor="start" x="286.3757" y="-662.5" font-family="Helvetica,sans-Serif" font-size="10.00" fill="#000000">o2::header::Descriptor</text>
<text text-anchor="middle" x="370.8757" y="-651.5" font-family="Helvetica,sans-Serif" font-size="10.00" fill="#000000">&lt; gSizeHeaderDescriptionString &gt;</text>
<polyline fill="none" stroke="#000000" points="278.3757,-644.5 463.3757,-644.5 "/>
<text text-anchor="middle" x="370.8757" y="-632.5" font-family="Helvetica,sans-Serif" font-size="10.00" fill="#000000"> </text>
<polyline fill="none" stroke="#000000" points="278.3757,-625.5 463.3757,-625.5 "/>
<text text-anchor="start" x="286.3757" y="-613.5" font-family="Helvetica,sans-Serif" font-size="10.00" fill="#000000">+ Descriptor()</text>
<text text-anchor="start" x="286.3757" y="-602.5" font-family="Helvetica,sans-Serif" font-size="10.00" fill="#000000">+ Descriptor()</text>
<text text-anchor="start" x="286.3757" y="-591.5" font-family="Helvetica,sans-Serif" font-size="10.00" fill="#000000">+ Descriptor()</text>
<text text-anchor="start" x="286.3757" y="-580.5" font-family="Helvetica,sans-Serif" font-size="10.00" fill="#000000">+ Descriptor()</text>
<text text-anchor="start" x="286.3757" y="-569.5" font-family="Helvetica,sans-Serif" font-size="10.00" fill="#000000">+ operator=()</text>
<text text-anchor="start" x="286.3757" y="-558.5" font-family="Helvetica,sans-Serif" font-size="10.00" fill="#000000">+ operator ItgType()</text>
<text text-anchor="start" x="286.3757" y="-547.5" font-family="Helvetica,sans-Serif" font-size="10.00" fill="#000000">+ runtimeInit()</text>
<text text-anchor="start" x="286.3757" y="-536.5" font-family="Helvetica,sans-Serif" font-size="10.00" fill="#000000">+ operator==()</text>
<text text-anchor="start" x="286.3757" y="-525.5" font-family="Helvetica,sans-Serif" font-size="10.00" fill="#000000">+ operator==()</text>
<text text-anchor="start" x="286.3757" y="-514.5" font-family="Helvetica,sans-Serif" font-size="10.00" fill="#000000">+ operator&lt;()</text>
<text text-anchor="start" x="286.3757" y="-503.5" font-family="Helvetica,sans-Serif" font-size="10.00" fill="#000000">+ operator!=()</text>
<text text-anchor="start" x="286.3757" y="-492.5" font-family="Helvetica,sans-Serif" font-size="10.00" fill="#000000">+ operator!=()</text>
<text text-anchor="start" x="286.3757" y="-481.5" font-family="Helvetica,sans-Serif" font-size="10.00" fill="#000000">+ as()</text>
<text text-anchor="start" x="286.3757" y="-470.5" font-family="Helvetica,sans-Serif" font-size="10.00" fill="#000000">+ print()</text>
</a>
</g>
</g>
<!-- Node4&#45;&gt;Node3 -->
<g id="edge2" class="edge">
<title>Node4&#45;&gt;Node3</title>
<path fill="none" stroke="#404040" d="M391.3745,-463.2891C399.4176,-431.8255 410.0974,-397.8104 423.8757,-368 425.0787,-365.3973 426.3481,-362.79 427.6737,-360.1855"/>
<polygon fill="none" stroke="#404040" points="427.7297,-360.0814 427.0496,-352.9024 433.4148,-349.5135 434.0949,-356.6925 427.7297,-360.0814"/>
<text text-anchor="middle" x="456.8757" y="-404" font-family="Helvetica,sans-Serif" font-size="10.00" fill="#000000"> +description</text>
</g>
<!-- Node5 -->
<g id="node4" class="node">
<title>Node5</title>
<polygon fill="none" stroke="#bfbfbf" points="555.3757,-1014.5 555.3757,-1071.5 594.3757,-1071.5 594.3757,-1014.5 555.3757,-1014.5"/>
<text text-anchor="middle" x="574.8757" y="-1059.5" font-family="Helvetica,sans-Serif" font-size="10.00" fill="#000000">Type</text>
<polyline fill="none" stroke="#bfbfbf" points="555.3757,-1052.5 594.3757,-1052.5 "/>
<text text-anchor="middle" x="574.8757" y="-1040.5" font-family="Helvetica,sans-Serif" font-size="10.00" fill="#000000"> </text>
<polyline fill="none" stroke="#bfbfbf" points="555.3757,-1033.5 594.3757,-1033.5 "/>
<text text-anchor="middle" x="574.8757" y="-1021.5" font-family="Helvetica,sans-Serif" font-size="10.00" fill="#000000"> </text>
</g>
<!-- Node5&#45;&gt;Node4 -->
<g id="edge3" class="edge">
<title>Node5&#45;&gt;Node4</title>
<path fill="none" stroke="#404040" d="M594.8374,-1033.7825C623.2273,-1019.4221 674.1225,-988.7429 694.8757,-945 735.2632,-859.8726 750.687,-808.914 694.8757,-733 659.5713,-684.9792 624.6968,-707.4608 566.8757,-693 528.6061,-683.4289 512.3508,-693.572 474.3435,-675.654"/>
<polygon fill="none" stroke="#404040" points="474.2792,-675.621 467.1149,-676.4416 463.6019,-670.144 470.7662,-669.3235 474.2792,-675.621"/>
<text text-anchor="middle" x="743.3757" y="-836.5" font-family="Helvetica,sans-Serif" font-size="10.00" fill="#000000"> +itg</text>
</g>
<!-- Node9 -->
<g id="node8" class="node">
<title>Node9</title>
<g id="a_node8"><a xlink:href="../../d9/db3/structo2_1_1header_1_1Descriptor.html" target="_top" xlink:title="{o2::header::Descriptor\l\&lt; N, PrinterPolicy \&gt;\n||+ Descriptor()\l+ Descriptor()\l+ Descriptor()\l+ operator=()\l+ operator ItgType()\l+ Descriptor()\l+ runtimeInit()\l+ operator==()\l+ operator\&lt;()\l+ operator!=()\l+ operator==()\l+ operator!=()\l+ as()\l+ print()\l}">
<polygon fill="none" stroke="#000000" points="315.3757,-733.5 315.3757,-944.5 440.3757,-944.5 440.3757,-733.5 315.3757,-733.5"/>
<text text-anchor="start" x="323.3757" y="-932.5" font-family="Helvetica,sans-Serif" font-size="10.00" fill="#000000">o2::header::Descriptor</text>
<text text-anchor="middle" x="377.8757" y="-921.5" font-family="Helvetica,sans-Serif" font-size="10.00" fill="#000000">&lt; N, PrinterPolicy &gt;</text>
<polyline fill="none" stroke="#000000" points="315.3757,-914.5 440.3757,-914.5 "/>
<text text-anchor="middle" x="377.8757" y="-902.5" font-family="Helvetica,sans-Serif" font-size="10.00" fill="#000000"> </text>
<polyline fill="none" stroke="#000000" points="315.3757,-895.5 440.3757,-895.5 "/>
<text text-anchor="start" x="323.3757" y="-883.5" font-family="Helvetica,sans-Serif" font-size="10.00" fill="#000000">+ Descriptor()</text>
<text text-anchor="start" x="323.3757" y="-872.5" font-family="Helvetica,sans-Serif" font-size="10.00" fill="#000000">+ Descriptor()</text>
<text text-anchor="start" x="323.3757" y="-861.5" font-family="Helvetica,sans-Serif" font-size="10.00" fill="#000000">+ Descriptor()</text>
<text text-anchor="start" x="323.3757" y="-850.5" font-family="Helvetica,sans-Serif" font-size="10.00" fill="#000000">+ operator=()</text>
<text text-anchor="start" x="323.3757" y="-839.5" font-family="Helvetica,sans-Serif" font-size="10.00" fill="#000000">+ operator ItgType()</text>
<text text-anchor="start" x="323.3757" y="-828.5" font-family="Helvetica,sans-Serif" font-size="10.00" fill="#000000">+ Descriptor()</text>
<text text-anchor="start" x="323.3757" y="-817.5" font-family="Helvetica,sans-Serif" font-size="10.00" fill="#000000">+ runtimeInit()</text>
<text text-anchor="start" x="323.3757" y="-806.5" font-family="Helvetica,sans-Serif" font-size="10.00" fill="#000000">+ operator==()</text>
<text text-anchor="start" x="323.3757" y="-795.5" font-family="Helvetica,sans-Serif" font-size="10.00" fill="#000000">+ operator&lt;()</text>
<text text-anchor="start" x="323.3757" y="-784.5" font-family="Helvetica,sans-Serif" font-size="10.00" fill="#000000">+ operator!=()</text>
<text text-anchor="start" x="323.3757" y="-773.5" font-family="Helvetica,sans-Serif" font-size="10.00" fill="#000000">+ operator==()</text>
<text text-anchor="start" x="323.3757" y="-762.5" font-family="Helvetica,sans-Serif" font-size="10.00" fill="#000000">+ operator!=()</text>
<text text-anchor="start" x="323.3757" y="-751.5" font-family="Helvetica,sans-Serif" font-size="10.00" fill="#000000">+ as()</text>
<text text-anchor="start" x="323.3757" y="-740.5" font-family="Helvetica,sans-Serif" font-size="10.00" fill="#000000">+ print()</text>
</a>
</g>
</g>
<!-- Node5&#45;&gt;Node9 -->
<g id="edge8" class="edge">
<title>Node5&#45;&gt;Node9</title>
<path fill="none" stroke="#404040" d="M555.2915,-1029.4411C530.4015,-1011.686 486.8358,-978.8218 454.8757,-945 452.7569,-942.7578 450.6466,-940.4557 448.5496,-938.1063"/>
<polygon fill="none" stroke="#404040" points="448.3852,-937.916 441.4355,-935.9918 440.5388,-928.8366 447.4885,-930.7608 448.3852,-937.916"/>
<text text-anchor="middle" x="521.3757" y="-977" font-family="Helvetica,sans-Serif" font-size="10.00" fill="#000000"> +itg</text>
</g>
<!-- Node10 -->
<g id="node9" class="node">
<title>Node10</title>
<g id="a_node9"><a xlink:href="../../d9/db3/structo2_1_1header_1_1Descriptor.html" target="_top" xlink:title="{o2::header::Descriptor\l\&lt; gSizeSerializationMethodString \&gt;\n||+ Descriptor()\l+ Descriptor()\l+ Descriptor()\l+ Descriptor()\l+ operator=()\l+ operator ItgType()\l+ runtimeInit()\l+ operator==()\l+ operator==()\l+ operator\&lt;()\l+ operator!=()\l+ operator!=()\l+ as()\l+ print()\l}">
<polygon fill="none" stroke="#000000" points="69.3757,-463.5 69.3757,-674.5 260.3757,-674.5 260.3757,-463.5 69.3757,-463.5"/>
<text text-anchor="start" x="77.3757" y="-662.5" font-family="Helvetica,sans-Serif" font-size="10.00" fill="#000000">o2::header::Descriptor</text>
<text text-anchor="middle" x="164.8757" y="-651.5" font-family="Helvetica,sans-Serif" font-size="10.00" fill="#000000">&lt; gSizeSerializationMethodString &gt;</text>
<polyline fill="none" stroke="#000000" points="69.3757,-644.5 260.3757,-644.5 "/>
<text text-anchor="middle" x="164.8757" y="-632.5" font-family="Helvetica,sans-Serif" font-size="10.00" fill="#000000"> </text>
<polyline fill="none" stroke="#000000" points="69.3757,-625.5 260.3757,-625.5 "/>
<text text-anchor="start" x="77.3757" y="-613.5" font-family="Helvetica,sans-Serif" font-size="10.00" fill="#000000">+ Descriptor()</text>
<text text-anchor="start" x="77.3757" y="-602.5" font-family="Helvetica,sans-Serif" font-size="10.00" fill="#000000">+ Descriptor()</text>
<text text-anchor="start" x="77.3757" y="-591.5" font-family="Helvetica,sans-Serif" font-size="10.00" fill="#000000">+ Descriptor()</text>
<text text-anchor="start" x="77.3757" y="-580.5" font-family="Helvetica,sans-Serif" font-size="10.00" fill="#000000">+ Descriptor()</text>
<text text-anchor="start" x="77.3757" y="-569.5" font-family="Helvetica,sans-Serif" font-size="10.00" fill="#000000">+ operator=()</text>
<text text-anchor="start" x="77.3757" y="-558.5" font-family="Helvetica,sans-Serif" font-size="10.00" fill="#000000">+ operator ItgType()</text>
<text text-anchor="start" x="77.3757" y="-547.5" font-family="Helvetica,sans-Serif" font-size="10.00" fill="#000000">+ runtimeInit()</text>
<text text-anchor="start" x="77.3757" y="-536.5" font-family="Helvetica,sans-Serif" font-size="10.00" fill="#000000">+ operator==()</text>
<text text-anchor="start" x="77.3757" y="-525.5" font-family="Helvetica,sans-Serif" font-size="10.00" fill="#000000">+ operator==()</text>
<text text-anchor="start" x="77.3757" y="-514.5" font-family="Helvetica,sans-Serif" font-size="10.00" fill="#000000">+ operator&lt;()</text>
<text text-anchor="start" x="77.3757" y="-503.5" font-family="Helvetica,sans-Serif" font-size="10.00" fill="#000000">+ operator!=()</text>
<text text-anchor="start" x="77.3757" y="-492.5" font-family="Helvetica,sans-Serif" font-size="10.00" fill="#000000">+ operator!=()</text>
<text text-anchor="start" x="77.3757" y="-481.5" font-family="Helvetica,sans-Serif" font-size="10.00" fill="#000000">+ as()</text>
<text text-anchor="start" x="77.3757" y="-470.5" font-family="Helvetica,sans-Serif" font-size="10.00" fill="#000000">+ print()</text>
</a>
</g>
</g>
<!-- Node5&#45;&gt;Node10 -->
<g id="edge14" class="edge">
<title>Node5&#45;&gt;Node10</title>
<path fill="none" stroke="#404040" d="M573.6875,-1014.2714C570.4163,-941.4461 560.2777,-753.8907 541.8757,-733 518.9311,-706.9523 499.3624,-724.1423 465.8757,-715 434.0064,-706.2993 427.1066,-700.2476 394.8757,-693 343.2425,-681.3894 322.1171,-698.1017 271.5732,-675.7209"/>
<polygon fill="none" stroke="#404040" points="271.5145,-675.6929 264.3759,-676.7135 260.6883,-670.5166 267.8268,-669.496 271.5145,-675.6929"/>
<text text-anchor="middle" x="582.3757" y="-836.5" font-family="Helvetica,sans-Serif" font-size="10.00" fill="#000000"> +itg</text>
</g>
<!-- Node6 -->
<g id="node5" class="node">
<title>Node6</title>
<polygon fill="none" stroke="#bfbfbf" points="81.8757,-1014.5 81.8757,-1071.5 119.8757,-1071.5 119.8757,-1014.5 81.8757,-1014.5"/>
<text text-anchor="middle" x="100.8757" y="-1059.5" font-family="Helvetica,sans-Serif" font-size="10.00" fill="#000000">char</text>
<polyline fill="none" stroke="#bfbfbf" points="81.8757,-1052.5 119.8757,-1052.5 "/>
<text text-anchor="middle" x="100.8757" y="-1040.5" font-family="Helvetica,sans-Serif" font-size="10.00" fill="#000000"> </text>
<polyline fill="none" stroke="#bfbfbf" points="81.8757,-1033.5 119.8757,-1033.5 "/>
<text text-anchor="middle" x="100.8757" y="-1021.5" font-family="Helvetica,sans-Serif" font-size="10.00" fill="#000000"> </text>
</g>
<!-- Node6&#45;&gt;Node3 -->
<g id="edge12" class="edge">
<title>Node6&#45;&gt;Node3</title>
<path fill="none" stroke="#404040" d="M87.0178,-1014.2836C45.1709,-922.9668 -69.3362,-635.1745 59.8757,-463 141.0108,-354.8877 295.2471,-304.5777 396.5584,-282.2961"/>
<polygon fill="none" stroke="#404040" points="396.6006,-282.2872 401.6322,-277.1216 408.3356,-279.7795 403.304,-284.945 396.6006,-282.2872"/>
<text text-anchor="middle" x="36.8757" y="-701.5" font-family="Helvetica,sans-Serif" font-size="10.00" fill="#000000"> +magicString</text>
</g>
<!-- Node6&#45;&gt;Node4 -->
<g id="edge4" class="edge">
<title>Node6&#45;&gt;Node4</title>
<path fill="none" stroke="#404040" d="M120.1873,-1025.6041C138.9106,-1007.4802 166.4014,-977.2653 179.8757,-945 198.1463,-901.2497 171.4637,-767.603 203.8757,-733 234.7472,-700.0416 268.1821,-742.6636 303.8757,-715 314.5315,-706.7415 323.5519,-696.3961 331.1748,-685.0464"/>
<polygon fill="none" stroke="#404040" points="331.1837,-685.032 330.9548,-677.8245 337.5199,-674.8411 337.7488,-682.0486 331.1837,-685.032"/>
<text text-anchor="middle" x="216.3757" y="-836.5" font-family="Helvetica,sans-Serif" font-size="10.00" fill="#000000"> +str</text>
</g>
<!-- Node6&#45;&gt;Node9 -->
<g id="edge9" class="edge">
<title>Node6&#45;&gt;Node9</title>
<path fill="none" stroke="#404040" d="M120.1184,-1033.2148C150.227,-1017.9547 210.3646,-987.6787 261.8757,-963 279.0922,-954.7516 286.1218,-957.1147 300.8757,-945 302.7215,-943.4844 304.5454,-941.9148 306.3461,-940.2982"/>
<polygon fill="none" stroke="#404040" points="306.4891,-940.1611 308.0512,-933.1212 315.1504,-931.8556 313.5882,-938.8955 306.4891,-940.1611"/>
<text text-anchor="middle" x="274.3757" y="-977" font-family="Helvetica,sans-Serif" font-size="10.00" fill="#000000"> +str</text>
</g>
<!-- Node6&#45;&gt;Node10 -->
<g id="edge15" class="edge">
<title>Node6&#45;&gt;Node10</title>
<path fill="none" stroke="#404040" d="M94.1942,-1014.3304C82.4525,-959.0761 61.4756,-834.3433 84.8757,-733 88.4888,-717.3519 93.8082,-701.47 100.0163,-686.0606"/>
<polygon fill="none" stroke="#404040" points="100.0416,-686.0001 98.6731,-678.9201 104.6822,-674.9337 106.0507,-682.0138 100.0416,-686.0001"/>
<text text-anchor="middle" x="97.3757" y="-836.5" font-family="Helvetica,sans-Serif" font-size="10.00" fill="#000000"> +str</text>
</g>
<!-- Node7 -->
<g id="node6" class="node">
<title>Node7</title>
<polygon fill="none" stroke="#bfbfbf" points="462.3757,-1014.5 462.3757,-1071.5 491.3757,-1071.5 491.3757,-1014.5 462.3757,-1014.5"/>
<text text-anchor="middle" x="476.8757" y="-1059.5" font-family="Helvetica,sans-Serif" font-size="10.00" fill="#000000">int</text>
<polyline fill="none" stroke="#bfbfbf" points="462.3757,-1052.5 491.3757,-1052.5 "/>
<text text-anchor="middle" x="476.8757" y="-1040.5" font-family="Helvetica,sans-Serif" font-size="10.00" fill="#000000"> </text>
<polyline fill="none" stroke="#bfbfbf" points="462.3757,-1033.5 491.3757,-1033.5 "/>
<text text-anchor="middle" x="476.8757" y="-1021.5" font-family="Helvetica,sans-Serif" font-size="10.00" fill="#000000"> </text>
</g>
<!-- Node7&#45;&gt;Node4 -->
<g id="edge5" class="edge">
<title>Node7&#45;&gt;Node4</title>
<path fill="none" stroke="#404040" d="M491.4012,-1036.7411C518.7081,-1024.0662 577.0033,-992.4728 599.8757,-945 640.7727,-860.1162 649.2087,-813.275 599.8757,-733 579.27,-699.4702 556.9634,-708.7008 520.8757,-693 502.5099,-685.0096 493.7916,-686.8876 473.982,-675.6976"/>
<polygon fill="none" stroke="#404040" points="473.8578,-675.6208 466.6509,-675.8653 463.6533,-669.3067 470.8603,-669.0623 473.8578,-675.6208"/>
<text text-anchor="middle" x="661.8757" y="-847.5" font-family="Helvetica,sans-Serif" font-size="10.00" fill="#000000"> +arraySize</text>
<text text-anchor="middle" x="661.8757" y="-836.5" font-family="Helvetica,sans-Serif" font-size="10.00" fill="#000000">+size</text>
<text text-anchor="middle" x="661.8757" y="-825.5" font-family="Helvetica,sans-Serif" font-size="10.00" fill="#000000">+bitcount</text>
</g>
<!-- Node7&#45;&gt;Node9 -->
<g id="edge10" class="edge">
<title>Node7&#45;&gt;Node9</title>
<path fill="none" stroke="#404040" d="M462.0837,-1037.5865C445.3522,-1030.6498 418.6483,-1016.9579 404.8757,-996 397.0439,-984.0823 391.2717,-970.5963 387.0471,-956.6571"/>
<polygon fill="none" stroke="#404040" points="386.9905,-956.4481 381.5602,-951.7035 383.8512,-944.866 389.2816,-949.6106 386.9905,-956.4481"/>
<text text-anchor="middle" x="433.8757" y="-988" font-family="Helvetica,sans-Serif" font-size="10.00" fill="#000000"> +arraySize</text>
<text text-anchor="middle" x="433.8757" y="-977" font-family="Helvetica,sans-Serif" font-size="10.00" fill="#000000">+size</text>
<text text-anchor="middle" x="433.8757" y="-966" font-family="Helvetica,sans-Serif" font-size="10.00" fill="#000000">+bitcount</text>
</g>
<!-- Node7&#45;&gt;Node10 -->
<g id="edge16" class="edge">
<title>Node7&#45;&gt;Node10</title>
<path fill="none" stroke="#404040" d="M478.1266,-1014.4336C480.5266,-946.1892 482.8499,-776.1462 448.8757,-733 414.6175,-689.4932 383.7008,-709.6126 330.8757,-693 306.7116,-685.4008 296.087,-688.6636 271.3224,-675.8118"/>
<polygon fill="none" stroke="#404040" points="271.0951,-675.6834 263.9034,-676.2135 260.6482,-669.7789 267.8398,-669.2489 271.0951,-675.6834"/>
<text text-anchor="middle" x="508.8757" y="-847.5" font-family="Helvetica,sans-Serif" font-size="10.00" fill="#000000"> +arraySize</text>
<text text-anchor="middle" x="508.8757" y="-836.5" font-family="Helvetica,sans-Serif" font-size="10.00" fill="#000000">+size</text>
<text text-anchor="middle" x="508.8757" y="-825.5" font-family="Helvetica,sans-Serif" font-size="10.00" fill="#000000">+bitcount</text>
</g>
<!-- Node8 -->
<g id="node7" class="node">
<title>Node8</title>
<polygon fill="none" stroke="#bfbfbf" points="209.3757,-1014.5 209.3757,-1071.5 316.3757,-1071.5 316.3757,-1014.5 209.3757,-1014.5"/>
<text text-anchor="middle" x="262.8757" y="-1059.5" font-family="Helvetica,sans-Serif" font-size="10.00" fill="#000000">anonymous:+@71</text>
<polyline fill="none" stroke="#bfbfbf" points="209.3757,-1052.5 316.3757,-1052.5 "/>
<text text-anchor="middle" x="262.8757" y="-1040.5" font-family="Helvetica,sans-Serif" font-size="10.00" fill="#000000"> </text>
<polyline fill="none" stroke="#bfbfbf" points="209.3757,-1033.5 316.3757,-1033.5 "/>
<text text-anchor="middle" x="262.8757" y="-1021.5" font-family="Helvetica,sans-Serif" font-size="10.00" fill="#000000"> </text>
</g>
<!-- Node8&#45;&gt;Node4 -->
<g id="edge6" class="edge">
<title>Node8&#45;&gt;Node4</title>
<path fill="none" stroke="#404040" d="M253.6748,-1014.1519C236.6464,-954.6715 207.4955,-816.957 271.8757,-733 288.8171,-710.907 312.4911,-734.9837 331.8757,-715 340.0103,-706.614 346.495,-696.7277 351.6576,-686.1169"/>
<polygon fill="none" stroke="#404040" points="351.7818,-685.8316 350.5099,-678.7336 356.5728,-674.8295 357.8447,-681.9275 351.7818,-685.8316"/>
<text text-anchor="middle" x="288.8757" y="-836.5" font-family="Helvetica,sans-Serif" font-size="10.00" fill="#000000"> +@71</text>
</g>
<!-- Node8&#45;&gt;Node9 -->
<g id="edge11" class="edge">
<title>Node8&#45;&gt;Node9</title>
<path fill="none" stroke="#404040" d="M279.1085,-1014.2045C288.1414,-998.1809 300.046,-977.0632 312.4523,-955.0555"/>
<polygon fill="none" stroke="#404040" points="312.4821,-955.0026 311.944,-947.8115 318.375,-944.5491 318.913,-951.7401 312.4821,-955.0026"/>
<text text-anchor="middle" x="323.8757" y="-977" font-family="Helvetica,sans-Serif" font-size="10.00" fill="#000000"> +@71</text>
</g>
<!-- Node8&#45;&gt;Node10 -->
<g id="edge17" class="edge">
<title>Node8&#45;&gt;Node10</title>
<path fill="none" stroke="#404040" d="M242.1015,-1014.4943C228.7105,-997.7224 210.0683,-977.1045 189.8757,-963 172.5542,-950.901 157.6526,-962.5421 145.8757,-945 118.4062,-904.0833 129.8922,-780.9012 143.971,-686.5707"/>
<polygon fill="none" stroke="#404040" points="143.982,-686.4975 140.931,-679.9636 145.7888,-674.6343 148.8398,-681.1681 143.982,-686.4975"/>
<text text-anchor="middle" x="162.8757" y="-836.5" font-family="Helvetica,sans-Serif" font-size="10.00" fill="#000000"> +@71</text>
</g>
<!-- Node9&#45;&gt;Node4 -->
<g id="edge7" class="edge">
<title>Node9&#45;&gt;Node4</title>
<path fill="none" stroke="#ffa500" d="M384.6136,-723.1336C384.6078,-712.9414 384.3872,-702.7853 383.8757,-693 383.565,-687.0555 383.171,-680.9573 382.7152,-674.8069"/>
<polygon fill="#ffa500" stroke="#ffa500" points="381.1126,-723.3041 384.5506,-733.3256 388.1125,-723.3474 381.1126,-723.3041"/>
<text text-anchor="start" x="384.8757" y="-707" font-family="Helvetica,sans-Serif" font-size="10.00" fill="#000000"> &lt; gSizeHeaderDescription</text>
<text text-anchor="middle" x="450.8757" y="-696" font-family="Helvetica,sans-Serif" font-size="10.00" fill="#000000">String &gt;</text>
</g>
<!-- Node9&#45;&gt;Node10 -->
<g id="edge18" class="edge">
<title>Node9&#45;&gt;Node10</title>
<path fill="none" stroke="#ffa500" d="M307.3462,-737.3371C305.2332,-735.8101 303.0762,-734.3609 300.8757,-733 259.4884,-707.4052 227.7011,-748.9882 192.8757,-715 181.5164,-703.9137 173.9989,-689.728 169.1329,-674.5719"/>
<polygon fill="#ffa500" stroke="#ffa500" points="305.2574,-740.1471 315.2771,-743.5904 309.5915,-734.6503 305.2574,-740.1471"/>
<text text-anchor="start" x="192.8757" y="-707" font-family="Helvetica,sans-Serif" font-size="10.00" fill="#000000"> &lt; gSizeSerializationMethod</text>
<text text-anchor="middle" x="261.8757" y="-696" font-family="Helvetica,sans-Serif" font-size="10.00" fill="#000000">String &gt;</text>
</g>
<!-- Node10&#45;&gt;Node3 -->
<g id="edge13" class="edge">
<title>Node10&#45;&gt;Node3</title>
<path fill="none" stroke="#404040" d="M234.9531,-463.3475C259.7278,-430.504 289.3408,-395.6863 320.8757,-368 343.7717,-347.8983 371.2049,-329.6778 397.4458,-314.3819"/>
<polygon fill="none" stroke="#404040" points="397.7913,-314.1844 401.015,-307.734 408.2092,-308.2289 404.9854,-314.6793 397.7913,-314.1844"/>
<text text-anchor="middle" x="356.8757" y="-404" font-family="Helvetica,sans-Serif" font-size="10.00" fill="#000000"> +serialization</text>
</g>
<!-- Node11 -->
<g id="node10" class="node">
<title>Node11</title>
<g id="a_node10"><a xlink:href="../../d3/d87/classuint32__t.html" target="_top" xlink:title="{uint32_t\n||}">
<polygon fill="none" stroke="#000000" points="480.8757,-540.5 480.8757,-597.5 536.8757,-597.5 536.8757,-540.5 480.8757,-540.5"/>
<text text-anchor="middle" x="508.8757" y="-585.5" font-family="Helvetica,sans-Serif" font-size="10.00" fill="#000000">uint32_t</text>
<polyline fill="none" stroke="#000000" points="480.8757,-578.5 536.8757,-578.5 "/>
<text text-anchor="middle" x="508.8757" y="-566.5" font-family="Helvetica,sans-Serif" font-size="10.00" fill="#000000"> </text>
<polyline fill="none" stroke="#000000" points="480.8757,-559.5 536.8757,-559.5 "/>
<text text-anchor="middle" x="508.8757" y="-547.5" font-family="Helvetica,sans-Serif" font-size="10.00" fill="#000000"> </text>
</a>
</g>
</g>
<!-- Node11&#45;&gt;Node3 -->
<g id="edge19" class="edge">
<title>Node11&#45;&gt;Node3</title>
<path fill="none" stroke="#404040" d="M505.0783,-540.4986C501.9288,-515.4069 497.6851,-477.8518 495.8757,-445 494.3936,-418.0913 493.8009,-388.8731 493.6651,-361.9977"/>
<polygon fill="none" stroke="#404040" points="493.6647,-361.8311 489.649,-355.8416 493.6333,-349.8311 497.649,-355.8206 493.6647,-361.8311"/>
<text text-anchor="middle" x="541.3757" y="-437" font-family="Helvetica,sans-Serif" font-size="10.00" fill="#000000"> +headerVersion</text>
<text text-anchor="middle" x="541.3757" y="-426" font-family="Helvetica,sans-Serif" font-size="10.00" fill="#000000">+headerSize</text>
<text text-anchor="middle" x="541.3757" y="-415" font-family="Helvetica,sans-Serif" font-size="10.00" fill="#000000">+sMagicString</text>
<text text-anchor="middle" x="541.3757" y="-404" font-family="Helvetica,sans-Serif" font-size="10.00" fill="#000000">+flagsNextHeader</text>
<text text-anchor="middle" x="541.3757" y="-393" font-family="Helvetica,sans-Serif" font-size="10.00" fill="#000000">+magicStringInt</text>
<text text-anchor="middle" x="541.3757" y="-382" font-family="Helvetica,sans-Serif" font-size="10.00" fill="#000000">+flagsUnused</text>
<text text-anchor="middle" x="541.3757" y="-371" font-family="Helvetica,sans-Serif" font-size="10.00" fill="#000000">+flags</text>
</g>
<!-- Node12 -->
<g id="node11" class="node">
<title>Node12</title>
<polygon fill="none" stroke="#bfbfbf" points="555.3757,-540.5 555.3757,-597.5 662.3757,-597.5 662.3757,-540.5 555.3757,-540.5"/>
<text text-anchor="middle" x="608.8757" y="-585.5" font-family="Helvetica,sans-Serif" font-size="10.00" fill="#000000">anonymous:+@73</text>
<polyline fill="none" stroke="#bfbfbf" points="555.3757,-578.5 662.3757,-578.5 "/>
<text text-anchor="middle" x="608.8757" y="-566.5" font-family="Helvetica,sans-Serif" font-size="10.00" fill="#000000"> </text>
<polyline fill="none" stroke="#bfbfbf" points="555.3757,-559.5 662.3757,-559.5 "/>
<text text-anchor="middle" x="608.8757" y="-547.5" font-family="Helvetica,sans-Serif" font-size="10.00" fill="#000000"> </text>
</g>
<!-- Node12&#45;&gt;Node3 -->
<g id="edge20" class="edge">
<title>Node12&#45;&gt;Node3</title>
<path fill="none" stroke="#404040" d="M611.1124,-540.2712C613.0888,-499.9205 612.438,-425.0176 586.8757,-368 585.7027,-365.3836 584.437,-362.788 583.0898,-360.217"/>
<polygon fill="none" stroke="#404040" points="583.0852,-360.2089 576.6323,-356.9901 577.1215,-349.7956 583.5744,-353.0144 583.0852,-360.2089"/>
<text text-anchor="middle" x="623.8757" y="-404" font-family="Helvetica,sans-Serif" font-size="10.00" fill="#000000"> +@73</text>
</g>
<!-- Node13 -->
<g id="node12" class="node">
<title>Node13</title>
<polygon fill="none" stroke="#bfbfbf" points="680.3757,-540.5 680.3757,-597.5 787.3757,-597.5 787.3757,-540.5 680.3757,-540.5"/>
<text text-anchor="middle" x="733.8757" y="-585.5" font-family="Helvetica,sans-Serif" font-size="10.00" fill="#000000">anonymous:+@75</text>
<polyline fill="none" stroke="#bfbfbf" points="680.3757,-578.5 787.3757,-578.5 "/>
<text text-anchor="middle" x="733.8757" y="-566.5" font-family="Helvetica,sans-Serif" font-size="10.00" fill="#000000"> </text>
<polyline fill="none" stroke="#bfbfbf" points="680.3757,-559.5 787.3757,-559.5 "/>
<text text-anchor="middle" x="733.8757" y="-547.5" font-family="Helvetica,sans-Serif" font-size="10.00" fill="#000000"> </text>
</g>
<!-- Node13&#45;&gt;Node3 -->
<g id="edge21" class="edge">
<title>Node13&#45;&gt;Node3</title>
<path fill="none" stroke="#404040" d="M728.8233,-540.3942C719.6985,-497.0546 696.4097,-414.8528 644.8757,-368 628.497,-353.1091 616.2432,-360.125 592.3862,-349.8197"/>
<polygon fill="none" stroke="#404040" points="592.0991,-349.6735 584.9372,-350.5154 581.4056,-344.2283 588.5674,-343.3864 592.0991,-349.6735"/>
<text text-anchor="middle" x="712.8757" y="-404" font-family="Helvetica,sans-Serif" font-size="10.00" fill="#000000"> +@75</text>
</g>
<!-- Node14 -->
<g id="node13" class="node">
<title>Node14</title>
<polygon fill="none" stroke="#bfbfbf" points="805.3757,-540.5 805.3757,-597.5 848.3757,-597.5 848.3757,-540.5 805.3757,-540.5"/>
<text text-anchor="middle" x="826.8757" y="-585.5" font-family="Helvetica,sans-Serif" font-size="10.00" fill="#000000">const</text>
<polyline fill="none" stroke="#bfbfbf" points="805.3757,-578.5 848.3757,-578.5 "/>
<text text-anchor="middle" x="826.8757" y="-566.5" font-family="Helvetica,sans-Serif" font-size="10.00" fill="#000000"> </text>
<polyline fill="none" stroke="#bfbfbf" points="805.3757,-559.5 848.3757,-559.5 "/>
<text text-anchor="middle" x="826.8757" y="-547.5" font-family="Helvetica,sans-Serif" font-size="10.00" fill="#000000"> </text>
</g>
<!-- Node14&#45;&gt;Node3 -->
<g id="edge22" class="edge">
<title>Node14&#45;&gt;Node3</title>
<path fill="none" stroke="#404040" d="M823.3912,-540.2187C816.0894,-494.2448 794.4864,-405.5976 733.8757,-368 682.5243,-336.1461 652.8035,-371.7229 592.7312,-349.9582"/>
<polygon fill="none" stroke="#404040" points="592.6771,-349.9361 585.6091,-351.3653 581.5713,-345.3907 588.6393,-343.9614 592.6771,-349.9361"/>
<text text-anchor="middle" x="851.3757" y="-415" font-family="Helvetica,sans-Serif" font-size="10.00" fill="#000000"> +sHeaderType</text>
<text text-anchor="middle" x="851.3757" y="-404" font-family="Helvetica,sans-Serif" font-size="10.00" fill="#000000">+sSerializationMethod</text>
<text text-anchor="middle" x="851.3757" y="-393" font-family="Helvetica,sans-Serif" font-size="10.00" fill="#000000">+sVersion</text>
</g>
<!-- Node15 -->
<g id="node14" class="node">
<title>Node15</title>
<polygon fill="none" stroke="#bfbfbf" points="599.8757,-237.5 599.8757,-294.5 643.8757,-294.5 643.8757,-237.5 599.8757,-237.5"/>
<text text-anchor="middle" x="621.8757" y="-282.5" font-family="Helvetica,sans-Serif" font-size="10.00" fill="#000000">static</text>
<polyline fill="none" stroke="#bfbfbf" points="599.8757,-275.5 643.8757,-275.5 "/>
<text text-anchor="middle" x="621.8757" y="-263.5" font-family="Helvetica,sans-Serif" font-size="10.00" fill="#000000"> </text>
<polyline fill="none" stroke="#bfbfbf" points="599.8757,-256.5 643.8757,-256.5 "/>
<text text-anchor="middle" x="621.8757" y="-244.5" font-family="Helvetica,sans-Serif" font-size="10.00" fill="#000000"> </text>
</g>
<!-- Node15&#45;&gt;Node2 -->
<g id="edge23" class="edge">
<title>Node15&#45;&gt;Node2</title>
<path fill="none" stroke="#404040" d="M617.4933,-237.3092C613.0914,-208.4899 606.1439,-163.0057 600.3186,-124.8682"/>
<polygon fill="none" stroke="#404040" points="600.2833,-124.6369 595.4232,-119.3097 598.4713,-112.7745 603.3315,-118.1017 600.2833,-124.6369"/>
<text text-anchor="middle" x="661.3757" y="-156" font-family="Helvetica,sans-Serif" font-size="10.00" fill="#000000"> +sHeaderType</text>
<text text-anchor="middle" x="661.3757" y="-145" font-family="Helvetica,sans-Serif" font-size="10.00" fill="#000000">+sSerializationMethod</text>
<text text-anchor="middle" x="661.3757" y="-134" font-family="Helvetica,sans-Serif" font-size="10.00" fill="#000000">+sVersion</text>
</g>
</g>
</svg>
        <g id="navigator" transform="translate(0 0)" fill="#404254">
                <rect fill="#f2f5e9" fill-opacity="0.5" stroke="#606060" stroke-width=".5" x="0" y="0" width="60" height="60"/>
                <use id="zoomplus" xlink:href="#zoomPlus" x="17" y="9" onmousedown="handleZoom(evt,'in')"/>
                <use id="zoomminus" xlink:href="#zoomMin" x="42" y="9" onmousedown="handleZoom(evt,'out')"/>
                <use id="reset" xlink:href="#resetDef" x="30" y="36" onmousedown="handleReset()"/>
                <g id="arrowUp" xlink:href="#dirArrow" transform="translate(30 24)" onmousedown="handlePan(0,-1)">
                  <use xlink:href="#rim" fill="#404040">
                        <set attributeName="fill" to="#808080" begin="arrowUp.mouseover" end="arrowUp.mouseout"/>
                  </use>
                  <path fill="none" stroke="white" stroke-width="1.5" d="M0,-3.0v7 M-2.5,-0.5L0,-3.0L2.5,-0.5"/>
                </g>
                <g id="arrowRight" xlink:href="#dirArrow" transform="rotate(90) translate(36 -43)" onmousedown="handlePan(1,0)">
                  <use xlink:href="#rim" fill="#404040">
                        <set attributeName="fill" to="#808080" begin="arrowRight.mouseover" end="arrowRight.mouseout"/>
                  </use>
                  <path fill="none" stroke="white" stroke-width="1.5" d="M0,-3.0v7 M-2.5,-0.5L0,-3.0L2.5,-0.5"/>
                </g>
                <g id="arrowDown" xlink:href="#dirArrow" transform="rotate(180) translate(-30 -48)" onmousedown="handlePan(0,1)">
                  <use xlink:href="#rim" fill="#404040">
                        <set attributeName="fill" to="#808080" begin="arrowDown.mouseover" end="arrowDown.mouseout"/>
                  </use>
                  <path fill="none" stroke="white" stroke-width="1.5" d="M0,-3.0v7 M-2.5,-0.5L0,-3.0L2.5,-0.5"/>
                </g>
                <g id="arrowLeft" xlink:href="#dirArrow" transform="rotate(270) translate(-36 17)" onmousedown="handlePan(-1,0)">
                  <use xlink:href="#rim" fill="#404040">
                        <set attributeName="fill" to="#808080" begin="arrowLeft.mouseover" end="arrowLeft.mouseout"/>
                  </use>
                  <path fill="none" stroke="white" stroke-width="1.5" d="M0,-3.0v7 M-2.5,-0.5L0,-3.0L2.5,-0.5"/>
                </g>
        </g>
        <svg viewBox="0 0 15 15" width="100%" height="30px" preserveAspectRatio="xMaxYMin meet">
         <g id="arrow_out" transform="scale(0.3 0.3)">
          <a xlink:href="structo2_1_1header_1_1NameHeader__coll__graph_org.svg" target="_base">
           <rect id="button" ry="5" rx="5" y="6" x="6" height="38" width="38"
                fill="#f2f5e9" fill-opacity="0.5" stroke="#606060" stroke-width="1.0"/>
           <path id="arrow"
             d="M 11.500037,31.436501 C 11.940474,20.09759 22.043105,11.32322 32.158766,21.979434 L 37.068811,17.246167 C 37.068811,17.246167 37.088388,32 37.088388,32 L 22.160133,31.978069 C 22.160133,31.978069 26.997745,27.140456 26.997745,27.140456 C 18.528582,18.264221 13.291696,25.230495 11.500037,31.436501 z"
             style="fill:#404040;"/>
          </a>
         </g>
        </svg>
</svg>
