<?xml version="1.0" encoding="UTF-8" standalone="no"?>
<!DOCTYPE svg PUBLIC "-//W3C//DTD SVG 1.1//EN"
 "http://www.w3.org/Graphics/SVG/1.1/DTD/svg11.dtd">
<!-- Generated by graphviz version 2.40.1 (20161225.0304)
 -->
<!-- Title: /home/travis/build/AliceO2Group/AliceO2/Detectors/ITSMFT/MFT/workflow/src/ClusterReaderSpec.cxx Pages: 1 -->
<!--zoomable 441 -->
<svg id="main" version="1.1" xmlns="http://www.w3.org/2000/svg" xmlns:xlink="http://www.w3.org/1999/xlink" xml:space="preserve" onload="init(evt)">
<style type="text/css"><![CDATA[
.edge:hover path { stroke: red; }
.edge:hover polygon { stroke: red; fill: red; }
]]></style>
<script type="text/javascript"><![CDATA[
var edges = document.getElementsByTagName('g');
if (edges && edges.length) {
  for (var i=0;i<edges.length;i++) {
    if (edges[i].id.substr(0,4)=='edge') {
      edges[i].setAttribute('class','edge');
    }
  }
}
]]></script>
        <defs>
                <circle id="rim" cx="0" cy="0" r="7"/>
                <circle id="rim2" cx="0" cy="0" r="3.5"/>
                <g id="zoomPlus">
                        <use xlink:href="#rim" fill="#404040">
                                <set attributeName="fill" to="#808080" begin="zoomplus.mouseover" end="zoomplus.mouseout"/>
                        </use>
                        <path d="M-4,0h8M0,-4v8" fill="none" stroke="white" stroke-width="1.5" pointer-events="none"/>
                </g>
                <g id="zoomMin">
                        <use xlink:href="#rim" fill="#404040">
                                <set attributeName="fill" to="#808080" begin="zoomminus.mouseover" end="zoomminus.mouseout"/>
                        </use>
                        <path d="M-4,0h8" fill="none" stroke="white" stroke-width="1.5" pointer-events="none"/>
                </g>
                <g id="dirArrow">
                        <path fill="none" stroke="white" stroke-width="1.5" d="M0,-3.0v7 M-2.5,-0.5L0,-3.0L2.5,-0.5"/>
                </g>
               <g id="resetDef">
                       <use xlink:href="#rim2" fill="#404040">
                               <set attributeName="fill" to="#808080" begin="reset.mouseover" end="reset.mouseout"/>
                       </use>
               </g>
        </defs>

<script type="text/javascript">
var viewWidth = 1496;
var viewHeight = 441;
var sectionId = 'dynsection-0';
</script>
<script xlink:href="../../svgpan.js"/>
<svg id="graph" class="graph">
<g id="viewport">
<title>/home/travis/build/AliceO2Group/AliceO2/Detectors/ITSMFT/MFT/workflow/src/ClusterReaderSpec.cxx</title>
<!-- Node0 -->
<g id="node1" class="node">
<title>Node0</title>
<polygon fill="#bfbfbf" stroke="#000000" points="435,-380.5 435,-432.5 631,-432.5 631,-380.5 435,-380.5"/>
<text text-anchor="start" x="443" y="-420.5" font-family="Helvetica,sans-Serif" font-size="10.00" fill="#000000">/home/travis/build</text>
<text text-anchor="start" x="443" y="-409.5" font-family="Helvetica,sans-Serif" font-size="10.00" fill="#000000">/AliceO2Group/AliceO2</text>
<text text-anchor="start" x="443" y="-398.5" font-family="Helvetica,sans-Serif" font-size="10.00" fill="#000000">/Detectors/ITSMFT/MFT</text>
<text text-anchor="middle" x="533" y="-387.5" font-family="Helvetica,sans-Serif" font-size="10.00" fill="#000000">/workflow/src/ClusterReaderSpec.cxx</text>
</g>
<!-- Node1 -->
<g id="node2" class="node">
<title>Node1</title>
<polygon fill="none" stroke="#bfbfbf" points="248.5,-118 248.5,-137 295.5,-137 295.5,-118 248.5,-118"/>
<text text-anchor="middle" x="272" y="-125" font-family="Helvetica,sans-Serif" font-size="10.00" fill="#000000">vector</text>
</g>
<!-- Node0&#45;&gt;Node1 -->
<g id="edge1" class="edge">
<title>Node0&#45;&gt;Node1</title>
<path fill="none" stroke="#191970" d="M458.5863,-380.4064C388.8441,-351.2552 289.6992,-296.4636 251,-210 241.6121,-189.025 251.3745,-163.0956 260.488,-145.9674"/>
<polygon fill="#191970" stroke="#191970" points="263.69,-147.4195 265.6292,-137.0036 257.6178,-143.9367 263.69,-147.4195"/>
</g>
<!-- Node2 -->
<g id="node3" class="node">
<title>Node2</title>
<polygon fill="none" stroke="#bfbfbf" points="105,-313.5 105,-343.5 257,-343.5 257,-313.5 105,-313.5"/>
<text text-anchor="start" x="113" y="-331.5" font-family="Helvetica,sans-Serif" font-size="10.00" fill="#000000">MFTWorkflow/ClusterReader</text>
<text text-anchor="middle" x="181" y="-320.5" font-family="Helvetica,sans-Serif" font-size="10.00" fill="#000000">Spec.h</text>
</g>
<!-- Node0&#45;&gt;Node2 -->
<g id="edge2" class="edge">
<title>Node0&#45;&gt;Node2</title>
<path fill="none" stroke="#191970" d="M434.9484,-384.7727C379.2401,-372.4282 310.4751,-357.1905 258.5574,-345.686"/>
<polygon fill="#191970" stroke="#191970" points="259.2577,-342.2564 248.7373,-343.51 257.7432,-349.0906 259.2577,-342.2564"/>
</g>
<!-- Node3 -->
<g id="node4" class="node">
<title>Node3</title>
<polygon fill="none" stroke="#bfbfbf" points="275,-319 275,-338 327,-338 327,-319 275,-319"/>
<text text-anchor="middle" x="301" y="-326" font-family="Helvetica,sans-Serif" font-size="10.00" fill="#000000">TTree.h</text>
</g>
<!-- Node0&#45;&gt;Node3 -->
<g id="edge3" class="edge">
<title>Node0&#45;&gt;Node3</title>
<path fill="none" stroke="#191970" d="M449.4963,-380.4197C415.673,-369.5698 376.3341,-356.5862 341,-344 338.8909,-343.2487 336.7255,-342.4601 334.5462,-341.6534"/>
<polygon fill="#191970" stroke="#191970" points="335.6249,-338.3195 325.0333,-338.0592 333.1508,-344.8677 335.6249,-338.3195"/>
</g>
<!-- Node4 -->
<g id="node5" class="node">
<title>Node4</title>
<g id="a_node5"><a xlink:href="../../d2/d43/ControlService_8h.html" target="_top" xlink:title="Framework/ControlService.h">
<polygon fill="none" stroke="#000000" points="0,-252 0,-271 154,-271 154,-252 0,-252"/>
<text text-anchor="middle" x="77" y="-259" font-family="Helvetica,sans-Serif" font-size="10.00" fill="#000000">Framework/ControlService.h</text>
</a>
</g>
</g>
<!-- Node0&#45;&gt;Node4 -->
<g id="edge4" class="edge">
<title>Node0&#45;&gt;Node4</title>
<path fill="none" stroke="#191970" d="M434.7698,-398.3143C313.608,-387.3257 120.5462,-366.5596 96,-344 78.8025,-328.1944 75.6346,-300.22 75.7052,-281.2758"/>
<polygon fill="#191970" stroke="#191970" points="79.21,-281.1952 76.0551,-271.081 72.2141,-280.9551 79.21,-281.1952"/>
</g>
<!-- Node7 -->
<g id="node8" class="node">
<title>Node7</title>
<g id="a_node8"><a xlink:href="../../de/dc6/ConfigParamRegistry_8h.html" target="_top" xlink:title="Framework/ConfigParamRegistry.h">
<polygon fill="none" stroke="#000000" points="442,-319 442,-338 624,-338 624,-319 442,-319"/>
<text text-anchor="middle" x="533" y="-326" font-family="Helvetica,sans-Serif" font-size="10.00" fill="#000000">Framework/ConfigParamRegistry.h</text>
</a>
</g>
</g>
<!-- Node0&#45;&gt;Node7 -->
<g id="edge7" class="edge">
<title>Node0&#45;&gt;Node7</title>
<path fill="none" stroke="#191970" d="M533,-380.0928C533,-369.6735 533,-357.911 533,-348.2512"/>
<polygon fill="#191970" stroke="#191970" points="536.5001,-348.0838 533,-338.0839 529.5001,-348.0839 536.5001,-348.0838"/>
</g>
<!-- Node24 -->
<g id="node25" class="node">
<title>Node24</title>
<g id="a_node25"><a xlink:href="../../df/de4/CompCluster_8h.html" target="_top" xlink:title="Definition of the ITSMFT compact cluster. ">
<polygon fill="none" stroke="#000000" points="668,-252 668,-271 856,-271 856,-252 668,-252"/>
<text text-anchor="middle" x="762" y="-259" font-family="Helvetica,sans-Serif" font-size="10.00" fill="#000000">DataFormatsITSMFT/CompCluster.h</text>
</a>
</g>
</g>
<!-- Node0&#45;&gt;Node24 -->
<g id="edge32" class="edge">
<title>Node0&#45;&gt;Node24</title>
<path fill="none" stroke="#191970" d="M574.9036,-380.4448C592.8251,-369.2666 613.965,-356.0348 633,-344 669.8225,-320.7192 712.3631,-293.4377 738.2122,-276.8175"/>
<polygon fill="#191970" stroke="#191970" points="740.4222,-279.5575 746.9388,-271.2037 736.6351,-273.6704 740.4222,-279.5575"/>
</g>
<!-- Node26 -->
<g id="node27" class="node">
<title>Node26</title>
<g id="a_node27"><a xlink:href="../../d0/dc6/ITSMFT_2common_2include_2DataFormatsITSMFT_2ROFRecord_8h.html" target="_top" xlink:title="DataFormatsITSMFT/ROFRecord.h">
<polygon fill="none" stroke="#000000" points="874.5,-252 874.5,-271 1053.5,-271 1053.5,-252 874.5,-252"/>
<text text-anchor="middle" x="964" y="-259" font-family="Helvetica,sans-Serif" font-size="10.00" fill="#000000">DataFormatsITSMFT/ROFRecord.h</text>
</a>
</g>
</g>
<!-- Node0&#45;&gt;Node26 -->
<g id="edge34" class="edge">
<title>Node0&#45;&gt;Node26</title>
<path fill="none" stroke="#191970" d="M610.5519,-380.4094C703.4131,-349.1684 855.2304,-298.093 925.7588,-274.3654"/>
<polygon fill="#191970" stroke="#191970" points="927.1962,-277.5746 935.5581,-271.0686 924.9641,-270.94 927.1962,-277.5746"/>
</g>
<!-- Node33 -->
<g id="node34" class="node">
<title>Node33</title>
<g id="a_node34"><a xlink:href="../../d7/dcd/MCCompLabel_8h.html" target="_top" xlink:title="SimulationDataFormat\l/MCCompLabel.h">
<polygon fill="none" stroke="#000000" points="1034.5,-313.5 1034.5,-343.5 1161.5,-343.5 1161.5,-313.5 1034.5,-313.5"/>
<text text-anchor="start" x="1042.5" y="-331.5" font-family="Helvetica,sans-Serif" font-size="10.00" fill="#000000">SimulationDataFormat</text>
<text text-anchor="middle" x="1098" y="-320.5" font-family="Helvetica,sans-Serif" font-size="10.00" fill="#000000">/MCCompLabel.h</text>
</a>
</g>
</g>
<!-- Node0&#45;&gt;Node33 -->
<g id="edge45" class="edge">
<title>Node0&#45;&gt;Node33</title>
<path fill="none" stroke="#191970" d="M631.0928,-392.958C743.0625,-377.5002 923.6735,-352.5663 1024.2925,-338.6755"/>
<polygon fill="#191970" stroke="#191970" points="1024.9429,-342.119 1034.3703,-337.2843 1023.9856,-335.1848 1024.9429,-342.119"/>
</g>
<!-- Node34 -->
<g id="node35" class="node">
<title>Node34</title>
<g id="a_node35"><a xlink:href="../../db/d14/MCTruthContainer_8h.html" target="_top" xlink:title="Definition of a container to keep Monte Carlo truth external to simulation objects. ">
<polygon fill="none" stroke="#000000" points="1277.5,-179.5 1277.5,-209.5 1404.5,-209.5 1404.5,-179.5 1277.5,-179.5"/>
<text text-anchor="start" x="1285.5" y="-197.5" font-family="Helvetica,sans-Serif" font-size="10.00" fill="#000000">SimulationDataFormat</text>
<text text-anchor="middle" x="1341" y="-186.5" font-family="Helvetica,sans-Serif" font-size="10.00" fill="#000000">/MCTruthContainer.h</text>
</a>
</g>
</g>
<!-- Node0&#45;&gt;Node34 -->
<g id="edge47" class="edge">
<title>Node0&#45;&gt;Node34</title>
<path fill="none" stroke="#191970" d="M631.211,-404.2024C785.4335,-399.3746 1076.5641,-384.9872 1171,-344 1236.4767,-315.5817 1294.6086,-252.2458 1322.8645,-217.8362"/>
<polygon fill="#191970" stroke="#191970" points="1325.8338,-219.73 1329.3908,-209.7501 1320.3866,-215.3336 1325.8338,-219.73"/>
</g>
<!-- Node5 -->
<g id="node6" class="node">
<title>Node5</title>
<g id="a_node6"><a xlink:href="../../d3/d28/ServiceHandle_8h.html" target="_top" xlink:title="Framework/ServiceHandle.h">
<polygon fill="none" stroke="#000000" points=".5,-56.5 .5,-75.5 153.5,-75.5 153.5,-56.5 .5,-56.5"/>
<text text-anchor="middle" x="77" y="-63.5" font-family="Helvetica,sans-Serif" font-size="10.00" fill="#000000">Framework/ServiceHandle.h</text>
</a>
</g>
</g>
<!-- Node4&#45;&gt;Node5 -->
<g id="edge5" class="edge">
<title>Node4&#45;&gt;Node5</title>
<path fill="none" stroke="#191970" d="M77,-251.8051C77,-221.3813 77,-127.3666 77,-85.9452"/>
<polygon fill="#191970" stroke="#191970" points="80.5001,-85.7534 77,-75.7534 73.5001,-85.7534 80.5001,-85.7534"/>
</g>
<!-- Node6 -->
<g id="node7" class="node">
<title>Node6</title>
<polygon fill="none" stroke="#bfbfbf" points="198,-.5 198,-19.5 242,-19.5 242,-.5 198,-.5"/>
<text text-anchor="middle" x="220" y="-7.5" font-family="Helvetica,sans-Serif" font-size="10.00" fill="#000000">string</text>
</g>
<!-- Node5&#45;&gt;Node6 -->
<g id="edge6" class="edge">
<title>Node5&#45;&gt;Node6</title>
<path fill="none" stroke="#191970" d="M101.5826,-56.3733C125.516,-47.0007 162.0066,-32.7107 188.152,-22.472"/>
<polygon fill="#191970" stroke="#191970" points="189.583,-25.6704 197.6182,-18.7649 187.0304,-19.1524 189.583,-25.6704"/>
</g>
<!-- Node7&#45;&gt;Node6 -->
<g id="edge30" class="edge">
<title>Node7&#45;&gt;Node6</title>
<path fill="none" stroke="#191970" d="M458.4969,-318.9349C417.6351,-311.5299 367.0844,-298.7286 326,-277 286.4885,-256.1033 277.3812,-246.0813 251,-210 209.3909,-153.0916 207.682,-126.2965 213,-56 213.6536,-47.361 214.9881,-37.8868 216.3183,-29.7935"/>
<polygon fill="#191970" stroke="#191970" points="219.7872,-30.2753 218.0653,-19.8213 212.8922,-29.0674 219.7872,-30.2753"/>
</g>
<!-- Node8 -->
<g id="node9" class="node">
<title>Node8</title>
<g id="a_node9"><a xlink:href="../../df/d72/ParamRetriever_8h.html" target="_top" xlink:title="Framework/ParamRetriever.h">
<polygon fill="none" stroke="#000000" points="260.5,-185 260.5,-204 417.5,-204 417.5,-185 260.5,-185"/>
<text text-anchor="middle" x="339" y="-192" font-family="Helvetica,sans-Serif" font-size="10.00" fill="#000000">Framework/ParamRetriever.h</text>
</a>
</g>
</g>
<!-- Node7&#45;&gt;Node8 -->
<g id="edge8" class="edge">
<title>Node7&#45;&gt;Node8</title>
<path fill="none" stroke="#191970" d="M462.8765,-318.9727C413.7676,-310.6964 354.2969,-296.8874 339,-277 325.2679,-259.1469 328.4063,-232.0974 332.8706,-213.8861"/>
<polygon fill="#191970" stroke="#191970" points="336.2887,-214.6587 335.6085,-204.0858 329.5469,-212.7752 336.2887,-214.6587"/>
</g>
<!-- Node20 -->
<g id="node21" class="node">
<title>Node20</title>
<g id="a_node21"><a xlink:href="../../dd/daf/ConfigParamStore_8h.html" target="_top" xlink:title="Framework/ConfigParamStore.h">
<polygon fill="none" stroke="#000000" points="348,-252 348,-271 518,-271 518,-252 348,-252"/>
<text text-anchor="middle" x="433" y="-259" font-family="Helvetica,sans-Serif" font-size="10.00" fill="#000000">Framework/ConfigParamStore.h</text>
</a>
</g>
</g>
<!-- Node7&#45;&gt;Node20 -->
<g id="edge24" class="edge">
<title>Node7&#45;&gt;Node20</title>
<path fill="none" stroke="#191970" d="M518.6724,-318.9005C502.2615,-307.9052 475.1525,-289.7422 455.8249,-276.7927"/>
<polygon fill="#191970" stroke="#191970" points="457.5569,-273.7402 447.301,-271.0817 453.6605,-279.5556 457.5569,-273.7402"/>
</g>
<!-- Node21 -->
<g id="node22" class="node">
<title>Node21</title>
<polygon fill="none" stroke="#bfbfbf" points="536.5,-246.5 536.5,-276.5 649.5,-276.5 649.5,-246.5 536.5,-246.5"/>
<text text-anchor="start" x="544.5" y="-264.5" font-family="Helvetica,sans-Serif" font-size="10.00" fill="#000000">boost/property_tree</text>
<text text-anchor="middle" x="593" y="-253.5" font-family="Helvetica,sans-Serif" font-size="10.00" fill="#000000">/ptree.hpp</text>
</g>
<!-- Node7&#45;&gt;Node21 -->
<g id="edge28" class="edge">
<title>Node7&#45;&gt;Node21</title>
<path fill="none" stroke="#191970" d="M541.5965,-318.9005C549.6528,-309.9043 562.006,-296.1099 572.5833,-284.2986"/>
<polygon fill="#191970" stroke="#191970" points="575.4838,-286.3062 579.5477,-276.5218 570.2691,-281.6364 575.4838,-286.3062"/>
</g>
<!-- Node22 -->
<g id="node23" class="node">
<title>Node22</title>
<polygon fill="none" stroke="#bfbfbf" points="1161,-118 1161,-137 1219,-137 1219,-118 1161,-118"/>
<text text-anchor="middle" x="1190" y="-125" font-family="Helvetica,sans-Serif" font-size="10.00" fill="#000000">memory</text>
</g>
<!-- Node7&#45;&gt;Node22 -->
<g id="edge29" class="edge">
<title>Node7&#45;&gt;Node22</title>
<path fill="none" stroke="#191970" d="M624.0443,-325.4795C753.8814,-320.1853 985.1392,-306.82 1063,-277 1109.902,-259.0369 1122.6621,-249.248 1154,-210 1169.1807,-190.9875 1179.2116,-164.5873 1184.7419,-146.817"/>
<polygon fill="#191970" stroke="#191970" points="1188.162,-147.5912 1187.6095,-137.0108 1181.4434,-145.6265 1188.162,-147.5912"/>
</g>
<!-- Node23 -->
<g id="node24" class="node">
<title>Node23</title>
<polygon fill="none" stroke="#bfbfbf" points="1237,-118 1237,-137 1289,-137 1289,-118 1237,-118"/>
<text text-anchor="middle" x="1263" y="-125" font-family="Helvetica,sans-Serif" font-size="10.00" fill="#000000">cassert</text>
</g>
<!-- Node7&#45;&gt;Node23 -->
<g id="edge31" class="edge">
<title>Node7&#45;&gt;Node23</title>
<path fill="none" stroke="#191970" d="M624.1759,-323.5361C774.5474,-314.867 1062.2601,-296.0669 1105,-277 1171.1997,-247.4674 1226.9557,-178.1702 1250.7106,-145.3447"/>
<polygon fill="#191970" stroke="#191970" points="1253.6156,-147.2988 1256.5442,-137.1167 1247.9052,-143.2501 1253.6156,-147.2988"/>
</g>
<!-- Node8&#45;&gt;Node1 -->
<g id="edge23" class="edge">
<title>Node8&#45;&gt;Node1</title>
<path fill="none" stroke="#191970" d="M329.4005,-184.9005C318.853,-174.353 301.7096,-157.2096 288.8998,-144.3998"/>
<polygon fill="#191970" stroke="#191970" points="291.1276,-141.6779 281.5817,-137.0817 286.1779,-146.6276 291.1276,-141.6779"/>
</g>
<!-- Node8&#45;&gt;Node6 -->
<g id="edge22" class="edge">
<title>Node8&#45;&gt;Node6</title>
<path fill="none" stroke="#191970" d="M302.3583,-184.9125C280.4634,-177.2341 254.0604,-164.1601 239,-143 214.8688,-109.0953 215.1449,-57.8476 217.5286,-29.8997"/>
<polygon fill="#191970" stroke="#191970" points="221.0276,-30.0883 218.5755,-19.7812 214.0648,-29.3678 221.0276,-30.0883"/>
</g>
<!-- Node9 -->
<g id="node10" class="node">
<title>Node9</title>
<g id="a_node10"><a xlink:href="../../d0/d1c/ConfigParamSpec_8h.html" target="_top" xlink:title="Framework/ConfigParamSpec.h">
<polygon fill="none" stroke="#000000" points="444.5,-118 444.5,-137 611.5,-137 611.5,-118 444.5,-118"/>
<text text-anchor="middle" x="528" y="-125" font-family="Helvetica,sans-Serif" font-size="10.00" fill="#000000">Framework/ConfigParamSpec.h</text>
</a>
</g>
</g>
<!-- Node8&#45;&gt;Node9 -->
<g id="edge9" class="edge">
<title>Node8&#45;&gt;Node9</title>
<path fill="none" stroke="#191970" d="M366.0791,-184.9005C398.9203,-173.2584 454.4296,-153.5805 491.1475,-140.5641"/>
<polygon fill="#191970" stroke="#191970" points="492.7153,-143.7218 500.9711,-137.0817 490.3764,-137.1241 492.7153,-143.7218"/>
</g>
<!-- Node19 -->
<g id="node20" class="node">
<title>Node19</title>
<polygon fill="none" stroke="#bfbfbf" points="313.5,-112.5 313.5,-142.5 426.5,-142.5 426.5,-112.5 313.5,-112.5"/>
<text text-anchor="start" x="321.5" y="-130.5" font-family="Helvetica,sans-Serif" font-size="10.00" fill="#000000">boost/property_tree</text>
<text text-anchor="middle" x="370" y="-119.5" font-family="Helvetica,sans-Serif" font-size="10.00" fill="#000000">/ptree_fwd.hpp</text>
</g>
<!-- Node8&#45;&gt;Node19 -->
<g id="edge21" class="edge">
<title>Node8&#45;&gt;Node19</title>
<path fill="none" stroke="#191970" d="M343.4415,-184.9005C347.4439,-176.2503 353.4988,-163.164 358.8169,-151.6699"/>
<polygon fill="#191970" stroke="#191970" points="362.0269,-153.0671 363.0496,-142.5218 355.6739,-150.1277 362.0269,-153.0671"/>
</g>
<!-- Node9&#45;&gt;Node6 -->
<g id="edge20" class="edge">
<title>Node9&#45;&gt;Node6</title>
<path fill="none" stroke="#191970" d="M503.056,-117.984C447.4357,-96.7652 313.3263,-45.6034 251.808,-22.1345"/>
<polygon fill="#191970" stroke="#191970" points="252.8255,-18.7767 242.2348,-18.4824 250.3304,-25.317 252.8255,-18.7767"/>
</g>
<!-- Node10 -->
<g id="node11" class="node">
<title>Node10</title>
<g id="a_node11"><a xlink:href="../../de/d56/Variant_8h.html" target="_top" xlink:title="Framework/Variant.h">
<polygon fill="none" stroke="#000000" points="531.5,-56.5 531.5,-75.5 648.5,-75.5 648.5,-56.5 531.5,-56.5"/>
<text text-anchor="middle" x="590" y="-63.5" font-family="Helvetica,sans-Serif" font-size="10.00" fill="#000000">Framework/Variant.h</text>
</a>
</g>
</g>
<!-- Node9&#45;&gt;Node10 -->
<g id="edge10" class="edge">
<title>Node9&#45;&gt;Node10</title>
<path fill="none" stroke="#191970" d="M537.6875,-117.8906C547.0959,-108.5581 561.5807,-94.1902 572.9249,-82.9374"/>
<polygon fill="#191970" stroke="#191970" points="575.5411,-85.2722 580.1759,-75.7449 570.6114,-80.3024 575.5411,-85.2722"/>
</g>
<!-- Node10&#45;&gt;Node6 -->
<g id="edge19" class="edge">
<title>Node10&#45;&gt;Node6</title>
<path fill="none" stroke="#191970" d="M531.3724,-57.1266C452.3958,-45.1734 314.5617,-24.312 252.2351,-14.8788"/>
<polygon fill="#191970" stroke="#191970" points="252.6134,-11.3963 242.2023,-13.3603 251.5659,-18.3175 252.6134,-11.3963"/>
</g>
<!-- Node11 -->
<g id="node12" class="node">
<title>Node11</title>
<polygon fill="none" stroke="#bfbfbf" points="798.5,-.5 798.5,-19.5 867.5,-19.5 867.5,-.5 798.5,-.5"/>
<text text-anchor="middle" x="833" y="-7.5" font-family="Helvetica,sans-Serif" font-size="10.00" fill="#000000">type_traits</text>
</g>
<!-- Node10&#45;&gt;Node11 -->
<g id="edge11" class="edge">
<title>Node10&#45;&gt;Node11</title>
<path fill="none" stroke="#191970" d="M631.4971,-56.4369C675.1352,-46.3804 743.5591,-30.6119 788.3485,-20.2901"/>
<polygon fill="#191970" stroke="#191970" points="789.4034,-23.6388 798.362,-17.9824 787.8314,-16.8175 789.4034,-23.6388"/>
</g>
<!-- Node12 -->
<g id="node13" class="node">
<title>Node12</title>
<polygon fill="none" stroke="#bfbfbf" points="1214,-.5 1214,-19.5 1264,-19.5 1264,-.5 1214,-.5"/>
<text text-anchor="middle" x="1239" y="-7.5" font-family="Helvetica,sans-Serif" font-size="10.00" fill="#000000">cstring</text>
</g>
<!-- Node10&#45;&gt;Node12 -->
<g id="edge12" class="edge">
<title>Node10&#45;&gt;Node12</title>
<path fill="none" stroke="#191970" d="M648.7391,-60.9316C780.7178,-49.5436 1097.4741,-22.2118 1203.6388,-13.0512"/>
<polygon fill="#191970" stroke="#191970" points="1204.1538,-16.5199 1213.8158,-12.1731 1203.5519,-9.5458 1204.1538,-16.5199"/>
</g>
<!-- Node13 -->
<g id="node14" class="node">
<title>Node13</title>
<polygon fill="none" stroke="#bfbfbf" points="964,-.5 964,-19.5 1014,-19.5 1014,-.5 964,-.5"/>
<text text-anchor="middle" x="989" y="-7.5" font-family="Helvetica,sans-Serif" font-size="10.00" fill="#000000">cstdint</text>
</g>
<!-- Node10&#45;&gt;Node13 -->
<g id="edge13" class="edge">
<title>Node10&#45;&gt;Node13</title>
<path fill="none" stroke="#191970" d="M648.8738,-57.737C732.8265,-45.9542 884.3787,-24.6837 953.2308,-15.0202"/>
<polygon fill="#191970" stroke="#191970" points="954.1316,-18.4282 963.5481,-13.5722 953.1586,-11.4961 954.1316,-18.4282"/>
</g>
<!-- Node14 -->
<g id="node15" class="node">
<title>Node14</title>
<polygon fill="none" stroke="#bfbfbf" points="393.5,-.5 393.5,-19.5 442.5,-19.5 442.5,-.5 393.5,-.5"/>
<text text-anchor="middle" x="418" y="-7.5" font-family="Helvetica,sans-Serif" font-size="10.00" fill="#000000">cstdlib</text>
</g>
<!-- Node10&#45;&gt;Node14 -->
<g id="edge14" class="edge">
<title>Node10&#45;&gt;Node14</title>
<path fill="none" stroke="#191970" d="M560.4321,-56.3733C530.4444,-46.6098 484.067,-31.5102 452.4389,-21.2127"/>
<polygon fill="#191970" stroke="#191970" points="453.3201,-17.8188 442.7278,-18.0509 451.1529,-24.4749 453.3201,-17.8188"/>
</g>
<!-- Node15 -->
<g id="node16" class="node">
<title>Node15</title>
<polygon fill="none" stroke="#bfbfbf" points="1373.5,-.5 1373.5,-19.5 1438.5,-19.5 1438.5,-.5 1373.5,-.5"/>
<text text-anchor="middle" x="1406" y="-7.5" font-family="Helvetica,sans-Serif" font-size="10.00" fill="#000000">stdexcept</text>
</g>
<!-- Node10&#45;&gt;Node15 -->
<g id="edge15" class="edge">
<title>Node10&#45;&gt;Node15</title>
<path fill="none" stroke="#191970" d="M648.9375,-62.1859C767.2557,-54.4947 1042.1349,-36.4533 1273,-20 1303.1455,-17.8516 1337.1234,-15.2945 1363.1902,-13.304"/>
<polygon fill="#191970" stroke="#191970" points="1363.7796,-16.7692 1373.4832,-12.516 1363.2452,-9.7896 1363.7796,-16.7692"/>
</g>
<!-- Node16 -->
<g id="node17" class="node">
<title>Node16</title>
<polygon fill="none" stroke="#bfbfbf" points="652.5,-.5 652.5,-19.5 701.5,-19.5 701.5,-.5 652.5,-.5"/>
<text text-anchor="middle" x="677" y="-7.5" font-family="Helvetica,sans-Serif" font-size="10.00" fill="#000000">iosfwd</text>
</g>
<!-- Node10&#45;&gt;Node16 -->
<g id="edge16" class="edge">
<title>Node10&#45;&gt;Node16</title>
<path fill="none" stroke="#191970" d="M605.1542,-56.2455C618.5027,-47.6534 638.1586,-35.0014 653.5383,-25.1018"/>
<polygon fill="#191970" stroke="#191970" points="655.5051,-27.9982 662.0194,-19.6427 651.7164,-22.1121 655.5051,-27.9982"/>
</g>
<!-- Node17 -->
<g id="node18" class="node">
<title>Node17</title>
<polygon fill="none" stroke="#bfbfbf" points="460.5,-.5 460.5,-19.5 543.5,-19.5 543.5,-.5 460.5,-.5"/>
<text text-anchor="middle" x="502" y="-7.5" font-family="Helvetica,sans-Serif" font-size="10.00" fill="#000000">initializer_list</text>
</g>
<!-- Node10&#45;&gt;Node17 -->
<g id="edge17" class="edge">
<title>Node10&#45;&gt;Node17</title>
<path fill="none" stroke="#191970" d="M574.6716,-56.2455C561.1697,-47.6534 541.2878,-35.0014 525.7314,-25.1018"/>
<polygon fill="#191970" stroke="#191970" points="527.4685,-22.0587 517.1528,-19.6427 523.7103,-27.9643 527.4685,-22.0587"/>
</g>
<!-- Node18 -->
<g id="node19" class="node">
<title>Node18</title>
<polygon fill="none" stroke="#bfbfbf" points="561.5,-.5 561.5,-19.5 634.5,-19.5 634.5,-.5 561.5,-.5"/>
<text text-anchor="middle" x="598" y="-7.5" font-family="Helvetica,sans-Serif" font-size="10.00" fill="#000000">string_view</text>
</g>
<!-- Node10&#45;&gt;Node18 -->
<g id="edge18" class="edge">
<title>Node10&#45;&gt;Node18</title>
<path fill="none" stroke="#191970" d="M591.3935,-56.2455C592.4374,-48.9382 593.9008,-38.6944 595.1851,-29.7046"/>
<polygon fill="#191970" stroke="#191970" points="598.673,-30.0372 596.6225,-19.6427 591.7434,-29.0472 598.673,-30.0372"/>
</g>
<!-- Node20&#45;&gt;Node8 -->
<g id="edge25" class="edge">
<title>Node20&#45;&gt;Node8</title>
<path fill="none" stroke="#191970" d="M419.5321,-251.9005C404.1756,-240.9549 378.8537,-222.9064 360.7024,-209.9688"/>
<polygon fill="#191970" stroke="#191970" points="362.6176,-207.0358 352.4429,-204.0817 358.5546,-212.736 362.6176,-207.0358"/>
</g>
<!-- Node20&#45;&gt;Node9 -->
<g id="edge26" class="edge">
<title>Node20&#45;&gt;Node9</title>
<path fill="none" stroke="#191970" d="M439.8322,-251.8631C455.6486,-229.5535 494.9808,-174.0744 515.3401,-145.3571"/>
<polygon fill="#191970" stroke="#191970" points="518.3014,-147.2318 521.2297,-137.0496 512.5909,-143.1832 518.3014,-147.2318"/>
</g>
<!-- Node20&#45;&gt;Node19 -->
<g id="edge27" class="edge">
<title>Node20&#45;&gt;Node19</title>
<path fill="none" stroke="#191970" d="M434.3566,-251.7527C436.1332,-235.679 437.7722,-203.0052 426,-179 420.3206,-167.4188 410.8251,-157.1791 401.2515,-148.9427"/>
<polygon fill="#191970" stroke="#191970" points="403.255,-146.0621 393.2734,-142.5099 398.8611,-151.5114 403.255,-146.0621"/>
</g>
<!-- Node25 -->
<g id="node26" class="node">
<title>Node25</title>
<polygon fill="none" stroke="#bfbfbf" points="784.5,-56.5 784.5,-75.5 843.5,-75.5 843.5,-56.5 784.5,-56.5"/>
<text text-anchor="middle" x="814" y="-63.5" font-family="Helvetica,sans-Serif" font-size="10.00" fill="#000000">Rtypes.h</text>
</g>
<!-- Node24&#45;&gt;Node25 -->
<g id="edge33" class="edge">
<title>Node24&#45;&gt;Node25</title>
<path fill="none" stroke="#191970" d="M719.4045,-251.9215C696.9929,-244.4837 671.4412,-231.6549 658,-210 650.734,-198.2939 654.4851,-192.3219 658,-179 666.7334,-145.899 670.112,-134.4 696,-112 718.3593,-92.6533 749.7876,-80.9391 774.5878,-74.1772"/>
<polygon fill="#191970" stroke="#191970" points="775.6021,-77.5305 784.42,-71.6573 773.8642,-70.7496 775.6021,-77.5305"/>
</g>
<!-- Node27 -->
<g id="node28" class="node">
<title>Node27</title>
<g id="a_node28"><a xlink:href="../../de/d64/RangeReference_8h.html" target="_top" xlink:title="Class to refer to the 1st entry and N elements of some group in the continuous container. ">
<polygon fill="none" stroke="#000000" points="859,-185 859,-204 1069,-204 1069,-185 859,-185"/>
<text text-anchor="middle" x="964" y="-192" font-family="Helvetica,sans-Serif" font-size="10.00" fill="#000000">CommonDataFormat/RangeReference.h</text>
</a>
</g>
</g>
<!-- Node26&#45;&gt;Node27 -->
<g id="edge35" class="edge">
<title>Node26&#45;&gt;Node27</title>
<path fill="none" stroke="#191970" d="M964,-251.9005C964,-242.149 964,-226.7597 964,-214.3695"/>
<polygon fill="#191970" stroke="#191970" points="967.5001,-214.0816 964,-204.0817 960.5001,-214.0817 967.5001,-214.0816"/>
</g>
<!-- Node29 -->
<g id="node30" class="node">
<title>Node29</title>
<g id="a_node30"><a xlink:href="../../d9/d80/InteractionRecord_8h.html" target="_top" xlink:title="CommonDataFormat/Interaction\lRecord.h">
<polygon fill="none" stroke="#000000" points="667,-179.5 667,-209.5 841,-209.5 841,-179.5 667,-179.5"/>
<text text-anchor="start" x="675" y="-197.5" font-family="Helvetica,sans-Serif" font-size="10.00" fill="#000000">CommonDataFormat/Interaction</text>
<text text-anchor="middle" x="754" y="-186.5" font-family="Helvetica,sans-Serif" font-size="10.00" fill="#000000">Record.h</text>
</a>
</g>
</g>
<!-- Node26&#45;&gt;Node29 -->
<g id="edge38" class="edge">
<title>Node26&#45;&gt;Node29</title>
<path fill="none" stroke="#191970" d="M933.9121,-251.9005C901.8516,-241.6717 850.3482,-225.2397 810.6457,-212.5727"/>
<polygon fill="#191970" stroke="#191970" points="811.6739,-209.227 801.0831,-209.5218 809.5462,-215.8958 811.6739,-209.227"/>
</g>
<!-- Node32 -->
<g id="node33" class="node">
<title>Node32</title>
<polygon fill="none" stroke="#bfbfbf" points="1087.5,-185 1087.5,-204 1144.5,-204 1144.5,-185 1087.5,-185"/>
<text text-anchor="middle" x="1116" y="-192" font-family="Helvetica,sans-Serif" font-size="10.00" fill="#000000">gsl/span</text>
</g>
<!-- Node26&#45;&gt;Node32 -->
<g id="edge44" class="edge">
<title>Node26&#45;&gt;Node32</title>
<path fill="none" stroke="#191970" d="M985.7779,-251.9005C1011.7384,-240.4574 1055.3113,-221.2509 1084.8346,-208.2374"/>
<polygon fill="#191970" stroke="#191970" points="1086.5237,-211.3178 1094.2625,-204.0817 1083.7003,-204.9125 1086.5237,-211.3178"/>
</g>
<!-- Node28 -->
<g id="node29" class="node">
<title>Node28</title>
<g id="a_node29"><a xlink:href="../../d2/d45/GPUCommonRtypes_8h.html" target="_top" xlink:title="GPUCommonRtypes.h">
<polygon fill="none" stroke="#000000" points="1017.5,-118 1017.5,-137 1142.5,-137 1142.5,-118 1017.5,-118"/>
<text text-anchor="middle" x="1080" y="-125" font-family="Helvetica,sans-Serif" font-size="10.00" fill="#000000">GPUCommonRtypes.h</text>
</a>
</g>
</g>
<!-- Node27&#45;&gt;Node28 -->
<g id="edge36" class="edge">
<title>Node27&#45;&gt;Node28</title>
<path fill="none" stroke="#191970" d="M980.62,-184.9005C1000.0012,-173.7062 1032.2455,-155.0823 1054.7315,-142.0947"/>
<polygon fill="#191970" stroke="#191970" points="1056.502,-145.114 1063.4109,-137.0817 1053.0009,-139.0525 1056.502,-145.114"/>
</g>
<!-- Node28&#45;&gt;Node25 -->
<g id="edge37" class="edge">
<title>Node28&#45;&gt;Node25</title>
<path fill="none" stroke="#191970" d="M1038.7294,-117.9581C988.2165,-106.2794 903.2851,-86.643 853.563,-75.1471"/>
<polygon fill="#191970" stroke="#191970" points="854.342,-71.7349 843.8106,-72.8923 852.7651,-78.555 854.342,-71.7349"/>
</g>
<!-- Node29&#45;&gt;Node13 -->
<g id="edge42" class="edge">
<title>Node29&#45;&gt;Node13</title>
<path fill="none" stroke="#191970" d="M836.1892,-179.4998C893.2407,-168.3203 960.6327,-153.2729 970,-143 998.442,-111.8082 996.1659,-58.2493 992.3892,-29.5362"/>
<polygon fill="#191970" stroke="#191970" points="995.8312,-28.8892 990.8742,-19.5256 988.91,-29.9367 995.8312,-28.8892"/>
</g>
<!-- Node29&#45;&gt;Node16 -->
<g id="edge40" class="edge">
<title>Node29&#45;&gt;Node16</title>
<path fill="none" stroke="#191970" d="M730.2422,-179.4915C717.9858,-170.4518 703.9707,-157.8258 696,-143 676.4781,-106.6887 674.856,-57.118 675.7226,-29.9066"/>
<polygon fill="#191970" stroke="#191970" points="679.2281,-29.8707 676.2014,-19.7174 672.2358,-29.542 679.2281,-29.8707"/>
</g>
<!-- Node29&#45;&gt;Node28 -->
<g id="edge39" class="edge">
<title>Node29&#45;&gt;Node28</title>
<path fill="none" stroke="#191970" d="M827.1608,-179.4639C886.7175,-167.2237 969.5447,-150.2009 1023.9371,-139.0221"/>
<polygon fill="#191970" stroke="#191970" points="1024.6598,-142.4468 1033.7504,-137.0053 1023.2505,-135.5902 1024.6598,-142.4468"/>
</g>
<!-- Node30 -->
<g id="node31" class="node">
<title>Node30</title>
<polygon fill="none" stroke="#bfbfbf" points="705.5,-118 705.5,-137 752.5,-137 752.5,-118 705.5,-118"/>
<text text-anchor="middle" x="729" y="-125" font-family="Helvetica,sans-Serif" font-size="10.00" fill="#000000">cmath</text>
</g>
<!-- Node29&#45;&gt;Node30 -->
<g id="edge41" class="edge">
<title>Node29&#45;&gt;Node30</title>
<path fill="none" stroke="#191970" d="M748.3271,-179.2967C744.6967,-169.5672 739.958,-156.8675 736.0815,-146.4784"/>
<polygon fill="#191970" stroke="#191970" points="739.3404,-145.2004 732.5653,-137.055 732.7821,-147.6476 739.3404,-145.2004"/>
</g>
<!-- Node31 -->
<g id="node32" class="node">
<title>Node31</title>
<g id="a_node32"><a xlink:href="../../d4/dc6/LHCConstants_8h.html" target="_top" xlink:title="Header to collect LHC related constants. ">
<polygon fill="none" stroke="#000000" points="771,-118 771,-137 961,-137 961,-118 771,-118"/>
<text text-anchor="middle" x="866" y="-125" font-family="Helvetica,sans-Serif" font-size="10.00" fill="#000000">CommonConstants/LHCConstants.h</text>
</a>
</g>
</g>
<!-- Node29&#45;&gt;Node31 -->
<g id="edge43" class="edge">
<title>Node29&#45;&gt;Node31</title>
<path fill="none" stroke="#191970" d="M779.135,-179.4639C797.6732,-168.3741 822.774,-153.3584 841.2262,-142.32"/>
<polygon fill="#191970" stroke="#191970" points="843.1608,-145.2412 849.9457,-137.1039 839.5672,-139.2341 843.1608,-145.2412"/>
</g>
<!-- Node33&#45;&gt;Node28 -->
<g id="edge46" class="edge">
<title>Node33&#45;&gt;Node28</title>
<path fill="none" stroke="#191970" d="M1112.1092,-313.1203C1135.7252,-285.418 1178.3828,-225.6755 1154,-179 1145.4176,-162.571 1128.9405,-150.3213 1113.7091,-141.9"/>
<polygon fill="#191970" stroke="#191970" points="1114.9619,-138.6086 1104.4681,-137.1482 1111.7607,-144.8338 1114.9619,-138.6086"/>
</g>
<!-- Node34&#45;&gt;Node1 -->
<g id="edge56" class="edge">
<title>Node34&#45;&gt;Node1</title>
<path fill="none" stroke="#191970" d="M1277.4304,-188.5901C1241.2716,-185.3893 1195.1289,-181.5745 1154,-179 965.3111,-167.1891 487.3343,-189.1688 304,-143 302.0246,-142.5025 300.0267,-141.8758 298.045,-141.1613"/>
<polygon fill="#191970" stroke="#191970" points="299.0203,-137.7715 288.45,-137.0506 296.2637,-144.2059 299.0203,-137.7715"/>
</g>
<!-- Node34&#45;&gt;Node11 -->
<g id="edge53" class="edge">
<title>Node34&#45;&gt;Node11</title>
<path fill="none" stroke="#191970" d="M1337.3689,-179.4614C1332.027,-160.6865 1320.1915,-128.9799 1298,-112 1231.7647,-61.3198 980.9642,-27.1542 877.7697,-14.9624"/>
<polygon fill="#191970" stroke="#191970" points="878.0115,-11.467 867.6732,-13.7843 877.2002,-18.4198 878.0115,-11.467"/>
</g>
<!-- Node34&#45;&gt;Node12 -->
<g id="edge54" class="edge">
<title>Node34&#45;&gt;Node12</title>
<path fill="none" stroke="#191970" d="M1390.1379,-179.4302C1407.4391,-171.4949 1425.0419,-159.8105 1435,-143 1454.707,-109.7322 1459.0156,-86.3045 1435,-56 1415.3409,-31.1929 1325.393,-18.4624 1274.4536,-13.1374"/>
<polygon fill="#191970" stroke="#191970" points="1274.5142,-9.626 1264.2151,-12.1118 1273.8164,-16.5912 1274.5142,-9.626"/>
</g>
<!-- Node34&#45;&gt;Node13 -->
<g id="edge49" class="edge">
<title>Node34&#45;&gt;Node13</title>
<path fill="none" stroke="#191970" d="M1365.5128,-179.4096C1389.5421,-162.7237 1420.1208,-135.1406 1402,-112 1355.024,-52.0108 1115.4858,-22.4622 1024.3032,-13.2544"/>
<polygon fill="#191970" stroke="#191970" points="1024.4868,-9.7556 1014.1912,-12.2557 1023.7988,-16.7217 1024.4868,-9.7556"/>
</g>
<!-- Node34&#45;&gt;Node15 -->
<g id="edge51" class="edge">
<title>Node34&#45;&gt;Node15</title>
<path fill="none" stroke="#191970" d="M1397.4605,-179.3919C1429.0323,-169.6785 1463.8408,-156.4051 1473,-143 1494.8138,-111.074 1491.0121,-90.2152 1473,-56 1465.8071,-42.3365 1452.5198,-31.9486 1439.6633,-24.5328"/>
<polygon fill="#191970" stroke="#191970" points="1440.945,-21.2506 1430.4712,-19.6538 1437.6632,-27.4336 1440.945,-21.2506"/>
</g>
<!-- Node34&#45;&gt;Node22 -->
<g id="edge55" class="edge">
<title>Node34&#45;&gt;Node22</title>
<path fill="none" stroke="#191970" d="M1307.1127,-179.4639C1281.3203,-168.0196 1246.1055,-152.3945 1221.0429,-141.274"/>
<polygon fill="#191970" stroke="#191970" points="1222.2048,-137.9605 1211.6447,-137.1039 1219.3657,-144.359 1222.2048,-137.9605"/>
</g>
<!-- Node34&#45;&gt;Node23 -->
<g id="edge50" class="edge">
<title>Node34&#45;&gt;Node23</title>
<path fill="none" stroke="#191970" d="M1323.3006,-179.2967C1310.9119,-168.6551 1294.3865,-154.4602 1281.7685,-143.6217"/>
<polygon fill="#191970" stroke="#191970" points="1283.99,-140.9159 1274.1237,-137.055 1279.4288,-146.2259 1283.99,-140.9159"/>
</g>
<!-- Node34&#45;&gt;Node28 -->
<g id="edge48" class="edge">
<title>Node34&#45;&gt;Node28</title>
<path fill="none" stroke="#191970" d="M1282.4265,-179.4639C1235.437,-167.4015 1170.3542,-150.6944 1126.7963,-139.5128"/>
<polygon fill="#191970" stroke="#191970" points="1127.5843,-136.1017 1117.0281,-137.0053 1125.8437,-142.8819 1127.5843,-136.1017"/>
</g>
<!-- Node35 -->
<g id="node36" class="node">
<title>Node35</title>
<polygon fill="none" stroke="#bfbfbf" points="1345,-118 1345,-137 1393,-137 1393,-118 1345,-118"/>
<text text-anchor="middle" x="1369" y="-125" font-family="Helvetica,sans-Serif" font-size="10.00" fill="#000000">gsl/gsl</text>
</g>
<!-- Node34&#45;&gt;Node35 -->
<g id="edge52" class="edge">
<title>Node34&#45;&gt;Node35</title>
<path fill="none" stroke="#191970" d="M1347.3536,-179.2967C1351.4197,-169.5672 1356.727,-156.8675 1361.0687,-146.4784"/>
<polygon fill="#191970" stroke="#191970" points="1364.3802,-147.6313 1365.0069,-137.055 1357.9215,-144.9321 1364.3802,-147.6313"/>
</g>
</g>
</svg>
        <g id="navigator" transform="translate(0 0)" fill="#404254">
                <rect fill="#f2f5e9" fill-opacity="0.5" stroke="#606060" stroke-width=".5" x="0" y="0" width="60" height="60"/>
                <use id="zoomplus" xlink:href="#zoomPlus" x="17" y="9" onmousedown="handleZoom(evt,'in')"/>
                <use id="zoomminus" xlink:href="#zoomMin" x="42" y="9" onmousedown="handleZoom(evt,'out')"/>
                <use id="reset" xlink:href="#resetDef" x="30" y="36" onmousedown="handleReset()"/>
                <g id="arrowUp" xlink:href="#dirArrow" transform="translate(30 24)" onmousedown="handlePan(0,-1)">
                  <use xlink:href="#rim" fill="#404040">
                        <set attributeName="fill" to="#808080" begin="arrowUp.mouseover" end="arrowUp.mouseout"/>
                  </use>
                  <path fill="none" stroke="white" stroke-width="1.5" d="M0,-3.0v7 M-2.5,-0.5L0,-3.0L2.5,-0.5"/>
                </g>
                <g id="arrowRight" xlink:href="#dirArrow" transform="rotate(90) translate(36 -43)" onmousedown="handlePan(1,0)">
                  <use xlink:href="#rim" fill="#404040">
                        <set attributeName="fill" to="#808080" begin="arrowRight.mouseover" end="arrowRight.mouseout"/>
                  </use>
                  <path fill="none" stroke="white" stroke-width="1.5" d="M0,-3.0v7 M-2.5,-0.5L0,-3.0L2.5,-0.5"/>
                </g>
                <g id="arrowDown" xlink:href="#dirArrow" transform="rotate(180) translate(-30 -48)" onmousedown="handlePan(0,1)">
                  <use xlink:href="#rim" fill="#404040">
                        <set attributeName="fill" to="#808080" begin="arrowDown.mouseover" end="arrowDown.mouseout"/>
                  </use>
                  <path fill="none" stroke="white" stroke-width="1.5" d="M0,-3.0v7 M-2.5,-0.5L0,-3.0L2.5,-0.5"/>
                </g>
                <g id="arrowLeft" xlink:href="#dirArrow" transform="rotate(270) translate(-36 17)" onmousedown="handlePan(-1,0)">
                  <use xlink:href="#rim" fill="#404040">
                        <set attributeName="fill" to="#808080" begin="arrowLeft.mouseover" end="arrowLeft.mouseout"/>
                  </use>
                  <path fill="none" stroke="white" stroke-width="1.5" d="M0,-3.0v7 M-2.5,-0.5L0,-3.0L2.5,-0.5"/>
                </g>
        </g>
        <svg viewBox="0 0 15 15" width="100%" height="30px" preserveAspectRatio="xMaxYMin meet">
         <g id="arrow_out" transform="scale(0.3 0.3)">
          <a xlink:href="ITSMFT_2MFT_2workflow_2src_2ClusterReaderSpec_8cxx__incl_org.svg" target="_base">
           <rect id="button" ry="5" rx="5" y="6" x="6" height="38" width="38"
                fill="#f2f5e9" fill-opacity="0.5" stroke="#606060" stroke-width="1.0"/>
           <path id="arrow"
             d="M 11.500037,31.436501 C 11.940474,20.09759 22.043105,11.32322 32.158766,21.979434 L 37.068811,17.246167 C 37.068811,17.246167 37.088388,32 37.088388,32 L 22.160133,31.978069 C 22.160133,31.978069 26.997745,27.140456 26.997745,27.140456 C 18.528582,18.264221 13.291696,25.230495 11.500037,31.436501 z"
             style="fill:#404040;"/>
          </a>
         </g>
        </svg>
</svg>
