<?xml version="1.0" encoding="UTF-8" standalone="no"?>
<!DOCTYPE svg PUBLIC "-//W3C//DTD SVG 1.1//EN"
 "http://www.w3.org/Graphics/SVG/1.1/DTD/svg11.dtd">
<!-- Generated by graphviz version 2.40.1 (20161225.0304)
 -->
<!-- Title: /home/travis/build/AliceO2Group/AliceO2/Common/Field/include/Field/MagFieldParam.h Pages: 1 -->
<svg width="4642pt" height="317pt"
 viewBox="0.00 0.00 4641.50 317.00" xmlns="http://www.w3.org/2000/svg" xmlns:xlink="http://www.w3.org/1999/xlink">
<g id="graph0" class="graph" transform="scale(1 1) rotate(0) translate(4 313)">
<title>/home/travis/build/AliceO2Group/AliceO2/Common/Field/include/Field/MagFieldParam.h</title>
<!-- Node3 -->
<g id="node1" class="node">
<title>Node3</title>
<polygon fill="#bfbfbf" stroke="#000000" points="4333,-256.5 4333,-308.5 4461,-308.5 4461,-256.5 4333,-256.5"/>
<text text-anchor="start" x="4341" y="-296.5" font-family="Helvetica,sans-Serif" font-size="10.00" fill="#000000">/home/travis/build</text>
<text text-anchor="start" x="4341" y="-285.5" font-family="Helvetica,sans-Serif" font-size="10.00" fill="#000000">/AliceO2Group/AliceO2</text>
<text text-anchor="start" x="4341" y="-274.5" font-family="Helvetica,sans-Serif" font-size="10.00" fill="#000000">/Common/Field/include</text>
<text text-anchor="middle" x="4397" y="-263.5" font-family="Helvetica,sans-Serif" font-size="10.00" fill="#000000">/Field/MagFieldParam.h</text>
</g>
<!-- Node4 -->
<g id="node2" class="node">
<title>Node4</title>
<g id="a_node2"><a xlink:href="../../db/d4b/MagneticField_8h.html" target="_top" xlink:title="Definition of the MagF class. ">
<polygon fill="none" stroke="#000000" points="2213,-167.5 2213,-219.5 2341,-219.5 2341,-167.5 2213,-167.5"/>
<text text-anchor="start" x="2221" y="-207.5" font-family="Helvetica,sans-Serif" font-size="10.00" fill="#000000">/home/travis/build</text>
<text text-anchor="start" x="2221" y="-196.5" font-family="Helvetica,sans-Serif" font-size="10.00" fill="#000000">/AliceO2Group/AliceO2</text>
<text text-anchor="start" x="2221" y="-185.5" font-family="Helvetica,sans-Serif" font-size="10.00" fill="#000000">/Common/Field/include</text>
<text text-anchor="middle" x="2277" y="-174.5" font-family="Helvetica,sans-Serif" font-size="10.00" fill="#000000">/Field/MagneticField.h</text>
</a>
</g>
</g>
<!-- Node3&#45;&gt;Node4 -->
<g id="edge1" class="edge">
<title>Node3&#45;&gt;Node4</title>
<path fill="none" stroke="#191970" d="M4322.5302,-279.3737C3990.8757,-265.4504 2651.0033,-209.2011 2341.168,-196.1938"/>
<polygon fill="#191970" stroke="#191970" points="4322.837,-282.8895 4332.975,-279.8122 4323.1307,-275.8957 4322.837,-282.8895"/>
</g>
<!-- Node6 -->
<g id="node4" class="node">
<title>Node6</title>
<g id="a_node4"><a xlink:href="../../d0/dec/MagFieldFact_8cxx.html" target="_top" xlink:title="/home/travis/build\l/AliceO2Group/AliceO2\l/Common/Field/src/MagFieldFact.cxx">
<polygon fill="none" stroke="#000000" points="60,-.5 60,-41.5 252,-41.5 252,-.5 60,-.5"/>
<text text-anchor="start" x="68" y="-29.5" font-family="Helvetica,sans-Serif" font-size="10.00" fill="#000000">/home/travis/build</text>
<text text-anchor="start" x="68" y="-18.5" font-family="Helvetica,sans-Serif" font-size="10.00" fill="#000000">/AliceO2Group/AliceO2</text>
<text text-anchor="middle" x="156" y="-7.5" font-family="Helvetica,sans-Serif" font-size="10.00" fill="#000000">/Common/Field/src/MagFieldFact.cxx</text>
</a>
</g>
</g>
<!-- Node3&#45;&gt;Node6 -->
<g id="edge29" class="edge">
<title>Node3&#45;&gt;Node6</title>
<path fill="none" stroke="#191970" d="M4413.5886,-247.0221C4432.2447,-201.237 4454.6357,-122.2242 4411,-78 4373.2236,-39.7142 880.3726,-23.9059 252.204,-21.3714"/>
<polygon fill="#191970" stroke="#191970" points="4410.3522,-245.6893 4409.6894,-256.2633 4416.8017,-248.4105 4410.3522,-245.6893"/>
</g>
<!-- Node7 -->
<g id="node5" class="node">
<title>Node7</title>
<g id="a_node5"><a xlink:href="../../df/d54/MagFieldParam_8cxx.html" target="_top" xlink:title="Implementation of the MagFieldParam class. ">
<polygon fill="none" stroke="#000000" points="4198.5,-84 4198.5,-125 4401.5,-125 4401.5,-84 4198.5,-84"/>
<text text-anchor="start" x="4206.5" y="-113" font-family="Helvetica,sans-Serif" font-size="10.00" fill="#000000">/home/travis/build</text>
<text text-anchor="start" x="4206.5" y="-102" font-family="Helvetica,sans-Serif" font-size="10.00" fill="#000000">/AliceO2Group/AliceO2</text>
<text text-anchor="middle" x="4300" y="-91" font-family="Helvetica,sans-Serif" font-size="10.00" fill="#000000">/Common/Field/src/MagFieldParam.cxx</text>
</a>
</g>
</g>
<!-- Node3&#45;&gt;Node7 -->
<g id="edge30" class="edge">
<title>Node3&#45;&gt;Node7</title>
<path fill="none" stroke="#191970" d="M4377.8715,-247.3983C4357.9735,-210.8843 4327.4948,-154.9543 4311.1967,-125.0465"/>
<polygon fill="#191970" stroke="#191970" points="4374.8289,-249.1294 4382.6873,-256.2355 4380.9755,-245.7798 4374.8289,-249.1294"/>
</g>
<!-- Node30 -->
<g id="node28" class="node">
<title>Node30</title>
<g id="a_node28"><a xlink:href="../../da/d9c/MagFieldContFact_8cxx.html" target="_top" xlink:title="Implementation of the MagFieldContFact: factory for ALICE mag. field. ">
<polygon fill="none" stroke="#000000" points="4458.5,-167.5 4458.5,-219.5 4633.5,-219.5 4633.5,-167.5 4458.5,-167.5"/>
<text text-anchor="start" x="4466.5" y="-207.5" font-family="Helvetica,sans-Serif" font-size="10.00" fill="#000000">/home/travis/build</text>
<text text-anchor="start" x="4466.5" y="-196.5" font-family="Helvetica,sans-Serif" font-size="10.00" fill="#000000">/AliceO2Group/AliceO2</text>
<text text-anchor="start" x="4466.5" y="-185.5" font-family="Helvetica,sans-Serif" font-size="10.00" fill="#000000">/Common/Field/src/MagFieldCont</text>
<text text-anchor="middle" x="4546" y="-174.5" font-family="Helvetica,sans-Serif" font-size="10.00" fill="#000000">Fact.cxx</text>
</a>
</g>
</g>
<!-- Node3&#45;&gt;Node30 -->
<g id="edge28" class="edge">
<title>Node3&#45;&gt;Node30</title>
<path fill="none" stroke="#191970" d="M4449.7377,-250.9989C4466.9791,-240.7004 4485.9251,-229.3837 4502.4147,-219.5341"/>
<polygon fill="#191970" stroke="#191970" points="4447.6893,-248.1456 4440.899,-256.2784 4451.2789,-254.1552 4447.6893,-248.1456"/>
</g>
<!-- Node5 -->
<g id="node3" class="node">
<title>Node5</title>
<g id="a_node3"><a xlink:href="../../da/d34/MagFieldFact_8h.html" target="_top" xlink:title="Definition of the MagFieldFact: factory for ALIDE mag. field from MagFieldParam. ">
<polygon fill="none" stroke="#000000" points="0,-78.5 0,-130.5 128,-130.5 128,-78.5 0,-78.5"/>
<text text-anchor="start" x="8" y="-118.5" font-family="Helvetica,sans-Serif" font-size="10.00" fill="#000000">/home/travis/build</text>
<text text-anchor="start" x="8" y="-107.5" font-family="Helvetica,sans-Serif" font-size="10.00" fill="#000000">/AliceO2Group/AliceO2</text>
<text text-anchor="start" x="8" y="-96.5" font-family="Helvetica,sans-Serif" font-size="10.00" fill="#000000">/Common/Field/include</text>
<text text-anchor="middle" x="64" y="-85.5" font-family="Helvetica,sans-Serif" font-size="10.00" fill="#000000">/Field/MagFieldFact.h</text>
</a>
</g>
</g>
<!-- Node4&#45;&gt;Node5 -->
<g id="edge2" class="edge">
<title>Node4&#45;&gt;Node5</title>
<path fill="none" stroke="#191970" d="M2202.7705,-192.6381C1849.5881,-188.3603 347.8681,-168.1188 142,-131 137.496,-130.1879 132.8993,-129.1648 128.3034,-127.9961"/>
<polygon fill="#191970" stroke="#191970" points="2202.8407,-196.1391 2212.8822,-192.76 2202.9252,-189.1396 2202.8407,-196.1391"/>
</g>
<!-- Node4&#45;&gt;Node6 -->
<g id="edge4" class="edge">
<title>Node4&#45;&gt;Node6</title>
<path fill="none" stroke="#191970" d="M2202.7878,-192.5708C1833.9391,-187.7959 214.0885,-164.9213 175,-131 149.8243,-109.1524 149.9016,-67.0068 152.6628,-41.7009"/>
<polygon fill="#191970" stroke="#191970" points="2202.7739,-196.0708 2212.8183,-192.7002 2202.8643,-189.0714 2202.7739,-196.0708"/>
</g>
<!-- Node4&#45;&gt;Node7 -->
<g id="edge5" class="edge">
<title>Node4&#45;&gt;Node7</title>
<path fill="none" stroke="#191970" d="M2351.5048,-193.0715C2658.2244,-190.9975 3824.271,-179.988 4189,-131 4199.9962,-129.5231 4211.4931,-127.4242 4222.7454,-125.0462"/>
<polygon fill="#191970" stroke="#191970" points="2351.365,-189.5722 2341.3886,-193.1387 2351.4117,-196.5721 2351.365,-189.5722"/>
</g>
<!-- Node8 -->
<g id="node6" class="node">
<title>Node8</title>
<g id="a_node6"><a xlink:href="../../d2/d78/MagneticField_8cxx.html" target="_top" xlink:title="/home/travis/build\l/AliceO2Group/AliceO2\l/Common/Field/src/MagneticField.cxx">
<polygon fill="none" stroke="#000000" points="184.5,-84 184.5,-125 381.5,-125 381.5,-84 184.5,-84"/>
<text text-anchor="start" x="192.5" y="-113" font-family="Helvetica,sans-Serif" font-size="10.00" fill="#000000">/home/travis/build</text>
<text text-anchor="start" x="192.5" y="-102" font-family="Helvetica,sans-Serif" font-size="10.00" fill="#000000">/AliceO2Group/AliceO2</text>
<text text-anchor="middle" x="283" y="-91" font-family="Helvetica,sans-Serif" font-size="10.00" fill="#000000">/Common/Field/src/MagneticField.cxx</text>
</a>
</g>
</g>
<!-- Node4&#45;&gt;Node8 -->
<g id="edge6" class="edge">
<title>Node4&#45;&gt;Node8</title>
<path fill="none" stroke="#191970" d="M2202.9506,-193.12C1899.4195,-191.2424 749.5468,-180.9143 390,-131 379.3847,-129.5263 368.2935,-127.4293 357.4426,-125.0522"/>
<polygon fill="#191970" stroke="#191970" points="2202.9421,-196.6199 2212.9632,-193.1808 2202.9846,-189.62 2202.9421,-196.6199"/>
</g>
<!-- Node9 -->
<g id="node7" class="node">
<title>Node9</title>
<g id="a_node7"><a xlink:href="../../d6/dda/testMagneticField_8cxx.html" target="_top" xlink:title="/home/travis/build\l/AliceO2Group/AliceO2\l/Common/Field/test/testMagnetic\lField.cxx">
<polygon fill="none" stroke="#000000" points="399.5,-78.5 399.5,-130.5 576.5,-130.5 576.5,-78.5 399.5,-78.5"/>
<text text-anchor="start" x="407.5" y="-118.5" font-family="Helvetica,sans-Serif" font-size="10.00" fill="#000000">/home/travis/build</text>
<text text-anchor="start" x="407.5" y="-107.5" font-family="Helvetica,sans-Serif" font-size="10.00" fill="#000000">/AliceO2Group/AliceO2</text>
<text text-anchor="start" x="407.5" y="-96.5" font-family="Helvetica,sans-Serif" font-size="10.00" fill="#000000">/Common/Field/test/testMagnetic</text>
<text text-anchor="middle" x="488" y="-85.5" font-family="Helvetica,sans-Serif" font-size="10.00" fill="#000000">Field.cxx</text>
</a>
</g>
</g>
<!-- Node4&#45;&gt;Node9 -->
<g id="edge7" class="edge">
<title>Node4&#45;&gt;Node9</title>
<path fill="none" stroke="#191970" d="M2202.7338,-193.0234C1919.0474,-190.8512 903.7747,-179.7668 585,-131 582.2389,-130.5776 579.4441,-130.1045 576.6305,-129.5887"/>
<polygon fill="#191970" stroke="#191970" points="2202.8872,-196.5245 2212.9132,-193.0999 2202.9399,-189.5247 2202.8872,-196.5245"/>
</g>
<!-- Node10 -->
<g id="node8" class="node">
<title>Node10</title>
<g id="a_node8"><a xlink:href="../../d3/dee/Base_2src_2Detector_8cxx.html" target="_top" xlink:title="/home/travis/build\l/AliceO2Group/AliceO2\l/Detectors/Base/src/Detector.cxx">
<polygon fill="none" stroke="#000000" points="594,-84 594,-125 770,-125 770,-84 594,-84"/>
<text text-anchor="start" x="602" y="-113" font-family="Helvetica,sans-Serif" font-size="10.00" fill="#000000">/home/travis/build</text>
<text text-anchor="start" x="602" y="-102" font-family="Helvetica,sans-Serif" font-size="10.00" fill="#000000">/AliceO2Group/AliceO2</text>
<text text-anchor="middle" x="682" y="-91" font-family="Helvetica,sans-Serif" font-size="10.00" fill="#000000">/Detectors/Base/src/Detector.cxx</text>
</a>
</g>
</g>
<!-- Node4&#45;&gt;Node10 -->
<g id="edge8" class="edge">
<title>Node4&#45;&gt;Node10</title>
<path fill="none" stroke="#191970" d="M2202.5841,-192.6367C1939.9384,-189.2404 1057.1685,-174.7647 778,-131 768.4344,-129.5004 758.46,-127.3888 748.7134,-125.0048"/>
<polygon fill="#191970" stroke="#191970" points="2202.7318,-196.1388 2212.7758,-192.7669 2202.8213,-189.1394 2202.7318,-196.1388"/>
</g>
<!-- Node11 -->
<g id="node9" class="node">
<title>Node11</title>
<g id="a_node9"><a xlink:href="../../d8/dee/Propagator_8cxx.html" target="_top" xlink:title="/home/travis/build\l/AliceO2Group/AliceO2\l/Detectors/Base/src/Propagator.cxx">
<polygon fill="none" stroke="#000000" points="787.5,-84 787.5,-125 974.5,-125 974.5,-84 787.5,-84"/>
<text text-anchor="start" x="795.5" y="-113" font-family="Helvetica,sans-Serif" font-size="10.00" fill="#000000">/home/travis/build</text>
<text text-anchor="start" x="795.5" y="-102" font-family="Helvetica,sans-Serif" font-size="10.00" fill="#000000">/AliceO2Group/AliceO2</text>
<text text-anchor="middle" x="881" y="-91" font-family="Helvetica,sans-Serif" font-size="10.00" fill="#000000">/Detectors/Base/src/Propagator.cxx</text>
</a>
</g>
</g>
<!-- Node4&#45;&gt;Node11 -->
<g id="edge9" class="edge">
<title>Node4&#45;&gt;Node11</title>
<path fill="none" stroke="#191970" d="M2202.614,-191.8945C1964.314,-186.438 1221.5722,-166.9201 984,-131 973.9588,-129.4818 963.4779,-127.3928 953.2097,-125.0483"/>
<polygon fill="#191970" stroke="#191970" points="2202.8271,-195.4001 2212.9041,-192.1285 2202.9863,-188.4019 2202.8271,-195.4001"/>
</g>
<!-- Node12 -->
<g id="node10" class="node">
<title>Node12</title>
<g id="a_node10"><a xlink:href="../../d3/d0f/FIT_2FDD_2simulation_2src_2Detector_8cxx.html" target="_top" xlink:title="/home/travis/build\l/AliceO2Group/AliceO2\l/Detectors/FIT/FDD/simulation\l/src/Detector.cxx">
<polygon fill="none" stroke="#000000" points="993,-78.5 993,-130.5 1155,-130.5 1155,-78.5 993,-78.5"/>
<text text-anchor="start" x="1001" y="-118.5" font-family="Helvetica,sans-Serif" font-size="10.00" fill="#000000">/home/travis/build</text>
<text text-anchor="start" x="1001" y="-107.5" font-family="Helvetica,sans-Serif" font-size="10.00" fill="#000000">/AliceO2Group/AliceO2</text>
<text text-anchor="start" x="1001" y="-96.5" font-family="Helvetica,sans-Serif" font-size="10.00" fill="#000000">/Detectors/FIT/FDD/simulation</text>
<text text-anchor="middle" x="1074" y="-85.5" font-family="Helvetica,sans-Serif" font-size="10.00" fill="#000000">/src/Detector.cxx</text>
</a>
</g>
</g>
<!-- Node4&#45;&gt;Node12 -->
<g id="edge10" class="edge">
<title>Node4&#45;&gt;Node12</title>
<path fill="none" stroke="#191970" d="M2202.4455,-191.5514C1986.721,-185.5581 1364.5303,-165.6751 1164,-131 1161.111,-130.5004 1158.1833,-129.9401 1155.2367,-129.3301"/>
<polygon fill="#191970" stroke="#191970" points="2202.6209,-195.0574 2212.7137,-191.8346 2202.814,-188.0601 2202.6209,-195.0574"/>
</g>
<!-- Node13 -->
<g id="node11" class="node">
<title>Node13</title>
<g id="a_node11"><a xlink:href="../../db/d6a/MatchTOF_8cxx.html" target="_top" xlink:title="/home/travis/build\l/AliceO2Group/AliceO2\l/Detectors/GlobalTracking\l/src/MatchTOF.cxx">
<polygon fill="none" stroke="#000000" points="1173,-78.5 1173,-130.5 1315,-130.5 1315,-78.5 1173,-78.5"/>
<text text-anchor="start" x="1181" y="-118.5" font-family="Helvetica,sans-Serif" font-size="10.00" fill="#000000">/home/travis/build</text>
<text text-anchor="start" x="1181" y="-107.5" font-family="Helvetica,sans-Serif" font-size="10.00" fill="#000000">/AliceO2Group/AliceO2</text>
<text text-anchor="start" x="1181" y="-96.5" font-family="Helvetica,sans-Serif" font-size="10.00" fill="#000000">/Detectors/GlobalTracking</text>
<text text-anchor="middle" x="1244" y="-85.5" font-family="Helvetica,sans-Serif" font-size="10.00" fill="#000000">/src/MatchTOF.cxx</text>
</a>
</g>
</g>
<!-- Node4&#45;&gt;Node13 -->
<g id="edge11" class="edge">
<title>Node4&#45;&gt;Node13</title>
<path fill="none" stroke="#191970" d="M2202.8862,-191.0757C2009.3384,-184.3552 1492.0715,-163.7911 1324,-131 1321.1279,-130.4397 1318.2164,-129.8051 1315.289,-129.1114"/>
<polygon fill="#191970" stroke="#191970" points="2202.8459,-194.5763 2212.9606,-191.4232 2203.0872,-187.5805 2202.8459,-194.5763"/>
</g>
<!-- Node14 -->
<g id="node12" class="node">
<title>Node14</title>
<g id="a_node12"><a xlink:href="../../dc/d59/MatchTPCITS_8cxx.html" target="_top" xlink:title="/home/travis/build\l/AliceO2Group/AliceO2\l/Detectors/GlobalTracking\l/src/MatchTPCITS.cxx">
<polygon fill="none" stroke="#000000" points="1333,-78.5 1333,-130.5 1475,-130.5 1475,-78.5 1333,-78.5"/>
<text text-anchor="start" x="1341" y="-118.5" font-family="Helvetica,sans-Serif" font-size="10.00" fill="#000000">/home/travis/build</text>
<text text-anchor="start" x="1341" y="-107.5" font-family="Helvetica,sans-Serif" font-size="10.00" fill="#000000">/AliceO2Group/AliceO2</text>
<text text-anchor="start" x="1341" y="-96.5" font-family="Helvetica,sans-Serif" font-size="10.00" fill="#000000">/Detectors/GlobalTracking</text>
<text text-anchor="middle" x="1404" y="-85.5" font-family="Helvetica,sans-Serif" font-size="10.00" fill="#000000">/src/MatchTPCITS.cxx</text>
</a>
</g>
</g>
<!-- Node4&#45;&gt;Node14 -->
<g id="edge12" class="edge">
<title>Node4&#45;&gt;Node14</title>
<path fill="none" stroke="#191970" d="M2202.7363,-189.9384C2032.8983,-181.4221 1620.306,-158.5261 1484,-131 1481.1317,-130.4208 1478.2233,-129.7703 1475.2985,-129.0632"/>
<polygon fill="#191970" stroke="#191970" points="2202.6745,-193.4396 2212.8365,-190.4423 2203.0233,-186.4483 2202.6745,-193.4396"/>
</g>
<!-- Node15 -->
<g id="node13" class="node">
<title>Node15</title>
<g id="a_node13"><a xlink:href="../../d7/dca/CookedTracker_8cxx.html" target="_top" xlink:title="Implementation of the &quot;Cooked Matrix&quot; ITS tracker. ">
<polygon fill="none" stroke="#000000" points="1493.5,-78.5 1493.5,-130.5 1694.5,-130.5 1694.5,-78.5 1493.5,-78.5"/>
<text text-anchor="start" x="1501.5" y="-118.5" font-family="Helvetica,sans-Serif" font-size="10.00" fill="#000000">/home/travis/build</text>
<text text-anchor="start" x="1501.5" y="-107.5" font-family="Helvetica,sans-Serif" font-size="10.00" fill="#000000">/AliceO2Group/AliceO2</text>
<text text-anchor="start" x="1501.5" y="-96.5" font-family="Helvetica,sans-Serif" font-size="10.00" fill="#000000">/Detectors/ITSMFT/ITS</text>
<text text-anchor="middle" x="1594" y="-85.5" font-family="Helvetica,sans-Serif" font-size="10.00" fill="#000000">/reconstruction/src/CookedTracker.cxx</text>
</a>
</g>
</g>
<!-- Node4&#45;&gt;Node15 -->
<g id="edge13" class="edge">
<title>Node4&#45;&gt;Node15</title>
<path fill="none" stroke="#191970" d="M2202.3,-188.4138C2092.5154,-180.2479 1881.3966,-161.9127 1704,-131 1700.9037,-130.4604 1697.7647,-129.8848 1694.6005,-129.2797"/>
<polygon fill="#191970" stroke="#191970" points="2202.3735,-191.9286 2212.6035,-189.1724 2202.8875,-184.9475 2202.3735,-191.9286"/>
</g>
<!-- Node16 -->
<g id="node14" class="node">
<title>Node16</title>
<g id="a_node14"><a xlink:href="../../d6/dbc/CookedTrackerSpec_8cxx.html" target="_top" xlink:title="/home/travis/build\l/AliceO2Group/AliceO2\l/Detectors/ITSMFT/ITS\l/workflow/src/CookedTrackerSpec.cxx">
<polygon fill="none" stroke="#000000" points="1713,-78.5 1713,-130.5 1913,-130.5 1913,-78.5 1713,-78.5"/>
<text text-anchor="start" x="1721" y="-118.5" font-family="Helvetica,sans-Serif" font-size="10.00" fill="#000000">/home/travis/build</text>
<text text-anchor="start" x="1721" y="-107.5" font-family="Helvetica,sans-Serif" font-size="10.00" fill="#000000">/AliceO2Group/AliceO2</text>
<text text-anchor="start" x="1721" y="-96.5" font-family="Helvetica,sans-Serif" font-size="10.00" fill="#000000">/Detectors/ITSMFT/ITS</text>
<text text-anchor="middle" x="1813" y="-85.5" font-family="Helvetica,sans-Serif" font-size="10.00" fill="#000000">/workflow/src/CookedTrackerSpec.cxx</text>
</a>
</g>
</g>
<!-- Node4&#45;&gt;Node16 -->
<g id="edge14" class="edge">
<title>Node4&#45;&gt;Node16</title>
<path fill="none" stroke="#191970" d="M2203.0697,-181.9046C2131.0754,-170.2785 2018.6717,-151.2394 1922,-131 1919.0455,-130.3814 1916.0491,-129.7406 1913.0268,-129.0825"/>
<polygon fill="#191970" stroke="#191970" points="2202.5253,-185.362 2212.9544,-183.4953 2203.6375,-178.4509 2202.5253,-185.362"/>
</g>
<!-- Node17 -->
<g id="node15" class="node">
<title>Node17</title>
<g id="a_node15"><a xlink:href="../../de/d95/ITSMFT_2ITS_2workflow_2src_2TrackerSpec_8cxx.html" target="_top" xlink:title="/home/travis/build\l/AliceO2Group/AliceO2\l/Detectors/ITSMFT/ITS\l/workflow/src/TrackerSpec.cxx">
<polygon fill="none" stroke="#000000" points="1931.5,-78.5 1931.5,-130.5 2094.5,-130.5 2094.5,-78.5 1931.5,-78.5"/>
<text text-anchor="start" x="1939.5" y="-118.5" font-family="Helvetica,sans-Serif" font-size="10.00" fill="#000000">/home/travis/build</text>
<text text-anchor="start" x="1939.5" y="-107.5" font-family="Helvetica,sans-Serif" font-size="10.00" fill="#000000">/AliceO2Group/AliceO2</text>
<text text-anchor="start" x="1939.5" y="-96.5" font-family="Helvetica,sans-Serif" font-size="10.00" fill="#000000">/Detectors/ITSMFT/ITS</text>
<text text-anchor="middle" x="2013" y="-85.5" font-family="Helvetica,sans-Serif" font-size="10.00" fill="#000000">/workflow/src/TrackerSpec.cxx</text>
</a>
</g>
</g>
<!-- Node4&#45;&gt;Node17 -->
<g id="edge15" class="edge">
<title>Node4&#45;&gt;Node17</title>
<path fill="none" stroke="#191970" d="M2203.0294,-168.5629C2167.86,-156.7066 2125.829,-142.537 2090.2485,-130.5421"/>
<polygon fill="#191970" stroke="#191970" points="2202.1618,-171.9639 2212.7559,-171.842 2204.398,-165.3307 2202.1618,-171.9639"/>
</g>
<!-- Node18 -->
<g id="node16" class="node">
<title>Node18</title>
<g id="a_node16"><a xlink:href="../../d0/d6b/ITSMFT_2MFT_2simulation_2src_2Detector_8cxx.html" target="_top" xlink:title="/home/travis/build\l/AliceO2Group/AliceO2\l/Detectors/ITSMFT/MFT\l/simulation/src/Detector.cxx">
<polygon fill="none" stroke="#000000" points="2112.5,-78.5 2112.5,-130.5 2265.5,-130.5 2265.5,-78.5 2112.5,-78.5"/>
<text text-anchor="start" x="2120.5" y="-118.5" font-family="Helvetica,sans-Serif" font-size="10.00" fill="#000000">/home/travis/build</text>
<text text-anchor="start" x="2120.5" y="-107.5" font-family="Helvetica,sans-Serif" font-size="10.00" fill="#000000">/AliceO2Group/AliceO2</text>
<text text-anchor="start" x="2120.5" y="-96.5" font-family="Helvetica,sans-Serif" font-size="10.00" fill="#000000">/Detectors/ITSMFT/MFT</text>
<text text-anchor="middle" x="2189" y="-85.5" font-family="Helvetica,sans-Serif" font-size="10.00" fill="#000000">/simulation/src/Detector.cxx</text>
</a>
</g>
</g>
<!-- Node4&#45;&gt;Node18 -->
<g id="edge16" class="edge">
<title>Node4&#45;&gt;Node18</title>
<path fill="none" stroke="#191970" d="M2243.8793,-160.0029C2234.2389,-150.2529 2223.8551,-139.7511 2214.7416,-130.5341"/>
<polygon fill="#191970" stroke="#191970" points="2241.5532,-162.6284 2251.0731,-167.2784 2246.5309,-157.7066 2241.5532,-162.6284"/>
</g>
<!-- Node19 -->
<g id="node17" class="node">
<title>Node19</title>
<g id="a_node17"><a xlink:href="../../d1/dd0/ITSMFT_2MFT_2workflow_2src_2TrackerSpec_8cxx.html" target="_top" xlink:title="/home/travis/build\l/AliceO2Group/AliceO2\l/Detectors/ITSMFT/MFT\l/workflow/src/TrackerSpec.cxx">
<polygon fill="none" stroke="#000000" points="2283.5,-78.5 2283.5,-130.5 2446.5,-130.5 2446.5,-78.5 2283.5,-78.5"/>
<text text-anchor="start" x="2291.5" y="-118.5" font-family="Helvetica,sans-Serif" font-size="10.00" fill="#000000">/home/travis/build</text>
<text text-anchor="start" x="2291.5" y="-107.5" font-family="Helvetica,sans-Serif" font-size="10.00" fill="#000000">/AliceO2Group/AliceO2</text>
<text text-anchor="start" x="2291.5" y="-96.5" font-family="Helvetica,sans-Serif" font-size="10.00" fill="#000000">/Detectors/ITSMFT/MFT</text>
<text text-anchor="middle" x="2365" y="-85.5" font-family="Helvetica,sans-Serif" font-size="10.00" fill="#000000">/workflow/src/TrackerSpec.cxx</text>
</a>
</g>
</g>
<!-- Node4&#45;&gt;Node19 -->
<g id="edge17" class="edge">
<title>Node4&#45;&gt;Node19</title>
<path fill="none" stroke="#191970" d="M2310.1207,-160.0029C2319.7611,-150.2529 2330.1449,-139.7511 2339.2584,-130.5341"/>
<polygon fill="#191970" stroke="#191970" points="2307.4691,-157.7066 2302.9269,-167.2784 2312.4468,-162.6284 2307.4691,-157.7066"/>
</g>
<!-- Node20 -->
<g id="node18" class="node">
<title>Node20</title>
<g id="a_node18"><a xlink:href="../../d1/d96/TrackAtVertexSpec_8cxx.html" target="_top" xlink:title="Implementation of a data processor to extrapolate the tracks to the vertex. ">
<polygon fill="none" stroke="#000000" points="2465,-78.5 2465,-130.5 2635,-130.5 2635,-78.5 2465,-78.5"/>
<text text-anchor="start" x="2473" y="-118.5" font-family="Helvetica,sans-Serif" font-size="10.00" fill="#000000">/home/travis/build</text>
<text text-anchor="start" x="2473" y="-107.5" font-family="Helvetica,sans-Serif" font-size="10.00" fill="#000000">/AliceO2Group/AliceO2</text>
<text text-anchor="start" x="2473" y="-96.5" font-family="Helvetica,sans-Serif" font-size="10.00" fill="#000000">/Detectors/MUON/MCH/Tracking</text>
<text text-anchor="middle" x="2550" y="-85.5" font-family="Helvetica,sans-Serif" font-size="10.00" fill="#000000">/src/TrackAtVertexSpec.cxx</text>
</a>
</g>
</g>
<!-- Node4&#45;&gt;Node20 -->
<g id="edge18" class="edge">
<title>Node4&#45;&gt;Node20</title>
<path fill="none" stroke="#191970" d="M2350.6977,-169.474C2387.5866,-157.448 2432.3007,-142.8708 2470.0211,-130.5737"/>
<polygon fill="#191970" stroke="#191970" points="2349.429,-166.2062 2341.0064,-172.6335 2351.5988,-172.8615 2349.429,-166.2062"/>
</g>
<!-- Node21 -->
<g id="node19" class="node">
<title>Node21</title>
<g id="a_node19"><a xlink:href="../../d1/d8b/TrackFinder_8cxx.html" target="_top" xlink:title="Implementation of a class to reconstruct tracks. ">
<polygon fill="none" stroke="#000000" points="2653,-78.5 2653,-130.5 2823,-130.5 2823,-78.5 2653,-78.5"/>
<text text-anchor="start" x="2661" y="-118.5" font-family="Helvetica,sans-Serif" font-size="10.00" fill="#000000">/home/travis/build</text>
<text text-anchor="start" x="2661" y="-107.5" font-family="Helvetica,sans-Serif" font-size="10.00" fill="#000000">/AliceO2Group/AliceO2</text>
<text text-anchor="start" x="2661" y="-96.5" font-family="Helvetica,sans-Serif" font-size="10.00" fill="#000000">/Detectors/MUON/MCH/Tracking</text>
<text text-anchor="middle" x="2738" y="-85.5" font-family="Helvetica,sans-Serif" font-size="10.00" fill="#000000">/src/TrackFinder.cxx</text>
</a>
</g>
</g>
<!-- Node4&#45;&gt;Node21 -->
<g id="edge19" class="edge">
<title>Node4&#45;&gt;Node21</title>
<path fill="none" stroke="#191970" d="M2351.2638,-183.2167C2425.7214,-172.3533 2543.4361,-153.6711 2644,-131 2646.8946,-130.3474 2649.8327,-129.6603 2652.7948,-128.9463"/>
<polygon fill="#191970" stroke="#191970" points="2350.4453,-179.7987 2341.0509,-184.6973 2351.4497,-186.7263 2350.4453,-179.7987"/>
</g>
<!-- Node22 -->
<g id="node20" class="node">
<title>Node22</title>
<g id="a_node20"><a xlink:href="../../d6/d6d/TrackFinderOriginal_8cxx.html" target="_top" xlink:title="Implementation of a class to reconstruct tracks with the original algorithm. ">
<polygon fill="none" stroke="#000000" points="2841,-78.5 2841,-130.5 3011,-130.5 3011,-78.5 2841,-78.5"/>
<text text-anchor="start" x="2849" y="-118.5" font-family="Helvetica,sans-Serif" font-size="10.00" fill="#000000">/home/travis/build</text>
<text text-anchor="start" x="2849" y="-107.5" font-family="Helvetica,sans-Serif" font-size="10.00" fill="#000000">/AliceO2Group/AliceO2</text>
<text text-anchor="start" x="2849" y="-96.5" font-family="Helvetica,sans-Serif" font-size="10.00" fill="#000000">/Detectors/MUON/MCH/Tracking</text>
<text text-anchor="middle" x="2926" y="-85.5" font-family="Helvetica,sans-Serif" font-size="10.00" fill="#000000">/src/TrackFinderOriginal.cxx</text>
</a>
</g>
</g>
<!-- Node4&#45;&gt;Node22 -->
<g id="edge20" class="edge">
<title>Node4&#45;&gt;Node22</title>
<path fill="none" stroke="#191970" d="M2351.2409,-188.9921C2458.2481,-181.6257 2661.6961,-164.3646 2832,-131 2834.9119,-130.4295 2837.8649,-129.8132 2840.8398,-129.16"/>
<polygon fill="#191970" stroke="#191970" points="2350.9307,-185.505 2341.1907,-189.6743 2351.4048,-192.489 2350.9307,-185.505"/>
</g>
<!-- Node23 -->
<g id="node21" class="node">
<title>Node23</title>
<g id="a_node21"><a xlink:href="../../de/db3/MUON_2MCH_2Tracking_2src_2TrackFitter_8cxx.html" target="_top" xlink:title="/home/travis/build\l/AliceO2Group/AliceO2\l/Detectors/MUON/MCH/Tracking\l/src/TrackFitter.cxx">
<polygon fill="none" stroke="#000000" points="3029,-78.5 3029,-130.5 3199,-130.5 3199,-78.5 3029,-78.5"/>
<text text-anchor="start" x="3037" y="-118.5" font-family="Helvetica,sans-Serif" font-size="10.00" fill="#000000">/home/travis/build</text>
<text text-anchor="start" x="3037" y="-107.5" font-family="Helvetica,sans-Serif" font-size="10.00" fill="#000000">/AliceO2Group/AliceO2</text>
<text text-anchor="start" x="3037" y="-96.5" font-family="Helvetica,sans-Serif" font-size="10.00" fill="#000000">/Detectors/MUON/MCH/Tracking</text>
<text text-anchor="middle" x="3114" y="-85.5" font-family="Helvetica,sans-Serif" font-size="10.00" fill="#000000">/src/TrackFitter.cxx</text>
</a>
</g>
</g>
<!-- Node4&#45;&gt;Node23 -->
<g id="edge21" class="edge">
<title>Node4&#45;&gt;Node23</title>
<path fill="none" stroke="#191970" d="M2351.331,-191.9313C2485.7891,-188.058 2777.9306,-174.8873 3020,-131 3022.9196,-130.4707 3025.8793,-129.8899 3028.86,-129.2671"/>
<polygon fill="#191970" stroke="#191970" points="2351.0454,-188.4378 2341.147,-192.2155 2351.2407,-195.4351 2351.0454,-188.4378"/>
</g>
<!-- Node24 -->
<g id="node22" class="node">
<title>Node24</title>
<g id="a_node22"><a xlink:href="../../de/da5/FrameStructure_8cxx.html" target="_top" xlink:title="/home/travis/build\l/AliceO2Group/AliceO2\l/Detectors/Passive/src\l/FrameStructure.cxx">
<polygon fill="none" stroke="#000000" points="3217.5,-78.5 3217.5,-130.5 3344.5,-130.5 3344.5,-78.5 3217.5,-78.5"/>
<text text-anchor="start" x="3225.5" y="-118.5" font-family="Helvetica,sans-Serif" font-size="10.00" fill="#000000">/home/travis/build</text>
<text text-anchor="start" x="3225.5" y="-107.5" font-family="Helvetica,sans-Serif" font-size="10.00" fill="#000000">/AliceO2Group/AliceO2</text>
<text text-anchor="start" x="3225.5" y="-96.5" font-family="Helvetica,sans-Serif" font-size="10.00" fill="#000000">/Detectors/Passive/src</text>
<text text-anchor="middle" x="3281" y="-85.5" font-family="Helvetica,sans-Serif" font-size="10.00" fill="#000000">/FrameStructure.cxx</text>
</a>
</g>
</g>
<!-- Node4&#45;&gt;Node24 -->
<g id="edge22" class="edge">
<title>Node4&#45;&gt;Node24</title>
<path fill="none" stroke="#191970" d="M2351.4367,-191.2001C2542.1712,-184.875 3044.8565,-165.3682 3208,-131 3211.0345,-130.3608 3214.1129,-129.6225 3217.2029,-128.8081"/>
<polygon fill="#191970" stroke="#191970" points="2351.1092,-187.7088 2341.2297,-191.5358 2351.3394,-194.7051 2351.1092,-187.7088"/>
</g>
<!-- Node25 -->
<g id="node23" class="node">
<title>Node25</title>
<g id="a_node23"><a xlink:href="../../da/d8e/SpaceCharge_8cxx.html" target="_top" xlink:title="Implementation of the interface for the ALICE TPC space&#45;charge distortions calculations. ">
<polygon fill="none" stroke="#000000" points="3362.5,-78.5 3362.5,-130.5 3505.5,-130.5 3505.5,-78.5 3362.5,-78.5"/>
<text text-anchor="start" x="3370.5" y="-118.5" font-family="Helvetica,sans-Serif" font-size="10.00" fill="#000000">/home/travis/build</text>
<text text-anchor="start" x="3370.5" y="-107.5" font-family="Helvetica,sans-Serif" font-size="10.00" fill="#000000">/AliceO2Group/AliceO2</text>
<text text-anchor="start" x="3370.5" y="-96.5" font-family="Helvetica,sans-Serif" font-size="10.00" fill="#000000">/Detectors/TPC/simulation</text>
<text text-anchor="middle" x="3434" y="-85.5" font-family="Helvetica,sans-Serif" font-size="10.00" fill="#000000">/src/SpaceCharge.cxx</text>
</a>
</g>
</g>
<!-- Node4&#45;&gt;Node25 -->
<g id="edge23" class="edge">
<title>Node4&#45;&gt;Node25</title>
<path fill="none" stroke="#191970" d="M2351.3385,-191.6771C2562.0388,-186.1144 3160.3498,-167.4719 3353,-131 3356.0529,-130.422 3359.15,-129.7606 3362.2635,-129.0332"/>
<polygon fill="#191970" stroke="#191970" points="2351.2068,-188.1792 2341.3018,-191.9399 2351.3901,-195.1769 2351.2068,-188.1792"/>
</g>
<!-- Node26 -->
<g id="node24" class="node">
<title>Node26</title>
<g id="a_node24"><a xlink:href="../../d8/dd6/TRDCommonParam_8cxx.html" target="_top" xlink:title="/home/travis/build\l/AliceO2Group/AliceO2\l/Detectors/TRD/base/src\l/TRDCommonParam.cxx">
<polygon fill="none" stroke="#000000" points="3523.5,-78.5 3523.5,-130.5 3658.5,-130.5 3658.5,-78.5 3523.5,-78.5"/>
<text text-anchor="start" x="3531.5" y="-118.5" font-family="Helvetica,sans-Serif" font-size="10.00" fill="#000000">/home/travis/build</text>
<text text-anchor="start" x="3531.5" y="-107.5" font-family="Helvetica,sans-Serif" font-size="10.00" fill="#000000">/AliceO2Group/AliceO2</text>
<text text-anchor="start" x="3531.5" y="-96.5" font-family="Helvetica,sans-Serif" font-size="10.00" fill="#000000">/Detectors/TRD/base/src</text>
<text text-anchor="middle" x="3591" y="-85.5" font-family="Helvetica,sans-Serif" font-size="10.00" fill="#000000">/TRDCommonParam.cxx</text>
</a>
</g>
</g>
<!-- Node4&#45;&gt;Node26 -->
<g id="edge24" class="edge">
<title>Node4&#45;&gt;Node26</title>
<path fill="none" stroke="#191970" d="M2351.4225,-192.4741C2583.0927,-188.8501 3289.3099,-174.4386 3514,-131 3517.0537,-130.4096 3520.1513,-129.725 3523.2625,-128.9667"/>
<polygon fill="#191970" stroke="#191970" points="2351.0252,-188.9797 2341.0804,-192.6336 2351.1332,-195.9789 2351.0252,-188.9797"/>
</g>
<!-- Node27 -->
<g id="node25" class="node">
<title>Node27</title>
<g id="a_node25"><a xlink:href="../../dc/d6e/testTRDDiffusionCoefficient_8cxx.html" target="_top" xlink:title="This task tests the Diffusion Coefficient module of the TRD digitization. ">
<polygon fill="none" stroke="#000000" points="3676.5,-78.5 3676.5,-130.5 3851.5,-130.5 3851.5,-78.5 3676.5,-78.5"/>
<text text-anchor="start" x="3684.5" y="-118.5" font-family="Helvetica,sans-Serif" font-size="10.00" fill="#000000">/home/travis/build</text>
<text text-anchor="start" x="3684.5" y="-107.5" font-family="Helvetica,sans-Serif" font-size="10.00" fill="#000000">/AliceO2Group/AliceO2</text>
<text text-anchor="start" x="3684.5" y="-96.5" font-family="Helvetica,sans-Serif" font-size="10.00" fill="#000000">/Detectors/TRD/base/test</text>
<text text-anchor="middle" x="3764" y="-85.5" font-family="Helvetica,sans-Serif" font-size="10.00" fill="#000000">/testTRDDiffusionCoefficient.cxx</text>
</a>
</g>
</g>
<!-- Node4&#45;&gt;Node27 -->
<g id="edge25" class="edge">
<title>Node4&#45;&gt;Node27</title>
<path fill="none" stroke="#191970" d="M2351.4383,-192.3283C2601.4879,-188.0518 3410.0006,-171.3705 3667,-131 3670.1043,-130.5124 3673.2516,-129.9623 3676.4205,-129.361"/>
<polygon fill="#191970" stroke="#191970" points="2351.3043,-188.83 2341.3651,-192.4991 2351.423,-195.829 2351.3043,-188.83"/>
</g>
<!-- Node28 -->
<g id="node26" class="node">
<title>Node28</title>
<g id="a_node26"><a xlink:href="../../dd/d2b/o2__sim__its__ALP3_8cxx.html" target="_top" xlink:title="/home/travis/build\l/AliceO2Group/AliceO2\l/Framework/TestWorkflows\l/src/o2_sim_its_ALP3.cxx">
<polygon fill="none" stroke="#000000" points="3870,-78.5 3870,-130.5 4016,-130.5 4016,-78.5 3870,-78.5"/>
<text text-anchor="start" x="3878" y="-118.5" font-family="Helvetica,sans-Serif" font-size="10.00" fill="#000000">/home/travis/build</text>
<text text-anchor="start" x="3878" y="-107.5" font-family="Helvetica,sans-Serif" font-size="10.00" fill="#000000">/AliceO2Group/AliceO2</text>
<text text-anchor="start" x="3878" y="-96.5" font-family="Helvetica,sans-Serif" font-size="10.00" fill="#000000">/Framework/TestWorkflows</text>
<text text-anchor="middle" x="3943" y="-85.5" font-family="Helvetica,sans-Serif" font-size="10.00" fill="#000000">/src/o2_sim_its_ALP3.cxx</text>
</a>
</g>
</g>
<!-- Node4&#45;&gt;Node28 -->
<g id="edge26" class="edge">
<title>Node4&#45;&gt;Node28</title>
<path fill="none" stroke="#191970" d="M2351.5007,-193.2146C2623.8083,-191.7586 3564.6498,-182.9933 3860,-131 3863.2774,-130.423 3866.6045,-129.7495 3869.9485,-129.0004"/>
<polygon fill="#191970" stroke="#191970" points="2351.3124,-189.7155 2341.3306,-193.2672 2351.3487,-196.7154 2351.3124,-189.7155"/>
</g>
<!-- Node29 -->
<g id="node27" class="node">
<title>Node29</title>
<g id="a_node27"><a xlink:href="../../d7/d11/o2__sim__tpc_8cxx.html" target="_top" xlink:title="/home/travis/build\l/AliceO2Group/AliceO2\l/Framework/TestWorkflows\l/src/o2_sim_tpc.cxx">
<polygon fill="none" stroke="#000000" points="4034,-78.5 4034,-130.5 4180,-130.5 4180,-78.5 4034,-78.5"/>
<text text-anchor="start" x="4042" y="-118.5" font-family="Helvetica,sans-Serif" font-size="10.00" fill="#000000">/home/travis/build</text>
<text text-anchor="start" x="4042" y="-107.5" font-family="Helvetica,sans-Serif" font-size="10.00" fill="#000000">/AliceO2Group/AliceO2</text>
<text text-anchor="start" x="4042" y="-96.5" font-family="Helvetica,sans-Serif" font-size="10.00" fill="#000000">/Framework/TestWorkflows</text>
<text text-anchor="middle" x="4107" y="-85.5" font-family="Helvetica,sans-Serif" font-size="10.00" fill="#000000">/src/o2_sim_tpc.cxx</text>
</a>
</g>
</g>
<!-- Node4&#45;&gt;Node29 -->
<g id="edge27" class="edge">
<title>Node4&#45;&gt;Node29</title>
<path fill="none" stroke="#191970" d="M2351.5705,-192.05C2663.9606,-185.8101 3858.8458,-160.2333 4025,-131 4027.9469,-130.4815 4030.9339,-129.8823 4033.9367,-129.2181"/>
<polygon fill="#191970" stroke="#191970" points="2351.1988,-188.5566 2341.2705,-192.2551 2351.3382,-195.5552 2351.1988,-188.5566"/>
</g>
<!-- Node5&#45;&gt;Node6 -->
<g id="edge3" class="edge">
<title>Node5&#45;&gt;Node6</title>
<path fill="none" stroke="#191970" d="M100.4013,-71.4618C111.5289,-61.3624 123.4407,-50.5511 133.3728,-41.5367"/>
<polygon fill="#191970" stroke="#191970" points="97.9096,-68.9967 92.857,-78.3092 102.6141,-74.1801 97.9096,-68.9967"/>
</g>
</g>
</svg>
