<?xml version="1.0" encoding="UTF-8" standalone="no"?>
<!DOCTYPE svg PUBLIC "-//W3C//DTD SVG 1.1//EN"
 "http://www.w3.org/Graphics/SVG/1.1/DTD/svg11.dtd">
<!-- Generated by graphviz version 2.40.1 (20161225.0304)
 -->
<!-- Title: /home/travis/build/AliceO2Group/AliceO2/Framework/Core/test/benchmark_TableBuilder.cxx Pages: 1 -->
<!--zoomable 341 -->
<svg id="main" version="1.1" xmlns="http://www.w3.org/2000/svg" xmlns:xlink="http://www.w3.org/1999/xlink" xml:space="preserve" onload="init(evt)">
<style type="text/css"><![CDATA[
.edge:hover path { stroke: red; }
.edge:hover polygon { stroke: red; fill: red; }
]]></style>
<script type="text/javascript"><![CDATA[
var edges = document.getElementsByTagName('g');
if (edges && edges.length) {
  for (var i=0;i<edges.length;i++) {
    if (edges[i].id.substr(0,4)=='edge') {
      edges[i].setAttribute('class','edge');
    }
  }
}
]]></script>
        <defs>
                <circle id="rim" cx="0" cy="0" r="7"/>
                <circle id="rim2" cx="0" cy="0" r="3.5"/>
                <g id="zoomPlus">
                        <use xlink:href="#rim" fill="#404040">
                                <set attributeName="fill" to="#808080" begin="zoomplus.mouseover" end="zoomplus.mouseout"/>
                        </use>
                        <path d="M-4,0h8M0,-4v8" fill="none" stroke="white" stroke-width="1.5" pointer-events="none"/>
                </g>
                <g id="zoomMin">
                        <use xlink:href="#rim" fill="#404040">
                                <set attributeName="fill" to="#808080" begin="zoomminus.mouseover" end="zoomminus.mouseout"/>
                        </use>
                        <path d="M-4,0h8" fill="none" stroke="white" stroke-width="1.5" pointer-events="none"/>
                </g>
                <g id="dirArrow">
                        <path fill="none" stroke="white" stroke-width="1.5" d="M0,-3.0v7 M-2.5,-0.5L0,-3.0L2.5,-0.5"/>
                </g>
               <g id="resetDef">
                       <use xlink:href="#rim2" fill="#404040">
                               <set attributeName="fill" to="#808080" begin="reset.mouseover" end="reset.mouseout"/>
                       </use>
               </g>
        </defs>

<script type="text/javascript">
var viewWidth = 2329;
var viewHeight = 341;
var sectionId = 'dynsection-0';
</script>
<script xlink:href="../../svgpan.js"/>
<svg id="graph" class="graph">
<g id="viewport">
<title>/home/travis/build/AliceO2Group/AliceO2/Framework/Core/test/benchmark_TableBuilder.cxx</title>
<!-- Node0 -->
<g id="node1" class="node">
<title>Node0</title>
<polygon fill="#bfbfbf" stroke="#000000" points="1996,-280.5 1996,-332.5 2175,-332.5 2175,-280.5 1996,-280.5"/>
<text text-anchor="start" x="2004" y="-320.5" font-family="Helvetica,sans-Serif" font-size="10.00" fill="#000000">/home/travis/build</text>
<text text-anchor="start" x="2004" y="-309.5" font-family="Helvetica,sans-Serif" font-size="10.00" fill="#000000">/AliceO2Group/AliceO2</text>
<text text-anchor="start" x="2004" y="-298.5" font-family="Helvetica,sans-Serif" font-size="10.00" fill="#000000">/Framework/Core/test/benchmark</text>
<text text-anchor="middle" x="2085.5" y="-287.5" font-family="Helvetica,sans-Serif" font-size="10.00" fill="#000000">_TableBuilder.cxx</text>
</g>
<!-- Node1 -->
<g id="node2" class="node">
<title>Node1</title>
<g id="a_node2"><a xlink:href="../../d5/d98/TableBuilder_8h.html" target="_top" xlink:title="Framework/TableBuilder.h">
<polygon fill="none" stroke="#000000" points="1662.5,-224.5 1662.5,-243.5 1804.5,-243.5 1804.5,-224.5 1662.5,-224.5"/>
<text text-anchor="middle" x="1733.5" y="-231.5" font-family="Helvetica,sans-Serif" font-size="10.00" fill="#000000">Framework/TableBuilder.h</text>
</a>
</g>
</g>
<!-- Node0&#45;&gt;Node1 -->
<g id="edge1" class="edge">
<title>Node0&#45;&gt;Node1</title>
<path fill="none" stroke="#191970" d="M1995.7648,-288.0176C1930.9519,-274.6684 1845.4033,-257.0483 1789.9252,-245.6217"/>
<polygon fill="#191970" stroke="#191970" points="1790.4285,-242.1519 1779.928,-243.5626 1789.0163,-249.008 1790.4285,-242.1519"/>
</g>
<!-- Node41 -->
<g id="node42" class="node">
<title>Node41</title>
<g id="a_node42"><a xlink:href="../../dc/d03/TableConsumer_8h.html" target="_top" xlink:title="Framework/TableConsumer.h">
<polygon fill="none" stroke="#000000" points="2007,-224.5 2007,-243.5 2164,-243.5 2164,-224.5 2007,-224.5"/>
<text text-anchor="middle" x="2085.5" y="-231.5" font-family="Helvetica,sans-Serif" font-size="10.00" fill="#000000">Framework/TableConsumer.h</text>
</a>
</g>
</g>
<!-- Node0&#45;&gt;Node41 -->
<g id="edge58" class="edge">
<title>Node0&#45;&gt;Node41</title>
<path fill="none" stroke="#191970" d="M2085.5,-280.3258C2085.5,-271.5142 2085.5,-261.8397 2085.5,-253.621"/>
<polygon fill="#191970" stroke="#191970" points="2089.0001,-253.534 2085.5,-243.534 2082.0001,-253.534 2089.0001,-253.534"/>
</g>
<!-- Node42 -->
<g id="node43" class="node">
<title>Node42</title>
<polygon fill="none" stroke="#bfbfbf" points="2182.5,-224.5 2182.5,-243.5 2320.5,-243.5 2320.5,-224.5 2182.5,-224.5"/>
<text text-anchor="middle" x="2251.5" y="-231.5" font-family="Helvetica,sans-Serif" font-size="10.00" fill="#000000">benchmark/benchmark.h</text>
</g>
<!-- Node0&#45;&gt;Node42 -->
<g id="edge60" class="edge">
<title>Node0&#45;&gt;Node42</title>
<path fill="none" stroke="#191970" d="M2145.4298,-280.3258C2170.7641,-269.2612 2199.2133,-256.8361 2220.2662,-247.6413"/>
<polygon fill="#191970" stroke="#191970" points="2221.9072,-250.7439 2229.6704,-243.534 2219.1055,-244.329 2221.9072,-250.7439"/>
</g>
<!-- Node2 -->
<g id="node3" class="node">
<title>Node2</title>
<g id="a_node3"><a xlink:href="../../de/d33/ASoA_8h.html" target="_top" xlink:title="Framework/ASoA.h">
<polygon fill="none" stroke="#000000" points="968.5,-168.5 968.5,-187.5 1076.5,-187.5 1076.5,-168.5 968.5,-168.5"/>
<text text-anchor="middle" x="1022.5" y="-175.5" font-family="Helvetica,sans-Serif" font-size="10.00" fill="#000000">Framework/ASoA.h</text>
</a>
</g>
</g>
<!-- Node1&#45;&gt;Node2 -->
<g id="edge2" class="edge">
<title>Node1&#45;&gt;Node2</title>
<path fill="none" stroke="#191970" d="M1662.3995,-228.4C1523.9207,-217.4931 1219.9911,-193.5549 1086.9801,-183.0786"/>
<polygon fill="#191970" stroke="#191970" points="1087.1823,-179.5838 1076.9384,-182.2877 1086.6326,-186.5622 1087.1823,-179.5838"/>
</g>
<!-- Node8 -->
<g id="node9" class="node">
<title>Node8</title>
<g id="a_node9"><a xlink:href="../../de/d9b/FunctionalHelpers_8h.html" target="_top" xlink:title="Framework/FunctionalHelpers.h">
<polygon fill="none" stroke="#000000" points="243.5,-112.5 243.5,-131.5 413.5,-131.5 413.5,-112.5 243.5,-112.5"/>
<text text-anchor="middle" x="328.5" y="-119.5" font-family="Helvetica,sans-Serif" font-size="10.00" fill="#000000">Framework/FunctionalHelpers.h</text>
</a>
</g>
</g>
<!-- Node1&#45;&gt;Node8 -->
<g id="edge45" class="edge">
<title>Node1&#45;&gt;Node8</title>
<path fill="none" stroke="#191970" d="M1662.4629,-230.8201C1526.0721,-224.4837 1218.1088,-209.0592 959.5,-188 721.8623,-168.6486 660.5161,-158.0831 423.7177,-132.5608"/>
<polygon fill="#191970" stroke="#191970" points="424.0855,-129.0802 413.7685,-131.4907 423.3369,-136.0401 424.0855,-129.0802"/>
</g>
<!-- Node9 -->
<g id="node10" class="node">
<title>Node9</title>
<polygon fill="none" stroke="#bfbfbf" points="0,-56.5 0,-75.5 65,-75.5 65,-56.5 0,-56.5"/>
<text text-anchor="middle" x="32.5" y="-63.5" font-family="Helvetica,sans-Serif" font-size="10.00" fill="#000000">functional</text>
</g>
<!-- Node1&#45;&gt;Node9 -->
<g id="edge53" class="edge">
<title>Node1&#45;&gt;Node9</title>
<path fill="none" stroke="#191970" d="M1662.4468,-232.7427C1401.4395,-227.9657 504.1851,-210.0909 377.5,-188 255.6233,-166.7476 119.5359,-107.2342 61.3796,-79.9661"/>
<polygon fill="#191970" stroke="#191970" points="62.623,-76.6825 52.0866,-75.571 59.6302,-83.0105 62.623,-76.6825"/>
</g>
<!-- Node19 -->
<g id="node20" class="node">
<title>Node19</title>
<polygon fill="none" stroke="#bfbfbf" points="1865,-56.5 1865,-75.5 1946,-75.5 1946,-56.5 1865,-56.5"/>
<text text-anchor="middle" x="1905.5" y="-63.5" font-family="Helvetica,sans-Serif" font-size="10.00" fill="#000000">arrow/table.h</text>
</g>
<!-- Node1&#45;&gt;Node19 -->
<g id="edge51" class="edge">
<title>Node1&#45;&gt;Node19</title>
<path fill="none" stroke="#191970" d="M1662.2857,-228.5203C1605.9558,-222.5314 1533.8345,-210.6069 1515.5,-188 1494.2235,-161.7655 1492.9041,-137.107 1515.5,-112 1564.5325,-57.5185 1765.076,-85.3027 1854.7929,-75.8959"/>
<polygon fill="#191970" stroke="#191970" points="1855.4395,-79.3417 1864.9122,-74.5962 1854.5477,-72.3987 1855.4395,-79.3417"/>
</g>
<!-- Node26 -->
<g id="node27" class="node">
<title>Node26</title>
<polygon fill="none" stroke="#bfbfbf" points="1964.5,-56.5 1964.5,-75.5 2008.5,-75.5 2008.5,-56.5 1964.5,-56.5"/>
<text text-anchor="middle" x="1986.5" y="-63.5" font-family="Helvetica,sans-Serif" font-size="10.00" fill="#000000">string</text>
</g>
<!-- Node1&#45;&gt;Node26 -->
<g id="edge55" class="edge">
<title>Node1&#45;&gt;Node26</title>
<path fill="none" stroke="#191970" d="M1662.2658,-225.3902C1616.3745,-218.2116 1562.718,-206.1863 1548.5,-188 1527.6958,-161.3894 1525.692,-136.9145 1548.5,-112 1577.5983,-80.2143 1878.0803,-84.4671 1954.1087,-75.3943"/>
<polygon fill="#191970" stroke="#191970" points="1954.9605,-78.8042 1964.3077,-73.8162 1953.8901,-71.8865 1954.9605,-78.8042"/>
</g>
<!-- Node27 -->
<g id="node28" class="node">
<title>Node27</title>
<polygon fill="none" stroke="#bfbfbf" points="2114.5,-56.5 2114.5,-75.5 2172.5,-75.5 2172.5,-56.5 2114.5,-56.5"/>
<text text-anchor="middle" x="2143.5" y="-63.5" font-family="Helvetica,sans-Serif" font-size="10.00" fill="#000000">memory</text>
</g>
<!-- Node1&#45;&gt;Node27 -->
<g id="edge56" class="edge">
<title>Node1&#45;&gt;Node27</title>
<path fill="none" stroke="#191970" d="M1739.363,-224.3755C1748.6372,-209.9647 1768.0661,-182.8864 1791.5,-168 1805.0421,-159.3974 2015.8092,-101.0175 2104.5697,-76.6501"/>
<polygon fill="#191970" stroke="#191970" points="2105.5523,-80.0099 2114.2701,-73.9891 2103.7005,-73.2593 2105.5523,-80.0099"/>
</g>
<!-- Node33 -->
<g id="node34" class="node">
<title>Node33</title>
<g id="a_node34"><a xlink:href="../../db/d4f/StructToTuple_8h.html" target="_top" xlink:title="Framework/StructToTuple.h">
<polygon fill="none" stroke="#000000" points="1558,-168.5 1558,-187.5 1705,-187.5 1705,-168.5 1558,-168.5"/>
<text text-anchor="middle" x="1631.5" y="-175.5" font-family="Helvetica,sans-Serif" font-size="10.00" fill="#000000">Framework/StructToTuple.h</text>
</a>
</g>
</g>
<!-- Node1&#45;&gt;Node33 -->
<g id="edge41" class="edge">
<title>Node1&#45;&gt;Node33</title>
<path fill="none" stroke="#191970" d="M1715.733,-224.2455C1699.7905,-215.4928 1676.1741,-202.527 1658.0011,-192.5496"/>
<polygon fill="#191970" stroke="#191970" points="1659.5137,-189.3873 1649.0634,-187.6427 1656.1448,-195.5233 1659.5137,-189.3873"/>
</g>
<!-- Node34 -->
<g id="node35" class="node">
<title>Node34</title>
<polygon fill="none" stroke="#bfbfbf" points="1724,-112.5 1724,-131.5 1765,-131.5 1765,-112.5 1724,-112.5"/>
<text text-anchor="middle" x="1744.5" y="-119.5" font-family="Helvetica,sans-Serif" font-size="10.00" fill="#000000">tuple</text>
</g>
<!-- Node1&#45;&gt;Node34 -->
<g id="edge57" class="edge">
<title>Node1&#45;&gt;Node34</title>
<path fill="none" stroke="#191970" d="M1734.4379,-224.4509C1736.2319,-206.184 1740.183,-165.9553 1742.5654,-141.6976"/>
<polygon fill="#191970" stroke="#191970" points="1746.0702,-141.8191 1743.5645,-131.5249 1739.1038,-141.1349 1746.0702,-141.8191"/>
</g>
<!-- Node35 -->
<g id="node36" class="node">
<title>Node35</title>
<g id="a_node36"><a xlink:href="../../d7/dbe/VariantHelpers_8h.html" target="_top" xlink:title="Framework/VariantHelpers.h">
<polygon fill="none" stroke="#000000" points="387,-168.5 387,-187.5 542,-187.5 542,-168.5 387,-168.5"/>
<text text-anchor="middle" x="464.5" y="-175.5" font-family="Helvetica,sans-Serif" font-size="10.00" fill="#000000">Framework/VariantHelpers.h</text>
</a>
</g>
</g>
<!-- Node1&#45;&gt;Node35 -->
<g id="edge46" class="edge">
<title>Node1&#45;&gt;Node35</title>
<path fill="none" stroke="#191970" d="M1662.0961,-230.849C1444.5651,-221.2495 790.4573,-192.3842 552.3794,-181.878"/>
<polygon fill="#191970" stroke="#191970" points="552.1847,-178.3661 542.04,-181.4218 551.876,-185.3593 552.1847,-178.3661"/>
</g>
<!-- Node36 -->
<g id="node37" class="node">
<title>Node36</title>
<polygon fill="none" stroke="#bfbfbf" points="1800,-168.5 1800,-187.5 1909,-187.5 1909,-168.5 1800,-168.5"/>
<text text-anchor="middle" x="1854.5" y="-175.5" font-family="Helvetica,sans-Serif" font-size="10.00" fill="#000000">arrow/type_traits.h</text>
</g>
<!-- Node1&#45;&gt;Node36 -->
<g id="edge48" class="edge">
<title>Node1&#45;&gt;Node36</title>
<path fill="none" stroke="#191970" d="M1754.3006,-224.3733C1773.7243,-215.3838 1802.9224,-201.8706 1824.7964,-191.7471"/>
<polygon fill="#191970" stroke="#191970" points="1826.3656,-194.8776 1833.9708,-187.5011 1823.4255,-188.5249 1826.3656,-194.8776"/>
</g>
<!-- Node37 -->
<g id="node38" class="node">
<title>Node37</title>
<polygon fill="none" stroke="#bfbfbf" points="1927.5,-168.5 1927.5,-187.5 1983.5,-187.5 1983.5,-168.5 1927.5,-168.5"/>
<text text-anchor="middle" x="1955.5" y="-175.5" font-family="Helvetica,sans-Serif" font-size="10.00" fill="#000000">sstream</text>
</g>
<!-- Node1&#45;&gt;Node37 -->
<g id="edge49" class="edge">
<title>Node1&#45;&gt;Node37</title>
<path fill="none" stroke="#191970" d="M1772.8956,-224.4493C1808.2652,-215.82 1861.8626,-202.6096 1917.2428,-188.2927"/>
<polygon fill="#191970" stroke="#191970" points="1918.4322,-191.6002 1927.2339,-185.7027 1916.6755,-184.8242 1918.4322,-191.6002"/>
</g>
<!-- Node38 -->
<g id="node39" class="node">
<title>Node38</title>
<polygon fill="none" stroke="#bfbfbf" points="2001.5,-168.5 2001.5,-187.5 2069.5,-187.5 2069.5,-168.5 2001.5,-168.5"/>
<text text-anchor="middle" x="2035.5" y="-175.5" font-family="Helvetica,sans-Serif" font-size="10.00" fill="#000000">arrow/stl.h</text>
</g>
<!-- Node1&#45;&gt;Node38 -->
<g id="edge50" class="edge">
<title>Node1&#45;&gt;Node38</title>
<path fill="none" stroke="#191970" d="M1792.3004,-224.4651C1842.6451,-216.0948 1917.2967,-203.1953 1991.3057,-188.169"/>
<polygon fill="#191970" stroke="#191970" points="1992.1718,-191.5644 2001.2682,-186.1324 1990.7698,-184.7062 1992.1718,-191.5644"/>
</g>
<!-- Node39 -->
<g id="node40" class="node">
<title>Node39</title>
<polygon fill="none" stroke="#bfbfbf" points="2088,-168.5 2088,-187.5 2177,-187.5 2177,-168.5 2088,-168.5"/>
<text text-anchor="middle" x="2132.5" y="-175.5" font-family="Helvetica,sans-Serif" font-size="10.00" fill="#000000">arrow/builder.h</text>
</g>
<!-- Node1&#45;&gt;Node39 -->
<g id="edge52" class="edge">
<title>Node1&#45;&gt;Node39</title>
<path fill="none" stroke="#191970" d="M1804.6828,-225.5755C1872.297,-217.3303 1977.0471,-203.9282 2077.7009,-188.062"/>
<polygon fill="#191970" stroke="#191970" points="2078.4131,-191.4928 2087.741,-186.4689 2077.316,-184.5793 2078.4131,-191.4928"/>
</g>
<!-- Node40 -->
<g id="node41" class="node">
<title>Node40</title>
<polygon fill="none" stroke="#bfbfbf" points="2195,-168.5 2195,-187.5 2242,-187.5 2242,-168.5 2195,-168.5"/>
<text text-anchor="middle" x="2218.5" y="-175.5" font-family="Helvetica,sans-Serif" font-size="10.00" fill="#000000">vector</text>
</g>
<!-- Node1&#45;&gt;Node40 -->
<g id="edge54" class="edge">
<title>Node1&#45;&gt;Node40</title>
<path fill="none" stroke="#191970" d="M1804.7874,-231.2051C1892.4907,-226.7768 2045.8979,-215.8143 2184.8921,-187.9988"/>
<polygon fill="#191970" stroke="#191970" points="2185.7729,-191.3914 2194.8737,-185.9668 2184.3765,-184.5321 2185.7729,-191.3914"/>
</g>
<!-- Node3 -->
<g id="node4" class="node">
<title>Node3</title>
<g id="a_node4"><a xlink:href="../../dd/dce/Pack_8h.html" target="_top" xlink:title="Framework/Pack.h">
<polygon fill="none" stroke="#000000" points="266,-56.5 266,-75.5 371,-75.5 371,-56.5 266,-56.5"/>
<text text-anchor="middle" x="318.5" y="-63.5" font-family="Helvetica,sans-Serif" font-size="10.00" fill="#000000">Framework/Pack.h</text>
</a>
</g>
</g>
<!-- Node2&#45;&gt;Node3 -->
<g id="edge3" class="edge">
<title>Node2&#45;&gt;Node3</title>
<path fill="none" stroke="#191970" d="M992.5251,-168.4259C967.4269,-160.0037 930.932,-146.8023 900.5,-132 885.0776,-124.4984 883.8361,-117.2208 867.5,-112 663.895,-46.931 598.0466,-99.6545 381.3227,-75.9674"/>
<polygon fill="#191970" stroke="#191970" points="381.5531,-72.4711 371.222,-74.8203 380.7632,-79.4264 381.5531,-72.4711"/>
</g>
<!-- Node7 -->
<g id="node8" class="node">
<title>Node7</title>
<g id="a_node8"><a xlink:href="../../d1/d00/CheckTypes_8h.html" target="_top" xlink:title="Framework/CheckTypes.h">
<polygon fill="none" stroke="#000000" points="389.5,-56.5 389.5,-75.5 529.5,-75.5 529.5,-56.5 389.5,-56.5"/>
<text text-anchor="middle" x="459.5" y="-63.5" font-family="Helvetica,sans-Serif" font-size="10.00" fill="#000000">Framework/CheckTypes.h</text>
</a>
</g>
</g>
<!-- Node2&#45;&gt;Node7 -->
<g id="edge7" class="edge">
<title>Node2&#45;&gt;Node7</title>
<path fill="none" stroke="#191970" d="M1006.7155,-168.4387C978.9806,-151.8135 922.3722,-118.7062 900.5,-112 749.0903,-65.5766 701.1234,-92.9741 539.9725,-76.104"/>
<polygon fill="#191970" stroke="#191970" points="540.0198,-72.5886 529.6996,-74.9851 539.2618,-79.5474 540.0198,-72.5886"/>
</g>
<!-- Node2&#45;&gt;Node8 -->
<g id="edge8" class="edge">
<title>Node2&#45;&gt;Node8</title>
<path fill="none" stroke="#191970" d="M968.3321,-173.6291C850.963,-164.1584 571.8808,-141.6388 424.1042,-129.7145"/>
<polygon fill="#191970" stroke="#191970" points="423.9444,-126.1903 413.6953,-128.8745 423.3813,-133.1676 423.9444,-126.1903"/>
</g>
<!-- Node10 -->
<g id="node11" class="node">
<title>Node10</title>
<g id="a_node11"><a xlink:href="../../d9/de8/CompilerBuiltins_8h.html" target="_top" xlink:title="Framework/CompilerBuiltins.h">
<polygon fill="none" stroke="#000000" points="83.5,-56.5 83.5,-75.5 247.5,-75.5 247.5,-56.5 83.5,-56.5"/>
<text text-anchor="middle" x="165.5" y="-63.5" font-family="Helvetica,sans-Serif" font-size="10.00" fill="#000000">Framework/CompilerBuiltins.h</text>
</a>
</g>
</g>
<!-- Node2&#45;&gt;Node10 -->
<g id="edge11" class="edge">
<title>Node2&#45;&gt;Node10</title>
<path fill="none" stroke="#191970" d="M968.4406,-175.1513C875.7596,-169.8046 680.7355,-156.5316 517.5,-132 474.8314,-125.5876 464.8524,-120.2465 422.5,-112 357.7439,-99.3913 283.5482,-86.2507 231.5783,-77.2587"/>
<polygon fill="#191970" stroke="#191970" points="231.9397,-73.7693 221.49,-75.5169 230.7487,-80.6673 231.9397,-73.7693"/>
</g>
<!-- Node11 -->
<g id="node12" class="node">
<title>Node11</title>
<g id="a_node12"><a xlink:href="../../db/d31/Traits_8h.html" target="_top" xlink:title="Framework/Traits.h">
<polygon fill="none" stroke="#000000" points="1558,-112.5 1558,-131.5 1667,-131.5 1667,-112.5 1558,-112.5"/>
<text text-anchor="middle" x="1612.5" y="-119.5" font-family="Helvetica,sans-Serif" font-size="10.00" fill="#000000">Framework/Traits.h</text>
</a>
</g>
</g>
<!-- Node2&#45;&gt;Node11 -->
<g id="edge12" class="edge">
<title>Node2&#45;&gt;Node11</title>
<path fill="none" stroke="#191970" d="M1076.6852,-172.857C1185.4981,-162.529 1430.174,-139.3055 1547.4325,-128.1759"/>
<polygon fill="#191970" stroke="#191970" points="1548.0696,-131.6313 1557.6941,-127.2019 1547.4081,-124.6626 1548.0696,-131.6313"/>
</g>
<!-- Node13 -->
<g id="node14" class="node">
<title>Node13</title>
<g id="a_node14"><a xlink:href="../../d0/d91/Expressions_8h.html" target="_top" xlink:title="Framework/Expressions.h">
<polygon fill="none" stroke="#000000" points="1110,-112.5 1110,-131.5 1251,-131.5 1251,-112.5 1110,-112.5"/>
<text text-anchor="middle" x="1180.5" y="-119.5" font-family="Helvetica,sans-Serif" font-size="10.00" fill="#000000">Framework/Expressions.h</text>
</a>
</g>
</g>
<!-- Node2&#45;&gt;Node13 -->
<g id="edge14" class="edge">
<title>Node2&#45;&gt;Node13</title>
<path fill="none" stroke="#191970" d="M1049.6612,-168.3733C1075.7067,-159.1419 1115.2116,-145.1402 1143.9979,-134.9375"/>
<polygon fill="#191970" stroke="#191970" points="1145.437,-138.1408 1153.6933,-131.5011 1143.0985,-131.5429 1145.437,-138.1408"/>
</g>
<!-- Node2&#45;&gt;Node19 -->
<g id="edge34" class="edge">
<title>Node2&#45;&gt;Node19</title>
<path fill="none" stroke="#191970" d="M1076.6481,-174.1405C1172.5785,-166.9398 1368.4903,-150.5014 1434.5,-132 1454.7951,-126.3116 1457.1587,-117.5209 1477.5,-112 1637.6853,-68.5237 1687.2641,-99.7132 1855.0126,-76.0692"/>
<polygon fill="#191970" stroke="#191970" points="1855.5248,-79.5316 1864.9172,-74.6292 1854.5176,-72.6044 1855.5248,-79.5316"/>
</g>
<!-- Node20 -->
<g id="node21" class="node">
<title>Node20</title>
<polygon fill="none" stroke="#bfbfbf" points="1603,-56.5 1603,-75.5 1750,-75.5 1750,-56.5 1603,-56.5"/>
<text text-anchor="middle" x="1676.5" y="-63.5" font-family="Helvetica,sans-Serif" font-size="10.00" fill="#000000">gandiva/selection_vector.h</text>
</g>
<!-- Node2&#45;&gt;Node20 -->
<g id="edge38" class="edge">
<title>Node2&#45;&gt;Node20</title>
<path fill="none" stroke="#191970" d="M1076.5821,-171.1968C1125.2135,-164.2143 1198.2129,-151.5758 1259.5,-132 1279.9625,-125.4641 1282.8242,-117.8262 1303.5,-112 1306.9732,-111.0213 1483.904,-89.412 1592.807,-76.1641"/>
<polygon fill="#191970" stroke="#191970" points="1593.2958,-79.6305 1602.8001,-74.9486 1592.4506,-72.6817 1593.2958,-79.6305"/>
</g>
<!-- Node24 -->
<g id="node25" class="node">
<title>Node24</title>
<polygon fill="none" stroke="#bfbfbf" points="1768,-56.5 1768,-75.5 1847,-75.5 1847,-56.5 1768,-56.5"/>
<text text-anchor="middle" x="1807.5" y="-63.5" font-family="Helvetica,sans-Serif" font-size="10.00" fill="#000000">fmt/format.h</text>
</g>
<!-- Node2&#45;&gt;Node24 -->
<g id="edge40" class="edge">
<title>Node2&#45;&gt;Node24</title>
<path fill="none" stroke="#191970" d="M1076.6806,-173.4884C1132.5576,-167.7731 1221.7003,-155.6716 1295.5,-132 1314.8058,-125.8076 1316.9565,-117.3956 1336.5,-112 1515.1784,-62.6699 1570.8516,-101.8598 1757.6015,-76.1108"/>
<polygon fill="#191970" stroke="#191970" points="1758.3464,-79.5401 1767.7532,-74.6654 1757.3597,-72.61 1758.3464,-79.5401"/>
</g>
<!-- Node28 -->
<g id="node29" class="node">
<title>Node28</title>
<g id="a_node29"><a xlink:href="../../d4/de7/ArrowTypes_8h.html" target="_top" xlink:title="Framework/ArrowTypes.h">
<polygon fill="none" stroke="#000000" points="953,-112.5 953,-131.5 1092,-131.5 1092,-112.5 953,-112.5"/>
<text text-anchor="middle" x="1022.5" y="-119.5" font-family="Helvetica,sans-Serif" font-size="10.00" fill="#000000">Framework/ArrowTypes.h</text>
</a>
</g>
</g>
<!-- Node2&#45;&gt;Node28 -->
<g id="edge32" class="edge">
<title>Node2&#45;&gt;Node28</title>
<path fill="none" stroke="#191970" d="M1022.5,-168.2455C1022.5,-160.9382 1022.5,-150.6944 1022.5,-141.7046"/>
<polygon fill="#191970" stroke="#191970" points="1026.0001,-141.6426 1022.5,-131.6427 1019.0001,-141.6427 1026.0001,-141.6426"/>
</g>
<!-- Node29 -->
<g id="node30" class="node">
<title>Node29</title>
<polygon fill="none" stroke="#bfbfbf" points="1345.5,-112.5 1345.5,-131.5 1425.5,-131.5 1425.5,-112.5 1345.5,-112.5"/>
<text text-anchor="middle" x="1385.5" y="-119.5" font-family="Helvetica,sans-Serif" font-size="10.00" fill="#000000">arrow/array.h</text>
</g>
<!-- Node2&#45;&gt;Node29 -->
<g id="edge35" class="edge">
<title>Node2&#45;&gt;Node29</title>
<path fill="none" stroke="#191970" d="M1076.7353,-170.5175C1138.5101,-161.8575 1242.4285,-146.8725 1331.5,-132 1332.7696,-131.788 1334.0554,-131.5706 1335.3523,-131.3489"/>
<polygon fill="#191970" stroke="#191970" points="1336.1773,-134.7577 1345.4233,-129.5844 1334.9693,-127.8627 1336.1773,-134.7577"/>
</g>
<!-- Node30 -->
<g id="node31" class="node">
<title>Node30</title>
<polygon fill="none" stroke="#bfbfbf" points="526.5,-112.5 526.5,-131.5 636.5,-131.5 636.5,-112.5 526.5,-112.5"/>
<text text-anchor="middle" x="581.5" y="-119.5" font-family="Helvetica,sans-Serif" font-size="10.00" fill="#000000">arrow/util/variant.h</text>
</g>
<!-- Node2&#45;&gt;Node30 -->
<g id="edge36" class="edge">
<title>Node2&#45;&gt;Node30</title>
<path fill="none" stroke="#191970" d="M968.4232,-171.9796C897.1502,-163.9164 767.6085,-148.8193 646.8065,-132.1459"/>
<polygon fill="#191970" stroke="#191970" points="647.0266,-128.643 636.6406,-130.736 646.065,-135.5766 647.0266,-128.643"/>
</g>
<!-- Node31 -->
<g id="node32" class="node">
<title>Node31</title>
<polygon fill="none" stroke="#bfbfbf" points="655,-112.5 655,-131.5 788,-131.5 788,-112.5 655,-112.5"/>
<text text-anchor="middle" x="721.5" y="-119.5" font-family="Helvetica,sans-Serif" font-size="10.00" fill="#000000">arrow/compute/kernel.h</text>
</g>
<!-- Node2&#45;&gt;Node31 -->
<g id="edge37" class="edge">
<title>Node2&#45;&gt;Node31</title>
<path fill="none" stroke="#191970" d="M971.0983,-168.4369C918.9351,-158.7321 838.1803,-143.708 782.7354,-133.3926"/>
<polygon fill="#191970" stroke="#191970" points="783.1612,-129.9119 772.6897,-131.5237 781.8808,-136.7938 783.1612,-129.9119"/>
</g>
<!-- Node32 -->
<g id="node33" class="node">
<title>Node32</title>
<polygon fill="none" stroke="#bfbfbf" points="806.5,-112.5 806.5,-131.5 858.5,-131.5 858.5,-112.5 806.5,-112.5"/>
<text text-anchor="middle" x="832.5" y="-119.5" font-family="Helvetica,sans-Serif" font-size="10.00" fill="#000000">cassert</text>
</g>
<!-- Node2&#45;&gt;Node32 -->
<g id="edge39" class="edge">
<title>Node2&#45;&gt;Node32</title>
<path fill="none" stroke="#191970" d="M989.8378,-168.3733C956.0388,-158.4114 903.3916,-142.8944 868.4337,-132.591"/>
<polygon fill="#191970" stroke="#191970" points="869.2152,-129.1725 858.6337,-129.7026 867.2362,-135.887 869.2152,-129.1725"/>
</g>
<!-- Node4 -->
<g id="node5" class="node">
<title>Node4</title>
<polygon fill="none" stroke="#bfbfbf" points="225,-.5 225,-19.5 278,-19.5 278,-.5 225,-.5"/>
<text text-anchor="middle" x="251.5" y="-7.5" font-family="Helvetica,sans-Serif" font-size="10.00" fill="#000000">cstddef</text>
</g>
<!-- Node3&#45;&gt;Node4 -->
<g id="edge4" class="edge">
<title>Node3&#45;&gt;Node4</title>
<path fill="none" stroke="#191970" d="M306.8295,-56.2455C296.9339,-47.9746 282.5373,-35.9416 270.9099,-26.2232"/>
<polygon fill="#191970" stroke="#191970" points="272.9542,-23.3703 263.0368,-19.6427 268.465,-28.7413 272.9542,-23.3703"/>
</g>
<!-- Node5 -->
<g id="node6" class="node">
<title>Node5</title>
<polygon fill="none" stroke="#bfbfbf" points="296,-.5 296,-19.5 341,-19.5 341,-.5 296,-.5"/>
<text text-anchor="middle" x="318.5" y="-7.5" font-family="Helvetica,sans-Serif" font-size="10.00" fill="#000000">utility</text>
</g>
<!-- Node3&#45;&gt;Node5 -->
<g id="edge5" class="edge">
<title>Node3&#45;&gt;Node5</title>
<path fill="none" stroke="#191970" d="M318.5,-56.2455C318.5,-48.9382 318.5,-38.6944 318.5,-29.7046"/>
<polygon fill="#191970" stroke="#191970" points="322.0001,-29.6426 318.5,-19.6427 315.0001,-29.6427 322.0001,-29.6426"/>
</g>
<!-- Node6 -->
<g id="node7" class="node">
<title>Node6</title>
<polygon fill="none" stroke="#bfbfbf" points="359.5,-.5 359.5,-19.5 405.5,-19.5 405.5,-.5 359.5,-.5"/>
<text text-anchor="middle" x="382.5" y="-7.5" font-family="Helvetica,sans-Serif" font-size="10.00" fill="#000000">cstdio</text>
</g>
<!-- Node3&#45;&gt;Node6 -->
<g id="edge6" class="edge">
<title>Node3&#45;&gt;Node6</title>
<path fill="none" stroke="#191970" d="M329.6479,-56.2455C339.0087,-48.0549 352.5858,-36.1749 363.6349,-26.5069"/>
<polygon fill="#191970" stroke="#191970" points="366.2588,-28.8618 371.4798,-19.6427 361.6492,-23.5937 366.2588,-28.8618"/>
</g>
<!-- Node8&#45;&gt;Node3 -->
<g id="edge9" class="edge">
<title>Node8&#45;&gt;Node3</title>
<path fill="none" stroke="#191970" d="M326.7581,-112.2455C325.4533,-104.9382 323.624,-94.6944 322.0187,-85.7046"/>
<polygon fill="#191970" stroke="#191970" points="325.4254,-84.8717 320.2219,-75.6427 318.5344,-86.1022 325.4254,-84.8717"/>
</g>
<!-- Node8&#45;&gt;Node9 -->
<g id="edge10" class="edge">
<title>Node8&#45;&gt;Node9</title>
<path fill="none" stroke="#191970" d="M270.8254,-112.4784C221.4468,-104.1164 148.2326,-91.2223 74.8965,-75.9932"/>
<polygon fill="#191970" stroke="#191970" points="75.5247,-72.5489 65.02,-73.928 74.0919,-79.4007 75.5247,-72.5489"/>
</g>
<!-- Node12 -->
<g id="node13" class="node">
<title>Node12</title>
<polygon fill="none" stroke="#bfbfbf" points="2027,-56.5 2027,-75.5 2096,-75.5 2096,-56.5 2027,-56.5"/>
<text text-anchor="middle" x="2061.5" y="-63.5" font-family="Helvetica,sans-Serif" font-size="10.00" fill="#000000">type_traits</text>
</g>
<!-- Node11&#45;&gt;Node12 -->
<g id="edge13" class="edge">
<title>Node11&#45;&gt;Node12</title>
<path fill="none" stroke="#191970" d="M1667.0878,-113.8975C1671.9583,-113.2325 1676.8163,-112.5901 1681.5,-112 1827.3086,-93.6294 1867.6344,-100.3761 2016.9905,-75.9018"/>
<polygon fill="#191970" stroke="#191970" points="2017.6955,-79.3327 2026.9883,-74.2439 2016.5504,-72.427 2017.6955,-79.3327"/>
</g>
<!-- Node13&#45;&gt;Node3 -->
<g id="edge17" class="edge">
<title>Node13&#45;&gt;Node3</title>
<path fill="none" stroke="#191970" d="M1109.8601,-112.8807C1106.6989,-112.5639 1103.5676,-112.268 1100.5,-112 784.5893,-84.3963 700.8476,-109.0434 381.223,-75.9535"/>
<polygon fill="#191970" stroke="#191970" points="381.5224,-72.4658 371.2125,-74.9064 380.794,-79.4278 381.5224,-72.4658"/>
</g>
<!-- Node13&#45;&gt;Node7 -->
<g id="edge18" class="edge">
<title>Node13&#45;&gt;Node7</title>
<path fill="none" stroke="#191970" d="M1109.8552,-112.9346C1106.6953,-112.6031 1103.5657,-112.2895 1100.5,-112 854.6042,-88.7772 789.3732,-99.4362 539.7889,-76.0684"/>
<polygon fill="#191970" stroke="#191970" points="539.9712,-72.5701 529.6862,-75.1134 539.3124,-79.539 539.9712,-72.5701"/>
</g>
<!-- Node13&#45;&gt;Node10 -->
<g id="edge16" class="edge">
<title>Node13&#45;&gt;Node10</title>
<path fill="none" stroke="#191970" d="M1109.8625,-112.8525C1106.7006,-112.5433 1103.5686,-112.2568 1100.5,-112 729.644,-80.9645 632.5673,-104.107 257.8506,-76.0535"/>
<polygon fill="#191970" stroke="#191970" points="258.0523,-72.5589 247.8169,-75.2951 257.5247,-79.539 258.0523,-72.5589"/>
</g>
<!-- Node14 -->
<g id="node15" class="node">
<title>Node14</title>
<g id="a_node15"><a xlink:href="../../dd/dc2/BasicOps_8h.html" target="_top" xlink:title="Framework/BasicOps.h">
<polygon fill="none" stroke="#000000" points="736.5,-56.5 736.5,-75.5 864.5,-75.5 864.5,-56.5 736.5,-56.5"/>
<text text-anchor="middle" x="800.5" y="-63.5" font-family="Helvetica,sans-Serif" font-size="10.00" fill="#000000">Framework/BasicOps.h</text>
</a>
</g>
</g>
<!-- Node13&#45;&gt;Node14 -->
<g id="edge15" class="edge">
<title>Node13&#45;&gt;Node14</title>
<path fill="none" stroke="#191970" d="M1115.6074,-112.4369C1048.8328,-102.5964 944.9461,-87.2868 874.8899,-76.9627"/>
<polygon fill="#191970" stroke="#191970" points="875.2112,-73.4723 864.8077,-75.4769 874.1905,-80.3975 875.2112,-73.4723"/>
</g>
<!-- Node15 -->
<g id="node16" class="node">
<title>Node15</title>
<polygon fill="none" stroke="#bfbfbf" points="548,-56.5 548,-75.5 649,-75.5 649,-56.5 548,-56.5"/>
<text text-anchor="middle" x="598.5" y="-63.5" font-family="Helvetica,sans-Serif" font-size="10.00" fill="#000000">arrow/type_fwd.h</text>
</g>
<!-- Node13&#45;&gt;Node15 -->
<g id="edge19" class="edge">
<title>Node13&#45;&gt;Node15</title>
<path fill="none" stroke="#191970" d="M1109.8487,-113.0003C1106.6906,-112.6511 1103.5631,-112.3158 1100.5,-112 907.2655,-92.0808 855.226,-100.2446 659.3519,-76.1476"/>
<polygon fill="#191970" stroke="#191970" points="659.6627,-72.6594 649.3074,-74.8993 658.7994,-79.6059 659.6627,-72.6594"/>
</g>
<!-- Node16 -->
<g id="node17" class="node">
<title>Node16</title>
<polygon fill="none" stroke="#bfbfbf" points="882.5,-56.5 882.5,-75.5 1028.5,-75.5 1028.5,-56.5 882.5,-56.5"/>
<text text-anchor="middle" x="955.5" y="-63.5" font-family="Helvetica,sans-Serif" font-size="10.00" fill="#000000">gandiva/gandiva_aliases.h</text>
</g>
<!-- Node13&#45;&gt;Node16 -->
<g id="edge20" class="edge">
<title>Node13&#45;&gt;Node16</title>
<path fill="none" stroke="#191970" d="M1142.0768,-112.4369C1103.8125,-102.9133 1044.9663,-88.2672 1003.6151,-77.9753"/>
<polygon fill="#191970" stroke="#191970" points="1004.3141,-74.5426 993.7647,-75.5237 1002.6234,-81.3353 1004.3141,-74.5426"/>
</g>
<!-- Node17 -->
<g id="node18" class="node">
<title>Node17</title>
<polygon fill="none" stroke="#bfbfbf" points="1046.5,-56.5 1046.5,-75.5 1124.5,-75.5 1124.5,-56.5 1046.5,-56.5"/>
<text text-anchor="middle" x="1085.5" y="-63.5" font-family="Helvetica,sans-Serif" font-size="10.00" fill="#000000">arrow/type.h</text>
</g>
<!-- Node13&#45;&gt;Node17 -->
<g id="edge21" class="edge">
<title>Node13&#45;&gt;Node17</title>
<path fill="none" stroke="#191970" d="M1163.9523,-112.2455C1149.2401,-103.5731 1127.5112,-90.7645 1110.6495,-80.825"/>
<polygon fill="#191970" stroke="#191970" points="1112.2502,-77.7057 1101.8581,-75.6427 1108.6954,-83.736 1112.2502,-77.7057"/>
</g>
<!-- Node18 -->
<g id="node19" class="node">
<title>Node18</title>
<polygon fill="none" stroke="#bfbfbf" points="1143,-56.5 1143,-75.5 1238,-75.5 1238,-56.5 1143,-56.5"/>
<text text-anchor="middle" x="1190.5" y="-63.5" font-family="Helvetica,sans-Serif" font-size="10.00" fill="#000000">gandiva/arrow.h</text>
</g>
<!-- Node13&#45;&gt;Node18 -->
<g id="edge22" class="edge">
<title>Node13&#45;&gt;Node18</title>
<path fill="none" stroke="#191970" d="M1182.2419,-112.2455C1183.5467,-104.9382 1185.376,-94.6944 1186.9813,-85.7046"/>
<polygon fill="#191970" stroke="#191970" points="1190.4656,-86.1022 1188.7781,-75.6427 1183.5746,-84.8717 1190.4656,-86.1022"/>
</g>
<!-- Node13&#45;&gt;Node19 -->
<g id="edge23" class="edge">
<title>Node13&#45;&gt;Node19</title>
<path fill="none" stroke="#191970" d="M1251.0053,-117.4566C1408.3838,-107.2824 1779.8185,-83.0787 1854.5471,-75.8573"/>
<polygon fill="#191970" stroke="#191970" points="1855.3725,-79.2877 1864.9292,-74.7138 1854.6061,-72.3297 1855.3725,-79.2877"/>
</g>
<!-- Node13&#45;&gt;Node20 -->
<g id="edge24" class="edge">
<title>Node13&#45;&gt;Node20</title>
<path fill="none" stroke="#191970" d="M1251.4564,-113.6103C1256.2086,-113.0614 1260.9233,-112.5204 1265.5,-112 1407.9415,-95.8044 1446.11,-92.8979 1592.4755,-76.1077"/>
<polygon fill="#191970" stroke="#191970" points="1593.2036,-79.5471 1602.7385,-74.928 1592.4042,-72.5929 1593.2036,-79.5471"/>
</g>
<!-- Node21 -->
<g id="node22" class="node">
<title>Node21</title>
<polygon fill="none" stroke="#bfbfbf" points="1256.5,-56.5 1256.5,-75.5 1348.5,-75.5 1348.5,-56.5 1256.5,-56.5"/>
<text text-anchor="middle" x="1302.5" y="-63.5" font-family="Helvetica,sans-Serif" font-size="10.00" fill="#000000">gandiva/node.h</text>
</g>
<!-- Node13&#45;&gt;Node21 -->
<g id="edge25" class="edge">
<title>Node13&#45;&gt;Node21</title>
<path fill="none" stroke="#191970" d="M1201.4725,-112.3733C1221.0567,-103.3838 1250.4961,-89.8706 1272.551,-79.7471"/>
<polygon fill="#191970" stroke="#191970" points="1274.1729,-82.8538 1281.8011,-75.5011 1271.2527,-76.4919 1274.1729,-82.8538"/>
</g>
<!-- Node22 -->
<g id="node23" class="node">
<title>Node22</title>
<polygon fill="none" stroke="#bfbfbf" points="1367,-56.5 1367,-75.5 1456,-75.5 1456,-56.5 1367,-56.5"/>
<text text-anchor="middle" x="1411.5" y="-63.5" font-family="Helvetica,sans-Serif" font-size="10.00" fill="#000000">gandiva/filter.h</text>
</g>
<!-- Node13&#45;&gt;Node22 -->
<g id="edge26" class="edge">
<title>Node13&#45;&gt;Node22</title>
<path fill="none" stroke="#191970" d="M1219.9478,-112.4369C1259.3156,-102.8932 1319.9034,-88.2052 1362.3708,-77.9101"/>
<polygon fill="#191970" stroke="#191970" points="1363.321,-81.2812 1372.2149,-75.5237 1361.6717,-74.4783 1363.321,-81.2812"/>
</g>
<!-- Node23 -->
<g id="node24" class="node">
<title>Node23</title>
<polygon fill="none" stroke="#bfbfbf" points="1474.5,-56.5 1474.5,-75.5 1584.5,-75.5 1584.5,-56.5 1474.5,-56.5"/>
<text text-anchor="middle" x="1529.5" y="-63.5" font-family="Helvetica,sans-Serif" font-size="10.00" fill="#000000">gandiva/projector.h</text>
</g>
<!-- Node13&#45;&gt;Node23 -->
<g id="edge27" class="edge">
<title>Node13&#45;&gt;Node23</title>
<path fill="none" stroke="#191970" d="M1240.0987,-112.4369C1302.4681,-102.4292 1400.0906,-86.7648 1464.4319,-76.4407"/>
<polygon fill="#191970" stroke="#191970" points="1465.1429,-79.8715 1474.462,-74.8313 1464.0338,-72.9599 1465.1429,-79.8715"/>
</g>
<!-- Node13&#45;&gt;Node24 -->
<g id="edge28" class="edge">
<title>Node13&#45;&gt;Node24</title>
<path fill="none" stroke="#191970" d="M1251.0698,-116.2341C1268.2267,-114.8402 1286.5218,-113.3604 1303.5,-112 1502.8825,-96.0247 1556.5333,-104.505 1757.7499,-76.1094"/>
<polygon fill="#191970" stroke="#191970" points="1758.3494,-79.5594 1767.756,-74.6843 1757.3623,-72.6293 1758.3494,-79.5594"/>
</g>
<!-- Node25 -->
<g id="node26" class="node">
<title>Node25</title>
<polygon fill="none" stroke="#bfbfbf" points="667,-56.5 667,-75.5 718,-75.5 718,-56.5 667,-56.5"/>
<text text-anchor="middle" x="692.5" y="-63.5" font-family="Helvetica,sans-Serif" font-size="10.00" fill="#000000">variant</text>
</g>
<!-- Node13&#45;&gt;Node25 -->
<g id="edge29" class="edge">
<title>Node13&#45;&gt;Node25</title>
<path fill="none" stroke="#191970" d="M1109.8425,-113.0584C1106.686,-112.6934 1103.5606,-112.3389 1100.5,-112 938.1969,-94.0273 892.895,-106.4967 728.345,-75.8426"/>
<polygon fill="#191970" stroke="#191970" points="728.8433,-72.3749 718.3675,-73.9588 727.5445,-79.2534 728.8433,-72.3749"/>
</g>
<!-- Node13&#45;&gt;Node26 -->
<g id="edge30" class="edge">
<title>Node13&#45;&gt;Node26</title>
<path fill="none" stroke="#191970" d="M1251.1629,-117.3815C1277.8962,-115.6575 1308.599,-113.7056 1336.5,-112 1608.2048,-95.3907 1682.8158,-125.9471 1954.1728,-75.7955"/>
<polygon fill="#191970" stroke="#191970" points="1955.1367,-79.1761 1964.3238,-73.899 1953.8511,-72.2951 1955.1367,-79.1761"/>
</g>
<!-- Node13&#45;&gt;Node27 -->
<g id="edge31" class="edge">
<title>Node13&#45;&gt;Node27</title>
<path fill="none" stroke="#191970" d="M1251.153,-117.2123C1277.8852,-115.4688 1308.5898,-113.5477 1336.5,-112 1674.791,-93.2404 1765.5299,-127.1506 2104.081,-75.912"/>
<polygon fill="#191970" stroke="#191970" points="2104.8131,-79.3408 2114.17,-74.371 2103.7562,-72.421 2104.8131,-79.3408"/>
</g>
<!-- Node28&#45;&gt;Node15 -->
<g id="edge33" class="edge">
<title>Node28&#45;&gt;Node15</title>
<path fill="none" stroke="#191970" d="M952.988,-113.5976C867.8503,-103.2471 727.4277,-85.9691 658.9654,-76.1562"/>
<polygon fill="#191970" stroke="#191970" points="659.4081,-72.6838 649.0081,-74.7059 658.3992,-79.6107 659.4081,-72.6838"/>
</g>
<!-- Node33&#45;&gt;Node11 -->
<g id="edge42" class="edge">
<title>Node33&#45;&gt;Node11</title>
<path fill="none" stroke="#191970" d="M1628.1905,-168.2455C1625.6567,-160.7776 1622.0823,-150.2427 1618.985,-141.1137"/>
<polygon fill="#191970" stroke="#191970" points="1622.2991,-139.9879 1615.7716,-131.6427 1615.6702,-142.237 1622.2991,-139.9879"/>
</g>
<!-- Node33&#45;&gt;Node12 -->
<g id="edge44" class="edge">
<title>Node33&#45;&gt;Node12</title>
<path fill="none" stroke="#191970" d="M1640.2132,-168.3706C1654.3683,-153.4345 1683.9672,-125.0468 1715.5,-112 1837.4759,-61.5319 1882.1982,-97.2462 2017.1098,-75.8461"/>
<polygon fill="#191970" stroke="#191970" points="2017.6912,-79.2976 2026.9816,-74.2047 2016.5429,-72.3924 2017.6912,-79.2976"/>
</g>
<!-- Node33&#45;&gt;Node34 -->
<g id="edge43" class="edge">
<title>Node33&#45;&gt;Node34</title>
<path fill="none" stroke="#191970" d="M1650.9254,-168.3733C1668.9021,-159.4644 1695.8441,-146.1127 1716.209,-136.0203"/>
<polygon fill="#191970" stroke="#191970" points="1717.9222,-139.0776 1725.3281,-131.5011 1714.8139,-132.8055 1717.9222,-139.0776"/>
</g>
<!-- Node35&#45;&gt;Node10 -->
<g id="edge47" class="edge">
<title>Node35&#45;&gt;Node10</title>
<path fill="none" stroke="#191970" d="M395.0541,-168.4727C337.8845,-159.8348 261.9468,-146.2991 234.5,-132 212.1332,-120.3474 191.9813,-99.2344 179.3115,-84.0212"/>
<polygon fill="#191970" stroke="#191970" points="181.7478,-81.4654 172.7561,-75.8618 176.2908,-85.8497 181.7478,-81.4654"/>
</g>
<!-- Node41&#45;&gt;Node27 -->
<g id="edge59" class="edge">
<title>Node41&#45;&gt;Node27</title>
<path fill="none" stroke="#191970" d="M2149.0563,-224.4882C2190.3693,-216.8574 2238.8272,-204.6621 2251.5,-188 2282.7836,-146.8686 2214.4213,-102.3137 2172.6985,-80.1671"/>
<polygon fill="#191970" stroke="#191970" points="2174.2343,-77.021 2163.7437,-75.5379 2171.0197,-83.2393 2174.2343,-77.021"/>
</g>
</g>
</svg>
        <g id="navigator" transform="translate(0 0)" fill="#404254">
                <rect fill="#f2f5e9" fill-opacity="0.5" stroke="#606060" stroke-width=".5" x="0" y="0" width="60" height="60"/>
                <use id="zoomplus" xlink:href="#zoomPlus" x="17" y="9" onmousedown="handleZoom(evt,'in')"/>
                <use id="zoomminus" xlink:href="#zoomMin" x="42" y="9" onmousedown="handleZoom(evt,'out')"/>
                <use id="reset" xlink:href="#resetDef" x="30" y="36" onmousedown="handleReset()"/>
                <g id="arrowUp" xlink:href="#dirArrow" transform="translate(30 24)" onmousedown="handlePan(0,-1)">
                  <use xlink:href="#rim" fill="#404040">
                        <set attributeName="fill" to="#808080" begin="arrowUp.mouseover" end="arrowUp.mouseout"/>
                  </use>
                  <path fill="none" stroke="white" stroke-width="1.5" d="M0,-3.0v7 M-2.5,-0.5L0,-3.0L2.5,-0.5"/>
                </g>
                <g id="arrowRight" xlink:href="#dirArrow" transform="rotate(90) translate(36 -43)" onmousedown="handlePan(1,0)">
                  <use xlink:href="#rim" fill="#404040">
                        <set attributeName="fill" to="#808080" begin="arrowRight.mouseover" end="arrowRight.mouseout"/>
                  </use>
                  <path fill="none" stroke="white" stroke-width="1.5" d="M0,-3.0v7 M-2.5,-0.5L0,-3.0L2.5,-0.5"/>
                </g>
                <g id="arrowDown" xlink:href="#dirArrow" transform="rotate(180) translate(-30 -48)" onmousedown="handlePan(0,1)">
                  <use xlink:href="#rim" fill="#404040">
                        <set attributeName="fill" to="#808080" begin="arrowDown.mouseover" end="arrowDown.mouseout"/>
                  </use>
                  <path fill="none" stroke="white" stroke-width="1.5" d="M0,-3.0v7 M-2.5,-0.5L0,-3.0L2.5,-0.5"/>
                </g>
                <g id="arrowLeft" xlink:href="#dirArrow" transform="rotate(270) translate(-36 17)" onmousedown="handlePan(-1,0)">
                  <use xlink:href="#rim" fill="#404040">
                        <set attributeName="fill" to="#808080" begin="arrowLeft.mouseover" end="arrowLeft.mouseout"/>
                  </use>
                  <path fill="none" stroke="white" stroke-width="1.5" d="M0,-3.0v7 M-2.5,-0.5L0,-3.0L2.5,-0.5"/>
                </g>
        </g>
        <svg viewBox="0 0 15 15" width="100%" height="30px" preserveAspectRatio="xMaxYMin meet">
         <g id="arrow_out" transform="scale(0.3 0.3)">
          <a xlink:href="benchmark__TableBuilder_8cxx__incl_org.svg" target="_base">
           <rect id="button" ry="5" rx="5" y="6" x="6" height="38" width="38"
                fill="#f2f5e9" fill-opacity="0.5" stroke="#606060" stroke-width="1.0"/>
           <path id="arrow"
             d="M 11.500037,31.436501 C 11.940474,20.09759 22.043105,11.32322 32.158766,21.979434 L 37.068811,17.246167 C 37.068811,17.246167 37.088388,32 37.088388,32 L 22.160133,31.978069 C 22.160133,31.978069 26.997745,27.140456 26.997745,27.140456 C 18.528582,18.264221 13.291696,25.230495 11.500037,31.436501 z"
             style="fill:#404040;"/>
          </a>
         </g>
        </svg>
</svg>
