<?xml version="1.0" encoding="UTF-8" standalone="no"?>
<!DOCTYPE svg PUBLIC "-//W3C//DTD SVG 1.1//EN"
 "http://www.w3.org/Graphics/SVG/1.1/DTD/svg11.dtd">
<!-- Generated by graphviz version 2.40.1 (20161225.0304)
 -->
<!-- Title: /home/travis/build/AliceO2Group/AliceO2/Detectors/FIT/FT0/raw/include/FT0Raw/DigitBlockFT0.h Pages: 1 -->
<!--zoomable 408 -->
<svg id="main" version="1.1" xmlns="http://www.w3.org/2000/svg" xmlns:xlink="http://www.w3.org/1999/xlink" xml:space="preserve" onload="init(evt)">
<style type="text/css"><![CDATA[
.edge:hover path { stroke: red; }
.edge:hover polygon { stroke: red; fill: red; }
]]></style>
<script type="text/javascript"><![CDATA[
var edges = document.getElementsByTagName('g');
if (edges && edges.length) {
  for (var i=0;i<edges.length;i++) {
    if (edges[i].id.substr(0,4)=='edge') {
      edges[i].setAttribute('class','edge');
    }
  }
}
]]></script>
        <defs>
                <circle id="rim" cx="0" cy="0" r="7"/>
                <circle id="rim2" cx="0" cy="0" r="3.5"/>
                <g id="zoomPlus">
                        <use xlink:href="#rim" fill="#404040">
                                <set attributeName="fill" to="#808080" begin="zoomplus.mouseover" end="zoomplus.mouseout"/>
                        </use>
                        <path d="M-4,0h8M0,-4v8" fill="none" stroke="white" stroke-width="1.5" pointer-events="none"/>
                </g>
                <g id="zoomMin">
                        <use xlink:href="#rim" fill="#404040">
                                <set attributeName="fill" to="#808080" begin="zoomminus.mouseover" end="zoomminus.mouseout"/>
                        </use>
                        <path d="M-4,0h8" fill="none" stroke="white" stroke-width="1.5" pointer-events="none"/>
                </g>
                <g id="dirArrow">
                        <path fill="none" stroke="white" stroke-width="1.5" d="M0,-3.0v7 M-2.5,-0.5L0,-3.0L2.5,-0.5"/>
                </g>
               <g id="resetDef">
                       <use xlink:href="#rim2" fill="#404040">
                               <set attributeName="fill" to="#808080" begin="reset.mouseover" end="reset.mouseout"/>
                       </use>
               </g>
        </defs>

<script type="text/javascript">
var viewWidth = 2059;
var viewHeight = 408;
var sectionId = 'dynsection-0';
</script>
<script xlink:href="../../svgpan.js"/>
<svg id="graph" class="graph">
<g id="viewport">
<title>/home/travis/build/AliceO2Group/AliceO2/Detectors/FIT/FT0/raw/include/FT0Raw/DigitBlockFT0.h</title>
<!-- Node0 -->
<g id="node1" class="node">
<title>Node0</title>
<polygon fill="#bfbfbf" stroke="#000000" points="705,-347.5 705,-399.5 881,-399.5 881,-347.5 705,-347.5"/>
<text text-anchor="start" x="713" y="-387.5" font-family="Helvetica,sans-Serif" font-size="10.00" fill="#000000">/home/travis/build</text>
<text text-anchor="start" x="713" y="-376.5" font-family="Helvetica,sans-Serif" font-size="10.00" fill="#000000">/AliceO2Group/AliceO2</text>
<text text-anchor="start" x="713" y="-365.5" font-family="Helvetica,sans-Serif" font-size="10.00" fill="#000000">/Detectors/FIT/FT0/raw</text>
<text text-anchor="middle" x="793" y="-354.5" font-family="Helvetica,sans-Serif" font-size="10.00" fill="#000000">/include/FT0Raw/DigitBlockFT0.h</text>
</g>
<!-- Node1 -->
<g id="node2" class="node">
<title>Node1</title>
<polygon fill="none" stroke="#bfbfbf" points="1279,-118 1279,-137 1339,-137 1339,-118 1279,-118"/>
<text text-anchor="middle" x="1309" y="-125" font-family="Helvetica,sans-Serif" font-size="10.00" fill="#000000">iostream</text>
</g>
<!-- Node0&#45;&gt;Node1 -->
<g id="edge1" class="edge">
<title>Node0&#45;&gt;Node1</title>
<path fill="none" stroke="#191970" d="M782.431,-347.4829C771.9974,-317.1307 760.9101,-267.0316 786,-235 921.0207,-62.6222 1058.3254,-199.0229 1270,-143 1272.6171,-142.3073 1275.2961,-141.4892 1277.9638,-140.5967"/>
<polygon fill="#191970" stroke="#191970" points="1279.2558,-143.851 1287.4454,-137.1293 1276.8516,-137.2768 1279.2558,-143.851"/>
</g>
<!-- Node2 -->
<g id="node3" class="node">
<title>Node2</title>
<polygon fill="none" stroke="#bfbfbf" points="795.5,-235.5 795.5,-254.5 842.5,-254.5 842.5,-235.5 795.5,-235.5"/>
<text text-anchor="middle" x="819" y="-242.5" font-family="Helvetica,sans-Serif" font-size="10.00" fill="#000000">vector</text>
</g>
<!-- Node0&#45;&gt;Node2 -->
<g id="edge2" class="edge">
<title>Node0&#45;&gt;Node2</title>
<path fill="none" stroke="#191970" d="M798.2615,-347.4961C803.2375,-322.9033 810.5917,-286.5564 815.0742,-264.4024"/>
<polygon fill="#191970" stroke="#191970" points="818.5222,-265.0097 817.075,-254.5142 811.6612,-263.6214 818.5222,-265.0097"/>
</g>
<!-- Node3 -->
<g id="node4" class="node">
<title>Node3</title>
<polygon fill="none" stroke="#bfbfbf" points="1837,-291.5 1837,-310.5 1901,-310.5 1901,-291.5 1837,-291.5"/>
<text text-anchor="middle" x="1869" y="-298.5" font-family="Helvetica,sans-Serif" font-size="10.00" fill="#000000">algorithm</text>
</g>
<!-- Node0&#45;&gt;Node3 -->
<g id="edge3" class="edge">
<title>Node0&#45;&gt;Node3</title>
<path fill="none" stroke="#191970" d="M881.2175,-369.8912C1096.074,-360.8205 1642.1001,-336.0009 1823,-311 1824.2751,-310.8238 1825.5674,-310.6314 1826.8699,-310.4255"/>
<polygon fill="#191970" stroke="#191970" points="1827.713,-313.8304 1836.9417,-308.6265 1826.4821,-306.9395 1827.713,-313.8304"/>
</g>
<!-- Node4 -->
<g id="node5" class="node">
<title>Node4</title>
<polygon fill="none" stroke="#bfbfbf" points="896.5,-.5 896.5,-19.5 955.5,-19.5 955.5,-.5 896.5,-.5"/>
<text text-anchor="middle" x="926" y="-7.5" font-family="Helvetica,sans-Serif" font-size="10.00" fill="#000000">Rtypes.h</text>
</g>
<!-- Node0&#45;&gt;Node4 -->
<g id="edge4" class="edge">
<title>Node0&#45;&gt;Node4</title>
<path fill="none" stroke="#191970" d="M704.8786,-362.7447C544.428,-341.9578 221,-293.9819 221,-245 221,-245 221,-245 221,-127.5 221,-69.563 275.1665,-74.7079 330,-56 433.3433,-20.7417 769.4938,-12.3666 885.8924,-10.5022"/>
<polygon fill="#191970" stroke="#191970" points="886.1921,-13.9981 896.1375,-10.346 886.0853,-6.9989 886.1921,-13.9981"/>
</g>
<!-- Node5 -->
<g id="node6" class="node">
<title>Node5</title>
<g id="a_node6"><a xlink:href="../../d6/d84/DataBlockRaw_8h.html" target="_top" xlink:title="FT0Raw/DataBlockRaw.h">
<polygon fill="none" stroke="#000000" points="975.5,-291.5 975.5,-310.5 1112.5,-310.5 1112.5,-291.5 975.5,-291.5"/>
<text text-anchor="middle" x="1044" y="-298.5" font-family="Helvetica,sans-Serif" font-size="10.00" fill="#000000">FT0Raw/DataBlockRaw.h</text>
</a>
</g>
</g>
<!-- Node0&#45;&gt;Node5 -->
<g id="edge5" class="edge">
<title>Node0&#45;&gt;Node5</title>
<path fill="none" stroke="#191970" d="M881.1403,-348.0412C921.8485,-336.2828 968.3271,-322.8577 1001.1831,-313.3674"/>
<polygon fill="#191970" stroke="#191970" points="1002.285,-316.6923 1010.921,-310.5547 1000.3424,-309.9672 1002.285,-316.6923"/>
</g>
<!-- Node6 -->
<g id="node7" class="node">
<title>Node6</title>
<g id="a_node7"><a xlink:href="../../d9/d80/InteractionRecord_8h.html" target="_top" xlink:title="CommonDataFormat/Interaction\lRecord.h">
<polygon fill="none" stroke="#000000" points="1087,-112.5 1087,-142.5 1261,-142.5 1261,-112.5 1087,-112.5"/>
<text text-anchor="start" x="1095" y="-130.5" font-family="Helvetica,sans-Serif" font-size="10.00" fill="#000000">CommonDataFormat/Interaction</text>
<text text-anchor="middle" x="1174" y="-119.5" font-family="Helvetica,sans-Serif" font-size="10.00" fill="#000000">Record.h</text>
</a>
</g>
</g>
<!-- Node0&#45;&gt;Node6 -->
<g id="edge53" class="edge">
<title>Node0&#45;&gt;Node6</title>
<path fill="none" stroke="#191970" d="M771.6323,-347.4682C764.2104,-336.8295 756.7987,-323.9824 753,-311 735.1035,-249.8367 751.9755,-207.4507 809,-179 812.0164,-177.495 969.3073,-155.644 1076.4017,-140.893"/>
<polygon fill="#191970" stroke="#191970" points="1077.173,-144.3199 1086.6021,-139.4885 1076.2181,-137.3853 1077.173,-144.3199"/>
</g>
<!-- Node13 -->
<g id="node14" class="node">
<title>Node13</title>
<g id="a_node14"><a xlink:href="../../d0/d0a/DataFormats_2Detectors_2FIT_2FT0_2include_2DataFormatsFT0_2Digit_8h.html" target="_top" xlink:title="DataFormatsFT0/Digit.h">
<polygon fill="none" stroke="#000000" points="625,-179.5 625,-198.5 757,-198.5 757,-179.5 625,-179.5"/>
<text text-anchor="middle" x="691" y="-186.5" font-family="Helvetica,sans-Serif" font-size="10.00" fill="#000000">DataFormatsFT0/Digit.h</text>
</a>
</g>
</g>
<!-- Node0&#45;&gt;Node13 -->
<g id="edge54" class="edge">
<title>Node0&#45;&gt;Node13</title>
<path fill="none" stroke="#191970" d="M749.7961,-347.4714C736.7595,-337.5981 723.6326,-325.2473 715,-311 695.5987,-278.9801 691.4699,-234.3494 690.8248,-208.8922"/>
<polygon fill="#191970" stroke="#191970" points="694.3226,-208.6265 690.7312,-198.659 687.3229,-208.6906 694.3226,-208.6265"/>
</g>
<!-- Node19 -->
<g id="node20" class="node">
<title>Node19</title>
<g id="a_node20"><a xlink:href="../../dc/d44/FIT_2FT0_2include_2DataFormatsFT0_2ChannelData_8h.html" target="_top" xlink:title="DataFormatsFT0/ChannelData.h">
<polygon fill="none" stroke="#000000" points="363,-118 363,-137 535,-137 535,-118 363,-118"/>
<text text-anchor="middle" x="449" y="-125" font-family="Helvetica,sans-Serif" font-size="10.00" fill="#000000">DataFormatsFT0/ChannelData.h</text>
</a>
</g>
</g>
<!-- Node0&#45;&gt;Node19 -->
<g id="edge55" class="edge">
<title>Node0&#45;&gt;Node19</title>
<path fill="none" stroke="#191970" d="M754.3261,-347.2602C738.098,-336.1663 719.0672,-323.0474 702,-311 615.3237,-249.8169 513.4593,-175.0471 470.172,-143.1377"/>
<polygon fill="#191970" stroke="#191970" points="472.2087,-140.2909 462.0835,-137.1713 468.0534,-145.9241 472.2087,-140.2909"/>
</g>
<!-- Node20 -->
<g id="node21" class="node">
<title>Node20</title>
<polygon fill="none" stroke="#bfbfbf" points="287.5,-118 287.5,-137 344.5,-137 344.5,-118 287.5,-118"/>
<text text-anchor="middle" x="316" y="-125" font-family="Helvetica,sans-Serif" font-size="10.00" fill="#000000">gsl/span</text>
</g>
<!-- Node0&#45;&gt;Node20 -->
<g id="edge59" class="edge">
<title>Node0&#45;&gt;Node20</title>
<path fill="none" stroke="#191970" d="M742.4042,-347.4066C642.1527,-295.7045 421.273,-181.7918 343.6406,-141.7549"/>
<polygon fill="#191970" stroke="#191970" points="344.9784,-138.5068 334.4864,-137.0339 341.7698,-144.7282 344.9784,-138.5068"/>
</g>
<!-- Node23 -->
<g id="node24" class="node">
<title>Node23</title>
<g id="a_node24"><a xlink:href="../../dd/d1f/FT0_2include_2DataFormatsFT0_2LookUpTable_8h.html" target="_top" xlink:title="DataFormatsFT0/LookUpTable.h">
<polygon fill="none" stroke="#000000" points="1559.5,-179.5 1559.5,-198.5 1730.5,-198.5 1730.5,-179.5 1559.5,-179.5"/>
<text text-anchor="middle" x="1645" y="-186.5" font-family="Helvetica,sans-Serif" font-size="10.00" fill="#000000">DataFormatsFT0/LookUpTable.h</text>
</a>
</g>
</g>
<!-- Node0&#45;&gt;Node23 -->
<g id="edge56" class="edge">
<title>Node0&#45;&gt;Node23</title>
<path fill="none" stroke="#191970" d="M881.1771,-369.5978C1113.7468,-358.4065 1730.0953,-322.5868 1790,-255 1814.7831,-227.0387 1773.035,-210.2091 1728.07,-200.549"/>
<polygon fill="#191970" stroke="#191970" points="1728.6412,-197.0937 1718.1451,-198.5368 1727.2503,-203.9541 1728.6412,-197.0937"/>
</g>
<!-- Node31 -->
<g id="node32" class="node">
<title>Node31</title>
<polygon fill="none" stroke="#bfbfbf" points="1661.5,-235.5 1661.5,-254.5 1780.5,-254.5 1780.5,-235.5 1661.5,-235.5"/>
<text text-anchor="middle" x="1721" y="-242.5" font-family="Helvetica,sans-Serif" font-size="10.00" fill="#000000">boost/mpl/vector.hpp</text>
</g>
<!-- Node0&#45;&gt;Node31 -->
<g id="edge57" class="edge">
<title>Node0&#45;&gt;Node31</title>
<path fill="none" stroke="#191970" d="M881.1406,-361.2952C1064.7164,-335.8755 1484.7934,-277.7075 1651.2293,-254.6611"/>
<polygon fill="#191970" stroke="#191970" points="1651.9199,-258.099 1661.3453,-253.2604 1650.9597,-251.1651 1651.9199,-258.099"/>
</g>
<!-- Node33 -->
<g id="node34" class="node">
<title>Node33</title>
<polygon fill="none" stroke="#bfbfbf" points="1919.5,-291.5 1919.5,-310.5 2050.5,-310.5 2050.5,-291.5 1919.5,-291.5"/>
<text text-anchor="middle" x="1985" y="-298.5" font-family="Helvetica,sans-Serif" font-size="10.00" fill="#000000">boost/mpl/contains.hpp</text>
</g>
<!-- Node0&#45;&gt;Node33 -->
<g id="edge58" class="edge">
<title>Node0&#45;&gt;Node33</title>
<path fill="none" stroke="#191970" d="M881.1429,-370.866C1068.4428,-364.7685 1520.0575,-347.4133 1909.1367,-311.0114"/>
<polygon fill="#191970" stroke="#191970" points="1909.5544,-314.4876 1919.1825,-310.0659 1908.8985,-307.5184 1909.5544,-314.4876"/>
</g>
<!-- Node5&#45;&gt;Node1 -->
<g id="edge6" class="edge">
<title>Node5&#45;&gt;Node1</title>
<path fill="none" stroke="#191970" d="M1031.5788,-291.18C1021.9984,-282.7529 1009.4865,-269.6707 1004,-255 990.7717,-219.6279 1010.1165,-199.2389 1042,-179 1128.6123,-124.0204 1171.0585,-170.1112 1270,-143 1272.611,-142.2846 1275.2856,-141.4503 1277.9504,-140.5467"/>
<polygon fill="#191970" stroke="#191970" points="1279.2506,-143.7978 1287.4267,-137.0597 1276.8332,-137.2284 1279.2506,-143.7978"/>
</g>
<!-- Node5&#45;&gt;Node2 -->
<g id="edge7" class="edge">
<title>Node5&#45;&gt;Node2</title>
<path fill="none" stroke="#191970" d="M1004.5537,-291.4922C966.6763,-282.3162 907.8678,-267.9487 857,-255 855.5538,-254.6319 854.0774,-254.2536 852.5863,-253.8697"/>
<polygon fill="#191970" stroke="#191970" points="853.2603,-250.4287 842.7014,-251.3003 851.4992,-257.2035 853.2603,-250.4287"/>
</g>
<!-- Node5&#45;&gt;Node4 -->
<g id="edge8" class="edge">
<title>Node5&#45;&gt;Node4</title>
<path fill="none" stroke="#191970" d="M1000.1293,-291.4432C967.6149,-283.6157 922.6094,-271.1976 885,-255 868.8982,-248.0653 867.68,-240.3977 851,-235 728.3003,-195.2942 355.3785,-246.1713 278,-143 202.2964,-42.0619 733.9222,-16.4157 886.0976,-11.1744"/>
<polygon fill="#191970" stroke="#191970" points="886.507,-14.6628 896.3848,-10.8315 886.2738,-7.6667 886.507,-14.6628"/>
</g>
<!-- Node5&#45;&gt;Node6 -->
<g id="edge9" class="edge">
<title>Node5&#45;&gt;Node6</title>
<path fill="none" stroke="#191970" d="M1016.3041,-291.4275C999.9537,-284.1781 980.6261,-272.4435 971,-255 954.6801,-225.4264 950.259,-205.6599 971,-179 978.5508,-169.2944 1034.8093,-155.465 1086.1885,-144.5806"/>
<polygon fill="#191970" stroke="#191970" points="1086.9778,-147.9913 1096.0474,-142.5147 1085.5421,-141.1401 1086.9778,-147.9913"/>
</g>
<!-- Node12 -->
<g id="node13" class="node">
<title>Node12</title>
<g id="a_node13"><a xlink:href="../../d3/dcb/FT0_2include_2DataFormatsFT0_2RawEventData_8h.html" target="_top" xlink:title="DataFormatsFT0/RawEventData.h">
<polygon fill="none" stroke="#000000" points="1013.5,-235.5 1013.5,-254.5 1194.5,-254.5 1194.5,-235.5 1013.5,-235.5"/>
<text text-anchor="middle" x="1104" y="-242.5" font-family="Helvetica,sans-Serif" font-size="10.00" fill="#000000">DataFormatsFT0/RawEventData.h</text>
</a>
</g>
</g>
<!-- Node5&#45;&gt;Node12 -->
<g id="edge16" class="edge">
<title>Node5&#45;&gt;Node12</title>
<path fill="none" stroke="#191970" d="M1054.4512,-291.2455C1063.2269,-283.0549 1075.9554,-271.1749 1086.314,-261.5069"/>
<polygon fill="#191970" stroke="#191970" points="1088.7461,-264.0246 1093.6686,-254.6427 1083.9699,-258.9072 1088.7461,-264.0246"/>
</g>
<!-- Node5&#45;&gt;Node20 -->
<g id="edge47" class="edge">
<title>Node5&#45;&gt;Node20</title>
<path fill="none" stroke="#191970" d="M1025.5029,-291.306C996.4459,-276.5474 937.9475,-248.7141 885,-235 748.1626,-199.5574 707.9637,-224.879 569,-199 471.9253,-180.9219 447.6984,-174.1597 354,-143 351.8576,-142.2876 349.6634,-141.514 347.463,-140.7054"/>
<polygon fill="#191970" stroke="#191970" points="348.5074,-137.3567 337.918,-137.0165 345.9839,-143.8861 348.5074,-137.3567"/>
</g>
<!-- Node24 -->
<g id="node25" class="node">
<title>Node24</title>
<polygon fill="none" stroke="#bfbfbf" points="1653,-118 1653,-137 1705,-137 1705,-118 1653,-118"/>
<text text-anchor="middle" x="1679" y="-125" font-family="Helvetica,sans-Serif" font-size="10.00" fill="#000000">cassert</text>
</g>
<!-- Node5&#45;&gt;Node24 -->
<g id="edge52" class="edge">
<title>Node5&#45;&gt;Node24</title>
<path fill="none" stroke="#191970" d="M1112.5114,-293.4169C1284.0381,-274.1064 1719.7294,-222.917 1740,-199 1756.6514,-179.3532 1729.5822,-156.7535 1706.3742,-142.3104"/>
<polygon fill="#191970" stroke="#191970" points="1708.1528,-139.296 1697.7678,-137.1974 1704.5775,-145.3141 1708.1528,-139.296"/>
</g>
<!-- Node25 -->
<g id="node26" class="node">
<title>Node25</title>
<polygon fill="none" stroke="#bfbfbf" points="1758.5,-118 1758.5,-137 1799.5,-137 1799.5,-118 1758.5,-118"/>
<text text-anchor="middle" x="1779" y="-125" font-family="Helvetica,sans-Serif" font-size="10.00" fill="#000000">tuple</text>
</g>
<!-- Node5&#45;&gt;Node25 -->
<g id="edge50" class="edge">
<title>Node5&#45;&gt;Node25</title>
<path fill="none" stroke="#191970" d="M1112.5177,-297.2088C1204.8535,-291.4462 1374.1352,-278.5764 1517,-255 1543.9108,-250.559 1735.9481,-217.4888 1756,-199 1770.3318,-185.7854 1775.7683,-163.6208 1777.8114,-147.4663"/>
<polygon fill="#191970" stroke="#191970" points="1781.3039,-147.7091 1778.7512,-137.4264 1774.3343,-147.0566 1781.3039,-147.7091"/>
</g>
<!-- Node30 -->
<g id="node31" class="node">
<title>Node30</title>
<polygon fill="none" stroke="#bfbfbf" points="1212.5,-235.5 1212.5,-254.5 1333.5,-254.5 1333.5,-235.5 1212.5,-235.5"/>
<text text-anchor="middle" x="1273" y="-242.5" font-family="Helvetica,sans-Serif" font-size="10.00" fill="#000000">boost/mpl/inherit.hpp</text>
</g>
<!-- Node5&#45;&gt;Node30 -->
<g id="edge48" class="edge">
<title>Node5&#45;&gt;Node30</title>
<path fill="none" stroke="#191970" d="M1083.1063,-291.4369C1122.1332,-281.8932 1182.1965,-267.2052 1224.2962,-256.9101"/>
<polygon fill="#191970" stroke="#191970" points="1225.1726,-260.299 1234.055,-254.5237 1223.5098,-253.4993 1225.1726,-260.299"/>
</g>
<!-- Node5&#45;&gt;Node31 -->
<g id="edge49" class="edge">
<title>Node5&#45;&gt;Node31</title>
<path fill="none" stroke="#191970" d="M1112.8463,-297.0556C1224.9505,-290.3391 1453.8398,-275.4015 1647,-255 1648.3053,-254.8621 1649.6232,-254.7195 1650.9505,-254.5728"/>
<polygon fill="#191970" stroke="#191970" points="1651.7317,-258.0057 1661.2615,-253.3763 1650.9247,-251.0524 1651.7317,-258.0057"/>
</g>
<!-- Node32 -->
<g id="node33" class="node">
<title>Node32</title>
<polygon fill="none" stroke="#bfbfbf" points="1352,-235.5 1352,-254.5 1394,-254.5 1394,-235.5 1352,-235.5"/>
<text text-anchor="middle" x="1373" y="-242.5" font-family="Helvetica,sans-Serif" font-size="10.00" fill="#000000">array</text>
</g>
<!-- Node5&#45;&gt;Node32 -->
<g id="edge51" class="edge">
<title>Node5&#45;&gt;Node32</title>
<path fill="none" stroke="#191970" d="M1112.6503,-293.5465C1173.4377,-286.2032 1264.3178,-273.4018 1342,-255 1342.0997,-254.9764 1342.1996,-254.9526 1342.2996,-254.9286"/>
<polygon fill="#191970" stroke="#191970" points="1343.0579,-258.3499 1351.7804,-252.3359 1341.2113,-251.5978 1343.0579,-258.3499"/>
</g>
<!-- Node7 -->
<g id="node8" class="node">
<title>Node7</title>
<g id="a_node8"><a xlink:href="../../d2/d45/GPUCommonRtypes_8h.html" target="_top" xlink:title="GPUCommonRtypes.h">
<polygon fill="none" stroke="#000000" points="863.5,-56.5 863.5,-75.5 988.5,-75.5 988.5,-56.5 863.5,-56.5"/>
<text text-anchor="middle" x="926" y="-63.5" font-family="Helvetica,sans-Serif" font-size="10.00" fill="#000000">GPUCommonRtypes.h</text>
</a>
</g>
</g>
<!-- Node6&#45;&gt;Node7 -->
<g id="edge10" class="edge">
<title>Node6&#45;&gt;Node7</title>
<path fill="none" stroke="#191970" d="M1113.3324,-112.4554C1070.501,-101.8339 1013.8891,-87.7951 974.1517,-77.9408"/>
<polygon fill="#191970" stroke="#191970" points="974.9797,-74.5402 964.4312,-75.5303 973.2948,-81.3344 974.9797,-74.5402"/>
</g>
<!-- Node8 -->
<g id="node9" class="node">
<title>Node8</title>
<polygon fill="none" stroke="#bfbfbf" points="1087.5,-56.5 1087.5,-75.5 1136.5,-75.5 1136.5,-56.5 1087.5,-56.5"/>
<text text-anchor="middle" x="1112" y="-63.5" font-family="Helvetica,sans-Serif" font-size="10.00" fill="#000000">iosfwd</text>
</g>
<!-- Node6&#45;&gt;Node8 -->
<g id="edge12" class="edge">
<title>Node6&#45;&gt;Node8</title>
<path fill="none" stroke="#191970" d="M1158.6742,-112.2977C1149.7093,-103.4052 1138.3712,-92.1586 1129.1149,-82.9769"/>
<polygon fill="#191970" stroke="#191970" points="1131.4915,-80.4045 1121.927,-75.8469 1126.5618,-85.3742 1131.4915,-80.4045"/>
</g>
<!-- Node9 -->
<g id="node10" class="node">
<title>Node9</title>
<polygon fill="none" stroke="#bfbfbf" points="1363.5,-56.5 1363.5,-75.5 1410.5,-75.5 1410.5,-56.5 1363.5,-56.5"/>
<text text-anchor="middle" x="1387" y="-63.5" font-family="Helvetica,sans-Serif" font-size="10.00" fill="#000000">cmath</text>
</g>
<!-- Node6&#45;&gt;Node9 -->
<g id="edge13" class="edge">
<title>Node6&#45;&gt;Node9</title>
<path fill="none" stroke="#191970" d="M1227.6216,-112.3942C1261.2064,-102.8786 1305.6253,-90.1953 1353.5835,-76.0931"/>
<polygon fill="#191970" stroke="#191970" points="1354.6168,-79.4375 1363.2202,-73.2542 1352.6387,-72.7228 1354.6168,-79.4375"/>
</g>
<!-- Node10 -->
<g id="node11" class="node">
<title>Node10</title>
<polygon fill="none" stroke="#bfbfbf" points="1441,-56.5 1441,-75.5 1491,-75.5 1491,-56.5 1441,-56.5"/>
<text text-anchor="middle" x="1466" y="-63.5" font-family="Helvetica,sans-Serif" font-size="10.00" fill="#000000">cstdint</text>
</g>
<!-- Node6&#45;&gt;Node10 -->
<g id="edge14" class="edge">
<title>Node6&#45;&gt;Node10</title>
<path fill="none" stroke="#191970" d="M1245.8366,-112.448C1294.6726,-102.2035 1360.7425,-88.3206 1419,-76 1422.8386,-75.1882 1426.8531,-74.3372 1430.8493,-73.4887"/>
<polygon fill="#191970" stroke="#191970" points="1431.5809,-76.9115 1440.6346,-71.4088 1430.1254,-70.0644 1431.5809,-76.9115"/>
</g>
<!-- Node11 -->
<g id="node12" class="node">
<title>Node11</title>
<g id="a_node12"><a xlink:href="../../d4/dc6/LHCConstants_8h.html" target="_top" xlink:title="Header to collect LHC related constants. ">
<polygon fill="none" stroke="#000000" points="1155,-56.5 1155,-75.5 1345,-75.5 1345,-56.5 1155,-56.5"/>
<text text-anchor="middle" x="1250" y="-63.5" font-family="Helvetica,sans-Serif" font-size="10.00" fill="#000000">CommonConstants/LHCConstants.h</text>
</a>
</g>
</g>
<!-- Node6&#45;&gt;Node11 -->
<g id="edge15" class="edge">
<title>Node6&#45;&gt;Node11</title>
<path fill="none" stroke="#191970" d="M1192.7865,-112.2977C1204.1053,-103.1384 1218.5105,-91.4816 1230.0346,-82.1562"/>
<polygon fill="#191970" stroke="#191970" points="1232.2595,-84.8583 1237.8314,-75.8469 1227.8561,-79.4167 1232.2595,-84.8583"/>
</g>
<!-- Node7&#45;&gt;Node4 -->
<g id="edge11" class="edge">
<title>Node7&#45;&gt;Node4</title>
<path fill="none" stroke="#191970" d="M926,-56.2455C926,-48.9382 926,-38.6944 926,-29.7046"/>
<polygon fill="#191970" stroke="#191970" points="929.5001,-29.6426 926,-19.6427 922.5001,-29.6427 929.5001,-29.6426"/>
</g>
<!-- Node12&#45;&gt;Node1 -->
<g id="edge43" class="edge">
<title>Node12&#45;&gt;Node1</title>
<path fill="none" stroke="#191970" d="M1107.8455,-235.37C1114.0944,-220.952 1127.82,-193.8645 1148,-179 1193.5181,-145.4716 1216.5649,-161.4592 1270,-143 1272.1263,-142.2655 1274.3069,-141.4827 1276.4979,-140.6739"/>
<polygon fill="#191970" stroke="#191970" points="1277.9409,-143.8694 1286.0335,-137.0312 1275.4429,-137.3303 1277.9409,-143.8694"/>
</g>
<!-- Node12&#45;&gt;Node4 -->
<g id="edge46" class="edge">
<title>Node12&#45;&gt;Node4</title>
<path fill="none" stroke="#191970" d="M1194.5678,-235.535C1313.9645,-222.9521 1509.3636,-201.9504 1512,-199 1525.393,-184.0121 1574.3266,-129.0528 1500,-56 1462.0258,-18.6766 1089.7366,-11.6167 965.8586,-10.2983"/>
<polygon fill="#191970" stroke="#191970" points="965.7089,-6.7967 955.6745,-10.197 965.6392,-13.7963 965.7089,-6.7967"/>
</g>
<!-- Node12&#45;&gt;Node6 -->
<g id="edge40" class="edge">
<title>Node12&#45;&gt;Node6</title>
<path fill="none" stroke="#191970" d="M1083.0175,-235.3446C1059.592,-223.188 1026.8338,-201.1967 1042,-179 1050.229,-166.9564 1079.1618,-155.0191 1107.8501,-145.6742"/>
<polygon fill="#191970" stroke="#191970" points="1109.0614,-148.962 1117.5395,-142.6081 1106.9495,-142.2882 1109.0614,-148.962"/>
</g>
<!-- Node12&#45;&gt;Node13 -->
<g id="edge17" class="edge">
<title>Node12&#45;&gt;Node13</title>
<path fill="none" stroke="#191970" d="M1033.472,-235.4369C959.3885,-225.3917 843.2738,-209.6473 767.1456,-199.3248"/>
<polygon fill="#191970" stroke="#191970" points="767.5205,-195.8437 757.1408,-197.9682 766.5799,-202.7802 767.5205,-195.8437"/>
</g>
<!-- Node12&#45;&gt;Node19 -->
<g id="edge32" class="edge">
<title>Node12&#45;&gt;Node19</title>
<path fill="none" stroke="#191970" d="M1013.2687,-240.1453C893.2776,-233.0878 688.5351,-218.659 616,-199 595.6568,-193.4864 592.2923,-187.4884 573,-179 542.4852,-165.5738 507.3651,-151.0759 482.3088,-140.894"/>
<polygon fill="#191970" stroke="#191970" points="483.4793,-137.5919 472.8969,-137.08 480.8503,-144.0795 483.4793,-137.5919"/>
</g>
<!-- Node22 -->
<g id="node23" class="node">
<title>Node22</title>
<g id="a_node23"><a xlink:href="../../d4/dee/RAWDataHeader_8h.html" target="_top" xlink:title="Definition of the RAW Data Header. ">
<polygon fill="none" stroke="#000000" points="1290.5,-179.5 1290.5,-198.5 1439.5,-198.5 1439.5,-179.5 1290.5,-179.5"/>
<text text-anchor="middle" x="1365" y="-186.5" font-family="Helvetica,sans-Serif" font-size="10.00" fill="#000000">Headers/RAWDataHeader.h</text>
</a>
</g>
</g>
<!-- Node12&#45;&gt;Node22 -->
<g id="edge33" class="edge">
<title>Node12&#45;&gt;Node22</title>
<path fill="none" stroke="#191970" d="M1148.5709,-235.4369C1193.4268,-225.8127 1262.6649,-210.957 1310.7008,-200.6504"/>
<polygon fill="#191970" stroke="#191970" points="1311.5697,-204.0437 1320.6129,-198.5237 1310.1011,-197.1995 1311.5697,-204.0437"/>
</g>
<!-- Node12&#45;&gt;Node23 -->
<g id="edge35" class="edge">
<title>Node12&#45;&gt;Node23</title>
<path fill="none" stroke="#191970" d="M1194.5512,-235.6269C1292.7004,-225.4672 1448.6963,-209.3198 1548.9458,-198.9428"/>
<polygon fill="#191970" stroke="#191970" points="1549.4862,-202.4056 1559.0726,-197.8945 1548.7654,-195.4428 1549.4862,-202.4056"/>
</g>
<!-- Node26 -->
<g id="node27" class="node">
<title>Node26</title>
<g id="a_node27"><a xlink:href="../../dd/da4/Logger_8h.html" target="_top" xlink:title="Framework/Logger.h">
<polygon fill="none" stroke="#000000" points="1157.5,-179.5 1157.5,-198.5 1272.5,-198.5 1272.5,-179.5 1157.5,-179.5"/>
<text text-anchor="middle" x="1215" y="-186.5" font-family="Helvetica,sans-Serif" font-size="10.00" fill="#000000">Framework/Logger.h</text>
</a>
</g>
</g>
<!-- Node12&#45;&gt;Node26 -->
<g id="edge41" class="edge">
<title>Node12&#45;&gt;Node26</title>
<path fill="none" stroke="#191970" d="M1123.0816,-235.3733C1140.7402,-226.4644 1167.2053,-213.1127 1187.2098,-203.0203"/>
<polygon fill="#191970" stroke="#191970" points="1188.8158,-206.1303 1196.1674,-198.5011 1185.6628,-199.8806 1188.8158,-206.1303"/>
</g>
<!-- Node28 -->
<g id="node29" class="node">
<title>Node28</title>
<polygon fill="none" stroke="#bfbfbf" points="1457.5,-179.5 1457.5,-198.5 1502.5,-198.5 1502.5,-179.5 1457.5,-179.5"/>
<text text-anchor="middle" x="1480" y="-186.5" font-family="Helvetica,sans-Serif" font-size="10.00" fill="#000000">utility</text>
</g>
<!-- Node12&#45;&gt;Node28 -->
<g id="edge44" class="edge">
<title>Node12&#45;&gt;Node28</title>
<path fill="none" stroke="#191970" d="M1187.4433,-235.4939C1268.2524,-226.0078 1386.143,-211.3608 1447.3647,-198.7504"/>
<polygon fill="#191970" stroke="#191970" points="1448.3664,-202.1149 1457.4028,-196.5837 1446.8894,-195.2725 1448.3664,-202.1149"/>
</g>
<!-- Node29 -->
<g id="node30" class="node">
<title>Node29</title>
<polygon fill="none" stroke="#bfbfbf" points="1051,-179.5 1051,-198.5 1101,-198.5 1101,-179.5 1051,-179.5"/>
<text text-anchor="middle" x="1076" y="-186.5" font-family="Helvetica,sans-Serif" font-size="10.00" fill="#000000">cstring</text>
</g>
<!-- Node12&#45;&gt;Node29 -->
<g id="edge45" class="edge">
<title>Node12&#45;&gt;Node29</title>
<path fill="none" stroke="#191970" d="M1099.1228,-235.2455C1095.3487,-227.6973 1090.0079,-217.0158 1085.4099,-207.8197"/>
<polygon fill="#191970" stroke="#191970" points="1088.424,-206.0217 1080.8213,-198.6427 1082.163,-209.1522 1088.424,-206.0217"/>
</g>
<!-- Node13&#45;&gt;Node1 -->
<g id="edge31" class="edge">
<title>Node13&#45;&gt;Node1</title>
<path fill="none" stroke="#191970" d="M757.1475,-183.3168C774.0513,-181.8857 792.1968,-180.3681 809,-179 1013.8349,-162.3228 1069.8112,-189.4747 1270,-143 1272.8611,-142.3358 1275.7882,-141.4964 1278.6895,-140.5535"/>
<polygon fill="#191970" stroke="#191970" points="1280.1184,-143.7582 1288.3215,-137.053 1277.7274,-137.1792 1280.1184,-143.7582"/>
</g>
<!-- Node13&#45;&gt;Node4 -->
<g id="edge28" class="edge">
<title>Node13&#45;&gt;Node4</title>
<path fill="none" stroke="#191970" d="M757.1939,-180.5495C858.076,-167.633 1038.8385,-144.3247 1040,-143 1077.5309,-100.1977 999.2277,-48.8813 954.419,-24.3857"/>
<polygon fill="#191970" stroke="#191970" points="955.889,-21.2029 945.4194,-19.5784 952.5908,-27.3772 955.889,-21.2029"/>
</g>
<!-- Node13&#45;&gt;Node6 -->
<g id="edge18" class="edge">
<title>Node13&#45;&gt;Node6</title>
<path fill="none" stroke="#191970" d="M757.3506,-180.6766C761.9695,-180.1063 766.554,-179.5429 771,-179 905.176,-162.6169 939.0658,-161.2547 1073,-143 1074.2854,-142.8248 1075.5797,-142.647 1076.8814,-142.4668"/>
<polygon fill="#191970" stroke="#191970" points="1077.5666,-145.9049 1086.9807,-141.0445 1076.5903,-138.9734 1077.5666,-145.9049"/>
</g>
<!-- Node14 -->
<g id="node15" class="node">
<title>Node14</title>
<g id="a_node15"><a xlink:href="../../de/d64/RangeReference_8h.html" target="_top" xlink:title="Class to refer to the 1st entry and N elements of some group in the continuous container. ">
<polygon fill="none" stroke="#000000" points="821,-118 821,-137 1031,-137 1031,-118 821,-118"/>
<text text-anchor="middle" x="926" y="-125" font-family="Helvetica,sans-Serif" font-size="10.00" fill="#000000">CommonDataFormat/RangeReference.h</text>
</a>
</g>
</g>
<!-- Node13&#45;&gt;Node14 -->
<g id="edge19" class="edge">
<title>Node13&#45;&gt;Node14</title>
<path fill="none" stroke="#191970" d="M727.4609,-179.4581C768.4515,-168.7308 835.0969,-151.2895 879.726,-139.61"/>
<polygon fill="#191970" stroke="#191970" points="880.6655,-142.9821 889.4536,-137.0643 878.8932,-136.2101 880.6655,-142.9821"/>
</g>
<!-- Node15 -->
<g id="node16" class="node">
<title>Node15</title>
<g id="a_node16"><a xlink:href="../../df/d5d/common_2include_2CommonDataFormat_2TimeStamp_8h.html" target="_top" xlink:title="CommonDataFormat/TimeStamp.h">
<polygon fill="none" stroke="#000000" points="615.5,-118 615.5,-137 802.5,-137 802.5,-118 615.5,-118"/>
<text text-anchor="middle" x="709" y="-125" font-family="Helvetica,sans-Serif" font-size="10.00" fill="#000000">CommonDataFormat/TimeStamp.h</text>
</a>
</g>
</g>
<!-- Node13&#45;&gt;Node15 -->
<g id="edge21" class="edge">
<title>Node13&#45;&gt;Node15</title>
<path fill="none" stroke="#191970" d="M693.8125,-179.3906C696.3339,-170.776 700.111,-157.8708 703.2676,-147.0858"/>
<polygon fill="#191970" stroke="#191970" points="706.6979,-147.8254 706.1478,-137.2449 699.9797,-145.8591 706.6979,-147.8254"/>
</g>
<!-- Node13&#45;&gt;Node19 -->
<g id="edge26" class="edge">
<title>Node13&#45;&gt;Node19</title>
<path fill="none" stroke="#191970" d="M653.453,-179.4581C611.1528,-168.7082 542.3223,-151.2162 496.363,-139.5365"/>
<polygon fill="#191970" stroke="#191970" points="497.1891,-136.1352 486.6351,-137.0643 495.4649,-142.9196 497.1891,-136.1352"/>
</g>
<!-- Node13&#45;&gt;Node20 -->
<g id="edge29" class="edge">
<title>Node13&#45;&gt;Node20</title>
<path fill="none" stroke="#191970" d="M624.7986,-184.901C556.1334,-179.5078 446.1234,-167.6525 354,-143 351.5308,-142.3392 349.0074,-141.5593 346.4935,-140.7065"/>
<polygon fill="#191970" stroke="#191970" points="347.5719,-137.3732 336.9793,-137.1547 345.1237,-143.9311 347.5719,-137.3732"/>
</g>
<!-- Node21 -->
<g id="node22" class="node">
<title>Node21</title>
<polygon fill="none" stroke="#bfbfbf" points="553,-118 553,-137 597,-137 597,-118 553,-118"/>
<text text-anchor="middle" x="575" y="-125" font-family="Helvetica,sans-Serif" font-size="10.00" fill="#000000">bitset</text>
</g>
<!-- Node13&#45;&gt;Node21 -->
<g id="edge30" class="edge">
<title>Node13&#45;&gt;Node21</title>
<path fill="none" stroke="#191970" d="M672.875,-179.3906C653.8917,-169.3262 623.8627,-153.4057 602.0693,-141.8514"/>
<polygon fill="#191970" stroke="#191970" points="603.4723,-138.6338 592.9977,-137.0419 600.1934,-144.8184 603.4723,-138.6338"/>
</g>
<!-- Node14&#45;&gt;Node7 -->
<g id="edge20" class="edge">
<title>Node14&#45;&gt;Node7</title>
<path fill="none" stroke="#191970" d="M926,-117.8906C926,-109.3657 926,-96.6392 926,-85.9235"/>
<polygon fill="#191970" stroke="#191970" points="929.5001,-85.7448 926,-75.7449 922.5001,-85.7449 929.5001,-85.7448"/>
</g>
<!-- Node15&#45;&gt;Node7 -->
<g id="edge22" class="edge">
<title>Node15&#45;&gt;Node7</title>
<path fill="none" stroke="#191970" d="M742.9063,-117.8906C780.5679,-107.2169 841.4702,-89.9566 882.5885,-78.3033"/>
<polygon fill="#191970" stroke="#191970" points="883.6651,-81.6361 892.3318,-75.5419 881.7564,-74.9013 883.6651,-81.6361"/>
</g>
<!-- Node16 -->
<g id="node17" class="node">
<title>Node16</title>
<g id="a_node17"><a xlink:href="../../df/d21/GPUCommonDef_8h.html" target="_top" xlink:title="GPUCommonDef.h">
<polygon fill="none" stroke="#000000" points="85.5,-56.5 85.5,-75.5 192.5,-75.5 192.5,-56.5 85.5,-56.5"/>
<text text-anchor="middle" x="139" y="-63.5" font-family="Helvetica,sans-Serif" font-size="10.00" fill="#000000">GPUCommonDef.h</text>
</a>
</g>
</g>
<!-- Node15&#45;&gt;Node16 -->
<g id="edge23" class="edge">
<title>Node15&#45;&gt;Node16</title>
<path fill="none" stroke="#191970" d="M649.1601,-117.9656C635.0266,-115.8605 619.9971,-113.7414 606,-112 462.1807,-94.1074 292.7342,-78.8692 202.7252,-71.2364"/>
<polygon fill="#191970" stroke="#191970" points="202.9375,-67.742 192.6784,-70.3881 202.3484,-74.7171 202.9375,-67.742"/>
</g>
<!-- Node17 -->
<g id="node18" class="node">
<title>Node17</title>
<g id="a_node18"><a xlink:href="../../d5/d93/GPUCommonDefSettings_8h.html" target="_top" xlink:title="GPUCommonDefSettings.h">
<polygon fill="none" stroke="#000000" points="142,-.5 142,-19.5 290,-19.5 290,-.5 142,-.5"/>
<text text-anchor="middle" x="216" y="-7.5" font-family="Helvetica,sans-Serif" font-size="10.00" fill="#000000">GPUCommonDefSettings.h</text>
</a>
</g>
</g>
<!-- Node16&#45;&gt;Node17 -->
<g id="edge24" class="edge">
<title>Node16&#45;&gt;Node17</title>
<path fill="none" stroke="#191970" d="M152.4124,-56.2455C164.0057,-47.814 180.9748,-35.4729 194.4678,-25.6598"/>
<polygon fill="#191970" stroke="#191970" points="196.7126,-28.355 202.7413,-19.6427 192.5953,-22.6938 196.7126,-28.355"/>
</g>
<!-- Node18 -->
<g id="node19" class="node">
<title>Node18</title>
<g id="a_node19"><a xlink:href="../../da/d5a/GPUCommonDefAPI_8h.html" target="_top" xlink:title="GPUCommonDefAPI.h">
<polygon fill="none" stroke="#000000" points="0,-.5 0,-19.5 124,-19.5 124,-.5 0,-.5"/>
<text text-anchor="middle" x="62" y="-7.5" font-family="Helvetica,sans-Serif" font-size="10.00" fill="#000000">GPUCommonDefAPI.h</text>
</a>
</g>
</g>
<!-- Node16&#45;&gt;Node18 -->
<g id="edge25" class="edge">
<title>Node16&#45;&gt;Node18</title>
<path fill="none" stroke="#191970" d="M125.5876,-56.2455C113.9943,-47.814 97.0252,-35.4729 83.5322,-25.6598"/>
<polygon fill="#191970" stroke="#191970" points="85.4047,-22.6938 75.2587,-19.6427 81.2874,-28.355 85.4047,-22.6938"/>
</g>
<!-- Node19&#45;&gt;Node4 -->
<g id="edge27" class="edge">
<title>Node19&#45;&gt;Node4</title>
<path fill="none" stroke="#191970" d="M487.6309,-117.984C576.8994,-95.9944 796.7166,-41.8465 886.6661,-19.6892"/>
<polygon fill="#191970" stroke="#191970" points="887.5998,-23.0639 896.4724,-17.2736 885.9255,-16.2671 887.5998,-23.0639"/>
</g>
<!-- Node22&#45;&gt;Node10 -->
<g id="edge34" class="edge">
<title>Node22&#45;&gt;Node10</title>
<path fill="none" stroke="#191970" d="M1419.018,-179.4617C1439.8276,-172.8668 1461.5668,-161.742 1474,-143 1485.2142,-126.0954 1480.4236,-102.3574 1474.6027,-85.7204"/>
<polygon fill="#191970" stroke="#191970" points="1477.6866,-83.996 1470.7866,-75.9561 1471.1669,-86.5441 1477.6866,-83.996"/>
</g>
<!-- Node23&#45;&gt;Node1 -->
<g id="edge38" class="edge">
<title>Node23&#45;&gt;Node1</title>
<path fill="none" stroke="#191970" d="M1559.4448,-180.9035C1499.5226,-173.987 1417.9761,-162.0638 1348,-143 1345.388,-142.2884 1342.7126,-141.4569 1340.0473,-140.5551"/>
<polygon fill="#191970" stroke="#191970" points="1341.1637,-137.2366 1330.5701,-137.0714 1338.7485,-143.8068 1341.1637,-137.2366"/>
</g>
<!-- Node23&#45;&gt;Node4 -->
<g id="edge36" class="edge">
<title>Node23&#45;&gt;Node4</title>
<path fill="none" stroke="#191970" d="M1641.1791,-179.3992C1630.4707,-153.9364 1597.4756,-84.6768 1545,-56 1494.3552,-28.3237 1094.9999,-14.7551 966.0199,-11.0639"/>
<polygon fill="#191970" stroke="#191970" points="965.8914,-7.559 955.7968,-10.776 965.6943,-14.5563 965.8914,-7.559"/>
</g>
<!-- Node23&#45;&gt;Node24 -->
<g id="edge37" class="edge">
<title>Node23&#45;&gt;Node24</title>
<path fill="none" stroke="#191970" d="M1650.3125,-179.3906C1655.2239,-170.5068 1662.6579,-157.0601 1668.7275,-146.0811"/>
<polygon fill="#191970" stroke="#191970" points="1671.8373,-147.6899 1673.6126,-137.2449 1665.7112,-144.3031 1671.8373,-147.6899"/>
</g>
<!-- Node23&#45;&gt;Node25 -->
<g id="edge39" class="edge">
<title>Node23&#45;&gt;Node25</title>
<path fill="none" stroke="#191970" d="M1665.9375,-179.3906C1688.2598,-169.1457 1723.8037,-152.8326 1749.0757,-141.2339"/>
<polygon fill="#191970" stroke="#191970" points="1750.581,-144.3942 1758.2095,-137.0419 1747.6611,-138.0322 1750.581,-144.3942"/>
</g>
<!-- Node27 -->
<g id="node28" class="node">
<title>Node27</title>
<polygon fill="none" stroke="#bfbfbf" points="1357,-118 1357,-137 1465,-137 1465,-118 1357,-118"/>
<text text-anchor="middle" x="1411" y="-125" font-family="Helvetica,sans-Serif" font-size="10.00" fill="#000000">fairlogger/Logger.h</text>
</g>
<!-- Node26&#45;&gt;Node27 -->
<g id="edge42" class="edge">
<title>Node26&#45;&gt;Node27</title>
<path fill="none" stroke="#191970" d="M1245.625,-179.3906C1279.2824,-168.8298 1333.4899,-151.8208 1370.6059,-140.1747"/>
<polygon fill="#191970" stroke="#191970" points="1372.0966,-143.3753 1380.5901,-137.0419 1370.0009,-136.6963 1372.0966,-143.3753"/>
</g>
</g>
</svg>
        <g id="navigator" transform="translate(0 0)" fill="#404254">
                <rect fill="#f2f5e9" fill-opacity="0.5" stroke="#606060" stroke-width=".5" x="0" y="0" width="60" height="60"/>
                <use id="zoomplus" xlink:href="#zoomPlus" x="17" y="9" onmousedown="handleZoom(evt,'in')"/>
                <use id="zoomminus" xlink:href="#zoomMin" x="42" y="9" onmousedown="handleZoom(evt,'out')"/>
                <use id="reset" xlink:href="#resetDef" x="30" y="36" onmousedown="handleReset()"/>
                <g id="arrowUp" xlink:href="#dirArrow" transform="translate(30 24)" onmousedown="handlePan(0,-1)">
                  <use xlink:href="#rim" fill="#404040">
                        <set attributeName="fill" to="#808080" begin="arrowUp.mouseover" end="arrowUp.mouseout"/>
                  </use>
                  <path fill="none" stroke="white" stroke-width="1.5" d="M0,-3.0v7 M-2.5,-0.5L0,-3.0L2.5,-0.5"/>
                </g>
                <g id="arrowRight" xlink:href="#dirArrow" transform="rotate(90) translate(36 -43)" onmousedown="handlePan(1,0)">
                  <use xlink:href="#rim" fill="#404040">
                        <set attributeName="fill" to="#808080" begin="arrowRight.mouseover" end="arrowRight.mouseout"/>
                  </use>
                  <path fill="none" stroke="white" stroke-width="1.5" d="M0,-3.0v7 M-2.5,-0.5L0,-3.0L2.5,-0.5"/>
                </g>
                <g id="arrowDown" xlink:href="#dirArrow" transform="rotate(180) translate(-30 -48)" onmousedown="handlePan(0,1)">
                  <use xlink:href="#rim" fill="#404040">
                        <set attributeName="fill" to="#808080" begin="arrowDown.mouseover" end="arrowDown.mouseout"/>
                  </use>
                  <path fill="none" stroke="white" stroke-width="1.5" d="M0,-3.0v7 M-2.5,-0.5L0,-3.0L2.5,-0.5"/>
                </g>
                <g id="arrowLeft" xlink:href="#dirArrow" transform="rotate(270) translate(-36 17)" onmousedown="handlePan(-1,0)">
                  <use xlink:href="#rim" fill="#404040">
                        <set attributeName="fill" to="#808080" begin="arrowLeft.mouseover" end="arrowLeft.mouseout"/>
                  </use>
                  <path fill="none" stroke="white" stroke-width="1.5" d="M0,-3.0v7 M-2.5,-0.5L0,-3.0L2.5,-0.5"/>
                </g>
        </g>
        <svg viewBox="0 0 15 15" width="100%" height="30px" preserveAspectRatio="xMaxYMin meet">
         <g id="arrow_out" transform="scale(0.3 0.3)">
          <a xlink:href="DigitBlockFT0_8h__incl_org.svg" target="_base">
           <rect id="button" ry="5" rx="5" y="6" x="6" height="38" width="38"
                fill="#f2f5e9" fill-opacity="0.5" stroke="#606060" stroke-width="1.0"/>
           <path id="arrow"
             d="M 11.500037,31.436501 C 11.940474,20.09759 22.043105,11.32322 32.158766,21.979434 L 37.068811,17.246167 C 37.068811,17.246167 37.088388,32 37.088388,32 L 22.160133,31.978069 C 22.160133,31.978069 26.997745,27.140456 26.997745,27.140456 C 18.528582,18.264221 13.291696,25.230495 11.500037,31.436501 z"
             style="fill:#404040;"/>
          </a>
         </g>
        </svg>
</svg>
