<?xml version="1.0" encoding="UTF-8" standalone="no"?>
<!DOCTYPE svg PUBLIC "-//W3C//DTD SVG 1.1//EN"
 "http://www.w3.org/Graphics/SVG/1.1/DTD/svg11.dtd">
<!-- Generated by graphviz version 2.40.1 (20161225.0304)
 -->
<!-- Title: o2::ft0::DigitBlockFT0 Pages: 1 -->
<!--zoomable 1096 -->
<svg id="main" version="1.1" xmlns="http://www.w3.org/2000/svg" xmlns:xlink="http://www.w3.org/1999/xlink" xml:space="preserve" onload="init(evt)">
<style type="text/css"><![CDATA[
.edge:hover path { stroke: red; }
.edge:hover polygon { stroke: red; fill: red; }
]]></style>
<script type="text/javascript"><![CDATA[
var edges = document.getElementsByTagName('g');
if (edges && edges.length) {
  for (var i=0;i<edges.length;i++) {
    if (edges[i].id.substr(0,4)=='edge') {
      edges[i].setAttribute('class','edge');
    }
  }
}
]]></script>
        <defs>
                <circle id="rim" cx="0" cy="0" r="7"/>
                <circle id="rim2" cx="0" cy="0" r="3.5"/>
                <g id="zoomPlus">
                        <use xlink:href="#rim" fill="#404040">
                                <set attributeName="fill" to="#808080" begin="zoomplus.mouseover" end="zoomplus.mouseout"/>
                        </use>
                        <path d="M-4,0h8M0,-4v8" fill="none" stroke="white" stroke-width="1.5" pointer-events="none"/>
                </g>
                <g id="zoomMin">
                        <use xlink:href="#rim" fill="#404040">
                                <set attributeName="fill" to="#808080" begin="zoomminus.mouseover" end="zoomminus.mouseout"/>
                        </use>
                        <path d="M-4,0h8" fill="none" stroke="white" stroke-width="1.5" pointer-events="none"/>
                </g>
                <g id="dirArrow">
                        <path fill="none" stroke="white" stroke-width="1.5" d="M0,-3.0v7 M-2.5,-0.5L0,-3.0L2.5,-0.5"/>
                </g>
               <g id="resetDef">
                       <use xlink:href="#rim2" fill="#404040">
                               <set attributeName="fill" to="#808080" begin="reset.mouseover" end="reset.mouseout"/>
                       </use>
               </g>
        </defs>

<script type="text/javascript">
var viewWidth = 803;
var viewHeight = 1096;
var sectionId = 'dynsection-0';
</script>
<script xlink:href="../../svgpan.js"/>
<svg id="graph" class="graph">
<g id="viewport">
<title>o2::ft0::DigitBlockFT0</title>
<!-- Node1 -->
<g id="node1" class="node">
<title>Node1</title>
<polygon fill="#bfbfbf" stroke="#000000" points="321,-.5 321,-134.5 443,-134.5 443,-.5 321,-.5"/>
<text text-anchor="middle" x="382" y="-122.5" font-family="Helvetica,sans-Serif" font-size="10.00" fill="#000000">o2::ft0::DigitBlockFT0</text>
<polyline fill="none" stroke="#000000" points="321,-115.5 443,-115.5 "/>
<text text-anchor="middle" x="382" y="-103.5" font-family="Helvetica,sans-Serif" font-size="10.00" fill="#000000"> </text>
<polyline fill="none" stroke="#000000" points="321,-96.5 443,-96.5 "/>
<text text-anchor="start" x="329" y="-84.5" font-family="Helvetica,sans-Serif" font-size="10.00" fill="#000000">+ DigitBlockFT0()</text>
<text text-anchor="start" x="329" y="-73.5" font-family="Helvetica,sans-Serif" font-size="10.00" fill="#000000">+ DigitBlockFT0()</text>
<text text-anchor="start" x="329" y="-62.5" font-family="Helvetica,sans-Serif" font-size="10.00" fill="#000000">+ DigitBlockFT0()</text>
<text text-anchor="start" x="329" y="-51.5" font-family="Helvetica,sans-Serif" font-size="10.00" fill="#000000">+ ~DigitBlockFT0()</text>
<text text-anchor="start" x="329" y="-40.5" font-family="Helvetica,sans-Serif" font-size="10.00" fill="#000000">+ proccess()</text>
<text text-anchor="start" x="329" y="-29.5" font-family="Helvetica,sans-Serif" font-size="10.00" fill="#000000">+ popData()</text>
<text text-anchor="start" x="329" y="-18.5" font-family="Helvetica,sans-Serif" font-size="10.00" fill="#000000">+ print()</text>
<text text-anchor="start" x="329" y="-7.5" font-family="Helvetica,sans-Serif" font-size="10.00" fill="#000000">+ print()</text>
</g>
<!-- Node2 -->
<g id="node2" class="node">
<title>Node2</title>
<polygon fill="none" stroke="#bfbfbf" points="89.5,-606.5 89.5,-663.5 118.5,-663.5 118.5,-606.5 89.5,-606.5"/>
<text text-anchor="middle" x="104" y="-651.5" font-family="Helvetica,sans-Serif" font-size="10.00" fill="#000000">int</text>
<polyline fill="none" stroke="#bfbfbf" points="89.5,-644.5 118.5,-644.5 "/>
<text text-anchor="middle" x="104" y="-632.5" font-family="Helvetica,sans-Serif" font-size="10.00" fill="#000000"> </text>
<polyline fill="none" stroke="#bfbfbf" points="89.5,-625.5 118.5,-625.5 "/>
<text text-anchor="middle" x="104" y="-613.5" font-family="Helvetica,sans-Serif" font-size="10.00" fill="#000000"> </text>
</g>
<!-- Node2&#45;&gt;Node1 -->
<g id="edge1" class="edge">
<title>Node2&#45;&gt;Node1</title>
<path fill="none" stroke="#404040" d="M96.8084,-606.341C79.3303,-529.6488 42.5234,-316.4434 135,-182 174.7621,-124.1935 251.4598,-94.9273 308.8899,-80.5393"/>
<polygon fill="none" stroke="#404040" points="309.1598,-80.475 314.0676,-75.1917 320.8321,-77.69 315.9243,-82.9733 309.1598,-80.475"/>
<text text-anchor="middle" x="162.5" y="-280" font-family="Helvetica,sans-Serif" font-size="10.00" fill="#000000"> +sEventID</text>
</g>
<!-- Node5 -->
<g id="node5" class="node">
<title>Node5</title>
<g id="a_node5"><a xlink:href="../../d0/da1/structo2_1_1ft0_1_1Digit.html" target="_top" xlink:title="FIT digit implementation for. ">
<polygon fill="none" stroke="#000000" points="199,-182.5 199,-382.5 343,-382.5 343,-182.5 199,-182.5"/>
<text text-anchor="middle" x="271" y="-370.5" font-family="Helvetica,sans-Serif" font-size="10.00" fill="#000000">o2::ft0::Digit</text>
<polyline fill="none" stroke="#000000" points="199,-363.5 343,-363.5 "/>
<text text-anchor="middle" x="271" y="-351.5" font-family="Helvetica,sans-Serif" font-size="10.00" fill="#000000"> </text>
<polyline fill="none" stroke="#000000" points="199,-344.5 343,-344.5 "/>
<text text-anchor="start" x="207" y="-332.5" font-family="Helvetica,sans-Serif" font-size="10.00" fill="#000000">+ Digit()</text>
<text text-anchor="start" x="207" y="-321.5" font-family="Helvetica,sans-Serif" font-size="10.00" fill="#000000">+ Digit()</text>
<text text-anchor="start" x="207" y="-310.5" font-family="Helvetica,sans-Serif" font-size="10.00" fill="#000000">+ getOrbit()</text>
<text text-anchor="start" x="207" y="-299.5" font-family="Helvetica,sans-Serif" font-size="10.00" fill="#000000">+ getBC()</text>
<text text-anchor="start" x="207" y="-288.5" font-family="Helvetica,sans-Serif" font-size="10.00" fill="#000000">+ getTriggers()</text>
<text text-anchor="start" x="207" y="-277.5" font-family="Helvetica,sans-Serif" font-size="10.00" fill="#000000">+ getEventID()</text>
<text text-anchor="start" x="207" y="-266.5" font-family="Helvetica,sans-Serif" font-size="10.00" fill="#000000">+ getIntRecord()</text>
<text text-anchor="start" x="207" y="-255.5" font-family="Helvetica,sans-Serif" font-size="10.00" fill="#000000">+ getBunchChannelData()</text>
<text text-anchor="start" x="207" y="-244.5" font-family="Helvetica,sans-Serif" font-size="10.00" fill="#000000">+ printStream()</text>
<text text-anchor="start" x="207" y="-233.5" font-family="Helvetica,sans-Serif" font-size="10.00" fill="#000000">+ setTriggers()</text>
<text text-anchor="start" x="207" y="-222.5" font-family="Helvetica,sans-Serif" font-size="10.00" fill="#000000">+ setEventStatus()</text>
<text text-anchor="start" x="207" y="-211.5" font-family="Helvetica,sans-Serif" font-size="10.00" fill="#000000">+ setStatusFlag()</text>
<text text-anchor="start" x="207" y="-200.5" font-family="Helvetica,sans-Serif" font-size="10.00" fill="#000000">+ getStatusFlag()</text>
<text text-anchor="start" x="207" y="-189.5" font-family="Helvetica,sans-Serif" font-size="10.00" fill="#000000">+ ClassDefNV()</text>
</a>
</g>
</g>
<!-- Node2&#45;&gt;Node5 -->
<g id="edge10" class="edge">
<title>Node2&#45;&gt;Node5</title>
<path fill="none" stroke="#404040" d="M102.7,-606.2468C101.9009,-565.4185 104.3172,-489.048 129,-430 136.3301,-412.4644 162.3144,-383.8411 190.0892,-356.4531"/>
<polygon fill="none" stroke="#404040" points="190.1579,-356.3861 191.6597,-349.3331 198.7478,-348.0067 197.246,-355.0597 190.1579,-356.3861"/>
<text text-anchor="middle" x="178" y="-404" font-family="Helvetica,sans-Serif" font-size="10.00" fill="#000000"> +mEventID</text>
</g>
<!-- Node3 -->
<g id="node3" class="node">
<title>Node3</title>
<g id="a_node3"><a xlink:href="../../d3/df0/classo2_1_1ft0_1_1LookUpTable.html" target="_top" xlink:title="{o2::ft0::LookUpTable\n||+ LookUpTable()\l+ ~LookUpTable()\l+ printFullMap()\l+ getChannel()\l+ getLink()\l+ getMCP()\l+ linear()\l}">
<polygon fill="none" stroke="#000000" points="361,-221 361,-344 477,-344 477,-221 361,-221"/>
<text text-anchor="middle" x="419" y="-332" font-family="Helvetica,sans-Serif" font-size="10.00" fill="#000000">o2::ft0::LookUpTable</text>
<polyline fill="none" stroke="#000000" points="361,-325 477,-325 "/>
<text text-anchor="middle" x="419" y="-313" font-family="Helvetica,sans-Serif" font-size="10.00" fill="#000000"> </text>
<polyline fill="none" stroke="#000000" points="361,-306 477,-306 "/>
<text text-anchor="start" x="369" y="-294" font-family="Helvetica,sans-Serif" font-size="10.00" fill="#000000">+ LookUpTable()</text>
<text text-anchor="start" x="369" y="-283" font-family="Helvetica,sans-Serif" font-size="10.00" fill="#000000">+ ~LookUpTable()</text>
<text text-anchor="start" x="369" y="-272" font-family="Helvetica,sans-Serif" font-size="10.00" fill="#000000">+ printFullMap()</text>
<text text-anchor="start" x="369" y="-261" font-family="Helvetica,sans-Serif" font-size="10.00" fill="#000000">+ getChannel()</text>
<text text-anchor="start" x="369" y="-250" font-family="Helvetica,sans-Serif" font-size="10.00" fill="#000000">+ getLink()</text>
<text text-anchor="start" x="369" y="-239" font-family="Helvetica,sans-Serif" font-size="10.00" fill="#000000">+ getMCP()</text>
<text text-anchor="start" x="369" y="-228" font-family="Helvetica,sans-Serif" font-size="10.00" fill="#000000">+ linear()</text>
</a>
</g>
</g>
<!-- Node3&#45;&gt;Node1 -->
<g id="edge2" class="edge">
<title>Node3&#45;&gt;Node1</title>
<path fill="none" stroke="#404040" d="M408.3973,-220.8896C404.415,-197.7495 399.8318,-171.117 395.6136,-146.606"/>
<polygon fill="none" stroke="#404040" points="395.6117,-146.5945 390.652,-141.3598 393.5764,-134.7683 398.5361,-140.003 395.6117,-146.5945"/>
<text text-anchor="middle" x="437" y="-156" font-family="Helvetica,sans-Serif" font-size="10.00" fill="#000000"> +sLookupTable</text>
</g>
<!-- Node4 -->
<g id="node4" class="node">
<title>Node4</title>
<polygon fill="none" stroke="#bfbfbf" points="495,-248.5 495,-316.5 631,-316.5 631,-248.5 495,-248.5"/>
<text text-anchor="start" x="503" y="-304.5" font-family="Helvetica,sans-Serif" font-size="10.00" fill="#000000">vector&lt; o2::ft0::Channel</text>
<text text-anchor="middle" x="563" y="-293.5" font-family="Helvetica,sans-Serif" font-size="10.00" fill="#000000">Data &gt;</text>
<polyline fill="none" stroke="#bfbfbf" points="495,-286.5 631,-286.5 "/>
<text text-anchor="middle" x="563" y="-274.5" font-family="Helvetica,sans-Serif" font-size="10.00" fill="#000000"> </text>
<polyline fill="none" stroke="#bfbfbf" points="495,-267.5 631,-267.5 "/>
<text text-anchor="middle" x="563" y="-255.5" font-family="Helvetica,sans-Serif" font-size="10.00" fill="#000000"> </text>
</g>
<!-- Node4&#45;&gt;Node1 -->
<g id="edge3" class="edge">
<title>Node4&#45;&gt;Node1</title>
<path fill="none" stroke="#404040" d="M544.6161,-248.2283C529.1998,-221.0134 505.6381,-182.7262 480,-153 471.5322,-143.182 461.9325,-133.4667 452.1347,-124.302"/>
<polygon fill="none" stroke="#404040" points="451.9663,-124.1481 444.8388,-123.0534 443.1079,-116.0531 450.2354,-117.1478 451.9663,-124.1481"/>
<text text-anchor="middle" x="538" y="-156" font-family="Helvetica,sans-Serif" font-size="10.00" fill="#000000"> +mVecChannelData</text>
</g>
<!-- Node5&#45;&gt;Node1 -->
<g id="edge4" class="edge">
<title>Node5&#45;&gt;Node1</title>
<path fill="none" stroke="#404040" d="M322.7628,-182.2388C329.1239,-169.9177 335.5508,-157.4692 341.7071,-145.5448"/>
<polygon fill="none" stroke="#404040" points="341.7702,-145.4225 340.9684,-138.2561 347.2752,-134.7597 348.077,-141.9261 341.7702,-145.4225"/>
<text text-anchor="middle" x="359.5" y="-156" font-family="Helvetica,sans-Serif" font-size="10.00" fill="#000000"> +mDigit</text>
</g>
<!-- Node6 -->
<g id="node6" class="node">
<title>Node6</title>
<g id="a_node6"><a xlink:href="../../d1/d21/structo2_1_1InteractionRecord.html" target="_top" xlink:title="{o2::InteractionRecord\n||+ InteractionRecord()\l+ InteractionRecord()\l+ InteractionRecord()\l+ InteractionRecord()\l+ clear()\l+ isDummy()\l+ setFromNS()\l+ bc2ns()\l+ operator==()\l+ operator!=()\l+ differenceInBC()\l+ toLong()\l+ setFromLong()\l+ operator\&gt;()\l+ operator\&gt;=()\l+ operator\&lt;()\l+ operator\&lt;=()\l+ operator&#45;&#45;()\l+ operator&#45;&#45;()\l+ operator++()\l+ operator++()\l+ operator+=()\l+ operator&#45;=()\l+ operator+=()\l+ operator&#45;=()\l+ operator+()\l+ operator&#45;()\l+ operator+()\l+ operator&#45;()\l+ print()\l+ ClassDefNV()\l+ bc2ns()\l+ ns2bc()\l}">
<polygon fill="none" stroke="#000000" points="138.5,-430.5 138.5,-839.5 259.5,-839.5 259.5,-430.5 138.5,-430.5"/>
<text text-anchor="middle" x="199" y="-827.5" font-family="Helvetica,sans-Serif" font-size="10.00" fill="#000000">o2::InteractionRecord</text>
<polyline fill="none" stroke="#000000" points="138.5,-820.5 259.5,-820.5 "/>
<text text-anchor="middle" x="199" y="-808.5" font-family="Helvetica,sans-Serif" font-size="10.00" fill="#000000"> </text>
<polyline fill="none" stroke="#000000" points="138.5,-801.5 259.5,-801.5 "/>
<text text-anchor="start" x="146.5" y="-789.5" font-family="Helvetica,sans-Serif" font-size="10.00" fill="#000000">+ InteractionRecord()</text>
<text text-anchor="start" x="146.5" y="-778.5" font-family="Helvetica,sans-Serif" font-size="10.00" fill="#000000">+ InteractionRecord()</text>
<text text-anchor="start" x="146.5" y="-767.5" font-family="Helvetica,sans-Serif" font-size="10.00" fill="#000000">+ InteractionRecord()</text>
<text text-anchor="start" x="146.5" y="-756.5" font-family="Helvetica,sans-Serif" font-size="10.00" fill="#000000">+ InteractionRecord()</text>
<text text-anchor="start" x="146.5" y="-745.5" font-family="Helvetica,sans-Serif" font-size="10.00" fill="#000000">+ clear()</text>
<text text-anchor="start" x="146.5" y="-734.5" font-family="Helvetica,sans-Serif" font-size="10.00" fill="#000000">+ isDummy()</text>
<text text-anchor="start" x="146.5" y="-723.5" font-family="Helvetica,sans-Serif" font-size="10.00" fill="#000000">+ setFromNS()</text>
<text text-anchor="start" x="146.5" y="-712.5" font-family="Helvetica,sans-Serif" font-size="10.00" fill="#000000">+ bc2ns()</text>
<text text-anchor="start" x="146.5" y="-701.5" font-family="Helvetica,sans-Serif" font-size="10.00" fill="#000000">+ operator==()</text>
<text text-anchor="start" x="146.5" y="-690.5" font-family="Helvetica,sans-Serif" font-size="10.00" fill="#000000">+ operator!=()</text>
<text text-anchor="start" x="146.5" y="-679.5" font-family="Helvetica,sans-Serif" font-size="10.00" fill="#000000">+ differenceInBC()</text>
<text text-anchor="start" x="146.5" y="-668.5" font-family="Helvetica,sans-Serif" font-size="10.00" fill="#000000">+ toLong()</text>
<text text-anchor="start" x="146.5" y="-657.5" font-family="Helvetica,sans-Serif" font-size="10.00" fill="#000000">+ setFromLong()</text>
<text text-anchor="start" x="146.5" y="-646.5" font-family="Helvetica,sans-Serif" font-size="10.00" fill="#000000">+ operator&gt;()</text>
<text text-anchor="start" x="146.5" y="-635.5" font-family="Helvetica,sans-Serif" font-size="10.00" fill="#000000">+ operator&gt;=()</text>
<text text-anchor="start" x="146.5" y="-624.5" font-family="Helvetica,sans-Serif" font-size="10.00" fill="#000000">+ operator&lt;()</text>
<text text-anchor="start" x="146.5" y="-613.5" font-family="Helvetica,sans-Serif" font-size="10.00" fill="#000000">+ operator&lt;=()</text>
<text text-anchor="start" x="146.5" y="-602.5" font-family="Helvetica,sans-Serif" font-size="10.00" fill="#000000">+ operator&#45;&#45;()</text>
<text text-anchor="start" x="146.5" y="-591.5" font-family="Helvetica,sans-Serif" font-size="10.00" fill="#000000">+ operator&#45;&#45;()</text>
<text text-anchor="start" x="146.5" y="-580.5" font-family="Helvetica,sans-Serif" font-size="10.00" fill="#000000">+ operator++()</text>
<text text-anchor="start" x="146.5" y="-569.5" font-family="Helvetica,sans-Serif" font-size="10.00" fill="#000000">+ operator++()</text>
<text text-anchor="start" x="146.5" y="-558.5" font-family="Helvetica,sans-Serif" font-size="10.00" fill="#000000">+ operator+=()</text>
<text text-anchor="start" x="146.5" y="-547.5" font-family="Helvetica,sans-Serif" font-size="10.00" fill="#000000">+ operator&#45;=()</text>
<text text-anchor="start" x="146.5" y="-536.5" font-family="Helvetica,sans-Serif" font-size="10.00" fill="#000000">+ operator+=()</text>
<text text-anchor="start" x="146.5" y="-525.5" font-family="Helvetica,sans-Serif" font-size="10.00" fill="#000000">+ operator&#45;=()</text>
<text text-anchor="start" x="146.5" y="-514.5" font-family="Helvetica,sans-Serif" font-size="10.00" fill="#000000">+ operator+()</text>
<text text-anchor="start" x="146.5" y="-503.5" font-family="Helvetica,sans-Serif" font-size="10.00" fill="#000000">+ operator&#45;()</text>
<text text-anchor="start" x="146.5" y="-492.5" font-family="Helvetica,sans-Serif" font-size="10.00" fill="#000000">+ operator+()</text>
<text text-anchor="start" x="146.5" y="-481.5" font-family="Helvetica,sans-Serif" font-size="10.00" fill="#000000">+ operator&#45;()</text>
<text text-anchor="start" x="146.5" y="-470.5" font-family="Helvetica,sans-Serif" font-size="10.00" fill="#000000">+ print()</text>
<text text-anchor="start" x="146.5" y="-459.5" font-family="Helvetica,sans-Serif" font-size="10.00" fill="#000000">+ ClassDefNV()</text>
<text text-anchor="start" x="146.5" y="-448.5" font-family="Helvetica,sans-Serif" font-size="10.00" fill="#000000">+ bc2ns()</text>
<text text-anchor="start" x="146.5" y="-437.5" font-family="Helvetica,sans-Serif" font-size="10.00" fill="#000000">+ ns2bc()</text>
</a>
</g>
</g>
<!-- Node6&#45;&gt;Node5 -->
<g id="edge5" class="edge">
<title>Node6&#45;&gt;Node5</title>
<path fill="none" stroke="#404040" d="M210.4849,-430.4252C212.3749,-420.4233 214.5347,-410.5682 217,-401 217.5575,-398.8363 218.1524,-396.6631 218.7811,-394.4843"/>
<polygon fill="none" stroke="#404040" points="218.8537,-394.2522 216.8316,-387.3304 222.4432,-382.8016 224.4654,-389.7234 218.8537,-394.2522"/>
<text text-anchor="middle" x="250.5" y="-404" font-family="Helvetica,sans-Serif" font-size="10.00" fill="#000000"> +mIntRecord</text>
</g>
<!-- Node7 -->
<g id="node7" class="node">
<title>Node7</title>
<polygon fill="none" stroke="#bfbfbf" points="0,-964.5 0,-1021.5 50,-1021.5 50,-964.5 0,-964.5"/>
<text text-anchor="middle" x="25" y="-1009.5" font-family="Helvetica,sans-Serif" font-size="10.00" fill="#000000">double</text>
<polyline fill="none" stroke="#bfbfbf" points="0,-1002.5 50,-1002.5 "/>
<text text-anchor="middle" x="25" y="-990.5" font-family="Helvetica,sans-Serif" font-size="10.00" fill="#000000"> </text>
<polyline fill="none" stroke="#bfbfbf" points="0,-983.5 50,-983.5 "/>
<text text-anchor="middle" x="25" y="-971.5" font-family="Helvetica,sans-Serif" font-size="10.00" fill="#000000"> </text>
</g>
<!-- Node7&#45;&gt;Node6 -->
<g id="edge6" class="edge">
<title>Node7&#45;&gt;Node6</title>
<path fill="none" stroke="#404040" d="M23.4513,-964.43C23.4314,-933.9623 28.3457,-886.2857 56,-858 78.7578,-834.7226 102.9746,-861.9666 127,-840 128.0092,-839.0773 129.0042,-838.1396 129.9853,-837.1876"/>
<polygon fill="none" stroke="#404040" points="130.1964,-836.9645 131.4146,-829.857 138.4439,-828.2479 137.2257,-835.3554 130.1964,-836.9645"/>
<text text-anchor="middle" x="94" y="-866.5" font-family="Helvetica,sans-Serif" font-size="10.00" fill="#000000"> +DummyTime</text>
</g>
<!-- Node8 -->
<g id="node8" class="node">
<title>Node8</title>
<polygon fill="none" stroke="#bfbfbf" points="96,-964.5 96,-1021.5 152,-1021.5 152,-964.5 96,-964.5"/>
<text text-anchor="middle" x="124" y="-1009.5" font-family="Helvetica,sans-Serif" font-size="10.00" fill="#000000">uint16_t</text>
<polyline fill="none" stroke="#bfbfbf" points="96,-1002.5 152,-1002.5 "/>
<text text-anchor="middle" x="124" y="-990.5" font-family="Helvetica,sans-Serif" font-size="10.00" fill="#000000"> </text>
<polyline fill="none" stroke="#bfbfbf" points="96,-983.5 152,-983.5 "/>
<text text-anchor="middle" x="124" y="-971.5" font-family="Helvetica,sans-Serif" font-size="10.00" fill="#000000"> </text>
</g>
<!-- Node8&#45;&gt;Node6 -->
<g id="edge7" class="edge">
<title>Node8&#45;&gt;Node6</title>
<path fill="none" stroke="#404040" d="M125.9108,-964.3688C128.0418,-936.9127 132.1262,-894.3796 139,-858 139.3902,-855.9348 139.7896,-853.8607 140.1976,-851.7789"/>
<polygon fill="none" stroke="#404040" points="140.2455,-851.542 137.5148,-844.868 142.6252,-839.7803 145.3559,-846.4544 140.2455,-851.542"/>
<text text-anchor="middle" x="171" y="-872" font-family="Helvetica,sans-Serif" font-size="10.00" fill="#000000"> +DummyBC</text>
<text text-anchor="middle" x="171" y="-861" font-family="Helvetica,sans-Serif" font-size="10.00" fill="#000000">+bc</text>
</g>
<!-- Node9 -->
<g id="node9" class="node">
<title>Node9</title>
<g id="a_node9"><a xlink:href="../../d3/d87/classuint32__t.html" target="_top" xlink:title="{uint32_t\n||}">
<polygon fill="none" stroke="#000000" points="183,-964.5 183,-1021.5 239,-1021.5 239,-964.5 183,-964.5"/>
<text text-anchor="middle" x="211" y="-1009.5" font-family="Helvetica,sans-Serif" font-size="10.00" fill="#000000">uint32_t</text>
<polyline fill="none" stroke="#000000" points="183,-1002.5 239,-1002.5 "/>
<text text-anchor="middle" x="211" y="-990.5" font-family="Helvetica,sans-Serif" font-size="10.00" fill="#000000"> </text>
<polyline fill="none" stroke="#000000" points="183,-983.5 239,-983.5 "/>
<text text-anchor="middle" x="211" y="-971.5" font-family="Helvetica,sans-Serif" font-size="10.00" fill="#000000"> </text>
</a>
</g>
</g>
<!-- Node9&#45;&gt;Node6 -->
<g id="edge8" class="edge">
<title>Node9&#45;&gt;Node6</title>
<path fill="none" stroke="#404040" d="M210.0383,-964.3085C209.1576,-938.0348 207.7658,-896.5138 206.2633,-851.6899"/>
<polygon fill="none" stroke="#404040" points="206.2603,-851.5959 202.0615,-845.7333 205.8582,-839.6026 210.057,-845.4652 206.2603,-851.5959"/>
<text text-anchor="middle" x="244" y="-872" font-family="Helvetica,sans-Serif" font-size="10.00" fill="#000000"> +orbit</text>
<text text-anchor="middle" x="244" y="-861" font-family="Helvetica,sans-Serif" font-size="10.00" fill="#000000">+DummyOrbit</text>
</g>
<!-- Node10 -->
<g id="node10" class="node">
<title>Node10</title>
<polygon fill="none" stroke="#bfbfbf" points="289,-964.5 289,-1021.5 339,-1021.5 339,-964.5 289,-964.5"/>
<text text-anchor="middle" x="314" y="-1009.5" font-family="Helvetica,sans-Serif" font-size="10.00" fill="#000000">uint8_t</text>
<polyline fill="none" stroke="#bfbfbf" points="289,-1002.5 339,-1002.5 "/>
<text text-anchor="middle" x="314" y="-990.5" font-family="Helvetica,sans-Serif" font-size="10.00" fill="#000000"> </text>
<polyline fill="none" stroke="#bfbfbf" points="289,-983.5 339,-983.5 "/>
<text text-anchor="middle" x="314" y="-971.5" font-family="Helvetica,sans-Serif" font-size="10.00" fill="#000000"> </text>
</g>
<!-- Node10&#45;&gt;Node5 -->
<g id="edge9" class="edge">
<title>Node10&#45;&gt;Node5</title>
<path fill="none" stroke="#404040" d="M312.6374,-964.141C307.3842,-853.174 288.5152,-457.3554 284,-401 283.8352,-398.9434 283.6636,-396.8673 283.4858,-394.7763"/>
<polygon fill="none" stroke="#404040" points="283.4722,-394.6229 278.9552,-389.0018 282.4066,-382.6703 286.9236,-388.2914 283.4722,-394.6229"/>
<text text-anchor="middle" x="347" y="-632.5" font-family="Helvetica,sans-Serif" font-size="10.00" fill="#000000"> +mEventStatus</text>
</g>
<!-- Node11 -->
<g id="node11" class="node">
<title>Node11</title>
<g id="a_node11"><a xlink:href="../../db/df8/structo2_1_1ft0_1_1Triggers.html" target="_top" xlink:title="{o2::ft0::Triggers\n||+ Triggers()\l+ Triggers()\l+ getOrA()\l+ getOrC()\l+ getVertex()\l+ getCen()\l+ getSCen()\l+ setTriggers()\l+ cleanTriggers()\l+ ClassDefNV()\l}">
<polygon fill="none" stroke="#000000" points="396,-557 396,-713 496,-713 496,-557 396,-557"/>
<text text-anchor="middle" x="446" y="-701" font-family="Helvetica,sans-Serif" font-size="10.00" fill="#000000">o2::ft0::Triggers</text>
<polyline fill="none" stroke="#000000" points="396,-694 496,-694 "/>
<text text-anchor="middle" x="446" y="-682" font-family="Helvetica,sans-Serif" font-size="10.00" fill="#000000"> </text>
<polyline fill="none" stroke="#000000" points="396,-675 496,-675 "/>
<text text-anchor="start" x="404" y="-663" font-family="Helvetica,sans-Serif" font-size="10.00" fill="#000000">+ Triggers()</text>
<text text-anchor="start" x="404" y="-652" font-family="Helvetica,sans-Serif" font-size="10.00" fill="#000000">+ Triggers()</text>
<text text-anchor="start" x="404" y="-641" font-family="Helvetica,sans-Serif" font-size="10.00" fill="#000000">+ getOrA()</text>
<text text-anchor="start" x="404" y="-630" font-family="Helvetica,sans-Serif" font-size="10.00" fill="#000000">+ getOrC()</text>
<text text-anchor="start" x="404" y="-619" font-family="Helvetica,sans-Serif" font-size="10.00" fill="#000000">+ getVertex()</text>
<text text-anchor="start" x="404" y="-608" font-family="Helvetica,sans-Serif" font-size="10.00" fill="#000000">+ getCen()</text>
<text text-anchor="start" x="404" y="-597" font-family="Helvetica,sans-Serif" font-size="10.00" fill="#000000">+ getSCen()</text>
<text text-anchor="start" x="404" y="-586" font-family="Helvetica,sans-Serif" font-size="10.00" fill="#000000">+ setTriggers()</text>
<text text-anchor="start" x="404" y="-575" font-family="Helvetica,sans-Serif" font-size="10.00" fill="#000000">+ cleanTriggers()</text>
<text text-anchor="start" x="404" y="-564" font-family="Helvetica,sans-Serif" font-size="10.00" fill="#000000">+ ClassDefNV()</text>
</a>
</g>
</g>
<!-- Node10&#45;&gt;Node11 -->
<g id="edge13" class="edge">
<title>Node10&#45;&gt;Node11</title>
<path fill="none" stroke="#404040" d="M315.258,-964.3232C317.9019,-934.8671 325.9226,-889.0551 350,-858 359.9984,-845.1041 371.733,-852.6831 382,-840 408.4682,-807.3031 424.0373,-763.6068 433.1731,-724.9581"/>
<polygon fill="none" stroke="#404040" points="433.1958,-724.856 430.5971,-718.1294 435.8068,-713.1435 438.4055,-719.8701 433.1958,-724.856"/>
<text text-anchor="middle" x="389.5" y="-866.5" font-family="Helvetica,sans-Serif" font-size="10.00" fill="#000000"> +triggersignals</text>
</g>
<!-- Node11&#45;&gt;Node5 -->
<g id="edge11" class="edge">
<title>Node11&#45;&gt;Node5</title>
<path fill="none" stroke="#404040" d="M428.2904,-556.6105C417.7553,-517.3434 402.4168,-469.8112 382,-430 376.4639,-419.2049 364.494,-401.8944 350.3801,-382.8663"/>
<polygon fill="none" stroke="#404040" points="350.2575,-382.7025 343.459,-380.2982 343.0635,-373.0979 349.862,-375.5023 350.2575,-382.7025"/>
<text text-anchor="middle" x="400" y="-404" font-family="Helvetica,sans-Serif" font-size="10.00" fill="#000000"> +mTriggers</text>
</g>
<!-- Node12 -->
<g id="node12" class="node">
<title>Node12</title>
<polygon fill="none" stroke="#bfbfbf" points="411,-964.5 411,-1021.5 455,-1021.5 455,-964.5 411,-964.5"/>
<text text-anchor="middle" x="433" y="-1009.5" font-family="Helvetica,sans-Serif" font-size="10.00" fill="#000000">int8_t</text>
<polyline fill="none" stroke="#bfbfbf" points="411,-1002.5 455,-1002.5 "/>
<text text-anchor="middle" x="433" y="-990.5" font-family="Helvetica,sans-Serif" font-size="10.00" fill="#000000"> </text>
<polyline fill="none" stroke="#bfbfbf" points="411,-983.5 455,-983.5 "/>
<text text-anchor="middle" x="433" y="-971.5" font-family="Helvetica,sans-Serif" font-size="10.00" fill="#000000"> </text>
</g>
<!-- Node12&#45;&gt;Node11 -->
<g id="edge12" class="edge">
<title>Node12&#45;&gt;Node11</title>
<path fill="none" stroke="#404040" d="M432.8274,-964.2872C432.7544,-936.9527 432.8783,-894.6635 434,-858 435.3379,-814.2693 437.8279,-765.7619 440.1944,-725.1859"/>
<polygon fill="none" stroke="#404040" points="440.1984,-725.1175 436.5596,-718.8918 440.9069,-713.1384 444.5457,-719.3641 440.1984,-725.1175"/>
<text text-anchor="middle" x="458.5" y="-872" font-family="Helvetica,sans-Serif" font-size="10.00" fill="#000000"> +nChanA</text>
<text text-anchor="middle" x="458.5" y="-861" font-family="Helvetica,sans-Serif" font-size="10.00" fill="#000000">+nChanC</text>
</g>
<!-- Node13 -->
<g id="node13" class="node">
<title>Node13</title>
<polygon fill="none" stroke="#bfbfbf" points="479,-964.5 479,-1021.5 529,-1021.5 529,-964.5 479,-964.5"/>
<text text-anchor="middle" x="504" y="-1009.5" font-family="Helvetica,sans-Serif" font-size="10.00" fill="#000000">int32_t</text>
<polyline fill="none" stroke="#bfbfbf" points="479,-1002.5 529,-1002.5 "/>
<text text-anchor="middle" x="504" y="-990.5" font-family="Helvetica,sans-Serif" font-size="10.00" fill="#000000"> </text>
<polyline fill="none" stroke="#bfbfbf" points="479,-983.5 529,-983.5 "/>
<text text-anchor="middle" x="504" y="-971.5" font-family="Helvetica,sans-Serif" font-size="10.00" fill="#000000"> </text>
</g>
<!-- Node13&#45;&gt;Node11 -->
<g id="edge14" class="edge">
<title>Node13&#45;&gt;Node11</title>
<path fill="none" stroke="#404040" d="M499.6186,-964.2813C495.4274,-936.9424 488.8909,-894.6504 483,-858 475.9721,-814.276 467.9508,-765.7694 461.1773,-725.1922"/>
<polygon fill="none" stroke="#404040" points="461.142,-724.9801 456.2077,-719.7215 459.164,-713.1443 464.0983,-718.4029 461.142,-724.9801"/>
<text text-anchor="middle" x="506.5" y="-872" font-family="Helvetica,sans-Serif" font-size="10.00" fill="#000000"> +amplA</text>
<text text-anchor="middle" x="506.5" y="-861" font-family="Helvetica,sans-Serif" font-size="10.00" fill="#000000">+amplC</text>
</g>
<!-- Node14 -->
<g id="node14" class="node">
<title>Node14</title>
<polygon fill="none" stroke="#bfbfbf" points="547,-964.5 547,-1021.5 597,-1021.5 597,-964.5 547,-964.5"/>
<text text-anchor="middle" x="572" y="-1009.5" font-family="Helvetica,sans-Serif" font-size="10.00" fill="#000000">int16_t</text>
<polyline fill="none" stroke="#bfbfbf" points="547,-1002.5 597,-1002.5 "/>
<text text-anchor="middle" x="572" y="-990.5" font-family="Helvetica,sans-Serif" font-size="10.00" fill="#000000"> </text>
<polyline fill="none" stroke="#bfbfbf" points="547,-983.5 597,-983.5 "/>
<text text-anchor="middle" x="572" y="-971.5" font-family="Helvetica,sans-Serif" font-size="10.00" fill="#000000"> </text>
</g>
<!-- Node14&#45;&gt;Node11 -->
<g id="edge15" class="edge">
<title>Node14&#45;&gt;Node11</title>
<path fill="none" stroke="#404040" d="M564.2286,-964.3472C556.6088,-936.8754 544.3659,-894.3313 532,-858 516.8765,-813.5666 498.3274,-764.8617 482.3327,-724.3352"/>
<polygon fill="none" stroke="#404040" points="482.3141,-724.2881 476.3853,-720.1833 477.894,-713.1318 483.8228,-717.2366 482.3141,-724.2881"/>
<text text-anchor="middle" x="559.5" y="-872" font-family="Helvetica,sans-Serif" font-size="10.00" fill="#000000"> +timeA</text>
<text text-anchor="middle" x="559.5" y="-861" font-family="Helvetica,sans-Serif" font-size="10.00" fill="#000000">+timeC</text>
</g>
<!-- Node15 -->
<g id="node15" class="node">
<title>Node15</title>
<g id="a_node15"><a xlink:href="../../d7/dc7/classo2_1_1dataformats_1_1RangeReference.html" target="_top" xlink:title="{o2::dataformats::RangeReference\l\&lt; int, int \&gt;\n||+ RangeReference()\l+ RangeReference()\l+ RangeReference()\l+ ~RangeReference()\l+ set()\l+ clear()\l+ getFirstEntry()\l+ getEntries()\l+ setFirstEntry()\l+ setEntries()\l+ changeEntriesBy()\l+ operator==()\l}">
<polygon fill="none" stroke="#000000" points="564,-540.5 564,-729.5 744,-729.5 744,-540.5 564,-540.5"/>
<text text-anchor="start" x="572" y="-717.5" font-family="Helvetica,sans-Serif" font-size="10.00" fill="#000000">o2::dataformats::RangeReference</text>
<text text-anchor="middle" x="654" y="-706.5" font-family="Helvetica,sans-Serif" font-size="10.00" fill="#000000">&lt; int, int &gt;</text>
<polyline fill="none" stroke="#000000" points="564,-699.5 744,-699.5 "/>
<text text-anchor="middle" x="654" y="-687.5" font-family="Helvetica,sans-Serif" font-size="10.00" fill="#000000"> </text>
<polyline fill="none" stroke="#000000" points="564,-680.5 744,-680.5 "/>
<text text-anchor="start" x="572" y="-668.5" font-family="Helvetica,sans-Serif" font-size="10.00" fill="#000000">+ RangeReference()</text>
<text text-anchor="start" x="572" y="-657.5" font-family="Helvetica,sans-Serif" font-size="10.00" fill="#000000">+ RangeReference()</text>
<text text-anchor="start" x="572" y="-646.5" font-family="Helvetica,sans-Serif" font-size="10.00" fill="#000000">+ RangeReference()</text>
<text text-anchor="start" x="572" y="-635.5" font-family="Helvetica,sans-Serif" font-size="10.00" fill="#000000">+ ~RangeReference()</text>
<text text-anchor="start" x="572" y="-624.5" font-family="Helvetica,sans-Serif" font-size="10.00" fill="#000000">+ set()</text>
<text text-anchor="start" x="572" y="-613.5" font-family="Helvetica,sans-Serif" font-size="10.00" fill="#000000">+ clear()</text>
<text text-anchor="start" x="572" y="-602.5" font-family="Helvetica,sans-Serif" font-size="10.00" fill="#000000">+ getFirstEntry()</text>
<text text-anchor="start" x="572" y="-591.5" font-family="Helvetica,sans-Serif" font-size="10.00" fill="#000000">+ getEntries()</text>
<text text-anchor="start" x="572" y="-580.5" font-family="Helvetica,sans-Serif" font-size="10.00" fill="#000000">+ setFirstEntry()</text>
<text text-anchor="start" x="572" y="-569.5" font-family="Helvetica,sans-Serif" font-size="10.00" fill="#000000">+ setEntries()</text>
<text text-anchor="start" x="572" y="-558.5" font-family="Helvetica,sans-Serif" font-size="10.00" fill="#000000">+ changeEntriesBy()</text>
<text text-anchor="start" x="572" y="-547.5" font-family="Helvetica,sans-Serif" font-size="10.00" fill="#000000">+ operator==()</text>
</a>
</g>
</g>
<!-- Node15&#45;&gt;Node5 -->
<g id="edge16" class="edge">
<title>Node15&#45;&gt;Node5</title>
<path fill="none" stroke="#404040" d="M601.2211,-540.4239C576.0992,-502.1059 543.1707,-459.9333 505,-430 478.1775,-408.9659 466.5444,-411.1359 434,-401 401.5763,-390.9016 386.5279,-400.5422 353.4186,-382.9474"/>
<polygon fill="none" stroke="#404040" points="353.4151,-382.9454 346.2168,-383.375 343.0517,-376.8956 350.25,-376.466 353.4151,-382.9454"/>
<text text-anchor="middle" x="484.5" y="-404" font-family="Helvetica,sans-Serif" font-size="10.00" fill="#000000"> +ref</text>
</g>
<!-- Node16 -->
<g id="node16" class="node">
<title>Node16</title>
<g id="a_node16"><a xlink:href="../../d7/dc7/classo2_1_1dataformats_1_1RangeReference.html" target="_top" xlink:title="{o2::dataformats::RangeReference\l\&lt; FirstEntry, NElem \&gt;\n||+ RangeReference()\l+ RangeReference()\l+ RangeReference()\l+ ~RangeReference()\l+ set()\l+ clear()\l+ getFirstEntry()\l+ getEntries()\l+ setFirstEntry()\l+ setEntries()\l+ changeEntriesBy()\l+ operator==()\l}">
<polygon fill="none" stroke="#000000" points="615,-898.5 615,-1087.5 795,-1087.5 795,-898.5 615,-898.5"/>
<text text-anchor="start" x="623" y="-1075.5" font-family="Helvetica,sans-Serif" font-size="10.00" fill="#000000">o2::dataformats::RangeReference</text>
<text text-anchor="middle" x="705" y="-1064.5" font-family="Helvetica,sans-Serif" font-size="10.00" fill="#000000">&lt; FirstEntry, NElem &gt;</text>
<polyline fill="none" stroke="#000000" points="615,-1057.5 795,-1057.5 "/>
<text text-anchor="middle" x="705" y="-1045.5" font-family="Helvetica,sans-Serif" font-size="10.00" fill="#000000"> </text>
<polyline fill="none" stroke="#000000" points="615,-1038.5 795,-1038.5 "/>
<text text-anchor="start" x="623" y="-1026.5" font-family="Helvetica,sans-Serif" font-size="10.00" fill="#000000">+ RangeReference()</text>
<text text-anchor="start" x="623" y="-1015.5" font-family="Helvetica,sans-Serif" font-size="10.00" fill="#000000">+ RangeReference()</text>
<text text-anchor="start" x="623" y="-1004.5" font-family="Helvetica,sans-Serif" font-size="10.00" fill="#000000">+ RangeReference()</text>
<text text-anchor="start" x="623" y="-993.5" font-family="Helvetica,sans-Serif" font-size="10.00" fill="#000000">+ ~RangeReference()</text>
<text text-anchor="start" x="623" y="-982.5" font-family="Helvetica,sans-Serif" font-size="10.00" fill="#000000">+ set()</text>
<text text-anchor="start" x="623" y="-971.5" font-family="Helvetica,sans-Serif" font-size="10.00" fill="#000000">+ clear()</text>
<text text-anchor="start" x="623" y="-960.5" font-family="Helvetica,sans-Serif" font-size="10.00" fill="#000000">+ getFirstEntry()</text>
<text text-anchor="start" x="623" y="-949.5" font-family="Helvetica,sans-Serif" font-size="10.00" fill="#000000">+ getEntries()</text>
<text text-anchor="start" x="623" y="-938.5" font-family="Helvetica,sans-Serif" font-size="10.00" fill="#000000">+ setFirstEntry()</text>
<text text-anchor="start" x="623" y="-927.5" font-family="Helvetica,sans-Serif" font-size="10.00" fill="#000000">+ setEntries()</text>
<text text-anchor="start" x="623" y="-916.5" font-family="Helvetica,sans-Serif" font-size="10.00" fill="#000000">+ changeEntriesBy()</text>
<text text-anchor="start" x="623" y="-905.5" font-family="Helvetica,sans-Serif" font-size="10.00" fill="#000000">+ operator==()</text>
</a>
</g>
</g>
<!-- Node16&#45;&gt;Node15 -->
<g id="edge17" class="edge">
<title>Node16&#45;&gt;Node15</title>
<path fill="none" stroke="#ffa500" d="M690.1222,-888.5635C682.97,-838.3584 674.4605,-778.6244 667.4976,-729.7479"/>
<polygon fill="#ffa500" stroke="#ffa500" points="686.6582,-889.065 691.5336,-898.4714 693.5882,-888.0777 686.6582,-889.065"/>
<text text-anchor="middle" x="717" y="-866.5" font-family="Helvetica,sans-Serif" font-size="10.00" fill="#000000"> &lt; int, int &gt;</text>
</g>
</g>
</svg>
        <g id="navigator" transform="translate(0 0)" fill="#404254">
                <rect fill="#f2f5e9" fill-opacity="0.5" stroke="#606060" stroke-width=".5" x="0" y="0" width="60" height="60"/>
                <use id="zoomplus" xlink:href="#zoomPlus" x="17" y="9" onmousedown="handleZoom(evt,'in')"/>
                <use id="zoomminus" xlink:href="#zoomMin" x="42" y="9" onmousedown="handleZoom(evt,'out')"/>
                <use id="reset" xlink:href="#resetDef" x="30" y="36" onmousedown="handleReset()"/>
                <g id="arrowUp" xlink:href="#dirArrow" transform="translate(30 24)" onmousedown="handlePan(0,-1)">
                  <use xlink:href="#rim" fill="#404040">
                        <set attributeName="fill" to="#808080" begin="arrowUp.mouseover" end="arrowUp.mouseout"/>
                  </use>
                  <path fill="none" stroke="white" stroke-width="1.5" d="M0,-3.0v7 M-2.5,-0.5L0,-3.0L2.5,-0.5"/>
                </g>
                <g id="arrowRight" xlink:href="#dirArrow" transform="rotate(90) translate(36 -43)" onmousedown="handlePan(1,0)">
                  <use xlink:href="#rim" fill="#404040">
                        <set attributeName="fill" to="#808080" begin="arrowRight.mouseover" end="arrowRight.mouseout"/>
                  </use>
                  <path fill="none" stroke="white" stroke-width="1.5" d="M0,-3.0v7 M-2.5,-0.5L0,-3.0L2.5,-0.5"/>
                </g>
                <g id="arrowDown" xlink:href="#dirArrow" transform="rotate(180) translate(-30 -48)" onmousedown="handlePan(0,1)">
                  <use xlink:href="#rim" fill="#404040">
                        <set attributeName="fill" to="#808080" begin="arrowDown.mouseover" end="arrowDown.mouseout"/>
                  </use>
                  <path fill="none" stroke="white" stroke-width="1.5" d="M0,-3.0v7 M-2.5,-0.5L0,-3.0L2.5,-0.5"/>
                </g>
                <g id="arrowLeft" xlink:href="#dirArrow" transform="rotate(270) translate(-36 17)" onmousedown="handlePan(-1,0)">
                  <use xlink:href="#rim" fill="#404040">
                        <set attributeName="fill" to="#808080" begin="arrowLeft.mouseover" end="arrowLeft.mouseout"/>
                  </use>
                  <path fill="none" stroke="white" stroke-width="1.5" d="M0,-3.0v7 M-2.5,-0.5L0,-3.0L2.5,-0.5"/>
                </g>
        </g>
        <svg viewBox="0 0 15 15" width="100%" height="30px" preserveAspectRatio="xMaxYMin meet">
         <g id="arrow_out" transform="scale(0.3 0.3)">
          <a xlink:href="classo2_1_1ft0_1_1DigitBlockFT0__coll__graph_org.svg" target="_base">
           <rect id="button" ry="5" rx="5" y="6" x="6" height="38" width="38"
                fill="#f2f5e9" fill-opacity="0.5" stroke="#606060" stroke-width="1.0"/>
           <path id="arrow"
             d="M 11.500037,31.436501 C 11.940474,20.09759 22.043105,11.32322 32.158766,21.979434 L 37.068811,17.246167 C 37.068811,17.246167 37.088388,32 37.088388,32 L 22.160133,31.978069 C 22.160133,31.978069 26.997745,27.140456 26.997745,27.140456 C 18.528582,18.264221 13.291696,25.230495 11.500037,31.436501 z"
             style="fill:#404040;"/>
          </a>
         </g>
        </svg>
</svg>
