<?xml version="1.0" encoding="UTF-8" standalone="no"?>
<!DOCTYPE svg PUBLIC "-//W3C//DTD SVG 1.1//EN"
 "http://www.w3.org/Graphics/SVG/1.1/DTD/svg11.dtd">
<!-- Generated by graphviz version 2.40.1 (20161225.0304)
 -->
<!-- Title: /home/travis/build/AliceO2Group/AliceO2/Framework/Core/include/Framework/ASoAHelpers.h Pages: 1 -->
<!--zoomable 397 -->
<svg id="main" version="1.1" xmlns="http://www.w3.org/2000/svg" xmlns:xlink="http://www.w3.org/1999/xlink" xml:space="preserve" onload="init(evt)">
<style type="text/css"><![CDATA[
.edge:hover path { stroke: red; }
.edge:hover polygon { stroke: red; fill: red; }
]]></style>
<script type="text/javascript"><![CDATA[
var edges = document.getElementsByTagName('g');
if (edges && edges.length) {
  for (var i=0;i<edges.length;i++) {
    if (edges[i].id.substr(0,4)=='edge') {
      edges[i].setAttribute('class','edge');
    }
  }
}
]]></script>
        <defs>
                <circle id="rim" cx="0" cy="0" r="7"/>
                <circle id="rim2" cx="0" cy="0" r="3.5"/>
                <g id="zoomPlus">
                        <use xlink:href="#rim" fill="#404040">
                                <set attributeName="fill" to="#808080" begin="zoomplus.mouseover" end="zoomplus.mouseout"/>
                        </use>
                        <path d="M-4,0h8M0,-4v8" fill="none" stroke="white" stroke-width="1.5" pointer-events="none"/>
                </g>
                <g id="zoomMin">
                        <use xlink:href="#rim" fill="#404040">
                                <set attributeName="fill" to="#808080" begin="zoomminus.mouseover" end="zoomminus.mouseout"/>
                        </use>
                        <path d="M-4,0h8" fill="none" stroke="white" stroke-width="1.5" pointer-events="none"/>
                </g>
                <g id="dirArrow">
                        <path fill="none" stroke="white" stroke-width="1.5" d="M0,-3.0v7 M-2.5,-0.5L0,-3.0L2.5,-0.5"/>
                </g>
               <g id="resetDef">
                       <use xlink:href="#rim2" fill="#404040">
                               <set attributeName="fill" to="#808080" begin="reset.mouseover" end="reset.mouseout"/>
                       </use>
               </g>
        </defs>

<script type="text/javascript">
var viewWidth = 2640;
var viewHeight = 397;
var sectionId = 'dynsection-0';
</script>
<script xlink:href="../../svgpan.js"/>
<svg id="graph" class="graph">
<g id="viewport">
<title>/home/travis/build/AliceO2Group/AliceO2/Framework/Core/include/Framework/ASoAHelpers.h</title>
<!-- Node0 -->
<g id="node1" class="node">
<title>Node0</title>
<polygon fill="#bfbfbf" stroke="#000000" points="1325.7088,-336.5 1325.7088,-388.5 1474.7088,-388.5 1474.7088,-336.5 1325.7088,-336.5"/>
<text text-anchor="start" x="1333.7088" y="-376.5" font-family="Helvetica,sans-Serif" font-size="10.00" fill="#000000">/home/travis/build</text>
<text text-anchor="start" x="1333.7088" y="-365.5" font-family="Helvetica,sans-Serif" font-size="10.00" fill="#000000">/AliceO2Group/AliceO2</text>
<text text-anchor="start" x="1333.7088" y="-354.5" font-family="Helvetica,sans-Serif" font-size="10.00" fill="#000000">/Framework/Core/include</text>
<text text-anchor="middle" x="1400.2088" y="-343.5" font-family="Helvetica,sans-Serif" font-size="10.00" fill="#000000">/Framework/ASoAHelpers.h</text>
</g>
<!-- Node1 -->
<g id="node2" class="node">
<title>Node1</title>
<g id="a_node2"><a xlink:href="../../de/d33/ASoA_8h.html" target="_top" xlink:title="Framework/ASoA.h">
<polygon fill="none" stroke="#000000" points="1153.2088,-168.5 1153.2088,-187.5 1261.2088,-187.5 1261.2088,-168.5 1153.2088,-168.5"/>
<text text-anchor="middle" x="1207.2088" y="-175.5" font-family="Helvetica,sans-Serif" font-size="10.00" fill="#000000">Framework/ASoA.h</text>
</a>
</g>
</g>
<!-- Node0&#45;&gt;Node1 -->
<g id="edge1" class="edge">
<title>Node0&#45;&gt;Node1</title>
<path fill="none" stroke="#191970" d="M1372.9659,-336.457C1332.7562,-298.0181 1258.6391,-227.1653 1224.8399,-194.8547"/>
<polygon fill="#191970" stroke="#191970" points="1227.1737,-192.2436 1217.5266,-187.8635 1222.3366,-197.3036 1227.1737,-192.2436"/>
</g>
<!-- Node4 -->
<g id="node5" class="node">
<title>Node4</title>
<polygon fill="none" stroke="#bfbfbf" points="775.7088,-.5 775.7088,-19.5 820.7088,-19.5 820.7088,-.5 775.7088,-.5"/>
<text text-anchor="middle" x="798.2088" y="-7.5" font-family="Helvetica,sans-Serif" font-size="10.00" fill="#000000">utility</text>
</g>
<!-- Node0&#45;&gt;Node4 -->
<g id="edge69" class="edge">
<title>Node0&#45;&gt;Node4</title>
<path fill="none" stroke="#191970" d="M1325.6312,-359.597C1114.6239,-351.1579 516.0875,-325.6025 321.2088,-300 177.2303,-281.0846 1.2088,-379.2157 1.2088,-234 1.2088,-234 1.2088,-234 1.2088,-122 1.2088,-91.4754 -3.6263,-75.0694 20.2088,-56 49.7161,-32.3924 620.3416,-14.9533 765.0649,-10.8979"/>
<polygon fill="#191970" stroke="#191970" points="765.5927,-14.3847 775.4917,-10.6084 765.3983,-7.3874 765.5927,-14.3847"/>
</g>
<!-- Node18 -->
<g id="node19" class="node">
<title>Node18</title>
<polygon fill="none" stroke="#bfbfbf" points="29.7088,-56.5 29.7088,-75.5 110.7088,-75.5 110.7088,-56.5 29.7088,-56.5"/>
<text text-anchor="middle" x="70.2088" y="-63.5" font-family="Helvetica,sans-Serif" font-size="10.00" fill="#000000">arrow/table.h</text>
</g>
<!-- Node0&#45;&gt;Node18 -->
<g id="edge66" class="edge">
<title>Node0&#45;&gt;Node18</title>
<path fill="none" stroke="#191970" d="M1325.6726,-361.9188C1072.9431,-358.9745 264.2088,-341.1792 264.2088,-234 264.2088,-234 264.2088,-234 264.2088,-178 264.2088,-142.2295 164.037,-100.0354 107.6552,-79.1195"/>
<polygon fill="#191970" stroke="#191970" points="108.598,-75.7376 98.0042,-75.5881 106.1926,-82.3113 108.598,-75.7376"/>
</g>
<!-- Node32 -->
<g id="node33" class="node">
<title>Node32</title>
<g id="a_node33"><a xlink:href="../../d0/d92/Kernels_8h.html" target="_top" xlink:title="Framework/Kernels.h">
<polygon fill="none" stroke="#000000" points="1403.7088,-280.5 1403.7088,-299.5 1522.7088,-299.5 1522.7088,-280.5 1403.7088,-280.5"/>
<text text-anchor="middle" x="1463.2088" y="-287.5" font-family="Helvetica,sans-Serif" font-size="10.00" fill="#000000">Framework/Kernels.h</text>
</a>
</g>
</g>
<!-- Node0&#45;&gt;Node32 -->
<g id="edge40" class="edge">
<title>Node0&#45;&gt;Node32</title>
<path fill="none" stroke="#191970" d="M1422.9532,-336.3258C1431.3934,-326.613 1440.7445,-315.8518 1448.3081,-307.1476"/>
<polygon fill="#191970" stroke="#191970" points="1451.0067,-309.3781 1454.924,-299.534 1445.7229,-304.7866 1451.0067,-309.3781"/>
</g>
<!-- Node35 -->
<g id="node36" class="node">
<title>Node35</title>
<polygon fill="none" stroke="#bfbfbf" points="2451.7088,-112.5 2451.7088,-131.5 2492.7088,-131.5 2492.7088,-112.5 2451.7088,-112.5"/>
<text text-anchor="middle" x="2472.2088" y="-119.5" font-family="Helvetica,sans-Serif" font-size="10.00" fill="#000000">tuple</text>
</g>
<!-- Node0&#45;&gt;Node35 -->
<g id="edge68" class="edge">
<title>Node0&#45;&gt;Node35</title>
<path fill="none" stroke="#191970" d="M1475.1134,-356.5359C1716.4328,-336.5728 2461.935,-268.7815 2531.2088,-188 2546.5971,-170.0553 2522.1966,-149.8489 2500.2639,-136.5762"/>
<polygon fill="#191970" stroke="#191970" points="2501.8634,-133.4586 2491.4494,-131.509 2498.3746,-139.5273 2501.8634,-133.4586"/>
</g>
<!-- Node44 -->
<g id="node45" class="node">
<title>Node44</title>
<polygon fill="none" stroke="#bfbfbf" points="2578.7088,-280.5 2578.7088,-299.5 2631.7088,-299.5 2631.7088,-280.5 2578.7088,-280.5"/>
<text text-anchor="middle" x="2605.2088" y="-287.5" font-family="Helvetica,sans-Serif" font-size="10.00" fill="#000000">iterator</text>
</g>
<!-- Node0&#45;&gt;Node44 -->
<g id="edge67" class="edge">
<title>Node0&#45;&gt;Node44</title>
<path fill="none" stroke="#191970" d="M1475.0923,-360.2975C1697.6541,-353.4636 2352.7386,-331.1904 2564.2088,-300 2565.6584,-299.7862 2567.1318,-299.5447 2568.6164,-299.2813"/>
<polygon fill="#191970" stroke="#191970" points="2569.3413,-302.7056 2578.4432,-297.2829 2567.9462,-295.846 2569.3413,-302.7056"/>
</g>
<!-- Node2 -->
<g id="node3" class="node">
<title>Node2</title>
<g id="a_node3"><a xlink:href="../../dd/dce/Pack_8h.html" target="_top" xlink:title="Framework/Pack.h">
<polygon fill="none" stroke="#000000" points="1605.7088,-56.5 1605.7088,-75.5 1710.7088,-75.5 1710.7088,-56.5 1605.7088,-56.5"/>
<text text-anchor="middle" x="1658.2088" y="-63.5" font-family="Helvetica,sans-Serif" font-size="10.00" fill="#000000">Framework/Pack.h</text>
</a>
</g>
</g>
<!-- Node1&#45;&gt;Node2 -->
<g id="edge2" class="edge">
<title>Node1&#45;&gt;Node2</title>
<path fill="none" stroke="#191970" d="M1228.565,-168.367C1248.6922,-159.22 1279.6435,-144.9772 1306.2088,-132 1323.7116,-123.4498 1326.6467,-117.9082 1345.2088,-112 1449.5561,-78.7871 1482.913,-92.1544 1595.4115,-76.0576"/>
<polygon fill="#191970" stroke="#191970" points="1596.0727,-79.498 1605.4534,-74.5732 1595.0491,-72.5732 1596.0727,-79.498"/>
</g>
<!-- Node6 -->
<g id="node7" class="node">
<title>Node6</title>
<g id="a_node7"><a xlink:href="../../d1/d00/CheckTypes_8h.html" target="_top" xlink:title="Framework/CheckTypes.h">
<polygon fill="none" stroke="#000000" points="129.2088,-56.5 129.2088,-75.5 269.2088,-75.5 269.2088,-56.5 129.2088,-56.5"/>
<text text-anchor="middle" x="199.2088" y="-63.5" font-family="Helvetica,sans-Serif" font-size="10.00" fill="#000000">Framework/CheckTypes.h</text>
</a>
</g>
</g>
<!-- Node1&#45;&gt;Node6 -->
<g id="edge6" class="edge">
<title>Node1&#45;&gt;Node6</title>
<path fill="none" stroke="#191970" d="M1152.9889,-172.3547C1078.5519,-164.1628 948.8532,-148.1835 904.2088,-132 888.0854,-126.1553 887.5788,-117.1132 871.2088,-112 748.1461,-73.5613 425.2685,-87.5924 279.5725,-76.0052"/>
<polygon fill="#191970" stroke="#191970" points="279.658,-72.4997 269.3938,-75.1256 279.0553,-79.4737 279.658,-72.4997"/>
</g>
<!-- Node7 -->
<g id="node8" class="node">
<title>Node7</title>
<g id="a_node8"><a xlink:href="../../de/d9b/FunctionalHelpers_8h.html" target="_top" xlink:title="Framework/FunctionalHelpers.h">
<polygon fill="none" stroke="#000000" points="1553.2088,-112.5 1553.2088,-131.5 1723.2088,-131.5 1723.2088,-112.5 1553.2088,-112.5"/>
<text text-anchor="middle" x="1638.2088" y="-119.5" font-family="Helvetica,sans-Serif" font-size="10.00" fill="#000000">Framework/FunctionalHelpers.h</text>
</a>
</g>
</g>
<!-- Node1&#45;&gt;Node7 -->
<g id="edge7" class="edge">
<title>Node1&#45;&gt;Node7</title>
<path fill="none" stroke="#191970" d="M1261.3588,-170.9643C1335.1927,-161.371 1468.153,-144.0954 1554.7765,-132.8404"/>
<polygon fill="#191970" stroke="#191970" points="1555.3757,-136.292 1564.8413,-131.5327 1554.4737,-129.3504 1555.3757,-136.292"/>
</g>
<!-- Node9 -->
<g id="node10" class="node">
<title>Node9</title>
<g id="a_node10"><a xlink:href="../../d9/de8/CompilerBuiltins_8h.html" target="_top" xlink:title="Framework/CompilerBuiltins.h">
<polygon fill="none" stroke="#000000" points="1729.2088,-56.5 1729.2088,-75.5 1893.2088,-75.5 1893.2088,-56.5 1729.2088,-56.5"/>
<text text-anchor="middle" x="1811.2088" y="-63.5" font-family="Helvetica,sans-Serif" font-size="10.00" fill="#000000">Framework/CompilerBuiltins.h</text>
</a>
</g>
</g>
<!-- Node1&#45;&gt;Node9 -->
<g id="edge10" class="edge">
<title>Node1&#45;&gt;Node9</title>
<path fill="none" stroke="#191970" d="M1239.1637,-168.448C1266.4314,-159.9437 1306.4671,-146.6144 1340.2088,-132 1357.7219,-124.4146 1359.9462,-117.543 1378.2088,-112 1521.3184,-68.5642 1566.3171,-91.3166 1718.6776,-76.122"/>
<polygon fill="#191970" stroke="#191970" points="1719.285,-79.5779 1728.8707,-75.0652 1718.5631,-72.6152 1719.285,-79.5779"/>
</g>
<!-- Node10 -->
<g id="node11" class="node">
<title>Node10</title>
<g id="a_node11"><a xlink:href="../../db/d31/Traits_8h.html" target="_top" xlink:title="Framework/Traits.h">
<polygon fill="none" stroke="#000000" points="2285.7088,-112.5 2285.7088,-131.5 2394.7088,-131.5 2394.7088,-112.5 2285.7088,-112.5"/>
<text text-anchor="middle" x="2340.2088" y="-119.5" font-family="Helvetica,sans-Serif" font-size="10.00" fill="#000000">Framework/Traits.h</text>
</a>
</g>
</g>
<!-- Node1&#45;&gt;Node10 -->
<g id="edge11" class="edge">
<title>Node1&#45;&gt;Node10</title>
<path fill="none" stroke="#191970" d="M1261.474,-175.3179C1449.3396,-166.0324 2071.6211,-135.2753 2275.1572,-125.2153"/>
<polygon fill="#191970" stroke="#191970" points="2275.5746,-128.699 2285.3896,-124.7095 2275.229,-121.7075 2275.5746,-128.699"/>
</g>
<!-- Node12 -->
<g id="node13" class="node">
<title>Node12</title>
<g id="a_node13"><a xlink:href="../../d0/d91/Expressions_8h.html" target="_top" xlink:title="Framework/Expressions.h">
<polygon fill="none" stroke="#000000" points="956.7088,-112.5 956.7088,-131.5 1097.7088,-131.5 1097.7088,-112.5 956.7088,-112.5"/>
<text text-anchor="middle" x="1027.2088" y="-119.5" font-family="Helvetica,sans-Serif" font-size="10.00" fill="#000000">Framework/Expressions.h</text>
</a>
</g>
</g>
<!-- Node1&#45;&gt;Node12 -->
<g id="edge13" class="edge">
<title>Node1&#45;&gt;Node12</title>
<path fill="none" stroke="#191970" d="M1176.2657,-168.3733C1146.2048,-159.021 1100.4062,-144.7725 1067.511,-134.5385"/>
<polygon fill="#191970" stroke="#191970" points="1068.3364,-131.1299 1057.7481,-131.5011 1066.2569,-137.8139 1068.3364,-131.1299"/>
</g>
<!-- Node1&#45;&gt;Node18 -->
<g id="edge33" class="edge">
<title>Node1&#45;&gt;Node18</title>
<path fill="none" stroke="#191970" d="M1152.9802,-175.4059C1040.8286,-169.6568 786.8804,-154.5441 703.2088,-132 682.8574,-126.5166 680.6257,-117.2342 660.2088,-112 430.3964,-53.084 360.5551,-106.1609 120.8599,-75.8862"/>
<polygon fill="#191970" stroke="#191970" points="121.1611,-72.3961 110.7936,-74.5787 120.2594,-79.3377 121.1611,-72.3961"/>
</g>
<!-- Node19 -->
<g id="node20" class="node">
<title>Node19</title>
<polygon fill="none" stroke="#bfbfbf" points="287.7088,-56.5 287.7088,-75.5 434.7088,-75.5 434.7088,-56.5 287.7088,-56.5"/>
<text text-anchor="middle" x="361.2088" y="-63.5" font-family="Helvetica,sans-Serif" font-size="10.00" fill="#000000">gandiva/selection_vector.h</text>
</g>
<!-- Node1&#45;&gt;Node19 -->
<g id="edge37" class="edge">
<title>Node1&#45;&gt;Node19</title>
<path fill="none" stroke="#191970" d="M1153.2019,-172.5963C1099.9237,-166.3042 1016.6159,-153.8687 947.2088,-132 927.1058,-125.666 924.5951,-117.3518 904.2088,-112 709.0562,-60.7684 650.1665,-95.1212 445.1491,-76.0292"/>
<polygon fill="#191970" stroke="#191970" points="445.2469,-72.5225 434.9574,-75.0476 444.5758,-79.4903 445.2469,-72.5225"/>
</g>
<!-- Node23 -->
<g id="node24" class="node">
<title>Node23</title>
<polygon fill="none" stroke="#bfbfbf" points="1361.7088,-56.5 1361.7088,-75.5 1440.7088,-75.5 1440.7088,-56.5 1361.7088,-56.5"/>
<text text-anchor="middle" x="1401.2088" y="-63.5" font-family="Helvetica,sans-Serif" font-size="10.00" fill="#000000">fmt/format.h</text>
</g>
<!-- Node1&#45;&gt;Node23 -->
<g id="edge39" class="edge">
<title>Node1&#45;&gt;Node23</title>
<path fill="none" stroke="#191970" d="M1220.4491,-168.4695C1239.2736,-155.1045 1275.0623,-130.3733 1307.2088,-112 1327.7606,-100.2536 1351.7411,-88.5487 1370.3369,-79.8856"/>
<polygon fill="#191970" stroke="#191970" points="1371.9089,-83.0149 1379.5238,-75.6485 1368.9772,-76.6584 1371.9089,-83.0149"/>
</g>
<!-- Node27 -->
<g id="node28" class="node">
<title>Node27</title>
<g id="a_node28"><a xlink:href="../../d4/de7/ArrowTypes_8h.html" target="_top" xlink:title="Framework/ArrowTypes.h">
<polygon fill="none" stroke="#000000" points="1115.7088,-112.5 1115.7088,-131.5 1254.7088,-131.5 1254.7088,-112.5 1115.7088,-112.5"/>
<text text-anchor="middle" x="1185.2088" y="-119.5" font-family="Helvetica,sans-Serif" font-size="10.00" fill="#000000">Framework/ArrowTypes.h</text>
</a>
</g>
</g>
<!-- Node1&#45;&gt;Node27 -->
<g id="edge31" class="edge">
<title>Node1&#45;&gt;Node27</title>
<path fill="none" stroke="#191970" d="M1203.3767,-168.2455C1200.4428,-160.7776 1196.3041,-150.2427 1192.7177,-141.1137"/>
<polygon fill="#191970" stroke="#191970" points="1195.9112,-139.6704 1188.997,-131.6427 1189.3959,-142.23 1195.9112,-139.6704"/>
</g>
<!-- Node28 -->
<g id="node29" class="node">
<title>Node28</title>
<polygon fill="none" stroke="#bfbfbf" points="712.2088,-112.5 712.2088,-131.5 792.2088,-131.5 792.2088,-112.5 712.2088,-112.5"/>
<text text-anchor="middle" x="752.2088" y="-119.5" font-family="Helvetica,sans-Serif" font-size="10.00" fill="#000000">arrow/array.h</text>
</g>
<!-- Node1&#45;&gt;Node28 -->
<g id="edge34" class="edge">
<title>Node1&#45;&gt;Node28</title>
<path fill="none" stroke="#191970" d="M1153.1513,-173.4094C1077.13,-166.6151 934.12,-152.5975 802.5277,-132.0918"/>
<polygon fill="#191970" stroke="#191970" points="802.6904,-128.5743 792.2676,-130.4759 801.6013,-135.4891 802.6904,-128.5743"/>
</g>
<!-- Node29 -->
<g id="node30" class="node">
<title>Node29</title>
<polygon fill="none" stroke="#bfbfbf" points="1387.2088,-112.5 1387.2088,-131.5 1497.2088,-131.5 1497.2088,-112.5 1387.2088,-112.5"/>
<text text-anchor="middle" x="1442.2088" y="-119.5" font-family="Helvetica,sans-Serif" font-size="10.00" fill="#000000">arrow/util/variant.h</text>
</g>
<!-- Node1&#45;&gt;Node29 -->
<g id="edge35" class="edge">
<title>Node1&#45;&gt;Node29</title>
<path fill="none" stroke="#191970" d="M1247.3397,-168.4369C1287.4736,-158.8731 1349.2863,-144.1432 1392.5021,-133.845"/>
<polygon fill="#191970" stroke="#191970" points="1393.3271,-137.2465 1402.2434,-131.5237 1391.7044,-130.4372 1393.3271,-137.2465"/>
</g>
<!-- Node30 -->
<g id="node31" class="node">
<title>Node30</title>
<polygon fill="none" stroke="#bfbfbf" points="484.7088,-112.5 484.7088,-131.5 617.7088,-131.5 617.7088,-112.5 484.7088,-112.5"/>
<text text-anchor="middle" x="551.2088" y="-119.5" font-family="Helvetica,sans-Serif" font-size="10.00" fill="#000000">arrow/compute/kernel.h</text>
</g>
<!-- Node1&#45;&gt;Node30 -->
<g id="edge36" class="edge">
<title>Node1&#45;&gt;Node30</title>
<path fill="none" stroke="#191970" d="M1152.9674,-173.3696C1036.5127,-163.4284 762.2622,-140.0168 627.9882,-128.5543"/>
<polygon fill="#191970" stroke="#191970" points="628.0456,-125.0466 617.7841,-127.6833 627.4502,-132.0212 628.0456,-125.0466"/>
</g>
<!-- Node31 -->
<g id="node32" class="node">
<title>Node31</title>
<polygon fill="none" stroke="#bfbfbf" points="810.2088,-112.5 810.2088,-131.5 862.2088,-131.5 862.2088,-112.5 810.2088,-112.5"/>
<text text-anchor="middle" x="836.2088" y="-119.5" font-family="Helvetica,sans-Serif" font-size="10.00" fill="#000000">cassert</text>
</g>
<!-- Node1&#45;&gt;Node31 -->
<g id="edge38" class="edge">
<title>Node1&#45;&gt;Node31</title>
<path fill="none" stroke="#191970" d="M1153.0241,-172.2708C1087.2279,-164.8999 973.035,-150.7756 876.2088,-132 874.9439,-131.7547 873.6591,-131.4945 872.3635,-131.2226"/>
<polygon fill="#191970" stroke="#191970" points="872.8947,-127.7545 862.3693,-128.9658 871.3527,-134.5826 872.8947,-127.7545"/>
</g>
<!-- Node3 -->
<g id="node4" class="node">
<title>Node3</title>
<polygon fill="none" stroke="#bfbfbf" points="1665.7088,-.5 1665.7088,-19.5 1718.7088,-19.5 1718.7088,-.5 1665.7088,-.5"/>
<text text-anchor="middle" x="1692.2088" y="-7.5" font-family="Helvetica,sans-Serif" font-size="10.00" fill="#000000">cstddef</text>
</g>
<!-- Node2&#45;&gt;Node3 -->
<g id="edge3" class="edge">
<title>Node2&#45;&gt;Node3</title>
<path fill="none" stroke="#191970" d="M1664.1311,-56.2455C1668.8115,-48.5367 1675.476,-37.5598 1681.1376,-28.2348"/>
<polygon fill="#191970" stroke="#191970" points="1684.1562,-30.007 1686.3543,-19.6427 1678.1727,-26.3741 1684.1562,-30.007"/>
</g>
<!-- Node2&#45;&gt;Node4 -->
<g id="edge4" class="edge">
<title>Node2&#45;&gt;Node4</title>
<path fill="none" stroke="#191970" d="M1605.4934,-57.1212C1602.3562,-56.7098 1599.2436,-56.3313 1596.2088,-56 1300.1588,-23.678 939.6772,-13.2208 830.8357,-10.684"/>
<polygon fill="#191970" stroke="#191970" points="830.8882,-7.1844 820.8113,-10.4564 830.7293,-14.1825 830.8882,-7.1844"/>
</g>
<!-- Node5 -->
<g id="node6" class="node">
<title>Node5</title>
<polygon fill="none" stroke="#bfbfbf" points="1601.2088,-.5 1601.2088,-19.5 1647.2088,-19.5 1647.2088,-.5 1601.2088,-.5"/>
<text text-anchor="middle" x="1624.2088" y="-7.5" font-family="Helvetica,sans-Serif" font-size="10.00" fill="#000000">cstdio</text>
</g>
<!-- Node2&#45;&gt;Node5 -->
<g id="edge5" class="edge">
<title>Node2&#45;&gt;Node5</title>
<path fill="none" stroke="#191970" d="M1652.2864,-56.2455C1647.6061,-48.5367 1640.9415,-37.5598 1635.2799,-28.2348"/>
<polygon fill="#191970" stroke="#191970" points="1638.2448,-26.3741 1630.0632,-19.6427 1632.2613,-30.007 1638.2448,-26.3741"/>
</g>
<!-- Node7&#45;&gt;Node2 -->
<g id="edge8" class="edge">
<title>Node7&#45;&gt;Node2</title>
<path fill="none" stroke="#191970" d="M1641.6925,-112.2455C1644.3596,-104.7776 1648.1221,-94.2427 1651.3824,-85.1137"/>
<polygon fill="#191970" stroke="#191970" points="1654.6976,-86.2373 1654.7649,-75.6427 1648.1054,-83.8829 1654.6976,-86.2373"/>
</g>
<!-- Node8 -->
<g id="node9" class="node">
<title>Node8</title>
<polygon fill="none" stroke="#bfbfbf" points="2061.7088,-56.5 2061.7088,-75.5 2126.7088,-75.5 2126.7088,-56.5 2061.7088,-56.5"/>
<text text-anchor="middle" x="2094.2088" y="-63.5" font-family="Helvetica,sans-Serif" font-size="10.00" fill="#000000">functional</text>
</g>
<!-- Node7&#45;&gt;Node8 -->
<g id="edge9" class="edge">
<title>Node7&#45;&gt;Node8</title>
<path fill="none" stroke="#191970" d="M1723.5223,-113.966C1805.052,-105.8804 1931.3087,-92.294 2040.2088,-76 2043.8656,-75.4528 2047.6538,-74.842 2051.4495,-74.1993"/>
<polygon fill="#191970" stroke="#191970" points="2052.1866,-77.6235 2061.4298,-72.4454 2050.975,-70.7291 2052.1866,-77.6235"/>
</g>
<!-- Node11 -->
<g id="node12" class="node">
<title>Node11</title>
<polygon fill="none" stroke="#bfbfbf" points="2346.7088,-56.5 2346.7088,-75.5 2415.7088,-75.5 2415.7088,-56.5 2346.7088,-56.5"/>
<text text-anchor="middle" x="2381.2088" y="-63.5" font-family="Helvetica,sans-Serif" font-size="10.00" fill="#000000">type_traits</text>
</g>
<!-- Node10&#45;&gt;Node11 -->
<g id="edge12" class="edge">
<title>Node10&#45;&gt;Node11</title>
<path fill="none" stroke="#191970" d="M2347.3504,-112.2455C2353.0532,-104.4564 2361.1987,-93.3308 2368.0712,-83.9439"/>
<polygon fill="#191970" stroke="#191970" points="2371.0655,-85.7789 2374.1489,-75.6427 2365.4175,-81.6437 2371.0655,-85.7789"/>
</g>
<!-- Node12&#45;&gt;Node2 -->
<g id="edge16" class="edge">
<title>Node12&#45;&gt;Node2</title>
<path fill="none" stroke="#191970" d="M1097.8231,-112.8747C1100.654,-112.5681 1103.4575,-112.275 1106.2088,-112 1320.2018,-90.6101 1377.6,-101.0798 1595.3329,-76.0036"/>
<polygon fill="#191970" stroke="#191970" points="1595.9586,-79.4545 1605.4869,-74.822 1595.1493,-72.5014 1595.9586,-79.4545"/>
</g>
<!-- Node12&#45;&gt;Node6 -->
<g id="edge17" class="edge">
<title>Node12&#45;&gt;Node6</title>
<path fill="none" stroke="#191970" d="M956.6583,-115.9757C939.5008,-114.5903 921.2005,-113.1791 904.2088,-112 629.4534,-92.9335 557.4006,-101.3109 279.3707,-76.0501"/>
<polygon fill="#191970" stroke="#191970" points="279.6701,-72.563 269.3927,-75.1373 279.0322,-79.5339 279.6701,-72.563"/>
</g>
<!-- Node12&#45;&gt;Node9 -->
<g id="edge15" class="edge">
<title>Node12&#45;&gt;Node9</title>
<path fill="none" stroke="#191970" d="M1097.8181,-112.8229C1100.6504,-112.5306 1103.4556,-112.2547 1106.2088,-112 1375.0816,-87.1289 1446.0904,-98.647 1718.6878,-76.0883"/>
<polygon fill="#191970" stroke="#191970" points="1719.2132,-79.5567 1728.8871,-75.2362 1718.6304,-72.581 1719.2132,-79.5567"/>
</g>
<!-- Node13 -->
<g id="node14" class="node">
<title>Node13</title>
<g id="a_node14"><a xlink:href="../../dd/dc2/BasicOps_8h.html" target="_top" xlink:title="Framework/BasicOps.h">
<polygon fill="none" stroke="#000000" points="1459.2088,-56.5 1459.2088,-75.5 1587.2088,-75.5 1587.2088,-56.5 1459.2088,-56.5"/>
<text text-anchor="middle" x="1523.2088" y="-63.5" font-family="Helvetica,sans-Serif" font-size="10.00" fill="#000000">Framework/BasicOps.h</text>
</a>
</g>
</g>
<!-- Node12&#45;&gt;Node13 -->
<g id="edge14" class="edge">
<title>Node12&#45;&gt;Node13</title>
<path fill="none" stroke="#191970" d="M1097.8349,-112.9842C1100.6625,-112.6472 1103.4622,-112.3179 1106.2088,-112 1255.2025,-94.7531 1295.3104,-94.2784 1448.7737,-76.018"/>
<polygon fill="#191970" stroke="#191970" points="1449.5348,-79.452 1459.0484,-74.7891 1448.7035,-72.5015 1449.5348,-79.452"/>
</g>
<!-- Node14 -->
<g id="node15" class="node">
<title>Node14</title>
<polygon fill="none" stroke="#bfbfbf" points="1242.7088,-56.5 1242.7088,-75.5 1343.7088,-75.5 1343.7088,-56.5 1242.7088,-56.5"/>
<text text-anchor="middle" x="1293.2088" y="-63.5" font-family="Helvetica,sans-Serif" font-size="10.00" fill="#000000">arrow/type_fwd.h</text>
</g>
<!-- Node12&#45;&gt;Node14 -->
<g id="edge18" class="edge">
<title>Node12&#45;&gt;Node14</title>
<path fill="none" stroke="#191970" d="M1072.6336,-112.4369C1118.4443,-102.7925 1189.2085,-87.8948 1238.1763,-77.5858"/>
<polygon fill="#191970" stroke="#191970" points="1238.9069,-81.0088 1247.9713,-75.5237 1237.4648,-74.1589 1238.9069,-81.0088"/>
</g>
<!-- Node15 -->
<g id="node16" class="node">
<title>Node15</title>
<polygon fill="none" stroke="#bfbfbf" points="869.2088,-56.5 869.2088,-75.5 1015.2088,-75.5 1015.2088,-56.5 869.2088,-56.5"/>
<text text-anchor="middle" x="942.2088" y="-63.5" font-family="Helvetica,sans-Serif" font-size="10.00" fill="#000000">gandiva/gandiva_aliases.h</text>
</g>
<!-- Node12&#45;&gt;Node15 -->
<g id="edge19" class="edge">
<title>Node12&#45;&gt;Node15</title>
<path fill="none" stroke="#191970" d="M1012.4029,-112.2455C999.4832,-103.7337 980.5157,-91.2375 965.5535,-81.3801"/>
<polygon fill="#191970" stroke="#191970" points="967.1212,-78.2216 956.845,-75.6427 963.27,-84.067 967.1212,-78.2216"/>
</g>
<!-- Node16 -->
<g id="node17" class="node">
<title>Node16</title>
<polygon fill="none" stroke="#bfbfbf" points="1033.2088,-56.5 1033.2088,-75.5 1111.2088,-75.5 1111.2088,-56.5 1033.2088,-56.5"/>
<text text-anchor="middle" x="1072.2088" y="-63.5" font-family="Helvetica,sans-Serif" font-size="10.00" fill="#000000">arrow/type.h</text>
</g>
<!-- Node12&#45;&gt;Node16 -->
<g id="edge20" class="edge">
<title>Node12&#45;&gt;Node16</title>
<path fill="none" stroke="#191970" d="M1035.0472,-112.2455C1041.3708,-104.3761 1050.4312,-93.101 1058.0224,-83.6542"/>
<polygon fill="#191970" stroke="#191970" points="1060.9245,-85.6302 1064.4602,-75.6427 1055.4679,-81.2454 1060.9245,-85.6302"/>
</g>
<!-- Node17 -->
<g id="node18" class="node">
<title>Node17</title>
<polygon fill="none" stroke="#bfbfbf" points="1129.7088,-56.5 1129.7088,-75.5 1224.7088,-75.5 1224.7088,-56.5 1129.7088,-56.5"/>
<text text-anchor="middle" x="1177.2088" y="-63.5" font-family="Helvetica,sans-Serif" font-size="10.00" fill="#000000">gandiva/arrow.h</text>
</g>
<!-- Node12&#45;&gt;Node17 -->
<g id="edge21" class="edge">
<title>Node12&#45;&gt;Node17</title>
<path fill="none" stroke="#191970" d="M1052.9947,-112.3733C1077.6135,-103.1822 1114.8988,-89.2624 1142.1962,-79.0713"/>
<polygon fill="#191970" stroke="#191970" points="1143.6151,-82.2777 1151.7593,-75.5011 1141.1667,-75.7198 1143.6151,-82.2777"/>
</g>
<!-- Node12&#45;&gt;Node18 -->
<g id="edge22" class="edge">
<title>Node12&#45;&gt;Node18</title>
<path fill="none" stroke="#191970" d="M956.5548,-117.229C929.8225,-115.4875 899.1181,-113.5634 871.2088,-112 540.9918,-93.5027 453.6435,-116.4024 121.1974,-75.9216"/>
<polygon fill="#191970" stroke="#191970" points="121.1374,-72.388 110.7853,-74.6429 120.2841,-79.3358 121.1374,-72.388"/>
</g>
<!-- Node12&#45;&gt;Node19 -->
<g id="edge23" class="edge">
<title>Node12&#45;&gt;Node19</title>
<path fill="none" stroke="#191970" d="M956.2729,-113.4131C951.5158,-112.9117 946.7944,-112.4353 942.2088,-112 724.5269,-91.3377 666.7788,-97.101 444.9579,-76.0281"/>
<polygon fill="#191970" stroke="#191970" points="445.2433,-72.5395 434.9552,-75.0703 444.576,-79.5077 445.2433,-72.5395"/>
</g>
<!-- Node20 -->
<g id="node21" class="node">
<title>Node20</title>
<polygon fill="none" stroke="#bfbfbf" points="453.2088,-56.5 453.2088,-75.5 545.2088,-75.5 545.2088,-56.5 453.2088,-56.5"/>
<text text-anchor="middle" x="499.2088" y="-63.5" font-family="Helvetica,sans-Serif" font-size="10.00" fill="#000000">gandiva/node.h</text>
</g>
<!-- Node12&#45;&gt;Node20 -->
<g id="edge24" class="edge">
<title>Node12&#45;&gt;Node20</title>
<path fill="none" stroke="#191970" d="M956.2621,-113.5212C951.5076,-112.9937 946.7897,-112.4819 942.2088,-112 773.2539,-94.2261 727.5196,-99.3067 555.536,-76.081"/>
<polygon fill="#191970" stroke="#191970" points="555.7566,-72.5788 545.3755,-74.696 554.8111,-79.5146 555.7566,-72.5788"/>
</g>
<!-- Node21 -->
<g id="node22" class="node">
<title>Node21</title>
<polygon fill="none" stroke="#bfbfbf" points="563.7088,-56.5 563.7088,-75.5 652.7088,-75.5 652.7088,-56.5 563.7088,-56.5"/>
<text text-anchor="middle" x="608.2088" y="-63.5" font-family="Helvetica,sans-Serif" font-size="10.00" fill="#000000">gandiva/filter.h</text>
</g>
<!-- Node12&#45;&gt;Node21 -->
<g id="edge25" class="edge">
<title>Node12&#45;&gt;Node21</title>
<path fill="none" stroke="#191970" d="M956.525,-113.5849C871.2388,-103.3496 731.7385,-86.3267 662.9772,-76.0252"/>
<polygon fill="#191970" stroke="#191970" points="663.3781,-72.5459 652.9639,-74.4937 662.3197,-79.4654 663.3781,-72.5459"/>
</g>
<!-- Node22 -->
<g id="node23" class="node">
<title>Node22</title>
<polygon fill="none" stroke="#bfbfbf" points="671.2088,-56.5 671.2088,-75.5 781.2088,-75.5 781.2088,-56.5 671.2088,-56.5"/>
<text text-anchor="middle" x="726.2088" y="-63.5" font-family="Helvetica,sans-Serif" font-size="10.00" fill="#000000">gandiva/projector.h</text>
</g>
<!-- Node12&#45;&gt;Node22 -->
<g id="edge26" class="edge">
<title>Node12&#45;&gt;Node22</title>
<path fill="none" stroke="#191970" d="M975.807,-112.4369C923.6439,-102.7321 842.8891,-87.708 787.4441,-77.3926"/>
<polygon fill="#191970" stroke="#191970" points="787.87,-73.9119 777.3985,-75.5237 786.5896,-80.7938 787.87,-73.9119"/>
</g>
<!-- Node12&#45;&gt;Node23 -->
<g id="edge27" class="edge">
<title>Node12&#45;&gt;Node23</title>
<path fill="none" stroke="#191970" d="M1097.8619,-112.5113C1173.9197,-102.2111 1291.066,-86.0784 1351.7256,-75.9749"/>
<polygon fill="#191970" stroke="#191970" points="1352.3957,-79.4113 1361.6673,-74.2842 1351.222,-72.5103 1352.3957,-79.4113"/>
</g>
<!-- Node24 -->
<g id="node25" class="node">
<title>Node24</title>
<polygon fill="none" stroke="#bfbfbf" points="799.7088,-56.5 799.7088,-75.5 850.7088,-75.5 850.7088,-56.5 799.7088,-56.5"/>
<text text-anchor="middle" x="825.2088" y="-63.5" font-family="Helvetica,sans-Serif" font-size="10.00" fill="#000000">variant</text>
</g>
<!-- Node12&#45;&gt;Node24 -->
<g id="edge28" class="edge">
<title>Node12&#45;&gt;Node24</title>
<path fill="none" stroke="#191970" d="M992.318,-112.4932C960.4947,-103.7991 911.9235,-90.4722 860.4556,-76.051"/>
<polygon fill="#191970" stroke="#191970" points="861.3887,-72.6778 850.815,-73.3464 859.4979,-79.4176 861.3887,-72.6778"/>
</g>
<!-- Node25 -->
<g id="node26" class="node">
<title>Node25</title>
<polygon fill="none" stroke="#bfbfbf" points="1911.2088,-56.5 1911.2088,-75.5 1955.2088,-75.5 1955.2088,-56.5 1911.2088,-56.5"/>
<text text-anchor="middle" x="1933.2088" y="-63.5" font-family="Helvetica,sans-Serif" font-size="10.00" fill="#000000">string</text>
</g>
<!-- Node12&#45;&gt;Node25 -->
<g id="edge29" class="edge">
<title>Node12&#45;&gt;Node25</title>
<path fill="none" stroke="#191970" d="M1097.814,-112.7759C1100.6474,-112.4966 1103.4539,-112.2363 1106.2088,-112 1455.7794,-82.0197 1551.9253,-137.8667 1901.1612,-75.7118"/>
<polygon fill="#191970" stroke="#191970" points="1901.817,-79.1501 1911.0391,-73.9345 1900.5774,-72.2607 1901.817,-79.1501"/>
</g>
<!-- Node26 -->
<g id="node27" class="node">
<title>Node26</title>
<polygon fill="none" stroke="#bfbfbf" points="1973.2088,-56.5 1973.2088,-75.5 2031.2088,-75.5 2031.2088,-56.5 1973.2088,-56.5"/>
<text text-anchor="middle" x="2002.2088" y="-63.5" font-family="Helvetica,sans-Serif" font-size="10.00" fill="#000000">memory</text>
</g>
<!-- Node12&#45;&gt;Node26 -->
<g id="edge30" class="edge">
<title>Node12&#45;&gt;Node26</title>
<path fill="none" stroke="#191970" d="M1097.813,-112.7645C1100.6467,-112.4884 1103.4535,-112.2318 1106.2088,-112 1483.1916,-80.288 1585.0203,-131.9726 1962.7671,-75.9025"/>
<polygon fill="#191970" stroke="#191970" points="1963.5108,-79.3302 1972.881,-74.3854 1962.4724,-72.4076 1963.5108,-79.3302"/>
</g>
<!-- Node27&#45;&gt;Node14 -->
<g id="edge32" class="edge">
<title>Node27&#45;&gt;Node14</title>
<path fill="none" stroke="#191970" d="M1204.0209,-112.2455C1221.056,-103.4125 1246.3663,-90.2887 1265.6769,-80.2758"/>
<polygon fill="#191970" stroke="#191970" points="1267.3457,-83.353 1274.6122,-75.6427 1264.1235,-77.1388 1267.3457,-83.353"/>
</g>
<!-- Node32&#45;&gt;Node13 -->
<g id="edge41" class="edge">
<title>Node32&#45;&gt;Node13</title>
<path fill="none" stroke="#191970" d="M1465.8721,-280.3939C1472.6901,-255.7638 1491.2883,-188.3356 1506.2088,-132 1510.3268,-116.4515 1514.8649,-98.8059 1518.2157,-85.6744"/>
<polygon fill="#191970" stroke="#191970" points="1521.6413,-86.4052 1520.716,-75.8509 1514.8575,-84.6786 1521.6413,-86.4052"/>
</g>
<!-- Node32&#45;&gt;Node25 -->
<g id="edge65" class="edge">
<title>Node32&#45;&gt;Node25</title>
<path fill="none" stroke="#191970" d="M1469.3703,-280.268C1484.6926,-256.9186 1526.9986,-197.4765 1578.2088,-168 1639.1276,-132.9352 1664.5308,-150.9824 1732.2088,-132 1792.7188,-115.0281 1862.1347,-91.2592 1901.5196,-77.3612"/>
<polygon fill="#191970" stroke="#191970" points="1902.84,-80.6066 1911.0964,-73.9672 1900.5017,-74.0087 1902.84,-80.6066"/>
</g>
<!-- Node32&#45;&gt;Node29 -->
<g id="edge64" class="edge">
<title>Node32&#45;&gt;Node29</title>
<path fill="none" stroke="#191970" d="M1462.0195,-280.4862C1458.6999,-253.9293 1449.2794,-178.5651 1444.7295,-142.1655"/>
<polygon fill="#191970" stroke="#191970" points="1448.1507,-141.3165 1443.4372,-131.8279 1441.2047,-142.1848 1448.1507,-141.3165"/>
</g>
<!-- Node32&#45;&gt;Node30 -->
<g id="edge61" class="edge">
<title>Node32&#45;&gt;Node30</title>
<path fill="none" stroke="#191970" d="M1403.5926,-286.9708C1237.3936,-277.8542 771.9395,-247.5589 632.2088,-188 606.0623,-176.8553 581.5782,-154.6283 566.5165,-139.06"/>
<polygon fill="#191970" stroke="#191970" points="568.9334,-136.5206 559.5401,-131.6198 563.8269,-141.3086 568.9334,-136.5206"/>
</g>
<!-- Node33 -->
<g id="node34" class="node">
<title>Node33</title>
<g id="a_node34"><a xlink:href="../../d5/d98/TableBuilder_8h.html" target="_top" xlink:title="Framework/TableBuilder.h">
<polygon fill="none" stroke="#000000" points="1856.2088,-224.5 1856.2088,-243.5 1998.2088,-243.5 1998.2088,-224.5 1856.2088,-224.5"/>
<text text-anchor="middle" x="1927.2088" y="-231.5" font-family="Helvetica,sans-Serif" font-size="10.00" fill="#000000">Framework/TableBuilder.h</text>
</a>
</g>
</g>
<!-- Node32&#45;&gt;Node33 -->
<g id="edge42" class="edge">
<title>Node32&#45;&gt;Node33</title>
<path fill="none" stroke="#191970" d="M1522.9187,-282.7936C1605.1368,-272.8708 1753.4908,-254.966 1845.8123,-243.8237"/>
<polygon fill="#191970" stroke="#191970" points="1846.4437,-247.273 1855.9523,-242.5999 1845.6049,-240.3234 1846.4437,-247.273"/>
</g>
<!-- Node42 -->
<g id="node43" class="node">
<title>Node42</title>
<polygon fill="none" stroke="#bfbfbf" points="2016.2088,-224.5 2016.2088,-243.5 2102.2088,-243.5 2102.2088,-224.5 2016.2088,-224.5"/>
<text text-anchor="middle" x="2059.2088" y="-231.5" font-family="Helvetica,sans-Serif" font-size="10.00" fill="#000000">arrow/status.h</text>
</g>
<!-- Node32&#45;&gt;Node42 -->
<g id="edge62" class="edge">
<title>Node32&#45;&gt;Node42</title>
<path fill="none" stroke="#191970" d="M1523.0049,-287.0144C1621.5973,-281.6373 1824.5965,-268.6522 2006.1388,-244.0179"/>
<polygon fill="#191970" stroke="#191970" points="2006.7052,-247.4731 2016.1367,-242.6463 2005.7537,-240.538 2006.7052,-247.4731"/>
</g>
<!-- Node43 -->
<g id="node44" class="node">
<title>Node43</title>
<polygon fill="none" stroke="#bfbfbf" points="1300.2088,-224.5 1300.2088,-243.5 1416.2088,-243.5 1416.2088,-224.5 1300.2088,-224.5"/>
<text text-anchor="middle" x="1358.2088" y="-231.5" font-family="Helvetica,sans-Serif" font-size="10.00" fill="#000000">arrow/util/visibility.h</text>
</g>
<!-- Node32&#45;&gt;Node43 -->
<g id="edge63" class="edge">
<title>Node32&#45;&gt;Node43</title>
<path fill="none" stroke="#191970" d="M1444.9192,-280.2455C1428.4325,-271.4527 1403.9736,-258.4079 1385.2322,-248.4125"/>
<polygon fill="#191970" stroke="#191970" points="1386.7594,-245.2604 1376.2888,-243.6427 1383.4652,-251.4368 1386.7594,-245.2604"/>
</g>
<!-- Node33&#45;&gt;Node1 -->
<g id="edge43" class="edge">
<title>Node33&#45;&gt;Node1</title>
<path fill="none" stroke="#191970" d="M1856.2019,-228.4772C1716.1661,-217.5856 1406.3269,-193.487 1271.726,-183.018"/>
<polygon fill="#191970" stroke="#191970" points="1271.8103,-179.5141 1261.569,-182.228 1271.2674,-186.493 1271.8103,-179.5141"/>
</g>
<!-- Node33&#45;&gt;Node7 -->
<g id="edge48" class="edge">
<title>Node33&#45;&gt;Node7</title>
<path fill="none" stroke="#191970" d="M1855.9691,-229.5714C1759.2276,-222.8198 1596.2143,-208.5344 1578.2088,-188 1562.5058,-170.0915 1587.3307,-149.8778 1609.6524,-136.5935"/>
<polygon fill="#191970" stroke="#191970" points="1611.6411,-139.4898 1618.6236,-131.5214 1608.196,-133.3963 1611.6411,-139.4898"/>
</g>
<!-- Node33&#45;&gt;Node8 -->
<g id="edge56" class="edge">
<title>Node33&#45;&gt;Node8</title>
<path fill="none" stroke="#191970" d="M1985.6709,-224.4619C2025.897,-216.6068 2074.3097,-204.1457 2087.2088,-188 2110.6144,-158.7034 2105.037,-111.7047 2099.3407,-85.4135"/>
<polygon fill="#191970" stroke="#191970" points="2102.7061,-84.4375 2096.9764,-75.5257 2095.898,-86.0655 2102.7061,-84.4375"/>
</g>
<!-- Node33&#45;&gt;Node18 -->
<g id="edge54" class="edge">
<title>Node33&#45;&gt;Node18</title>
<path fill="none" stroke="#191970" d="M1855.8073,-232.7583C1622.4752,-228.0001 884.6113,-207.2266 660.2088,-132 643.5863,-126.4276 642.9502,-117.204 626.2088,-112 414.0667,-46.057 345.6413,-104.4058 120.9224,-75.8933"/>
<polygon fill="#191970" stroke="#191970" points="121.1662,-72.3954 110.7956,-74.5634 120.2547,-79.3358 121.1662,-72.3954"/>
</g>
<!-- Node33&#45;&gt;Node25 -->
<g id="edge58" class="edge">
<title>Node33&#45;&gt;Node25</title>
<path fill="none" stroke="#191970" d="M1932.1673,-224.4444C1936.5868,-215.352 1942.7283,-201.1462 1945.2088,-188 1951.9844,-152.0905 1944.2727,-109.4683 1938.4593,-85.2922"/>
<polygon fill="#191970" stroke="#191970" points="1941.8433,-84.3977 1935.9807,-75.5727 1935.0604,-86.1275 1941.8433,-84.3977"/>
</g>
<!-- Node33&#45;&gt;Node26 -->
<g id="edge59" class="edge">
<title>Node33&#45;&gt;Node26</title>
<path fill="none" stroke="#191970" d="M1935.4414,-224.3157C1942.7299,-215.3619 1953.2605,-201.447 1960.2088,-188 1977.9542,-153.657 1990.8606,-110.1769 1997.3881,-85.4843"/>
<polygon fill="#191970" stroke="#191970" points="2000.8389,-86.1174 1999.9329,-75.5614 1994.0584,-84.3784 2000.8389,-86.1174"/>
</g>
<!-- Node34 -->
<g id="node35" class="node">
<title>Node34</title>
<g id="a_node35"><a xlink:href="../../db/d4f/StructToTuple_8h.html" target="_top" xlink:title="Framework/StructToTuple.h">
<polygon fill="none" stroke="#000000" points="2374.7088,-168.5 2374.7088,-187.5 2521.7088,-187.5 2521.7088,-168.5 2374.7088,-168.5"/>
<text text-anchor="middle" x="2448.2088" y="-175.5" font-family="Helvetica,sans-Serif" font-size="10.00" fill="#000000">Framework/StructToTuple.h</text>
</a>
</g>
</g>
<!-- Node33&#45;&gt;Node34 -->
<g id="edge44" class="edge">
<title>Node33&#45;&gt;Node34</title>
<path fill="none" stroke="#191970" d="M1998.2982,-225.0235C2001.3079,-224.672 2004.2879,-224.3294 2007.2088,-224 2162.8564,-206.4488 2204.5662,-205.5935 2364.2631,-188.0848"/>
<polygon fill="#191970" stroke="#191970" points="2364.8945,-191.5365 2374.4512,-186.9628 2364.1282,-184.5786 2364.8945,-191.5365"/>
</g>
<!-- Node33&#45;&gt;Node35 -->
<g id="edge60" class="edge">
<title>Node33&#45;&gt;Node35</title>
<path fill="none" stroke="#191970" d="M1979.1769,-224.4452C2018.4703,-216.5438 2073.4514,-204.0313 2120.2088,-188 2140.5286,-181.0331 2143.6091,-174.0898 2164.2088,-168 2167.5358,-167.0164 2363.6898,-138.0148 2441.1909,-126.5754"/>
<polygon fill="#191970" stroke="#191970" points="2441.9249,-130.005 2451.3067,-125.0825 2440.9029,-123.08 2441.9249,-130.005"/>
</g>
<!-- Node36 -->
<g id="node37" class="node">
<title>Node36</title>
<g id="a_node37"><a xlink:href="../../d7/dbe/VariantHelpers_8h.html" target="_top" xlink:title="Framework/VariantHelpers.h">
<polygon fill="none" stroke="#000000" points="1586.7088,-168.5 1586.7088,-187.5 1741.7088,-187.5 1741.7088,-168.5 1586.7088,-168.5"/>
<text text-anchor="middle" x="1664.2088" y="-175.5" font-family="Helvetica,sans-Serif" font-size="10.00" fill="#000000">Framework/VariantHelpers.h</text>
</a>
</g>
</g>
<!-- Node33&#45;&gt;Node36 -->
<g id="edge49" class="edge">
<title>Node33&#45;&gt;Node36</title>
<path fill="none" stroke="#191970" d="M1882.2963,-224.4369C1837.0967,-214.8127 1767.3281,-199.957 1718.9241,-189.6504"/>
<polygon fill="#191970" stroke="#191970" points="1719.4457,-186.1831 1708.936,-187.5237 1717.9878,-193.0296 1719.4457,-186.1831"/>
</g>
<!-- Node37 -->
<g id="node38" class="node">
<title>Node37</title>
<polygon fill="none" stroke="#bfbfbf" points="2172.7088,-168.5 2172.7088,-187.5 2281.7088,-187.5 2281.7088,-168.5 2172.7088,-168.5"/>
<text text-anchor="middle" x="2227.2088" y="-175.5" font-family="Helvetica,sans-Serif" font-size="10.00" fill="#000000">arrow/type_traits.h</text>
</g>
<!-- Node33&#45;&gt;Node37 -->
<g id="edge51" class="edge">
<title>Node33&#45;&gt;Node37</title>
<path fill="none" stroke="#191970" d="M1978.4397,-224.4369C2030.4296,-214.7321 2110.9161,-199.708 2166.1768,-189.3926"/>
<polygon fill="#191970" stroke="#191970" points="2167.0012,-192.7993 2176.1891,-187.5237 2165.7166,-185.9182 2167.0012,-192.7993"/>
</g>
<!-- Node38 -->
<g id="node39" class="node">
<title>Node38</title>
<polygon fill="none" stroke="#bfbfbf" points="2300.2088,-168.5 2300.2088,-187.5 2356.2088,-187.5 2356.2088,-168.5 2300.2088,-168.5"/>
<text text-anchor="middle" x="2328.2088" y="-175.5" font-family="Helvetica,sans-Serif" font-size="10.00" fill="#000000">sstream</text>
</g>
<!-- Node33&#45;&gt;Node38 -->
<g id="edge52" class="edge">
<title>Node33&#45;&gt;Node38</title>
<path fill="none" stroke="#191970" d="M1998.2517,-225.0839C2091.691,-213.3494 2248.2341,-193.6609 2290.1108,-187.6181"/>
<polygon fill="#191970" stroke="#191970" points="2290.692,-191.0697 2300.0217,-186.0491 2289.5974,-184.1558 2290.692,-191.0697"/>
</g>
<!-- Node39 -->
<g id="node40" class="node">
<title>Node39</title>
<polygon fill="none" stroke="#bfbfbf" points="1760.2088,-168.5 1760.2088,-187.5 1828.2088,-187.5 1828.2088,-168.5 1760.2088,-168.5"/>
<text text-anchor="middle" x="1794.2088" y="-175.5" font-family="Helvetica,sans-Serif" font-size="10.00" fill="#000000">arrow/stl.h</text>
</g>
<!-- Node33&#45;&gt;Node39 -->
<g id="edge53" class="edge">
<title>Node33&#45;&gt;Node39</title>
<path fill="none" stroke="#191970" d="M1904.3452,-224.3733C1882.8038,-215.3032 1850.325,-201.6279 1826.2132,-191.4755"/>
<polygon fill="#191970" stroke="#191970" points="1827.3485,-188.156 1816.7739,-187.5011 1824.6321,-194.6075 1827.3485,-188.156"/>
</g>
<!-- Node40 -->
<g id="node41" class="node">
<title>Node40</title>
<polygon fill="none" stroke="#bfbfbf" points="1846.7088,-168.5 1846.7088,-187.5 1935.7088,-187.5 1935.7088,-168.5 1846.7088,-168.5"/>
<text text-anchor="middle" x="1891.2088" y="-175.5" font-family="Helvetica,sans-Serif" font-size="10.00" fill="#000000">arrow/builder.h</text>
</g>
<!-- Node33&#45;&gt;Node40 -->
<g id="edge55" class="edge">
<title>Node33&#45;&gt;Node40</title>
<path fill="none" stroke="#191970" d="M1920.938,-224.2455C1915.9824,-216.5367 1908.9258,-205.5598 1902.9311,-196.2348"/>
<polygon fill="#191970" stroke="#191970" points="1905.7594,-194.1618 1897.4076,-187.6427 1899.8711,-197.9471 1905.7594,-194.1618"/>
</g>
<!-- Node41 -->
<g id="node42" class="node">
<title>Node41</title>
<polygon fill="none" stroke="#bfbfbf" points="2030.7088,-168.5 2030.7088,-187.5 2077.7088,-187.5 2077.7088,-168.5 2030.7088,-168.5"/>
<text text-anchor="middle" x="2054.2088" y="-175.5" font-family="Helvetica,sans-Serif" font-size="10.00" fill="#000000">vector</text>
</g>
<!-- Node33&#45;&gt;Node41 -->
<g id="edge57" class="edge">
<title>Node33&#45;&gt;Node41</title>
<path fill="none" stroke="#191970" d="M1949.0408,-224.3733C1969.5191,-215.3435 2000.3486,-201.7494 2023.3407,-191.6111"/>
<polygon fill="#191970" stroke="#191970" points="2024.9237,-194.7383 2032.6616,-187.5011 2022.0995,-188.3333 2024.9237,-194.7383"/>
</g>
<!-- Node34&#45;&gt;Node10 -->
<g id="edge45" class="edge">
<title>Node34&#45;&gt;Node10</title>
<path fill="none" stroke="#191970" d="M2429.3966,-168.2455C2412.3615,-159.4125 2387.0513,-146.2887 2367.7406,-136.2758"/>
<polygon fill="#191970" stroke="#191970" points="2369.294,-133.1388 2358.8053,-131.6427 2366.0718,-139.353 2369.294,-133.1388"/>
</g>
<!-- Node34&#45;&gt;Node11 -->
<g id="edge47" class="edge">
<title>Node34&#45;&gt;Node11</title>
<path fill="none" stroke="#191970" d="M2442.4964,-168.4509C2431.371,-149.8533 2406.628,-108.4919 2392.2137,-84.3964"/>
<polygon fill="#191970" stroke="#191970" points="2395.044,-82.3098 2386.9067,-75.5249 2389.0368,-85.9034 2395.044,-82.3098"/>
</g>
<!-- Node34&#45;&gt;Node35 -->
<g id="edge46" class="edge">
<title>Node34&#45;&gt;Node35</title>
<path fill="none" stroke="#191970" d="M2452.3892,-168.2455C2455.5898,-160.7776 2460.1048,-150.2427 2464.0172,-141.1137"/>
<polygon fill="#191970" stroke="#191970" points="2467.3539,-142.2129 2468.0762,-131.6427 2460.9199,-139.4554 2467.3539,-142.2129"/>
</g>
<!-- Node36&#45;&gt;Node9 -->
<g id="edge50" class="edge">
<title>Node36&#45;&gt;Node9</title>
<path fill="none" stroke="#191970" d="M1679.3691,-168.3746C1693.3543,-159.3486 1714.5598,-145.2883 1732.2088,-132 1753.4107,-116.0365 1776.5978,-96.3848 1792.3328,-82.6953"/>
<polygon fill="#191970" stroke="#191970" points="1795.03,-84.9857 1800.2478,-75.7647 1790.4186,-79.7193 1795.03,-84.9857"/>
</g>
</g>
</svg>
        <g id="navigator" transform="translate(0 0)" fill="#404254">
                <rect fill="#f2f5e9" fill-opacity="0.5" stroke="#606060" stroke-width=".5" x="0" y="0" width="60" height="60"/>
                <use id="zoomplus" xlink:href="#zoomPlus" x="17" y="9" onmousedown="handleZoom(evt,'in')"/>
                <use id="zoomminus" xlink:href="#zoomMin" x="42" y="9" onmousedown="handleZoom(evt,'out')"/>
                <use id="reset" xlink:href="#resetDef" x="30" y="36" onmousedown="handleReset()"/>
                <g id="arrowUp" xlink:href="#dirArrow" transform="translate(30 24)" onmousedown="handlePan(0,-1)">
                  <use xlink:href="#rim" fill="#404040">
                        <set attributeName="fill" to="#808080" begin="arrowUp.mouseover" end="arrowUp.mouseout"/>
                  </use>
                  <path fill="none" stroke="white" stroke-width="1.5" d="M0,-3.0v7 M-2.5,-0.5L0,-3.0L2.5,-0.5"/>
                </g>
                <g id="arrowRight" xlink:href="#dirArrow" transform="rotate(90) translate(36 -43)" onmousedown="handlePan(1,0)">
                  <use xlink:href="#rim" fill="#404040">
                        <set attributeName="fill" to="#808080" begin="arrowRight.mouseover" end="arrowRight.mouseout"/>
                  </use>
                  <path fill="none" stroke="white" stroke-width="1.5" d="M0,-3.0v7 M-2.5,-0.5L0,-3.0L2.5,-0.5"/>
                </g>
                <g id="arrowDown" xlink:href="#dirArrow" transform="rotate(180) translate(-30 -48)" onmousedown="handlePan(0,1)">
                  <use xlink:href="#rim" fill="#404040">
                        <set attributeName="fill" to="#808080" begin="arrowDown.mouseover" end="arrowDown.mouseout"/>
                  </use>
                  <path fill="none" stroke="white" stroke-width="1.5" d="M0,-3.0v7 M-2.5,-0.5L0,-3.0L2.5,-0.5"/>
                </g>
                <g id="arrowLeft" xlink:href="#dirArrow" transform="rotate(270) translate(-36 17)" onmousedown="handlePan(-1,0)">
                  <use xlink:href="#rim" fill="#404040">
                        <set attributeName="fill" to="#808080" begin="arrowLeft.mouseover" end="arrowLeft.mouseout"/>
                  </use>
                  <path fill="none" stroke="white" stroke-width="1.5" d="M0,-3.0v7 M-2.5,-0.5L0,-3.0L2.5,-0.5"/>
                </g>
        </g>
        <svg viewBox="0 0 15 15" width="100%" height="30px" preserveAspectRatio="xMaxYMin meet">
         <g id="arrow_out" transform="scale(0.3 0.3)">
          <a xlink:href="ASoAHelpers_8h__incl_org.svg" target="_base">
           <rect id="button" ry="5" rx="5" y="6" x="6" height="38" width="38"
                fill="#f2f5e9" fill-opacity="0.5" stroke="#606060" stroke-width="1.0"/>
           <path id="arrow"
             d="M 11.500037,31.436501 C 11.940474,20.09759 22.043105,11.32322 32.158766,21.979434 L 37.068811,17.246167 C 37.068811,17.246167 37.088388,32 37.088388,32 L 22.160133,31.978069 C 22.160133,31.978069 26.997745,27.140456 26.997745,27.140456 C 18.528582,18.264221 13.291696,25.230495 11.500037,31.436501 z"
             style="fill:#404040;"/>
          </a>
         </g>
        </svg>
</svg>
