<?xml version="1.0" encoding="UTF-8" standalone="no"?>
<!DOCTYPE svg PUBLIC "-//W3C//DTD SVG 1.1//EN"
 "http://www.w3.org/Graphics/SVG/1.1/DTD/svg11.dtd">
<!-- Generated by graphviz version 2.40.1 (20161225.0304)
 -->
<!-- Title: o2::framework::DPLRawParser Pages: 1 -->
<svg width="1331pt" height="562pt"
 viewBox="0.00 0.00 1331.00 562.00" xmlns="http://www.w3.org/2000/svg" xmlns:xlink="http://www.w3.org/1999/xlink">
<g id="graph0" class="graph" transform="scale(1 1) rotate(0) translate(4 558)">
<title>o2::framework::DPLRawParser</title>
<!-- Node1 -->
<g id="node1" class="node">
<title>Node1</title>
<polygon fill="#bfbfbf" stroke="#000000" points="596.5,-.5 596.5,-90.5 760.5,-90.5 760.5,-.5 596.5,-.5"/>
<text text-anchor="middle" x="678.5" y="-78.5" font-family="Helvetica,sans-Serif" font-size="10.00" fill="#000000">o2::framework::DPLRawParser</text>
<polyline fill="none" stroke="#000000" points="596.5,-71.5 760.5,-71.5 "/>
<text text-anchor="middle" x="678.5" y="-59.5" font-family="Helvetica,sans-Serif" font-size="10.00" fill="#000000"> </text>
<polyline fill="none" stroke="#000000" points="596.5,-52.5 760.5,-52.5 "/>
<text text-anchor="start" x="604.5" y="-40.5" font-family="Helvetica,sans-Serif" font-size="10.00" fill="#000000">+ DPLRawParser()</text>
<text text-anchor="start" x="604.5" y="-29.5" font-family="Helvetica,sans-Serif" font-size="10.00" fill="#000000">+ DPLRawParser()</text>
<text text-anchor="start" x="604.5" y="-18.5" font-family="Helvetica,sans-Serif" font-size="10.00" fill="#000000">+ begin()</text>
<text text-anchor="start" x="604.5" y="-7.5" font-family="Helvetica,sans-Serif" font-size="10.00" fill="#000000">+ end()</text>
</g>
<!-- Node2 -->
<g id="node2" class="node">
<title>Node2</title>
<g id="a_node2"><a xlink:href="../../d8/d47/structo2_1_1header_1_1RAWDataHeaderV4.html" target="_top" xlink:title="{o2::header::RAWDataHeaderV4\n|+ word0\l+ blockLength\l+ zero0\l+ word1\l+ word2\l+ word3\l+ word4\l+ heartbeatBC\l+ zero42\l+ word5\l+ word6\l+ detectorField\l+ stop\l+ pageCnt\l|}">
<polygon fill="none" stroke="#000000" points="595,-138.5 595,-338.5 762,-338.5 762,-138.5 595,-138.5"/>
<text text-anchor="middle" x="678.5" y="-326.5" font-family="Helvetica,sans-Serif" font-size="10.00" fill="#000000">o2::header::RAWDataHeaderV4</text>
<polyline fill="none" stroke="#000000" points="595,-319.5 762,-319.5 "/>
<text text-anchor="start" x="603" y="-307.5" font-family="Helvetica,sans-Serif" font-size="10.00" fill="#000000">+ word0</text>
<text text-anchor="start" x="603" y="-296.5" font-family="Helvetica,sans-Serif" font-size="10.00" fill="#000000">+ blockLength</text>
<text text-anchor="start" x="603" y="-285.5" font-family="Helvetica,sans-Serif" font-size="10.00" fill="#000000">+ zero0</text>
<text text-anchor="start" x="603" y="-274.5" font-family="Helvetica,sans-Serif" font-size="10.00" fill="#000000">+ word1</text>
<text text-anchor="start" x="603" y="-263.5" font-family="Helvetica,sans-Serif" font-size="10.00" fill="#000000">+ word2</text>
<text text-anchor="start" x="603" y="-252.5" font-family="Helvetica,sans-Serif" font-size="10.00" fill="#000000">+ word3</text>
<text text-anchor="start" x="603" y="-241.5" font-family="Helvetica,sans-Serif" font-size="10.00" fill="#000000">+ word4</text>
<text text-anchor="start" x="603" y="-230.5" font-family="Helvetica,sans-Serif" font-size="10.00" fill="#000000">+ heartbeatBC</text>
<text text-anchor="start" x="603" y="-219.5" font-family="Helvetica,sans-Serif" font-size="10.00" fill="#000000">+ zero42</text>
<text text-anchor="start" x="603" y="-208.5" font-family="Helvetica,sans-Serif" font-size="10.00" fill="#000000">+ word5</text>
<text text-anchor="start" x="603" y="-197.5" font-family="Helvetica,sans-Serif" font-size="10.00" fill="#000000">+ word6</text>
<text text-anchor="start" x="603" y="-186.5" font-family="Helvetica,sans-Serif" font-size="10.00" fill="#000000">+ detectorField</text>
<text text-anchor="start" x="603" y="-175.5" font-family="Helvetica,sans-Serif" font-size="10.00" fill="#000000">+ stop</text>
<text text-anchor="start" x="603" y="-164.5" font-family="Helvetica,sans-Serif" font-size="10.00" fill="#000000">+ pageCnt</text>
<polyline fill="none" stroke="#000000" points="595,-157.5 762,-157.5 "/>
<text text-anchor="middle" x="678.5" y="-145.5" font-family="Helvetica,sans-Serif" font-size="10.00" fill="#000000"> </text>
</a>
</g>
</g>
<!-- Node2&#45;&gt;Node1 -->
<g id="edge1" class="edge">
<title>Node2&#45;&gt;Node1</title>
<path fill="none" stroke="#404040" d="M678.5,-138.3255C678.5,-126.1882 678.5,-114.1285 678.5,-102.916"/>
<polygon fill="none" stroke="#404040" points="678.5001,-102.6576 674.5,-96.6576 678.5,-90.6576 682.5,-96.6576 678.5001,-102.6576"/>
<text text-anchor="middle" x="707.5" y="-112" font-family="Helvetica,sans-Serif" font-size="10.00" fill="#000000"> +initializer</text>
</g>
<!-- Node3 -->
<g id="node3" class="node">
<title>Node3</title>
<polygon fill="none" stroke="#bfbfbf" points="0,-496.5 0,-553.5 113,-553.5 113,-496.5 0,-496.5"/>
<text text-anchor="middle" x="56.5" y="-541.5" font-family="Helvetica,sans-Serif" font-size="10.00" fill="#000000">anonymous:+@147</text>
<polyline fill="none" stroke="#bfbfbf" points="0,-534.5 113,-534.5 "/>
<text text-anchor="middle" x="56.5" y="-522.5" font-family="Helvetica,sans-Serif" font-size="10.00" fill="#000000"> </text>
<polyline fill="none" stroke="#bfbfbf" points="0,-515.5 113,-515.5 "/>
<text text-anchor="middle" x="56.5" y="-503.5" font-family="Helvetica,sans-Serif" font-size="10.00" fill="#000000"> </text>
</g>
<!-- Node3&#45;&gt;Node2 -->
<g id="edge2" class="edge">
<title>Node3&#45;&gt;Node2</title>
<path fill="none" stroke="#404040" d="M66.059,-496.3228C80.2454,-458.3532 110.5864,-392.1151 159.5,-357 226.4817,-308.9138 452.2204,-270.292 582.8723,-251.3015"/>
<polygon fill="none" stroke="#404040" points="582.9454,-251.2911 588.314,-246.4767 594.8229,-249.5807 589.4543,-254.395 582.9454,-251.2911"/>
<text text-anchor="middle" x="179.5" y="-415" font-family="Helvetica,sans-Serif" font-size="10.00" fill="#000000"> +@147</text>
</g>
<!-- Node4 -->
<g id="node4" class="node">
<title>Node4</title>
<polygon fill="none" stroke="#bfbfbf" points="131,-496.5 131,-553.5 244,-553.5 244,-496.5 131,-496.5"/>
<text text-anchor="middle" x="187.5" y="-541.5" font-family="Helvetica,sans-Serif" font-size="10.00" fill="#000000">anonymous:+@139</text>
<polyline fill="none" stroke="#bfbfbf" points="131,-534.5 244,-534.5 "/>
<text text-anchor="middle" x="187.5" y="-522.5" font-family="Helvetica,sans-Serif" font-size="10.00" fill="#000000"> </text>
<polyline fill="none" stroke="#bfbfbf" points="131,-515.5 244,-515.5 "/>
<text text-anchor="middle" x="187.5" y="-503.5" font-family="Helvetica,sans-Serif" font-size="10.00" fill="#000000"> </text>
</g>
<!-- Node4&#45;&gt;Node2 -->
<g id="edge3" class="edge">
<title>Node4&#45;&gt;Node2</title>
<path fill="none" stroke="#404040" d="M196.3167,-496.4929C209.3562,-459.0253 237.3465,-393.6821 283.5,-357 370.3547,-287.9691 496.7919,-259.0899 583.0672,-247.047"/>
<polygon fill="none" stroke="#404040" points="583.0719,-247.0464 588.4892,-242.2869 594.9661,-245.4569 589.5488,-250.2164 583.0719,-247.0464"/>
<text text-anchor="middle" x="303.5" y="-415" font-family="Helvetica,sans-Serif" font-size="10.00" fill="#000000"> +@139</text>
</g>
<!-- Node5 -->
<g id="node5" class="node">
<title>Node5</title>
<polygon fill="none" stroke="#bfbfbf" points="262,-496.5 262,-553.5 375,-553.5 375,-496.5 262,-496.5"/>
<text text-anchor="middle" x="318.5" y="-541.5" font-family="Helvetica,sans-Serif" font-size="10.00" fill="#000000">anonymous:+@149</text>
<polyline fill="none" stroke="#bfbfbf" points="262,-534.5 375,-534.5 "/>
<text text-anchor="middle" x="318.5" y="-522.5" font-family="Helvetica,sans-Serif" font-size="10.00" fill="#000000"> </text>
<polyline fill="none" stroke="#bfbfbf" points="262,-515.5 375,-515.5 "/>
<text text-anchor="middle" x="318.5" y="-503.5" font-family="Helvetica,sans-Serif" font-size="10.00" fill="#000000"> </text>
</g>
<!-- Node5&#45;&gt;Node2 -->
<g id="edge4" class="edge">
<title>Node5&#45;&gt;Node2</title>
<path fill="none" stroke="#404040" d="M322.4672,-496.251C328.9799,-459.419 345.2691,-395.7235 383.5,-357 437.253,-302.5545 519.2905,-272.3268 583.2196,-256.0536"/>
<polygon fill="none" stroke="#404040" points="583.2816,-256.0384 588.1537,-250.7221 594.935,-253.1747 590.0629,-258.491 583.2816,-256.0384"/>
<text text-anchor="middle" x="403.5" y="-415" font-family="Helvetica,sans-Serif" font-size="10.00" fill="#000000"> +@149</text>
</g>
<!-- Node6 -->
<g id="node6" class="node">
<title>Node6</title>
<g id="a_node6"><a xlink:href="../../d6/d30/classuint64__t.html" target="_top" xlink:title="{uint64_t\n||}">
<polygon fill="none" stroke="#000000" points="393.5,-496.5 393.5,-553.5 449.5,-553.5 449.5,-496.5 393.5,-496.5"/>
<text text-anchor="middle" x="421.5" y="-541.5" font-family="Helvetica,sans-Serif" font-size="10.00" fill="#000000">uint64_t</text>
<polyline fill="none" stroke="#000000" points="393.5,-534.5 449.5,-534.5 "/>
<text text-anchor="middle" x="421.5" y="-522.5" font-family="Helvetica,sans-Serif" font-size="10.00" fill="#000000"> </text>
<polyline fill="none" stroke="#000000" points="393.5,-515.5 449.5,-515.5 "/>
<text text-anchor="middle" x="421.5" y="-503.5" font-family="Helvetica,sans-Serif" font-size="10.00" fill="#000000"> </text>
</a>
</g>
</g>
<!-- Node6&#45;&gt;Node2 -->
<g id="edge5" class="edge">
<title>Node6&#45;&gt;Node2</title>
<path fill="none" stroke="#404040" d="M423.7574,-496.4881C427.9286,-460.4866 439.6816,-398.275 472.5,-357 501.3109,-320.765 544.4385,-293.5294 583.7987,-274.3651"/>
<polygon fill="none" stroke="#404040" points="583.9359,-274.3003 587.6515,-268.1202 594.7854,-269.1731 591.0697,-275.3532 583.9359,-274.3003"/>
<text text-anchor="middle" x="504.5" y="-470" font-family="Helvetica,sans-Serif" font-size="10.00" fill="#000000"> +word7</text>
<text text-anchor="middle" x="504.5" y="-459" font-family="Helvetica,sans-Serif" font-size="10.00" fill="#000000">+triggerType</text>
<text text-anchor="middle" x="504.5" y="-448" font-family="Helvetica,sans-Serif" font-size="10.00" fill="#000000">+zero6</text>
<text text-anchor="middle" x="504.5" y="-437" font-family="Helvetica,sans-Serif" font-size="10.00" fill="#000000">+par</text>
<text text-anchor="middle" x="504.5" y="-426" font-family="Helvetica,sans-Serif" font-size="10.00" fill="#000000">+feeId</text>
<text text-anchor="middle" x="504.5" y="-415" font-family="Helvetica,sans-Serif" font-size="10.00" fill="#000000">+priority</text>
<text text-anchor="middle" x="504.5" y="-404" font-family="Helvetica,sans-Serif" font-size="10.00" fill="#000000">+headerSize</text>
<text text-anchor="middle" x="504.5" y="-393" font-family="Helvetica,sans-Serif" font-size="10.00" fill="#000000">+version</text>
<text text-anchor="middle" x="504.5" y="-382" font-family="Helvetica,sans-Serif" font-size="10.00" fill="#000000">+triggerBC</text>
<text text-anchor="middle" x="504.5" y="-371" font-family="Helvetica,sans-Serif" font-size="10.00" fill="#000000">+zero41</text>
<text text-anchor="middle" x="504.5" y="-360" font-family="Helvetica,sans-Serif" font-size="10.00" fill="#000000">...</text>
</g>
<!-- Node7 -->
<g id="node7" class="node">
<title>Node7</title>
<polygon fill="none" stroke="#bfbfbf" points="468,-496.5 468,-553.5 581,-553.5 581,-496.5 468,-496.5"/>
<text text-anchor="middle" x="524.5" y="-541.5" font-family="Helvetica,sans-Serif" font-size="10.00" fill="#000000">anonymous:+@151</text>
<polyline fill="none" stroke="#bfbfbf" points="468,-534.5 581,-534.5 "/>
<text text-anchor="middle" x="524.5" y="-522.5" font-family="Helvetica,sans-Serif" font-size="10.00" fill="#000000"> </text>
<polyline fill="none" stroke="#bfbfbf" points="468,-515.5 581,-515.5 "/>
<text text-anchor="middle" x="524.5" y="-503.5" font-family="Helvetica,sans-Serif" font-size="10.00" fill="#000000"> </text>
</g>
<!-- Node7&#45;&gt;Node2 -->
<g id="edge6" class="edge">
<title>Node7&#45;&gt;Node2</title>
<path fill="none" stroke="#404040" d="M533.437,-496.3621C544.6828,-462.1032 565.6852,-403.5445 591.5,-357 592.9893,-354.3147 594.5308,-351.6201 596.1163,-348.923"/>
<polygon fill="none" stroke="#404040" points="596.2039,-348.7787 595.8991,-341.574 602.4324,-338.5217 602.7371,-345.7264 596.2039,-348.7787"/>
<text text-anchor="middle" x="611.5" y="-415" font-family="Helvetica,sans-Serif" font-size="10.00" fill="#000000"> +@151</text>
</g>
<!-- Node8 -->
<g id="node8" class="node">
<title>Node8</title>
<polygon fill="none" stroke="#bfbfbf" points="599.5,-496.5 599.5,-553.5 655.5,-553.5 655.5,-496.5 599.5,-496.5"/>
<text text-anchor="middle" x="627.5" y="-541.5" font-family="Helvetica,sans-Serif" font-size="10.00" fill="#000000">uint16_t</text>
<polyline fill="none" stroke="#bfbfbf" points="599.5,-534.5 655.5,-534.5 "/>
<text text-anchor="middle" x="627.5" y="-522.5" font-family="Helvetica,sans-Serif" font-size="10.00" fill="#000000"> </text>
<polyline fill="none" stroke="#bfbfbf" points="599.5,-515.5 655.5,-515.5 "/>
<text text-anchor="middle" x="627.5" y="-503.5" font-family="Helvetica,sans-Serif" font-size="10.00" fill="#000000"> </text>
</g>
<!-- Node8&#45;&gt;Node2 -->
<g id="edge7" class="edge">
<title>Node8&#45;&gt;Node2</title>
<path fill="none" stroke="#404040" d="M632.5765,-496.4819C638.6315,-462.4672 649.1202,-403.5456 658.5463,-350.593"/>
<polygon fill="none" stroke="#404040" points="658.5612,-350.5086 655.6747,-343.9005 660.6644,-338.6944 663.5509,-345.3026 658.5612,-350.5086"/>
<text text-anchor="middle" x="674" y="-415" font-family="Helvetica,sans-Serif" font-size="10.00" fill="#000000"> +cruID</text>
</g>
<!-- Node9 -->
<g id="node9" class="node">
<title>Node9</title>
<polygon fill="none" stroke="#bfbfbf" points="674,-496.5 674,-553.5 787,-553.5 787,-496.5 674,-496.5"/>
<text text-anchor="middle" x="730.5" y="-541.5" font-family="Helvetica,sans-Serif" font-size="10.00" fill="#000000">anonymous:+@153</text>
<polyline fill="none" stroke="#bfbfbf" points="674,-534.5 787,-534.5 "/>
<text text-anchor="middle" x="730.5" y="-522.5" font-family="Helvetica,sans-Serif" font-size="10.00" fill="#000000"> </text>
<polyline fill="none" stroke="#bfbfbf" points="674,-515.5 787,-515.5 "/>
<text text-anchor="middle" x="730.5" y="-503.5" font-family="Helvetica,sans-Serif" font-size="10.00" fill="#000000"> </text>
</g>
<!-- Node9&#45;&gt;Node2 -->
<g id="edge8" class="edge">
<title>Node9&#45;&gt;Node2</title>
<path fill="none" stroke="#404040" d="M725.3239,-496.4819C719.1502,-462.4672 708.4559,-403.5456 698.845,-350.593"/>
<polygon fill="none" stroke="#404040" points="698.8284,-350.5015 693.8212,-345.3123 696.6854,-338.6944 701.6926,-343.8836 698.8284,-350.5015"/>
<text text-anchor="middle" x="741.5" y="-415" font-family="Helvetica,sans-Serif" font-size="10.00" fill="#000000"> +@153</text>
</g>
<!-- Node10 -->
<g id="node10" class="node">
<title>Node10</title>
<polygon fill="none" stroke="#bfbfbf" points="805.5,-496.5 805.5,-553.5 855.5,-553.5 855.5,-496.5 805.5,-496.5"/>
<text text-anchor="middle" x="830.5" y="-541.5" font-family="Helvetica,sans-Serif" font-size="10.00" fill="#000000">uint8_t</text>
<polyline fill="none" stroke="#bfbfbf" points="805.5,-534.5 855.5,-534.5 "/>
<text text-anchor="middle" x="830.5" y="-522.5" font-family="Helvetica,sans-Serif" font-size="10.00" fill="#000000"> </text>
<polyline fill="none" stroke="#bfbfbf" points="805.5,-515.5 855.5,-515.5 "/>
<text text-anchor="middle" x="830.5" y="-503.5" font-family="Helvetica,sans-Serif" font-size="10.00" fill="#000000"> </text>
</g>
<!-- Node10&#45;&gt;Node2 -->
<g id="edge9" class="edge">
<title>Node10&#45;&gt;Node2</title>
<path fill="none" stroke="#404040" d="M807.3017,-496.4737C803.2806,-490.6058 799.4506,-484.2914 796.5,-478 772.9278,-427.7384 789.2488,-407.1784 765.5,-357 764.2794,-354.421 762.9994,-351.8412 761.6677,-349.2657"/>
<polygon fill="none" stroke="#404040" points="761.6604,-349.2523 755.2777,-345.8966 755.9203,-338.7142 762.3031,-342.0698 761.6604,-349.2523"/>
<text text-anchor="middle" x="836.5" y="-426" font-family="Helvetica,sans-Serif" font-size="10.00" fill="#000000"> +linkID</text>
<text text-anchor="middle" x="836.5" y="-415" font-family="Helvetica,sans-Serif" font-size="10.00" fill="#000000">+endPointID</text>
<text text-anchor="middle" x="836.5" y="-404" font-family="Helvetica,sans-Serif" font-size="10.00" fill="#000000">+packetCounter</text>
</g>
<!-- Node11 -->
<g id="node11" class="node">
<title>Node11</title>
<g id="a_node11"><a xlink:href="../../d3/d87/classuint32__t.html" target="_top" xlink:title="{uint32_t\n||}">
<polygon fill="none" stroke="#000000" points="873.5,-496.5 873.5,-553.5 929.5,-553.5 929.5,-496.5 873.5,-496.5"/>
<text text-anchor="middle" x="901.5" y="-541.5" font-family="Helvetica,sans-Serif" font-size="10.00" fill="#000000">uint32_t</text>
<polyline fill="none" stroke="#000000" points="873.5,-534.5 929.5,-534.5 "/>
<text text-anchor="middle" x="901.5" y="-522.5" font-family="Helvetica,sans-Serif" font-size="10.00" fill="#000000"> </text>
<polyline fill="none" stroke="#000000" points="873.5,-515.5 929.5,-515.5 "/>
<text text-anchor="middle" x="901.5" y="-503.5" font-family="Helvetica,sans-Serif" font-size="10.00" fill="#000000"> </text>
</a>
</g>
</g>
<!-- Node11&#45;&gt;Node2 -->
<g id="edge10" class="edge">
<title>Node11&#45;&gt;Node2</title>
<path fill="none" stroke="#404040" d="M900.161,-496.2483C897.7269,-454.3922 891.3796,-379.242 876.5,-357 851.7656,-320.0273 811.2373,-292.834 773.2695,-273.8925"/>
<polygon fill="none" stroke="#404040" points="772.9301,-273.7292 765.7888,-274.73 762.1183,-268.523 769.2596,-267.5221 772.9301,-273.7292"/>
<text text-anchor="middle" x="940" y="-431.5" font-family="Helvetica,sans-Serif" font-size="10.00" fill="#000000"> +heartbeatOrbit</text>
<text text-anchor="middle" x="940" y="-420.5" font-family="Helvetica,sans-Serif" font-size="10.00" fill="#000000">+triggerOrbit</text>
<text text-anchor="middle" x="940" y="-409.5" font-family="Helvetica,sans-Serif" font-size="10.00" fill="#000000">+memorySize</text>
<text text-anchor="middle" x="940" y="-398.5" font-family="Helvetica,sans-Serif" font-size="10.00" fill="#000000">+offsetToNext</text>
</g>
<!-- Node12 -->
<g id="node12" class="node">
<title>Node12</title>
<polygon fill="none" stroke="#bfbfbf" points="948,-496.5 948,-553.5 1061,-553.5 1061,-496.5 948,-496.5"/>
<text text-anchor="middle" x="1004.5" y="-541.5" font-family="Helvetica,sans-Serif" font-size="10.00" fill="#000000">anonymous:+@141</text>
<polyline fill="none" stroke="#bfbfbf" points="948,-534.5 1061,-534.5 "/>
<text text-anchor="middle" x="1004.5" y="-522.5" font-family="Helvetica,sans-Serif" font-size="10.00" fill="#000000"> </text>
<polyline fill="none" stroke="#bfbfbf" points="948,-515.5 1061,-515.5 "/>
<text text-anchor="middle" x="1004.5" y="-503.5" font-family="Helvetica,sans-Serif" font-size="10.00" fill="#000000"> </text>
</g>
<!-- Node12&#45;&gt;Node2 -->
<g id="edge11" class="edge">
<title>Node12&#45;&gt;Node2</title>
<path fill="none" stroke="#404040" d="M1008.9259,-496.4188C1012.8942,-460.0585 1013.9788,-397.1719 982.5,-357 932.4836,-293.1711 843.3437,-263.673 774.4762,-250.0697"/>
<polygon fill="none" stroke="#404040" points="774.0981,-249.9988 767.4637,-252.8245 762.3036,-247.7873 768.938,-244.9616 774.0981,-249.9988"/>
<text text-anchor="middle" x="1030.5" y="-415" font-family="Helvetica,sans-Serif" font-size="10.00" fill="#000000"> +@141</text>
</g>
<!-- Node13 -->
<g id="node13" class="node">
<title>Node13</title>
<polygon fill="none" stroke="#bfbfbf" points="1079,-496.5 1079,-553.5 1192,-553.5 1192,-496.5 1079,-496.5"/>
<text text-anchor="middle" x="1135.5" y="-541.5" font-family="Helvetica,sans-Serif" font-size="10.00" fill="#000000">anonymous:+@143</text>
<polyline fill="none" stroke="#bfbfbf" points="1079,-534.5 1192,-534.5 "/>
<text text-anchor="middle" x="1135.5" y="-522.5" font-family="Helvetica,sans-Serif" font-size="10.00" fill="#000000"> </text>
<polyline fill="none" stroke="#bfbfbf" points="1079,-515.5 1192,-515.5 "/>
<text text-anchor="middle" x="1135.5" y="-503.5" font-family="Helvetica,sans-Serif" font-size="10.00" fill="#000000"> </text>
</g>
<!-- Node13&#45;&gt;Node2 -->
<g id="edge12" class="edge">
<title>Node13&#45;&gt;Node2</title>
<path fill="none" stroke="#404040" d="M1129.1723,-496.3237C1119.4646,-458.9728 1097.3456,-394.0827 1054.5,-357 975.4555,-288.5874 856.8868,-259.6267 774.0945,-247.3941"/>
<polygon fill="none" stroke="#404040" points="774.03,-247.3851 767.5298,-250.5073 762.1478,-245.708 768.6479,-242.5858 774.03,-247.3851"/>
<text text-anchor="middle" x="1143.5" y="-415" font-family="Helvetica,sans-Serif" font-size="10.00" fill="#000000"> +@143</text>
</g>
<!-- Node14 -->
<g id="node14" class="node">
<title>Node14</title>
<polygon fill="none" stroke="#bfbfbf" points="1210,-496.5 1210,-553.5 1323,-553.5 1323,-496.5 1210,-496.5"/>
<text text-anchor="middle" x="1266.5" y="-541.5" font-family="Helvetica,sans-Serif" font-size="10.00" fill="#000000">anonymous:+@145</text>
<polyline fill="none" stroke="#bfbfbf" points="1210,-534.5 1323,-534.5 "/>
<text text-anchor="middle" x="1266.5" y="-522.5" font-family="Helvetica,sans-Serif" font-size="10.00" fill="#000000"> </text>
<polyline fill="none" stroke="#bfbfbf" points="1210,-515.5 1323,-515.5 "/>
<text text-anchor="middle" x="1266.5" y="-503.5" font-family="Helvetica,sans-Serif" font-size="10.00" fill="#000000"> </text>
</g>
<!-- Node14&#45;&gt;Node2 -->
<g id="edge13" class="edge">
<title>Node14&#45;&gt;Node2</title>
<path fill="none" stroke="#404040" d="M1257.5606,-496.4321C1244.2067,-458.5864 1215.3619,-392.4882 1167.5,-357 1105.8317,-311.2747 898.3173,-272.4755 774.3076,-252.6478"/>
<polygon fill="none" stroke="#404040" points="774.0576,-252.6083 767.5056,-255.6201 762.2055,-250.7306 768.7574,-247.7187 774.0576,-252.6083"/>
<text text-anchor="middle" x="1269.5" y="-415" font-family="Helvetica,sans-Serif" font-size="10.00" fill="#000000"> +@145</text>
</g>
</g>
</svg>
