<?xml version="1.0" encoding="UTF-8" standalone="no"?>
<!DOCTYPE svg PUBLIC "-//W3C//DTD SVG 1.1//EN"
 "http://www.w3.org/Graphics/SVG/1.1/DTD/svg11.dtd">
<!-- Generated by graphviz version 2.40.1 (20161225.0304)
 -->
<!-- Title: o2::framework::TransformTable&lt; T &gt; Pages: 1 -->
<!--zoomable 474 -->
<svg id="main" version="1.1" xmlns="http://www.w3.org/2000/svg" xmlns:xlink="http://www.w3.org/1999/xlink" xml:space="preserve" onload="init(evt)">
<style type="text/css"><![CDATA[
.edge:hover path { stroke: red; }
.edge:hover polygon { stroke: red; fill: red; }
]]></style>
<script type="text/javascript"><![CDATA[
var edges = document.getElementsByTagName('g');
if (edges && edges.length) {
  for (var i=0;i<edges.length;i++) {
    if (edges[i].id.substr(0,4)=='edge') {
      edges[i].setAttribute('class','edge');
    }
  }
}
]]></script>
        <defs>
                <circle id="rim" cx="0" cy="0" r="7"/>
                <circle id="rim2" cx="0" cy="0" r="3.5"/>
                <g id="zoomPlus">
                        <use xlink:href="#rim" fill="#404040">
                                <set attributeName="fill" to="#808080" begin="zoomplus.mouseover" end="zoomplus.mouseout"/>
                        </use>
                        <path d="M-4,0h8M0,-4v8" fill="none" stroke="white" stroke-width="1.5" pointer-events="none"/>
                </g>
                <g id="zoomMin">
                        <use xlink:href="#rim" fill="#404040">
                                <set attributeName="fill" to="#808080" begin="zoomminus.mouseover" end="zoomminus.mouseout"/>
                        </use>
                        <path d="M-4,0h8" fill="none" stroke="white" stroke-width="1.5" pointer-events="none"/>
                </g>
                <g id="dirArrow">
                        <path fill="none" stroke="white" stroke-width="1.5" d="M0,-3.0v7 M-2.5,-0.5L0,-3.0L2.5,-0.5"/>
                </g>
               <g id="resetDef">
                       <use xlink:href="#rim2" fill="#404040">
                               <set attributeName="fill" to="#808080" begin="reset.mouseover" end="reset.mouseout"/>
                       </use>
               </g>
        </defs>

<script type="text/javascript">
var viewWidth = 1717;
var viewHeight = 474;
var sectionId = 'dynsection-0';
</script>
<script xlink:href="../../svgpan.js"/>
<svg id="graph" class="graph">
<g id="viewport">
<title>o2::framework::TransformTable&lt; T &gt;</title>
<!-- Node0 -->
<g id="node1" class="node">
<title>Node0</title>
<polygon fill="#bfbfbf" stroke="#000000" points="827,-320.5 827,-465.5 970,-465.5 970,-320.5 827,-320.5"/>
<text text-anchor="start" x="835" y="-453.5" font-family="Helvetica,sans-Serif" font-size="10.00" fill="#000000">o2::framework::Transform</text>
<text text-anchor="middle" x="898.5" y="-442.5" font-family="Helvetica,sans-Serif" font-size="10.00" fill="#000000">Table&lt; T &gt;</text>
<polyline fill="none" stroke="#000000" points="827,-435.5 970,-435.5 "/>
<text text-anchor="start" x="835" y="-423.5" font-family="Helvetica,sans-Serif" font-size="10.00" fill="#000000">+ table</text>
<polyline fill="none" stroke="#000000" points="827,-416.5 970,-416.5 "/>
<text text-anchor="start" x="835" y="-404.5" font-family="Helvetica,sans-Serif" font-size="10.00" fill="#000000">+ base_spec()</text>
<text text-anchor="start" x="835" y="-393.5" font-family="Helvetica,sans-Serif" font-size="10.00" fill="#000000">+ base_specs_impl()</text>
<text text-anchor="start" x="835" y="-382.5" font-family="Helvetica,sans-Serif" font-size="10.00" fill="#000000">+ base_specs()</text>
<text text-anchor="start" x="835" y="-371.5" font-family="Helvetica,sans-Serif" font-size="10.00" fill="#000000">+ spec()</text>
<text text-anchor="start" x="835" y="-360.5" font-family="Helvetica,sans-Serif" font-size="10.00" fill="#000000">+ ref()</text>
<text text-anchor="start" x="835" y="-349.5" font-family="Helvetica,sans-Serif" font-size="10.00" fill="#000000">+ operator&#45;&gt;()</text>
<text text-anchor="start" x="835" y="-338.5" font-family="Helvetica,sans-Serif" font-size="10.00" fill="#000000">+ operator*()</text>
<text text-anchor="start" x="835" y="-327.5" font-family="Helvetica,sans-Serif" font-size="10.00" fill="#000000">+ asArrowTable()</text>
</g>
<!-- Node1 -->
<g id="node2" class="node">
<title>Node1</title>
<g id="a_node2"><a xlink:href="../../d5/df4/structo2_1_1framework_1_1Builds.html" target="_top" xlink:title="This helper struct allows you to declare index tables to be created in a task. ">
<polygon fill="none" stroke="#000000" points="410.5,-166 410.5,-234 562.5,-234 562.5,-166 410.5,-166"/>
<text text-anchor="middle" x="486.5" y="-222" font-family="Helvetica,sans-Serif" font-size="10.00" fill="#000000">o2::framework::Builds&lt; T &gt;</text>
<polyline fill="none" stroke="#000000" points="410.5,-215 562.5,-215 "/>
<text text-anchor="middle" x="486.5" y="-203" font-family="Helvetica,sans-Serif" font-size="10.00" fill="#000000"> </text>
<polyline fill="none" stroke="#000000" points="410.5,-196 562.5,-196 "/>
<text text-anchor="start" x="418.5" y="-184" font-family="Helvetica,sans-Serif" font-size="10.00" fill="#000000">+ pack()</text>
<text text-anchor="start" x="418.5" y="-173" font-family="Helvetica,sans-Serif" font-size="10.00" fill="#000000">+ build()</text>
</a>
</g>
</g>
<!-- Node0&#45;&gt;Node1 -->
<g id="edge1" class="edge">
<title>Node0&#45;&gt;Node1</title>
<path fill="none" stroke="#191970" d="M816.8109,-371.881C748.3949,-352.1623 649.6713,-318.8706 571.5,-273 553.3808,-262.3677 535.4215,-247.714 520.712,-234.3242"/>
<polygon fill="none" stroke="#191970" points="816.1028,-375.3184 826.6791,-374.6917 818.0204,-368.5862 816.1028,-375.3184"/>
</g>
<!-- Node6 -->
<g id="node7" class="node">
<title>Node6</title>
<g id="a_node7"><a xlink:href="../../d7/d15/structo2_1_1framework_1_1Spawns.html" target="_top" xlink:title="{o2::framework::Spawns\&lt; T \&gt;\n||+ pack()\l}">
<polygon fill="none" stroke="#000000" points="1370.5,-171.5 1370.5,-228.5 1530.5,-228.5 1530.5,-171.5 1370.5,-171.5"/>
<text text-anchor="middle" x="1450.5" y="-216.5" font-family="Helvetica,sans-Serif" font-size="10.00" fill="#000000">o2::framework::Spawns&lt; T &gt;</text>
<polyline fill="none" stroke="#000000" points="1370.5,-209.5 1530.5,-209.5 "/>
<text text-anchor="middle" x="1450.5" y="-197.5" font-family="Helvetica,sans-Serif" font-size="10.00" fill="#000000"> </text>
<polyline fill="none" stroke="#000000" points="1370.5,-190.5 1530.5,-190.5 "/>
<text text-anchor="start" x="1378.5" y="-178.5" font-family="Helvetica,sans-Serif" font-size="10.00" fill="#000000">+ pack()</text>
</a>
</g>
</g>
<!-- Node0&#45;&gt;Node6 -->
<g id="edge6" class="edge">
<title>Node0&#45;&gt;Node6</title>
<path fill="none" stroke="#191970" d="M980.2344,-387.0282C1077.7397,-376.6432 1242.4822,-348.5111 1361.5,-273 1381.9181,-260.0457 1402.9176,-243.0288 1419.3875,-228.6837"/>
<polygon fill="none" stroke="#191970" points="979.73,-383.5616 970.1401,-388.0654 980.4455,-390.5249 979.73,-383.5616"/>
</g>
<!-- Node10 -->
<g id="node11" class="node">
<title>Node10</title>
<g id="a_node11"><a xlink:href="../../da/d17/structo2_1_1framework_1_1TransformTable.html" target="_top" xlink:title="{o2::framework::Transform\lTable\&lt; aod::Run2MatchedSparse \&gt;\n|+ table\l|+ base_spec()\l+ base_specs_impl()\l+ base_specs()\l+ spec()\l+ ref()\l+ operator&#45;\&gt;()\l+ operator*()\l+ asArrowTable()\l}">
<polygon fill="none" stroke="#000000" points="0,-127.5 0,-272.5 187,-272.5 187,-127.5 0,-127.5"/>
<text text-anchor="start" x="8" y="-260.5" font-family="Helvetica,sans-Serif" font-size="10.00" fill="#000000">o2::framework::Transform</text>
<text text-anchor="middle" x="93.5" y="-249.5" font-family="Helvetica,sans-Serif" font-size="10.00" fill="#000000">Table&lt; aod::Run2MatchedSparse &gt;</text>
<polyline fill="none" stroke="#000000" points="0,-242.5 187,-242.5 "/>
<text text-anchor="start" x="8" y="-230.5" font-family="Helvetica,sans-Serif" font-size="10.00" fill="#000000">+ table</text>
<polyline fill="none" stroke="#000000" points="0,-223.5 187,-223.5 "/>
<text text-anchor="start" x="8" y="-211.5" font-family="Helvetica,sans-Serif" font-size="10.00" fill="#000000">+ base_spec()</text>
<text text-anchor="start" x="8" y="-200.5" font-family="Helvetica,sans-Serif" font-size="10.00" fill="#000000">+ base_specs_impl()</text>
<text text-anchor="start" x="8" y="-189.5" font-family="Helvetica,sans-Serif" font-size="10.00" fill="#000000">+ base_specs()</text>
<text text-anchor="start" x="8" y="-178.5" font-family="Helvetica,sans-Serif" font-size="10.00" fill="#000000">+ spec()</text>
<text text-anchor="start" x="8" y="-167.5" font-family="Helvetica,sans-Serif" font-size="10.00" fill="#000000">+ ref()</text>
<text text-anchor="start" x="8" y="-156.5" font-family="Helvetica,sans-Serif" font-size="10.00" fill="#000000">+ operator&#45;&gt;()</text>
<text text-anchor="start" x="8" y="-145.5" font-family="Helvetica,sans-Serif" font-size="10.00" fill="#000000">+ operator*()</text>
<text text-anchor="start" x="8" y="-134.5" font-family="Helvetica,sans-Serif" font-size="10.00" fill="#000000">+ asArrowTable()</text>
</a>
</g>
</g>
<!-- Node0&#45;&gt;Node10 -->
<g id="edge10" class="edge">
<title>Node0&#45;&gt;Node10</title>
<path fill="none" stroke="#ffa500" d="M816.819,-386.0106C697.3222,-374.6636 468.4166,-348.6642 278.5,-302 240.553,-292.6761 230.1842,-290.9978 195.5,-273 192.6973,-271.5457 189.8849,-270.0219 187.0728,-268.4412"/>
<polygon fill="#ffa500" stroke="#ffa500" points="816.7014,-389.5149 826.985,-386.9656 817.3562,-382.5456 816.7014,-389.5149"/>
<text text-anchor="middle" x="352.5" y="-294" font-family="Helvetica,sans-Serif" font-size="10.00" fill="#000000"> &lt; aod::Run2MatchedSparse &gt;</text>
</g>
<!-- Node11 -->
<g id="node12" class="node">
<title>Node11</title>
<g id="a_node12"><a xlink:href="../../da/d17/structo2_1_1framework_1_1TransformTable.html" target="_top" xlink:title="{o2::framework::Transform\lTable\&lt; aod::EPhi \&gt;\n|+ table\l|+ base_spec()\l+ base_specs_impl()\l+ base_specs()\l+ spec()\l+ ref()\l+ operator&#45;\&gt;()\l+ operator*()\l+ asArrowTable()\l}">
<polygon fill="none" stroke="#000000" points="1017,-127.5 1017,-272.5 1160,-272.5 1160,-127.5 1017,-127.5"/>
<text text-anchor="start" x="1025" y="-260.5" font-family="Helvetica,sans-Serif" font-size="10.00" fill="#000000">o2::framework::Transform</text>
<text text-anchor="middle" x="1088.5" y="-249.5" font-family="Helvetica,sans-Serif" font-size="10.00" fill="#000000">Table&lt; aod::EPhi &gt;</text>
<polyline fill="none" stroke="#000000" points="1017,-242.5 1160,-242.5 "/>
<text text-anchor="start" x="1025" y="-230.5" font-family="Helvetica,sans-Serif" font-size="10.00" fill="#000000">+ table</text>
<polyline fill="none" stroke="#000000" points="1017,-223.5 1160,-223.5 "/>
<text text-anchor="start" x="1025" y="-211.5" font-family="Helvetica,sans-Serif" font-size="10.00" fill="#000000">+ base_spec()</text>
<text text-anchor="start" x="1025" y="-200.5" font-family="Helvetica,sans-Serif" font-size="10.00" fill="#000000">+ base_specs_impl()</text>
<text text-anchor="start" x="1025" y="-189.5" font-family="Helvetica,sans-Serif" font-size="10.00" fill="#000000">+ base_specs()</text>
<text text-anchor="start" x="1025" y="-178.5" font-family="Helvetica,sans-Serif" font-size="10.00" fill="#000000">+ spec()</text>
<text text-anchor="start" x="1025" y="-167.5" font-family="Helvetica,sans-Serif" font-size="10.00" fill="#000000">+ ref()</text>
<text text-anchor="start" x="1025" y="-156.5" font-family="Helvetica,sans-Serif" font-size="10.00" fill="#000000">+ operator&#45;&gt;()</text>
<text text-anchor="start" x="1025" y="-145.5" font-family="Helvetica,sans-Serif" font-size="10.00" fill="#000000">+ operator*()</text>
<text text-anchor="start" x="1025" y="-134.5" font-family="Helvetica,sans-Serif" font-size="10.00" fill="#000000">+ asArrowTable()</text>
</a>
</g>
</g>
<!-- Node0&#45;&gt;Node11 -->
<g id="edge12" class="edge">
<title>Node0&#45;&gt;Node11</title>
<path fill="none" stroke="#ffa500" d="M979.5442,-364.6203C1009.9377,-350.2227 1042.2293,-329.7736 1063.5,-302 1070.1515,-293.315 1075.0584,-283.098 1078.6731,-272.5443"/>
<polygon fill="#ffa500" stroke="#ffa500" points="977.828,-361.5563 970.187,-368.8956 980.7371,-367.9232 977.828,-361.5563"/>
<text text-anchor="middle" x="1106" y="-294" font-family="Helvetica,sans-Serif" font-size="10.00" fill="#000000"> &lt; aod::EPhi &gt;</text>
</g>
<!-- Node12 -->
<g id="node13" class="node">
<title>Node12</title>
<g id="a_node13"><a xlink:href="../../da/d17/structo2_1_1framework_1_1TransformTable.html" target="_top" xlink:title="{o2::framework::Transform\lTable\&lt; aod::HfCandProng2Ext \&gt;\n|+ table\l|+ base_spec()\l+ base_specs_impl()\l+ base_specs()\l+ spec()\l+ ref()\l+ operator&#45;\&gt;()\l+ operator*()\l+ asArrowTable()\l}">
<polygon fill="none" stroke="#000000" points="1178.5,-127.5 1178.5,-272.5 1352.5,-272.5 1352.5,-127.5 1178.5,-127.5"/>
<text text-anchor="start" x="1186.5" y="-260.5" font-family="Helvetica,sans-Serif" font-size="10.00" fill="#000000">o2::framework::Transform</text>
<text text-anchor="middle" x="1265.5" y="-249.5" font-family="Helvetica,sans-Serif" font-size="10.00" fill="#000000">Table&lt; aod::HfCandProng2Ext &gt;</text>
<polyline fill="none" stroke="#000000" points="1178.5,-242.5 1352.5,-242.5 "/>
<text text-anchor="start" x="1186.5" y="-230.5" font-family="Helvetica,sans-Serif" font-size="10.00" fill="#000000">+ table</text>
<polyline fill="none" stroke="#000000" points="1178.5,-223.5 1352.5,-223.5 "/>
<text text-anchor="start" x="1186.5" y="-211.5" font-family="Helvetica,sans-Serif" font-size="10.00" fill="#000000">+ base_spec()</text>
<text text-anchor="start" x="1186.5" y="-200.5" font-family="Helvetica,sans-Serif" font-size="10.00" fill="#000000">+ base_specs_impl()</text>
<text text-anchor="start" x="1186.5" y="-189.5" font-family="Helvetica,sans-Serif" font-size="10.00" fill="#000000">+ base_specs()</text>
<text text-anchor="start" x="1186.5" y="-178.5" font-family="Helvetica,sans-Serif" font-size="10.00" fill="#000000">+ spec()</text>
<text text-anchor="start" x="1186.5" y="-167.5" font-family="Helvetica,sans-Serif" font-size="10.00" fill="#000000">+ ref()</text>
<text text-anchor="start" x="1186.5" y="-156.5" font-family="Helvetica,sans-Serif" font-size="10.00" fill="#000000">+ operator&#45;&gt;()</text>
<text text-anchor="start" x="1186.5" y="-145.5" font-family="Helvetica,sans-Serif" font-size="10.00" fill="#000000">+ operator*()</text>
<text text-anchor="start" x="1186.5" y="-134.5" font-family="Helvetica,sans-Serif" font-size="10.00" fill="#000000">+ asArrowTable()</text>
</a>
</g>
</g>
<!-- Node0&#45;&gt;Node12 -->
<g id="edge14" class="edge">
<title>Node0&#45;&gt;Node12</title>
<path fill="none" stroke="#ffa500" d="M979.8704,-370.9521C1029.645,-355.5741 1093.5251,-332.3652 1145.5,-302 1159.9013,-293.5864 1174.2528,-283.391 1187.7606,-272.7407"/>
<polygon fill="#ffa500" stroke="#ffa500" points="978.6585,-367.6624 970.1113,-373.9231 980.6972,-374.359 978.6585,-367.6624"/>
<text text-anchor="middle" x="1228.5" y="-294" font-family="Helvetica,sans-Serif" font-size="10.00" fill="#000000"> &lt; aod::HfCandProng2Ext &gt;</text>
</g>
<!-- Node13 -->
<g id="node14" class="node">
<title>Node13</title>
<g id="a_node14"><a xlink:href="../../da/d17/structo2_1_1framework_1_1TransformTable.html" target="_top" xlink:title="{o2::framework::Transform\lTable\&lt; aod::Run2MatchedExclusive \&gt;\n|+ table\l|+ base_spec()\l+ base_specs_impl()\l+ base_specs()\l+ spec()\l+ ref()\l+ operator&#45;\&gt;()\l+ operator*()\l+ asArrowTable()\l}">
<polygon fill="none" stroke="#000000" points="798.5,-127.5 798.5,-272.5 998.5,-272.5 998.5,-127.5 798.5,-127.5"/>
<text text-anchor="start" x="806.5" y="-260.5" font-family="Helvetica,sans-Serif" font-size="10.00" fill="#000000">o2::framework::Transform</text>
<text text-anchor="middle" x="898.5" y="-249.5" font-family="Helvetica,sans-Serif" font-size="10.00" fill="#000000">Table&lt; aod::Run2MatchedExclusive &gt;</text>
<polyline fill="none" stroke="#000000" points="798.5,-242.5 998.5,-242.5 "/>
<text text-anchor="start" x="806.5" y="-230.5" font-family="Helvetica,sans-Serif" font-size="10.00" fill="#000000">+ table</text>
<polyline fill="none" stroke="#000000" points="798.5,-223.5 998.5,-223.5 "/>
<text text-anchor="start" x="806.5" y="-211.5" font-family="Helvetica,sans-Serif" font-size="10.00" fill="#000000">+ base_spec()</text>
<text text-anchor="start" x="806.5" y="-200.5" font-family="Helvetica,sans-Serif" font-size="10.00" fill="#000000">+ base_specs_impl()</text>
<text text-anchor="start" x="806.5" y="-189.5" font-family="Helvetica,sans-Serif" font-size="10.00" fill="#000000">+ base_specs()</text>
<text text-anchor="start" x="806.5" y="-178.5" font-family="Helvetica,sans-Serif" font-size="10.00" fill="#000000">+ spec()</text>
<text text-anchor="start" x="806.5" y="-167.5" font-family="Helvetica,sans-Serif" font-size="10.00" fill="#000000">+ ref()</text>
<text text-anchor="start" x="806.5" y="-156.5" font-family="Helvetica,sans-Serif" font-size="10.00" fill="#000000">+ operator&#45;&gt;()</text>
<text text-anchor="start" x="806.5" y="-145.5" font-family="Helvetica,sans-Serif" font-size="10.00" fill="#000000">+ operator*()</text>
<text text-anchor="start" x="806.5" y="-134.5" font-family="Helvetica,sans-Serif" font-size="10.00" fill="#000000">+ asArrowTable()</text>
</a>
</g>
</g>
<!-- Node0&#45;&gt;Node13 -->
<g id="edge16" class="edge">
<title>Node0&#45;&gt;Node13</title>
<path fill="none" stroke="#ffa500" d="M898.5,-309.9634C898.5,-297.5389 898.5,-284.8107 898.5,-272.6245"/>
<polygon fill="#ffa500" stroke="#ffa500" points="895.0001,-310.31 898.5,-320.31 902.0001,-310.31 895.0001,-310.31"/>
<text text-anchor="middle" x="979.5" y="-294" font-family="Helvetica,sans-Serif" font-size="10.00" fill="#000000"> &lt; aod::Run2MatchedExclusive &gt;</text>
</g>
<!-- Node14 -->
<g id="node15" class="node">
<title>Node14</title>
<g id="a_node15"><a xlink:href="../../da/d17/structo2_1_1framework_1_1TransformTable.html" target="_top" xlink:title="{o2::framework::Transform\lTable\&lt; aod::Run3MatchedExclusive \&gt;\n|+ table\l|+ base_spec()\l+ base_specs_impl()\l+ base_specs()\l+ spec()\l+ ref()\l+ operator&#45;\&gt;()\l+ operator*()\l+ asArrowTable()\l}">
<polygon fill="none" stroke="#000000" points="580.5,-127.5 580.5,-272.5 780.5,-272.5 780.5,-127.5 580.5,-127.5"/>
<text text-anchor="start" x="588.5" y="-260.5" font-family="Helvetica,sans-Serif" font-size="10.00" fill="#000000">o2::framework::Transform</text>
<text text-anchor="middle" x="680.5" y="-249.5" font-family="Helvetica,sans-Serif" font-size="10.00" fill="#000000">Table&lt; aod::Run3MatchedExclusive &gt;</text>
<polyline fill="none" stroke="#000000" points="580.5,-242.5 780.5,-242.5 "/>
<text text-anchor="start" x="588.5" y="-230.5" font-family="Helvetica,sans-Serif" font-size="10.00" fill="#000000">+ table</text>
<polyline fill="none" stroke="#000000" points="580.5,-223.5 780.5,-223.5 "/>
<text text-anchor="start" x="588.5" y="-211.5" font-family="Helvetica,sans-Serif" font-size="10.00" fill="#000000">+ base_spec()</text>
<text text-anchor="start" x="588.5" y="-200.5" font-family="Helvetica,sans-Serif" font-size="10.00" fill="#000000">+ base_specs_impl()</text>
<text text-anchor="start" x="588.5" y="-189.5" font-family="Helvetica,sans-Serif" font-size="10.00" fill="#000000">+ base_specs()</text>
<text text-anchor="start" x="588.5" y="-178.5" font-family="Helvetica,sans-Serif" font-size="10.00" fill="#000000">+ spec()</text>
<text text-anchor="start" x="588.5" y="-167.5" font-family="Helvetica,sans-Serif" font-size="10.00" fill="#000000">+ ref()</text>
<text text-anchor="start" x="588.5" y="-156.5" font-family="Helvetica,sans-Serif" font-size="10.00" fill="#000000">+ operator&#45;&gt;()</text>
<text text-anchor="start" x="588.5" y="-145.5" font-family="Helvetica,sans-Serif" font-size="10.00" fill="#000000">+ operator*()</text>
<text text-anchor="start" x="588.5" y="-134.5" font-family="Helvetica,sans-Serif" font-size="10.00" fill="#000000">+ asArrowTable()</text>
</a>
</g>
</g>
<!-- Node0&#45;&gt;Node14 -->
<g id="edge18" class="edge">
<title>Node0&#45;&gt;Node14</title>
<path fill="none" stroke="#ffa500" d="M817.7911,-360.8877C788.2978,-346.2291 756.3541,-326.5805 732.5,-302 724.1252,-293.3702 716.8046,-283.1225 710.5076,-272.5036"/>
<polygon fill="#ffa500" stroke="#ffa500" points="816.3281,-364.068 826.8538,-365.2766 819.3792,-357.7679 816.3281,-364.068"/>
<text text-anchor="middle" x="813.5" y="-294" font-family="Helvetica,sans-Serif" font-size="10.00" fill="#000000"> &lt; aod::Run3MatchedExclusive &gt;</text>
</g>
<!-- Node15 -->
<g id="node16" class="node">
<title>Node15</title>
<g id="a_node16"><a xlink:href="../../da/d17/structo2_1_1framework_1_1TransformTable.html" target="_top" xlink:title="{o2::framework::Transform\lTable\&lt; aod::Run3MatchedSparse \&gt;\n|+ table\l|+ base_spec()\l+ base_specs_impl()\l+ base_specs()\l+ spec()\l+ ref()\l+ operator&#45;\&gt;()\l+ operator*()\l+ asArrowTable()\l}">
<polygon fill="none" stroke="#000000" points="205,-127.5 205,-272.5 392,-272.5 392,-127.5 205,-127.5"/>
<text text-anchor="start" x="213" y="-260.5" font-family="Helvetica,sans-Serif" font-size="10.00" fill="#000000">o2::framework::Transform</text>
<text text-anchor="middle" x="298.5" y="-249.5" font-family="Helvetica,sans-Serif" font-size="10.00" fill="#000000">Table&lt; aod::Run3MatchedSparse &gt;</text>
<polyline fill="none" stroke="#000000" points="205,-242.5 392,-242.5 "/>
<text text-anchor="start" x="213" y="-230.5" font-family="Helvetica,sans-Serif" font-size="10.00" fill="#000000">+ table</text>
<polyline fill="none" stroke="#000000" points="205,-223.5 392,-223.5 "/>
<text text-anchor="start" x="213" y="-211.5" font-family="Helvetica,sans-Serif" font-size="10.00" fill="#000000">+ base_spec()</text>
<text text-anchor="start" x="213" y="-200.5" font-family="Helvetica,sans-Serif" font-size="10.00" fill="#000000">+ base_specs_impl()</text>
<text text-anchor="start" x="213" y="-189.5" font-family="Helvetica,sans-Serif" font-size="10.00" fill="#000000">+ base_specs()</text>
<text text-anchor="start" x="213" y="-178.5" font-family="Helvetica,sans-Serif" font-size="10.00" fill="#000000">+ spec()</text>
<text text-anchor="start" x="213" y="-167.5" font-family="Helvetica,sans-Serif" font-size="10.00" fill="#000000">+ ref()</text>
<text text-anchor="start" x="213" y="-156.5" font-family="Helvetica,sans-Serif" font-size="10.00" fill="#000000">+ operator&#45;&gt;()</text>
<text text-anchor="start" x="213" y="-145.5" font-family="Helvetica,sans-Serif" font-size="10.00" fill="#000000">+ operator*()</text>
<text text-anchor="start" x="213" y="-134.5" font-family="Helvetica,sans-Serif" font-size="10.00" fill="#000000">+ asArrowTable()</text>
</a>
</g>
</g>
<!-- Node0&#45;&gt;Node15 -->
<g id="edge20" class="edge">
<title>Node0&#45;&gt;Node15</title>
<path fill="none" stroke="#ffa500" d="M816.9283,-383.9501C726.0758,-372.138 575.8914,-347.402 453.5,-302 432.5092,-294.2133 411.4917,-283.1368 392.0091,-271.1306"/>
<polygon fill="#ffa500" stroke="#ffa500" points="816.5278,-387.4273 826.8911,-385.2244 817.416,-380.4838 816.5278,-387.4273"/>
<text text-anchor="middle" x="527.5" y="-294" font-family="Helvetica,sans-Serif" font-size="10.00" fill="#000000"> &lt; aod::Run3MatchedSparse &gt;</text>
</g>
<!-- Node16 -->
<g id="node17" class="node">
<title>Node16</title>
<g id="a_node17"><a xlink:href="../../da/d17/structo2_1_1framework_1_1TransformTable.html" target="_top" xlink:title="{o2::framework::Transform\lTable\&lt; aod::MTracks \&gt;\n|+ table\l|+ base_spec()\l+ base_specs_impl()\l+ base_specs()\l+ spec()\l+ ref()\l+ operator&#45;\&gt;()\l+ operator*()\l+ asArrowTable()\l}">
<polygon fill="none" stroke="#000000" points="1566,-127.5 1566,-272.5 1709,-272.5 1709,-127.5 1566,-127.5"/>
<text text-anchor="start" x="1574" y="-260.5" font-family="Helvetica,sans-Serif" font-size="10.00" fill="#000000">o2::framework::Transform</text>
<text text-anchor="middle" x="1637.5" y="-249.5" font-family="Helvetica,sans-Serif" font-size="10.00" fill="#000000">Table&lt; aod::MTracks &gt;</text>
<polyline fill="none" stroke="#000000" points="1566,-242.5 1709,-242.5 "/>
<text text-anchor="start" x="1574" y="-230.5" font-family="Helvetica,sans-Serif" font-size="10.00" fill="#000000">+ table</text>
<polyline fill="none" stroke="#000000" points="1566,-223.5 1709,-223.5 "/>
<text text-anchor="start" x="1574" y="-211.5" font-family="Helvetica,sans-Serif" font-size="10.00" fill="#000000">+ base_spec()</text>
<text text-anchor="start" x="1574" y="-200.5" font-family="Helvetica,sans-Serif" font-size="10.00" fill="#000000">+ base_specs_impl()</text>
<text text-anchor="start" x="1574" y="-189.5" font-family="Helvetica,sans-Serif" font-size="10.00" fill="#000000">+ base_specs()</text>
<text text-anchor="start" x="1574" y="-178.5" font-family="Helvetica,sans-Serif" font-size="10.00" fill="#000000">+ spec()</text>
<text text-anchor="start" x="1574" y="-167.5" font-family="Helvetica,sans-Serif" font-size="10.00" fill="#000000">+ ref()</text>
<text text-anchor="start" x="1574" y="-156.5" font-family="Helvetica,sans-Serif" font-size="10.00" fill="#000000">+ operator&#45;&gt;()</text>
<text text-anchor="start" x="1574" y="-145.5" font-family="Helvetica,sans-Serif" font-size="10.00" fill="#000000">+ operator*()</text>
<text text-anchor="start" x="1574" y="-134.5" font-family="Helvetica,sans-Serif" font-size="10.00" fill="#000000">+ asArrowTable()</text>
</a>
</g>
</g>
<!-- Node0&#45;&gt;Node16 -->
<g id="edge22" class="edge">
<title>Node0&#45;&gt;Node16</title>
<path fill="none" stroke="#ffa500" d="M980.6305,-389.4478C1106.0418,-381.4626 1350.6044,-355.695 1539.5,-273 1548.4399,-269.0863 1557.3313,-264.222 1565.9028,-258.8753"/>
<polygon fill="#ffa500" stroke="#ffa500" points="980.1065,-385.9733 970.34,-390.08 980.5358,-392.9601 980.1065,-385.9733"/>
<text text-anchor="middle" x="1536" y="-294" font-family="Helvetica,sans-Serif" font-size="10.00" fill="#000000"> &lt; aod::MTracks &gt;</text>
</g>
<!-- Node2 -->
<g id="node3" class="node">
<title>Node2</title>
<g id="a_node3"><a xlink:href="../../d5/df4/structo2_1_1framework_1_1Builds.html" target="_top" xlink:title="{o2::framework::Builds\l\&lt; aod::Run2MatchedSparse \&gt;\n||+ pack()\l+ build()\l}">
<polygon fill="none" stroke="#000000" points="41,-.5 41,-79.5 202,-79.5 202,-.5 41,-.5"/>
<text text-anchor="start" x="49" y="-67.5" font-family="Helvetica,sans-Serif" font-size="10.00" fill="#000000">o2::framework::Builds</text>
<text text-anchor="middle" x="121.5" y="-56.5" font-family="Helvetica,sans-Serif" font-size="10.00" fill="#000000">&lt; aod::Run2MatchedSparse &gt;</text>
<polyline fill="none" stroke="#000000" points="41,-49.5 202,-49.5 "/>
<text text-anchor="middle" x="121.5" y="-37.5" font-family="Helvetica,sans-Serif" font-size="10.00" fill="#000000"> </text>
<polyline fill="none" stroke="#000000" points="41,-30.5 202,-30.5 "/>
<text text-anchor="start" x="49" y="-18.5" font-family="Helvetica,sans-Serif" font-size="10.00" fill="#000000">+ pack()</text>
<text text-anchor="start" x="49" y="-7.5" font-family="Helvetica,sans-Serif" font-size="10.00" fill="#000000">+ build()</text>
</a>
</g>
</g>
<!-- Node1&#45;&gt;Node2 -->
<g id="edge2" class="edge">
<title>Node1&#45;&gt;Node2</title>
<path fill="none" stroke="#ffa500" d="M448.4971,-158.9522C434.6466,-146.5486 418.0464,-134.296 400.5,-127 312.7773,-90.5239 273.2123,-149.9777 187.5,-109 173.4417,-102.279 160.8089,-91.1906 150.4502,-79.8484"/>
<polygon fill="#ffa500" stroke="#ffa500" points="446.1892,-161.5855 455.8975,-165.8281 450.9539,-156.4573 446.1892,-161.5855"/>
<text text-anchor="middle" x="261.5" y="-101" font-family="Helvetica,sans-Serif" font-size="10.00" fill="#000000"> &lt; aod::Run2MatchedSparse &gt;</text>
</g>
<!-- Node3 -->
<g id="node4" class="node">
<title>Node3</title>
<g id="a_node4"><a xlink:href="../../d5/df4/structo2_1_1framework_1_1Builds.html" target="_top" xlink:title="{o2::framework::Builds\l\&lt; aod::Run2MatchedExclusive \&gt;\n||+ pack()\l+ build()\l}">
<polygon fill="none" stroke="#000000" points="704,-.5 704,-79.5 879,-79.5 879,-.5 704,-.5"/>
<text text-anchor="start" x="712" y="-67.5" font-family="Helvetica,sans-Serif" font-size="10.00" fill="#000000">o2::framework::Builds</text>
<text text-anchor="middle" x="791.5" y="-56.5" font-family="Helvetica,sans-Serif" font-size="10.00" fill="#000000">&lt; aod::Run2MatchedExclusive &gt;</text>
<polyline fill="none" stroke="#000000" points="704,-49.5 879,-49.5 "/>
<text text-anchor="middle" x="791.5" y="-37.5" font-family="Helvetica,sans-Serif" font-size="10.00" fill="#000000"> </text>
<polyline fill="none" stroke="#000000" points="704,-30.5 879,-30.5 "/>
<text text-anchor="start" x="712" y="-18.5" font-family="Helvetica,sans-Serif" font-size="10.00" fill="#000000">+ pack()</text>
<text text-anchor="start" x="712" y="-7.5" font-family="Helvetica,sans-Serif" font-size="10.00" fill="#000000">+ build()</text>
</a>
</g>
</g>
<!-- Node1&#45;&gt;Node3 -->
<g id="edge3" class="edge">
<title>Node1&#45;&gt;Node3</title>
<path fill="none" stroke="#ffa500" d="M525.9298,-158.7387C539.342,-146.8422 555.1121,-134.9446 571.5,-127 608.9909,-108.8249 624.2741,-123.044 663.5,-109 685.01,-101.2988 707.3083,-90.4194 727.1494,-79.5714"/>
<polygon fill="#ffa500" stroke="#ffa500" points="523.3268,-156.3767 518.3185,-165.7131 528.0559,-161.5377 523.3268,-156.3767"/>
<text text-anchor="middle" x="770.5" y="-101" font-family="Helvetica,sans-Serif" font-size="10.00" fill="#000000"> &lt; aod::Run2MatchedExclusive &gt;</text>
</g>
<!-- Node4 -->
<g id="node5" class="node">
<title>Node4</title>
<g id="a_node5"><a xlink:href="../../d5/df4/structo2_1_1framework_1_1Builds.html" target="_top" xlink:title="{o2::framework::Builds\l\&lt; aod::Run3MatchedExclusive \&gt;\n||+ pack()\l+ build()\l}">
<polygon fill="none" stroke="#000000" points="425,-.5 425,-79.5 600,-79.5 600,-.5 425,-.5"/>
<text text-anchor="start" x="433" y="-67.5" font-family="Helvetica,sans-Serif" font-size="10.00" fill="#000000">o2::framework::Builds</text>
<text text-anchor="middle" x="512.5" y="-56.5" font-family="Helvetica,sans-Serif" font-size="10.00" fill="#000000">&lt; aod::Run3MatchedExclusive &gt;</text>
<polyline fill="none" stroke="#000000" points="425,-49.5 600,-49.5 "/>
<text text-anchor="middle" x="512.5" y="-37.5" font-family="Helvetica,sans-Serif" font-size="10.00" fill="#000000"> </text>
<polyline fill="none" stroke="#000000" points="425,-30.5 600,-30.5 "/>
<text text-anchor="start" x="433" y="-18.5" font-family="Helvetica,sans-Serif" font-size="10.00" fill="#000000">+ pack()</text>
<text text-anchor="start" x="433" y="-7.5" font-family="Helvetica,sans-Serif" font-size="10.00" fill="#000000">+ build()</text>
</a>
</g>
</g>
<!-- Node1&#45;&gt;Node4 -->
<g id="edge4" class="edge">
<title>Node1&#45;&gt;Node4</title>
<path fill="none" stroke="#ffa500" d="M492.563,-156.0069C495.1505,-137.9994 498.3069,-116.9744 501.5,-98 502.5035,-92.037 503.6287,-85.7418 504.7662,-79.5843"/>
<polygon fill="#ffa500" stroke="#ffa500" points="489.0927,-155.5511 491.1485,-165.9446 496.0229,-156.5376 489.0927,-155.5511"/>
<text text-anchor="middle" x="582.5" y="-101" font-family="Helvetica,sans-Serif" font-size="10.00" fill="#000000"> &lt; aod::Run3MatchedExclusive &gt;</text>
</g>
<!-- Node5 -->
<g id="node6" class="node">
<title>Node5</title>
<g id="a_node6"><a xlink:href="../../d5/df4/structo2_1_1framework_1_1Builds.html" target="_top" xlink:title="{o2::framework::Builds\l\&lt; aod::Run3MatchedSparse \&gt;\n||+ pack()\l+ build()\l}">
<polygon fill="none" stroke="#000000" points="237,-.5 237,-79.5 398,-79.5 398,-.5 237,-.5"/>
<text text-anchor="start" x="245" y="-67.5" font-family="Helvetica,sans-Serif" font-size="10.00" fill="#000000">o2::framework::Builds</text>
<text text-anchor="middle" x="317.5" y="-56.5" font-family="Helvetica,sans-Serif" font-size="10.00" fill="#000000">&lt; aod::Run3MatchedSparse &gt;</text>
<polyline fill="none" stroke="#000000" points="237,-49.5 398,-49.5 "/>
<text text-anchor="middle" x="317.5" y="-37.5" font-family="Helvetica,sans-Serif" font-size="10.00" fill="#000000"> </text>
<polyline fill="none" stroke="#000000" points="237,-30.5 398,-30.5 "/>
<text text-anchor="start" x="245" y="-18.5" font-family="Helvetica,sans-Serif" font-size="10.00" fill="#000000">+ pack()</text>
<text text-anchor="start" x="245" y="-7.5" font-family="Helvetica,sans-Serif" font-size="10.00" fill="#000000">+ build()</text>
</a>
</g>
</g>
<!-- Node1&#45;&gt;Node5 -->
<g id="edge5" class="edge">
<title>Node1&#45;&gt;Node5</title>
<path fill="none" stroke="#ffa500" d="M444.7171,-159.1667C431.3596,-147.6401 415.9989,-135.8439 400.5,-127 379.2583,-114.8792 366.5456,-125.5069 348.5,-109 339.8758,-101.1112 333.5013,-90.3679 328.8546,-79.7083"/>
<polygon fill="#ffa500" stroke="#ffa500" points="442.5246,-161.9 452.3362,-165.8979 447.1593,-156.654 442.5246,-161.9"/>
<text text-anchor="middle" x="422.5" y="-101" font-family="Helvetica,sans-Serif" font-size="10.00" fill="#000000"> &lt; aod::Run3MatchedSparse &gt;</text>
</g>
<!-- Node7 -->
<g id="node8" class="node">
<title>Node7</title>
<g id="a_node8"><a xlink:href="../../d7/d15/structo2_1_1framework_1_1Spawns.html" target="_top" xlink:title="{o2::framework::Spawns\l\&lt; aod::EPhi \&gt;\n||+ pack()\l}">
<polygon fill="none" stroke="#000000" points="1077,-6 1077,-74 1208,-74 1208,-6 1077,-6"/>
<text text-anchor="start" x="1085" y="-62" font-family="Helvetica,sans-Serif" font-size="10.00" fill="#000000">o2::framework::Spawns</text>
<text text-anchor="middle" x="1142.5" y="-51" font-family="Helvetica,sans-Serif" font-size="10.00" fill="#000000">&lt; aod::EPhi &gt;</text>
<polyline fill="none" stroke="#000000" points="1077,-44 1208,-44 "/>
<text text-anchor="middle" x="1142.5" y="-32" font-family="Helvetica,sans-Serif" font-size="10.00" fill="#000000"> </text>
<polyline fill="none" stroke="#000000" points="1077,-25 1208,-25 "/>
<text text-anchor="start" x="1085" y="-13" font-family="Helvetica,sans-Serif" font-size="10.00" fill="#000000">+ pack()</text>
</a>
</g>
</g>
<!-- Node6&#45;&gt;Node7 -->
<g id="edge7" class="edge">
<title>Node6&#45;&gt;Node7</title>
<path fill="none" stroke="#ffa500" d="M1414.114,-164.5588C1398.8527,-151.2511 1380.2996,-136.9539 1361.5,-127 1336.5187,-113.7732 1327.0594,-118.6752 1300.5,-109 1269.704,-97.7815 1236.3458,-83.5361 1208.2517,-70.9057"/>
<polygon fill="#ffa500" stroke="#ffa500" points="1411.9873,-167.352 1421.7785,-171.3995 1416.6484,-162.1295 1411.9873,-167.352"/>
<text text-anchor="middle" x="1336" y="-101" font-family="Helvetica,sans-Serif" font-size="10.00" fill="#000000"> &lt; aod::EPhi &gt;</text>
</g>
<!-- Node8 -->
<g id="node9" class="node">
<title>Node8</title>
<g id="a_node9"><a xlink:href="../../d7/d15/structo2_1_1framework_1_1Spawns.html" target="_top" xlink:title="{o2::framework::Spawns\l\&lt; aod::HfCandProng2Ext \&gt;\n||+ pack()\l}">
<polygon fill="none" stroke="#000000" points="1254,-6 1254,-74 1403,-74 1403,-6 1254,-6"/>
<text text-anchor="start" x="1262" y="-62" font-family="Helvetica,sans-Serif" font-size="10.00" fill="#000000">o2::framework::Spawns</text>
<text text-anchor="middle" x="1328.5" y="-51" font-family="Helvetica,sans-Serif" font-size="10.00" fill="#000000">&lt; aod::HfCandProng2Ext &gt;</text>
<polyline fill="none" stroke="#000000" points="1254,-44 1403,-44 "/>
<text text-anchor="middle" x="1328.5" y="-32" font-family="Helvetica,sans-Serif" font-size="10.00" fill="#000000"> </text>
<polyline fill="none" stroke="#000000" points="1254,-25 1403,-25 "/>
<text text-anchor="start" x="1262" y="-13" font-family="Helvetica,sans-Serif" font-size="10.00" fill="#000000">+ pack()</text>
</a>
</g>
</g>
<!-- Node6&#45;&gt;Node8 -->
<g id="edge8" class="edge">
<title>Node6&#45;&gt;Node8</title>
<path fill="none" stroke="#ffa500" d="M1422.5873,-163.3931C1402.1385,-136.575 1374.5766,-100.4284 1354.5727,-74.1937"/>
<polygon fill="#ffa500" stroke="#ffa500" points="1419.8422,-165.5654 1428.6888,-171.3952 1425.4086,-161.3209 1419.8422,-165.5654"/>
<text text-anchor="middle" x="1447.5" y="-101" font-family="Helvetica,sans-Serif" font-size="10.00" fill="#000000"> &lt; aod::HfCandProng2Ext &gt;</text>
</g>
<!-- Node9 -->
<g id="node10" class="node">
<title>Node9</title>
<g id="a_node10"><a xlink:href="../../d7/d15/structo2_1_1framework_1_1Spawns.html" target="_top" xlink:title="{o2::framework::Spawns\l\&lt; aod::MTracks \&gt;\n||+ pack()\l}">
<polygon fill="none" stroke="#000000" points="1529,-6 1529,-74 1660,-74 1660,-6 1529,-6"/>
<text text-anchor="start" x="1537" y="-62" font-family="Helvetica,sans-Serif" font-size="10.00" fill="#000000">o2::framework::Spawns</text>
<text text-anchor="middle" x="1594.5" y="-51" font-family="Helvetica,sans-Serif" font-size="10.00" fill="#000000">&lt; aod::MTracks &gt;</text>
<polyline fill="none" stroke="#000000" points="1529,-44 1660,-44 "/>
<text text-anchor="middle" x="1594.5" y="-32" font-family="Helvetica,sans-Serif" font-size="10.00" fill="#000000"> </text>
<polyline fill="none" stroke="#000000" points="1529,-25 1660,-25 "/>
<text text-anchor="start" x="1537" y="-13" font-family="Helvetica,sans-Serif" font-size="10.00" fill="#000000">+ pack()</text>
</a>
</g>
</g>
<!-- Node6&#45;&gt;Node9 -->
<g id="edge9" class="edge">
<title>Node6&#45;&gt;Node9</title>
<path fill="none" stroke="#ffa500" d="M1481.8356,-163.3503C1498.7261,-143.7836 1520.0404,-119.3912 1539.5,-98 1546.5969,-90.1986 1554.3275,-81.9175 1561.6899,-74.129"/>
<polygon fill="#ffa500" stroke="#ffa500" points="1478.9979,-161.2818 1475.1226,-171.1425 1484.3013,-165.8507 1478.9979,-161.2818"/>
<text text-anchor="middle" x="1584" y="-101" font-family="Helvetica,sans-Serif" font-size="10.00" fill="#000000"> &lt; aod::MTracks &gt;</text>
</g>
<!-- Node10&#45;&gt;Node2 -->
<g id="edge11" class="edge">
<title>Node10&#45;&gt;Node2</title>
<path fill="none" stroke="#191970" d="M107.9401,-117.485C110.2311,-104.3936 112.5064,-91.3922 114.5202,-79.8848"/>
<polygon fill="none" stroke="#191970" points="104.4655,-117.0366 106.1892,-127.4902 111.3607,-118.2433 104.4655,-117.0366"/>
</g>
<!-- Node11&#45;&gt;Node7 -->
<g id="edge13" class="edge">
<title>Node11&#45;&gt;Node7</title>
<path fill="none" stroke="#191970" d="M1116.2044,-117.9128C1121.3997,-102.5195 1126.5601,-87.2293 1130.9156,-74.324"/>
<polygon fill="none" stroke="#191970" points="1112.8537,-116.8961 1112.972,-127.4902 1119.4861,-119.1346 1112.8537,-116.8961"/>
</g>
<!-- Node12&#45;&gt;Node8 -->
<g id="edge15" class="edge">
<title>Node12&#45;&gt;Node8</title>
<path fill="none" stroke="#191970" d="M1264.268,-117.454C1265.7447,-110.7241 1267.7729,-104.1531 1270.5,-98 1274.3083,-89.4075 1280.008,-81.3904 1286.3708,-74.2231"/>
<polygon fill="none" stroke="#191970" points="1260.8051,-116.936 1262.4819,-127.3973 1267.6948,-118.1736 1260.8051,-116.936"/>
</g>
<!-- Node13&#45;&gt;Node3 -->
<g id="edge17" class="edge">
<title>Node13&#45;&gt;Node3</title>
<path fill="none" stroke="#191970" d="M885.7358,-117.6562C882.9575,-110.7162 879.587,-104.0498 875.5,-98 871.0357,-91.3918 865.5454,-85.3146 859.5277,-79.786"/>
<polygon fill="none" stroke="#191970" points="882.5062,-119.0195 889.1689,-127.2571 889.0974,-116.6625 882.5062,-119.0195"/>
</g>
<!-- Node14&#45;&gt;Node4 -->
<g id="edge19" class="edge">
<title>Node14&#45;&gt;Node4</title>
<path fill="none" stroke="#191970" d="M789.2203,-127.133C789.3135,-127.0886 789.4068,-127.0442 789.5,-127 815.8967,-114.4723 867.9244,-119.827 848.5,-98 825.5943,-72.2611 728.4796,-85.7052 694.5,-80 663.5524,-74.8039 629.9275,-67.8027 600.0974,-61.1103"/>
<polygon fill="none" stroke="#191970" points="787.9212,-123.8701 780.5253,-131.4563 791.0378,-130.138 787.9212,-123.8701"/>
</g>
<!-- Node15&#45;&gt;Node5 -->
<g id="edge21" class="edge">
<title>Node15&#45;&gt;Node5</title>
<path fill="none" stroke="#191970" d="M195.7941,-127.1473C195.696,-127.0981 195.598,-127.049 195.5,-127 170.4325,-114.462 122.2877,-120.1205 139.5,-98 159.4915,-72.3077 179.4293,-89.7141 210.5,-80 219.1124,-77.3074 228.0435,-74.3083 236.9079,-71.1968"/>
<polygon fill="none" stroke="#191970" points="194.4475,-130.3938 204.9265,-131.9561 197.7089,-124.2 194.4475,-130.3938"/>
</g>
<!-- Node16&#45;&gt;Node9 -->
<g id="edge23" class="edge">
<title>Node16&#45;&gt;Node9</title>
<path fill="none" stroke="#191970" d="M1637.1522,-116.9823C1636.0002,-110.4825 1634.4795,-104.0854 1632.5,-98 1629.8189,-89.7576 1625.64,-81.5637 1621.018,-74.043"/>
<polygon fill="none" stroke="#191970" points="1633.7455,-117.871 1638.6717,-127.2509 1640.6701,-116.8462 1633.7455,-117.871"/>
</g>
</g>
</svg>
        <g id="navigator" transform="translate(0 0)" fill="#404254">
                <rect fill="#f2f5e9" fill-opacity="0.5" stroke="#606060" stroke-width=".5" x="0" y="0" width="60" height="60"/>
                <use id="zoomplus" xlink:href="#zoomPlus" x="17" y="9" onmousedown="handleZoom(evt,'in')"/>
                <use id="zoomminus" xlink:href="#zoomMin" x="42" y="9" onmousedown="handleZoom(evt,'out')"/>
                <use id="reset" xlink:href="#resetDef" x="30" y="36" onmousedown="handleReset()"/>
                <g id="arrowUp" xlink:href="#dirArrow" transform="translate(30 24)" onmousedown="handlePan(0,-1)">
                  <use xlink:href="#rim" fill="#404040">
                        <set attributeName="fill" to="#808080" begin="arrowUp.mouseover" end="arrowUp.mouseout"/>
                  </use>
                  <path fill="none" stroke="white" stroke-width="1.5" d="M0,-3.0v7 M-2.5,-0.5L0,-3.0L2.5,-0.5"/>
                </g>
                <g id="arrowRight" xlink:href="#dirArrow" transform="rotate(90) translate(36 -43)" onmousedown="handlePan(1,0)">
                  <use xlink:href="#rim" fill="#404040">
                        <set attributeName="fill" to="#808080" begin="arrowRight.mouseover" end="arrowRight.mouseout"/>
                  </use>
                  <path fill="none" stroke="white" stroke-width="1.5" d="M0,-3.0v7 M-2.5,-0.5L0,-3.0L2.5,-0.5"/>
                </g>
                <g id="arrowDown" xlink:href="#dirArrow" transform="rotate(180) translate(-30 -48)" onmousedown="handlePan(0,1)">
                  <use xlink:href="#rim" fill="#404040">
                        <set attributeName="fill" to="#808080" begin="arrowDown.mouseover" end="arrowDown.mouseout"/>
                  </use>
                  <path fill="none" stroke="white" stroke-width="1.5" d="M0,-3.0v7 M-2.5,-0.5L0,-3.0L2.5,-0.5"/>
                </g>
                <g id="arrowLeft" xlink:href="#dirArrow" transform="rotate(270) translate(-36 17)" onmousedown="handlePan(-1,0)">
                  <use xlink:href="#rim" fill="#404040">
                        <set attributeName="fill" to="#808080" begin="arrowLeft.mouseover" end="arrowLeft.mouseout"/>
                  </use>
                  <path fill="none" stroke="white" stroke-width="1.5" d="M0,-3.0v7 M-2.5,-0.5L0,-3.0L2.5,-0.5"/>
                </g>
        </g>
        <svg viewBox="0 0 15 15" width="100%" height="30px" preserveAspectRatio="xMaxYMin meet">
         <g id="arrow_out" transform="scale(0.3 0.3)">
          <a xlink:href="structo2_1_1framework_1_1TransformTable__inherit__graph_org.svg" target="_base">
           <rect id="button" ry="5" rx="5" y="6" x="6" height="38" width="38"
                fill="#f2f5e9" fill-opacity="0.5" stroke="#606060" stroke-width="1.0"/>
           <path id="arrow"
             d="M 11.500037,31.436501 C 11.940474,20.09759 22.043105,11.32322 32.158766,21.979434 L 37.068811,17.246167 C 37.068811,17.246167 37.088388,32 37.088388,32 L 22.160133,31.978069 C 22.160133,31.978069 26.997745,27.140456 26.997745,27.140456 C 18.528582,18.264221 13.291696,25.230495 11.500037,31.436501 z"
             style="fill:#404040;"/>
          </a>
         </g>
        </svg>
</svg>
