<?xml version="1.0" encoding="UTF-8" standalone="no"?>
<!DOCTYPE svg PUBLIC "-//W3C//DTD SVG 1.1//EN"
 "http://www.w3.org/Graphics/SVG/1.1/DTD/svg11.dtd">
<!-- Generated by graphviz version 2.40.1 (20161225.0304)
 -->
<!-- Title: /home/travis/build/AliceO2Group/AliceO2/Analysis/Core/src/TrackSelection.cxx Pages: 1 -->
<svg width="421pt" height="218pt"
 viewBox="0.00 0.00 421.00 218.00" xmlns="http://www.w3.org/2000/svg" xmlns:xlink="http://www.w3.org/1999/xlink">
<g id="graph0" class="graph" transform="scale(1 1) rotate(0) translate(4 214)">
<title>/home/travis/build/AliceO2Group/AliceO2/Analysis/Core/src/TrackSelection.cxx</title>
<!-- Node0 -->
<g id="node1" class="node">
<title>Node0</title>
<polygon fill="#bfbfbf" stroke="#000000" points="216,-168.5 216,-209.5 413,-209.5 413,-168.5 216,-168.5"/>
<text text-anchor="start" x="224" y="-197.5" font-family="Helvetica,sans-Serif" font-size="10.00" fill="#000000">/home/travis/build</text>
<text text-anchor="start" x="224" y="-186.5" font-family="Helvetica,sans-Serif" font-size="10.00" fill="#000000">/AliceO2Group/AliceO2</text>
<text text-anchor="middle" x="314.5" y="-175.5" font-family="Helvetica,sans-Serif" font-size="10.00" fill="#000000">/Analysis/Core/src/TrackSelection.cxx</text>
</g>
<!-- Node1 -->
<g id="node2" class="node">
<title>Node1</title>
<g id="a_node2"><a xlink:href="../../d7/dec/TrackSelection_8h.html" target="_top" xlink:title="Analysis/TrackSelection.h">
<polygon fill="none" stroke="#000000" points="188.5,-112.5 188.5,-131.5 328.5,-131.5 328.5,-112.5 188.5,-112.5"/>
<text text-anchor="middle" x="258.5" y="-119.5" font-family="Helvetica,sans-Serif" font-size="10.00" fill="#000000">Analysis/TrackSelection.h</text>
</a>
</g>
</g>
<!-- Node0&#45;&gt;Node1 -->
<g id="edge1" class="edge">
<title>Node0&#45;&gt;Node1</title>
<path fill="none" stroke="#191970" d="M297.0882,-168.168C289.3995,-158.9691 280.4617,-148.2756 273.1251,-139.4979"/>
<polygon fill="#191970" stroke="#191970" points="275.7734,-137.2087 266.6747,-131.7805 270.4024,-141.6979 275.7734,-137.2087"/>
</g>
<!-- Node8 -->
<g id="node9" class="node">
<title>Node8</title>
<polygon fill="none" stroke="#bfbfbf" points="347,-112.5 347,-131.5 396,-131.5 396,-112.5 347,-112.5"/>
<text text-anchor="middle" x="371.5" y="-119.5" font-family="Helvetica,sans-Serif" font-size="10.00" fill="#000000">TH1F.h</text>
</g>
<!-- Node0&#45;&gt;Node8 -->
<g id="edge8" class="edge">
<title>Node0&#45;&gt;Node8</title>
<path fill="none" stroke="#191970" d="M332.2227,-168.168C340.0487,-158.9691 349.1462,-148.2756 356.6138,-139.4979"/>
<polygon fill="#191970" stroke="#191970" points="359.3653,-141.665 363.1793,-131.7805 354.0337,-137.1291 359.3653,-141.665"/>
</g>
<!-- Node2 -->
<g id="node3" class="node">
<title>Node2</title>
<g id="a_node3"><a xlink:href="../../dd/da4/Logger_8h.html" target="_top" xlink:title="Framework/Logger.h">
<polygon fill="none" stroke="#000000" points="0,-56.5 0,-75.5 115,-75.5 115,-56.5 0,-56.5"/>
<text text-anchor="middle" x="57.5" y="-63.5" font-family="Helvetica,sans-Serif" font-size="10.00" fill="#000000">Framework/Logger.h</text>
</a>
</g>
</g>
<!-- Node1&#45;&gt;Node2 -->
<g id="edge2" class="edge">
<title>Node1&#45;&gt;Node2</title>
<path fill="none" stroke="#191970" d="M223.9469,-112.3733C190.0896,-102.9404 138.354,-88.5265 101.5574,-78.2747"/>
<polygon fill="#191970" stroke="#191970" points="102.1747,-74.8135 91.6022,-75.5011 100.296,-81.5566 102.1747,-74.8135"/>
</g>
<!-- Node4 -->
<g id="node5" class="node">
<title>Node4</title>
<g id="a_node5"><a xlink:href="../../d2/d12/DataTypes_8h.html" target="_top" xlink:title="Framework/DataTypes.h">
<polygon fill="none" stroke="#000000" points="133.5,-56.5 133.5,-75.5 267.5,-75.5 267.5,-56.5 133.5,-56.5"/>
<text text-anchor="middle" x="200.5" y="-63.5" font-family="Helvetica,sans-Serif" font-size="10.00" fill="#000000">Framework/DataTypes.h</text>
</a>
</g>
</g>
<!-- Node1&#45;&gt;Node4 -->
<g id="edge4" class="edge">
<title>Node1&#45;&gt;Node4</title>
<path fill="none" stroke="#191970" d="M248.3972,-112.2455C239.9972,-104.1352 227.8506,-92.4075 217.8916,-82.7919"/>
<polygon fill="#191970" stroke="#191970" points="220.1122,-80.0707 210.4871,-75.6427 215.25,-85.1066 220.1122,-80.0707"/>
</g>
<!-- Node6 -->
<g id="node7" class="node">
<title>Node6</title>
<polygon fill="none" stroke="#bfbfbf" points="286,-56.5 286,-75.5 349,-75.5 349,-56.5 286,-56.5"/>
<text text-anchor="middle" x="317.5" y="-63.5" font-family="Helvetica,sans-Serif" font-size="10.00" fill="#000000">TObject.h</text>
</g>
<!-- Node1&#45;&gt;Node6 -->
<g id="edge6" class="edge">
<title>Node1&#45;&gt;Node6</title>
<path fill="none" stroke="#191970" d="M268.777,-112.2455C277.3218,-104.1352 289.6778,-92.4075 299.8085,-82.7919"/>
<polygon fill="#191970" stroke="#191970" points="302.4972,-85.0655 307.3408,-75.6427 297.6782,-79.9884 302.4972,-85.0655"/>
</g>
<!-- Node7 -->
<g id="node8" class="node">
<title>Node7</title>
<polygon fill="none" stroke="#bfbfbf" points="367.5,-56.5 367.5,-75.5 399.5,-75.5 399.5,-56.5 367.5,-56.5"/>
<text text-anchor="middle" x="383.5" y="-63.5" font-family="Helvetica,sans-Serif" font-size="10.00" fill="#000000">set</text>
</g>
<!-- Node1&#45;&gt;Node7 -->
<g id="edge7" class="edge">
<title>Node1&#45;&gt;Node7</title>
<path fill="none" stroke="#191970" d="M279.9883,-112.3733C301.732,-102.6321 335.3328,-87.5789 358.3145,-77.2831"/>
<polygon fill="#191970" stroke="#191970" points="359.7531,-80.4738 367.4482,-73.1912 356.8912,-74.0856 359.7531,-80.4738"/>
</g>
<!-- Node3 -->
<g id="node4" class="node">
<title>Node3</title>
<polygon fill="none" stroke="#bfbfbf" points="3.5,-.5 3.5,-19.5 111.5,-19.5 111.5,-.5 3.5,-.5"/>
<text text-anchor="middle" x="57.5" y="-7.5" font-family="Helvetica,sans-Serif" font-size="10.00" fill="#000000">fairlogger/Logger.h</text>
</g>
<!-- Node2&#45;&gt;Node3 -->
<g id="edge3" class="edge">
<title>Node2&#45;&gt;Node3</title>
<path fill="none" stroke="#191970" d="M57.5,-56.2455C57.5,-48.9382 57.5,-38.6944 57.5,-29.7046"/>
<polygon fill="#191970" stroke="#191970" points="61.0001,-29.6426 57.5,-19.6427 54.0001,-29.6427 61.0001,-29.6426"/>
</g>
<!-- Node5 -->
<g id="node6" class="node">
<title>Node5</title>
<polygon fill="none" stroke="#bfbfbf" points="175.5,-.5 175.5,-19.5 225.5,-19.5 225.5,-.5 175.5,-.5"/>
<text text-anchor="middle" x="200.5" y="-7.5" font-family="Helvetica,sans-Serif" font-size="10.00" fill="#000000">cstdint</text>
</g>
<!-- Node4&#45;&gt;Node5 -->
<g id="edge5" class="edge">
<title>Node4&#45;&gt;Node5</title>
<path fill="none" stroke="#191970" d="M200.5,-56.2455C200.5,-48.9382 200.5,-38.6944 200.5,-29.7046"/>
<polygon fill="#191970" stroke="#191970" points="204.0001,-29.6426 200.5,-19.6427 197.0001,-29.6427 204.0001,-29.6426"/>
</g>
</g>
</svg>
