<?xml version="1.0" encoding="UTF-8" standalone="no"?>
<!DOCTYPE svg PUBLIC "-//W3C//DTD SVG 1.1//EN"
 "http://www.w3.org/Graphics/SVG/1.1/DTD/svg11.dtd">
<!-- Generated by graphviz version 2.40.1 (20161225.0304)
 -->
<!-- Title: o2::ctf::EncodedBlocks&lt; H, N, W &gt; Pages: 1 -->
<svg width="737pt" height="782pt"
 viewBox="0.00 0.00 736.50 782.00" xmlns="http://www.w3.org/2000/svg" xmlns:xlink="http://www.w3.org/1999/xlink">
<g id="graph0" class="graph" transform="scale(1 1) rotate(0) translate(4 778)">
<title>o2::ctf::EncodedBlocks&lt; H, N, W &gt;</title>
<!-- Node10 -->
<g id="node1" class="node">
<title>Node10</title>
<polygon fill="#bfbfbf" stroke="#000000" points="200,-.5 200,-530.5 369,-530.5 369,-.5 200,-.5"/>
<text text-anchor="start" x="208" y="-518.5" font-family="Helvetica,sans-Serif" font-size="10.00" fill="#000000">o2::ctf::EncodedBlocks</text>
<text text-anchor="middle" x="284.5" y="-507.5" font-family="Helvetica,sans-Serif" font-size="10.00" fill="#000000">&lt; H, N, W &gt;</text>
<polyline fill="none" stroke="#000000" points="200,-500.5 369,-500.5 "/>
<text text-anchor="middle" x="284.5" y="-488.5" font-family="Helvetica,sans-Serif" font-size="10.00" fill="#000000"> </text>
<polyline fill="none" stroke="#000000" points="200,-481.5 369,-481.5 "/>
<text text-anchor="start" x="208" y="-469.5" font-family="Helvetica,sans-Serif" font-size="10.00" fill="#000000">+ setHeader()</text>
<text text-anchor="start" x="208" y="-458.5" font-family="Helvetica,sans-Serif" font-size="10.00" fill="#000000">+ getHeader()</text>
<text text-anchor="start" x="208" y="-447.5" font-family="Helvetica,sans-Serif" font-size="10.00" fill="#000000">+ getHeader()</text>
<text text-anchor="start" x="208" y="-436.5" font-family="Helvetica,sans-Serif" font-size="10.00" fill="#000000">+ getMetadata()</text>
<text text-anchor="start" x="208" y="-425.5" font-family="Helvetica,sans-Serif" font-size="10.00" fill="#000000">+ getMetadata()</text>
<text text-anchor="start" x="208" y="-414.5" font-family="Helvetica,sans-Serif" font-size="10.00" fill="#000000">+ getBlock()</text>
<text text-anchor="start" x="208" y="-403.5" font-family="Helvetica,sans-Serif" font-size="10.00" fill="#000000">+ setANSHeader()</text>
<text text-anchor="start" x="208" y="-392.5" font-family="Helvetica,sans-Serif" font-size="10.00" fill="#000000">+ getANSHeader()</text>
<text text-anchor="start" x="208" y="-381.5" font-family="Helvetica,sans-Serif" font-size="10.00" fill="#000000">+ getANSHeader()</text>
<text text-anchor="start" x="208" y="-370.5" font-family="Helvetica,sans-Serif" font-size="10.00" fill="#000000">+ empty()</text>
<text text-anchor="start" x="208" y="-359.5" font-family="Helvetica,sans-Serif" font-size="10.00" fill="#000000">+ flat()</text>
<text text-anchor="start" x="208" y="-348.5" font-family="Helvetica,sans-Serif" font-size="10.00" fill="#000000">+ clear()</text>
<text text-anchor="start" x="208" y="-337.5" font-family="Helvetica,sans-Serif" font-size="10.00" fill="#000000">+ compactify()</text>
<text text-anchor="start" x="208" y="-326.5" font-family="Helvetica,sans-Serif" font-size="10.00" fill="#000000">+ size()</text>
<text text-anchor="start" x="208" y="-315.5" font-family="Helvetica,sans-Serif" font-size="10.00" fill="#000000">+ getFreeSize()</text>
<text text-anchor="start" x="208" y="-304.5" font-family="Helvetica,sans-Serif" font-size="10.00" fill="#000000">+ copyToFlat()</text>
<text text-anchor="start" x="208" y="-293.5" font-family="Helvetica,sans-Serif" font-size="10.00" fill="#000000">+ copyToFlat()</text>
<text text-anchor="start" x="208" y="-282.5" font-family="Helvetica,sans-Serif" font-size="10.00" fill="#000000">+ appendToTree()</text>
<text text-anchor="start" x="208" y="-271.5" font-family="Helvetica,sans-Serif" font-size="10.00" fill="#000000">+ readFromTree()</text>
<text text-anchor="start" x="208" y="-260.5" font-family="Helvetica,sans-Serif" font-size="10.00" fill="#000000">+ encode()</text>
<text text-anchor="start" x="208" y="-249.5" font-family="Helvetica,sans-Serif" font-size="10.00" fill="#000000">+ encode()</text>
<text text-anchor="start" x="208" y="-238.5" font-family="Helvetica,sans-Serif" font-size="10.00" fill="#000000">+ decode()</text>
<text text-anchor="start" x="208" y="-227.5" font-family="Helvetica,sans-Serif" font-size="10.00" fill="#000000">+ decode()</text>
<text text-anchor="start" x="208" y="-216.5" font-family="Helvetica,sans-Serif" font-size="10.00" fill="#000000">+ print()</text>
<text text-anchor="start" x="208" y="-205.5" font-family="Helvetica,sans-Serif" font-size="10.00" fill="#000000">+ getNBlocks()</text>
<text text-anchor="start" x="208" y="-194.5" font-family="Helvetica,sans-Serif" font-size="10.00" fill="#000000">+ getMinAlignedSize()</text>
<text text-anchor="start" x="208" y="-183.5" font-family="Helvetica,sans-Serif" font-size="10.00" fill="#000000">+ get()</text>
<text text-anchor="start" x="208" y="-172.5" font-family="Helvetica,sans-Serif" font-size="10.00" fill="#000000">+ get()</text>
<text text-anchor="start" x="208" y="-161.5" font-family="Helvetica,sans-Serif" font-size="10.00" fill="#000000">+ getImage()</text>
<text text-anchor="start" x="208" y="-150.5" font-family="Helvetica,sans-Serif" font-size="10.00" fill="#000000">+ create()</text>
<text text-anchor="start" x="208" y="-139.5" font-family="Helvetica,sans-Serif" font-size="10.00" fill="#000000">+ create()</text>
<text text-anchor="start" x="208" y="-128.5" font-family="Helvetica,sans-Serif" font-size="10.00" fill="#000000">+ estimateBlockSize()</text>
<text text-anchor="start" x="208" y="-117.5" font-family="Helvetica,sans-Serif" font-size="10.00" fill="#000000">+ expand()</text>
<text text-anchor="start" x="208" y="-106.5" font-family="Helvetica,sans-Serif" font-size="10.00" fill="#000000">+ readFromTree()</text>
<text text-anchor="start" x="208" y="-95.5" font-family="Helvetica,sans-Serif" font-size="10.00" fill="#000000">+ createDictionaryBlocks()</text>
<text text-anchor="start" x="208" y="-84.5" font-family="Helvetica,sans-Serif" font-size="10.00" fill="#000000"># init()</text>
<text text-anchor="start" x="208" y="-73.5" font-family="Helvetica,sans-Serif" font-size="10.00" fill="#000000"># estimateSize()</text>
<text text-anchor="start" x="208" y="-62.5" font-family="Helvetica,sans-Serif" font-size="10.00" fill="#000000"># estimateSizeFromMetadata()</text>
<text text-anchor="start" x="208" y="-51.5" font-family="Helvetica,sans-Serif" font-size="10.00" fill="#000000"># fillFlatCopy()</text>
<text text-anchor="start" x="208" y="-40.5" font-family="Helvetica,sans-Serif" font-size="10.00" fill="#000000"># ClassDefNV()</text>
<text text-anchor="start" x="208" y="-29.5" font-family="Helvetica,sans-Serif" font-size="10.00" fill="#000000"># relocate()</text>
<text text-anchor="start" x="208" y="-18.5" font-family="Helvetica,sans-Serif" font-size="10.00" fill="#000000"># fillTreeBranch()</text>
<text text-anchor="start" x="208" y="-7.5" font-family="Helvetica,sans-Serif" font-size="10.00" fill="#000000"># readTreeBranch()</text>
</g>
<!-- Node11 -->
<g id="node2" class="node">
<title>Node11</title>
<polygon fill="none" stroke="#bfbfbf" points="0,-589.5 0,-646.5 161,-646.5 161,-589.5 0,-589.5"/>
<text text-anchor="middle" x="80.5" y="-634.5" font-family="Helvetica,sans-Serif" font-size="10.00" fill="#000000">array&lt; o2::ctf::Metadata, N &gt;</text>
<polyline fill="none" stroke="#bfbfbf" points="0,-627.5 161,-627.5 "/>
<text text-anchor="middle" x="80.5" y="-615.5" font-family="Helvetica,sans-Serif" font-size="10.00" fill="#000000"> </text>
<polyline fill="none" stroke="#bfbfbf" points="0,-608.5 161,-608.5 "/>
<text text-anchor="middle" x="80.5" y="-596.5" font-family="Helvetica,sans-Serif" font-size="10.00" fill="#000000"> </text>
</g>
<!-- Node11&#45;&gt;Node10 -->
<g id="edge1" class="edge">
<title>Node11&#45;&gt;Node10</title>
<path fill="none" stroke="#404040" d="M97.0214,-589.452C118.3163,-552.6556 156.982,-485.8435 193.6907,-422.413"/>
<polygon fill="none" stroke="#404040" points="193.7892,-422.2428 193.3325,-415.0462 199.8,-411.8567 200.2566,-419.0534 193.7892,-422.2428"/>
<text text-anchor="middle" x="154" y="-552" font-family="Helvetica,sans-Serif" font-size="10.00" fill="#000000"> #mMetadata</text>
</g>
<!-- Node12 -->
<g id="node3" class="node">
<title>Node12</title>
<polygon fill="none" stroke="#bfbfbf" points="179,-589.5 179,-646.5 208,-646.5 208,-589.5 179,-589.5"/>
<text text-anchor="middle" x="193.5" y="-634.5" font-family="Helvetica,sans-Serif" font-size="10.00" fill="#000000">H</text>
<polyline fill="none" stroke="#bfbfbf" points="179,-627.5 208,-627.5 "/>
<text text-anchor="middle" x="193.5" y="-615.5" font-family="Helvetica,sans-Serif" font-size="10.00" fill="#000000"> </text>
<polyline fill="none" stroke="#bfbfbf" points="179,-608.5 208,-608.5 "/>
<text text-anchor="middle" x="193.5" y="-596.5" font-family="Helvetica,sans-Serif" font-size="10.00" fill="#000000"> </text>
</g>
<!-- Node12&#45;&gt;Node10 -->
<g id="edge2" class="edge">
<title>Node12&#45;&gt;Node10</title>
<path fill="none" stroke="#404040" d="M200.8698,-589.452C204.1285,-576.829 208.2992,-560.6736 213.0336,-542.3341"/>
<polygon fill="none" stroke="#404040" points="213.0516,-542.2641 210.6784,-535.4546 216.0512,-530.645 218.4244,-537.4544 213.0516,-542.2641"/>
<text text-anchor="middle" x="240" y="-552" font-family="Helvetica,sans-Serif" font-size="10.00" fill="#000000"> #mHeader</text>
</g>
<!-- Node13 -->
<g id="node4" class="node">
<title>Node13</title>
<polygon fill="none" stroke="#bfbfbf" points="226,-584 226,-652 343,-652 343,-584 226,-584"/>
<text text-anchor="start" x="234" y="-640" font-family="Helvetica,sans-Serif" font-size="10.00" fill="#000000">array&lt; o2::ctf::Block</text>
<text text-anchor="middle" x="284.5" y="-629" font-family="Helvetica,sans-Serif" font-size="10.00" fill="#000000">&lt; W &gt;, N &gt;</text>
<polyline fill="none" stroke="#bfbfbf" points="226,-622 343,-622 "/>
<text text-anchor="middle" x="284.5" y="-610" font-family="Helvetica,sans-Serif" font-size="10.00" fill="#000000"> </text>
<polyline fill="none" stroke="#bfbfbf" points="226,-603 343,-603 "/>
<text text-anchor="middle" x="284.5" y="-591" font-family="Helvetica,sans-Serif" font-size="10.00" fill="#000000"> </text>
</g>
<!-- Node13&#45;&gt;Node10 -->
<g id="edge3" class="edge">
<title>Node13&#45;&gt;Node10</title>
<path fill="none" stroke="#404040" d="M284.5,-583.8805C284.5,-572.315 284.5,-558.3317 284.5,-542.7605"/>
<polygon fill="none" stroke="#404040" points="284.5001,-542.5574 280.5,-536.5574 284.5,-530.5574 288.5,-536.5574 284.5001,-542.5574"/>
<text text-anchor="middle" x="311.5" y="-552" font-family="Helvetica,sans-Serif" font-size="10.00" fill="#000000"> #mBlocks</text>
</g>
<!-- Node14 -->
<g id="node5" class="node">
<title>Node14</title>
<g id="a_node5"><a xlink:href="../../dc/dbb/structo2_1_1ctf_1_1ANSHeader.html" target="_top" xlink:title="&gt;&gt;======================== Auxiliary classes =======================&gt;&gt; ">
<polygon fill="none" stroke="#000000" points="361,-584 361,-652 470,-652 470,-584 361,-584"/>
<text text-anchor="middle" x="415.5" y="-640" font-family="Helvetica,sans-Serif" font-size="10.00" fill="#000000">o2::ctf::ANSHeader</text>
<polyline fill="none" stroke="#000000" points="361,-633 470,-633 "/>
<text text-anchor="middle" x="415.5" y="-621" font-family="Helvetica,sans-Serif" font-size="10.00" fill="#000000"> </text>
<polyline fill="none" stroke="#000000" points="361,-614 470,-614 "/>
<text text-anchor="start" x="369" y="-602" font-family="Helvetica,sans-Serif" font-size="10.00" fill="#000000">+ clear()</text>
<text text-anchor="start" x="369" y="-591" font-family="Helvetica,sans-Serif" font-size="10.00" fill="#000000">+ ClassDefNV()</text>
</a>
</g>
</g>
<!-- Node14&#45;&gt;Node10 -->
<g id="edge4" class="edge">
<title>Node14&#45;&gt;Node10</title>
<path fill="none" stroke="#404040" d="M402.8201,-583.8805C395.2428,-563.491 384.8728,-535.5871 373.4001,-504.7159"/>
<polygon fill="none" stroke="#404040" points="373.3068,-504.4648 367.4672,-500.234 369.1265,-493.2164 374.9661,-497.4472 373.3068,-504.4648"/>
<text text-anchor="middle" x="433" y="-552" font-family="Helvetica,sans-Serif" font-size="10.00" fill="#000000"> #mANSHeader</text>
</g>
<!-- Node15 -->
<g id="node6" class="node">
<title>Node15</title>
<polygon fill="none" stroke="#bfbfbf" points="384.5,-716.5 384.5,-773.5 434.5,-773.5 434.5,-716.5 384.5,-716.5"/>
<text text-anchor="middle" x="409.5" y="-761.5" font-family="Helvetica,sans-Serif" font-size="10.00" fill="#000000">uint8_t</text>
<polyline fill="none" stroke="#bfbfbf" points="384.5,-754.5 434.5,-754.5 "/>
<text text-anchor="middle" x="409.5" y="-742.5" font-family="Helvetica,sans-Serif" font-size="10.00" fill="#000000"> </text>
<polyline fill="none" stroke="#bfbfbf" points="384.5,-735.5 434.5,-735.5 "/>
<text text-anchor="middle" x="409.5" y="-723.5" font-family="Helvetica,sans-Serif" font-size="10.00" fill="#000000"> </text>
</g>
<!-- Node15&#45;&gt;Node14 -->
<g id="edge5" class="edge">
<title>Node15&#45;&gt;Node14</title>
<path fill="none" stroke="#404040" d="M409.4562,-716.4501C409.5554,-704.0177 409.8321,-689.2815 410.5,-676 410.6954,-672.1138 410.9451,-668.0847 411.2284,-664.0435"/>
<polygon fill="none" stroke="#404040" points="411.2333,-663.9792 407.7076,-657.6888 412.1582,-652.0149 415.6838,-658.3054 411.2333,-663.9792"/>
<text text-anchor="middle" x="448.5" y="-690" font-family="Helvetica,sans-Serif" font-size="10.00" fill="#000000"> +minorVersion</text>
<text text-anchor="middle" x="448.5" y="-679" font-family="Helvetica,sans-Serif" font-size="10.00" fill="#000000">+majorVersion</text>
</g>
<!-- Node16 -->
<g id="node7" class="node">
<title>Node16</title>
<g id="a_node7"><a xlink:href="../../d0/d1c/structo2_1_1ctf_1_1Registry.html" target="_top" xlink:title="registry struct for the buffer start and offsets of writable space ">
<polygon fill="none" stroke="#000000" points="500.5,-578.5 500.5,-657.5 622.5,-657.5 622.5,-578.5 500.5,-578.5"/>
<text text-anchor="middle" x="561.5" y="-645.5" font-family="Helvetica,sans-Serif" font-size="10.00" fill="#000000">o2::ctf::Registry</text>
<polyline fill="none" stroke="#000000" points="500.5,-638.5 622.5,-638.5 "/>
<text text-anchor="middle" x="561.5" y="-626.5" font-family="Helvetica,sans-Serif" font-size="10.00" fill="#000000"> </text>
<polyline fill="none" stroke="#000000" points="500.5,-619.5 622.5,-619.5 "/>
<text text-anchor="start" x="508.5" y="-607.5" font-family="Helvetica,sans-Serif" font-size="10.00" fill="#000000">+ getFreeBlockStart()</text>
<text text-anchor="start" x="508.5" y="-596.5" font-family="Helvetica,sans-Serif" font-size="10.00" fill="#000000">+ getFreeSize()</text>
<text text-anchor="start" x="508.5" y="-585.5" font-family="Helvetica,sans-Serif" font-size="10.00" fill="#000000">+ ClassDefNV()</text>
</a>
</g>
</g>
<!-- Node16&#45;&gt;Node10 -->
<g id="edge6" class="edge">
<title>Node16&#45;&gt;Node10</title>
<path fill="none" stroke="#404040" d="M530.263,-578.249C493.1689,-531.0444 429.6252,-450.181 376.4447,-382.5055"/>
<polygon fill="none" stroke="#404040" points="376.4279,-382.484 369.5755,-380.2378 369.0134,-373.0486 375.8657,-375.2948 376.4279,-382.484"/>
<text text-anchor="middle" x="546" y="-552" font-family="Helvetica,sans-Serif" font-size="10.00" fill="#000000"> #mRegistry</text>
</g>
<!-- Node17 -->
<g id="node8" class="node">
<title>Node17</title>
<polygon fill="none" stroke="#bfbfbf" points="488.5,-716.5 488.5,-773.5 526.5,-773.5 526.5,-716.5 488.5,-716.5"/>
<text text-anchor="middle" x="507.5" y="-761.5" font-family="Helvetica,sans-Serif" font-size="10.00" fill="#000000">char</text>
<polyline fill="none" stroke="#bfbfbf" points="488.5,-754.5 526.5,-754.5 "/>
<text text-anchor="middle" x="507.5" y="-742.5" font-family="Helvetica,sans-Serif" font-size="10.00" fill="#000000"> </text>
<polyline fill="none" stroke="#bfbfbf" points="488.5,-735.5 526.5,-735.5 "/>
<text text-anchor="middle" x="507.5" y="-723.5" font-family="Helvetica,sans-Serif" font-size="10.00" fill="#000000"> </text>
</g>
<!-- Node17&#45;&gt;Node16 -->
<g id="edge7" class="edge">
<title>Node17&#45;&gt;Node16</title>
<path fill="none" stroke="#404040" d="M512.3488,-716.4592C515.0551,-703.7607 519.0107,-688.8151 524.5,-676 525.6111,-673.4062 526.8322,-670.7972 528.1335,-668.1978"/>
<polygon fill="none" stroke="#404040" points="528.1425,-668.1811 527.4839,-661.0001 533.8592,-657.6303 534.5178,-664.8112 528.1425,-668.1811"/>
<text text-anchor="middle" x="542.5" y="-684.5" font-family="Helvetica,sans-Serif" font-size="10.00" fill="#000000"> +head</text>
</g>
<!-- Node18 -->
<g id="node9" class="node">
<title>Node18</title>
<polygon fill="none" stroke="#bfbfbf" points="545,-716.5 545,-773.5 590,-773.5 590,-716.5 545,-716.5"/>
<text text-anchor="middle" x="567.5" y="-761.5" font-family="Helvetica,sans-Serif" font-size="10.00" fill="#000000">size_t</text>
<polyline fill="none" stroke="#bfbfbf" points="545,-754.5 590,-754.5 "/>
<text text-anchor="middle" x="567.5" y="-742.5" font-family="Helvetica,sans-Serif" font-size="10.00" fill="#000000"> </text>
<polyline fill="none" stroke="#bfbfbf" points="545,-735.5 590,-735.5 "/>
<text text-anchor="middle" x="567.5" y="-723.5" font-family="Helvetica,sans-Serif" font-size="10.00" fill="#000000"> </text>
</g>
<!-- Node18&#45;&gt;Node16 -->
<g id="edge8" class="edge">
<title>Node18&#45;&gt;Node16</title>
<path fill="none" stroke="#404040" d="M566.1535,-716.4987C565.5101,-702.8801 564.7191,-686.1381 563.9731,-670.3462"/>
<polygon fill="none" stroke="#404040" points="563.9544,-669.9496 559.6757,-664.1451 563.388,-657.963 567.6668,-663.7675 563.9544,-669.9496"/>
<text text-anchor="middle" x="602" y="-690" font-family="Helvetica,sans-Serif" font-size="10.00" fill="#000000"> +offsFreeStart</text>
<text text-anchor="middle" x="602" y="-679" font-family="Helvetica,sans-Serif" font-size="10.00" fill="#000000">+size</text>
</g>
<!-- Node19 -->
<g id="node10" class="node">
<title>Node19</title>
<polygon fill="none" stroke="#bfbfbf" points="649,-716.5 649,-773.5 678,-773.5 678,-716.5 649,-716.5"/>
<text text-anchor="middle" x="663.5" y="-761.5" font-family="Helvetica,sans-Serif" font-size="10.00" fill="#000000">int</text>
<polyline fill="none" stroke="#bfbfbf" points="649,-754.5 678,-754.5 "/>
<text text-anchor="middle" x="663.5" y="-742.5" font-family="Helvetica,sans-Serif" font-size="10.00" fill="#000000"> </text>
<polyline fill="none" stroke="#bfbfbf" points="649,-735.5 678,-735.5 "/>
<text text-anchor="middle" x="663.5" y="-723.5" font-family="Helvetica,sans-Serif" font-size="10.00" fill="#000000"> </text>
</g>
<!-- Node19&#45;&gt;Node16 -->
<g id="edge9" class="edge">
<title>Node19&#45;&gt;Node16</title>
<path fill="none" stroke="#404040" d="M658.6256,-716.2667C655.3646,-703.0941 650.0463,-687.8188 641.5,-676 638.5032,-671.8557 635.1194,-667.89 631.4794,-664.1176"/>
<polygon fill="none" stroke="#404040" points="631.2863,-663.9343 624.1808,-662.7048 622.5828,-655.6729 629.6883,-656.9024 631.2863,-663.9343"/>
<text text-anchor="middle" x="690.5" y="-684.5" font-family="Helvetica,sans-Serif" font-size="10.00" fill="#000000"> +nFilledBlocks</text>
</g>
</g>
</svg>
