<?xml version="1.0" encoding="UTF-8" standalone="no"?>
<!DOCTYPE svg PUBLIC "-//W3C//DTD SVG 1.1//EN"
 "http://www.w3.org/Graphics/SVG/1.1/DTD/svg11.dtd">
<!-- Generated by graphviz version 2.40.1 (20161225.0304)
 -->
<!-- Title: o2::framework::Partition&lt; T &gt; Pages: 1 -->
<svg width="201pt" height="270pt"
 viewBox="0.00 0.00 201.00 270.00" xmlns="http://www.w3.org/2000/svg" xmlns:xlink="http://www.w3.org/1999/xlink">
<g id="graph0" class="graph" transform="scale(1 1) rotate(0) translate(4 266)">
<title>o2::framework::Partition&lt; T &gt;</title>
<!-- Node3 -->
<g id="node1" class="node">
<title>Node3</title>
<polygon fill="#bfbfbf" stroke="#000000" points="26,-.5 26,-145.5 193,-145.5 193,-.5 26,-.5"/>
<text text-anchor="middle" x="109.5" y="-133.5" font-family="Helvetica,sans-Serif" font-size="10.00" fill="#000000">o2::framework::Partition&lt; T &gt;</text>
<polyline fill="none" stroke="#000000" points="26,-126.5 193,-126.5 "/>
<text text-anchor="middle" x="109.5" y="-114.5" font-family="Helvetica,sans-Serif" font-size="10.00" fill="#000000"> </text>
<polyline fill="none" stroke="#000000" points="26,-107.5 193,-107.5 "/>
<text text-anchor="start" x="34" y="-95.5" font-family="Helvetica,sans-Serif" font-size="10.00" fill="#000000">+ Partition()</text>
<text text-anchor="start" x="34" y="-84.5" font-family="Helvetica,sans-Serif" font-size="10.00" fill="#000000">+ setTable()</text>
<text text-anchor="start" x="34" y="-73.5" font-family="Helvetica,sans-Serif" font-size="10.00" fill="#000000">+ bindExternalIndices()</text>
<text text-anchor="start" x="34" y="-62.5" font-family="Helvetica,sans-Serif" font-size="10.00" fill="#000000">+ getBoundToExternalIndices()</text>
<text text-anchor="start" x="34" y="-51.5" font-family="Helvetica,sans-Serif" font-size="10.00" fill="#000000">+ begin()</text>
<text text-anchor="start" x="34" y="-40.5" font-family="Helvetica,sans-Serif" font-size="10.00" fill="#000000">+ end()</text>
<text text-anchor="start" x="34" y="-29.5" font-family="Helvetica,sans-Serif" font-size="10.00" fill="#000000">+ begin()</text>
<text text-anchor="start" x="34" y="-18.5" font-family="Helvetica,sans-Serif" font-size="10.00" fill="#000000">+ end()</text>
<text text-anchor="start" x="34" y="-7.5" font-family="Helvetica,sans-Serif" font-size="10.00" fill="#000000">+ size()</text>
</g>
<!-- Node4 -->
<g id="node2" class="node">
<title>Node4</title>
<polygon fill="none" stroke="#bfbfbf" points="0,-193.5 0,-261.5 115,-261.5 115,-193.5 0,-193.5"/>
<text text-anchor="start" x="8" y="-249.5" font-family="Helvetica,sans-Serif" font-size="10.00" fill="#000000">unique_ptr&lt; o2::soa</text>
<text text-anchor="middle" x="57.5" y="-238.5" font-family="Helvetica,sans-Serif" font-size="10.00" fill="#000000">::Filtered&lt; T &gt; &gt;</text>
<polyline fill="none" stroke="#bfbfbf" points="0,-231.5 115,-231.5 "/>
<text text-anchor="middle" x="57.5" y="-219.5" font-family="Helvetica,sans-Serif" font-size="10.00" fill="#000000"> </text>
<polyline fill="none" stroke="#bfbfbf" points="0,-212.5 115,-212.5 "/>
<text text-anchor="middle" x="57.5" y="-200.5" font-family="Helvetica,sans-Serif" font-size="10.00" fill="#000000"> </text>
</g>
<!-- Node4&#45;&gt;Node3 -->
<g id="edge1" class="edge">
<title>Node4&#45;&gt;Node3</title>
<path fill="none" stroke="#404040" d="M69.0405,-193.2114C72.66,-182.4573 76.8277,-170.0744 81.0825,-157.4327"/>
<polygon fill="none" stroke="#404040" points="81.1734,-157.1626 79.2963,-150.2001 85.0013,-145.7895 86.8784,-152.752 81.1734,-157.1626"/>
<text text-anchor="middle" x="108.5" y="-167" font-family="Helvetica,sans-Serif" font-size="10.00" fill="#000000"> +mFiltered</text>
</g>
<!-- Node5 -->
<g id="node3" class="node">
<title>Node5</title>
<polygon fill="none" stroke="#bfbfbf" points="133.5,-199 133.5,-256 189.5,-256 189.5,-199 133.5,-199"/>
<text text-anchor="middle" x="161.5" y="-244" font-family="Helvetica,sans-Serif" font-size="10.00" fill="#000000">NodePtr</text>
<polyline fill="none" stroke="#bfbfbf" points="133.5,-237 189.5,-237 "/>
<text text-anchor="middle" x="161.5" y="-225" font-family="Helvetica,sans-Serif" font-size="10.00" fill="#000000"> </text>
<polyline fill="none" stroke="#bfbfbf" points="133.5,-218 189.5,-218 "/>
<text text-anchor="middle" x="161.5" y="-206" font-family="Helvetica,sans-Serif" font-size="10.00" fill="#000000"> </text>
</g>
<!-- Node5&#45;&gt;Node3 -->
<g id="edge2" class="edge">
<title>Node5&#45;&gt;Node3</title>
<path fill="none" stroke="#404040" d="M151.8411,-198.8018C147.792,-186.7714 142.8537,-172.099 137.7986,-157.0795"/>
<polygon fill="none" stroke="#404040" points="137.7509,-156.9375 132.0459,-152.5269 133.923,-145.5644 139.628,-149.975 137.7509,-156.9375"/>
<text text-anchor="middle" x="163.5" y="-167" font-family="Helvetica,sans-Serif" font-size="10.00" fill="#000000"> +mTree</text>
</g>
</g>
</svg>
