<?xml version="1.0" encoding="UTF-8" standalone="no"?>
<!DOCTYPE svg PUBLIC "-//W3C//DTD SVG 1.1//EN"
 "http://www.w3.org/Graphics/SVG/1.1/DTD/svg11.dtd">
<!-- Generated by graphviz version 2.40.1 (20161225.0304)
 -->
<!-- Title: o2::framework::OutputObjHeader Pages: 1 -->
<svg width="958pt" height="1058pt"
 viewBox="0.00 0.00 958.30 1058.00" xmlns="http://www.w3.org/2000/svg" xmlns:xlink="http://www.w3.org/1999/xlink">
<g id="graph0" class="graph" transform="scale(1 1) rotate(0) translate(4 1054)">
<title>o2::framework::OutputObjHeader</title>
<!-- Node2 -->
<g id="node1" class="node">
<title>Node2</title>
<polygon fill="#bfbfbf" stroke="#000000" points="545.7976,-.5 545.7976,-90.5 688.7976,-90.5 688.7976,-.5 545.7976,-.5"/>
<text text-anchor="start" x="553.7976" y="-78.5" font-family="Helvetica,sans-Serif" font-size="10.00" fill="#000000">o2::framework::OutputObj</text>
<text text-anchor="middle" x="617.2976" y="-67.5" font-family="Helvetica,sans-Serif" font-size="10.00" fill="#000000">Header</text>
<polyline fill="none" stroke="#000000" points="545.7976,-60.5 688.7976,-60.5 "/>
<text text-anchor="middle" x="617.2976" y="-48.5" font-family="Helvetica,sans-Serif" font-size="10.00" fill="#000000"> </text>
<polyline fill="none" stroke="#000000" points="545.7976,-41.5 688.7976,-41.5 "/>
<text text-anchor="start" x="553.7976" y="-29.5" font-family="Helvetica,sans-Serif" font-size="10.00" fill="#000000">+ OutputObjHeader()</text>
<text text-anchor="start" x="553.7976" y="-18.5" font-family="Helvetica,sans-Serif" font-size="10.00" fill="#000000">+ OutputObjHeader()</text>
<text text-anchor="start" x="553.7976" y="-7.5" font-family="Helvetica,sans-Serif" font-size="10.00" fill="#000000">+ OutputObjHeader()</text>
</g>
<!-- Node3 -->
<g id="node2" class="node">
<title>Node3</title>
<g id="a_node2"><a xlink:href="../../d8/dbd/structo2_1_1header_1_1BaseHeader.html" target="_top" xlink:title="the base header struct Every header type must begin (i.e. derive) with this. Don&#39;t use this struct di...">
<polygon fill="none" stroke="#000000" points="443.7976,-160.5 443.7976,-327.5 616.7976,-327.5 616.7976,-160.5 443.7976,-160.5"/>
<text text-anchor="middle" x="530.2976" y="-315.5" font-family="Helvetica,sans-Serif" font-size="10.00" fill="#000000">o2::header::BaseHeader</text>
<polyline fill="none" stroke="#000000" points="443.7976,-308.5 616.7976,-308.5 "/>
<text text-anchor="middle" x="530.2976" y="-296.5" font-family="Helvetica,sans-Serif" font-size="10.00" fill="#000000"> </text>
<polyline fill="none" stroke="#000000" points="443.7976,-289.5 616.7976,-289.5 "/>
<text text-anchor="start" x="451.7976" y="-277.5" font-family="Helvetica,sans-Serif" font-size="10.00" fill="#000000">+ BaseHeader()</text>
<text text-anchor="start" x="451.7976" y="-266.5" font-family="Helvetica,sans-Serif" font-size="10.00" fill="#000000">+ BaseHeader()</text>
<text text-anchor="start" x="451.7976" y="-255.5" font-family="Helvetica,sans-Serif" font-size="10.00" fill="#000000">+ BaseHeader()</text>
<text text-anchor="start" x="451.7976" y="-244.5" font-family="Helvetica,sans-Serif" font-size="10.00" fill="#000000">+ size()</text>
<text text-anchor="start" x="451.7976" y="-233.5" font-family="Helvetica,sans-Serif" font-size="10.00" fill="#000000">+ data()</text>
<text text-anchor="start" x="451.7976" y="-222.5" font-family="Helvetica,sans-Serif" font-size="10.00" fill="#000000">+ next()</text>
<text text-anchor="start" x="451.7976" y="-211.5" font-family="Helvetica,sans-Serif" font-size="10.00" fill="#000000">+ next()</text>
<text text-anchor="start" x="451.7976" y="-200.5" font-family="Helvetica,sans-Serif" font-size="10.00" fill="#000000">+ sanityCheck()</text>
<text text-anchor="start" x="451.7976" y="-189.5" font-family="Helvetica,sans-Serif" font-size="10.00" fill="#000000">+ throwInconsistentStackError()</text>
<text text-anchor="start" x="451.7976" y="-178.5" font-family="Helvetica,sans-Serif" font-size="10.00" fill="#000000">+ get()</text>
<text text-anchor="start" x="451.7976" y="-167.5" font-family="Helvetica,sans-Serif" font-size="10.00" fill="#000000">+ get()</text>
</a>
</g>
</g>
<!-- Node3&#45;&gt;Node2 -->
<g id="edge1" class="edge">
<title>Node3&#45;&gt;Node2</title>
<path fill="none" stroke="#191970" d="M571.0217,-151.0834C580.25,-130.0281 589.6456,-108.591 597.5381,-90.5834"/>
<polygon fill="none" stroke="#191970" points="567.7499,-149.8295 566.9413,-160.3934 574.1612,-152.6395 567.7499,-149.8295"/>
</g>
<!-- Node4 -->
<g id="node3" class="node">
<title>Node4</title>
<g id="a_node3"><a xlink:href="../../d9/db3/structo2_1_1header_1_1Descriptor.html" target="_top" xlink:title="{o2::header::Descriptor\l\&lt; gSizeHeaderDescriptionString \&gt;\n||+ Descriptor()\l+ Descriptor()\l+ Descriptor()\l+ Descriptor()\l+ operator=()\l+ operator ItgType()\l+ runtimeInit()\l+ operator==()\l+ operator==()\l+ operator\&lt;()\l+ operator!=()\l+ operator!=()\l+ as()\l+ print()\l}">
<polygon fill="none" stroke="#000000" points="323.7976,-441.5 323.7976,-652.5 508.7976,-652.5 508.7976,-441.5 323.7976,-441.5"/>
<text text-anchor="start" x="331.7976" y="-640.5" font-family="Helvetica,sans-Serif" font-size="10.00" fill="#000000">o2::header::Descriptor</text>
<text text-anchor="middle" x="416.2976" y="-629.5" font-family="Helvetica,sans-Serif" font-size="10.00" fill="#000000">&lt; gSizeHeaderDescriptionString &gt;</text>
<polyline fill="none" stroke="#000000" points="323.7976,-622.5 508.7976,-622.5 "/>
<text text-anchor="middle" x="416.2976" y="-610.5" font-family="Helvetica,sans-Serif" font-size="10.00" fill="#000000"> </text>
<polyline fill="none" stroke="#000000" points="323.7976,-603.5 508.7976,-603.5 "/>
<text text-anchor="start" x="331.7976" y="-591.5" font-family="Helvetica,sans-Serif" font-size="10.00" fill="#000000">+ Descriptor()</text>
<text text-anchor="start" x="331.7976" y="-580.5" font-family="Helvetica,sans-Serif" font-size="10.00" fill="#000000">+ Descriptor()</text>
<text text-anchor="start" x="331.7976" y="-569.5" font-family="Helvetica,sans-Serif" font-size="10.00" fill="#000000">+ Descriptor()</text>
<text text-anchor="start" x="331.7976" y="-558.5" font-family="Helvetica,sans-Serif" font-size="10.00" fill="#000000">+ Descriptor()</text>
<text text-anchor="start" x="331.7976" y="-547.5" font-family="Helvetica,sans-Serif" font-size="10.00" fill="#000000">+ operator=()</text>
<text text-anchor="start" x="331.7976" y="-536.5" font-family="Helvetica,sans-Serif" font-size="10.00" fill="#000000">+ operator ItgType()</text>
<text text-anchor="start" x="331.7976" y="-525.5" font-family="Helvetica,sans-Serif" font-size="10.00" fill="#000000">+ runtimeInit()</text>
<text text-anchor="start" x="331.7976" y="-514.5" font-family="Helvetica,sans-Serif" font-size="10.00" fill="#000000">+ operator==()</text>
<text text-anchor="start" x="331.7976" y="-503.5" font-family="Helvetica,sans-Serif" font-size="10.00" fill="#000000">+ operator==()</text>
<text text-anchor="start" x="331.7976" y="-492.5" font-family="Helvetica,sans-Serif" font-size="10.00" fill="#000000">+ operator&lt;()</text>
<text text-anchor="start" x="331.7976" y="-481.5" font-family="Helvetica,sans-Serif" font-size="10.00" fill="#000000">+ operator!=()</text>
<text text-anchor="start" x="331.7976" y="-470.5" font-family="Helvetica,sans-Serif" font-size="10.00" fill="#000000">+ operator!=()</text>
<text text-anchor="start" x="331.7976" y="-459.5" font-family="Helvetica,sans-Serif" font-size="10.00" fill="#000000">+ as()</text>
<text text-anchor="start" x="331.7976" y="-448.5" font-family="Helvetica,sans-Serif" font-size="10.00" fill="#000000">+ print()</text>
</a>
</g>
</g>
<!-- Node4&#45;&gt;Node3 -->
<g id="edge2" class="edge">
<title>Node4&#45;&gt;Node3</title>
<path fill="none" stroke="#404040" d="M446.7116,-441.3804C456.5167,-410.318 468.0445,-376.499 480.2976,-346 481.2453,-343.641 482.2244,-341.261 483.2292,-338.868"/>
<polygon fill="none" stroke="#404040" points="483.3365,-338.6196 482.0462,-331.5249 488.0989,-327.6051 489.3892,-334.6998 483.3365,-338.6196"/>
<text text-anchor="middle" x="513.2976" y="-382" font-family="Helvetica,sans-Serif" font-size="10.00" fill="#000000"> +description</text>
</g>
<!-- Node5 -->
<g id="node4" class="node">
<title>Node5</title>
<polygon fill="none" stroke="#bfbfbf" points="481.7976,-992.5 481.7976,-1049.5 520.7976,-1049.5 520.7976,-992.5 481.7976,-992.5"/>
<text text-anchor="middle" x="501.2976" y="-1037.5" font-family="Helvetica,sans-Serif" font-size="10.00" fill="#000000">Type</text>
<polyline fill="none" stroke="#bfbfbf" points="481.7976,-1030.5 520.7976,-1030.5 "/>
<text text-anchor="middle" x="501.2976" y="-1018.5" font-family="Helvetica,sans-Serif" font-size="10.00" fill="#000000"> </text>
<polyline fill="none" stroke="#bfbfbf" points="481.7976,-1011.5 520.7976,-1011.5 "/>
<text text-anchor="middle" x="501.2976" y="-999.5" font-family="Helvetica,sans-Serif" font-size="10.00" fill="#000000"> </text>
</g>
<!-- Node5&#45;&gt;Node4 -->
<g id="edge3" class="edge">
<title>Node5&#45;&gt;Node4</title>
<path fill="none" stroke="#404040" d="M520.9583,-996.7694C534.8325,-980.289 554.2682,-958.4014 573.2976,-941 583.1372,-932.0022 591.3347,-934.9257 597.2976,-923 639.435,-838.7251 640.116,-794.931 597.2976,-711 578.8992,-674.9361 554.5328,-680.6395 518.398,-653.2606"/>
<polygon fill="none" stroke="#404040" points="518.2454,-653.1358 511.0683,-652.4357 508.9541,-645.5415 516.1312,-646.2416 518.2454,-653.1358"/>
<text text-anchor="middle" x="641.7976" y="-814.5" font-family="Helvetica,sans-Serif" font-size="10.00" fill="#000000"> +itg</text>
</g>
<!-- Node9 -->
<g id="node8" class="node">
<title>Node9</title>
<g id="a_node8"><a xlink:href="../../d9/db3/structo2_1_1header_1_1Descriptor.html" target="_top" xlink:title="{o2::header::Descriptor\l\&lt; N, PrinterPolicy \&gt;\n||+ Descriptor()\l+ Descriptor()\l+ Descriptor()\l+ operator=()\l+ operator ItgType()\l+ Descriptor()\l+ runtimeInit()\l+ operator==()\l+ operator\&lt;()\l+ operator!=()\l+ operator==()\l+ operator!=()\l+ as()\l+ print()\l}">
<polygon fill="none" stroke="#000000" points="269.7976,-711.5 269.7976,-922.5 394.7976,-922.5 394.7976,-711.5 269.7976,-711.5"/>
<text text-anchor="start" x="277.7976" y="-910.5" font-family="Helvetica,sans-Serif" font-size="10.00" fill="#000000">o2::header::Descriptor</text>
<text text-anchor="middle" x="332.2976" y="-899.5" font-family="Helvetica,sans-Serif" font-size="10.00" fill="#000000">&lt; N, PrinterPolicy &gt;</text>
<polyline fill="none" stroke="#000000" points="269.7976,-892.5 394.7976,-892.5 "/>
<text text-anchor="middle" x="332.2976" y="-880.5" font-family="Helvetica,sans-Serif" font-size="10.00" fill="#000000"> </text>
<polyline fill="none" stroke="#000000" points="269.7976,-873.5 394.7976,-873.5 "/>
<text text-anchor="start" x="277.7976" y="-861.5" font-family="Helvetica,sans-Serif" font-size="10.00" fill="#000000">+ Descriptor()</text>
<text text-anchor="start" x="277.7976" y="-850.5" font-family="Helvetica,sans-Serif" font-size="10.00" fill="#000000">+ Descriptor()</text>
<text text-anchor="start" x="277.7976" y="-839.5" font-family="Helvetica,sans-Serif" font-size="10.00" fill="#000000">+ Descriptor()</text>
<text text-anchor="start" x="277.7976" y="-828.5" font-family="Helvetica,sans-Serif" font-size="10.00" fill="#000000">+ operator=()</text>
<text text-anchor="start" x="277.7976" y="-817.5" font-family="Helvetica,sans-Serif" font-size="10.00" fill="#000000">+ operator ItgType()</text>
<text text-anchor="start" x="277.7976" y="-806.5" font-family="Helvetica,sans-Serif" font-size="10.00" fill="#000000">+ Descriptor()</text>
<text text-anchor="start" x="277.7976" y="-795.5" font-family="Helvetica,sans-Serif" font-size="10.00" fill="#000000">+ runtimeInit()</text>
<text text-anchor="start" x="277.7976" y="-784.5" font-family="Helvetica,sans-Serif" font-size="10.00" fill="#000000">+ operator==()</text>
<text text-anchor="start" x="277.7976" y="-773.5" font-family="Helvetica,sans-Serif" font-size="10.00" fill="#000000">+ operator&lt;()</text>
<text text-anchor="start" x="277.7976" y="-762.5" font-family="Helvetica,sans-Serif" font-size="10.00" fill="#000000">+ operator!=()</text>
<text text-anchor="start" x="277.7976" y="-751.5" font-family="Helvetica,sans-Serif" font-size="10.00" fill="#000000">+ operator==()</text>
<text text-anchor="start" x="277.7976" y="-740.5" font-family="Helvetica,sans-Serif" font-size="10.00" fill="#000000">+ operator!=()</text>
<text text-anchor="start" x="277.7976" y="-729.5" font-family="Helvetica,sans-Serif" font-size="10.00" fill="#000000">+ as()</text>
<text text-anchor="start" x="277.7976" y="-718.5" font-family="Helvetica,sans-Serif" font-size="10.00" fill="#000000">+ print()</text>
</a>
</g>
</g>
<!-- Node5&#45;&gt;Node9 -->
<g id="edge8" class="edge">
<title>Node5&#45;&gt;Node9</title>
<path fill="none" stroke="#404040" d="M481.5045,-1001.4024C462.334,-982.0837 432.7969,-951.4127 409.2976,-923 407.0551,-920.2887 404.8026,-917.518 402.5492,-914.7051"/>
<polygon fill="none" stroke="#404040" points="402.3291,-914.4259 395.473,-912.1912 394.8989,-905.003 401.755,-907.2377 402.3291,-914.4259"/>
<text text-anchor="middle" x="466.7976" y="-955" font-family="Helvetica,sans-Serif" font-size="10.00" fill="#000000"> +itg</text>
</g>
<!-- Node10 -->
<g id="node9" class="node">
<title>Node10</title>
<g id="a_node9"><a xlink:href="../../d9/db3/structo2_1_1header_1_1Descriptor.html" target="_top" xlink:title="{o2::header::Descriptor\l\&lt; gSizeSerializationMethodString \&gt;\n||+ Descriptor()\l+ Descriptor()\l+ Descriptor()\l+ Descriptor()\l+ operator=()\l+ operator ItgType()\l+ runtimeInit()\l+ operator==()\l+ operator==()\l+ operator\&lt;()\l+ operator!=()\l+ operator!=()\l+ as()\l+ print()\l}">
<polygon fill="none" stroke="#000000" points="114.7976,-441.5 114.7976,-652.5 305.7976,-652.5 305.7976,-441.5 114.7976,-441.5"/>
<text text-anchor="start" x="122.7976" y="-640.5" font-family="Helvetica,sans-Serif" font-size="10.00" fill="#000000">o2::header::Descriptor</text>
<text text-anchor="middle" x="210.2976" y="-629.5" font-family="Helvetica,sans-Serif" font-size="10.00" fill="#000000">&lt; gSizeSerializationMethodString &gt;</text>
<polyline fill="none" stroke="#000000" points="114.7976,-622.5 305.7976,-622.5 "/>
<text text-anchor="middle" x="210.2976" y="-610.5" font-family="Helvetica,sans-Serif" font-size="10.00" fill="#000000"> </text>
<polyline fill="none" stroke="#000000" points="114.7976,-603.5 305.7976,-603.5 "/>
<text text-anchor="start" x="122.7976" y="-591.5" font-family="Helvetica,sans-Serif" font-size="10.00" fill="#000000">+ Descriptor()</text>
<text text-anchor="start" x="122.7976" y="-580.5" font-family="Helvetica,sans-Serif" font-size="10.00" fill="#000000">+ Descriptor()</text>
<text text-anchor="start" x="122.7976" y="-569.5" font-family="Helvetica,sans-Serif" font-size="10.00" fill="#000000">+ Descriptor()</text>
<text text-anchor="start" x="122.7976" y="-558.5" font-family="Helvetica,sans-Serif" font-size="10.00" fill="#000000">+ Descriptor()</text>
<text text-anchor="start" x="122.7976" y="-547.5" font-family="Helvetica,sans-Serif" font-size="10.00" fill="#000000">+ operator=()</text>
<text text-anchor="start" x="122.7976" y="-536.5" font-family="Helvetica,sans-Serif" font-size="10.00" fill="#000000">+ operator ItgType()</text>
<text text-anchor="start" x="122.7976" y="-525.5" font-family="Helvetica,sans-Serif" font-size="10.00" fill="#000000">+ runtimeInit()</text>
<text text-anchor="start" x="122.7976" y="-514.5" font-family="Helvetica,sans-Serif" font-size="10.00" fill="#000000">+ operator==()</text>
<text text-anchor="start" x="122.7976" y="-503.5" font-family="Helvetica,sans-Serif" font-size="10.00" fill="#000000">+ operator==()</text>
<text text-anchor="start" x="122.7976" y="-492.5" font-family="Helvetica,sans-Serif" font-size="10.00" fill="#000000">+ operator&lt;()</text>
<text text-anchor="start" x="122.7976" y="-481.5" font-family="Helvetica,sans-Serif" font-size="10.00" fill="#000000">+ operator!=()</text>
<text text-anchor="start" x="122.7976" y="-470.5" font-family="Helvetica,sans-Serif" font-size="10.00" fill="#000000">+ operator!=()</text>
<text text-anchor="start" x="122.7976" y="-459.5" font-family="Helvetica,sans-Serif" font-size="10.00" fill="#000000">+ as()</text>
<text text-anchor="start" x="122.7976" y="-448.5" font-family="Helvetica,sans-Serif" font-size="10.00" fill="#000000">+ print()</text>
</a>
</g>
</g>
<!-- Node5&#45;&gt;Node10 -->
<g id="edge14" class="edge">
<title>Node5&#45;&gt;Node10</title>
<path fill="none" stroke="#404040" d="M503.5385,-992.3799C508.2738,-923.616 516.0505,-751.7814 479.2976,-711 448.4796,-676.804 419.3245,-711.7842 377.2976,-693 362.8489,-686.5421 362.6175,-679.5469 349.2976,-671 336.9909,-663.1033 330.6427,-663.0809 315.7693,-653.4807"/>
<polygon fill="none" stroke="#404040" points="315.7506,-653.4676 308.5413,-653.3063 305.9174,-646.5894 313.1267,-646.7508 315.7506,-653.4676"/>
<text text-anchor="middle" x="520.7976" y="-814.5" font-family="Helvetica,sans-Serif" font-size="10.00" fill="#000000"> +itg</text>
</g>
<!-- Node6 -->
<g id="node5" class="node">
<title>Node6</title>
<polygon fill="none" stroke="#bfbfbf" points="642.2976,-992.5 642.2976,-1049.5 680.2976,-1049.5 680.2976,-992.5 642.2976,-992.5"/>
<text text-anchor="middle" x="661.2976" y="-1037.5" font-family="Helvetica,sans-Serif" font-size="10.00" fill="#000000">char</text>
<polyline fill="none" stroke="#bfbfbf" points="642.2976,-1030.5 680.2976,-1030.5 "/>
<text text-anchor="middle" x="661.2976" y="-1018.5" font-family="Helvetica,sans-Serif" font-size="10.00" fill="#000000"> </text>
<polyline fill="none" stroke="#bfbfbf" points="642.2976,-1011.5 680.2976,-1011.5 "/>
<text text-anchor="middle" x="661.2976" y="-999.5" font-family="Helvetica,sans-Serif" font-size="10.00" fill="#000000"> </text>
</g>
<!-- Node6&#45;&gt;Node3 -->
<g id="edge12" class="edge">
<title>Node6&#45;&gt;Node3</title>
<path fill="none" stroke="#404040" d="M680.3263,-998.9573C757.9491,-906.3853 1037.9784,-544.6852 854.2976,-346 821.8115,-310.8602 690.2687,-343.3092 628.2882,-327.8183"/>
<polygon fill="none" stroke="#404040" points="628.2641,-327.8104 621.3123,-329.7267 616.8696,-324.0467 623.8214,-322.1304 628.2641,-327.8104"/>
<text text-anchor="middle" x="915.2976" y="-679.5" font-family="Helvetica,sans-Serif" font-size="10.00" fill="#000000"> +magicString</text>
</g>
<!-- Node6&#45;&gt;Node4 -->
<g id="edge4" class="edge">
<title>Node6&#45;&gt;Node4</title>
<path fill="none" stroke="#404040" d="M670.1389,-992.2417C686.1826,-934.1034 713.5925,-800.5217 658.2976,-711 637.8242,-677.8538 616.5341,-685.3087 580.2976,-671 556.2805,-661.5164 544.9134,-666.5474 519.4184,-653.5272"/>
<polygon fill="none" stroke="#404040" points="519.3478,-653.4874 512.1563,-654.0191 508.8996,-647.5854 516.0911,-647.0536 519.3478,-653.4874"/>
<text text-anchor="middle" x="702.7976" y="-814.5" font-family="Helvetica,sans-Serif" font-size="10.00" fill="#000000"> +str</text>
</g>
<!-- Node6&#45;&gt;Node9 -->
<g id="edge9" class="edge">
<title>Node6&#45;&gt;Node9</title>
<path fill="none" stroke="#404040" d="M642.2784,-1011.0465C610.2202,-994.5924 543.0649,-961.5051 483.2976,-941 451.2815,-930.0159 437.4121,-941.8481 409.2976,-923 407.5766,-921.8462 405.8805,-920.6403 404.2099,-919.3875"/>
<polygon fill="none" stroke="#404040" points="404.1833,-919.3657 397.0091,-918.6375 394.9219,-911.735 402.0962,-912.4632 404.1833,-919.3657"/>
<text text-anchor="middle" x="575.7976" y="-955" font-family="Helvetica,sans-Serif" font-size="10.00" fill="#000000"> +str</text>
</g>
<!-- Node6&#45;&gt;Node10 -->
<g id="edge15" class="edge">
<title>Node6&#45;&gt;Node10</title>
<path fill="none" stroke="#404040" d="M642.0441,-995.9686C628.8612,-979.5405 610.5269,-958.0265 592.2976,-941 582.5535,-931.8989 575.1098,-934.4618 568.2976,-923 509.7283,-824.4547 610.4062,-731.9217 513.2976,-671 441.3028,-625.8337 398.3461,-685.4657 317.1835,-653.5785"/>
<polygon fill="none" stroke="#404040" points="317.0155,-653.5054 309.9172,-654.7759 306.0143,-648.7123 313.1126,-647.4417 317.0155,-653.5054"/>
<text text-anchor="middle" x="580.7976" y="-814.5" font-family="Helvetica,sans-Serif" font-size="10.00" fill="#000000"> +str</text>
</g>
<!-- Node7 -->
<g id="node6" class="node">
<title>Node7</title>
<polygon fill="none" stroke="#bfbfbf" points="167.7976,-992.5 167.7976,-1049.5 196.7976,-1049.5 196.7976,-992.5 167.7976,-992.5"/>
<text text-anchor="middle" x="182.2976" y="-1037.5" font-family="Helvetica,sans-Serif" font-size="10.00" fill="#000000">int</text>
<polyline fill="none" stroke="#bfbfbf" points="167.7976,-1030.5 196.7976,-1030.5 "/>
<text text-anchor="middle" x="182.2976" y="-1018.5" font-family="Helvetica,sans-Serif" font-size="10.00" fill="#000000"> </text>
<polyline fill="none" stroke="#bfbfbf" points="167.7976,-1011.5 196.7976,-1011.5 "/>
<text text-anchor="middle" x="182.2976" y="-999.5" font-family="Helvetica,sans-Serif" font-size="10.00" fill="#000000"> </text>
</g>
<!-- Node7&#45;&gt;Node4 -->
<g id="edge5" class="edge">
<title>Node7&#45;&gt;Node4</title>
<path fill="none" stroke="#404040" d="M179.1837,-992.3193C171.7045,-917.2943 156.3053,-717.8036 198.2976,-671 230.7574,-634.8211 263.2371,-671.3127 312.5509,-652.7008"/>
<polygon fill="none" stroke="#404040" points="312.7516,-652.6101 316.5693,-646.4924 323.6847,-647.6634 319.867,-653.7811 312.7516,-652.6101"/>
<text text-anchor="middle" x="209.2976" y="-825.5" font-family="Helvetica,sans-Serif" font-size="10.00" fill="#000000"> +arraySize</text>
<text text-anchor="middle" x="209.2976" y="-814.5" font-family="Helvetica,sans-Serif" font-size="10.00" fill="#000000">+size</text>
<text text-anchor="middle" x="209.2976" y="-803.5" font-family="Helvetica,sans-Serif" font-size="10.00" fill="#000000">+bitcount</text>
</g>
<!-- Node7&#45;&gt;Node9 -->
<g id="edge10" class="edge">
<title>Node7&#45;&gt;Node9</title>
<path fill="none" stroke="#404040" d="M196.9533,-1001.0682C212.3853,-980.0808 237.8232,-945.4852 262.5053,-911.9175"/>
<polygon fill="none" stroke="#404040" points="262.6734,-911.6889 263.0051,-904.4854 269.7821,-902.021 269.4504,-909.2245 262.6734,-911.6889"/>
<text text-anchor="middle" x="269.2976" y="-966" font-family="Helvetica,sans-Serif" font-size="10.00" fill="#000000"> +arraySize</text>
<text text-anchor="middle" x="269.2976" y="-955" font-family="Helvetica,sans-Serif" font-size="10.00" fill="#000000">+size</text>
<text text-anchor="middle" x="269.2976" y="-944" font-family="Helvetica,sans-Serif" font-size="10.00" fill="#000000">+bitcount</text>
</g>
<!-- Node7&#45;&gt;Node10 -->
<g id="edge16" class="edge">
<title>Node7&#45;&gt;Node10</title>
<path fill="none" stroke="#404040" d="M167.6819,-1016.6852C136.0571,-1006.4615 61.76,-977.4419 32.2976,-923 -12.5472,-840.134 -8.6606,-795.8543 32.2976,-711 50.3107,-673.6816 74.4399,-680.6576 105.2976,-653 105.394,-652.9136 105.4905,-652.827 105.587,-652.7405"/>
<polygon fill="none" stroke="#404040" points="105.7438,-652.5976 107.4852,-645.5999 114.6143,-644.5159 112.873,-651.5136 105.7438,-652.5976"/>
<text text-anchor="middle" x="61.2976" y="-825.5" font-family="Helvetica,sans-Serif" font-size="10.00" fill="#000000"> +arraySize</text>
<text text-anchor="middle" x="61.2976" y="-814.5" font-family="Helvetica,sans-Serif" font-size="10.00" fill="#000000">+size</text>
<text text-anchor="middle" x="61.2976" y="-803.5" font-family="Helvetica,sans-Serif" font-size="10.00" fill="#000000">+bitcount</text>
</g>
<!-- Node8 -->
<g id="node7" class="node">
<title>Node8</title>
<polygon fill="none" stroke="#bfbfbf" points="278.7976,-992.5 278.7976,-1049.5 385.7976,-1049.5 385.7976,-992.5 278.7976,-992.5"/>
<text text-anchor="middle" x="332.2976" y="-1037.5" font-family="Helvetica,sans-Serif" font-size="10.00" fill="#000000">anonymous:+@71</text>
<polyline fill="none" stroke="#bfbfbf" points="278.7976,-1030.5 385.7976,-1030.5 "/>
<text text-anchor="middle" x="332.2976" y="-1018.5" font-family="Helvetica,sans-Serif" font-size="10.00" fill="#000000"> </text>
<polyline fill="none" stroke="#bfbfbf" points="278.7976,-1011.5 385.7976,-1011.5 "/>
<text text-anchor="middle" x="332.2976" y="-999.5" font-family="Helvetica,sans-Serif" font-size="10.00" fill="#000000"> </text>
</g>
<!-- Node8&#45;&gt;Node4 -->
<g id="edge6" class="edge">
<title>Node8&#45;&gt;Node4</title>
<path fill="none" stroke="#404040" d="M386.1252,-1001.3451C398.1833,-994.484 409.652,-985.5213 417.2976,-974 482.2946,-876.0548 368.76,-800.2182 445.2976,-711 465.6533,-687.2718 494.2283,-717.7739 513.2976,-693 518.3731,-686.4061 516.8536,-675.9667 511.3251,-663.6258"/>
<polygon fill="none" stroke="#404040" points="511.276,-663.53 504.9771,-660.0194 505.795,-652.8548 512.0939,-656.3654 511.276,-663.53"/>
<text text-anchor="middle" x="462.2976" y="-814.5" font-family="Helvetica,sans-Serif" font-size="10.00" fill="#000000"> +@71</text>
</g>
<!-- Node8&#45;&gt;Node9 -->
<g id="edge11" class="edge">
<title>Node8&#45;&gt;Node9</title>
<path fill="none" stroke="#404040" d="M332.2976,-992.2045C332.2976,-976.616 332.2976,-956.2061 332.2976,-934.8459"/>
<polygon fill="none" stroke="#404040" points="332.2977,-934.5491 328.2976,-928.5491 332.2976,-922.5491 336.2976,-928.5491 332.2977,-934.5491"/>
<text text-anchor="middle" x="349.2976" y="-955" font-family="Helvetica,sans-Serif" font-size="10.00" fill="#000000"> +@71</text>
</g>
<!-- Node8&#45;&gt;Node10 -->
<g id="edge17" class="edge">
<title>Node8&#45;&gt;Node10</title>
<path fill="none" stroke="#404040" d="M278.4957,-1012.4148C228.9116,-1001.2887 158.3175,-976.5318 126.2976,-923 79.2549,-844.3526 106.628,-742.1878 142.2368,-664.2066"/>
<polygon fill="none" stroke="#404040" points="142.4512,-663.7488 141.3747,-656.6185 147.5425,-652.8823 148.619,-660.0126 142.4512,-663.7488"/>
<text text-anchor="middle" x="143.2976" y="-814.5" font-family="Helvetica,sans-Serif" font-size="10.00" fill="#000000"> +@71</text>
</g>
<!-- Node9&#45;&gt;Node4 -->
<g id="edge7" class="edge">
<title>Node9&#45;&gt;Node4</title>
<path fill="none" stroke="#ffa500" d="M368.24,-701.4709C373.2553,-685.3503 378.3883,-668.8513 383.3448,-652.9196"/>
<polygon fill="#ffa500" stroke="#ffa500" points="364.7638,-700.8626 365.1351,-711.4509 371.4478,-702.9421 364.7638,-700.8626"/>
<text text-anchor="start" x="377.2976" y="-685" font-family="Helvetica,sans-Serif" font-size="10.00" fill="#000000"> &lt; gSizeHeaderDescription</text>
<text text-anchor="middle" x="443.2976" y="-674" font-family="Helvetica,sans-Serif" font-size="10.00" fill="#000000">String &gt;</text>
</g>
<!-- Node9&#45;&gt;Node10 -->
<g id="edge18" class="edge">
<title>Node9&#45;&gt;Node10</title>
<path fill="none" stroke="#ffa500" d="M262.3906,-727.4565C256.5218,-721.6324 250.4654,-716.0764 244.2976,-711 231.3981,-700.3833 219.8749,-707.3367 211.2976,-693 204.0099,-680.8188 199.8627,-666.9806 197.8308,-652.7931"/>
<polygon fill="#ffa500" stroke="#ffa500" points="260.228,-730.2515 269.7186,-734.9611 265.2364,-725.361 260.228,-730.2515"/>
<text text-anchor="start" x="211.2976" y="-685" font-family="Helvetica,sans-Serif" font-size="10.00" fill="#000000"> &lt; gSizeSerializationMethod</text>
<text text-anchor="middle" x="280.2976" y="-674" font-family="Helvetica,sans-Serif" font-size="10.00" fill="#000000">String &gt;</text>
</g>
<!-- Node10&#45;&gt;Node3 -->
<g id="edge13" class="edge">
<title>Node10&#45;&gt;Node3</title>
<path fill="none" stroke="#404040" d="M288.4125,-441.4113C314.8253,-409.0208 345.6815,-374.4516 377.2976,-346 394.4741,-330.5427 414.169,-315.672 433.5851,-302.2918"/>
<polygon fill="none" stroke="#404040" points="433.7656,-302.1695 436.4872,-295.4917 443.6982,-295.4356 440.9765,-302.1134 433.7656,-302.1695"/>
<text text-anchor="middle" x="413.2976" y="-382" font-family="Helvetica,sans-Serif" font-size="10.00" fill="#000000"> +serialization</text>
</g>
<!-- Node11 -->
<g id="node10" class="node">
<title>Node11</title>
<g id="a_node10"><a xlink:href="../../d3/d87/classuint32__t.html" target="_top" xlink:title="{uint32_t\n||}">
<polygon fill="none" stroke="#000000" points="40.2976,-518.5 40.2976,-575.5 96.2976,-575.5 96.2976,-518.5 40.2976,-518.5"/>
<text text-anchor="middle" x="68.2976" y="-563.5" font-family="Helvetica,sans-Serif" font-size="10.00" fill="#000000">uint32_t</text>
<polyline fill="none" stroke="#000000" points="40.2976,-556.5 96.2976,-556.5 "/>
<text text-anchor="middle" x="68.2976" y="-544.5" font-family="Helvetica,sans-Serif" font-size="10.00" fill="#000000"> </text>
<polyline fill="none" stroke="#000000" points="40.2976,-537.5 96.2976,-537.5 "/>
<text text-anchor="middle" x="68.2976" y="-525.5" font-family="Helvetica,sans-Serif" font-size="10.00" fill="#000000"> </text>
</a>
</g>
</g>
<!-- Node11&#45;&gt;Node2 -->
<g id="edge24" class="edge">
<title>Node11&#45;&gt;Node2</title>
<path fill="none" stroke="#404040" d="M69.1,-518.285C71.5166,-476.9556 80.8555,-399.7693 116.2976,-346 215.7297,-195.1511 419.3597,-108.7368 534.0368,-70.1238"/>
<polygon fill="none" stroke="#404040" points="534.1389,-70.09 538.5755,-64.4052 545.5294,-66.314 541.0928,-71.9988 534.1389,-70.09"/>
<text text-anchor="middle" x="359.2976" y="-241.5" font-family="Helvetica,sans-Serif" font-size="10.00" fill="#000000"> +mTaskHash</text>
</g>
<!-- Node11&#45;&gt;Node3 -->
<g id="edge19" class="edge">
<title>Node11&#45;&gt;Node3</title>
<path fill="none" stroke="#404040" d="M74.1173,-518.181C79.6041,-495.7633 89.4035,-464.6056 105.2976,-441 141.0019,-387.9725 157.7054,-377.563 213.2976,-346 281.6889,-307.1702 366.9063,-280.806 431.7563,-264.6236"/>
<polygon fill="none" stroke="#404040" points="431.9636,-264.5729 436.8405,-259.261 443.6195,-261.7197 438.7426,-267.0316 431.9636,-264.5729"/>
<text text-anchor="middle" x="258.7976" y="-415" font-family="Helvetica,sans-Serif" font-size="10.00" fill="#000000"> +headerVersion</text>
<text text-anchor="middle" x="258.7976" y="-404" font-family="Helvetica,sans-Serif" font-size="10.00" fill="#000000">+headerSize</text>
<text text-anchor="middle" x="258.7976" y="-393" font-family="Helvetica,sans-Serif" font-size="10.00" fill="#000000">+sMagicString</text>
<text text-anchor="middle" x="258.7976" y="-382" font-family="Helvetica,sans-Serif" font-size="10.00" fill="#000000">+flagsNextHeader</text>
<text text-anchor="middle" x="258.7976" y="-371" font-family="Helvetica,sans-Serif" font-size="10.00" fill="#000000">+magicStringInt</text>
<text text-anchor="middle" x="258.7976" y="-360" font-family="Helvetica,sans-Serif" font-size="10.00" fill="#000000">+flagsUnused</text>
<text text-anchor="middle" x="258.7976" y="-349" font-family="Helvetica,sans-Serif" font-size="10.00" fill="#000000">+flags</text>
</g>
<!-- Node12 -->
<g id="node11" class="node">
<title>Node12</title>
<polygon fill="none" stroke="#bfbfbf" points="526.7976,-518.5 526.7976,-575.5 633.7976,-575.5 633.7976,-518.5 526.7976,-518.5"/>
<text text-anchor="middle" x="580.2976" y="-563.5" font-family="Helvetica,sans-Serif" font-size="10.00" fill="#000000">anonymous:+@73</text>
<polyline fill="none" stroke="#bfbfbf" points="526.7976,-556.5 633.7976,-556.5 "/>
<text text-anchor="middle" x="580.2976" y="-544.5" font-family="Helvetica,sans-Serif" font-size="10.00" fill="#000000"> </text>
<polyline fill="none" stroke="#bfbfbf" points="526.7976,-537.5 633.7976,-537.5 "/>
<text text-anchor="middle" x="580.2976" y="-525.5" font-family="Helvetica,sans-Serif" font-size="10.00" fill="#000000"> </text>
</g>
<!-- Node12&#45;&gt;Node3 -->
<g id="edge20" class="edge">
<title>Node12&#45;&gt;Node3</title>
<path fill="none" stroke="#404040" d="M576.4334,-518.3088C571.0774,-479.2492 560.8578,-407.1925 550.2976,-346 549.9442,-343.9522 549.5821,-341.8823 549.2129,-339.7963"/>
<polygon fill="none" stroke="#404040" points="549.164,-339.5256 544.1607,-334.3326 547.03,-327.7168 552.0332,-332.9099 549.164,-339.5256"/>
<text text-anchor="middle" x="579.2976" y="-382" font-family="Helvetica,sans-Serif" font-size="10.00" fill="#000000"> +@73</text>
</g>
<!-- Node13 -->
<g id="node12" class="node">
<title>Node13</title>
<polygon fill="none" stroke="#bfbfbf" points="651.7976,-518.5 651.7976,-575.5 758.7976,-575.5 758.7976,-518.5 651.7976,-518.5"/>
<text text-anchor="middle" x="705.2976" y="-563.5" font-family="Helvetica,sans-Serif" font-size="10.00" fill="#000000">anonymous:+@75</text>
<polyline fill="none" stroke="#bfbfbf" points="651.7976,-556.5 758.7976,-556.5 "/>
<text text-anchor="middle" x="705.2976" y="-544.5" font-family="Helvetica,sans-Serif" font-size="10.00" fill="#000000"> </text>
<polyline fill="none" stroke="#bfbfbf" points="651.7976,-537.5 758.7976,-537.5 "/>
<text text-anchor="middle" x="705.2976" y="-525.5" font-family="Helvetica,sans-Serif" font-size="10.00" fill="#000000"> </text>
</g>
<!-- Node13&#45;&gt;Node3 -->
<g id="edge21" class="edge">
<title>Node13&#45;&gt;Node3</title>
<path fill="none" stroke="#404040" d="M691.7314,-518.451C672.6571,-478.9442 636.2106,-405.7187 600.2976,-346 598.6425,-343.2478 596.9419,-340.4691 595.2068,-337.6764"/>
<polygon fill="none" stroke="#404040" points="595.203,-337.6703 588.6165,-334.7347 588.7931,-327.5257 595.3796,-330.4614 595.203,-337.6703"/>
<text text-anchor="middle" x="660.2976" y="-382" font-family="Helvetica,sans-Serif" font-size="10.00" fill="#000000"> +@75</text>
</g>
<!-- Node14 -->
<g id="node13" class="node">
<title>Node14</title>
<polygon fill="none" stroke="#bfbfbf" points="776.7976,-518.5 776.7976,-575.5 819.7976,-575.5 819.7976,-518.5 776.7976,-518.5"/>
<text text-anchor="middle" x="798.2976" y="-563.5" font-family="Helvetica,sans-Serif" font-size="10.00" fill="#000000">const</text>
<polyline fill="none" stroke="#bfbfbf" points="776.7976,-556.5 819.7976,-556.5 "/>
<text text-anchor="middle" x="798.2976" y="-544.5" font-family="Helvetica,sans-Serif" font-size="10.00" fill="#000000"> </text>
<polyline fill="none" stroke="#bfbfbf" points="776.7976,-537.5 819.7976,-537.5 "/>
<text text-anchor="middle" x="798.2976" y="-525.5" font-family="Helvetica,sans-Serif" font-size="10.00" fill="#000000"> </text>
</g>
<!-- Node14&#45;&gt;Node3 -->
<g id="edge22" class="edge">
<title>Node14&#45;&gt;Node3</title>
<path fill="none" stroke="#404040" d="M795.3886,-518.2358C791.9299,-495.5569 784.4333,-464.0233 768.2976,-441 760.4397,-429.7879 753.2362,-432.4171 743.2976,-423 711.4038,-392.7799 717.5121,-370.8793 681.2976,-346 662.4431,-333.047 651.1037,-338.8826 627.7918,-328.5338"/>
<polygon fill="none" stroke="#404040" points="627.6891,-328.4812 620.5249,-329.3028 617.0111,-323.0057 624.1753,-322.1841 627.6891,-328.4812"/>
<text text-anchor="middle" x="798.7976" y="-393" font-family="Helvetica,sans-Serif" font-size="10.00" fill="#000000"> +sHeaderType</text>
<text text-anchor="middle" x="798.7976" y="-382" font-family="Helvetica,sans-Serif" font-size="10.00" fill="#000000">+sSerializationMethod</text>
<text text-anchor="middle" x="798.7976" y="-371" font-family="Helvetica,sans-Serif" font-size="10.00" fill="#000000">+sVersion</text>
</g>
<!-- Node15 -->
<g id="node14" class="node">
<title>Node15</title>
<polygon fill="none" stroke="#bfbfbf" points="634.7976,-215.5 634.7976,-272.5 773.7976,-272.5 773.7976,-215.5 634.7976,-215.5"/>
<text text-anchor="middle" x="704.2976" y="-260.5" font-family="Helvetica,sans-Serif" font-size="10.00" fill="#000000">OutputObjHandlingPolicy</text>
<polyline fill="none" stroke="#bfbfbf" points="634.7976,-253.5 773.7976,-253.5 "/>
<text text-anchor="middle" x="704.2976" y="-241.5" font-family="Helvetica,sans-Serif" font-size="10.00" fill="#000000"> </text>
<polyline fill="none" stroke="#bfbfbf" points="634.7976,-234.5 773.7976,-234.5 "/>
<text text-anchor="middle" x="704.2976" y="-222.5" font-family="Helvetica,sans-Serif" font-size="10.00" fill="#000000"> </text>
</g>
<!-- Node15&#45;&gt;Node2 -->
<g id="edge23" class="edge">
<title>Node15&#45;&gt;Node2</title>
<path fill="none" stroke="#404040" d="M691.647,-215.1364C678.6634,-185.5129 658.1255,-138.6534 641.9223,-101.684"/>
<polygon fill="none" stroke="#404040" points="641.8632,-101.549 635.791,-97.6593 637.046,-90.5582 643.1182,-94.4479 641.8632,-101.549"/>
<text text-anchor="middle" x="683.7976" y="-123" font-family="Helvetica,sans-Serif" font-size="10.00" fill="#000000"> +mPolicy</text>
</g>
<!-- Node16 -->
<g id="node15" class="node">
<title>Node16</title>
<polygon fill="none" stroke="#bfbfbf" points="792.2976,-215.5 792.2976,-272.5 836.2976,-272.5 836.2976,-215.5 792.2976,-215.5"/>
<text text-anchor="middle" x="814.2976" y="-260.5" font-family="Helvetica,sans-Serif" font-size="10.00" fill="#000000">static</text>
<polyline fill="none" stroke="#bfbfbf" points="792.2976,-253.5 836.2976,-253.5 "/>
<text text-anchor="middle" x="814.2976" y="-241.5" font-family="Helvetica,sans-Serif" font-size="10.00" fill="#000000"> </text>
<polyline fill="none" stroke="#bfbfbf" points="792.2976,-234.5 836.2976,-234.5 "/>
<text text-anchor="middle" x="814.2976" y="-222.5" font-family="Helvetica,sans-Serif" font-size="10.00" fill="#000000"> </text>
</g>
<!-- Node16&#45;&gt;Node2 -->
<g id="edge25" class="edge">
<title>Node16&#45;&gt;Node2</title>
<path fill="none" stroke="#404040" d="M808.2338,-215.4887C803.5273,-198.1893 795.672,-176.3678 783.2976,-160 761.2,-130.7714 729.4253,-106.3041 699.5794,-87.5904"/>
<polygon fill="none" stroke="#404040" points="699.367,-87.4609 692.1618,-87.7518 689.122,-81.2127 696.3273,-80.9218 699.367,-87.4609"/>
<text text-anchor="middle" x="820.7976" y="-134" font-family="Helvetica,sans-Serif" font-size="10.00" fill="#000000"> +sHeaderType</text>
<text text-anchor="middle" x="820.7976" y="-123" font-family="Helvetica,sans-Serif" font-size="10.00" fill="#000000">+sSerializationMethod</text>
<text text-anchor="middle" x="820.7976" y="-112" font-family="Helvetica,sans-Serif" font-size="10.00" fill="#000000">+sVersion</text>
</g>
</g>
</svg>
