<?xml version="1.0" encoding="UTF-8" standalone="no"?>
<!DOCTYPE svg PUBLIC "-//W3C//DTD SVG 1.1//EN"
 "http://www.w3.org/Graphics/SVG/1.1/DTD/svg11.dtd">
<!-- Generated by graphviz version 2.40.1 (20161225.0304)
 -->
<!-- Title: o2::cpv::CPVBlockHeader Pages: 1 -->
<svg width="915pt" height="1014pt"
 viewBox="0.00 0.00 914.88 1014.00" xmlns="http://www.w3.org/2000/svg" xmlns:xlink="http://www.w3.org/1999/xlink">
<g id="graph0" class="graph" transform="scale(1 1) rotate(0) translate(4 1010)">
<title>o2::cpv::CPVBlockHeader</title>
<!-- Node2 -->
<g id="node1" class="node">
<title>Node2</title>
<polygon fill="#bfbfbf" stroke="#000000" points="549.3757,-.5 549.3757,-57.5 688.3757,-57.5 688.3757,-.5 549.3757,-.5"/>
<text text-anchor="middle" x="618.8757" y="-45.5" font-family="Helvetica,sans-Serif" font-size="10.00" fill="#000000">o2::cpv::CPVBlockHeader</text>
<polyline fill="none" stroke="#000000" points="549.3757,-38.5 688.3757,-38.5 "/>
<text text-anchor="middle" x="618.8757" y="-26.5" font-family="Helvetica,sans-Serif" font-size="10.00" fill="#000000"> </text>
<polyline fill="none" stroke="#000000" points="549.3757,-19.5 688.3757,-19.5 "/>
<text text-anchor="start" x="557.3757" y="-7.5" font-family="Helvetica,sans-Serif" font-size="10.00" fill="#000000">+ CPVBlockHeader()</text>
</g>
<!-- Node3 -->
<g id="node2" class="node">
<title>Node3</title>
<g id="a_node2"><a xlink:href="../../d8/dbd/structo2_1_1header_1_1BaseHeader.html" target="_top" xlink:title="the base header struct Every header type must begin (i.e. derive) with this. Don&#39;t use this struct di...">
<polygon fill="none" stroke="#000000" points="408.3757,-116.5 408.3757,-283.5 581.3757,-283.5 581.3757,-116.5 408.3757,-116.5"/>
<text text-anchor="middle" x="494.8757" y="-271.5" font-family="Helvetica,sans-Serif" font-size="10.00" fill="#000000">o2::header::BaseHeader</text>
<polyline fill="none" stroke="#000000" points="408.3757,-264.5 581.3757,-264.5 "/>
<text text-anchor="middle" x="494.8757" y="-252.5" font-family="Helvetica,sans-Serif" font-size="10.00" fill="#000000"> </text>
<polyline fill="none" stroke="#000000" points="408.3757,-245.5 581.3757,-245.5 "/>
<text text-anchor="start" x="416.3757" y="-233.5" font-family="Helvetica,sans-Serif" font-size="10.00" fill="#000000">+ BaseHeader()</text>
<text text-anchor="start" x="416.3757" y="-222.5" font-family="Helvetica,sans-Serif" font-size="10.00" fill="#000000">+ BaseHeader()</text>
<text text-anchor="start" x="416.3757" y="-211.5" font-family="Helvetica,sans-Serif" font-size="10.00" fill="#000000">+ BaseHeader()</text>
<text text-anchor="start" x="416.3757" y="-200.5" font-family="Helvetica,sans-Serif" font-size="10.00" fill="#000000">+ size()</text>
<text text-anchor="start" x="416.3757" y="-189.5" font-family="Helvetica,sans-Serif" font-size="10.00" fill="#000000">+ data()</text>
<text text-anchor="start" x="416.3757" y="-178.5" font-family="Helvetica,sans-Serif" font-size="10.00" fill="#000000">+ next()</text>
<text text-anchor="start" x="416.3757" y="-167.5" font-family="Helvetica,sans-Serif" font-size="10.00" fill="#000000">+ next()</text>
<text text-anchor="start" x="416.3757" y="-156.5" font-family="Helvetica,sans-Serif" font-size="10.00" fill="#000000">+ sanityCheck()</text>
<text text-anchor="start" x="416.3757" y="-145.5" font-family="Helvetica,sans-Serif" font-size="10.00" fill="#000000">+ throwInconsistentStackError()</text>
<text text-anchor="start" x="416.3757" y="-134.5" font-family="Helvetica,sans-Serif" font-size="10.00" fill="#000000">+ get()</text>
<text text-anchor="start" x="416.3757" y="-123.5" font-family="Helvetica,sans-Serif" font-size="10.00" fill="#000000">+ get()</text>
</a>
</g>
</g>
<!-- Node3&#45;&gt;Node2 -->
<g id="edge1" class="edge">
<title>Node3&#45;&gt;Node2</title>
<path fill="none" stroke="#191970" d="M561.7133,-107.8287C574.9831,-89.5293 587.9555,-71.6399 598.1793,-57.5411"/>
<polygon fill="none" stroke="#191970" points="558.6413,-106.1031 555.6043,-116.2533 564.3082,-110.2124 558.6413,-106.1031"/>
</g>
<!-- Node4 -->
<g id="node3" class="node">
<title>Node4</title>
<g id="a_node3"><a xlink:href="../../d9/db3/structo2_1_1header_1_1Descriptor.html" target="_top" xlink:title="{o2::header::Descriptor\l\&lt; gSizeHeaderDescriptionString \&gt;\n||+ Descriptor()\l+ Descriptor()\l+ Descriptor()\l+ Descriptor()\l+ operator=()\l+ operator ItgType()\l+ runtimeInit()\l+ operator==()\l+ operator==()\l+ operator\&lt;()\l+ operator!=()\l+ operator!=()\l+ as()\l+ print()\l}">
<polygon fill="none" stroke="#000000" points="278.3757,-397.5 278.3757,-608.5 463.3757,-608.5 463.3757,-397.5 278.3757,-397.5"/>
<text text-anchor="start" x="286.3757" y="-596.5" font-family="Helvetica,sans-Serif" font-size="10.00" fill="#000000">o2::header::Descriptor</text>
<text text-anchor="middle" x="370.8757" y="-585.5" font-family="Helvetica,sans-Serif" font-size="10.00" fill="#000000">&lt; gSizeHeaderDescriptionString &gt;</text>
<polyline fill="none" stroke="#000000" points="278.3757,-578.5 463.3757,-578.5 "/>
<text text-anchor="middle" x="370.8757" y="-566.5" font-family="Helvetica,sans-Serif" font-size="10.00" fill="#000000"> </text>
<polyline fill="none" stroke="#000000" points="278.3757,-559.5 463.3757,-559.5 "/>
<text text-anchor="start" x="286.3757" y="-547.5" font-family="Helvetica,sans-Serif" font-size="10.00" fill="#000000">+ Descriptor()</text>
<text text-anchor="start" x="286.3757" y="-536.5" font-family="Helvetica,sans-Serif" font-size="10.00" fill="#000000">+ Descriptor()</text>
<text text-anchor="start" x="286.3757" y="-525.5" font-family="Helvetica,sans-Serif" font-size="10.00" fill="#000000">+ Descriptor()</text>
<text text-anchor="start" x="286.3757" y="-514.5" font-family="Helvetica,sans-Serif" font-size="10.00" fill="#000000">+ Descriptor()</text>
<text text-anchor="start" x="286.3757" y="-503.5" font-family="Helvetica,sans-Serif" font-size="10.00" fill="#000000">+ operator=()</text>
<text text-anchor="start" x="286.3757" y="-492.5" font-family="Helvetica,sans-Serif" font-size="10.00" fill="#000000">+ operator ItgType()</text>
<text text-anchor="start" x="286.3757" y="-481.5" font-family="Helvetica,sans-Serif" font-size="10.00" fill="#000000">+ runtimeInit()</text>
<text text-anchor="start" x="286.3757" y="-470.5" font-family="Helvetica,sans-Serif" font-size="10.00" fill="#000000">+ operator==()</text>
<text text-anchor="start" x="286.3757" y="-459.5" font-family="Helvetica,sans-Serif" font-size="10.00" fill="#000000">+ operator==()</text>
<text text-anchor="start" x="286.3757" y="-448.5" font-family="Helvetica,sans-Serif" font-size="10.00" fill="#000000">+ operator&lt;()</text>
<text text-anchor="start" x="286.3757" y="-437.5" font-family="Helvetica,sans-Serif" font-size="10.00" fill="#000000">+ operator!=()</text>
<text text-anchor="start" x="286.3757" y="-426.5" font-family="Helvetica,sans-Serif" font-size="10.00" fill="#000000">+ operator!=()</text>
<text text-anchor="start" x="286.3757" y="-415.5" font-family="Helvetica,sans-Serif" font-size="10.00" fill="#000000">+ as()</text>
<text text-anchor="start" x="286.3757" y="-404.5" font-family="Helvetica,sans-Serif" font-size="10.00" fill="#000000">+ print()</text>
</a>
</g>
</g>
<!-- Node4&#45;&gt;Node3 -->
<g id="edge2" class="edge">
<title>Node4&#45;&gt;Node3</title>
<path fill="none" stroke="#404040" d="M391.3745,-397.2891C399.4176,-365.8255 410.0974,-331.8104 423.8757,-302 425.0787,-299.3973 426.3481,-296.79 427.6737,-294.1855"/>
<polygon fill="none" stroke="#404040" points="427.7297,-294.0814 427.0496,-286.9024 433.4148,-283.5135 434.0949,-290.6925 427.7297,-294.0814"/>
<text text-anchor="middle" x="456.8757" y="-338" font-family="Helvetica,sans-Serif" font-size="10.00" fill="#000000"> +description</text>
</g>
<!-- Node5 -->
<g id="node4" class="node">
<title>Node5</title>
<polygon fill="none" stroke="#bfbfbf" points="555.3757,-948.5 555.3757,-1005.5 594.3757,-1005.5 594.3757,-948.5 555.3757,-948.5"/>
<text text-anchor="middle" x="574.8757" y="-993.5" font-family="Helvetica,sans-Serif" font-size="10.00" fill="#000000">Type</text>
<polyline fill="none" stroke="#bfbfbf" points="555.3757,-986.5 594.3757,-986.5 "/>
<text text-anchor="middle" x="574.8757" y="-974.5" font-family="Helvetica,sans-Serif" font-size="10.00" fill="#000000"> </text>
<polyline fill="none" stroke="#bfbfbf" points="555.3757,-967.5 594.3757,-967.5 "/>
<text text-anchor="middle" x="574.8757" y="-955.5" font-family="Helvetica,sans-Serif" font-size="10.00" fill="#000000"> </text>
</g>
<!-- Node5&#45;&gt;Node4 -->
<g id="edge3" class="edge">
<title>Node5&#45;&gt;Node4</title>
<path fill="none" stroke="#404040" d="M594.8374,-967.7825C623.2273,-953.4221 674.1225,-922.7429 694.8757,-879 735.2632,-793.8726 750.687,-742.914 694.8757,-667 659.5713,-618.9792 624.6968,-641.4608 566.8757,-627 528.6061,-617.4289 512.3508,-627.572 474.3435,-609.654"/>
<polygon fill="none" stroke="#404040" points="474.2792,-609.621 467.1149,-610.4416 463.6019,-604.144 470.7662,-603.3235 474.2792,-609.621"/>
<text text-anchor="middle" x="743.3757" y="-770.5" font-family="Helvetica,sans-Serif" font-size="10.00" fill="#000000"> +itg</text>
</g>
<!-- Node9 -->
<g id="node8" class="node">
<title>Node9</title>
<g id="a_node8"><a xlink:href="../../d9/db3/structo2_1_1header_1_1Descriptor.html" target="_top" xlink:title="{o2::header::Descriptor\l\&lt; N, PrinterPolicy \&gt;\n||+ Descriptor()\l+ Descriptor()\l+ Descriptor()\l+ operator=()\l+ operator ItgType()\l+ Descriptor()\l+ runtimeInit()\l+ operator==()\l+ operator\&lt;()\l+ operator!=()\l+ operator==()\l+ operator!=()\l+ as()\l+ print()\l}">
<polygon fill="none" stroke="#000000" points="315.3757,-667.5 315.3757,-878.5 440.3757,-878.5 440.3757,-667.5 315.3757,-667.5"/>
<text text-anchor="start" x="323.3757" y="-866.5" font-family="Helvetica,sans-Serif" font-size="10.00" fill="#000000">o2::header::Descriptor</text>
<text text-anchor="middle" x="377.8757" y="-855.5" font-family="Helvetica,sans-Serif" font-size="10.00" fill="#000000">&lt; N, PrinterPolicy &gt;</text>
<polyline fill="none" stroke="#000000" points="315.3757,-848.5 440.3757,-848.5 "/>
<text text-anchor="middle" x="377.8757" y="-836.5" font-family="Helvetica,sans-Serif" font-size="10.00" fill="#000000"> </text>
<polyline fill="none" stroke="#000000" points="315.3757,-829.5 440.3757,-829.5 "/>
<text text-anchor="start" x="323.3757" y="-817.5" font-family="Helvetica,sans-Serif" font-size="10.00" fill="#000000">+ Descriptor()</text>
<text text-anchor="start" x="323.3757" y="-806.5" font-family="Helvetica,sans-Serif" font-size="10.00" fill="#000000">+ Descriptor()</text>
<text text-anchor="start" x="323.3757" y="-795.5" font-family="Helvetica,sans-Serif" font-size="10.00" fill="#000000">+ Descriptor()</text>
<text text-anchor="start" x="323.3757" y="-784.5" font-family="Helvetica,sans-Serif" font-size="10.00" fill="#000000">+ operator=()</text>
<text text-anchor="start" x="323.3757" y="-773.5" font-family="Helvetica,sans-Serif" font-size="10.00" fill="#000000">+ operator ItgType()</text>
<text text-anchor="start" x="323.3757" y="-762.5" font-family="Helvetica,sans-Serif" font-size="10.00" fill="#000000">+ Descriptor()</text>
<text text-anchor="start" x="323.3757" y="-751.5" font-family="Helvetica,sans-Serif" font-size="10.00" fill="#000000">+ runtimeInit()</text>
<text text-anchor="start" x="323.3757" y="-740.5" font-family="Helvetica,sans-Serif" font-size="10.00" fill="#000000">+ operator==()</text>
<text text-anchor="start" x="323.3757" y="-729.5" font-family="Helvetica,sans-Serif" font-size="10.00" fill="#000000">+ operator&lt;()</text>
<text text-anchor="start" x="323.3757" y="-718.5" font-family="Helvetica,sans-Serif" font-size="10.00" fill="#000000">+ operator!=()</text>
<text text-anchor="start" x="323.3757" y="-707.5" font-family="Helvetica,sans-Serif" font-size="10.00" fill="#000000">+ operator==()</text>
<text text-anchor="start" x="323.3757" y="-696.5" font-family="Helvetica,sans-Serif" font-size="10.00" fill="#000000">+ operator!=()</text>
<text text-anchor="start" x="323.3757" y="-685.5" font-family="Helvetica,sans-Serif" font-size="10.00" fill="#000000">+ as()</text>
<text text-anchor="start" x="323.3757" y="-674.5" font-family="Helvetica,sans-Serif" font-size="10.00" fill="#000000">+ print()</text>
</a>
</g>
</g>
<!-- Node5&#45;&gt;Node9 -->
<g id="edge8" class="edge">
<title>Node5&#45;&gt;Node9</title>
<path fill="none" stroke="#404040" d="M555.2915,-963.4411C530.4015,-945.686 486.8358,-912.8218 454.8757,-879 452.7569,-876.7578 450.6466,-874.4557 448.5496,-872.1063"/>
<polygon fill="none" stroke="#404040" points="448.3852,-871.916 441.4355,-869.9918 440.5388,-862.8366 447.4885,-864.7608 448.3852,-871.916"/>
<text text-anchor="middle" x="521.3757" y="-911" font-family="Helvetica,sans-Serif" font-size="10.00" fill="#000000"> +itg</text>
</g>
<!-- Node10 -->
<g id="node9" class="node">
<title>Node10</title>
<g id="a_node9"><a xlink:href="../../d9/db3/structo2_1_1header_1_1Descriptor.html" target="_top" xlink:title="{o2::header::Descriptor\l\&lt; gSizeSerializationMethodString \&gt;\n||+ Descriptor()\l+ Descriptor()\l+ Descriptor()\l+ Descriptor()\l+ operator=()\l+ operator ItgType()\l+ runtimeInit()\l+ operator==()\l+ operator==()\l+ operator\&lt;()\l+ operator!=()\l+ operator!=()\l+ as()\l+ print()\l}">
<polygon fill="none" stroke="#000000" points="69.3757,-397.5 69.3757,-608.5 260.3757,-608.5 260.3757,-397.5 69.3757,-397.5"/>
<text text-anchor="start" x="77.3757" y="-596.5" font-family="Helvetica,sans-Serif" font-size="10.00" fill="#000000">o2::header::Descriptor</text>
<text text-anchor="middle" x="164.8757" y="-585.5" font-family="Helvetica,sans-Serif" font-size="10.00" fill="#000000">&lt; gSizeSerializationMethodString &gt;</text>
<polyline fill="none" stroke="#000000" points="69.3757,-578.5 260.3757,-578.5 "/>
<text text-anchor="middle" x="164.8757" y="-566.5" font-family="Helvetica,sans-Serif" font-size="10.00" fill="#000000"> </text>
<polyline fill="none" stroke="#000000" points="69.3757,-559.5 260.3757,-559.5 "/>
<text text-anchor="start" x="77.3757" y="-547.5" font-family="Helvetica,sans-Serif" font-size="10.00" fill="#000000">+ Descriptor()</text>
<text text-anchor="start" x="77.3757" y="-536.5" font-family="Helvetica,sans-Serif" font-size="10.00" fill="#000000">+ Descriptor()</text>
<text text-anchor="start" x="77.3757" y="-525.5" font-family="Helvetica,sans-Serif" font-size="10.00" fill="#000000">+ Descriptor()</text>
<text text-anchor="start" x="77.3757" y="-514.5" font-family="Helvetica,sans-Serif" font-size="10.00" fill="#000000">+ Descriptor()</text>
<text text-anchor="start" x="77.3757" y="-503.5" font-family="Helvetica,sans-Serif" font-size="10.00" fill="#000000">+ operator=()</text>
<text text-anchor="start" x="77.3757" y="-492.5" font-family="Helvetica,sans-Serif" font-size="10.00" fill="#000000">+ operator ItgType()</text>
<text text-anchor="start" x="77.3757" y="-481.5" font-family="Helvetica,sans-Serif" font-size="10.00" fill="#000000">+ runtimeInit()</text>
<text text-anchor="start" x="77.3757" y="-470.5" font-family="Helvetica,sans-Serif" font-size="10.00" fill="#000000">+ operator==()</text>
<text text-anchor="start" x="77.3757" y="-459.5" font-family="Helvetica,sans-Serif" font-size="10.00" fill="#000000">+ operator==()</text>
<text text-anchor="start" x="77.3757" y="-448.5" font-family="Helvetica,sans-Serif" font-size="10.00" fill="#000000">+ operator&lt;()</text>
<text text-anchor="start" x="77.3757" y="-437.5" font-family="Helvetica,sans-Serif" font-size="10.00" fill="#000000">+ operator!=()</text>
<text text-anchor="start" x="77.3757" y="-426.5" font-family="Helvetica,sans-Serif" font-size="10.00" fill="#000000">+ operator!=()</text>
<text text-anchor="start" x="77.3757" y="-415.5" font-family="Helvetica,sans-Serif" font-size="10.00" fill="#000000">+ as()</text>
<text text-anchor="start" x="77.3757" y="-404.5" font-family="Helvetica,sans-Serif" font-size="10.00" fill="#000000">+ print()</text>
</a>
</g>
</g>
<!-- Node5&#45;&gt;Node10 -->
<g id="edge14" class="edge">
<title>Node5&#45;&gt;Node10</title>
<path fill="none" stroke="#404040" d="M573.6875,-948.2714C570.4163,-875.4461 560.2777,-687.8907 541.8757,-667 518.9311,-640.9523 499.3624,-658.1423 465.8757,-649 434.0064,-640.2993 427.1066,-634.2476 394.8757,-627 343.2425,-615.3894 322.1171,-632.1017 271.5732,-609.7209"/>
<polygon fill="none" stroke="#404040" points="271.5145,-609.6929 264.3759,-610.7135 260.6883,-604.5166 267.8268,-603.496 271.5145,-609.6929"/>
<text text-anchor="middle" x="582.3757" y="-770.5" font-family="Helvetica,sans-Serif" font-size="10.00" fill="#000000"> +itg</text>
</g>
<!-- Node6 -->
<g id="node5" class="node">
<title>Node6</title>
<polygon fill="none" stroke="#bfbfbf" points="81.8757,-948.5 81.8757,-1005.5 119.8757,-1005.5 119.8757,-948.5 81.8757,-948.5"/>
<text text-anchor="middle" x="100.8757" y="-993.5" font-family="Helvetica,sans-Serif" font-size="10.00" fill="#000000">char</text>
<polyline fill="none" stroke="#bfbfbf" points="81.8757,-986.5 119.8757,-986.5 "/>
<text text-anchor="middle" x="100.8757" y="-974.5" font-family="Helvetica,sans-Serif" font-size="10.00" fill="#000000"> </text>
<polyline fill="none" stroke="#bfbfbf" points="81.8757,-967.5 119.8757,-967.5 "/>
<text text-anchor="middle" x="100.8757" y="-955.5" font-family="Helvetica,sans-Serif" font-size="10.00" fill="#000000"> </text>
</g>
<!-- Node6&#45;&gt;Node3 -->
<g id="edge12" class="edge">
<title>Node6&#45;&gt;Node3</title>
<path fill="none" stroke="#404040" d="M87.0178,-948.2836C45.1709,-856.9668 -69.3362,-569.1745 59.8757,-397 141.0108,-288.8877 295.2471,-238.5777 396.5584,-216.2961"/>
<polygon fill="none" stroke="#404040" points="396.6006,-216.2872 401.6322,-211.1216 408.3356,-213.7795 403.304,-218.945 396.6006,-216.2872"/>
<text text-anchor="middle" x="36.8757" y="-635.5" font-family="Helvetica,sans-Serif" font-size="10.00" fill="#000000"> +magicString</text>
</g>
<!-- Node6&#45;&gt;Node4 -->
<g id="edge4" class="edge">
<title>Node6&#45;&gt;Node4</title>
<path fill="none" stroke="#404040" d="M120.1873,-959.6041C138.9106,-941.4802 166.4014,-911.2653 179.8757,-879 198.1463,-835.2497 171.4637,-701.603 203.8757,-667 234.7472,-634.0416 268.1821,-676.6636 303.8757,-649 314.5315,-640.7415 323.5519,-630.3961 331.1748,-619.0464"/>
<polygon fill="none" stroke="#404040" points="331.1837,-619.032 330.9548,-611.8245 337.5199,-608.8411 337.7488,-616.0486 331.1837,-619.032"/>
<text text-anchor="middle" x="216.3757" y="-770.5" font-family="Helvetica,sans-Serif" font-size="10.00" fill="#000000"> +str</text>
</g>
<!-- Node6&#45;&gt;Node9 -->
<g id="edge9" class="edge">
<title>Node6&#45;&gt;Node9</title>
<path fill="none" stroke="#404040" d="M120.1184,-967.2148C150.227,-951.9547 210.3646,-921.6787 261.8757,-897 279.0922,-888.7516 286.1218,-891.1147 300.8757,-879 302.7215,-877.4844 304.5454,-875.9148 306.3461,-874.2982"/>
<polygon fill="none" stroke="#404040" points="306.4891,-874.1611 308.0512,-867.1212 315.1504,-865.8556 313.5882,-872.8955 306.4891,-874.1611"/>
<text text-anchor="middle" x="274.3757" y="-911" font-family="Helvetica,sans-Serif" font-size="10.00" fill="#000000"> +str</text>
</g>
<!-- Node6&#45;&gt;Node10 -->
<g id="edge15" class="edge">
<title>Node6&#45;&gt;Node10</title>
<path fill="none" stroke="#404040" d="M94.1942,-948.3304C82.4525,-893.0761 61.4756,-768.3433 84.8757,-667 88.4888,-651.3519 93.8082,-635.47 100.0163,-620.0606"/>
<polygon fill="none" stroke="#404040" points="100.0416,-620.0001 98.6731,-612.9201 104.6822,-608.9337 106.0507,-616.0138 100.0416,-620.0001"/>
<text text-anchor="middle" x="97.3757" y="-770.5" font-family="Helvetica,sans-Serif" font-size="10.00" fill="#000000"> +str</text>
</g>
<!-- Node7 -->
<g id="node6" class="node">
<title>Node7</title>
<polygon fill="none" stroke="#bfbfbf" points="462.3757,-948.5 462.3757,-1005.5 491.3757,-1005.5 491.3757,-948.5 462.3757,-948.5"/>
<text text-anchor="middle" x="476.8757" y="-993.5" font-family="Helvetica,sans-Serif" font-size="10.00" fill="#000000">int</text>
<polyline fill="none" stroke="#bfbfbf" points="462.3757,-986.5 491.3757,-986.5 "/>
<text text-anchor="middle" x="476.8757" y="-974.5" font-family="Helvetica,sans-Serif" font-size="10.00" fill="#000000"> </text>
<polyline fill="none" stroke="#bfbfbf" points="462.3757,-967.5 491.3757,-967.5 "/>
<text text-anchor="middle" x="476.8757" y="-955.5" font-family="Helvetica,sans-Serif" font-size="10.00" fill="#000000"> </text>
</g>
<!-- Node7&#45;&gt;Node4 -->
<g id="edge5" class="edge">
<title>Node7&#45;&gt;Node4</title>
<path fill="none" stroke="#404040" d="M491.4012,-970.7411C518.7081,-958.0662 577.0033,-926.4728 599.8757,-879 640.7727,-794.1162 649.2087,-747.275 599.8757,-667 579.27,-633.4702 556.9634,-642.7008 520.8757,-627 502.5099,-619.0096 493.7916,-620.8876 473.982,-609.6976"/>
<polygon fill="none" stroke="#404040" points="473.8578,-609.6208 466.6509,-609.8653 463.6533,-603.3067 470.8603,-603.0623 473.8578,-609.6208"/>
<text text-anchor="middle" x="661.8757" y="-781.5" font-family="Helvetica,sans-Serif" font-size="10.00" fill="#000000"> +arraySize</text>
<text text-anchor="middle" x="661.8757" y="-770.5" font-family="Helvetica,sans-Serif" font-size="10.00" fill="#000000">+size</text>
<text text-anchor="middle" x="661.8757" y="-759.5" font-family="Helvetica,sans-Serif" font-size="10.00" fill="#000000">+bitcount</text>
</g>
<!-- Node7&#45;&gt;Node9 -->
<g id="edge10" class="edge">
<title>Node7&#45;&gt;Node9</title>
<path fill="none" stroke="#404040" d="M462.0837,-971.5865C445.3522,-964.6498 418.6483,-950.9579 404.8757,-930 397.0439,-918.0823 391.2717,-904.5963 387.0471,-890.6571"/>
<polygon fill="none" stroke="#404040" points="386.9905,-890.4481 381.5602,-885.7035 383.8512,-878.866 389.2816,-883.6106 386.9905,-890.4481"/>
<text text-anchor="middle" x="433.8757" y="-922" font-family="Helvetica,sans-Serif" font-size="10.00" fill="#000000"> +arraySize</text>
<text text-anchor="middle" x="433.8757" y="-911" font-family="Helvetica,sans-Serif" font-size="10.00" fill="#000000">+size</text>
<text text-anchor="middle" x="433.8757" y="-900" font-family="Helvetica,sans-Serif" font-size="10.00" fill="#000000">+bitcount</text>
</g>
<!-- Node7&#45;&gt;Node10 -->
<g id="edge16" class="edge">
<title>Node7&#45;&gt;Node10</title>
<path fill="none" stroke="#404040" d="M478.1266,-948.4336C480.5266,-880.1892 482.8499,-710.1462 448.8757,-667 414.6175,-623.4932 383.7008,-643.6126 330.8757,-627 306.7116,-619.4008 296.087,-622.6636 271.3224,-609.8118"/>
<polygon fill="none" stroke="#404040" points="271.0951,-609.6834 263.9034,-610.2135 260.6482,-603.7789 267.8398,-603.2489 271.0951,-609.6834"/>
<text text-anchor="middle" x="508.8757" y="-781.5" font-family="Helvetica,sans-Serif" font-size="10.00" fill="#000000"> +arraySize</text>
<text text-anchor="middle" x="508.8757" y="-770.5" font-family="Helvetica,sans-Serif" font-size="10.00" fill="#000000">+size</text>
<text text-anchor="middle" x="508.8757" y="-759.5" font-family="Helvetica,sans-Serif" font-size="10.00" fill="#000000">+bitcount</text>
</g>
<!-- Node8 -->
<g id="node7" class="node">
<title>Node8</title>
<polygon fill="none" stroke="#bfbfbf" points="209.3757,-948.5 209.3757,-1005.5 316.3757,-1005.5 316.3757,-948.5 209.3757,-948.5"/>
<text text-anchor="middle" x="262.8757" y="-993.5" font-family="Helvetica,sans-Serif" font-size="10.00" fill="#000000">anonymous:+@71</text>
<polyline fill="none" stroke="#bfbfbf" points="209.3757,-986.5 316.3757,-986.5 "/>
<text text-anchor="middle" x="262.8757" y="-974.5" font-family="Helvetica,sans-Serif" font-size="10.00" fill="#000000"> </text>
<polyline fill="none" stroke="#bfbfbf" points="209.3757,-967.5 316.3757,-967.5 "/>
<text text-anchor="middle" x="262.8757" y="-955.5" font-family="Helvetica,sans-Serif" font-size="10.00" fill="#000000"> </text>
</g>
<!-- Node8&#45;&gt;Node4 -->
<g id="edge6" class="edge">
<title>Node8&#45;&gt;Node4</title>
<path fill="none" stroke="#404040" d="M253.6748,-948.1519C236.6464,-888.6715 207.4955,-750.957 271.8757,-667 288.8171,-644.907 312.4911,-668.9837 331.8757,-649 340.0103,-640.614 346.495,-630.7277 351.6576,-620.1169"/>
<polygon fill="none" stroke="#404040" points="351.7818,-619.8316 350.5099,-612.7336 356.5728,-608.8295 357.8447,-615.9275 351.7818,-619.8316"/>
<text text-anchor="middle" x="288.8757" y="-770.5" font-family="Helvetica,sans-Serif" font-size="10.00" fill="#000000"> +@71</text>
</g>
<!-- Node8&#45;&gt;Node9 -->
<g id="edge11" class="edge">
<title>Node8&#45;&gt;Node9</title>
<path fill="none" stroke="#404040" d="M279.1085,-948.2045C288.1414,-932.1809 300.046,-911.0632 312.4523,-889.0555"/>
<polygon fill="none" stroke="#404040" points="312.4821,-889.0026 311.944,-881.8115 318.375,-878.5491 318.913,-885.7401 312.4821,-889.0026"/>
<text text-anchor="middle" x="323.8757" y="-911" font-family="Helvetica,sans-Serif" font-size="10.00" fill="#000000"> +@71</text>
</g>
<!-- Node8&#45;&gt;Node10 -->
<g id="edge17" class="edge">
<title>Node8&#45;&gt;Node10</title>
<path fill="none" stroke="#404040" d="M242.1015,-948.4943C228.7105,-931.7224 210.0683,-911.1045 189.8757,-897 172.5542,-884.901 157.6526,-896.5421 145.8757,-879 118.4062,-838.0833 129.8922,-714.9012 143.971,-620.5707"/>
<polygon fill="none" stroke="#404040" points="143.982,-620.4975 140.931,-613.9636 145.7888,-608.6343 148.8398,-615.1681 143.982,-620.4975"/>
<text text-anchor="middle" x="162.8757" y="-770.5" font-family="Helvetica,sans-Serif" font-size="10.00" fill="#000000"> +@71</text>
</g>
<!-- Node9&#45;&gt;Node4 -->
<g id="edge7" class="edge">
<title>Node9&#45;&gt;Node4</title>
<path fill="none" stroke="#ffa500" d="M384.6136,-657.1336C384.6078,-646.9414 384.3872,-636.7853 383.8757,-627 383.565,-621.0555 383.171,-614.9573 382.7152,-608.8069"/>
<polygon fill="#ffa500" stroke="#ffa500" points="381.1126,-657.3041 384.5506,-667.3256 388.1125,-657.3474 381.1126,-657.3041"/>
<text text-anchor="start" x="384.8757" y="-641" font-family="Helvetica,sans-Serif" font-size="10.00" fill="#000000"> &lt; gSizeHeaderDescription</text>
<text text-anchor="middle" x="450.8757" y="-630" font-family="Helvetica,sans-Serif" font-size="10.00" fill="#000000">String &gt;</text>
</g>
<!-- Node9&#45;&gt;Node10 -->
<g id="edge18" class="edge">
<title>Node9&#45;&gt;Node10</title>
<path fill="none" stroke="#ffa500" d="M307.3462,-671.3371C305.2332,-669.8101 303.0762,-668.3609 300.8757,-667 259.4884,-641.4052 227.7011,-682.9882 192.8757,-649 181.5164,-637.9137 173.9989,-623.728 169.1329,-608.5719"/>
<polygon fill="#ffa500" stroke="#ffa500" points="305.2574,-674.1471 315.2771,-677.5904 309.5915,-668.6503 305.2574,-674.1471"/>
<text text-anchor="start" x="192.8757" y="-641" font-family="Helvetica,sans-Serif" font-size="10.00" fill="#000000"> &lt; gSizeSerializationMethod</text>
<text text-anchor="middle" x="261.8757" y="-630" font-family="Helvetica,sans-Serif" font-size="10.00" fill="#000000">String &gt;</text>
</g>
<!-- Node10&#45;&gt;Node3 -->
<g id="edge13" class="edge">
<title>Node10&#45;&gt;Node3</title>
<path fill="none" stroke="#404040" d="M234.9531,-397.3475C259.7278,-364.504 289.3408,-329.6863 320.8757,-302 343.7717,-281.8983 371.2049,-263.6778 397.4458,-248.3819"/>
<polygon fill="none" stroke="#404040" points="397.7913,-248.1844 401.015,-241.734 408.2092,-242.2289 404.9854,-248.6793 397.7913,-248.1844"/>
<text text-anchor="middle" x="356.8757" y="-338" font-family="Helvetica,sans-Serif" font-size="10.00" fill="#000000"> +serialization</text>
</g>
<!-- Node11 -->
<g id="node10" class="node">
<title>Node11</title>
<g id="a_node10"><a xlink:href="../../d3/d87/classuint32__t.html" target="_top" xlink:title="{uint32_t\n||}">
<polygon fill="none" stroke="#000000" points="480.8757,-474.5 480.8757,-531.5 536.8757,-531.5 536.8757,-474.5 480.8757,-474.5"/>
<text text-anchor="middle" x="508.8757" y="-519.5" font-family="Helvetica,sans-Serif" font-size="10.00" fill="#000000">uint32_t</text>
<polyline fill="none" stroke="#000000" points="480.8757,-512.5 536.8757,-512.5 "/>
<text text-anchor="middle" x="508.8757" y="-500.5" font-family="Helvetica,sans-Serif" font-size="10.00" fill="#000000"> </text>
<polyline fill="none" stroke="#000000" points="480.8757,-493.5 536.8757,-493.5 "/>
<text text-anchor="middle" x="508.8757" y="-481.5" font-family="Helvetica,sans-Serif" font-size="10.00" fill="#000000"> </text>
</a>
</g>
</g>
<!-- Node11&#45;&gt;Node3 -->
<g id="edge19" class="edge">
<title>Node11&#45;&gt;Node3</title>
<path fill="none" stroke="#404040" d="M505.0783,-474.4986C501.9288,-449.4069 497.6851,-411.8518 495.8757,-379 494.3936,-352.0913 493.8009,-322.8731 493.6651,-295.9977"/>
<polygon fill="none" stroke="#404040" points="493.6647,-295.8311 489.649,-289.8416 493.6333,-283.8311 497.649,-289.8206 493.6647,-295.8311"/>
<text text-anchor="middle" x="541.3757" y="-371" font-family="Helvetica,sans-Serif" font-size="10.00" fill="#000000"> +headerVersion</text>
<text text-anchor="middle" x="541.3757" y="-360" font-family="Helvetica,sans-Serif" font-size="10.00" fill="#000000">+headerSize</text>
<text text-anchor="middle" x="541.3757" y="-349" font-family="Helvetica,sans-Serif" font-size="10.00" fill="#000000">+sMagicString</text>
<text text-anchor="middle" x="541.3757" y="-338" font-family="Helvetica,sans-Serif" font-size="10.00" fill="#000000">+flagsNextHeader</text>
<text text-anchor="middle" x="541.3757" y="-327" font-family="Helvetica,sans-Serif" font-size="10.00" fill="#000000">+magicStringInt</text>
<text text-anchor="middle" x="541.3757" y="-316" font-family="Helvetica,sans-Serif" font-size="10.00" fill="#000000">+flagsUnused</text>
<text text-anchor="middle" x="541.3757" y="-305" font-family="Helvetica,sans-Serif" font-size="10.00" fill="#000000">+flags</text>
</g>
<!-- Node12 -->
<g id="node11" class="node">
<title>Node12</title>
<polygon fill="none" stroke="#bfbfbf" points="555.3757,-474.5 555.3757,-531.5 662.3757,-531.5 662.3757,-474.5 555.3757,-474.5"/>
<text text-anchor="middle" x="608.8757" y="-519.5" font-family="Helvetica,sans-Serif" font-size="10.00" fill="#000000">anonymous:+@73</text>
<polyline fill="none" stroke="#bfbfbf" points="555.3757,-512.5 662.3757,-512.5 "/>
<text text-anchor="middle" x="608.8757" y="-500.5" font-family="Helvetica,sans-Serif" font-size="10.00" fill="#000000"> </text>
<polyline fill="none" stroke="#bfbfbf" points="555.3757,-493.5 662.3757,-493.5 "/>
<text text-anchor="middle" x="608.8757" y="-481.5" font-family="Helvetica,sans-Serif" font-size="10.00" fill="#000000"> </text>
</g>
<!-- Node12&#45;&gt;Node3 -->
<g id="edge20" class="edge">
<title>Node12&#45;&gt;Node3</title>
<path fill="none" stroke="#404040" d="M611.1124,-474.2712C613.0888,-433.9205 612.438,-359.0176 586.8757,-302 585.7027,-299.3836 584.437,-296.788 583.0898,-294.217"/>
<polygon fill="none" stroke="#404040" points="583.0852,-294.2089 576.6323,-290.9901 577.1215,-283.7956 583.5744,-287.0144 583.0852,-294.2089"/>
<text text-anchor="middle" x="623.8757" y="-338" font-family="Helvetica,sans-Serif" font-size="10.00" fill="#000000"> +@73</text>
</g>
<!-- Node13 -->
<g id="node12" class="node">
<title>Node13</title>
<polygon fill="none" stroke="#bfbfbf" points="680.3757,-474.5 680.3757,-531.5 787.3757,-531.5 787.3757,-474.5 680.3757,-474.5"/>
<text text-anchor="middle" x="733.8757" y="-519.5" font-family="Helvetica,sans-Serif" font-size="10.00" fill="#000000">anonymous:+@75</text>
<polyline fill="none" stroke="#bfbfbf" points="680.3757,-512.5 787.3757,-512.5 "/>
<text text-anchor="middle" x="733.8757" y="-500.5" font-family="Helvetica,sans-Serif" font-size="10.00" fill="#000000"> </text>
<polyline fill="none" stroke="#bfbfbf" points="680.3757,-493.5 787.3757,-493.5 "/>
<text text-anchor="middle" x="733.8757" y="-481.5" font-family="Helvetica,sans-Serif" font-size="10.00" fill="#000000"> </text>
</g>
<!-- Node13&#45;&gt;Node3 -->
<g id="edge21" class="edge">
<title>Node13&#45;&gt;Node3</title>
<path fill="none" stroke="#404040" d="M728.8233,-474.3942C719.6985,-431.0546 696.4097,-348.8528 644.8757,-302 628.497,-287.1091 616.2432,-294.125 592.3862,-283.8197"/>
<polygon fill="none" stroke="#404040" points="592.0991,-283.6735 584.9372,-284.5154 581.4056,-278.2283 588.5674,-277.3864 592.0991,-283.6735"/>
<text text-anchor="middle" x="712.8757" y="-338" font-family="Helvetica,sans-Serif" font-size="10.00" fill="#000000"> +@75</text>
</g>
<!-- Node14 -->
<g id="node13" class="node">
<title>Node14</title>
<polygon fill="none" stroke="#bfbfbf" points="805.3757,-474.5 805.3757,-531.5 848.3757,-531.5 848.3757,-474.5 805.3757,-474.5"/>
<text text-anchor="middle" x="826.8757" y="-519.5" font-family="Helvetica,sans-Serif" font-size="10.00" fill="#000000">const</text>
<polyline fill="none" stroke="#bfbfbf" points="805.3757,-512.5 848.3757,-512.5 "/>
<text text-anchor="middle" x="826.8757" y="-500.5" font-family="Helvetica,sans-Serif" font-size="10.00" fill="#000000"> </text>
<polyline fill="none" stroke="#bfbfbf" points="805.3757,-493.5 848.3757,-493.5 "/>
<text text-anchor="middle" x="826.8757" y="-481.5" font-family="Helvetica,sans-Serif" font-size="10.00" fill="#000000"> </text>
</g>
<!-- Node14&#45;&gt;Node3 -->
<g id="edge22" class="edge">
<title>Node14&#45;&gt;Node3</title>
<path fill="none" stroke="#404040" d="M823.3912,-474.2187C816.0894,-428.2448 794.4864,-339.5976 733.8757,-302 682.5243,-270.1461 652.8035,-305.7229 592.7312,-283.9582"/>
<polygon fill="none" stroke="#404040" points="592.6771,-283.9361 585.6091,-285.3653 581.5713,-279.3907 588.6393,-277.9614 592.6771,-283.9361"/>
<text text-anchor="middle" x="851.3757" y="-349" font-family="Helvetica,sans-Serif" font-size="10.00" fill="#000000"> +sHeaderType</text>
<text text-anchor="middle" x="851.3757" y="-338" font-family="Helvetica,sans-Serif" font-size="10.00" fill="#000000">+sSerializationMethod</text>
<text text-anchor="middle" x="851.3757" y="-327" font-family="Helvetica,sans-Serif" font-size="10.00" fill="#000000">+sVersion</text>
</g>
<!-- Node15 -->
<g id="node14" class="node">
<title>Node15</title>
<polygon fill="none" stroke="#bfbfbf" points="599.8757,-171.5 599.8757,-228.5 637.8757,-228.5 637.8757,-171.5 599.8757,-171.5"/>
<text text-anchor="middle" x="618.8757" y="-216.5" font-family="Helvetica,sans-Serif" font-size="10.00" fill="#000000">bool</text>
<polyline fill="none" stroke="#bfbfbf" points="599.8757,-209.5 637.8757,-209.5 "/>
<text text-anchor="middle" x="618.8757" y="-197.5" font-family="Helvetica,sans-Serif" font-size="10.00" fill="#000000"> </text>
<polyline fill="none" stroke="#bfbfbf" points="599.8757,-190.5 637.8757,-190.5 "/>
<text text-anchor="middle" x="618.8757" y="-178.5" font-family="Helvetica,sans-Serif" font-size="10.00" fill="#000000"> </text>
</g>
<!-- Node15&#45;&gt;Node2 -->
<g id="edge23" class="edge">
<title>Node15&#45;&gt;Node2</title>
<path fill="none" stroke="#404040" d="M618.8757,-171.3784C618.8757,-143.6352 618.8757,-101.2695 618.8757,-69.9596"/>
<polygon fill="none" stroke="#404040" points="618.8758,-69.7149 614.8758,-63.715 618.8757,-57.7149 622.8758,-63.7149 618.8758,-69.7149"/>
<text text-anchor="middle" x="658.3757" y="-84.5" font-family="Helvetica,sans-Serif" font-size="10.00" fill="#000000"> +mHasPayload</text>
</g>
<!-- Node16 -->
<g id="node15" class="node">
<title>Node16</title>
<polygon fill="none" stroke="#bfbfbf" points="698.8757,-171.5 698.8757,-228.5 742.8757,-228.5 742.8757,-171.5 698.8757,-171.5"/>
<text text-anchor="middle" x="720.8757" y="-216.5" font-family="Helvetica,sans-Serif" font-size="10.00" fill="#000000">static</text>
<polyline fill="none" stroke="#bfbfbf" points="698.8757,-209.5 742.8757,-209.5 "/>
<text text-anchor="middle" x="720.8757" y="-197.5" font-family="Helvetica,sans-Serif" font-size="10.00" fill="#000000"> </text>
<polyline fill="none" stroke="#bfbfbf" points="698.8757,-190.5 742.8757,-190.5 "/>
<text text-anchor="middle" x="720.8757" y="-178.5" font-family="Helvetica,sans-Serif" font-size="10.00" fill="#000000"> </text>
</g>
<!-- Node16&#45;&gt;Node2 -->
<g id="edge24" class="edge">
<title>Node16&#45;&gt;Node2</title>
<path fill="none" stroke="#404040" d="M722.3423,-171.354C722.3073,-144.4356 718.4728,-104.1826 698.8757,-76 696.2864,-72.2762 693.2988,-68.8031 690.0321,-65.5704"/>
<polygon fill="none" stroke="#404040" points="689.8759,-65.4348 682.7228,-64.522 680.8142,-57.568 687.9673,-58.4809 689.8759,-65.4348"/>
<text text-anchor="middle" x="747.3757" y="-90" font-family="Helvetica,sans-Serif" font-size="10.00" fill="#000000"> +sHeaderType</text>
<text text-anchor="middle" x="747.3757" y="-79" font-family="Helvetica,sans-Serif" font-size="10.00" fill="#000000">+sVersion</text>
</g>
</g>
</svg>
