<?xml version="1.0" encoding="UTF-8" standalone="no"?>
<!DOCTYPE svg PUBLIC "-//W3C//DTD SVG 1.1//EN"
 "http://www.w3.org/Graphics/SVG/1.1/DTD/svg11.dtd">
<!-- Generated by graphviz version 2.40.1 (20161225.0304)
 -->
<!-- Title: o2::raw::RawFileReader::LinkData Pages: 1 -->
<svg width="1048pt" height="1019pt"
 viewBox="0.00 0.00 1048.44 1019.00" xmlns="http://www.w3.org/2000/svg" xmlns:xlink="http://www.w3.org/1999/xlink">
<g id="graph0" class="graph" transform="scale(1 1) rotate(0) translate(4 1015)">
<title>o2::raw::RawFileReader::LinkData</title>
<!-- Node1 -->
<g id="node1" class="node">
<title>Node1</title>
<polygon fill="#bfbfbf" stroke="#000000" points="539.9359,-.5 539.9359,-244.5 700.9359,-244.5 700.9359,-.5 539.9359,-.5"/>
<text text-anchor="start" x="547.9359" y="-232.5" font-family="Helvetica,sans-Serif" font-size="10.00" fill="#000000">o2::raw::RawFileReader</text>
<text text-anchor="middle" x="620.4359" y="-221.5" font-family="Helvetica,sans-Serif" font-size="10.00" fill="#000000">::LinkData</text>
<polyline fill="none" stroke="#000000" points="539.9359,-214.5 700.9359,-214.5 "/>
<text text-anchor="middle" x="620.4359" y="-202.5" font-family="Helvetica,sans-Serif" font-size="10.00" fill="#000000"> </text>
<polyline fill="none" stroke="#000000" points="539.9359,-195.5 700.9359,-195.5 "/>
<text text-anchor="start" x="547.9359" y="-183.5" font-family="Helvetica,sans-Serif" font-size="10.00" fill="#000000">+ LinkData()</text>
<text text-anchor="start" x="547.9359" y="-172.5" font-family="Helvetica,sans-Serif" font-size="10.00" fill="#000000">+ LinkData()</text>
<text text-anchor="start" x="547.9359" y="-161.5" font-family="Helvetica,sans-Serif" font-size="10.00" fill="#000000">+ preprocessCRUPage()</text>
<text text-anchor="start" x="547.9359" y="-150.5" font-family="Helvetica,sans-Serif" font-size="10.00" fill="#000000">+ getLargestSuperPage()</text>
<text text-anchor="start" x="547.9359" y="-139.5" font-family="Helvetica,sans-Serif" font-size="10.00" fill="#000000">+ getLargestTF()</text>
<text text-anchor="start" x="547.9359" y="-128.5" font-family="Helvetica,sans-Serif" font-size="10.00" fill="#000000">+ getNextHBFSize()</text>
<text text-anchor="start" x="547.9359" y="-117.5" font-family="Helvetica,sans-Serif" font-size="10.00" fill="#000000">+ getNextTFSize()</text>
<text text-anchor="start" x="547.9359" y="-106.5" font-family="Helvetica,sans-Serif" font-size="10.00" fill="#000000">+ getNextTFSuperPagesStat()</text>
<text text-anchor="start" x="547.9359" y="-95.5" font-family="Helvetica,sans-Serif" font-size="10.00" fill="#000000">+ getNHBFinTF()</text>
<text text-anchor="start" x="547.9359" y="-84.5" font-family="Helvetica,sans-Serif" font-size="10.00" fill="#000000">+ readNextHBF()</text>
<text text-anchor="start" x="547.9359" y="-73.5" font-family="Helvetica,sans-Serif" font-size="10.00" fill="#000000">+ readNextTF()</text>
<text text-anchor="start" x="547.9359" y="-62.5" font-family="Helvetica,sans-Serif" font-size="10.00" fill="#000000">+ readNextSuperPage()</text>
<text text-anchor="start" x="547.9359" y="-51.5" font-family="Helvetica,sans-Serif" font-size="10.00" fill="#000000">+ skipNextHBF()</text>
<text text-anchor="start" x="547.9359" y="-40.5" font-family="Helvetica,sans-Serif" font-size="10.00" fill="#000000">+ skipNextTF()</text>
<text text-anchor="start" x="547.9359" y="-29.5" font-family="Helvetica,sans-Serif" font-size="10.00" fill="#000000">+ rewindToTF()</text>
<text text-anchor="start" x="547.9359" y="-18.5" font-family="Helvetica,sans-Serif" font-size="10.00" fill="#000000">+ print()</text>
<text text-anchor="start" x="547.9359" y="-7.5" font-family="Helvetica,sans-Serif" font-size="10.00" fill="#000000">+ describe()</text>
</g>
<!-- Node2 -->
<g id="node2" class="node">
<title>Node2</title>
<g id="a_node2"><a xlink:href="../../d6/d30/classuint64__t.html" target="_top" xlink:title="{uint64_t\n||}">
<polygon fill="none" stroke="#000000" points="47.4359,-749.5 47.4359,-806.5 103.4359,-806.5 103.4359,-749.5 47.4359,-749.5"/>
<text text-anchor="middle" x="75.4359" y="-794.5" font-family="Helvetica,sans-Serif" font-size="10.00" fill="#000000">uint64_t</text>
<polyline fill="none" stroke="#000000" points="47.4359,-787.5 103.4359,-787.5 "/>
<text text-anchor="middle" x="75.4359" y="-775.5" font-family="Helvetica,sans-Serif" font-size="10.00" fill="#000000"> </text>
<polyline fill="none" stroke="#000000" points="47.4359,-768.5 103.4359,-768.5 "/>
<text text-anchor="middle" x="75.4359" y="-756.5" font-family="Helvetica,sans-Serif" font-size="10.00" fill="#000000"> </text>
</a>
</g>
</g>
<!-- Node2&#45;&gt;Node1 -->
<g id="edge1" class="edge">
<title>Node2&#45;&gt;Node1</title>
<path fill="none" stroke="#404040" d="M62.3176,-749.4781C29.1479,-672.6732 -48.9563,-458.3173 45.4359,-325 102.3186,-244.6603 380.14,-174.1552 527.7785,-141.6123"/>
<polygon fill="none" stroke="#404040" points="528.1906,-141.5223 533.1974,-136.3327 539.9135,-138.9584 534.9067,-144.1479 528.1906,-141.5223"/>
<text text-anchor="middle" x="77.4359" y="-439.5" font-family="Helvetica,sans-Serif" font-size="10.00" fill="#000000"> +spec</text>
<text text-anchor="middle" x="77.4359" y="-428.5" font-family="Helvetica,sans-Serif" font-size="10.00" fill="#000000">+nCRUPages</text>
</g>
<!-- Node13 -->
<g id="node13" class="node">
<title>Node13</title>
<g id="a_node13"><a xlink:href="../../d3/d22/structo2_1_1header_1_1RDHAny.html" target="_top" xlink:title="{o2::header::RDHAny\n||+ RDHAny()\l+ RDHAny()\l+ operator=()\l+ GPUhdi()\l+ GPUhdi()\l+ GPUhdi()\l+ GPUhdi()\l+ GPUhdi()\l+ GPUhdi()\l+ GPUhdi()\l+ GPUhdi()\l# copyFrom()\l}">
<polygon fill="none" stroke="#000000" points="118.9359,-347.5 118.9359,-525.5 233.9359,-525.5 233.9359,-347.5 118.9359,-347.5"/>
<text text-anchor="middle" x="176.4359" y="-513.5" font-family="Helvetica,sans-Serif" font-size="10.00" fill="#000000">o2::header::RDHAny</text>
<polyline fill="none" stroke="#000000" points="118.9359,-506.5 233.9359,-506.5 "/>
<text text-anchor="middle" x="176.4359" y="-494.5" font-family="Helvetica,sans-Serif" font-size="10.00" fill="#000000"> </text>
<polyline fill="none" stroke="#000000" points="118.9359,-487.5 233.9359,-487.5 "/>
<text text-anchor="start" x="126.9359" y="-475.5" font-family="Helvetica,sans-Serif" font-size="10.00" fill="#000000">+ RDHAny()</text>
<text text-anchor="start" x="126.9359" y="-464.5" font-family="Helvetica,sans-Serif" font-size="10.00" fill="#000000">+ RDHAny()</text>
<text text-anchor="start" x="126.9359" y="-453.5" font-family="Helvetica,sans-Serif" font-size="10.00" fill="#000000">+ operator=()</text>
<text text-anchor="start" x="126.9359" y="-442.5" font-family="Helvetica,sans-Serif" font-size="10.00" fill="#000000">+ GPUhdi()</text>
<text text-anchor="start" x="126.9359" y="-431.5" font-family="Helvetica,sans-Serif" font-size="10.00" fill="#000000">+ GPUhdi()</text>
<text text-anchor="start" x="126.9359" y="-420.5" font-family="Helvetica,sans-Serif" font-size="10.00" fill="#000000">+ GPUhdi()</text>
<text text-anchor="start" x="126.9359" y="-409.5" font-family="Helvetica,sans-Serif" font-size="10.00" fill="#000000">+ GPUhdi()</text>
<text text-anchor="start" x="126.9359" y="-398.5" font-family="Helvetica,sans-Serif" font-size="10.00" fill="#000000">+ GPUhdi()</text>
<text text-anchor="start" x="126.9359" y="-387.5" font-family="Helvetica,sans-Serif" font-size="10.00" fill="#000000">+ GPUhdi()</text>
<text text-anchor="start" x="126.9359" y="-376.5" font-family="Helvetica,sans-Serif" font-size="10.00" fill="#000000">+ GPUhdi()</text>
<text text-anchor="start" x="126.9359" y="-365.5" font-family="Helvetica,sans-Serif" font-size="10.00" fill="#000000">+ GPUhdi()</text>
<text text-anchor="start" x="126.9359" y="-354.5" font-family="Helvetica,sans-Serif" font-size="10.00" fill="#000000"># copyFrom()</text>
</a>
</g>
</g>
<!-- Node2&#45;&gt;Node13 -->
<g id="edge23" class="edge">
<title>Node2&#45;&gt;Node13</title>
<path fill="none" stroke="#404040" d="M74.2441,-749.369C73.4022,-707.8156 75.1708,-628.8915 96.4359,-566 99.0241,-558.3455 104.9407,-546.9584 112.4479,-534.0588"/>
<polygon fill="none" stroke="#404040" points="112.6365,-533.742 112.2697,-526.5402 118.7764,-523.4317 119.1432,-530.6335 112.6365,-533.742"/>
<text text-anchor="middle" x="117.4359" y="-646" font-family="Helvetica,sans-Serif" font-size="10.00" fill="#000000"> +word7</text>
<text text-anchor="middle" x="117.4359" y="-635" font-family="Helvetica,sans-Serif" font-size="10.00" fill="#000000">+word0</text>
<text text-anchor="middle" x="117.4359" y="-624" font-family="Helvetica,sans-Serif" font-size="10.00" fill="#000000">+word1</text>
<text text-anchor="middle" x="117.4359" y="-613" font-family="Helvetica,sans-Serif" font-size="10.00" fill="#000000">+word2</text>
<text text-anchor="middle" x="117.4359" y="-602" font-family="Helvetica,sans-Serif" font-size="10.00" fill="#000000">+word3</text>
<text text-anchor="middle" x="117.4359" y="-591" font-family="Helvetica,sans-Serif" font-size="10.00" fill="#000000">+word4</text>
<text text-anchor="middle" x="117.4359" y="-580" font-family="Helvetica,sans-Serif" font-size="10.00" fill="#000000">+word5</text>
<text text-anchor="middle" x="117.4359" y="-569" font-family="Helvetica,sans-Serif" font-size="10.00" fill="#000000">+word6</text>
</g>
<!-- Node3 -->
<g id="node3" class="node">
<title>Node3</title>
<g id="a_node3"><a xlink:href="../../d9/db3/structo2_1_1header_1_1Descriptor.html" target="_top" xlink:title="{o2::header::Descriptor\l\&lt; gSizeDataOriginString,\l printDataOrigin \&gt;\n||+ Descriptor()\l+ Descriptor()\l+ Descriptor()\l+ Descriptor()\l+ operator=()\l+ operator ItgType()\l+ runtimeInit()\l+ operator==()\l+ operator==()\l+ operator\&lt;()\l+ operator!=()\l+ operator!=()\l+ as()\l+ print()\l}">
<polygon fill="none" stroke="#000000" points="434.4359,-325.5 434.4359,-547.5 572.4359,-547.5 572.4359,-325.5 434.4359,-325.5"/>
<text text-anchor="start" x="442.4359" y="-535.5" font-family="Helvetica,sans-Serif" font-size="10.00" fill="#000000">o2::header::Descriptor</text>
<text text-anchor="start" x="442.4359" y="-524.5" font-family="Helvetica,sans-Serif" font-size="10.00" fill="#000000">&lt; gSizeDataOriginString,</text>
<text text-anchor="middle" x="503.4359" y="-513.5" font-family="Helvetica,sans-Serif" font-size="10.00" fill="#000000"> printDataOrigin &gt;</text>
<polyline fill="none" stroke="#000000" points="434.4359,-506.5 572.4359,-506.5 "/>
<text text-anchor="middle" x="503.4359" y="-494.5" font-family="Helvetica,sans-Serif" font-size="10.00" fill="#000000"> </text>
<polyline fill="none" stroke="#000000" points="434.4359,-487.5 572.4359,-487.5 "/>
<text text-anchor="start" x="442.4359" y="-475.5" font-family="Helvetica,sans-Serif" font-size="10.00" fill="#000000">+ Descriptor()</text>
<text text-anchor="start" x="442.4359" y="-464.5" font-family="Helvetica,sans-Serif" font-size="10.00" fill="#000000">+ Descriptor()</text>
<text text-anchor="start" x="442.4359" y="-453.5" font-family="Helvetica,sans-Serif" font-size="10.00" fill="#000000">+ Descriptor()</text>
<text text-anchor="start" x="442.4359" y="-442.5" font-family="Helvetica,sans-Serif" font-size="10.00" fill="#000000">+ Descriptor()</text>
<text text-anchor="start" x="442.4359" y="-431.5" font-family="Helvetica,sans-Serif" font-size="10.00" fill="#000000">+ operator=()</text>
<text text-anchor="start" x="442.4359" y="-420.5" font-family="Helvetica,sans-Serif" font-size="10.00" fill="#000000">+ operator ItgType()</text>
<text text-anchor="start" x="442.4359" y="-409.5" font-family="Helvetica,sans-Serif" font-size="10.00" fill="#000000">+ runtimeInit()</text>
<text text-anchor="start" x="442.4359" y="-398.5" font-family="Helvetica,sans-Serif" font-size="10.00" fill="#000000">+ operator==()</text>
<text text-anchor="start" x="442.4359" y="-387.5" font-family="Helvetica,sans-Serif" font-size="10.00" fill="#000000">+ operator==()</text>
<text text-anchor="start" x="442.4359" y="-376.5" font-family="Helvetica,sans-Serif" font-size="10.00" fill="#000000">+ operator&lt;()</text>
<text text-anchor="start" x="442.4359" y="-365.5" font-family="Helvetica,sans-Serif" font-size="10.00" fill="#000000">+ operator!=()</text>
<text text-anchor="start" x="442.4359" y="-354.5" font-family="Helvetica,sans-Serif" font-size="10.00" fill="#000000">+ operator!=()</text>
<text text-anchor="start" x="442.4359" y="-343.5" font-family="Helvetica,sans-Serif" font-size="10.00" fill="#000000">+ as()</text>
<text text-anchor="start" x="442.4359" y="-332.5" font-family="Helvetica,sans-Serif" font-size="10.00" fill="#000000">+ print()</text>
</a>
</g>
</g>
<!-- Node3&#45;&gt;Node1 -->
<g id="edge2" class="edge">
<title>Node3&#45;&gt;Node1</title>
<path fill="none" stroke="#404040" d="M544.8504,-325.3535C553.2113,-302.9148 562.0826,-279.1064 570.6948,-255.9933"/>
<polygon fill="none" stroke="#404040" points="570.7084,-255.9566 569.0551,-248.9376 574.8984,-244.7119 576.5516,-251.7309 570.7084,-255.9566"/>
<text text-anchor="middle" x="585.4359" y="-282.5" font-family="Helvetica,sans-Serif" font-size="10.00" fill="#000000"> +origin</text>
</g>
<!-- Node4 -->
<g id="node4" class="node">
<title>Node4</title>
<polygon fill="none" stroke="#bfbfbf" points="193.9359,-953.5 193.9359,-1010.5 232.9359,-1010.5 232.9359,-953.5 193.9359,-953.5"/>
<text text-anchor="middle" x="213.4359" y="-998.5" font-family="Helvetica,sans-Serif" font-size="10.00" fill="#000000">Type</text>
<polyline fill="none" stroke="#bfbfbf" points="193.9359,-991.5 232.9359,-991.5 "/>
<text text-anchor="middle" x="213.4359" y="-979.5" font-family="Helvetica,sans-Serif" font-size="10.00" fill="#000000"> </text>
<polyline fill="none" stroke="#bfbfbf" points="193.9359,-972.5 232.9359,-972.5 "/>
<text text-anchor="middle" x="213.4359" y="-960.5" font-family="Helvetica,sans-Serif" font-size="10.00" fill="#000000"> </text>
</g>
<!-- Node4&#45;&gt;Node3 -->
<g id="edge3" class="edge">
<title>Node4&#45;&gt;Node3</title>
<path fill="none" stroke="#404040" d="M212.5442,-953.2966C210.5598,-867.7266 209.8565,-617.1472 267.4359,-566 317.4894,-521.538 359.9947,-577.5963 423.4979,-547.8716"/>
<polygon fill="none" stroke="#404040" points="423.7281,-547.7482 427.1257,-541.3877 434.3038,-542.0776 430.9062,-548.4381 423.7281,-547.7482"/>
<text text-anchor="middle" x="238.9359" y="-775.5" font-family="Helvetica,sans-Serif" font-size="10.00" fill="#000000"> +itg</text>
</g>
<!-- Node8 -->
<g id="node8" class="node">
<title>Node8</title>
<g id="a_node8"><a xlink:href="../../d9/db3/structo2_1_1header_1_1Descriptor.html" target="_top" xlink:title="{o2::header::Descriptor\l\&lt; N, PrinterPolicy \&gt;\n||+ Descriptor()\l+ Descriptor()\l+ Descriptor()\l+ operator=()\l+ operator ItgType()\l+ Descriptor()\l+ runtimeInit()\l+ operator==()\l+ operator\&lt;()\l+ operator!=()\l+ operator==()\l+ operator!=()\l+ as()\l+ print()\l}">
<polygon fill="none" stroke="#000000" points="382.9359,-672.5 382.9359,-883.5 507.9359,-883.5 507.9359,-672.5 382.9359,-672.5"/>
<text text-anchor="start" x="390.9359" y="-871.5" font-family="Helvetica,sans-Serif" font-size="10.00" fill="#000000">o2::header::Descriptor</text>
<text text-anchor="middle" x="445.4359" y="-860.5" font-family="Helvetica,sans-Serif" font-size="10.00" fill="#000000">&lt; N, PrinterPolicy &gt;</text>
<polyline fill="none" stroke="#000000" points="382.9359,-853.5 507.9359,-853.5 "/>
<text text-anchor="middle" x="445.4359" y="-841.5" font-family="Helvetica,sans-Serif" font-size="10.00" fill="#000000"> </text>
<polyline fill="none" stroke="#000000" points="382.9359,-834.5 507.9359,-834.5 "/>
<text text-anchor="start" x="390.9359" y="-822.5" font-family="Helvetica,sans-Serif" font-size="10.00" fill="#000000">+ Descriptor()</text>
<text text-anchor="start" x="390.9359" y="-811.5" font-family="Helvetica,sans-Serif" font-size="10.00" fill="#000000">+ Descriptor()</text>
<text text-anchor="start" x="390.9359" y="-800.5" font-family="Helvetica,sans-Serif" font-size="10.00" fill="#000000">+ Descriptor()</text>
<text text-anchor="start" x="390.9359" y="-789.5" font-family="Helvetica,sans-Serif" font-size="10.00" fill="#000000">+ operator=()</text>
<text text-anchor="start" x="390.9359" y="-778.5" font-family="Helvetica,sans-Serif" font-size="10.00" fill="#000000">+ operator ItgType()</text>
<text text-anchor="start" x="390.9359" y="-767.5" font-family="Helvetica,sans-Serif" font-size="10.00" fill="#000000">+ Descriptor()</text>
<text text-anchor="start" x="390.9359" y="-756.5" font-family="Helvetica,sans-Serif" font-size="10.00" fill="#000000">+ runtimeInit()</text>
<text text-anchor="start" x="390.9359" y="-745.5" font-family="Helvetica,sans-Serif" font-size="10.00" fill="#000000">+ operator==()</text>
<text text-anchor="start" x="390.9359" y="-734.5" font-family="Helvetica,sans-Serif" font-size="10.00" fill="#000000">+ operator&lt;()</text>
<text text-anchor="start" x="390.9359" y="-723.5" font-family="Helvetica,sans-Serif" font-size="10.00" fill="#000000">+ operator!=()</text>
<text text-anchor="start" x="390.9359" y="-712.5" font-family="Helvetica,sans-Serif" font-size="10.00" fill="#000000">+ operator==()</text>
<text text-anchor="start" x="390.9359" y="-701.5" font-family="Helvetica,sans-Serif" font-size="10.00" fill="#000000">+ operator!=()</text>
<text text-anchor="start" x="390.9359" y="-690.5" font-family="Helvetica,sans-Serif" font-size="10.00" fill="#000000">+ as()</text>
<text text-anchor="start" x="390.9359" y="-679.5" font-family="Helvetica,sans-Serif" font-size="10.00" fill="#000000">+ print()</text>
</a>
</g>
</g>
<!-- Node4&#45;&gt;Node8 -->
<g id="edge8" class="edge">
<title>Node4&#45;&gt;Node8</title>
<path fill="none" stroke="#404040" d="M233.2161,-964.6071C263.9963,-937.5418 324.879,-884.007 373.5696,-841.1928"/>
<polygon fill="none" stroke="#404040" points="373.8089,-840.9824 375.6734,-834.0165 382.8206,-833.0583 380.9561,-840.0243 373.8089,-840.9824"/>
<text text-anchor="middle" x="314.9359" y="-916" font-family="Helvetica,sans-Serif" font-size="10.00" fill="#000000"> +itg</text>
</g>
<!-- Node9 -->
<g id="node9" class="node">
<title>Node9</title>
<g id="a_node9"><a xlink:href="../../d9/db3/structo2_1_1header_1_1Descriptor.html" target="_top" xlink:title="{o2::header::Descriptor\l\&lt; gSizeDataDescriptionString,\l printDataDescription \&gt;\n||+ Descriptor()\l+ Descriptor()\l+ Descriptor()\l+ Descriptor()\l+ operator=()\l+ operator ItgType()\l+ runtimeInit()\l+ operator==()\l+ operator==()\l+ operator\&lt;()\l+ operator!=()\l+ operator!=()\l+ as()\l+ print()\l}">
<polygon fill="none" stroke="#000000" points="252.4359,-325.5 252.4359,-547.5 416.4359,-547.5 416.4359,-325.5 252.4359,-325.5"/>
<text text-anchor="start" x="260.4359" y="-535.5" font-family="Helvetica,sans-Serif" font-size="10.00" fill="#000000">o2::header::Descriptor</text>
<text text-anchor="start" x="260.4359" y="-524.5" font-family="Helvetica,sans-Serif" font-size="10.00" fill="#000000">&lt; gSizeDataDescriptionString,</text>
<text text-anchor="middle" x="334.4359" y="-513.5" font-family="Helvetica,sans-Serif" font-size="10.00" fill="#000000"> printDataDescription &gt;</text>
<polyline fill="none" stroke="#000000" points="252.4359,-506.5 416.4359,-506.5 "/>
<text text-anchor="middle" x="334.4359" y="-494.5" font-family="Helvetica,sans-Serif" font-size="10.00" fill="#000000"> </text>
<polyline fill="none" stroke="#000000" points="252.4359,-487.5 416.4359,-487.5 "/>
<text text-anchor="start" x="260.4359" y="-475.5" font-family="Helvetica,sans-Serif" font-size="10.00" fill="#000000">+ Descriptor()</text>
<text text-anchor="start" x="260.4359" y="-464.5" font-family="Helvetica,sans-Serif" font-size="10.00" fill="#000000">+ Descriptor()</text>
<text text-anchor="start" x="260.4359" y="-453.5" font-family="Helvetica,sans-Serif" font-size="10.00" fill="#000000">+ Descriptor()</text>
<text text-anchor="start" x="260.4359" y="-442.5" font-family="Helvetica,sans-Serif" font-size="10.00" fill="#000000">+ Descriptor()</text>
<text text-anchor="start" x="260.4359" y="-431.5" font-family="Helvetica,sans-Serif" font-size="10.00" fill="#000000">+ operator=()</text>
<text text-anchor="start" x="260.4359" y="-420.5" font-family="Helvetica,sans-Serif" font-size="10.00" fill="#000000">+ operator ItgType()</text>
<text text-anchor="start" x="260.4359" y="-409.5" font-family="Helvetica,sans-Serif" font-size="10.00" fill="#000000">+ runtimeInit()</text>
<text text-anchor="start" x="260.4359" y="-398.5" font-family="Helvetica,sans-Serif" font-size="10.00" fill="#000000">+ operator==()</text>
<text text-anchor="start" x="260.4359" y="-387.5" font-family="Helvetica,sans-Serif" font-size="10.00" fill="#000000">+ operator==()</text>
<text text-anchor="start" x="260.4359" y="-376.5" font-family="Helvetica,sans-Serif" font-size="10.00" fill="#000000">+ operator&lt;()</text>
<text text-anchor="start" x="260.4359" y="-365.5" font-family="Helvetica,sans-Serif" font-size="10.00" fill="#000000">+ operator!=()</text>
<text text-anchor="start" x="260.4359" y="-354.5" font-family="Helvetica,sans-Serif" font-size="10.00" fill="#000000">+ operator!=()</text>
<text text-anchor="start" x="260.4359" y="-343.5" font-family="Helvetica,sans-Serif" font-size="10.00" fill="#000000">+ as()</text>
<text text-anchor="start" x="260.4359" y="-332.5" font-family="Helvetica,sans-Serif" font-size="10.00" fill="#000000">+ print()</text>
</a>
</g>
</g>
<!-- Node4&#45;&gt;Node9 -->
<g id="edge13" class="edge">
<title>Node4&#45;&gt;Node9</title>
<path fill="none" stroke="#404040" d="M195.407,-953.2415C184.6571,-934.3505 172.0425,-908.6555 166.4359,-884 145.5435,-792.1233 152.2712,-765.1514 166.4359,-672 173.8535,-623.2194 166.2356,-602.5008 199.4359,-566 213.3764,-550.6737 225.8019,-560.3508 242.4359,-548 242.5398,-547.9229 242.6437,-547.8456 242.7475,-547.7681"/>
<polygon fill="none" stroke="#404040" points="242.8768,-547.6651 245.0776,-540.798 252.2629,-540.1883 250.0621,-547.0554 242.8768,-547.6651"/>
<text text-anchor="middle" x="178.9359" y="-775.5" font-family="Helvetica,sans-Serif" font-size="10.00" fill="#000000"> +itg</text>
</g>
<!-- Node5 -->
<g id="node5" class="node">
<title>Node5</title>
<polygon fill="none" stroke="#bfbfbf" points="595.4359,-953.5 595.4359,-1010.5 633.4359,-1010.5 633.4359,-953.5 595.4359,-953.5"/>
<text text-anchor="middle" x="614.4359" y="-998.5" font-family="Helvetica,sans-Serif" font-size="10.00" fill="#000000">char</text>
<polyline fill="none" stroke="#bfbfbf" points="595.4359,-991.5 633.4359,-991.5 "/>
<text text-anchor="middle" x="614.4359" y="-979.5" font-family="Helvetica,sans-Serif" font-size="10.00" fill="#000000"> </text>
<polyline fill="none" stroke="#bfbfbf" points="595.4359,-972.5 633.4359,-972.5 "/>
<text text-anchor="middle" x="614.4359" y="-960.5" font-family="Helvetica,sans-Serif" font-size="10.00" fill="#000000"> </text>
</g>
<!-- Node5&#45;&gt;Node3 -->
<g id="edge4" class="edge">
<title>Node5&#45;&gt;Node3</title>
<path fill="none" stroke="#404040" d="M626.6099,-953.4195C655.7599,-880.0152 720.5587,-682.4725 628.4359,-566 614.8167,-548.781 599.7297,-561.5241 582.4359,-548 582.2257,-547.8356 582.0158,-547.6705 581.8062,-547.5046"/>
<polygon fill="none" stroke="#404040" points="581.7039,-547.4169 574.5456,-546.5456 572.5968,-539.6028 579.7551,-540.4741 581.7039,-547.4169"/>
<text text-anchor="middle" x="687.9359" y="-775.5" font-family="Helvetica,sans-Serif" font-size="10.00" fill="#000000"> +str</text>
</g>
<!-- Node5&#45;&gt;Node8 -->
<g id="edge9" class="edge">
<title>Node5&#45;&gt;Node8</title>
<path fill="none" stroke="#404040" d="M595.3658,-963.1305C576.221,-943.8605 546.2327,-912.7723 522.4359,-884 520.1935,-881.2887 517.9409,-878.518 515.6876,-875.7051"/>
<polygon fill="none" stroke="#404040" points="515.4675,-875.4259 508.6114,-873.1912 508.0372,-866.003 514.8933,-868.2377 515.4675,-875.4259"/>
<text text-anchor="middle" x="578.9359" y="-916" font-family="Helvetica,sans-Serif" font-size="10.00" fill="#000000"> +str</text>
</g>
<!-- Node5&#45;&gt;Node9 -->
<g id="edge14" class="edge">
<title>Node5&#45;&gt;Node9</title>
<path fill="none" stroke="#404040" d="M614.1261,-953.3515C612.8736,-863.7625 606.8356,-593.2446 579.4359,-566 557.103,-543.7935 472.1742,-560.979 428.0254,-547.4326"/>
<polygon fill="none" stroke="#404040" points="427.8202,-547.3473 420.7441,-548.7362 416.7405,-542.7386 423.8166,-541.3497 427.8202,-547.3473"/>
<text text-anchor="middle" x="624.9359" y="-775.5" font-family="Helvetica,sans-Serif" font-size="10.00" fill="#000000"> +str</text>
</g>
<!-- Node6 -->
<g id="node6" class="node">
<title>Node6</title>
<polygon fill="none" stroke="#bfbfbf" points="782.9359,-953.5 782.9359,-1010.5 811.9359,-1010.5 811.9359,-953.5 782.9359,-953.5"/>
<text text-anchor="middle" x="797.4359" y="-998.5" font-family="Helvetica,sans-Serif" font-size="10.00" fill="#000000">int</text>
<polyline fill="none" stroke="#bfbfbf" points="782.9359,-991.5 811.9359,-991.5 "/>
<text text-anchor="middle" x="797.4359" y="-979.5" font-family="Helvetica,sans-Serif" font-size="10.00" fill="#000000"> </text>
<polyline fill="none" stroke="#bfbfbf" points="782.9359,-972.5 811.9359,-972.5 "/>
<text text-anchor="middle" x="797.4359" y="-960.5" font-family="Helvetica,sans-Serif" font-size="10.00" fill="#000000"> </text>
</g>
<!-- Node6&#45;&gt;Node1 -->
<g id="edge20" class="edge">
<title>Node6&#45;&gt;Node1</title>
<path fill="none" stroke="#404040" d="M812.1172,-973.7824C836.2918,-959.3011 883.6668,-926.6849 902.4359,-884 957.9853,-757.6691 980.4814,-380.088 907.4359,-263 865.1234,-195.1754 779.5125,-159.1897 712.7533,-140.6892"/>
<polygon fill="none" stroke="#404040" points="712.541,-140.6328 705.7134,-142.9529 700.9457,-137.5429 707.7733,-135.2227 712.541,-140.6328"/>
<text text-anchor="middle" x="996.4359" y="-624" font-family="Helvetica,sans-Serif" font-size="10.00" fill="#000000"> +nHBFinTF</text>
<text text-anchor="middle" x="996.4359" y="-613" font-family="Helvetica,sans-Serif" font-size="10.00" fill="#000000">+nErrors</text>
<text text-anchor="middle" x="996.4359" y="-602" font-family="Helvetica,sans-Serif" font-size="10.00" fill="#000000">+fairMQChannel</text>
<text text-anchor="middle" x="996.4359" y="-591" font-family="Helvetica,sans-Serif" font-size="10.00" fill="#000000">+nextBlock2Read</text>
</g>
<!-- Node6&#45;&gt;Node3 -->
<g id="edge5" class="edge">
<title>Node6&#45;&gt;Node3</title>
<path fill="none" stroke="#404040" d="M807.128,-953.4406C831.8807,-874.6125 887.1941,-654.0253 764.4359,-566 701.347,-520.7613 656.8563,-582.7735 583.1991,-547.1947"/>
<polygon fill="none" stroke="#404040" points="583.1787,-547.1838 576.0001,-547.8684 572.6072,-541.5053 579.7857,-540.8207 583.1787,-547.1838"/>
<text text-anchor="middle" x="869.4359" y="-786.5" font-family="Helvetica,sans-Serif" font-size="10.00" fill="#000000"> +arraySize</text>
<text text-anchor="middle" x="869.4359" y="-775.5" font-family="Helvetica,sans-Serif" font-size="10.00" fill="#000000">+size</text>
<text text-anchor="middle" x="869.4359" y="-764.5" font-family="Helvetica,sans-Serif" font-size="10.00" fill="#000000">+bitcount</text>
</g>
<!-- Node6&#45;&gt;Node8 -->
<g id="edge10" class="edge">
<title>Node6&#45;&gt;Node8</title>
<path fill="none" stroke="#404040" d="M782.7757,-976.2222C760.3105,-967.3656 716.0197,-949.8935 678.4359,-935 641.5304,-920.3753 633.2402,-914.1135 595.4359,-902 563.6135,-891.8032 550.1626,-902.6513 522.4359,-884 520.7167,-882.8435 519.0223,-881.6351 517.3533,-880.38"/>
<polygon fill="none" stroke="#404040" points="517.3257,-880.3572 510.1523,-879.6209 508.073,-872.7161 515.2464,-873.4524 517.3257,-880.3572"/>
<text text-anchor="middle" x="707.4359" y="-927" font-family="Helvetica,sans-Serif" font-size="10.00" fill="#000000"> +arraySize</text>
<text text-anchor="middle" x="707.4359" y="-916" font-family="Helvetica,sans-Serif" font-size="10.00" fill="#000000">+size</text>
<text text-anchor="middle" x="707.4359" y="-905" font-family="Helvetica,sans-Serif" font-size="10.00" fill="#000000">+bitcount</text>
</g>
<!-- Node6&#45;&gt;Node9 -->
<g id="edge15" class="edge">
<title>Node6&#45;&gt;Node9</title>
<path fill="none" stroke="#404040" d="M786.9934,-953.4257C780.0106,-933.9609 770.7903,-907.5504 763.4359,-884 734.282,-790.6433 752.7214,-757.0526 704.4359,-672 672.3094,-615.4106 661.8836,-594.6067 603.4359,-566 535.3646,-532.6831 498.9652,-580.7452 427.5114,-548.2058"/>
<polygon fill="none" stroke="#404040" points="427.4388,-548.1695 420.2832,-549.0625 416.7067,-542.8008 423.8623,-541.9078 427.4388,-548.1695"/>
<text text-anchor="middle" x="792.4359" y="-786.5" font-family="Helvetica,sans-Serif" font-size="10.00" fill="#000000"> +arraySize</text>
<text text-anchor="middle" x="792.4359" y="-775.5" font-family="Helvetica,sans-Serif" font-size="10.00" fill="#000000">+size</text>
<text text-anchor="middle" x="792.4359" y="-764.5" font-family="Helvetica,sans-Serif" font-size="10.00" fill="#000000">+bitcount</text>
</g>
<!-- Node7 -->
<g id="node7" class="node">
<title>Node7</title>
<polygon fill="none" stroke="#bfbfbf" points="391.9359,-953.5 391.9359,-1010.5 498.9359,-1010.5 498.9359,-953.5 391.9359,-953.5"/>
<text text-anchor="middle" x="445.4359" y="-998.5" font-family="Helvetica,sans-Serif" font-size="10.00" fill="#000000">anonymous:+@71</text>
<polyline fill="none" stroke="#bfbfbf" points="391.9359,-991.5 498.9359,-991.5 "/>
<text text-anchor="middle" x="445.4359" y="-979.5" font-family="Helvetica,sans-Serif" font-size="10.00" fill="#000000"> </text>
<polyline fill="none" stroke="#bfbfbf" points="391.9359,-972.5 498.9359,-972.5 "/>
<text text-anchor="middle" x="445.4359" y="-960.5" font-family="Helvetica,sans-Serif" font-size="10.00" fill="#000000"> </text>
</g>
<!-- Node7&#45;&gt;Node3 -->
<g id="edge6" class="edge">
<title>Node7&#45;&gt;Node3</title>
<path fill="none" stroke="#404040" d="M472.3002,-953.4419C488.0413,-935.03 506.8532,-909.7805 517.4359,-884 553.8793,-795.2207 514.6368,-757.3904 558.4359,-672 563.458,-662.2089 571.3705,-664.2254 575.4359,-654 587.5094,-623.6324 584.4172,-590.3542 574.6501,-559.1617"/>
<polygon fill="none" stroke="#404040" points="574.6396,-559.1307 568.9167,-554.7434 570.7654,-547.7733 576.4883,-552.1606 574.6396,-559.1307"/>
<text text-anchor="middle" x="575.4359" y="-775.5" font-family="Helvetica,sans-Serif" font-size="10.00" fill="#000000"> +@71</text>
</g>
<!-- Node7&#45;&gt;Node8 -->
<g id="edge11" class="edge">
<title>Node7&#45;&gt;Node8</title>
<path fill="none" stroke="#404040" d="M445.4359,-953.2045C445.4359,-937.616 445.4359,-917.2061 445.4359,-895.8459"/>
<polygon fill="none" stroke="#404040" points="445.436,-895.5491 441.436,-889.5491 445.4359,-883.5491 449.436,-889.5491 445.436,-895.5491"/>
<text text-anchor="middle" x="462.4359" y="-916" font-family="Helvetica,sans-Serif" font-size="10.00" fill="#000000"> +@71</text>
</g>
<!-- Node7&#45;&gt;Node9 -->
<g id="edge16" class="edge">
<title>Node7&#45;&gt;Node9</title>
<path fill="none" stroke="#404040" d="M405.9819,-953.4434C383.9424,-935.6723 357.5538,-911.0863 340.4359,-884 283.1407,-793.3397 283.8516,-759.9837 267.4359,-654 261.4494,-615.3498 258.1875,-604.0019 267.4359,-566 267.9971,-563.6942 268.607,-561.3835 269.2613,-559.0716"/>
<polygon fill="none" stroke="#404040" points="269.294,-558.9671 267.2718,-552.0454 272.8833,-547.5165 274.9055,-554.4382 269.294,-558.9671"/>
<text text-anchor="middle" x="357.4359" y="-775.5" font-family="Helvetica,sans-Serif" font-size="10.00" fill="#000000"> +@71</text>
</g>
<!-- Node8&#45;&gt;Node3 -->
<g id="edge7" class="edge">
<title>Node8&#45;&gt;Node3</title>
<path fill="none" stroke="#ffa500" d="M440.5663,-662.1461C441.3009,-630.6876 443.9968,-596.8108 450.4359,-566 451.7032,-559.9364 453.2438,-553.7958 454.9908,-547.6539"/>
<polygon fill="#ffa500" stroke="#ffa500" points="437.0648,-662.2099 440.3944,-672.2679 444.0638,-662.3288 437.0648,-662.2099"/>
<text text-anchor="start" x="450.4359" y="-613" font-family="Helvetica,sans-Serif" font-size="10.00" fill="#000000"> &lt; gSizeDataOriginString,</text>
<text text-anchor="middle" x="512.9359" y="-602" font-family="Helvetica,sans-Serif" font-size="10.00" fill="#000000"> printDataOrigin &gt;</text>
</g>
<!-- Node8&#45;&gt;Node9 -->
<g id="edge17" class="edge">
<title>Node8&#45;&gt;Node9</title>
<path fill="none" stroke="#ffa500" d="M374.6803,-714.7897C356.8507,-700.0392 337.3798,-684.8888 318.4359,-672 304.6231,-662.6022 293.964,-668.366 285.4359,-654 266.4678,-622.0474 268.6164,-583.4733 278.7116,-547.7372"/>
<polygon fill="#ffa500" stroke="#ffa500" points="372.8304,-717.8048 382.749,-721.5293 377.3178,-712.4324 372.8304,-717.8048"/>
<text text-anchor="start" x="285.4359" y="-613" font-family="Helvetica,sans-Serif" font-size="10.00" fill="#000000"> &lt; gSizeDataDescriptionString,</text>
<text text-anchor="middle" x="360.9359" y="-602" font-family="Helvetica,sans-Serif" font-size="10.00" fill="#000000"> printDataDescription &gt;</text>
</g>
<!-- Node9&#45;&gt;Node1 -->
<g id="edge12" class="edge">
<title>Node9&#45;&gt;Node1</title>
<path fill="none" stroke="#404040" d="M416.4374,-335.324C419.4558,-331.8242 422.4617,-328.3737 425.4359,-325 458.9096,-287.0309 497.2655,-246.5911 531.054,-211.914"/>
<polygon fill="none" stroke="#404040" points="531.1547,-211.8109 532.4861,-204.7238 539.5402,-203.227 538.2088,-210.3141 531.1547,-211.8109"/>
<text text-anchor="middle" x="510.4359" y="-282.5" font-family="Helvetica,sans-Serif" font-size="10.00" fill="#000000"> +description</text>
</g>
<!-- Node10 -->
<g id="node10" class="node">
<title>Node10</title>
<polygon fill="none" stroke="#bfbfbf" points="590.9359,-402.5 590.9359,-470.5 727.9359,-470.5 727.9359,-402.5 590.9359,-402.5"/>
<text text-anchor="start" x="598.9359" y="-458.5" font-family="Helvetica,sans-Serif" font-size="10.00" fill="#000000">vector&lt; o2::raw::RawFile</text>
<text text-anchor="middle" x="659.4359" y="-447.5" font-family="Helvetica,sans-Serif" font-size="10.00" fill="#000000">Reader::LinkBlock &gt;</text>
<polyline fill="none" stroke="#bfbfbf" points="590.9359,-440.5 727.9359,-440.5 "/>
<text text-anchor="middle" x="659.4359" y="-428.5" font-family="Helvetica,sans-Serif" font-size="10.00" fill="#000000"> </text>
<polyline fill="none" stroke="#bfbfbf" points="590.9359,-421.5 727.9359,-421.5 "/>
<text text-anchor="middle" x="659.4359" y="-409.5" font-family="Helvetica,sans-Serif" font-size="10.00" fill="#000000"> </text>
</g>
<!-- Node10&#45;&gt;Node1 -->
<g id="edge18" class="edge">
<title>Node10&#45;&gt;Node1</title>
<path fill="none" stroke="#404040" d="M655.188,-402.2988C650.8197,-367.1288 643.7367,-310.1012 637.1011,-256.6763"/>
<polygon fill="none" stroke="#404040" points="637.0838,-256.536 632.3747,-251.0748 635.6046,-244.6275 640.3137,-250.0887 637.0838,-256.536"/>
<text text-anchor="middle" x="662.9359" y="-282.5" font-family="Helvetica,sans-Serif" font-size="10.00" fill="#000000"> +blocks</text>
</g>
<!-- Node11 -->
<g id="node11" class="node">
<title>Node11</title>
<g id="a_node11"><a xlink:href="../../d3/d87/classuint32__t.html" target="_top" xlink:title="{uint32_t\n||}">
<polygon fill="none" stroke="#000000" points="746.4359,-408 746.4359,-465 802.4359,-465 802.4359,-408 746.4359,-408"/>
<text text-anchor="middle" x="774.4359" y="-453" font-family="Helvetica,sans-Serif" font-size="10.00" fill="#000000">uint32_t</text>
<polyline fill="none" stroke="#000000" points="746.4359,-446 802.4359,-446 "/>
<text text-anchor="middle" x="774.4359" y="-434" font-family="Helvetica,sans-Serif" font-size="10.00" fill="#000000"> </text>
<polyline fill="none" stroke="#000000" points="746.4359,-427 802.4359,-427 "/>
<text text-anchor="middle" x="774.4359" y="-415" font-family="Helvetica,sans-Serif" font-size="10.00" fill="#000000"> </text>
</a>
</g>
</g>
<!-- Node11&#45;&gt;Node1 -->
<g id="edge19" class="edge">
<title>Node11&#45;&gt;Node1</title>
<path fill="none" stroke="#404040" d="M766.7059,-407.9464C760.0968,-385.0542 749.7204,-352.3493 737.4359,-325 727.0955,-301.9787 714.8791,-278.1989 702.3072,-255.3861"/>
<polygon fill="none" stroke="#404040" points="702.1535,-255.1101 695.7391,-251.8152 696.3135,-244.627 702.7279,-247.9219 702.1535,-255.1101"/>
<text text-anchor="middle" x="765.4359" y="-299" font-family="Helvetica,sans-Serif" font-size="10.00" fill="#000000"> +nTimeFrames</text>
<text text-anchor="middle" x="765.4359" y="-288" font-family="Helvetica,sans-Serif" font-size="10.00" fill="#000000">+nHBFrames</text>
<text text-anchor="middle" x="765.4359" y="-277" font-family="Helvetica,sans-Serif" font-size="10.00" fill="#000000">+nSPages</text>
<text text-anchor="middle" x="765.4359" y="-266" font-family="Helvetica,sans-Serif" font-size="10.00" fill="#000000">+subspec</text>
</g>
<!-- Node12 -->
<g id="node12" class="node">
<title>Node12</title>
<polygon fill="none" stroke="#bfbfbf" points="820.4359,-408 820.4359,-465 858.4359,-465 858.4359,-408 820.4359,-408"/>
<text text-anchor="middle" x="839.4359" y="-453" font-family="Helvetica,sans-Serif" font-size="10.00" fill="#000000">bool</text>
<polyline fill="none" stroke="#bfbfbf" points="820.4359,-446 858.4359,-446 "/>
<text text-anchor="middle" x="839.4359" y="-434" font-family="Helvetica,sans-Serif" font-size="10.00" fill="#000000"> </text>
<polyline fill="none" stroke="#bfbfbf" points="820.4359,-427 858.4359,-427 "/>
<text text-anchor="middle" x="839.4359" y="-415" font-family="Helvetica,sans-Serif" font-size="10.00" fill="#000000"> </text>
</g>
<!-- Node12&#45;&gt;Node1 -->
<g id="edge21" class="edge">
<title>Node12&#45;&gt;Node1</title>
<path fill="none" stroke="#404040" d="M840.5397,-407.8185C840.6193,-371.445 836.2356,-308.0483 808.4359,-263 784.9673,-224.9701 747.1021,-193.7381 711.4831,-170.4594"/>
<polygon fill="none" stroke="#404040" points="711.1407,-170.2416 703.9312,-170.3951 701.0166,-163.7993 708.2261,-163.6457 711.1407,-170.2416"/>
<text text-anchor="middle" x="865.4359" y="-293.5" font-family="Helvetica,sans-Serif" font-size="10.00" fill="#000000"> +openHB</text>
<text text-anchor="middle" x="865.4359" y="-282.5" font-family="Helvetica,sans-Serif" font-size="10.00" fill="#000000">+cruDetector</text>
<text text-anchor="middle" x="865.4359" y="-271.5" font-family="Helvetica,sans-Serif" font-size="10.00" fill="#000000">+continuousRO</text>
</g>
<!-- Node13&#45;&gt;Node1 -->
<g id="edge22" class="edge">
<title>Node13&#45;&gt;Node1</title>
<path fill="none" stroke="#404040" d="M223.7998,-347.294C229.8472,-339.2939 236.4059,-331.6993 243.4359,-325 326.3964,-245.9422 446.2486,-188.6386 528.4194,-155.5748"/>
<polygon fill="none" stroke="#404040" points="528.6042,-155.5015 532.7032,-149.5687 539.7562,-151.0705 535.6571,-157.0033 528.6042,-155.5015"/>
<text text-anchor="middle" x="331.9359" y="-282.5" font-family="Helvetica,sans-Serif" font-size="10.00" fill="#000000"> +rdhl</text>
</g>
</g>
</svg>
