<?xml version="1.0" encoding="UTF-8" standalone="no"?>
<!DOCTYPE svg PUBLIC "-//W3C//DTD SVG 1.1//EN"
 "http://www.w3.org/Graphics/SVG/1.1/DTD/svg11.dtd">
<!-- Generated by graphviz version 2.40.1 (20161225.0304)
 -->
<!-- Title: o2::emcal::EMCALBlockHeader Pages: 1 -->
<!--zoomable 1003 -->
<svg id="main" version="1.1" xmlns="http://www.w3.org/2000/svg" xmlns:xlink="http://www.w3.org/1999/xlink" xml:space="preserve" onload="init(evt)">
<style type="text/css"><![CDATA[
.edge:hover path { stroke: red; }
.edge:hover polygon { stroke: red; fill: red; }
]]></style>
<script type="text/javascript"><![CDATA[
var edges = document.getElementsByTagName('g');
if (edges && edges.length) {
  for (var i=0;i<edges.length;i++) {
    if (edges[i].id.substr(0,4)=='edge') {
      edges[i].setAttribute('class','edge');
    }
  }
}
]]></script>
        <defs>
                <circle id="rim" cx="0" cy="0" r="7"/>
                <circle id="rim2" cx="0" cy="0" r="3.5"/>
                <g id="zoomPlus">
                        <use xlink:href="#rim" fill="#404040">
                                <set attributeName="fill" to="#808080" begin="zoomplus.mouseover" end="zoomplus.mouseout"/>
                        </use>
                        <path d="M-4,0h8M0,-4v8" fill="none" stroke="white" stroke-width="1.5" pointer-events="none"/>
                </g>
                <g id="zoomMin">
                        <use xlink:href="#rim" fill="#404040">
                                <set attributeName="fill" to="#808080" begin="zoomminus.mouseover" end="zoomminus.mouseout"/>
                        </use>
                        <path d="M-4,0h8" fill="none" stroke="white" stroke-width="1.5" pointer-events="none"/>
                </g>
                <g id="dirArrow">
                        <path fill="none" stroke="white" stroke-width="1.5" d="M0,-3.0v7 M-2.5,-0.5L0,-3.0L2.5,-0.5"/>
                </g>
               <g id="resetDef">
                       <use xlink:href="#rim2" fill="#404040">
                               <set attributeName="fill" to="#808080" begin="reset.mouseover" end="reset.mouseout"/>
                       </use>
               </g>
        </defs>

<script type="text/javascript">
var viewWidth = 973;
var viewHeight = 1003;
var sectionId = 'dynsection-1';
</script>
<script xlink:href="../../svgpan.js"/>
<svg id="graph" class="graph">
<g id="viewport">
<title>o2::emcal::EMCALBlockHeader</title>
<!-- Node2 -->
<g id="node1" class="node">
<title>Node2</title>
<polygon fill="#bfbfbf" stroke="#000000" points="116.7234,-.5 116.7234,-57.5 282.7234,-57.5 282.7234,-.5 116.7234,-.5"/>
<text text-anchor="middle" x="199.7234" y="-45.5" font-family="Helvetica,sans-Serif" font-size="10.00" fill="#000000">o2::emcal::EMCALBlockHeader</text>
<polyline fill="none" stroke="#000000" points="116.7234,-38.5 282.7234,-38.5 "/>
<text text-anchor="middle" x="199.7234" y="-26.5" font-family="Helvetica,sans-Serif" font-size="10.00" fill="#000000"> </text>
<polyline fill="none" stroke="#000000" points="116.7234,-19.5 282.7234,-19.5 "/>
<text text-anchor="start" x="124.7234" y="-7.5" font-family="Helvetica,sans-Serif" font-size="10.00" fill="#000000">+ EMCALBlockHeader()</text>
</g>
<!-- Node3 -->
<g id="node2" class="node">
<title>Node3</title>
<g id="a_node2"><a xlink:href="../../d8/dbd/structo2_1_1header_1_1BaseHeader.html" target="_top" xlink:title="the base header struct Every header type must begin (i.e. derive) with this. Don&#39;t use this struct di...">
<polygon fill="none" stroke="#000000" points="310.2234,-105.5 310.2234,-272.5 483.2234,-272.5 483.2234,-105.5 310.2234,-105.5"/>
<text text-anchor="middle" x="396.7234" y="-260.5" font-family="Helvetica,sans-Serif" font-size="10.00" fill="#000000">o2::header::BaseHeader</text>
<polyline fill="none" stroke="#000000" points="310.2234,-253.5 483.2234,-253.5 "/>
<text text-anchor="middle" x="396.7234" y="-241.5" font-family="Helvetica,sans-Serif" font-size="10.00" fill="#000000"> </text>
<polyline fill="none" stroke="#000000" points="310.2234,-234.5 483.2234,-234.5 "/>
<text text-anchor="start" x="318.2234" y="-222.5" font-family="Helvetica,sans-Serif" font-size="10.00" fill="#000000">+ BaseHeader()</text>
<text text-anchor="start" x="318.2234" y="-211.5" font-family="Helvetica,sans-Serif" font-size="10.00" fill="#000000">+ BaseHeader()</text>
<text text-anchor="start" x="318.2234" y="-200.5" font-family="Helvetica,sans-Serif" font-size="10.00" fill="#000000">+ BaseHeader()</text>
<text text-anchor="start" x="318.2234" y="-189.5" font-family="Helvetica,sans-Serif" font-size="10.00" fill="#000000">+ size()</text>
<text text-anchor="start" x="318.2234" y="-178.5" font-family="Helvetica,sans-Serif" font-size="10.00" fill="#000000">+ data()</text>
<text text-anchor="start" x="318.2234" y="-167.5" font-family="Helvetica,sans-Serif" font-size="10.00" fill="#000000">+ next()</text>
<text text-anchor="start" x="318.2234" y="-156.5" font-family="Helvetica,sans-Serif" font-size="10.00" fill="#000000">+ next()</text>
<text text-anchor="start" x="318.2234" y="-145.5" font-family="Helvetica,sans-Serif" font-size="10.00" fill="#000000">+ sanityCheck()</text>
<text text-anchor="start" x="318.2234" y="-134.5" font-family="Helvetica,sans-Serif" font-size="10.00" fill="#000000">+ throwInconsistentStackError()</text>
<text text-anchor="start" x="318.2234" y="-123.5" font-family="Helvetica,sans-Serif" font-size="10.00" fill="#000000">+ get()</text>
<text text-anchor="start" x="318.2234" y="-112.5" font-family="Helvetica,sans-Serif" font-size="10.00" fill="#000000">+ get()</text>
</a>
</g>
</g>
<!-- Node3&#45;&gt;Node2 -->
<g id="edge1" class="edge">
<title>Node3&#45;&gt;Node2</title>
<path fill="none" stroke="#191970" d="M302.2618,-112.28C278.2802,-92.8025 253.9788,-73.0654 235.0567,-57.6971"/>
<polygon fill="none" stroke="#191970" points="300.0607,-115.0012 310.0296,-118.5888 304.4738,-109.5675 300.0607,-115.0012"/>
</g>
<!-- Node4 -->
<g id="node3" class="node">
<title>Node4</title>
<g id="a_node3"><a xlink:href="../../d9/db3/structo2_1_1header_1_1Descriptor.html" target="_top" xlink:title="{o2::header::Descriptor\l\&lt; gSizeHeaderDescriptionString \&gt;\n||+ Descriptor()\l+ Descriptor()\l+ Descriptor()\l+ Descriptor()\l+ operator=()\l+ operator ItgType()\l+ runtimeInit()\l+ operator==()\l+ operator==()\l+ operator\&lt;()\l+ operator!=()\l+ operator!=()\l+ as()\l+ print()\l}">
<polygon fill="none" stroke="#000000" points="654.2234,-386.5 654.2234,-597.5 839.2234,-597.5 839.2234,-386.5 654.2234,-386.5"/>
<text text-anchor="start" x="662.2234" y="-585.5" font-family="Helvetica,sans-Serif" font-size="10.00" fill="#000000">o2::header::Descriptor</text>
<text text-anchor="middle" x="746.7234" y="-574.5" font-family="Helvetica,sans-Serif" font-size="10.00" fill="#000000">&lt; gSizeHeaderDescriptionString &gt;</text>
<polyline fill="none" stroke="#000000" points="654.2234,-567.5 839.2234,-567.5 "/>
<text text-anchor="middle" x="746.7234" y="-555.5" font-family="Helvetica,sans-Serif" font-size="10.00" fill="#000000"> </text>
<polyline fill="none" stroke="#000000" points="654.2234,-548.5 839.2234,-548.5 "/>
<text text-anchor="start" x="662.2234" y="-536.5" font-family="Helvetica,sans-Serif" font-size="10.00" fill="#000000">+ Descriptor()</text>
<text text-anchor="start" x="662.2234" y="-525.5" font-family="Helvetica,sans-Serif" font-size="10.00" fill="#000000">+ Descriptor()</text>
<text text-anchor="start" x="662.2234" y="-514.5" font-family="Helvetica,sans-Serif" font-size="10.00" fill="#000000">+ Descriptor()</text>
<text text-anchor="start" x="662.2234" y="-503.5" font-family="Helvetica,sans-Serif" font-size="10.00" fill="#000000">+ Descriptor()</text>
<text text-anchor="start" x="662.2234" y="-492.5" font-family="Helvetica,sans-Serif" font-size="10.00" fill="#000000">+ operator=()</text>
<text text-anchor="start" x="662.2234" y="-481.5" font-family="Helvetica,sans-Serif" font-size="10.00" fill="#000000">+ operator ItgType()</text>
<text text-anchor="start" x="662.2234" y="-470.5" font-family="Helvetica,sans-Serif" font-size="10.00" fill="#000000">+ runtimeInit()</text>
<text text-anchor="start" x="662.2234" y="-459.5" font-family="Helvetica,sans-Serif" font-size="10.00" fill="#000000">+ operator==()</text>
<text text-anchor="start" x="662.2234" y="-448.5" font-family="Helvetica,sans-Serif" font-size="10.00" fill="#000000">+ operator==()</text>
<text text-anchor="start" x="662.2234" y="-437.5" font-family="Helvetica,sans-Serif" font-size="10.00" fill="#000000">+ operator&lt;()</text>
<text text-anchor="start" x="662.2234" y="-426.5" font-family="Helvetica,sans-Serif" font-size="10.00" fill="#000000">+ operator!=()</text>
<text text-anchor="start" x="662.2234" y="-415.5" font-family="Helvetica,sans-Serif" font-size="10.00" fill="#000000">+ operator!=()</text>
<text text-anchor="start" x="662.2234" y="-404.5" font-family="Helvetica,sans-Serif" font-size="10.00" fill="#000000">+ as()</text>
<text text-anchor="start" x="662.2234" y="-393.5" font-family="Helvetica,sans-Serif" font-size="10.00" fill="#000000">+ print()</text>
</a>
</g>
</g>
<!-- Node4&#45;&gt;Node3 -->
<g id="edge2" class="edge">
<title>Node4&#45;&gt;Node3</title>
<path fill="none" stroke="#404040" d="M740.4537,-386.4295C732.8772,-350.9792 718.0519,-314.5139 689.7234,-291 658.2759,-264.8973 549.9525,-286.7416 494.8816,-272.4353"/>
<polygon fill="none" stroke="#404040" points="494.7227,-272.3815 487.7567,-274.2457 483.3567,-268.5326 490.3226,-266.6684 494.7227,-272.3815"/>
<text text-anchor="middle" x="767.7234" y="-327" font-family="Helvetica,sans-Serif" font-size="10.00" fill="#000000"> +description</text>
</g>
<!-- Node5 -->
<g id="node4" class="node">
<title>Node5</title>
<polygon fill="none" stroke="#bfbfbf" points="404.2234,-937.5 404.2234,-994.5 443.2234,-994.5 443.2234,-937.5 404.2234,-937.5"/>
<text text-anchor="middle" x="423.7234" y="-982.5" font-family="Helvetica,sans-Serif" font-size="10.00" fill="#000000">Type</text>
<polyline fill="none" stroke="#bfbfbf" points="404.2234,-975.5 443.2234,-975.5 "/>
<text text-anchor="middle" x="423.7234" y="-963.5" font-family="Helvetica,sans-Serif" font-size="10.00" fill="#000000"> </text>
<polyline fill="none" stroke="#bfbfbf" points="404.2234,-956.5 443.2234,-956.5 "/>
<text text-anchor="middle" x="423.7234" y="-944.5" font-family="Helvetica,sans-Serif" font-size="10.00" fill="#000000"> </text>
</g>
<!-- Node5&#45;&gt;Node4 -->
<g id="edge3" class="edge">
<title>Node5&#45;&gt;Node4</title>
<path fill="none" stroke="#404040" d="M443.2679,-963.1783C486.3003,-955.8855 589.5472,-932.2712 641.7234,-868 702.6745,-792.9196 664.175,-748.9908 690.7234,-656 695.0344,-640.8997 699.9155,-625.1394 704.9549,-609.6159"/>
<polygon fill="none" stroke="#404040" points="705.089,-609.2072 703.1604,-602.2588 708.8326,-597.8061 710.7612,-604.7545 705.089,-609.2072"/>
<text text-anchor="middle" x="703.2234" y="-759.5" font-family="Helvetica,sans-Serif" font-size="10.00" fill="#000000"> +itg</text>
</g>
<!-- Node9 -->
<g id="node8" class="node">
<title>Node9</title>
<g id="a_node8"><a xlink:href="../../d9/db3/structo2_1_1header_1_1Descriptor.html" target="_top" xlink:title="{o2::header::Descriptor\l\&lt; N, PrinterPolicy \&gt;\n||+ Descriptor()\l+ Descriptor()\l+ Descriptor()\l+ operator=()\l+ operator ItgType()\l+ Descriptor()\l+ runtimeInit()\l+ operator==()\l+ operator\&lt;()\l+ operator!=()\l+ operator==()\l+ operator!=()\l+ as()\l+ print()\l}">
<polygon fill="none" stroke="#000000" points="262.2234,-656.5 262.2234,-867.5 387.2234,-867.5 387.2234,-656.5 262.2234,-656.5"/>
<text text-anchor="start" x="270.2234" y="-855.5" font-family="Helvetica,sans-Serif" font-size="10.00" fill="#000000">o2::header::Descriptor</text>
<text text-anchor="middle" x="324.7234" y="-844.5" font-family="Helvetica,sans-Serif" font-size="10.00" fill="#000000">&lt; N, PrinterPolicy &gt;</text>
<polyline fill="none" stroke="#000000" points="262.2234,-837.5 387.2234,-837.5 "/>
<text text-anchor="middle" x="324.7234" y="-825.5" font-family="Helvetica,sans-Serif" font-size="10.00" fill="#000000"> </text>
<polyline fill="none" stroke="#000000" points="262.2234,-818.5 387.2234,-818.5 "/>
<text text-anchor="start" x="270.2234" y="-806.5" font-family="Helvetica,sans-Serif" font-size="10.00" fill="#000000">+ Descriptor()</text>
<text text-anchor="start" x="270.2234" y="-795.5" font-family="Helvetica,sans-Serif" font-size="10.00" fill="#000000">+ Descriptor()</text>
<text text-anchor="start" x="270.2234" y="-784.5" font-family="Helvetica,sans-Serif" font-size="10.00" fill="#000000">+ Descriptor()</text>
<text text-anchor="start" x="270.2234" y="-773.5" font-family="Helvetica,sans-Serif" font-size="10.00" fill="#000000">+ operator=()</text>
<text text-anchor="start" x="270.2234" y="-762.5" font-family="Helvetica,sans-Serif" font-size="10.00" fill="#000000">+ operator ItgType()</text>
<text text-anchor="start" x="270.2234" y="-751.5" font-family="Helvetica,sans-Serif" font-size="10.00" fill="#000000">+ Descriptor()</text>
<text text-anchor="start" x="270.2234" y="-740.5" font-family="Helvetica,sans-Serif" font-size="10.00" fill="#000000">+ runtimeInit()</text>
<text text-anchor="start" x="270.2234" y="-729.5" font-family="Helvetica,sans-Serif" font-size="10.00" fill="#000000">+ operator==()</text>
<text text-anchor="start" x="270.2234" y="-718.5" font-family="Helvetica,sans-Serif" font-size="10.00" fill="#000000">+ operator&lt;()</text>
<text text-anchor="start" x="270.2234" y="-707.5" font-family="Helvetica,sans-Serif" font-size="10.00" fill="#000000">+ operator!=()</text>
<text text-anchor="start" x="270.2234" y="-696.5" font-family="Helvetica,sans-Serif" font-size="10.00" fill="#000000">+ operator==()</text>
<text text-anchor="start" x="270.2234" y="-685.5" font-family="Helvetica,sans-Serif" font-size="10.00" fill="#000000">+ operator!=()</text>
<text text-anchor="start" x="270.2234" y="-674.5" font-family="Helvetica,sans-Serif" font-size="10.00" fill="#000000">+ as()</text>
<text text-anchor="start" x="270.2234" y="-663.5" font-family="Helvetica,sans-Serif" font-size="10.00" fill="#000000">+ print()</text>
</a>
</g>
</g>
<!-- Node5&#45;&gt;Node9 -->
<g id="edge8" class="edge">
<title>Node5&#45;&gt;Node9</title>
<path fill="none" stroke="#404040" d="M403.8865,-945.1104C397.1941,-937.3288 390.0729,-928.1546 384.7234,-919 377.3468,-906.3767 370.5593,-892.6804 364.4129,-878.8147"/>
<polygon fill="none" stroke="#404040" points="364.3633,-878.6993 358.3181,-874.7679 359.622,-867.6757 365.6672,-871.6071 364.3633,-878.6993"/>
<text text-anchor="middle" x="397.2234" y="-900" font-family="Helvetica,sans-Serif" font-size="10.00" fill="#000000"> +itg</text>
</g>
<!-- Node10 -->
<g id="node9" class="node">
<title>Node10</title>
<g id="a_node9"><a xlink:href="../../d9/db3/structo2_1_1header_1_1Descriptor.html" target="_top" xlink:title="{o2::header::Descriptor\l\&lt; gSizeSerializationMethodString \&gt;\n||+ Descriptor()\l+ Descriptor()\l+ Descriptor()\l+ Descriptor()\l+ operator=()\l+ operator ItgType()\l+ runtimeInit()\l+ operator==()\l+ operator==()\l+ operator\&lt;()\l+ operator!=()\l+ operator!=()\l+ as()\l+ print()\l}">
<polygon fill="none" stroke="#000000" points="134.2234,-386.5 134.2234,-597.5 325.2234,-597.5 325.2234,-386.5 134.2234,-386.5"/>
<text text-anchor="start" x="142.2234" y="-585.5" font-family="Helvetica,sans-Serif" font-size="10.00" fill="#000000">o2::header::Descriptor</text>
<text text-anchor="middle" x="229.7234" y="-574.5" font-family="Helvetica,sans-Serif" font-size="10.00" fill="#000000">&lt; gSizeSerializationMethodString &gt;</text>
<polyline fill="none" stroke="#000000" points="134.2234,-567.5 325.2234,-567.5 "/>
<text text-anchor="middle" x="229.7234" y="-555.5" font-family="Helvetica,sans-Serif" font-size="10.00" fill="#000000"> </text>
<polyline fill="none" stroke="#000000" points="134.2234,-548.5 325.2234,-548.5 "/>
<text text-anchor="start" x="142.2234" y="-536.5" font-family="Helvetica,sans-Serif" font-size="10.00" fill="#000000">+ Descriptor()</text>
<text text-anchor="start" x="142.2234" y="-525.5" font-family="Helvetica,sans-Serif" font-size="10.00" fill="#000000">+ Descriptor()</text>
<text text-anchor="start" x="142.2234" y="-514.5" font-family="Helvetica,sans-Serif" font-size="10.00" fill="#000000">+ Descriptor()</text>
<text text-anchor="start" x="142.2234" y="-503.5" font-family="Helvetica,sans-Serif" font-size="10.00" fill="#000000">+ Descriptor()</text>
<text text-anchor="start" x="142.2234" y="-492.5" font-family="Helvetica,sans-Serif" font-size="10.00" fill="#000000">+ operator=()</text>
<text text-anchor="start" x="142.2234" y="-481.5" font-family="Helvetica,sans-Serif" font-size="10.00" fill="#000000">+ operator ItgType()</text>
<text text-anchor="start" x="142.2234" y="-470.5" font-family="Helvetica,sans-Serif" font-size="10.00" fill="#000000">+ runtimeInit()</text>
<text text-anchor="start" x="142.2234" y="-459.5" font-family="Helvetica,sans-Serif" font-size="10.00" fill="#000000">+ operator==()</text>
<text text-anchor="start" x="142.2234" y="-448.5" font-family="Helvetica,sans-Serif" font-size="10.00" fill="#000000">+ operator==()</text>
<text text-anchor="start" x="142.2234" y="-437.5" font-family="Helvetica,sans-Serif" font-size="10.00" fill="#000000">+ operator&lt;()</text>
<text text-anchor="start" x="142.2234" y="-426.5" font-family="Helvetica,sans-Serif" font-size="10.00" fill="#000000">+ operator!=()</text>
<text text-anchor="start" x="142.2234" y="-415.5" font-family="Helvetica,sans-Serif" font-size="10.00" fill="#000000">+ operator!=()</text>
<text text-anchor="start" x="142.2234" y="-404.5" font-family="Helvetica,sans-Serif" font-size="10.00" fill="#000000">+ as()</text>
<text text-anchor="start" x="142.2234" y="-393.5" font-family="Helvetica,sans-Serif" font-size="10.00" fill="#000000">+ print()</text>
</a>
</g>
</g>
<!-- Node5&#45;&gt;Node10 -->
<g id="edge14" class="edge">
<title>Node5&#45;&gt;Node10</title>
<path fill="none" stroke="#404040" d="M426.8335,-937.2389C434.2722,-862.4751 449.6477,-664.4613 409.7234,-616 389.807,-591.825 368.5675,-610.512 336.2723,-598.162"/>
<polygon fill="none" stroke="#404040" points="336.2164,-598.1354 329.0787,-599.1618 325.386,-592.968 332.5237,-591.9416 336.2164,-598.1354"/>
<text text-anchor="middle" x="449.2234" y="-759.5" font-family="Helvetica,sans-Serif" font-size="10.00" fill="#000000"> +itg</text>
</g>
<!-- Node6 -->
<g id="node5" class="node">
<title>Node6</title>
<polygon fill="none" stroke="#bfbfbf" points="748.7234,-937.5 748.7234,-994.5 786.7234,-994.5 786.7234,-937.5 748.7234,-937.5"/>
<text text-anchor="middle" x="767.7234" y="-982.5" font-family="Helvetica,sans-Serif" font-size="10.00" fill="#000000">char</text>
<polyline fill="none" stroke="#bfbfbf" points="748.7234,-975.5 786.7234,-975.5 "/>
<text text-anchor="middle" x="767.7234" y="-963.5" font-family="Helvetica,sans-Serif" font-size="10.00" fill="#000000"> </text>
<polyline fill="none" stroke="#bfbfbf" points="748.7234,-956.5 786.7234,-956.5 "/>
<text text-anchor="middle" x="767.7234" y="-944.5" font-family="Helvetica,sans-Serif" font-size="10.00" fill="#000000"> </text>
</g>
<!-- Node6&#45;&gt;Node3 -->
<g id="edge12" class="edge">
<title>Node6&#45;&gt;Node3</title>
<path fill="none" stroke="#404040" d="M782.9456,-937.2104C838.6694,-827.6644 1017.4837,-435.7283 804.7234,-291 750.1047,-253.8462 575.2706,-294.8717 494.8995,-272.6193"/>
<polygon fill="none" stroke="#404040" points="494.6586,-272.5374 487.6901,-274.3921 483.2979,-268.673 490.2664,-266.8183 494.6586,-272.5374"/>
<text text-anchor="middle" x="929.7234" y="-624.5" font-family="Helvetica,sans-Serif" font-size="10.00" fill="#000000"> +magicString</text>
</g>
<!-- Node6&#45;&gt;Node4 -->
<g id="edge4" class="edge">
<title>Node6&#45;&gt;Node4</title>
<path fill="none" stroke="#404040" d="M768.7597,-937.328C770.4882,-882.5815 773.1725,-759.402 766.7234,-656 765.7935,-641.0913 764.4143,-625.4614 762.807,-610.0208"/>
<polygon fill="none" stroke="#404040" points="762.7644,-609.626 758.1421,-604.0911 761.4734,-597.6956 766.0957,-603.2304 762.7644,-609.626"/>
<text text-anchor="middle" x="783.2234" y="-759.5" font-family="Helvetica,sans-Serif" font-size="10.00" fill="#000000"> +str</text>
</g>
<!-- Node6&#45;&gt;Node9 -->
<g id="edge9" class="edge">
<title>Node6&#45;&gt;Node9</title>
<path fill="none" stroke="#404040" d="M748.3756,-965.2671C690.5754,-962.2111 516.1124,-946.6095 401.7234,-868 400.0157,-866.8265 398.3321,-865.6023 396.673,-864.3325"/>
<polygon fill="none" stroke="#404040" points="396.6392,-864.3041 389.4712,-863.5163 387.4416,-856.5967 394.6095,-857.3845 396.6392,-864.3041"/>
<text text-anchor="middle" x="515.2234" y="-900" font-family="Helvetica,sans-Serif" font-size="10.00" fill="#000000"> +str</text>
</g>
<!-- Node6&#45;&gt;Node10 -->
<g id="edge15" class="edge">
<title>Node6&#45;&gt;Node10</title>
<path fill="none" stroke="#404040" d="M757.3005,-937.2204C750.7024,-917.8913 742.5365,-891.7153 737.7234,-868 728.3027,-821.5822 745.4572,-692.8681 715.7234,-656 665.5733,-593.8172 409.2892,-614.2396 336.9852,-597.5203"/>
<polygon fill="none" stroke="#404040" points="336.8255,-597.469 329.8886,-599.4386 325.4024,-593.7928 332.3393,-591.8232 336.8255,-597.469"/>
<text text-anchor="middle" x="750.2234" y="-759.5" font-family="Helvetica,sans-Serif" font-size="10.00" fill="#000000"> +str</text>
</g>
<!-- Node7 -->
<g id="node6" class="node">
<title>Node7</title>
<polygon fill="none" stroke="#bfbfbf" points="101.2234,-937.5 101.2234,-994.5 130.2234,-994.5 130.2234,-937.5 101.2234,-937.5"/>
<text text-anchor="middle" x="115.7234" y="-982.5" font-family="Helvetica,sans-Serif" font-size="10.00" fill="#000000">int</text>
<polyline fill="none" stroke="#bfbfbf" points="101.2234,-975.5 130.2234,-975.5 "/>
<text text-anchor="middle" x="115.7234" y="-963.5" font-family="Helvetica,sans-Serif" font-size="10.00" fill="#000000"> </text>
<polyline fill="none" stroke="#bfbfbf" points="101.2234,-956.5 130.2234,-956.5 "/>
<text text-anchor="middle" x="115.7234" y="-944.5" font-family="Helvetica,sans-Serif" font-size="10.00" fill="#000000"> </text>
</g>
<!-- Node7&#45;&gt;Node4 -->
<g id="edge5" class="edge">
<title>Node7&#45;&gt;Node4</title>
<path fill="none" stroke="#404040" d="M112.4582,-937.4524C105.2527,-868.449 91.5015,-695.3877 129.7234,-656 148.2692,-636.8885 342.9112,-644.5521 368.7234,-638 391.8616,-632.1266 394.5957,-621.9152 417.7234,-616 463.7891,-604.2181 583.0505,-617.8417 642.76,-598.1289"/>
<polygon fill="none" stroke="#404040" points="643.0638,-598.0077 647.1543,-592.069 654.2095,-593.5607 650.119,-599.4994 643.0638,-598.0077"/>
<text text-anchor="middle" x="158.7234" y="-770.5" font-family="Helvetica,sans-Serif" font-size="10.00" fill="#000000"> +arraySize</text>
<text text-anchor="middle" x="158.7234" y="-759.5" font-family="Helvetica,sans-Serif" font-size="10.00" fill="#000000">+size</text>
<text text-anchor="middle" x="158.7234" y="-748.5" font-family="Helvetica,sans-Serif" font-size="10.00" fill="#000000">+bitcount</text>
</g>
<!-- Node7&#45;&gt;Node9 -->
<g id="edge10" class="edge">
<title>Node7&#45;&gt;Node9</title>
<path fill="none" stroke="#404040" d="M130.3179,-957.2546C155.9134,-941.4856 209.7778,-906.3423 247.7234,-868 249.8583,-865.8427 251.9799,-863.6223 254.0838,-861.3513"/>
<polygon fill="none" stroke="#404040" points="254.1114,-861.3203 255.1217,-854.1803 262.1011,-852.3667 261.0908,-859.5067 254.1114,-861.3203"/>
<text text-anchor="middle" x="257.7234" y="-911" font-family="Helvetica,sans-Serif" font-size="10.00" fill="#000000"> +arraySize</text>
<text text-anchor="middle" x="257.7234" y="-900" font-family="Helvetica,sans-Serif" font-size="10.00" fill="#000000">+size</text>
<text text-anchor="middle" x="257.7234" y="-889" font-family="Helvetica,sans-Serif" font-size="10.00" fill="#000000">+bitcount</text>
</g>
<!-- Node7&#45;&gt;Node10 -->
<g id="edge16" class="edge">
<title>Node7&#45;&gt;Node10</title>
<path fill="none" stroke="#404040" d="M100.9699,-953.9382C81.6452,-937.078 48.6984,-904.4122 35.7234,-868 4.0965,-779.2443 -9.1693,-738.8401 35.7234,-656 58.2186,-614.4898 88.1258,-627.8287 124.7234,-598 124.8206,-597.9207 124.9179,-597.8414 125.0151,-597.762"/>
<polygon fill="none" stroke="#404040" points="124.8779,-597.8771 126.9041,-590.9565 134.0717,-590.1652 132.0454,-597.0858 124.8779,-597.8771"/>
<text text-anchor="middle" x="64.7234" y="-770.5" font-family="Helvetica,sans-Serif" font-size="10.00" fill="#000000"> +arraySize</text>
<text text-anchor="middle" x="64.7234" y="-759.5" font-family="Helvetica,sans-Serif" font-size="10.00" fill="#000000">+size</text>
<text text-anchor="middle" x="64.7234" y="-748.5" font-family="Helvetica,sans-Serif" font-size="10.00" fill="#000000">+bitcount</text>
</g>
<!-- Node8 -->
<g id="node7" class="node">
<title>Node8</title>
<polygon fill="none" stroke="#bfbfbf" points="271.2234,-937.5 271.2234,-994.5 378.2234,-994.5 378.2234,-937.5 271.2234,-937.5"/>
<text text-anchor="middle" x="324.7234" y="-982.5" font-family="Helvetica,sans-Serif" font-size="10.00" fill="#000000">anonymous:+@71</text>
<polyline fill="none" stroke="#bfbfbf" points="271.2234,-975.5 378.2234,-975.5 "/>
<text text-anchor="middle" x="324.7234" y="-963.5" font-family="Helvetica,sans-Serif" font-size="10.00" fill="#000000"> </text>
<polyline fill="none" stroke="#bfbfbf" points="271.2234,-956.5 378.2234,-956.5 "/>
<text text-anchor="middle" x="324.7234" y="-944.5" font-family="Helvetica,sans-Serif" font-size="10.00" fill="#000000"> </text>
</g>
<!-- Node8&#45;&gt;Node4 -->
<g id="edge6" class="edge">
<title>Node8&#45;&gt;Node4</title>
<path fill="none" stroke="#404040" d="M378.4749,-940.837C390.4768,-934.3489 402.8578,-926.9352 413.7234,-919 439.8654,-899.9083 445.216,-893.047 465.7234,-868 536.9456,-781.0115 535.9473,-745.6995 603.7234,-656 616.8856,-638.5802 631.3935,-620.6668 645.9686,-603.3705"/>
<polygon fill="none" stroke="#404040" points="646.2993,-602.9808 647.1324,-595.818 654.0646,-593.832 653.2316,-600.9949 646.2993,-602.9808"/>
<text text-anchor="middle" x="620.7234" y="-759.5" font-family="Helvetica,sans-Serif" font-size="10.00" fill="#000000"> +@71</text>
</g>
<!-- Node8&#45;&gt;Node9 -->
<g id="edge11" class="edge">
<title>Node8&#45;&gt;Node9</title>
<path fill="none" stroke="#404040" d="M324.7234,-937.2045C324.7234,-921.616 324.7234,-901.2061 324.7234,-879.8459"/>
<polygon fill="none" stroke="#404040" points="324.7235,-879.5491 320.7234,-873.5491 324.7234,-867.5491 328.7234,-873.5491 324.7235,-879.5491"/>
<text text-anchor="middle" x="341.7234" y="-900" font-family="Helvetica,sans-Serif" font-size="10.00" fill="#000000"> +@71</text>
</g>
<!-- Node8&#45;&gt;Node10 -->
<g id="edge17" class="edge">
<title>Node8&#45;&gt;Node10</title>
<path fill="none" stroke="#404040" d="M279.1726,-937.4145C256.4354,-920.3559 231.1766,-896.4734 218.7234,-868 183.2642,-786.9253 188.4239,-686.3365 201.1375,-609.6051"/>
<polygon fill="none" stroke="#404040" points="201.186,-609.325 198.2708,-602.7295 203.2377,-597.5017 206.153,-604.0973 201.186,-609.325"/>
<text text-anchor="middle" x="235.7234" y="-759.5" font-family="Helvetica,sans-Serif" font-size="10.00" fill="#000000"> +@71</text>
</g>
<!-- Node9&#45;&gt;Node2 -->
<g id="edge25" class="edge">
<title>Node9&#45;&gt;Node2</title>
<path fill="none" stroke="#404040" d="M262.1472,-660.2898C260.3762,-658.7988 258.5683,-657.3663 256.7234,-656 180.2861,-599.3938 109.9427,-672.4311 50.7234,-598 -34.2823,-491.1589 6.6649,-423.4694 39.7234,-291 61.8171,-202.4677 125.92,-115.1705 165.9618,-67.0528"/>
<polygon fill="none" stroke="#404040" points="166.1339,-66.8488 166.9468,-59.6836 173.8734,-57.6781 173.0606,-64.8433 166.1339,-66.8488"/>
<text text-anchor="middle" x="77.2234" y="-327" font-family="Helvetica,sans-Serif" font-size="10.00" fill="#000000"> +sHeaderType</text>
</g>
<!-- Node9&#45;&gt;Node4 -->
<g id="edge7" class="edge">
<title>Node9&#45;&gt;Node4</title>
<path fill="none" stroke="#ffa500" d="M393.9499,-664.0525C396.5132,-661.2873 399.1069,-658.5956 401.7234,-656 423.4371,-634.4589 429.0749,-626.7132 457.7234,-616 536.3437,-586.5998 570.2335,-634.6989 645.7234,-598 648.581,-596.6108 651.4003,-595.1045 654.1783,-593.496"/>
<polygon fill="#ffa500" stroke="#ffa500" points="391.315,-661.7483 387.2406,-671.5284 396.5247,-666.4237 391.315,-661.7483"/>
<text text-anchor="start" x="457.7234" y="-630" font-family="Helvetica,sans-Serif" font-size="10.00" fill="#000000"> &lt; gSizeHeaderDescription</text>
<text text-anchor="middle" x="523.7234" y="-619" font-family="Helvetica,sans-Serif" font-size="10.00" fill="#000000">String &gt;</text>
</g>
<!-- Node9&#45;&gt;Node10 -->
<g id="edge18" class="edge">
<title>Node9&#45;&gt;Node10</title>
<path fill="none" stroke="#ffa500" d="M274.9586,-646.8926C273.8498,-643.9058 272.7693,-640.9379 271.7234,-638 267.1235,-625.0793 262.6595,-611.3837 258.4658,-597.7611"/>
<polygon fill="#ffa500" stroke="#ffa500" points="271.7747,-648.3681 278.5876,-656.482 278.3215,-645.8905 271.7747,-648.3681"/>
<text text-anchor="start" x="271.7234" y="-630" font-family="Helvetica,sans-Serif" font-size="10.00" fill="#000000"> &lt; gSizeSerializationMethod</text>
<text text-anchor="middle" x="340.7234" y="-619" font-family="Helvetica,sans-Serif" font-size="10.00" fill="#000000">String &gt;</text>
</g>
<!-- Node10&#45;&gt;Node3 -->
<g id="edge13" class="edge">
<title>Node10&#45;&gt;Node3</title>
<path fill="none" stroke="#404040" d="M272.4542,-386.3002C286.4941,-354.9179 303.0677,-320.9449 320.7234,-291 322.2936,-288.3368 323.9194,-285.6598 325.59,-282.9785"/>
<polygon fill="none" stroke="#404040" points="325.7481,-282.7322 325.6248,-275.5222 332.2328,-272.6352 332.3561,-279.8453 325.7481,-282.7322"/>
<text text-anchor="middle" x="356.7234" y="-327" font-family="Helvetica,sans-Serif" font-size="10.00" fill="#000000"> +serialization</text>
</g>
<!-- Node11 -->
<g id="node10" class="node">
<title>Node11</title>
<g id="a_node10"><a xlink:href="../../d3/d87/classuint32__t.html" target="_top" xlink:title="{uint32_t\n||}">
<polygon fill="none" stroke="#000000" points="59.7234,-463.5 59.7234,-520.5 115.7234,-520.5 115.7234,-463.5 59.7234,-463.5"/>
<text text-anchor="middle" x="87.7234" y="-508.5" font-family="Helvetica,sans-Serif" font-size="10.00" fill="#000000">uint32_t</text>
<polyline fill="none" stroke="#000000" points="59.7234,-501.5 115.7234,-501.5 "/>
<text text-anchor="middle" x="87.7234" y="-489.5" font-family="Helvetica,sans-Serif" font-size="10.00" fill="#000000"> </text>
<polyline fill="none" stroke="#000000" points="59.7234,-482.5 115.7234,-482.5 "/>
<text text-anchor="middle" x="87.7234" y="-470.5" font-family="Helvetica,sans-Serif" font-size="10.00" fill="#000000"> </text>
</a>
</g>
</g>
<!-- Node11&#45;&gt;Node2 -->
<g id="edge23" class="edge">
<title>Node11&#45;&gt;Node2</title>
<path fill="none" stroke="#404040" d="M94.6449,-463.3867C113.8183,-384.1254 167.6664,-161.5211 189.9152,-69.5462"/>
<polygon fill="none" stroke="#404040" points="189.955,-69.3815 187.4779,-62.6092 192.7765,-57.7179 195.2536,-64.4902 189.955,-69.3815"/>
<text text-anchor="middle" x="207.2234" y="-186.5" font-family="Helvetica,sans-Serif" font-size="10.00" fill="#000000"> +sVersion</text>
</g>
<!-- Node11&#45;&gt;Node3 -->
<g id="edge19" class="edge">
<title>Node11&#45;&gt;Node3</title>
<path fill="none" stroke="#404040" d="M94.484,-463.2402C100.4367,-441.1379 110.4053,-410.3677 124.7234,-386 130.1458,-376.7715 134.3951,-376.6326 140.7234,-368 164.2919,-335.8494 157.3449,-317.9451 186.7234,-291 218.8037,-261.5768 260.9273,-238.8891 299.0212,-222.4638"/>
<polygon fill="none" stroke="#404040" points="299.1066,-222.428 303.0902,-216.4171 310.1709,-217.7823 306.1873,-223.7933 299.1066,-222.428"/>
<text text-anchor="middle" x="232.2234" y="-360" font-family="Helvetica,sans-Serif" font-size="10.00" fill="#000000"> +headerVersion</text>
<text text-anchor="middle" x="232.2234" y="-349" font-family="Helvetica,sans-Serif" font-size="10.00" fill="#000000">+headerSize</text>
<text text-anchor="middle" x="232.2234" y="-338" font-family="Helvetica,sans-Serif" font-size="10.00" fill="#000000">+sMagicString</text>
<text text-anchor="middle" x="232.2234" y="-327" font-family="Helvetica,sans-Serif" font-size="10.00" fill="#000000">+flagsNextHeader</text>
<text text-anchor="middle" x="232.2234" y="-316" font-family="Helvetica,sans-Serif" font-size="10.00" fill="#000000">+magicStringInt</text>
<text text-anchor="middle" x="232.2234" y="-305" font-family="Helvetica,sans-Serif" font-size="10.00" fill="#000000">+flagsUnused</text>
<text text-anchor="middle" x="232.2234" y="-294" font-family="Helvetica,sans-Serif" font-size="10.00" fill="#000000">+flags</text>
</g>
<!-- Node12 -->
<g id="node11" class="node">
<title>Node12</title>
<polygon fill="none" stroke="#bfbfbf" points="343.2234,-463.5 343.2234,-520.5 450.2234,-520.5 450.2234,-463.5 343.2234,-463.5"/>
<text text-anchor="middle" x="396.7234" y="-508.5" font-family="Helvetica,sans-Serif" font-size="10.00" fill="#000000">anonymous:+@73</text>
<polyline fill="none" stroke="#bfbfbf" points="343.2234,-501.5 450.2234,-501.5 "/>
<text text-anchor="middle" x="396.7234" y="-489.5" font-family="Helvetica,sans-Serif" font-size="10.00" fill="#000000"> </text>
<polyline fill="none" stroke="#bfbfbf" points="343.2234,-482.5 450.2234,-482.5 "/>
<text text-anchor="middle" x="396.7234" y="-470.5" font-family="Helvetica,sans-Serif" font-size="10.00" fill="#000000"> </text>
</g>
<!-- Node12&#45;&gt;Node3 -->
<g id="edge20" class="edge">
<title>Node12&#45;&gt;Node3</title>
<path fill="none" stroke="#404040" d="M396.7234,-463.4945C396.7234,-422.9586 396.7234,-346.7139 396.7234,-284.8486"/>
<polygon fill="none" stroke="#404040" points="396.7235,-284.6821 392.7234,-278.6821 396.7234,-272.6821 400.7234,-278.6821 396.7235,-284.6821"/>
<text text-anchor="middle" x="413.7234" y="-327" font-family="Helvetica,sans-Serif" font-size="10.00" fill="#000000"> +@73</text>
</g>
<!-- Node13 -->
<g id="node12" class="node">
<title>Node13</title>
<polygon fill="none" stroke="#bfbfbf" points="468.2234,-463.5 468.2234,-520.5 575.2234,-520.5 575.2234,-463.5 468.2234,-463.5"/>
<text text-anchor="middle" x="521.7234" y="-508.5" font-family="Helvetica,sans-Serif" font-size="10.00" fill="#000000">anonymous:+@75</text>
<polyline fill="none" stroke="#bfbfbf" points="468.2234,-501.5 575.2234,-501.5 "/>
<text text-anchor="middle" x="521.7234" y="-489.5" font-family="Helvetica,sans-Serif" font-size="10.00" fill="#000000"> </text>
<polyline fill="none" stroke="#bfbfbf" points="468.2234,-482.5 575.2234,-482.5 "/>
<text text-anchor="middle" x="521.7234" y="-470.5" font-family="Helvetica,sans-Serif" font-size="10.00" fill="#000000"> </text>
</g>
<!-- Node13&#45;&gt;Node3 -->
<g id="edge21" class="edge">
<title>Node13&#45;&gt;Node3</title>
<path fill="none" stroke="#404040" d="M509.9637,-463.4945C493.1712,-422.7897 461.5245,-346.0779 435.9461,-284.076"/>
<polygon fill="none" stroke="#404040" points="435.8221,-283.7752 429.8362,-279.7541 431.2457,-272.6821 437.2316,-276.7032 435.8221,-283.7752"/>
<text text-anchor="middle" x="486.7234" y="-327" font-family="Helvetica,sans-Serif" font-size="10.00" fill="#000000"> +@75</text>
</g>
<!-- Node14 -->
<g id="node13" class="node">
<title>Node14</title>
<polygon fill="none" stroke="#bfbfbf" points="593.2234,-463.5 593.2234,-520.5 636.2234,-520.5 636.2234,-463.5 593.2234,-463.5"/>
<text text-anchor="middle" x="614.7234" y="-508.5" font-family="Helvetica,sans-Serif" font-size="10.00" fill="#000000">const</text>
<polyline fill="none" stroke="#bfbfbf" points="593.2234,-501.5 636.2234,-501.5 "/>
<text text-anchor="middle" x="614.7234" y="-489.5" font-family="Helvetica,sans-Serif" font-size="10.00" fill="#000000"> </text>
<polyline fill="none" stroke="#bfbfbf" points="593.2234,-482.5 636.2234,-482.5 "/>
<text text-anchor="middle" x="614.7234" y="-470.5" font-family="Helvetica,sans-Serif" font-size="10.00" fill="#000000"> </text>
</g>
<!-- Node14&#45;&gt;Node3 -->
<g id="edge22" class="edge">
<title>Node14&#45;&gt;Node3</title>
<path fill="none" stroke="#404040" d="M609.8956,-463.3813C605.4204,-441.3548 597.4917,-410.6179 584.7234,-386 559.6998,-337.7538 544.9438,-330.6045 507.7234,-291 502.6657,-285.6184 497.3743,-280.1838 491.9621,-274.7733"/>
<polygon fill="none" stroke="#404040" points="491.9174,-274.7292 484.8368,-273.3634 483.3743,-266.3022 490.4549,-267.668 491.9174,-274.7292"/>
<text text-anchor="middle" x="630.2234" y="-338" font-family="Helvetica,sans-Serif" font-size="10.00" fill="#000000"> +sHeaderType</text>
<text text-anchor="middle" x="630.2234" y="-327" font-family="Helvetica,sans-Serif" font-size="10.00" fill="#000000">+sSerializationMethod</text>
<text text-anchor="middle" x="630.2234" y="-316" font-family="Helvetica,sans-Serif" font-size="10.00" fill="#000000">+sVersion</text>
</g>
<!-- Node15 -->
<g id="node14" class="node">
<title>Node15</title>
<polygon fill="none" stroke="#bfbfbf" points="501.7234,-160.5 501.7234,-217.5 539.7234,-217.5 539.7234,-160.5 501.7234,-160.5"/>
<text text-anchor="middle" x="520.7234" y="-205.5" font-family="Helvetica,sans-Serif" font-size="10.00" fill="#000000">bool</text>
<polyline fill="none" stroke="#bfbfbf" points="501.7234,-198.5 539.7234,-198.5 "/>
<text text-anchor="middle" x="520.7234" y="-186.5" font-family="Helvetica,sans-Serif" font-size="10.00" fill="#000000"> </text>
<polyline fill="none" stroke="#bfbfbf" points="501.7234,-179.5 539.7234,-179.5 "/>
<text text-anchor="middle" x="520.7234" y="-167.5" font-family="Helvetica,sans-Serif" font-size="10.00" fill="#000000"> </text>
</g>
<!-- Node15&#45;&gt;Node2 -->
<g id="edge24" class="edge">
<title>Node15&#45;&gt;Node2</title>
<path fill="none" stroke="#404040" d="M518.1042,-160.3403C514.9475,-142.0872 507.9999,-119.2721 492.7234,-105 464.0777,-78.2378 369.305,-56.8561 295.211,-43.6732"/>
<polygon fill="none" stroke="#404040" points="294.8649,-43.6128 288.2661,-46.5208 283.0438,-41.5482 289.6425,-38.6401 294.8649,-43.6128"/>
<text text-anchor="middle" x="501.2234" y="-79" font-family="Helvetica,sans-Serif" font-size="10.00" fill="#000000"> +mHasPayload</text>
</g>
</g>
</svg>
        <g id="navigator" transform="translate(0 0)" fill="#404254">
                <rect fill="#f2f5e9" fill-opacity="0.5" stroke="#606060" stroke-width=".5" x="0" y="0" width="60" height="60"/>
                <use id="zoomplus" xlink:href="#zoomPlus" x="17" y="9" onmousedown="handleZoom(evt,'in')"/>
                <use id="zoomminus" xlink:href="#zoomMin" x="42" y="9" onmousedown="handleZoom(evt,'out')"/>
                <use id="reset" xlink:href="#resetDef" x="30" y="36" onmousedown="handleReset()"/>
                <g id="arrowUp" xlink:href="#dirArrow" transform="translate(30 24)" onmousedown="handlePan(0,-1)">
                  <use xlink:href="#rim" fill="#404040">
                        <set attributeName="fill" to="#808080" begin="arrowUp.mouseover" end="arrowUp.mouseout"/>
                  </use>
                  <path fill="none" stroke="white" stroke-width="1.5" d="M0,-3.0v7 M-2.5,-0.5L0,-3.0L2.5,-0.5"/>
                </g>
                <g id="arrowRight" xlink:href="#dirArrow" transform="rotate(90) translate(36 -43)" onmousedown="handlePan(1,0)">
                  <use xlink:href="#rim" fill="#404040">
                        <set attributeName="fill" to="#808080" begin="arrowRight.mouseover" end="arrowRight.mouseout"/>
                  </use>
                  <path fill="none" stroke="white" stroke-width="1.5" d="M0,-3.0v7 M-2.5,-0.5L0,-3.0L2.5,-0.5"/>
                </g>
                <g id="arrowDown" xlink:href="#dirArrow" transform="rotate(180) translate(-30 -48)" onmousedown="handlePan(0,1)">
                  <use xlink:href="#rim" fill="#404040">
                        <set attributeName="fill" to="#808080" begin="arrowDown.mouseover" end="arrowDown.mouseout"/>
                  </use>
                  <path fill="none" stroke="white" stroke-width="1.5" d="M0,-3.0v7 M-2.5,-0.5L0,-3.0L2.5,-0.5"/>
                </g>
                <g id="arrowLeft" xlink:href="#dirArrow" transform="rotate(270) translate(-36 17)" onmousedown="handlePan(-1,0)">
                  <use xlink:href="#rim" fill="#404040">
                        <set attributeName="fill" to="#808080" begin="arrowLeft.mouseover" end="arrowLeft.mouseout"/>
                  </use>
                  <path fill="none" stroke="white" stroke-width="1.5" d="M0,-3.0v7 M-2.5,-0.5L0,-3.0L2.5,-0.5"/>
                </g>
        </g>
        <svg viewBox="0 0 15 15" width="100%" height="30px" preserveAspectRatio="xMaxYMin meet">
         <g id="arrow_out" transform="scale(0.3 0.3)">
          <a xlink:href="structo2_1_1emcal_1_1EMCALBlockHeader__coll__graph_org.svg" target="_base">
           <rect id="button" ry="5" rx="5" y="6" x="6" height="38" width="38"
                fill="#f2f5e9" fill-opacity="0.5" stroke="#606060" stroke-width="1.0"/>
           <path id="arrow"
             d="M 11.500037,31.436501 C 11.940474,20.09759 22.043105,11.32322 32.158766,21.979434 L 37.068811,17.246167 C 37.068811,17.246167 37.088388,32 37.088388,32 L 22.160133,31.978069 C 22.160133,31.978069 26.997745,27.140456 26.997745,27.140456 C 18.528582,18.264221 13.291696,25.230495 11.500037,31.436501 z"
             style="fill:#404040;"/>
          </a>
         </g>
        </svg>
</svg>
