<?xml version="1.0" encoding="UTF-8" standalone="no"?>
<!DOCTYPE svg PUBLIC "-//W3C//DTD SVG 1.1//EN"
 "http://www.w3.org/Graphics/SVG/1.1/DTD/svg11.dtd">
<!-- Generated by graphviz version 2.40.1 (20161225.0304)
 -->
<!-- Title: /home/travis/build/AliceO2Group/AliceO2/GPU/GPUTracking/Merger/GPUTPCGMPropagator.cxx Pages: 1 -->
<svg width="1479pt" height="520pt"
 viewBox="0.00 0.00 1478.50 520.00" xmlns="http://www.w3.org/2000/svg" xmlns:xlink="http://www.w3.org/1999/xlink">
<g id="graph0" class="graph" transform="scale(1 1) rotate(0) translate(4 516)">
<title>/home/travis/build/AliceO2Group/AliceO2/GPU/GPUTracking/Merger/GPUTPCGMPropagator.cxx</title>
<!-- Node0 -->
<g id="node1" class="node">
<title>Node0</title>
<polygon fill="#bfbfbf" stroke="#000000" points="932.5,-459.5 932.5,-511.5 1080.5,-511.5 1080.5,-459.5 932.5,-459.5"/>
<text text-anchor="start" x="940.5" y="-499.5" font-family="Helvetica,sans-Serif" font-size="10.00" fill="#000000">/home/travis/build</text>
<text text-anchor="start" x="940.5" y="-488.5" font-family="Helvetica,sans-Serif" font-size="10.00" fill="#000000">/AliceO2Group/AliceO2</text>
<text text-anchor="start" x="940.5" y="-477.5" font-family="Helvetica,sans-Serif" font-size="10.00" fill="#000000">/GPU/GPUTracking/Merger</text>
<text text-anchor="middle" x="1006.5" y="-466.5" font-family="Helvetica,sans-Serif" font-size="10.00" fill="#000000">/GPUTPCGMPropagator.cxx</text>
</g>
<!-- Node1 -->
<g id="node2" class="node">
<title>Node1</title>
<g id="a_node2"><a xlink:href="../../d0/dd8/GPUTPCGMPropagator_8h.html" target="_top" xlink:title="GPUTPCGMPropagator.h">
<polygon fill="none" stroke="#000000" points="965.5,-403.5 965.5,-422.5 1099.5,-422.5 1099.5,-403.5 965.5,-403.5"/>
<text text-anchor="middle" x="1032.5" y="-410.5" font-family="Helvetica,sans-Serif" font-size="10.00" fill="#000000">GPUTPCGMPropagator.h</text>
</a>
</g>
</g>
<!-- Node0&#45;&gt;Node1 -->
<g id="edge1" class="edge">
<title>Node0&#45;&gt;Node1</title>
<path fill="none" stroke="#191970" d="M1015.8866,-459.3258C1019.1185,-450.3139 1022.674,-440.3995 1025.6636,-432.063"/>
<polygon fill="#191970" stroke="#191970" points="1028.9997,-433.1285 1029.0809,-422.534 1022.4106,-430.7655 1028.9997,-433.1285"/>
</g>
<!-- Node6 -->
<g id="node7" class="node">
<title>Node6</title>
<g id="a_node7"><a xlink:href="../../d6/d37/GPUTPCGMPhysicalTrackModel_8h.html" target="_top" xlink:title="GPUTPCGMPhysicalTrackModel.h">
<polygon fill="none" stroke="#000000" points="805.5,-342 805.5,-361 981.5,-361 981.5,-342 805.5,-342"/>
<text text-anchor="middle" x="893.5" y="-349" font-family="Helvetica,sans-Serif" font-size="10.00" fill="#000000">GPUTPCGMPhysicalTrackModel.h</text>
</a>
</g>
</g>
<!-- Node0&#45;&gt;Node6 -->
<g id="edge29" class="edge">
<title>Node0&#45;&gt;Node6</title>
<path fill="none" stroke="#191970" d="M984.4442,-459.3453C962.0048,-432.7358 927.8441,-392.2266 908.4064,-369.1766"/>
<polygon fill="#191970" stroke="#191970" points="910.855,-366.651 901.7327,-361.2626 905.5037,-371.1637 910.855,-366.651"/>
</g>
<!-- Node16 -->
<g id="node17" class="node">
<title>Node16</title>
<g id="a_node17"><a xlink:href="../../d3/dcc/GPUTPCGMMergedTrackHit_8h.html" target="_top" xlink:title="GPUTPCGMMergedTrackHit.h">
<polygon fill="none" stroke="#000000" points="755,-224.5 755,-243.5 912,-243.5 912,-224.5 755,-224.5"/>
<text text-anchor="middle" x="833.5" y="-231.5" font-family="Helvetica,sans-Serif" font-size="10.00" fill="#000000">GPUTPCGMMergedTrackHit.h</text>
</a>
</g>
</g>
<!-- Node0&#45;&gt;Node16 -->
<g id="edge46" class="edge">
<title>Node0&#45;&gt;Node16</title>
<path fill="none" stroke="#191970" d="M932.3476,-464.977C884.3788,-447.4247 825.6312,-416.8874 796.5,-367 792.1436,-359.5396 791.2085,-297.7323 797.5,-280 801.2751,-269.3601 808.575,-259.2748 815.6201,-251.2741"/>
<polygon fill="#191970" stroke="#191970" points="818.3964,-253.4316 822.7111,-243.7551 813.3038,-248.6288 818.3964,-253.4316"/>
</g>
<!-- Node18 -->
<g id="node19" class="node">
<title>Node18</title>
<polygon fill="none" stroke="#bfbfbf" points="1200,-168.5 1200,-187.5 1247,-187.5 1247,-168.5 1200,-168.5"/>
<text text-anchor="middle" x="1223.5" y="-175.5" font-family="Helvetica,sans-Serif" font-size="10.00" fill="#000000">cmath</text>
</g>
<!-- Node0&#45;&gt;Node18 -->
<g id="edge60" class="edge">
<title>Node0&#45;&gt;Node18</title>
<path fill="none" stroke="#191970" d="M1080.726,-472.5652C1183.4653,-452.5167 1356.5,-410.0585 1356.5,-351.5 1356.5,-351.5 1356.5,-351.5 1356.5,-290 1356.5,-259.4754 1357.9419,-246.669 1337.5,-224 1316.6474,-200.8756 1282.5356,-189.1681 1257.0509,-183.3751"/>
<polygon fill="#191970" stroke="#191970" points="1257.5683,-179.908 1247.0657,-181.3031 1256.146,-186.762 1257.5683,-179.908"/>
</g>
<!-- Node23 -->
<g id="node24" class="node">
<title>Node23</title>
<g id="a_node24"><a xlink:href="../../df/d13/GPUParam_8h.html" target="_top" xlink:title="GPUParam.h">
<polygon fill="none" stroke="#000000" points="449,-403.5 449,-422.5 526,-422.5 526,-403.5 449,-403.5"/>
<text text-anchor="middle" x="487.5" y="-410.5" font-family="Helvetica,sans-Serif" font-size="10.00" fill="#000000">GPUParam.h</text>
</a>
</g>
</g>
<!-- Node0&#45;&gt;Node23 -->
<g id="edge30" class="edge">
<title>Node0&#45;&gt;Node23</title>
<path fill="none" stroke="#191970" d="M932.4157,-475.151C824.6784,-460.101 627.6856,-432.5828 536.3712,-419.8269"/>
<polygon fill="#191970" stroke="#191970" points="536.6837,-416.3367 526.2957,-418.4194 535.7152,-423.2693 536.6837,-416.3367"/>
</g>
<!-- Node31 -->
<g id="node32" class="node">
<title>Node31</title>
<g id="a_node32"><a xlink:href="../../d5/d5c/GPUO2DataTypes_8h.html" target="_top" xlink:title="GPUO2DataTypes.h">
<polygon fill="none" stroke="#000000" points="1179,-280.5 1179,-299.5 1290,-299.5 1290,-280.5 1179,-280.5"/>
<text text-anchor="middle" x="1234.5" y="-287.5" font-family="Helvetica,sans-Serif" font-size="10.00" fill="#000000">GPUO2DataTypes.h</text>
</a>
</g>
</g>
<!-- Node0&#45;&gt;Node31 -->
<g id="edge47" class="edge">
<title>Node0&#45;&gt;Node31</title>
<path fill="none" stroke="#191970" d="M1054.9855,-459.4301C1091.8271,-437.9905 1142.1843,-405.0238 1178.5,-367 1196.0602,-348.6139 1212.7348,-324.5249 1223.2488,-308.2233"/>
<polygon fill="#191970" stroke="#191970" points="1226.2987,-309.949 1228.6876,-299.627 1220.3832,-306.2063 1226.2987,-309.949"/>
</g>
<!-- Node34 -->
<g id="node35" class="node">
<title>Node34</title>
<polygon fill="none" stroke="#bfbfbf" points="1384.5,-403.5 1384.5,-422.5 1470.5,-422.5 1470.5,-403.5 1384.5,-403.5"/>
<text text-anchor="middle" x="1427.5" y="-410.5" font-family="Helvetica,sans-Serif" font-size="10.00" fill="#000000">GPUParam.inc</text>
</g>
<!-- Node0&#45;&gt;Node34 -->
<g id="edge54" class="edge">
<title>Node0&#45;&gt;Node34</title>
<path fill="none" stroke="#191970" d="M1080.7589,-472.8306C1154.3288,-460.2596 1270.2102,-440.4073 1370.5,-423 1371.7528,-422.7825 1373.0211,-422.5621 1374.3002,-422.3396"/>
<polygon fill="#191970" stroke="#191970" points="1374.9928,-425.7718 1384.2429,-420.6059 1373.7903,-418.8758 1374.9928,-425.7718"/>
</g>
<!-- Node35 -->
<g id="node36" class="node">
<title>Node35</title>
<g id="a_node36"><a xlink:href="../../de/d4c/GPUTPCGMMergerTypes_8h.html" target="_top" xlink:title="GPUTPCGMMergerTypes.h">
<polygon fill="none" stroke="#000000" points="605,-280.5 605,-299.5 748,-299.5 748,-280.5 605,-280.5"/>
<text text-anchor="middle" x="676.5" y="-287.5" font-family="Helvetica,sans-Serif" font-size="10.00" fill="#000000">GPUTPCGMMergerTypes.h</text>
</a>
</g>
</g>
<!-- Node0&#45;&gt;Node35 -->
<g id="edge55" class="edge">
<title>Node0&#45;&gt;Node35</title>
<path fill="none" stroke="#191970" d="M932.3976,-472.5399C871.299,-460.7591 790.4571,-442.3114 763.5,-423 722.5477,-393.6627 695.757,-338.5217 683.7583,-309.3055"/>
<polygon fill="#191970" stroke="#191970" points="686.9369,-307.8255 680.0081,-299.8104 680.4263,-310.397 686.9369,-307.8255"/>
</g>
<!-- Node2 -->
<g id="node3" class="node">
<title>Node2</title>
<g id="a_node3"><a xlink:href="../../df/d21/GPUCommonDef_8h.html" target="_top" xlink:title="GPUCommonDef.h">
<polygon fill="none" stroke="#000000" points="825,-56.5 825,-75.5 932,-75.5 932,-56.5 825,-56.5"/>
<text text-anchor="middle" x="878.5" y="-63.5" font-family="Helvetica,sans-Serif" font-size="10.00" fill="#000000">GPUCommonDef.h</text>
</a>
</g>
</g>
<!-- Node1&#45;&gt;Node2 -->
<g id="edge2" class="edge">
<title>Node1&#45;&gt;Node2</title>
<path fill="none" stroke="#191970" d="M1091.7297,-403.4737C1193.4842,-384.054 1386.1137,-332.2551 1337.5,-224 1301.642,-144.1499 1258.1883,-140.7135 1175.5,-112 1098.0366,-85.1008 1003.7516,-73.8923 942.4923,-69.247"/>
<polygon fill="#191970" stroke="#191970" points="942.4276,-65.7334 932.2018,-68.5049 941.9241,-72.7152 942.4276,-65.7334"/>
</g>
<!-- Node5 -->
<g id="node6" class="node">
<title>Node5</title>
<g id="a_node6"><a xlink:href="../../d0/d79/GPUTPCGMOfflineStatisticalErrors_8h.html" target="_top" xlink:title="GPUTPCGMOfflineStatistical\lErrors.h">
<polygon fill="none" stroke="#000000" points="1000,-336.5 1000,-366.5 1153,-366.5 1153,-336.5 1000,-336.5"/>
<text text-anchor="start" x="1008" y="-354.5" font-family="Helvetica,sans-Serif" font-size="10.00" fill="#000000">GPUTPCGMOfflineStatistical</text>
<text text-anchor="middle" x="1076.5" y="-343.5" font-family="Helvetica,sans-Serif" font-size="10.00" fill="#000000">Errors.h</text>
</a>
</g>
</g>
<!-- Node1&#45;&gt;Node5 -->
<g id="edge5" class="edge">
<title>Node1&#45;&gt;Node5</title>
<path fill="none" stroke="#191970" d="M1039.375,-403.3906C1044.8336,-395.761 1052.7001,-384.7658 1059.788,-374.8588"/>
<polygon fill="#191970" stroke="#191970" points="1062.7642,-376.714 1065.7364,-366.5446 1057.0712,-372.6409 1062.7642,-376.714"/>
</g>
<!-- Node1&#45;&gt;Node6 -->
<g id="edge6" class="edge">
<title>Node1&#45;&gt;Node6</title>
<path fill="none" stroke="#191970" d="M1010.7813,-403.3906C987.626,-393.1457 950.7559,-376.8326 924.5409,-365.2339"/>
<polygon fill="#191970" stroke="#191970" points="925.6273,-361.8874 915.0662,-361.0419 922.795,-368.2888 925.6273,-361.8874"/>
</g>
<!-- Node17 -->
<g id="node18" class="node">
<title>Node17</title>
<g id="a_node18"><a xlink:href="../../d6/da2/GPUCommonMath_8h.html" target="_top" xlink:title="GPUCommonMath.h">
<polygon fill="none" stroke="#000000" points="969,-224.5 969,-243.5 1084,-243.5 1084,-224.5 969,-224.5"/>
<text text-anchor="middle" x="1026.5" y="-231.5" font-family="Helvetica,sans-Serif" font-size="10.00" fill="#000000">GPUCommonMath.h</text>
</a>
</g>
</g>
<!-- Node1&#45;&gt;Node17 -->
<g id="edge28" class="edge">
<title>Node1&#45;&gt;Node17</title>
<path fill="none" stroke="#191970" d="M1075.2394,-403.4972C1108.9987,-395.0233 1152.1007,-381.7109 1162.5,-367 1170.4531,-355.7495 1168.6616,-348.3232 1162.5,-336 1141.1166,-293.2331 1092.3312,-263.7457 1059.3899,-247.8578"/>
<polygon fill="#191970" stroke="#191970" points="1060.6824,-244.5988 1050.1396,-243.5507 1057.7277,-250.9447 1060.6824,-244.5988"/>
</g>
<!-- Node22 -->
<g id="node23" class="node">
<title>Node22</title>
<g id="a_node23"><a xlink:href="../../d9/d9c/GPUTPCGMPolynomialField_8h.html" target="_top" xlink:title="GPUTPCGMPolynomialField.h">
<polygon fill="none" stroke="#000000" points="515.5,-342 515.5,-361 673.5,-361 673.5,-342 515.5,-342"/>
<text text-anchor="middle" x="594.5" y="-349" font-family="Helvetica,sans-Serif" font-size="10.00" fill="#000000">GPUTPCGMPolynomialField.h</text>
</a>
</g>
</g>
<!-- Node1&#45;&gt;Node22 -->
<g id="edge26" class="edge">
<title>Node1&#45;&gt;Node22</title>
<path fill="none" stroke="#191970" d="M965.0224,-403.5254C886.1248,-392.4473 755.7644,-374.1433 672.5712,-362.462"/>
<polygon fill="#191970" stroke="#191970" points="672.8043,-358.9605 662.4147,-361.036 671.8309,-365.8925 672.8043,-358.9605"/>
</g>
<!-- Node3 -->
<g id="node4" class="node">
<title>Node3</title>
<g id="a_node4"><a xlink:href="../../d5/d93/GPUCommonDefSettings_8h.html" target="_top" xlink:title="GPUCommonDefSettings.h">
<polygon fill="none" stroke="#000000" points="727.5,-.5 727.5,-19.5 875.5,-19.5 875.5,-.5 727.5,-.5"/>
<text text-anchor="middle" x="801.5" y="-7.5" font-family="Helvetica,sans-Serif" font-size="10.00" fill="#000000">GPUCommonDefSettings.h</text>
</a>
</g>
</g>
<!-- Node2&#45;&gt;Node3 -->
<g id="edge3" class="edge">
<title>Node2&#45;&gt;Node3</title>
<path fill="none" stroke="#191970" d="M865.0876,-56.2455C853.4943,-47.814 836.5252,-35.4729 823.0322,-25.6598"/>
<polygon fill="#191970" stroke="#191970" points="824.9047,-22.6938 814.7587,-19.6427 820.7874,-28.355 824.9047,-22.6938"/>
</g>
<!-- Node4 -->
<g id="node5" class="node">
<title>Node4</title>
<g id="a_node5"><a xlink:href="../../da/d5a/GPUCommonDefAPI_8h.html" target="_top" xlink:title="GPUCommonDefAPI.h">
<polygon fill="none" stroke="#000000" points="893.5,-.5 893.5,-19.5 1017.5,-19.5 1017.5,-.5 893.5,-.5"/>
<text text-anchor="middle" x="955.5" y="-7.5" font-family="Helvetica,sans-Serif" font-size="10.00" fill="#000000">GPUCommonDefAPI.h</text>
</a>
</g>
</g>
<!-- Node2&#45;&gt;Node4 -->
<g id="edge4" class="edge">
<title>Node2&#45;&gt;Node4</title>
<path fill="none" stroke="#191970" d="M891.9124,-56.2455C903.5057,-47.814 920.4748,-35.4729 933.9678,-25.6598"/>
<polygon fill="#191970" stroke="#191970" points="936.2126,-28.355 942.2413,-19.6427 932.0953,-22.6938 936.2126,-28.355"/>
</g>
<!-- Node7 -->
<g id="node8" class="node">
<title>Node7</title>
<g id="a_node8"><a xlink:href="../../d8/d33/GPUTPCGMTrackParam_8h.html" target="_top" xlink:title="GPUTPCGMTrackParam.h">
<polygon fill="none" stroke="#000000" points="806,-280.5 806,-299.5 943,-299.5 943,-280.5 806,-280.5"/>
<text text-anchor="middle" x="874.5" y="-287.5" font-family="Helvetica,sans-Serif" font-size="10.00" fill="#000000">GPUTPCGMTrackParam.h</text>
</a>
</g>
</g>
<!-- Node6&#45;&gt;Node7 -->
<g id="edge7" class="edge">
<title>Node6&#45;&gt;Node7</title>
<path fill="none" stroke="#191970" d="M890.5313,-341.8906C887.8698,-333.276 883.8829,-320.3708 880.5509,-309.5858"/>
<polygon fill="#191970" stroke="#191970" points="883.8065,-308.2661 877.5106,-299.7449 877.1184,-310.3324 883.8065,-308.2661"/>
</g>
<!-- Node8 -->
<g id="node9" class="node">
<title>Node8</title>
<g id="a_node9"><a xlink:href="../../da/dab/GPUTPCDef_8h.html" target="_top" xlink:title="GPUTPCDef.h">
<polygon fill="none" stroke="#000000" points="515.5,-224.5 515.5,-243.5 597.5,-243.5 597.5,-224.5 515.5,-224.5"/>
<text text-anchor="middle" x="556.5" y="-231.5" font-family="Helvetica,sans-Serif" font-size="10.00" fill="#000000">GPUTPCDef.h</text>
</a>
</g>
</g>
<!-- Node7&#45;&gt;Node8 -->
<g id="edge8" class="edge">
<title>Node7&#45;&gt;Node8</title>
<path fill="none" stroke="#191970" d="M816.8798,-280.4664C764.9783,-271.7897 686.3256,-258.4204 607.7587,-244.013"/>
<polygon fill="#191970" stroke="#191970" points="608.1486,-240.5261 597.6804,-242.159 606.8821,-247.4105 608.1486,-240.5261"/>
</g>
<!-- Node7&#45;&gt;Node16 -->
<g id="edge18" class="edge">
<title>Node7&#45;&gt;Node16</title>
<path fill="none" stroke="#191970" d="M867.3583,-280.2455C861.6556,-272.4564 853.51,-261.3308 846.6375,-251.9439"/>
<polygon fill="#191970" stroke="#191970" points="849.2913,-249.6437 840.5598,-243.6427 843.6432,-253.7789 849.2913,-249.6437"/>
</g>
<!-- Node7&#45;&gt;Node17 -->
<g id="edge20" class="edge">
<title>Node7&#45;&gt;Node17</title>
<path fill="none" stroke="#191970" d="M900.6297,-280.3733C925.5768,-271.1822 963.3592,-257.2624 991.0206,-247.0713"/>
<polygon fill="#191970" stroke="#191970" points="992.5378,-250.2424 1000.7112,-243.5011 990.1178,-243.674 992.5378,-250.2424"/>
</g>
<!-- Node20 -->
<g id="node21" class="node">
<title>Node20</title>
<g id="a_node21"><a xlink:href="../../d3/d1f/GPUdEdxInfo_8h.html" target="_top" xlink:title="GPUdEdxInfo.h">
<polygon fill="none" stroke="#000000" points="1102,-224.5 1102,-243.5 1191,-243.5 1191,-224.5 1102,-224.5"/>
<text text-anchor="middle" x="1146.5" y="-231.5" font-family="Helvetica,sans-Serif" font-size="10.00" fill="#000000">GPUdEdxInfo.h</text>
</a>
</g>
</g>
<!-- Node7&#45;&gt;Node20 -->
<g id="edge24" class="edge">
<title>Node7&#45;&gt;Node20</title>
<path fill="none" stroke="#191970" d="M920.9494,-280.4369C968.2193,-270.7048 1041.4717,-255.6235 1091.5862,-245.3058"/>
<polygon fill="#191970" stroke="#191970" points="1092.5097,-248.6891 1101.5984,-243.2444 1091.098,-241.8329 1092.5097,-248.6891"/>
</g>
<!-- Node21 -->
<g id="node22" class="node">
<title>Node21</title>
<polygon fill="none" stroke="#bfbfbf" points="928,-112.5 928,-131.5 981,-131.5 981,-112.5 928,-112.5"/>
<text text-anchor="middle" x="954.5" y="-119.5" font-family="Helvetica,sans-Serif" font-size="10.00" fill="#000000">cstddef</text>
</g>
<!-- Node7&#45;&gt;Node21 -->
<g id="edge25" class="edge">
<title>Node7&#45;&gt;Node21</title>
<path fill="none" stroke="#191970" d="M887.5467,-280.4708C898.1921,-272.0286 912.8397,-258.7752 921.5,-244 940.7434,-211.1688 949.0592,-166.8261 952.4214,-141.639"/>
<polygon fill="#191970" stroke="#191970" points="955.9186,-141.8714 953.6391,-131.5247 948.9688,-141.0346 955.9186,-141.8714"/>
</g>
<!-- Node9 -->
<g id="node10" class="node">
<title>Node9</title>
<g id="a_node10"><a xlink:href="../../d2/d6d/GPUDef_8h.html" target="_top" xlink:title="GPUDef.h">
<polygon fill="none" stroke="#000000" points="512,-168.5 512,-187.5 575,-187.5 575,-168.5 512,-168.5"/>
<text text-anchor="middle" x="543.5" y="-175.5" font-family="Helvetica,sans-Serif" font-size="10.00" fill="#000000">GPUDef.h</text>
</a>
</g>
</g>
<!-- Node8&#45;&gt;Node9 -->
<g id="edge9" class="edge">
<title>Node8&#45;&gt;Node9</title>
<path fill="none" stroke="#191970" d="M554.2356,-224.2455C552.5206,-216.8579 550.1088,-206.4689 548.0056,-197.4087"/>
<polygon fill="#191970" stroke="#191970" points="551.4092,-196.5922 545.7385,-187.6427 544.5905,-198.1751 551.4092,-196.5922"/>
</g>
<!-- Node9&#45;&gt;Node2 -->
<g id="edge10" class="edge">
<title>Node9&#45;&gt;Node2</title>
<path fill="none" stroke="#191970" d="M575.145,-174.5174C635.0578,-167.5762 762.6266,-151.0369 802.5,-132 826.717,-120.438 849.2274,-98.9986 863.3647,-83.6921"/>
<polygon fill="#191970" stroke="#191970" points="866.2572,-85.7081 870.315,-75.9211 861.0396,-81.0415 866.2572,-85.7081"/>
</g>
<!-- Node10 -->
<g id="node11" class="node">
<title>Node10</title>
<g id="a_node11"><a xlink:href="../../d2/d37/GPUDefConstantsAndSettings_8h.html" target="_top" xlink:title="GPUDefConstantsAndSettings.h">
<polygon fill="none" stroke="#000000" points="440,-112.5 440,-131.5 611,-131.5 611,-112.5 440,-112.5"/>
<text text-anchor="middle" x="525.5" y="-119.5" font-family="Helvetica,sans-Serif" font-size="10.00" fill="#000000">GPUDefConstantsAndSettings.h</text>
</a>
</g>
</g>
<!-- Node9&#45;&gt;Node10 -->
<g id="edge11" class="edge">
<title>Node9&#45;&gt;Node10</title>
<path fill="none" stroke="#191970" d="M540.3646,-168.2455C537.99,-160.8579 534.6507,-150.4689 531.7385,-141.4087"/>
<polygon fill="#191970" stroke="#191970" points="534.9917,-140.0919 528.5994,-131.6427 528.3275,-142.234 534.9917,-140.0919"/>
</g>
<!-- Node11 -->
<g id="node12" class="node">
<title>Node11</title>
<g id="a_node12"><a xlink:href="../../dc/de9/GPUDefGPUParameters_8h.html" target="_top" xlink:title="GPUDefGPUParameters.h">
<polygon fill="none" stroke="#000000" points="281.5,-112.5 281.5,-131.5 421.5,-131.5 421.5,-112.5 281.5,-112.5"/>
<text text-anchor="middle" x="351.5" y="-119.5" font-family="Helvetica,sans-Serif" font-size="10.00" fill="#000000">GPUDefGPUParameters.h</text>
</a>
</g>
</g>
<!-- Node9&#45;&gt;Node11 -->
<g id="edge13" class="edge">
<title>Node9&#45;&gt;Node11</title>
<path fill="none" stroke="#191970" d="M511.7951,-168.7527C479.5698,-159.3537 429.4559,-144.7371 393.848,-134.3515"/>
<polygon fill="#191970" stroke="#191970" points="394.7964,-130.9823 384.2163,-131.5423 392.8363,-137.7023 394.7964,-130.9823"/>
</g>
<!-- Node13 -->
<g id="node14" class="node">
<title>Node13</title>
<g id="a_node14"><a xlink:href="../../d3/d4c/GPUDefOpenCL12Templates_8h.html" target="_top" xlink:title="GPUDefOpenCL12Templates.h">
<polygon fill="none" stroke="#000000" points="629.5,-112.5 629.5,-131.5 793.5,-131.5 793.5,-112.5 629.5,-112.5"/>
<text text-anchor="middle" x="711.5" y="-119.5" font-family="Helvetica,sans-Serif" font-size="10.00" fill="#000000">GPUDefOpenCL12Templates.h</text>
</a>
</g>
</g>
<!-- Node9&#45;&gt;Node13 -->
<g id="edge15" class="edge">
<title>Node9&#45;&gt;Node13</title>
<path fill="none" stroke="#191970" d="M572.3802,-168.3733C600.3161,-159.0613 642.8142,-144.8953 673.4869,-134.671"/>
<polygon fill="#191970" stroke="#191970" points="674.6166,-137.9839 682.9966,-131.5011 672.403,-131.3431 674.6166,-137.9839"/>
</g>
<!-- Node14 -->
<g id="node15" class="node">
<title>Node14</title>
<g id="a_node15"><a xlink:href="../../d2/d45/GPUCommonRtypes_8h.html" target="_top" xlink:title="GPUCommonRtypes.h">
<polygon fill="none" stroke="#000000" points="138,-112.5 138,-131.5 263,-131.5 263,-112.5 138,-112.5"/>
<text text-anchor="middle" x="200.5" y="-119.5" font-family="Helvetica,sans-Serif" font-size="10.00" fill="#000000">GPUCommonRtypes.h</text>
</a>
</g>
</g>
<!-- Node9&#45;&gt;Node14 -->
<g id="edge16" class="edge">
<title>Node9&#45;&gt;Node14</title>
<path fill="none" stroke="#191970" d="M511.8462,-172.832C456.8832,-163.8585 342.6252,-145.2041 268.8629,-133.1613"/>
<polygon fill="#191970" stroke="#191970" points="269.1671,-129.6647 258.7338,-131.5076 268.0392,-136.5732 269.1671,-129.6647"/>
</g>
<!-- Node10&#45;&gt;Node2 -->
<g id="edge12" class="edge">
<title>Node10&#45;&gt;Node2</title>
<path fill="none" stroke="#191970" d="M585.7818,-112.4369C649.5203,-102.3254 749.6592,-86.4393 814.6999,-76.1213"/>
<polygon fill="#191970" stroke="#191970" points="815.4981,-79.5385 824.8262,-74.5148 814.4013,-72.6249 815.4981,-79.5385"/>
</g>
<!-- Node12 -->
<g id="node13" class="node">
<title>Node12</title>
<g id="a_node13"><a xlink:href="../../d6/dff/GPUDefMacros_8h.html" target="_top" xlink:title="GPUDefMacros.h">
<polygon fill="none" stroke="#000000" points="302.5,-56.5 302.5,-75.5 400.5,-75.5 400.5,-56.5 302.5,-56.5"/>
<text text-anchor="middle" x="351.5" y="-63.5" font-family="Helvetica,sans-Serif" font-size="10.00" fill="#000000">GPUDefMacros.h</text>
</a>
</g>
</g>
<!-- Node11&#45;&gt;Node12 -->
<g id="edge14" class="edge">
<title>Node11&#45;&gt;Node12</title>
<path fill="none" stroke="#191970" d="M351.5,-112.2455C351.5,-104.9382 351.5,-94.6944 351.5,-85.7046"/>
<polygon fill="#191970" stroke="#191970" points="355.0001,-85.6426 351.5,-75.6427 348.0001,-85.6427 355.0001,-85.6426"/>
</g>
<!-- Node15 -->
<g id="node16" class="node">
<title>Node15</title>
<polygon fill="none" stroke="#bfbfbf" points="171,-56.5 171,-75.5 230,-75.5 230,-56.5 171,-56.5"/>
<text text-anchor="middle" x="200.5" y="-63.5" font-family="Helvetica,sans-Serif" font-size="10.00" fill="#000000">Rtypes.h</text>
</g>
<!-- Node14&#45;&gt;Node15 -->
<g id="edge17" class="edge">
<title>Node14&#45;&gt;Node15</title>
<path fill="none" stroke="#191970" d="M200.5,-112.2455C200.5,-104.9382 200.5,-94.6944 200.5,-85.7046"/>
<polygon fill="#191970" stroke="#191970" points="204.0001,-85.6426 200.5,-75.6427 197.0001,-85.6427 204.0001,-85.6426"/>
</g>
<!-- Node16&#45;&gt;Node2 -->
<g id="edge19" class="edge">
<title>Node16&#45;&gt;Node2</title>
<path fill="none" stroke="#191970" d="M838.3613,-224.4619C847.1236,-206.7644 865.4061,-167.4176 873.5,-132 876.9849,-116.7508 878.1774,-99.0575 878.5301,-85.8311"/>
<polygon fill="#191970" stroke="#191970" points="882.0335,-85.5749 878.6604,-75.5314 875.0341,-85.4863 882.0335,-85.5749"/>
</g>
<!-- Node17&#45;&gt;Node2 -->
<g id="edge21" class="edge">
<title>Node17&#45;&gt;Node2</title>
<path fill="none" stroke="#191970" d="M1084.156,-225.1615C1126.5306,-215.9977 1173.3776,-198.5973 1152.5,-168 1126.8839,-130.4582 1003.0298,-95.5274 930.9113,-77.925"/>
<polygon fill="#191970" stroke="#191970" points="931.6358,-74.4994 921.094,-75.5577 929.9949,-81.3044 931.6358,-74.4994"/>
</g>
<!-- Node17&#45;&gt;Node18 -->
<g id="edge22" class="edge">
<title>Node17&#45;&gt;Node18</title>
<path fill="none" stroke="#191970" d="M1060.3655,-224.3733C1096.6113,-214.0699 1153.7627,-197.8238 1189.9043,-187.55"/>
<polygon fill="#191970" stroke="#191970" points="1191.2908,-190.7946 1199.9527,-184.6936 1189.3768,-184.0614 1191.2908,-190.7946"/>
</g>
<!-- Node19 -->
<g id="node20" class="node">
<title>Node19</title>
<polygon fill="none" stroke="#bfbfbf" points="1079.5,-168.5 1079.5,-187.5 1143.5,-187.5 1143.5,-168.5 1079.5,-168.5"/>
<text text-anchor="middle" x="1111.5" y="-175.5" font-family="Helvetica,sans-Serif" font-size="10.00" fill="#000000">algorithm</text>
</g>
<!-- Node17&#45;&gt;Node19 -->
<g id="edge23" class="edge">
<title>Node17&#45;&gt;Node19</title>
<path fill="none" stroke="#191970" d="M1041.3059,-224.2455C1054.2256,-215.7337 1073.1931,-203.2375 1088.1552,-193.3801"/>
<polygon fill="#191970" stroke="#191970" points="1090.4387,-196.067 1096.8638,-187.6427 1086.5876,-190.2216 1090.4387,-196.067"/>
</g>
<!-- Node22&#45;&gt;Node8 -->
<g id="edge27" class="edge">
<title>Node22&#45;&gt;Node8</title>
<path fill="none" stroke="#191970" d="M591.3903,-341.8845C585.1553,-322.6053 571.0196,-278.8963 562.7818,-253.4241"/>
<polygon fill="#191970" stroke="#191970" points="566.06,-252.1862 559.6527,-243.7484 559.3997,-254.3402 566.06,-252.1862"/>
</g>
<!-- Node23&#45;&gt;Node2 -->
<g id="edge31" class="edge">
<title>Node23&#45;&gt;Node2</title>
<path fill="none" stroke="#191970" d="M485.1109,-403.3524C478.1963,-372.9314 461.401,-277.853 506.5,-224 530.5273,-195.3088 799.8119,-153.4181 830.5,-132 847.8458,-119.8939 861.2851,-99.4607 869.4749,-84.5305"/>
<polygon fill="#191970" stroke="#191970" points="872.5808,-86.1439 874.087,-75.6567 866.3697,-82.9157 872.5808,-86.1439"/>
</g>
<!-- Node23&#45;&gt;Node9 -->
<g id="edge33" class="edge">
<title>Node23&#45;&gt;Node9</title>
<path fill="none" stroke="#191970" d="M448.7619,-411.3658C346.606,-405.6446 82.9134,-380.9536 160.5,-280 171.1306,-266.1677 405.3252,-210.2281 502.1628,-187.5848"/>
<polygon fill="#191970" stroke="#191970" points="502.9691,-190.9907 511.9118,-185.3092 501.378,-184.1739 502.9691,-190.9907"/>
</g>
<!-- Node23&#45;&gt;Node17 -->
<g id="edge32" class="edge">
<title>Node23&#45;&gt;Node17</title>
<path fill="none" stroke="#191970" d="M526.0732,-404.3059C565.4792,-395.3291 628.3888,-380.7354 682.5,-367 733.3926,-354.0816 745.5762,-348.7946 796.5,-336 865.5107,-318.6611 889.3053,-332.7039 952.5,-300 975.9777,-287.85 997.916,-266.5281 1011.7139,-251.4097"/>
<polygon fill="#191970" stroke="#191970" points="1014.4907,-253.5534 1018.5,-243.7464 1009.2501,-248.9126 1014.4907,-253.5534"/>
</g>
<!-- Node23&#45;&gt;Node22 -->
<g id="edge45" class="edge">
<title>Node23&#45;&gt;Node22</title>
<path fill="none" stroke="#191970" d="M504.2188,-403.3906C521.5722,-393.4165 548.9323,-377.6908 568.9882,-366.1633"/>
<polygon fill="#191970" stroke="#191970" points="570.9728,-369.0596 577.8987,-361.0419 567.4846,-362.9907 570.9728,-369.0596"/>
</g>
<!-- Node24 -->
<g id="node25" class="node">
<title>Node24</title>
<g id="a_node25"><a xlink:href="../../dd/dc6/GPUSettings_8h.html" target="_top" xlink:title="GPUSettings.h">
<polygon fill="none" stroke="#000000" points="322.5,-342 322.5,-361 408.5,-361 408.5,-342 322.5,-342"/>
<text text-anchor="middle" x="365.5" y="-349" font-family="Helvetica,sans-Serif" font-size="10.00" fill="#000000">GPUSettings.h</text>
</a>
</g>
</g>
<!-- Node23&#45;&gt;Node24 -->
<g id="edge34" class="edge">
<title>Node23&#45;&gt;Node24</title>
<path fill="none" stroke="#191970" d="M468.4375,-403.3906C448.3828,-393.2811 416.6066,-377.2628 393.6616,-365.6962"/>
<polygon fill="#191970" stroke="#191970" points="394.9337,-362.418 384.4286,-361.0419 391.7827,-368.6687 394.9337,-362.418"/>
</g>
<!-- Node30 -->
<g id="node31" class="node">
<title>Node30</title>
<g id="a_node31"><a xlink:href="../../d6/d1b/GPUTPCGeometry_8h.html" target="_top" xlink:title="GPUTPCGeometry.h">
<polygon fill="none" stroke="#000000" points="0,-342 0,-361 113,-361 113,-342 0,-342"/>
<text text-anchor="middle" x="56.5" y="-349" font-family="Helvetica,sans-Serif" font-size="10.00" fill="#000000">GPUTPCGeometry.h</text>
</a>
</g>
</g>
<!-- Node23&#45;&gt;Node30 -->
<g id="edge43" class="edge">
<title>Node23&#45;&gt;Node30</title>
<path fill="none" stroke="#191970" d="M448.9736,-409.2005C382.9203,-402.4358 243.917,-387.1052 127.5,-367 120.901,-365.8603 113.9862,-364.527 107.1703,-363.1292"/>
<polygon fill="#191970" stroke="#191970" points="107.8101,-359.6872 97.3033,-361.0502 106.3668,-366.5368 107.8101,-359.6872"/>
</g>
<!-- Node24&#45;&gt;Node2 -->
<g id="edge35" class="edge">
<title>Node24&#45;&gt;Node2</title>
<path fill="none" stroke="#191970" d="M385.7534,-341.9446C408.9826,-329.5199 442.4232,-306.276 430.5,-280 399.2641,-211.1633 370.1867,-201.6554 302.5,-168 229.7563,-131.8301 72.8409,-171.1774 128.5,-112 151.859,-87.1644 637.3575,-72.2124 814.5197,-67.5662"/>
<polygon fill="#191970" stroke="#191970" points="814.8283,-71.0594 824.734,-67.3008 814.6464,-64.0618 814.8283,-71.0594"/>
</g>
<!-- Node25 -->
<g id="node26" class="node">
<title>Node25</title>
<polygon fill="none" stroke="#bfbfbf" points="374,-280.5 374,-299.5 421,-299.5 421,-280.5 374,-280.5"/>
<text text-anchor="middle" x="397.5" y="-287.5" font-family="Helvetica,sans-Serif" font-size="10.00" fill="#000000">vector</text>
</g>
<!-- Node24&#45;&gt;Node25 -->
<g id="edge36" class="edge">
<title>Node24&#45;&gt;Node25</title>
<path fill="none" stroke="#191970" d="M370.5,-341.8906C375.0758,-333.0965 381.9781,-319.8312 387.6583,-308.9145"/>
<polygon fill="#191970" stroke="#191970" points="390.9185,-310.2314 392.4295,-299.7449 384.7088,-307.0003 390.9185,-310.2314"/>
</g>
<!-- Node26 -->
<g id="node27" class="node">
<title>Node26</title>
<polygon fill="none" stroke="#bfbfbf" points="311.5,-280.5 311.5,-299.5 355.5,-299.5 355.5,-280.5 311.5,-280.5"/>
<text text-anchor="middle" x="333.5" y="-287.5" font-family="Helvetica,sans-Serif" font-size="10.00" fill="#000000">string</text>
</g>
<!-- Node24&#45;&gt;Node26 -->
<g id="edge37" class="edge">
<title>Node24&#45;&gt;Node26</title>
<path fill="none" stroke="#191970" d="M360.5,-341.8906C355.9242,-333.0965 349.0219,-319.8312 343.3417,-308.9145"/>
<polygon fill="#191970" stroke="#191970" points="346.2912,-307.0003 338.5705,-299.7449 340.0815,-310.2314 346.2912,-307.0003"/>
</g>
<!-- Node27 -->
<g id="node28" class="node">
<title>Node27</title>
<g id="a_node28"><a xlink:href="../../da/d08/qconfig_8h.html" target="_top" xlink:title="utils/qconfig.h">
<polygon fill="none" stroke="#000000" points="170,-280.5 170,-299.5 255,-299.5 255,-280.5 170,-280.5"/>
<text text-anchor="middle" x="212.5" y="-287.5" font-family="Helvetica,sans-Serif" font-size="10.00" fill="#000000">utils/qconfig.h</text>
</a>
</g>
</g>
<!-- Node24&#45;&gt;Node27 -->
<g id="edge38" class="edge">
<title>Node24&#45;&gt;Node27</title>
<path fill="none" stroke="#191970" d="M341.5938,-341.8906C315.7695,-331.5103 274.4473,-314.9004 245.5295,-303.2766"/>
<polygon fill="#191970" stroke="#191970" points="246.8222,-300.0241 236.2384,-299.5419 244.2115,-306.519 246.8222,-300.0241"/>
</g>
<!-- Node28 -->
<g id="node29" class="node">
<title>Node28</title>
<g id="a_node29"><a xlink:href="../../d8/de9/qconfigoptions_8h.html" target="_top" xlink:title="qconfigoptions.h">
<polygon fill="none" stroke="#000000" points="158,-224.5 158,-243.5 255,-243.5 255,-224.5 158,-224.5"/>
<text text-anchor="middle" x="206.5" y="-231.5" font-family="Helvetica,sans-Serif" font-size="10.00" fill="#000000">qconfigoptions.h</text>
</a>
</g>
</g>
<!-- Node27&#45;&gt;Node28 -->
<g id="edge39" class="edge">
<title>Node27&#45;&gt;Node28</title>
<path fill="none" stroke="#191970" d="M211.4549,-280.2455C210.672,-272.9382 209.5744,-262.6944 208.6112,-253.7046"/>
<polygon fill="#191970" stroke="#191970" points="212.0786,-253.2129 207.5331,-243.6427 205.1185,-253.9587 212.0786,-253.2129"/>
</g>
<!-- Node29 -->
<g id="node30" class="node">
<title>Node29</title>
<g id="a_node30"><a xlink:href="../../d4/d57/GPUSettingsList_8h.html" target="_top" xlink:title="GPUSettingsList.h">
<polygon fill="none" stroke="#000000" points="189.5,-168.5 189.5,-187.5 293.5,-187.5 293.5,-168.5 189.5,-168.5"/>
<text text-anchor="middle" x="241.5" y="-175.5" font-family="Helvetica,sans-Serif" font-size="10.00" fill="#000000">GPUSettingsList.h</text>
</a>
</g>
</g>
<!-- Node28&#45;&gt;Node29 -->
<g id="edge40" class="edge">
<title>Node28&#45;&gt;Node29</title>
<path fill="none" stroke="#191970" d="M212.5965,-224.2455C217.4145,-216.5367 224.2751,-205.5598 230.1032,-196.2348"/>
<polygon fill="#191970" stroke="#191970" points="233.1413,-197.9777 235.4733,-187.6427 227.2053,-194.2677 233.1413,-197.9777"/>
</g>
<!-- Node29&#45;&gt;Node10 -->
<g id="edge41" class="edge">
<title>Node29&#45;&gt;Node10</title>
<path fill="none" stroke="#191970" d="M289.9986,-168.4369C339.0115,-158.7724 414.7777,-143.8326 467.0707,-133.5213"/>
<polygon fill="#191970" stroke="#191970" points="468.0674,-136.8922 477.2014,-131.5237 466.7132,-130.0244 468.0674,-136.8922"/>
</g>
<!-- Node29&#45;&gt;Node24 -->
<g id="edge42" class="edge">
<title>Node29&#45;&gt;Node24</title>
<path fill="none" stroke="#191970" d="M246.1303,-187.5316C259.6891,-215.4061 298.5991,-295.1222 302.5,-300 313.6834,-313.984 329.2365,-326.7453 342.0907,-336.0667"/>
<polygon fill="#191970" stroke="#191970" points="340.2745,-339.0678 350.4718,-341.9431 344.2932,-333.3363 340.2745,-339.0678"/>
</g>
<!-- Node30&#45;&gt;Node2 -->
<g id="edge44" class="edge">
<title>Node30&#45;&gt;Node2</title>
<path fill="none" stroke="#191970" d="M57.8905,-341.7749C60.6382,-321.686 66.5,-274.1272 66.5,-234 66.5,-234 66.5,-234 66.5,-178 66.5,-141.989 82.0019,-129.4545 113.5,-112 174.0526,-78.4451 641.7676,-69.046 814.5921,-66.704"/>
<polygon fill="#191970" stroke="#191970" points="814.8556,-70.201 824.8085,-66.5692 814.7632,-63.2016 814.8556,-70.201"/>
</g>
<!-- Node31&#45;&gt;Node20 -->
<g id="edge53" class="edge">
<title>Node31&#45;&gt;Node20</title>
<path fill="none" stroke="#191970" d="M1219.1716,-280.2455C1205.6697,-271.6534 1185.7878,-259.0014 1170.2314,-249.1018"/>
<polygon fill="#191970" stroke="#191970" points="1171.9685,-246.0587 1161.6528,-243.6427 1168.2103,-251.9643 1171.9685,-246.0587"/>
</g>
<!-- Node32 -->
<g id="node33" class="node">
<title>Node32</title>
<g id="a_node33"><a xlink:href="../../da/d28/GPUO2FakeClasses_8h.html" target="_top" xlink:title="GPUO2FakeClasses.h">
<polygon fill="none" stroke="#000000" points="1208.5,-224.5 1208.5,-243.5 1328.5,-243.5 1328.5,-224.5 1208.5,-224.5"/>
<text text-anchor="middle" x="1268.5" y="-231.5" font-family="Helvetica,sans-Serif" font-size="10.00" fill="#000000">GPUO2FakeClasses.h</text>
</a>
</g>
</g>
<!-- Node31&#45;&gt;Node32 -->
<g id="edge48" class="edge">
<title>Node31&#45;&gt;Node32</title>
<path fill="none" stroke="#191970" d="M1240.4223,-280.2455C1245.1027,-272.5367 1251.7673,-261.5598 1257.4289,-252.2348"/>
<polygon fill="#191970" stroke="#191970" points="1260.4475,-254.007 1262.6455,-243.6427 1254.4639,-250.3741 1260.4475,-254.007"/>
</g>
<!-- Node32&#45;&gt;Node2 -->
<g id="edge49" class="edge">
<title>Node32&#45;&gt;Node2</title>
<path fill="none" stroke="#191970" d="M1269.5904,-224.1872C1270.5962,-210.0252 1270.2491,-183.8245 1256.5,-168 1215.5417,-120.8593 1038.6407,-88.8416 942.0473,-74.5235"/>
<polygon fill="#191970" stroke="#191970" points="942.5046,-71.0532 932.1035,-73.07 941.4921,-77.9796 942.5046,-71.0532"/>
</g>
<!-- Node33 -->
<g id="node34" class="node">
<title>Node33</title>
<g id="a_node34"><a xlink:href="../../d4/dc5/GPUDataTypes_8h.html" target="_top" xlink:title="GPUDataTypes.h">
<polygon fill="none" stroke="#000000" points="963.5,-168.5 963.5,-187.5 1061.5,-187.5 1061.5,-168.5 963.5,-168.5"/>
<text text-anchor="middle" x="1012.5" y="-175.5" font-family="Helvetica,sans-Serif" font-size="10.00" fill="#000000">GPUDataTypes.h</text>
</a>
</g>
</g>
<!-- Node32&#45;&gt;Node33 -->
<g id="edge50" class="edge">
<title>Node32&#45;&gt;Node33</title>
<path fill="none" stroke="#191970" d="M1224.7829,-224.4369C1180.8784,-214.8328 1113.1587,-200.0191 1066.055,-189.7152"/>
<polygon fill="#191970" stroke="#191970" points="1066.5537,-186.2416 1056.0368,-187.5237 1065.0578,-193.0799 1066.5537,-186.2416"/>
</g>
<!-- Node33&#45;&gt;Node2 -->
<g id="edge51" class="edge">
<title>Node33&#45;&gt;Node2</title>
<path fill="none" stroke="#191970" d="M1011.7586,-168.2035C1010.1888,-154.0619 1005.3418,-127.8864 990.5,-112 975.7013,-96.1598 954.6507,-85.6169 934.7866,-78.6739"/>
<polygon fill="#191970" stroke="#191970" points="935.7552,-75.3086 925.1631,-75.5473 933.5922,-81.966 935.7552,-75.3086"/>
</g>
<!-- Node33&#45;&gt;Node21 -->
<g id="edge52" class="edge">
<title>Node33&#45;&gt;Node21</title>
<path fill="none" stroke="#191970" d="M1002.3972,-168.2455C993.9972,-160.1352 981.8506,-148.4075 971.8916,-138.7919"/>
<polygon fill="#191970" stroke="#191970" points="974.1122,-136.0707 964.4871,-131.6427 969.25,-141.1066 974.1122,-136.0707"/>
</g>
<!-- Node35&#45;&gt;Node8 -->
<g id="edge56" class="edge">
<title>Node35&#45;&gt;Node8</title>
<path fill="none" stroke="#191970" d="M655.8713,-280.3733C636.6081,-271.3838 607.6514,-257.8706 585.9581,-247.7471"/>
<polygon fill="#191970" stroke="#191970" points="587.4015,-244.5584 576.8595,-243.5011 584.4413,-250.9017 587.4015,-244.5584"/>
</g>
<!-- Node36 -->
<g id="node37" class="node">
<title>Node36</title>
<g id="a_node37"><a xlink:href="../../d9/de5/GPUGeneralKernels_8h.html" target="_top" xlink:title="GPUGeneralKernels.h">
<polygon fill="none" stroke="#000000" points="616,-224.5 616,-243.5 737,-243.5 737,-224.5 616,-224.5"/>
<text text-anchor="middle" x="676.5" y="-231.5" font-family="Helvetica,sans-Serif" font-size="10.00" fill="#000000">GPUGeneralKernels.h</text>
</a>
</g>
</g>
<!-- Node35&#45;&gt;Node36 -->
<g id="edge57" class="edge">
<title>Node35&#45;&gt;Node36</title>
<path fill="none" stroke="#191970" d="M676.5,-280.2455C676.5,-272.9382 676.5,-262.6944 676.5,-253.7046"/>
<polygon fill="#191970" stroke="#191970" points="680.0001,-253.6426 676.5,-243.6427 673.0001,-253.6427 680.0001,-253.6426"/>
</g>
<!-- Node36&#45;&gt;Node9 -->
<g id="edge58" class="edge">
<title>Node36&#45;&gt;Node9</title>
<path fill="none" stroke="#191970" d="M653.6365,-224.3733C632.095,-215.3032 599.6162,-201.6279 575.5044,-191.4755"/>
<polygon fill="#191970" stroke="#191970" points="576.6397,-188.156 566.0652,-187.5011 573.9233,-194.6075 576.6397,-188.156"/>
</g>
<!-- Node36&#45;&gt;Node33 -->
<g id="edge59" class="edge">
<title>Node36&#45;&gt;Node33</title>
<path fill="none" stroke="#191970" d="M733.8787,-224.4369C795.0442,-214.2426 891.4267,-198.1789 953.2858,-187.869"/>
<polygon fill="#191970" stroke="#191970" points="953.9954,-191.2991 963.2839,-186.2027 952.8446,-184.3944 953.9954,-191.2991"/>
</g>
</g>
</svg>
