<?xml version="1.0" encoding="UTF-8" standalone="no"?>
<!DOCTYPE svg PUBLIC "-//W3C//DTD SVG 1.1//EN"
 "http://www.w3.org/Graphics/SVG/1.1/DTD/svg11.dtd">
<!-- Generated by graphviz version 2.40.1 (20161225.0304)
 -->
<!-- Title: /home/travis/build/AliceO2Group/AliceO2/Framework/Core/include/Framework/TableBuilder.h Pages: 1 -->
<!--zoomable 285 -->
<svg id="main" version="1.1" xmlns="http://www.w3.org/2000/svg" xmlns:xlink="http://www.w3.org/1999/xlink" xml:space="preserve" onload="init(evt)">
<style type="text/css"><![CDATA[
.edge:hover path { stroke: red; }
.edge:hover polygon { stroke: red; fill: red; }
]]></style>
<script type="text/javascript"><![CDATA[
var edges = document.getElementsByTagName('g');
if (edges && edges.length) {
  for (var i=0;i<edges.length;i++) {
    if (edges[i].id.substr(0,4)=='edge') {
      edges[i].setAttribute('class','edge');
    }
  }
}
]]></script>
        <defs>
                <circle id="rim" cx="0" cy="0" r="7"/>
                <circle id="rim2" cx="0" cy="0" r="3.5"/>
                <g id="zoomPlus">
                        <use xlink:href="#rim" fill="#404040">
                                <set attributeName="fill" to="#808080" begin="zoomplus.mouseover" end="zoomplus.mouseout"/>
                        </use>
                        <path d="M-4,0h8M0,-4v8" fill="none" stroke="white" stroke-width="1.5" pointer-events="none"/>
                </g>
                <g id="zoomMin">
                        <use xlink:href="#rim" fill="#404040">
                                <set attributeName="fill" to="#808080" begin="zoomminus.mouseover" end="zoomminus.mouseout"/>
                        </use>
                        <path d="M-4,0h8" fill="none" stroke="white" stroke-width="1.5" pointer-events="none"/>
                </g>
                <g id="dirArrow">
                        <path fill="none" stroke="white" stroke-width="1.5" d="M0,-3.0v7 M-2.5,-0.5L0,-3.0L2.5,-0.5"/>
                </g>
               <g id="resetDef">
                       <use xlink:href="#rim2" fill="#404040">
                               <set attributeName="fill" to="#808080" begin="reset.mouseover" end="reset.mouseout"/>
                       </use>
               </g>
        </defs>

<script type="text/javascript">
var viewWidth = 2575;
var viewHeight = 285;
var sectionId = 'dynsection-0';
</script>
<script xlink:href="../../svgpan.js"/>
<svg id="graph" class="graph">
<g id="viewport">
<title>/home/travis/build/AliceO2Group/AliceO2/Framework/Core/include/Framework/TableBuilder.h</title>
<!-- Node0 -->
<g id="node1" class="node">
<title>Node0</title>
<polygon fill="#bfbfbf" stroke="#000000" points="1871,-224.5 1871,-276.5 2016,-276.5 2016,-224.5 1871,-224.5"/>
<text text-anchor="start" x="1879" y="-264.5" font-family="Helvetica,sans-Serif" font-size="10.00" fill="#000000">/home/travis/build</text>
<text text-anchor="start" x="1879" y="-253.5" font-family="Helvetica,sans-Serif" font-size="10.00" fill="#000000">/AliceO2Group/AliceO2</text>
<text text-anchor="start" x="1879" y="-242.5" font-family="Helvetica,sans-Serif" font-size="10.00" fill="#000000">/Framework/Core/include</text>
<text text-anchor="middle" x="1943.5" y="-231.5" font-family="Helvetica,sans-Serif" font-size="10.00" fill="#000000">/Framework/TableBuilder.h</text>
</g>
<!-- Node1 -->
<g id="node2" class="node">
<title>Node1</title>
<g id="a_node2"><a xlink:href="../../de/d33/ASoA_8h.html" target="_top" xlink:title="Framework/ASoA.h">
<polygon fill="none" stroke="#000000" points="765.5,-168.5 765.5,-187.5 873.5,-187.5 873.5,-168.5 765.5,-168.5"/>
<text text-anchor="middle" x="819.5" y="-175.5" font-family="Helvetica,sans-Serif" font-size="10.00" fill="#000000">Framework/ASoA.h</text>
</a>
</g>
</g>
<!-- Node0&#45;&gt;Node1 -->
<g id="edge1" class="edge">
<title>Node0&#45;&gt;Node1</title>
<path fill="none" stroke="#191970" d="M1870.6173,-245.7989C1664.3954,-232.4973 1079.1022,-194.7448 883.8171,-182.1486"/>
<polygon fill="#191970" stroke="#191970" points="883.9182,-178.6479 873.7136,-181.4969 883.4675,-185.6334 883.9182,-178.6479"/>
</g>
<!-- Node7 -->
<g id="node8" class="node">
<title>Node7</title>
<g id="a_node8"><a xlink:href="../../de/d9b/FunctionalHelpers_8h.html" target="_top" xlink:title="Framework/FunctionalHelpers.h">
<polygon fill="none" stroke="#000000" points="71.5,-112.5 71.5,-131.5 241.5,-131.5 241.5,-112.5 71.5,-112.5"/>
<text text-anchor="middle" x="156.5" y="-119.5" font-family="Helvetica,sans-Serif" font-size="10.00" fill="#000000">Framework/FunctionalHelpers.h</text>
</a>
</g>
</g>
<!-- Node0&#45;&gt;Node7 -->
<g id="edge44" class="edge">
<title>Node0&#45;&gt;Node7</title>
<path fill="none" stroke="#191970" d="M1870.6533,-248.9071C1614.3533,-243.065 754.9547,-221.3998 481.5,-188 381.6176,-175.8004 266.6395,-149.4971 203.7301,-134.0331"/>
<polygon fill="#191970" stroke="#191970" points="204.2672,-130.5605 193.7192,-131.5555 202.5855,-137.3555 204.2672,-130.5605"/>
</g>
<!-- Node8 -->
<g id="node9" class="node">
<title>Node8</title>
<polygon fill="none" stroke="#bfbfbf" points="0,-56.5 0,-75.5 65,-75.5 65,-56.5 0,-56.5"/>
<text text-anchor="middle" x="32.5" y="-63.5" font-family="Helvetica,sans-Serif" font-size="10.00" fill="#000000">functional</text>
</g>
<!-- Node0&#45;&gt;Node8 -->
<g id="edge52" class="edge">
<title>Node0&#45;&gt;Node8</title>
<path fill="none" stroke="#191970" d="M1870.8159,-249.0362C1601.3914,-243.391 659.9001,-221.6568 361.5,-188 227.1523,-172.8468 168.9194,-215.3897 62.5,-132 47.9906,-120.6305 40.264,-100.6692 36.3082,-85.6676"/>
<polygon fill="#191970" stroke="#191970" points="39.6957,-84.7803 34.0511,-75.8143 32.8724,-86.3434 39.6957,-84.7803"/>
</g>
<!-- Node18 -->
<g id="node19" class="node">
<title>Node18</title>
<polygon fill="none" stroke="#bfbfbf" points="1866,-56.5 1866,-75.5 1947,-75.5 1947,-56.5 1866,-56.5"/>
<text text-anchor="middle" x="1906.5" y="-63.5" font-family="Helvetica,sans-Serif" font-size="10.00" fill="#000000">arrow/table.h</text>
</g>
<!-- Node0&#45;&gt;Node18 -->
<g id="edge50" class="edge">
<title>Node0&#45;&gt;Node18</title>
<path fill="none" stroke="#191970" d="M1877.8953,-224.3414C1863.0037,-215.1602 1849.0672,-203.2197 1840.5,-188 1823.931,-158.5652 1824.8706,-141.9443 1840.5,-112 1847.6245,-98.3502 1860.8523,-87.926 1873.6056,-80.4806"/>
<polygon fill="#191970" stroke="#191970" points="1875.5647,-83.4012 1882.7141,-75.5822 1872.2492,-77.2362 1875.5647,-83.4012"/>
</g>
<!-- Node25 -->
<g id="node26" class="node">
<title>Node25</title>
<polygon fill="none" stroke="#bfbfbf" points="1965.5,-56.5 1965.5,-75.5 2009.5,-75.5 2009.5,-56.5 1965.5,-56.5"/>
<text text-anchor="middle" x="1987.5" y="-63.5" font-family="Helvetica,sans-Serif" font-size="10.00" fill="#000000">string</text>
</g>
<!-- Node0&#45;&gt;Node25 -->
<g id="edge54" class="edge">
<title>Node0&#45;&gt;Node25</title>
<path fill="none" stroke="#191970" d="M1906.3082,-224.2887C1895.2212,-214.3288 1884.4485,-201.9719 1878.5,-188 1865.2685,-156.9216 1859.8275,-140.1474 1878.5,-112 1883.0977,-105.0693 1925.511,-88.4946 1956.0476,-77.2537"/>
<polygon fill="#191970" stroke="#191970" points="1957.2879,-80.527 1965.4818,-73.8105 1954.8879,-73.9512 1957.2879,-80.527"/>
</g>
<!-- Node26 -->
<g id="node27" class="node">
<title>Node26</title>
<polygon fill="none" stroke="#bfbfbf" points="2027.5,-56.5 2027.5,-75.5 2085.5,-75.5 2085.5,-56.5 2027.5,-56.5"/>
<text text-anchor="middle" x="2056.5" y="-63.5" font-family="Helvetica,sans-Serif" font-size="10.00" fill="#000000">memory</text>
</g>
<!-- Node0&#45;&gt;Node26 -->
<g id="edge55" class="edge">
<title>Node0&#45;&gt;Node26</title>
<path fill="none" stroke="#191970" d="M1925.9182,-224.2473C1908.3198,-194.3559 1887.0867,-145.3573 1911.5,-112 1914.7671,-107.536 1975.8815,-89.2075 2017.7149,-77.0772"/>
<polygon fill="#191970" stroke="#191970" points="2018.7288,-80.4275 2027.3646,-74.2896 2016.786,-73.7025 2018.7288,-80.4275"/>
</g>
<!-- Node32 -->
<g id="node33" class="node">
<title>Node32</title>
<g id="a_node33"><a xlink:href="../../db/d4f/StructToTuple_8h.html" target="_top" xlink:title="Framework/StructToTuple.h">
<polygon fill="none" stroke="#000000" points="1921,-168.5 1921,-187.5 2068,-187.5 2068,-168.5 1921,-168.5"/>
<text text-anchor="middle" x="1994.5" y="-175.5" font-family="Helvetica,sans-Serif" font-size="10.00" fill="#000000">Framework/StructToTuple.h</text>
</a>
</g>
</g>
<!-- Node0&#45;&gt;Node32 -->
<g id="edge40" class="edge">
<title>Node0&#45;&gt;Node32</title>
<path fill="none" stroke="#191970" d="M1961.9122,-224.3258C1968.5334,-214.9134 1975.8471,-204.5164 1981.8654,-195.961"/>
<polygon fill="#191970" stroke="#191970" points="1984.9024,-197.7268 1987.7933,-187.534 1979.1771,-193.6993 1984.9024,-197.7268"/>
</g>
<!-- Node33 -->
<g id="node34" class="node">
<title>Node33</title>
<polygon fill="none" stroke="#bfbfbf" points="2087,-112.5 2087,-131.5 2128,-131.5 2128,-112.5 2087,-112.5"/>
<text text-anchor="middle" x="2107.5" y="-119.5" font-family="Helvetica,sans-Serif" font-size="10.00" fill="#000000">tuple</text>
</g>
<!-- Node0&#45;&gt;Node33 -->
<g id="edge56" class="edge">
<title>Node0&#45;&gt;Node33</title>
<path fill="none" stroke="#191970" d="M2016.1702,-227.6897C2037.9448,-218.1267 2060.5215,-205.1457 2077.5,-188 2090.2033,-175.1717 2098.0894,-155.9989 2102.5684,-141.6185"/>
<polygon fill="#191970" stroke="#191970" points="2106.0084,-142.315 2105.3527,-131.7404 2099.2709,-140.4158 2106.0084,-142.315"/>
</g>
<!-- Node34 -->
<g id="node35" class="node">
<title>Node34</title>
<g id="a_node35"><a xlink:href="../../d7/dbe/VariantHelpers_8h.html" target="_top" xlink:title="Framework/VariantHelpers.h">
<polygon fill="none" stroke="#000000" points="491,-168.5 491,-187.5 646,-187.5 646,-168.5 491,-168.5"/>
<text text-anchor="middle" x="568.5" y="-175.5" font-family="Helvetica,sans-Serif" font-size="10.00" fill="#000000">Framework/VariantHelpers.h</text>
</a>
</g>
</g>
<!-- Node0&#45;&gt;Node34 -->
<g id="edge45" class="edge">
<title>Node0&#45;&gt;Node34</title>
<path fill="none" stroke="#191970" d="M1870.9005,-246.6909C1685.3663,-236.9536 1178.693,-210.3436 756.5,-188 723.8084,-186.2699 687.9195,-184.3628 656.3396,-182.6821"/>
<polygon fill="#191970" stroke="#191970" points="656.4192,-179.1815 646.2473,-182.1449 656.0471,-186.1716 656.4192,-179.1815"/>
</g>
<!-- Node35 -->
<g id="node36" class="node">
<title>Node35</title>
<polygon fill="none" stroke="#bfbfbf" points="2125,-168.5 2125,-187.5 2234,-187.5 2234,-168.5 2125,-168.5"/>
<text text-anchor="middle" x="2179.5" y="-175.5" font-family="Helvetica,sans-Serif" font-size="10.00" fill="#000000">arrow/type_traits.h</text>
</g>
<!-- Node0&#45;&gt;Node35 -->
<g id="edge47" class="edge">
<title>Node0&#45;&gt;Node35</title>
<path fill="none" stroke="#191970" d="M2016.2335,-228.156C2056.3686,-215.8264 2104.7387,-200.9669 2138.3656,-190.6366"/>
<polygon fill="#191970" stroke="#191970" points="2139.7715,-193.8662 2148.3028,-187.5839 2137.7159,-187.1749 2139.7715,-193.8662"/>
</g>
<!-- Node36 -->
<g id="node37" class="node">
<title>Node36</title>
<polygon fill="none" stroke="#bfbfbf" points="2252.5,-168.5 2252.5,-187.5 2308.5,-187.5 2308.5,-168.5 2252.5,-168.5"/>
<text text-anchor="middle" x="2280.5" y="-175.5" font-family="Helvetica,sans-Serif" font-size="10.00" fill="#000000">sstream</text>
</g>
<!-- Node0&#45;&gt;Node36 -->
<g id="edge48" class="edge">
<title>Node0&#45;&gt;Node36</title>
<path fill="none" stroke="#191970" d="M2016.2045,-236.5921C2074.8044,-225.0973 2159.5235,-207.8394 2242.4249,-188.163"/>
<polygon fill="#191970" stroke="#191970" points="2243.3479,-191.5411 2252.2618,-185.8146 2241.7224,-184.7324 2243.3479,-191.5411"/>
</g>
<!-- Node37 -->
<g id="node38" class="node">
<title>Node37</title>
<polygon fill="none" stroke="#bfbfbf" points="2326.5,-168.5 2326.5,-187.5 2394.5,-187.5 2394.5,-168.5 2326.5,-168.5"/>
<text text-anchor="middle" x="2360.5" y="-175.5" font-family="Helvetica,sans-Serif" font-size="10.00" fill="#000000">arrow/stl.h</text>
</g>
<!-- Node0&#45;&gt;Node37 -->
<g id="edge49" class="edge">
<title>Node0&#45;&gt;Node37</title>
<path fill="none" stroke="#191970" d="M2016.1432,-239.7463C2089.4681,-228.5772 2206.1571,-209.9448 2316.3193,-188.1463"/>
<polygon fill="#191970" stroke="#191970" points="2317.1506,-191.5495 2326.2746,-186.164 2315.7836,-184.6843 2317.1506,-191.5495"/>
</g>
<!-- Node38 -->
<g id="node39" class="node">
<title>Node38</title>
<polygon fill="none" stroke="#bfbfbf" points="2413,-168.5 2413,-187.5 2502,-187.5 2502,-168.5 2413,-168.5"/>
<text text-anchor="middle" x="2457.5" y="-175.5" font-family="Helvetica,sans-Serif" font-size="10.00" fill="#000000">arrow/builder.h</text>
</g>
<!-- Node0&#45;&gt;Node38 -->
<g id="edge51" class="edge">
<title>Node0&#45;&gt;Node38</title>
<path fill="none" stroke="#191970" d="M2016.1601,-241.7234C2104.8312,-230.7668 2259.5599,-210.8559 2402.4715,-188.1032"/>
<polygon fill="#191970" stroke="#191970" points="2403.4183,-191.4964 2412.7396,-186.4602 2402.3122,-184.5843 2403.4183,-191.4964"/>
</g>
<!-- Node39 -->
<g id="node40" class="node">
<title>Node39</title>
<polygon fill="none" stroke="#bfbfbf" points="2520,-168.5 2520,-187.5 2567,-187.5 2567,-168.5 2520,-168.5"/>
<text text-anchor="middle" x="2543.5" y="-175.5" font-family="Helvetica,sans-Serif" font-size="10.00" fill="#000000">vector</text>
</g>
<!-- Node0&#45;&gt;Node39 -->
<g id="edge53" class="edge">
<title>Node0&#45;&gt;Node39</title>
<path fill="none" stroke="#191970" d="M2016.3844,-246.9924C2123.1955,-240.8575 2328.4003,-225.2961 2509.877,-188.0235"/>
<polygon fill="#191970" stroke="#191970" points="2510.7919,-191.4082 2519.869,-185.9441 2509.3656,-184.555 2510.7919,-191.4082"/>
</g>
<!-- Node2 -->
<g id="node3" class="node">
<title>Node2</title>
<g id="a_node3"><a xlink:href="../../dd/dce/Pack_8h.html" target="_top" xlink:title="Framework/Pack.h">
<polygon fill="none" stroke="#000000" points="83,-56.5 83,-75.5 188,-75.5 188,-56.5 83,-56.5"/>
<text text-anchor="middle" x="135.5" y="-63.5" font-family="Helvetica,sans-Serif" font-size="10.00" fill="#000000">Framework/Pack.h</text>
</a>
</g>
</g>
<!-- Node1&#45;&gt;Node2 -->
<g id="edge2" class="edge">
<title>Node1&#45;&gt;Node2</title>
<path fill="none" stroke="#191970" d="M765.316,-174.4312C656.4776,-167.0064 414.7658,-149.1564 333.5,-132 273.7804,-119.3923 206.9253,-94.8009 168.1812,-79.4549"/>
<polygon fill="#191970" stroke="#191970" points="169.0777,-76.0438 158.4931,-75.5775 166.4767,-82.5427 169.0777,-76.0438"/>
</g>
<!-- Node6 -->
<g id="node7" class="node">
<title>Node6</title>
<g id="a_node7"><a xlink:href="../../d1/d00/CheckTypes_8h.html" target="_top" xlink:title="Framework/CheckTypes.h">
<polygon fill="none" stroke="#000000" points="486.5,-56.5 486.5,-75.5 626.5,-75.5 626.5,-56.5 486.5,-56.5"/>
<text text-anchor="middle" x="556.5" y="-63.5" font-family="Helvetica,sans-Serif" font-size="10.00" fill="#000000">Framework/CheckTypes.h</text>
</a>
</g>
</g>
<!-- Node1&#45;&gt;Node6 -->
<g id="edge6" class="edge">
<title>Node1&#45;&gt;Node6</title>
<path fill="none" stroke="#191970" d="M831.196,-168.4623C846.4792,-154.8697 869.6122,-129.6239 854.5,-112 850.9098,-107.8131 722.8293,-89.1938 635.7685,-76.9651"/>
<polygon fill="#191970" stroke="#191970" points="636.0195,-73.4661 625.6304,-75.5439 635.0477,-80.3983 636.0195,-73.4661"/>
</g>
<!-- Node1&#45;&gt;Node7 -->
<g id="edge7" class="edge">
<title>Node1&#45;&gt;Node7</title>
<path fill="none" stroke="#191970" d="M765.2439,-173.4173C652.7797,-163.918 392.9849,-141.9746 251.8772,-130.056"/>
<polygon fill="#191970" stroke="#191970" points="251.7698,-126.5345 241.5107,-129.1804 251.1806,-133.5097 251.7698,-126.5345"/>
</g>
<!-- Node9 -->
<g id="node10" class="node">
<title>Node9</title>
<g id="a_node10"><a xlink:href="../../d9/de8/CompilerBuiltins_8h.html" target="_top" xlink:title="Framework/CompilerBuiltins.h">
<polygon fill="none" stroke="#000000" points="206.5,-56.5 206.5,-75.5 370.5,-75.5 370.5,-56.5 206.5,-56.5"/>
<text text-anchor="middle" x="288.5" y="-63.5" font-family="Helvetica,sans-Serif" font-size="10.00" fill="#000000">Framework/CompilerBuiltins.h</text>
</a>
</g>
</g>
<!-- Node1&#45;&gt;Node9 -->
<g id="edge10" class="edge">
<title>Node1&#45;&gt;Node9</title>
<path fill="none" stroke="#191970" d="M765.228,-174.2383C653.3178,-166.2249 404.3573,-146.9797 368.5,-132 342.4681,-121.1249 318.3329,-98.8374 303.5247,-83.1818"/>
<polygon fill="#191970" stroke="#191970" points="306.0046,-80.7073 296.6705,-75.6949 300.8415,-85.4342 306.0046,-80.7073"/>
</g>
<!-- Node10 -->
<g id="node11" class="node">
<title>Node10</title>
<g id="a_node11"><a xlink:href="../../db/d31/Traits_8h.html" target="_top" xlink:title="Framework/Traits.h">
<polygon fill="none" stroke="#000000" points="1921,-112.5 1921,-131.5 2030,-131.5 2030,-112.5 1921,-112.5"/>
<text text-anchor="middle" x="1975.5" y="-119.5" font-family="Helvetica,sans-Serif" font-size="10.00" fill="#000000">Framework/Traits.h</text>
</a>
</g>
</g>
<!-- Node1&#45;&gt;Node10 -->
<g id="edge11" class="edge">
<title>Node1&#45;&gt;Node10</title>
<path fill="none" stroke="#191970" d="M873.7058,-175.3741C1064.4371,-166.1345 1704.181,-135.1435 1910.6583,-125.1411"/>
<polygon fill="#191970" stroke="#191970" points="1910.9219,-128.6326 1920.7408,-124.6527 1910.5831,-121.6408 1910.9219,-128.6326"/>
</g>
<!-- Node12 -->
<g id="node13" class="node">
<title>Node12</title>
<g id="a_node13"><a xlink:href="../../d0/d91/Expressions_8h.html" target="_top" xlink:title="Framework/Expressions.h">
<polygon fill="none" stroke="#000000" points="1059,-112.5 1059,-131.5 1200,-131.5 1200,-112.5 1059,-112.5"/>
<text text-anchor="middle" x="1129.5" y="-119.5" font-family="Helvetica,sans-Serif" font-size="10.00" fill="#000000">Framework/Expressions.h</text>
</a>
</g>
</g>
<!-- Node1&#45;&gt;Node12 -->
<g id="edge13" class="edge">
<title>Node1&#45;&gt;Node12</title>
<path fill="none" stroke="#191970" d="M872.4387,-168.4369C926.273,-158.712 1009.6761,-143.6456 1066.7887,-133.3285"/>
<polygon fill="#191970" stroke="#191970" points="1067.5612,-136.7457 1076.7797,-131.5237 1066.3167,-129.8572 1067.5612,-136.7457"/>
</g>
<!-- Node1&#45;&gt;Node18 -->
<g id="edge33" class="edge">
<title>Node1&#45;&gt;Node18</title>
<path fill="none" stroke="#191970" d="M873.7238,-174.6611C1026.6926,-164.817 1474.6885,-133.0611 1855.7764,-75.9796"/>
<polygon fill="#191970" stroke="#191970" points="1856.5305,-79.4056 1865.8977,-74.4552 1855.4879,-72.4837 1856.5305,-79.4056"/>
</g>
<!-- Node19 -->
<g id="node20" class="node">
<title>Node19</title>
<polygon fill="none" stroke="#bfbfbf" points="1701,-56.5 1701,-75.5 1848,-75.5 1848,-56.5 1701,-56.5"/>
<text text-anchor="middle" x="1774.5" y="-63.5" font-family="Helvetica,sans-Serif" font-size="10.00" fill="#000000">gandiva/selection_vector.h</text>
</g>
<!-- Node1&#45;&gt;Node19 -->
<g id="edge37" class="edge">
<title>Node1&#45;&gt;Node19</title>
<path fill="none" stroke="#191970" d="M873.5913,-171.7387C1009.0466,-156.0451 1374.0194,-113.6726 1690.4448,-76.1222"/>
<polygon fill="#191970" stroke="#191970" points="1691.2176,-79.5552 1700.7353,-74.9007 1690.3925,-72.604 1691.2176,-79.5552"/>
</g>
<!-- Node23 -->
<g id="node24" class="node">
<title>Node23</title>
<polygon fill="none" stroke="#bfbfbf" points="389,-56.5 389,-75.5 468,-75.5 468,-56.5 389,-56.5"/>
<text text-anchor="middle" x="428.5" y="-63.5" font-family="Helvetica,sans-Serif" font-size="10.00" fill="#000000">fmt/format.h</text>
</g>
<!-- Node1&#45;&gt;Node23 -->
<g id="edge39" class="edge">
<title>Node1&#45;&gt;Node23</title>
<path fill="none" stroke="#191970" d="M765.2958,-173.7832C687.8395,-167.1342 549.8372,-152.7953 504.5,-132 479.8399,-120.6889 457.1389,-98.8237 443.0901,-83.3653"/>
<polygon fill="#191970" stroke="#191970" points="445.4478,-80.7461 436.2179,-75.5442 440.1894,-85.3666 445.4478,-80.7461"/>
</g>
<!-- Node27 -->
<g id="node28" class="node">
<title>Node27</title>
<g id="a_node28"><a xlink:href="../../d4/de7/ArrowTypes_8h.html" target="_top" xlink:title="Framework/ArrowTypes.h">
<polygon fill="none" stroke="#000000" points="902,-112.5 902,-131.5 1041,-131.5 1041,-112.5 902,-112.5"/>
<text text-anchor="middle" x="971.5" y="-119.5" font-family="Helvetica,sans-Serif" font-size="10.00" fill="#000000">Framework/ArrowTypes.h</text>
</a>
</g>
</g>
<!-- Node1&#45;&gt;Node27 -->
<g id="edge31" class="edge">
<title>Node1&#45;&gt;Node27</title>
<path fill="none" stroke="#191970" d="M845.6297,-168.3733C870.5768,-159.1822 908.3592,-145.2624 936.0206,-135.0713"/>
<polygon fill="#191970" stroke="#191970" points="937.5378,-138.2424 945.7112,-131.5011 935.1178,-131.674 937.5378,-138.2424"/>
</g>
<!-- Node28 -->
<g id="node29" class="node">
<title>Node28</title>
<polygon fill="none" stroke="#bfbfbf" points="377.5,-112.5 377.5,-131.5 457.5,-131.5 457.5,-112.5 377.5,-112.5"/>
<text text-anchor="middle" x="417.5" y="-119.5" font-family="Helvetica,sans-Serif" font-size="10.00" fill="#000000">arrow/array.h</text>
</g>
<!-- Node1&#45;&gt;Node28 -->
<g id="edge34" class="edge">
<title>Node1&#45;&gt;Node28</title>
<path fill="none" stroke="#191970" d="M765.4227,-171.7304C696.8856,-163.5827 575.1775,-148.4408 471.5,-132 470.2287,-131.7984 468.9414,-131.5903 467.6432,-131.3768"/>
<polygon fill="#191970" stroke="#191970" points="468.011,-127.8891 457.5648,-129.6576 466.8338,-134.7894 468.011,-127.8891"/>
</g>
<!-- Node29 -->
<g id="node30" class="node">
<title>Node29</title>
<polygon fill="none" stroke="#bfbfbf" points="513.5,-112.5 513.5,-131.5 623.5,-131.5 623.5,-112.5 513.5,-112.5"/>
<text text-anchor="middle" x="568.5" y="-119.5" font-family="Helvetica,sans-Serif" font-size="10.00" fill="#000000">arrow/util/variant.h</text>
</g>
<!-- Node1&#45;&gt;Node29 -->
<g id="edge35" class="edge">
<title>Node1&#45;&gt;Node29</title>
<path fill="none" stroke="#191970" d="M776.6368,-168.4369C733.5898,-158.8328 667.1927,-144.0191 621.009,-133.7152"/>
<polygon fill="#191970" stroke="#191970" points="621.7087,-130.2853 611.1865,-131.5237 620.1843,-137.1173 621.7087,-130.2853"/>
</g>
<!-- Node30 -->
<g id="node31" class="node">
<title>Node30</title>
<polygon fill="none" stroke="#bfbfbf" points="642,-112.5 642,-131.5 775,-131.5 775,-112.5 642,-112.5"/>
<text text-anchor="middle" x="708.5" y="-119.5" font-family="Helvetica,sans-Serif" font-size="10.00" fill="#000000">arrow/compute/kernel.h</text>
</g>
<!-- Node1&#45;&gt;Node30 -->
<g id="edge36" class="edge">
<title>Node1&#45;&gt;Node30</title>
<path fill="none" stroke="#191970" d="M800.4184,-168.3733C782.7598,-159.4644 756.2947,-146.1127 736.2902,-136.0203"/>
<polygon fill="#191970" stroke="#191970" points="737.8372,-132.8806 727.3326,-131.5011 734.6842,-139.1303 737.8372,-132.8806"/>
</g>
<!-- Node31 -->
<g id="node32" class="node">
<title>Node31</title>
<polygon fill="none" stroke="#bfbfbf" points="793.5,-112.5 793.5,-131.5 845.5,-131.5 845.5,-112.5 793.5,-112.5"/>
<text text-anchor="middle" x="819.5" y="-119.5" font-family="Helvetica,sans-Serif" font-size="10.00" fill="#000000">cassert</text>
</g>
<!-- Node1&#45;&gt;Node31 -->
<g id="edge38" class="edge">
<title>Node1&#45;&gt;Node31</title>
<path fill="none" stroke="#191970" d="M819.5,-168.2455C819.5,-160.9382 819.5,-150.6944 819.5,-141.7046"/>
<polygon fill="#191970" stroke="#191970" points="823.0001,-141.6426 819.5,-131.6427 816.0001,-141.6427 823.0001,-141.6426"/>
</g>
<!-- Node3 -->
<g id="node4" class="node">
<title>Node3</title>
<polygon fill="none" stroke="#bfbfbf" points="42,-.5 42,-19.5 95,-19.5 95,-.5 42,-.5"/>
<text text-anchor="middle" x="68.5" y="-7.5" font-family="Helvetica,sans-Serif" font-size="10.00" fill="#000000">cstddef</text>
</g>
<!-- Node2&#45;&gt;Node3 -->
<g id="edge3" class="edge">
<title>Node2&#45;&gt;Node3</title>
<path fill="none" stroke="#191970" d="M123.8295,-56.2455C113.9339,-47.9746 99.5373,-35.9416 87.9099,-26.2232"/>
<polygon fill="#191970" stroke="#191970" points="89.9542,-23.3703 80.0368,-19.6427 85.465,-28.7413 89.9542,-23.3703"/>
</g>
<!-- Node4 -->
<g id="node5" class="node">
<title>Node4</title>
<polygon fill="none" stroke="#bfbfbf" points="113,-.5 113,-19.5 158,-19.5 158,-.5 113,-.5"/>
<text text-anchor="middle" x="135.5" y="-7.5" font-family="Helvetica,sans-Serif" font-size="10.00" fill="#000000">utility</text>
</g>
<!-- Node2&#45;&gt;Node4 -->
<g id="edge4" class="edge">
<title>Node2&#45;&gt;Node4</title>
<path fill="none" stroke="#191970" d="M135.5,-56.2455C135.5,-48.9382 135.5,-38.6944 135.5,-29.7046"/>
<polygon fill="#191970" stroke="#191970" points="139.0001,-29.6426 135.5,-19.6427 132.0001,-29.6427 139.0001,-29.6426"/>
</g>
<!-- Node5 -->
<g id="node6" class="node">
<title>Node5</title>
<polygon fill="none" stroke="#bfbfbf" points="176.5,-.5 176.5,-19.5 222.5,-19.5 222.5,-.5 176.5,-.5"/>
<text text-anchor="middle" x="199.5" y="-7.5" font-family="Helvetica,sans-Serif" font-size="10.00" fill="#000000">cstdio</text>
</g>
<!-- Node2&#45;&gt;Node5 -->
<g id="edge5" class="edge">
<title>Node2&#45;&gt;Node5</title>
<path fill="none" stroke="#191970" d="M146.6479,-56.2455C156.0087,-48.0549 169.5858,-36.1749 180.6349,-26.5069"/>
<polygon fill="#191970" stroke="#191970" points="183.2588,-28.8618 188.4798,-19.6427 178.6492,-23.5937 183.2588,-28.8618"/>
</g>
<!-- Node7&#45;&gt;Node2 -->
<g id="edge8" class="edge">
<title>Node7&#45;&gt;Node2</title>
<path fill="none" stroke="#191970" d="M152.8421,-112.2455C150.0416,-104.7776 146.091,-94.2427 142.6676,-85.1137"/>
<polygon fill="#191970" stroke="#191970" points="145.9045,-83.777 139.116,-75.6427 139.3501,-86.2349 145.9045,-83.777"/>
</g>
<!-- Node7&#45;&gt;Node8 -->
<g id="edge9" class="edge">
<title>Node7&#45;&gt;Node8</title>
<path fill="none" stroke="#191970" d="M135.1836,-112.3733C115.2784,-103.3838 85.3564,-89.8706 62.94,-79.7471"/>
<polygon fill="#191970" stroke="#191970" points="64.0925,-76.4272 53.5382,-75.5011 61.2113,-82.8068 64.0925,-76.4272"/>
</g>
<!-- Node11 -->
<g id="node12" class="node">
<title>Node11</title>
<polygon fill="none" stroke="#bfbfbf" points="2104,-56.5 2104,-75.5 2173,-75.5 2173,-56.5 2104,-56.5"/>
<text text-anchor="middle" x="2138.5" y="-63.5" font-family="Helvetica,sans-Serif" font-size="10.00" fill="#000000">type_traits</text>
</g>
<!-- Node10&#45;&gt;Node11 -->
<g id="edge12" class="edge">
<title>Node10&#45;&gt;Node11</title>
<path fill="none" stroke="#191970" d="M2003.5207,-112.3733C2030.5078,-103.1016 2071.5017,-89.0178 2101.2311,-78.804"/>
<polygon fill="#191970" stroke="#191970" points="2102.5248,-82.0605 2110.8449,-75.5011 2100.2503,-75.4403 2102.5248,-82.0605"/>
</g>
<!-- Node12&#45;&gt;Node2 -->
<g id="edge16" class="edge">
<title>Node12&#45;&gt;Node2</title>
<path fill="none" stroke="#191970" d="M1058.8626,-112.851C1055.7007,-112.5422 1052.5687,-112.2562 1049.5,-112 675.1289,-80.7457 576.3013,-113.6525 198.3302,-75.9539"/>
<polygon fill="#191970" stroke="#191970" points="198.5101,-72.4543 188.2096,-74.9343 197.8084,-79.4191 198.5101,-72.4543"/>
</g>
<!-- Node12&#45;&gt;Node6 -->
<g id="edge17" class="edge">
<title>Node12&#45;&gt;Node6</title>
<path fill="none" stroke="#191970" d="M1058.8464,-113.022C1055.6889,-112.6669 1052.5622,-112.3244 1049.5,-112 869.062,-92.8843 820.8348,-95.5002 636.7101,-76.0934"/>
<polygon fill="#191970" stroke="#191970" points="637.0082,-72.6055 626.6946,-75.0303 636.2693,-79.5664 637.0082,-72.6055"/>
</g>
<!-- Node12&#45;&gt;Node9 -->
<g id="edge15" class="edge">
<title>Node12&#45;&gt;Node9</title>
<path fill="none" stroke="#191970" d="M1058.8588,-112.895C1055.6979,-112.5743 1052.5671,-112.2738 1049.5,-112 755.8092,-85.7871 678.4454,-99.9691 381.0398,-76.083"/>
<polygon fill="#191970" stroke="#191970" points="381.0704,-72.5741 370.8201,-75.2542 380.5045,-79.5512 381.0704,-72.5741"/>
</g>
<!-- Node13 -->
<g id="node14" class="node">
<title>Node13</title>
<g id="a_node14"><a xlink:href="../../dd/dc2/BasicOps_8h.html" target="_top" xlink:title="Framework/BasicOps.h">
<polygon fill="none" stroke="#000000" points="1390.5,-56.5 1390.5,-75.5 1518.5,-75.5 1518.5,-56.5 1390.5,-56.5"/>
<text text-anchor="middle" x="1454.5" y="-63.5" font-family="Helvetica,sans-Serif" font-size="10.00" fill="#000000">Framework/BasicOps.h</text>
</a>
</g>
</g>
<!-- Node12&#45;&gt;Node13 -->
<g id="edge14" class="edge">
<title>Node12&#45;&gt;Node13</title>
<path fill="none" stroke="#191970" d="M1185.0002,-112.4369C1241.5563,-102.6918 1329.2404,-87.5832 1389.1259,-77.2645"/>
<polygon fill="#191970" stroke="#191970" points="1389.9683,-80.671 1399.2287,-75.5237 1388.7796,-73.7726 1389.9683,-80.671"/>
</g>
<!-- Node14 -->
<g id="node15" class="node">
<title>Node14</title>
<polygon fill="none" stroke="#bfbfbf" points="645,-56.5 645,-75.5 746,-75.5 746,-56.5 645,-56.5"/>
<text text-anchor="middle" x="695.5" y="-63.5" font-family="Helvetica,sans-Serif" font-size="10.00" fill="#000000">arrow/type_fwd.h</text>
</g>
<!-- Node12&#45;&gt;Node14 -->
<g id="edge18" class="edge">
<title>Node12&#45;&gt;Node14</title>
<path fill="none" stroke="#191970" d="M1058.831,-113.1566C1055.6776,-112.7651 1052.556,-112.3781 1049.5,-112 922.0431,-96.2305 887.4622,-94.8837 756.2502,-76.0578"/>
<polygon fill="#191970" stroke="#191970" points="756.6121,-72.5738 746.215,-74.6111 755.6132,-79.5022 756.6121,-72.5738"/>
</g>
<!-- Node15 -->
<g id="node16" class="node">
<title>Node15</title>
<polygon fill="none" stroke="#bfbfbf" points="1536.5,-56.5 1536.5,-75.5 1682.5,-75.5 1682.5,-56.5 1536.5,-56.5"/>
<text text-anchor="middle" x="1609.5" y="-63.5" font-family="Helvetica,sans-Serif" font-size="10.00" fill="#000000">gandiva/gandiva_aliases.h</text>
</g>
<!-- Node12&#45;&gt;Node15 -->
<g id="edge19" class="edge">
<title>Node12&#45;&gt;Node15</title>
<path fill="none" stroke="#191970" d="M1200.3317,-113.9494C1277.7576,-105.1185 1405.7757,-90.4274 1526.0603,-76.1656"/>
<polygon fill="#191970" stroke="#191970" points="1526.6674,-79.6182 1536.1852,-74.964 1525.8423,-72.667 1526.6674,-79.6182"/>
</g>
<!-- Node16 -->
<g id="node17" class="node">
<title>Node16</title>
<polygon fill="none" stroke="#bfbfbf" points="764.5,-56.5 764.5,-75.5 842.5,-75.5 842.5,-56.5 764.5,-56.5"/>
<text text-anchor="middle" x="803.5" y="-63.5" font-family="Helvetica,sans-Serif" font-size="10.00" fill="#000000">arrow/type.h</text>
</g>
<!-- Node12&#45;&gt;Node16 -->
<g id="edge20" class="edge">
<title>Node12&#45;&gt;Node16</title>
<path fill="none" stroke="#191970" d="M1067.2637,-112.4574C1013.1518,-103.9884 932.3925,-90.9372 852.7205,-76.171"/>
<polygon fill="#191970" stroke="#191970" points="852.978,-72.6588 842.506,-74.2671 851.6953,-79.5402 852.978,-72.6588"/>
</g>
<!-- Node17 -->
<g id="node18" class="node">
<title>Node17</title>
<polygon fill="none" stroke="#bfbfbf" points="861,-56.5 861,-75.5 956,-75.5 956,-56.5 861,-56.5"/>
<text text-anchor="middle" x="908.5" y="-63.5" font-family="Helvetica,sans-Serif" font-size="10.00" fill="#000000">gandiva/arrow.h</text>
</g>
<!-- Node12&#45;&gt;Node17 -->
<g id="edge21" class="edge">
<title>Node12&#45;&gt;Node17</title>
<path fill="none" stroke="#191970" d="M1091.7599,-112.4369C1054.2552,-102.9335 996.6201,-88.3291 956.0176,-78.0407"/>
<polygon fill="#191970" stroke="#191970" points="956.6379,-74.5873 946.0845,-75.5237 954.9184,-81.3728 956.6379,-74.5873"/>
</g>
<!-- Node12&#45;&gt;Node18 -->
<g id="edge22" class="edge">
<title>Node12&#45;&gt;Node18</title>
<path fill="none" stroke="#191970" d="M1200.2393,-120.6729C1328.7807,-117.5728 1609.3437,-107.6398 1855.6927,-75.9219"/>
<polygon fill="#191970" stroke="#191970" points="1856.4525,-79.3526 1865.9167,-74.5903 1855.5484,-72.4112 1856.4525,-79.3526"/>
</g>
<!-- Node12&#45;&gt;Node19 -->
<g id="edge23" class="edge">
<title>Node12&#45;&gt;Node19</title>
<path fill="none" stroke="#191970" d="M1200.1114,-117.0909C1304.7639,-109.6219 1507.472,-94.415 1690.6593,-76.0507"/>
<polygon fill="#191970" stroke="#191970" points="1691.1513,-79.519 1700.75,-75.0339 1690.4494,-72.5542 1691.1513,-79.519"/>
</g>
<!-- Node20 -->
<g id="node21" class="node">
<title>Node20</title>
<polygon fill="none" stroke="#bfbfbf" points="974.5,-56.5 974.5,-75.5 1066.5,-75.5 1066.5,-56.5 974.5,-56.5"/>
<text text-anchor="middle" x="1020.5" y="-63.5" font-family="Helvetica,sans-Serif" font-size="10.00" fill="#000000">gandiva/node.h</text>
</g>
<!-- Node12&#45;&gt;Node20 -->
<g id="edge24" class="edge">
<title>Node12&#45;&gt;Node20</title>
<path fill="none" stroke="#191970" d="M1110.5136,-112.2455C1093.3208,-103.4125 1067.7762,-90.2887 1048.2868,-80.2758"/>
<polygon fill="#191970" stroke="#191970" points="1049.763,-77.0993 1039.2688,-75.6427 1046.5641,-83.3257 1049.763,-77.0993"/>
</g>
<!-- Node21 -->
<g id="node22" class="node">
<title>Node21</title>
<polygon fill="none" stroke="#bfbfbf" points="1085,-56.5 1085,-75.5 1174,-75.5 1174,-56.5 1085,-56.5"/>
<text text-anchor="middle" x="1129.5" y="-63.5" font-family="Helvetica,sans-Serif" font-size="10.00" fill="#000000">gandiva/filter.h</text>
</g>
<!-- Node12&#45;&gt;Node21 -->
<g id="edge25" class="edge">
<title>Node12&#45;&gt;Node21</title>
<path fill="none" stroke="#191970" d="M1129.5,-112.2455C1129.5,-104.9382 1129.5,-94.6944 1129.5,-85.7046"/>
<polygon fill="#191970" stroke="#191970" points="1133.0001,-85.6426 1129.5,-75.6427 1126.0001,-85.6427 1133.0001,-85.6426"/>
</g>
<!-- Node22 -->
<g id="node23" class="node">
<title>Node22</title>
<polygon fill="none" stroke="#bfbfbf" points="1192.5,-56.5 1192.5,-75.5 1302.5,-75.5 1302.5,-56.5 1192.5,-56.5"/>
<text text-anchor="middle" x="1247.5" y="-63.5" font-family="Helvetica,sans-Serif" font-size="10.00" fill="#000000">gandiva/projector.h</text>
</g>
<!-- Node12&#45;&gt;Node22 -->
<g id="edge26" class="edge">
<title>Node12&#45;&gt;Node22</title>
<path fill="none" stroke="#191970" d="M1149.7849,-112.3733C1168.6421,-103.4241 1196.946,-89.9917 1218.2455,-79.8835"/>
<polygon fill="#191970" stroke="#191970" points="1219.9461,-82.9506 1227.4798,-75.5011 1216.9449,-76.6266 1219.9461,-82.9506"/>
</g>
<!-- Node12&#45;&gt;Node23 -->
<g id="edge27" class="edge">
<title>Node12&#45;&gt;Node23</title>
<path fill="none" stroke="#191970" d="M1058.8556,-112.9303C1055.6956,-112.6 1052.5659,-112.2878 1049.5,-112 799.2334,-88.5052 731.7762,-108.9925 478.262,-75.9053"/>
<polygon fill="#191970" stroke="#191970" points="478.373,-72.3897 468.0008,-74.5503 477.4565,-79.3294 478.373,-72.3897"/>
</g>
<!-- Node24 -->
<g id="node25" class="node">
<title>Node24</title>
<polygon fill="none" stroke="#bfbfbf" points="1321,-56.5 1321,-75.5 1372,-75.5 1372,-56.5 1321,-56.5"/>
<text text-anchor="middle" x="1346.5" y="-63.5" font-family="Helvetica,sans-Serif" font-size="10.00" fill="#000000">variant</text>
</g>
<!-- Node12&#45;&gt;Node24 -->
<g id="edge28" class="edge">
<title>Node12&#45;&gt;Node24</title>
<path fill="none" stroke="#191970" d="M1168.6433,-112.4756C1203.4704,-103.919 1256.0302,-90.8055 1310.989,-76.0787"/>
<polygon fill="#191970" stroke="#191970" points="1312.1637,-79.3872 1320.911,-73.4092 1310.345,-72.6276 1312.1637,-79.3872"/>
</g>
<!-- Node12&#45;&gt;Node25 -->
<g id="edge29" class="edge">
<title>Node12&#45;&gt;Node25</title>
<path fill="none" stroke="#191970" d="M1200.0537,-120.3104C1372.421,-115.8219 1811.35,-102.1205 1955.5,-76 1955.6002,-75.9818 1955.7006,-75.9635 1955.801,-75.9449"/>
<polygon fill="#191970" stroke="#191970" points="1956.3645,-79.408 1965.2965,-73.7097 1954.7605,-72.5942 1956.3645,-79.408"/>
</g>
<!-- Node12&#45;&gt;Node26 -->
<g id="edge30" class="edge">
<title>Node12&#45;&gt;Node26</title>
<path fill="none" stroke="#191970" d="M1200.3214,-120.2158C1378.4467,-115.4327 1842.699,-101.0593 2017.0953,-75.8744"/>
<polygon fill="#191970" stroke="#191970" points="2017.801,-79.3077 2027.1678,-74.3564 2016.7578,-72.3858 2017.801,-79.3077"/>
</g>
<!-- Node27&#45;&gt;Node14 -->
<g id="edge32" class="edge">
<title>Node27&#45;&gt;Node14</title>
<path fill="none" stroke="#191970" d="M924.3675,-112.4369C876.7353,-102.7724 803.1033,-87.8326 752.2834,-77.5213"/>
<polygon fill="#191970" stroke="#191970" points="752.9344,-74.0821 742.4381,-75.5237 751.5424,-80.9423 752.9344,-74.0821"/>
</g>
<!-- Node32&#45;&gt;Node10 -->
<g id="edge41" class="edge">
<title>Node32&#45;&gt;Node10</title>
<path fill="none" stroke="#191970" d="M1991.1905,-168.2455C1988.6567,-160.7776 1985.0823,-150.2427 1981.985,-141.1137"/>
<polygon fill="#191970" stroke="#191970" points="1985.2991,-139.9879 1978.7716,-131.6427 1978.6702,-142.237 1985.2991,-139.9879"/>
</g>
<!-- Node32&#45;&gt;Node11 -->
<g id="edge43" class="edge">
<title>Node32&#45;&gt;Node11</title>
<path fill="none" stroke="#191970" d="M2006.7063,-168.3357C2023.0217,-155.4348 2052.8604,-131.9001 2078.5,-112 2091.39,-101.9955 2105.9095,-90.8603 2117.4365,-82.0517"/>
<polygon fill="#191970" stroke="#191970" points="2119.7664,-84.6763 2125.5914,-75.8264 2115.5189,-79.1123 2119.7664,-84.6763"/>
</g>
<!-- Node32&#45;&gt;Node33 -->
<g id="edge42" class="edge">
<title>Node32&#45;&gt;Node33</title>
<path fill="none" stroke="#191970" d="M2013.9254,-168.3733C2031.9021,-159.4644 2058.8441,-146.1127 2079.209,-136.0203"/>
<polygon fill="#191970" stroke="#191970" points="2080.9222,-139.0776 2088.3281,-131.5011 2077.8139,-132.8055 2080.9222,-139.0776"/>
</g>
<!-- Node34&#45;&gt;Node9 -->
<g id="edge46" class="edge">
<title>Node34&#45;&gt;Node9</title>
<path fill="none" stroke="#191970" d="M490.712,-168.905C433.2612,-161.0387 360.8279,-148.3579 335.5,-132 317.8582,-120.6061 304.8082,-100.0545 296.9944,-84.9017"/>
<polygon fill="#191970" stroke="#191970" points="300.1305,-83.3473 292.6202,-75.8743 293.8311,-86.3998 300.1305,-83.3473"/>
</g>
</g>
</svg>
        <g id="navigator" transform="translate(0 0)" fill="#404254">
                <rect fill="#f2f5e9" fill-opacity="0.5" stroke="#606060" stroke-width=".5" x="0" y="0" width="60" height="60"/>
                <use id="zoomplus" xlink:href="#zoomPlus" x="17" y="9" onmousedown="handleZoom(evt,'in')"/>
                <use id="zoomminus" xlink:href="#zoomMin" x="42" y="9" onmousedown="handleZoom(evt,'out')"/>
                <use id="reset" xlink:href="#resetDef" x="30" y="36" onmousedown="handleReset()"/>
                <g id="arrowUp" xlink:href="#dirArrow" transform="translate(30 24)" onmousedown="handlePan(0,-1)">
                  <use xlink:href="#rim" fill="#404040">
                        <set attributeName="fill" to="#808080" begin="arrowUp.mouseover" end="arrowUp.mouseout"/>
                  </use>
                  <path fill="none" stroke="white" stroke-width="1.5" d="M0,-3.0v7 M-2.5,-0.5L0,-3.0L2.5,-0.5"/>
                </g>
                <g id="arrowRight" xlink:href="#dirArrow" transform="rotate(90) translate(36 -43)" onmousedown="handlePan(1,0)">
                  <use xlink:href="#rim" fill="#404040">
                        <set attributeName="fill" to="#808080" begin="arrowRight.mouseover" end="arrowRight.mouseout"/>
                  </use>
                  <path fill="none" stroke="white" stroke-width="1.5" d="M0,-3.0v7 M-2.5,-0.5L0,-3.0L2.5,-0.5"/>
                </g>
                <g id="arrowDown" xlink:href="#dirArrow" transform="rotate(180) translate(-30 -48)" onmousedown="handlePan(0,1)">
                  <use xlink:href="#rim" fill="#404040">
                        <set attributeName="fill" to="#808080" begin="arrowDown.mouseover" end="arrowDown.mouseout"/>
                  </use>
                  <path fill="none" stroke="white" stroke-width="1.5" d="M0,-3.0v7 M-2.5,-0.5L0,-3.0L2.5,-0.5"/>
                </g>
                <g id="arrowLeft" xlink:href="#dirArrow" transform="rotate(270) translate(-36 17)" onmousedown="handlePan(-1,0)">
                  <use xlink:href="#rim" fill="#404040">
                        <set attributeName="fill" to="#808080" begin="arrowLeft.mouseover" end="arrowLeft.mouseout"/>
                  </use>
                  <path fill="none" stroke="white" stroke-width="1.5" d="M0,-3.0v7 M-2.5,-0.5L0,-3.0L2.5,-0.5"/>
                </g>
        </g>
        <svg viewBox="0 0 15 15" width="100%" height="30px" preserveAspectRatio="xMaxYMin meet">
         <g id="arrow_out" transform="scale(0.3 0.3)">
          <a xlink:href="TableBuilder_8h__incl_org.svg" target="_base">
           <rect id="button" ry="5" rx="5" y="6" x="6" height="38" width="38"
                fill="#f2f5e9" fill-opacity="0.5" stroke="#606060" stroke-width="1.0"/>
           <path id="arrow"
             d="M 11.500037,31.436501 C 11.940474,20.09759 22.043105,11.32322 32.158766,21.979434 L 37.068811,17.246167 C 37.068811,17.246167 37.088388,32 37.088388,32 L 22.160133,31.978069 C 22.160133,31.978069 26.997745,27.140456 26.997745,27.140456 C 18.528582,18.264221 13.291696,25.230495 11.500037,31.436501 z"
             style="fill:#404040;"/>
          </a>
         </g>
        </svg>
</svg>
