<?xml version="1.0" encoding="UTF-8" standalone="no"?>
<!DOCTYPE svg PUBLIC "-//W3C//DTD SVG 1.1//EN"
 "http://www.w3.org/Graphics/SVG/1.1/DTD/svg11.dtd">
<!-- Generated by graphviz version 2.40.1 (20161225.0304)
 -->
<!-- Title: /home/travis/build/AliceO2Group/AliceO2/DataFormats/Detectors/TRD/include/DataFormatsTRD/TriggerRecord.h Pages: 1 -->
<svg width="1675pt" height="261pt"
 viewBox="0.00 0.00 1674.50 261.00" xmlns="http://www.w3.org/2000/svg" xmlns:xlink="http://www.w3.org/1999/xlink">
<g id="graph0" class="graph" transform="scale(1 1) rotate(0) translate(4 257)">
<title>/home/travis/build/AliceO2Group/AliceO2/DataFormats/Detectors/TRD/include/DataFormatsTRD/TriggerRecord.h</title>
<!-- Node9 -->
<g id="node1" class="node">
<title>Node9</title>
<polygon fill="#bfbfbf" stroke="#000000" points="619,-189.5 619,-252.5 783,-252.5 783,-189.5 619,-189.5"/>
<text text-anchor="start" x="627" y="-240.5" font-family="Helvetica,sans-Serif" font-size="10.00" fill="#000000">/home/travis/build</text>
<text text-anchor="start" x="627" y="-229.5" font-family="Helvetica,sans-Serif" font-size="10.00" fill="#000000">/AliceO2Group/AliceO2</text>
<text text-anchor="start" x="627" y="-218.5" font-family="Helvetica,sans-Serif" font-size="10.00" fill="#000000">/DataFormats/Detectors</text>
<text text-anchor="start" x="627" y="-207.5" font-family="Helvetica,sans-Serif" font-size="10.00" fill="#000000">/TRD/include/DataFormatsTRD</text>
<text text-anchor="middle" x="701" y="-196.5" font-family="Helvetica,sans-Serif" font-size="10.00" fill="#000000">/TriggerRecord.h</text>
</g>
<!-- Node10 -->
<g id="node2" class="node">
<title>Node10</title>
<g id="a_node2"><a xlink:href="../../d4/d81/TRD_2src_2TriggerRecord_8cxx.html" target="_top" xlink:title="/home/travis/build\l/AliceO2Group/AliceO2\l/DataFormats/Detectors\l/TRD/src/TriggerRecord.cxx">
<polygon fill="none" stroke="#000000" points="0,-95 0,-147 146,-147 146,-95 0,-95"/>
<text text-anchor="start" x="8" y="-135" font-family="Helvetica,sans-Serif" font-size="10.00" fill="#000000">/home/travis/build</text>
<text text-anchor="start" x="8" y="-124" font-family="Helvetica,sans-Serif" font-size="10.00" fill="#000000">/AliceO2Group/AliceO2</text>
<text text-anchor="start" x="8" y="-113" font-family="Helvetica,sans-Serif" font-size="10.00" fill="#000000">/DataFormats/Detectors</text>
<text text-anchor="middle" x="73" y="-102" font-family="Helvetica,sans-Serif" font-size="10.00" fill="#000000">/TRD/src/TriggerRecord.cxx</text>
</a>
</g>
</g>
<!-- Node9&#45;&gt;Node10 -->
<g id="edge1" class="edge">
<title>Node9&#45;&gt;Node10</title>
<path fill="none" stroke="#191970" d="M608.5674,-215.7943C499.9277,-208.2082 314.8169,-190.6808 160,-153 153.1197,-151.3254 146.0345,-149.2812 139.018,-147.0438"/>
<polygon fill="#191970" stroke="#191970" points="608.6228,-219.3062 618.8386,-216.4977 609.1011,-212.3225 608.6228,-219.3062"/>
</g>
<!-- Node11 -->
<g id="node3" class="node">
<title>Node11</title>
<g id="a_node3"><a xlink:href="../../d3/d2d/Trap2CRU_8h.html" target="_top" xlink:title="/home/travis/build\l/AliceO2Group/AliceO2\l/Detectors/TRD/simulation\l/include/TRDSimulation/Trap2CRU.h">
<polygon fill="none" stroke="#000000" points="202,-95 202,-147 392,-147 392,-95 202,-95"/>
<text text-anchor="start" x="210" y="-135" font-family="Helvetica,sans-Serif" font-size="10.00" fill="#000000">/home/travis/build</text>
<text text-anchor="start" x="210" y="-124" font-family="Helvetica,sans-Serif" font-size="10.00" fill="#000000">/AliceO2Group/AliceO2</text>
<text text-anchor="start" x="210" y="-113" font-family="Helvetica,sans-Serif" font-size="10.00" fill="#000000">/Detectors/TRD/simulation</text>
<text text-anchor="middle" x="297" y="-102" font-family="Helvetica,sans-Serif" font-size="10.00" fill="#000000">/include/TRDSimulation/Trap2CRU.h</text>
</a>
</g>
</g>
<!-- Node9&#45;&gt;Node11 -->
<g id="edge2" class="edge">
<title>Node9&#45;&gt;Node11</title>
<path fill="none" stroke="#191970" d="M609.0403,-201.2673C550.6673,-188.3803 473.6503,-170.7108 406,-153 398.8453,-151.1269 391.4478,-149.1159 384.0322,-147.0476"/>
<polygon fill="#191970" stroke="#191970" points="608.4599,-204.7232 618.9786,-203.4549 609.9648,-197.8869 608.4599,-204.7232"/>
</g>
<!-- Node12 -->
<g id="node4" class="node">
<title>Node12</title>
<g id="a_node4"><a xlink:href="../../d0/d2c/Trap2CRU_8cxx.html" target="_top" xlink:title="/home/travis/build\l/AliceO2Group/AliceO2\l/Detectors/TRD/simulation\l/src/Trap2CRU.cxx">
<polygon fill="none" stroke="#000000" points="61.5,-.5 61.5,-52.5 206.5,-52.5 206.5,-.5 61.5,-.5"/>
<text text-anchor="start" x="69.5" y="-40.5" font-family="Helvetica,sans-Serif" font-size="10.00" fill="#000000">/home/travis/build</text>
<text text-anchor="start" x="69.5" y="-29.5" font-family="Helvetica,sans-Serif" font-size="10.00" fill="#000000">/AliceO2Group/AliceO2</text>
<text text-anchor="start" x="69.5" y="-18.5" font-family="Helvetica,sans-Serif" font-size="10.00" fill="#000000">/Detectors/TRD/simulation</text>
<text text-anchor="middle" x="134" y="-7.5" font-family="Helvetica,sans-Serif" font-size="10.00" fill="#000000">/src/Trap2CRU.cxx</text>
</a>
</g>
</g>
<!-- Node9&#45;&gt;Node12 -->
<g id="edge5" class="edge">
<title>Node9&#45;&gt;Node12</title>
<path fill="none" stroke="#191970" d="M608.7689,-219.064C480.6425,-214.6576 257.2713,-200.229 193,-153 175.9133,-140.4441 154.6166,-85.9409 142.8504,-52.7077"/>
<polygon fill="#191970" stroke="#191970" points="608.8537,-222.5686 618.9638,-219.4004 609.0847,-215.5724 608.8537,-222.5686"/>
</g>
<!-- Node13 -->
<g id="node5" class="node">
<title>Node13</title>
<g id="a_node5"><a xlink:href="../../d9/dfe/trap2raw_8cxx.html" target="_top" xlink:title="/home/travis/build\l/AliceO2Group/AliceO2\l/Detectors/TRD/simulation\l/src/trap2raw.cxx">
<polygon fill="none" stroke="#000000" points="224.5,-.5 224.5,-52.5 369.5,-52.5 369.5,-.5 224.5,-.5"/>
<text text-anchor="start" x="232.5" y="-40.5" font-family="Helvetica,sans-Serif" font-size="10.00" fill="#000000">/home/travis/build</text>
<text text-anchor="start" x="232.5" y="-29.5" font-family="Helvetica,sans-Serif" font-size="10.00" fill="#000000">/AliceO2Group/AliceO2</text>
<text text-anchor="start" x="232.5" y="-18.5" font-family="Helvetica,sans-Serif" font-size="10.00" fill="#000000">/Detectors/TRD/simulation</text>
<text text-anchor="middle" x="297" y="-7.5" font-family="Helvetica,sans-Serif" font-size="10.00" fill="#000000">/src/trap2raw.cxx</text>
</a>
</g>
</g>
<!-- Node9&#45;&gt;Node13 -->
<g id="edge6" class="edge">
<title>Node9&#45;&gt;Node13</title>
<path fill="none" stroke="#191970" d="M609.0889,-209.0396C560.387,-199.5107 501.2482,-182.6316 455,-153 423.6635,-132.9224 429.3318,-113.1328 401,-89 384.9638,-75.3405 365.5868,-62.8157 347.9258,-52.6235"/>
<polygon fill="#191970" stroke="#191970" points="608.5233,-212.4945 618.9984,-210.9061 609.8191,-205.6155 608.5233,-212.4945"/>
</g>
<!-- Node14 -->
<g id="node6" class="node">
<title>Node14</title>
<g id="a_node6"><a xlink:href="../../df/d1b/TRDDigitReaderSpec_8h.html" target="_top" xlink:title="/home/travis/build\l/AliceO2Group/AliceO2\l/Detectors/TRD/workflow\l/include/TRDWorkflow/TRDDigitReader\lSpec.h">
<polygon fill="none" stroke="#000000" points="486.5,-89.5 486.5,-152.5 689.5,-152.5 689.5,-89.5 486.5,-89.5"/>
<text text-anchor="start" x="494.5" y="-140.5" font-family="Helvetica,sans-Serif" font-size="10.00" fill="#000000">/home/travis/build</text>
<text text-anchor="start" x="494.5" y="-129.5" font-family="Helvetica,sans-Serif" font-size="10.00" fill="#000000">/AliceO2Group/AliceO2</text>
<text text-anchor="start" x="494.5" y="-118.5" font-family="Helvetica,sans-Serif" font-size="10.00" fill="#000000">/Detectors/TRD/workflow</text>
<text text-anchor="start" x="494.5" y="-107.5" font-family="Helvetica,sans-Serif" font-size="10.00" fill="#000000">/include/TRDWorkflow/TRDDigitReader</text>
<text text-anchor="middle" x="588" y="-96.5" font-family="Helvetica,sans-Serif" font-size="10.00" fill="#000000">Spec.h</text>
</a>
</g>
</g>
<!-- Node9&#45;&gt;Node14 -->
<g id="edge7" class="edge">
<title>Node9&#45;&gt;Node14</title>
<path fill="none" stroke="#191970" d="M657.6647,-182.6502C646.5134,-172.7817 634.6375,-162.2722 623.9092,-152.778"/>
<polygon fill="#191970" stroke="#191970" points="655.4378,-185.3532 665.2461,-189.3594 660.0769,-180.1111 655.4378,-185.3532"/>
</g>
<!-- Node15 -->
<g id="node7" class="node">
<title>Node15</title>
<g id="a_node7"><a xlink:href="../../d7/da6/TRDDigitReaderSpec_8cxx.html" target="_top" xlink:title="/home/travis/build\l/AliceO2Group/AliceO2\l/Detectors/TRD/workflow\l/src/TRDDigitReaderSpec.cxx">
<polygon fill="none" stroke="#000000" points="388,-.5 388,-52.5 546,-52.5 546,-.5 388,-.5"/>
<text text-anchor="start" x="396" y="-40.5" font-family="Helvetica,sans-Serif" font-size="10.00" fill="#000000">/home/travis/build</text>
<text text-anchor="start" x="396" y="-29.5" font-family="Helvetica,sans-Serif" font-size="10.00" fill="#000000">/AliceO2Group/AliceO2</text>
<text text-anchor="start" x="396" y="-18.5" font-family="Helvetica,sans-Serif" font-size="10.00" fill="#000000">/Detectors/TRD/workflow</text>
<text text-anchor="middle" x="467" y="-7.5" font-family="Helvetica,sans-Serif" font-size="10.00" fill="#000000">/src/TRDDigitReaderSpec.cxx</text>
</a>
</g>
</g>
<!-- Node9&#45;&gt;Node15 -->
<g id="edge15" class="edge">
<title>Node9&#45;&gt;Node15</title>
<path fill="none" stroke="#191970" d="M608.9635,-203.9476C554.9904,-191.9543 494.1175,-174.2773 477,-153 454.2838,-124.7635 456.6324,-80.5826 461.2133,-52.6074"/>
<polygon fill="#191970" stroke="#191970" points="608.4334,-207.4141 618.949,-206.1205 609.9219,-200.5742 608.4334,-207.4141"/>
</g>
<!-- Node17 -->
<g id="node9" class="node">
<title>Node17</title>
<g id="a_node9"><a xlink:href="../../dc/d96/TRDTrapSimulatorSpec_8h.html" target="_top" xlink:title="/home/travis/build\l/AliceO2Group/AliceO2\l/Detectors/TRD/workflow\l/include/TRDWorkflow/TRDTrapSimulator\lSpec.h">
<polygon fill="none" stroke="#000000" points="707,-89.5 707,-152.5 921,-152.5 921,-89.5 707,-89.5"/>
<text text-anchor="start" x="715" y="-140.5" font-family="Helvetica,sans-Serif" font-size="10.00" fill="#000000">/home/travis/build</text>
<text text-anchor="start" x="715" y="-129.5" font-family="Helvetica,sans-Serif" font-size="10.00" fill="#000000">/AliceO2Group/AliceO2</text>
<text text-anchor="start" x="715" y="-118.5" font-family="Helvetica,sans-Serif" font-size="10.00" fill="#000000">/Detectors/TRD/workflow</text>
<text text-anchor="start" x="715" y="-107.5" font-family="Helvetica,sans-Serif" font-size="10.00" fill="#000000">/include/TRDWorkflow/TRDTrapSimulator</text>
<text text-anchor="middle" x="814" y="-96.5" font-family="Helvetica,sans-Serif" font-size="10.00" fill="#000000">Spec.h</text>
</a>
</g>
</g>
<!-- Node9&#45;&gt;Node17 -->
<g id="edge10" class="edge">
<title>Node9&#45;&gt;Node17</title>
<path fill="none" stroke="#191970" d="M744.3353,-182.6502C755.4866,-172.7817 767.3625,-162.2722 778.0908,-152.778"/>
<polygon fill="#191970" stroke="#191970" points="741.9231,-180.1111 736.7539,-189.3594 746.5622,-185.3532 741.9231,-180.1111"/>
</g>
<!-- Node18 -->
<g id="node10" class="node">
<title>Node18</title>
<g id="a_node10"><a xlink:href="../../dd/de7/TRDTrapSimulatorSpec_8cxx.html" target="_top" xlink:title="/home/travis/build\l/AliceO2Group/AliceO2\l/Detectors/TRD/workflow\l/src/TRDTrapSimulatorSpec.cxx">
<polygon fill="none" stroke="#000000" points="968,-.5 968,-52.5 1136,-52.5 1136,-.5 968,-.5"/>
<text text-anchor="start" x="976" y="-40.5" font-family="Helvetica,sans-Serif" font-size="10.00" fill="#000000">/home/travis/build</text>
<text text-anchor="start" x="976" y="-29.5" font-family="Helvetica,sans-Serif" font-size="10.00" fill="#000000">/AliceO2Group/AliceO2</text>
<text text-anchor="start" x="976" y="-18.5" font-family="Helvetica,sans-Serif" font-size="10.00" fill="#000000">/Detectors/TRD/workflow</text>
<text text-anchor="middle" x="1052" y="-7.5" font-family="Helvetica,sans-Serif" font-size="10.00" fill="#000000">/src/TRDTrapSimulatorSpec.cxx</text>
</a>
</g>
</g>
<!-- Node9&#45;&gt;Node18 -->
<g id="edge19" class="edge">
<title>Node9&#45;&gt;Node18</title>
<path fill="none" stroke="#191970" d="M793.3202,-209.6416C838.2348,-200.3524 890.8388,-183.5074 930,-153 956.0964,-132.6703 945.8544,-113.5742 968,-89 980.1687,-75.4969 995.648,-63.0063 1009.9946,-52.7977"/>
<polygon fill="#191970" stroke="#191970" points="792.4051,-206.2546 783.2706,-211.6223 793.7587,-213.1225 792.4051,-206.2546"/>
</g>
<!-- Node20 -->
<g id="node12" class="node">
<title>Node20</title>
<g id="a_node12"><a xlink:href="../../d6/df2/TRDDigitizerSpec_8cxx.html" target="_top" xlink:title="/home/travis/build\l/AliceO2Group/AliceO2\l/Detectors/TRD/workflow\l/src/TRDDigitizerSpec.cxx">
<polygon fill="none" stroke="#000000" points="977,-95 977,-147 1119,-147 1119,-95 977,-95"/>
<text text-anchor="start" x="985" y="-135" font-family="Helvetica,sans-Serif" font-size="10.00" fill="#000000">/home/travis/build</text>
<text text-anchor="start" x="985" y="-124" font-family="Helvetica,sans-Serif" font-size="10.00" fill="#000000">/AliceO2Group/AliceO2</text>
<text text-anchor="start" x="985" y="-113" font-family="Helvetica,sans-Serif" font-size="10.00" fill="#000000">/Detectors/TRD/workflow</text>
<text text-anchor="middle" x="1048" y="-102" font-family="Helvetica,sans-Serif" font-size="10.00" fill="#000000">/src/TRDDigitizerSpec.cxx</text>
</a>
</g>
</g>
<!-- Node9&#45;&gt;Node20 -->
<g id="edge14" class="edge">
<title>Node9&#45;&gt;Node20</title>
<path fill="none" stroke="#191970" d="M792.9966,-199.6572C843.5458,-187.297 907.145,-170.7073 963,-153 968.7117,-151.1893 974.6006,-149.211 980.4883,-147.1549"/>
<polygon fill="#191970" stroke="#191970" points="791.9566,-196.308 783.0669,-202.0719 793.6108,-203.1098 791.9566,-196.308"/>
</g>
<!-- Node21 -->
<g id="node13" class="node">
<title>Node21</title>
<g id="a_node13"><a xlink:href="../../dd/d1a/TRDDigitWriterSpec_8cxx.html" target="_top" xlink:title="/home/travis/build\l/AliceO2Group/AliceO2\l/Detectors/TRD/workflow\l/src/TRDDigitWriterSpec.cxx">
<polygon fill="none" stroke="#000000" points="1137.5,-95 1137.5,-147 1290.5,-147 1290.5,-95 1137.5,-95"/>
<text text-anchor="start" x="1145.5" y="-135" font-family="Helvetica,sans-Serif" font-size="10.00" fill="#000000">/home/travis/build</text>
<text text-anchor="start" x="1145.5" y="-124" font-family="Helvetica,sans-Serif" font-size="10.00" fill="#000000">/AliceO2Group/AliceO2</text>
<text text-anchor="start" x="1145.5" y="-113" font-family="Helvetica,sans-Serif" font-size="10.00" fill="#000000">/Detectors/TRD/workflow</text>
<text text-anchor="middle" x="1214" y="-102" font-family="Helvetica,sans-Serif" font-size="10.00" fill="#000000">/src/TRDDigitWriterSpec.cxx</text>
</a>
</g>
</g>
<!-- Node9&#45;&gt;Node21 -->
<g id="edge16" class="edge">
<title>Node9&#45;&gt;Node21</title>
<path fill="none" stroke="#191970" d="M793.1975,-211.6678C880.4248,-201.5862 1014.5193,-182.8328 1128,-153 1134.471,-151.2988 1141.1335,-149.2946 1147.7506,-147.1324"/>
<polygon fill="#191970" stroke="#191970" points="792.5997,-208.2132 783.0611,-212.8247 793.3935,-215.1681 792.5997,-208.2132"/>
</g>
<!-- Node22 -->
<g id="node14" class="node">
<title>Node22</title>
<g id="a_node14"><a xlink:href="../../d0/dfb/TRDTrackletWriterSpec_8cxx.html" target="_top" xlink:title="/home/travis/build\l/AliceO2Group/AliceO2\l/Detectors/TRD/workflow\l/src/TRDTrackletWriterSpec.cxx">
<polygon fill="none" stroke="#000000" points="1309,-95 1309,-147 1477,-147 1477,-95 1309,-95"/>
<text text-anchor="start" x="1317" y="-135" font-family="Helvetica,sans-Serif" font-size="10.00" fill="#000000">/home/travis/build</text>
<text text-anchor="start" x="1317" y="-124" font-family="Helvetica,sans-Serif" font-size="10.00" fill="#000000">/AliceO2Group/AliceO2</text>
<text text-anchor="start" x="1317" y="-113" font-family="Helvetica,sans-Serif" font-size="10.00" fill="#000000">/Detectors/TRD/workflow</text>
<text text-anchor="middle" x="1393" y="-102" font-family="Helvetica,sans-Serif" font-size="10.00" fill="#000000">/src/TRDTrackletWriterSpec.cxx</text>
</a>
</g>
</g>
<!-- Node9&#45;&gt;Node22 -->
<g id="edge17" class="edge">
<title>Node9&#45;&gt;Node22</title>
<path fill="none" stroke="#191970" d="M793.4568,-216.7704C912.0273,-209.9222 1123.4305,-192.8957 1300,-153 1307.4115,-151.3254 1315.0564,-149.266 1322.6297,-147.0063"/>
<polygon fill="#191970" stroke="#191970" points="793.1153,-213.284 783.3291,-217.3435 793.5109,-220.2728 793.1153,-213.284"/>
</g>
<!-- Node23 -->
<g id="node15" class="node">
<title>Node23</title>
<g id="a_node15"><a xlink:href="../../d1/d78/TRDTrapRawWriterSpec_8cxx.html" target="_top" xlink:title="/home/travis/build\l/AliceO2Group/AliceO2\l/Detectors/TRD/workflow\l/src/TRDTrapRawWriterSpec.cxx">
<polygon fill="none" stroke="#000000" points="1495.5,-95 1495.5,-147 1666.5,-147 1666.5,-95 1495.5,-95"/>
<text text-anchor="start" x="1503.5" y="-135" font-family="Helvetica,sans-Serif" font-size="10.00" fill="#000000">/home/travis/build</text>
<text text-anchor="start" x="1503.5" y="-124" font-family="Helvetica,sans-Serif" font-size="10.00" fill="#000000">/AliceO2Group/AliceO2</text>
<text text-anchor="start" x="1503.5" y="-113" font-family="Helvetica,sans-Serif" font-size="10.00" fill="#000000">/Detectors/TRD/workflow</text>
<text text-anchor="middle" x="1581" y="-102" font-family="Helvetica,sans-Serif" font-size="10.00" fill="#000000">/src/TRDTrapRawWriterSpec.cxx</text>
</a>
</g>
</g>
<!-- Node9&#45;&gt;Node23 -->
<g id="edge18" class="edge">
<title>Node9&#45;&gt;Node23</title>
<path fill="none" stroke="#191970" d="M793.3407,-215.7719C971.364,-205.2354 1355.9513,-180.129 1486,-153 1493.7518,-151.3829 1501.749,-149.3298 1509.6596,-147.0467"/>
<polygon fill="#191970" stroke="#191970" points="792.9866,-212.2866 783.2099,-216.3689 793.3985,-219.2744 792.9866,-212.2866"/>
</g>
<!-- Node11&#45;&gt;Node12 -->
<g id="edge3" class="edge">
<title>Node11&#45;&gt;Node12</title>
<path fill="none" stroke="#191970" d="M243.3067,-89.8711C222.522,-77.821 198.9958,-64.1816 179.1079,-52.6515"/>
<polygon fill="#191970" stroke="#191970" points="241.6213,-92.9396 252.028,-94.9273 245.1323,-86.8837 241.6213,-92.9396"/>
</g>
<!-- Node11&#45;&gt;Node13 -->
<g id="edge4" class="edge">
<title>Node11&#45;&gt;Node13</title>
<path fill="none" stroke="#191970" d="M297,-84.6645C297,-74.0577 297,-62.6746 297,-52.8157"/>
<polygon fill="#191970" stroke="#191970" points="293.5001,-84.9273 297,-94.9273 300.5001,-84.9273 293.5001,-84.9273"/>
</g>
<!-- Node14&#45;&gt;Node15 -->
<g id="edge8" class="edge">
<title>Node14&#45;&gt;Node15</title>
<path fill="none" stroke="#191970" d="M539.3683,-83.0191C526.3178,-72.8267 512.5003,-62.0354 500.4756,-52.6442"/>
<polygon fill="#191970" stroke="#191970" points="537.3366,-85.8732 547.3721,-89.27 541.6452,-80.3563 537.3366,-85.8732"/>
</g>
<!-- Node16 -->
<g id="node8" class="node">
<title>Node16</title>
<g id="a_node8"><a xlink:href="../../d2/dc0/TRDTrapSimulatorWorkFlow_8cxx.html" target="_top" xlink:title="/home/travis/build\l/AliceO2Group/AliceO2\l/Detectors/TRD/workflow\l/src/TRDTrapSimulatorWorkFlow.cxx">
<polygon fill="none" stroke="#000000" points="564.5,-.5 564.5,-52.5 755.5,-52.5 755.5,-.5 564.5,-.5"/>
<text text-anchor="start" x="572.5" y="-40.5" font-family="Helvetica,sans-Serif" font-size="10.00" fill="#000000">/home/travis/build</text>
<text text-anchor="start" x="572.5" y="-29.5" font-family="Helvetica,sans-Serif" font-size="10.00" fill="#000000">/AliceO2Group/AliceO2</text>
<text text-anchor="start" x="572.5" y="-18.5" font-family="Helvetica,sans-Serif" font-size="10.00" fill="#000000">/Detectors/TRD/workflow</text>
<text text-anchor="middle" x="660" y="-7.5" font-family="Helvetica,sans-Serif" font-size="10.00" fill="#000000">/src/TRDTrapSimulatorWorkFlow.cxx</text>
</a>
</g>
</g>
<!-- Node14&#45;&gt;Node16 -->
<g id="edge9" class="edge">
<title>Node14&#45;&gt;Node16</title>
<path fill="none" stroke="#191970" d="M618.2607,-81.2829C625.6308,-71.6095 633.3304,-61.5038 640.0806,-52.6442"/>
<polygon fill="#191970" stroke="#191970" points="615.4517,-79.1945 612.1753,-89.27 621.0197,-83.4368 615.4517,-79.1945"/>
</g>
<!-- Node17&#45;&gt;Node16 -->
<g id="edge12" class="edge">
<title>Node17&#45;&gt;Node16</title>
<path fill="none" stroke="#191970" d="M753.513,-83.883C736.4926,-73.4387 718.3427,-62.3012 702.6053,-52.6442"/>
<polygon fill="#191970" stroke="#191970" points="751.938,-87.0229 762.2918,-89.27 755.5992,-81.0566 751.938,-87.0229"/>
</g>
<!-- Node17&#45;&gt;Node18 -->
<g id="edge11" class="edge">
<title>Node17&#45;&gt;Node18</title>
<path fill="none" stroke="#191970" d="M903.2326,-85.5694C930.8166,-74.6169 960.681,-62.759 986.3632,-52.5617"/>
<polygon fill="#191970" stroke="#191970" points="901.584,-82.4581 893.5814,-89.4015 904.1673,-88.9641 901.584,-82.4581"/>
</g>
<!-- Node19 -->
<g id="node11" class="node">
<title>Node19</title>
<g id="a_node11"><a xlink:href="../../d2/dd7/SimpleDigitizerWorkflow_8cxx.html" target="_top" xlink:title="/home/travis/build\l/AliceO2Group/AliceO2\l/Steer/DigitizerWorkflow\l/src/SimpleDigitizerWorkflow.cxx">
<polygon fill="none" stroke="#000000" points="774,-.5 774,-52.5 950,-52.5 950,-.5 774,-.5"/>
<text text-anchor="start" x="782" y="-40.5" font-family="Helvetica,sans-Serif" font-size="10.00" fill="#000000">/home/travis/build</text>
<text text-anchor="start" x="782" y="-29.5" font-family="Helvetica,sans-Serif" font-size="10.00" fill="#000000">/AliceO2Group/AliceO2</text>
<text text-anchor="start" x="782" y="-18.5" font-family="Helvetica,sans-Serif" font-size="10.00" fill="#000000">/Steer/DigitizerWorkflow</text>
<text text-anchor="middle" x="862" y="-7.5" font-family="Helvetica,sans-Serif" font-size="10.00" fill="#000000">/src/SimpleDigitizerWorkflow.cxx</text>
</a>
</g>
</g>
<!-- Node17&#45;&gt;Node19 -->
<g id="edge13" class="edge">
<title>Node17&#45;&gt;Node19</title>
<path fill="none" stroke="#191970" d="M834.7644,-80.1201C839.4969,-70.8031 844.4003,-61.1494 848.7204,-52.6442"/>
<polygon fill="#191970" stroke="#191970" points="831.525,-78.7691 830.1168,-89.27 837.7661,-81.9392 831.525,-78.7691"/>
</g>
</g>
</svg>
