<?xml version="1.0" encoding="UTF-8" standalone="no"?>
<!DOCTYPE svg PUBLIC "-//W3C//DTD SVG 1.1//EN"
 "http://www.w3.org/Graphics/SVG/1.1/DTD/svg11.dtd">
<!-- Generated by graphviz version 2.40.1 (20161225.0304)
 -->
<!-- Title: o2::vertexing::PrimaryVertexReader Pages: 1 -->
<svg width="1688pt" height="325pt"
 viewBox="0.00 0.00 1687.50 325.00" xmlns="http://www.w3.org/2000/svg" xmlns:xlink="http://www.w3.org/1999/xlink">
<g id="graph0" class="graph" transform="scale(1 1) rotate(0) translate(4 321)">
<title>o2::vertexing::PrimaryVertexReader</title>
<!-- Node2 -->
<g id="node1" class="node">
<title>Node2</title>
<polygon fill="#bfbfbf" stroke="#000000" points="776.5,-.5 776.5,-112.5 933.5,-112.5 933.5,-.5 776.5,-.5"/>
<text text-anchor="start" x="784.5" y="-100.5" font-family="Helvetica,sans-Serif" font-size="10.00" fill="#000000">o2::vertexing::PrimaryVertex</text>
<text text-anchor="middle" x="855" y="-89.5" font-family="Helvetica,sans-Serif" font-size="10.00" fill="#000000">Reader</text>
<polyline fill="none" stroke="#000000" points="776.5,-82.5 933.5,-82.5 "/>
<text text-anchor="middle" x="855" y="-70.5" font-family="Helvetica,sans-Serif" font-size="10.00" fill="#000000"> </text>
<polyline fill="none" stroke="#000000" points="776.5,-63.5 933.5,-63.5 "/>
<text text-anchor="start" x="784.5" y="-51.5" font-family="Helvetica,sans-Serif" font-size="10.00" fill="#000000">+ PrimaryVertexReader()</text>
<text text-anchor="start" x="784.5" y="-40.5" font-family="Helvetica,sans-Serif" font-size="10.00" fill="#000000">+ ~PrimaryVertexReader()</text>
<text text-anchor="start" x="784.5" y="-29.5" font-family="Helvetica,sans-Serif" font-size="10.00" fill="#000000">+ init()</text>
<text text-anchor="start" x="784.5" y="-18.5" font-family="Helvetica,sans-Serif" font-size="10.00" fill="#000000">+ run()</text>
<text text-anchor="start" x="784.5" y="-7.5" font-family="Helvetica,sans-Serif" font-size="10.00" fill="#000000"># connectTree()</text>
</g>
<!-- Node3 -->
<g id="node2" class="node">
<title>Node3</title>
<g id="a_node2"><a xlink:href="../../de/dac/classo2_1_1framework_1_1Task.html" target="_top" xlink:title="{o2::framework::Task\n||+ ~Task()\l+ init()\l+ run()\l+ endOfStream()\l}">
<polygon fill="none" stroke="#000000" points="0,-226.5 0,-316.5 116,-316.5 116,-226.5 0,-226.5"/>
<text text-anchor="middle" x="58" y="-304.5" font-family="Helvetica,sans-Serif" font-size="10.00" fill="#000000">o2::framework::Task</text>
<polyline fill="none" stroke="#000000" points="0,-297.5 116,-297.5 "/>
<text text-anchor="middle" x="58" y="-285.5" font-family="Helvetica,sans-Serif" font-size="10.00" fill="#000000"> </text>
<polyline fill="none" stroke="#000000" points="0,-278.5 116,-278.5 "/>
<text text-anchor="start" x="8" y="-266.5" font-family="Helvetica,sans-Serif" font-size="10.00" fill="#000000">+ ~Task()</text>
<text text-anchor="start" x="8" y="-255.5" font-family="Helvetica,sans-Serif" font-size="10.00" fill="#000000">+ init()</text>
<text text-anchor="start" x="8" y="-244.5" font-family="Helvetica,sans-Serif" font-size="10.00" fill="#000000">+ run()</text>
<text text-anchor="start" x="8" y="-233.5" font-family="Helvetica,sans-Serif" font-size="10.00" fill="#000000">+ endOfStream()</text>
</a>
</g>
</g>
<!-- Node3&#45;&gt;Node2 -->
<g id="edge1" class="edge">
<title>Node3&#45;&gt;Node2</title>
<path fill="none" stroke="#191970" d="M106.3853,-219.1474C138.322,-188.1098 182.8559,-151.0317 230,-131 326.7384,-89.8955 631.0229,-68.4981 776.2982,-60.4011"/>
<polygon fill="none" stroke="#191970" points="103.6109,-216.9681 98.9523,-226.4838 108.5282,-221.9501 103.6109,-216.9681"/>
</g>
<!-- Node4 -->
<g id="node3" class="node">
<title>Node4</title>
<polygon fill="none" stroke="#bfbfbf" points="134.5,-237.5 134.5,-305.5 271.5,-305.5 271.5,-237.5 134.5,-237.5"/>
<text text-anchor="start" x="142.5" y="-293.5" font-family="Helvetica,sans-Serif" font-size="10.00" fill="#000000">vector&lt; o2::dataformats</text>
<text text-anchor="middle" x="203" y="-282.5" font-family="Helvetica,sans-Serif" font-size="10.00" fill="#000000">::RangeReference &gt;</text>
<polyline fill="none" stroke="#bfbfbf" points="134.5,-275.5 271.5,-275.5 "/>
<text text-anchor="middle" x="203" y="-263.5" font-family="Helvetica,sans-Serif" font-size="10.00" fill="#000000"> </text>
<polyline fill="none" stroke="#bfbfbf" points="134.5,-256.5 271.5,-256.5 "/>
<text text-anchor="middle" x="203" y="-244.5" font-family="Helvetica,sans-Serif" font-size="10.00" fill="#000000"> </text>
</g>
<!-- Node4&#45;&gt;Node2 -->
<g id="edge2" class="edge">
<title>Node4&#45;&gt;Node2</title>
<path fill="none" stroke="#404040" d="M216.7768,-237.1924C231.9595,-204.17 259.6948,-155.7109 300,-131 375.9278,-84.4491 627.4608,-66.3702 764.3437,-59.8532"/>
<polygon fill="none" stroke="#404040" points="764.429,-59.8493 770.2376,-55.576 776.4162,-59.2942 770.6076,-63.5675 764.429,-59.8493"/>
<text text-anchor="middle" x="332" y="-167" font-family="Helvetica,sans-Serif" font-size="10.00" fill="#000000"> #mPV2TrIdx</text>
</g>
<!-- Node5 -->
<g id="node4" class="node">
<title>Node5</title>
<polygon fill="none" stroke="#bfbfbf" points="289.5,-243 289.5,-300 380.5,-300 380.5,-243 289.5,-243"/>
<text text-anchor="middle" x="335" y="-288" font-family="Helvetica,sans-Serif" font-size="10.00" fill="#000000">vector&lt; int &gt; *</text>
<polyline fill="none" stroke="#bfbfbf" points="289.5,-281 380.5,-281 "/>
<text text-anchor="middle" x="335" y="-269" font-family="Helvetica,sans-Serif" font-size="10.00" fill="#000000"> </text>
<polyline fill="none" stroke="#bfbfbf" points="289.5,-262 380.5,-262 "/>
<text text-anchor="middle" x="335" y="-250" font-family="Helvetica,sans-Serif" font-size="10.00" fill="#000000"> </text>
</g>
<!-- Node5&#45;&gt;Node2 -->
<g id="edge3" class="edge">
<title>Node5&#45;&gt;Node2</title>
<path fill="none" stroke="#404040" d="M347.3177,-242.9285C362.9584,-210.3006 393.1599,-157.9628 436,-131 489.3607,-97.4157 657.8061,-75.4986 764.1673,-64.6193"/>
<polygon fill="none" stroke="#404040" points="764.2382,-64.6123 769.8075,-60.0316 776.1779,-63.4106 770.6086,-67.9914 764.2382,-64.6123"/>
<text text-anchor="middle" x="471.5" y="-167" font-family="Helvetica,sans-Serif" font-size="10.00" fill="#000000"> #mPVTrIdxPtr</text>
</g>
<!-- Node6 -->
<g id="node5" class="node">
<title>Node6</title>
<polygon fill="none" stroke="#bfbfbf" points="398.5,-237.5 398.5,-305.5 535.5,-305.5 535.5,-237.5 398.5,-237.5"/>
<text text-anchor="start" x="406.5" y="-293.5" font-family="Helvetica,sans-Serif" font-size="10.00" fill="#000000">vector&lt; o2::dataformats</text>
<text text-anchor="middle" x="467" y="-282.5" font-family="Helvetica,sans-Serif" font-size="10.00" fill="#000000">::Vertex &gt;</text>
<polyline fill="none" stroke="#bfbfbf" points="398.5,-275.5 535.5,-275.5 "/>
<text text-anchor="middle" x="467" y="-263.5" font-family="Helvetica,sans-Serif" font-size="10.00" fill="#000000"> </text>
<polyline fill="none" stroke="#bfbfbf" points="398.5,-256.5 535.5,-256.5 "/>
<text text-anchor="middle" x="467" y="-244.5" font-family="Helvetica,sans-Serif" font-size="10.00" fill="#000000"> </text>
</g>
<!-- Node6&#45;&gt;Node2 -->
<g id="edge4" class="edge">
<title>Node6&#45;&gt;Node2</title>
<path fill="none" stroke="#404040" d="M488.681,-237.2206C510.685,-205.1722 547.6237,-158.2777 591,-131 643.4717,-98.0025 710.8301,-79.3006 764.3742,-68.8875"/>
<polygon fill="none" stroke="#404040" points="764.4774,-68.8683 769.6408,-63.8344 776.2734,-66.6645 771.11,-71.6984 764.4774,-68.8683"/>
<text text-anchor="middle" x="621.5" y="-167" font-family="Helvetica,sans-Serif" font-size="10.00" fill="#000000"> #mVertices</text>
</g>
<!-- Node7 -->
<g id="node6" class="node">
<title>Node7</title>
<polygon fill="none" stroke="#bfbfbf" points="553.5,-243 553.5,-300 666.5,-300 666.5,-243 553.5,-243"/>
<text text-anchor="middle" x="610" y="-288" font-family="Helvetica,sans-Serif" font-size="10.00" fill="#000000">unique_ptr&lt; TFile &gt;</text>
<polyline fill="none" stroke="#bfbfbf" points="553.5,-281 666.5,-281 "/>
<text text-anchor="middle" x="610" y="-269" font-family="Helvetica,sans-Serif" font-size="10.00" fill="#000000"> </text>
<polyline fill="none" stroke="#bfbfbf" points="553.5,-262 666.5,-262 "/>
<text text-anchor="middle" x="610" y="-250" font-family="Helvetica,sans-Serif" font-size="10.00" fill="#000000"> </text>
</g>
<!-- Node7&#45;&gt;Node2 -->
<g id="edge5" class="edge">
<title>Node7&#45;&gt;Node2</title>
<path fill="none" stroke="#404040" d="M629.5006,-242.8884C651.1147,-212.5958 688.2122,-164.6061 728,-131 739.5569,-121.2386 752.5575,-112.0091 765.7166,-103.5871"/>
<polygon fill="none" stroke="#404040" points="766.0922,-103.3533 769.0718,-96.7866 776.2794,-97.0113 773.2998,-103.578 766.0922,-103.3533"/>
<text text-anchor="middle" x="747" y="-167" font-family="Helvetica,sans-Serif" font-size="10.00" fill="#000000"> #mFile</text>
</g>
<!-- Node8 -->
<g id="node7" class="node">
<title>Node8</title>
<polygon fill="none" stroke="#bfbfbf" points="684.5,-243 684.5,-300 801.5,-300 801.5,-243 684.5,-243"/>
<text text-anchor="middle" x="743" y="-288" font-family="Helvetica,sans-Serif" font-size="10.00" fill="#000000">unique_ptr&lt; TTree &gt;</text>
<polyline fill="none" stroke="#bfbfbf" points="684.5,-281 801.5,-281 "/>
<text text-anchor="middle" x="743" y="-269" font-family="Helvetica,sans-Serif" font-size="10.00" fill="#000000"> </text>
<polyline fill="none" stroke="#bfbfbf" points="684.5,-262 801.5,-262 "/>
<text text-anchor="middle" x="743" y="-250" font-family="Helvetica,sans-Serif" font-size="10.00" fill="#000000"> </text>
</g>
<!-- Node8&#45;&gt;Node2 -->
<g id="edge6" class="edge">
<title>Node8&#45;&gt;Node2</title>
<path fill="none" stroke="#404040" d="M754.8998,-242.9824C767.2021,-214.2161 787.457,-168.7777 808,-131 809.4383,-128.355 810.9334,-125.6762 812.4679,-122.9845"/>
<polygon fill="none" stroke="#404040" points="812.4921,-122.943 812.0656,-115.7445 818.5463,-112.5821 818.9728,-119.7806 812.4921,-122.943"/>
<text text-anchor="middle" x="829" y="-167" font-family="Helvetica,sans-Serif" font-size="10.00" fill="#000000"> #mTree</text>
</g>
<!-- Node9 -->
<g id="node8" class="node">
<title>Node9</title>
<polygon fill="none" stroke="#bfbfbf" points="819.5,-243 819.5,-300 902.5,-300 902.5,-243 819.5,-243"/>
<text text-anchor="middle" x="861" y="-288" font-family="Helvetica,sans-Serif" font-size="10.00" fill="#000000">vector&lt; int &gt;</text>
<polyline fill="none" stroke="#bfbfbf" points="819.5,-281 902.5,-281 "/>
<text text-anchor="middle" x="861" y="-269" font-family="Helvetica,sans-Serif" font-size="10.00" fill="#000000"> </text>
<polyline fill="none" stroke="#bfbfbf" points="819.5,-262 902.5,-262 "/>
<text text-anchor="middle" x="861" y="-250" font-family="Helvetica,sans-Serif" font-size="10.00" fill="#000000"> </text>
</g>
<!-- Node9&#45;&gt;Node2 -->
<g id="edge7" class="edge">
<title>Node9&#45;&gt;Node2</title>
<path fill="none" stroke="#404040" d="M858.2966,-242.7609C857.3891,-231.8819 856.485,-219.3799 856,-208 854.8399,-180.7768 854.4549,-150.7776 854.4077,-124.7069"/>
<polygon fill="none" stroke="#404040" points="854.4077,-124.6426 850.4083,-118.6422 854.409,-112.6426 858.4083,-118.6431 854.4077,-124.6426"/>
<text text-anchor="middle" x="885" y="-167" font-family="Helvetica,sans-Serif" font-size="10.00" fill="#000000"> #mPVTrIdx</text>
</g>
<!-- Node10 -->
<g id="node9" class="node">
<title>Node10</title>
<polygon fill="none" stroke="#bfbfbf" points="920.5,-243 920.5,-300 1085.5,-300 1085.5,-243 920.5,-243"/>
<text text-anchor="middle" x="1003" y="-288" font-family="Helvetica,sans-Serif" font-size="10.00" fill="#000000">vector&lt; o2::MCEventLabel &gt; *</text>
<polyline fill="none" stroke="#bfbfbf" points="920.5,-281 1085.5,-281 "/>
<text text-anchor="middle" x="1003" y="-269" font-family="Helvetica,sans-Serif" font-size="10.00" fill="#000000"> </text>
<polyline fill="none" stroke="#bfbfbf" points="920.5,-262 1085.5,-262 "/>
<text text-anchor="middle" x="1003" y="-250" font-family="Helvetica,sans-Serif" font-size="10.00" fill="#000000"> </text>
</g>
<!-- Node10&#45;&gt;Node2 -->
<g id="edge8" class="edge">
<title>Node10&#45;&gt;Node2</title>
<path fill="none" stroke="#404040" d="M966.5077,-242.7287C955.7455,-232.7133 944.7803,-220.7619 937,-208 918.4082,-177.5041 930.4942,-162.6796 914,-131 912.5999,-128.311 911.0969,-125.6242 909.5129,-122.9531"/>
<polygon fill="none" stroke="#404040" points="909.474,-122.8918 902.8829,-119.9664 903.0482,-112.7572 909.6393,-115.6826 909.474,-122.8918"/>
<text text-anchor="middle" x="970.5" y="-167" font-family="Helvetica,sans-Serif" font-size="10.00" fill="#000000"> #mLabelsPtr</text>
</g>
<!-- Node11 -->
<g id="node10" class="node">
<title>Node11</title>
<polygon fill="none" stroke="#bfbfbf" points="1103.5,-243 1103.5,-300 1132.5,-300 1132.5,-243 1103.5,-243"/>
<text text-anchor="middle" x="1118" y="-288" font-family="Helvetica,sans-Serif" font-size="10.00" fill="#000000">int</text>
<polyline fill="none" stroke="#bfbfbf" points="1103.5,-281 1132.5,-281 "/>
<text text-anchor="middle" x="1118" y="-269" font-family="Helvetica,sans-Serif" font-size="10.00" fill="#000000"> </text>
<polyline fill="none" stroke="#bfbfbf" points="1103.5,-262 1132.5,-262 "/>
<text text-anchor="middle" x="1118" y="-250" font-family="Helvetica,sans-Serif" font-size="10.00" fill="#000000"> </text>
</g>
<!-- Node11&#45;&gt;Node2 -->
<g id="edge9" class="edge">
<title>Node11&#45;&gt;Node2</title>
<path fill="none" stroke="#404040" d="M1108.1369,-242.8724C1104.8121,-236.5713 1100.5025,-230.4567 1095,-226 1070.7057,-206.3233 1049.4517,-229.7555 1027,-208 1001.3502,-183.1456 1026.9737,-158.3471 1004,-131 988.2448,-112.2456 966.6067,-97.7464 944.7024,-86.7395"/>
<polygon fill="none" stroke="#404040" points="944.4393,-86.6143 937.3025,-87.6468 933.6045,-81.456 940.7413,-80.4236 944.4393,-86.6143"/>
<text text-anchor="start" x="1027" y="-200" font-family="Helvetica,sans-Serif" font-size="10.00" fill="#000000"> #mVertex2TrackIDRefsBranch</text>
<text text-anchor="middle" x="1104" y="-189" font-family="Helvetica,sans-Serif" font-size="10.00" fill="#000000">Name</text>
<text text-anchor="middle" x="1104" y="-178" font-family="Helvetica,sans-Serif" font-size="10.00" fill="#000000">#mVertexTrackIDsBranchName</text>
<text text-anchor="middle" x="1104" y="-167" font-family="Helvetica,sans-Serif" font-size="10.00" fill="#000000">#mFileName</text>
<text text-anchor="middle" x="1104" y="-156" font-family="Helvetica,sans-Serif" font-size="10.00" fill="#000000">#mVertexTreeName</text>
<text text-anchor="middle" x="1104" y="-145" font-family="Helvetica,sans-Serif" font-size="10.00" fill="#000000">#mVertexLabelsBranchName</text>
<text text-anchor="middle" x="1104" y="-134" font-family="Helvetica,sans-Serif" font-size="10.00" fill="#000000">#mVertexBranchName</text>
</g>
<!-- Node12 -->
<g id="node11" class="node">
<title>Node12</title>
<polygon fill="none" stroke="#bfbfbf" points="1156,-243 1156,-300 1194,-300 1194,-243 1156,-243"/>
<text text-anchor="middle" x="1175" y="-288" font-family="Helvetica,sans-Serif" font-size="10.00" fill="#000000">bool</text>
<polyline fill="none" stroke="#bfbfbf" points="1156,-281 1194,-281 "/>
<text text-anchor="middle" x="1175" y="-269" font-family="Helvetica,sans-Serif" font-size="10.00" fill="#000000"> </text>
<polyline fill="none" stroke="#bfbfbf" points="1156,-262 1194,-262 "/>
<text text-anchor="middle" x="1175" y="-250" font-family="Helvetica,sans-Serif" font-size="10.00" fill="#000000"> </text>
</g>
<!-- Node12&#45;&gt;Node2 -->
<g id="edge10" class="edge">
<title>Node12&#45;&gt;Node2</title>
<path fill="none" stroke="#404040" d="M1186.2549,-242.8019C1196.3609,-211.7602 1206.1125,-162.4988 1181,-131 1152.0377,-94.6724 1031.8655,-74.6487 945.8524,-64.742"/>
<polygon fill="none" stroke="#404040" points="945.6158,-64.7156 939.2083,-68.024 933.6901,-63.3818 940.0975,-60.0735 945.6158,-64.7156"/>
<text text-anchor="middle" x="1223.5" y="-167" font-family="Helvetica,sans-Serif" font-size="10.00" fill="#000000"> #mUseMC</text>
</g>
<!-- Node13 -->
<g id="node12" class="node">
<title>Node13</title>
<polygon fill="none" stroke="#bfbfbf" points="1212.5,-237.5 1212.5,-305.5 1349.5,-305.5 1349.5,-237.5 1212.5,-237.5"/>
<text text-anchor="start" x="1220.5" y="-293.5" font-family="Helvetica,sans-Serif" font-size="10.00" fill="#000000">vector&lt; o2::dataformats</text>
<text text-anchor="middle" x="1281" y="-282.5" font-family="Helvetica,sans-Serif" font-size="10.00" fill="#000000">::RangeReference &gt; *</text>
<polyline fill="none" stroke="#bfbfbf" points="1212.5,-275.5 1349.5,-275.5 "/>
<text text-anchor="middle" x="1281" y="-263.5" font-family="Helvetica,sans-Serif" font-size="10.00" fill="#000000"> </text>
<polyline fill="none" stroke="#bfbfbf" points="1212.5,-256.5 1349.5,-256.5 "/>
<text text-anchor="middle" x="1281" y="-244.5" font-family="Helvetica,sans-Serif" font-size="10.00" fill="#000000"> </text>
</g>
<!-- Node13&#45;&gt;Node2 -->
<g id="edge11" class="edge">
<title>Node13&#45;&gt;Node2</title>
<path fill="none" stroke="#404040" d="M1284.6775,-237.3828C1286.0888,-205.4531 1282.6108,-158.6428 1255,-131 1212.5633,-88.5142 1050.0643,-69.6009 945.6957,-61.6889"/>
<polygon fill="none" stroke="#404040" points="945.5508,-61.6784 939.2742,-65.2285 933.583,-60.8001 939.8597,-57.2499 945.5508,-61.6784"/>
<text text-anchor="middle" x="1322.5" y="-167" font-family="Helvetica,sans-Serif" font-size="10.00" fill="#000000"> #mPV2TrIdxPtr</text>
</g>
<!-- Node14 -->
<g id="node13" class="node">
<title>Node14</title>
<polygon fill="none" stroke="#bfbfbf" points="1367.5,-237.5 1367.5,-305.5 1504.5,-305.5 1504.5,-237.5 1367.5,-237.5"/>
<text text-anchor="start" x="1375.5" y="-293.5" font-family="Helvetica,sans-Serif" font-size="10.00" fill="#000000">vector&lt; o2::dataformats</text>
<text text-anchor="middle" x="1436" y="-282.5" font-family="Helvetica,sans-Serif" font-size="10.00" fill="#000000">::Vertex &gt; *</text>
<polyline fill="none" stroke="#bfbfbf" points="1367.5,-275.5 1504.5,-275.5 "/>
<text text-anchor="middle" x="1436" y="-263.5" font-family="Helvetica,sans-Serif" font-size="10.00" fill="#000000"> </text>
<polyline fill="none" stroke="#bfbfbf" points="1367.5,-256.5 1504.5,-256.5 "/>
<text text-anchor="middle" x="1436" y="-244.5" font-family="Helvetica,sans-Serif" font-size="10.00" fill="#000000"> </text>
</g>
<!-- Node14&#45;&gt;Node2 -->
<g id="edge12" class="edge">
<title>Node14&#45;&gt;Node2</title>
<path fill="none" stroke="#404040" d="M1428.3339,-237.2068C1419.114,-204.4389 1400.2663,-156.3889 1365,-131 1299.6179,-83.9302 1073.891,-66.2179 945.7351,-59.8516"/>
<polygon fill="none" stroke="#404040" points="945.6323,-59.8468 939.4471,-63.5539 933.6462,-59.2703 939.8314,-55.5632 945.6323,-59.8468"/>
<text text-anchor="middle" x="1454" y="-167" font-family="Helvetica,sans-Serif" font-size="10.00" fill="#000000"> #mVerticesPtr</text>
</g>
<!-- Node15 -->
<g id="node14" class="node">
<title>Node15</title>
<polygon fill="none" stroke="#bfbfbf" points="1522.5,-243 1522.5,-300 1679.5,-300 1679.5,-243 1522.5,-243"/>
<text text-anchor="middle" x="1601" y="-288" font-family="Helvetica,sans-Serif" font-size="10.00" fill="#000000">vector&lt; o2::MCEventLabel &gt;</text>
<polyline fill="none" stroke="#bfbfbf" points="1522.5,-281 1679.5,-281 "/>
<text text-anchor="middle" x="1601" y="-269" font-family="Helvetica,sans-Serif" font-size="10.00" fill="#000000"> </text>
<polyline fill="none" stroke="#bfbfbf" points="1522.5,-262 1679.5,-262 "/>
<text text-anchor="middle" x="1601" y="-250" font-family="Helvetica,sans-Serif" font-size="10.00" fill="#000000"> </text>
</g>
<!-- Node15&#45;&gt;Node2 -->
<g id="edge13" class="edge">
<title>Node15&#45;&gt;Node2</title>
<path fill="none" stroke="#404040" d="M1588.1194,-242.7414C1571.6516,-209.6757 1539.809,-156.666 1495,-131 1403.5057,-78.5933 1099.6981,-62.9709 945.891,-58.3763"/>
<polygon fill="none" stroke="#404040" points="945.7274,-58.3717 939.6149,-62.1976 933.7323,-58.0268 939.8448,-54.2009 945.7274,-58.3717"/>
<text text-anchor="middle" x="1592.5" y="-167" font-family="Helvetica,sans-Serif" font-size="10.00" fill="#000000"> #mLabels</text>
</g>
</g>
</svg>
