<?xml version="1.0" encoding="UTF-8" standalone="no"?>
<!DOCTYPE svg PUBLIC "-//W3C//DTD SVG 1.1//EN"
 "http://www.w3.org/Graphics/SVG/1.1/DTD/svg11.dtd">
<!-- Generated by graphviz version 2.40.1 (20161225.0304)
 -->
<!-- Title: /home/travis/build/AliceO2Group/AliceO2/Common/MathUtils/include/MathUtils/Chebyshev3D.h Pages: 1 -->
<!--zoomable 406 -->
<svg id="main" version="1.1" xmlns="http://www.w3.org/2000/svg" xmlns:xlink="http://www.w3.org/1999/xlink" xml:space="preserve" onload="init(evt)">
<style type="text/css"><![CDATA[
.edge:hover path { stroke: red; }
.edge:hover polygon { stroke: red; fill: red; }
]]></style>
<script type="text/javascript"><![CDATA[
var edges = document.getElementsByTagName('g');
if (edges && edges.length) {
  for (var i=0;i<edges.length;i++) {
    if (edges[i].id.substr(0,4)=='edge') {
      edges[i].setAttribute('class','edge');
    }
  }
}
]]></script>
        <defs>
                <circle id="rim" cx="0" cy="0" r="7"/>
                <circle id="rim2" cx="0" cy="0" r="3.5"/>
                <g id="zoomPlus">
                        <use xlink:href="#rim" fill="#404040">
                                <set attributeName="fill" to="#808080" begin="zoomplus.mouseover" end="zoomplus.mouseout"/>
                        </use>
                        <path d="M-4,0h8M0,-4v8" fill="none" stroke="white" stroke-width="1.5" pointer-events="none"/>
                </g>
                <g id="zoomMin">
                        <use xlink:href="#rim" fill="#404040">
                                <set attributeName="fill" to="#808080" begin="zoomminus.mouseover" end="zoomminus.mouseout"/>
                        </use>
                        <path d="M-4,0h8" fill="none" stroke="white" stroke-width="1.5" pointer-events="none"/>
                </g>
                <g id="dirArrow">
                        <path fill="none" stroke="white" stroke-width="1.5" d="M0,-3.0v7 M-2.5,-0.5L0,-3.0L2.5,-0.5"/>
                </g>
               <g id="resetDef">
                       <use xlink:href="#rim2" fill="#404040">
                               <set attributeName="fill" to="#808080" begin="reset.mouseover" end="reset.mouseout"/>
                       </use>
               </g>
        </defs>

<script type="text/javascript">
var viewWidth = 4409;
var viewHeight = 406;
var sectionId = 'dynsection-1';
</script>
<script xlink:href="../../svgpan.js"/>
<svg id="graph" class="graph">
<g id="viewport">
<title>/home/travis/build/AliceO2Group/AliceO2/Common/MathUtils/include/MathUtils/Chebyshev3D.h</title>
<!-- Node7 -->
<g id="node1" class="node">
<title>Node7</title>
<polygon fill="#bfbfbf" stroke="#000000" points="2337,-345.5 2337,-397.5 2489,-397.5 2489,-345.5 2337,-345.5"/>
<text text-anchor="start" x="2345" y="-385.5" font-family="Helvetica,sans-Serif" font-size="10.00" fill="#000000">/home/travis/build</text>
<text text-anchor="start" x="2345" y="-374.5" font-family="Helvetica,sans-Serif" font-size="10.00" fill="#000000">/AliceO2Group/AliceO2</text>
<text text-anchor="start" x="2345" y="-363.5" font-family="Helvetica,sans-Serif" font-size="10.00" fill="#000000">/Common/MathUtils/include</text>
<text text-anchor="middle" x="2413" y="-352.5" font-family="Helvetica,sans-Serif" font-size="10.00" fill="#000000">/MathUtils/Chebyshev3D.h</text>
</g>
<!-- Node8 -->
<g id="node2" class="node">
<title>Node8</title>
<g id="a_node2"><a xlink:href="../../dd/dfb/MagneticWrapperChebyshev_8h.html" target="_top" xlink:title="/home/travis/build\l/AliceO2Group/AliceO2\l/Common/Field/include\l/Field/MagneticWrapperChebyshev.h">
<polygon fill="none" stroke="#000000" points="2227,-256.5 2227,-308.5 2419,-308.5 2419,-256.5 2227,-256.5"/>
<text text-anchor="start" x="2235" y="-296.5" font-family="Helvetica,sans-Serif" font-size="10.00" fill="#000000">/home/travis/build</text>
<text text-anchor="start" x="2235" y="-285.5" font-family="Helvetica,sans-Serif" font-size="10.00" fill="#000000">/AliceO2Group/AliceO2</text>
<text text-anchor="start" x="2235" y="-274.5" font-family="Helvetica,sans-Serif" font-size="10.00" fill="#000000">/Common/Field/include</text>
<text text-anchor="middle" x="2323" y="-263.5" font-family="Helvetica,sans-Serif" font-size="10.00" fill="#000000">/Field/MagneticWrapperChebyshev.h</text>
</a>
</g>
</g>
<!-- Node7&#45;&gt;Node8 -->
<g id="edge1" class="edge">
<title>Node7&#45;&gt;Node8</title>
<path fill="none" stroke="#191970" d="M2379.1265,-338.0029C2369.267,-328.2529 2358.6472,-317.7511 2349.3267,-308.5341"/>
<polygon fill="#191970" stroke="#191970" points="2376.9123,-340.7356 2386.4838,-345.2784 2381.8343,-335.7583 2376.9123,-340.7356"/>
</g>
<!-- Node36 -->
<g id="node30" class="node">
<title>Node36</title>
<g id="a_node30"><a xlink:href="../../d8/d8d/Chebyshev3D_8cxx.html" target="_top" xlink:title="/home/travis/build\l/AliceO2Group/AliceO2\l/Common/MathUtils/src\l/Chebyshev3D.cxx">
<polygon fill="none" stroke="#000000" points="2437.5,-256.5 2437.5,-308.5 2568.5,-308.5 2568.5,-256.5 2437.5,-256.5"/>
<text text-anchor="start" x="2445.5" y="-296.5" font-family="Helvetica,sans-Serif" font-size="10.00" fill="#000000">/home/travis/build</text>
<text text-anchor="start" x="2445.5" y="-285.5" font-family="Helvetica,sans-Serif" font-size="10.00" fill="#000000">/AliceO2Group/AliceO2</text>
<text text-anchor="start" x="2445.5" y="-274.5" font-family="Helvetica,sans-Serif" font-size="10.00" fill="#000000">/Common/MathUtils/src</text>
<text text-anchor="middle" x="2503" y="-263.5" font-family="Helvetica,sans-Serif" font-size="10.00" fill="#000000">/Chebyshev3D.cxx</text>
</a>
</g>
</g>
<!-- Node7&#45;&gt;Node36 -->
<g id="edge30" class="edge">
<title>Node7&#45;&gt;Node36</title>
<path fill="none" stroke="#191970" d="M2446.8735,-338.0029C2456.733,-328.2529 2467.3528,-317.7511 2476.6733,-308.5341"/>
<polygon fill="#191970" stroke="#191970" points="2444.1657,-335.7583 2439.5162,-345.2784 2449.0877,-340.7356 2444.1657,-335.7583"/>
</g>
<!-- Node9 -->
<g id="node3" class="node">
<title>Node9</title>
<g id="a_node3"><a xlink:href="../../db/d4b/MagneticField_8h.html" target="_top" xlink:title="Definition of the MagF class. ">
<polygon fill="none" stroke="#000000" points="2170,-167.5 2170,-219.5 2298,-219.5 2298,-167.5 2170,-167.5"/>
<text text-anchor="start" x="2178" y="-207.5" font-family="Helvetica,sans-Serif" font-size="10.00" fill="#000000">/home/travis/build</text>
<text text-anchor="start" x="2178" y="-196.5" font-family="Helvetica,sans-Serif" font-size="10.00" fill="#000000">/AliceO2Group/AliceO2</text>
<text text-anchor="start" x="2178" y="-185.5" font-family="Helvetica,sans-Serif" font-size="10.00" fill="#000000">/Common/Field/include</text>
<text text-anchor="middle" x="2234" y="-174.5" font-family="Helvetica,sans-Serif" font-size="10.00" fill="#000000">/Field/MagneticField.h</text>
</a>
</g>
</g>
<!-- Node8&#45;&gt;Node9 -->
<g id="edge2" class="edge">
<title>Node8&#45;&gt;Node9</title>
<path fill="none" stroke="#191970" d="M2289.5029,-249.0029C2279.7529,-239.2529 2269.2511,-228.7511 2260.0341,-219.5341"/>
<polygon fill="#191970" stroke="#191970" points="2287.2325,-251.6822 2296.7784,-256.2784 2292.1822,-246.7325 2287.2325,-251.6822"/>
</g>
<!-- Node35 -->
<g id="node29" class="node">
<title>Node35</title>
<g id="a_node29"><a xlink:href="../../de/d97/MagneticWrapperChebyshev_8cxx.html" target="_top" xlink:title="/home/travis/build\l/AliceO2Group/AliceO2\l/Common/Field/src/MagneticWrapper\lChebyshev.cxx">
<polygon fill="none" stroke="#000000" points="2316,-167.5 2316,-219.5 2510,-219.5 2510,-167.5 2316,-167.5"/>
<text text-anchor="start" x="2324" y="-207.5" font-family="Helvetica,sans-Serif" font-size="10.00" fill="#000000">/home/travis/build</text>
<text text-anchor="start" x="2324" y="-196.5" font-family="Helvetica,sans-Serif" font-size="10.00" fill="#000000">/AliceO2Group/AliceO2</text>
<text text-anchor="start" x="2324" y="-185.5" font-family="Helvetica,sans-Serif" font-size="10.00" fill="#000000">/Common/Field/src/MagneticWrapper</text>
<text text-anchor="middle" x="2413" y="-174.5" font-family="Helvetica,sans-Serif" font-size="10.00" fill="#000000">Chebyshev.cxx</text>
</a>
</g>
</g>
<!-- Node8&#45;&gt;Node35 -->
<g id="edge29" class="edge">
<title>Node8&#45;&gt;Node35</title>
<path fill="none" stroke="#191970" d="M2356.8735,-249.0029C2366.733,-239.2529 2377.3528,-228.7511 2386.6733,-219.5341"/>
<polygon fill="#191970" stroke="#191970" points="2354.1657,-246.7583 2349.5162,-256.2784 2359.0877,-251.7356 2354.1657,-246.7583"/>
</g>
<!-- Node10 -->
<g id="node4" class="node">
<title>Node10</title>
<g id="a_node4"><a xlink:href="../../da/d34/MagFieldFact_8h.html" target="_top" xlink:title="Definition of the MagFieldFact: factory for ALIDE mag. field from MagFieldParam. ">
<polygon fill="none" stroke="#000000" points="0,-78.5 0,-130.5 128,-130.5 128,-78.5 0,-78.5"/>
<text text-anchor="start" x="8" y="-118.5" font-family="Helvetica,sans-Serif" font-size="10.00" fill="#000000">/home/travis/build</text>
<text text-anchor="start" x="8" y="-107.5" font-family="Helvetica,sans-Serif" font-size="10.00" fill="#000000">/AliceO2Group/AliceO2</text>
<text text-anchor="start" x="8" y="-96.5" font-family="Helvetica,sans-Serif" font-size="10.00" fill="#000000">/Common/Field/include</text>
<text text-anchor="middle" x="64" y="-85.5" font-family="Helvetica,sans-Serif" font-size="10.00" fill="#000000">/Field/MagFieldFact.h</text>
</a>
</g>
</g>
<!-- Node9&#45;&gt;Node10 -->
<g id="edge3" class="edge">
<title>Node9&#45;&gt;Node10</title>
<path fill="none" stroke="#191970" d="M2159.577,-192.5876C1810.4376,-188.1303 343.3882,-167.3736 142,-131 137.4963,-130.1866 132.8997,-129.1624 128.3039,-127.993"/>
<polygon fill="#191970" stroke="#191970" points="2159.7784,-196.0903 2169.8221,-192.7178 2159.8674,-189.0909 2159.7784,-196.0903"/>
</g>
<!-- Node11 -->
<g id="node5" class="node">
<title>Node11</title>
<g id="a_node5"><a xlink:href="../../d0/dec/MagFieldFact_8cxx.html" target="_top" xlink:title="/home/travis/build\l/AliceO2Group/AliceO2\l/Common/Field/src/MagFieldFact.cxx">
<polygon fill="none" stroke="#000000" points="14,-.5 14,-41.5 206,-41.5 206,-.5 14,-.5"/>
<text text-anchor="start" x="22" y="-29.5" font-family="Helvetica,sans-Serif" font-size="10.00" fill="#000000">/home/travis/build</text>
<text text-anchor="start" x="22" y="-18.5" font-family="Helvetica,sans-Serif" font-size="10.00" fill="#000000">/AliceO2Group/AliceO2</text>
<text text-anchor="middle" x="110" y="-7.5" font-family="Helvetica,sans-Serif" font-size="10.00" fill="#000000">/Common/Field/src/MagFieldFact.cxx</text>
</a>
</g>
</g>
<!-- Node9&#45;&gt;Node11 -->
<g id="edge5" class="edge">
<title>Node9&#45;&gt;Node11</title>
<path fill="none" stroke="#191970" d="M2159.7911,-193.2323C1801.3785,-191.6886 263.1383,-182.0989 176,-131 158.7097,-120.8608 133.1045,-70.5975 119.4253,-41.6473"/>
<polygon fill="#191970" stroke="#191970" points="2159.7832,-196.7322 2169.7979,-193.2746 2159.8128,-189.7323 2159.7832,-196.7322"/>
</g>
<!-- Node12 -->
<g id="node6" class="node">
<title>Node12</title>
<g id="a_node6"><a xlink:href="../../df/d54/MagFieldParam_8cxx.html" target="_top" xlink:title="Implementation of the MagFieldParam class. ">
<polygon fill="none" stroke="#000000" points="184.5,-84 184.5,-125 387.5,-125 387.5,-84 184.5,-84"/>
<text text-anchor="start" x="192.5" y="-113" font-family="Helvetica,sans-Serif" font-size="10.00" fill="#000000">/home/travis/build</text>
<text text-anchor="start" x="192.5" y="-102" font-family="Helvetica,sans-Serif" font-size="10.00" fill="#000000">/AliceO2Group/AliceO2</text>
<text text-anchor="middle" x="286" y="-91" font-family="Helvetica,sans-Serif" font-size="10.00" fill="#000000">/Common/Field/src/MagFieldParam.cxx</text>
</a>
</g>
</g>
<!-- Node9&#45;&gt;Node12 -->
<g id="edge6" class="edge">
<title>Node9&#45;&gt;Node12</title>
<path fill="none" stroke="#191970" d="M2159.4896,-192.9559C1860.3818,-190.4638 746.2565,-178.1469 397,-131 386.0048,-129.5157 374.5084,-127.4128 363.2564,-125.0328"/>
<polygon fill="#191970" stroke="#191970" points="2159.7549,-196.4581 2169.7834,-193.0405 2159.8125,-189.4583 2159.7549,-196.4581"/>
</g>
<!-- Node13 -->
<g id="node7" class="node">
<title>Node13</title>
<g id="a_node7"><a xlink:href="../../d2/d78/MagneticField_8cxx.html" target="_top" xlink:title="/home/travis/build\l/AliceO2Group/AliceO2\l/Common/Field/src/MagneticField.cxx">
<polygon fill="none" stroke="#000000" points="405.5,-84 405.5,-125 602.5,-125 602.5,-84 405.5,-84"/>
<text text-anchor="start" x="413.5" y="-113" font-family="Helvetica,sans-Serif" font-size="10.00" fill="#000000">/home/travis/build</text>
<text text-anchor="start" x="413.5" y="-102" font-family="Helvetica,sans-Serif" font-size="10.00" fill="#000000">/AliceO2Group/AliceO2</text>
<text text-anchor="middle" x="504" y="-91" font-family="Helvetica,sans-Serif" font-size="10.00" fill="#000000">/Common/Field/src/MagneticField.cxx</text>
</a>
</g>
</g>
<!-- Node9&#45;&gt;Node13 -->
<g id="edge7" class="edge">
<title>Node9&#45;&gt;Node13</title>
<path fill="none" stroke="#191970" d="M2159.6545,-192.6298C1883.5003,-189.0871 916.9698,-173.8417 612,-131 601.3893,-129.5094 590.3032,-127.4196 579.4466,-125.0605"/>
<polygon fill="#191970" stroke="#191970" points="2159.9184,-196.1333 2169.962,-192.7607 2160.0073,-189.1339 2159.9184,-196.1333"/>
</g>
<!-- Node14 -->
<g id="node8" class="node">
<title>Node14</title>
<g id="a_node8"><a xlink:href="../../d6/dda/testMagneticField_8cxx.html" target="_top" xlink:title="/home/travis/build\l/AliceO2Group/AliceO2\l/Common/Field/test/testMagnetic\lField.cxx">
<polygon fill="none" stroke="#000000" points="620.5,-78.5 620.5,-130.5 797.5,-130.5 797.5,-78.5 620.5,-78.5"/>
<text text-anchor="start" x="628.5" y="-118.5" font-family="Helvetica,sans-Serif" font-size="10.00" fill="#000000">/home/travis/build</text>
<text text-anchor="start" x="628.5" y="-107.5" font-family="Helvetica,sans-Serif" font-size="10.00" fill="#000000">/AliceO2Group/AliceO2</text>
<text text-anchor="start" x="628.5" y="-96.5" font-family="Helvetica,sans-Serif" font-size="10.00" fill="#000000">/Common/Field/test/testMagnetic</text>
<text text-anchor="middle" x="709" y="-85.5" font-family="Helvetica,sans-Serif" font-size="10.00" fill="#000000">Field.cxx</text>
</a>
</g>
</g>
<!-- Node9&#45;&gt;Node14 -->
<g id="edge8" class="edge">
<title>Node9&#45;&gt;Node14</title>
<path fill="none" stroke="#191970" d="M2159.719,-192.4341C1905.4037,-188.4428 1070.7917,-172.4326 806,-131 803.2404,-130.5682 800.4468,-130.0869 797.6343,-129.5639"/>
<polygon fill="#191970" stroke="#191970" points="2159.9038,-195.9373 2169.957,-192.5931 2160.0126,-188.9381 2159.9038,-195.9373"/>
</g>
<!-- Node15 -->
<g id="node9" class="node">
<title>Node15</title>
<g id="a_node9"><a xlink:href="../../d3/dee/Base_2src_2Detector_8cxx.html" target="_top" xlink:title="/home/travis/build\l/AliceO2Group/AliceO2\l/Detectors/Base/src/Detector.cxx">
<polygon fill="none" stroke="#000000" points="815,-84 815,-125 991,-125 991,-84 815,-84"/>
<text text-anchor="start" x="823" y="-113" font-family="Helvetica,sans-Serif" font-size="10.00" fill="#000000">/home/travis/build</text>
<text text-anchor="start" x="823" y="-102" font-family="Helvetica,sans-Serif" font-size="10.00" fill="#000000">/AliceO2Group/AliceO2</text>
<text text-anchor="middle" x="903" y="-91" font-family="Helvetica,sans-Serif" font-size="10.00" fill="#000000">/Detectors/Base/src/Detector.cxx</text>
</a>
</g>
</g>
<!-- Node9&#45;&gt;Node15 -->
<g id="edge9" class="edge">
<title>Node9&#45;&gt;Node15</title>
<path fill="none" stroke="#191970" d="M2159.4666,-191.8363C1928.2689,-186.3429 1225.2995,-167.0459 1000,-131 990.519,-129.4831 980.6346,-127.3948 970.9576,-125.0507"/>
<polygon fill="#191970" stroke="#191970" points="2159.7091,-195.3429 2169.7889,-192.0799 2159.8742,-188.3449 2159.7091,-195.3429"/>
</g>
<!-- Node16 -->
<g id="node10" class="node">
<title>Node16</title>
<g id="a_node10"><a xlink:href="../../d8/dee/Propagator_8cxx.html" target="_top" xlink:title="/home/travis/build\l/AliceO2Group/AliceO2\l/Detectors/Base/src/Propagator.cxx">
<polygon fill="none" stroke="#000000" points="1008.5,-84 1008.5,-125 1195.5,-125 1195.5,-84 1008.5,-84"/>
<text text-anchor="start" x="1016.5" y="-113" font-family="Helvetica,sans-Serif" font-size="10.00" fill="#000000">/home/travis/build</text>
<text text-anchor="start" x="1016.5" y="-102" font-family="Helvetica,sans-Serif" font-size="10.00" fill="#000000">/AliceO2Group/AliceO2</text>
<text text-anchor="middle" x="1102" y="-91" font-family="Helvetica,sans-Serif" font-size="10.00" fill="#000000">/Detectors/Base/src/Propagator.cxx</text>
</a>
</g>
</g>
<!-- Node9&#45;&gt;Node16 -->
<g id="edge10" class="edge">
<title>Node9&#45;&gt;Node16</title>
<path fill="none" stroke="#191970" d="M2159.8469,-190.8398C1955.8602,-183.2281 1389.2915,-160.0307 1205,-131 1195.1507,-129.4485 1184.8737,-127.3724 1174.7875,-125.0621"/>
<polygon fill="#191970" stroke="#191970" points="2159.7412,-194.3382 2169.8643,-191.212 2160.0011,-187.343 2159.7412,-194.3382"/>
</g>
<!-- Node17 -->
<g id="node11" class="node">
<title>Node17</title>
<g id="a_node11"><a xlink:href="../../d3/d0f/FIT_2FDD_2simulation_2src_2Detector_8cxx.html" target="_top" xlink:title="/home/travis/build\l/AliceO2Group/AliceO2\l/Detectors/FIT/FDD/simulation\l/src/Detector.cxx">
<polygon fill="none" stroke="#000000" points="1214,-78.5 1214,-130.5 1376,-130.5 1376,-78.5 1214,-78.5"/>
<text text-anchor="start" x="1222" y="-118.5" font-family="Helvetica,sans-Serif" font-size="10.00" fill="#000000">/home/travis/build</text>
<text text-anchor="start" x="1222" y="-107.5" font-family="Helvetica,sans-Serif" font-size="10.00" fill="#000000">/AliceO2Group/AliceO2</text>
<text text-anchor="start" x="1222" y="-96.5" font-family="Helvetica,sans-Serif" font-size="10.00" fill="#000000">/Detectors/FIT/FDD/simulation</text>
<text text-anchor="middle" x="1295" y="-85.5" font-family="Helvetica,sans-Serif" font-size="10.00" fill="#000000">/src/Detector.cxx</text>
</a>
</g>
</g>
<!-- Node9&#45;&gt;Node17 -->
<g id="edge11" class="edge">
<title>Node9&#45;&gt;Node17</title>
<path fill="none" stroke="#191970" d="M2159.6766,-190.0629C1981.3,-181.4857 1532.8107,-157.8845 1385,-131 1382.1154,-130.4753 1379.1916,-129.8935 1376.2482,-129.265"/>
<polygon fill="#191970" stroke="#191970" points="2159.5993,-193.5631 2169.7553,-190.5454 2159.9341,-186.5711 2159.5993,-193.5631"/>
</g>
<!-- Node18 -->
<g id="node12" class="node">
<title>Node18</title>
<g id="a_node12"><a xlink:href="../../db/d6a/MatchTOF_8cxx.html" target="_top" xlink:title="/home/travis/build\l/AliceO2Group/AliceO2\l/Detectors/GlobalTracking\l/src/MatchTOF.cxx">
<polygon fill="none" stroke="#000000" points="1394,-78.5 1394,-130.5 1536,-130.5 1536,-78.5 1394,-78.5"/>
<text text-anchor="start" x="1402" y="-118.5" font-family="Helvetica,sans-Serif" font-size="10.00" fill="#000000">/home/travis/build</text>
<text text-anchor="start" x="1402" y="-107.5" font-family="Helvetica,sans-Serif" font-size="10.00" fill="#000000">/AliceO2Group/AliceO2</text>
<text text-anchor="start" x="1402" y="-96.5" font-family="Helvetica,sans-Serif" font-size="10.00" fill="#000000">/Detectors/GlobalTracking</text>
<text text-anchor="middle" x="1465" y="-85.5" font-family="Helvetica,sans-Serif" font-size="10.00" fill="#000000">/src/MatchTOF.cxx</text>
</a>
</g>
</g>
<!-- Node9&#45;&gt;Node18 -->
<g id="edge12" class="edge">
<title>Node9&#45;&gt;Node18</title>
<path fill="none" stroke="#191970" d="M2159.7595,-188.9261C2006.7375,-179.1447 1660.8829,-155.1149 1545,-131 1542.1352,-130.4038 1539.2297,-129.7391 1536.3074,-129.0201"/>
<polygon fill="#191970" stroke="#191970" points="2159.7948,-192.4353 2169.9969,-189.5776 2160.2394,-185.4495 2159.7948,-192.4353"/>
</g>
<!-- Node19 -->
<g id="node13" class="node">
<title>Node19</title>
<g id="a_node13"><a xlink:href="../../dc/d59/MatchTPCITS_8cxx.html" target="_top" xlink:title="/home/travis/build\l/AliceO2Group/AliceO2\l/Detectors/GlobalTracking\l/src/MatchTPCITS.cxx">
<polygon fill="none" stroke="#000000" points="1554,-78.5 1554,-130.5 1696,-130.5 1696,-78.5 1554,-78.5"/>
<text text-anchor="start" x="1562" y="-118.5" font-family="Helvetica,sans-Serif" font-size="10.00" fill="#000000">/home/travis/build</text>
<text text-anchor="start" x="1562" y="-107.5" font-family="Helvetica,sans-Serif" font-size="10.00" fill="#000000">/AliceO2Group/AliceO2</text>
<text text-anchor="start" x="1562" y="-96.5" font-family="Helvetica,sans-Serif" font-size="10.00" fill="#000000">/Detectors/GlobalTracking</text>
<text text-anchor="middle" x="1625" y="-85.5" font-family="Helvetica,sans-Serif" font-size="10.00" fill="#000000">/src/MatchTPCITS.cxx</text>
</a>
</g>
</g>
<!-- Node9&#45;&gt;Node19 -->
<g id="edge13" class="edge">
<title>Node9&#45;&gt;Node19</title>
<path fill="none" stroke="#191970" d="M2159.6379,-189.3588C2056.7147,-182.5744 1865.4823,-166.1619 1706,-131 1702.8212,-130.2992 1699.5906,-129.5231 1696.3405,-128.6898"/>
<polygon fill="#191970" stroke="#191970" points="2159.7197,-192.8713 2169.9248,-190.0241 2160.1715,-185.8859 2159.7197,-192.8713"/>
</g>
<!-- Node20 -->
<g id="node14" class="node">
<title>Node20</title>
<g id="a_node14"><a xlink:href="../../d7/dca/CookedTracker_8cxx.html" target="_top" xlink:title="Implementation of the &quot;Cooked Matrix&quot; ITS tracker. ">
<polygon fill="none" stroke="#000000" points="1714.5,-78.5 1714.5,-130.5 1915.5,-130.5 1915.5,-78.5 1714.5,-78.5"/>
<text text-anchor="start" x="1722.5" y="-118.5" font-family="Helvetica,sans-Serif" font-size="10.00" fill="#000000">/home/travis/build</text>
<text text-anchor="start" x="1722.5" y="-107.5" font-family="Helvetica,sans-Serif" font-size="10.00" fill="#000000">/AliceO2Group/AliceO2</text>
<text text-anchor="start" x="1722.5" y="-96.5" font-family="Helvetica,sans-Serif" font-size="10.00" fill="#000000">/Detectors/ITSMFT/ITS</text>
<text text-anchor="middle" x="1815" y="-85.5" font-family="Helvetica,sans-Serif" font-size="10.00" fill="#000000">/reconstruction/src/CookedTracker.cxx</text>
</a>
</g>
</g>
<!-- Node9&#45;&gt;Node20 -->
<g id="edge14" class="edge">
<title>Node9&#45;&gt;Node20</title>
<path fill="none" stroke="#191970" d="M2159.7504,-179.2784C2097.0568,-167.0796 2004.978,-148.7158 1925,-131 1921.9314,-130.3203 1918.8167,-129.622 1915.6736,-128.9102"/>
<polygon fill="#191970" stroke="#191970" points="2159.4566,-182.7867 2169.9405,-181.2573 2160.7911,-175.9151 2159.4566,-182.7867"/>
</g>
<!-- Node21 -->
<g id="node15" class="node">
<title>Node21</title>
<g id="a_node15"><a xlink:href="../../d6/dbc/CookedTrackerSpec_8cxx.html" target="_top" xlink:title="/home/travis/build\l/AliceO2Group/AliceO2\l/Detectors/ITSMFT/ITS\l/workflow/src/CookedTrackerSpec.cxx">
<polygon fill="none" stroke="#000000" points="1934,-78.5 1934,-130.5 2134,-130.5 2134,-78.5 1934,-78.5"/>
<text text-anchor="start" x="1942" y="-118.5" font-family="Helvetica,sans-Serif" font-size="10.00" fill="#000000">/home/travis/build</text>
<text text-anchor="start" x="1942" y="-107.5" font-family="Helvetica,sans-Serif" font-size="10.00" fill="#000000">/AliceO2Group/AliceO2</text>
<text text-anchor="start" x="1942" y="-96.5" font-family="Helvetica,sans-Serif" font-size="10.00" fill="#000000">/Detectors/ITSMFT/ITS</text>
<text text-anchor="middle" x="2034" y="-85.5" font-family="Helvetica,sans-Serif" font-size="10.00" fill="#000000">/workflow/src/CookedTrackerSpec.cxx</text>
</a>
</g>
</g>
<!-- Node9&#45;&gt;Node21 -->
<g id="edge15" class="edge">
<title>Node9&#45;&gt;Node21</title>
<path fill="none" stroke="#191970" d="M2166.0143,-163.2464C2142.1879,-152.6436 2115.6507,-140.8346 2092.6542,-130.6011"/>
<polygon fill="#191970" stroke="#191970" points="2164.7855,-166.5304 2175.3448,-167.3984 2167.6315,-160.1351 2164.7855,-166.5304"/>
</g>
<!-- Node22 -->
<g id="node16" class="node">
<title>Node22</title>
<g id="a_node16"><a xlink:href="../../de/d95/ITSMFT_2ITS_2workflow_2src_2TrackerSpec_8cxx.html" target="_top" xlink:title="/home/travis/build\l/AliceO2Group/AliceO2\l/Detectors/ITSMFT/ITS\l/workflow/src/TrackerSpec.cxx">
<polygon fill="none" stroke="#000000" points="2152.5,-78.5 2152.5,-130.5 2315.5,-130.5 2315.5,-78.5 2152.5,-78.5"/>
<text text-anchor="start" x="2160.5" y="-118.5" font-family="Helvetica,sans-Serif" font-size="10.00" fill="#000000">/home/travis/build</text>
<text text-anchor="start" x="2160.5" y="-107.5" font-family="Helvetica,sans-Serif" font-size="10.00" fill="#000000">/AliceO2Group/AliceO2</text>
<text text-anchor="start" x="2160.5" y="-96.5" font-family="Helvetica,sans-Serif" font-size="10.00" fill="#000000">/Detectors/ITSMFT/ITS</text>
<text text-anchor="middle" x="2234" y="-85.5" font-family="Helvetica,sans-Serif" font-size="10.00" fill="#000000">/workflow/src/TrackerSpec.cxx</text>
</a>
</g>
</g>
<!-- Node9&#45;&gt;Node22 -->
<g id="edge16" class="edge">
<title>Node9&#45;&gt;Node22</title>
<path fill="none" stroke="#191970" d="M2234,-157.1155C2234,-148.2061 2234,-138.8475 2234,-130.5341"/>
<polygon fill="#191970" stroke="#191970" points="2230.5001,-157.2784 2234,-167.2784 2237.5001,-157.2785 2230.5001,-157.2784"/>
</g>
<!-- Node23 -->
<g id="node17" class="node">
<title>Node23</title>
<g id="a_node17"><a xlink:href="../../d0/d6b/ITSMFT_2MFT_2simulation_2src_2Detector_8cxx.html" target="_top" xlink:title="/home/travis/build\l/AliceO2Group/AliceO2\l/Detectors/ITSMFT/MFT\l/simulation/src/Detector.cxx">
<polygon fill="none" stroke="#000000" points="2333.5,-78.5 2333.5,-130.5 2486.5,-130.5 2486.5,-78.5 2333.5,-78.5"/>
<text text-anchor="start" x="2341.5" y="-118.5" font-family="Helvetica,sans-Serif" font-size="10.00" fill="#000000">/home/travis/build</text>
<text text-anchor="start" x="2341.5" y="-107.5" font-family="Helvetica,sans-Serif" font-size="10.00" fill="#000000">/AliceO2Group/AliceO2</text>
<text text-anchor="start" x="2341.5" y="-96.5" font-family="Helvetica,sans-Serif" font-size="10.00" fill="#000000">/Detectors/ITSMFT/MFT</text>
<text text-anchor="middle" x="2410" y="-85.5" font-family="Helvetica,sans-Serif" font-size="10.00" fill="#000000">/simulation/src/Detector.cxx</text>
</a>
</g>
</g>
<!-- Node9&#45;&gt;Node23 -->
<g id="edge17" class="edge">
<title>Node9&#45;&gt;Node23</title>
<path fill="none" stroke="#191970" d="M2294.8962,-162.7059C2315.6317,-152.2203 2338.5923,-140.6096 2358.5167,-130.5341"/>
<polygon fill="#191970" stroke="#191970" points="2293.1983,-159.6424 2285.8539,-167.2784 2296.3572,-165.8891 2293.1983,-159.6424"/>
</g>
<!-- Node24 -->
<g id="node18" class="node">
<title>Node24</title>
<g id="a_node18"><a xlink:href="../../d1/dd0/ITSMFT_2MFT_2workflow_2src_2TrackerSpec_8cxx.html" target="_top" xlink:title="/home/travis/build\l/AliceO2Group/AliceO2\l/Detectors/ITSMFT/MFT\l/workflow/src/TrackerSpec.cxx">
<polygon fill="none" stroke="#000000" points="2504.5,-78.5 2504.5,-130.5 2667.5,-130.5 2667.5,-78.5 2504.5,-78.5"/>
<text text-anchor="start" x="2512.5" y="-118.5" font-family="Helvetica,sans-Serif" font-size="10.00" fill="#000000">/home/travis/build</text>
<text text-anchor="start" x="2512.5" y="-107.5" font-family="Helvetica,sans-Serif" font-size="10.00" fill="#000000">/AliceO2Group/AliceO2</text>
<text text-anchor="start" x="2512.5" y="-96.5" font-family="Helvetica,sans-Serif" font-size="10.00" fill="#000000">/Detectors/ITSMFT/MFT</text>
<text text-anchor="middle" x="2586" y="-85.5" font-family="Helvetica,sans-Serif" font-size="10.00" fill="#000000">/workflow/src/TrackerSpec.cxx</text>
</a>
</g>
</g>
<!-- Node9&#45;&gt;Node24 -->
<g id="edge18" class="edge">
<title>Node9&#45;&gt;Node24</title>
<path fill="none" stroke="#191970" d="M2308.1801,-166.849C2391.2741,-144.8033 2415.9701,-150.3547 2496,-131 2498.6914,-130.3491 2501.4223,-129.6678 2504.1754,-128.963"/>
<polygon fill="#191970" stroke="#191970" points="2307.0431,-163.5308 2298.3062,-169.5239 2308.8735,-170.2873 2307.0431,-163.5308"/>
</g>
<!-- Node25 -->
<g id="node19" class="node">
<title>Node25</title>
<g id="a_node19"><a xlink:href="../../d1/d96/TrackAtVertexSpec_8cxx.html" target="_top" xlink:title="Implementation of a data processor to extrapolate the tracks to the vertex. ">
<polygon fill="none" stroke="#000000" points="2686,-78.5 2686,-130.5 2856,-130.5 2856,-78.5 2686,-78.5"/>
<text text-anchor="start" x="2694" y="-118.5" font-family="Helvetica,sans-Serif" font-size="10.00" fill="#000000">/home/travis/build</text>
<text text-anchor="start" x="2694" y="-107.5" font-family="Helvetica,sans-Serif" font-size="10.00" fill="#000000">/AliceO2Group/AliceO2</text>
<text text-anchor="start" x="2694" y="-96.5" font-family="Helvetica,sans-Serif" font-size="10.00" fill="#000000">/Detectors/MUON/MCH/Tracking</text>
<text text-anchor="middle" x="2771" y="-85.5" font-family="Helvetica,sans-Serif" font-size="10.00" fill="#000000">/src/TrackAtVertexSpec.cxx</text>
</a>
</g>
</g>
<!-- Node9&#45;&gt;Node25 -->
<g id="edge19" class="edge">
<title>Node9&#45;&gt;Node25</title>
<path fill="none" stroke="#191970" d="M2308.0406,-167.0078C2470.0041,-131.7117 2517.7967,-160.9396 2677,-131 2679.9161,-130.4516 2682.8728,-129.8543 2685.8509,-129.2175"/>
<polygon fill="#191970" stroke="#191970" points="2307.2234,-163.604 2298.2238,-169.1949 2308.7457,-170.4365 2307.2234,-163.604"/>
</g>
<!-- Node26 -->
<g id="node20" class="node">
<title>Node26</title>
<g id="a_node20"><a xlink:href="../../d1/d8b/TrackFinder_8cxx.html" target="_top" xlink:title="Implementation of a class to reconstruct tracks. ">
<polygon fill="none" stroke="#000000" points="2874,-78.5 2874,-130.5 3044,-130.5 3044,-78.5 2874,-78.5"/>
<text text-anchor="start" x="2882" y="-118.5" font-family="Helvetica,sans-Serif" font-size="10.00" fill="#000000">/home/travis/build</text>
<text text-anchor="start" x="2882" y="-107.5" font-family="Helvetica,sans-Serif" font-size="10.00" fill="#000000">/AliceO2Group/AliceO2</text>
<text text-anchor="start" x="2882" y="-96.5" font-family="Helvetica,sans-Serif" font-size="10.00" fill="#000000">/Detectors/MUON/MCH/Tracking</text>
<text text-anchor="middle" x="2959" y="-85.5" font-family="Helvetica,sans-Serif" font-size="10.00" fill="#000000">/src/TrackFinder.cxx</text>
</a>
</g>
</g>
<!-- Node9&#45;&gt;Node26 -->
<g id="edge20" class="edge">
<title>Node9&#45;&gt;Node26</title>
<path fill="none" stroke="#191970" d="M2308.0725,-167.0377C2552.1157,-117.5704 2623.2796,-172.3947 2865,-131 2867.9246,-130.4992 2870.8887,-129.9429 2873.8731,-129.3413"/>
<polygon fill="#191970" stroke="#191970" points="2307.2837,-163.6267 2298.1981,-169.0766 2308.6993,-170.482 2307.2837,-163.6267"/>
</g>
<!-- Node27 -->
<g id="node21" class="node">
<title>Node27</title>
<g id="a_node21"><a xlink:href="../../d6/d6d/TrackFinderOriginal_8cxx.html" target="_top" xlink:title="Implementation of a class to reconstruct tracks with the original algorithm. ">
<polygon fill="none" stroke="#000000" points="3062,-78.5 3062,-130.5 3232,-130.5 3232,-78.5 3062,-78.5"/>
<text text-anchor="start" x="3070" y="-118.5" font-family="Helvetica,sans-Serif" font-size="10.00" fill="#000000">/home/travis/build</text>
<text text-anchor="start" x="3070" y="-107.5" font-family="Helvetica,sans-Serif" font-size="10.00" fill="#000000">/AliceO2Group/AliceO2</text>
<text text-anchor="start" x="3070" y="-96.5" font-family="Helvetica,sans-Serif" font-size="10.00" fill="#000000">/Detectors/MUON/MCH/Tracking</text>
<text text-anchor="middle" x="3147" y="-85.5" font-family="Helvetica,sans-Serif" font-size="10.00" fill="#000000">/src/TrackFinderOriginal.cxx</text>
</a>
</g>
</g>
<!-- Node9&#45;&gt;Node27 -->
<g id="edge21" class="edge">
<title>Node9&#45;&gt;Node27</title>
<path fill="none" stroke="#191970" d="M2308.3926,-166.9918C2634.3721,-103.315 2728.7376,-183.8291 3053,-131 3055.9286,-130.5229 3058.8961,-129.9871 3061.8834,-129.403"/>
<polygon fill="#191970" stroke="#191970" points="2307.3132,-163.6377 2298.1859,-169.0176 2308.676,-170.5037 2307.3132,-163.6377"/>
</g>
<!-- Node28 -->
<g id="node22" class="node">
<title>Node28</title>
<g id="a_node22"><a xlink:href="../../de/db3/MUON_2MCH_2Tracking_2src_2TrackFitter_8cxx.html" target="_top" xlink:title="/home/travis/build\l/AliceO2Group/AliceO2\l/Detectors/MUON/MCH/Tracking\l/src/TrackFitter.cxx">
<polygon fill="none" stroke="#000000" points="3250,-78.5 3250,-130.5 3420,-130.5 3420,-78.5 3250,-78.5"/>
<text text-anchor="start" x="3258" y="-118.5" font-family="Helvetica,sans-Serif" font-size="10.00" fill="#000000">/home/travis/build</text>
<text text-anchor="start" x="3258" y="-107.5" font-family="Helvetica,sans-Serif" font-size="10.00" fill="#000000">/AliceO2Group/AliceO2</text>
<text text-anchor="start" x="3258" y="-96.5" font-family="Helvetica,sans-Serif" font-size="10.00" fill="#000000">/Detectors/MUON/MCH/Tracking</text>
<text text-anchor="middle" x="3335" y="-85.5" font-family="Helvetica,sans-Serif" font-size="10.00" fill="#000000">/src/TrackFitter.cxx</text>
</a>
</g>
</g>
<!-- Node9&#45;&gt;Node28 -->
<g id="edge22" class="edge">
<title>Node9&#45;&gt;Node28</title>
<path fill="none" stroke="#191970" d="M2308.1874,-167.0417C2716.5647,-88.9082 2833.9734,-195.2892 3241,-131 3243.9309,-130.5371 3246.9003,-130.0136 3249.8894,-129.44"/>
<polygon fill="#191970" stroke="#191970" points="2307.3299,-163.6427 2298.1789,-168.9823 2308.6623,-170.5148 2307.3299,-163.6427"/>
</g>
<!-- Node29 -->
<g id="node23" class="node">
<title>Node29</title>
<g id="a_node23"><a xlink:href="../../de/da5/FrameStructure_8cxx.html" target="_top" xlink:title="/home/travis/build\l/AliceO2Group/AliceO2\l/Detectors/Passive/src\l/FrameStructure.cxx">
<polygon fill="none" stroke="#000000" points="3438.5,-78.5 3438.5,-130.5 3565.5,-130.5 3565.5,-78.5 3438.5,-78.5"/>
<text text-anchor="start" x="3446.5" y="-118.5" font-family="Helvetica,sans-Serif" font-size="10.00" fill="#000000">/home/travis/build</text>
<text text-anchor="start" x="3446.5" y="-107.5" font-family="Helvetica,sans-Serif" font-size="10.00" fill="#000000">/AliceO2Group/AliceO2</text>
<text text-anchor="start" x="3446.5" y="-96.5" font-family="Helvetica,sans-Serif" font-size="10.00" fill="#000000">/Detectors/Passive/src</text>
<text text-anchor="middle" x="3502" y="-85.5" font-family="Helvetica,sans-Serif" font-size="10.00" fill="#000000">/FrameStructure.cxx</text>
</a>
</g>
</g>
<!-- Node9&#45;&gt;Node29 -->
<g id="edge23" class="edge">
<title>Node9&#45;&gt;Node29</title>
<path fill="none" stroke="#191970" d="M2308.353,-167.0194C2798.8904,-74.7763 2942.4183,-224.6539 3429,-131 3432.0452,-130.4139 3435.1324,-129.7192 3438.2296,-128.9401"/>
<polygon fill="#191970" stroke="#191970" points="2307.3426,-163.6489 2298.1744,-168.9587 2308.6527,-170.5252 2307.3426,-163.6489"/>
</g>
<!-- Node30 -->
<g id="node24" class="node">
<title>Node30</title>
<g id="a_node24"><a xlink:href="../../da/d8e/SpaceCharge_8cxx.html" target="_top" xlink:title="Implementation of the interface for the ALICE TPC space&#45;charge distortions calculations. ">
<polygon fill="none" stroke="#000000" points="3583.5,-78.5 3583.5,-130.5 3726.5,-130.5 3726.5,-78.5 3583.5,-78.5"/>
<text text-anchor="start" x="3591.5" y="-118.5" font-family="Helvetica,sans-Serif" font-size="10.00" fill="#000000">/home/travis/build</text>
<text text-anchor="start" x="3591.5" y="-107.5" font-family="Helvetica,sans-Serif" font-size="10.00" fill="#000000">/AliceO2Group/AliceO2</text>
<text text-anchor="start" x="3591.5" y="-96.5" font-family="Helvetica,sans-Serif" font-size="10.00" fill="#000000">/Detectors/TPC/simulation</text>
<text text-anchor="middle" x="3655" y="-85.5" font-family="Helvetica,sans-Serif" font-size="10.00" fill="#000000">/src/SpaceCharge.cxx</text>
</a>
</g>
</g>
<!-- Node9&#45;&gt;Node30 -->
<g id="edge24" class="edge">
<title>Node9&#45;&gt;Node30</title>
<path fill="none" stroke="#191970" d="M2308.392,-167.0709C2600.5704,-115.7543 3300.625,-179.2654 3575,-131 3577.7379,-130.5184 3580.51,-129.9623 3583.2962,-129.3454"/>
<polygon fill="#191970" stroke="#191970" points="2307.3764,-163.6987 2298.1718,-168.9452 2308.6391,-170.5839 2307.3764,-163.6987"/>
</g>
<!-- Node31 -->
<g id="node25" class="node">
<title>Node31</title>
<g id="a_node25"><a xlink:href="../../d8/dd6/TRDCommonParam_8cxx.html" target="_top" xlink:title="/home/travis/build\l/AliceO2Group/AliceO2\l/Detectors/TRD/base/src\l/TRDCommonParam.cxx">
<polygon fill="none" stroke="#000000" points="3744.5,-78.5 3744.5,-130.5 3879.5,-130.5 3879.5,-78.5 3744.5,-78.5"/>
<text text-anchor="start" x="3752.5" y="-118.5" font-family="Helvetica,sans-Serif" font-size="10.00" fill="#000000">/home/travis/build</text>
<text text-anchor="start" x="3752.5" y="-107.5" font-family="Helvetica,sans-Serif" font-size="10.00" fill="#000000">/AliceO2Group/AliceO2</text>
<text text-anchor="start" x="3752.5" y="-96.5" font-family="Helvetica,sans-Serif" font-size="10.00" fill="#000000">/Detectors/TRD/base/src</text>
<text text-anchor="middle" x="3812" y="-85.5" font-family="Helvetica,sans-Serif" font-size="10.00" fill="#000000">/TRDCommonParam.cxx</text>
</a>
</g>
</g>
<!-- Node9&#45;&gt;Node31 -->
<g id="edge25" class="edge">
<title>Node9&#45;&gt;Node31</title>
<path fill="none" stroke="#191970" d="M2308.1945,-167.1044C2635.5798,-109.6613 3426.6999,-187.3933 3736,-131 3738.7494,-130.4987 3741.533,-129.914 3744.3288,-129.262"/>
<polygon fill="#191970" stroke="#191970" points="2307.3789,-163.6953 2298.1696,-168.9336 2308.6354,-170.5816 2307.3789,-163.6953"/>
</g>
<!-- Node32 -->
<g id="node26" class="node">
<title>Node32</title>
<g id="a_node26"><a xlink:href="../../dc/d6e/testTRDDiffusionCoefficient_8cxx.html" target="_top" xlink:title="This task tests the Diffusion Coefficient module of the TRD digitization. ">
<polygon fill="none" stroke="#000000" points="3897.5,-78.5 3897.5,-130.5 4072.5,-130.5 4072.5,-78.5 3897.5,-78.5"/>
<text text-anchor="start" x="3905.5" y="-118.5" font-family="Helvetica,sans-Serif" font-size="10.00" fill="#000000">/home/travis/build</text>
<text text-anchor="start" x="3905.5" y="-107.5" font-family="Helvetica,sans-Serif" font-size="10.00" fill="#000000">/AliceO2Group/AliceO2</text>
<text text-anchor="start" x="3905.5" y="-96.5" font-family="Helvetica,sans-Serif" font-size="10.00" fill="#000000">/Detectors/TRD/base/test</text>
<text text-anchor="middle" x="3985" y="-85.5" font-family="Helvetica,sans-Serif" font-size="10.00" fill="#000000">/testTRDDiffusionCoefficient.cxx</text>
</a>
</g>
</g>
<!-- Node9&#45;&gt;Node32 -->
<g id="edge26" class="edge">
<title>Node9&#45;&gt;Node32</title>
<path fill="none" stroke="#191970" d="M2308.1699,-167.1038C2669.0536,-103.6212 3544.3245,-181.6985 3889,-131 3891.737,-130.5974 3894.5068,-130.1416 3897.2947,-129.6409"/>
<polygon fill="#191970" stroke="#191970" points="2307.3793,-163.6901 2298.1679,-168.9247 2308.6331,-170.5769 2307.3793,-163.6901"/>
</g>
<!-- Node33 -->
<g id="node27" class="node">
<title>Node33</title>
<g id="a_node27"><a xlink:href="../../dd/d2b/o2__sim__its__ALP3_8cxx.html" target="_top" xlink:title="/home/travis/build\l/AliceO2Group/AliceO2\l/Framework/TestWorkflows\l/src/o2_sim_its_ALP3.cxx">
<polygon fill="none" stroke="#000000" points="4091,-78.5 4091,-130.5 4237,-130.5 4237,-78.5 4091,-78.5"/>
<text text-anchor="start" x="4099" y="-118.5" font-family="Helvetica,sans-Serif" font-size="10.00" fill="#000000">/home/travis/build</text>
<text text-anchor="start" x="4099" y="-107.5" font-family="Helvetica,sans-Serif" font-size="10.00" fill="#000000">/AliceO2Group/AliceO2</text>
<text text-anchor="start" x="4099" y="-96.5" font-family="Helvetica,sans-Serif" font-size="10.00" fill="#000000">/Framework/TestWorkflows</text>
<text text-anchor="middle" x="4164" y="-85.5" font-family="Helvetica,sans-Serif" font-size="10.00" fill="#000000">/src/o2_sim_its_ALP3.cxx</text>
</a>
</g>
</g>
<!-- Node9&#45;&gt;Node33 -->
<g id="edge27" class="edge">
<title>Node9&#45;&gt;Node33</title>
<path fill="none" stroke="#191970" d="M2308.1681,-167.1041C2711.3755,-96.3951 3696.1553,-195.8148 4082,-131 4084.9509,-130.5043 4087.9412,-129.9243 4090.9467,-129.2762"/>
<polygon fill="#191970" stroke="#191970" points="2307.3823,-163.6894 2298.1662,-168.9156 2308.6299,-170.5774 2307.3823,-163.6894"/>
</g>
<!-- Node34 -->
<g id="node28" class="node">
<title>Node34</title>
<g id="a_node28"><a xlink:href="../../d7/d11/o2__sim__tpc_8cxx.html" target="_top" xlink:title="/home/travis/build\l/AliceO2Group/AliceO2\l/Framework/TestWorkflows\l/src/o2_sim_tpc.cxx">
<polygon fill="none" stroke="#000000" points="4255,-78.5 4255,-130.5 4401,-130.5 4401,-78.5 4255,-78.5"/>
<text text-anchor="start" x="4263" y="-118.5" font-family="Helvetica,sans-Serif" font-size="10.00" fill="#000000">/home/travis/build</text>
<text text-anchor="start" x="4263" y="-107.5" font-family="Helvetica,sans-Serif" font-size="10.00" fill="#000000">/AliceO2Group/AliceO2</text>
<text text-anchor="start" x="4263" y="-96.5" font-family="Helvetica,sans-Serif" font-size="10.00" fill="#000000">/Framework/TestWorkflows</text>
<text text-anchor="middle" x="4328" y="-85.5" font-family="Helvetica,sans-Serif" font-size="10.00" fill="#000000">/src/o2_sim_tpc.cxx</text>
</a>
</g>
</g>
<!-- Node9&#45;&gt;Node34 -->
<g id="edge28" class="edge">
<title>Node9&#45;&gt;Node34</title>
<path fill="none" stroke="#191970" d="M2308.099,-167.1147C2747.2,-90.1162 3824.1476,-201.4916 4246,-131 4248.9513,-130.5068 4251.9419,-129.929 4254.9478,-129.2827"/>
<polygon fill="#191970" stroke="#191970" points="2307.3835,-163.6873 2298.165,-168.9094 2308.628,-170.5758 2307.3835,-163.6873"/>
</g>
<!-- Node10&#45;&gt;Node11 -->
<g id="edge4" class="edge">
<title>Node10&#45;&gt;Node11</title>
<path fill="none" stroke="#191970" d="M83.4063,-69.2733C88.5831,-59.8763 94.009,-50.0272 98.5997,-41.6941"/>
<polygon fill="#191970" stroke="#191970" points="80.3144,-67.6324 78.5547,-78.0801 86.4456,-71.0101 80.3144,-67.6324"/>
</g>
</g>
</svg>
        <g id="navigator" transform="translate(0 0)" fill="#404254">
                <rect fill="#f2f5e9" fill-opacity="0.5" stroke="#606060" stroke-width=".5" x="0" y="0" width="60" height="60"/>
                <use id="zoomplus" xlink:href="#zoomPlus" x="17" y="9" onmousedown="handleZoom(evt,'in')"/>
                <use id="zoomminus" xlink:href="#zoomMin" x="42" y="9" onmousedown="handleZoom(evt,'out')"/>
                <use id="reset" xlink:href="#resetDef" x="30" y="36" onmousedown="handleReset()"/>
                <g id="arrowUp" xlink:href="#dirArrow" transform="translate(30 24)" onmousedown="handlePan(0,-1)">
                  <use xlink:href="#rim" fill="#404040">
                        <set attributeName="fill" to="#808080" begin="arrowUp.mouseover" end="arrowUp.mouseout"/>
                  </use>
                  <path fill="none" stroke="white" stroke-width="1.5" d="M0,-3.0v7 M-2.5,-0.5L0,-3.0L2.5,-0.5"/>
                </g>
                <g id="arrowRight" xlink:href="#dirArrow" transform="rotate(90) translate(36 -43)" onmousedown="handlePan(1,0)">
                  <use xlink:href="#rim" fill="#404040">
                        <set attributeName="fill" to="#808080" begin="arrowRight.mouseover" end="arrowRight.mouseout"/>
                  </use>
                  <path fill="none" stroke="white" stroke-width="1.5" d="M0,-3.0v7 M-2.5,-0.5L0,-3.0L2.5,-0.5"/>
                </g>
                <g id="arrowDown" xlink:href="#dirArrow" transform="rotate(180) translate(-30 -48)" onmousedown="handlePan(0,1)">
                  <use xlink:href="#rim" fill="#404040">
                        <set attributeName="fill" to="#808080" begin="arrowDown.mouseover" end="arrowDown.mouseout"/>
                  </use>
                  <path fill="none" stroke="white" stroke-width="1.5" d="M0,-3.0v7 M-2.5,-0.5L0,-3.0L2.5,-0.5"/>
                </g>
                <g id="arrowLeft" xlink:href="#dirArrow" transform="rotate(270) translate(-36 17)" onmousedown="handlePan(-1,0)">
                  <use xlink:href="#rim" fill="#404040">
                        <set attributeName="fill" to="#808080" begin="arrowLeft.mouseover" end="arrowLeft.mouseout"/>
                  </use>
                  <path fill="none" stroke="white" stroke-width="1.5" d="M0,-3.0v7 M-2.5,-0.5L0,-3.0L2.5,-0.5"/>
                </g>
        </g>
        <svg viewBox="0 0 15 15" width="100%" height="30px" preserveAspectRatio="xMaxYMin meet">
         <g id="arrow_out" transform="scale(0.3 0.3)">
          <a xlink:href="Chebyshev3D_8h__dep__incl_org.svg" target="_base">
           <rect id="button" ry="5" rx="5" y="6" x="6" height="38" width="38"
                fill="#f2f5e9" fill-opacity="0.5" stroke="#606060" stroke-width="1.0"/>
           <path id="arrow"
             d="M 11.500037,31.436501 C 11.940474,20.09759 22.043105,11.32322 32.158766,21.979434 L 37.068811,17.246167 C 37.068811,17.246167 37.088388,32 37.088388,32 L 22.160133,31.978069 C 22.160133,31.978069 26.997745,27.140456 26.997745,27.140456 C 18.528582,18.264221 13.291696,25.230495 11.500037,31.436501 z"
             style="fill:#404040;"/>
          </a>
         </g>
        </svg>
</svg>
