<?xml version="1.0" encoding="UTF-8" standalone="no"?>
<!DOCTYPE svg PUBLIC "-//W3C//DTD SVG 1.1//EN"
 "http://www.w3.org/Graphics/SVG/1.1/DTD/svg11.dtd">
<!-- Generated by graphviz version 2.40.1 (20161225.0304)
 -->
<!-- Title: TaskDzero Pages: 1 -->
<!--zoomable 893 -->
<svg id="main" version="1.1" xmlns="http://www.w3.org/2000/svg" xmlns:xlink="http://www.w3.org/1999/xlink" xml:space="preserve" onload="init(evt)">
<style type="text/css"><![CDATA[
.edge:hover path { stroke: red; }
.edge:hover polygon { stroke: red; fill: red; }
]]></style>
<script type="text/javascript"><![CDATA[
var edges = document.getElementsByTagName('g');
if (edges && edges.length) {
  for (var i=0;i<edges.length;i++) {
    if (edges[i].id.substr(0,4)=='edge') {
      edges[i].setAttribute('class','edge');
    }
  }
}
]]></script>
        <defs>
                <circle id="rim" cx="0" cy="0" r="7"/>
                <circle id="rim2" cx="0" cy="0" r="3.5"/>
                <g id="zoomPlus">
                        <use xlink:href="#rim" fill="#404040">
                                <set attributeName="fill" to="#808080" begin="zoomplus.mouseover" end="zoomplus.mouseout"/>
                        </use>
                        <path d="M-4,0h8M0,-4v8" fill="none" stroke="white" stroke-width="1.5" pointer-events="none"/>
                </g>
                <g id="zoomMin">
                        <use xlink:href="#rim" fill="#404040">
                                <set attributeName="fill" to="#808080" begin="zoomminus.mouseover" end="zoomminus.mouseout"/>
                        </use>
                        <path d="M-4,0h8" fill="none" stroke="white" stroke-width="1.5" pointer-events="none"/>
                </g>
                <g id="dirArrow">
                        <path fill="none" stroke="white" stroke-width="1.5" d="M0,-3.0v7 M-2.5,-0.5L0,-3.0L2.5,-0.5"/>
                </g>
               <g id="resetDef">
                       <use xlink:href="#rim2" fill="#404040">
                               <set attributeName="fill" to="#808080" begin="reset.mouseover" end="reset.mouseout"/>
                       </use>
               </g>
        </defs>

<script type="text/javascript">
var viewWidth = 784;
var viewHeight = 893;
var sectionId = 'dynsection-0';
</script>
<script xlink:href="../../svgpan.js"/>
<svg id="graph" class="graph">
<g id="viewport">
<title>TaskDzero</title>
<!-- Node1 -->
<g id="node1" class="node">
<title>Node1</title>
<polygon fill="#bfbfbf" stroke="#000000" points="342.8014,-.5 342.8014,-57.5 415.8014,-57.5 415.8014,-.5 342.8014,-.5"/>
<text text-anchor="middle" x="379.3014" y="-45.5" font-family="Helvetica,sans-Serif" font-size="10.00" fill="#000000">TaskDzero</text>
<polyline fill="none" stroke="#000000" points="342.8014,-38.5 415.8014,-38.5 "/>
<text text-anchor="start" x="350.8014" y="-26.5" font-family="Helvetica,sans-Serif" font-size="10.00" fill="#000000">+ hmass</text>
<polyline fill="none" stroke="#000000" points="342.8014,-19.5 415.8014,-19.5 "/>
<text text-anchor="start" x="350.8014" y="-7.5" font-family="Helvetica,sans-Serif" font-size="10.00" fill="#000000">+ process()</text>
</g>
<!-- Node2 -->
<g id="node2" class="node">
<title>Node2</title>
<g id="a_node2"><a xlink:href="../../d4/d79/structo2_1_1framework_1_1OutputObj.html" target="_top" xlink:title="{o2::framework::OutputObj\l\&lt; TH1F \&gt;\n||+ spec()\l+ OutputObj()\l+ OutputObj()\l+ setObject()\l+ setObject()\l+ setObject()\l+ setHash()\l+ operator&#45;\&gt;()\l+ operator*()\l+ ref()\l}">
<polygon fill="none" stroke="#000000" points="307.8014,-215.5 307.8014,-382.5 450.8014,-382.5 450.8014,-215.5 307.8014,-215.5"/>
<text text-anchor="start" x="315.8014" y="-370.5" font-family="Helvetica,sans-Serif" font-size="10.00" fill="#000000">o2::framework::OutputObj</text>
<text text-anchor="middle" x="379.3014" y="-359.5" font-family="Helvetica,sans-Serif" font-size="10.00" fill="#000000">&lt; TH1F &gt;</text>
<polyline fill="none" stroke="#000000" points="307.8014,-352.5 450.8014,-352.5 "/>
<text text-anchor="middle" x="379.3014" y="-340.5" font-family="Helvetica,sans-Serif" font-size="10.00" fill="#000000"> </text>
<polyline fill="none" stroke="#000000" points="307.8014,-333.5 450.8014,-333.5 "/>
<text text-anchor="start" x="315.8014" y="-321.5" font-family="Helvetica,sans-Serif" font-size="10.00" fill="#000000">+ spec()</text>
<text text-anchor="start" x="315.8014" y="-310.5" font-family="Helvetica,sans-Serif" font-size="10.00" fill="#000000">+ OutputObj()</text>
<text text-anchor="start" x="315.8014" y="-299.5" font-family="Helvetica,sans-Serif" font-size="10.00" fill="#000000">+ OutputObj()</text>
<text text-anchor="start" x="315.8014" y="-288.5" font-family="Helvetica,sans-Serif" font-size="10.00" fill="#000000">+ setObject()</text>
<text text-anchor="start" x="315.8014" y="-277.5" font-family="Helvetica,sans-Serif" font-size="10.00" fill="#000000">+ setObject()</text>
<text text-anchor="start" x="315.8014" y="-266.5" font-family="Helvetica,sans-Serif" font-size="10.00" fill="#000000">+ setObject()</text>
<text text-anchor="start" x="315.8014" y="-255.5" font-family="Helvetica,sans-Serif" font-size="10.00" fill="#000000">+ setHash()</text>
<text text-anchor="start" x="315.8014" y="-244.5" font-family="Helvetica,sans-Serif" font-size="10.00" fill="#000000">+ operator&#45;&gt;()</text>
<text text-anchor="start" x="315.8014" y="-233.5" font-family="Helvetica,sans-Serif" font-size="10.00" fill="#000000">+ operator*()</text>
<text text-anchor="start" x="315.8014" y="-222.5" font-family="Helvetica,sans-Serif" font-size="10.00" fill="#000000">+ ref()</text>
</a>
</g>
</g>
<!-- Node2&#45;&gt;Node1 -->
<g id="edge1" class="edge">
<title>Node2&#45;&gt;Node1</title>
<path fill="none" stroke="#404040" d="M379.3014,-215.4194C379.3014,-166.9966 379.3014,-108.1971 379.3014,-69.7511"/>
<polygon fill="none" stroke="#404040" points="379.3014,-69.5375 375.3014,-63.5376 379.3014,-57.5375 383.3014,-63.5375 379.3014,-69.5375"/>
<text text-anchor="middle" x="418.3014" y="-189" font-family="Helvetica,sans-Serif" font-size="10.00" fill="#000000"> +hdeclengthxy</text>
<text text-anchor="middle" x="418.3014" y="-178" font-family="Helvetica,sans-Serif" font-size="10.00" fill="#000000">+hdeclength</text>
<text text-anchor="middle" x="418.3014" y="-167" font-family="Helvetica,sans-Serif" font-size="10.00" fill="#000000">+hCTS</text>
<text text-anchor="middle" x="418.3014" y="-156" font-family="Helvetica,sans-Serif" font-size="10.00" fill="#000000">+hEta</text>
<text text-anchor="middle" x="418.3014" y="-145" font-family="Helvetica,sans-Serif" font-size="10.00" fill="#000000">+hCt</text>
<text text-anchor="middle" x="418.3014" y="-134" font-family="Helvetica,sans-Serif" font-size="10.00" fill="#000000">+hd0d0</text>
<text text-anchor="middle" x="418.3014" y="-123" font-family="Helvetica,sans-Serif" font-size="10.00" fill="#000000">+hd0</text>
<text text-anchor="middle" x="418.3014" y="-112" font-family="Helvetica,sans-Serif" font-size="10.00" fill="#000000">+hptprong0</text>
<text text-anchor="middle" x="418.3014" y="-101" font-family="Helvetica,sans-Serif" font-size="10.00" fill="#000000">+hptprong1</text>
<text text-anchor="middle" x="418.3014" y="-90" font-family="Helvetica,sans-Serif" font-size="10.00" fill="#000000">+hptcand</text>
<text text-anchor="middle" x="418.3014" y="-79" font-family="Helvetica,sans-Serif" font-size="10.00" fill="#000000">...</text>
</g>
<!-- Node3 -->
<g id="node3" class="node">
<title>Node3</title>
<polygon fill="none" stroke="#bfbfbf" points="137.8014,-662 137.8014,-719 276.8014,-719 276.8014,-662 137.8014,-662"/>
<text text-anchor="middle" x="207.3014" y="-707" font-family="Helvetica,sans-Serif" font-size="10.00" fill="#000000">OutputObjHandlingPolicy</text>
<polyline fill="none" stroke="#bfbfbf" points="137.8014,-700 276.8014,-700 "/>
<text text-anchor="middle" x="207.3014" y="-688" font-family="Helvetica,sans-Serif" font-size="10.00" fill="#000000"> </text>
<polyline fill="none" stroke="#bfbfbf" points="137.8014,-681 276.8014,-681 "/>
<text text-anchor="middle" x="207.3014" y="-669" font-family="Helvetica,sans-Serif" font-size="10.00" fill="#000000"> </text>
</g>
<!-- Node3&#45;&gt;Node2 -->
<g id="edge2" class="edge">
<title>Node3&#45;&gt;Node2</title>
<path fill="none" stroke="#404040" d="M205.3493,-661.7158C203.2,-611.6853 204.2701,-506.7007 243.3014,-430 256.6362,-403.7955 277.3202,-379.8732 298.567,-359.8503"/>
<polygon fill="none" stroke="#404040" points="298.8307,-359.6093 300.5602,-352.6086 307.6875,-351.5125 305.958,-358.5132 298.8307,-359.6093"/>
<text text-anchor="middle" x="263.8014" y="-506" font-family="Helvetica,sans-Serif" font-size="10.00" fill="#000000"> +policy</text>
</g>
<!-- Node11 -->
<g id="node11" class="node">
<title>Node11</title>
<g id="a_node11"><a xlink:href="../../d4/d79/structo2_1_1framework_1_1OutputObj.html" target="_top" xlink:title="{o2::framework::OutputObj\&lt; T \&gt;\n||+ OutputObj()\l+ OutputObj()\l+ setObject()\l+ setObject()\l+ setObject()\l+ setHash()\l+ spec()\l+ operator&#45;\&gt;()\l+ operator*()\l+ ref()\l}">
<polygon fill="none" stroke="#000000" points="293.3014,-430.5 293.3014,-586.5 465.3014,-586.5 465.3014,-430.5 293.3014,-430.5"/>
<text text-anchor="middle" x="379.3014" y="-574.5" font-family="Helvetica,sans-Serif" font-size="10.00" fill="#000000">o2::framework::OutputObj&lt; T &gt;</text>
<polyline fill="none" stroke="#000000" points="293.3014,-567.5 465.3014,-567.5 "/>
<text text-anchor="middle" x="379.3014" y="-555.5" font-family="Helvetica,sans-Serif" font-size="10.00" fill="#000000"> </text>
<polyline fill="none" stroke="#000000" points="293.3014,-548.5 465.3014,-548.5 "/>
<text text-anchor="start" x="301.3014" y="-536.5" font-family="Helvetica,sans-Serif" font-size="10.00" fill="#000000">+ OutputObj()</text>
<text text-anchor="start" x="301.3014" y="-525.5" font-family="Helvetica,sans-Serif" font-size="10.00" fill="#000000">+ OutputObj()</text>
<text text-anchor="start" x="301.3014" y="-514.5" font-family="Helvetica,sans-Serif" font-size="10.00" fill="#000000">+ setObject()</text>
<text text-anchor="start" x="301.3014" y="-503.5" font-family="Helvetica,sans-Serif" font-size="10.00" fill="#000000">+ setObject()</text>
<text text-anchor="start" x="301.3014" y="-492.5" font-family="Helvetica,sans-Serif" font-size="10.00" fill="#000000">+ setObject()</text>
<text text-anchor="start" x="301.3014" y="-481.5" font-family="Helvetica,sans-Serif" font-size="10.00" fill="#000000">+ setHash()</text>
<text text-anchor="start" x="301.3014" y="-470.5" font-family="Helvetica,sans-Serif" font-size="10.00" fill="#000000">+ spec()</text>
<text text-anchor="start" x="301.3014" y="-459.5" font-family="Helvetica,sans-Serif" font-size="10.00" fill="#000000">+ operator&#45;&gt;()</text>
<text text-anchor="start" x="301.3014" y="-448.5" font-family="Helvetica,sans-Serif" font-size="10.00" fill="#000000">+ operator*()</text>
<text text-anchor="start" x="301.3014" y="-437.5" font-family="Helvetica,sans-Serif" font-size="10.00" fill="#000000">+ ref()</text>
</a>
</g>
</g>
<!-- Node3&#45;&gt;Node11 -->
<g id="edge13" class="edge">
<title>Node3&#45;&gt;Node11</title>
<path fill="none" stroke="#404040" d="M234.5553,-661.6616C251.5969,-643.6291 274.5339,-619.3586 297.119,-595.4604"/>
<polygon fill="none" stroke="#404040" points="297.17,-595.4064 298.384,-588.2982 305.4123,-586.6849 304.1984,-593.7931 297.17,-595.4064"/>
<text text-anchor="middle" x="303.8014" y="-608" font-family="Helvetica,sans-Serif" font-size="10.00" fill="#000000"> +policy</text>
</g>
<!-- Node4 -->
<g id="node4" class="node">
<title>Node4</title>
<g id="a_node4"><a xlink:href="../../d3/d87/classuint32__t.html" target="_top" xlink:title="{uint32_t\n||}">
<polygon fill="none" stroke="#000000" points="63.3014,-662 63.3014,-719 119.3014,-719 119.3014,-662 63.3014,-662"/>
<text text-anchor="middle" x="91.3014" y="-707" font-family="Helvetica,sans-Serif" font-size="10.00" fill="#000000">uint32_t</text>
<polyline fill="none" stroke="#000000" points="63.3014,-700 119.3014,-700 "/>
<text text-anchor="middle" x="91.3014" y="-688" font-family="Helvetica,sans-Serif" font-size="10.00" fill="#000000"> </text>
<polyline fill="none" stroke="#000000" points="63.3014,-681 119.3014,-681 "/>
<text text-anchor="middle" x="91.3014" y="-669" font-family="Helvetica,sans-Serif" font-size="10.00" fill="#000000"> </text>
</a>
</g>
</g>
<!-- Node4&#45;&gt;Node2 -->
<g id="edge3" class="edge">
<title>Node4&#45;&gt;Node2</title>
<path fill="none" stroke="#404040" d="M88.2877,-661.6007C84.4612,-609.9989 83.5786,-500.7966 134.3014,-430 173.1813,-375.7331 241.6336,-341.8535 296.3175,-322.1787"/>
<polygon fill="none" stroke="#404040" points="296.4292,-322.1399 300.7801,-316.3892 307.7618,-318.1937 303.4109,-323.9443 296.4292,-322.1399"/>
<text text-anchor="middle" x="168.3014" y="-506" font-family="Helvetica,sans-Serif" font-size="10.00" fill="#000000"> +mTaskHash</text>
</g>
<!-- Node4&#45;&gt;Node11 -->
<g id="edge12" class="edge">
<title>Node4&#45;&gt;Node11</title>
<path fill="none" stroke="#404040" d="M105.2117,-661.8591C111.1803,-651.9441 118.953,-641.4594 128.3014,-634 177.306,-594.8974 204.8944,-614.3629 261.3014,-587 268.4408,-583.5366 275.6542,-579.7001 282.8095,-575.6393"/>
<polygon fill="none" stroke="#404040" points="282.8751,-575.6011 286.0374,-569.1203 293.2359,-569.5468 290.0736,-576.0275 282.8751,-575.6011"/>
<text text-anchor="middle" x="231.3014" y="-608" font-family="Helvetica,sans-Serif" font-size="10.00" fill="#000000"> +mTaskHash</text>
</g>
<!-- Node5 -->
<g id="node5" class="node">
<title>Node5</title>
<polygon fill="none" stroke="#bfbfbf" points="413.8014,-811 413.8014,-868 442.8014,-868 442.8014,-811 413.8014,-811"/>
<text text-anchor="middle" x="428.3014" y="-856" font-family="Helvetica,sans-Serif" font-size="10.00" fill="#000000">int</text>
<polyline fill="none" stroke="#bfbfbf" points="413.8014,-849 442.8014,-849 "/>
<text text-anchor="middle" x="428.3014" y="-837" font-family="Helvetica,sans-Serif" font-size="10.00" fill="#000000"> </text>
<polyline fill="none" stroke="#bfbfbf" points="413.8014,-830 442.8014,-830 "/>
<text text-anchor="middle" x="428.3014" y="-818" font-family="Helvetica,sans-Serif" font-size="10.00" fill="#000000"> </text>
</g>
<!-- Node5&#45;&gt;Node2 -->
<g id="edge4" class="edge">
<title>Node5&#45;&gt;Node2</title>
<path fill="none" stroke="#404040" d="M413.6285,-838.1504C350.3459,-832.0079 101.8231,-804.4779 54.3014,-747 -35.8742,-637.932 -3.6709,-540.8528 84.3014,-430 136.3874,-364.367 228.2658,-330.7134 295.6847,-314.0728"/>
<polygon fill="none" stroke="#404040" points="295.8745,-314.0278 300.7884,-308.7501 307.55,-311.2561 302.6361,-316.5338 295.8745,-314.0278"/>
<text text-anchor="middle" x="19.3014" y="-608" font-family="Helvetica,sans-Serif" font-size="10.00" fill="#000000"> +label</text>
</g>
<!-- Node7 -->
<g id="node7" class="node">
<title>Node7</title>
<g id="a_node7"><a xlink:href="../../da/d96/structo2_1_1framework_1_1InputSpec.html" target="_top" xlink:title="{o2::framework::InputSpec\n||+ InputSpec()\l+ InputSpec()\l+ InputSpec()\l+ InputSpec()\l+ InputSpec()\l+ operator==()\l}">
<polygon fill="none" stroke="#000000" points="538.3014,-634.5 538.3014,-746.5 680.3014,-746.5 680.3014,-634.5 538.3014,-634.5"/>
<text text-anchor="middle" x="609.3014" y="-734.5" font-family="Helvetica,sans-Serif" font-size="10.00" fill="#000000">o2::framework::InputSpec</text>
<polyline fill="none" stroke="#000000" points="538.3014,-727.5 680.3014,-727.5 "/>
<text text-anchor="middle" x="609.3014" y="-715.5" font-family="Helvetica,sans-Serif" font-size="10.00" fill="#000000"> </text>
<polyline fill="none" stroke="#000000" points="538.3014,-708.5 680.3014,-708.5 "/>
<text text-anchor="start" x="546.3014" y="-696.5" font-family="Helvetica,sans-Serif" font-size="10.00" fill="#000000">+ InputSpec()</text>
<text text-anchor="start" x="546.3014" y="-685.5" font-family="Helvetica,sans-Serif" font-size="10.00" fill="#000000">+ InputSpec()</text>
<text text-anchor="start" x="546.3014" y="-674.5" font-family="Helvetica,sans-Serif" font-size="10.00" fill="#000000">+ InputSpec()</text>
<text text-anchor="start" x="546.3014" y="-663.5" font-family="Helvetica,sans-Serif" font-size="10.00" fill="#000000">+ InputSpec()</text>
<text text-anchor="start" x="546.3014" y="-652.5" font-family="Helvetica,sans-Serif" font-size="10.00" fill="#000000">+ InputSpec()</text>
<text text-anchor="start" x="546.3014" y="-641.5" font-family="Helvetica,sans-Serif" font-size="10.00" fill="#000000">+ operator==()</text>
</a>
</g>
</g>
<!-- Node5&#45;&gt;Node7 -->
<g id="edge9" class="edge">
<title>Node5&#45;&gt;Node7</title>
<path fill="none" stroke="#404040" d="M442.8074,-827.5586C462.2071,-811.5886 498.0486,-782.0837 531.5215,-754.5287"/>
<polygon fill="none" stroke="#404040" points="531.6194,-754.4481 533.7095,-747.5465 540.8841,-746.8214 538.794,-753.723 531.6194,-754.4481"/>
<text text-anchor="middle" x="542.3014" y="-768" font-family="Helvetica,sans-Serif" font-size="10.00" fill="#000000"> +binding</text>
</g>
<!-- Node5&#45;&gt;Node11 -->
<g id="edge14" class="edge">
<title>Node5&#45;&gt;Node11</title>
<path fill="none" stroke="#404040" d="M424.6796,-810.8704C419.5882,-771.127 409.8636,-697.0105 400.3014,-634 398.5794,-622.6529 396.6914,-610.7426 394.7758,-598.9651"/>
<polygon fill="none" stroke="#404040" points="394.7177,-598.6107 389.7992,-593.3373 392.7752,-586.7689 397.6937,-592.0423 394.7177,-598.6107"/>
<text text-anchor="middle" x="434.3014" y="-688" font-family="Helvetica,sans-Serif" font-size="10.00" fill="#000000"> +label</text>
</g>
<!-- Node6 -->
<g id="node6" class="node">
<title>Node6</title>
<polygon fill="none" stroke="#bfbfbf" points="482.3014,-662 482.3014,-719 520.3014,-719 520.3014,-662 482.3014,-662"/>
<text text-anchor="middle" x="501.3014" y="-707" font-family="Helvetica,sans-Serif" font-size="10.00" fill="#000000">bool</text>
<polyline fill="none" stroke="#bfbfbf" points="482.3014,-700 520.3014,-700 "/>
<text text-anchor="middle" x="501.3014" y="-688" font-family="Helvetica,sans-Serif" font-size="10.00" fill="#000000"> </text>
<polyline fill="none" stroke="#bfbfbf" points="482.3014,-681 520.3014,-681 "/>
<text text-anchor="middle" x="501.3014" y="-669" font-family="Helvetica,sans-Serif" font-size="10.00" fill="#000000"> </text>
</g>
<!-- Node6&#45;&gt;Node2 -->
<g id="edge5" class="edge">
<title>Node6&#45;&gt;Node2</title>
<path fill="none" stroke="#404040" d="M503.2464,-661.9522C505.5481,-612.724 505.7093,-509.5005 474.3014,-430 469.3513,-417.4704 462.9225,-405.0384 455.7424,-393.107"/>
<polygon fill="none" stroke="#404040" points="455.6307,-392.9286 449.0549,-389.9691 449.2576,-382.7608 455.8334,-385.7204 455.6307,-392.9286"/>
<text text-anchor="middle" x="535.3014" y="-506" font-family="Helvetica,sans-Serif" font-size="10.00" fill="#000000"> +isdangling</text>
</g>
<!-- Node6&#45;&gt;Node11 -->
<g id="edge16" class="edge">
<title>Node6&#45;&gt;Node11</title>
<path fill="none" stroke="#404040" d="M488.6066,-661.888C483.3284,-652.2044 476.4996,-641.8631 468.3014,-634 455.9616,-622.1647 446.3067,-628.1745 434.3014,-616 428.6147,-610.2332 423.3918,-603.7588 418.6223,-596.9216"/>
<polygon fill="none" stroke="#404040" points="418.505,-596.7414 411.8791,-593.8957 411.9575,-586.685 418.5834,-589.5307 418.505,-596.7414"/>
<text text-anchor="middle" x="465.3014" y="-608" font-family="Helvetica,sans-Serif" font-size="10.00" fill="#000000"> +isdangling</text>
</g>
<!-- Node7&#45;&gt;Node2 -->
<g id="edge6" class="edge">
<title>Node7&#45;&gt;Node2</title>
<path fill="none" stroke="#404040" d="M613.3348,-634.2434C614.6437,-578.2773 609.112,-492.026 570.3014,-430 544.6097,-388.9405 500.8082,-357.5172 461.6274,-335.7524"/>
<polygon fill="none" stroke="#404040" points="461.5452,-335.7081 454.3654,-336.379 450.9846,-330.0095 458.1645,-329.3386 461.5452,-335.7081"/>
<text text-anchor="middle" x="629.3014" y="-506" font-family="Helvetica,sans-Serif" font-size="10.00" fill="#000000"> +spec</text>
</g>
<!-- Node7&#45;&gt;Node11 -->
<g id="edge17" class="edge">
<title>Node7&#45;&gt;Node11</title>
<path fill="none" stroke="#404040" d="M538.417,-634.4089C518.3864,-618.5586 496.251,-601.0427 475.0183,-584.2413"/>
<polygon fill="none" stroke="#404040" points="474.7474,-584.0269 467.5601,-583.4404 465.3371,-576.5805 472.5244,-577.1669 474.7474,-584.0269"/>
<text text-anchor="middle" x="531.3014" y="-608" font-family="Helvetica,sans-Serif" font-size="10.00" fill="#000000"> +spec</text>
</g>
<!-- Node8 -->
<g id="node8" class="node">
<title>Node8</title>
<polygon fill="none" stroke="#bfbfbf" points="676.3014,-811 676.3014,-868 764.3014,-868 764.3014,-811 676.3014,-811"/>
<text text-anchor="middle" x="720.3014" y="-856" font-family="Helvetica,sans-Serif" font-size="10.00" fill="#000000">enum Lifetime</text>
<polyline fill="none" stroke="#bfbfbf" points="676.3014,-849 764.3014,-849 "/>
<text text-anchor="middle" x="720.3014" y="-837" font-family="Helvetica,sans-Serif" font-size="10.00" fill="#000000"> </text>
<polyline fill="none" stroke="#bfbfbf" points="676.3014,-830 764.3014,-830 "/>
<text text-anchor="middle" x="720.3014" y="-818" font-family="Helvetica,sans-Serif" font-size="10.00" fill="#000000"> </text>
</g>
<!-- Node8&#45;&gt;Node7 -->
<g id="edge7" class="edge">
<title>Node8&#45;&gt;Node7</title>
<path fill="none" stroke="#404040" d="M698.8994,-810.7713C687.3653,-795.2885 672.6232,-775.4995 658.4422,-756.4639"/>
<polygon fill="none" stroke="#404040" points="658.2666,-756.2281 651.4744,-753.8062 651.0976,-746.6049 657.8899,-749.0269 658.2666,-756.2281"/>
<text text-anchor="middle" x="696.3014" y="-768" font-family="Helvetica,sans-Serif" font-size="10.00" fill="#000000"> +lifetime</text>
</g>
<!-- Node9 -->
<g id="node9" class="node">
<title>Node9</title>
<polygon fill="none" stroke="#bfbfbf" points="494.3014,-794.5 494.3014,-884.5 658.3014,-884.5 658.3014,-794.5 494.3014,-794.5"/>
<text text-anchor="start" x="502.3014" y="-872.5" font-family="Helvetica,sans-Serif" font-size="10.00" fill="#000000">variant&lt; o2::framework</text>
<text text-anchor="start" x="502.3014" y="-861.5" font-family="Helvetica,sans-Serif" font-size="10.00" fill="#000000">::ConcreteDataMatcher,</text>
<text text-anchor="start" x="502.3014" y="-850.5" font-family="Helvetica,sans-Serif" font-size="10.00" fill="#000000"> o2::framework::data_matcher</text>
<text text-anchor="middle" x="576.3014" y="-839.5" font-family="Helvetica,sans-Serif" font-size="10.00" fill="#000000">::DataDescriptorMatcher &gt;</text>
<polyline fill="none" stroke="#bfbfbf" points="494.3014,-832.5 658.3014,-832.5 "/>
<text text-anchor="middle" x="576.3014" y="-820.5" font-family="Helvetica,sans-Serif" font-size="10.00" fill="#000000"> </text>
<polyline fill="none" stroke="#bfbfbf" points="494.3014,-813.5 658.3014,-813.5 "/>
<text text-anchor="middle" x="576.3014" y="-801.5" font-family="Helvetica,sans-Serif" font-size="10.00" fill="#000000"> </text>
</g>
<!-- Node9&#45;&gt;Node7 -->
<g id="edge8" class="edge">
<title>Node9&#45;&gt;Node7</title>
<path fill="none" stroke="#404040" d="M586.292,-794.3907C588.7961,-783.0845 591.5383,-770.7027 594.2296,-758.5514"/>
<polygon fill="none" stroke="#404040" points="594.2981,-758.2414 591.6902,-751.5184 596.8931,-746.5254 599.501,-753.2484 594.2981,-758.2414"/>
<text text-anchor="middle" x="618.3014" y="-768" font-family="Helvetica,sans-Serif" font-size="10.00" fill="#000000"> +matcher</text>
</g>
<!-- Node10 -->
<g id="node10" class="node">
<title>Node10</title>
<polygon fill="none" stroke="#bfbfbf" points="660.3014,-480 660.3014,-537 776.3014,-537 776.3014,-480 660.3014,-480"/>
<text text-anchor="middle" x="718.3014" y="-525" font-family="Helvetica,sans-Serif" font-size="10.00" fill="#000000">shared_ptr&lt; TH1F &gt;</text>
<polyline fill="none" stroke="#bfbfbf" points="660.3014,-518 776.3014,-518 "/>
<text text-anchor="middle" x="718.3014" y="-506" font-family="Helvetica,sans-Serif" font-size="10.00" fill="#000000"> </text>
<polyline fill="none" stroke="#bfbfbf" points="660.3014,-499 776.3014,-499 "/>
<text text-anchor="middle" x="718.3014" y="-487" font-family="Helvetica,sans-Serif" font-size="10.00" fill="#000000"> </text>
</g>
<!-- Node10&#45;&gt;Node2 -->
<g id="edge10" class="edge">
<title>Node10&#45;&gt;Node2</title>
<path fill="none" stroke="#404040" d="M698.2703,-479.6819C680.5638,-455.9576 652.8564,-422.7967 622.3014,-401 573.7666,-366.3774 511.6837,-340.5744 462.419,-323.5827"/>
<polygon fill="none" stroke="#404040" points="462.1995,-323.5085 455.2345,-325.3766 450.8313,-319.6659 457.7962,-317.7978 462.1995,-323.5085"/>
<text text-anchor="middle" x="655.3014" y="-404" font-family="Helvetica,sans-Serif" font-size="10.00" fill="#000000"> +object</text>
</g>
<!-- Node11&#45;&gt;Node2 -->
<g id="edge11" class="edge">
<title>Node11&#45;&gt;Node2</title>
<path fill="none" stroke="#ffa500" d="M379.3014,-420.1539C379.3014,-407.7421 379.3014,-395.0152 379.3014,-382.6937"/>
<polygon fill="#ffa500" stroke="#ffa500" points="375.8014,-420.4899 379.3014,-430.4899 382.8014,-420.49 375.8014,-420.4899"/>
<text text-anchor="middle" x="404.8014" y="-404" font-family="Helvetica,sans-Serif" font-size="10.00" fill="#000000"> &lt; TH1F &gt;</text>
</g>
<!-- Node12 -->
<g id="node12" class="node">
<title>Node12</title>
<polygon fill="none" stroke="#bfbfbf" points="294.8014,-662 294.8014,-719 391.8014,-719 391.8014,-662 294.8014,-662"/>
<text text-anchor="middle" x="343.3014" y="-707" font-family="Helvetica,sans-Serif" font-size="10.00" fill="#000000">shared_ptr&lt; T &gt;</text>
<polyline fill="none" stroke="#bfbfbf" points="294.8014,-700 391.8014,-700 "/>
<text text-anchor="middle" x="343.3014" y="-688" font-family="Helvetica,sans-Serif" font-size="10.00" fill="#000000"> </text>
<polyline fill="none" stroke="#bfbfbf" points="294.8014,-681 391.8014,-681 "/>
<text text-anchor="middle" x="343.3014" y="-669" font-family="Helvetica,sans-Serif" font-size="10.00" fill="#000000"> </text>
</g>
<!-- Node12&#45;&gt;Node11 -->
<g id="edge15" class="edge">
<title>Node12&#45;&gt;Node11</title>
<path fill="none" stroke="#404040" d="M341.2526,-661.7712C340.653,-645.0699 340.903,-623.6949 344.3014,-605 344.6965,-602.8261 345.1355,-600.6363 345.6132,-598.4375"/>
<polygon fill="none" stroke="#404040" points="345.6507,-598.2838 343.1936,-591.5043 348.5067,-586.6286 350.9638,-593.4082 345.6507,-598.2838"/>
<text text-anchor="middle" x="365.3014" y="-608" font-family="Helvetica,sans-Serif" font-size="10.00" fill="#000000"> +object</text>
</g>
</g>
</svg>
        <g id="navigator" transform="translate(0 0)" fill="#404254">
                <rect fill="#f2f5e9" fill-opacity="0.5" stroke="#606060" stroke-width=".5" x="0" y="0" width="60" height="60"/>
                <use id="zoomplus" xlink:href="#zoomPlus" x="17" y="9" onmousedown="handleZoom(evt,'in')"/>
                <use id="zoomminus" xlink:href="#zoomMin" x="42" y="9" onmousedown="handleZoom(evt,'out')"/>
                <use id="reset" xlink:href="#resetDef" x="30" y="36" onmousedown="handleReset()"/>
                <g id="arrowUp" xlink:href="#dirArrow" transform="translate(30 24)" onmousedown="handlePan(0,-1)">
                  <use xlink:href="#rim" fill="#404040">
                        <set attributeName="fill" to="#808080" begin="arrowUp.mouseover" end="arrowUp.mouseout"/>
                  </use>
                  <path fill="none" stroke="white" stroke-width="1.5" d="M0,-3.0v7 M-2.5,-0.5L0,-3.0L2.5,-0.5"/>
                </g>
                <g id="arrowRight" xlink:href="#dirArrow" transform="rotate(90) translate(36 -43)" onmousedown="handlePan(1,0)">
                  <use xlink:href="#rim" fill="#404040">
                        <set attributeName="fill" to="#808080" begin="arrowRight.mouseover" end="arrowRight.mouseout"/>
                  </use>
                  <path fill="none" stroke="white" stroke-width="1.5" d="M0,-3.0v7 M-2.5,-0.5L0,-3.0L2.5,-0.5"/>
                </g>
                <g id="arrowDown" xlink:href="#dirArrow" transform="rotate(180) translate(-30 -48)" onmousedown="handlePan(0,1)">
                  <use xlink:href="#rim" fill="#404040">
                        <set attributeName="fill" to="#808080" begin="arrowDown.mouseover" end="arrowDown.mouseout"/>
                  </use>
                  <path fill="none" stroke="white" stroke-width="1.5" d="M0,-3.0v7 M-2.5,-0.5L0,-3.0L2.5,-0.5"/>
                </g>
                <g id="arrowLeft" xlink:href="#dirArrow" transform="rotate(270) translate(-36 17)" onmousedown="handlePan(-1,0)">
                  <use xlink:href="#rim" fill="#404040">
                        <set attributeName="fill" to="#808080" begin="arrowLeft.mouseover" end="arrowLeft.mouseout"/>
                  </use>
                  <path fill="none" stroke="white" stroke-width="1.5" d="M0,-3.0v7 M-2.5,-0.5L0,-3.0L2.5,-0.5"/>
                </g>
        </g>
        <svg viewBox="0 0 15 15" width="100%" height="30px" preserveAspectRatio="xMaxYMin meet">
         <g id="arrow_out" transform="scale(0.3 0.3)">
          <a xlink:href="structTaskDzero__coll__graph_org.svg" target="_base">
           <rect id="button" ry="5" rx="5" y="6" x="6" height="38" width="38"
                fill="#f2f5e9" fill-opacity="0.5" stroke="#606060" stroke-width="1.0"/>
           <path id="arrow"
             d="M 11.500037,31.436501 C 11.940474,20.09759 22.043105,11.32322 32.158766,21.979434 L 37.068811,17.246167 C 37.068811,17.246167 37.088388,32 37.088388,32 L 22.160133,31.978069 C 22.160133,31.978069 26.997745,27.140456 26.997745,27.140456 C 18.528582,18.264221 13.291696,25.230495 11.500037,31.436501 z"
             style="fill:#404040;"/>
          </a>
         </g>
        </svg>
</svg>
