<?xml version="1.0" encoding="UTF-8" standalone="no"?>
<!DOCTYPE svg PUBLIC "-//W3C//DTD SVG 1.1//EN"
 "http://www.w3.org/Graphics/SVG/1.1/DTD/svg11.dtd">
<!-- Generated by graphviz version 2.40.1 (20161225.0304)
 -->
<!-- Title: /home/travis/build/AliceO2Group/AliceO2/Detectors/CTF/test Pages: 1 -->
<svg width="296pt" height="439pt"
 viewBox="0.00 0.00 296.00 439.00" xmlns="http://www.w3.org/2000/svg" xmlns:xlink="http://www.w3.org/1999/xlink">
<g id="graph0" class="graph" transform="scale(1 1) rotate(0) translate(4 435)">
<title>/home/travis/build/AliceO2Group/AliceO2/Detectors/CTF/test</title>
<g id="clust1" class="cluster">
<title>clusterdir_22c28337d94ed0b7d4c6655ee55d3b27</title>
<g id="a_clust1"><a xlink:href="dir_22c28337d94ed0b7d4c6655ee55d3b27.html" target="_top" xlink:title="CTF">
<polygon fill="#ddddee" stroke="#000000" points="58,-352 58,-423 128,-423 128,-352 58,-352"/>
<text text-anchor="middle" x="93" y="-411" font-family="Helvetica,sans-Serif" font-size="10.00" fill="#000000">CTF</text>
</a>
</g>
</g>
<!-- dir_f34bb2841ccfd4447c7217216c5f7129 -->
<g id="node1" class="node">
<title>dir_f34bb2841ccfd4447c7217216c5f7129</title>
<g id="a_node1"><a xlink:href="dir_f34bb2841ccfd4447c7217216c5f7129.html" target="_top" xlink:title="test">
<polygon fill="#eeeeff" stroke="#000000" points="120,-396 66,-396 66,-360 120,-360 120,-396"/>
<text text-anchor="middle" x="93" y="-375.5" font-family="Helvetica,sans-Serif" font-size="10.00" fill="#000000">test</text>
</a>
</g>
</g>
<!-- dir_d14e88a79bca429480864605ee348cef -->
<g id="node2" class="node">
<title>dir_d14e88a79bca429480864605ee348cef</title>
<g id="a_node2"><a xlink:href="dir_d14e88a79bca429480864605ee348cef.html" target="_top" xlink:title="FIT">
<polygon fill="none" stroke="#ff0000" points="120,-324 66,-324 66,-288 120,-288 120,-324"/>
<text text-anchor="middle" x="93" y="-303.5" font-family="Helvetica,sans-Serif" font-size="10.00" fill="#000000">FIT</text>
</a>
</g>
</g>
<!-- dir_f34bb2841ccfd4447c7217216c5f7129&#45;&gt;dir_d14e88a79bca429480864605ee348cef -->
<g id="edge7" class="edge">
<title>dir_f34bb2841ccfd4447c7217216c5f7129&#45;&gt;dir_d14e88a79bca429480864605ee348cef</title>
<path fill="none" stroke="#000000" d="M93,-359.8314C93,-352.131 93,-342.9743 93,-334.4166"/>
<polygon fill="#000000" stroke="#000000" points="96.5001,-334.4132 93,-324.4133 89.5001,-334.4133 96.5001,-334.4132"/>
<g id="a_edge7&#45;headlabel"><a xlink:href="dir_000421_000166.html" target="_top" xlink:title="3">
<text text-anchor="middle" x="99.3393" y="-335.5079" font-family="Helvetica,sans-Serif" font-size="10.00" fill="#000000">3</text>
</a>
</g>
</g>
<!-- dir_a597e8e061b11201a1dff411feb10d0b -->
<g id="node3" class="node">
<title>dir_a597e8e061b11201a1dff411feb10d0b</title>
<g id="a_node3"><a xlink:href="dir_a597e8e061b11201a1dff411feb10d0b.html" target="_top" xlink:title="TPC">
<polygon fill="none" stroke="#ff0000" points="288,-180 234,-180 234,-144 288,-144 288,-180"/>
<text text-anchor="middle" x="261" y="-159.5" font-family="Helvetica,sans-Serif" font-size="10.00" fill="#000000">TPC</text>
</a>
</g>
</g>
<!-- dir_f34bb2841ccfd4447c7217216c5f7129&#45;&gt;dir_a597e8e061b11201a1dff411feb10d0b -->
<g id="edge8" class="edge">
<title>dir_f34bb2841ccfd4447c7217216c5f7129&#45;&gt;dir_a597e8e061b11201a1dff411feb10d0b</title>
<path fill="none" stroke="#000000" d="M116.6822,-359.8327C144.8124,-337.2071 191.6162,-296.121 221,-252 233.9551,-232.5474 244.4793,-208.2098 251.4752,-189.7495"/>
<polygon fill="#000000" stroke="#000000" points="254.8324,-190.7604 254.9918,-180.1667 248.2609,-188.3487 254.8324,-190.7604"/>
<g id="a_edge8&#45;headlabel"><a xlink:href="dir_000421_000053.html" target="_top" xlink:title="1">
<text text-anchor="middle" x="256.2595" y="-192.613" font-family="Helvetica,sans-Serif" font-size="10.00" fill="#000000">1</text>
</a>
</g>
</g>
<!-- dir_1306292b77b40360479b729ac9ee7efe -->
<g id="node4" class="node">
<title>dir_1306292b77b40360479b729ac9ee7efe</title>
<g id="a_node4"><a xlink:href="dir_1306292b77b40360479b729ac9ee7efe.html" target="_top" xlink:title="ITSMFT">
<polygon fill="none" stroke="#ff0000" points="147,-36 93,-36 93,0 147,0 147,-36"/>
<text text-anchor="middle" x="120" y="-15.5" font-family="Helvetica,sans-Serif" font-size="10.00" fill="#000000">ITSMFT</text>
</a>
</g>
</g>
<!-- dir_f34bb2841ccfd4447c7217216c5f7129&#45;&gt;dir_1306292b77b40360479b729ac9ee7efe -->
<g id="edge9" class="edge">
<title>dir_f34bb2841ccfd4447c7217216c5f7129&#45;&gt;dir_1306292b77b40360479b729ac9ee7efe</title>
<path fill="none" stroke="#000000" d="M71.4302,-359.9468C43.957,-334.7991 0,-286.3785 0,-234 0,-234 0,-234 0,-162 0,-108.8995 48.7519,-64.9881 84.1078,-40.1247"/>
<polygon fill="#000000" stroke="#000000" points="86.4787,-42.7445 92.7701,-34.2199 82.5359,-36.9604 86.4787,-42.7445"/>
<g id="a_edge9&#45;headlabel"><a xlink:href="dir_000421_000047.html" target="_top" xlink:title="1">
<text text-anchor="middle" x="85.1077" y="-44.6151" font-family="Helvetica,sans-Serif" font-size="10.00" fill="#000000">1</text>
</a>
</g>
</g>
<!-- dir_bcbb2cf9a3d3d83e5515c82071a07177 -->
<g id="node5" class="node">
<title>dir_bcbb2cf9a3d3d83e5515c82071a07177</title>
<g id="a_node5"><a xlink:href="dir_bcbb2cf9a3d3d83e5515c82071a07177.html" target="_top" xlink:title="Framework">
<polygon fill="none" stroke="#ff0000" points="212.5,-252 141.5,-252 141.5,-216 212.5,-216 212.5,-252"/>
<text text-anchor="middle" x="177" y="-231.5" font-family="Helvetica,sans-Serif" font-size="10.00" fill="#000000">Framework</text>
</a>
</g>
</g>
<!-- dir_f34bb2841ccfd4447c7217216c5f7129&#45;&gt;dir_bcbb2cf9a3d3d83e5515c82071a07177 -->
<g id="edge10" class="edge">
<title>dir_f34bb2841ccfd4447c7217216c5f7129&#45;&gt;dir_bcbb2cf9a3d3d83e5515c82071a07177</title>
<path fill="none" stroke="#000000" d="M105.7847,-359.7932C112.8785,-349.456 121.7133,-336.1842 129,-324 141.2701,-303.4829 153.9475,-279.5767 163.1904,-261.5615"/>
<polygon fill="#000000" stroke="#000000" points="166.5293,-262.7175 167.9476,-252.218 160.2913,-259.5414 166.5293,-262.7175"/>
<g id="a_edge10&#45;headlabel"><a xlink:href="dir_000421_000015.html" target="_top" xlink:title="4">
<text text-anchor="middle" x="167.4286" y="-264.709" font-family="Helvetica,sans-Serif" font-size="10.00" fill="#000000">4</text>
</a>
</g>
</g>
<!-- dir_2171f7ec022c5423887b07c69b2f5b48 -->
<g id="node6" class="node">
<title>dir_2171f7ec022c5423887b07c69b2f5b48</title>
<g id="a_node6"><a xlink:href="dir_2171f7ec022c5423887b07c69b2f5b48.html" target="_top" xlink:title="DataFormats">
<polygon fill="none" stroke="#ff0000" points="160,-108 80,-108 80,-72 160,-72 160,-108"/>
<text text-anchor="middle" x="120" y="-87.5" font-family="Helvetica,sans-Serif" font-size="10.00" fill="#000000">DataFormats</text>
</a>
</g>
</g>
<!-- dir_f34bb2841ccfd4447c7217216c5f7129&#45;&gt;dir_2171f7ec022c5423887b07c69b2f5b48 -->
<g id="edge11" class="edge">
<title>dir_f34bb2841ccfd4447c7217216c5f7129&#45;&gt;dir_2171f7ec022c5423887b07c69b2f5b48</title>
<path fill="none" stroke="#000000" d="M77.0095,-359.9169C69.3462,-350.0371 60.9834,-337.1563 57,-324 52.3635,-308.6865 54.5453,-303.8106 57,-288 66.7541,-225.1738 92.9393,-155.0044 108.3073,-117.3826"/>
<polygon fill="#000000" stroke="#000000" points="111.5568,-118.6832 112.1486,-108.1049 105.0893,-116.0053 111.5568,-118.6832"/>
<g id="a_edge11&#45;headlabel"><a xlink:href="dir_000421_000080.html" target="_top" xlink:title="9">
<text text-anchor="middle" x="112.8051" y="-120.5905" font-family="Helvetica,sans-Serif" font-size="10.00" fill="#000000">9</text>
</a>
</g>
</g>
<!-- dir_d14e88a79bca429480864605ee348cef&#45;&gt;dir_bcbb2cf9a3d3d83e5515c82071a07177 -->
<g id="edge1" class="edge">
<title>dir_d14e88a79bca429480864605ee348cef&#45;&gt;dir_bcbb2cf9a3d3d83e5515c82071a07177</title>
<path fill="none" stroke="#000000" d="M114.1967,-287.8314C124.4434,-279.0485 136.9003,-268.3712 148.0097,-258.8489"/>
<polygon fill="#000000" stroke="#000000" points="150.4952,-261.3282 155.81,-252.1628 145.9397,-256.0134 150.4952,-261.3282"/>
<g id="a_edge1&#45;headlabel"><a xlink:href="dir_000166_000015.html" target="_top" xlink:title="97">
<text text-anchor="middle" x="149.6138" y="-263.3232" font-family="Helvetica,sans-Serif" font-size="10.00" fill="#000000">97</text>
</a>
</g>
</g>
<!-- dir_d14e88a79bca429480864605ee348cef&#45;&gt;dir_2171f7ec022c5423887b07c69b2f5b48 -->
<g id="edge2" class="edge">
<title>dir_d14e88a79bca429480864605ee348cef&#45;&gt;dir_2171f7ec022c5423887b07c69b2f5b48</title>
<path fill="none" stroke="#000000" d="M91.3097,-287.9555C92.5563,-250.3144 103.188,-163.1867 111.7606,-118.1246"/>
<polygon fill="#000000" stroke="#000000" points="115.227,-118.6402 113.7767,-108.1451 108.3657,-117.2539 115.227,-118.6402"/>
<g id="a_edge2&#45;headlabel"><a xlink:href="dir_000166_000080.html" target="_top" xlink:title="136">
<text text-anchor="middle" x="117.2983" y="-120.2258" font-family="Helvetica,sans-Serif" font-size="10.00" fill="#000000">136</text>
</a>
</g>
</g>
<!-- dir_a597e8e061b11201a1dff411feb10d0b&#45;&gt;dir_bcbb2cf9a3d3d83e5515c82071a07177 -->
<g id="edge3" class="edge">
<title>dir_a597e8e061b11201a1dff411feb10d0b&#45;&gt;dir_bcbb2cf9a3d3d83e5515c82071a07177</title>
<path fill="none" stroke="#000000" d="M245.7619,-180.1628C236.2812,-189.0301 223.8442,-199.8295 212.113,-209.4219"/>
<polygon fill="#000000" stroke="#000000" points="209.745,-206.8349 204.1491,-215.8314 214.1339,-212.2881 209.745,-206.8349"/>
<g id="a_edge3&#45;headlabel"><a xlink:href="dir_000053_000015.html" target="_top" xlink:title="104">
<text text-anchor="middle" x="210.7652" y="-199.8693" font-family="Helvetica,sans-Serif" font-size="10.00" fill="#000000">104</text>
</a>
</g>
</g>
<!-- dir_a597e8e061b11201a1dff411feb10d0b&#45;&gt;dir_2171f7ec022c5423887b07c69b2f5b48 -->
<g id="edge4" class="edge">
<title>dir_a597e8e061b11201a1dff411feb10d0b&#45;&gt;dir_2171f7ec022c5423887b07c69b2f5b48</title>
<path fill="none" stroke="#000000" d="M233.8138,-148.1177C214.1904,-138.0972 187.2572,-124.3441 164.5172,-112.7322"/>
<polygon fill="#000000" stroke="#000000" points="165.8847,-109.5006 155.3869,-108.0699 162.7012,-115.7348 165.8847,-109.5006"/>
<g id="a_edge4&#45;headlabel"><a xlink:href="dir_000053_000080.html" target="_top" xlink:title="183">
<text text-anchor="middle" x="170.3773" y="-106.1066" font-family="Helvetica,sans-Serif" font-size="10.00" fill="#000000">183</text>
</a>
</g>
</g>
<!-- dir_1306292b77b40360479b729ac9ee7efe&#45;&gt;dir_bcbb2cf9a3d3d83e5515c82071a07177 -->
<g id="edge5" class="edge">
<title>dir_1306292b77b40360479b729ac9ee7efe&#45;&gt;dir_bcbb2cf9a3d3d83e5515c82071a07177</title>
<path fill="none" stroke="#000000" d="M147.1657,-33.3194C159.1585,-43.1106 171.6958,-56.7982 178,-72 196.2018,-115.891 193.8844,-172.304 187.6124,-205.6629"/>
<polygon fill="#000000" stroke="#000000" points="184.1479,-205.125 185.4581,-215.6385 190.9902,-206.6027 184.1479,-205.125"/>
<g id="a_edge5&#45;headlabel"><a xlink:href="dir_000047_000015.html" target="_top" xlink:title="99">
<text text-anchor="middle" x="182.1314" y="-198.5121" font-family="Helvetica,sans-Serif" font-size="10.00" fill="#000000">99</text>
</a>
</g>
</g>
<!-- dir_1306292b77b40360479b729ac9ee7efe&#45;&gt;dir_2171f7ec022c5423887b07c69b2f5b48 -->
<g id="edge6" class="edge">
<title>dir_1306292b77b40360479b729ac9ee7efe&#45;&gt;dir_2171f7ec022c5423887b07c69b2f5b48</title>
<path fill="none" stroke="#000000" d="M125.976,-36.4133C126.7071,-44.0593 126.9203,-53.1084 126.6155,-61.5726"/>
<polygon fill="#000000" stroke="#000000" points="123.1048,-61.6264 125.9524,-71.8314 130.0902,-62.078 123.1048,-61.6264"/>
<g id="a_edge6&#45;headlabel"><a xlink:href="dir_000047_000080.html" target="_top" xlink:title="238">
<text text-anchor="middle" x="120.5032" y="-55.3562" font-family="Helvetica,sans-Serif" font-size="10.00" fill="#000000">238</text>
</a>
</g>
</g>
<!-- dir_bcbb2cf9a3d3d83e5515c82071a07177&#45;&gt;dir_a597e8e061b11201a1dff411feb10d0b -->
<g id="edge12" class="edge">
<title>dir_bcbb2cf9a3d3d83e5515c82071a07177&#45;&gt;dir_a597e8e061b11201a1dff411feb10d0b</title>
<path fill="none" stroke="#000000" d="M192.2444,-215.8314C201.7263,-206.9632 214.1638,-196.1637 225.8947,-186.5718"/>
<polygon fill="#000000" stroke="#000000" points="228.2622,-189.1592 233.8582,-180.1628 223.8734,-183.7059 228.2622,-189.1592"/>
<g id="a_edge12&#45;headlabel"><a xlink:href="dir_000015_000053.html" target="_top" xlink:title="1">
<text text-anchor="middle" x="227.242" y="-191.1248" font-family="Helvetica,sans-Serif" font-size="10.00" fill="#000000">1</text>
</a>
</g>
</g>
<!-- dir_bcbb2cf9a3d3d83e5515c82071a07177&#45;&gt;dir_1306292b77b40360479b729ac9ee7efe -->
<g id="edge13" class="edge">
<title>dir_bcbb2cf9a3d3d83e5515c82071a07177&#45;&gt;dir_1306292b77b40360479b729ac9ee7efe</title>
<path fill="none" stroke="#000000" d="M174.4739,-215.6385C175.1425,-184.6613 180.1716,-120.6411 160,-72 155.6636,-61.5433 148.3779,-51.803 141.1161,-43.5545"/>
<polygon fill="#000000" stroke="#000000" points="143.614,-41.1004 134.2581,-36.1285 138.4715,-45.8496 143.614,-41.1004"/>
<g id="a_edge13&#45;headlabel"><a xlink:href="dir_000015_000047.html" target="_top" xlink:title="1">
<text text-anchor="middle" x="148.1386" y="-39.3148" font-family="Helvetica,sans-Serif" font-size="10.00" fill="#000000">1</text>
</a>
</g>
</g>
<!-- dir_bcbb2cf9a3d3d83e5515c82071a07177&#45;&gt;dir_2171f7ec022c5423887b07c69b2f5b48 -->
<g id="edge14" class="edge">
<title>dir_bcbb2cf9a3d3d83e5515c82071a07177&#45;&gt;dir_2171f7ec022c5423887b07c69b2f5b48</title>
<path fill="none" stroke="#000000" d="M165.1077,-215.7623C152.8721,-191.0928 135.0969,-146.8598 125.6006,-117.9731"/>
<polygon fill="#000000" stroke="#000000" points="128.8334,-116.5847 122.5022,-108.0896 122.1539,-118.6787 128.8334,-116.5847"/>
<g id="a_edge14&#45;headlabel"><a xlink:href="dir_000015_000080.html" target="_top" xlink:title="82">
<text text-anchor="middle" x="132.6179" y="-116.6654" font-family="Helvetica,sans-Serif" font-size="10.00" fill="#000000">82</text>
</a>
</g>
</g>
<!-- dir_2171f7ec022c5423887b07c69b2f5b48&#45;&gt;dir_d14e88a79bca429480864605ee348cef -->
<g id="edge15" class="edge">
<title>dir_2171f7ec022c5423887b07c69b2f5b48&#45;&gt;dir_d14e88a79bca429480864605ee348cef</title>
<path fill="none" stroke="#000000" d="M121.687,-108.1451C120.4236,-145.8741 109.7855,-233.0083 101.2166,-277.9956"/>
<polygon fill="#000000" stroke="#000000" points="97.7541,-277.46 99.2015,-287.9555 104.6151,-278.8482 97.7541,-277.46"/>
<g id="a_edge15&#45;headlabel"><a xlink:href="dir_000080_000166.html" target="_top" xlink:title="3">
<text text-anchor="middle" x="95.6839" y="-270.8737" font-family="Helvetica,sans-Serif" font-size="10.00" fill="#000000">3</text>
</a>
</g>
</g>
<!-- dir_2171f7ec022c5423887b07c69b2f5b48&#45;&gt;dir_1306292b77b40360479b729ac9ee7efe -->
<g id="edge16" class="edge">
<title>dir_2171f7ec022c5423887b07c69b2f5b48&#45;&gt;dir_1306292b77b40360479b729ac9ee7efe</title>
<path fill="none" stroke="#000000" d="M114.0476,-71.8314C113.2972,-64.131 113.0763,-54.9743 113.3849,-46.4166"/>
<polygon fill="#000000" stroke="#000000" points="116.8792,-46.6161 114.024,-36.4133 109.8935,-46.1697 116.8792,-46.6161"/>
<g id="a_edge16&#45;headlabel"><a xlink:href="dir_000080_000047.html" target="_top" xlink:title="1">
<text text-anchor="middle" x="119.4836" y="-47.8844" font-family="Helvetica,sans-Serif" font-size="10.00" fill="#000000">1</text>
</a>
</g>
</g>
<!-- dir_2171f7ec022c5423887b07c69b2f5b48&#45;&gt;dir_bcbb2cf9a3d3d83e5515c82071a07177 -->
<g id="edge17" class="edge">
<title>dir_2171f7ec022c5423887b07c69b2f5b48&#45;&gt;dir_bcbb2cf9a3d3d83e5515c82071a07177</title>
<path fill="none" stroke="#000000" d="M131.8188,-108.0896C144.0321,-132.6805 161.8128,-176.905 171.3422,-205.8531"/>
<polygon fill="#000000" stroke="#000000" points="168.1187,-207.2704 174.4541,-215.7623 174.7971,-205.173 168.1187,-207.2704"/>
<g id="a_edge17&#45;headlabel"><a xlink:href="dir_000080_000015.html" target="_top" xlink:title="17">
<text text-anchor="middle" x="164.3329" y="-202.1915" font-family="Helvetica,sans-Serif" font-size="10.00" fill="#000000">17</text>
</a>
</g>
</g>
</g>
</svg>
