<?xml version="1.0" encoding="UTF-8" standalone="no"?>
<!DOCTYPE svg PUBLIC "-//W3C//DTD SVG 1.1//EN"
 "http://www.w3.org/Graphics/SVG/1.1/DTD/svg11.dtd">
<!-- Generated by graphviz version 2.40.1 (20161225.0304)
 -->
<!-- Title: /home/travis/build/AliceO2Group/AliceO2/Detectors/Vertexing Pages: 1 -->
<svg width="264pt" height="303pt"
 viewBox="0.00 0.00 264.00 303.00" xmlns="http://www.w3.org/2000/svg" xmlns:xlink="http://www.w3.org/1999/xlink">
<g id="graph0" class="graph" transform="scale(1 1) rotate(0) translate(4 299)">
<title>/home/travis/build/AliceO2Group/AliceO2/Detectors/Vertexing</title>
<g id="clust1" class="cluster">
<title>clusterdir_051dca18e802f8e9474f2e30d29c04e0</title>
<g id="a_clust1"><a xlink:href="dir_051dca18e802f8e9474f2e30d29c04e0.html" target="_top" xlink:title="Detectors">
<polygon fill="#ddddee" stroke="#000000" points="8,-128 8,-287 248,-287 248,-128 8,-128"/>
<text text-anchor="middle" x="128" y="-275" font-family="Helvetica,sans-Serif" font-size="10.00" fill="#000000">Detectors</text>
</a>
</g>
</g>
<g id="clust2" class="cluster">
<title>clusterdir_411c6bed3d84b00fddab3a93c8a3b5fb</title>
<g id="a_clust2"><a xlink:href="dir_411c6bed3d84b00fddab3a93c8a3b5fb.html" target="_top">
<polygon fill="#eeeeff" stroke="#000000" points="16,-136 16,-260 240,-260 240,-136 16,-136"/>
</a>
</g>
</g>
<!-- dir_411c6bed3d84b00fddab3a93c8a3b5fb -->
<g id="node1" class="node">
<title>dir_411c6bed3d84b00fddab3a93c8a3b5fb</title>
<text text-anchor="middle" x="200" y="-231.5" font-family="Helvetica,sans-Serif" font-size="10.00" fill="#000000">Vertexing</text>
</g>
<!-- dir_685195b2337b28da095e36f150390e16 -->
<g id="node2" class="node">
<title>dir_685195b2337b28da095e36f150390e16</title>
<g id="a_node2"><a xlink:href="dir_685195b2337b28da095e36f150390e16.html" target="_top" xlink:title="include">
<polygon fill="#ffffff" stroke="#ff0000" points="78,-180 24,-180 24,-144 78,-144 78,-180"/>
<text text-anchor="middle" x="51" y="-159.5" font-family="Helvetica,sans-Serif" font-size="10.00" fill="#000000">include</text>
</a>
</g>
</g>
<!-- dir_4ab6b4cc6a7edbff49100e9123df213f -->
<g id="node5" class="node">
<title>dir_4ab6b4cc6a7edbff49100e9123df213f</title>
<g id="a_node5"><a xlink:href="dir_4ab6b4cc6a7edbff49100e9123df213f.html" target="_top" xlink:title="Common">
<polygon fill="none" stroke="#ff0000" points="126.5,-108 65.5,-108 65.5,-72 126.5,-72 126.5,-108"/>
<text text-anchor="middle" x="96" y="-87.5" font-family="Helvetica,sans-Serif" font-size="10.00" fill="#000000">Common</text>
</a>
</g>
</g>
<!-- dir_685195b2337b28da095e36f150390e16&#45;&gt;dir_4ab6b4cc6a7edbff49100e9123df213f -->
<g id="edge4" class="edge">
<title>dir_685195b2337b28da095e36f150390e16&#45;&gt;dir_4ab6b4cc6a7edbff49100e9123df213f</title>
<path fill="none" stroke="#000000" d="M62.3554,-143.8314C67.4326,-135.7079 73.5227,-125.9637 79.1176,-117.0118"/>
<polygon fill="#000000" stroke="#000000" points="82.1597,-118.7483 84.4917,-108.4133 76.2237,-115.0383 82.1597,-118.7483"/>
<g id="a_edge4&#45;headlabel"><a xlink:href="dir_000659_000031.html" target="_top" xlink:title="4">
<text text-anchor="middle" x="82.6623" y="-120.8013" font-family="Helvetica,sans-Serif" font-size="10.00" fill="#000000">4</text>
</a>
</g>
</g>
<!-- dir_2171f7ec022c5423887b07c69b2f5b48 -->
<g id="node6" class="node">
<title>dir_2171f7ec022c5423887b07c69b2f5b48</title>
<g id="a_node6"><a xlink:href="dir_2171f7ec022c5423887b07c69b2f5b48.html" target="_top" xlink:title="DataFormats">
<polygon fill="none" stroke="#ff0000" points="136,-36 56,-36 56,0 136,0 136,-36"/>
<text text-anchor="middle" x="96" y="-15.5" font-family="Helvetica,sans-Serif" font-size="10.00" fill="#000000">DataFormats</text>
</a>
</g>
</g>
<!-- dir_685195b2337b28da095e36f150390e16&#45;&gt;dir_2171f7ec022c5423887b07c69b2f5b48 -->
<g id="edge5" class="edge">
<title>dir_685195b2337b28da095e36f150390e16&#45;&gt;dir_2171f7ec022c5423887b07c69b2f5b48</title>
<path fill="none" stroke="#000000" d="M49.0195,-143.8069C47.6715,-125.185 47.443,-95.6974 56,-72 59.5662,-62.124 65.5687,-52.5178 71.8538,-44.2124"/>
<polygon fill="#000000" stroke="#000000" points="74.6141,-46.365 78.1533,-36.3788 69.1591,-41.9783 74.6141,-46.365"/>
<g id="a_edge5&#45;headlabel"><a xlink:href="dir_000659_000080.html" target="_top" xlink:title="13">
<text text-anchor="middle" x="74.5741" y="-48.4455" font-family="Helvetica,sans-Serif" font-size="10.00" fill="#000000">13</text>
</a>
</g>
</g>
<!-- dir_883dc5fa98effd9ea20067bac655f28b -->
<g id="node3" class="node">
<title>dir_883dc5fa98effd9ea20067bac655f28b</title>
<g id="a_node3"><a xlink:href="dir_883dc5fa98effd9ea20067bac655f28b.html" target="_top" xlink:title="src">
<polygon fill="#ffffff" stroke="#000000" points="150,-252 96,-252 96,-216 150,-216 150,-252"/>
<text text-anchor="middle" x="123" y="-231.5" font-family="Helvetica,sans-Serif" font-size="10.00" fill="#000000">src</text>
</a>
</g>
</g>
<!-- dir_883dc5fa98effd9ea20067bac655f28b&#45;&gt;dir_685195b2337b28da095e36f150390e16 -->
<g id="edge1" class="edge">
<title>dir_883dc5fa98effd9ea20067bac655f28b&#45;&gt;dir_685195b2337b28da095e36f150390e16</title>
<path fill="none" stroke="#000000" d="M104.8314,-215.8314C96.2848,-207.2848 85.9443,-196.9443 76.6198,-187.6198"/>
<polygon fill="#000000" stroke="#000000" points="78.9592,-185.0095 69.4133,-180.4133 74.0095,-189.9592 78.9592,-185.0095"/>
<g id="a_edge1&#45;headlabel"><a xlink:href="dir_000661_000659.html" target="_top" xlink:title="4">
<text text-anchor="middle" x="83.5087" y="-183.0436" font-family="Helvetica,sans-Serif" font-size="10.00" fill="#000000">4</text>
</a>
</g>
</g>
<!-- dir_883dc5fa98effd9ea20067bac655f28b&#45;&gt;dir_2171f7ec022c5423887b07c69b2f5b48 -->
<g id="edge2" class="edge">
<title>dir_883dc5fa98effd9ea20067bac655f28b&#45;&gt;dir_2171f7ec022c5423887b07c69b2f5b48</title>
<path fill="none" stroke="#000000" d="M128.928,-215.9575C137.9773,-185.4502 152.536,-122.1046 136,-72 132.7092,-62.0288 126.7884,-52.3944 120.4936,-44.0924"/>
<polygon fill="#000000" stroke="#000000" points="123.172,-41.8384 114.1576,-36.2714 117.7328,-46.2448 123.172,-41.8384"/>
<g id="a_edge2&#45;headlabel"><a xlink:href="dir_000661_000080.html" target="_top" xlink:title="1">
<text text-anchor="middle" x="127.6408" y="-40.3442" font-family="Helvetica,sans-Serif" font-size="10.00" fill="#000000">1</text>
</a>
</g>
</g>
<!-- dir_a132bc2c584076a38e235eca4d667b8c -->
<g id="node4" class="node">
<title>dir_a132bc2c584076a38e235eca4d667b8c</title>
<g id="a_node4"><a xlink:href="dir_a132bc2c584076a38e235eca4d667b8c.html" target="_top" xlink:title="test">
<polygon fill="#ffffff" stroke="#000000" points="78,-252 24,-252 24,-216 78,-216 78,-252"/>
<text text-anchor="middle" x="51" y="-231.5" font-family="Helvetica,sans-Serif" font-size="10.00" fill="#000000">test</text>
</a>
</g>
</g>
<!-- dir_a132bc2c584076a38e235eca4d667b8c&#45;&gt;dir_685195b2337b28da095e36f150390e16 -->
<g id="edge7" class="edge">
<title>dir_a132bc2c584076a38e235eca4d667b8c&#45;&gt;dir_685195b2337b28da095e36f150390e16</title>
<path fill="none" stroke="#000000" d="M51,-215.8314C51,-208.131 51,-198.9743 51,-190.4166"/>
<polygon fill="#000000" stroke="#000000" points="54.5001,-190.4132 51,-180.4133 47.5001,-190.4133 54.5001,-190.4132"/>
<g id="a_edge7&#45;headlabel"><a xlink:href="dir_000662_000659.html" target="_top" xlink:title="1">
<text text-anchor="middle" x="57.3393" y="-191.5079" font-family="Helvetica,sans-Serif" font-size="10.00" fill="#000000">1</text>
</a>
</g>
</g>
<!-- dir_a132bc2c584076a38e235eca4d667b8c&#45;&gt;dir_4ab6b4cc6a7edbff49100e9123df213f -->
<g id="edge6" class="edge">
<title>dir_a132bc2c584076a38e235eca4d667b8c&#45;&gt;dir_4ab6b4cc6a7edbff49100e9123df213f</title>
<path fill="none" stroke="#000000" d="M66.4559,-215.7404C73.9729,-205.8123 82.3662,-192.9416 87,-180 94.091,-160.196 96.2253,-136.4747 96.6486,-118.3582"/>
<polygon fill="#000000" stroke="#000000" points="100.15,-118.175 96.7226,-108.1499 93.1502,-118.1242 100.15,-118.175"/>
<g id="a_edge6&#45;headlabel"><a xlink:href="dir_000662_000031.html" target="_top" xlink:title="1">
<text text-anchor="middle" x="102.9632" y="-119.2901" font-family="Helvetica,sans-Serif" font-size="10.00" fill="#000000">1</text>
</a>
</g>
</g>
<!-- dir_4ab6b4cc6a7edbff49100e9123df213f&#45;&gt;dir_2171f7ec022c5423887b07c69b2f5b48 -->
<g id="edge3" class="edge">
<title>dir_4ab6b4cc6a7edbff49100e9123df213f&#45;&gt;dir_2171f7ec022c5423887b07c69b2f5b48</title>
<path fill="none" stroke="#000000" d="M90.0476,-71.8314C89.2972,-64.131 89.0763,-54.9743 89.3849,-46.4166"/>
<polygon fill="#000000" stroke="#000000" points="92.8792,-46.6161 90.024,-36.4133 85.8935,-46.1697 92.8792,-46.6161"/>
<g id="a_edge3&#45;headlabel"><a xlink:href="dir_000031_000080.html" target="_top" xlink:title="2">
<text text-anchor="middle" x="95.4836" y="-47.8844" font-family="Helvetica,sans-Serif" font-size="10.00" fill="#000000">2</text>
</a>
</g>
</g>
<!-- dir_2171f7ec022c5423887b07c69b2f5b48&#45;&gt;dir_4ab6b4cc6a7edbff49100e9123df213f -->
<g id="edge8" class="edge">
<title>dir_2171f7ec022c5423887b07c69b2f5b48&#45;&gt;dir_4ab6b4cc6a7edbff49100e9123df213f</title>
<path fill="none" stroke="#000000" d="M101.976,-36.4133C102.7071,-44.0593 102.9203,-53.1084 102.6155,-61.5726"/>
<polygon fill="#000000" stroke="#000000" points="99.1048,-61.6264 101.9524,-71.8314 106.0902,-62.078 99.1048,-61.6264"/>
<g id="a_edge8&#45;headlabel"><a xlink:href="dir_000080_000031.html" target="_top" xlink:title="36">
<text text-anchor="middle" x="96.5032" y="-55.3562" font-family="Helvetica,sans-Serif" font-size="10.00" fill="#000000">36</text>
</a>
</g>
</g>
</g>
</svg>
