<?xml version="1.0" encoding="UTF-8" standalone="no"?>
<!DOCTYPE svg PUBLIC "-//W3C//DTD SVG 1.1//EN"
 "http://www.w3.org/Graphics/SVG/1.1/DTD/svg11.dtd">
<!-- Generated by graphviz version 2.40.1 (20161225.0304)
 -->
<!-- Title: /home/travis/build/AliceO2Group/AliceO2/Analysis/Tasks Pages: 1 -->
<svg width="345pt" height="519pt"
 viewBox="0.00 0.00 344.56 519.00" xmlns="http://www.w3.org/2000/svg" xmlns:xlink="http://www.w3.org/1999/xlink">
<g id="graph0" class="graph" transform="scale(1 1) rotate(0) translate(4 515)">
<title>/home/travis/build/AliceO2Group/AliceO2/Analysis/Tasks</title>
<g id="clust1" class="cluster">
<title>clusterdir_19b17cb436010079e3d017a29cb7858f</title>
<g id="a_clust1"><a xlink:href="dir_19b17cb436010079e3d017a29cb7858f.html" target="_top" xlink:title="Analysis">
<polygon fill="#ddddee" stroke="#000000" points="93,-416 93,-503 325,-503 325,-416 93,-416"/>
<text text-anchor="middle" x="209" y="-491" font-family="Helvetica,sans-Serif" font-size="10.00" fill="#000000">Analysis</text>
</a>
</g>
</g>
<g id="clust2" class="cluster">
<title>clusterdir_eff7324435ca3301414fec6c28c4adf5</title>
<g id="a_clust2"><a xlink:href="dir_eff7324435ca3301414fec6c28c4adf5.html" target="_top">
<polygon fill="#eeeeff" stroke="#000000" points="101,-424 101,-476 317,-476 317,-424 101,-424"/>
</a>
</g>
</g>
<!-- dir_eff7324435ca3301414fec6c28c4adf5 -->
<g id="node1" class="node">
<title>dir_eff7324435ca3301414fec6c28c4adf5</title>
<text text-anchor="middle" x="136" y="-447.5" font-family="Helvetica,sans-Serif" font-size="10.00" fill="#000000">Tasks</text>
</g>
<!-- dir_6af676bf18881990e4083e191d0e63e0 -->
<g id="node4" class="node">
<title>dir_6af676bf18881990e4083e191d0e63e0</title>
<g id="a_node4"><a xlink:href="dir_6af676bf18881990e4083e191d0e63e0.html" target="_top" xlink:title="CCDB">
<polygon fill="none" stroke="#ff0000" points="200,-252 146,-252 146,-216 200,-216 200,-252"/>
<text text-anchor="middle" x="173" y="-231.5" font-family="Helvetica,sans-Serif" font-size="10.00" fill="#000000">CCDB</text>
</a>
</g>
</g>
<!-- dir_eff7324435ca3301414fec6c28c4adf5&#45;&gt;dir_6af676bf18881990e4083e191d0e63e0 -->
<g id="edge16" class="edge">
<title>dir_eff7324435ca3301414fec6c28c4adf5&#45;&gt;dir_6af676bf18881990e4083e191d0e63e0</title>
<path fill="none" stroke="#000000" d="M139.091,-431.9555C145.5387,-394.3144 160.4634,-307.1867 168.1824,-262.1246"/>
<polygon fill="#000000" stroke="#000000" points="171.6531,-262.5925 169.8918,-252.1451 164.7536,-261.4105 171.6531,-262.5925"/>
<g id="a_edge16&#45;headlabel"><a xlink:href="dir_000018_000023.html" target="_top" xlink:title="5">
<text text-anchor="middle" x="173.8448" y="-264.1148" font-family="Helvetica,sans-Serif" font-size="10.00" fill="#000000">5</text>
</a>
</g>
</g>
<!-- dir_051dca18e802f8e9474f2e30d29c04e0 -->
<g id="node5" class="node">
<title>dir_051dca18e802f8e9474f2e30d29c04e0</title>
<g id="a_node5"><a xlink:href="dir_051dca18e802f8e9474f2e30d29c04e0.html" target="_top" xlink:title="Detectors">
<polygon fill="none" stroke="#ff0000" points="187,-108 123,-108 123,-72 187,-72 187,-108"/>
<text text-anchor="middle" x="155" y="-87.5" font-family="Helvetica,sans-Serif" font-size="10.00" fill="#000000">Detectors</text>
</a>
</g>
</g>
<!-- dir_eff7324435ca3301414fec6c28c4adf5&#45;&gt;dir_051dca18e802f8e9474f2e30d29c04e0 -->
<g id="edge17" class="edge">
<title>dir_eff7324435ca3301414fec6c28c4adf5&#45;&gt;dir_051dca18e802f8e9474f2e30d29c04e0</title>
<path fill="none" stroke="#000000" d="M122.9809,-431.9118C105.3344,-405.5658 76,-354.4792 76,-306 76,-306 76,-306 76,-234 76,-188.2601 107.0163,-143.3042 130.1801,-116.1079"/>
<polygon fill="#000000" stroke="#000000" points="133.1058,-118.0804 137.0737,-108.2566 127.8457,-113.4618 133.1058,-118.0804"/>
<g id="a_edge17&#45;headlabel"><a xlink:href="dir_000018_000043.html" target="_top" xlink:title="5">
<text text-anchor="middle" x="132.8677" y="-120.1548" font-family="Helvetica,sans-Serif" font-size="10.00" fill="#000000">5</text>
</a>
</g>
</g>
<!-- dir_2171f7ec022c5423887b07c69b2f5b48 -->
<g id="node9" class="node">
<title>dir_2171f7ec022c5423887b07c69b2f5b48</title>
<g id="a_node9"><a xlink:href="dir_2171f7ec022c5423887b07c69b2f5b48.html" target="_top" xlink:title="DataFormats">
<polygon fill="none" stroke="#ff0000" points="195,-36 115,-36 115,0 195,0 195,-36"/>
<text text-anchor="middle" x="155" y="-15.5" font-family="Helvetica,sans-Serif" font-size="10.00" fill="#000000">DataFormats</text>
</a>
</g>
</g>
<!-- dir_eff7324435ca3301414fec6c28c4adf5&#45;&gt;dir_2171f7ec022c5423887b07c69b2f5b48 -->
<g id="edge18" class="edge">
<title>dir_eff7324435ca3301414fec6c28c4adf5&#45;&gt;dir_2171f7ec022c5423887b07c69b2f5b48</title>
<path fill="none" stroke="#000000" d="M108.8052,-436.725C69.117,-415.2188 0,-368.7568 0,-306 0,-306 0,-306 0,-162 0,-116.0242 17.9002,-103.9089 51,-72 66.4743,-57.0824 86.8894,-45.2805 105.5316,-36.5634"/>
<polygon fill="#000000" stroke="#000000" points="107.1035,-39.6943 114.7961,-32.4091 104.2394,-33.3071 107.1035,-39.6943"/>
<g id="a_edge18&#45;headlabel"><a xlink:href="dir_000018_000080.html" target="_top" xlink:title="8">
<text text-anchor="middle" x="104.9853" y="-41.2558" font-family="Helvetica,sans-Serif" font-size="10.00" fill="#000000">8</text>
</a>
</g>
</g>
<!-- dir_3569a90be80eaa72c08f21910e2b4e5e -->
<g id="node2" class="node">
<title>dir_3569a90be80eaa72c08f21910e2b4e5e</title>
<g id="a_node2"><a xlink:href="dir_3569a90be80eaa72c08f21910e2b4e5e.html" target="_top" xlink:title="PWGCF">
<polygon fill="#ffffff" stroke="#000000" points="309,-468 255,-468 255,-432 309,-432 309,-468"/>
<text text-anchor="middle" x="282" y="-447.5" font-family="Helvetica,sans-Serif" font-size="10.00" fill="#000000">PWGCF</text>
</a>
</g>
</g>
<!-- dir_f41dd59f861c855ea21b0dc3111cb7b0 -->
<g id="node6" class="node">
<title>dir_f41dd59f861c855ea21b0dc3111cb7b0</title>
<g id="a_node6"><a xlink:href="dir_f41dd59f861c855ea21b0dc3111cb7b0.html" target="_top" xlink:title="DataModel">
<polygon fill="none" stroke="#ff0000" points="233.5,-396 164.5,-396 164.5,-360 233.5,-360 233.5,-396"/>
<text text-anchor="middle" x="199" y="-375.5" font-family="Helvetica,sans-Serif" font-size="10.00" fill="#000000">DataModel</text>
</a>
</g>
</g>
<!-- dir_3569a90be80eaa72c08f21910e2b4e5e&#45;&gt;dir_f41dd59f861c855ea21b0dc3111cb7b0 -->
<g id="edge8" class="edge">
<title>dir_3569a90be80eaa72c08f21910e2b4e5e&#45;&gt;dir_f41dd59f861c855ea21b0dc3111cb7b0</title>
<path fill="none" stroke="#000000" d="M262.5881,-431.807C256.9685,-426.6374 250.7877,-421.0436 245,-416 240.0801,-411.7126 234.7958,-407.234 229.6245,-402.918"/>
<polygon fill="#000000" stroke="#000000" points="231.5935,-400.0042 221.6597,-396.3205 227.1281,-405.395 231.5935,-400.0042"/>
<g id="a_edge8&#45;headlabel"><a xlink:href="dir_000019_000009.html" target="_top" xlink:title="3">
<text text-anchor="middle" x="236.1729" y="-397.6107" font-family="Helvetica,sans-Serif" font-size="10.00" fill="#000000">3</text>
</a>
</g>
</g>
<!-- dir_8d04f135a1eb0fdc4d561ef87bbea216 -->
<g id="node7" class="node">
<title>dir_8d04f135a1eb0fdc4d561ef87bbea216</title>
<g id="a_node7"><a xlink:href="dir_8d04f135a1eb0fdc4d561ef87bbea216.html" target="_top" xlink:title="Core">
<polygon fill="none" stroke="#ff0000" points="310,-324 256,-324 256,-288 310,-288 310,-324"/>
<text text-anchor="middle" x="283" y="-303.5" font-family="Helvetica,sans-Serif" font-size="10.00" fill="#000000">Core</text>
</a>
</g>
</g>
<!-- dir_3569a90be80eaa72c08f21910e2b4e5e&#45;&gt;dir_8d04f135a1eb0fdc4d561ef87bbea216 -->
<g id="edge9" class="edge">
<title>dir_3569a90be80eaa72c08f21910e2b4e5e&#45;&gt;dir_8d04f135a1eb0fdc4d561ef87bbea216</title>
<path fill="none" stroke="#000000" d="M282.1267,-431.7623C282.2972,-407.201 282.6024,-363.2474 282.8031,-334.3541"/>
<polygon fill="#000000" stroke="#000000" points="286.3048,-334.1137 282.8744,-324.0896 279.3049,-334.065 286.3048,-334.1137"/>
<g id="a_edge9&#45;headlabel"><a xlink:href="dir_000019_000005.html" target="_top" xlink:title="1">
<text text-anchor="middle" x="289.1191" y="-335.2279" font-family="Helvetica,sans-Serif" font-size="10.00" fill="#000000">1</text>
</a>
</g>
</g>
<!-- dir_bcbb2cf9a3d3d83e5515c82071a07177 -->
<g id="node8" class="node">
<title>dir_bcbb2cf9a3d3d83e5515c82071a07177</title>
<g id="a_node8"><a xlink:href="dir_bcbb2cf9a3d3d83e5515c82071a07177.html" target="_top" xlink:title="Framework">
<polygon fill="none" stroke="#ff0000" points="259.5,-180 188.5,-180 188.5,-144 259.5,-144 259.5,-180"/>
<text text-anchor="middle" x="224" y="-159.5" font-family="Helvetica,sans-Serif" font-size="10.00" fill="#000000">Framework</text>
</a>
</g>
</g>
<!-- dir_3569a90be80eaa72c08f21910e2b4e5e&#45;&gt;dir_bcbb2cf9a3d3d83e5515c82071a07177 -->
<g id="edge10" class="edge">
<title>dir_3569a90be80eaa72c08f21910e2b4e5e&#45;&gt;dir_bcbb2cf9a3d3d83e5515c82071a07177</title>
<path fill="none" stroke="#000000" d="M293.9925,-431.9988C312.1859,-402.5759 343.7692,-342.0381 335,-288 329.5969,-254.7046 331.9075,-242.4699 311,-216 299.7625,-201.7728 283.6713,-190.3112 268.377,-181.6695"/>
<polygon fill="#000000" stroke="#000000" points="269.973,-178.5539 259.5068,-176.9077 266.6621,-184.7214 269.973,-178.5539"/>
<g id="a_edge10&#45;headlabel"><a xlink:href="dir_000019_000015.html" target="_top" xlink:title="4">
<text text-anchor="middle" x="274.483" y="-175.2524" font-family="Helvetica,sans-Serif" font-size="10.00" fill="#000000">4</text>
</a>
</g>
</g>
<!-- dir_33cf0c601043fc8ee8b69130538d8a5b -->
<g id="node3" class="node">
<title>dir_33cf0c601043fc8ee8b69130538d8a5b</title>
<g id="a_node3"><a xlink:href="dir_33cf0c601043fc8ee8b69130538d8a5b.html" target="_top" xlink:title="PWGDQ">
<polygon fill="#ffffff" stroke="#000000" points="236.5,-468 181.5,-468 181.5,-432 236.5,-432 236.5,-468"/>
<text text-anchor="middle" x="209" y="-447.5" font-family="Helvetica,sans-Serif" font-size="10.00" fill="#000000">PWGDQ</text>
</a>
</g>
</g>
<!-- dir_33cf0c601043fc8ee8b69130538d8a5b&#45;&gt;dir_f41dd59f861c855ea21b0dc3111cb7b0 -->
<g id="edge5" class="edge">
<title>dir_33cf0c601043fc8ee8b69130538d8a5b&#45;&gt;dir_f41dd59f861c855ea21b0dc3111cb7b0</title>
<path fill="none" stroke="#000000" d="M206.4766,-431.8314C205.4071,-424.131 204.1353,-414.9743 202.9468,-406.4166"/>
<polygon fill="#000000" stroke="#000000" points="206.3999,-405.8367 201.5574,-396.4133 199.4664,-406.7997 206.3999,-405.8367"/>
<g id="a_edge5&#45;headlabel"><a xlink:href="dir_000020_000009.html" target="_top" xlink:title="6">
<text text-anchor="middle" x="209.7066" y="-406.5065" font-family="Helvetica,sans-Serif" font-size="10.00" fill="#000000">6</text>
</a>
</g>
</g>
<!-- dir_33cf0c601043fc8ee8b69130538d8a5b&#45;&gt;dir_8d04f135a1eb0fdc4d561ef87bbea216 -->
<g id="edge6" class="edge">
<title>dir_33cf0c601043fc8ee8b69130538d8a5b&#45;&gt;dir_8d04f135a1eb0fdc4d561ef87bbea216</title>
<path fill="none" stroke="#000000" d="M220.8653,-431.8268C227.4136,-421.5001 235.5092,-408.2276 242,-396 252.8681,-375.5263 263.6755,-351.6177 271.4639,-333.5906"/>
<polygon fill="#000000" stroke="#000000" points="274.7487,-334.8106 275.4614,-324.2397 268.3122,-332.0589 274.7487,-334.8106"/>
<g id="a_edge6&#45;headlabel"><a xlink:href="dir_000020_000005.html" target="_top" xlink:title="7">
<text text-anchor="middle" x="275.9465" y="-336.7319" font-family="Helvetica,sans-Serif" font-size="10.00" fill="#000000">7</text>
</a>
</g>
</g>
<!-- dir_33cf0c601043fc8ee8b69130538d8a5b&#45;&gt;dir_bcbb2cf9a3d3d83e5515c82071a07177 -->
<g id="edge7" class="edge">
<title>dir_33cf0c601043fc8ee8b69130538d8a5b&#45;&gt;dir_bcbb2cf9a3d3d83e5515c82071a07177</title>
<path fill="none" stroke="#000000" d="M229.204,-431.9907C240.2097,-421.824 253.8231,-408.6529 265,-396 291.4817,-366.0213 306.3509,-361.9473 319,-324 336.4676,-271.5972 289.2088,-217.6033 255.2439,-187.0748"/>
<polygon fill="#000000" stroke="#000000" points="257.2054,-184.141 247.3716,-180.1979 252.6001,-189.4128 257.2054,-184.141"/>
<g id="a_edge7&#45;headlabel"><a xlink:href="dir_000020_000015.html" target="_top" xlink:title="7">
<text text-anchor="middle" x="261.7805" y="-181.8675" font-family="Helvetica,sans-Serif" font-size="10.00" fill="#000000">7</text>
</a>
</g>
</g>
<!-- dir_6af676bf18881990e4083e191d0e63e0&#45;&gt;dir_bcbb2cf9a3d3d83e5515c82071a07177 -->
<g id="edge1" class="edge">
<title>dir_6af676bf18881990e4083e191d0e63e0&#45;&gt;dir_bcbb2cf9a3d3d83e5515c82071a07177</title>
<path fill="none" stroke="#000000" d="M185.8695,-215.8314C191.6835,-207.6232 198.6696,-197.7606 205.0646,-188.7323"/>
<polygon fill="#000000" stroke="#000000" points="208.0331,-190.5966 210.9573,-180.4133 202.321,-186.5505 208.0331,-190.5966"/>
<g id="a_edge1&#45;headlabel"><a xlink:href="dir_000023_000015.html" target="_top" xlink:title="2">
<text text-anchor="middle" x="208.2723" y="-192.671" font-family="Helvetica,sans-Serif" font-size="10.00" fill="#000000">2</text>
</a>
</g>
</g>
<!-- dir_051dca18e802f8e9474f2e30d29c04e0&#45;&gt;dir_6af676bf18881990e4083e191d0e63e0 -->
<g id="edge2" class="edge">
<title>dir_051dca18e802f8e9474f2e30d29c04e0&#45;&gt;dir_6af676bf18881990e4083e191d0e63e0</title>
<path fill="none" stroke="#000000" d="M157.2612,-108.0896C160.3216,-132.5727 165.8147,-176.5174 169.4339,-205.4713"/>
<polygon fill="#000000" stroke="#000000" points="166.0069,-206.2737 170.7203,-215.7623 172.9528,-205.4054 166.0069,-206.2737"/>
<g id="a_edge2&#45;headlabel"><a xlink:href="dir_000043_000023.html" target="_top" xlink:title="29">
<text text-anchor="middle" x="162.7438" y="-200.559" font-family="Helvetica,sans-Serif" font-size="10.00" fill="#000000">29</text>
</a>
</g>
</g>
<!-- dir_051dca18e802f8e9474f2e30d29c04e0&#45;&gt;dir_bcbb2cf9a3d3d83e5515c82071a07177 -->
<g id="edge3" class="edge">
<title>dir_051dca18e802f8e9474f2e30d29c04e0&#45;&gt;dir_bcbb2cf9a3d3d83e5515c82071a07177</title>
<path fill="none" stroke="#000000" d="M178.3579,-108.1628C187.3602,-116.6891 197.425,-127.0016 205.878,-136.3099"/>
<polygon fill="#000000" stroke="#000000" points="203.29,-138.6667 212.5408,-143.8314 208.5298,-134.0251 203.29,-138.6667"/>
<g id="a_edge3&#45;headlabel"><a xlink:href="dir_000043_000015.html" target="_top" xlink:title="866">
<text text-anchor="middle" x="198.7812" y="-135.3587" font-family="Helvetica,sans-Serif" font-size="10.00" fill="#000000">866</text>
</a>
</g>
</g>
<!-- dir_051dca18e802f8e9474f2e30d29c04e0&#45;&gt;dir_2171f7ec022c5423887b07c69b2f5b48 -->
<g id="edge4" class="edge">
<title>dir_051dca18e802f8e9474f2e30d29c04e0&#45;&gt;dir_2171f7ec022c5423887b07c69b2f5b48</title>
<path fill="none" stroke="#000000" d="M149.0476,-71.8314C148.2972,-64.131 148.0763,-54.9743 148.3849,-46.4166"/>
<polygon fill="#000000" stroke="#000000" points="151.8792,-46.6161 149.024,-36.4133 144.8935,-46.1697 151.8792,-46.6161"/>
<g id="a_edge4&#45;headlabel"><a xlink:href="dir_000043_000080.html" target="_top" xlink:title="1204">
<text text-anchor="middle" x="154.4836" y="-47.8844" font-family="Helvetica,sans-Serif" font-size="10.00" fill="#000000">1204</text>
</a>
</g>
</g>
<!-- dir_f41dd59f861c855ea21b0dc3111cb7b0&#45;&gt;dir_6af676bf18881990e4083e191d0e63e0 -->
<g id="edge11" class="edge">
<title>dir_f41dd59f861c855ea21b0dc3111cb7b0&#45;&gt;dir_6af676bf18881990e4083e191d0e63e0</title>
<path fill="none" stroke="#000000" d="M195.7071,-359.7623C191.2529,-335.0928 183.2663,-290.8598 178.0507,-261.9731"/>
<polygon fill="#000000" stroke="#000000" points="181.4874,-261.3086 176.2662,-252.0896 174.5988,-262.5524 181.4874,-261.3086"/>
<g id="a_edge11&#45;headlabel"><a xlink:href="dir_000009_000023.html" target="_top" xlink:title="2">
<text text-anchor="middle" x="184.9201" y="-261.8415" font-family="Helvetica,sans-Serif" font-size="10.00" fill="#000000">2</text>
</a>
</g>
</g>
<!-- dir_f41dd59f861c855ea21b0dc3111cb7b0&#45;&gt;dir_051dca18e802f8e9474f2e30d29c04e0 -->
<g id="edge12" class="edge">
<title>dir_f41dd59f861c855ea21b0dc3111cb7b0&#45;&gt;dir_051dca18e802f8e9474f2e30d29c04e0</title>
<path fill="none" stroke="#000000" d="M186.6888,-359.8085C171.5129,-336.1792 146.5595,-293.0795 137,-252 126.2353,-205.7417 137.3223,-150.5067 146.2356,-117.9484"/>
<polygon fill="#000000" stroke="#000000" points="149.6347,-118.7916 149.0226,-108.2144 142.9051,-116.8647 149.6347,-118.7916"/>
<g id="a_edge12&#45;headlabel"><a xlink:href="dir_000009_000043.html" target="_top" xlink:title="1">
<text text-anchor="middle" x="151.3749" y="-120.5288" font-family="Helvetica,sans-Serif" font-size="10.00" fill="#000000">1</text>
</a>
</g>
</g>
<!-- dir_f41dd59f861c855ea21b0dc3111cb7b0&#45;&gt;dir_8d04f135a1eb0fdc4d561ef87bbea216 -->
<g id="edge13" class="edge">
<title>dir_f41dd59f861c855ea21b0dc3111cb7b0&#45;&gt;dir_8d04f135a1eb0fdc4d561ef87bbea216</title>
<path fill="none" stroke="#000000" d="M220.1967,-359.8314C230.4434,-351.0485 242.9003,-340.3712 254.0097,-330.8489"/>
<polygon fill="#000000" stroke="#000000" points="256.4952,-333.3282 261.81,-324.1628 251.9397,-328.0134 256.4952,-333.3282"/>
<g id="a_edge13&#45;headlabel"><a xlink:href="dir_000009_000005.html" target="_top" xlink:title="1">
<text text-anchor="middle" x="255.6138" y="-335.3232" font-family="Helvetica,sans-Serif" font-size="10.00" fill="#000000">1</text>
</a>
</g>
</g>
<!-- dir_f41dd59f861c855ea21b0dc3111cb7b0&#45;&gt;dir_bcbb2cf9a3d3d83e5515c82071a07177 -->
<g id="edge14" class="edge">
<title>dir_f41dd59f861c855ea21b0dc3111cb7b0&#45;&gt;dir_bcbb2cf9a3d3d83e5515c82071a07177</title>
<path fill="none" stroke="#000000" d="M201.0885,-359.9555C205.4451,-322.3144 215.5293,-235.1867 220.7448,-190.1246"/>
<polygon fill="#000000" stroke="#000000" points="224.2268,-190.4812 221.8999,-180.1451 217.2733,-189.6763 224.2268,-190.4812"/>
<g id="a_edge14&#45;headlabel"><a xlink:href="dir_000009_000015.html" target="_top" xlink:title="17">
<text text-anchor="middle" x="226.6341" y="-191.8784" font-family="Helvetica,sans-Serif" font-size="10.00" fill="#000000">17</text>
</a>
</g>
</g>
<!-- dir_f41dd59f861c855ea21b0dc3111cb7b0&#45;&gt;dir_2171f7ec022c5423887b07c69b2f5b48 -->
<g id="edge15" class="edge">
<title>dir_f41dd59f861c855ea21b0dc3111cb7b0&#45;&gt;dir_2171f7ec022c5423887b07c69b2f5b48</title>
<path fill="none" stroke="#000000" d="M164.4615,-365.1412C117.1544,-345.0266 38,-301.3132 38,-234 38,-234 38,-234 38,-162 38,-110.6273 83.409,-67.3755 117.6487,-42.0645"/>
<polygon fill="#000000" stroke="#000000" points="119.99,-44.6926 126.0786,-36.022 115.9119,-39.0032 119.99,-44.6926"/>
<g id="a_edge15&#45;headlabel"><a xlink:href="dir_000009_000080.html" target="_top" xlink:title="7">
<text text-anchor="middle" x="118.7225" y="-46.5944" font-family="Helvetica,sans-Serif" font-size="10.00" fill="#000000">7</text>
</a>
</g>
</g>
<!-- dir_8d04f135a1eb0fdc4d561ef87bbea216&#45;&gt;dir_6af676bf18881990e4083e191d0e63e0 -->
<g id="edge19" class="edge">
<title>dir_8d04f135a1eb0fdc4d561ef87bbea216&#45;&gt;dir_6af676bf18881990e4083e191d0e63e0</title>
<path fill="none" stroke="#000000" d="M255.809,-288.2022C241.6622,-278.9425 224.1843,-267.5025 208.937,-257.5224"/>
<polygon fill="#000000" stroke="#000000" points="210.5433,-254.3907 200.2594,-251.8425 206.7097,-260.2476 210.5433,-254.3907"/>
<g id="a_edge19&#45;headlabel"><a xlink:href="dir_000005_000023.html" target="_top" xlink:title="1">
<text text-anchor="middle" x="215.1058" y="-251.4837" font-family="Helvetica,sans-Serif" font-size="10.00" fill="#000000">1</text>
</a>
</g>
</g>
<!-- dir_8d04f135a1eb0fdc4d561ef87bbea216&#45;&gt;dir_bcbb2cf9a3d3d83e5515c82071a07177 -->
<g id="edge20" class="edge">
<title>dir_8d04f135a1eb0fdc4d561ef87bbea216&#45;&gt;dir_bcbb2cf9a3d3d83e5515c82071a07177</title>
<path fill="none" stroke="#000000" d="M275.5276,-287.7623C265.3757,-262.9846 247.1376,-218.4714 235.3058,-189.5939"/>
<polygon fill="#000000" stroke="#000000" points="238.4418,-188.0161 231.4117,-180.0896 231.9644,-190.67 238.4418,-188.0161"/>
<g id="a_edge20&#45;headlabel"><a xlink:href="dir_000005_000015.html" target="_top" xlink:title="5">
<text text-anchor="middle" x="242.4319" y="-187.7659" font-family="Helvetica,sans-Serif" font-size="10.00" fill="#000000">5</text>
</a>
</g>
</g>
<!-- dir_bcbb2cf9a3d3d83e5515c82071a07177&#45;&gt;dir_051dca18e802f8e9474f2e30d29c04e0 -->
<g id="edge21" class="edge">
<title>dir_bcbb2cf9a3d3d83e5515c82071a07177&#45;&gt;dir_051dca18e802f8e9474f2e30d29c04e0</title>
<path fill="none" stroke="#000000" d="M200.636,-143.8314C191.7019,-135.3694 181.7221,-125.1489 173.3101,-115.8971"/>
<polygon fill="#000000" stroke="#000000" points="175.9249,-113.5706 166.67,-108.4133 170.6888,-118.2164 175.9249,-113.5706"/>
<g id="a_edge21&#45;headlabel"><a xlink:href="dir_000015_000043.html" target="_top" xlink:title="4">
<text text-anchor="middle" x="180.4344" y="-111.875" font-family="Helvetica,sans-Serif" font-size="10.00" fill="#000000">4</text>
</a>
</g>
</g>
<!-- dir_bcbb2cf9a3d3d83e5515c82071a07177&#45;&gt;dir_2171f7ec022c5423887b07c69b2f5b48 -->
<g id="edge22" class="edge">
<title>dir_bcbb2cf9a3d3d83e5515c82071a07177&#45;&gt;dir_2171f7ec022c5423887b07c69b2f5b48</title>
<path fill="none" stroke="#000000" d="M213.5155,-143.6935C207.026,-124.9812 199.0608,-95.4228 187,-72 182.1207,-62.5241 175.5638,-52.9959 169.5247,-44.6378"/>
<polygon fill="#000000" stroke="#000000" points="172.2349,-42.4143 163.5107,-36.4027 166.5818,-46.5427 172.2349,-42.4143"/>
<g id="a_edge22&#45;headlabel"><a xlink:href="dir_000015_000080.html" target="_top" xlink:title="82">
<text text-anchor="middle" x="176.6477" y="-41.1428" font-family="Helvetica,sans-Serif" font-size="10.00" fill="#000000">82</text>
</a>
</g>
</g>
<!-- dir_2171f7ec022c5423887b07c69b2f5b48&#45;&gt;dir_051dca18e802f8e9474f2e30d29c04e0 -->
<g id="edge23" class="edge">
<title>dir_2171f7ec022c5423887b07c69b2f5b48&#45;&gt;dir_051dca18e802f8e9474f2e30d29c04e0</title>
<path fill="none" stroke="#000000" d="M160.976,-36.4133C161.7071,-44.0593 161.9203,-53.1084 161.6155,-61.5726"/>
<polygon fill="#000000" stroke="#000000" points="158.1048,-61.6264 160.9524,-71.8314 165.0902,-62.078 158.1048,-61.6264"/>
<g id="a_edge23&#45;headlabel"><a xlink:href="dir_000080_000043.html" target="_top" xlink:title="16">
<text text-anchor="middle" x="155.5032" y="-55.3562" font-family="Helvetica,sans-Serif" font-size="10.00" fill="#000000">16</text>
</a>
</g>
</g>
<!-- dir_2171f7ec022c5423887b07c69b2f5b48&#45;&gt;dir_bcbb2cf9a3d3d83e5515c82071a07177 -->
<g id="edge24" class="edge">
<title>dir_2171f7ec022c5423887b07c69b2f5b48&#45;&gt;dir_bcbb2cf9a3d3d83e5515c82071a07177</title>
<path fill="none" stroke="#000000" d="M179.5625,-36.4027C188.8061,-46.37 198.4258,-59.2325 205,-72 215.0821,-91.58 222.3022,-115.4475 225.5753,-133.6827"/>
<polygon fill="#000000" stroke="#000000" points="222.1289,-134.3046 227.0381,-143.6935 229.0553,-133.2925 222.1289,-134.3046"/>
<g id="a_edge24&#45;headlabel"><a xlink:href="dir_000080_000015.html" target="_top" xlink:title="17">
<text text-anchor="middle" x="218.7998" y="-128.6583" font-family="Helvetica,sans-Serif" font-size="10.00" fill="#000000">17</text>
</a>
</g>
</g>
</g>
</svg>
