<?xml version="1.0" encoding="UTF-8" standalone="no"?>
<!DOCTYPE svg PUBLIC "-//W3C//DTD SVG 1.1//EN"
 "http://www.w3.org/Graphics/SVG/1.1/DTD/svg11.dtd">
<!-- Generated by graphviz version 2.40.1 (20161225.0304)
 -->
<!-- Title: /home/travis/build/AliceO2Group/AliceO2/Framework/Core Pages: 1 -->
<svg width="302pt" height="447pt"
 viewBox="0.00 0.00 301.86 447.00" xmlns="http://www.w3.org/2000/svg" xmlns:xlink="http://www.w3.org/1999/xlink">
<g id="graph0" class="graph" transform="scale(1 1) rotate(0) translate(4 443)">
<title>/home/travis/build/AliceO2Group/AliceO2/Framework/Core</title>
<g id="clust1" class="cluster">
<title>clusterdir_bcbb2cf9a3d3d83e5515c82071a07177</title>
<g id="a_clust1"><a xlink:href="dir_bcbb2cf9a3d3d83e5515c82071a07177.html" target="_top" xlink:title="Framework">
<polygon fill="#ddddee" stroke="#000000" points="27.861,-200 27.861,-431 185.861,-431 185.861,-200 27.861,-200"/>
<text text-anchor="middle" x="106.861" y="-419" font-family="Helvetica,sans-Serif" font-size="10.00" fill="#000000">Framework</text>
</a>
</g>
</g>
<g id="clust2" class="cluster">
<title>clusterdir_9f165b2481dacfe69aa54d326bd5cd47</title>
<g id="a_clust2"><a xlink:href="dir_9f165b2481dacfe69aa54d326bd5cd47.html" target="_top">
<polygon fill="#eeeeff" stroke="#000000" points="35.861,-208 35.861,-404 177.861,-404 177.861,-208 35.861,-208"/>
</a>
</g>
</g>
<!-- dir_9f165b2481dacfe69aa54d326bd5cd47 -->
<g id="node1" class="node">
<title>dir_9f165b2481dacfe69aa54d326bd5cd47</title>
<text text-anchor="middle" x="142.861" y="-375.5" font-family="Helvetica,sans-Serif" font-size="10.00" fill="#000000">Core</text>
</g>
<!-- dir_985a55873ec4a56b27533251576853b6 -->
<g id="node2" class="node">
<title>dir_985a55873ec4a56b27533251576853b6</title>
<g id="a_node2"><a xlink:href="dir_985a55873ec4a56b27533251576853b6.html" target="_top" xlink:title="include">
<polygon fill="#ffffff" stroke="#ff0000" points="143.861,-324 89.861,-324 89.861,-288 143.861,-288 143.861,-324"/>
<text text-anchor="middle" x="116.861" y="-303.5" font-family="Helvetica,sans-Serif" font-size="10.00" fill="#000000">include</text>
</a>
</g>
</g>
<!-- dir_0b60ff9a1849fb34896fe8bde9baec43 -->
<g id="node3" class="node">
<title>dir_0b60ff9a1849fb34896fe8bde9baec43</title>
<g id="a_node3"><a xlink:href="dir_0b60ff9a1849fb34896fe8bde9baec43.html" target="_top" xlink:title="src">
<polygon fill="#ffffff" stroke="#000000" points="98.861,-252 44.861,-252 44.861,-216 98.861,-216 98.861,-252"/>
<text text-anchor="middle" x="71.861" y="-231.5" font-family="Helvetica,sans-Serif" font-size="10.00" fill="#000000">src</text>
</a>
</g>
</g>
<!-- dir_985a55873ec4a56b27533251576853b6&#45;&gt;dir_0b60ff9a1849fb34896fe8bde9baec43 -->
<g id="edge13" class="edge">
<title>dir_985a55873ec4a56b27533251576853b6&#45;&gt;dir_0b60ff9a1849fb34896fe8bde9baec43</title>
<path fill="none" stroke="#000000" d="M99.5532,-287.8314C93.7455,-279.7925 87.523,-270.1666 82.3471,-261.2918"/>
<polygon fill="#000000" stroke="#000000" points="85.3222,-259.4406 77.3933,-252.4133 79.2093,-262.8513 85.3222,-259.4406"/>
<g id="a_edge13&#45;headlabel"><a xlink:href="dir_000696_000698.html" target="_top" xlink:title="2">
<text text-anchor="middle" x="89.553" y="-258.6963" font-family="Helvetica,sans-Serif" font-size="10.00" fill="#000000">2</text>
</a>
</g>
</g>
<!-- dir_4ab6b4cc6a7edbff49100e9123df213f -->
<g id="node5" class="node">
<title>dir_4ab6b4cc6a7edbff49100e9123df213f</title>
<g id="a_node5"><a xlink:href="dir_4ab6b4cc6a7edbff49100e9123df213f.html" target="_top" xlink:title="Common">
<polygon fill="none" stroke="#ff0000" points="130.361,-180 69.361,-180 69.361,-144 130.361,-144 130.361,-180"/>
<text text-anchor="middle" x="99.861" y="-159.5" font-family="Helvetica,sans-Serif" font-size="10.00" fill="#000000">Common</text>
</a>
</g>
</g>
<!-- dir_985a55873ec4a56b27533251576853b6&#45;&gt;dir_4ab6b4cc6a7edbff49100e9123df213f -->
<g id="edge11" class="edge">
<title>dir_985a55873ec4a56b27533251576853b6&#45;&gt;dir_4ab6b4cc6a7edbff49100e9123df213f</title>
<path fill="none" stroke="#000000" d="M116.003,-287.917C114.8425,-266.7548 112.3781,-230.6973 107.861,-200 107.3801,-196.7317 106.7902,-193.3224 106.1506,-189.9457"/>
<polygon fill="#000000" stroke="#000000" points="109.5682,-189.1876 104.1424,-180.0876 102.7091,-190.585 109.5682,-189.1876"/>
<g id="a_edge11&#45;headlabel"><a xlink:href="dir_000696_000031.html" target="_top" xlink:title="5">
<text text-anchor="middle" x="113.0678" y="-189.6432" font-family="Helvetica,sans-Serif" font-size="10.00" fill="#000000">5</text>
</a>
</g>
</g>
<!-- dir_5d813cdce1e9826318f2aba62999ca51 -->
<g id="node7" class="node">
<title>dir_5d813cdce1e9826318f2aba62999ca51</title>
<g id="a_node7"><a xlink:href="dir_5d813cdce1e9826318f2aba62999ca51.html" target="_top" xlink:title="Foundation">
<polygon fill="none" stroke="#ff0000" points="265.361,-252 194.361,-252 194.361,-216 265.361,-216 265.361,-252"/>
<text text-anchor="middle" x="229.861" y="-231.5" font-family="Helvetica,sans-Serif" font-size="10.00" fill="#000000">Foundation</text>
</a>
</g>
</g>
<!-- dir_985a55873ec4a56b27533251576853b6&#45;&gt;dir_5d813cdce1e9826318f2aba62999ca51 -->
<g id="edge12" class="edge">
<title>dir_985a55873ec4a56b27533251576853b6&#45;&gt;dir_5d813cdce1e9826318f2aba62999ca51</title>
<path fill="none" stroke="#000000" d="M139.4233,-287.8314C152.9792,-278.6221 170.5613,-267.3301 186.6525,-257.4706"/>
<polygon fill="#000000" stroke="#000000" points="188.6685,-260.3414 195.4037,-252.1628 185.0383,-254.3562 188.6685,-260.3414"/>
<g id="a_edge12&#45;headlabel"><a xlink:href="dir_000696_000700.html" target="_top" xlink:title="30">
<text text-anchor="middle" x="187.0675" y="-262.1331" font-family="Helvetica,sans-Serif" font-size="10.00" fill="#000000">30</text>
</a>
</g>
</g>
<!-- dir_ab5a80d4bd40f73f0851d5ff6a022779 -->
<g id="node8" class="node">
<title>dir_ab5a80d4bd40f73f0851d5ff6a022779</title>
<g id="a_node8"><a xlink:href="dir_ab5a80d4bd40f73f0851d5ff6a022779.html" target="_top" xlink:title="Logger">
<polygon fill="none" stroke="#ff0000" points="185.861,-36 131.861,-36 131.861,0 185.861,0 185.861,-36"/>
<text text-anchor="middle" x="158.861" y="-15.5" font-family="Helvetica,sans-Serif" font-size="10.00" fill="#000000">Logger</text>
</a>
</g>
</g>
<!-- dir_985a55873ec4a56b27533251576853b6&#45;&gt;dir_ab5a80d4bd40f73f0851d5ff6a022779 -->
<g id="edge14" class="edge">
<title>dir_985a55873ec4a56b27533251576853b6&#45;&gt;dir_ab5a80d4bd40f73f0851d5ff6a022779</title>
<path fill="none" stroke="#000000" d="M124.6016,-287.8896C138.7108,-253.5805 167.8106,-176.411 174.861,-108 176.5013,-92.0843 177.1575,-87.8343 174.861,-72 173.6039,-63.3319 171.2675,-54.1182 168.761,-45.802"/>
<polygon fill="#000000" stroke="#000000" points="172.0682,-44.6531 165.6805,-36.2004 165.4028,-46.7916 172.0682,-44.6531"/>
<g id="a_edge14&#45;headlabel"><a xlink:href="dir_000696_000705.html" target="_top" xlink:title="3">
<text text-anchor="middle" x="175.8698" y="-44.7085" font-family="Helvetica,sans-Serif" font-size="10.00" fill="#000000">3</text>
</a>
</g>
</g>
<!-- dir_2171f7ec022c5423887b07c69b2f5b48 -->
<g id="node9" class="node">
<title>dir_2171f7ec022c5423887b07c69b2f5b48</title>
<g id="a_node9"><a xlink:href="dir_2171f7ec022c5423887b07c69b2f5b48.html" target="_top" xlink:title="DataFormats">
<polygon fill="none" stroke="#ff0000" points="92.861,-108 12.861,-108 12.861,-72 92.861,-72 92.861,-108"/>
<text text-anchor="middle" x="52.861" y="-87.5" font-family="Helvetica,sans-Serif" font-size="10.00" fill="#000000">DataFormats</text>
</a>
</g>
</g>
<!-- dir_985a55873ec4a56b27533251576853b6&#45;&gt;dir_2171f7ec022c5423887b07c69b2f5b48 -->
<g id="edge15" class="edge">
<title>dir_985a55873ec4a56b27533251576853b6&#45;&gt;dir_2171f7ec022c5423887b07c69b2f5b48</title>
<path fill="none" stroke="#000000" d="M89.716,-296.0001C70.8687,-287.46 47.1854,-273.1597 35.861,-252 13.1264,-209.52 28.1826,-151.8291 40.7977,-117.9893"/>
<polygon fill="#000000" stroke="#000000" points="44.2059,-118.8842 44.5898,-108.2963 37.687,-116.3338 44.2059,-118.8842"/>
<g id="a_edge15&#45;headlabel"><a xlink:href="dir_000696_000080.html" target="_top" xlink:title="23">
<text text-anchor="middle" x="45.5404" y="-120.7662" font-family="Helvetica,sans-Serif" font-size="10.00" fill="#000000">23</text>
</a>
</g>
</g>
<!-- dir_0b60ff9a1849fb34896fe8bde9baec43&#45;&gt;dir_985a55873ec4a56b27533251576853b6 -->
<g id="edge8" class="edge">
<title>dir_0b60ff9a1849fb34896fe8bde9baec43&#45;&gt;dir_985a55873ec4a56b27533251576853b6</title>
<path fill="none" stroke="#000000" d="M89.3453,-252.4133C95.1613,-260.484 101.3773,-270.1182 106.5319,-278.9775"/>
<polygon fill="#000000" stroke="#000000" points="103.5375,-280.7946 111.458,-287.8314 109.6545,-277.3911 103.5375,-280.7946"/>
<g id="a_edge8&#45;headlabel"><a xlink:href="dir_000698_000696.html" target="_top" xlink:title="367">
<text text-anchor="middle" x="99.3088" y="-276.5339" font-family="Helvetica,sans-Serif" font-size="10.00" fill="#000000">367</text>
</a>
</g>
</g>
<!-- dir_0b60ff9a1849fb34896fe8bde9baec43&#45;&gt;dir_4ab6b4cc6a7edbff49100e9123df213f -->
<g id="edge5" class="edge">
<title>dir_0b60ff9a1849fb34896fe8bde9baec43&#45;&gt;dir_4ab6b4cc6a7edbff49100e9123df213f</title>
<path fill="none" stroke="#000000" d="M78.9266,-215.8314C81.987,-207.9617 85.6389,-198.5712 89.0292,-189.8533"/>
<polygon fill="#000000" stroke="#000000" points="92.3378,-191.0019 92.7003,-180.4133 85.8138,-188.4647 92.3378,-191.0019"/>
<g id="a_edge5&#45;headlabel"><a xlink:href="dir_000698_000031.html" target="_top" xlink:title="1">
<text text-anchor="middle" x="93.6812" y="-192.8812" font-family="Helvetica,sans-Serif" font-size="10.00" fill="#000000">1</text>
</a>
</g>
</g>
<!-- dir_8ba487e25de5ee77e05e9dce7582cb98 -->
<g id="node6" class="node">
<title>dir_8ba487e25de5ee77e05e9dce7582cb98</title>
<g id="a_node6"><a xlink:href="dir_8ba487e25de5ee77e05e9dce7582cb98.html" target="_top" xlink:title="Algorithm">
<polygon fill="none" stroke="#ff0000" points="85.361,-36 20.361,-36 20.361,0 85.361,0 85.361,-36"/>
<text text-anchor="middle" x="52.861" y="-15.5" font-family="Helvetica,sans-Serif" font-size="10.00" fill="#000000">Algorithm</text>
</a>
</g>
</g>
<!-- dir_0b60ff9a1849fb34896fe8bde9baec43&#45;&gt;dir_8ba487e25de5ee77e05e9dce7582cb98 -->
<g id="edge6" class="edge">
<title>dir_0b60ff9a1849fb34896fe8bde9baec43&#45;&gt;dir_8ba487e25de5ee77e05e9dce7582cb98</title>
<path fill="none" stroke="#000000" d="M58.0841,-215.5939C41.4294,-192.0815 14.3328,-149.4524 3.861,-108 -.0578,-92.4873 -1.9016,-86.9262 3.861,-72 7.9802,-61.3306 15.2946,-51.4665 23.036,-43.1681"/>
<polygon fill="#000000" stroke="#000000" points="25.5958,-45.558 30.186,-36.0091 20.6429,-40.6113 25.5958,-45.558"/>
<g id="a_edge6&#45;headlabel"><a xlink:href="dir_000698_000000.html" target="_top" xlink:title="1">
<text text-anchor="middle" x="25.0645" y="-47.6077" font-family="Helvetica,sans-Serif" font-size="10.00" fill="#000000">1</text>
</a>
</g>
</g>
<!-- dir_0b60ff9a1849fb34896fe8bde9baec43&#45;&gt;dir_5d813cdce1e9826318f2aba62999ca51 -->
<g id="edge7" class="edge">
<title>dir_0b60ff9a1849fb34896fe8bde9baec43&#45;&gt;dir_5d813cdce1e9826318f2aba62999ca51</title>
<path fill="none" stroke="#000000" d="M99.0173,-234C127.44,-234 155.8628,-234 184.2855,-234"/>
<polygon fill="#000000" stroke="#000000" points="184.339,-237.5001 194.339,-234 184.339,-230.5001 184.339,-237.5001"/>
<g id="a_edge7&#45;headlabel"><a xlink:href="dir_000698_000700.html" target="_top" xlink:title="16">
<text text-anchor="middle" x="180.7444" y="-237.8393" font-family="Helvetica,sans-Serif" font-size="10.00" fill="#000000">16</text>
</a>
</g>
</g>
<!-- dir_0b60ff9a1849fb34896fe8bde9baec43&#45;&gt;dir_ab5a80d4bd40f73f0851d5ff6a022779 -->
<g id="edge9" class="edge">
<title>dir_0b60ff9a1849fb34896fe8bde9baec43&#45;&gt;dir_ab5a80d4bd40f73f0851d5ff6a022779</title>
<path fill="none" stroke="#000000" d="M99.0671,-219.0935C113.3369,-209.7887 129.7106,-196.4502 138.861,-180 162.23,-137.9885 163.41,-80.5187 161.5468,-46.5257"/>
<polygon fill="#000000" stroke="#000000" points="165.0263,-46.1042 160.8591,-36.3633 158.0423,-46.5768 165.0263,-46.1042"/>
<g id="a_edge9&#45;headlabel"><a xlink:href="dir_000698_000705.html" target="_top" xlink:title="21">
<text text-anchor="middle" x="168.1017" y="-46.9989" font-family="Helvetica,sans-Serif" font-size="10.00" fill="#000000">21</text>
</a>
</g>
</g>
<!-- dir_0b60ff9a1849fb34896fe8bde9baec43&#45;&gt;dir_2171f7ec022c5423887b07c69b2f5b48 -->
<g id="edge10" class="edge">
<title>dir_0b60ff9a1849fb34896fe8bde9baec43&#45;&gt;dir_2171f7ec022c5423887b07c69b2f5b48</title>
<path fill="none" stroke="#000000" d="M67.1022,-215.626C64.582,-205.2365 61.6471,-191.9681 59.861,-180 56.7815,-159.3649 55.0118,-135.8533 54.0225,-118.037"/>
<polygon fill="#000000" stroke="#000000" points="57.5163,-117.8237 53.5144,-108.0137 50.5253,-118.1781 57.5163,-117.8237"/>
<g id="a_edge10&#45;headlabel"><a xlink:href="dir_000698_000080.html" target="_top" xlink:title="17">
<text text-anchor="middle" x="60.5338" y="-118.7699" font-family="Helvetica,sans-Serif" font-size="10.00" fill="#000000">17</text>
</a>
</g>
</g>
<!-- dir_8cb91374fcd70b92d5ee52379f113c0f -->
<g id="node4" class="node">
<title>dir_8cb91374fcd70b92d5ee52379f113c0f</title>
<g id="a_node4"><a xlink:href="dir_8cb91374fcd70b92d5ee52379f113c0f.html" target="_top" xlink:title="test">
<polygon fill="#ffffff" stroke="#000000" points="97.861,-396 43.861,-396 43.861,-360 97.861,-360 97.861,-396"/>
<text text-anchor="middle" x="70.861" y="-375.5" font-family="Helvetica,sans-Serif" font-size="10.00" fill="#000000">test</text>
</a>
</g>
</g>
<!-- dir_8cb91374fcd70b92d5ee52379f113c0f&#45;&gt;dir_985a55873ec4a56b27533251576853b6 -->
<g id="edge21" class="edge">
<title>dir_8cb91374fcd70b92d5ee52379f113c0f&#45;&gt;dir_985a55873ec4a56b27533251576853b6</title>
<path fill="none" stroke="#000000" d="M82.4688,-359.8314C87.6588,-351.7079 93.8842,-341.9637 99.6035,-333.0118"/>
<polygon fill="#000000" stroke="#000000" points="102.6625,-334.7246 105.097,-324.4133 96.7636,-330.9559 102.6625,-334.7246"/>
<g id="a_edge21&#45;headlabel"><a xlink:href="dir_000699_000696.html" target="_top" xlink:title="332">
<text text-anchor="middle" x="103.1199" y="-336.7824" font-family="Helvetica,sans-Serif" font-size="10.00" fill="#000000">332</text>
</a>
</g>
</g>
<!-- dir_8cb91374fcd70b92d5ee52379f113c0f&#45;&gt;dir_0b60ff9a1849fb34896fe8bde9baec43 -->
<g id="edge20" class="edge">
<title>dir_8cb91374fcd70b92d5ee52379f113c0f&#45;&gt;dir_0b60ff9a1849fb34896fe8bde9baec43</title>
<path fill="none" stroke="#000000" d="M70.9877,-359.7623C71.1583,-335.201 71.4635,-291.2474 71.6641,-262.3541"/>
<polygon fill="#000000" stroke="#000000" points="75.1658,-262.1137 71.7354,-252.0896 68.166,-262.065 75.1658,-262.1137"/>
<g id="a_edge20&#45;headlabel"><a xlink:href="dir_000699_000698.html" target="_top" xlink:title="33">
<text text-anchor="middle" x="77.9801" y="-263.2279" font-family="Helvetica,sans-Serif" font-size="10.00" fill="#000000">33</text>
</a>
</g>
</g>
<!-- dir_8cb91374fcd70b92d5ee52379f113c0f&#45;&gt;dir_5d813cdce1e9826318f2aba62999ca51 -->
<g id="edge19" class="edge">
<title>dir_8cb91374fcd70b92d5ee52379f113c0f&#45;&gt;dir_5d813cdce1e9826318f2aba62999ca51</title>
<path fill="none" stroke="#000000" d="M98.0618,-362.7403C114.7116,-352.7742 135.9855,-338.8824 152.861,-324 174.6611,-304.7747 195.8625,-279.3414 210.4801,-260.4169"/>
<polygon fill="#000000" stroke="#000000" points="213.4425,-262.3035 216.7115,-252.2255 207.8713,-258.0653 213.4425,-262.3035"/>
<g id="a_edge19&#45;headlabel"><a xlink:href="dir_000699_000700.html" target="_top" xlink:title="1">
<text text-anchor="middle" x="213.5259" y="-264.3834" font-family="Helvetica,sans-Serif" font-size="10.00" fill="#000000">1</text>
</a>
</g>
</g>
<!-- dir_8cb91374fcd70b92d5ee52379f113c0f&#45;&gt;dir_ab5a80d4bd40f73f0851d5ff6a022779 -->
<g id="edge22" class="edge">
<title>dir_8cb91374fcd70b92d5ee52379f113c0f&#45;&gt;dir_ab5a80d4bd40f73f0851d5ff6a022779</title>
<path fill="none" stroke="#000000" d="M97.9502,-364.36C100.9513,-362.8773 103.9674,-361.3996 106.861,-360 197.0797,-316.3646 293.861,-334.217 293.861,-234 293.861,-234 293.861,-234 293.861,-162 293.861,-104.017 234.8857,-59.7746 194.8945,-36.4393"/>
<polygon fill="#000000" stroke="#000000" points="196.607,-33.3869 186.1803,-31.5066 193.1587,-39.4786 196.607,-33.3869"/>
<g id="a_edge22&#45;headlabel"><a xlink:href="dir_000699_000705.html" target="_top" xlink:title="14">
<text text-anchor="middle" x="201.1338" y="-30.1867" font-family="Helvetica,sans-Serif" font-size="10.00" fill="#000000">14</text>
</a>
</g>
</g>
<!-- dir_8cb91374fcd70b92d5ee52379f113c0f&#45;&gt;dir_2171f7ec022c5423887b07c69b2f5b48 -->
<g id="edge23" class="edge">
<title>dir_8cb91374fcd70b92d5ee52379f113c0f&#45;&gt;dir_2171f7ec022c5423887b07c69b2f5b48</title>
<path fill="none" stroke="#000000" d="M61.1241,-359.8791C48.8855,-335.9758 28.5499,-292.2215 20.861,-252 11.8481,-204.8517 9.0807,-190.2694 21.861,-144 24.4397,-134.6645 29.0103,-125.2493 33.8629,-116.9537"/>
<polygon fill="#000000" stroke="#000000" points="36.8442,-118.7872 39.1581,-108.4482 30.9017,-115.0876 36.8442,-118.7872"/>
<g id="a_edge23&#45;headlabel"><a xlink:href="dir_000699_000080.html" target="_top" xlink:title="24">
<text text-anchor="middle" x="37.3548" y="-120.8394" font-family="Helvetica,sans-Serif" font-size="10.00" fill="#000000">24</text>
</a>
</g>
</g>
<!-- dir_4ab6b4cc6a7edbff49100e9123df213f&#45;&gt;dir_ab5a80d4bd40f73f0851d5ff6a022779 -->
<g id="edge1" class="edge">
<title>dir_4ab6b4cc6a7edbff49100e9123df213f&#45;&gt;dir_ab5a80d4bd40f73f0851d5ff6a022779</title>
<path fill="none" stroke="#000000" d="M107.3334,-143.7623C117.4854,-118.9846 135.7235,-74.4714 147.5552,-45.5939"/>
<polygon fill="#000000" stroke="#000000" points="150.8966,-46.67 151.4493,-36.0896 144.4192,-44.0161 150.8966,-46.67"/>
<g id="a_edge1&#45;headlabel"><a xlink:href="dir_000031_000705.html" target="_top" xlink:title="2">
<text text-anchor="middle" x="152.1611" y="-48.5727" font-family="Helvetica,sans-Serif" font-size="10.00" fill="#000000">2</text>
</a>
</g>
</g>
<!-- dir_4ab6b4cc6a7edbff49100e9123df213f&#45;&gt;dir_2171f7ec022c5423887b07c69b2f5b48 -->
<g id="edge2" class="edge">
<title>dir_4ab6b4cc6a7edbff49100e9123df213f&#45;&gt;dir_2171f7ec022c5423887b07c69b2f5b48</title>
<path fill="none" stroke="#000000" d="M82.0486,-143.8314C76.0175,-135.7925 69.5276,-126.1666 64.1052,-117.2918"/>
<polygon fill="#000000" stroke="#000000" points="66.979,-115.2731 58.9048,-108.4133 60.9389,-118.811 66.979,-115.2731"/>
<g id="a_edge2&#45;headlabel"><a xlink:href="dir_000031_000080.html" target="_top" xlink:title="2">
<text text-anchor="middle" x="71.2457" y="-114.4398" font-family="Helvetica,sans-Serif" font-size="10.00" fill="#000000">2</text>
</a>
</g>
</g>
<!-- dir_8ba487e25de5ee77e05e9dce7582cb98&#45;&gt;dir_2171f7ec022c5423887b07c69b2f5b48 -->
<g id="edge3" class="edge">
<title>dir_8ba487e25de5ee77e05e9dce7582cb98&#45;&gt;dir_2171f7ec022c5423887b07c69b2f5b48</title>
<path fill="none" stroke="#000000" d="M58.837,-36.4133C59.5682,-44.0593 59.7813,-53.1084 59.4765,-61.5726"/>
<polygon fill="#000000" stroke="#000000" points="55.9658,-61.6264 58.8134,-71.8314 62.9512,-62.078 55.9658,-61.6264"/>
<g id="a_edge3&#45;headlabel"><a xlink:href="dir_000000_000080.html" target="_top" xlink:title="8">
<text text-anchor="middle" x="53.3642" y="-55.3562" font-family="Helvetica,sans-Serif" font-size="10.00" fill="#000000">8</text>
</a>
</g>
</g>
<!-- dir_5d813cdce1e9826318f2aba62999ca51&#45;&gt;dir_985a55873ec4a56b27533251576853b6 -->
<g id="edge4" class="edge">
<title>dir_5d813cdce1e9826318f2aba62999ca51&#45;&gt;dir_985a55873ec4a56b27533251576853b6</title>
<path fill="none" stroke="#000000" d="M207.2474,-252.2035C191.706,-262.7597 170.8897,-276.0435 153.0936,-286.7697"/>
<polygon fill="#000000" stroke="#000000" points="150.9103,-283.9961 144.1066,-292.1177 154.49,-290.0116 150.9103,-283.9961"/>
<g id="a_edge4&#45;headlabel"><a xlink:href="dir_000700_000696.html" target="_top" xlink:title="1">
<text text-anchor="middle" x="152.5474" y="-277.218" font-family="Helvetica,sans-Serif" font-size="10.00" fill="#000000">1</text>
</a>
</g>
</g>
<!-- dir_2171f7ec022c5423887b07c69b2f5b48&#45;&gt;dir_4ab6b4cc6a7edbff49100e9123df213f -->
<g id="edge16" class="edge">
<title>dir_2171f7ec022c5423887b07c69b2f5b48&#45;&gt;dir_4ab6b4cc6a7edbff49100e9123df213f</title>
<path fill="none" stroke="#000000" d="M70.8568,-108.4133C76.897,-116.484 83.3805,-126.1182 88.7812,-134.9775"/>
<polygon fill="#000000" stroke="#000000" points="85.8871,-136.9621 93.9533,-143.8314 91.9314,-133.4312 85.8871,-136.9621"/>
<g id="a_edge16&#45;headlabel"><a xlink:href="dir_000080_000031.html" target="_top" xlink:title="36">
<text text-anchor="middle" x="81.6224" y="-132.7904" font-family="Helvetica,sans-Serif" font-size="10.00" fill="#000000">36</text>
</a>
</g>
</g>
<!-- dir_2171f7ec022c5423887b07c69b2f5b48&#45;&gt;dir_8ba487e25de5ee77e05e9dce7582cb98 -->
<g id="edge17" class="edge">
<title>dir_2171f7ec022c5423887b07c69b2f5b48&#45;&gt;dir_8ba487e25de5ee77e05e9dce7582cb98</title>
<path fill="none" stroke="#000000" d="M46.9086,-71.8314C46.1582,-64.131 45.9373,-54.9743 46.2459,-46.4166"/>
<polygon fill="#000000" stroke="#000000" points="49.7402,-46.6161 46.885,-36.4133 42.7545,-46.1697 49.7402,-46.6161"/>
<g id="a_edge17&#45;headlabel"><a xlink:href="dir_000080_000000.html" target="_top" xlink:title="2">
<text text-anchor="middle" x="52.3447" y="-47.8844" font-family="Helvetica,sans-Serif" font-size="10.00" fill="#000000">2</text>
</a>
</g>
</g>
<!-- dir_2171f7ec022c5423887b07c69b2f5b48&#45;&gt;dir_ab5a80d4bd40f73f0851d5ff6a022779 -->
<g id="edge18" class="edge">
<title>dir_2171f7ec022c5423887b07c69b2f5b48&#45;&gt;dir_ab5a80d4bd40f73f0851d5ff6a022779</title>
<path fill="none" stroke="#000000" d="M79.6093,-71.8314C92.9163,-62.7927 109.1771,-51.7476 123.4985,-42.0198"/>
<polygon fill="#000000" stroke="#000000" points="125.8157,-44.677 132.1213,-36.1628 121.8825,-38.8864 125.8157,-44.677"/>
<g id="a_edge18&#45;headlabel"><a xlink:href="dir_000080_000705.html" target="_top" xlink:title="17">
<text text-anchor="middle" x="124.4376" y="-46.5454" font-family="Helvetica,sans-Serif" font-size="10.00" fill="#000000">17</text>
</a>
</g>
</g>
</g>
</svg>
