<?xml version="1.0" encoding="UTF-8" standalone="no"?>
<!DOCTYPE svg PUBLIC "-//W3C//DTD SVG 1.1//EN"
 "http://www.w3.org/Graphics/SVG/1.1/DTD/svg11.dtd">
<!-- Generated by graphviz version 2.40.1 (20161225.0304)
 -->
<!-- Title: /home/travis/build/AliceO2Group/AliceO2/Detectors/FIT/FT0/reconstruction/src Pages: 1 -->
<svg width="261pt" height="439pt"
 viewBox="0.00 0.00 261.31 439.00" xmlns="http://www.w3.org/2000/svg" xmlns:xlink="http://www.w3.org/1999/xlink">
<g id="graph0" class="graph" transform="scale(1 1) rotate(0) translate(4 435)">
<title>/home/travis/build/AliceO2Group/AliceO2/Detectors/FIT/FT0/reconstruction/src</title>
<g id="clust1" class="cluster">
<title>clusterdir_ca639a046a87a9287b3468a6ba2bbef1</title>
<g id="a_clust1"><a xlink:href="dir_ca639a046a87a9287b3468a6ba2bbef1.html" target="_top" xlink:title="reconstruction">
<polygon fill="#ddddee" stroke="#000000" points="66,-352 66,-423 152,-423 152,-352 66,-352"/>
<text text-anchor="middle" x="109" y="-411" font-family="Helvetica,sans-Serif" font-size="10.00" fill="#000000">reconstruction</text>
</a>
</g>
</g>
<!-- dir_1b6b29fc497b523a5fbcdcf4771534fb -->
<g id="node1" class="node">
<title>dir_1b6b29fc497b523a5fbcdcf4771534fb</title>
<g id="a_node1"><a xlink:href="dir_1b6b29fc497b523a5fbcdcf4771534fb.html" target="_top" xlink:title="src">
<polygon fill="#eeeeff" stroke="#000000" points="136,-396 82,-396 82,-360 136,-360 136,-396"/>
<text text-anchor="middle" x="109" y="-375.5" font-family="Helvetica,sans-Serif" font-size="10.00" fill="#000000">src</text>
</a>
</g>
</g>
<!-- dir_4ab6b4cc6a7edbff49100e9123df213f -->
<g id="node2" class="node">
<title>dir_4ab6b4cc6a7edbff49100e9123df213f</title>
<g id="a_node2"><a xlink:href="dir_4ab6b4cc6a7edbff49100e9123df213f.html" target="_top" xlink:title="Common">
<polygon fill="none" stroke="#ff0000" points="241.5,-252 180.5,-252 180.5,-216 241.5,-216 241.5,-252"/>
<text text-anchor="middle" x="211" y="-231.5" font-family="Helvetica,sans-Serif" font-size="10.00" fill="#000000">Common</text>
</a>
</g>
</g>
<!-- dir_1b6b29fc497b523a5fbcdcf4771534fb&#45;&gt;dir_4ab6b4cc6a7edbff49100e9123df213f -->
<g id="edge1" class="edge">
<title>dir_1b6b29fc497b523a5fbcdcf4771534fb&#45;&gt;dir_4ab6b4cc6a7edbff49100e9123df213f</title>
<path fill="none" stroke="#000000" d="M136.2641,-361.8993C150.3656,-352.3973 166.9011,-339.2513 178,-324 191.4678,-305.4935 199.9893,-280.8959 204.9921,-262.0933"/>
<polygon fill="#000000" stroke="#000000" points="208.4061,-262.8677 207.4185,-252.319 201.6123,-261.1811 208.4061,-262.8677"/>
<g id="a_edge1&#45;headlabel"><a xlink:href="dir_000476_000031.html" target="_top" xlink:title="3">
<text text-anchor="middle" x="210.2957" y="-264.5405" font-family="Helvetica,sans-Serif" font-size="10.00" fill="#000000">3</text>
</a>
</g>
</g>
<!-- dir_ee46b747e1abe6c555594e61ae5c8c00 -->
<g id="node3" class="node">
<title>dir_ee46b747e1abe6c555594e61ae5c8c00</title>
<g id="a_node3"><a xlink:href="dir_ee46b747e1abe6c555594e61ae5c8c00.html" target="_top" xlink:title="include">
<polygon fill="none" stroke="#ff0000" points="82,-180 28,-180 28,-144 82,-144 82,-180"/>
<text text-anchor="middle" x="55" y="-159.5" font-family="Helvetica,sans-Serif" font-size="10.00" fill="#000000">include</text>
</a>
</g>
</g>
<!-- dir_1b6b29fc497b523a5fbcdcf4771534fb&#45;&gt;dir_ee46b747e1abe6c555594e61ae5c8c00 -->
<g id="edge2" class="edge">
<title>dir_1b6b29fc497b523a5fbcdcf4771534fb&#45;&gt;dir_ee46b747e1abe6c555594e61ae5c8c00</title>
<path fill="none" stroke="#000000" d="M87.4903,-359.717C77.8461,-350.1585 67.4357,-337.6213 62,-324 44.3941,-279.8812 46.9563,-223.5407 50.7487,-190.2577"/>
<polygon fill="#000000" stroke="#000000" points="54.2249,-190.6648 51.9991,-180.3064 47.2796,-189.792 54.2249,-190.6648"/>
<g id="a_edge2&#45;headlabel"><a xlink:href="dir_000476_000471.html" target="_top" xlink:title="3">
<text text-anchor="middle" x="56.594" y="-192.0854" font-family="Helvetica,sans-Serif" font-size="10.00" fill="#000000">3</text>
</a>
</g>
</g>
<!-- dir_63da1bf9cbb165deb85abc813a5acde9 -->
<g id="node4" class="node">
<title>dir_63da1bf9cbb165deb85abc813a5acde9</title>
<g id="a_node4"><a xlink:href="dir_63da1bf9cbb165deb85abc813a5acde9.html" target="_top" xlink:title="base">
<polygon fill="none" stroke="#ff0000" points="82,-36 28,-36 28,0 82,0 82,-36"/>
<text text-anchor="middle" x="55" y="-15.5" font-family="Helvetica,sans-Serif" font-size="10.00" fill="#000000">base</text>
</a>
</g>
</g>
<!-- dir_1b6b29fc497b523a5fbcdcf4771534fb&#45;&gt;dir_63da1bf9cbb165deb85abc813a5acde9 -->
<g id="edge3" class="edge">
<title>dir_1b6b29fc497b523a5fbcdcf4771534fb&#45;&gt;dir_63da1bf9cbb165deb85abc813a5acde9</title>
<path fill="none" stroke="#000000" d="M82.6141,-359.9342C50.3553,-335.4749 0,-288.5568 0,-234 0,-234 0,-234 0,-162 0,-118.9621 21.7052,-73.1692 37.8451,-45.0671"/>
<polygon fill="#000000" stroke="#000000" points="40.9852,-46.6331 43.0658,-36.2446 34.961,-43.0682 40.9852,-46.6331"/>
<g id="a_edge3&#45;headlabel"><a xlink:href="dir_000476_000345.html" target="_top" xlink:title="1">
<text text-anchor="middle" x="41.5981" y="-48.6726" font-family="Helvetica,sans-Serif" font-size="10.00" fill="#000000">1</text>
</a>
</g>
</g>
<!-- dir_bcbb2cf9a3d3d83e5515c82071a07177 -->
<g id="node5" class="node">
<title>dir_bcbb2cf9a3d3d83e5515c82071a07177</title>
<g id="a_node5"><a xlink:href="dir_bcbb2cf9a3d3d83e5515c82071a07177.html" target="_top" xlink:title="Framework">
<polygon fill="none" stroke="#ff0000" points="209.5,-180 138.5,-180 138.5,-144 209.5,-144 209.5,-180"/>
<text text-anchor="middle" x="174" y="-159.5" font-family="Helvetica,sans-Serif" font-size="10.00" fill="#000000">Framework</text>
</a>
</g>
</g>
<!-- dir_1b6b29fc497b523a5fbcdcf4771534fb&#45;&gt;dir_bcbb2cf9a3d3d83e5515c82071a07177 -->
<g id="edge4" class="edge">
<title>dir_1b6b29fc497b523a5fbcdcf4771534fb&#45;&gt;dir_bcbb2cf9a3d3d83e5515c82071a07177</title>
<path fill="none" stroke="#000000" d="M105.4661,-359.7548C102.577,-341.3453 99.8734,-312.252 106,-288 115.3264,-251.0815 137.8399,-213.2295 154.4189,-188.7806"/>
<polygon fill="#000000" stroke="#000000" points="157.4033,-190.6188 160.2231,-180.4061 151.65,-186.6313 157.4033,-190.6188"/>
<g id="a_edge4&#45;headlabel"><a xlink:href="dir_000476_000015.html" target="_top" xlink:title="2">
<text text-anchor="middle" x="157.6893" y="-192.6905" font-family="Helvetica,sans-Serif" font-size="10.00" fill="#000000">2</text>
</a>
</g>
</g>
<!-- dir_26637d1bd82229bc9ed97f7e706be743 -->
<g id="node6" class="node">
<title>dir_26637d1bd82229bc9ed97f7e706be743</title>
<g id="a_node6"><a xlink:href="dir_26637d1bd82229bc9ed97f7e706be743.html" target="_top" xlink:title="Raw">
<polygon fill="none" stroke="#ff0000" points="169,-324 115,-324 115,-288 169,-288 169,-324"/>
<text text-anchor="middle" x="142" y="-303.5" font-family="Helvetica,sans-Serif" font-size="10.00" fill="#000000">Raw</text>
</a>
</g>
</g>
<!-- dir_1b6b29fc497b523a5fbcdcf4771534fb&#45;&gt;dir_26637d1bd82229bc9ed97f7e706be743 -->
<g id="edge5" class="edge">
<title>dir_1b6b29fc497b523a5fbcdcf4771534fb&#45;&gt;dir_26637d1bd82229bc9ed97f7e706be743</title>
<path fill="none" stroke="#000000" d="M117.3273,-359.8314C120.973,-351.8771 125.3309,-342.369 129.3627,-333.5723"/>
<polygon fill="#000000" stroke="#000000" points="132.5757,-334.9622 133.5606,-324.4133 126.2123,-332.0456 132.5757,-334.9622"/>
<g id="a_edge5&#45;headlabel"><a xlink:href="dir_000476_000606.html" target="_top" xlink:title="1">
<text text-anchor="middle" x="133.6591" y="-336.9129" font-family="Helvetica,sans-Serif" font-size="10.00" fill="#000000">1</text>
</a>
</g>
</g>
<!-- dir_2171f7ec022c5423887b07c69b2f5b48 -->
<g id="node7" class="node">
<title>dir_2171f7ec022c5423887b07c69b2f5b48</title>
<g id="a_node7"><a xlink:href="dir_2171f7ec022c5423887b07c69b2f5b48.html" target="_top" xlink:title="DataFormats">
<polygon fill="none" stroke="#ff0000" points="214,-108 134,-108 134,-72 214,-72 214,-108"/>
<text text-anchor="middle" x="174" y="-87.5" font-family="Helvetica,sans-Serif" font-size="10.00" fill="#000000">DataFormats</text>
</a>
</g>
</g>
<!-- dir_1b6b29fc497b523a5fbcdcf4771534fb&#45;&gt;dir_2171f7ec022c5423887b07c69b2f5b48 -->
<g id="edge6" class="edge">
<title>dir_1b6b29fc497b523a5fbcdcf4771534fb&#45;&gt;dir_2171f7ec022c5423887b07c69b2f5b48</title>
<path fill="none" stroke="#000000" d="M136.0068,-366.0455C155.5125,-356.5338 181.7089,-341.8741 201,-324 229.5779,-297.5211 239.3568,-289.1788 251,-252 257.8469,-230.1367 246.8768,-149.1999 244,-144 237.4871,-132.2274 227.2273,-122.1858 216.5502,-114.07"/>
<polygon fill="#000000" stroke="#000000" points="218.5363,-111.1876 208.3591,-108.2423 214.4783,-116.8914 218.5363,-111.1876"/>
<g id="a_edge6&#45;headlabel"><a xlink:href="dir_000476_000080.html" target="_top" xlink:title="10">
<text text-anchor="middle" x="223.1112" y="-108.4579" font-family="Helvetica,sans-Serif" font-size="10.00" fill="#000000">10</text>
</a>
</g>
</g>
<!-- dir_4ab6b4cc6a7edbff49100e9123df213f&#45;&gt;dir_bcbb2cf9a3d3d83e5515c82071a07177 -->
<g id="edge7" class="edge">
<title>dir_4ab6b4cc6a7edbff49100e9123df213f&#45;&gt;dir_bcbb2cf9a3d3d83e5515c82071a07177</title>
<path fill="none" stroke="#000000" d="M195.7109,-215.8314C190.8482,-207.8771 185.7519,-198.369 181.5863,-189.5723"/>
<polygon fill="#000000" stroke="#000000" points="184.7667,-188.1105 177.4864,-180.4133 178.3776,-190.9706 184.7667,-188.1105"/>
<g id="a_edge7&#45;headlabel"><a xlink:href="dir_000031_000015.html" target="_top" xlink:title="2">
<text text-anchor="middle" x="188.8267" y="-187.7314" font-family="Helvetica,sans-Serif" font-size="10.00" fill="#000000">2</text>
</a>
</g>
</g>
<!-- dir_4ab6b4cc6a7edbff49100e9123df213f&#45;&gt;dir_2171f7ec022c5423887b07c69b2f5b48 -->
<g id="edge8" class="edge">
<title>dir_4ab6b4cc6a7edbff49100e9123df213f&#45;&gt;dir_2171f7ec022c5423887b07c69b2f5b48</title>
<path fill="none" stroke="#000000" d="M210.2781,-215.8274C213.2168,-197.2218 218.5976,-167.747 210,-144 206.3234,-133.845 199.8108,-124.2576 193.2343,-116.0591"/>
<polygon fill="#000000" stroke="#000000" points="195.8605,-113.744 186.7392,-108.3539 190.5083,-118.2556 195.8605,-113.744"/>
<g id="a_edge8&#45;headlabel"><a xlink:href="dir_000031_000080.html" target="_top" xlink:title="2">
<text text-anchor="middle" x="200.3481" y="-112.1624" font-family="Helvetica,sans-Serif" font-size="10.00" fill="#000000">2</text>
</a>
</g>
</g>
<!-- dir_ee46b747e1abe6c555594e61ae5c8c00&#45;&gt;dir_63da1bf9cbb165deb85abc813a5acde9 -->
<g id="edge9" class="edge">
<title>dir_ee46b747e1abe6c555594e61ae5c8c00&#45;&gt;dir_63da1bf9cbb165deb85abc813a5acde9</title>
<path fill="none" stroke="#000000" d="M55,-143.7623C55,-119.201 55,-75.2474 55,-46.3541"/>
<polygon fill="#000000" stroke="#000000" points="58.5001,-46.0896 55,-36.0896 51.5001,-46.0897 58.5001,-46.0896"/>
<g id="a_edge9&#45;headlabel"><a xlink:href="dir_000471_000345.html" target="_top" xlink:title="1">
<text text-anchor="middle" x="61.3393" y="-47.1842" font-family="Helvetica,sans-Serif" font-size="10.00" fill="#000000">1</text>
</a>
</g>
</g>
<!-- dir_ee46b747e1abe6c555594e61ae5c8c00&#45;&gt;dir_2171f7ec022c5423887b07c69b2f5b48 -->
<g id="edge10" class="edge">
<title>dir_ee46b747e1abe6c555594e61ae5c8c00&#45;&gt;dir_2171f7ec022c5423887b07c69b2f5b48</title>
<path fill="none" stroke="#000000" d="M82.0029,-145.6621C97.7696,-136.1226 117.9279,-123.926 135.3541,-113.3824"/>
<polygon fill="#000000" stroke="#000000" points="137.436,-116.2136 144.18,-108.0423 133.8123,-110.2245 137.436,-116.2136"/>
<g id="a_edge10&#45;headlabel"><a xlink:href="dir_000471_000080.html" target="_top" xlink:title="16">
<text text-anchor="middle" x="135.8303" y="-118.0036" font-family="Helvetica,sans-Serif" font-size="10.00" fill="#000000">16</text>
</a>
</g>
</g>
<!-- dir_bcbb2cf9a3d3d83e5515c82071a07177&#45;&gt;dir_4ab6b4cc6a7edbff49100e9123df213f -->
<g id="edge11" class="edge">
<title>dir_bcbb2cf9a3d3d83e5515c82071a07177&#45;&gt;dir_4ab6b4cc6a7edbff49100e9123df213f</title>
<path fill="none" stroke="#000000" d="M189.4384,-180.4133C194.3058,-188.3991 199.3948,-197.9155 203.5413,-206.6975"/>
<polygon fill="#000000" stroke="#000000" points="200.3454,-208.1246 207.6157,-215.8314 206.7382,-205.2729 200.3454,-208.1246"/>
<g id="a_edge11&#45;headlabel"><a xlink:href="dir_000015_000031.html" target="_top" xlink:title="8">
<text text-anchor="middle" x="196.2881" y="-203.4985" font-family="Helvetica,sans-Serif" font-size="10.00" fill="#000000">8</text>
</a>
</g>
</g>
<!-- dir_bcbb2cf9a3d3d83e5515c82071a07177&#45;&gt;dir_2171f7ec022c5423887b07c69b2f5b48 -->
<g id="edge12" class="edge">
<title>dir_bcbb2cf9a3d3d83e5515c82071a07177&#45;&gt;dir_2171f7ec022c5423887b07c69b2f5b48</title>
<path fill="none" stroke="#000000" d="M168.0476,-143.8314C167.2972,-136.131 167.0763,-126.9743 167.3849,-118.4166"/>
<polygon fill="#000000" stroke="#000000" points="170.8792,-118.6161 168.024,-108.4133 163.8935,-118.1697 170.8792,-118.6161"/>
<g id="a_edge12&#45;headlabel"><a xlink:href="dir_000015_000080.html" target="_top" xlink:title="82">
<text text-anchor="middle" x="173.4836" y="-119.8844" font-family="Helvetica,sans-Serif" font-size="10.00" fill="#000000">82</text>
</a>
</g>
</g>
<!-- dir_26637d1bd82229bc9ed97f7e706be743&#45;&gt;dir_4ab6b4cc6a7edbff49100e9123df213f -->
<g id="edge13" class="edge">
<title>dir_26637d1bd82229bc9ed97f7e706be743&#45;&gt;dir_4ab6b4cc6a7edbff49100e9123df213f</title>
<path fill="none" stroke="#000000" d="M159.4116,-287.8314C167.521,-279.3694 177.3156,-269.1489 186.182,-259.8971"/>
<polygon fill="#000000" stroke="#000000" points="188.9618,-262.0549 193.354,-252.4133 183.9079,-257.2115 188.9618,-262.0549"/>
<g id="a_edge13&#45;headlabel"><a xlink:href="dir_000606_000031.html" target="_top" xlink:title="10">
<text text-anchor="middle" x="188.5246" y="-264.1146" font-family="Helvetica,sans-Serif" font-size="10.00" fill="#000000">10</text>
</a>
</g>
</g>
<!-- dir_26637d1bd82229bc9ed97f7e706be743&#45;&gt;dir_bcbb2cf9a3d3d83e5515c82071a07177 -->
<g id="edge14" class="edge">
<title>dir_26637d1bd82229bc9ed97f7e706be743&#45;&gt;dir_bcbb2cf9a3d3d83e5515c82071a07177</title>
<path fill="none" stroke="#000000" d="M146.0528,-287.7623C151.5349,-263.0928 161.3645,-218.8598 167.7838,-189.9731"/>
<polygon fill="#000000" stroke="#000000" points="171.2274,-190.6108 169.9801,-180.0896 164.394,-189.0922 171.2274,-190.6108"/>
<g id="a_edge14&#45;headlabel"><a xlink:href="dir_000606_000015.html" target="_top" xlink:title="25">
<text text-anchor="middle" x="173.2193" y="-192.2357" font-family="Helvetica,sans-Serif" font-size="10.00" fill="#000000">25</text>
</a>
</g>
</g>
<!-- dir_26637d1bd82229bc9ed97f7e706be743&#45;&gt;dir_2171f7ec022c5423887b07c69b2f5b48 -->
<g id="edge15" class="edge">
<title>dir_26637d1bd82229bc9ed97f7e706be743&#45;&gt;dir_2171f7ec022c5423887b07c69b2f5b48</title>
<path fill="none" stroke="#000000" d="M135.7612,-287.85C126.2541,-257.1843 111.0382,-193.6114 129,-144 132.7149,-133.7392 139.3252,-124.0579 146.3548,-115.8033"/>
<polygon fill="#000000" stroke="#000000" points="148.9944,-118.1031 153.1422,-108.3539 143.82,-113.3886 148.9944,-118.1031"/>
<g id="a_edge15&#45;headlabel"><a xlink:href="dir_000606_000080.html" target="_top" xlink:title="15">
<text text-anchor="middle" x="148.6722" y="-120.1724" font-family="Helvetica,sans-Serif" font-size="10.00" fill="#000000">15</text>
</a>
</g>
</g>
<!-- dir_2171f7ec022c5423887b07c69b2f5b48&#45;&gt;dir_4ab6b4cc6a7edbff49100e9123df213f -->
<g id="edge16" class="edge">
<title>dir_2171f7ec022c5423887b07c69b2f5b48&#45;&gt;dir_4ab6b4cc6a7edbff49100e9123df213f</title>
<path fill="none" stroke="#000000" d="M202.7176,-108.1111C212.9851,-117.7168 223.0563,-130.3452 228,-144 235.2542,-164.0365 232.5571,-188.1507 227.0823,-206.3732"/>
<polygon fill="#000000" stroke="#000000" points="223.7735,-205.2326 223.8006,-215.8274 230.3864,-207.5281 223.7735,-205.2326"/>
<g id="a_edge16&#45;headlabel"><a xlink:href="dir_000080_000031.html" target="_top" xlink:title="36">
<text text-anchor="middle" x="222.2699" y="-198.4057" font-family="Helvetica,sans-Serif" font-size="10.00" fill="#000000">36</text>
</a>
</g>
</g>
<!-- dir_2171f7ec022c5423887b07c69b2f5b48&#45;&gt;dir_63da1bf9cbb165deb85abc813a5acde9 -->
<g id="edge17" class="edge">
<title>dir_2171f7ec022c5423887b07c69b2f5b48&#45;&gt;dir_63da1bf9cbb165deb85abc813a5acde9</title>
<path fill="none" stroke="#000000" d="M143.9713,-71.8314C127.7887,-62.0402 107.7149,-49.8947 90.7324,-39.6196"/>
<polygon fill="#000000" stroke="#000000" points="92.5382,-36.6214 82.1705,-34.4393 88.9145,-42.6105 92.5382,-36.6214"/>
<g id="a_edge17&#45;headlabel"><a xlink:href="dir_000080_000345.html" target="_top" xlink:title="1">
<text text-anchor="middle" x="97.0834" y="-33.5529" font-family="Helvetica,sans-Serif" font-size="10.00" fill="#000000">1</text>
</a>
</g>
</g>
<!-- dir_2171f7ec022c5423887b07c69b2f5b48&#45;&gt;dir_bcbb2cf9a3d3d83e5515c82071a07177 -->
<g id="edge18" class="edge">
<title>dir_2171f7ec022c5423887b07c69b2f5b48&#45;&gt;dir_bcbb2cf9a3d3d83e5515c82071a07177</title>
<path fill="none" stroke="#000000" d="M179.976,-108.4133C180.7071,-116.0593 180.9203,-125.1084 180.6155,-133.5726"/>
<polygon fill="#000000" stroke="#000000" points="177.1048,-133.6264 179.9524,-143.8314 184.0902,-134.078 177.1048,-133.6264"/>
<g id="a_edge18&#45;headlabel"><a xlink:href="dir_000080_000015.html" target="_top" xlink:title="17">
<text text-anchor="middle" x="174.5032" y="-127.3562" font-family="Helvetica,sans-Serif" font-size="10.00" fill="#000000">17</text>
</a>
</g>
</g>
</g>
</svg>
