<?xml version="1.0" encoding="UTF-8" standalone="no"?>
<!DOCTYPE svg PUBLIC "-//W3C//DTD SVG 1.1//EN"
 "http://www.w3.org/Graphics/SVG/1.1/DTD/svg11.dtd">
<!-- Generated by graphviz version 2.40.1 (20161225.0304)
 -->
<!-- Title: /home/travis/build/AliceO2Group/AliceO2/Analysis/DataModel Pages: 1 -->
<!--zoomable 519 -->
<svg id="main" version="1.1" xmlns="http://www.w3.org/2000/svg" xmlns:xlink="http://www.w3.org/1999/xlink" xml:space="preserve" onload="init(evt)">
<style type="text/css"><![CDATA[
.edge:hover path { stroke: red; }
.edge:hover polygon { stroke: red; fill: red; }
]]></style>
<script type="text/javascript"><![CDATA[
var edges = document.getElementsByTagName('g');
if (edges && edges.length) {
  for (var i=0;i<edges.length;i++) {
    if (edges[i].id.substr(0,4)=='edge') {
      edges[i].setAttribute('class','edge');
    }
  }
}
]]></script>
        <defs>
                <circle id="rim" cx="0" cy="0" r="7"/>
                <circle id="rim2" cx="0" cy="0" r="3.5"/>
                <g id="zoomPlus">
                        <use xlink:href="#rim" fill="#404040">
                                <set attributeName="fill" to="#808080" begin="zoomplus.mouseover" end="zoomplus.mouseout"/>
                        </use>
                        <path d="M-4,0h8M0,-4v8" fill="none" stroke="white" stroke-width="1.5" pointer-events="none"/>
                </g>
                <g id="zoomMin">
                        <use xlink:href="#rim" fill="#404040">
                                <set attributeName="fill" to="#808080" begin="zoomminus.mouseover" end="zoomminus.mouseout"/>
                        </use>
                        <path d="M-4,0h8" fill="none" stroke="white" stroke-width="1.5" pointer-events="none"/>
                </g>
                <g id="dirArrow">
                        <path fill="none" stroke="white" stroke-width="1.5" d="M0,-3.0v7 M-2.5,-0.5L0,-3.0L2.5,-0.5"/>
                </g>
               <g id="resetDef">
                       <use xlink:href="#rim2" fill="#404040">
                               <set attributeName="fill" to="#808080" begin="reset.mouseover" end="reset.mouseout"/>
                       </use>
               </g>
        </defs>

<script type="text/javascript">
var viewWidth = 341;
var viewHeight = 519;
var sectionId = 'dynsection-0';
</script>
<script xlink:href="svgpan.js"/>
<svg id="graph" class="graph">
<g id="viewport">
<title>/home/travis/build/AliceO2Group/AliceO2/Analysis/DataModel</title>
<g id="clust1" class="cluster">
<title>clusterdir_19b17cb436010079e3d017a29cb7858f</title>
<g id="a_clust1"><a xlink:href="dir_19b17cb436010079e3d017a29cb7858f.html" target="_top" xlink:title="Analysis">
<polygon fill="#ddddee" stroke="#000000" points="142.0648,-344 142.0648,-503 316.0648,-503 316.0648,-344 142.0648,-344"/>
<text text-anchor="middle" x="229.0648" y="-491" font-family="Helvetica,sans-Serif" font-size="10.00" fill="#000000">Analysis</text>
</a>
</g>
</g>
<g id="clust2" class="cluster">
<title>clusterdir_f41dd59f861c855ea21b0dc3111cb7b0</title>
<g id="a_clust2"><a xlink:href="dir_f41dd59f861c855ea21b0dc3111cb7b0.html" target="_top">
<polygon fill="#eeeeff" stroke="#000000" points="150.0648,-352 150.0648,-476 308.0648,-476 308.0648,-352 150.0648,-352"/>
</a>
</g>
</g>
<!-- dir_f41dd59f861c855ea21b0dc3111cb7b0 -->
<g id="node1" class="node">
<title>dir_f41dd59f861c855ea21b0dc3111cb7b0</title>
<text text-anchor="middle" x="265.0648" y="-447.5" font-family="Helvetica,sans-Serif" font-size="10.00" fill="#000000">DataModel</text>
</g>
<!-- dir_7683e4c5aa7478ea0e5a46a41c8497b7 -->
<g id="node2" class="node">
<title>dir_7683e4c5aa7478ea0e5a46a41c8497b7</title>
<g id="a_node2"><a xlink:href="dir_7683e4c5aa7478ea0e5a46a41c8497b7.html" target="_top" xlink:title="include">
<polygon fill="#ffffff" stroke="#ff0000" points="212.0648,-396 158.0648,-396 158.0648,-360 212.0648,-360 212.0648,-396"/>
<text text-anchor="middle" x="185.0648" y="-375.5" font-family="Helvetica,sans-Serif" font-size="10.00" fill="#000000">include</text>
</a>
</g>
</g>
<!-- dir_4ab6b4cc6a7edbff49100e9123df213f -->
<g id="node4" class="node">
<title>dir_4ab6b4cc6a7edbff49100e9123df213f</title>
<g id="a_node4"><a xlink:href="dir_4ab6b4cc6a7edbff49100e9123df213f.html" target="_top" xlink:title="Common">
<polygon fill="none" stroke="#ff0000" points="80.5648,-324 19.5648,-324 19.5648,-288 80.5648,-288 80.5648,-324"/>
<text text-anchor="middle" x="50.0648" y="-303.5" font-family="Helvetica,sans-Serif" font-size="10.00" fill="#000000">Common</text>
</a>
</g>
</g>
<!-- dir_7683e4c5aa7478ea0e5a46a41c8497b7&#45;&gt;dir_4ab6b4cc6a7edbff49100e9123df213f -->
<g id="edge12" class="edge">
<title>dir_7683e4c5aa7478ea0e5a46a41c8497b7&#45;&gt;dir_4ab6b4cc6a7edbff49100e9123df213f</title>
<path fill="none" stroke="#000000" d="M157.7455,-363.4297C138.1951,-353.0029 111.5743,-338.8051 89.6933,-327.1352"/>
<polygon fill="#000000" stroke="#000000" points="91.111,-323.9247 80.6403,-322.307 87.8168,-330.1012 91.111,-323.9247"/>
<g id="a_edge12&#45;headlabel"><a xlink:href="dir_000010_000031.html" target="_top" xlink:title="2">
<text text-anchor="middle" x="95.6188" y="-320.611" font-family="Helvetica,sans-Serif" font-size="10.00" fill="#000000">2</text>
</a>
</g>
</g>
<!-- dir_051dca18e802f8e9474f2e30d29c04e0 -->
<g id="node6" class="node">
<title>dir_051dca18e802f8e9474f2e30d29c04e0</title>
<g id="a_node6"><a xlink:href="dir_051dca18e802f8e9474f2e30d29c04e0.html" target="_top" xlink:title="Detectors">
<polygon fill="none" stroke="#ff0000" points="174.0648,-108 110.0648,-108 110.0648,-72 174.0648,-72 174.0648,-108"/>
<text text-anchor="middle" x="142.0648" y="-87.5" font-family="Helvetica,sans-Serif" font-size="10.00" fill="#000000">Detectors</text>
</a>
</g>
</g>
<!-- dir_7683e4c5aa7478ea0e5a46a41c8497b7&#45;&gt;dir_051dca18e802f8e9474f2e30d29c04e0 -->
<g id="edge13" class="edge">
<title>dir_7683e4c5aa7478ea0e5a46a41c8497b7&#45;&gt;dir_051dca18e802f8e9474f2e30d29c04e0</title>
<path fill="none" stroke="#000000" d="M192.8715,-359.8911C204.7961,-329.8114 224.9731,-267.7353 213.0648,-216 204.4369,-178.5165 180.7118,-140.7757 163.0468,-116.5072"/>
<polygon fill="#000000" stroke="#000000" points="165.6362,-114.1248 156.852,-108.2012 160.0249,-118.3098 165.6362,-114.1248"/>
<g id="a_edge13&#45;headlabel"><a xlink:href="dir_000010_000043.html" target="_top" xlink:title="1">
<text text-anchor="middle" x="170.0612" y="-112.8088" font-family="Helvetica,sans-Serif" font-size="10.00" fill="#000000">1</text>
</a>
</g>
</g>
<!-- dir_8d04f135a1eb0fdc4d561ef87bbea216 -->
<g id="node7" class="node">
<title>dir_8d04f135a1eb0fdc4d561ef87bbea216</title>
<g id="a_node7"><a xlink:href="dir_8d04f135a1eb0fdc4d561ef87bbea216.html" target="_top" xlink:title="Core">
<polygon fill="none" stroke="#ff0000" points="305.0648,-324 251.0648,-324 251.0648,-288 305.0648,-288 305.0648,-324"/>
<text text-anchor="middle" x="278.0648" y="-303.5" font-family="Helvetica,sans-Serif" font-size="10.00" fill="#000000">Core</text>
</a>
</g>
</g>
<!-- dir_7683e4c5aa7478ea0e5a46a41c8497b7&#45;&gt;dir_8d04f135a1eb0fdc4d561ef87bbea216 -->
<g id="edge14" class="edge">
<title>dir_7683e4c5aa7478ea0e5a46a41c8497b7&#45;&gt;dir_8d04f135a1eb0fdc4d561ef87bbea216</title>
<path fill="none" stroke="#000000" d="M208.5326,-359.8314C220.0974,-350.8779 234.2051,-339.9558 246.6831,-330.2955"/>
<polygon fill="#000000" stroke="#000000" points="248.8398,-333.0521 254.6044,-324.1628 244.5546,-327.5171 248.8398,-333.0521"/>
<g id="a_edge14&#45;headlabel"><a xlink:href="dir_000010_000005.html" target="_top" xlink:title="1">
<text text-anchor="middle" x="247.7356" y="-334.9977" font-family="Helvetica,sans-Serif" font-size="10.00" fill="#000000">1</text>
</a>
</g>
</g>
<!-- dir_bcbb2cf9a3d3d83e5515c82071a07177 -->
<g id="node8" class="node">
<title>dir_bcbb2cf9a3d3d83e5515c82071a07177</title>
<g id="a_node8"><a xlink:href="dir_bcbb2cf9a3d3d83e5515c82071a07177.html" target="_top" xlink:title="Framework">
<polygon fill="none" stroke="#ff0000" points="203.5648,-252 132.5648,-252 132.5648,-216 203.5648,-216 203.5648,-252"/>
<text text-anchor="middle" x="168.0648" y="-231.5" font-family="Helvetica,sans-Serif" font-size="10.00" fill="#000000">Framework</text>
</a>
</g>
</g>
<!-- dir_7683e4c5aa7478ea0e5a46a41c8497b7&#45;&gt;dir_bcbb2cf9a3d3d83e5515c82071a07177 -->
<g id="edge15" class="edge">
<title>dir_7683e4c5aa7478ea0e5a46a41c8497b7&#45;&gt;dir_bcbb2cf9a3d3d83e5515c82071a07177</title>
<path fill="none" stroke="#000000" d="M182.9117,-359.7623C180.0121,-335.201 174.8231,-291.2474 171.4121,-262.3541"/>
<polygon fill="#000000" stroke="#000000" points="174.8487,-261.6103 170.2003,-252.0896 167.897,-262.431 174.8487,-261.6103"/>
<g id="a_edge15&#45;headlabel"><a xlink:href="dir_000010_000015.html" target="_top" xlink:title="14">
<text text-anchor="middle" x="178.0897" y="-262.3473" font-family="Helvetica,sans-Serif" font-size="10.00" fill="#000000">14</text>
</a>
</g>
</g>
<!-- dir_2171f7ec022c5423887b07c69b2f5b48 -->
<g id="node9" class="node">
<title>dir_2171f7ec022c5423887b07c69b2f5b48</title>
<g id="a_node9"><a xlink:href="dir_2171f7ec022c5423887b07c69b2f5b48.html" target="_top" xlink:title="DataFormats">
<polygon fill="none" stroke="#ff0000" points="118.0648,-180 38.0648,-180 38.0648,-144 118.0648,-144 118.0648,-180"/>
<text text-anchor="middle" x="78.0648" y="-159.5" font-family="Helvetica,sans-Serif" font-size="10.00" fill="#000000">DataFormats</text>
</a>
</g>
</g>
<!-- dir_7683e4c5aa7478ea0e5a46a41c8497b7&#45;&gt;dir_2171f7ec022c5423887b07c69b2f5b48 -->
<g id="edge16" class="edge">
<title>dir_7683e4c5aa7478ea0e5a46a41c8497b7&#45;&gt;dir_2171f7ec022c5423887b07c69b2f5b48</title>
<path fill="none" stroke="#000000" d="M176.126,-359.9555C157.3617,-322.0762 113.772,-234.0818 91.5755,-189.274"/>
<polygon fill="#000000" stroke="#000000" points="94.6285,-187.5522 87.0533,-180.1451 88.356,-190.6595 94.6285,-187.5522"/>
<g id="a_edge16&#45;headlabel"><a xlink:href="dir_000010_000080.html" target="_top" xlink:title="7">
<text text-anchor="middle" x="98.7683" y="-187.013" font-family="Helvetica,sans-Serif" font-size="10.00" fill="#000000">7</text>
</a>
</g>
</g>
<!-- dir_11c44d21aa48687fb93b207a13bbbfe3 -->
<g id="node3" class="node">
<title>dir_11c44d21aa48687fb93b207a13bbbfe3</title>
<g id="a_node3"><a xlink:href="dir_11c44d21aa48687fb93b207a13bbbfe3.html" target="_top" xlink:title="src">
<polygon fill="#ffffff" stroke="#000000" points="212.0648,-468 158.0648,-468 158.0648,-432 212.0648,-432 212.0648,-468"/>
<text text-anchor="middle" x="185.0648" y="-447.5" font-family="Helvetica,sans-Serif" font-size="10.00" fill="#000000">src</text>
</a>
</g>
</g>
<!-- dir_11c44d21aa48687fb93b207a13bbbfe3&#45;&gt;dir_7683e4c5aa7478ea0e5a46a41c8497b7 -->
<g id="edge2" class="edge">
<title>dir_11c44d21aa48687fb93b207a13bbbfe3&#45;&gt;dir_7683e4c5aa7478ea0e5a46a41c8497b7</title>
<path fill="none" stroke="#000000" d="M185.0648,-431.8314C185.0648,-424.131 185.0648,-414.9743 185.0648,-406.4166"/>
<polygon fill="#000000" stroke="#000000" points="188.5649,-406.4132 185.0648,-396.4133 181.5649,-406.4133 188.5649,-406.4132"/>
<g id="a_edge2&#45;headlabel"><a xlink:href="dir_000014_000010.html" target="_top" xlink:title="16">
<text text-anchor="middle" x="191.404" y="-407.5079" font-family="Helvetica,sans-Serif" font-size="10.00" fill="#000000">16</text>
</a>
</g>
</g>
<!-- dir_6af676bf18881990e4083e191d0e63e0 -->
<g id="node5" class="node">
<title>dir_6af676bf18881990e4083e191d0e63e0</title>
<g id="a_node5"><a xlink:href="dir_6af676bf18881990e4083e191d0e63e0.html" target="_top" xlink:title="CCDB">
<polygon fill="none" stroke="#ff0000" points="229.0648,-36 175.0648,-36 175.0648,0 229.0648,0 229.0648,-36"/>
<text text-anchor="middle" x="202.0648" y="-15.5" font-family="Helvetica,sans-Serif" font-size="10.00" fill="#000000">CCDB</text>
</a>
</g>
</g>
<!-- dir_11c44d21aa48687fb93b207a13bbbfe3&#45;&gt;dir_6af676bf18881990e4083e191d0e63e0 -->
<g id="edge1" class="edge">
<title>dir_11c44d21aa48687fb93b207a13bbbfe3&#45;&gt;dir_6af676bf18881990e4083e191d0e63e0</title>
<path fill="none" stroke="#000000" d="M211.1835,-431.8062C253.6714,-401.2338 333.0648,-339.6091 333.0648,-306 333.0648,-306 333.0648,-306 333.0648,-162 333.0648,-105.3673 276.9386,-61.1773 238.1617,-37.405"/>
<polygon fill="#000000" stroke="#000000" points="239.5929,-34.1842 229.208,-32.0854 236.0175,-40.2022 239.5929,-34.1842"/>
<g id="a_edge1&#45;headlabel"><a xlink:href="dir_000014_000023.html" target="_top" xlink:title="2">
<text text-anchor="middle" x="244.1335" y="-31.0792" font-family="Helvetica,sans-Serif" font-size="10.00" fill="#000000">2</text>
</a>
</g>
</g>
<!-- dir_11c44d21aa48687fb93b207a13bbbfe3&#45;&gt;dir_bcbb2cf9a3d3d83e5515c82071a07177 -->
<g id="edge3" class="edge">
<title>dir_11c44d21aa48687fb93b207a13bbbfe3&#45;&gt;dir_bcbb2cf9a3d3d83e5515c82071a07177</title>
<path fill="none" stroke="#000000" d="M169.0743,-431.9169C161.4109,-422.0371 153.0482,-409.1563 149.0648,-396 135.2921,-350.5119 147.745,-295.0372 157.9559,-262.2224"/>
<polygon fill="#000000" stroke="#000000" points="161.3842,-262.9983 161.1563,-252.4059 154.729,-260.8285 161.3842,-262.9983"/>
<g id="a_edge3&#45;headlabel"><a xlink:href="dir_000014_000015.html" target="_top" xlink:title="3">
<text text-anchor="middle" x="162.9695" y="-264.7959" font-family="Helvetica,sans-Serif" font-size="10.00" fill="#000000">3</text>
</a>
</g>
</g>
<!-- dir_4ab6b4cc6a7edbff49100e9123df213f&#45;&gt;dir_bcbb2cf9a3d3d83e5515c82071a07177 -->
<g id="edge4" class="edge">
<title>dir_4ab6b4cc6a7edbff49100e9123df213f&#45;&gt;dir_bcbb2cf9a3d3d83e5515c82071a07177</title>
<path fill="none" stroke="#000000" d="M73.8887,-287.8314C88.2156,-278.5368 106.7909,-267.1208 123.6919,-257.1971"/>
<polygon fill="#000000" stroke="#000000" points="125.4621,-260.2165 132.3461,-252.1628 121.9423,-254.1658 125.4621,-260.2165"/>
<g id="a_edge4&#45;headlabel"><a xlink:href="dir_000031_000015.html" target="_top" xlink:title="2">
<text text-anchor="middle" x="123.7827" y="-261.9782" font-family="Helvetica,sans-Serif" font-size="10.00" fill="#000000">2</text>
</a>
</g>
</g>
<!-- dir_4ab6b4cc6a7edbff49100e9123df213f&#45;&gt;dir_2171f7ec022c5423887b07c69b2f5b48 -->
<g id="edge5" class="edge">
<title>dir_4ab6b4cc6a7edbff49100e9123df213f&#45;&gt;dir_2171f7ec022c5423887b07c69b2f5b48</title>
<path fill="none" stroke="#000000" d="M48.9378,-287.7623C51.264,-263.0928 59.5986,-218.8598 67.1535,-189.9731"/>
<polygon fill="#000000" stroke="#000000" points="70.5946,-190.6609 69.889,-180.0896 63.8483,-188.7936 70.5946,-190.6609"/>
<g id="a_edge5&#45;headlabel"><a xlink:href="dir_000031_000080.html" target="_top" xlink:title="2">
<text text-anchor="middle" x="72.3722" y="-192.3826" font-family="Helvetica,sans-Serif" font-size="10.00" fill="#000000">2</text>
</a>
</g>
</g>
<!-- dir_6af676bf18881990e4083e191d0e63e0&#45;&gt;dir_4ab6b4cc6a7edbff49100e9123df213f -->
<g id="edge6" class="edge">
<title>dir_6af676bf18881990e4083e191d0e63e0&#45;&gt;dir_4ab6b4cc6a7edbff49100e9123df213f</title>
<path fill="none" stroke="#000000" d="M174.8023,-26.122C130.4746,-41.0402 44.5601,-77.5373 13.0648,-144 -7.4912,-187.378 -.1642,-206.1553 14.0648,-252 17.0889,-261.7437 22.4775,-271.3503 28.1796,-279.6978"/>
<polygon fill="#000000" stroke="#000000" points="25.4327,-281.8713 34.1493,-287.894 31.091,-277.7501 25.4327,-281.8713"/>
<g id="a_edge6&#45;headlabel"><a xlink:href="dir_000023_000031.html" target="_top" xlink:title="4">
<text text-anchor="middle" x="21.0214" y="-278.1373" font-family="Helvetica,sans-Serif" font-size="10.00" fill="#000000">4</text>
</a>
</g>
</g>
<!-- dir_6af676bf18881990e4083e191d0e63e0&#45;&gt;dir_bcbb2cf9a3d3d83e5515c82071a07177 -->
<g id="edge7" class="edge">
<title>dir_6af676bf18881990e4083e191d0e63e0&#45;&gt;dir_bcbb2cf9a3d3d83e5515c82071a07177</title>
<path fill="none" stroke="#000000" d="M199.6123,-36.0126C195.4872,-65.9539 186.7559,-127.8356 178.0648,-180 176.6765,-188.332 175.0515,-197.3644 173.5199,-205.6145"/>
<polygon fill="#000000" stroke="#000000" points="170.0629,-205.0601 171.6545,-215.5346 176.9423,-206.3537 170.0629,-205.0601"/>
<g id="a_edge7&#45;headlabel"><a xlink:href="dir_000023_000015.html" target="_top" xlink:title="2">
<text text-anchor="middle" x="167.9367" y="-198.5027" font-family="Helvetica,sans-Serif" font-size="10.00" fill="#000000">2</text>
</a>
</g>
</g>
<!-- dir_051dca18e802f8e9474f2e30d29c04e0&#45;&gt;dir_4ab6b4cc6a7edbff49100e9123df213f -->
<g id="edge8" class="edge">
<title>dir_051dca18e802f8e9474f2e30d29c04e0&#45;&gt;dir_4ab6b4cc6a7edbff49100e9123df213f</title>
<path fill="none" stroke="#000000" d="M109.9958,-95.6531C83.2223,-102.2476 46.6901,-116.0428 29.0648,-144 3.0474,-185.2686 21.4767,-244.2222 36.368,-278.4604"/>
<polygon fill="#000000" stroke="#000000" points="33.305,-280.18 40.6283,-287.8363 39.6779,-277.2842 33.305,-280.18"/>
<g id="a_edge8&#45;headlabel"><a xlink:href="dir_000043_000031.html" target="_top" xlink:title="292">
<text text-anchor="middle" x="29.233" y="-275.5819" font-family="Helvetica,sans-Serif" font-size="10.00" fill="#000000">292</text>
</a>
</g>
</g>
<!-- dir_051dca18e802f8e9474f2e30d29c04e0&#45;&gt;dir_6af676bf18881990e4083e191d0e63e0 -->
<g id="edge9" class="edge">
<title>dir_051dca18e802f8e9474f2e30d29c04e0&#45;&gt;dir_6af676bf18881990e4083e191d0e63e0</title>
<path fill="none" stroke="#000000" d="M157.2053,-71.8314C164.1864,-63.454 172.6038,-53.3531 180.2523,-44.1749"/>
<polygon fill="#000000" stroke="#000000" points="183.0073,-46.3362 186.7204,-36.4133 177.6297,-41.8548 183.0073,-46.3362"/>
<g id="a_edge9&#45;headlabel"><a xlink:href="dir_000043_000023.html" target="_top" xlink:title="29">
<text text-anchor="middle" x="182.8873" y="-48.4152" font-family="Helvetica,sans-Serif" font-size="10.00" fill="#000000">29</text>
</a>
</g>
</g>
<!-- dir_051dca18e802f8e9474f2e30d29c04e0&#45;&gt;dir_bcbb2cf9a3d3d83e5515c82071a07177 -->
<g id="edge10" class="edge">
<title>dir_051dca18e802f8e9474f2e30d29c04e0&#45;&gt;dir_bcbb2cf9a3d3d83e5515c82071a07177</title>
<path fill="none" stroke="#000000" d="M149.9892,-108.0896C156.8784,-132.5727 165.0964,-176.5174 168.4227,-205.4713"/>
<polygon fill="#000000" stroke="#000000" points="164.9735,-206.1573 169.445,-215.7623 171.9392,-205.4653 164.9735,-206.1573"/>
<g id="a_edge10&#45;headlabel"><a xlink:href="dir_000043_000015.html" target="_top" xlink:title="866">
<text text-anchor="middle" x="161.7929" y="-200.361" font-family="Helvetica,sans-Serif" font-size="10.00" fill="#000000">866</text>
</a>
</g>
</g>
<!-- dir_051dca18e802f8e9474f2e30d29c04e0&#45;&gt;dir_2171f7ec022c5423887b07c69b2f5b48 -->
<g id="edge11" class="edge">
<title>dir_051dca18e802f8e9474f2e30d29c04e0&#45;&gt;dir_2171f7ec022c5423887b07c69b2f5b48</title>
<path fill="none" stroke="#000000" d="M131.6734,-108.4133C124.9342,-116.9088 116.0157,-127.1366 107.3421,-136.3696"/>
<polygon fill="#000000" stroke="#000000" points="104.5754,-134.1972 100.1671,-143.8314 109.6212,-139.049 104.5754,-134.1972"/>
<g id="a_edge11&#45;headlabel"><a xlink:href="dir_000043_000080.html" target="_top" xlink:title="1204">
<text text-anchor="middle" x="105.0202" y="-127.1382" font-family="Helvetica,sans-Serif" font-size="10.00" fill="#000000">1204</text>
</a>
</g>
</g>
<!-- dir_8d04f135a1eb0fdc4d561ef87bbea216&#45;&gt;dir_6af676bf18881990e4083e191d0e63e0 -->
<g id="edge17" class="edge">
<title>dir_8d04f135a1eb0fdc4d561ef87bbea216&#45;&gt;dir_6af676bf18881990e4083e191d0e63e0</title>
<path fill="none" stroke="#000000" d="M273.3106,-287.9843C260.4351,-239.1929 224.8219,-104.2377 209.3726,-45.6927"/>
<polygon fill="#000000" stroke="#000000" points="212.7529,-44.7848 206.8171,-36.0089 205.9846,-46.571 212.7529,-44.7848"/>
<g id="a_edge17&#45;headlabel"><a xlink:href="dir_000005_000023.html" target="_top" xlink:title="1">
<text text-anchor="middle" x="216.4153" y="-45.036" font-family="Helvetica,sans-Serif" font-size="10.00" fill="#000000">1</text>
</a>
</g>
</g>
<!-- dir_8d04f135a1eb0fdc4d561ef87bbea216&#45;&gt;dir_bcbb2cf9a3d3d83e5515c82071a07177 -->
<g id="edge18" class="edge">
<title>dir_8d04f135a1eb0fdc4d561ef87bbea216&#45;&gt;dir_bcbb2cf9a3d3d83e5515c82071a07177</title>
<path fill="none" stroke="#000000" d="M250.8737,-288.2022C236.8333,-279.0121 219.5117,-267.6744 204.3461,-257.7478"/>
<polygon fill="#000000" stroke="#000000" points="205.9909,-254.6413 195.707,-252.0931 202.1572,-260.4982 205.9909,-254.6413"/>
<g id="a_edge18&#45;headlabel"><a xlink:href="dir_000005_000015.html" target="_top" xlink:title="5">
<text text-anchor="middle" x="210.5534" y="-251.7343" font-family="Helvetica,sans-Serif" font-size="10.00" fill="#000000">5</text>
</a>
</g>
</g>
<!-- dir_bcbb2cf9a3d3d83e5515c82071a07177&#45;&gt;dir_4ab6b4cc6a7edbff49100e9123df213f -->
<g id="edge19" class="edge">
<title>dir_bcbb2cf9a3d3d83e5515c82071a07177&#45;&gt;dir_4ab6b4cc6a7edbff49100e9123df213f</title>
<path fill="none" stroke="#000000" d="M144.4287,-252.0467C128.6461,-262.2917 107.6492,-275.1441 89.4182,-285.7347"/>
<polygon fill="#000000" stroke="#000000" points="87.6515,-282.7131 80.7255,-290.7307 91.1396,-288.7821 87.6515,-282.7131"/>
<g id="a_edge19&#45;headlabel"><a xlink:href="dir_000015_000031.html" target="_top" xlink:title="8">
<text text-anchor="middle" x="89.3533" y="-275.9603" font-family="Helvetica,sans-Serif" font-size="10.00" fill="#000000">8</text>
</a>
</g>
</g>
<!-- dir_bcbb2cf9a3d3d83e5515c82071a07177&#45;&gt;dir_051dca18e802f8e9474f2e30d29c04e0 -->
<g id="edge20" class="edge">
<title>dir_bcbb2cf9a3d3d83e5515c82071a07177&#45;&gt;dir_051dca18e802f8e9474f2e30d29c04e0</title>
<path fill="none" stroke="#000000" d="M160.0987,-215.7623C153.2042,-191.201 144.9934,-147.2474 141.6868,-118.3541"/>
<polygon fill="#000000" stroke="#000000" points="145.139,-117.697 140.6726,-108.0896 138.1729,-118.3853 145.139,-117.697"/>
<g id="a_edge20&#45;headlabel"><a xlink:href="dir_000015_000043.html" target="_top" xlink:title="4">
<text text-anchor="middle" x="148.3179" y="-118.495" font-family="Helvetica,sans-Serif" font-size="10.00" fill="#000000">4</text>
</a>
</g>
</g>
<!-- dir_bcbb2cf9a3d3d83e5515c82071a07177&#45;&gt;dir_2171f7ec022c5423887b07c69b2f5b48 -->
<g id="edge21" class="edge">
<title>dir_bcbb2cf9a3d3d83e5515c82071a07177&#45;&gt;dir_2171f7ec022c5423887b07c69b2f5b48</title>
<path fill="none" stroke="#000000" d="M139.4016,-215.8314C127.567,-207.0485 114.0534,-196.3712 102.6723,-186.8489"/>
<polygon fill="#000000" stroke="#000000" points="104.7002,-183.9788 94.8165,-180.1628 100.1633,-189.3095 104.7002,-183.9788"/>
<g id="a_edge21&#45;headlabel"><a xlink:href="dir_000015_000080.html" target="_top" xlink:title="82">
<text text-anchor="middle" x="109.2778" y="-181.6464" font-family="Helvetica,sans-Serif" font-size="10.00" fill="#000000">82</text>
</a>
</g>
</g>
<!-- dir_2171f7ec022c5423887b07c69b2f5b48&#45;&gt;dir_4ab6b4cc6a7edbff49100e9123df213f -->
<g id="edge22" class="edge">
<title>dir_2171f7ec022c5423887b07c69b2f5b48&#45;&gt;dir_4ab6b4cc6a7edbff49100e9123df213f</title>
<path fill="none" stroke="#000000" d="M79.2056,-180.0896C76.9035,-204.6805 68.5795,-248.905 61.0214,-277.8531"/>
<polygon fill="#000000" stroke="#000000" points="57.5732,-277.1913 58.2841,-287.7623 64.3205,-279.0552 57.5732,-277.1913"/>
<g id="a_edge22&#45;headlabel"><a xlink:href="dir_000080_000031.html" target="_top" xlink:title="36">
<text text-anchor="middle" x="55.7935" y="-270.4705" font-family="Helvetica,sans-Serif" font-size="10.00" fill="#000000">36</text>
</a>
</g>
</g>
<!-- dir_2171f7ec022c5423887b07c69b2f5b48&#45;&gt;dir_051dca18e802f8e9474f2e30d29c04e0 -->
<g id="edge23" class="edge">
<title>dir_2171f7ec022c5423887b07c69b2f5b48&#45;&gt;dir_051dca18e802f8e9474f2e30d29c04e0</title>
<path fill="none" stroke="#000000" d="M88.2623,-143.8314C94.9594,-135.3694 103.8591,-125.1489 112.5371,-115.8971"/>
<polygon fill="#000000" stroke="#000000" points="115.3211,-118.0511 119.7214,-108.4133 110.2713,-113.2034 115.3211,-118.0511"/>
<g id="a_edge23&#45;headlabel"><a xlink:href="dir_000080_000043.html" target="_top" xlink:title="16">
<text text-anchor="middle" x="114.88" y="-120.1105" font-family="Helvetica,sans-Serif" font-size="10.00" fill="#000000">16</text>
</a>
</g>
</g>
<!-- dir_2171f7ec022c5423887b07c69b2f5b48&#45;&gt;dir_bcbb2cf9a3d3d83e5515c82071a07177 -->
<g id="edge24" class="edge">
<title>dir_2171f7ec022c5423887b07c69b2f5b48&#45;&gt;dir_bcbb2cf9a3d3d83e5515c82071a07177</title>
<path fill="none" stroke="#000000" d="M106.7201,-180.1628C118.5539,-188.9449 132.0677,-199.622 143.4497,-209.1448"/>
<polygon fill="#000000" stroke="#000000" points="141.4225,-212.0155 151.3064,-215.8314 145.9594,-206.6847 141.4225,-212.0155"/>
<g id="a_edge24&#45;headlabel"><a xlink:href="dir_000080_000015.html" target="_top" xlink:title="17">
<text text-anchor="middle" x="136.8449" y="-209.348" font-family="Helvetica,sans-Serif" font-size="10.00" fill="#000000">17</text>
</a>
</g>
</g>
</g>
</svg>
        <g id="navigator" transform="translate(0 0)" fill="#404254">
                <rect fill="#f2f5e9" fill-opacity="0.5" stroke="#606060" stroke-width=".5" x="0" y="0" width="60" height="60"/>
                <use id="zoomplus" xlink:href="#zoomPlus" x="17" y="9" onmousedown="handleZoom(evt,'in')"/>
                <use id="zoomminus" xlink:href="#zoomMin" x="42" y="9" onmousedown="handleZoom(evt,'out')"/>
                <use id="reset" xlink:href="#resetDef" x="30" y="36" onmousedown="handleReset()"/>
                <g id="arrowUp" xlink:href="#dirArrow" transform="translate(30 24)" onmousedown="handlePan(0,-1)">
                  <use xlink:href="#rim" fill="#404040">
                        <set attributeName="fill" to="#808080" begin="arrowUp.mouseover" end="arrowUp.mouseout"/>
                  </use>
                  <path fill="none" stroke="white" stroke-width="1.5" d="M0,-3.0v7 M-2.5,-0.5L0,-3.0L2.5,-0.5"/>
                </g>
                <g id="arrowRight" xlink:href="#dirArrow" transform="rotate(90) translate(36 -43)" onmousedown="handlePan(1,0)">
                  <use xlink:href="#rim" fill="#404040">
                        <set attributeName="fill" to="#808080" begin="arrowRight.mouseover" end="arrowRight.mouseout"/>
                  </use>
                  <path fill="none" stroke="white" stroke-width="1.5" d="M0,-3.0v7 M-2.5,-0.5L0,-3.0L2.5,-0.5"/>
                </g>
                <g id="arrowDown" xlink:href="#dirArrow" transform="rotate(180) translate(-30 -48)" onmousedown="handlePan(0,1)">
                  <use xlink:href="#rim" fill="#404040">
                        <set attributeName="fill" to="#808080" begin="arrowDown.mouseover" end="arrowDown.mouseout"/>
                  </use>
                  <path fill="none" stroke="white" stroke-width="1.5" d="M0,-3.0v7 M-2.5,-0.5L0,-3.0L2.5,-0.5"/>
                </g>
                <g id="arrowLeft" xlink:href="#dirArrow" transform="rotate(270) translate(-36 17)" onmousedown="handlePan(-1,0)">
                  <use xlink:href="#rim" fill="#404040">
                        <set attributeName="fill" to="#808080" begin="arrowLeft.mouseover" end="arrowLeft.mouseout"/>
                  </use>
                  <path fill="none" stroke="white" stroke-width="1.5" d="M0,-3.0v7 M-2.5,-0.5L0,-3.0L2.5,-0.5"/>
                </g>
        </g>
        <svg viewBox="0 0 15 15" width="100%" height="30px" preserveAspectRatio="xMaxYMin meet">
         <g id="arrow_out" transform="scale(0.3 0.3)">
          <a xlink:href="dir_f41dd59f861c855ea21b0dc3111cb7b0_dep_org.svg" target="_base">
           <rect id="button" ry="5" rx="5" y="6" x="6" height="38" width="38"
                fill="#f2f5e9" fill-opacity="0.5" stroke="#606060" stroke-width="1.0"/>
           <path id="arrow"
             d="M 11.500037,31.436501 C 11.940474,20.09759 22.043105,11.32322 32.158766,21.979434 L 37.068811,17.246167 C 37.068811,17.246167 37.088388,32 37.088388,32 L 22.160133,31.978069 C 22.160133,31.978069 26.997745,27.140456 26.997745,27.140456 C 18.528582,18.264221 13.291696,25.230495 11.500037,31.436501 z"
             style="fill:#404040;"/>
          </a>
         </g>
        </svg>
</svg>
