<?xml version="1.0" encoding="UTF-8" standalone="no"?>
<!DOCTYPE svg PUBLIC "-//W3C//DTD SVG 1.1//EN"
 "http://www.w3.org/Graphics/SVG/1.1/DTD/svg11.dtd">
<!-- Generated by graphviz version 2.40.1 (20161225.0304)
 -->
<!-- Title: /home/travis/build/AliceO2Group/AliceO2/Detectors/TPC/reconstruction Pages: 1 -->
<svg width="724pt" height="663pt"
 viewBox="0.00 0.00 724.00 663.00" xmlns="http://www.w3.org/2000/svg" xmlns:xlink="http://www.w3.org/1999/xlink">
<g id="graph0" class="graph" transform="scale(1 1) rotate(0) translate(4 659)">
<title>/home/travis/build/AliceO2Group/AliceO2/Detectors/TPC/reconstruction</title>
<g id="clust1" class="cluster">
<title>clusterdir_a597e8e061b11201a1dff411feb10d0b</title>
<g id="a_clust1"><a xlink:href="dir_a597e8e061b11201a1dff411feb10d0b.html" target="_top" xlink:title="TPC">
<polygon fill="#ddddee" stroke="#000000" points="195,-488 195,-647 529,-647 529,-488 195,-488"/>
<text text-anchor="middle" x="362" y="-635" font-family="Helvetica,sans-Serif" font-size="10.00" fill="#000000">TPC</text>
</a>
</g>
</g>
<g id="clust2" class="cluster">
<title>clusterdir_a5de047958dd458e809773c6ffaa8478</title>
<g id="a_clust2"><a xlink:href="dir_a5de047958dd458e809773c6ffaa8478.html" target="_top">
<polygon fill="#eeeeff" stroke="#000000" points="203,-496 203,-620 521,-620 521,-496 203,-496"/>
</a>
</g>
</g>
<!-- dir_a5de047958dd458e809773c6ffaa8478 -->
<g id="node1" class="node">
<title>dir_a5de047958dd458e809773c6ffaa8478</title>
<text text-anchor="middle" x="470" y="-591.5" font-family="Helvetica,sans-Serif" font-size="10.00" fill="#000000">reconstruction</text>
</g>
<!-- dir_396d171119822f66a36fe1ebf998d1a3 -->
<g id="node2" class="node">
<title>dir_396d171119822f66a36fe1ebf998d1a3</title>
<g id="a_node2"><a xlink:href="dir_396d171119822f66a36fe1ebf998d1a3.html" target="_top" xlink:title="include">
<polygon fill="#ffffff" stroke="#ff0000" points="265,-540 211,-540 211,-504 265,-504 265,-540"/>
<text text-anchor="middle" x="238" y="-519.5" font-family="Helvetica,sans-Serif" font-size="10.00" fill="#000000">include</text>
</a>
</g>
</g>
<!-- dir_677b030cc750909e4cd27413873678d8 -->
<g id="node6" class="node">
<title>dir_677b030cc750909e4cd27413873678d8</title>
<g id="a_node6"><a xlink:href="dir_677b030cc750909e4cd27413873678d8.html" target="_top" xlink:title="base">
<polygon fill="none" stroke="#ff0000" points="591,-540 537,-540 537,-504 591,-504 591,-540"/>
<text text-anchor="middle" x="564" y="-519.5" font-family="Helvetica,sans-Serif" font-size="10.00" fill="#000000">base</text>
</a>
</g>
</g>
<!-- dir_396d171119822f66a36fe1ebf998d1a3&#45;&gt;dir_677b030cc750909e4cd27413873678d8 -->
<g id="edge19" class="edge">
<title>dir_396d171119822f66a36fe1ebf998d1a3&#45;&gt;dir_677b030cc750909e4cd27413873678d8</title>
<path fill="none" stroke="#000000" d="M265.0605,-522C352.2951,-522 439.5297,-522 526.7643,-522"/>
<polygon fill="#000000" stroke="#000000" points="526.8503,-525.5001 536.8502,-522 526.8502,-518.5001 526.8503,-525.5001"/>
<g id="a_edge19&#45;headlabel"><a xlink:href="dir_000378_000054.html" target="_top" xlink:title="9">
<text text-anchor="middle" x="523.2556" y="-525.8393" font-family="Helvetica,sans-Serif" font-size="10.00" fill="#000000">9</text>
</a>
</g>
</g>
<!-- dir_4ab6b4cc6a7edbff49100e9123df213f -->
<g id="node7" class="node">
<title>dir_4ab6b4cc6a7edbff49100e9123df213f</title>
<g id="a_node7"><a xlink:href="dir_4ab6b4cc6a7edbff49100e9123df213f.html" target="_top" xlink:title="Common">
<polygon fill="none" stroke="#ff0000" points="420.5,-468 359.5,-468 359.5,-432 420.5,-432 420.5,-468"/>
<text text-anchor="middle" x="390" y="-447.5" font-family="Helvetica,sans-Serif" font-size="10.00" fill="#000000">Common</text>
</a>
</g>
</g>
<!-- dir_396d171119822f66a36fe1ebf998d1a3&#45;&gt;dir_4ab6b4cc6a7edbff49100e9123df213f -->
<g id="edge20" class="edge">
<title>dir_396d171119822f66a36fe1ebf998d1a3&#45;&gt;dir_4ab6b4cc6a7edbff49100e9123df213f</title>
<path fill="none" stroke="#000000" d="M265.1746,-509.1278C288.8541,-497.9112 323.5,-481.5 350.2871,-468.8114"/>
<polygon fill="#000000" stroke="#000000" points="351.8643,-471.9371 359.4034,-464.4931 348.8677,-465.611 351.8643,-471.9371"/>
<g id="a_edge20&#45;headlabel"><a xlink:href="dir_000378_000031.html" target="_top" xlink:title="2">
<text text-anchor="middle" x="349.8312" y="-473.5418" font-family="Helvetica,sans-Serif" font-size="10.00" fill="#000000">2</text>
</a>
</g>
</g>
<!-- dir_b05a5fa85f84bfc9013183c9d87f9a36 -->
<g id="node8" class="node">
<title>dir_b05a5fa85f84bfc9013183c9d87f9a36</title>
<g id="a_node8"><a xlink:href="dir_b05a5fa85f84bfc9013183c9d87f9a36.html" target="_top" xlink:title="Utilities">
<polygon fill="none" stroke="#ff0000" points="404.5,-108 349.5,-108 349.5,-72 404.5,-72 404.5,-108"/>
<text text-anchor="middle" x="377" y="-87.5" font-family="Helvetica,sans-Serif" font-size="10.00" fill="#000000">Utilities</text>
</a>
</g>
</g>
<!-- dir_396d171119822f66a36fe1ebf998d1a3&#45;&gt;dir_b05a5fa85f84bfc9013183c9d87f9a36 -->
<g id="edge21" class="edge">
<title>dir_396d171119822f66a36fe1ebf998d1a3&#45;&gt;dir_b05a5fa85f84bfc9013183c9d87f9a36</title>
<path fill="none" stroke="#000000" d="M210.6984,-518.5032C148.1835,-508.8126 0,-475.5536 0,-378 0,-378 0,-378 0,-306 0,-150.7698 243.608,-105.5294 339.1754,-93.7541"/>
<polygon fill="#000000" stroke="#000000" points="339.7551,-97.2101 349.2783,-92.5669 338.9381,-90.258 339.7551,-97.2101"/>
<g id="a_edge21&#45;headlabel"><a xlink:href="dir_000378_000601.html" target="_top" xlink:title="1">
<text text-anchor="middle" x="336.5164" y="-97.9494" font-family="Helvetica,sans-Serif" font-size="10.00" fill="#000000">1</text>
</a>
</g>
</g>
<!-- dir_37c90836491b695b472bf98d1be8336b -->
<g id="node9" class="node">
<title>dir_37c90836491b695b472bf98d1be8336b</title>
<g id="a_node9"><a xlink:href="dir_37c90836491b695b472bf98d1be8336b.html" target="_top" xlink:title="Base">
<polygon fill="none" stroke="#ff0000" points="348,-180 294,-180 294,-144 348,-144 348,-180"/>
<text text-anchor="middle" x="321" y="-159.5" font-family="Helvetica,sans-Serif" font-size="10.00" fill="#000000">Base</text>
</a>
</g>
</g>
<!-- dir_396d171119822f66a36fe1ebf998d1a3&#45;&gt;dir_37c90836491b695b472bf98d1be8336b -->
<g id="edge22" class="edge">
<title>dir_396d171119822f66a36fe1ebf998d1a3&#45;&gt;dir_37c90836491b695b472bf98d1be8336b</title>
<path fill="none" stroke="#000000" d="M210.5599,-513.7013C186.6512,-505.3355 152.2602,-490.4274 129,-468 70.1406,-411.2479 48.8395,-358.0552 91,-288 133.457,-217.4522 230.7069,-183.6993 284.148,-169.9615"/>
<polygon fill="#000000" stroke="#000000" points="285.0397,-173.3465 293.9084,-167.5503 283.3608,-166.5508 285.0397,-173.3465"/>
<g id="a_edge22&#45;headlabel"><a xlink:href="dir_000378_000275.html" target="_top" xlink:title="1">
<text text-anchor="middle" x="282.2309" y="-174.465" font-family="Helvetica,sans-Serif" font-size="10.00" fill="#000000">1</text>
</a>
</g>
</g>
<!-- dir_f511f1e9c03c071966ae594f00bbc5e0 -->
<g id="node10" class="node">
<title>dir_f511f1e9c03c071966ae594f00bbc5e0</title>
<g id="a_node10"><a xlink:href="dir_f511f1e9c03c071966ae594f00bbc5e0.html" target="_top" xlink:title="GPU">
<polygon fill="none" stroke="#ff0000" points="310,-396 256,-396 256,-360 310,-360 310,-396"/>
<text text-anchor="middle" x="283" y="-375.5" font-family="Helvetica,sans-Serif" font-size="10.00" fill="#000000">GPU</text>
</a>
</g>
</g>
<!-- dir_396d171119822f66a36fe1ebf998d1a3&#45;&gt;dir_f511f1e9c03c071966ae594f00bbc5e0 -->
<g id="edge23" class="edge">
<title>dir_396d171119822f66a36fe1ebf998d1a3&#45;&gt;dir_f511f1e9c03c071966ae594f00bbc5e0</title>
<path fill="none" stroke="#000000" d="M243.6993,-503.7623C251.4085,-479.0928 265.2313,-434.8598 274.2584,-405.9731"/>
<polygon fill="#000000" stroke="#000000" points="277.7049,-406.6784 277.347,-396.0896 271.0235,-404.5904 277.7049,-406.6784"/>
<g id="a_edge23&#45;headlabel"><a xlink:href="dir_000378_000715.html" target="_top" xlink:title="1">
<text text-anchor="middle" x="279.3428" y="-408.4563" font-family="Helvetica,sans-Serif" font-size="10.00" fill="#000000">1</text>
</a>
</g>
</g>
<!-- dir_26637d1bd82229bc9ed97f7e706be743 -->
<g id="node12" class="node">
<title>dir_26637d1bd82229bc9ed97f7e706be743</title>
<g id="a_node12"><a xlink:href="dir_26637d1bd82229bc9ed97f7e706be743.html" target="_top" xlink:title="Raw">
<polygon fill="none" stroke="#ff0000" points="178,-324 124,-324 124,-288 178,-288 178,-324"/>
<text text-anchor="middle" x="151" y="-303.5" font-family="Helvetica,sans-Serif" font-size="10.00" fill="#000000">Raw</text>
</a>
</g>
</g>
<!-- dir_396d171119822f66a36fe1ebf998d1a3&#45;&gt;dir_26637d1bd82229bc9ed97f7e706be743 -->
<g id="edge24" class="edge">
<title>dir_396d171119822f66a36fe1ebf998d1a3&#45;&gt;dir_26637d1bd82229bc9ed97f7e706be743</title>
<path fill="none" stroke="#000000" d="M210.7798,-504.9388C198.1719,-495.5911 184.1985,-482.8767 176,-468 152.6992,-425.7192 149.3015,-368.337 149.6607,-334.4337"/>
<polygon fill="#000000" stroke="#000000" points="153.1627,-334.3764 149.8888,-324.3001 146.1645,-334.2188 153.1627,-334.3764"/>
<g id="a_edge24&#45;headlabel"><a xlink:href="dir_000378_000606.html" target="_top" xlink:title="1">
<text text-anchor="middle" x="155.9205" y="-335.534" font-family="Helvetica,sans-Serif" font-size="10.00" fill="#000000">1</text>
</a>
</g>
</g>
<!-- dir_2171f7ec022c5423887b07c69b2f5b48 -->
<g id="node13" class="node">
<title>dir_2171f7ec022c5423887b07c69b2f5b48</title>
<g id="a_node13"><a xlink:href="dir_2171f7ec022c5423887b07c69b2f5b48.html" target="_top" xlink:title="DataFormats">
<polygon fill="none" stroke="#ff0000" points="484,-252 404,-252 404,-216 484,-216 484,-252"/>
<text text-anchor="middle" x="444" y="-231.5" font-family="Helvetica,sans-Serif" font-size="10.00" fill="#000000">DataFormats</text>
</a>
</g>
</g>
<!-- dir_396d171119822f66a36fe1ebf998d1a3&#45;&gt;dir_2171f7ec022c5423887b07c69b2f5b48 -->
<g id="edge25" class="edge">
<title>dir_396d171119822f66a36fe1ebf998d1a3&#45;&gt;dir_2171f7ec022c5423887b07c69b2f5b48</title>
<path fill="none" stroke="#000000" d="M210.6392,-509.6343C193.2275,-500.4581 171.4927,-486.3657 158,-468 109.3023,-401.7145 61.7577,-350.6936 115,-288 132.8403,-266.9927 306.2387,-247.3541 393.8561,-238.6753"/>
<polygon fill="#000000" stroke="#000000" points="394.234,-242.1551 403.845,-237.6965 393.5514,-235.1885 394.234,-242.1551"/>
<g id="a_edge25&#45;headlabel"><a xlink:href="dir_000378_000080.html" target="_top" xlink:title="23">
<text text-anchor="middle" x="390.9334" y="-242.8313" font-family="Helvetica,sans-Serif" font-size="10.00" fill="#000000">23</text>
</a>
</g>
</g>
<!-- dir_f9c1a6d4eb662f0614520771b81d0fc2 -->
<g id="node3" class="node">
<title>dir_f9c1a6d4eb662f0614520771b81d0fc2</title>
<g id="a_node3"><a xlink:href="dir_f9c1a6d4eb662f0614520771b81d0fc2.html" target="_top" xlink:title="run">
<polygon fill="#ffffff" stroke="#000000" points="409,-612 355,-612 355,-576 409,-576 409,-612"/>
<text text-anchor="middle" x="382" y="-591.5" font-family="Helvetica,sans-Serif" font-size="10.00" fill="#000000">run</text>
</a>
</g>
</g>
<!-- dir_f9c1a6d4eb662f0614520771b81d0fc2&#45;&gt;dir_396d171119822f66a36fe1ebf998d1a3 -->
<g id="edge2" class="edge">
<title>dir_f9c1a6d4eb662f0614520771b81d0fc2&#45;&gt;dir_396d171119822f66a36fe1ebf998d1a3</title>
<path fill="none" stroke="#000000" d="M354.9147,-580.4574C332.2307,-569.1153 299.6433,-552.8217 274.6319,-540.316"/>
<polygon fill="#000000" stroke="#000000" points="275.963,-537.0684 265.4534,-535.7267 272.8325,-543.3294 275.963,-537.0684"/>
<g id="a_edge2&#45;headlabel"><a xlink:href="dir_000648_000378.html" target="_top" xlink:title="5">
<text text-anchor="middle" x="280.4478" y="-533.6364" font-family="Helvetica,sans-Serif" font-size="10.00" fill="#000000">5</text>
</a>
</g>
</g>
<!-- dir_f9c1a6d4eb662f0614520771b81d0fc2&#45;&gt;dir_677b030cc750909e4cd27413873678d8 -->
<g id="edge1" class="edge">
<title>dir_f9c1a6d4eb662f0614520771b81d0fc2&#45;&gt;dir_677b030cc750909e4cd27413873678d8</title>
<path fill="none" stroke="#000000" d="M409.3345,-579.8413C412.2346,-578.4871 415.1611,-577.1806 418,-576 464.3287,-556.734 478.376,-558.5401 525,-540 525.8489,-539.6625 526.7058,-539.316 527.568,-538.9622"/>
<polygon fill="#000000" stroke="#000000" points="529.0753,-542.1242 536.8875,-534.9674 526.3174,-535.6904 529.0753,-542.1242"/>
<g id="a_edge1&#45;headlabel"><a xlink:href="dir_000648_000054.html" target="_top" xlink:title="1">
<text text-anchor="middle" x="526.8901" y="-543.65" font-family="Helvetica,sans-Serif" font-size="10.00" fill="#000000">1</text>
</a>
</g>
</g>
<!-- dir_f9c1a6d4eb662f0614520771b81d0fc2&#45;&gt;dir_2171f7ec022c5423887b07c69b2f5b48 -->
<g id="edge3" class="edge">
<title>dir_f9c1a6d4eb662f0614520771b81d0fc2&#45;&gt;dir_2171f7ec022c5423887b07c69b2f5b48</title>
<path fill="none" stroke="#000000" d="M409.1463,-579.3271C412.0831,-578.0731 415.0696,-576.9306 418,-576 468.5625,-559.9421 619.4311,-580.2419 654,-540 726.9808,-455.0423 722.6295,-376.5098 654,-288 634.6189,-263.0047 550.1981,-247.5565 494.4738,-239.8916"/>
<polygon fill="#000000" stroke="#000000" points="494.8002,-236.4042 484.425,-238.5505 493.8741,-243.3427 494.8002,-236.4042"/>
<g id="a_edge3&#45;headlabel"><a xlink:href="dir_000648_000080.html" target="_top" xlink:title="1">
<text text-anchor="middle" x="498.7388" y="-231.5654" font-family="Helvetica,sans-Serif" font-size="10.00" fill="#000000">1</text>
</a>
</g>
</g>
<!-- dir_0c8c50542de1d83a040084fab225b0f7 -->
<g id="node4" class="node">
<title>dir_0c8c50542de1d83a040084fab225b0f7</title>
<g id="a_node4"><a xlink:href="dir_0c8c50542de1d83a040084fab225b0f7.html" target="_top" xlink:title="src">
<polygon fill="#ffffff" stroke="#000000" points="337,-612 283,-612 283,-576 337,-576 337,-612"/>
<text text-anchor="middle" x="310" y="-591.5" font-family="Helvetica,sans-Serif" font-size="10.00" fill="#000000">src</text>
</a>
</g>
</g>
<!-- dir_0c8c50542de1d83a040084fab225b0f7&#45;&gt;dir_396d171119822f66a36fe1ebf998d1a3 -->
<g id="edge37" class="edge">
<title>dir_0c8c50542de1d83a040084fab225b0f7&#45;&gt;dir_396d171119822f66a36fe1ebf998d1a3</title>
<path fill="none" stroke="#000000" d="M291.8314,-575.8314C283.2848,-567.2848 272.9443,-556.9443 263.6198,-547.6198"/>
<polygon fill="#000000" stroke="#000000" points="265.9592,-545.0095 256.4133,-540.4133 261.0095,-549.9592 265.9592,-545.0095"/>
<g id="a_edge37&#45;headlabel"><a xlink:href="dir_000478_000378.html" target="_top" xlink:title="21">
<text text-anchor="middle" x="270.5087" y="-543.0436" font-family="Helvetica,sans-Serif" font-size="10.00" fill="#000000">21</text>
</a>
</g>
</g>
<!-- dir_0c8c50542de1d83a040084fab225b0f7&#45;&gt;dir_677b030cc750909e4cd27413873678d8 -->
<g id="edge36" class="edge">
<title>dir_0c8c50542de1d83a040084fab225b0f7&#45;&gt;dir_677b030cc750909e4cd27413873678d8</title>
<path fill="none" stroke="#000000" d="M337.193,-579.4685C340.1207,-578.187 343.0924,-576.9994 346,-576 422.7421,-549.6231 447.8553,-565.175 525,-540 525.7178,-539.7658 526.4398,-539.5219 527.1646,-539.2695"/>
<polygon fill="#000000" stroke="#000000" points="528.5659,-542.4801 536.6243,-535.6017 526.0353,-535.9535 528.5659,-542.4801"/>
<g id="a_edge36&#45;headlabel"><a xlink:href="dir_000478_000054.html" target="_top" xlink:title="21">
<text text-anchor="middle" x="526.2408" y="-543.9268" font-family="Helvetica,sans-Serif" font-size="10.00" fill="#000000">21</text>
</a>
</g>
</g>
<!-- dir_0c8c50542de1d83a040084fab225b0f7&#45;&gt;dir_f511f1e9c03c071966ae594f00bbc5e0 -->
<g id="edge38" class="edge">
<title>dir_0c8c50542de1d83a040084fab225b0f7&#45;&gt;dir_f511f1e9c03c071966ae594f00bbc5e0</title>
<path fill="none" stroke="#000000" d="M311.9922,-575.7439C314.7824,-545.4525 318.3349,-483.0789 307,-432 305.0192,-423.0736 301.5086,-413.8175 297.7736,-405.5432"/>
<polygon fill="#000000" stroke="#000000" points="300.8477,-403.8593 293.3641,-396.3595 294.5374,-406.8891 300.8477,-403.8593"/>
<g id="a_edge38&#45;headlabel"><a xlink:href="dir_000478_000715.html" target="_top" xlink:title="7">
<text text-anchor="middle" x="304.963" y="-403.3708" font-family="Helvetica,sans-Serif" font-size="10.00" fill="#000000">7</text>
</a>
</g>
</g>
<!-- dir_bcbb2cf9a3d3d83e5515c82071a07177 -->
<g id="node11" class="node">
<title>dir_bcbb2cf9a3d3d83e5515c82071a07177</title>
<g id="a_node11"><a xlink:href="dir_bcbb2cf9a3d3d83e5515c82071a07177.html" target="_top" xlink:title="Framework">
<polygon fill="none" stroke="#ff0000" points="514.5,-36 443.5,-36 443.5,0 514.5,0 514.5,-36"/>
<text text-anchor="middle" x="479" y="-15.5" font-family="Helvetica,sans-Serif" font-size="10.00" fill="#000000">Framework</text>
</a>
</g>
</g>
<!-- dir_0c8c50542de1d83a040084fab225b0f7&#45;&gt;dir_bcbb2cf9a3d3d83e5515c82071a07177 -->
<g id="edge39" class="edge">
<title>dir_0c8c50542de1d83a040084fab225b0f7&#45;&gt;dir_bcbb2cf9a3d3d83e5515c82071a07177</title>
<path fill="none" stroke="#000000" d="M337.1218,-579.2481C340.0634,-578.0095 343.0577,-576.8922 346,-576 468.601,-538.8218 526.9057,-613.2695 632,-540 698.5307,-493.6163 716,-459.1035 716,-378 716,-378 716,-378 716,-162 716,-73.502 593.8129,-37.851 524.905,-24.782"/>
<polygon fill="#000000" stroke="#000000" points="525.2011,-21.2789 514.7379,-22.9438 523.9556,-28.1672 525.2011,-21.2789"/>
<g id="a_edge39&#45;headlabel"><a xlink:href="dir_000478_000015.html" target="_top" xlink:title="2">
<text text-anchor="middle" x="529.2435" y="-16.6244" font-family="Helvetica,sans-Serif" font-size="10.00" fill="#000000">2</text>
</a>
</g>
</g>
<!-- dir_0c8c50542de1d83a040084fab225b0f7&#45;&gt;dir_26637d1bd82229bc9ed97f7e706be743 -->
<g id="edge40" class="edge">
<title>dir_0c8c50542de1d83a040084fab225b0f7&#45;&gt;dir_26637d1bd82229bc9ed97f7e706be743</title>
<path fill="none" stroke="#000000" d="M282.7638,-580.3889C250.787,-564.4077 202.0519,-540.0476 202,-540 174.3804,-514.6312 170.8622,-503.2276 158,-468 141.7788,-423.5724 143.834,-367.6847 147.1632,-334.5141"/>
<polygon fill="#000000" stroke="#000000" points="150.6851,-334.5119 148.3165,-324.1852 143.7284,-333.735 150.6851,-334.5119"/>
<g id="a_edge40&#45;headlabel"><a xlink:href="dir_000478_000606.html" target="_top" xlink:title="2">
<text text-anchor="middle" x="153.1081" y="-335.8993" font-family="Helvetica,sans-Serif" font-size="10.00" fill="#000000">2</text>
</a>
</g>
</g>
<!-- dir_0c8c50542de1d83a040084fab225b0f7&#45;&gt;dir_2171f7ec022c5423887b07c69b2f5b48 -->
<g id="edge41" class="edge">
<title>dir_0c8c50542de1d83a040084fab225b0f7&#45;&gt;dir_2171f7ec022c5423887b07c69b2f5b48</title>
<path fill="none" stroke="#000000" d="M337.1362,-579.2952C340.075,-578.0474 343.0648,-576.9151 346,-576 454.8496,-542.0638 509.0045,-608.7002 600,-540 634.9344,-513.6251 640,-493.7727 640,-450 640,-450 640,-450 640,-378 640,-305.554 551.96,-265.5339 493.8908,-247.0168"/>
<polygon fill="#000000" stroke="#000000" points="494.7236,-243.6111 484.1365,-244.0168 492.6658,-250.3019 494.7236,-243.6111"/>
<g id="a_edge41&#45;headlabel"><a xlink:href="dir_000478_000080.html" target="_top" xlink:title="13">
<text text-anchor="middle" x="498.994" y="-239.4539" font-family="Helvetica,sans-Serif" font-size="10.00" fill="#000000">13</text>
</a>
</g>
</g>
<!-- dir_064d7f478c030df51e47c94b08ab25b1 -->
<g id="node5" class="node">
<title>dir_064d7f478c030df51e47c94b08ab25b1</title>
<g id="a_node5"><a xlink:href="dir_064d7f478c030df51e47c94b08ab25b1.html" target="_top" xlink:title="test">
<polygon fill="#ffffff" stroke="#000000" points="265,-612 211,-612 211,-576 265,-576 265,-612"/>
<text text-anchor="middle" x="238" y="-591.5" font-family="Helvetica,sans-Serif" font-size="10.00" fill="#000000">test</text>
</a>
</g>
</g>
<!-- dir_064d7f478c030df51e47c94b08ab25b1&#45;&gt;dir_396d171119822f66a36fe1ebf998d1a3 -->
<g id="edge27" class="edge">
<title>dir_064d7f478c030df51e47c94b08ab25b1&#45;&gt;dir_396d171119822f66a36fe1ebf998d1a3</title>
<path fill="none" stroke="#000000" d="M238,-575.8314C238,-568.131 238,-558.9743 238,-550.4166"/>
<polygon fill="#000000" stroke="#000000" points="241.5001,-550.4132 238,-540.4133 234.5001,-550.4133 241.5001,-550.4132"/>
<g id="a_edge27&#45;headlabel"><a xlink:href="dir_000649_000378.html" target="_top" xlink:title="6">
<text text-anchor="middle" x="244.3393" y="-551.5079" font-family="Helvetica,sans-Serif" font-size="10.00" fill="#000000">6</text>
</a>
</g>
</g>
<!-- dir_064d7f478c030df51e47c94b08ab25b1&#45;&gt;dir_677b030cc750909e4cd27413873678d8 -->
<g id="edge26" class="edge">
<title>dir_064d7f478c030df51e47c94b08ab25b1&#45;&gt;dir_677b030cc750909e4cd27413873678d8</title>
<path fill="none" stroke="#000000" d="M265.1378,-579.3002C268.0763,-578.0515 271.0655,-576.9176 274,-576 381.5616,-542.3674 416.9262,-571.9485 525,-540 525.7241,-539.786 526.4519,-539.5607 527.182,-539.3254"/>
<polygon fill="#000000" stroke="#000000" points="528.5264,-542.5599 536.6869,-535.8029 526.0938,-535.9961 528.5264,-542.5599"/>
<g id="a_edge26&#45;headlabel"><a xlink:href="dir_000649_000054.html" target="_top" xlink:title="7">
<text text-anchor="middle" x="526.1424" y="-543.9713" font-family="Helvetica,sans-Serif" font-size="10.00" fill="#000000">7</text>
</a>
</g>
</g>
<!-- dir_064d7f478c030df51e47c94b08ab25b1&#45;&gt;dir_f511f1e9c03c071966ae594f00bbc5e0 -->
<g id="edge28" class="edge">
<title>dir_064d7f478c030df51e47c94b08ab25b1&#45;&gt;dir_f511f1e9c03c071966ae594f00bbc5e0</title>
<path fill="none" stroke="#000000" d="M253.6917,-575.8219C261.2733,-565.9161 269.6531,-553.0408 274,-540 288.9655,-495.1035 288.1642,-439.3623 285.8453,-406.3479"/>
<polygon fill="#000000" stroke="#000000" points="289.3095,-405.7597 285.0213,-396.0714 282.3318,-406.3192 289.3095,-405.7597"/>
<g id="a_edge28&#45;headlabel"><a xlink:href="dir_000649_000715.html" target="_top" xlink:title="4">
<text text-anchor="middle" x="292.4269" y="-406.6159" font-family="Helvetica,sans-Serif" font-size="10.00" fill="#000000">4</text>
</a>
</g>
</g>
<!-- dir_064d7f478c030df51e47c94b08ab25b1&#45;&gt;dir_2171f7ec022c5423887b07c69b2f5b48 -->
<g id="edge29" class="edge">
<title>dir_064d7f478c030df51e47c94b08ab25b1&#45;&gt;dir_2171f7ec022c5423887b07c69b2f5b48</title>
<path fill="none" stroke="#000000" d="M265.3314,-579.8056C313.4045,-554.2656 409.9178,-500.232 430,-468 470.1318,-403.5884 459.2265,-308.8556 450.3431,-262.1506"/>
<polygon fill="#000000" stroke="#000000" points="453.7342,-261.2601 448.3291,-252.1477 446.8719,-262.6418 453.7342,-261.2601"/>
<g id="a_edge29&#45;headlabel"><a xlink:href="dir_000649_000080.html" target="_top" xlink:title="10">
<text text-anchor="middle" x="457.227" y="-261.7236" font-family="Helvetica,sans-Serif" font-size="10.00" fill="#000000">10</text>
</a>
</g>
</g>
<!-- dir_677b030cc750909e4cd27413873678d8&#45;&gt;dir_4ab6b4cc6a7edbff49100e9123df213f -->
<g id="edge4" class="edge">
<title>dir_677b030cc750909e4cd27413873678d8&#45;&gt;dir_4ab6b4cc6a7edbff49100e9123df213f</title>
<path fill="none" stroke="#000000" d="M546.6189,-503.9177C540.2735,-498.151 532.7434,-492.1871 525,-488 495.4683,-472.0314 458.5849,-462.2406 430.8365,-456.6053"/>
<polygon fill="#000000" stroke="#000000" points="431.1656,-453.1043 420.6833,-454.6448 429.8384,-459.9773 431.1656,-453.1043"/>
<g id="a_edge4&#45;headlabel"><a xlink:href="dir_000054_000031.html" target="_top" xlink:title="14">
<text text-anchor="middle" x="435.2333" y="-448.4979" font-family="Helvetica,sans-Serif" font-size="10.00" fill="#000000">14</text>
</a>
</g>
</g>
<!-- dir_677b030cc750909e4cd27413873678d8&#45;&gt;dir_bcbb2cf9a3d3d83e5515c82071a07177 -->
<g id="edge5" class="edge">
<title>dir_677b030cc750909e4cd27413873678d8&#45;&gt;dir_bcbb2cf9a3d3d83e5515c82071a07177</title>
<path fill="none" stroke="#000000" d="M572.0588,-503.7668C583.2134,-476.8248 602,-424.5405 602,-378 602,-378 602,-378 602,-162 602,-117.0781 585.4803,-105.8952 556,-72 545.988,-60.4886 533.0268,-50.1865 520.603,-41.7445"/>
<polygon fill="#000000" stroke="#000000" points="522.4158,-38.7481 512.1306,-36.2052 518.5852,-44.607 522.4158,-38.7481"/>
<g id="a_edge5&#45;headlabel"><a xlink:href="dir_000054_000015.html" target="_top" xlink:title="2">
<text text-anchor="middle" x="526.9781" y="-35.8387" font-family="Helvetica,sans-Serif" font-size="10.00" fill="#000000">2</text>
</a>
</g>
</g>
<!-- dir_677b030cc750909e4cd27413873678d8&#45;&gt;dir_26637d1bd82229bc9ed97f7e706be743 -->
<g id="edge6" class="edge">
<title>dir_677b030cc750909e4cd27413873678d8&#45;&gt;dir_26637d1bd82229bc9ed97f7e706be743</title>
<path fill="none" stroke="#000000" d="M547.7399,-503.9086C541.2757,-497.8494 533.3818,-491.7002 525,-488 453.7879,-456.563 425.7037,-489.8819 351,-468 281.1843,-447.5498 257.3774,-445.4298 204,-396 185.2204,-378.6092 171.0372,-353.0348 162.091,-333.5882"/>
<polygon fill="#000000" stroke="#000000" points="165.2443,-332.0644 158.0082,-324.3256 158.8389,-334.8878 165.2443,-332.0644"/>
<g id="a_edge6&#45;headlabel"><a xlink:href="dir_000054_000606.html" target="_top" xlink:title="2">
<text text-anchor="middle" x="169.2922" y="-331.7085" font-family="Helvetica,sans-Serif" font-size="10.00" fill="#000000">2</text>
</a>
</g>
</g>
<!-- dir_677b030cc750909e4cd27413873678d8&#45;&gt;dir_2171f7ec022c5423887b07c69b2f5b48 -->
<g id="edge7" class="edge">
<title>dir_677b030cc750909e4cd27413873678d8&#45;&gt;dir_2171f7ec022c5423887b07c69b2f5b48</title>
<path fill="none" stroke="#000000" d="M564.2118,-503.7146C563.9427,-472.8493 560.6593,-408.9898 540,-360 523.5115,-320.9005 492.0234,-283.1596 469.6075,-259.3441"/>
<polygon fill="#000000" stroke="#000000" points="472.1259,-256.9135 462.6789,-252.1171 467.0729,-261.7578 472.1259,-256.9135"/>
<g id="a_edge7&#45;headlabel"><a xlink:href="dir_000054_000080.html" target="_top" xlink:title="21">
<text text-anchor="middle" x="476.663" y="-255.0434" font-family="Helvetica,sans-Serif" font-size="10.00" fill="#000000">21</text>
</a>
</g>
</g>
<!-- dir_4ab6b4cc6a7edbff49100e9123df213f&#45;&gt;dir_f511f1e9c03c071966ae594f00bbc5e0 -->
<g id="edge8" class="edge">
<title>dir_4ab6b4cc6a7edbff49100e9123df213f&#45;&gt;dir_f511f1e9c03c071966ae594f00bbc5e0</title>
<path fill="none" stroke="#000000" d="M359.3823,-433.3008C344.5362,-423.9941 326.8735,-412.244 312.2198,-401.9707"/>
<polygon fill="#000000" stroke="#000000" points="314.1636,-399.0583 303.9837,-396.1222 310.1107,-404.7657 314.1636,-399.0583"/>
<g id="a_edge8&#45;headlabel"><a xlink:href="dir_000031_000715.html" target="_top" xlink:title="3">
<text text-anchor="middle" x="318.7383" y="-396.3245" font-family="Helvetica,sans-Serif" font-size="10.00" fill="#000000">3</text>
</a>
</g>
</g>
<!-- dir_4ab6b4cc6a7edbff49100e9123df213f&#45;&gt;dir_bcbb2cf9a3d3d83e5515c82071a07177 -->
<g id="edge9" class="edge">
<title>dir_4ab6b4cc6a7edbff49100e9123df213f&#45;&gt;dir_bcbb2cf9a3d3d83e5515c82071a07177</title>
<path fill="none" stroke="#000000" d="M412.2678,-431.9489C455.5888,-398.815 546,-323.4238 546,-234 546,-234 546,-234 546,-162 546,-116.8514 516.4182,-71.9883 496.3515,-44.6278"/>
<polygon fill="#000000" stroke="#000000" points="498.9956,-42.318 490.2203,-36.3814 493.3782,-46.4947 498.9956,-42.318"/>
<g id="a_edge9&#45;headlabel"><a xlink:href="dir_000031_000015.html" target="_top" xlink:title="2">
<text text-anchor="middle" x="503.4188" y="-41.0086" font-family="Helvetica,sans-Serif" font-size="10.00" fill="#000000">2</text>
</a>
</g>
</g>
<!-- dir_4ab6b4cc6a7edbff49100e9123df213f&#45;&gt;dir_2171f7ec022c5423887b07c69b2f5b48 -->
<g id="edge10" class="edge">
<title>dir_4ab6b4cc6a7edbff49100e9123df213f&#45;&gt;dir_2171f7ec022c5423887b07c69b2f5b48</title>
<path fill="none" stroke="#000000" d="M390.5652,-431.9555C396.5296,-394.235 418.1305,-306.8188 432.3348,-261.8399"/>
<polygon fill="#000000" stroke="#000000" points="435.7236,-262.7377 435.5086,-252.1451 429.071,-260.5598 435.7236,-262.7377"/>
<g id="a_edge10&#45;headlabel"><a xlink:href="dir_000031_000080.html" target="_top" xlink:title="2">
<text text-anchor="middle" x="437.3037" y="-264.5373" font-family="Helvetica,sans-Serif" font-size="10.00" fill="#000000">2</text>
</a>
</g>
</g>
<!-- dir_b05a5fa85f84bfc9013183c9d87f9a36&#45;&gt;dir_4ab6b4cc6a7edbff49100e9123df213f -->
<g id="edge11" class="edge">
<title>dir_b05a5fa85f84bfc9013183c9d87f9a36&#45;&gt;dir_4ab6b4cc6a7edbff49100e9123df213f</title>
<path fill="none" stroke="#000000" d="M376.7928,-108.1851C376.4999,-135.5011 376,-188.7489 376,-234 376,-306 376,-306 376,-306 376,-346.3132 381.5027,-392.678 385.6084,-421.6613"/>
<polygon fill="#000000" stroke="#000000" points="382.1908,-422.4803 387.0992,-431.8696 389.1173,-421.4687 382.1908,-422.4803"/>
<g id="a_edge11&#45;headlabel"><a xlink:href="dir_000601_000031.html" target="_top" xlink:title="1">
<text text-anchor="middle" x="378.862" y="-416.8337" font-family="Helvetica,sans-Serif" font-size="10.00" fill="#000000">1</text>
</a>
</g>
</g>
<!-- dir_b05a5fa85f84bfc9013183c9d87f9a36&#45;&gt;dir_bcbb2cf9a3d3d83e5515c82071a07177 -->
<g id="edge12" class="edge">
<title>dir_b05a5fa85f84bfc9013183c9d87f9a36&#45;&gt;dir_bcbb2cf9a3d3d83e5515c82071a07177</title>
<path fill="none" stroke="#000000" d="M402.7389,-71.8314C415.5437,-62.7927 431.1909,-51.7476 444.9719,-42.0198"/>
<polygon fill="#000000" stroke="#000000" points="447.118,-44.7891 453.2693,-36.1628 443.0812,-39.0703 447.118,-44.7891"/>
<g id="a_edge12&#45;headlabel"><a xlink:href="dir_000601_000015.html" target="_top" xlink:title="34">
<text text-anchor="middle" x="445.8187" y="-46.6816" font-family="Helvetica,sans-Serif" font-size="10.00" fill="#000000">34</text>
</a>
</g>
</g>
<!-- dir_b05a5fa85f84bfc9013183c9d87f9a36&#45;&gt;dir_2171f7ec022c5423887b07c69b2f5b48 -->
<g id="edge13" class="edge">
<title>dir_b05a5fa85f84bfc9013183c9d87f9a36&#45;&gt;dir_2171f7ec022c5423887b07c69b2f5b48</title>
<path fill="none" stroke="#000000" d="M390.075,-108.0896C404.0571,-132.7884 425.0309,-177.2933 436.5388,-206.2331"/>
<polygon fill="#000000" stroke="#000000" points="433.3431,-207.675 440.1876,-215.7623 439.8803,-205.1719 433.3431,-207.675"/>
<g id="a_edge13&#45;headlabel"><a xlink:href="dir_000601_000080.html" target="_top" xlink:title="48">
<text text-anchor="middle" x="429.4062" y="-202.8334" font-family="Helvetica,sans-Serif" font-size="10.00" fill="#000000">48</text>
</a>
</g>
</g>
<!-- dir_37c90836491b695b472bf98d1be8336b&#45;&gt;dir_4ab6b4cc6a7edbff49100e9123df213f -->
<g id="edge14" class="edge">
<title>dir_37c90836491b695b472bf98d1be8336b&#45;&gt;dir_4ab6b4cc6a7edbff49100e9123df213f</title>
<path fill="none" stroke="#000000" d="M322.2845,-180.072C325.5235,-219.9771 335.7224,-318.245 362,-396 365.0461,-405.0134 369.4161,-414.3708 373.8009,-422.7136"/>
<polygon fill="#000000" stroke="#000000" points="370.8121,-424.5428 378.6879,-431.6295 376.9505,-421.1781 370.8121,-424.5428"/>
<g id="a_edge14&#45;headlabel"><a xlink:href="dir_000275_000031.html" target="_top" xlink:title="16">
<text text-anchor="middle" x="366.5946" y="-420.2553" font-family="Helvetica,sans-Serif" font-size="10.00" fill="#000000">16</text>
</a>
</g>
</g>
<!-- dir_37c90836491b695b472bf98d1be8336b&#45;&gt;dir_b05a5fa85f84bfc9013183c9d87f9a36 -->
<g id="edge15" class="edge">
<title>dir_37c90836491b695b472bf98d1be8336b&#45;&gt;dir_b05a5fa85f84bfc9013183c9d87f9a36</title>
<path fill="none" stroke="#000000" d="M335.1312,-143.8314C341.5811,-135.5386 349.3445,-125.557 356.4252,-116.4533"/>
<polygon fill="#000000" stroke="#000000" points="359.3019,-118.4556 362.6786,-108.4133 353.7764,-114.158 359.3019,-118.4556"/>
<g id="a_edge15&#45;headlabel"><a xlink:href="dir_000275_000601.html" target="_top" xlink:title="1">
<text text-anchor="middle" x="359.3362" y="-120.5361" font-family="Helvetica,sans-Serif" font-size="10.00" fill="#000000">1</text>
</a>
</g>
</g>
<!-- dir_37c90836491b695b472bf98d1be8336b&#45;&gt;dir_f511f1e9c03c071966ae594f00bbc5e0 -->
<g id="edge16" class="edge">
<title>dir_37c90836491b695b472bf98d1be8336b&#45;&gt;dir_f511f1e9c03c071966ae594f00bbc5e0</title>
<path fill="none" stroke="#000000" d="M317.8078,-180.1451C311.1703,-217.8741 295.8411,-305.0083 287.9267,-349.9956"/>
<polygon fill="#000000" stroke="#000000" points="284.4602,-349.5003 286.1745,-359.9555 291.3543,-350.7132 284.4602,-349.5003"/>
<g id="a_edge16&#45;headlabel"><a xlink:href="dir_000275_000715.html" target="_top" xlink:title="14">
<text text-anchor="middle" x="282.2866" y="-342.9681" font-family="Helvetica,sans-Serif" font-size="10.00" fill="#000000">14</text>
</a>
</g>
</g>
<!-- dir_37c90836491b695b472bf98d1be8336b&#45;&gt;dir_bcbb2cf9a3d3d83e5515c82071a07177 -->
<g id="edge17" class="edge">
<title>dir_37c90836491b695b472bf98d1be8336b&#45;&gt;dir_bcbb2cf9a3d3d83e5515c82071a07177</title>
<path fill="none" stroke="#000000" d="M320.269,-143.933C320.4379,-124.0317 323.7162,-92.1803 341,-72 364.2303,-44.8767 402.8412,-31.2908 433.3235,-24.5362"/>
<polygon fill="#000000" stroke="#000000" points="434.2169,-27.9261 443.3154,-22.4977 432.8176,-21.0674 434.2169,-27.9261"/>
<g id="a_edge17&#45;headlabel"><a xlink:href="dir_000275_000015.html" target="_top" xlink:title="1">
<text text-anchor="middle" x="431.2624" y="-28.9266" font-family="Helvetica,sans-Serif" font-size="10.00" fill="#000000">1</text>
</a>
</g>
</g>
<!-- dir_37c90836491b695b472bf98d1be8336b&#45;&gt;dir_2171f7ec022c5423887b07c69b2f5b48 -->
<g id="edge18" class="edge">
<title>dir_37c90836491b695b472bf98d1be8336b&#45;&gt;dir_2171f7ec022c5423887b07c69b2f5b48</title>
<path fill="none" stroke="#000000" d="M348.0174,-174.7168C366.3857,-184.611 390.6684,-198.6146 410.2737,-210.5273"/>
<polygon fill="#000000" stroke="#000000" points="408.5608,-213.5827 418.9143,-215.8314 412.2229,-207.617 408.5608,-213.5827"/>
<g id="a_edge18&#45;headlabel"><a xlink:href="dir_000275_000080.html" target="_top" xlink:title="15">
<text text-anchor="middle" x="404.012" y="-211.622" font-family="Helvetica,sans-Serif" font-size="10.00" fill="#000000">15</text>
</a>
</g>
</g>
<!-- dir_f511f1e9c03c071966ae594f00bbc5e0&#45;&gt;dir_4ab6b4cc6a7edbff49100e9123df213f -->
<g id="edge30" class="edge">
<title>dir_f511f1e9c03c071966ae594f00bbc5e0&#45;&gt;dir_4ab6b4cc6a7edbff49100e9123df213f</title>
<path fill="none" stroke="#000000" d="M310.1492,-392.5378C325.5867,-402.0981 344.81,-414.839 360.5871,-425.894"/>
<polygon fill="#000000" stroke="#000000" points="358.7713,-428.8972 368.9518,-431.8314 362.8231,-423.189 358.7713,-428.8972"/>
<g id="a_edge30&#45;headlabel"><a xlink:href="dir_000715_000031.html" target="_top" xlink:title="4">
<text text-anchor="middle" x="354.1967" y="-426.6319" font-family="Helvetica,sans-Serif" font-size="10.00" fill="#000000">4</text>
</a>
</g>
</g>
<!-- dir_f511f1e9c03c071966ae594f00bbc5e0&#45;&gt;dir_b05a5fa85f84bfc9013183c9d87f9a36 -->
<g id="edge31" class="edge">
<title>dir_f511f1e9c03c071966ae594f00bbc5e0&#45;&gt;dir_b05a5fa85f84bfc9013183c9d87f9a36</title>
<path fill="none" stroke="#000000" d="M277.4917,-359.7169C266.0928,-318.1122 244.2236,-214.5151 285,-144 296.8714,-123.4706 319.8839,-109.9682 339.9223,-101.5994"/>
<polygon fill="#000000" stroke="#000000" points="341.4044,-104.7785 349.4586,-97.8951 338.8698,-98.2535 341.4044,-104.7785"/>
<g id="a_edge31&#45;headlabel"><a xlink:href="dir_000715_000601.html" target="_top" xlink:title="4">
<text text-anchor="middle" x="339.0818" y="-106.2266" font-family="Helvetica,sans-Serif" font-size="10.00" fill="#000000">4</text>
</a>
</g>
</g>
<!-- dir_f511f1e9c03c071966ae594f00bbc5e0&#45;&gt;dir_26637d1bd82229bc9ed97f7e706be743 -->
<g id="edge32" class="edge">
<title>dir_f511f1e9c03c071966ae594f00bbc5e0&#45;&gt;dir_26637d1bd82229bc9ed97f7e706be743</title>
<path fill="none" stroke="#000000" d="M255.7144,-365.9488C235.7833,-355.9307 208.7283,-341.3842 187.0526,-329.1292"/>
<polygon fill="#000000" stroke="#000000" points="188.5489,-325.9534 178.1288,-324.0373 185.0797,-332.0332 188.5489,-325.9534"/>
<g id="a_edge32&#45;headlabel"><a xlink:href="dir_000715_000606.html" target="_top" xlink:title="1">
<text text-anchor="middle" x="193.0782" y="-322.7687" font-family="Helvetica,sans-Serif" font-size="10.00" fill="#000000">1</text>
</a>
</g>
</g>
<!-- dir_f511f1e9c03c071966ae594f00bbc5e0&#45;&gt;dir_2171f7ec022c5423887b07c69b2f5b48 -->
<g id="edge33" class="edge">
<title>dir_f511f1e9c03c071966ae594f00bbc5e0&#45;&gt;dir_2171f7ec022c5423887b07c69b2f5b48</title>
<path fill="none" stroke="#000000" d="M298.7176,-359.7623C324.82,-334.119 376.9384,-287.3372 411.2343,-258.6262"/>
<polygon fill="#000000" stroke="#000000" points="413.6532,-261.1672 419.1165,-252.0896 409.1848,-255.7789 413.6532,-261.1672"/>
<g id="a_edge33&#45;headlabel"><a xlink:href="dir_000715_000080.html" target="_top" xlink:title="15">
<text text-anchor="middle" x="412.6987" y="-263.1473" font-family="Helvetica,sans-Serif" font-size="10.00" fill="#000000">15</text>
</a>
</g>
</g>
<!-- dir_bcbb2cf9a3d3d83e5515c82071a07177&#45;&gt;dir_4ab6b4cc6a7edbff49100e9123df213f -->
<g id="edge34" class="edge">
<title>dir_bcbb2cf9a3d3d83e5515c82071a07177&#45;&gt;dir_4ab6b4cc6a7edbff49100e9123df213f</title>
<path fill="none" stroke="#000000" d="M502.2709,-36.3814C527.6688,-62.281 564,-111.9652 564,-162 564,-234 564,-234 564,-234 564,-319.8717 480.6288,-392.8035 429.1794,-427.8022"/>
<polygon fill="#000000" stroke="#000000" points="426.9965,-425.0499 420.593,-433.4907 430.8626,-430.8855 426.9965,-425.0499"/>
<g id="a_edge34&#45;headlabel"><a xlink:href="dir_000015_000031.html" target="_top" xlink:title="8">
<text text-anchor="middle" x="428.4251" y="-418.1977" font-family="Helvetica,sans-Serif" font-size="10.00" fill="#000000">8</text>
</a>
</g>
</g>
<!-- dir_bcbb2cf9a3d3d83e5515c82071a07177&#45;&gt;dir_2171f7ec022c5423887b07c69b2f5b48 -->
<g id="edge35" class="edge">
<title>dir_bcbb2cf9a3d3d83e5515c82071a07177&#45;&gt;dir_2171f7ec022c5423887b07c69b2f5b48</title>
<path fill="none" stroke="#000000" d="M480.015,-36.1451C477.3542,-73.8741 463.4889,-161.0083 453.2538,-205.9956"/>
<polygon fill="#000000" stroke="#000000" points="449.7938,-205.4154 450.8698,-215.9555 456.6015,-207.0449 449.7938,-205.4154"/>
<g id="a_edge35&#45;headlabel"><a xlink:href="dir_000015_000080.html" target="_top" xlink:title="82">
<text text-anchor="middle" x="447.8692" y="-198.7587" font-family="Helvetica,sans-Serif" font-size="10.00" fill="#000000">82</text>
</a>
</g>
</g>
<!-- dir_26637d1bd82229bc9ed97f7e706be743&#45;&gt;dir_4ab6b4cc6a7edbff49100e9123df213f -->
<g id="edge42" class="edge">
<title>dir_26637d1bd82229bc9ed97f7e706be743&#45;&gt;dir_4ab6b4cc6a7edbff49100e9123df213f</title>
<path fill="none" stroke="#000000" d="M168.6548,-324.1544C191.4022,-347.2546 230.0329,-385.4307 247,-396 279.1769,-416.044 319.9708,-430.5328 349.7456,-439.4249"/>
<polygon fill="#000000" stroke="#000000" points="348.813,-442.7986 359.3923,-442.2259 350.7649,-436.0762 348.813,-442.7986"/>
<g id="a_edge42&#45;headlabel"><a xlink:href="dir_000606_000031.html" target="_top" xlink:title="10">
<text text-anchor="middle" x="344.5693" y="-442.023" font-family="Helvetica,sans-Serif" font-size="10.00" fill="#000000">10</text>
</a>
</g>
</g>
<!-- dir_26637d1bd82229bc9ed97f7e706be743&#45;&gt;dir_f511f1e9c03c071966ae594f00bbc5e0 -->
<g id="edge43" class="edge">
<title>dir_26637d1bd82229bc9ed97f7e706be743&#45;&gt;dir_f511f1e9c03c071966ae594f00bbc5e0</title>
<path fill="none" stroke="#000000" d="M178.4206,-318.1191C198.372,-328.1517 225.4108,-342.692 247.0557,-354.932"/>
<polygon fill="#000000" stroke="#000000" points="245.5455,-358.1 255.9655,-360.0171 249.0153,-352.0205 245.5455,-358.1"/>
<g id="a_edge43&#45;headlabel"><a xlink:href="dir_000606_000715.html" target="_top" xlink:title="2">
<text text-anchor="middle" x="241.0162" y="-356.2842" font-family="Helvetica,sans-Serif" font-size="10.00" fill="#000000">2</text>
</a>
</g>
</g>
<!-- dir_26637d1bd82229bc9ed97f7e706be743&#45;&gt;dir_bcbb2cf9a3d3d83e5515c82071a07177 -->
<g id="edge44" class="edge">
<title>dir_26637d1bd82229bc9ed97f7e706be743&#45;&gt;dir_bcbb2cf9a3d3d83e5515c82071a07177</title>
<path fill="none" stroke="#000000" d="M159.1761,-287.7896C179.7426,-244.0168 237.9103,-132.0822 320,-72 353.6847,-47.3459 399.4304,-33.3775 433.2069,-25.8541"/>
<polygon fill="#000000" stroke="#000000" points="434.2204,-29.2172 443.2784,-23.7215 432.7703,-22.3691 434.2204,-29.2172"/>
<g id="a_edge44&#45;headlabel"><a xlink:href="dir_000606_000015.html" target="_top" xlink:title="25">
<text text-anchor="middle" x="431.2919" y="-30.2395" font-family="Helvetica,sans-Serif" font-size="10.00" fill="#000000">25</text>
</a>
</g>
</g>
<!-- dir_26637d1bd82229bc9ed97f7e706be743&#45;&gt;dir_2171f7ec022c5423887b07c69b2f5b48 -->
<g id="edge45" class="edge">
<title>dir_26637d1bd82229bc9ed97f7e706be743&#45;&gt;dir_2171f7ec022c5423887b07c69b2f5b48</title>
<path fill="none" stroke="#000000" d="M178.0396,-299.3555C227.022,-287.3188 331.1339,-261.735 393.5805,-246.3898"/>
<polygon fill="#000000" stroke="#000000" points="394.7298,-249.7116 403.6056,-243.9263 393.0593,-242.9138 394.7298,-249.7116"/>
<g id="a_edge45&#45;headlabel"><a xlink:href="dir_000606_000080.html" target="_top" xlink:title="15">
<text text-anchor="middle" x="391.9165" y="-250.8265" font-family="Helvetica,sans-Serif" font-size="10.00" fill="#000000">15</text>
</a>
</g>
</g>
<!-- dir_2171f7ec022c5423887b07c69b2f5b48&#45;&gt;dir_4ab6b4cc6a7edbff49100e9123df213f -->
<g id="edge46" class="edge">
<title>dir_2171f7ec022c5423887b07c69b2f5b48&#45;&gt;dir_4ab6b4cc6a7edbff49100e9123df213f</title>
<path fill="none" stroke="#000000" d="M443.4189,-252.1451C437.4267,-289.9537 415.8185,-377.3762 401.6274,-422.2797"/>
<polygon fill="#000000" stroke="#000000" points="398.2448,-421.3628 398.457,-431.9555 404.8968,-423.5424 398.2448,-421.3628"/>
<g id="a_edge46&#45;headlabel"><a xlink:href="dir_000080_000031.html" target="_top" xlink:title="36">
<text text-anchor="middle" x="396.6659" y="-414.5628" font-family="Helvetica,sans-Serif" font-size="10.00" fill="#000000">36</text>
</a>
</g>
</g>
<!-- dir_2171f7ec022c5423887b07c69b2f5b48&#45;&gt;dir_b05a5fa85f84bfc9013183c9d87f9a36 -->
<g id="edge47" class="edge">
<title>dir_2171f7ec022c5423887b07c69b2f5b48&#45;&gt;dir_b05a5fa85f84bfc9013183c9d87f9a36</title>
<path fill="none" stroke="#000000" d="M430.8412,-215.7623C416.8313,-190.9846 395.8625,-146.4714 384.3924,-117.5939"/>
<polygon fill="#000000" stroke="#000000" points="387.599,-116.1801 380.7584,-108.0896 381.0607,-118.6801 387.599,-116.1801"/>
<g id="a_edge47&#45;headlabel"><a xlink:href="dir_000080_000601.html" target="_top" xlink:title="1">
<text text-anchor="middle" x="391.5348" y="-116.0237" font-family="Helvetica,sans-Serif" font-size="10.00" fill="#000000">1</text>
</a>
</g>
</g>
<!-- dir_2171f7ec022c5423887b07c69b2f5b48&#45;&gt;dir_37c90836491b695b472bf98d1be8336b -->
<g id="edge48" class="edge">
<title>dir_2171f7ec022c5423887b07c69b2f5b48&#45;&gt;dir_37c90836491b695b472bf98d1be8336b</title>
<path fill="none" stroke="#000000" d="M407.0095,-215.8314C390.3796,-206.6221 370.949,-195.3301 354.723,-185.4706"/>
<polygon fill="#000000" stroke="#000000" points="356.4298,-182.4116 346.0763,-180.1628 352.7677,-188.3772 356.4298,-182.4116"/>
<g id="a_edge48&#45;headlabel"><a xlink:href="dir_000080_000275.html" target="_top" xlink:title="1">
<text text-anchor="middle" x="360.9786" y="-179.3723" font-family="Helvetica,sans-Serif" font-size="10.00" fill="#000000">1</text>
</a>
</g>
</g>
<!-- dir_2171f7ec022c5423887b07c69b2f5b48&#45;&gt;dir_f511f1e9c03c071966ae594f00bbc5e0 -->
<g id="edge49" class="edge">
<title>dir_2171f7ec022c5423887b07c69b2f5b48&#45;&gt;dir_f511f1e9c03c071966ae594f00bbc5e0</title>
<path fill="none" stroke="#000000" d="M428.4331,-252.0896C402.4312,-277.6512 350.3288,-324.427 315.9642,-353.2076"/>
<polygon fill="#000000" stroke="#000000" points="313.5251,-350.6834 308.0639,-359.7623 317.9948,-356.0706 313.5251,-350.6834"/>
<g id="a_edge49&#45;headlabel"><a xlink:href="dir_000080_000715.html" target="_top" xlink:title="19">
<text text-anchor="middle" x="314.4786" y="-343.7031" font-family="Helvetica,sans-Serif" font-size="10.00" fill="#000000">19</text>
</a>
</g>
</g>
<!-- dir_2171f7ec022c5423887b07c69b2f5b48&#45;&gt;dir_bcbb2cf9a3d3d83e5515c82071a07177 -->
<g id="edge50" class="edge">
<title>dir_2171f7ec022c5423887b07c69b2f5b48&#45;&gt;dir_bcbb2cf9a3d3d83e5515c82071a07177</title>
<path fill="none" stroke="#000000" d="M442.978,-215.9555C445.6188,-178.3144 459.4774,-91.1867 469.7189,-46.1246"/>
<polygon fill="#000000" stroke="#000000" points="473.1835,-46.6848 472.1047,-36.1451 466.3754,-45.0572 473.1835,-46.6848"/>
<g id="a_edge50&#45;headlabel"><a xlink:href="dir_000080_000015.html" target="_top" xlink:title="17">
<text text-anchor="middle" x="475.1093" y="-48.3411" font-family="Helvetica,sans-Serif" font-size="10.00" fill="#000000">17</text>
</a>
</g>
</g>
</g>
</svg>
