<?xml version="1.0" encoding="UTF-8" standalone="no"?>
<!DOCTYPE svg PUBLIC "-//W3C//DTD SVG 1.1//EN"
 "http://www.w3.org/Graphics/SVG/1.1/DTD/svg11.dtd">
<!-- Generated by graphviz version 2.40.1 (20161225.0304)
 -->
<!-- Title: /home/travis/build/AliceO2Group/AliceO2/Detectors/CTF/workflow Pages: 1 -->
<svg width="742pt" height="663pt"
 viewBox="0.00 0.00 742.00 663.00" xmlns="http://www.w3.org/2000/svg" xmlns:xlink="http://www.w3.org/1999/xlink">
<g id="graph0" class="graph" transform="scale(1 1) rotate(0) translate(4 659)">
<title>/home/travis/build/AliceO2Group/AliceO2/Detectors/CTF/workflow</title>
<g id="clust1" class="cluster">
<title>clusterdir_22c28337d94ed0b7d4c6655ee55d3b27</title>
<g id="a_clust1"><a xlink:href="dir_22c28337d94ed0b7d4c6655ee55d3b27.html" target="_top" xlink:title="CTF">
<polygon fill="#ddddee" stroke="#000000" points="271,-488 271,-647 437,-647 437,-488 271,-488"/>
<text text-anchor="middle" x="354" y="-635" font-family="Helvetica,sans-Serif" font-size="10.00" fill="#000000">CTF</text>
</a>
</g>
</g>
<g id="clust2" class="cluster">
<title>clusterdir_60bab4a80e8540917b3a9a0f6e3beabd</title>
<g id="a_clust2"><a xlink:href="dir_60bab4a80e8540917b3a9a0f6e3beabd.html" target="_top">
<polygon fill="#eeeeff" stroke="#000000" points="279,-496 279,-620 429,-620 429,-496 279,-496"/>
</a>
</g>
</g>
<!-- dir_60bab4a80e8540917b3a9a0f6e3beabd -->
<g id="node1" class="node">
<title>dir_60bab4a80e8540917b3a9a0f6e3beabd</title>
<text text-anchor="middle" x="390" y="-591.5" font-family="Helvetica,sans-Serif" font-size="10.00" fill="#000000">workflow</text>
</g>
<!-- dir_f880e19344c61eaaaff98e6bc913348a -->
<g id="node2" class="node">
<title>dir_f880e19344c61eaaaff98e6bc913348a</title>
<g id="a_node2"><a xlink:href="dir_f880e19344c61eaaaff98e6bc913348a.html" target="_top" xlink:title="include">
<polygon fill="#ffffff" stroke="#ff0000" points="359,-540 305,-540 305,-504 359,-504 359,-540"/>
<text text-anchor="middle" x="332" y="-519.5" font-family="Helvetica,sans-Serif" font-size="10.00" fill="#000000">include</text>
</a>
</g>
</g>
<!-- dir_4ab6b4cc6a7edbff49100e9123df213f -->
<g id="node4" class="node">
<title>dir_4ab6b4cc6a7edbff49100e9123df213f</title>
<g id="a_node4"><a xlink:href="dir_4ab6b4cc6a7edbff49100e9123df213f.html" target="_top" xlink:title="Common">
<polygon fill="none" stroke="#ff0000" points="442.5,-468 381.5,-468 381.5,-432 442.5,-432 442.5,-468"/>
<text text-anchor="middle" x="412" y="-447.5" font-family="Helvetica,sans-Serif" font-size="10.00" fill="#000000">Common</text>
</a>
</g>
</g>
<!-- dir_f880e19344c61eaaaff98e6bc913348a&#45;&gt;dir_4ab6b4cc6a7edbff49100e9123df213f -->
<g id="edge1" class="edge">
<title>dir_f880e19344c61eaaaff98e6bc913348a&#45;&gt;dir_4ab6b4cc6a7edbff49100e9123df213f</title>
<path fill="none" stroke="#000000" d="M352.1874,-503.8314C361.8514,-495.1337 373.5796,-484.5783 384.0816,-475.1265"/>
<polygon fill="#000000" stroke="#000000" points="386.7275,-477.454 391.8191,-468.1628 382.0447,-472.251 386.7275,-477.454"/>
<g id="a_edge1&#45;headlabel"><a xlink:href="dir_000423_000031.html" target="_top" xlink:title="1">
<text text-anchor="middle" x="385.955" y="-479.4691" font-family="Helvetica,sans-Serif" font-size="10.00" fill="#000000">1</text>
</a>
</g>
</g>
<!-- dir_b05a5fa85f84bfc9013183c9d87f9a36 -->
<g id="node7" class="node">
<title>dir_b05a5fa85f84bfc9013183c9d87f9a36</title>
<g id="a_node7"><a xlink:href="dir_b05a5fa85f84bfc9013183c9d87f9a36.html" target="_top" xlink:title="Utilities">
<polygon fill="none" stroke="#ff0000" points="384.5,-108 329.5,-108 329.5,-72 384.5,-72 384.5,-108"/>
<text text-anchor="middle" x="357" y="-87.5" font-family="Helvetica,sans-Serif" font-size="10.00" fill="#000000">Utilities</text>
</a>
</g>
</g>
<!-- dir_f880e19344c61eaaaff98e6bc913348a&#45;&gt;dir_b05a5fa85f84bfc9013183c9d87f9a36 -->
<g id="edge2" class="edge">
<title>dir_f880e19344c61eaaaff98e6bc913348a&#45;&gt;dir_b05a5fa85f84bfc9013183c9d87f9a36</title>
<path fill="none" stroke="#000000" d="M304.7812,-505.4196C259.006,-475.7296 168.1698,-408.6059 133,-324 126.8585,-309.2257 131.0451,-303.8801 133,-288 141.0604,-222.5246 123.1693,-191.4505 169,-144 189.7588,-122.5076 270.8187,-105.0459 319.4642,-96.2298"/>
<polygon fill="#000000" stroke="#000000" points="320.0844,-99.6745 329.3192,-94.4814 318.8616,-92.7822 320.0844,-99.6745"/>
<g id="a_edge2&#45;headlabel"><a xlink:href="dir_000423_000601.html" target="_top" xlink:title="1">
<text text-anchor="middle" x="317.041" y="-100.598" font-family="Helvetica,sans-Serif" font-size="10.00" fill="#000000">1</text>
</a>
</g>
</g>
<!-- dir_bcbb2cf9a3d3d83e5515c82071a07177 -->
<g id="node11" class="node">
<title>dir_bcbb2cf9a3d3d83e5515c82071a07177</title>
<g id="a_node11"><a xlink:href="dir_bcbb2cf9a3d3d83e5515c82071a07177.html" target="_top" xlink:title="Framework">
<polygon fill="none" stroke="#ff0000" points="340.5,-396 269.5,-396 269.5,-360 340.5,-360 340.5,-396"/>
<text text-anchor="middle" x="305" y="-375.5" font-family="Helvetica,sans-Serif" font-size="10.00" fill="#000000">Framework</text>
</a>
</g>
</g>
<!-- dir_f880e19344c61eaaaff98e6bc913348a&#45;&gt;dir_bcbb2cf9a3d3d83e5515c82071a07177 -->
<g id="edge3" class="edge">
<title>dir_f880e19344c61eaaaff98e6bc913348a&#45;&gt;dir_bcbb2cf9a3d3d83e5515c82071a07177</title>
<path fill="none" stroke="#000000" d="M328.5804,-503.7623C323.9549,-479.0928 315.6612,-434.8598 310.245,-405.9731"/>
<polygon fill="#000000" stroke="#000000" points="313.6748,-405.2733 308.3918,-396.0896 306.7947,-406.5634 313.6748,-405.2733"/>
<g id="a_edge3&#45;headlabel"><a xlink:href="dir_000423_000015.html" target="_top" xlink:title="4">
<text text-anchor="middle" x="317.1278" y="-405.7831" font-family="Helvetica,sans-Serif" font-size="10.00" fill="#000000">4</text>
</a>
</g>
</g>
<!-- dir_2171f7ec022c5423887b07c69b2f5b48 -->
<g id="node12" class="node">
<title>dir_2171f7ec022c5423887b07c69b2f5b48</title>
<g id="a_node12"><a xlink:href="dir_2171f7ec022c5423887b07c69b2f5b48.html" target="_top" xlink:title="DataFormats">
<polygon fill="none" stroke="#ff0000" points="375,-252 295,-252 295,-216 375,-216 375,-252"/>
<text text-anchor="middle" x="335" y="-231.5" font-family="Helvetica,sans-Serif" font-size="10.00" fill="#000000">DataFormats</text>
</a>
</g>
</g>
<!-- dir_f880e19344c61eaaaff98e6bc913348a&#45;&gt;dir_2171f7ec022c5423887b07c69b2f5b48 -->
<g id="edge4" class="edge">
<title>dir_f880e19344c61eaaaff98e6bc913348a&#45;&gt;dir_2171f7ec022c5423887b07c69b2f5b48</title>
<path fill="none" stroke="#000000" d="M359.2112,-518.3307C387.8646,-512.8564 431.5947,-499.5586 452,-468 479.2504,-425.855 478.7294,-375.6778 417,-288 408.3892,-275.7695 396.047,-265.579 383.5432,-257.4669"/>
<polygon fill="#000000" stroke="#000000" points="385.2618,-254.4153 374.9048,-252.1833 381.6094,-260.3869 385.2618,-254.4153"/>
<g id="a_edge4&#45;headlabel"><a xlink:href="dir_000423_000080.html" target="_top" xlink:title="5">
<text text-anchor="middle" x="389.8098" y="-251.3687" font-family="Helvetica,sans-Serif" font-size="10.00" fill="#000000">5</text>
</a>
</g>
</g>
<!-- dir_0975f3a41b875e2b4566cea931b99e77 -->
<g id="node3" class="node">
<title>dir_0975f3a41b875e2b4566cea931b99e77</title>
<g id="a_node3"><a xlink:href="dir_0975f3a41b875e2b4566cea931b99e77.html" target="_top" xlink:title="src">
<polygon fill="#ffffff" stroke="#000000" points="341,-612 287,-612 287,-576 341,-576 341,-612"/>
<text text-anchor="middle" x="314" y="-591.5" font-family="Helvetica,sans-Serif" font-size="10.00" fill="#000000">src</text>
</a>
</g>
</g>
<!-- dir_0975f3a41b875e2b4566cea931b99e77&#45;&gt;dir_f880e19344c61eaaaff98e6bc913348a -->
<g id="edge7" class="edge">
<title>dir_0975f3a41b875e2b4566cea931b99e77&#45;&gt;dir_f880e19344c61eaaaff98e6bc913348a</title>
<path fill="none" stroke="#000000" d="M318.5422,-575.8314C320.4884,-568.0463 322.8068,-558.7729 324.9663,-550.1347"/>
<polygon fill="#000000" stroke="#000000" points="328.3668,-550.9636 327.3967,-540.4133 321.5758,-549.2658 328.3668,-550.9636"/>
<g id="a_edge7&#45;headlabel"><a xlink:href="dir_000425_000423.html" target="_top" xlink:title="4">
<text text-anchor="middle" x="330.2495" y="-552.6395" font-family="Helvetica,sans-Serif" font-size="10.00" fill="#000000">4</text>
</a>
</g>
</g>
<!-- dir_0975f3a41b875e2b4566cea931b99e77&#45;&gt;dir_4ab6b4cc6a7edbff49100e9123df213f -->
<g id="edge8" class="edge">
<title>dir_0975f3a41b875e2b4566cea931b99e77&#45;&gt;dir_4ab6b4cc6a7edbff49100e9123df213f</title>
<path fill="none" stroke="#000000" d="M335.1714,-575.9232C345.8963,-566.0451 358.6009,-553.164 368,-540 381.8781,-520.5628 393.5278,-496.0821 401.3466,-477.5615"/>
<polygon fill="#000000" stroke="#000000" points="404.6227,-478.7971 405.1818,-468.2171 398.1469,-476.1393 404.6227,-478.7971"/>
<g id="a_edge8&#45;headlabel"><a xlink:href="dir_000425_000031.html" target="_top" xlink:title="1">
<text text-anchor="middle" x="405.8846" y="-480.7006" font-family="Helvetica,sans-Serif" font-size="10.00" fill="#000000">1</text>
</a>
</g>
</g>
<!-- dir_d14e88a79bca429480864605ee348cef -->
<g id="node5" class="node">
<title>dir_d14e88a79bca429480864605ee348cef</title>
<g id="a_node5"><a xlink:href="dir_d14e88a79bca429480864605ee348cef.html" target="_top" xlink:title="FIT">
<polygon fill="none" stroke="#ff0000" points="255,-180 201,-180 201,-144 255,-144 255,-180"/>
<text text-anchor="middle" x="228" y="-159.5" font-family="Helvetica,sans-Serif" font-size="10.00" fill="#000000">FIT</text>
</a>
</g>
</g>
<!-- dir_0975f3a41b875e2b4566cea931b99e77&#45;&gt;dir_d14e88a79bca429480864605ee348cef -->
<g id="edge9" class="edge">
<title>dir_0975f3a41b875e2b4566cea931b99e77&#45;&gt;dir_d14e88a79bca429480864605ee348cef</title>
<path fill="none" stroke="#000000" d="M286.6102,-587.9044C231.8352,-573.9228 114,-534.0743 114,-450 114,-450 114,-450 114,-378 114,-337.1184 116.0675,-325.2102 133,-288 150.4326,-249.6908 181.1563,-211.9831 202.9398,-187.9521"/>
<polygon fill="#000000" stroke="#000000" points="205.7475,-190.0703 209.9525,-180.3457 200.6009,-185.3255 205.7475,-190.0703"/>
<g id="a_edge9&#45;headlabel"><a xlink:href="dir_000425_000166.html" target="_top" xlink:title="1">
<text text-anchor="middle" x="205.3984" y="-192.1377" font-family="Helvetica,sans-Serif" font-size="10.00" fill="#000000">1</text>
</a>
</g>
</g>
<!-- dir_a597e8e061b11201a1dff411feb10d0b -->
<g id="node6" class="node">
<title>dir_a597e8e061b11201a1dff411feb10d0b</title>
<g id="a_node6"><a xlink:href="dir_a597e8e061b11201a1dff411feb10d0b.html" target="_top" xlink:title="TPC">
<polygon fill="none" stroke="#ff0000" points="196,-324 142,-324 142,-288 196,-288 196,-324"/>
<text text-anchor="middle" x="169" y="-303.5" font-family="Helvetica,sans-Serif" font-size="10.00" fill="#000000">TPC</text>
</a>
</g>
</g>
<!-- dir_0975f3a41b875e2b4566cea931b99e77&#45;&gt;dir_a597e8e061b11201a1dff411feb10d0b -->
<g id="edge10" class="edge">
<title>dir_0975f3a41b875e2b4566cea931b99e77&#45;&gt;dir_a597e8e061b11201a1dff411feb10d0b</title>
<path fill="none" stroke="#000000" d="M304.5666,-575.763C286.5749,-540.9242 246.1914,-462.456 213,-396 202.5744,-375.1258 190.9923,-351.4134 182.3289,-333.5701"/>
<polygon fill="#000000" stroke="#000000" points="185.3543,-331.7874 177.8421,-324.3163 179.0556,-334.8414 185.3543,-331.7874"/>
<g id="a_edge10&#45;headlabel"><a xlink:href="dir_000425_000053.html" target="_top" xlink:title="1">
<text text-anchor="middle" x="189.4773" y="-331.2832" font-family="Helvetica,sans-Serif" font-size="10.00" fill="#000000">1</text>
</a>
</g>
</g>
<!-- dir_1306292b77b40360479b729ac9ee7efe -->
<g id="node8" class="node">
<title>dir_1306292b77b40360479b729ac9ee7efe</title>
<g id="a_node8"><a xlink:href="dir_1306292b77b40360479b729ac9ee7efe.html" target="_top" xlink:title="ITSMFT">
<polygon fill="none" stroke="#ff0000" points="439,-180 385,-180 385,-144 439,-144 439,-180"/>
<text text-anchor="middle" x="412" y="-159.5" font-family="Helvetica,sans-Serif" font-size="10.00" fill="#000000">ITSMFT</text>
</a>
</g>
</g>
<!-- dir_0975f3a41b875e2b4566cea931b99e77&#45;&gt;dir_1306292b77b40360479b729ac9ee7efe -->
<g id="edge11" class="edge">
<title>dir_0975f3a41b875e2b4566cea931b99e77&#45;&gt;dir_1306292b77b40360479b729ac9ee7efe</title>
<path fill="none" stroke="#000000" d="M341.0938,-579.6543C344.3728,-578.2682 347.7222,-577.0064 351,-576 458.3129,-543.0513 506.7715,-601.0137 601,-540 640.7433,-514.2659 658,-497.3474 658,-450 658,-450 658,-450 658,-378 658,-268.0326 517.4771,-200.9056 448.8453,-174.6784"/>
<polygon fill="#000000" stroke="#000000" points="449.8589,-171.321 439.2662,-171.1054 447.4124,-177.8796 449.8589,-171.321"/>
<g id="a_edge11&#45;headlabel"><a xlink:href="dir_000425_000047.html" target="_top" xlink:title="1">
<text text-anchor="middle" x="454.2191" y="-167.417" font-family="Helvetica,sans-Serif" font-size="10.00" fill="#000000">1</text>
</a>
</g>
</g>
<!-- dir_8ba487e25de5ee77e05e9dce7582cb98 -->
<g id="node9" class="node">
<title>dir_8ba487e25de5ee77e05e9dce7582cb98</title>
<g id="a_node9"><a xlink:href="dir_8ba487e25de5ee77e05e9dce7582cb98.html" target="_top" xlink:title="Algorithm">
<polygon fill="none" stroke="#ff0000" points="235.5,-36 170.5,-36 170.5,0 235.5,0 235.5,-36"/>
<text text-anchor="middle" x="203" y="-15.5" font-family="Helvetica,sans-Serif" font-size="10.00" fill="#000000">Algorithm</text>
</a>
</g>
</g>
<!-- dir_0975f3a41b875e2b4566cea931b99e77&#45;&gt;dir_8ba487e25de5ee77e05e9dce7582cb98 -->
<g id="edge12" class="edge">
<title>dir_0975f3a41b875e2b4566cea931b99e77&#45;&gt;dir_8ba487e25de5ee77e05e9dce7582cb98</title>
<path fill="none" stroke="#000000" d="M286.9752,-589.6716C248.5913,-582.8186 176.7562,-567.3588 121,-540 60.8306,-510.4756 0,-517.0228 0,-450 0,-450 0,-450 0,-162 0,-115.1222 18.7281,-101.6965 55,-72 85.5543,-46.9846 128.7179,-33.0097 160.5503,-25.5788"/>
<polygon fill="#000000" stroke="#000000" points="161.4474,-28.9651 170.457,-23.3904 159.9374,-22.1299 161.4474,-28.9651"/>
<g id="a_edge12&#45;headlabel"><a xlink:href="dir_000425_000000.html" target="_top" xlink:title="1">
<text text-anchor="middle" x="158.5498" y="-30.0128" font-family="Helvetica,sans-Serif" font-size="10.00" fill="#000000">1</text>
</a>
</g>
</g>
<!-- dir_577c839d346a264df4e9e588ca2a45dd -->
<g id="node10" class="node">
<title>dir_577c839d346a264df4e9e588ca2a45dd</title>
<g id="a_node10"><a xlink:href="dir_577c839d346a264df4e9e588ca2a45dd.html" target="_top" xlink:title="TOF">
<polygon fill="none" stroke="#ff0000" points="499,-540 445,-540 445,-504 499,-504 499,-540"/>
<text text-anchor="middle" x="472" y="-519.5" font-family="Helvetica,sans-Serif" font-size="10.00" fill="#000000">TOF</text>
</a>
</g>
</g>
<!-- dir_0975f3a41b875e2b4566cea931b99e77&#45;&gt;dir_577c839d346a264df4e9e588ca2a45dd -->
<g id="edge13" class="edge">
<title>dir_0975f3a41b875e2b4566cea931b99e77&#45;&gt;dir_577c839d346a264df4e9e588ca2a45dd</title>
<path fill="none" stroke="#000000" d="M341.0198,-580.7045C344.3714,-579.0998 347.7583,-577.4994 351,-576 387.1248,-559.2908 396.7069,-556.3404 433,-540 433.833,-539.625 434.6755,-539.2446 435.5248,-538.8603"/>
<polygon fill="#000000" stroke="#000000" points="437.1067,-541.9858 444.7546,-534.6536 434.2036,-535.6162 437.1067,-541.9858"/>
<g id="a_edge13&#45;headlabel"><a xlink:href="dir_000425_000140.html" target="_top" xlink:title="1">
<text text-anchor="middle" x="435.0133" y="-543.5601" font-family="Helvetica,sans-Serif" font-size="10.00" fill="#000000">1</text>
</a>
</g>
</g>
<!-- dir_0975f3a41b875e2b4566cea931b99e77&#45;&gt;dir_bcbb2cf9a3d3d83e5515c82071a07177 -->
<g id="edge14" class="edge">
<title>dir_0975f3a41b875e2b4566cea931b99e77&#45;&gt;dir_bcbb2cf9a3d3d83e5515c82071a07177</title>
<path fill="none" stroke="#000000" d="M306.3321,-575.8756C302.3861,-565.5642 297.9945,-552.2907 296,-540 288.4599,-493.5358 294.5987,-438.7028 299.7709,-406.2256"/>
<polygon fill="#000000" stroke="#000000" points="303.2646,-406.5542 301.4668,-396.113 296.361,-405.3964 303.2646,-406.5542"/>
<g id="a_edge14&#45;headlabel"><a xlink:href="dir_000425_000015.html" target="_top" xlink:title="18">
<text text-anchor="middle" x="305.4704" y="-408.0689" font-family="Helvetica,sans-Serif" font-size="10.00" fill="#000000">18</text>
</a>
</g>
</g>
<!-- dir_0975f3a41b875e2b4566cea931b99e77&#45;&gt;dir_2171f7ec022c5423887b07c69b2f5b48 -->
<g id="edge15" class="edge">
<title>dir_0975f3a41b875e2b4566cea931b99e77&#45;&gt;dir_2171f7ec022c5423887b07c69b2f5b48</title>
<path fill="none" stroke="#000000" d="M341.1814,-579.9199C344.4446,-578.4862 347.7664,-577.1405 351,-576 475.5033,-532.0859 620,-582.0209 620,-450 620,-450 620,-450 620,-378 620,-274.0671 467.1443,-245.1323 385.3205,-237.0888"/>
<polygon fill="#000000" stroke="#000000" points="385.506,-233.5913 375.2291,-236.1672 384.8693,-240.5623 385.506,-233.5913"/>
<g id="a_edge15&#45;headlabel"><a xlink:href="dir_000425_000080.html" target="_top" xlink:title="19">
<text text-anchor="middle" x="389.3439" y="-228.5906" font-family="Helvetica,sans-Serif" font-size="10.00" fill="#000000">19</text>
</a>
</g>
</g>
<!-- dir_4ab6b4cc6a7edbff49100e9123df213f&#45;&gt;dir_bcbb2cf9a3d3d83e5515c82071a07177 -->
<g id="edge5" class="edge">
<title>dir_4ab6b4cc6a7edbff49100e9123df213f&#45;&gt;dir_bcbb2cf9a3d3d83e5515c82071a07177</title>
<path fill="none" stroke="#000000" d="M381.3823,-433.3008C366.5362,-423.9941 348.8735,-412.244 334.2198,-401.9707"/>
<polygon fill="#000000" stroke="#000000" points="336.1636,-399.0583 325.9837,-396.1222 332.1107,-404.7657 336.1636,-399.0583"/>
<g id="a_edge5&#45;headlabel"><a xlink:href="dir_000031_000015.html" target="_top" xlink:title="2">
<text text-anchor="middle" x="340.7383" y="-396.3245" font-family="Helvetica,sans-Serif" font-size="10.00" fill="#000000">2</text>
</a>
</g>
</g>
<!-- dir_4ab6b4cc6a7edbff49100e9123df213f&#45;&gt;dir_2171f7ec022c5423887b07c69b2f5b48 -->
<g id="edge6" class="edge">
<title>dir_4ab6b4cc6a7edbff49100e9123df213f&#45;&gt;dir_2171f7ec022c5423887b07c69b2f5b48</title>
<path fill="none" stroke="#000000" d="M407.4228,-431.912C404.5897,-400.7926 402.8049,-335.8587 379,-288 373.7148,-277.3743 365.5592,-267.523 357.6129,-259.2229"/>
<polygon fill="#000000" stroke="#000000" points="360.0041,-256.6642 350.4626,-252.0588 355.0496,-261.6092 360.0041,-256.6642"/>
<g id="a_edge6&#45;headlabel"><a xlink:href="dir_000031_000080.html" target="_top" xlink:title="2">
<text text-anchor="middle" x="364.553" y="-254.7027" font-family="Helvetica,sans-Serif" font-size="10.00" fill="#000000">2</text>
</a>
</g>
</g>
<!-- dir_d14e88a79bca429480864605ee348cef&#45;&gt;dir_4ab6b4cc6a7edbff49100e9123df213f -->
<g id="edge16" class="edge">
<title>dir_d14e88a79bca429480864605ee348cef&#45;&gt;dir_4ab6b4cc6a7edbff49100e9123df213f</title>
<path fill="none" stroke="#000000" d="M239.5057,-180.0089C270.8664,-229.0953 357.9671,-365.4268 394.9936,-423.3813"/>
<polygon fill="#000000" stroke="#000000" points="392.1566,-425.4417 400.49,-431.9843 398.0555,-421.673 392.1566,-425.4417"/>
<g id="a_edge16&#45;headlabel"><a xlink:href="dir_000166_000031.html" target="_top" xlink:title="26">
<text text-anchor="middle" x="387.8287" y="-421.4412" font-family="Helvetica,sans-Serif" font-size="10.00" fill="#000000">26</text>
</a>
</g>
</g>
<!-- dir_d14e88a79bca429480864605ee348cef&#45;&gt;dir_b05a5fa85f84bfc9013183c9d87f9a36 -->
<g id="edge17" class="edge">
<title>dir_d14e88a79bca429480864605ee348cef&#45;&gt;dir_b05a5fa85f84bfc9013183c9d87f9a36</title>
<path fill="none" stroke="#000000" d="M255.0426,-146.9064C273.9636,-136.3459 299.4657,-122.1122 320.2311,-110.5222"/>
<polygon fill="#000000" stroke="#000000" points="322.0758,-113.5009 329.102,-105.571 318.6642,-107.3885 322.0758,-113.5009"/>
<g id="a_edge17&#45;headlabel"><a xlink:href="dir_000166_000601.html" target="_top" xlink:title="2">
<text text-anchor="middle" x="320.3208" y="-115.232" font-family="Helvetica,sans-Serif" font-size="10.00" fill="#000000">2</text>
</a>
</g>
</g>
<!-- dir_d14e88a79bca429480864605ee348cef&#45;&gt;dir_bcbb2cf9a3d3d83e5515c82071a07177 -->
<g id="edge18" class="edge">
<title>dir_d14e88a79bca429480864605ee348cef&#45;&gt;dir_bcbb2cf9a3d3d83e5515c82071a07177</title>
<path fill="none" stroke="#000000" d="M232.3509,-180.1252C236.9069,-198.4413 244.5633,-227.4633 253,-252 264.8877,-286.5734 281.3654,-325.3062 292.5637,-350.5867"/>
<polygon fill="#000000" stroke="#000000" points="289.4493,-352.1965 296.721,-359.9019 295.8416,-349.3436 289.4493,-352.1965"/>
<g id="a_edge18&#45;headlabel"><a xlink:href="dir_000166_000015.html" target="_top" xlink:title="97">
<text text-anchor="middle" x="285.3916" y="-347.5711" font-family="Helvetica,sans-Serif" font-size="10.00" fill="#000000">97</text>
</a>
</g>
</g>
<!-- dir_d14e88a79bca429480864605ee348cef&#45;&gt;dir_2171f7ec022c5423887b07c69b2f5b48 -->
<g id="edge19" class="edge">
<title>dir_d14e88a79bca429480864605ee348cef&#45;&gt;dir_2171f7ec022c5423887b07c69b2f5b48</title>
<path fill="none" stroke="#000000" d="M255.1492,-176.5378C270.5867,-186.0981 289.81,-198.839 305.5871,-209.894"/>
<polygon fill="#000000" stroke="#000000" points="303.7713,-212.8972 313.9518,-215.8314 307.8231,-207.189 303.7713,-212.8972"/>
<g id="a_edge19&#45;headlabel"><a xlink:href="dir_000166_000080.html" target="_top" xlink:title="136">
<text text-anchor="middle" x="299.1967" y="-210.6319" font-family="Helvetica,sans-Serif" font-size="10.00" fill="#000000">136</text>
</a>
</g>
</g>
<!-- dir_a597e8e061b11201a1dff411feb10d0b&#45;&gt;dir_4ab6b4cc6a7edbff49100e9123df213f -->
<g id="edge20" class="edge">
<title>dir_a597e8e061b11201a1dff411feb10d0b&#45;&gt;dir_4ab6b4cc6a7edbff49100e9123df213f</title>
<path fill="none" stroke="#000000" d="M183.4574,-324.2568C200.2057,-344.3282 229.5534,-376.3315 261,-396 295.5049,-417.5813 339.8389,-432.1232 371.5263,-440.6282"/>
<polygon fill="#000000" stroke="#000000" points="370.7827,-444.0511 381.3415,-443.1787 372.5432,-437.2761 370.7827,-444.0511"/>
<g id="a_edge20&#45;headlabel"><a xlink:href="dir_000053_000031.html" target="_top" xlink:title="40">
<text text-anchor="middle" x="366.5896" y="-443.3952" font-family="Helvetica,sans-Serif" font-size="10.00" fill="#000000">40</text>
</a>
</g>
</g>
<!-- dir_a597e8e061b11201a1dff411feb10d0b&#45;&gt;dir_b05a5fa85f84bfc9013183c9d87f9a36 -->
<g id="edge21" class="edge">
<title>dir_a597e8e061b11201a1dff411feb10d0b&#45;&gt;dir_b05a5fa85f84bfc9013183c9d87f9a36</title>
<path fill="none" stroke="#000000" d="M165.918,-287.7552C161.4715,-254.9264 157.2302,-185.4673 192,-144 208.4943,-124.3285 276.0939,-106.9268 319.4842,-97.484"/>
<polygon fill="#000000" stroke="#000000" points="320.3626,-100.8755 329.4143,-95.3694 318.9046,-94.029 320.3626,-100.8755"/>
<g id="a_edge21&#45;headlabel"><a xlink:href="dir_000053_000601.html" target="_top" xlink:title="1">
<text text-anchor="middle" x="317.4382" y="-101.9011" font-family="Helvetica,sans-Serif" font-size="10.00" fill="#000000">1</text>
</a>
</g>
</g>
<!-- dir_a597e8e061b11201a1dff411feb10d0b&#45;&gt;dir_8ba487e25de5ee77e05e9dce7582cb98 -->
<g id="edge22" class="edge">
<title>dir_a597e8e061b11201a1dff411feb10d0b&#45;&gt;dir_8ba487e25de5ee77e05e9dce7582cb98</title>
<path fill="none" stroke="#000000" d="M164.7325,-287.6221C162.538,-277.2314 160.0984,-263.963 159,-252 152.0723,-176.5448 177.6245,-89.1737 192.6951,-45.6373"/>
<polygon fill="#000000" stroke="#000000" points="196.0547,-46.6352 196.0954,-36.0404 189.4566,-44.2973 196.0547,-46.6352"/>
<g id="a_edge22&#45;headlabel"><a xlink:href="dir_000053_000000.html" target="_top" xlink:title="5">
<text text-anchor="middle" x="197.5305" y="-48.4716" font-family="Helvetica,sans-Serif" font-size="10.00" fill="#000000">5</text>
</a>
</g>
</g>
<!-- dir_a597e8e061b11201a1dff411feb10d0b&#45;&gt;dir_bcbb2cf9a3d3d83e5515c82071a07177 -->
<g id="edge23" class="edge">
<title>dir_a597e8e061b11201a1dff411feb10d0b&#45;&gt;dir_bcbb2cf9a3d3d83e5515c82071a07177</title>
<path fill="none" stroke="#000000" d="M196.0784,-317.623C216.6299,-327.6455 244.9503,-342.4218 267.6204,-354.8478"/>
<polygon fill="#000000" stroke="#000000" points="266.1889,-358.0556 276.6339,-359.8314 269.576,-351.9296 266.1889,-358.0556"/>
<g id="a_edge23&#45;headlabel"><a xlink:href="dir_000053_000015.html" target="_top" xlink:title="104">
<text text-anchor="middle" x="261.6693" y="-356.301" font-family="Helvetica,sans-Serif" font-size="10.00" fill="#000000">104</text>
</a>
</g>
</g>
<!-- dir_a597e8e061b11201a1dff411feb10d0b&#45;&gt;dir_2171f7ec022c5423887b07c69b2f5b48 -->
<g id="edge24" class="edge">
<title>dir_a597e8e061b11201a1dff411feb10d0b&#45;&gt;dir_2171f7ec022c5423887b07c69b2f5b48</title>
<path fill="none" stroke="#000000" d="M196.0402,-294.2717C220.2469,-283.7724 256.3401,-268.1176 285.6751,-255.3939"/>
<polygon fill="#000000" stroke="#000000" points="287.1569,-258.5663 294.9384,-251.3761 284.3714,-252.1444 287.1569,-258.5663"/>
<g id="a_edge24&#45;headlabel"><a xlink:href="dir_000053_000080.html" target="_top" xlink:title="183">
<text text-anchor="middle" x="284.9889" y="-260.1014" font-family="Helvetica,sans-Serif" font-size="10.00" fill="#000000">183</text>
</a>
</g>
</g>
<!-- dir_b05a5fa85f84bfc9013183c9d87f9a36&#45;&gt;dir_4ab6b4cc6a7edbff49100e9123df213f -->
<g id="edge25" class="edge">
<title>dir_b05a5fa85f84bfc9013183c9d87f9a36&#45;&gt;dir_4ab6b4cc6a7edbff49100e9123df213f</title>
<path fill="none" stroke="#000000" d="M384.7418,-95.5307C465.7049,-112.4589 696,-166.5393 696,-234 696,-306 696,-306 696,-306 696,-413.7961 531.2271,-440.9225 452.6962,-447.7296"/>
<polygon fill="#000000" stroke="#000000" points="452.3532,-444.2457 442.6628,-448.529 452.9092,-451.2236 452.3532,-444.2457"/>
<g id="a_edge25&#45;headlabel"><a xlink:href="dir_000601_000031.html" target="_top" xlink:title="1">
<text text-anchor="middle" x="455.711" y="-438.63" font-family="Helvetica,sans-Serif" font-size="10.00" fill="#000000">1</text>
</a>
</g>
</g>
<!-- dir_b05a5fa85f84bfc9013183c9d87f9a36&#45;&gt;dir_8ba487e25de5ee77e05e9dce7582cb98 -->
<g id="edge26" class="edge">
<title>dir_b05a5fa85f84bfc9013183c9d87f9a36&#45;&gt;dir_8ba487e25de5ee77e05e9dce7582cb98</title>
<path fill="none" stroke="#000000" d="M329.4679,-77.1278C305.9411,-66.1283 271.7296,-50.1333 244.8201,-37.5523"/>
<polygon fill="#000000" stroke="#000000" points="246.1771,-34.3231 235.6359,-33.2583 243.2124,-40.6643 246.1771,-34.3231"/>
<g id="a_edge26&#45;headlabel"><a xlink:href="dir_000601_000000.html" target="_top" xlink:title="1">
<text text-anchor="middle" x="250.6359" y="-30.7734" font-family="Helvetica,sans-Serif" font-size="10.00" fill="#000000">1</text>
</a>
</g>
</g>
<!-- dir_b05a5fa85f84bfc9013183c9d87f9a36&#45;&gt;dir_bcbb2cf9a3d3d83e5515c82071a07177 -->
<g id="edge27" class="edge">
<title>dir_b05a5fa85f84bfc9013183c9d87f9a36&#45;&gt;dir_bcbb2cf9a3d3d83e5515c82071a07177</title>
<path fill="none" stroke="#000000" d="M384.7395,-98.108C406.2339,-106.0163 434.5466,-120.3729 448,-144 455.917,-157.904 451.589,-164.4077 448,-180 431.9938,-249.5382 422.7215,-269.2159 377,-324 367.5742,-335.2942 355.3432,-345.5847 343.6451,-354.0823"/>
<polygon fill="#000000" stroke="#000000" points="341.457,-351.3416 335.2691,-359.9417 345.4695,-357.0775 341.457,-351.3416"/>
<g id="a_edge27&#45;headlabel"><a xlink:href="dir_000601_000015.html" target="_top" xlink:title="34">
<text text-anchor="middle" x="342.7749" y="-344.4547" font-family="Helvetica,sans-Serif" font-size="10.00" fill="#000000">34</text>
</a>
</g>
</g>
<!-- dir_b05a5fa85f84bfc9013183c9d87f9a36&#45;&gt;dir_2171f7ec022c5423887b07c69b2f5b48 -->
<g id="edge28" class="edge">
<title>dir_b05a5fa85f84bfc9013183c9d87f9a36&#45;&gt;dir_2171f7ec022c5423887b07c69b2f5b48</title>
<path fill="none" stroke="#000000" d="M358.8946,-108.0896C357.6171,-132.6805 351.1357,-176.905 344.7839,-205.8531"/>
<polygon fill="#000000" stroke="#000000" points="341.3358,-205.2272 342.4595,-215.7623 348.1508,-206.8259 341.3358,-205.2272"/>
<g id="a_edge28&#45;headlabel"><a xlink:href="dir_000601_000080.html" target="_top" xlink:title="48">
<text text-anchor="middle" x="339.3924" y="-198.5792" font-family="Helvetica,sans-Serif" font-size="10.00" fill="#000000">48</text>
</a>
</g>
</g>
<!-- dir_1306292b77b40360479b729ac9ee7efe&#45;&gt;dir_4ab6b4cc6a7edbff49100e9123df213f -->
<g id="edge29" class="edge">
<title>dir_1306292b77b40360479b729ac9ee7efe&#45;&gt;dir_4ab6b4cc6a7edbff49100e9123df213f</title>
<path fill="none" stroke="#000000" d="M416.9618,-180.0686C427.0804,-219.5648 447.9286,-316.4235 433,-396 431.365,-404.7156 428.3657,-413.8321 425.1358,-422.0399"/>
<polygon fill="#000000" stroke="#000000" points="421.8026,-420.9377 421.1577,-431.5129 428.2566,-423.648 421.8026,-420.9377"/>
<g id="a_edge29&#45;headlabel"><a xlink:href="dir_000047_000031.html" target="_top" xlink:title="76">
<text text-anchor="middle" x="420.5765" y="-414.0241" font-family="Helvetica,sans-Serif" font-size="10.00" fill="#000000">76</text>
</a>
</g>
</g>
<!-- dir_1306292b77b40360479b729ac9ee7efe&#45;&gt;dir_b05a5fa85f84bfc9013183c9d87f9a36 -->
<g id="edge30" class="edge">
<title>dir_1306292b77b40360479b729ac9ee7efe&#45;&gt;dir_b05a5fa85f84bfc9013183c9d87f9a36</title>
<path fill="none" stroke="#000000" d="M398.1212,-143.8314C391.7864,-135.5386 384.1616,-125.557 377.2074,-116.4533"/>
<polygon fill="#000000" stroke="#000000" points="379.9175,-114.2353 371.0657,-108.4133 374.3548,-118.4847 379.9175,-114.2353"/>
<g id="a_edge30&#45;headlabel"><a xlink:href="dir_000047_000601.html" target="_top" xlink:title="1">
<text text-anchor="middle" x="384.3558" y="-112.8683" font-family="Helvetica,sans-Serif" font-size="10.00" fill="#000000">1</text>
</a>
</g>
</g>
<!-- dir_1306292b77b40360479b729ac9ee7efe&#45;&gt;dir_bcbb2cf9a3d3d83e5515c82071a07177 -->
<g id="edge31" class="edge">
<title>dir_1306292b77b40360479b729ac9ee7efe&#45;&gt;dir_bcbb2cf9a3d3d83e5515c82071a07177</title>
<path fill="none" stroke="#000000" d="M414.6008,-180.0936C412.2405,-198.6363 404.0024,-228.0618 393,-252 376.2408,-288.4635 350.7106,-327.0967 331.2236,-351.8234"/>
<polygon fill="#000000" stroke="#000000" points="328.4532,-349.6829 324.868,-359.6527 333.888,-354.0946 328.4532,-349.6829"/>
<g id="a_edge31&#45;headlabel"><a xlink:href="dir_000047_000015.html" target="_top" xlink:title="99">
<text text-anchor="middle" x="328.5143" y="-342.6026" font-family="Helvetica,sans-Serif" font-size="10.00" fill="#000000">99</text>
</a>
</g>
</g>
<!-- dir_1306292b77b40360479b729ac9ee7efe&#45;&gt;dir_2171f7ec022c5423887b07c69b2f5b48 -->
<g id="edge32" class="edge">
<title>dir_1306292b77b40360479b729ac9ee7efe&#45;&gt;dir_2171f7ec022c5423887b07c69b2f5b48</title>
<path fill="none" stroke="#000000" d="M398.284,-180.4133C389.7627,-189.1637 378.5975,-199.7519 367.9756,-209.1978"/>
<polygon fill="#000000" stroke="#000000" points="365.6107,-206.6162 360.3827,-215.8314 370.2163,-211.8878 365.6107,-206.6162"/>
<g id="a_edge32&#45;headlabel"><a xlink:href="dir_000047_000080.html" target="_top" xlink:title="238">
<text text-anchor="middle" x="366.4497" y="-199.613" font-family="Helvetica,sans-Serif" font-size="10.00" fill="#000000">238</text>
</a>
</g>
</g>
<!-- dir_8ba487e25de5ee77e05e9dce7582cb98&#45;&gt;dir_2171f7ec022c5423887b07c69b2f5b48 -->
<g id="edge33" class="edge">
<title>dir_8ba487e25de5ee77e05e9dce7582cb98&#45;&gt;dir_2171f7ec022c5423887b07c69b2f5b48</title>
<path fill="none" stroke="#000000" d="M218.0438,-36.1451C244.7769,-74.1925 298.9604,-162.4825 323.2174,-207.1254"/>
<polygon fill="#000000" stroke="#000000" points="320.1296,-208.7735 327.9187,-215.9555 326.3085,-205.4837 320.1296,-208.7735"/>
<g id="a_edge33&#45;headlabel"><a xlink:href="dir_000000_000080.html" target="_top" xlink:title="8">
<text text-anchor="middle" x="315.9342" y="-204.4349" font-family="Helvetica,sans-Serif" font-size="10.00" fill="#000000">8</text>
</a>
</g>
</g>
<!-- dir_577c839d346a264df4e9e588ca2a45dd&#45;&gt;dir_4ab6b4cc6a7edbff49100e9123df213f -->
<g id="edge34" class="edge">
<title>dir_577c839d346a264df4e9e588ca2a45dd&#45;&gt;dir_4ab6b4cc6a7edbff49100e9123df213f</title>
<path fill="none" stroke="#000000" d="M456.8595,-503.8314C449.8783,-495.454 441.4609,-485.3531 433.8124,-476.1749"/>
<polygon fill="#000000" stroke="#000000" points="436.4351,-473.8548 427.3444,-468.4133 431.0575,-478.3362 436.4351,-473.8548"/>
<g id="a_edge34&#45;headlabel"><a xlink:href="dir_000140_000031.html" target="_top" xlink:title="22">
<text text-anchor="middle" x="440.9174" y="-472.2986" font-family="Helvetica,sans-Serif" font-size="10.00" fill="#000000">22</text>
</a>
</g>
</g>
<!-- dir_577c839d346a264df4e9e588ca2a45dd&#45;&gt;dir_b05a5fa85f84bfc9013183c9d87f9a36 -->
<g id="edge35" class="edge">
<title>dir_577c839d346a264df4e9e588ca2a45dd&#45;&gt;dir_b05a5fa85f84bfc9013183c9d87f9a36</title>
<path fill="none" stroke="#000000" d="M499.0518,-519.8006C565.9923,-512.7348 734,-484.4024 734,-378 734,-378 734,-378 734,-234 734,-169.4468 678.5305,-171.2267 620,-144 545.0729,-109.146 447.7914,-96.6686 395.0517,-92.2908"/>
<polygon fill="#000000" stroke="#000000" points="395.0481,-88.7801 384.8075,-91.4966 394.507,-95.7592 395.0481,-88.7801"/>
<g id="a_edge35&#45;headlabel"><a xlink:href="dir_000140_000601.html" target="_top" xlink:title="1">
<text text-anchor="middle" x="398.8514" y="-83.7271" font-family="Helvetica,sans-Serif" font-size="10.00" fill="#000000">1</text>
</a>
</g>
</g>
<!-- dir_577c839d346a264df4e9e588ca2a45dd&#45;&gt;dir_bcbb2cf9a3d3d83e5515c82071a07177 -->
<g id="edge36" class="edge">
<title>dir_577c839d346a264df4e9e588ca2a45dd&#45;&gt;dir_bcbb2cf9a3d3d83e5515c82071a07177</title>
<path fill="none" stroke="#000000" d="M454.1126,-503.7736C447.842,-498.1314 440.4861,-492.2801 433,-488 408.5977,-474.0482 395.8324,-484.3952 373,-468 349.9631,-451.458 331.2289,-424.8298 319.3016,-404.8208"/>
<polygon fill="#000000" stroke="#000000" points="322.3334,-403.072 314.3095,-396.1533 316.2676,-406.5657 322.3334,-403.072"/>
<g id="a_edge36&#45;headlabel"><a xlink:href="dir_000140_000015.html" target="_top" xlink:title="84">
<text text-anchor="middle" x="326.5878" y="-402.2698" font-family="Helvetica,sans-Serif" font-size="10.00" fill="#000000">84</text>
</a>
</g>
</g>
<!-- dir_577c839d346a264df4e9e588ca2a45dd&#45;&gt;dir_2171f7ec022c5423887b07c69b2f5b48 -->
<g id="edge37" class="edge">
<title>dir_577c839d346a264df4e9e588ca2a45dd&#45;&gt;dir_2171f7ec022c5423887b07c69b2f5b48</title>
<path fill="none" stroke="#000000" d="M475.5504,-503.727C480.7808,-473.4113 488.7399,-411.0037 477,-360 469.0188,-325.3261 466.9711,-313.346 442,-288 426.1245,-271.8861 404.4369,-259.72 384.7362,-251.0546"/>
<polygon fill="#000000" stroke="#000000" points="385.8343,-247.7199 375.2588,-247.08 383.127,-254.1752 385.8343,-247.7199"/>
<g id="a_edge37&#45;headlabel"><a xlink:href="dir_000140_000080.html" target="_top" xlink:title="71">
<text text-anchor="middle" x="390.2472" y="-243.9917" font-family="Helvetica,sans-Serif" font-size="10.00" fill="#000000">71</text>
</a>
</g>
</g>
<!-- dir_bcbb2cf9a3d3d83e5515c82071a07177&#45;&gt;dir_4ab6b4cc6a7edbff49100e9123df213f -->
<g id="edge38" class="edge">
<title>dir_bcbb2cf9a3d3d83e5515c82071a07177&#45;&gt;dir_4ab6b4cc6a7edbff49100e9123df213f</title>
<path fill="none" stroke="#000000" d="M337.9438,-396.1628C352.2562,-405.2007 368.8217,-416.2456 382.7012,-425.9739"/>
<polygon fill="#000000" stroke="#000000" points="380.7716,-428.8964 390.9518,-431.8314 384.8238,-423.1885 380.7716,-428.8964"/>
<g id="a_edge38&#45;headlabel"><a xlink:href="dir_000015_000031.html" target="_top" xlink:title="8">
<text text-anchor="middle" x="376.1969" y="-426.6307" font-family="Helvetica,sans-Serif" font-size="10.00" fill="#000000">8</text>
</a>
</g>
</g>
<!-- dir_bcbb2cf9a3d3d83e5515c82071a07177&#45;&gt;dir_a597e8e061b11201a1dff411feb10d0b -->
<g id="edge39" class="edge">
<title>dir_bcbb2cf9a3d3d83e5515c82071a07177&#45;&gt;dir_a597e8e061b11201a1dff411feb10d0b</title>
<path fill="none" stroke="#000000" d="M269.4549,-362.1993C249.583,-352.2916 224.9666,-339.3659 205.0252,-328.409"/>
<polygon fill="#000000" stroke="#000000" points="206.6688,-325.3183 196.2257,-323.5312 203.275,-331.4406 206.6688,-325.3183"/>
<g id="a_edge39&#45;headlabel"><a xlink:href="dir_000015_000053.html" target="_top" xlink:title="1">
<text text-anchor="middle" x="211.1892" y="-322.0778" font-family="Helvetica,sans-Serif" font-size="10.00" fill="#000000">1</text>
</a>
</g>
</g>
<!-- dir_bcbb2cf9a3d3d83e5515c82071a07177&#45;&gt;dir_1306292b77b40360479b729ac9ee7efe -->
<g id="edge40" class="edge">
<title>dir_bcbb2cf9a3d3d83e5515c82071a07177&#45;&gt;dir_1306292b77b40360479b729ac9ee7efe</title>
<path fill="none" stroke="#000000" d="M312.4231,-359.6527C326.8265,-335.8588 356.3463,-292.5854 375,-252 384.2403,-231.8957 391.5308,-207.9209 397.6796,-189.773"/>
<polygon fill="#000000" stroke="#000000" points="401.0676,-190.6884 401.0783,-180.0936 394.4629,-188.3693 401.0676,-190.6884"/>
<g id="a_edge40&#45;headlabel"><a xlink:href="dir_000015_000047.html" target="_top" xlink:title="1">
<text text-anchor="middle" x="402.5557" y="-192.5207" font-family="Helvetica,sans-Serif" font-size="10.00" fill="#000000">1</text>
</a>
</g>
</g>
<!-- dir_bcbb2cf9a3d3d83e5515c82071a07177&#45;&gt;dir_8ba487e25de5ee77e05e9dce7582cb98 -->
<g id="edge41" class="edge">
<title>dir_bcbb2cf9a3d3d83e5515c82071a07177&#45;&gt;dir_8ba487e25de5ee77e05e9dce7582cb98</title>
<path fill="none" stroke="#000000" d="M269.2682,-375.1426C196.5132,-367.1712 38,-337.8837 38,-234 38,-234 38,-234 38,-162 38,-96.7705 112.1052,-54.2966 160.99,-33.3742"/>
<polygon fill="#000000" stroke="#000000" points="162.5014,-36.5366 170.4013,-29.4767 159.8231,-30.0693 162.5014,-36.5366"/>
<g id="a_edge41&#45;headlabel"><a xlink:href="dir_000015_000000.html" target="_top" xlink:title="1">
<text text-anchor="middle" x="160.2667" y="-38.0351" font-family="Helvetica,sans-Serif" font-size="10.00" fill="#000000">1</text>
</a>
</g>
</g>
<!-- dir_bcbb2cf9a3d3d83e5515c82071a07177&#45;&gt;dir_2171f7ec022c5423887b07c69b2f5b48 -->
<g id="edge42" class="edge">
<title>dir_bcbb2cf9a3d3d83e5515c82071a07177&#45;&gt;dir_2171f7ec022c5423887b07c69b2f5b48</title>
<path fill="none" stroke="#000000" d="M295.1635,-359.7149C290.5598,-341.2744 288.5588,-312.1576 295,-288 297.5217,-278.5423 302.1378,-269.0194 307.4494,-260.6606"/>
<polygon fill="#000000" stroke="#000000" points="310.3422,-262.6311 313.1778,-252.4228 304.5951,-258.6347 310.3422,-262.6311"/>
<g id="a_edge42&#45;headlabel"><a xlink:href="dir_000015_000080.html" target="_top" xlink:title="82">
<text text-anchor="middle" x="310.621" y="-264.7033" font-family="Helvetica,sans-Serif" font-size="10.00" fill="#000000">82</text>
</a>
</g>
</g>
<!-- dir_2171f7ec022c5423887b07c69b2f5b48&#45;&gt;dir_4ab6b4cc6a7edbff49100e9123df213f -->
<g id="edge43" class="edge">
<title>dir_2171f7ec022c5423887b07c69b2f5b48&#45;&gt;dir_4ab6b4cc6a7edbff49100e9123df213f</title>
<path fill="none" stroke="#000000" d="M366.6998,-252.0588C378.297,-261.5642 390.0968,-274.1215 397,-288 418.4802,-331.185 422.0311,-388.273 419.3636,-421.8749"/>
<polygon fill="#000000" stroke="#000000" points="415.8734,-421.5974 418.2938,-431.912 422.834,-422.3393 415.8734,-421.5974"/>
<g id="a_edge43&#45;headlabel"><a xlink:href="dir_000080_000031.html" target="_top" xlink:title="36">
<text text-anchor="middle" x="413.431" y="-415.2221" font-family="Helvetica,sans-Serif" font-size="10.00" fill="#000000">36</text>
</a>
</g>
</g>
<!-- dir_2171f7ec022c5423887b07c69b2f5b48&#45;&gt;dir_d14e88a79bca429480864605ee348cef -->
<g id="edge44" class="edge">
<title>dir_2171f7ec022c5423887b07c69b2f5b48&#45;&gt;dir_d14e88a79bca429480864605ee348cef</title>
<path fill="none" stroke="#000000" d="M302.047,-215.8314C287.7336,-206.7927 271.1682,-195.7476 257.2899,-186.0198"/>
<polygon fill="#000000" stroke="#000000" points="259.2203,-183.098 249.0402,-180.1628 255.168,-188.8058 259.2203,-183.098"/>
<g id="a_edge44&#45;headlabel"><a xlink:href="dir_000080_000166.html" target="_top" xlink:title="3">
<text text-anchor="middle" x="263.795" y="-180.3637" font-family="Helvetica,sans-Serif" font-size="10.00" fill="#000000">3</text>
</a>
</g>
</g>
<!-- dir_2171f7ec022c5423887b07c69b2f5b48&#45;&gt;dir_b05a5fa85f84bfc9013183c9d87f9a36 -->
<g id="edge45" class="edge">
<title>dir_2171f7ec022c5423887b07c69b2f5b48&#45;&gt;dir_b05a5fa85f84bfc9013183c9d87f9a36</title>
<path fill="none" stroke="#000000" d="M333.1131,-215.7623C334.4114,-191.0928 340.903,-146.8598 347.2543,-117.9731"/>
<polygon fill="#000000" stroke="#000000" points="350.6963,-118.6253 349.578,-108.0896 343.8821,-117.0231 350.6963,-118.6253"/>
<g id="a_edge45&#45;headlabel"><a xlink:href="dir_000080_000601.html" target="_top" xlink:title="1">
<text text-anchor="middle" x="352.6376" y="-120.2743" font-family="Helvetica,sans-Serif" font-size="10.00" fill="#000000">1</text>
</a>
</g>
</g>
<!-- dir_2171f7ec022c5423887b07c69b2f5b48&#45;&gt;dir_1306292b77b40360479b729ac9ee7efe -->
<g id="edge46" class="edge">
<title>dir_2171f7ec022c5423887b07c69b2f5b48&#45;&gt;dir_1306292b77b40360479b729ac9ee7efe</title>
<path fill="none" stroke="#000000" d="M348.478,-215.8314C357.0149,-207.0485 368.2666,-196.3712 378.972,-186.8489"/>
<polygon fill="#000000" stroke="#000000" points="381.3965,-189.3783 386.624,-180.1628 376.7907,-184.107 381.3965,-189.3783"/>
<g id="a_edge46&#45;headlabel"><a xlink:href="dir_000080_000047.html" target="_top" xlink:title="1">
<text text-anchor="middle" x="380.5578" y="-191.3815" font-family="Helvetica,sans-Serif" font-size="10.00" fill="#000000">1</text>
</a>
</g>
</g>
<!-- dir_2171f7ec022c5423887b07c69b2f5b48&#45;&gt;dir_8ba487e25de5ee77e05e9dce7582cb98 -->
<g id="edge47" class="edge">
<title>dir_2171f7ec022c5423887b07c69b2f5b48&#45;&gt;dir_8ba487e25de5ee77e05e9dce7582cb98</title>
<path fill="none" stroke="#000000" d="M320.0269,-215.9555C293.3422,-177.9967 239.1566,-89.7127 214.8468,-44.9928"/>
<polygon fill="#000000" stroke="#000000" points="217.9242,-43.3253 210.1335,-36.1451 211.7462,-46.6165 217.9242,-43.3253"/>
<g id="a_edge47&#45;headlabel"><a xlink:href="dir_000080_000000.html" target="_top" xlink:title="2">
<text text-anchor="middle" x="222.1201" y="-42.6629" font-family="Helvetica,sans-Serif" font-size="10.00" fill="#000000">2</text>
</a>
</g>
</g>
<!-- dir_2171f7ec022c5423887b07c69b2f5b48&#45;&gt;dir_bcbb2cf9a3d3d83e5515c82071a07177 -->
<g id="edge48" class="edge">
<title>dir_2171f7ec022c5423887b07c69b2f5b48&#45;&gt;dir_bcbb2cf9a3d3d83e5515c82071a07177</title>
<path fill="none" stroke="#000000" d="M329.2296,-252.4228C323.5974,-262.3956 316.3977,-275.257 313,-288 307.6408,-308.0999 308.1258,-331.6329 308.5604,-349.5931"/>
<polygon fill="#000000" stroke="#000000" points="305.0636,-349.7892 308.769,-359.7149 312.0621,-349.6449 305.0636,-349.7892"/>
<g id="a_edge48&#45;headlabel"><a xlink:href="dir_000080_000015.html" target="_top" xlink:title="17">
<text text-anchor="middle" x="302.151" y="-343.7538" font-family="Helvetica,sans-Serif" font-size="10.00" fill="#000000">17</text>
</a>
</g>
</g>
</g>
</svg>
