<?xml version="1.0" encoding="UTF-8" standalone="no"?>
<!DOCTYPE svg PUBLIC "-//W3C//DTD SVG 1.1//EN"
 "http://www.w3.org/Graphics/SVG/1.1/DTD/svg11.dtd">
<!-- Generated by graphviz version 2.40.1 (20161225.0304)
 -->
<!-- Title: /home/travis/build/AliceO2Group/AliceO2/DataFormats/simulation/test Pages: 1 -->
<svg width="152pt" height="223pt"
 viewBox="0.00 0.00 151.50 223.00" xmlns="http://www.w3.org/2000/svg" xmlns:xlink="http://www.w3.org/1999/xlink">
<g id="graph0" class="graph" transform="scale(1 1) rotate(0) translate(4 219)">
<title>/home/travis/build/AliceO2Group/AliceO2/DataFormats/simulation/test</title>
<g id="clust1" class="cluster">
<title>clusterdir_047746f9f311f49446db9474b7431d0d</title>
<g id="a_clust1"><a xlink:href="dir_047746f9f311f49446db9474b7431d0d.html" target="_top" xlink:title="simulation">
<polygon fill="#ddddee" stroke="#000000" points="33,-136 33,-207 103,-207 103,-136 33,-136"/>
<text text-anchor="middle" x="68" y="-195" font-family="Helvetica,sans-Serif" font-size="10.00" fill="#000000">simulation</text>
</a>
</g>
</g>
<!-- dir_c8fa59d38404a336ce27bd8f626335e9 -->
<g id="node1" class="node">
<title>dir_c8fa59d38404a336ce27bd8f626335e9</title>
<g id="a_node1"><a xlink:href="dir_c8fa59d38404a336ce27bd8f626335e9.html" target="_top" xlink:title="test">
<polygon fill="#eeeeff" stroke="#000000" points="95,-180 41,-180 41,-144 95,-144 95,-180"/>
<text text-anchor="middle" x="68" y="-159.5" font-family="Helvetica,sans-Serif" font-size="10.00" fill="#000000">test</text>
</a>
</g>
</g>
<!-- dir_2801adc79bf3c286b1b479858d2cade4 -->
<g id="node2" class="node">
<title>dir_2801adc79bf3c286b1b479858d2cade4</title>
<g id="a_node2"><a xlink:href="dir_2801adc79bf3c286b1b479858d2cade4.html" target="_top" xlink:title="Detectors">
<polygon fill="none" stroke="#ff0000" points="100,-108 36,-108 36,-72 100,-72 100,-108"/>
<text text-anchor="middle" x="68" y="-87.5" font-family="Helvetica,sans-Serif" font-size="10.00" fill="#000000">Detectors</text>
</a>
</g>
</g>
<!-- dir_c8fa59d38404a336ce27bd8f626335e9&#45;&gt;dir_2801adc79bf3c286b1b479858d2cade4 -->
<g id="edge4" class="edge">
<title>dir_c8fa59d38404a336ce27bd8f626335e9&#45;&gt;dir_2801adc79bf3c286b1b479858d2cade4</title>
<path fill="none" stroke="#000000" d="M68,-143.8314C68,-136.131 68,-126.9743 68,-118.4166"/>
<polygon fill="#000000" stroke="#000000" points="71.5001,-118.4132 68,-108.4133 64.5001,-118.4133 71.5001,-118.4132"/>
<g id="a_edge4&#45;headlabel"><a xlink:href="dir_000269_000090.html" target="_top" xlink:title="1">
<text text-anchor="middle" x="74.3393" y="-119.5079" font-family="Helvetica,sans-Serif" font-size="10.00" fill="#000000">1</text>
</a>
</g>
</g>
<!-- dir_e977c6a9672cee72083a88d55f0ce0c6 -->
<g id="node3" class="node">
<title>dir_e977c6a9672cee72083a88d55f0ce0c6</title>
<g id="a_node3"><a xlink:href="dir_e977c6a9672cee72083a88d55f0ce0c6.html" target="_top" xlink:title="include">
<polygon fill="none" stroke="#ff0000" points="54,-36 0,-36 0,0 54,0 54,-36"/>
<text text-anchor="middle" x="27" y="-15.5" font-family="Helvetica,sans-Serif" font-size="10.00" fill="#000000">include</text>
</a>
</g>
</g>
<!-- dir_c8fa59d38404a336ce27bd8f626335e9&#45;&gt;dir_e977c6a9672cee72083a88d55f0ce0c6 -->
<g id="edge5" class="edge">
<title>dir_c8fa59d38404a336ce27bd8f626335e9&#45;&gt;dir_e977c6a9672cee72083a88d55f0ce0c6</title>
<path fill="none" stroke="#000000" d="M49.396,-143.8067C40.7967,-134.0891 31.5063,-121.3872 27,-108 20.2912,-88.0698 20.6364,-64.2203 22.4729,-46.081"/>
<polygon fill="#000000" stroke="#000000" points="25.9496,-46.4833 23.6844,-36.1334 19.001,-45.6369 25.9496,-46.4833"/>
<g id="a_edge5&#45;headlabel"><a xlink:href="dir_000269_000247.html" target="_top" xlink:title="8">
<text text-anchor="middle" x="28.3336" y="-47.8948" font-family="Helvetica,sans-Serif" font-size="10.00" fill="#000000">8</text>
</a>
</g>
</g>
<!-- dir_bcbb2cf9a3d3d83e5515c82071a07177 -->
<g id="node4" class="node">
<title>dir_bcbb2cf9a3d3d83e5515c82071a07177</title>
<g id="a_node4"><a xlink:href="dir_bcbb2cf9a3d3d83e5515c82071a07177.html" target="_top" xlink:title="Framework">
<polygon fill="none" stroke="#ff0000" points="143.5,-36 72.5,-36 72.5,0 143.5,0 143.5,-36"/>
<text text-anchor="middle" x="108" y="-15.5" font-family="Helvetica,sans-Serif" font-size="10.00" fill="#000000">Framework</text>
</a>
</g>
</g>
<!-- dir_c8fa59d38404a336ce27bd8f626335e9&#45;&gt;dir_bcbb2cf9a3d3d83e5515c82071a07177 -->
<g id="edge6" class="edge">
<title>dir_c8fa59d38404a336ce27bd8f626335e9&#45;&gt;dir_bcbb2cf9a3d3d83e5515c82071a07177</title>
<path fill="none" stroke="#000000" d="M86.604,-143.8067C95.2033,-134.0891 104.4937,-121.3872 109,-108 115.7092,-88.0686 115.0876,-64.2192 112.9889,-46.0801"/>
<polygon fill="#000000" stroke="#000000" points="116.4511,-45.5655 111.6267,-36.1328 109.5159,-46.5152 116.4511,-45.5655"/>
<g id="a_edge6&#45;headlabel"><a xlink:href="dir_000269_000015.html" target="_top" xlink:title="1">
<text text-anchor="middle" x="119.7518" y="-46.2417" font-family="Helvetica,sans-Serif" font-size="10.00" fill="#000000">1</text>
</a>
</g>
</g>
<!-- dir_2801adc79bf3c286b1b479858d2cade4&#45;&gt;dir_e977c6a9672cee72083a88d55f0ce0c6 -->
<g id="edge1" class="edge">
<title>dir_2801adc79bf3c286b1b479858d2cade4&#45;&gt;dir_e977c6a9672cee72083a88d55f0ce0c6</title>
<path fill="none" stroke="#000000" d="M51.7016,-71.8314C46.3969,-63.8771 40.7724,-54.369 36.118,-45.5723"/>
<polygon fill="#000000" stroke="#000000" points="39.1308,-43.7729 31.5093,-36.4133 32.8778,-46.9194 39.1308,-43.7729"/>
<g id="a_edge1&#45;headlabel"><a xlink:href="dir_000090_000247.html" target="_top" xlink:title="14">
<text text-anchor="middle" x="43.2828" y="-43.2077" font-family="Helvetica,sans-Serif" font-size="10.00" fill="#000000">14</text>
</a>
</g>
</g>
<!-- dir_2801adc79bf3c286b1b479858d2cade4&#45;&gt;dir_bcbb2cf9a3d3d83e5515c82071a07177 -->
<g id="edge2" class="edge">
<title>dir_2801adc79bf3c286b1b479858d2cade4&#45;&gt;dir_bcbb2cf9a3d3d83e5515c82071a07177</title>
<path fill="none" stroke="#000000" d="M72.1413,-71.8314C75.8627,-63.7079 81.0738,-53.9637 86.434,-45.0118"/>
<polygon fill="#000000" stroke="#000000" points="89.4742,-46.7509 91.7944,-36.4133 83.534,-43.0477 89.4742,-46.7509"/>
<g id="a_edge2&#45;headlabel"><a xlink:href="dir_000090_000015.html" target="_top" xlink:title="15">
<text text-anchor="middle" x="89.982" y="-48.8034" font-family="Helvetica,sans-Serif" font-size="10.00" fill="#000000">15</text>
</a>
</g>
</g>
<!-- dir_e977c6a9672cee72083a88d55f0ce0c6&#45;&gt;dir_2801adc79bf3c286b1b479858d2cade4 -->
<g id="edge3" class="edge">
<title>dir_e977c6a9672cee72083a88d55f0ce0c6&#45;&gt;dir_2801adc79bf3c286b1b479858d2cade4</title>
<path fill="none" stroke="#000000" d="M43.4613,-36.4133C48.7724,-44.3991 54.3901,-53.9155 59.0245,-62.6975"/>
<polygon fill="#000000" stroke="#000000" points="55.994,-64.4623 63.6064,-71.8314 62.2509,-61.3236 55.994,-64.4623"/>
<g id="a_edge3&#45;headlabel"><a xlink:href="dir_000247_000090.html" target="_top" xlink:title="3">
<text text-anchor="middle" x="51.8445" y="-60.0223" font-family="Helvetica,sans-Serif" font-size="10.00" fill="#000000">3</text>
</a>
</g>
</g>
<!-- dir_bcbb2cf9a3d3d83e5515c82071a07177&#45;&gt;dir_2801adc79bf3c286b1b479858d2cade4 -->
<g id="edge7" class="edge">
<title>dir_bcbb2cf9a3d3d83e5515c82071a07177&#45;&gt;dir_2801adc79bf3c286b1b479858d2cade4</title>
<path fill="none" stroke="#000000" d="M103.7464,-36.4133C99.9953,-44.569 94.768,-54.3212 89.4048,-63.257"/>
<polygon fill="#000000" stroke="#000000" points="86.3779,-61.4963 84.0461,-71.8314 92.314,-65.2062 86.3779,-61.4963"/>
<g id="a_edge7&#45;headlabel"><a xlink:href="dir_000015_000090.html" target="_top" xlink:title="2">
<text text-anchor="middle" x="85.8752" y="-54.4433" font-family="Helvetica,sans-Serif" font-size="10.00" fill="#000000">2</text>
</a>
</g>
</g>
</g>
</svg>
