<?xml version="1.0" encoding="UTF-8" standalone="no"?>
<!DOCTYPE svg PUBLIC "-//W3C//DTD SVG 1.1//EN"
 "http://www.w3.org/Graphics/SVG/1.1/DTD/svg11.dtd">
<!-- Generated by graphviz version 2.40.1 (20161225.0304)
 -->
<!-- Title: /home/travis/build/AliceO2Group/AliceO2/Detectors/EMCAL/simulation Pages: 1 -->
<svg width="243pt" height="447pt"
 viewBox="0.00 0.00 243.35 447.00" xmlns="http://www.w3.org/2000/svg" xmlns:xlink="http://www.w3.org/1999/xlink">
<g id="graph0" class="graph" transform="scale(1 1) rotate(0) translate(4 443)">
<title>/home/travis/build/AliceO2Group/AliceO2/Detectors/EMCAL/simulation</title>
<g id="clust1" class="cluster">
<title>clusterdir_088378b58cb1ba39db48039cbd66d10f</title>
<g id="a_clust1"><a xlink:href="dir_088378b58cb1ba39db48039cbd66d10f.html" target="_top" xlink:title="EMCAL">
<polygon fill="#ddddee" stroke="#000000" points="55.3531,-272 55.3531,-431 227.3531,-431 227.3531,-272 55.3531,-272"/>
<text text-anchor="middle" x="141.3531" y="-419" font-family="Helvetica,sans-Serif" font-size="10.00" fill="#000000">EMCAL</text>
</a>
</g>
</g>
<g id="clust2" class="cluster">
<title>clusterdir_40743f2e882add17463d3ecfa83bffd4</title>
<g id="a_clust2"><a xlink:href="dir_40743f2e882add17463d3ecfa83bffd4.html" target="_top">
<polygon fill="#eeeeff" stroke="#000000" points="63.3531,-280 63.3531,-404 219.3531,-404 219.3531,-280 63.3531,-280"/>
</a>
</g>
</g>
<!-- dir_40743f2e882add17463d3ecfa83bffd4 -->
<g id="node1" class="node">
<title>dir_40743f2e882add17463d3ecfa83bffd4</title>
<text text-anchor="middle" x="177.3531" y="-375.5" font-family="Helvetica,sans-Serif" font-size="10.00" fill="#000000">simulation</text>
</g>
<!-- dir_7bf79a161bebea1697ee327feea7a1aa -->
<g id="node2" class="node">
<title>dir_7bf79a161bebea1697ee327feea7a1aa</title>
<g id="a_node2"><a xlink:href="dir_7bf79a161bebea1697ee327feea7a1aa.html" target="_top" xlink:title="include">
<polygon fill="#ffffff" stroke="#ff0000" points="125.3531,-324 71.3531,-324 71.3531,-288 125.3531,-288 125.3531,-324"/>
<text text-anchor="middle" x="98.3531" y="-303.5" font-family="Helvetica,sans-Serif" font-size="10.00" fill="#000000">include</text>
</a>
</g>
</g>
<!-- dir_4ab6b4cc6a7edbff49100e9123df213f -->
<g id="node4" class="node">
<title>dir_4ab6b4cc6a7edbff49100e9123df213f</title>
<g id="a_node4"><a xlink:href="dir_4ab6b4cc6a7edbff49100e9123df213f.html" target="_top" xlink:title="Common">
<polygon fill="none" stroke="#ff0000" points="72.8531,-180 11.8531,-180 11.8531,-144 72.8531,-144 72.8531,-180"/>
<text text-anchor="middle" x="42.3531" y="-159.5" font-family="Helvetica,sans-Serif" font-size="10.00" fill="#000000">Common</text>
</a>
</g>
</g>
<!-- dir_7bf79a161bebea1697ee327feea7a1aa&#45;&gt;dir_4ab6b4cc6a7edbff49100e9123df213f -->
<g id="edge12" class="edge">
<title>dir_7bf79a161bebea1697ee327feea7a1aa&#45;&gt;dir_4ab6b4cc6a7edbff49100e9123df213f</title>
<path fill="none" stroke="#000000" d="M75.6293,-287.9131C65.4071,-278.4011 54.3179,-265.8463 48.3531,-252 39.963,-232.5237 38.7705,-208.4681 39.5084,-190.1281"/>
<polygon fill="#000000" stroke="#000000" points="43.0066,-190.2639 40.1262,-180.0681 36.0198,-189.8347 43.0066,-190.2639"/>
<g id="a_edge12&#45;headlabel"><a xlink:href="dir_000282_000031.html" target="_top" xlink:title="3">
<text text-anchor="middle" x="45.6203" y="-191.5257" font-family="Helvetica,sans-Serif" font-size="10.00" fill="#000000">3</text>
</a>
</g>
</g>
<!-- dir_37c90836491b695b472bf98d1be8336b -->
<g id="node5" class="node">
<title>dir_37c90836491b695b472bf98d1be8336b</title>
<g id="a_node5"><a xlink:href="dir_37c90836491b695b472bf98d1be8336b.html" target="_top" xlink:title="Base">
<polygon fill="none" stroke="#ff0000" points="98.3531,-36 44.3531,-36 44.3531,0 98.3531,0 98.3531,-36"/>
<text text-anchor="middle" x="71.3531" y="-15.5" font-family="Helvetica,sans-Serif" font-size="10.00" fill="#000000">Base</text>
</a>
</g>
</g>
<!-- dir_7bf79a161bebea1697ee327feea7a1aa&#45;&gt;dir_37c90836491b695b472bf98d1be8336b -->
<g id="edge13" class="edge">
<title>dir_7bf79a161bebea1697ee327feea7a1aa&#45;&gt;dir_37c90836491b695b472bf98d1be8336b</title>
<path fill="none" stroke="#000000" d="M72.8946,-287.7954C60.7196,-278.1667 46.6021,-265.5459 36.3531,-252 15.0008,-223.779 10.0963,-214.531 2.3531,-180 -8.8967,-129.8312 24.4175,-75.659 48.5959,-44.3979"/>
<polygon fill="#000000" stroke="#000000" points="51.6275,-46.2103 55.1286,-36.2106 46.1558,-41.8444 51.6275,-46.2103"/>
<g id="a_edge13&#45;headlabel"><a xlink:href="dir_000282_000275.html" target="_top" xlink:title="1">
<text text-anchor="middle" x="51.6049" y="-48.2909" font-family="Helvetica,sans-Serif" font-size="10.00" fill="#000000">1</text>
</a>
</g>
</g>
<!-- dir_478733f24fb8878a4cdf7773310adedd -->
<g id="node6" class="node">
<title>dir_478733f24fb8878a4cdf7773310adedd</title>
<g id="a_node6"><a xlink:href="dir_478733f24fb8878a4cdf7773310adedd.html" target="_top" xlink:title="base">
<polygon fill="none" stroke="#ff0000" points="221.3531,-252 167.3531,-252 167.3531,-216 221.3531,-216 221.3531,-252"/>
<text text-anchor="middle" x="194.3531" y="-231.5" font-family="Helvetica,sans-Serif" font-size="10.00" fill="#000000">base</text>
</a>
</g>
</g>
<!-- dir_7bf79a161bebea1697ee327feea7a1aa&#45;&gt;dir_478733f24fb8878a4cdf7773310adedd -->
<g id="edge14" class="edge">
<title>dir_7bf79a161bebea1697ee327feea7a1aa&#45;&gt;dir_478733f24fb8878a4cdf7773310adedd</title>
<path fill="none" stroke="#000000" d="M122.578,-287.8314C134.5159,-278.8779 149.0787,-267.9558 161.9591,-258.2955"/>
<polygon fill="#000000" stroke="#000000" points="164.236,-260.9629 170.136,-252.1628 160.036,-255.3629 164.236,-260.9629"/>
<g id="a_edge14&#45;headlabel"><a xlink:href="dir_000282_000204.html" target="_top" xlink:title="7">
<text text-anchor="middle" x="163.0639" y="-262.891" font-family="Helvetica,sans-Serif" font-size="10.00" fill="#000000">7</text>
</a>
</g>
</g>
<!-- dir_26637d1bd82229bc9ed97f7e706be743 -->
<g id="node7" class="node">
<title>dir_26637d1bd82229bc9ed97f7e706be743</title>
<g id="a_node7"><a xlink:href="dir_26637d1bd82229bc9ed97f7e706be743.html" target="_top" xlink:title="Raw">
<polygon fill="none" stroke="#ff0000" points="111.3531,-252 57.3531,-252 57.3531,-216 111.3531,-216 111.3531,-252"/>
<text text-anchor="middle" x="84.3531" y="-231.5" font-family="Helvetica,sans-Serif" font-size="10.00" fill="#000000">Raw</text>
</a>
</g>
</g>
<!-- dir_7bf79a161bebea1697ee327feea7a1aa&#45;&gt;dir_26637d1bd82229bc9ed97f7e706be743 -->
<g id="edge15" class="edge">
<title>dir_7bf79a161bebea1697ee327feea7a1aa&#45;&gt;dir_26637d1bd82229bc9ed97f7e706be743</title>
<path fill="none" stroke="#000000" d="M94.8203,-287.8314C93.323,-280.131 91.5426,-270.9743 89.8786,-262.4166"/>
<polygon fill="#000000" stroke="#000000" points="93.2779,-261.5614 87.9335,-252.4133 86.4066,-262.8975 93.2779,-261.5614"/>
<g id="a_edge15&#45;headlabel"><a xlink:href="dir_000282_000606.html" target="_top" xlink:title="1">
<text text-anchor="middle" x="96.751" y="-262.048" font-family="Helvetica,sans-Serif" font-size="10.00" fill="#000000">1</text>
</a>
</g>
</g>
<!-- dir_2171f7ec022c5423887b07c69b2f5b48 -->
<g id="node8" class="node">
<title>dir_2171f7ec022c5423887b07c69b2f5b48</title>
<g id="a_node8"><a xlink:href="dir_2171f7ec022c5423887b07c69b2f5b48.html" target="_top" xlink:title="DataFormats">
<polygon fill="none" stroke="#ff0000" points="145.3531,-108 65.3531,-108 65.3531,-72 145.3531,-72 145.3531,-108"/>
<text text-anchor="middle" x="105.3531" y="-87.5" font-family="Helvetica,sans-Serif" font-size="10.00" fill="#000000">DataFormats</text>
</a>
</g>
</g>
<!-- dir_7bf79a161bebea1697ee327feea7a1aa&#45;&gt;dir_2171f7ec022c5423887b07c69b2f5b48 -->
<g id="edge16" class="edge">
<title>dir_7bf79a161bebea1697ee327feea7a1aa&#45;&gt;dir_2171f7ec022c5423887b07c69b2f5b48</title>
<path fill="none" stroke="#000000" d="M107.9439,-287.5602C112.703,-277.373 117.94,-264.3186 120.3531,-252 129.4266,-205.6798 120.2626,-150.8027 112.8047,-118.2777"/>
<polygon fill="#000000" stroke="#000000" points="116.1102,-117.0538 110.3696,-108.149 109.3041,-118.6901 116.1102,-117.0538"/>
<g id="a_edge16&#45;headlabel"><a xlink:href="dir_000282_000080.html" target="_top" xlink:title="8">
<text text-anchor="middle" x="119.711" y="-117.3852" font-family="Helvetica,sans-Serif" font-size="10.00" fill="#000000">8</text>
</a>
</g>
</g>
<!-- dir_f58e8c7317032c3b254e2280a1692bd1 -->
<g id="node3" class="node">
<title>dir_f58e8c7317032c3b254e2280a1692bd1</title>
<g id="a_node3"><a xlink:href="dir_f58e8c7317032c3b254e2280a1692bd1.html" target="_top" xlink:title="src">
<polygon fill="#ffffff" stroke="#000000" points="125.3531,-396 71.3531,-396 71.3531,-360 125.3531,-360 125.3531,-396"/>
<text text-anchor="middle" x="98.3531" y="-375.5" font-family="Helvetica,sans-Serif" font-size="10.00" fill="#000000">src</text>
</a>
</g>
</g>
<!-- dir_f58e8c7317032c3b254e2280a1692bd1&#45;&gt;dir_7bf79a161bebea1697ee327feea7a1aa -->
<g id="edge3" class="edge">
<title>dir_f58e8c7317032c3b254e2280a1692bd1&#45;&gt;dir_7bf79a161bebea1697ee327feea7a1aa</title>
<path fill="none" stroke="#000000" d="M98.3531,-359.8314C98.3531,-352.131 98.3531,-342.9743 98.3531,-334.4166"/>
<polygon fill="#000000" stroke="#000000" points="101.8532,-334.4132 98.3531,-324.4133 94.8532,-334.4133 101.8532,-334.4132"/>
<g id="a_edge3&#45;headlabel"><a xlink:href="dir_000328_000282.html" target="_top" xlink:title="11">
<text text-anchor="middle" x="104.6924" y="-335.5079" font-family="Helvetica,sans-Serif" font-size="10.00" fill="#000000">11</text>
</a>
</g>
</g>
<!-- dir_f58e8c7317032c3b254e2280a1692bd1&#45;&gt;dir_4ab6b4cc6a7edbff49100e9123df213f -->
<g id="edge1" class="edge">
<title>dir_f58e8c7317032c3b254e2280a1692bd1&#45;&gt;dir_4ab6b4cc6a7edbff49100e9123df213f</title>
<path fill="none" stroke="#000000" d="M84.5294,-359.684C77.2895,-349.533 68.6466,-336.4738 62.3531,-324 47.0276,-293.6247 42.2187,-285.5131 36.3531,-252 32.759,-231.4652 34.5254,-207.9496 37.0491,-190.1063"/>
<polygon fill="#000000" stroke="#000000" points="40.5322,-190.4876 38.6323,-180.0646 33.6176,-189.3974 40.5322,-190.4876"/>
<g id="a_edge1&#45;headlabel"><a xlink:href="dir_000328_000031.html" target="_top" xlink:title="3">
<text text-anchor="middle" x="42.7771" y="-191.9805" font-family="Helvetica,sans-Serif" font-size="10.00" fill="#000000">3</text>
</a>
</g>
</g>
<!-- dir_f58e8c7317032c3b254e2280a1692bd1&#45;&gt;dir_478733f24fb8878a4cdf7773310adedd -->
<g id="edge2" class="edge">
<title>dir_f58e8c7317032c3b254e2280a1692bd1&#45;&gt;dir_478733f24fb8878a4cdf7773310adedd</title>
<path fill="none" stroke="#000000" d="M110.5116,-359.7623C127.2464,-334.66 157.4853,-289.3017 176.7084,-260.4671"/>
<polygon fill="#000000" stroke="#000000" points="179.6585,-262.3516 182.2934,-252.0896 173.8341,-258.4687 179.6585,-262.3516"/>
<g id="a_edge2&#45;headlabel"><a xlink:href="dir_000328_000204.html" target="_top" xlink:title="12">
<text text-anchor="middle" x="180.027" y="-264.4174" font-family="Helvetica,sans-Serif" font-size="10.00" fill="#000000">12</text>
</a>
</g>
</g>
<!-- dir_f58e8c7317032c3b254e2280a1692bd1&#45;&gt;dir_2171f7ec022c5423887b07c69b2f5b48 -->
<g id="edge4" class="edge">
<title>dir_f58e8c7317032c3b254e2280a1692bd1&#45;&gt;dir_2171f7ec022c5423887b07c69b2f5b48</title>
<path fill="none" stroke="#000000" d="M125.6287,-362.4541C158.2362,-342.0257 210.8487,-302.7115 230.3531,-252 251.9924,-195.7379 190.0249,-142.8853 145.7794,-113.6416"/>
<polygon fill="#000000" stroke="#000000" points="147.4989,-110.586 137.1966,-108.1136 143.7085,-116.471 147.4989,-110.586"/>
<g id="a_edge4&#45;headlabel"><a xlink:href="dir_000328_000080.html" target="_top" xlink:title="6">
<text text-anchor="middle" x="152.0583" y="-107.6454" font-family="Helvetica,sans-Serif" font-size="10.00" fill="#000000">6</text>
</a>
</g>
</g>
<!-- dir_4ab6b4cc6a7edbff49100e9123df213f&#45;&gt;dir_2171f7ec022c5423887b07c69b2f5b48 -->
<g id="edge5" class="edge">
<title>dir_4ab6b4cc6a7edbff49100e9123df213f&#45;&gt;dir_2171f7ec022c5423887b07c69b2f5b48</title>
<path fill="none" stroke="#000000" d="M52.2983,-143.8314C58.8779,-135.3694 67.6356,-125.1489 76.1852,-115.8971"/>
<polygon fill="#000000" stroke="#000000" points="78.9354,-118.0829 83.2655,-108.4133 73.8505,-113.2721 78.9354,-118.0829"/>
<g id="a_edge5&#45;headlabel"><a xlink:href="dir_000031_000080.html" target="_top" xlink:title="2">
<text text-anchor="middle" x="78.5275" y="-120.1453" font-family="Helvetica,sans-Serif" font-size="10.00" fill="#000000">2</text>
</a>
</g>
</g>
<!-- dir_37c90836491b695b472bf98d1be8336b&#45;&gt;dir_4ab6b4cc6a7edbff49100e9123df213f -->
<g id="edge6" class="edge">
<title>dir_37c90836491b695b472bf98d1be8336b&#45;&gt;dir_4ab6b4cc6a7edbff49100e9123df213f</title>
<path fill="none" stroke="#000000" d="M65.6789,-36.362C62.6145,-46.7477 58.9403,-60.0163 56.3531,-72 51.9106,-92.5768 48.3026,-116.0908 45.8625,-133.9228"/>
<polygon fill="#000000" stroke="#000000" points="42.377,-133.5831 44.5303,-143.9568 49.3161,-134.5045 42.377,-133.5831"/>
<g id="a_edge6&#45;headlabel"><a xlink:href="dir_000275_000031.html" target="_top" xlink:title="16">
<text text-anchor="middle" x="40.0355" y="-127.146" font-family="Helvetica,sans-Serif" font-size="10.00" fill="#000000">16</text>
</a>
</g>
</g>
<!-- dir_37c90836491b695b472bf98d1be8336b&#45;&gt;dir_2171f7ec022c5423887b07c69b2f5b48 -->
<g id="edge7" class="edge">
<title>dir_37c90836491b695b472bf98d1be8336b&#45;&gt;dir_2171f7ec022c5423887b07c69b2f5b48</title>
<path fill="none" stroke="#000000" d="M86.0243,-36.4133C90.5107,-44.3141 95.1516,-53.7132 98.911,-62.417"/>
<polygon fill="#000000" stroke="#000000" points="95.7265,-63.8778 102.7259,-71.8314 102.2141,-61.2489 95.7265,-63.8778"/>
<g id="a_edge7&#45;headlabel"><a xlink:href="dir_000275_000080.html" target="_top" xlink:title="15">
<text text-anchor="middle" x="91.7451" y="-59.1125" font-family="Helvetica,sans-Serif" font-size="10.00" fill="#000000">15</text>
</a>
</g>
</g>
<!-- dir_478733f24fb8878a4cdf7773310adedd&#45;&gt;dir_4ab6b4cc6a7edbff49100e9123df213f -->
<g id="edge8" class="edge">
<title>dir_478733f24fb8878a4cdf7773310adedd&#45;&gt;dir_4ab6b4cc6a7edbff49100e9123df213f</title>
<path fill="none" stroke="#000000" d="M167.1785,-221.1278C143.499,-209.9112 108.8531,-193.5 82.066,-180.8114"/>
<polygon fill="#000000" stroke="#000000" points="83.4854,-177.611 72.9497,-176.4931 80.4888,-183.9371 83.4854,-177.611"/>
<g id="a_edge8&#45;headlabel"><a xlink:href="dir_000204_000031.html" target="_top" xlink:title="5">
<text text-anchor="middle" x="87.9494" y="-174.0838" font-family="Helvetica,sans-Serif" font-size="10.00" fill="#000000">5</text>
</a>
</g>
</g>
<!-- dir_478733f24fb8878a4cdf7773310adedd&#45;&gt;dir_2171f7ec022c5423887b07c69b2f5b48 -->
<g id="edge9" class="edge">
<title>dir_478733f24fb8878a4cdf7773310adedd&#45;&gt;dir_2171f7ec022c5423887b07c69b2f5b48</title>
<path fill="none" stroke="#000000" d="M187.9669,-215.937C180.9156,-197.1599 168.5279,-167.3113 153.3531,-144 146.9612,-134.1809 138.8435,-124.3382 131.1104,-115.7963"/>
<polygon fill="#000000" stroke="#000000" points="133.555,-113.2857 124.1772,-108.3555 128.4336,-118.0577 133.555,-113.2857"/>
<g id="a_edge9&#45;headlabel"><a xlink:href="dir_000204_000080.html" target="_top" xlink:title="13">
<text text-anchor="middle" x="138.0827" y="-111.4801" font-family="Helvetica,sans-Serif" font-size="10.00" fill="#000000">13</text>
</a>
</g>
</g>
<!-- dir_26637d1bd82229bc9ed97f7e706be743&#45;&gt;dir_4ab6b4cc6a7edbff49100e9123df213f -->
<g id="edge10" class="edge">
<title>dir_26637d1bd82229bc9ed97f7e706be743&#45;&gt;dir_4ab6b4cc6a7edbff49100e9123df213f</title>
<path fill="none" stroke="#000000" d="M73.7547,-215.8314C69.0654,-207.7925 63.4503,-198.1666 58.2733,-189.2918"/>
<polygon fill="#000000" stroke="#000000" points="61.1562,-187.2875 53.0942,-180.4133 55.1097,-190.8146 61.1562,-187.2875"/>
<g id="a_edge10&#45;headlabel"><a xlink:href="dir_000606_000031.html" target="_top" xlink:title="10">
<text text-anchor="middle" x="65.4198" y="-186.4618" font-family="Helvetica,sans-Serif" font-size="10.00" fill="#000000">10</text>
</a>
</g>
</g>
<!-- dir_26637d1bd82229bc9ed97f7e706be743&#45;&gt;dir_2171f7ec022c5423887b07c69b2f5b48 -->
<g id="edge11" class="edge">
<title>dir_26637d1bd82229bc9ed97f7e706be743&#45;&gt;dir_2171f7ec022c5423887b07c69b2f5b48</title>
<path fill="none" stroke="#000000" d="M87.0128,-215.7623C90.5946,-191.201 97.0045,-147.2474 101.2181,-118.3541"/>
<polygon fill="#000000" stroke="#000000" points="104.7352,-118.4901 102.715,-108.0896 97.8085,-117.4798 104.7352,-118.4901"/>
<g id="a_edge11&#45;headlabel"><a xlink:href="dir_000606_000080.html" target="_top" xlink:title="15">
<text text-anchor="middle" x="107.0262" y="-119.9567" font-family="Helvetica,sans-Serif" font-size="10.00" fill="#000000">15</text>
</a>
</g>
</g>
<!-- dir_2171f7ec022c5423887b07c69b2f5b48&#45;&gt;dir_4ab6b4cc6a7edbff49100e9123df213f -->
<g id="edge17" class="edge">
<title>dir_2171f7ec022c5423887b07c69b2f5b48&#45;&gt;dir_4ab6b4cc6a7edbff49100e9123df213f</title>
<path fill="none" stroke="#000000" d="M95.2175,-108.4133C88.5962,-116.9088 79.8198,-127.1366 71.2744,-136.3696"/>
<polygon fill="#000000" stroke="#000000" points="68.5413,-134.1654 64.2031,-143.8314 73.6222,-138.9805 68.5413,-134.1654"/>
<g id="a_edge17&#45;headlabel"><a xlink:href="dir_000080_000031.html" target="_top" xlink:title="36">
<text text-anchor="middle" x="68.953" y="-127.1033" font-family="Helvetica,sans-Serif" font-size="10.00" fill="#000000">36</text>
</a>
</g>
</g>
<!-- dir_2171f7ec022c5423887b07c69b2f5b48&#45;&gt;dir_37c90836491b695b472bf98d1be8336b -->
<g id="edge18" class="edge">
<title>dir_2171f7ec022c5423887b07c69b2f5b48&#45;&gt;dir_37c90836491b695b472bf98d1be8336b</title>
<path fill="none" stroke="#000000" d="M90.8211,-71.8314C86.3379,-63.9617 81.6896,-54.5712 77.9121,-45.8533"/>
<polygon fill="#000000" stroke="#000000" points="81.0822,-44.3575 74.0722,-36.4133 74.5981,-46.9951 81.0822,-44.3575"/>
<g id="a_edge18&#45;headlabel"><a xlink:href="dir_000080_000275.html" target="_top" xlink:title="1">
<text text-anchor="middle" x="85.0665" y="-44.1175" font-family="Helvetica,sans-Serif" font-size="10.00" fill="#000000">1</text>
</a>
</g>
</g>
</g>
</svg>
