<?xml version="1.0" encoding="UTF-8" standalone="no"?>
<!DOCTYPE svg PUBLIC "-//W3C//DTD SVG 1.1//EN"
 "http://www.w3.org/Graphics/SVG/1.1/DTD/svg11.dtd">
<!-- Generated by graphviz version 2.40.1 (20161225.0304)
 -->
<!-- Title: /home/travis/build/AliceO2Group/AliceO2/Analysis Pages: 1 -->
<!--zoomable 492 -->
<svg id="main" version="1.1" xmlns="http://www.w3.org/2000/svg" xmlns:xlink="http://www.w3.org/1999/xlink" xml:space="preserve" onload="init(evt)">
<style type="text/css"><![CDATA[
.edge:hover path { stroke: red; }
.edge:hover polygon { stroke: red; fill: red; }
]]></style>
<script type="text/javascript"><![CDATA[
var edges = document.getElementsByTagName('g');
if (edges && edges.length) {
  for (var i=0;i<edges.length;i++) {
    if (edges[i].id.substr(0,4)=='edge') {
      edges[i].setAttribute('class','edge');
    }
  }
}
]]></script>
        <defs>
                <circle id="rim" cx="0" cy="0" r="7"/>
                <circle id="rim2" cx="0" cy="0" r="3.5"/>
                <g id="zoomPlus">
                        <use xlink:href="#rim" fill="#404040">
                                <set attributeName="fill" to="#808080" begin="zoomplus.mouseover" end="zoomplus.mouseout"/>
                        </use>
                        <path d="M-4,0h8M0,-4v8" fill="none" stroke="white" stroke-width="1.5" pointer-events="none"/>
                </g>
                <g id="zoomMin">
                        <use xlink:href="#rim" fill="#404040">
                                <set attributeName="fill" to="#808080" begin="zoomminus.mouseover" end="zoomminus.mouseout"/>
                        </use>
                        <path d="M-4,0h8" fill="none" stroke="white" stroke-width="1.5" pointer-events="none"/>
                </g>
                <g id="dirArrow">
                        <path fill="none" stroke="white" stroke-width="1.5" d="M0,-3.0v7 M-2.5,-0.5L0,-3.0L2.5,-0.5"/>
                </g>
               <g id="resetDef">
                       <use xlink:href="#rim2" fill="#404040">
                               <set attributeName="fill" to="#808080" begin="reset.mouseover" end="reset.mouseout"/>
                       </use>
               </g>
        </defs>

<script type="text/javascript">
var viewWidth = 470;
var viewHeight = 492;
var sectionId = 'dynsection-0';
</script>
<script xlink:href="svgpan.js"/>
<svg id="graph" class="graph">
<g id="viewport">
<title>/home/travis/build/AliceO2Group/AliceO2/Analysis</title>
<g id="clust1" class="cluster">
<title>clusterdir_19b17cb436010079e3d017a29cb7858f</title>
<g id="a_clust1"><a xlink:href="dir_19b17cb436010079e3d017a29cb7858f.html" target="_top">
<polygon fill="#eeeeff" stroke="#000000" points="136,-280 136,-476 358,-476 358,-280 136,-280"/>
</a>
</g>
</g>
<!-- dir_19b17cb436010079e3d017a29cb7858f -->
<g id="node1" class="node">
<title>dir_19b17cb436010079e3d017a29cb7858f</title>
<text text-anchor="middle" x="321" y="-447.5" font-family="Helvetica,sans-Serif" font-size="10.00" fill="#000000">Analysis</text>
</g>
<!-- dir_8d04f135a1eb0fdc4d561ef87bbea216 -->
<g id="node2" class="node">
<title>dir_8d04f135a1eb0fdc4d561ef87bbea216</title>
<g id="a_node2"><a xlink:href="dir_8d04f135a1eb0fdc4d561ef87bbea216.html" target="_top" xlink:title="Core">
<polygon fill="#ffffff" stroke="#ff0000" points="272,-324 218,-324 218,-288 272,-288 272,-324"/>
<text text-anchor="middle" x="245" y="-303.5" font-family="Helvetica,sans-Serif" font-size="10.00" fill="#000000">Core</text>
</a>
</g>
</g>
<!-- dir_6af676bf18881990e4083e191d0e63e0 -->
<g id="node7" class="node">
<title>dir_6af676bf18881990e4083e191d0e63e0</title>
<g id="a_node7"><a xlink:href="dir_6af676bf18881990e4083e191d0e63e0.html" target="_top" xlink:title="CCDB">
<polygon fill="none" stroke="#ff0000" points="458,-324 404,-324 404,-288 458,-288 458,-324"/>
<text text-anchor="middle" x="431" y="-303.5" font-family="Helvetica,sans-Serif" font-size="10.00" fill="#000000">CCDB</text>
</a>
</g>
</g>
<!-- dir_8d04f135a1eb0fdc4d561ef87bbea216&#45;&gt;dir_6af676bf18881990e4083e191d0e63e0 -->
<g id="edge26" class="edge">
<title>dir_8d04f135a1eb0fdc4d561ef87bbea216&#45;&gt;dir_6af676bf18881990e4083e191d0e63e0</title>
<path fill="none" stroke="#000000" d="M272.2461,-306C312.7307,-306 353.2154,-306 393.7,-306"/>
<polygon fill="#000000" stroke="#000000" points="393.7142,-309.5001 403.7142,-306 393.7141,-302.5001 393.7142,-309.5001"/>
<g id="a_edge26&#45;headlabel"><a xlink:href="dir_000005_000023.html" target="_top" xlink:title="1">
<text text-anchor="middle" x="390.1196" y="-309.8393" font-family="Helvetica,sans-Serif" font-size="10.00" fill="#000000">1</text>
</a>
</g>
</g>
<!-- dir_bcbb2cf9a3d3d83e5515c82071a07177 -->
<g id="node9" class="node">
<title>dir_bcbb2cf9a3d3d83e5515c82071a07177</title>
<g id="a_node9"><a xlink:href="dir_bcbb2cf9a3d3d83e5515c82071a07177.html" target="_top" xlink:title="Framework">
<polygon fill="none" stroke="#ff0000" points="237.5,-180 166.5,-180 166.5,-144 237.5,-144 237.5,-180"/>
<text text-anchor="middle" x="202" y="-159.5" font-family="Helvetica,sans-Serif" font-size="10.00" fill="#000000">Framework</text>
</a>
</g>
</g>
<!-- dir_8d04f135a1eb0fdc4d561ef87bbea216&#45;&gt;dir_bcbb2cf9a3d3d83e5515c82071a07177 -->
<g id="edge27" class="edge">
<title>dir_8d04f135a1eb0fdc4d561ef87bbea216&#45;&gt;dir_bcbb2cf9a3d3d83e5515c82071a07177</title>
<path fill="none" stroke="#000000" d="M239.554,-287.7623C232.1874,-263.0928 218.979,-218.8598 210.3531,-189.9731"/>
<polygon fill="#000000" stroke="#000000" points="213.6168,-188.6701 207.4018,-180.0896 206.9094,-190.673 213.6168,-188.6701"/>
<g id="a_edge27&#45;headlabel"><a xlink:href="dir_000005_000015.html" target="_top" xlink:title="5">
<text text-anchor="middle" x="217.3658" y="-188.802" font-family="Helvetica,sans-Serif" font-size="10.00" fill="#000000">5</text>
</a>
</g>
</g>
<!-- dir_f41dd59f861c855ea21b0dc3111cb7b0 -->
<g id="node3" class="node">
<title>dir_f41dd59f861c855ea21b0dc3111cb7b0</title>
<g id="a_node3"><a xlink:href="dir_f41dd59f861c855ea21b0dc3111cb7b0.html" target="_top" xlink:title="DataModel">
<polygon fill="#ffffff" stroke="#ff0000" points="333.5,-396 264.5,-396 264.5,-360 333.5,-360 333.5,-396"/>
<text text-anchor="middle" x="299" y="-375.5" font-family="Helvetica,sans-Serif" font-size="10.00" fill="#000000">DataModel</text>
</a>
</g>
</g>
<!-- dir_f41dd59f861c855ea21b0dc3111cb7b0&#45;&gt;dir_8d04f135a1eb0fdc4d561ef87bbea216 -->
<g id="edge17" class="edge">
<title>dir_f41dd59f861c855ea21b0dc3111cb7b0&#45;&gt;dir_8d04f135a1eb0fdc4d561ef87bbea216</title>
<path fill="none" stroke="#000000" d="M285.3735,-359.8314C279.154,-351.5386 271.6678,-341.557 264.84,-332.4533"/>
<polygon fill="#000000" stroke="#000000" points="267.61,-330.3133 258.81,-324.4133 262.01,-334.5133 267.61,-330.3133"/>
<g id="a_edge17&#45;headlabel"><a xlink:href="dir_000009_000005.html" target="_top" xlink:title="1">
<text text-anchor="middle" x="272.0381" y="-328.9854" font-family="Helvetica,sans-Serif" font-size="10.00" fill="#000000">1</text>
</a>
</g>
</g>
<!-- dir_4ab6b4cc6a7edbff49100e9123df213f -->
<g id="node6" class="node">
<title>dir_4ab6b4cc6a7edbff49100e9123df213f</title>
<g id="a_node6"><a xlink:href="dir_4ab6b4cc6a7edbff49100e9123df213f.html" target="_top" xlink:title="Common">
<polygon fill="none" stroke="#ff0000" points="393.5,-252 332.5,-252 332.5,-216 393.5,-216 393.5,-252"/>
<text text-anchor="middle" x="363" y="-231.5" font-family="Helvetica,sans-Serif" font-size="10.00" fill="#000000">Common</text>
</a>
</g>
</g>
<!-- dir_f41dd59f861c855ea21b0dc3111cb7b0&#45;&gt;dir_4ab6b4cc6a7edbff49100e9123df213f -->
<g id="edge14" class="edge">
<title>dir_f41dd59f861c855ea21b0dc3111cb7b0&#45;&gt;dir_4ab6b4cc6a7edbff49100e9123df213f</title>
<path fill="none" stroke="#000000" d="M307.1056,-359.7623C318.1179,-334.9846 337.9016,-290.4714 350.7361,-261.5939"/>
<polygon fill="#000000" stroke="#000000" points="354.0971,-262.6492 354.9602,-252.0896 347.7004,-259.8062 354.0971,-262.6492"/>
<g id="a_edge14&#45;headlabel"><a xlink:href="dir_000009_000031.html" target="_top" xlink:title="2">
<text text-anchor="middle" x="355.2318" y="-264.5872" font-family="Helvetica,sans-Serif" font-size="10.00" fill="#000000">2</text>
</a>
</g>
</g>
<!-- dir_f41dd59f861c855ea21b0dc3111cb7b0&#45;&gt;dir_6af676bf18881990e4083e191d0e63e0 -->
<g id="edge15" class="edge">
<title>dir_f41dd59f861c855ea21b0dc3111cb7b0&#45;&gt;dir_6af676bf18881990e4083e191d0e63e0</title>
<path fill="none" stroke="#000000" d="M332.3092,-359.8314C351.4297,-349.402 375.4476,-336.3013 395.0019,-325.6353"/>
<polygon fill="#000000" stroke="#000000" points="396.8165,-328.6324 403.9194,-320.7712 393.4645,-322.4872 396.8165,-328.6324"/>
<g id="a_edge15&#45;headlabel"><a xlink:href="dir_000009_000023.html" target="_top" xlink:title="2">
<text text-anchor="middle" x="395.0203" y="-330.3463" font-family="Helvetica,sans-Serif" font-size="10.00" fill="#000000">2</text>
</a>
</g>
</g>
<!-- dir_051dca18e802f8e9474f2e30d29c04e0 -->
<g id="node8" class="node">
<title>dir_051dca18e802f8e9474f2e30d29c04e0</title>
<g id="a_node8"><a xlink:href="dir_051dca18e802f8e9474f2e30d29c04e0.html" target="_top" xlink:title="Detectors">
<polygon fill="none" stroke="#ff0000" points="311,-36 247,-36 247,0 311,0 311,-36"/>
<text text-anchor="middle" x="279" y="-15.5" font-family="Helvetica,sans-Serif" font-size="10.00" fill="#000000">Detectors</text>
</a>
</g>
</g>
<!-- dir_f41dd59f861c855ea21b0dc3111cb7b0&#45;&gt;dir_051dca18e802f8e9474f2e30d29c04e0 -->
<g id="edge16" class="edge">
<title>dir_f41dd59f861c855ea21b0dc3111cb7b0&#45;&gt;dir_051dca18e802f8e9474f2e30d29c04e0</title>
<path fill="none" stroke="#000000" d="M315.3118,-359.6883C324.4545,-349.3183 335.9965,-336.0486 346,-324 372.0714,-292.5984 389.5886,-290.5475 403,-252 408.2576,-236.8885 405.8548,-231.7433 403,-216 390.8043,-148.7448 389.6134,-126.9777 349,-72 340.6425,-60.6866 329.2985,-50.5532 318.177,-42.2047"/>
<polygon fill="#000000" stroke="#000000" points="319.9359,-39.1592 309.7689,-36.1785 315.858,-44.8488 319.9359,-39.1592"/>
<g id="a_edge16&#45;headlabel"><a xlink:href="dir_000009_000043.html" target="_top" xlink:title="1">
<text text-anchor="middle" x="324.5115" y="-36.4454" font-family="Helvetica,sans-Serif" font-size="10.00" fill="#000000">1</text>
</a>
</g>
</g>
<!-- dir_f41dd59f861c855ea21b0dc3111cb7b0&#45;&gt;dir_bcbb2cf9a3d3d83e5515c82071a07177 -->
<g id="edge18" class="edge">
<title>dir_f41dd59f861c855ea21b0dc3111cb7b0&#45;&gt;dir_bcbb2cf9a3d3d83e5515c82071a07177</title>
<path fill="none" stroke="#000000" d="M264.3126,-366.6213C244.4876,-358.1728 221.2067,-344.5133 209,-324 184.4491,-282.7422 189.5024,-224.5592 195.6119,-190.3119"/>
<polygon fill="#000000" stroke="#000000" points="199.1272,-190.5691 197.5965,-180.0855 192.2554,-189.2355 199.1272,-190.5691"/>
<g id="a_edge18&#45;headlabel"><a xlink:href="dir_000009_000015.html" target="_top" xlink:title="17">
<text text-anchor="middle" x="201.2298" y="-192.1388" font-family="Helvetica,sans-Serif" font-size="10.00" fill="#000000">17</text>
</a>
</g>
</g>
<!-- dir_2171f7ec022c5423887b07c69b2f5b48 -->
<g id="node10" class="node">
<title>dir_2171f7ec022c5423887b07c69b2f5b48</title>
<g id="a_node10"><a xlink:href="dir_2171f7ec022c5423887b07c69b2f5b48.html" target="_top" xlink:title="DataFormats">
<polygon fill="none" stroke="#ff0000" points="319,-108 239,-108 239,-72 319,-72 319,-108"/>
<text text-anchor="middle" x="279" y="-87.5" font-family="Helvetica,sans-Serif" font-size="10.00" fill="#000000">DataFormats</text>
</a>
</g>
</g>
<!-- dir_f41dd59f861c855ea21b0dc3111cb7b0&#45;&gt;dir_2171f7ec022c5423887b07c69b2f5b48 -->
<g id="edge19" class="edge">
<title>dir_f41dd59f861c855ea21b0dc3111cb7b0&#45;&gt;dir_2171f7ec022c5423887b07c69b2f5b48</title>
<path fill="none" stroke="#000000" d="M297.7489,-359.9843C294.3676,-311.2939 285.0275,-176.7961 280.9484,-118.0573"/>
<polygon fill="#000000" stroke="#000000" points="284.4351,-117.7424 280.2506,-108.0089 277.4519,-118.2274 284.4351,-117.7424"/>
<g id="a_edge19&#45;headlabel"><a xlink:href="dir_000009_000080.html" target="_top" xlink:title="7">
<text text-anchor="middle" x="287.5165" y="-118.6317" font-family="Helvetica,sans-Serif" font-size="10.00" fill="#000000">7</text>
</a>
</g>
</g>
<!-- dir_eff7324435ca3301414fec6c28c4adf5 -->
<g id="node4" class="node">
<title>dir_eff7324435ca3301414fec6c28c4adf5</title>
<g id="a_node4"><a xlink:href="dir_eff7324435ca3301414fec6c28c4adf5.html" target="_top" xlink:title="Tasks">
<polygon fill="#ffffff" stroke="#ff0000" points="198,-468 144,-468 144,-432 198,-432 198,-468"/>
<text text-anchor="middle" x="171" y="-447.5" font-family="Helvetica,sans-Serif" font-size="10.00" fill="#000000">Tasks</text>
</a>
</g>
</g>
<!-- dir_eff7324435ca3301414fec6c28c4adf5&#45;&gt;dir_8d04f135a1eb0fdc4d561ef87bbea216 -->
<g id="edge23" class="edge">
<title>dir_eff7324435ca3301414fec6c28c4adf5&#45;&gt;dir_8d04f135a1eb0fdc4d561ef87bbea216</title>
<path fill="none" stroke="#000000" d="M180.3722,-431.7623C193.1607,-406.8764 216.18,-362.0822 231.0138,-333.2165"/>
<polygon fill="#000000" stroke="#000000" points="234.2462,-334.5837 235.7039,-324.0896 228.0202,-331.3842 234.2462,-334.5837"/>
<g id="a_edge23&#45;headlabel"><a xlink:href="dir_000018_000005.html" target="_top" xlink:title="19">
<text text-anchor="middle" x="235.1286" y="-336.5786" font-family="Helvetica,sans-Serif" font-size="10.00" fill="#000000">19</text>
</a>
</g>
</g>
<!-- dir_eff7324435ca3301414fec6c28c4adf5&#45;&gt;dir_f41dd59f861c855ea21b0dc3111cb7b0 -->
<g id="edge22" class="edge">
<title>dir_eff7324435ca3301414fec6c28c4adf5&#45;&gt;dir_f41dd59f861c855ea21b0dc3111cb7b0</title>
<path fill="none" stroke="#000000" d="M198.1455,-434.7307C215.5825,-424.9223 238.5563,-411.9996 258.1724,-400.9655"/>
<polygon fill="#000000" stroke="#000000" points="259.9172,-403.9999 266.917,-396.0467 256.4853,-397.8988 259.9172,-403.9999"/>
<g id="a_edge22&#45;headlabel"><a xlink:href="dir_000018_000009.html" target="_top" xlink:title="42">
<text text-anchor="middle" x="258.1762" y="-405.7368" font-family="Helvetica,sans-Serif" font-size="10.00" fill="#000000">42</text>
</a>
</g>
</g>
<!-- dir_eff7324435ca3301414fec6c28c4adf5&#45;&gt;dir_6af676bf18881990e4083e191d0e63e0 -->
<g id="edge20" class="edge">
<title>dir_eff7324435ca3301414fec6c28c4adf5&#45;&gt;dir_6af676bf18881990e4083e191d0e63e0</title>
<path fill="none" stroke="#000000" d="M198.2577,-435.6479C201.1728,-434.3314 204.1238,-433.0866 207,-432 265.4914,-409.9029 288.9794,-427.4851 343,-396 370.8778,-379.7518 395.8724,-352.306 412.0354,-331.9851"/>
<polygon fill="#000000" stroke="#000000" points="414.8349,-334.0865 418.1977,-324.0395 409.3035,-329.7966 414.8349,-334.0865"/>
<g id="a_edge20&#45;headlabel"><a xlink:href="dir_000018_000023.html" target="_top" xlink:title="5">
<text text-anchor="middle" x="414.8756" y="-336.167" font-family="Helvetica,sans-Serif" font-size="10.00" fill="#000000">5</text>
</a>
</g>
</g>
<!-- dir_eff7324435ca3301414fec6c28c4adf5&#45;&gt;dir_051dca18e802f8e9474f2e30d29c04e0 -->
<g id="edge21" class="edge">
<title>dir_eff7324435ca3301414fec6c28c4adf5&#45;&gt;dir_051dca18e802f8e9474f2e30d29c04e0</title>
<path fill="none" stroke="#000000" d="M143.9833,-442.7997C118.1865,-434.8229 79.4331,-419.8409 53,-396 18.5291,-364.9095 0,-352.4205 0,-306 0,-306 0,-306 0,-162 0,-56.6237 159.1033,-28.281 237.0138,-20.719"/>
<polygon fill="#000000" stroke="#000000" points="237.349,-24.2031 246.9952,-19.8211 236.7217,-17.2313 237.349,-24.2031"/>
<g id="a_edge21&#45;headlabel"><a xlink:href="dir_000018_000043.html" target="_top" xlink:title="5">
<text text-anchor="middle" x="234.0232" y="-24.853" font-family="Helvetica,sans-Serif" font-size="10.00" fill="#000000">5</text>
</a>
</g>
</g>
<!-- dir_eff7324435ca3301414fec6c28c4adf5&#45;&gt;dir_bcbb2cf9a3d3d83e5515c82071a07177 -->
<g id="edge24" class="edge">
<title>dir_eff7324435ca3301414fec6c28c4adf5&#45;&gt;dir_bcbb2cf9a3d3d83e5515c82071a07177</title>
<path fill="none" stroke="#000000" d="M156.3248,-431.7088C149.2954,-421.772 141.6305,-408.9031 138,-396 116.3321,-318.9902 104.2893,-288.5506 138,-216 143.4138,-204.3486 152.7169,-194.3063 162.5788,-186.1507"/>
<polygon fill="#000000" stroke="#000000" points="164.7543,-188.8929 170.5439,-180.0198 160.4847,-183.3458 164.7543,-188.8929"/>
<g id="a_edge24&#45;headlabel"><a xlink:href="dir_000018_000015.html" target="_top" xlink:title="97">
<text text-anchor="middle" x="163.6376" y="-190.8353" font-family="Helvetica,sans-Serif" font-size="10.00" fill="#000000">97</text>
</a>
</g>
</g>
<!-- dir_eff7324435ca3301414fec6c28c4adf5&#45;&gt;dir_2171f7ec022c5423887b07c69b2f5b48 -->
<g id="edge25" class="edge">
<title>dir_eff7324435ca3301414fec6c28c4adf5&#45;&gt;dir_2171f7ec022c5423887b07c69b2f5b48</title>
<path fill="none" stroke="#000000" d="M143.7645,-436.2053C104.8536,-414.3336 38,-367.7677 38,-306 38,-306 38,-306 38,-234 38,-187.1222 55.7495,-172.4593 93,-144 132.5734,-113.7659 188.6136,-100.4408 228.8213,-94.5793"/>
<polygon fill="#000000" stroke="#000000" points="229.499,-98.0196 238.9402,-93.212 228.5616,-91.0826 229.499,-98.0196"/>
<g id="a_edge25&#45;headlabel"><a xlink:href="dir_000018_000080.html" target="_top" xlink:title="8">
<text text-anchor="middle" x="226.3169" y="-98.8146" font-family="Helvetica,sans-Serif" font-size="10.00" fill="#000000">8</text>
</a>
</g>
</g>
<!-- dir_6e355b58bf8669476ee36a32071bc3eb -->
<g id="node5" class="node">
<title>dir_6e355b58bf8669476ee36a32071bc3eb</title>
<g id="a_node5"><a xlink:href="dir_6e355b58bf8669476ee36a32071bc3eb.html" target="_top" xlink:title="Tutorials">
<polygon fill="#ffffff" stroke="#ff0000" points="274,-468 216,-468 216,-432 274,-432 274,-468"/>
<text text-anchor="middle" x="245" y="-447.5" font-family="Helvetica,sans-Serif" font-size="10.00" fill="#000000">Tutorials</text>
</a>
</g>
</g>
<!-- dir_6e355b58bf8669476ee36a32071bc3eb&#45;&gt;dir_8d04f135a1eb0fdc4d561ef87bbea216 -->
<g id="edge3" class="edge">
<title>dir_6e355b58bf8669476ee36a32071bc3eb&#45;&gt;dir_8d04f135a1eb0fdc4d561ef87bbea216</title>
<path fill="none" stroke="#000000" d="M245,-431.7623C245,-407.201 245,-363.2474 245,-334.3541"/>
<polygon fill="#000000" stroke="#000000" points="248.5001,-334.0896 245,-324.0896 241.5001,-334.0897 248.5001,-334.0896"/>
<g id="a_edge3&#45;headlabel"><a xlink:href="dir_000021_000005.html" target="_top" xlink:title="3">
<text text-anchor="middle" x="251.3393" y="-335.1842" font-family="Helvetica,sans-Serif" font-size="10.00" fill="#000000">3</text>
</a>
</g>
</g>
<!-- dir_6e355b58bf8669476ee36a32071bc3eb&#45;&gt;dir_f41dd59f861c855ea21b0dc3111cb7b0 -->
<g id="edge2" class="edge">
<title>dir_6e355b58bf8669476ee36a32071bc3eb&#45;&gt;dir_f41dd59f861c855ea21b0dc3111cb7b0</title>
<path fill="none" stroke="#000000" d="M258.6265,-431.8314C264.846,-423.5386 272.3322,-413.557 279.16,-404.4533"/>
<polygon fill="#000000" stroke="#000000" points="281.99,-406.5133 285.19,-396.4133 276.39,-402.3133 281.99,-406.5133"/>
<g id="a_edge2&#45;headlabel"><a xlink:href="dir_000021_000009.html" target="_top" xlink:title="2">
<text text-anchor="middle" x="282.1047" y="-408.5925" font-family="Helvetica,sans-Serif" font-size="10.00" fill="#000000">2</text>
</a>
</g>
</g>
<!-- dir_6e355b58bf8669476ee36a32071bc3eb&#45;&gt;dir_6af676bf18881990e4083e191d0e63e0 -->
<g id="edge1" class="edge">
<title>dir_6e355b58bf8669476ee36a32071bc3eb&#45;&gt;dir_6af676bf18881990e4083e191d0e63e0</title>
<path fill="none" stroke="#000000" d="M274.3031,-435.6909C277.2208,-434.3956 280.1551,-433.1431 283,-432 329.9483,-413.1359 353.5394,-430.0104 391,-396 409.0032,-379.6549 419.3482,-353.6962 424.9877,-333.8488"/>
<polygon fill="#000000" stroke="#000000" points="428.3906,-334.6696 427.5235,-324.1103 421.6165,-332.9056 428.3906,-334.6696"/>
<g id="a_edge1&#45;headlabel"><a xlink:href="dir_000021_000023.html" target="_top" xlink:title="1">
<text text-anchor="middle" x="430.2326" y="-336.3636" font-family="Helvetica,sans-Serif" font-size="10.00" fill="#000000">1</text>
</a>
</g>
</g>
<!-- dir_6e355b58bf8669476ee36a32071bc3eb&#45;&gt;dir_bcbb2cf9a3d3d83e5515c82071a07177 -->
<g id="edge4" class="edge">
<title>dir_6e355b58bf8669476ee36a32071bc3eb&#45;&gt;dir_bcbb2cf9a3d3d83e5515c82071a07177</title>
<path fill="none" stroke="#000000" d="M234.3659,-431.9821C220.9521,-408.1902 198.4931,-364.5562 189,-324 178.056,-277.2453 179.1079,-263.5213 186,-216 187.2572,-207.3319 189.5936,-198.1182 192.1,-189.802"/>
<polygon fill="#000000" stroke="#000000" points="195.4582,-190.7916 195.1805,-180.2004 188.7928,-188.6531 195.4582,-190.7916"/>
<g id="a_edge4&#45;headlabel"><a xlink:href="dir_000021_000015.html" target="_top" xlink:title="59">
<text text-anchor="middle" x="197.0637" y="-192.5817" font-family="Helvetica,sans-Serif" font-size="10.00" fill="#000000">59</text>
</a>
</g>
</g>
<!-- dir_6e355b58bf8669476ee36a32071bc3eb&#45;&gt;dir_2171f7ec022c5423887b07c69b2f5b48 -->
<g id="edge5" class="edge">
<title>dir_6e355b58bf8669476ee36a32071bc3eb&#45;&gt;dir_2171f7ec022c5423887b07c69b2f5b48</title>
<path fill="none" stroke="#000000" d="M215.9479,-432.8229C167.6283,-403.2324 76,-342.3303 76,-306 76,-306 76,-306 76,-234 76,-159.0963 169.0812,-119.6062 229.1843,-101.9147"/>
<polygon fill="#000000" stroke="#000000" points="230.2285,-105.2566 238.8937,-99.1604 228.3181,-98.5224 230.2285,-105.2566"/>
<g id="a_edge5&#45;headlabel"><a xlink:href="dir_000021_000080.html" target="_top" xlink:title="1">
<text text-anchor="middle" x="227.5452" y="-106.4691" font-family="Helvetica,sans-Serif" font-size="10.00" fill="#000000">1</text>
</a>
</g>
</g>
<!-- dir_4ab6b4cc6a7edbff49100e9123df213f&#45;&gt;dir_bcbb2cf9a3d3d83e5515c82071a07177 -->
<g id="edge6" class="edge">
<title>dir_4ab6b4cc6a7edbff49100e9123df213f&#45;&gt;dir_bcbb2cf9a3d3d83e5515c82071a07177</title>
<path fill="none" stroke="#000000" d="M332.4003,-222.5914C307.8768,-212.3759 273.3127,-197.1 245.8789,-184.4426"/>
<polygon fill="#000000" stroke="#000000" points="247.0447,-181.125 236.5008,-180.0873 244.0962,-187.4738 247.0447,-181.125"/>
<g id="a_edge6&#45;headlabel"><a xlink:href="dir_000031_000015.html" target="_top" xlink:title="2">
<text text-anchor="middle" x="251.5008" y="-177.5639" font-family="Helvetica,sans-Serif" font-size="10.00" fill="#000000">2</text>
</a>
</g>
</g>
<!-- dir_4ab6b4cc6a7edbff49100e9123df213f&#45;&gt;dir_2171f7ec022c5423887b07c69b2f5b48 -->
<g id="edge7" class="edge">
<title>dir_4ab6b4cc6a7edbff49100e9123df213f&#45;&gt;dir_2171f7ec022c5423887b07c69b2f5b48</title>
<path fill="none" stroke="#000000" d="M347.6882,-215.7623C330.6791,-190.8764 304.3,-146.0822 289.4557,-117.2165"/>
<polygon fill="#000000" stroke="#000000" points="292.4956,-115.4697 284.894,-108.0896 286.2341,-118.5994 292.4956,-115.4697"/>
<g id="a_edge7&#45;headlabel"><a xlink:href="dir_000031_000080.html" target="_top" xlink:title="2">
<text text-anchor="middle" x="296.6423" y="-114.9157" font-family="Helvetica,sans-Serif" font-size="10.00" fill="#000000">2</text>
</a>
</g>
</g>
<!-- dir_6af676bf18881990e4083e191d0e63e0&#45;&gt;dir_4ab6b4cc6a7edbff49100e9123df213f -->
<g id="edge8" class="edge">
<title>dir_6af676bf18881990e4083e191d0e63e0&#45;&gt;dir_4ab6b4cc6a7edbff49100e9123df213f</title>
<path fill="none" stroke="#000000" d="M413.8407,-287.8314C405.8489,-279.3694 396.1962,-269.1489 387.4584,-259.8971"/>
<polygon fill="#000000" stroke="#000000" points="389.8011,-257.2802 380.3903,-252.4133 384.712,-262.0866 389.8011,-257.2802"/>
<g id="a_edge8&#45;headlabel"><a xlink:href="dir_000023_000031.html" target="_top" xlink:title="4">
<text text-anchor="middle" x="394.3334" y="-255.444" font-family="Helvetica,sans-Serif" font-size="10.00" fill="#000000">4</text>
</a>
</g>
</g>
<!-- dir_6af676bf18881990e4083e191d0e63e0&#45;&gt;dir_bcbb2cf9a3d3d83e5515c82071a07177 -->
<g id="edge9" class="edge">
<title>dir_6af676bf18881990e4083e191d0e63e0&#45;&gt;dir_bcbb2cf9a3d3d83e5515c82071a07177</title>
<path fill="none" stroke="#000000" d="M403.9423,-293.8919C381.8943,-283.6627 350.2303,-268.1355 324,-252 291.3123,-231.8922 256.2828,-205.4935 232.1832,-186.493"/>
<polygon fill="#000000" stroke="#000000" points="234.1442,-183.581 224.1364,-180.1033 229.7912,-189.0629 234.1442,-183.581"/>
<g id="a_edge9&#45;headlabel"><a xlink:href="dir_000023_000015.html" target="_top" xlink:title="2">
<text text-anchor="middle" x="238.7249" y="-181.0928" font-family="Helvetica,sans-Serif" font-size="10.00" fill="#000000">2</text>
</a>
</g>
</g>
<!-- dir_051dca18e802f8e9474f2e30d29c04e0&#45;&gt;dir_4ab6b4cc6a7edbff49100e9123df213f -->
<g id="edge10" class="edge">
<title>dir_051dca18e802f8e9474f2e30d29c04e0&#45;&gt;dir_4ab6b4cc6a7edbff49100e9123df213f</title>
<path fill="none" stroke="#000000" d="M299.8798,-36.1062C309.8118,-45.8016 321.0149,-58.5099 328,-72 350.4443,-115.3461 358.5119,-172.3818 361.4008,-205.93"/>
<polygon fill="#000000" stroke="#000000" points="357.9147,-206.2464 362.1684,-215.9498 364.8942,-205.7116 357.9147,-206.2464"/>
<g id="a_edge10&#45;headlabel"><a xlink:href="dir_000043_000031.html" target="_top" xlink:title="292">
<text text-anchor="middle" x="354.8092" y="-200.3792" font-family="Helvetica,sans-Serif" font-size="10.00" fill="#000000">292</text>
</a>
</g>
</g>
<!-- dir_051dca18e802f8e9474f2e30d29c04e0&#45;&gt;dir_6af676bf18881990e4083e191d0e63e0 -->
<g id="edge11" class="edge">
<title>dir_051dca18e802f8e9474f2e30d29c04e0&#45;&gt;dir_6af676bf18881990e4083e191d0e63e0</title>
<path fill="none" stroke="#000000" d="M311.0972,-24.4753C352.5847,-33.5717 421.2668,-51.3522 436,-72 480.3071,-134.094 456.9445,-230.9502 441.3315,-278.1961"/>
<polygon fill="#000000" stroke="#000000" points="437.9844,-277.1669 438.0497,-287.7615 444.6056,-279.4386 437.9844,-277.1669"/>
<g id="a_edge11&#45;headlabel"><a xlink:href="dir_000043_000023.html" target="_top" xlink:title="29">
<text text-anchor="middle" x="436.4653" y="-270.3454" font-family="Helvetica,sans-Serif" font-size="10.00" fill="#000000">29</text>
</a>
</g>
</g>
<!-- dir_051dca18e802f8e9474f2e30d29c04e0&#45;&gt;dir_bcbb2cf9a3d3d83e5515c82071a07177 -->
<g id="edge12" class="edge">
<title>dir_051dca18e802f8e9474f2e30d29c04e0&#45;&gt;dir_bcbb2cf9a3d3d83e5515c82071a07177</title>
<path fill="none" stroke="#000000" d="M266.6617,-36.3612C257.7761,-46.1216 246.5384,-58.8112 239,-72 227.9007,-91.4189 220.6715,-115.7588 214.9741,-134.2286"/>
<polygon fill="#000000" stroke="#000000" points="211.6199,-133.2275 211.9515,-143.8171 218.2961,-135.332 211.6199,-133.2275"/>
<g id="a_edge12&#45;headlabel"><a xlink:href="dir_000043_000015.html" target="_top" xlink:title="866">
<text text-anchor="middle" x="209.9926" y="-126.4456" font-family="Helvetica,sans-Serif" font-size="10.00" fill="#000000">866</text>
</a>
</g>
</g>
<!-- dir_051dca18e802f8e9474f2e30d29c04e0&#45;&gt;dir_2171f7ec022c5423887b07c69b2f5b48 -->
<g id="edge13" class="edge">
<title>dir_051dca18e802f8e9474f2e30d29c04e0&#45;&gt;dir_2171f7ec022c5423887b07c69b2f5b48</title>
<path fill="none" stroke="#000000" d="M284.976,-36.4133C285.7071,-44.0593 285.9203,-53.1084 285.6155,-61.5726"/>
<polygon fill="#000000" stroke="#000000" points="282.1048,-61.6264 284.9524,-71.8314 289.0902,-62.078 282.1048,-61.6264"/>
<g id="a_edge13&#45;headlabel"><a xlink:href="dir_000043_000080.html" target="_top" xlink:title="1204">
<text text-anchor="middle" x="279.5032" y="-55.3562" font-family="Helvetica,sans-Serif" font-size="10.00" fill="#000000">1204</text>
</a>
</g>
</g>
<!-- dir_bcbb2cf9a3d3d83e5515c82071a07177&#45;&gt;dir_4ab6b4cc6a7edbff49100e9123df213f -->
<g id="edge28" class="edge">
<title>dir_bcbb2cf9a3d3d83e5515c82071a07177&#45;&gt;dir_4ab6b4cc6a7edbff49100e9123df213f</title>
<path fill="none" stroke="#000000" d="M237.5893,-175.4984C262.8742,-186.1427 296.7288,-201.1681 322.9446,-213.326"/>
<polygon fill="#000000" stroke="#000000" points="321.6859,-216.601 332.2274,-217.6621 324.6484,-210.2588 321.6859,-216.601"/>
<g id="a_edge28&#45;headlabel"><a xlink:href="dir_000015_000031.html" target="_top" xlink:title="8">
<text text-anchor="middle" x="317.2274" y="-215.1522" font-family="Helvetica,sans-Serif" font-size="10.00" fill="#000000">8</text>
</a>
</g>
</g>
<!-- dir_bcbb2cf9a3d3d83e5515c82071a07177&#45;&gt;dir_051dca18e802f8e9474f2e30d29c04e0 -->
<g id="edge29" class="edge">
<title>dir_bcbb2cf9a3d3d83e5515c82071a07177&#45;&gt;dir_051dca18e802f8e9474f2e30d29c04e0</title>
<path fill="none" stroke="#000000" d="M198.5129,-143.8171C200.1268,-124.9423 207.8452,-95.015 221,-72 226.8791,-61.7143 235.0081,-51.7322 243.3962,-43.2064"/>
<polygon fill="#000000" stroke="#000000" points="245.9915,-45.5668 250.7841,-36.1178 241.1451,-40.5157 245.9915,-45.5668"/>
<g id="a_edge29&#45;headlabel"><a xlink:href="dir_000015_000043.html" target="_top" xlink:title="4">
<text text-anchor="middle" x="245.3634" y="-47.6041" font-family="Helvetica,sans-Serif" font-size="10.00" fill="#000000">4</text>
</a>
</g>
</g>
<!-- dir_bcbb2cf9a3d3d83e5515c82071a07177&#45;&gt;dir_2171f7ec022c5423887b07c69b2f5b48 -->
<g id="edge30" class="edge">
<title>dir_bcbb2cf9a3d3d83e5515c82071a07177&#45;&gt;dir_2171f7ec022c5423887b07c69b2f5b48</title>
<path fill="none" stroke="#000000" d="M215.478,-143.8314C224.0149,-135.0485 235.2666,-124.3712 245.972,-114.8489"/>
<polygon fill="#000000" stroke="#000000" points="248.3965,-117.3783 253.624,-108.1628 243.7907,-112.107 248.3965,-117.3783"/>
<g id="a_edge30&#45;headlabel"><a xlink:href="dir_000015_000080.html" target="_top" xlink:title="82">
<text text-anchor="middle" x="247.5578" y="-119.3815" font-family="Helvetica,sans-Serif" font-size="10.00" fill="#000000">82</text>
</a>
</g>
</g>
<!-- dir_2171f7ec022c5423887b07c69b2f5b48&#45;&gt;dir_4ab6b4cc6a7edbff49100e9123df213f -->
<g id="edge31" class="edge">
<title>dir_2171f7ec022c5423887b07c69b2f5b48&#45;&gt;dir_4ab6b4cc6a7edbff49100e9123df213f</title>
<path fill="none" stroke="#000000" d="M294.2106,-108.0896C311.1823,-132.8962 337.5656,-177.6824 352.4557,-206.6113"/>
<polygon fill="#000000" stroke="#000000" points="349.4297,-208.3855 357.0345,-215.7623 355.6897,-205.2531 349.4297,-208.3855"/>
<g id="a_edge31&#45;headlabel"><a xlink:href="dir_000080_000031.html" target="_top" xlink:title="36">
<text text-anchor="middle" x="345.2821" y="-203.9414" font-family="Helvetica,sans-Serif" font-size="10.00" fill="#000000">36</text>
</a>
</g>
</g>
<!-- dir_2171f7ec022c5423887b07c69b2f5b48&#45;&gt;dir_051dca18e802f8e9474f2e30d29c04e0 -->
<g id="edge32" class="edge">
<title>dir_2171f7ec022c5423887b07c69b2f5b48&#45;&gt;dir_051dca18e802f8e9474f2e30d29c04e0</title>
<path fill="none" stroke="#000000" d="M273.0476,-71.8314C272.2972,-64.131 272.0763,-54.9743 272.3849,-46.4166"/>
<polygon fill="#000000" stroke="#000000" points="275.8792,-46.6161 273.024,-36.4133 268.8935,-46.1697 275.8792,-46.6161"/>
<g id="a_edge32&#45;headlabel"><a xlink:href="dir_000080_000043.html" target="_top" xlink:title="16">
<text text-anchor="middle" x="278.4836" y="-47.8844" font-family="Helvetica,sans-Serif" font-size="10.00" fill="#000000">16</text>
</a>
</g>
</g>
<!-- dir_2171f7ec022c5423887b07c69b2f5b48&#45;&gt;dir_bcbb2cf9a3d3d83e5515c82071a07177 -->
<g id="edge33" class="edge">
<title>dir_2171f7ec022c5423887b07c69b2f5b48&#45;&gt;dir_bcbb2cf9a3d3d83e5515c82071a07177</title>
<path fill="none" stroke="#000000" d="M265.284,-108.4133C256.7627,-117.1637 245.5975,-127.7519 234.9756,-137.1978"/>
<polygon fill="#000000" stroke="#000000" points="232.6107,-134.6162 227.3827,-143.8314 237.2163,-139.8878 232.6107,-134.6162"/>
<g id="a_edge33&#45;headlabel"><a xlink:href="dir_000080_000015.html" target="_top" xlink:title="17">
<text text-anchor="middle" x="233.4497" y="-127.613" font-family="Helvetica,sans-Serif" font-size="10.00" fill="#000000">17</text>
</a>
</g>
</g>
</g>
</svg>
        <g id="navigator" transform="translate(0 0)" fill="#404254">
                <rect fill="#f2f5e9" fill-opacity="0.5" stroke="#606060" stroke-width=".5" x="0" y="0" width="60" height="60"/>
                <use id="zoomplus" xlink:href="#zoomPlus" x="17" y="9" onmousedown="handleZoom(evt,'in')"/>
                <use id="zoomminus" xlink:href="#zoomMin" x="42" y="9" onmousedown="handleZoom(evt,'out')"/>
                <use id="reset" xlink:href="#resetDef" x="30" y="36" onmousedown="handleReset()"/>
                <g id="arrowUp" xlink:href="#dirArrow" transform="translate(30 24)" onmousedown="handlePan(0,-1)">
                  <use xlink:href="#rim" fill="#404040">
                        <set attributeName="fill" to="#808080" begin="arrowUp.mouseover" end="arrowUp.mouseout"/>
                  </use>
                  <path fill="none" stroke="white" stroke-width="1.5" d="M0,-3.0v7 M-2.5,-0.5L0,-3.0L2.5,-0.5"/>
                </g>
                <g id="arrowRight" xlink:href="#dirArrow" transform="rotate(90) translate(36 -43)" onmousedown="handlePan(1,0)">
                  <use xlink:href="#rim" fill="#404040">
                        <set attributeName="fill" to="#808080" begin="arrowRight.mouseover" end="arrowRight.mouseout"/>
                  </use>
                  <path fill="none" stroke="white" stroke-width="1.5" d="M0,-3.0v7 M-2.5,-0.5L0,-3.0L2.5,-0.5"/>
                </g>
                <g id="arrowDown" xlink:href="#dirArrow" transform="rotate(180) translate(-30 -48)" onmousedown="handlePan(0,1)">
                  <use xlink:href="#rim" fill="#404040">
                        <set attributeName="fill" to="#808080" begin="arrowDown.mouseover" end="arrowDown.mouseout"/>
                  </use>
                  <path fill="none" stroke="white" stroke-width="1.5" d="M0,-3.0v7 M-2.5,-0.5L0,-3.0L2.5,-0.5"/>
                </g>
                <g id="arrowLeft" xlink:href="#dirArrow" transform="rotate(270) translate(-36 17)" onmousedown="handlePan(-1,0)">
                  <use xlink:href="#rim" fill="#404040">
                        <set attributeName="fill" to="#808080" begin="arrowLeft.mouseover" end="arrowLeft.mouseout"/>
                  </use>
                  <path fill="none" stroke="white" stroke-width="1.5" d="M0,-3.0v7 M-2.5,-0.5L0,-3.0L2.5,-0.5"/>
                </g>
        </g>
        <svg viewBox="0 0 15 15" width="100%" height="30px" preserveAspectRatio="xMaxYMin meet">
         <g id="arrow_out" transform="scale(0.3 0.3)">
          <a xlink:href="dir_19b17cb436010079e3d017a29cb7858f_dep_org.svg" target="_base">
           <rect id="button" ry="5" rx="5" y="6" x="6" height="38" width="38"
                fill="#f2f5e9" fill-opacity="0.5" stroke="#606060" stroke-width="1.0"/>
           <path id="arrow"
             d="M 11.500037,31.436501 C 11.940474,20.09759 22.043105,11.32322 32.158766,21.979434 L 37.068811,17.246167 C 37.068811,17.246167 37.088388,32 37.088388,32 L 22.160133,31.978069 C 22.160133,31.978069 26.997745,27.140456 26.997745,27.140456 C 18.528582,18.264221 13.291696,25.230495 11.500037,31.436501 z"
             style="fill:#404040;"/>
          </a>
         </g>
        </svg>
</svg>
