<?xml version="1.0" encoding="UTF-8" standalone="no"?>
<!DOCTYPE svg PUBLIC "-//W3C//DTD SVG 1.1//EN"
 "http://www.w3.org/Graphics/SVG/1.1/DTD/svg11.dtd">
<!-- Generated by graphviz version 2.40.1 (20161225.0304)
 -->
<!-- Title: /home/travis/build/AliceO2Group/AliceO2/DataFormats/simulation Pages: 1 -->
<!--zoomable 475 -->
<svg id="main" version="1.1" xmlns="http://www.w3.org/2000/svg" xmlns:xlink="http://www.w3.org/1999/xlink" xml:space="preserve" onload="init(evt)">
<style type="text/css"><![CDATA[
.edge:hover path { stroke: red; }
.edge:hover polygon { stroke: red; fill: red; }
]]></style>
<script type="text/javascript"><![CDATA[
var edges = document.getElementsByTagName('g');
if (edges && edges.length) {
  for (var i=0;i<edges.length;i++) {
    if (edges[i].id.substr(0,4)=='edge') {
      edges[i].setAttribute('class','edge');
    }
  }
}
]]></script>
        <defs>
                <circle id="rim" cx="0" cy="0" r="7"/>
                <circle id="rim2" cx="0" cy="0" r="3.5"/>
                <g id="zoomPlus">
                        <use xlink:href="#rim" fill="#404040">
                                <set attributeName="fill" to="#808080" begin="zoomplus.mouseover" end="zoomplus.mouseout"/>
                        </use>
                        <path d="M-4,0h8M0,-4v8" fill="none" stroke="white" stroke-width="1.5" pointer-events="none"/>
                </g>
                <g id="zoomMin">
                        <use xlink:href="#rim" fill="#404040">
                                <set attributeName="fill" to="#808080" begin="zoomminus.mouseover" end="zoomminus.mouseout"/>
                        </use>
                        <path d="M-4,0h8" fill="none" stroke="white" stroke-width="1.5" pointer-events="none"/>
                </g>
                <g id="dirArrow">
                        <path fill="none" stroke="white" stroke-width="1.5" d="M0,-3.0v7 M-2.5,-0.5L0,-3.0L2.5,-0.5"/>
                </g>
               <g id="resetDef">
                       <use xlink:href="#rim2" fill="#404040">
                               <set attributeName="fill" to="#808080" begin="reset.mouseover" end="reset.mouseout"/>
                       </use>
               </g>
        </defs>

<script type="text/javascript">
var viewWidth = 590;
var viewHeight = 475;
var sectionId = 'dynsection-0';
</script>
<script xlink:href="svgpan.js"/>
<svg id="graph" class="graph">
<g id="viewport">
<title>/home/travis/build/AliceO2Group/AliceO2/DataFormats/simulation</title>
<g id="clust1" class="cluster">
<title>clusterdir_2171f7ec022c5423887b07c69b2f5b48</title>
<g id="a_clust1"><a xlink:href="dir_2171f7ec022c5423887b07c69b2f5b48.html" target="_top" xlink:title="DataFormats">
<polygon fill="#ddddee" stroke="#000000" points="11.6483,-272 11.6483,-431 255.6483,-431 255.6483,-272 11.6483,-272"/>
<text text-anchor="middle" x="133.6483" y="-419" font-family="Helvetica,sans-Serif" font-size="10.00" fill="#000000">DataFormats</text>
</a>
</g>
</g>
<g id="clust2" class="cluster">
<title>clusterdir_047746f9f311f49446db9474b7431d0d</title>
<g id="a_clust2"><a xlink:href="dir_047746f9f311f49446db9474b7431d0d.html" target="_top">
<polygon fill="#eeeeff" stroke="#000000" points="19.6483,-280 19.6483,-404 247.6483,-404 247.6483,-280 19.6483,-280"/>
</a>
</g>
</g>
<!-- dir_047746f9f311f49446db9474b7431d0d -->
<g id="node1" class="node">
<title>dir_047746f9f311f49446db9474b7431d0d</title>
<text text-anchor="middle" x="205.6483" y="-375.5" font-family="Helvetica,sans-Serif" font-size="10.00" fill="#000000">simulation</text>
</g>
<!-- dir_e977c6a9672cee72083a88d55f0ce0c6 -->
<g id="node2" class="node">
<title>dir_e977c6a9672cee72083a88d55f0ce0c6</title>
<g id="a_node2"><a xlink:href="dir_e977c6a9672cee72083a88d55f0ce0c6.html" target="_top" xlink:title="include">
<polygon fill="#ffffff" stroke="#ff0000" points="140.6483,-324 86.6483,-324 86.6483,-288 140.6483,-288 140.6483,-324"/>
<text text-anchor="middle" x="113.6483" y="-303.5" font-family="Helvetica,sans-Serif" font-size="10.00" fill="#000000">include</text>
</a>
</g>
</g>
<!-- dir_4ab6b4cc6a7edbff49100e9123df213f -->
<g id="node5" class="node">
<title>dir_4ab6b4cc6a7edbff49100e9123df213f</title>
<g id="a_node5"><a xlink:href="dir_4ab6b4cc6a7edbff49100e9123df213f.html" target="_top" xlink:title="Common">
<polygon fill="none" stroke="#ff0000" points="433.1483,-396 372.1483,-396 372.1483,-360 433.1483,-360 433.1483,-396"/>
<text text-anchor="middle" x="402.6483" y="-375.5" font-family="Helvetica,sans-Serif" font-size="10.00" fill="#000000">Common</text>
</a>
</g>
</g>
<!-- dir_e977c6a9672cee72083a88d55f0ce0c6&#45;&gt;dir_4ab6b4cc6a7edbff49100e9123df213f -->
<g id="edge21" class="edge">
<title>dir_e977c6a9672cee72083a88d55f0ce0c6&#45;&gt;dir_4ab6b4cc6a7edbff49100e9123df213f</title>
<path fill="none" stroke="#000000" d="M141.0127,-312.8174C192.1404,-325.5551 302.3856,-353.021 362.1497,-367.9104"/>
<polygon fill="#000000" stroke="#000000" points="361.4444,-371.3416 371.9939,-370.3629 363.1366,-364.5492 361.4444,-371.3416"/>
<g id="a_edge21&#45;headlabel"><a xlink:href="dir_000247_000031.html" target="_top" xlink:title="3">
<text text-anchor="middle" x="357.27" y="-370.7277" font-family="Helvetica,sans-Serif" font-size="10.00" fill="#000000">3</text>
</a>
</g>
</g>
<!-- dir_2801adc79bf3c286b1b479858d2cade4 -->
<g id="node6" class="node">
<title>dir_2801adc79bf3c286b1b479858d2cade4</title>
<g id="a_node6"><a xlink:href="dir_2801adc79bf3c286b1b479858d2cade4.html" target="_top" xlink:title="Detectors">
<polygon fill="none" stroke="#ff0000" points="327.6483,-324 263.6483,-324 263.6483,-288 327.6483,-288 327.6483,-324"/>
<text text-anchor="middle" x="295.6483" y="-303.5" font-family="Helvetica,sans-Serif" font-size="10.00" fill="#000000">Detectors</text>
</a>
</g>
</g>
<!-- dir_e977c6a9672cee72083a88d55f0ce0c6&#45;&gt;dir_2801adc79bf3c286b1b479858d2cade4 -->
<g id="edge22" class="edge">
<title>dir_e977c6a9672cee72083a88d55f0ce0c6&#45;&gt;dir_2801adc79bf3c286b1b479858d2cade4</title>
<path fill="none" stroke="#000000" d="M140.664,-306C178.2694,-306 215.8748,-306 253.4803,-306"/>
<polygon fill="#000000" stroke="#000000" points="253.5618,-309.5001 263.5617,-306 253.5617,-302.5001 253.5618,-309.5001"/>
<g id="a_edge22&#45;headlabel"><a xlink:href="dir_000247_000090.html" target="_top" xlink:title="3">
<text text-anchor="middle" x="249.9671" y="-309.8393" font-family="Helvetica,sans-Serif" font-size="10.00" fill="#000000">3</text>
</a>
</g>
</g>
<!-- dir_d462256f2f72f303235b8fb5b5a9f479 -->
<g id="node8" class="node">
<title>dir_d462256f2f72f303235b8fb5b5a9f479</title>
<g id="a_node8"><a xlink:href="dir_d462256f2f72f303235b8fb5b5a9f479.html" target="_top" xlink:title="Parameters">
<polygon fill="none" stroke="#ff0000" points="361.6483,-108 289.6483,-108 289.6483,-72 361.6483,-72 361.6483,-108"/>
<text text-anchor="middle" x="325.6483" y="-87.5" font-family="Helvetica,sans-Serif" font-size="10.00" fill="#000000">Parameters</text>
</a>
</g>
</g>
<!-- dir_e977c6a9672cee72083a88d55f0ce0c6&#45;&gt;dir_d462256f2f72f303235b8fb5b5a9f479 -->
<g id="edge23" class="edge">
<title>dir_e977c6a9672cee72083a88d55f0ce0c6&#45;&gt;dir_d462256f2f72f303235b8fb5b5a9f479</title>
<path fill="none" stroke="#000000" d="M121.4423,-287.7463C136.2912,-254.9031 171.5855,-185.4218 220.6483,-144 238.1468,-129.2267 260.3694,-117.0635 279.8604,-108.0458"/>
<polygon fill="#000000" stroke="#000000" points="281.4804,-111.1553 289.1766,-103.874 278.6194,-104.7666 281.4804,-111.1553"/>
<g id="a_edge23&#45;headlabel"><a xlink:href="dir_000247_000259.html" target="_top" xlink:title="1">
<text text-anchor="middle" x="279.3601" y="-112.7157" font-family="Helvetica,sans-Serif" font-size="10.00" fill="#000000">1</text>
</a>
</g>
</g>
<!-- dir_7924ba4398ae4560cd37376e44666c6d -->
<g id="node9" class="node">
<title>dir_7924ba4398ae4560cd37376e44666c6d</title>
<g id="a_node9"><a xlink:href="dir_7924ba4398ae4560cd37376e44666c6d.html" target="_top" xlink:title="common">
<polygon fill="none" stroke="#ff0000" points="215.1483,-108 156.1483,-108 156.1483,-72 215.1483,-72 215.1483,-108"/>
<text text-anchor="middle" x="185.6483" y="-87.5" font-family="Helvetica,sans-Serif" font-size="10.00" fill="#000000">common</text>
</a>
</g>
</g>
<!-- dir_e977c6a9672cee72083a88d55f0ce0c6&#45;&gt;dir_7924ba4398ae4560cd37376e44666c6d -->
<g id="edge24" class="edge">
<title>dir_e977c6a9672cee72083a88d55f0ce0c6&#45;&gt;dir_7924ba4398ae4560cd37376e44666c6d</title>
<path fill="none" stroke="#000000" d="M105.7742,-287.613C93.5566,-256.0421 73.9691,-190.4459 99.6483,-144 109.7248,-125.7748 128.8127,-112.8714 146.4505,-104.259"/>
<polygon fill="#000000" stroke="#000000" points="148.3744,-107.2295 156.0336,-99.9092 145.4811,-100.8554 148.3744,-107.2295"/>
<g id="a_edge24&#45;headlabel"><a xlink:href="dir_000247_000081.html" target="_top" xlink:title="2">
<text text-anchor="middle" x="146.2747" y="-108.8005" font-family="Helvetica,sans-Serif" font-size="10.00" fill="#000000">2</text>
</a>
</g>
</g>
<!-- dir_f511f1e9c03c071966ae594f00bbc5e0 -->
<g id="node10" class="node">
<title>dir_f511f1e9c03c071966ae594f00bbc5e0</title>
<g id="a_node10"><a xlink:href="dir_f511f1e9c03c071966ae594f00bbc5e0.html" target="_top" xlink:title="GPU">
<polygon fill="none" stroke="#ff0000" points="212.6483,-36 158.6483,-36 158.6483,0 212.6483,0 212.6483,-36"/>
<text text-anchor="middle" x="185.6483" y="-15.5" font-family="Helvetica,sans-Serif" font-size="10.00" fill="#000000">GPU</text>
</a>
</g>
</g>
<!-- dir_e977c6a9672cee72083a88d55f0ce0c6&#45;&gt;dir_f511f1e9c03c071966ae594f00bbc5e0 -->
<g id="edge25" class="edge">
<title>dir_e977c6a9672cee72083a88d55f0ce0c6&#45;&gt;dir_f511f1e9c03c071966ae594f00bbc5e0</title>
<path fill="none" stroke="#000000" d="M98.6434,-287.9544C66.0107,-246.4035 -4.7371,-142.1661 43.6483,-72 55.9499,-54.1609 110.9616,-36.975 148.7875,-26.9533"/>
<polygon fill="#000000" stroke="#000000" points="149.6715,-30.3399 158.4736,-24.4429 147.9153,-23.5638 149.6715,-30.3399"/>
<g id="a_edge25&#45;headlabel"><a xlink:href="dir_000247_000715.html" target="_top" xlink:title="3">
<text text-anchor="middle" x="146.9042" y="-31.4901" font-family="Helvetica,sans-Serif" font-size="10.00" fill="#000000">3</text>
</a>
</g>
</g>
<!-- dir_38abbb9c71f32f91a25826cfc3ede3a8 -->
<g id="node3" class="node">
<title>dir_38abbb9c71f32f91a25826cfc3ede3a8</title>
<g id="a_node3"><a xlink:href="dir_38abbb9c71f32f91a25826cfc3ede3a8.html" target="_top" xlink:title="src">
<polygon fill="#ffffff" stroke="#000000" points="81.6483,-396 27.6483,-396 27.6483,-360 81.6483,-360 81.6483,-396"/>
<text text-anchor="middle" x="54.6483" y="-375.5" font-family="Helvetica,sans-Serif" font-size="10.00" fill="#000000">src</text>
</a>
</g>
</g>
<!-- dir_38abbb9c71f32f91a25826cfc3ede3a8&#45;&gt;dir_e977c6a9672cee72083a88d55f0ce0c6 -->
<g id="edge4" class="edge">
<title>dir_38abbb9c71f32f91a25826cfc3ede3a8&#45;&gt;dir_e977c6a9672cee72083a88d55f0ce0c6</title>
<path fill="none" stroke="#000000" d="M69.5365,-359.8314C76.4013,-351.454 84.6784,-341.3531 92.1994,-332.1749"/>
<polygon fill="#000000" stroke="#000000" points="94.9286,-334.3665 98.5597,-324.4133 89.5143,-329.9297 94.9286,-334.3665"/>
<g id="a_edge4&#45;headlabel"><a xlink:href="dir_000268_000247.html" target="_top" xlink:title="12">
<text text-anchor="middle" x="94.8464" y="-336.4464" font-family="Helvetica,sans-Serif" font-size="10.00" fill="#000000">12</text>
</a>
</g>
</g>
<!-- dir_38abbb9c71f32f91a25826cfc3ede3a8&#45;&gt;dir_4ab6b4cc6a7edbff49100e9123df213f -->
<g id="edge1" class="edge">
<title>dir_38abbb9c71f32f91a25826cfc3ede3a8&#45;&gt;dir_4ab6b4cc6a7edbff49100e9123df213f</title>
<path fill="none" stroke="#000000" d="M60.3778,-396.0384C66.8826,-413.1355 79.3178,-437.8155 99.6483,-449 155.3336,-479.6343 180.4735,-462.1756 242.6483,-449 286.0775,-439.7969 332.0412,-417.9783 363.5058,-400.9383"/>
<polygon fill="#000000" stroke="#000000" points="365.3128,-403.9389 372.3834,-396.0485 361.9356,-397.8074 365.3128,-403.9389"/>
<g id="a_edge1&#45;headlabel"><a xlink:href="dir_000268_000031.html" target="_top" xlink:title="2">
<text text-anchor="middle" x="363.534" y="-405.66" font-family="Helvetica,sans-Serif" font-size="10.00" fill="#000000">2</text>
</a>
</g>
</g>
<!-- dir_38abbb9c71f32f91a25826cfc3ede3a8&#45;&gt;dir_2801adc79bf3c286b1b479858d2cade4 -->
<g id="edge2" class="edge">
<title>dir_38abbb9c71f32f91a25826cfc3ede3a8&#45;&gt;dir_2801adc79bf3c286b1b479858d2cade4</title>
<path fill="none" stroke="#000000" d="M81.8639,-363.5328C84.7872,-362.2387 87.7516,-361.0306 90.6483,-360 159.729,-335.4224 181.6912,-345.9589 251.6483,-324 252.2389,-323.8146 252.8327,-323.6247 253.4289,-323.4305"/>
<polygon fill="#000000" stroke="#000000" points="254.9264,-326.6139 263.1946,-319.9892 252.5998,-320.0118 254.9264,-326.6139"/>
<g id="a_edge2&#45;headlabel"><a xlink:href="dir_000268_000090.html" target="_top" xlink:title="2">
<text text-anchor="middle" x="252.4798" y="-327.9864" font-family="Helvetica,sans-Serif" font-size="10.00" fill="#000000">2</text>
</a>
</g>
</g>
<!-- dir_051dca18e802f8e9474f2e30d29c04e0 -->
<g id="node7" class="node">
<title>dir_051dca18e802f8e9474f2e30d29c04e0</title>
<g id="a_node7"><a xlink:href="dir_051dca18e802f8e9474f2e30d29c04e0.html" target="_top" xlink:title="Detectors">
<polygon fill="none" stroke="#ff0000" points="293.6483,-180 229.6483,-180 229.6483,-144 293.6483,-144 293.6483,-180"/>
<text text-anchor="middle" x="261.6483" y="-159.5" font-family="Helvetica,sans-Serif" font-size="10.00" fill="#000000">Detectors</text>
</a>
</g>
</g>
<!-- dir_38abbb9c71f32f91a25826cfc3ede3a8&#45;&gt;dir_051dca18e802f8e9474f2e30d29c04e0 -->
<g id="edge3" class="edge">
<title>dir_38abbb9c71f32f91a25826cfc3ede3a8&#45;&gt;dir_051dca18e802f8e9474f2e30d29c04e0</title>
<path fill="none" stroke="#000000" d="M81.7683,-364.2408C105.765,-351.7711 138.6323,-333.8802 149.6483,-324 193.8551,-284.3515 229.6278,-223.9406 248.0645,-189.1855"/>
<polygon fill="#000000" stroke="#000000" points="251.2806,-190.5874 252.7975,-180.1017 245.0727,-187.3529 251.2806,-190.5874"/>
<g id="a_edge3&#45;headlabel"><a xlink:href="dir_000268_000043.html" target="_top" xlink:title="1">
<text text-anchor="middle" x="252.1377" y="-192.5872" font-family="Helvetica,sans-Serif" font-size="10.00" fill="#000000">1</text>
</a>
</g>
</g>
<!-- dir_c8fa59d38404a336ce27bd8f626335e9 -->
<g id="node4" class="node">
<title>dir_c8fa59d38404a336ce27bd8f626335e9</title>
<g id="a_node4"><a xlink:href="dir_c8fa59d38404a336ce27bd8f626335e9.html" target="_top" xlink:title="test">
<polygon fill="#ffffff" stroke="#000000" points="153.6483,-396 99.6483,-396 99.6483,-360 153.6483,-360 153.6483,-396"/>
<text text-anchor="middle" x="126.6483" y="-375.5" font-family="Helvetica,sans-Serif" font-size="10.00" fill="#000000">test</text>
</a>
</g>
</g>
<!-- dir_c8fa59d38404a336ce27bd8f626335e9&#45;&gt;dir_e977c6a9672cee72083a88d55f0ce0c6 -->
<g id="edge27" class="edge">
<title>dir_c8fa59d38404a336ce27bd8f626335e9&#45;&gt;dir_e977c6a9672cee72083a88d55f0ce0c6</title>
<path fill="none" stroke="#000000" d="M123.3679,-359.8314C121.9775,-352.131 120.3243,-342.9743 118.7791,-334.4166"/>
<polygon fill="#000000" stroke="#000000" points="122.1942,-333.6322 116.973,-324.4133 115.3056,-334.8761 122.1942,-333.6322"/>
<g id="a_edge27&#45;headlabel"><a xlink:href="dir_000269_000247.html" target="_top" xlink:title="8">
<text text-anchor="middle" x="125.6269" y="-334.1652" font-family="Helvetica,sans-Serif" font-size="10.00" fill="#000000">8</text>
</a>
</g>
</g>
<!-- dir_c8fa59d38404a336ce27bd8f626335e9&#45;&gt;dir_2801adc79bf3c286b1b479858d2cade4 -->
<g id="edge26" class="edge">
<title>dir_c8fa59d38404a336ce27bd8f626335e9&#45;&gt;dir_2801adc79bf3c286b1b479858d2cade4</title>
<path fill="none" stroke="#000000" d="M153.6647,-364.2043C156.6794,-362.7508 159.7186,-361.3224 162.6483,-360 201.5388,-342.4451 212.1244,-340.078 251.6483,-324 252.4845,-323.6599 253.3296,-323.3159 254.1812,-322.9691"/>
<polygon fill="#000000" stroke="#000000" points="255.5157,-326.2048 263.4536,-319.1877 252.8723,-319.7231 255.5157,-326.2048"/>
<g id="a_edge26&#45;headlabel"><a xlink:href="dir_000269_000090.html" target="_top" xlink:title="1">
<text text-anchor="middle" x="253.2594" y="-327.6912" font-family="Helvetica,sans-Serif" font-size="10.00" fill="#000000">1</text>
</a>
</g>
</g>
<!-- dir_bcbb2cf9a3d3d83e5515c82071a07177 -->
<g id="node11" class="node">
<title>dir_bcbb2cf9a3d3d83e5515c82071a07177</title>
<g id="a_node11"><a xlink:href="dir_bcbb2cf9a3d3d83e5515c82071a07177.html" target="_top" xlink:title="Framework">
<polygon fill="none" stroke="#ff0000" points="421.1483,-252 350.1483,-252 350.1483,-216 421.1483,-216 421.1483,-252"/>
<text text-anchor="middle" x="385.6483" y="-231.5" font-family="Helvetica,sans-Serif" font-size="10.00" fill="#000000">Framework</text>
</a>
</g>
</g>
<!-- dir_c8fa59d38404a336ce27bd8f626335e9&#45;&gt;dir_bcbb2cf9a3d3d83e5515c82071a07177 -->
<g id="edge28" class="edge">
<title>dir_c8fa59d38404a336ce27bd8f626335e9&#45;&gt;dir_bcbb2cf9a3d3d83e5515c82071a07177</title>
<path fill="none" stroke="#000000" d="M153.8471,-363.4851C156.7737,-362.2003 159.7435,-361.0074 162.6483,-360 237.2598,-334.1238 273.2175,-371.0423 336.6483,-324 357.1854,-308.7691 370.1068,-282.2741 377.4907,-261.9626"/>
<polygon fill="#000000" stroke="#000000" points="380.8767,-262.8757 380.7691,-252.2815 374.2465,-260.6305 380.8767,-262.8757"/>
<g id="a_edge28&#45;headlabel"><a xlink:href="dir_000269_000015.html" target="_top" xlink:title="1">
<text text-anchor="middle" x="382.4131" y="-264.6911" font-family="Helvetica,sans-Serif" font-size="10.00" fill="#000000">1</text>
</a>
</g>
</g>
<!-- dir_4ab6b4cc6a7edbff49100e9123df213f&#45;&gt;dir_2801adc79bf3c286b1b479858d2cade4 -->
<g id="edge5" class="edge">
<title>dir_4ab6b4cc6a7edbff49100e9123df213f&#45;&gt;dir_2801adc79bf3c286b1b479858d2cade4</title>
<path fill="none" stroke="#000000" d="M372.0307,-361.3008C357.1846,-351.9941 339.5218,-340.244 324.8681,-329.9707"/>
<polygon fill="#000000" stroke="#000000" points="326.8119,-327.0583 316.632,-324.1222 322.759,-332.7657 326.8119,-327.0583"/>
<g id="a_edge5&#45;headlabel"><a xlink:href="dir_000031_000090.html" target="_top" xlink:title="1">
<text text-anchor="middle" x="331.3866" y="-324.3245" font-family="Helvetica,sans-Serif" font-size="10.00" fill="#000000">1</text>
</a>
</g>
</g>
<!-- dir_4ab6b4cc6a7edbff49100e9123df213f&#45;&gt;dir_f511f1e9c03c071966ae594f00bbc5e0 -->
<g id="edge6" class="edge">
<title>dir_4ab6b4cc6a7edbff49100e9123df213f&#45;&gt;dir_f511f1e9c03c071966ae594f00bbc5e0</title>
<path fill="none" stroke="#000000" d="M433.2312,-369.0488C458.718,-361.057 494.344,-346.9832 518.6483,-324 551.1419,-293.2727 563.6483,-278.7214 563.6483,-234 563.6483,-234 563.6483,-234 563.6483,-162 563.6483,-88.9292 318.2418,-40.9198 222.8177,-24.3941"/>
<polygon fill="#000000" stroke="#000000" points="223.1864,-20.9064 212.7392,-22.6686 222.0052,-27.806 223.1864,-20.9064"/>
<g id="a_edge6&#45;headlabel"><a xlink:href="dir_000031_000715.html" target="_top" xlink:title="3">
<text text-anchor="middle" x="227.2086" y="-16.2143" font-family="Helvetica,sans-Serif" font-size="10.00" fill="#000000">3</text>
</a>
</g>
</g>
<!-- dir_4ab6b4cc6a7edbff49100e9123df213f&#45;&gt;dir_bcbb2cf9a3d3d83e5515c82071a07177 -->
<g id="edge7" class="edge">
<title>dir_4ab6b4cc6a7edbff49100e9123df213f&#45;&gt;dir_bcbb2cf9a3d3d83e5515c82071a07177</title>
<path fill="none" stroke="#000000" d="M395.8221,-359.7623C390.4627,-335.201 384.999,-291.2474 383.4983,-262.3541"/>
<polygon fill="#000000" stroke="#000000" points="386.9862,-261.956 383.1256,-252.0896 379.9908,-262.21 386.9862,-261.956"/>
<g id="a_edge7&#45;headlabel"><a xlink:href="dir_000031_000015.html" target="_top" xlink:title="2">
<text text-anchor="middle" x="389.954" y="-262.9453" font-family="Helvetica,sans-Serif" font-size="10.00" fill="#000000">2</text>
</a>
</g>
</g>
<!-- dir_2801adc79bf3c286b1b479858d2cade4&#45;&gt;dir_e977c6a9672cee72083a88d55f0ce0c6 -->
<g id="edge10" class="edge">
<title>dir_2801adc79bf3c286b1b479858d2cade4&#45;&gt;dir_e977c6a9672cee72083a88d55f0ce0c6</title>
<path fill="none" stroke="#000000" d="M263.5617,-306C225.9563,-306 188.3509,-306 150.7454,-306"/>
<polygon fill="#000000" stroke="#000000" points="150.664,-302.5001 140.664,-306 150.6639,-309.5001 150.664,-302.5001"/>
<g id="a_edge10&#45;headlabel"><a xlink:href="dir_000090_000247.html" target="_top" xlink:title="14">
<text text-anchor="middle" x="154.2586" y="-297.1607" font-family="Helvetica,sans-Serif" font-size="10.00" fill="#000000">14</text>
</a>
</g>
</g>
<!-- dir_2801adc79bf3c286b1b479858d2cade4&#45;&gt;dir_4ab6b4cc6a7edbff49100e9123df213f -->
<g id="edge8" class="edge">
<title>dir_2801adc79bf3c286b1b479858d2cade4&#45;&gt;dir_4ab6b4cc6a7edbff49100e9123df213f</title>
<path fill="none" stroke="#000000" d="M327.8029,-323.665C342.2478,-332.7646 359.1089,-343.9961 373.2175,-353.8814"/>
<polygon fill="#000000" stroke="#000000" points="371.4196,-356.8973 381.6001,-359.8314 375.4713,-351.1891 371.4196,-356.8973"/>
<g id="a_edge8&#45;headlabel"><a xlink:href="dir_000090_000031.html" target="_top" xlink:title="17">
<text text-anchor="middle" x="366.845" y="-354.6321" font-family="Helvetica,sans-Serif" font-size="10.00" fill="#000000">17</text>
</a>
</g>
</g>
<!-- dir_2801adc79bf3c286b1b479858d2cade4&#45;&gt;dir_051dca18e802f8e9474f2e30d29c04e0 -->
<g id="edge9" class="edge">
<title>dir_2801adc79bf3c286b1b479858d2cade4&#45;&gt;dir_051dca18e802f8e9474f2e30d29c04e0</title>
<path fill="none" stroke="#000000" d="M286.6691,-287.7623C278.4101,-263.201 267.7574,-219.2474 262.8456,-190.3541"/>
<polygon fill="#000000" stroke="#000000" points="266.2459,-189.4386 261.2612,-180.0896 259.3278,-190.5065 266.2459,-189.4386"/>
<g id="a_edge9&#45;headlabel"><a xlink:href="dir_000090_000043.html" target="_top" xlink:title="15">
<text text-anchor="middle" x="269.6002" y="-190.058" font-family="Helvetica,sans-Serif" font-size="10.00" fill="#000000">15</text>
</a>
</g>
</g>
<!-- dir_2801adc79bf3c286b1b479858d2cade4&#45;&gt;dir_7924ba4398ae4560cd37376e44666c6d -->
<g id="edge11" class="edge">
<title>dir_2801adc79bf3c286b1b479858d2cade4&#45;&gt;dir_7924ba4398ae4560cd37376e44666c6d</title>
<path fill="none" stroke="#000000" d="M283.4711,-287.7524C267.7389,-263.7121 240.0707,-219.81 220.6483,-180 210.7704,-159.7532 201.6191,-135.9646 195.1532,-117.9308"/>
<polygon fill="#000000" stroke="#000000" points="198.386,-116.5738 191.7606,-108.3061 191.7841,-118.9009 198.386,-116.5738"/>
<g id="a_edge11&#45;headlabel"><a xlink:href="dir_000090_000081.html" target="_top" xlink:title="46">
<text text-anchor="middle" x="202.2587" y="-116.5201" font-family="Helvetica,sans-Serif" font-size="10.00" fill="#000000">46</text>
</a>
</g>
</g>
<!-- dir_2801adc79bf3c286b1b479858d2cade4&#45;&gt;dir_f511f1e9c03c071966ae594f00bbc5e0 -->
<g id="edge12" class="edge">
<title>dir_2801adc79bf3c286b1b479858d2cade4&#45;&gt;dir_f511f1e9c03c071966ae594f00bbc5e0</title>
<path fill="none" stroke="#000000" d="M269.0196,-287.9555C229.9531,-256.0552 160.1388,-185.6894 137.6483,-108 133.1992,-92.631 132.7256,-87.2239 137.6483,-72 140.8506,-62.0969 146.6215,-52.4827 153.1502,-44.1783"/>
<polygon fill="#000000" stroke="#000000" points="156.0119,-46.2179 159.8646,-36.3483 150.6981,-41.6612 156.0119,-46.2179"/>
<g id="a_edge12&#45;headlabel"><a xlink:href="dir_000090_000715.html" target="_top" xlink:title="9">
<text text-anchor="middle" x="155.8274" y="-48.2948" font-family="Helvetica,sans-Serif" font-size="10.00" fill="#000000">9</text>
</a>
</g>
</g>
<!-- dir_2801adc79bf3c286b1b479858d2cade4&#45;&gt;dir_bcbb2cf9a3d3d83e5515c82071a07177 -->
<g id="edge13" class="edge">
<title>dir_2801adc79bf3c286b1b479858d2cade4&#45;&gt;dir_bcbb2cf9a3d3d83e5515c82071a07177</title>
<path fill="none" stroke="#000000" d="M312.4068,-287.8314C322.726,-278.8779 336.222,-267.9558 348.8566,-258.2955"/>
<polygon fill="#000000" stroke="#000000" points="351.114,-260.9769 356.993,-252.1628 346.9006,-255.3869 351.114,-260.9769"/>
<g id="a_edge13&#45;headlabel"><a xlink:href="dir_000090_000015.html" target="_top" xlink:title="15">
<text text-anchor="middle" x="349.9524" y="-262.9079" font-family="Helvetica,sans-Serif" font-size="10.00" fill="#000000">15</text>
</a>
</g>
</g>
<!-- dir_051dca18e802f8e9474f2e30d29c04e0&#45;&gt;dir_e977c6a9672cee72083a88d55f0ce0c6 -->
<g id="edge16" class="edge">
<title>dir_051dca18e802f8e9474f2e30d29c04e0&#45;&gt;dir_e977c6a9672cee72083a88d55f0ce0c6</title>
<path fill="none" stroke="#000000" d="M243.0562,-180.0896C217.0063,-205.4355 169.5193,-251.639 139.8823,-280.4751"/>
<polygon fill="#000000" stroke="#000000" points="137.1192,-278.2802 132.3927,-287.7623 142.0007,-283.2973 137.1192,-278.2802"/>
<g id="a_edge16&#45;headlabel"><a xlink:href="dir_000043_000247.html" target="_top" xlink:title="262">
<text text-anchor="middle" x="137.7155" y="-271.2385" font-family="Helvetica,sans-Serif" font-size="10.00" fill="#000000">262</text>
</a>
</g>
</g>
<!-- dir_051dca18e802f8e9474f2e30d29c04e0&#45;&gt;dir_4ab6b4cc6a7edbff49100e9123df213f -->
<g id="edge14" class="edge">
<title>dir_051dca18e802f8e9474f2e30d29c04e0&#45;&gt;dir_4ab6b4cc6a7edbff49100e9123df213f</title>
<path fill="none" stroke="#000000" d="M293.9062,-167.6749C338.2428,-176.2065 414.3902,-193.7371 430.6483,-216 459.8824,-256.0312 436.5648,-316.3056 418.5437,-350.9332"/>
<polygon fill="#000000" stroke="#000000" points="415.3285,-349.5208 413.6494,-359.9818 421.4855,-352.8512 415.3285,-349.5208"/>
<g id="a_edge14&#45;headlabel"><a xlink:href="dir_000043_000031.html" target="_top" xlink:title="292">
<text text-anchor="middle" x="414.5413" y="-342.5083" font-family="Helvetica,sans-Serif" font-size="10.00" fill="#000000">292</text>
</a>
</g>
</g>
<!-- dir_051dca18e802f8e9474f2e30d29c04e0&#45;&gt;dir_2801adc79bf3c286b1b479858d2cade4 -->
<g id="edge15" class="edge">
<title>dir_051dca18e802f8e9474f2e30d29c04e0&#45;&gt;dir_2801adc79bf3c286b1b479858d2cade4</title>
<path fill="none" stroke="#000000" d="M270.5778,-180.0896C278.8635,-204.6805 289.5805,-248.905 294.4862,-277.8531"/>
<polygon fill="#000000" stroke="#000000" points="291.0311,-278.4131 296.0154,-287.7623 297.9492,-277.3455 291.0311,-278.4131"/>
<g id="a_edge15&#45;headlabel"><a xlink:href="dir_000043_000090.html" target="_top" xlink:title="706">
<text text-anchor="middle" x="287.6769" y="-272.7935" font-family="Helvetica,sans-Serif" font-size="10.00" fill="#000000">706</text>
</a>
</g>
</g>
<!-- dir_051dca18e802f8e9474f2e30d29c04e0&#45;&gt;dir_d462256f2f72f303235b8fb5b5a9f479 -->
<g id="edge17" class="edge">
<title>dir_051dca18e802f8e9474f2e30d29c04e0&#45;&gt;dir_d462256f2f72f303235b8fb5b5a9f479</title>
<path fill="none" stroke="#000000" d="M277.7983,-143.8314C285.32,-135.3694 294.4049,-125.1489 302.6287,-115.8971"/>
<polygon fill="#000000" stroke="#000000" points="305.2533,-118.2127 309.281,-108.4133 300.0214,-113.5621 305.2533,-118.2127"/>
<g id="a_edge17&#45;headlabel"><a xlink:href="dir_000043_000259.html" target="_top" xlink:title="37">
<text text-anchor="middle" x="304.9873" y="-120.2856" font-family="Helvetica,sans-Serif" font-size="10.00" fill="#000000">37</text>
</a>
</g>
</g>
<!-- dir_051dca18e802f8e9474f2e30d29c04e0&#45;&gt;dir_7924ba4398ae4560cd37376e44666c6d -->
<g id="edge18" class="edge">
<title>dir_051dca18e802f8e9474f2e30d29c04e0&#45;&gt;dir_7924ba4398ae4560cd37376e44666c6d</title>
<path fill="none" stroke="#000000" d="M242.4703,-143.8314C233.2895,-135.1337 222.1477,-124.5783 212.1708,-115.1265"/>
<polygon fill="#000000" stroke="#000000" points="214.4869,-112.4995 204.8202,-108.1628 209.6727,-117.5811 214.4869,-112.4995"/>
<g id="a_edge18&#45;headlabel"><a xlink:href="dir_000043_000081.html" target="_top" xlink:title="60">
<text text-anchor="middle" x="219.0491" y="-110.4104" font-family="Helvetica,sans-Serif" font-size="10.00" fill="#000000">60</text>
</a>
</g>
</g>
<!-- dir_051dca18e802f8e9474f2e30d29c04e0&#45;&gt;dir_f511f1e9c03c071966ae594f00bbc5e0 -->
<g id="edge19" class="edge">
<title>dir_051dca18e802f8e9474f2e30d29c04e0&#45;&gt;dir_f511f1e9c03c071966ae594f00bbc5e0</title>
<path fill="none" stroke="#000000" d="M248.5433,-143.8824C239.5075,-125.3206 227.892,-95.8801 214.6483,-72 209.5316,-62.7738 203.1827,-53.2023 197.567,-44.7262"/>
<polygon fill="#000000" stroke="#000000" points="200.4795,-42.785 192.0626,-36.3501 194.6295,-46.6293 200.4795,-42.785"/>
<g id="a_edge19&#45;headlabel"><a xlink:href="dir_000043_000715.html" target="_top" xlink:title="89">
<text text-anchor="middle" x="204.8263" y="-41.7297" font-family="Helvetica,sans-Serif" font-size="10.00" fill="#000000">89</text>
</a>
</g>
</g>
<!-- dir_051dca18e802f8e9474f2e30d29c04e0&#45;&gt;dir_bcbb2cf9a3d3d83e5515c82071a07177 -->
<g id="edge20" class="edge">
<title>dir_051dca18e802f8e9474f2e30d29c04e0&#45;&gt;dir_bcbb2cf9a3d3d83e5515c82071a07177</title>
<path fill="none" stroke="#000000" d="M293.9679,-177.479C311.6177,-187.0612 333.3768,-199.5558 351.3181,-210.36"/>
<polygon fill="#000000" stroke="#000000" points="349.9481,-213.6233 360.3103,-215.8314 353.5867,-207.6433 349.9481,-213.6233"/>
<g id="a_edge20&#45;headlabel"><a xlink:href="dir_000043_000015.html" target="_top" xlink:title="866">
<text text-anchor="middle" x="345.4014" y="-211.6804" font-family="Helvetica,sans-Serif" font-size="10.00" fill="#000000">866</text>
</a>
</g>
</g>
<!-- dir_d462256f2f72f303235b8fb5b5a9f479&#45;&gt;dir_4ab6b4cc6a7edbff49100e9123df213f -->
<g id="edge29" class="edge">
<title>dir_d462256f2f72f303235b8fb5b5a9f479&#45;&gt;dir_4ab6b4cc6a7edbff49100e9123df213f</title>
<path fill="none" stroke="#000000" d="M361.9671,-95.9703C408.4482,-104.4374 484.9771,-121.4466 501.6483,-144 549.2022,-208.3322 542.4855,-255.2081 501.6483,-324 488.9085,-345.4609 464.3084,-358.9385 442.8188,-367.062"/>
<polygon fill="#000000" stroke="#000000" points="441.4972,-363.8163 433.2178,-370.4271 443.8126,-370.4223 441.4972,-363.8163"/>
<g id="a_edge29&#45;headlabel"><a xlink:href="dir_000259_000031.html" target="_top" xlink:title="3">
<text text-anchor="middle" x="443.9504" y="-357.4479" font-family="Helvetica,sans-Serif" font-size="10.00" fill="#000000">3</text>
</a>
</g>
</g>
<!-- dir_d462256f2f72f303235b8fb5b5a9f479&#45;&gt;dir_2801adc79bf3c286b1b479858d2cade4 -->
<g id="edge30" class="edge">
<title>dir_d462256f2f72f303235b8fb5b5a9f479&#45;&gt;dir_2801adc79bf3c286b1b479858d2cade4</title>
<path fill="none" stroke="#000000" d="M323.1282,-108.1451C317.8881,-145.8741 305.7861,-233.0083 299.5379,-277.9956"/>
<polygon fill="#000000" stroke="#000000" points="296.0636,-277.569 298.1545,-287.9555 302.997,-278.5321 296.0636,-277.569"/>
<g id="a_edge30&#45;headlabel"><a xlink:href="dir_000259_000090.html" target="_top" xlink:title="1">
<text text-anchor="middle" x="293.7457" y="-271.118" font-family="Helvetica,sans-Serif" font-size="10.00" fill="#000000">1</text>
</a>
</g>
</g>
<!-- dir_7924ba4398ae4560cd37376e44666c6d&#45;&gt;dir_4ab6b4cc6a7edbff49100e9123df213f -->
<g id="edge31" class="edge">
<title>dir_7924ba4398ae4560cd37376e44666c6d&#45;&gt;dir_4ab6b4cc6a7edbff49100e9123df213f</title>
<path fill="none" stroke="#000000" d="M215.3959,-93.9315C272.7151,-103.2856 397.489,-132.6861 450.6483,-216 476.4684,-256.4663 468.9371,-279.2195 451.6483,-324 447.5292,-334.6694 440.2148,-344.5335 432.4734,-352.8319"/>
<polygon fill="#000000" stroke="#000000" points="429.9136,-350.442 425.3234,-359.9909 434.8665,-355.3887 429.9136,-350.442"/>
<g id="a_edge31&#45;headlabel"><a xlink:href="dir_000081_000031.html" target="_top" xlink:title="2">
<text text-anchor="middle" x="430.4448" y="-343.3923" font-family="Helvetica,sans-Serif" font-size="10.00" fill="#000000">2</text>
</a>
</g>
</g>
<!-- dir_7924ba4398ae4560cd37376e44666c6d&#45;&gt;dir_f511f1e9c03c071966ae594f00bbc5e0 -->
<g id="edge32" class="edge">
<title>dir_7924ba4398ae4560cd37376e44666c6d&#45;&gt;dir_f511f1e9c03c071966ae594f00bbc5e0</title>
<path fill="none" stroke="#000000" d="M185.6483,-71.8314C185.6483,-64.131 185.6483,-54.9743 185.6483,-46.4166"/>
<polygon fill="#000000" stroke="#000000" points="189.1484,-46.4132 185.6483,-36.4133 182.1484,-46.4133 189.1484,-46.4132"/>
<g id="a_edge32&#45;headlabel"><a xlink:href="dir_000081_000715.html" target="_top" xlink:title="4">
<text text-anchor="middle" x="191.9876" y="-47.5079" font-family="Helvetica,sans-Serif" font-size="10.00" fill="#000000">4</text>
</a>
</g>
</g>
<!-- dir_f511f1e9c03c071966ae594f00bbc5e0&#45;&gt;dir_e977c6a9672cee72083a88d55f0ce0c6 -->
<g id="edge36" class="edge">
<title>dir_f511f1e9c03c071966ae594f00bbc5e0&#45;&gt;dir_e977c6a9672cee72083a88d55f0ce0c6</title>
<path fill="none" stroke="#000000" d="M158.5675,-23.2384C117.2379,-31.8408 41.5298,-50.1996 25.6483,-72 -21.84,-137.1871 3.1322,-185.4209 48.6483,-252 56.5658,-263.5814 67.6378,-274.0452 78.4028,-282.6104"/>
<polygon fill="#000000" stroke="#000000" points="76.4382,-285.5133 86.5178,-288.7772 80.6736,-279.94 76.4382,-285.5133"/>
<g id="a_edge36&#45;headlabel"><a xlink:href="dir_000715_000247.html" target="_top" xlink:title="4">
<text text-anchor="middle" x="71.8583" y="-283.099" font-family="Helvetica,sans-Serif" font-size="10.00" fill="#000000">4</text>
</a>
</g>
</g>
<!-- dir_f511f1e9c03c071966ae594f00bbc5e0&#45;&gt;dir_4ab6b4cc6a7edbff49100e9123df213f -->
<g id="edge33" class="edge">
<title>dir_f511f1e9c03c071966ae594f00bbc5e0&#45;&gt;dir_4ab6b4cc6a7edbff49100e9123df213f</title>
<path fill="none" stroke="#000000" d="M212.7549,-21.5013C302.2978,-34.6065 581.6483,-84.0394 581.6483,-162 581.6483,-234 581.6483,-234 581.6483,-234 581.6483,-278.7214 569.1419,-293.2727 536.6483,-324 510.9126,-348.3368 472.4821,-362.6839 443.2288,-370.3981"/>
<polygon fill="#000000" stroke="#000000" points="442.1662,-367.0554 433.3001,-372.8556 443.8481,-373.8504 442.1662,-367.0554"/>
<g id="a_edge33&#45;headlabel"><a xlink:href="dir_000715_000031.html" target="_top" xlink:title="4">
<text text-anchor="middle" x="444.9734" y="-360.9357" font-family="Helvetica,sans-Serif" font-size="10.00" fill="#000000">4</text>
</a>
</g>
</g>
<!-- dir_f511f1e9c03c071966ae594f00bbc5e0&#45;&gt;dir_2801adc79bf3c286b1b479858d2cade4 -->
<g id="edge34" class="edge">
<title>dir_f511f1e9c03c071966ae594f00bbc5e0&#45;&gt;dir_2801adc79bf3c286b1b479858d2cade4</title>
<path fill="none" stroke="#000000" d="M176.0106,-36.3483C168.7541,-46.1054 159.918,-58.7959 155.6483,-72 150.7256,-87.2239 151.1992,-92.631 155.6483,-108 176.5574,-180.2268 238.3694,-246.1238 272.6216,-280.6669"/>
<polygon fill="#000000" stroke="#000000" points="270.3508,-283.3464 279.8906,-287.9555 275.3073,-278.4033 270.3508,-283.3464"/>
<g id="a_edge34&#45;headlabel"><a xlink:href="dir_000715_000090.html" target="_top" xlink:title="10">
<text text-anchor="middle" x="265.8022" y="-280.3062" font-family="Helvetica,sans-Serif" font-size="10.00" fill="#000000">10</text>
</a>
</g>
</g>
<!-- dir_f511f1e9c03c071966ae594f00bbc5e0&#45;&gt;dir_051dca18e802f8e9474f2e30d29c04e0 -->
<g id="edge35" class="edge">
<title>dir_f511f1e9c03c071966ae594f00bbc5e0&#45;&gt;dir_051dca18e802f8e9474f2e30d29c04e0</title>
<path fill="none" stroke="#000000" d="M208.017,-36.3501C216.6232,-46.511 225.7542,-59.5689 232.6483,-72 243.771,-92.0555 253.7452,-116.033 259.355,-134.1944"/>
<polygon fill="#000000" stroke="#000000" points="256.0006,-135.1955 262.0659,-143.8824 262.7416,-133.3091 256.0006,-135.1955"/>
<g id="a_edge35&#45;headlabel"><a xlink:href="dir_000715_000043.html" target="_top" xlink:title="8">
<text text-anchor="middle" x="252.2978" y="-129.9989" font-family="Helvetica,sans-Serif" font-size="10.00" fill="#000000">8</text>
</a>
</g>
</g>
<!-- dir_bcbb2cf9a3d3d83e5515c82071a07177&#45;&gt;dir_4ab6b4cc6a7edbff49100e9123df213f -->
<g id="edge37" class="edge">
<title>dir_bcbb2cf9a3d3d83e5515c82071a07177&#45;&gt;dir_4ab6b4cc6a7edbff49100e9123df213f</title>
<path fill="none" stroke="#000000" d="M392.4422,-252.0896C397.8012,-276.5727 403.2727,-320.5174 404.7893,-349.4713"/>
<polygon fill="#000000" stroke="#000000" points="401.3026,-349.898 405.1685,-359.7623 408.2978,-349.6402 401.3026,-349.898"/>
<g id="a_edge37&#45;headlabel"><a xlink:href="dir_000015_000031.html" target="_top" xlink:title="8">
<text text-anchor="middle" x="398.333" y="-343.9103" font-family="Helvetica,sans-Serif" font-size="10.00" fill="#000000">8</text>
</a>
</g>
</g>
<!-- dir_bcbb2cf9a3d3d83e5515c82071a07177&#45;&gt;dir_2801adc79bf3c286b1b479858d2cade4 -->
<g id="edge38" class="edge">
<title>dir_bcbb2cf9a3d3d83e5515c82071a07177&#45;&gt;dir_2801adc79bf3c286b1b479858d2cade4</title>
<path fill="none" stroke="#000000" d="M368.8966,-252.1628C358.5788,-261.1154 345.0833,-272.0374 332.4483,-281.6982"/>
<polygon fill="#000000" stroke="#000000" points="330.1904,-279.0172 324.3115,-287.8314 334.4039,-284.6071 330.1904,-279.0172"/>
<g id="a_edge38&#45;headlabel"><a xlink:href="dir_000015_000090.html" target="_top" xlink:title="2">
<text text-anchor="middle" x="331.3519" y="-272.0862" font-family="Helvetica,sans-Serif" font-size="10.00" fill="#000000">2</text>
</a>
</g>
</g>
<!-- dir_bcbb2cf9a3d3d83e5515c82071a07177&#45;&gt;dir_051dca18e802f8e9474f2e30d29c04e0 -->
<g id="edge39" class="edge">
<title>dir_bcbb2cf9a3d3d83e5515c82071a07177&#45;&gt;dir_051dca18e802f8e9474f2e30d29c04e0</title>
<path fill="none" stroke="#000000" d="M350.0881,-216.7542C333.0304,-207.417 312.7544,-195.7445 295.8761,-185.5783"/>
<polygon fill="#000000" stroke="#000000" points="297.2528,-182.319 286.8908,-180.1098 293.6135,-188.2986 297.2528,-182.319"/>
<g id="a_edge39&#45;headlabel"><a xlink:href="dir_000015_000043.html" target="_top" xlink:title="4">
<text text-anchor="middle" x="301.7995" y="-179.2624" font-family="Helvetica,sans-Serif" font-size="10.00" fill="#000000">4</text>
</a>
</g>
</g>
</g>
</svg>
        <g id="navigator" transform="translate(0 0)" fill="#404254">
                <rect fill="#f2f5e9" fill-opacity="0.5" stroke="#606060" stroke-width=".5" x="0" y="0" width="60" height="60"/>
                <use id="zoomplus" xlink:href="#zoomPlus" x="17" y="9" onmousedown="handleZoom(evt,'in')"/>
                <use id="zoomminus" xlink:href="#zoomMin" x="42" y="9" onmousedown="handleZoom(evt,'out')"/>
                <use id="reset" xlink:href="#resetDef" x="30" y="36" onmousedown="handleReset()"/>
                <g id="arrowUp" xlink:href="#dirArrow" transform="translate(30 24)" onmousedown="handlePan(0,-1)">
                  <use xlink:href="#rim" fill="#404040">
                        <set attributeName="fill" to="#808080" begin="arrowUp.mouseover" end="arrowUp.mouseout"/>
                  </use>
                  <path fill="none" stroke="white" stroke-width="1.5" d="M0,-3.0v7 M-2.5,-0.5L0,-3.0L2.5,-0.5"/>
                </g>
                <g id="arrowRight" xlink:href="#dirArrow" transform="rotate(90) translate(36 -43)" onmousedown="handlePan(1,0)">
                  <use xlink:href="#rim" fill="#404040">
                        <set attributeName="fill" to="#808080" begin="arrowRight.mouseover" end="arrowRight.mouseout"/>
                  </use>
                  <path fill="none" stroke="white" stroke-width="1.5" d="M0,-3.0v7 M-2.5,-0.5L0,-3.0L2.5,-0.5"/>
                </g>
                <g id="arrowDown" xlink:href="#dirArrow" transform="rotate(180) translate(-30 -48)" onmousedown="handlePan(0,1)">
                  <use xlink:href="#rim" fill="#404040">
                        <set attributeName="fill" to="#808080" begin="arrowDown.mouseover" end="arrowDown.mouseout"/>
                  </use>
                  <path fill="none" stroke="white" stroke-width="1.5" d="M0,-3.0v7 M-2.5,-0.5L0,-3.0L2.5,-0.5"/>
                </g>
                <g id="arrowLeft" xlink:href="#dirArrow" transform="rotate(270) translate(-36 17)" onmousedown="handlePan(-1,0)">
                  <use xlink:href="#rim" fill="#404040">
                        <set attributeName="fill" to="#808080" begin="arrowLeft.mouseover" end="arrowLeft.mouseout"/>
                  </use>
                  <path fill="none" stroke="white" stroke-width="1.5" d="M0,-3.0v7 M-2.5,-0.5L0,-3.0L2.5,-0.5"/>
                </g>
        </g>
        <svg viewBox="0 0 15 15" width="100%" height="30px" preserveAspectRatio="xMaxYMin meet">
         <g id="arrow_out" transform="scale(0.3 0.3)">
          <a xlink:href="dir_047746f9f311f49446db9474b7431d0d_dep_org.svg" target="_base">
           <rect id="button" ry="5" rx="5" y="6" x="6" height="38" width="38"
                fill="#f2f5e9" fill-opacity="0.5" stroke="#606060" stroke-width="1.0"/>
           <path id="arrow"
             d="M 11.500037,31.436501 C 11.940474,20.09759 22.043105,11.32322 32.158766,21.979434 L 37.068811,17.246167 C 37.068811,17.246167 37.088388,32 37.088388,32 L 22.160133,31.978069 C 22.160133,31.978069 26.997745,27.140456 26.997745,27.140456 C 18.528582,18.264221 13.291696,25.230495 11.500037,31.436501 z"
             style="fill:#404040;"/>
          </a>
         </g>
        </svg>
</svg>
