<?xml version="1.0" encoding="UTF-8" standalone="no"?>
<!DOCTYPE svg PUBLIC "-//W3C//DTD SVG 1.1//EN"
 "http://www.w3.org/Graphics/SVG/1.1/DTD/svg11.dtd">
<!-- Generated by graphviz version 2.40.1 (20161225.0304)
 -->
<!-- Title: /home/travis/build/AliceO2Group/AliceO2/Detectors/TPC/reconstruction/include Pages: 1 -->
<!--zoomable 591 -->
<svg id="main" version="1.1" xmlns="http://www.w3.org/2000/svg" xmlns:xlink="http://www.w3.org/1999/xlink" xml:space="preserve" onload="init(evt)">
<style type="text/css"><![CDATA[
.edge:hover path { stroke: red; }
.edge:hover polygon { stroke: red; fill: red; }
]]></style>
<script type="text/javascript"><![CDATA[
var edges = document.getElementsByTagName('g');
if (edges && edges.length) {
  for (var i=0;i<edges.length;i++) {
    if (edges[i].id.substr(0,4)=='edge') {
      edges[i].setAttribute('class','edge');
    }
  }
}
]]></script>
        <defs>
                <circle id="rim" cx="0" cy="0" r="7"/>
                <circle id="rim2" cx="0" cy="0" r="3.5"/>
                <g id="zoomPlus">
                        <use xlink:href="#rim" fill="#404040">
                                <set attributeName="fill" to="#808080" begin="zoomplus.mouseover" end="zoomplus.mouseout"/>
                        </use>
                        <path d="M-4,0h8M0,-4v8" fill="none" stroke="white" stroke-width="1.5" pointer-events="none"/>
                </g>
                <g id="zoomMin">
                        <use xlink:href="#rim" fill="#404040">
                                <set attributeName="fill" to="#808080" begin="zoomminus.mouseover" end="zoomminus.mouseout"/>
                        </use>
                        <path d="M-4,0h8" fill="none" stroke="white" stroke-width="1.5" pointer-events="none"/>
                </g>
                <g id="dirArrow">
                        <path fill="none" stroke="white" stroke-width="1.5" d="M0,-3.0v7 M-2.5,-0.5L0,-3.0L2.5,-0.5"/>
                </g>
               <g id="resetDef">
                       <use xlink:href="#rim2" fill="#404040">
                               <set attributeName="fill" to="#808080" begin="reset.mouseover" end="reset.mouseout"/>
                       </use>
               </g>
        </defs>

<script type="text/javascript">
var viewWidth = 498;
var viewHeight = 591;
var sectionId = 'dynsection-0';
</script>
<script xlink:href="svgpan.js"/>
<svg id="graph" class="graph">
<g id="viewport">
<title>/home/travis/build/AliceO2Group/AliceO2/Detectors/TPC/reconstruction/include</title>
<g id="clust1" class="cluster">
<title>clusterdir_a5de047958dd458e809773c6ffaa8478</title>
<g id="a_clust1"><a xlink:href="dir_a5de047958dd458e809773c6ffaa8478.html" target="_top" xlink:title="reconstruction">
<polygon fill="#ddddee" stroke="#000000" points="83,-488 83,-575 294,-575 294,-488 83,-488"/>
<text text-anchor="middle" x="188.5" y="-563" font-family="Helvetica,sans-Serif" font-size="10.00" fill="#000000">reconstruction</text>
</a>
</g>
</g>
<g id="clust2" class="cluster">
<title>clusterdir_396d171119822f66a36fe1ebf998d1a3</title>
<g id="a_clust2"><a xlink:href="dir_396d171119822f66a36fe1ebf998d1a3.html" target="_top">
<polygon fill="#eeeeff" stroke="#000000" points="91,-496 91,-548 286,-548 286,-496 91,-496"/>
</a>
</g>
</g>
<!-- dir_396d171119822f66a36fe1ebf998d1a3 -->
<g id="node1" class="node">
<title>dir_396d171119822f66a36fe1ebf998d1a3</title>
<text text-anchor="middle" x="251" y="-519.5" font-family="Helvetica,sans-Serif" font-size="10.00" fill="#000000">include</text>
</g>
<!-- dir_1dfaa3fb6e801ddc70b8194facd2138d -->
<g id="node2" class="node">
<title>dir_1dfaa3fb6e801ddc70b8194facd2138d</title>
<g id="a_node2"><a xlink:href="dir_1dfaa3fb6e801ddc70b8194facd2138d.html" target="_top" xlink:title="TPCReconstruction">
<polygon fill="#ffffff" stroke="#000000" points="205.5,-540 98.5,-540 98.5,-504 205.5,-504 205.5,-540"/>
<text text-anchor="middle" x="152" y="-519.5" font-family="Helvetica,sans-Serif" font-size="10.00" fill="#000000">TPCReconstruction</text>
</a>
</g>
</g>
<!-- dir_677b030cc750909e4cd27413873678d8 -->
<g id="node3" class="node">
<title>dir_677b030cc750909e4cd27413873678d8</title>
<g id="a_node3"><a xlink:href="dir_677b030cc750909e4cd27413873678d8.html" target="_top" xlink:title="base">
<polygon fill="none" stroke="#ff0000" points="179,-468 125,-468 125,-432 179,-432 179,-468"/>
<text text-anchor="middle" x="152" y="-447.5" font-family="Helvetica,sans-Serif" font-size="10.00" fill="#000000">base</text>
</a>
</g>
</g>
<!-- dir_1dfaa3fb6e801ddc70b8194facd2138d&#45;&gt;dir_677b030cc750909e4cd27413873678d8 -->
<g id="edge19" class="edge">
<title>dir_1dfaa3fb6e801ddc70b8194facd2138d&#45;&gt;dir_677b030cc750909e4cd27413873678d8</title>
<path fill="none" stroke="#000000" d="M152,-503.8314C152,-496.131 152,-486.9743 152,-478.4166"/>
<polygon fill="#000000" stroke="#000000" points="155.5001,-478.4132 152,-468.4133 148.5001,-478.4133 155.5001,-478.4132"/>
<g id="a_edge19&#45;headlabel"><a xlink:href="dir_000379_000054.html" target="_top" xlink:title="9">
<text text-anchor="middle" x="158.3393" y="-479.5079" font-family="Helvetica,sans-Serif" font-size="10.00" fill="#000000">9</text>
</a>
</g>
</g>
<!-- dir_4ab6b4cc6a7edbff49100e9123df213f -->
<g id="node4" class="node">
<title>dir_4ab6b4cc6a7edbff49100e9123df213f</title>
<g id="a_node4"><a xlink:href="dir_4ab6b4cc6a7edbff49100e9123df213f.html" target="_top" xlink:title="Common">
<polygon fill="none" stroke="#ff0000" points="267.5,-396 206.5,-396 206.5,-360 267.5,-360 267.5,-396"/>
<text text-anchor="middle" x="237" y="-375.5" font-family="Helvetica,sans-Serif" font-size="10.00" fill="#000000">Common</text>
</a>
</g>
</g>
<!-- dir_1dfaa3fb6e801ddc70b8194facd2138d&#45;&gt;dir_4ab6b4cc6a7edbff49100e9123df213f -->
<g id="edge20" class="edge">
<title>dir_1dfaa3fb6e801ddc70b8194facd2138d&#45;&gt;dir_4ab6b4cc6a7edbff49100e9123df213f</title>
<path fill="none" stroke="#000000" d="M164.7442,-503.7688C171.8253,-493.424 180.6609,-480.1527 188,-468 200.4158,-447.4407 213.3633,-423.5368 222.829,-405.5332"/>
<polygon fill="#000000" stroke="#000000" points="226.1779,-406.6813 227.704,-396.1969 219.9729,-403.4412 226.1779,-406.6813"/>
<g id="a_edge20&#45;headlabel"><a xlink:href="dir_000379_000031.html" target="_top" xlink:title="2">
<text text-anchor="middle" x="227.031" y="-408.6818" font-family="Helvetica,sans-Serif" font-size="10.00" fill="#000000">2</text>
</a>
</g>
</g>
<!-- dir_b05a5fa85f84bfc9013183c9d87f9a36 -->
<g id="node5" class="node">
<title>dir_b05a5fa85f84bfc9013183c9d87f9a36</title>
<g id="a_node5"><a xlink:href="dir_b05a5fa85f84bfc9013183c9d87f9a36.html" target="_top" xlink:title="Utilities">
<polygon fill="none" stroke="#ff0000" points="331.5,-36 276.5,-36 276.5,0 331.5,0 331.5,-36"/>
<text text-anchor="middle" x="304" y="-15.5" font-family="Helvetica,sans-Serif" font-size="10.00" fill="#000000">Utilities</text>
</a>
</g>
</g>
<!-- dir_1dfaa3fb6e801ddc70b8194facd2138d&#45;&gt;dir_b05a5fa85f84bfc9013183c9d87f9a36 -->
<g id="edge21" class="edge">
<title>dir_1dfaa3fb6e801ddc70b8194facd2138d&#45;&gt;dir_b05a5fa85f84bfc9013183c9d87f9a36</title>
<path fill="none" stroke="#000000" d="M105.4274,-503.8828C86.9361,-495.0617 66.4411,-483.0664 51,-468 18.0933,-435.8919 0,-423.9758 0,-378 0,-378 0,-378 0,-162 0,-103.6157 185.4509,-48.5881 266.6606,-27.2902"/>
<polygon fill="#000000" stroke="#000000" points="267.6831,-30.641 276.4859,-24.745 265.9277,-23.8646 267.6831,-30.641"/>
<g id="a_edge21&#45;headlabel"><a xlink:href="dir_000379_000601.html" target="_top" xlink:title="1">
<text text-anchor="middle" x="264.9154" y="-31.7909" font-family="Helvetica,sans-Serif" font-size="10.00" fill="#000000">1</text>
</a>
</g>
</g>
<!-- dir_37c90836491b695b472bf98d1be8336b -->
<g id="node6" class="node">
<title>dir_37c90836491b695b472bf98d1be8336b</title>
<g id="a_node6"><a xlink:href="dir_37c90836491b695b472bf98d1be8336b.html" target="_top" xlink:title="Base">
<polygon fill="none" stroke="#ff0000" points="363,-108 309,-108 309,-72 363,-72 363,-108"/>
<text text-anchor="middle" x="336" y="-87.5" font-family="Helvetica,sans-Serif" font-size="10.00" fill="#000000">Base</text>
</a>
</g>
</g>
<!-- dir_1dfaa3fb6e801ddc70b8194facd2138d&#45;&gt;dir_37c90836491b695b472bf98d1be8336b -->
<g id="edge22" class="edge">
<title>dir_1dfaa3fb6e801ddc70b8194facd2138d&#45;&gt;dir_37c90836491b695b472bf98d1be8336b</title>
<path fill="none" stroke="#000000" d="M183.6878,-503.9843C193.5943,-498.6007 204.6435,-492.8465 215,-488 334.2279,-432.2049 490,-509.6374 490,-378 490,-378 490,-378 490,-234 490,-169.9259 417.9956,-126.1487 372.4577,-104.8696"/>
<polygon fill="#000000" stroke="#000000" points="373.7313,-101.6043 363.1776,-100.6712 370.8459,-107.982 373.7313,-101.6043"/>
<g id="a_edge22&#45;headlabel"><a xlink:href="dir_000379_000275.html" target="_top" xlink:title="1">
<text text-anchor="middle" x="378.1766" y="-97.9991" font-family="Helvetica,sans-Serif" font-size="10.00" fill="#000000">1</text>
</a>
</g>
</g>
<!-- dir_f511f1e9c03c071966ae594f00bbc5e0 -->
<g id="node7" class="node">
<title>dir_f511f1e9c03c071966ae594f00bbc5e0</title>
<g id="a_node7"><a xlink:href="dir_f511f1e9c03c071966ae594f00bbc5e0.html" target="_top" xlink:title="GPU">
<polygon fill="none" stroke="#ff0000" points="328,-324 274,-324 274,-288 328,-288 328,-324"/>
<text text-anchor="middle" x="301" y="-303.5" font-family="Helvetica,sans-Serif" font-size="10.00" fill="#000000">GPU</text>
</a>
</g>
</g>
<!-- dir_1dfaa3fb6e801ddc70b8194facd2138d&#45;&gt;dir_f511f1e9c03c071966ae594f00bbc5e0 -->
<g id="edge23" class="edge">
<title>dir_1dfaa3fb6e801ddc70b8194facd2138d&#45;&gt;dir_f511f1e9c03c071966ae594f00bbc5e0</title>
<path fill="none" stroke="#000000" d="M176.8859,-503.8191C205.3681,-481.6319 251.2612,-441.414 276,-396 286.5544,-376.6248 292.9516,-352.4232 296.6293,-333.9979"/>
<polygon fill="#000000" stroke="#000000" points="300.0716,-334.6301 298.4465,-324.1606 293.1881,-333.3584 300.0716,-334.6301"/>
<g id="a_edge23&#45;headlabel"><a xlink:href="dir_000379_000715.html" target="_top" xlink:title="1">
<text text-anchor="middle" x="302.2108" y="-336.1806" font-family="Helvetica,sans-Serif" font-size="10.00" fill="#000000">1</text>
</a>
</g>
</g>
<!-- dir_26637d1bd82229bc9ed97f7e706be743 -->
<g id="node8" class="node">
<title>dir_26637d1bd82229bc9ed97f7e706be743</title>
<g id="a_node8"><a xlink:href="dir_26637d1bd82229bc9ed97f7e706be743.html" target="_top" xlink:title="Raw">
<polygon fill="none" stroke="#ff0000" points="198,-252 144,-252 144,-216 198,-216 198,-252"/>
<text text-anchor="middle" x="171" y="-231.5" font-family="Helvetica,sans-Serif" font-size="10.00" fill="#000000">Raw</text>
</a>
</g>
</g>
<!-- dir_1dfaa3fb6e801ddc70b8194facd2138d&#45;&gt;dir_26637d1bd82229bc9ed97f7e706be743 -->
<g id="edge24" class="edge">
<title>dir_1dfaa3fb6e801ddc70b8194facd2138d&#45;&gt;dir_26637d1bd82229bc9ed97f7e706be743</title>
<path fill="none" stroke="#000000" d="M136.0095,-503.9169C128.3462,-494.0371 119.9834,-481.1563 116,-468 111.3635,-452.6865 113.839,-447.8534 116,-432 124.4564,-369.9613 147.1669,-299.9285 160.6135,-262.0189"/>
<polygon fill="#000000" stroke="#000000" points="164.0498,-262.8061 164.1409,-252.2116 157.4629,-260.4369 164.0498,-262.8061"/>
<g id="a_edge24&#45;headlabel"><a xlink:href="dir_000379_000606.html" target="_top" xlink:title="1">
<text text-anchor="middle" x="165.505" y="-264.6495" font-family="Helvetica,sans-Serif" font-size="10.00" fill="#000000">1</text>
</a>
</g>
</g>
<!-- dir_2171f7ec022c5423887b07c69b2f5b48 -->
<g id="node9" class="node">
<title>dir_2171f7ec022c5423887b07c69b2f5b48</title>
<g id="a_node9"><a xlink:href="dir_2171f7ec022c5423887b07c69b2f5b48.html" target="_top" xlink:title="DataFormats">
<polygon fill="none" stroke="#ff0000" points="310,-180 230,-180 230,-144 310,-144 310,-180"/>
<text text-anchor="middle" x="270" y="-159.5" font-family="Helvetica,sans-Serif" font-size="10.00" fill="#000000">DataFormats</text>
</a>
</g>
</g>
<!-- dir_1dfaa3fb6e801ddc70b8194facd2138d&#45;&gt;dir_2171f7ec022c5423887b07c69b2f5b48 -->
<g id="edge25" class="edge">
<title>dir_1dfaa3fb6e801ddc70b8194facd2138d&#45;&gt;dir_2171f7ec022c5423887b07c69b2f5b48</title>
<path fill="none" stroke="#000000" d="M123.8202,-503.8002C90.0616,-479.5315 38,-433.1626 38,-378 38,-378 38,-378 38,-306 38,-221.1163 151.5,-184.5274 219.7259,-170.2012"/>
<polygon fill="#000000" stroke="#000000" points="220.7384,-173.5679 229.8535,-168.1674 219.3602,-166.7049 220.7384,-173.5679"/>
<g id="a_edge25&#45;headlabel"><a xlink:href="dir_000379_000080.html" target="_top" xlink:title="23">
<text text-anchor="middle" x="217.7731" y="-174.5592" font-family="Helvetica,sans-Serif" font-size="10.00" fill="#000000">23</text>
</a>
</g>
</g>
<!-- dir_677b030cc750909e4cd27413873678d8&#45;&gt;dir_4ab6b4cc6a7edbff49100e9123df213f -->
<g id="edge1" class="edge">
<title>dir_677b030cc750909e4cd27413873678d8&#45;&gt;dir_4ab6b4cc6a7edbff49100e9123df213f</title>
<path fill="none" stroke="#000000" d="M173.4491,-431.8314C183.8178,-423.0485 196.4229,-412.3712 207.6646,-402.8489"/>
<polygon fill="#000000" stroke="#000000" points="210.1895,-405.297 215.5578,-396.1628 205.6651,-399.9556 210.1895,-405.297"/>
<g id="a_edge1&#45;headlabel"><a xlink:href="dir_000054_000031.html" target="_top" xlink:title="14">
<text text-anchor="middle" x="209.2818" y="-407.2868" font-family="Helvetica,sans-Serif" font-size="10.00" fill="#000000">14</text>
</a>
</g>
</g>
<!-- dir_677b030cc750909e4cd27413873678d8&#45;&gt;dir_26637d1bd82229bc9ed97f7e706be743 -->
<g id="edge2" class="edge">
<title>dir_677b030cc750909e4cd27413873678d8&#45;&gt;dir_26637d1bd82229bc9ed97f7e706be743</title>
<path fill="none" stroke="#000000" d="M153.5872,-431.9555C156.8983,-394.3144 164.5623,-307.1867 168.5261,-262.1246"/>
<polygon fill="#000000" stroke="#000000" points="172.0141,-262.4133 169.4039,-252.1451 165.041,-261.7999 172.0141,-262.4133"/>
<g id="a_edge2&#45;headlabel"><a xlink:href="dir_000054_000606.html" target="_top" xlink:title="2">
<text text-anchor="middle" x="174.5276" y="-263.7429" font-family="Helvetica,sans-Serif" font-size="10.00" fill="#000000">2</text>
</a>
</g>
</g>
<!-- dir_677b030cc750909e4cd27413873678d8&#45;&gt;dir_2171f7ec022c5423887b07c69b2f5b48 -->
<g id="edge3" class="edge">
<title>dir_677b030cc750909e4cd27413873678d8&#45;&gt;dir_2171f7ec022c5423887b07c69b2f5b48</title>
<path fill="none" stroke="#000000" d="M143.7603,-431.9401C125.9404,-389.9103 88.9863,-283.9637 135,-216 153.8812,-188.1118 189.7496,-174.6252 219.7706,-168.1038"/>
<polygon fill="#000000" stroke="#000000" points="220.5598,-171.5157 229.6945,-166.1485 219.2065,-164.6477 220.5598,-171.5157"/>
<g id="a_edge3&#45;headlabel"><a xlink:href="dir_000054_000080.html" target="_top" xlink:title="21">
<text text-anchor="middle" x="217.5818" y="-172.4962" font-family="Helvetica,sans-Serif" font-size="10.00" fill="#000000">21</text>
</a>
</g>
</g>
<!-- dir_4ab6b4cc6a7edbff49100e9123df213f&#45;&gt;dir_f511f1e9c03c071966ae594f00bbc5e0 -->
<g id="edge4" class="edge">
<title>dir_4ab6b4cc6a7edbff49100e9123df213f&#45;&gt;dir_f511f1e9c03c071966ae594f00bbc5e0</title>
<path fill="none" stroke="#000000" d="M247.1975,-359.8314C253.8946,-351.3694 262.7943,-341.1489 271.4724,-331.8971"/>
<polygon fill="#000000" stroke="#000000" points="274.2563,-334.0511 278.6566,-324.4133 269.2065,-329.2034 274.2563,-334.0511"/>
<g id="a_edge4&#45;headlabel"><a xlink:href="dir_000031_000715.html" target="_top" xlink:title="3">
<text text-anchor="middle" x="273.8152" y="-336.1105" font-family="Helvetica,sans-Serif" font-size="10.00" fill="#000000">3</text>
</a>
</g>
</g>
<!-- dir_4ab6b4cc6a7edbff49100e9123df213f&#45;&gt;dir_2171f7ec022c5423887b07c69b2f5b48 -->
<g id="edge5" class="edge">
<title>dir_4ab6b4cc6a7edbff49100e9123df213f&#45;&gt;dir_2171f7ec022c5423887b07c69b2f5b48</title>
<path fill="none" stroke="#000000" d="M235.8109,-359.9555C238.1032,-322.3144 251.155,-235.1867 260.9793,-190.1246"/>
<polygon fill="#000000" stroke="#000000" points="264.444,-190.675 263.2727,-180.1451 257.6218,-189.1071 264.444,-190.675"/>
<g id="a_edge5&#45;headlabel"><a xlink:href="dir_000031_000080.html" target="_top" xlink:title="2">
<text text-anchor="middle" x="266.4061" y="-192.3141" font-family="Helvetica,sans-Serif" font-size="10.00" fill="#000000">2</text>
</a>
</g>
</g>
<!-- dir_b05a5fa85f84bfc9013183c9d87f9a36&#45;&gt;dir_4ab6b4cc6a7edbff49100e9123df213f -->
<g id="edge6" class="edge">
<title>dir_b05a5fa85f84bfc9013183c9d87f9a36&#45;&gt;dir_4ab6b4cc6a7edbff49100e9123df213f</title>
<path fill="none" stroke="#000000" d="M331.6943,-35.5048C345.1507,-45.0468 360.7926,-57.7996 372,-72 399.3467,-106.6497 414,-117.8588 414,-162 414,-234 414,-234 414,-234 414,-303.9654 329.7521,-345.9317 277.5033,-365.2308"/>
<polygon fill="#000000" stroke="#000000" points="276.0737,-362.0246 267.831,-368.6812 278.4257,-368.6177 276.0737,-362.0246"/>
<g id="a_edge6&#45;headlabel"><a xlink:href="dir_000601_000031.html" target="_top" xlink:title="1">
<text text-anchor="middle" x="278.5054" y="-355.6427" font-family="Helvetica,sans-Serif" font-size="10.00" fill="#000000">1</text>
</a>
</g>
</g>
<!-- dir_b05a5fa85f84bfc9013183c9d87f9a36&#45;&gt;dir_2171f7ec022c5423887b07c69b2f5b48 -->
<g id="edge7" class="edge">
<title>dir_b05a5fa85f84bfc9013183c9d87f9a36&#45;&gt;dir_2171f7ec022c5423887b07c69b2f5b48</title>
<path fill="none" stroke="#000000" d="M304.3871,-36.0896C301.0458,-60.7884 290.8043,-105.2933 282.0142,-134.2331"/>
<polygon fill="#000000" stroke="#000000" points="278.6791,-133.1717 278.9793,-143.7623 285.349,-135.296 278.6791,-133.1717"/>
<g id="a_edge7&#45;headlabel"><a xlink:href="dir_000601_000080.html" target="_top" xlink:title="48">
<text text-anchor="middle" x="277.0645" y="-126.385" font-family="Helvetica,sans-Serif" font-size="10.00" fill="#000000">48</text>
</a>
</g>
</g>
<!-- dir_37c90836491b695b472bf98d1be8336b&#45;&gt;dir_4ab6b4cc6a7edbff49100e9123df213f -->
<g id="edge8" class="edge">
<title>dir_37c90836491b695b472bf98d1be8336b&#45;&gt;dir_4ab6b4cc6a7edbff49100e9123df213f</title>
<path fill="none" stroke="#000000" d="M341.9784,-108.0913C354.5665,-149.738 379.3168,-254.1634 337,-324 323.9656,-345.5111 299.1163,-358.9888 277.4508,-367.0999"/>
<polygon fill="#000000" stroke="#000000" points="276.0737,-363.873 267.7742,-370.4585 278.369,-370.486 276.0737,-363.873"/>
<g id="a_edge8&#45;headlabel"><a xlink:href="dir_000275_000031.html" target="_top" xlink:title="16">
<text text-anchor="middle" x="278.5386" y="-357.5121" font-family="Helvetica,sans-Serif" font-size="10.00" fill="#000000">16</text>
</a>
</g>
</g>
<!-- dir_37c90836491b695b472bf98d1be8336b&#45;&gt;dir_b05a5fa85f84bfc9013183c9d87f9a36 -->
<g id="edge9" class="edge">
<title>dir_37c90836491b695b472bf98d1be8336b&#45;&gt;dir_b05a5fa85f84bfc9013183c9d87f9a36</title>
<path fill="none" stroke="#000000" d="M327.925,-71.8314C324.3898,-63.8771 320.164,-54.369 316.2544,-45.5723"/>
<polygon fill="#000000" stroke="#000000" points="319.4435,-44.1299 312.1837,-36.4133 313.0468,-46.9729 319.4435,-44.1299"/>
<g id="a_edge9&#45;headlabel"><a xlink:href="dir_000275_000601.html" target="_top" xlink:title="1">
<text text-anchor="middle" x="323.4979" y="-43.7616" font-family="Helvetica,sans-Serif" font-size="10.00" fill="#000000">1</text>
</a>
</g>
</g>
<!-- dir_37c90836491b695b472bf98d1be8336b&#45;&gt;dir_f511f1e9c03c071966ae594f00bbc5e0 -->
<g id="edge10" class="edge">
<title>dir_37c90836491b695b472bf98d1be8336b&#45;&gt;dir_f511f1e9c03c071966ae594f00bbc5e0</title>
<path fill="none" stroke="#000000" d="M333.0598,-108.1451C326.9463,-145.8741 312.8274,-233.0083 305.5378,-277.9956"/>
<polygon fill="#000000" stroke="#000000" points="302.0685,-277.5244 303.9239,-287.9555 308.9784,-278.6441 302.0685,-277.5244"/>
<g id="a_edge10&#45;headlabel"><a xlink:href="dir_000275_000715.html" target="_top" xlink:title="14">
<text text-anchor="middle" x="299.8407" y="-271.0219" font-family="Helvetica,sans-Serif" font-size="10.00" fill="#000000">14</text>
</a>
</g>
</g>
<!-- dir_37c90836491b695b472bf98d1be8336b&#45;&gt;dir_2171f7ec022c5423887b07c69b2f5b48 -->
<g id="edge11" class="edge">
<title>dir_37c90836491b695b472bf98d1be8336b&#45;&gt;dir_2171f7ec022c5423887b07c69b2f5b48</title>
<path fill="none" stroke="#000000" d="M325.0972,-108.4133C318.0522,-116.9938 308.7351,-127.3414 299.7214,-136.6463"/>
<polygon fill="#000000" stroke="#000000" points="297.156,-134.2628 292.607,-143.8314 302.1301,-139.188 297.156,-134.2628"/>
<g id="a_edge11&#45;headlabel"><a xlink:href="dir_000275_000080.html" target="_top" xlink:title="15">
<text text-anchor="middle" x="297.6676" y="-127.2108" font-family="Helvetica,sans-Serif" font-size="10.00" fill="#000000">15</text>
</a>
</g>
</g>
<!-- dir_f511f1e9c03c071966ae594f00bbc5e0&#45;&gt;dir_4ab6b4cc6a7edbff49100e9123df213f -->
<g id="edge12" class="edge">
<title>dir_f511f1e9c03c071966ae594f00bbc5e0&#45;&gt;dir_4ab6b4cc6a7edbff49100e9123df213f</title>
<path fill="none" stroke="#000000" d="M290.6087,-324.4133C283.8694,-332.9088 274.9509,-343.1366 266.2773,-352.3696"/>
<polygon fill="#000000" stroke="#000000" points="263.5106,-350.1972 259.1023,-359.8314 268.5564,-355.049 263.5106,-350.1972"/>
<g id="a_edge12&#45;headlabel"><a xlink:href="dir_000715_000031.html" target="_top" xlink:title="4">
<text text-anchor="middle" x="263.9555" y="-343.1382" font-family="Helvetica,sans-Serif" font-size="10.00" fill="#000000">4</text>
</a>
</g>
</g>
<!-- dir_f511f1e9c03c071966ae594f00bbc5e0&#45;&gt;dir_b05a5fa85f84bfc9013183c9d87f9a36 -->
<g id="edge13" class="edge">
<title>dir_f511f1e9c03c071966ae594f00bbc5e0&#45;&gt;dir_b05a5fa85f84bfc9013183c9d87f9a36</title>
<path fill="none" stroke="#000000" d="M317.8499,-287.8928C347.1004,-255.0758 406.2298,-182.2638 428,-108 432.5009,-92.6461 436.7689,-85.3831 428,-72 408.9486,-42.9239 370.4625,-29.4179 341.3914,-23.1976"/>
<polygon fill="#000000" stroke="#000000" points="342.0321,-19.7568 331.5485,-21.2877 340.6987,-26.6286 342.0321,-19.7568"/>
<g id="a_edge13&#45;headlabel"><a xlink:href="dir_000715_000601.html" target="_top" xlink:title="4">
<text text-anchor="middle" x="346.1018" y="-15.1541" font-family="Helvetica,sans-Serif" font-size="10.00" fill="#000000">4</text>
</a>
</g>
</g>
<!-- dir_f511f1e9c03c071966ae594f00bbc5e0&#45;&gt;dir_26637d1bd82229bc9ed97f7e706be743 -->
<g id="edge14" class="edge">
<title>dir_f511f1e9c03c071966ae594f00bbc5e0&#45;&gt;dir_26637d1bd82229bc9ed97f7e706be743</title>
<path fill="none" stroke="#000000" d="M273.7303,-293.7862C254.1919,-283.8161 227.8545,-269.4404 206.6802,-257.2843"/>
<polygon fill="#000000" stroke="#000000" points="208.3637,-254.2147 197.9564,-252.2297 204.8543,-260.2715 208.3637,-254.2147"/>
<g id="a_edge14&#45;headlabel"><a xlink:href="dir_000715_000606.html" target="_top" xlink:title="1">
<text text-anchor="middle" x="212.8973" y="-251.06" font-family="Helvetica,sans-Serif" font-size="10.00" fill="#000000">1</text>
</a>
</g>
</g>
<!-- dir_f511f1e9c03c071966ae594f00bbc5e0&#45;&gt;dir_2171f7ec022c5423887b07c69b2f5b48 -->
<g id="edge15" class="edge">
<title>dir_f511f1e9c03c071966ae594f00bbc5e0&#45;&gt;dir_2171f7ec022c5423887b07c69b2f5b48</title>
<path fill="none" stroke="#000000" d="M292.4007,-287.7623C284.6534,-263.201 274.9164,-219.2474 270.6066,-190.3541"/>
<polygon fill="#000000" stroke="#000000" points="274.0288,-189.5384 269.236,-180.0896 267.0904,-190.4649 274.0288,-189.5384"/>
<g id="a_edge15&#45;headlabel"><a xlink:href="dir_000715_000080.html" target="_top" xlink:title="15">
<text text-anchor="middle" x="277.3188" y="-190.2256" font-family="Helvetica,sans-Serif" font-size="10.00" fill="#000000">15</text>
</a>
</g>
</g>
<!-- dir_26637d1bd82229bc9ed97f7e706be743&#45;&gt;dir_4ab6b4cc6a7edbff49100e9123df213f -->
<g id="edge16" class="edge">
<title>dir_26637d1bd82229bc9ed97f7e706be743&#45;&gt;dir_4ab6b4cc6a7edbff49100e9123df213f</title>
<path fill="none" stroke="#000000" d="M179.2911,-252.0896C190.6608,-276.8962 211.1878,-321.6824 224.4468,-350.6113"/>
<polygon fill="#000000" stroke="#000000" points="221.2927,-352.13 228.6411,-359.7623 227.6562,-349.2133 221.2927,-352.13"/>
<g id="a_edge16&#45;headlabel"><a xlink:href="dir_000606_000031.html" target="_top" xlink:title="10">
<text text-anchor="middle" x="217.214" y="-347.5452" font-family="Helvetica,sans-Serif" font-size="10.00" fill="#000000">10</text>
</a>
</g>
</g>
<!-- dir_26637d1bd82229bc9ed97f7e706be743&#45;&gt;dir_f511f1e9c03c071966ae594f00bbc5e0 -->
<g id="edge17" class="edge">
<title>dir_26637d1bd82229bc9ed97f7e706be743&#45;&gt;dir_f511f1e9c03c071966ae594f00bbc5e0</title>
<path fill="none" stroke="#000000" d="M198.3896,-246.275C217.9514,-256.2608 244.2847,-270.6367 265.4354,-282.7821"/>
<polygon fill="#000000" stroke="#000000" points="263.7409,-285.8453 274.1479,-287.8314 267.2509,-279.7889 263.7409,-285.8453"/>
<g id="a_edge17&#45;headlabel"><a xlink:href="dir_000606_000715.html" target="_top" xlink:title="2">
<text text-anchor="middle" x="259.2072" y="-283.9994" font-family="Helvetica,sans-Serif" font-size="10.00" fill="#000000">2</text>
</a>
</g>
</g>
<!-- dir_26637d1bd82229bc9ed97f7e706be743&#45;&gt;dir_2171f7ec022c5423887b07c69b2f5b48 -->
<g id="edge18" class="edge">
<title>dir_26637d1bd82229bc9ed97f7e706be743&#45;&gt;dir_2171f7ec022c5423887b07c69b2f5b48</title>
<path fill="none" stroke="#000000" d="M195.9819,-215.8314C208.2928,-206.8779 223.3107,-195.9558 236.5937,-186.2955"/>
<polygon fill="#000000" stroke="#000000" points="238.9973,-188.8752 245.0261,-180.1628 234.8801,-183.214 238.9973,-188.8752"/>
<g id="a_edge18&#45;headlabel"><a xlink:href="dir_000606_000080.html" target="_top" xlink:title="15">
<text text-anchor="middle" x="237.7602" y="-190.7856" font-family="Helvetica,sans-Serif" font-size="10.00" fill="#000000">15</text>
</a>
</g>
</g>
<!-- dir_2171f7ec022c5423887b07c69b2f5b48&#45;&gt;dir_4ab6b4cc6a7edbff49100e9123df213f -->
<g id="edge26" class="edge">
<title>dir_2171f7ec022c5423887b07c69b2f5b48&#45;&gt;dir_4ab6b4cc6a7edbff49100e9123df213f</title>
<path fill="none" stroke="#000000" d="M271.183,-180.1451C268.8716,-217.8741 255.813,-305.0083 245.9945,-349.9956"/>
<polygon fill="#000000" stroke="#000000" points="242.5343,-349.4253 243.7027,-359.9555 249.356,-350.995 242.5343,-349.4253"/>
<g id="a_edge26&#45;headlabel"><a xlink:href="dir_000080_000031.html" target="_top" xlink:title="36">
<text text-anchor="middle" x="240.5733" y="-342.7856" font-family="Helvetica,sans-Serif" font-size="10.00" fill="#000000">36</text>
</a>
</g>
</g>
<!-- dir_2171f7ec022c5423887b07c69b2f5b48&#45;&gt;dir_b05a5fa85f84bfc9013183c9d87f9a36 -->
<g id="edge27" class="edge">
<title>dir_2171f7ec022c5423887b07c69b2f5b48&#45;&gt;dir_b05a5fa85f84bfc9013183c9d87f9a36</title>
<path fill="none" stroke="#000000" d="M269.633,-143.7623C272.987,-119.0928 283.1647,-74.8598 291.9232,-45.9731"/>
<polygon fill="#000000" stroke="#000000" points="295.3711,-46.6802 295.0705,-36.0896 288.7012,-44.5561 295.3711,-46.6802"/>
<g id="a_edge27&#45;headlabel"><a xlink:href="dir_000080_000601.html" target="_top" xlink:title="1">
<text text-anchor="middle" x="296.9859" y="-48.4668" font-family="Helvetica,sans-Serif" font-size="10.00" fill="#000000">1</text>
</a>
</g>
</g>
<!-- dir_2171f7ec022c5423887b07c69b2f5b48&#45;&gt;dir_37c90836491b695b472bf98d1be8336b -->
<g id="edge28" class="edge">
<title>dir_2171f7ec022c5423887b07c69b2f5b48&#45;&gt;dir_37c90836491b695b472bf98d1be8336b</title>
<path fill="none" stroke="#000000" d="M280.7022,-143.8314C287.7575,-135.219 297.145,-124.7851 306.2291,-115.4048"/>
<polygon fill="#000000" stroke="#000000" points="308.8506,-117.7317 313.3989,-108.1628 303.8761,-112.8068 308.8506,-117.7317"/>
<g id="a_edge28&#45;headlabel"><a xlink:href="dir_000080_000275.html" target="_top" xlink:title="1">
<text text-anchor="middle" x="308.3393" y="-119.7837" font-family="Helvetica,sans-Serif" font-size="10.00" fill="#000000">1</text>
</a>
</g>
</g>
<!-- dir_2171f7ec022c5423887b07c69b2f5b48&#45;&gt;dir_f511f1e9c03c071966ae594f00bbc5e0 -->
<g id="edge29" class="edge">
<title>dir_2171f7ec022c5423887b07c69b2f5b48&#45;&gt;dir_f511f1e9c03c071966ae594f00bbc5e0</title>
<path fill="none" stroke="#000000" d="M278.5526,-180.0896C286.2918,-204.5727 296.0357,-248.5174 300.3673,-277.4713"/>
<polygon fill="#000000" stroke="#000000" points="296.9492,-278.3161 301.747,-287.7623 303.8871,-277.3859 296.9492,-278.3161"/>
<g id="a_edge29&#45;headlabel"><a xlink:href="dir_000080_000715.html" target="_top" xlink:title="19">
<text text-anchor="middle" x="293.6575" y="-272.6306" font-family="Helvetica,sans-Serif" font-size="10.00" fill="#000000">19</text>
</a>
</g>
</g>
</g>
</svg>
        <g id="navigator" transform="translate(0 0)" fill="#404254">
                <rect fill="#f2f5e9" fill-opacity="0.5" stroke="#606060" stroke-width=".5" x="0" y="0" width="60" height="60"/>
                <use id="zoomplus" xlink:href="#zoomPlus" x="17" y="9" onmousedown="handleZoom(evt,'in')"/>
                <use id="zoomminus" xlink:href="#zoomMin" x="42" y="9" onmousedown="handleZoom(evt,'out')"/>
                <use id="reset" xlink:href="#resetDef" x="30" y="36" onmousedown="handleReset()"/>
                <g id="arrowUp" xlink:href="#dirArrow" transform="translate(30 24)" onmousedown="handlePan(0,-1)">
                  <use xlink:href="#rim" fill="#404040">
                        <set attributeName="fill" to="#808080" begin="arrowUp.mouseover" end="arrowUp.mouseout"/>
                  </use>
                  <path fill="none" stroke="white" stroke-width="1.5" d="M0,-3.0v7 M-2.5,-0.5L0,-3.0L2.5,-0.5"/>
                </g>
                <g id="arrowRight" xlink:href="#dirArrow" transform="rotate(90) translate(36 -43)" onmousedown="handlePan(1,0)">
                  <use xlink:href="#rim" fill="#404040">
                        <set attributeName="fill" to="#808080" begin="arrowRight.mouseover" end="arrowRight.mouseout"/>
                  </use>
                  <path fill="none" stroke="white" stroke-width="1.5" d="M0,-3.0v7 M-2.5,-0.5L0,-3.0L2.5,-0.5"/>
                </g>
                <g id="arrowDown" xlink:href="#dirArrow" transform="rotate(180) translate(-30 -48)" onmousedown="handlePan(0,1)">
                  <use xlink:href="#rim" fill="#404040">
                        <set attributeName="fill" to="#808080" begin="arrowDown.mouseover" end="arrowDown.mouseout"/>
                  </use>
                  <path fill="none" stroke="white" stroke-width="1.5" d="M0,-3.0v7 M-2.5,-0.5L0,-3.0L2.5,-0.5"/>
                </g>
                <g id="arrowLeft" xlink:href="#dirArrow" transform="rotate(270) translate(-36 17)" onmousedown="handlePan(-1,0)">
                  <use xlink:href="#rim" fill="#404040">
                        <set attributeName="fill" to="#808080" begin="arrowLeft.mouseover" end="arrowLeft.mouseout"/>
                  </use>
                  <path fill="none" stroke="white" stroke-width="1.5" d="M0,-3.0v7 M-2.5,-0.5L0,-3.0L2.5,-0.5"/>
                </g>
        </g>
        <svg viewBox="0 0 15 15" width="100%" height="30px" preserveAspectRatio="xMaxYMin meet">
         <g id="arrow_out" transform="scale(0.3 0.3)">
          <a xlink:href="dir_396d171119822f66a36fe1ebf998d1a3_dep_org.svg" target="_base">
           <rect id="button" ry="5" rx="5" y="6" x="6" height="38" width="38"
                fill="#f2f5e9" fill-opacity="0.5" stroke="#606060" stroke-width="1.0"/>
           <path id="arrow"
             d="M 11.500037,31.436501 C 11.940474,20.09759 22.043105,11.32322 32.158766,21.979434 L 37.068811,17.246167 C 37.068811,17.246167 37.088388,32 37.088388,32 L 22.160133,31.978069 C 22.160133,31.978069 26.997745,27.140456 26.997745,27.140456 C 18.528582,18.264221 13.291696,25.230495 11.500037,31.436501 z"
             style="fill:#404040;"/>
          </a>
         </g>
        </svg>
</svg>
