<?xml version="1.0" encoding="UTF-8" standalone="no"?>
<!DOCTYPE svg PUBLIC "-//W3C//DTD SVG 1.1//EN"
 "http://www.w3.org/Graphics/SVG/1.1/DTD/svg11.dtd">
<!-- Generated by graphviz version 2.40.1 (20161225.0304)
 -->
<!-- Title: /home/travis/build/AliceO2Group/AliceO2/Analysis/Tutorials/src Pages: 1 -->
<svg width="229pt" height="439pt"
 viewBox="0.00 0.00 228.50 439.00" xmlns="http://www.w3.org/2000/svg" xmlns:xlink="http://www.w3.org/1999/xlink">
<g id="graph0" class="graph" transform="scale(1 1) rotate(0) translate(4 435)">
<title>/home/travis/build/AliceO2Group/AliceO2/Analysis/Tutorials/src</title>
<g id="clust1" class="cluster">
<title>clusterdir_6e355b58bf8669476ee36a32071bc3eb</title>
<g id="a_clust1"><a xlink:href="dir_6e355b58bf8669476ee36a32071bc3eb.html" target="_top" xlink:title="Tutorials">
<polygon fill="#ddddee" stroke="#000000" points="41,-352 41,-423 111,-423 111,-352 41,-352"/>
<text text-anchor="middle" x="76" y="-411" font-family="Helvetica,sans-Serif" font-size="10.00" fill="#000000">Tutorials</text>
</a>
</g>
</g>
<!-- dir_75e6eb4f8361c04b3062a7d58db1db64 -->
<g id="node1" class="node">
<title>dir_75e6eb4f8361c04b3062a7d58db1db64</title>
<g id="a_node1"><a xlink:href="dir_75e6eb4f8361c04b3062a7d58db1db64.html" target="_top" xlink:title="src">
<polygon fill="#eeeeff" stroke="#000000" points="103,-396 49,-396 49,-360 103,-360 103,-396"/>
<text text-anchor="middle" x="76" y="-375.5" font-family="Helvetica,sans-Serif" font-size="10.00" fill="#000000">src</text>
</a>
</g>
</g>
<!-- dir_6af676bf18881990e4083e191d0e63e0 -->
<g id="node2" class="node">
<title>dir_6af676bf18881990e4083e191d0e63e0</title>
<g id="a_node2"><a xlink:href="dir_6af676bf18881990e4083e191d0e63e0.html" target="_top" xlink:title="CCDB">
<polygon fill="none" stroke="#ff0000" points="177,-180 123,-180 123,-144 177,-144 177,-180"/>
<text text-anchor="middle" x="150" y="-159.5" font-family="Helvetica,sans-Serif" font-size="10.00" fill="#000000">CCDB</text>
</a>
</g>
</g>
<!-- dir_75e6eb4f8361c04b3062a7d58db1db64&#45;&gt;dir_6af676bf18881990e4083e191d0e63e0 -->
<g id="edge6" class="edge">
<title>dir_75e6eb4f8361c04b3062a7d58db1db64&#45;&gt;dir_6af676bf18881990e4083e191d0e63e0</title>
<path fill="none" stroke="#000000" d="M74.3507,-359.9008C72.3073,-328.7644 71.5725,-263.8056 95,-216 100.3288,-205.1262 108.7626,-195.1925 117.4405,-186.8929"/>
<polygon fill="#000000" stroke="#000000" points="119.966,-189.3288 125.0574,-180.0375 115.2831,-184.1258 119.966,-189.3288"/>
<g id="a_edge6&#45;headlabel"><a xlink:href="dir_000022_000023.html" target="_top" xlink:title="1">
<text text-anchor="middle" x="119.1936" y="-191.3438" font-family="Helvetica,sans-Serif" font-size="10.00" fill="#000000">1</text>
</a>
</g>
</g>
<!-- dir_f41dd59f861c855ea21b0dc3111cb7b0 -->
<g id="node3" class="node">
<title>dir_f41dd59f861c855ea21b0dc3111cb7b0</title>
<g id="a_node3"><a xlink:href="dir_f41dd59f861c855ea21b0dc3111cb7b0.html" target="_top" xlink:title="DataModel">
<polygon fill="none" stroke="#ff0000" points="220.5,-324 151.5,-324 151.5,-288 220.5,-288 220.5,-324"/>
<text text-anchor="middle" x="186" y="-303.5" font-family="Helvetica,sans-Serif" font-size="10.00" fill="#000000">DataModel</text>
</a>
</g>
</g>
<!-- dir_75e6eb4f8361c04b3062a7d58db1db64&#45;&gt;dir_f41dd59f861c855ea21b0dc3111cb7b0 -->
<g id="edge7" class="edge">
<title>dir_75e6eb4f8361c04b3062a7d58db1db64&#45;&gt;dir_f41dd59f861c855ea21b0dc3111cb7b0</title>
<path fill="none" stroke="#000000" d="M103.191,-360.2022C117.2315,-351.0121 134.553,-339.6744 149.7187,-329.7478"/>
<polygon fill="#000000" stroke="#000000" points="151.9075,-332.4982 158.3577,-324.0931 148.0739,-326.6413 151.9075,-332.4982"/>
<g id="a_edge7&#45;headlabel"><a xlink:href="dir_000022_000009.html" target="_top" xlink:title="2">
<text text-anchor="middle" x="150.4549" y="-334.3424" font-family="Helvetica,sans-Serif" font-size="10.00" fill="#000000">2</text>
</a>
</g>
</g>
<!-- dir_8d04f135a1eb0fdc4d561ef87bbea216 -->
<g id="node4" class="node">
<title>dir_8d04f135a1eb0fdc4d561ef87bbea216</title>
<g id="a_node4"><a xlink:href="dir_8d04f135a1eb0fdc4d561ef87bbea216.html" target="_top" xlink:title="Core">
<polygon fill="none" stroke="#ff0000" points="158,-252 104,-252 104,-216 158,-216 158,-252"/>
<text text-anchor="middle" x="131" y="-231.5" font-family="Helvetica,sans-Serif" font-size="10.00" fill="#000000">Core</text>
</a>
</g>
</g>
<!-- dir_75e6eb4f8361c04b3062a7d58db1db64&#45;&gt;dir_8d04f135a1eb0fdc4d561ef87bbea216 -->
<g id="edge8" class="edge">
<title>dir_75e6eb4f8361c04b3062a7d58db1db64&#45;&gt;dir_8d04f135a1eb0fdc4d561ef87bbea216</title>
<path fill="none" stroke="#000000" d="M82.9658,-359.7623C92.4295,-334.9846 109.4311,-290.4714 120.4607,-261.5939"/>
<polygon fill="#000000" stroke="#000000" points="123.7923,-262.6803 124.0908,-252.0896 117.253,-260.1826 123.7923,-262.6803"/>
<g id="a_edge8&#45;headlabel"><a xlink:href="dir_000022_000005.html" target="_top" xlink:title="3">
<text text-anchor="middle" x="125.1622" y="-264.5513" font-family="Helvetica,sans-Serif" font-size="10.00" fill="#000000">3</text>
</a>
</g>
</g>
<!-- dir_bcbb2cf9a3d3d83e5515c82071a07177 -->
<g id="node5" class="node">
<title>dir_bcbb2cf9a3d3d83e5515c82071a07177</title>
<g id="a_node5"><a xlink:href="dir_bcbb2cf9a3d3d83e5515c82071a07177.html" target="_top" xlink:title="Framework">
<polygon fill="none" stroke="#ff0000" points="157.5,-108 86.5,-108 86.5,-72 157.5,-72 157.5,-108"/>
<text text-anchor="middle" x="122" y="-87.5" font-family="Helvetica,sans-Serif" font-size="10.00" fill="#000000">Framework</text>
</a>
</g>
</g>
<!-- dir_75e6eb4f8361c04b3062a7d58db1db64&#45;&gt;dir_bcbb2cf9a3d3d83e5515c82071a07177 -->
<g id="edge9" class="edge">
<title>dir_75e6eb4f8361c04b3062a7d58db1db64&#45;&gt;dir_bcbb2cf9a3d3d83e5515c82071a07177</title>
<path fill="none" stroke="#000000" d="M73.4382,-359.5478C72.121,-349.1338 70.6573,-335.867 70,-324 69.1152,-308.0245 69.0058,-303.9691 70,-288 72.0039,-255.8133 71.7543,-247.4245 79,-216 86.9876,-181.358 100.8992,-142.8596 110.7329,-117.6437"/>
<polygon fill="#000000" stroke="#000000" points="114.115,-118.6088 114.5391,-108.0224 107.6058,-116.0337 114.115,-118.6088"/>
<g id="a_edge9&#45;headlabel"><a xlink:href="dir_000022_000015.html" target="_top" xlink:title="59">
<text text-anchor="middle" x="115.4329" y="-120.4958" font-family="Helvetica,sans-Serif" font-size="10.00" fill="#000000">59</text>
</a>
</g>
</g>
<!-- dir_2171f7ec022c5423887b07c69b2f5b48 -->
<g id="node6" class="node">
<title>dir_2171f7ec022c5423887b07c69b2f5b48</title>
<g id="a_node6"><a xlink:href="dir_2171f7ec022c5423887b07c69b2f5b48.html" target="_top" xlink:title="DataFormats">
<polygon fill="none" stroke="#ff0000" points="162,-36 82,-36 82,0 162,0 162,-36"/>
<text text-anchor="middle" x="122" y="-15.5" font-family="Helvetica,sans-Serif" font-size="10.00" fill="#000000">DataFormats</text>
</a>
</g>
</g>
<!-- dir_75e6eb4f8361c04b3062a7d58db1db64&#45;&gt;dir_2171f7ec022c5423887b07c69b2f5b48 -->
<g id="edge10" class="edge">
<title>dir_75e6eb4f8361c04b3062a7d58db1db64&#45;&gt;dir_2171f7ec022c5423887b07c69b2f5b48</title>
<path fill="none" stroke="#000000" d="M58.7544,-359.6186C36.3312,-333.719 0,-284.0348 0,-234 0,-234 0,-234 0,-162 0,-109.8251 47.2013,-66.8438 82.8845,-41.8053"/>
<polygon fill="#000000" stroke="#000000" points="84.9181,-44.655 91.2142,-36.1339 80.9785,-38.8688 84.9181,-44.655"/>
<g id="a_edge10&#45;headlabel"><a xlink:href="dir_000022_000080.html" target="_top" xlink:title="1">
<text text-anchor="middle" x="83.5448" y="-46.5249" font-family="Helvetica,sans-Serif" font-size="10.00" fill="#000000">1</text>
</a>
</g>
</g>
<!-- dir_6af676bf18881990e4083e191d0e63e0&#45;&gt;dir_bcbb2cf9a3d3d83e5515c82071a07177 -->
<g id="edge1" class="edge">
<title>dir_6af676bf18881990e4083e191d0e63e0&#45;&gt;dir_bcbb2cf9a3d3d83e5515c82071a07177</title>
<path fill="none" stroke="#000000" d="M142.9344,-143.8314C139.874,-135.9617 136.2221,-126.5712 132.8318,-117.8533"/>
<polygon fill="#000000" stroke="#000000" points="136.0473,-116.4647 129.1607,-108.4133 129.5232,-119.0019 136.0473,-116.4647"/>
<g id="a_edge1&#45;headlabel"><a xlink:href="dir_000023_000015.html" target="_top" xlink:title="2">
<text text-anchor="middle" x="139.9963" y="-116.2859" font-family="Helvetica,sans-Serif" font-size="10.00" fill="#000000">2</text>
</a>
</g>
</g>
<!-- dir_f41dd59f861c855ea21b0dc3111cb7b0&#45;&gt;dir_6af676bf18881990e4083e191d0e63e0 -->
<g id="edge2" class="edge">
<title>dir_f41dd59f861c855ea21b0dc3111cb7b0&#45;&gt;dir_6af676bf18881990e4083e191d0e63e0</title>
<path fill="none" stroke="#000000" d="M182.7232,-287.9501C179.284,-269.6925 173.4828,-240.7149 167,-216 164.7662,-207.4838 162.0142,-198.3157 159.3801,-189.9947"/>
<polygon fill="#000000" stroke="#000000" points="162.6739,-188.8049 156.2684,-180.3657 156.0131,-190.9575 162.6739,-188.8049"/>
<g id="a_edge2&#45;headlabel"><a xlink:href="dir_000009_000023.html" target="_top" xlink:title="2">
<text text-anchor="middle" x="166.4809" y="-188.8523" font-family="Helvetica,sans-Serif" font-size="10.00" fill="#000000">2</text>
</a>
</g>
</g>
<!-- dir_f41dd59f861c855ea21b0dc3111cb7b0&#45;&gt;dir_8d04f135a1eb0fdc4d561ef87bbea216 -->
<g id="edge3" class="edge">
<title>dir_f41dd59f861c855ea21b0dc3111cb7b0&#45;&gt;dir_8d04f135a1eb0fdc4d561ef87bbea216</title>
<path fill="none" stroke="#000000" d="M172.1212,-287.8314C165.7864,-279.5386 158.1616,-269.557 151.2074,-260.4533"/>
<polygon fill="#000000" stroke="#000000" points="153.9175,-258.2353 145.0657,-252.4133 148.3548,-262.4847 153.9175,-258.2353"/>
<g id="a_edge3&#45;headlabel"><a xlink:href="dir_000009_000005.html" target="_top" xlink:title="1">
<text text-anchor="middle" x="158.3558" y="-256.8683" font-family="Helvetica,sans-Serif" font-size="10.00" fill="#000000">1</text>
</a>
</g>
</g>
<!-- dir_f41dd59f861c855ea21b0dc3111cb7b0&#45;&gt;dir_bcbb2cf9a3d3d83e5515c82071a07177 -->
<g id="edge4" class="edge">
<title>dir_f41dd59f861c855ea21b0dc3111cb7b0&#45;&gt;dir_bcbb2cf9a3d3d83e5515c82071a07177</title>
<path fill="none" stroke="#000000" d="M190.7162,-287.9316C197.8366,-256.8419 208.2807,-191.9514 186,-144 180.5862,-132.3486 171.2831,-122.3063 161.4212,-114.1507"/>
<polygon fill="#000000" stroke="#000000" points="163.5153,-111.3458 153.4561,-108.0198 159.2457,-116.8929 163.5153,-111.3458"/>
<g id="a_edge4&#45;headlabel"><a xlink:href="dir_000009_000015.html" target="_top" xlink:title="17">
<text text-anchor="middle" x="168.0956" y="-108.7883" font-family="Helvetica,sans-Serif" font-size="10.00" fill="#000000">17</text>
</a>
</g>
</g>
<!-- dir_f41dd59f861c855ea21b0dc3111cb7b0&#45;&gt;dir_2171f7ec022c5423887b07c69b2f5b48 -->
<g id="edge5" class="edge">
<title>dir_f41dd59f861c855ea21b0dc3111cb7b0&#45;&gt;dir_2171f7ec022c5423887b07c69b2f5b48</title>
<path fill="none" stroke="#000000" d="M197.3196,-287.7678C202.9396,-277.6415 209.1294,-264.5789 212,-252 217.5087,-227.8606 205.1878,-144.6263 205,-144 193.4433,-105.4516 165.8649,-67.7918 145.657,-43.8374"/>
<polygon fill="#000000" stroke="#000000" points="148.3017,-41.5447 139.1203,-36.2576 143.0006,-46.1163 148.3017,-41.5447"/>
<g id="a_edge5&#45;headlabel"><a xlink:href="dir_000009_000080.html" target="_top" xlink:title="7">
<text text-anchor="middle" x="152.7994" y="-39.9126" font-family="Helvetica,sans-Serif" font-size="10.00" fill="#000000">7</text>
</a>
</g>
</g>
<!-- dir_8d04f135a1eb0fdc4d561ef87bbea216&#45;&gt;dir_6af676bf18881990e4083e191d0e63e0 -->
<g id="edge11" class="edge">
<title>dir_8d04f135a1eb0fdc4d561ef87bbea216&#45;&gt;dir_6af676bf18881990e4083e191d0e63e0</title>
<path fill="none" stroke="#000000" d="M135.7945,-215.8314C137.8489,-208.0463 140.296,-198.7729 142.5756,-190.1347"/>
<polygon fill="#000000" stroke="#000000" points="145.9735,-190.9753 145.1409,-180.4133 139.2052,-189.1892 145.9735,-190.9753"/>
<g id="a_edge11&#45;headlabel"><a xlink:href="dir_000005_000023.html" target="_top" xlink:title="1">
<text text-anchor="middle" x="147.8017" y="-192.6754" font-family="Helvetica,sans-Serif" font-size="10.00" fill="#000000">1</text>
</a>
</g>
</g>
<!-- dir_8d04f135a1eb0fdc4d561ef87bbea216&#45;&gt;dir_bcbb2cf9a3d3d83e5515c82071a07177 -->
<g id="edge12" class="edge">
<title>dir_8d04f135a1eb0fdc4d561ef87bbea216&#45;&gt;dir_bcbb2cf9a3d3d83e5515c82071a07177</title>
<path fill="none" stroke="#000000" d="M123.7561,-215.8366C120.0288,-205.513 115.8812,-192.2403 114,-180 110.8278,-159.3595 113.1182,-135.8481 116.0476,-118.0333"/>
<polygon fill="#000000" stroke="#000000" points="119.5246,-118.4743 117.8603,-108.011 112.6364,-117.2284 119.5246,-118.4743"/>
<g id="a_edge12&#45;headlabel"><a xlink:href="dir_000005_000015.html" target="_top" xlink:title="5">
<text text-anchor="middle" x="121.6789" y="-120.0168" font-family="Helvetica,sans-Serif" font-size="10.00" fill="#000000">5</text>
</a>
</g>
</g>
<!-- dir_bcbb2cf9a3d3d83e5515c82071a07177&#45;&gt;dir_2171f7ec022c5423887b07c69b2f5b48 -->
<g id="edge13" class="edge">
<title>dir_bcbb2cf9a3d3d83e5515c82071a07177&#45;&gt;dir_2171f7ec022c5423887b07c69b2f5b48</title>
<path fill="none" stroke="#000000" d="M116.0476,-71.8314C115.2972,-64.131 115.0763,-54.9743 115.3849,-46.4166"/>
<polygon fill="#000000" stroke="#000000" points="118.8792,-46.6161 116.024,-36.4133 111.8935,-46.1697 118.8792,-46.6161"/>
<g id="a_edge13&#45;headlabel"><a xlink:href="dir_000015_000080.html" target="_top" xlink:title="82">
<text text-anchor="middle" x="121.4836" y="-47.8844" font-family="Helvetica,sans-Serif" font-size="10.00" fill="#000000">82</text>
</a>
</g>
</g>
<!-- dir_2171f7ec022c5423887b07c69b2f5b48&#45;&gt;dir_bcbb2cf9a3d3d83e5515c82071a07177 -->
<g id="edge14" class="edge">
<title>dir_2171f7ec022c5423887b07c69b2f5b48&#45;&gt;dir_bcbb2cf9a3d3d83e5515c82071a07177</title>
<path fill="none" stroke="#000000" d="M127.976,-36.4133C128.7071,-44.0593 128.9203,-53.1084 128.6155,-61.5726"/>
<polygon fill="#000000" stroke="#000000" points="125.1048,-61.6264 127.9524,-71.8314 132.0902,-62.078 125.1048,-61.6264"/>
<g id="a_edge14&#45;headlabel"><a xlink:href="dir_000080_000015.html" target="_top" xlink:title="17">
<text text-anchor="middle" x="122.5032" y="-55.3562" font-family="Helvetica,sans-Serif" font-size="10.00" fill="#000000">17</text>
</a>
</g>
</g>
</g>
</svg>
