<?xml version="1.0" encoding="UTF-8" standalone="no"?>
<!DOCTYPE svg PUBLIC "-//W3C//DTD SVG 1.1//EN"
 "http://www.w3.org/Graphics/SVG/1.1/DTD/svg11.dtd">
<!-- Generated by graphviz version 2.40.1 (20161225.0304)
 -->
<!-- Title: Graphical Class Hierarchy Pages: 1 -->
<svg width="284pt" height="180pt"
 viewBox="0.00 0.00 284.00 180.00" xmlns="http://www.w3.org/2000/svg" xmlns:xlink="http://www.w3.org/1999/xlink">
<g id="graph0" class="graph" transform="scale(1 1) rotate(0) translate(4 176)">
<title>Graphical Class Hierarchy</title>
<!-- Node0 -->
<g id="node1" class="node">
<title>Node0</title>
<g id="a_node1"><a xlink:href="d1/db7/classo2_1_1ctf_1_1CTFCoderBase.html" target="_top" xlink:title="o2::ctf::CTFCoderBase">
<polygon fill="none" stroke="#000000" points="0,-76.5 0,-95.5 124,-95.5 124,-76.5 0,-76.5"/>
<text text-anchor="middle" x="62" y="-83.5" font-family="Helvetica,sans-Serif" font-size="10.00" fill="#000000">o2::ctf::CTFCoderBase</text>
</a>
</g>
</g>
<!-- Node1 -->
<g id="node2" class="node">
<title>Node1</title>
<g id="a_node2"><a xlink:href="d1/df2/classo2_1_1ft0_1_1CTFCoder.html" target="_top" xlink:title="o2::ft0::CTFCoder">
<polygon fill="none" stroke="#000000" points="167.5,-152.5 167.5,-171.5 268.5,-171.5 268.5,-152.5 167.5,-152.5"/>
<text text-anchor="middle" x="218" y="-159.5" font-family="Helvetica,sans-Serif" font-size="10.00" fill="#000000">o2::ft0::CTFCoder</text>
</a>
</g>
</g>
<!-- Node0&#45;&gt;Node1 -->
<g id="edge1" class="edge">
<title>Node0&#45;&gt;Node1</title>
<path fill="none" stroke="#191970" d="M84.8903,-101.1716C104.2991,-113.5755 133.1797,-130.9685 160,-143 167.8309,-146.5129 176.5128,-149.705 184.7233,-152.4275"/>
<polygon fill="#191970" stroke="#191970" points="86.7243,-98.1895 76.4274,-95.6948 82.9212,-104.0663 86.7243,-98.1895"/>
</g>
<!-- Node2 -->
<g id="node3" class="node">
<title>Node2</title>
<g id="a_node3"><a xlink:href="d5/ddc/classo2_1_1fv0_1_1CTFCoder.html" target="_top" xlink:title="o2::fv0::CTFCoder">
<polygon fill="none" stroke="#000000" points="166.5,-114.5 166.5,-133.5 269.5,-133.5 269.5,-114.5 166.5,-114.5"/>
<text text-anchor="middle" x="218" y="-121.5" font-family="Helvetica,sans-Serif" font-size="10.00" fill="#000000">o2::fv0::CTFCoder</text>
</a>
</g>
</g>
<!-- Node0&#45;&gt;Node2 -->
<g id="edge2" class="edge">
<title>Node0&#45;&gt;Node2</title>
<path fill="none" stroke="#191970" d="M111.1317,-97.968C132.9927,-103.2931 158.3761,-109.4762 178.9177,-114.4799"/>
<polygon fill="#191970" stroke="#191970" points="111.9097,-94.5552 101.3654,-95.589 110.2529,-101.3563 111.9097,-94.5552"/>
</g>
<!-- Node3 -->
<g id="node4" class="node">
<title>Node3</title>
<g id="a_node4"><a xlink:href="d0/d32/classo2_1_1itsmft_1_1CTFCoder.html" target="_top" xlink:title="o2::itsmft::CTFCoder">
<polygon fill="none" stroke="#000000" points="160,-76.5 160,-95.5 276,-95.5 276,-76.5 160,-76.5"/>
<text text-anchor="middle" x="218" y="-83.5" font-family="Helvetica,sans-Serif" font-size="10.00" fill="#000000">o2::itsmft::CTFCoder</text>
</a>
</g>
</g>
<!-- Node0&#45;&gt;Node3 -->
<g id="edge3" class="edge">
<title>Node0&#45;&gt;Node3</title>
<path fill="none" stroke="#191970" d="M134.1637,-86C142.7926,-86 151.5173,-86 159.9122,-86"/>
<polygon fill="#191970" stroke="#191970" points="134.1036,-82.5001 124.1036,-86 134.1035,-89.5001 134.1036,-82.5001"/>
</g>
<!-- Node4 -->
<g id="node5" class="node">
<title>Node4</title>
<g id="a_node5"><a xlink:href="da/d9a/classo2_1_1tof_1_1CTFCoder.html" target="_top" xlink:title="o2::tof::CTFCoder">
<polygon fill="none" stroke="#000000" points="167.5,-38.5 167.5,-57.5 268.5,-57.5 268.5,-38.5 167.5,-38.5"/>
<text text-anchor="middle" x="218" y="-45.5" font-family="Helvetica,sans-Serif" font-size="10.00" fill="#000000">o2::tof::CTFCoder</text>
</a>
</g>
</g>
<!-- Node0&#45;&gt;Node4 -->
<g id="edge4" class="edge">
<title>Node0&#45;&gt;Node4</title>
<path fill="none" stroke="#191970" d="M111.1317,-74.032C132.9927,-68.7069 158.3761,-62.5238 178.9177,-57.5201"/>
<polygon fill="#191970" stroke="#191970" points="110.2529,-70.6437 101.3654,-76.411 111.9097,-77.4448 110.2529,-70.6437"/>
</g>
<!-- Node5 -->
<g id="node6" class="node">
<title>Node5</title>
<g id="a_node6"><a xlink:href="d4/d75/classo2_1_1tpc_1_1CTFCoder.html" target="_top" xlink:title="o2::tpc::CTFCoder">
<polygon fill="none" stroke="#000000" points="167,-.5 167,-19.5 269,-19.5 269,-.5 167,-.5"/>
<text text-anchor="middle" x="218" y="-7.5" font-family="Helvetica,sans-Serif" font-size="10.00" fill="#000000">o2::tpc::CTFCoder</text>
</a>
</g>
</g>
<!-- Node0&#45;&gt;Node5 -->
<g id="edge5" class="edge">
<title>Node0&#45;&gt;Node5</title>
<path fill="none" stroke="#191970" d="M84.8903,-70.8284C104.2991,-58.4245 133.1797,-41.0315 160,-29 167.8309,-25.4871 176.5128,-22.295 184.7233,-19.5725"/>
<polygon fill="#191970" stroke="#191970" points="82.9212,-67.9337 76.4274,-76.3052 86.7243,-73.8105 82.9212,-67.9337"/>
</g>
</g>
</svg>
