<?xml version="1.0" encoding="UTF-8" standalone="no"?>
<!DOCTYPE svg PUBLIC "-//W3C//DTD SVG 1.1//EN"
 "http://www.w3.org/Graphics/SVG/1.1/DTD/svg11.dtd">
<!-- Generated by graphviz version 2.40.1 (20161225.0304)
 -->
<!-- Title: Graphical Class Hierarchy Pages: 1 -->
<svg width="347pt" height="78pt"
 viewBox="0.00 0.00 347.00 77.50" xmlns="http://www.w3.org/2000/svg" xmlns:xlink="http://www.w3.org/1999/xlink">
<g id="graph0" class="graph" transform="scale(1 1) rotate(0) translate(4 73.5)">
<title>Graphical Class Hierarchy</title>
<!-- Node0 -->
<g id="node1" class="node">
<title>Node0</title>
<g id="a_node1"><a xlink:href="da/d17/structo2_1_1framework_1_1TransformTable.html" target="_top" xlink:title="Base template for table transformation declarations. ">
<polygon fill="none" stroke="#000000" points="0,-17 0,-47 143,-47 143,-17 0,-17"/>
<text text-anchor="start" x="8" y="-35" font-family="Helvetica,sans-Serif" font-size="10.00" fill="#000000">o2::framework::Transform</text>
<text text-anchor="middle" x="71.5" y="-24" font-family="Helvetica,sans-Serif" font-size="10.00" fill="#000000">Table&lt; T &gt;</text>
</a>
</g>
</g>
<!-- Node1 -->
<g id="node2" class="node">
<title>Node1</title>
<g id="a_node2"><a xlink:href="d5/df4/structo2_1_1framework_1_1Builds.html" target="_top" xlink:title="This helper struct allows you to declare index tables to be created in a task. ">
<polygon fill="none" stroke="#000000" points="197,-39 197,-69 321,-69 321,-39 197,-39"/>
<text text-anchor="start" x="205" y="-57" font-family="Helvetica,sans-Serif" font-size="10.00" fill="#000000">o2::framework::Builds</text>
<text text-anchor="middle" x="259" y="-46" font-family="Helvetica,sans-Serif" font-size="10.00" fill="#000000">&lt; T, IP &gt;</text>
</a>
</g>
</g>
<!-- Node0&#45;&gt;Node1 -->
<g id="edge1" class="edge">
<title>Node0&#45;&gt;Node1</title>
<path fill="none" stroke="#191970" d="M153.2316,-41.5898C167.8559,-43.3058 182.8769,-45.0682 196.8394,-46.7065"/>
<polygon fill="#191970" stroke="#191970" points="153.5281,-38.1007 143.1883,-40.4114 152.7123,-45.053 153.5281,-38.1007"/>
</g>
<!-- Node2 -->
<g id="node3" class="node">
<title>Node2</title>
<g id="a_node3"><a xlink:href="d7/d15/structo2_1_1framework_1_1Spawns.html" target="_top" xlink:title="o2::framework::Spawns\&lt; T \&gt;">
<polygon fill="none" stroke="#000000" points="179,-.5 179,-19.5 339,-19.5 339,-.5 179,-.5"/>
<text text-anchor="middle" x="259" y="-7.5" font-family="Helvetica,sans-Serif" font-size="10.00" fill="#000000">o2::framework::Spawns&lt; T &gt;</text>
</a>
</g>
</g>
<!-- Node0&#45;&gt;Node2 -->
<g id="edge2" class="edge">
<title>Node0&#45;&gt;Node2</title>
<path fill="none" stroke="#191970" d="M153.1428,-22.4206C161.6908,-21.4176 170.3753,-20.3986 178.9058,-19.3977"/>
<polygon fill="#191970" stroke="#191970" points="152.7123,-18.947 143.1883,-23.5886 153.5281,-25.8993 152.7123,-18.947"/>
</g>
</g>
</svg>
