<?xml version="1.0" encoding="UTF-8" standalone="no"?>
<!DOCTYPE svg PUBLIC "-//W3C//DTD SVG 1.1//EN"
 "http://www.w3.org/Graphics/SVG/1.1/DTD/svg11.dtd">
<!-- Generated by graphviz version 2.40.1 (20161225.0304)
 -->
<!-- Title: Graphical Class Hierarchy Pages: 1 -->
<svg width="571pt" height="1478pt"
 viewBox="0.00 0.00 571.00 1478.00" xmlns="http://www.w3.org/2000/svg" xmlns:xlink="http://www.w3.org/1999/xlink">
<g id="graph0" class="graph" transform="scale(1 1) rotate(0) translate(4 1474)">
<title>Graphical Class Hierarchy</title>
<!-- Node136 -->
<g id="node1" class="node">
<title>Node136</title>
<polygon fill="none" stroke="#bfbfbf" points="0,-644 0,-663 63,-663 63,-644 0,-644"/>
<text text-anchor="middle" x="31.5" y="-651" font-family="Helvetica,sans-Serif" font-size="10.00" fill="#000000">true_type</text>
</g>
<!-- Node0 -->
<g id="node2" class="node">
<title>Node0</title>
<g id="a_node2"><a xlink:href="dd/dde/structnlohmann_1_1detail_1_1conjunction.html" target="_top" xlink:title="nlohmann::detail::conjunction\l\&lt; is_complete_type\&lt; CompatibleType\l \&gt;, is_compatible_complete_type\l\&lt; BasicJsonType, CompatibleType \&gt; \&gt;">
<polygon fill="none" stroke="#000000" points="130.5,-1417.5 130.5,-1469.5 334.5,-1469.5 334.5,-1417.5 130.5,-1417.5"/>
<text text-anchor="start" x="138.5" y="-1457.5" font-family="Helvetica,sans-Serif" font-size="10.00" fill="#000000">nlohmann::detail::conjunction</text>
<text text-anchor="start" x="138.5" y="-1446.5" font-family="Helvetica,sans-Serif" font-size="10.00" fill="#000000">&lt; is_complete_type&lt; CompatibleType</text>
<text text-anchor="start" x="138.5" y="-1435.5" font-family="Helvetica,sans-Serif" font-size="10.00" fill="#000000"> &gt;, is_compatible_complete_type</text>
<text text-anchor="middle" x="232.5" y="-1424.5" font-family="Helvetica,sans-Serif" font-size="10.00" fill="#000000">&lt; BasicJsonType, CompatibleType &gt; &gt;</text>
</a>
</g>
</g>
<!-- Node136&#45;&gt;Node0 -->
<g id="edge1" class="edge">
<title>Node136&#45;&gt;Node0</title>
<path fill="none" stroke="#191970" d="M31.932,-673.3351C34.5775,-786.8106 50.1267,-1350.6848 99,-1408.5 107.4302,-1418.4726 118.3216,-1425.7854 130.244,-1431.1188"/>
<polygon fill="#191970" stroke="#191970" points="35.4241,-672.9405 31.6987,-663.0223 28.4258,-673.0989 35.4241,-672.9405"/>
</g>
<!-- Node139 -->
<g id="node4" class="node">
<title>Node139</title>
<g id="a_node4"><a xlink:href="dd/dde/structnlohmann_1_1detail_1_1conjunction.html" target="_top" xlink:title="nlohmann::detail::conjunction\l\&lt;... \&gt;">
<polygon fill="none" stroke="#000000" points="152,-1368.5 152,-1398.5 313,-1398.5 313,-1368.5 152,-1368.5"/>
<text text-anchor="start" x="160" y="-1386.5" font-family="Helvetica,sans-Serif" font-size="10.00" fill="#000000">nlohmann::detail::conjunction</text>
<text text-anchor="middle" x="232.5" y="-1375.5" font-family="Helvetica,sans-Serif" font-size="10.00" fill="#000000">&lt;... &gt;</text>
</a>
</g>
</g>
<!-- Node136&#45;&gt;Node139 -->
<g id="edge3" class="edge">
<title>Node136&#45;&gt;Node139</title>
<path fill="none" stroke="#191970" d="M32.0034,-673.4228C34.9475,-782.7221 51.475,-1306.5103 99,-1358.5 112.6026,-1373.3805 132.0105,-1381.1099 151.8285,-1384.8051"/>
<polygon fill="#191970" stroke="#191970" points="35.4956,-673.0738 31.7349,-663.1689 28.498,-673.2571 35.4956,-673.0738"/>
</g>
<!-- Node140 -->
<g id="node5" class="node">
<title>Node140</title>
<g id="a_node5"><a xlink:href="d8/d25/structnlohmann_1_1detail_1_1is__basic__json_3_01NLOHMANN__BASIC__JSON__TPL_01_4.html" target="_top" xlink:title="nlohmann::detail::is\l_basic_json\&lt; NLOHMANN\l_BASIC_JSON_TPL \&gt;">
<polygon fill="none" stroke="#000000" points="161.5,-1308 161.5,-1349 303.5,-1349 303.5,-1308 161.5,-1308"/>
<text text-anchor="start" x="169.5" y="-1337" font-family="Helvetica,sans-Serif" font-size="10.00" fill="#000000">nlohmann::detail::is</text>
<text text-anchor="start" x="169.5" y="-1326" font-family="Helvetica,sans-Serif" font-size="10.00" fill="#000000">_basic_json&lt; NLOHMANN</text>
<text text-anchor="middle" x="232.5" y="-1315" font-family="Helvetica,sans-Serif" font-size="10.00" fill="#000000">_BASIC_JSON_TPL &gt;</text>
</a>
</g>
</g>
<!-- Node136&#45;&gt;Node140 -->
<g id="edge4" class="edge">
<title>Node136&#45;&gt;Node140</title>
<path fill="none" stroke="#191970" d="M32.2174,-673.3011C36.1356,-776.5774 56.3542,-1250.559 99,-1298.5 114.7096,-1316.1602 138.3747,-1324.6243 161.438,-1328.3731"/>
<polygon fill="#191970" stroke="#191970" points="35.7144,-673.1543 31.8451,-663.2913 28.7193,-673.4145 35.7144,-673.1543"/>
</g>
<!-- Node141 -->
<g id="node6" class="node">
<title>Node141</title>
<g id="a_node6"><a xlink:href="dd/dcd/structnlohmann_1_1detail_1_1is__complete__type_3_01T_00_01decltype_07void_07sizeof_07T_08_08_08_4.html" target="_top" xlink:title="nlohmann::detail::is\l_complete_type\&lt; T, decltype\l(void(sizeof(T)))\&gt;">
<polygon fill="none" stroke="#000000" points="152.5,-1248 152.5,-1289 312.5,-1289 312.5,-1248 152.5,-1248"/>
<text text-anchor="start" x="160.5" y="-1277" font-family="Helvetica,sans-Serif" font-size="10.00" fill="#000000">nlohmann::detail::is</text>
<text text-anchor="start" x="160.5" y="-1266" font-family="Helvetica,sans-Serif" font-size="10.00" fill="#000000">_complete_type&lt; T, decltype</text>
<text text-anchor="middle" x="232.5" y="-1255" font-family="Helvetica,sans-Serif" font-size="10.00" fill="#000000">(void(sizeof(T)))&gt;</text>
</a>
</g>
</g>
<!-- Node136&#45;&gt;Node141 -->
<g id="edge5" class="edge">
<title>Node136&#45;&gt;Node141</title>
<path fill="none" stroke="#191970" d="M32.4532,-673.5569C37.2804,-771.3814 60.3284,-1195.4881 99,-1238.5 112.7383,-1253.7802 132.4342,-1262.1595 152.4932,-1266.5567"/>
<polygon fill="#191970" stroke="#191970" points="35.9358,-673.1106 31.955,-663.2921 28.944,-673.45 35.9358,-673.1106"/>
</g>
<!-- Node142 -->
<g id="node7" class="node">
<title>Node142</title>
<g id="a_node7"><a xlink:href="d2/ddb/structo2_1_1framework_1_1detail_1_1is__noarg__callable__t_3_01T_00_01decltype_07std_1_1declval_3401e25e905445557be4fe360a68747b2.html" target="_top" xlink:title="o2::framework::detail\l::is_noarg_callable_t\l\&lt; T, decltype(std::declval\l\&lt; T &amp;&amp; \&gt;()())\&gt;">
<polygon fill="none" stroke="#000000" points="161.5,-1176.5 161.5,-1228.5 303.5,-1228.5 303.5,-1176.5 161.5,-1176.5"/>
<text text-anchor="start" x="169.5" y="-1216.5" font-family="Helvetica,sans-Serif" font-size="10.00" fill="#000000">o2::framework::detail</text>
<text text-anchor="start" x="169.5" y="-1205.5" font-family="Helvetica,sans-Serif" font-size="10.00" fill="#000000">::is_noarg_callable_t</text>
<text text-anchor="start" x="169.5" y="-1194.5" font-family="Helvetica,sans-Serif" font-size="10.00" fill="#000000">&lt; T, decltype(std::declval</text>
<text text-anchor="middle" x="232.5" y="-1183.5" font-family="Helvetica,sans-Serif" font-size="10.00" fill="#000000">&lt; T &amp;&amp; &gt;()())&gt;</text>
</a>
</g>
</g>
<!-- Node136&#45;&gt;Node142 -->
<g id="edge6" class="edge">
<title>Node136&#45;&gt;Node142</title>
<path fill="none" stroke="#191970" d="M32.8239,-673.603C38.9469,-763.9495 65.6462,-1129.6614 99,-1167.5 114.7646,-1185.3844 138.442,-1194.6537 161.4997,-1199.3032"/>
<polygon fill="#191970" stroke="#191970" points="36.2984,-673.1045 32.1385,-663.3605 29.314,-673.5719 36.2984,-673.1045"/>
</g>
<!-- Node143 -->
<g id="node8" class="node">
<title>Node143</title>
<g id="a_node8"><a xlink:href="d0/d7f/structo2_1_1framework_1_1has__root__dictionary_3_01T_00_01std_1_1conditional__t_3_01false_00_01c3a7047afd30b3fd4df3d429b8c4e1a22.html" target="_top" xlink:title="o2::framework::has\l_root_dictionary\&lt; T,\l std::conditional_t\&lt;\l false, class_member_checker\l\&lt; decltype(std::declval\&lt; T\l \&gt;().Class())\&gt;, void \&gt; \&gt;">
<polygon fill="none" stroke="#000000" points="150.5,-1083.5 150.5,-1157.5 314.5,-1157.5 314.5,-1083.5 150.5,-1083.5"/>
<text text-anchor="start" x="158.5" y="-1145.5" font-family="Helvetica,sans-Serif" font-size="10.00" fill="#000000">o2::framework::has</text>
<text text-anchor="start" x="158.5" y="-1134.5" font-family="Helvetica,sans-Serif" font-size="10.00" fill="#000000">_root_dictionary&lt; T,</text>
<text text-anchor="start" x="158.5" y="-1123.5" font-family="Helvetica,sans-Serif" font-size="10.00" fill="#000000"> std::conditional_t&lt;</text>
<text text-anchor="start" x="158.5" y="-1112.5" font-family="Helvetica,sans-Serif" font-size="10.00" fill="#000000"> false, class_member_checker</text>
<text text-anchor="start" x="158.5" y="-1101.5" font-family="Helvetica,sans-Serif" font-size="10.00" fill="#000000">&lt; decltype(std::declval&lt; T</text>
<text text-anchor="middle" x="232.5" y="-1090.5" font-family="Helvetica,sans-Serif" font-size="10.00" fill="#000000"> &gt;().Class())&gt;, void &gt; &gt;</text>
</a>
</g>
</g>
<!-- Node136&#45;&gt;Node143 -->
<g id="edge7" class="edge">
<title>Node136&#45;&gt;Node143</title>
<path fill="none" stroke="#191970" d="M32.0811,-673.6053C34.6409,-748.6838 47.2108,-1011.4894 99,-1073.5 112.1518,-1089.2475 130.9269,-1099.7225 150.2579,-1106.6891"/>
<polygon fill="#191970" stroke="#191970" points="35.5673,-673.1109 31.7518,-663.227 28.5708,-673.333 35.5673,-673.1109"/>
</g>
<!-- Node144 -->
<g id="node9" class="node">
<title>Node144</title>
<g id="a_node9"><a xlink:href="da/d79/structo2_1_1framework_1_1has__root__setowner_3_01T_00_01std_1_1conditional__t_3_01false_00_01clab3eb568d3aa63dda30124b6acde88d98.html" target="_top" xlink:title="o2::framework::has\l_root_setowner\&lt; T, std\l::conditional_t\&lt; false,\l class_member_checker\&lt;\l decltype(std::declval\&lt;\l T \&gt;().SetOwner(true))\&gt;,\l void \&gt; \&gt;">
<polygon fill="none" stroke="#000000" points="161,-979 161,-1064 304,-1064 304,-979 161,-979"/>
<text text-anchor="start" x="169" y="-1052" font-family="Helvetica,sans-Serif" font-size="10.00" fill="#000000">o2::framework::has</text>
<text text-anchor="start" x="169" y="-1041" font-family="Helvetica,sans-Serif" font-size="10.00" fill="#000000">_root_setowner&lt; T, std</text>
<text text-anchor="start" x="169" y="-1030" font-family="Helvetica,sans-Serif" font-size="10.00" fill="#000000">::conditional_t&lt; false,</text>
<text text-anchor="start" x="169" y="-1019" font-family="Helvetica,sans-Serif" font-size="10.00" fill="#000000"> class_member_checker&lt;</text>
<text text-anchor="start" x="169" y="-1008" font-family="Helvetica,sans-Serif" font-size="10.00" fill="#000000"> decltype(std::declval&lt;</text>
<text text-anchor="start" x="169" y="-997" font-family="Helvetica,sans-Serif" font-size="10.00" fill="#000000"> T &gt;().SetOwner(true))&gt;,</text>
<text text-anchor="middle" x="232.5" y="-986" font-family="Helvetica,sans-Serif" font-size="10.00" fill="#000000"> void &gt; &gt;</text>
</a>
</g>
</g>
<!-- Node136&#45;&gt;Node144 -->
<g id="edge8" class="edge">
<title>Node136&#45;&gt;Node144</title>
<path fill="none" stroke="#191970" d="M33.2777,-673.2004C39.2213,-735.0488 60.2459,-923.9448 99,-969.5 114.7945,-988.0664 138.0602,-1000.0382 160.7623,-1007.7437"/>
<polygon fill="#191970" stroke="#191970" points="36.7579,-672.8246 32.3425,-663.1936 29.7883,-673.476 36.7579,-672.8246"/>
</g>
<!-- Node145 -->
<g id="node10" class="node">
<title>Node145</title>
<g id="a_node10"><a xlink:href="da/da0/structo2_1_1framework_1_1is__boost__serializable__base_3_01Type_00_01Archive_00_01std_1_1void__td3dce5790dbc08a548e1efe654c16a22.html" target="_top" xlink:title="o2::framework::is_boost\l_serializable_base\&lt; Type,\l Archive, std::void_t\&lt; decltype\l(std::declval\&lt; Type &amp; \&gt;().serialize\l(std::declval\&lt; Archive &amp; \&gt;(), 0))\&gt; \&gt;">
<polygon fill="none" stroke="#000000" points="136,-897 136,-960 329,-960 329,-897 136,-897"/>
<text text-anchor="start" x="144" y="-948" font-family="Helvetica,sans-Serif" font-size="10.00" fill="#000000">o2::framework::is_boost</text>
<text text-anchor="start" x="144" y="-937" font-family="Helvetica,sans-Serif" font-size="10.00" fill="#000000">_serializable_base&lt; Type,</text>
<text text-anchor="start" x="144" y="-926" font-family="Helvetica,sans-Serif" font-size="10.00" fill="#000000"> Archive, std::void_t&lt; decltype</text>
<text text-anchor="start" x="144" y="-915" font-family="Helvetica,sans-Serif" font-size="10.00" fill="#000000">(std::declval&lt; Type &amp; &gt;().serialize</text>
<text text-anchor="middle" x="232.5" y="-904" font-family="Helvetica,sans-Serif" font-size="10.00" fill="#000000">(std::declval&lt; Archive &amp; &gt;(), 0))&gt; &gt;</text>
</a>
</g>
</g>
<!-- Node136&#45;&gt;Node145 -->
<g id="edge9" class="edge">
<title>Node136&#45;&gt;Node145</title>
<path fill="none" stroke="#191970" d="M34.6761,-672.9511C43.2715,-723.3449 68.4126,-856.384 99,-887.5 109.283,-897.9607 122.1617,-905.767 135.8351,-911.5892"/>
<polygon fill="#191970" stroke="#191970" points="38.1161,-672.301 33.0146,-663.0152 31.212,-673.4555 38.1161,-672.301"/>
</g>
<!-- Node146 -->
<g id="node11" class="node">
<title>Node146</title>
<g id="a_node11"><a xlink:href="d5/d30/structo2_1_1framework_1_1is__bounded__array_3_01std_1_1array_3_01T_00_01N_01_4_01_4.html" target="_top" xlink:title="o2::framework::is_bounded\l_array\&lt; std::array\&lt; T, N \&gt; \&gt;">
<polygon fill="none" stroke="#000000" points="153.5,-847.5 153.5,-877.5 311.5,-877.5 311.5,-847.5 153.5,-847.5"/>
<text text-anchor="start" x="161.5" y="-865.5" font-family="Helvetica,sans-Serif" font-size="10.00" fill="#000000">o2::framework::is_bounded</text>
<text text-anchor="middle" x="232.5" y="-854.5" font-family="Helvetica,sans-Serif" font-size="10.00" fill="#000000">_array&lt; std::array&lt; T, N &gt; &gt;</text>
</a>
</g>
</g>
<!-- Node136&#45;&gt;Node146 -->
<g id="edge10" class="edge">
<title>Node136&#45;&gt;Node146</title>
<path fill="none" stroke="#191970" d="M32.5318,-673.3209C35.6598,-711.6302 48.2614,-795.8148 99,-838.5 114.1368,-851.2342 133.7135,-858.1956 153.1866,-861.8015"/>
<polygon fill="#191970" stroke="#191970" points="36.0008,-672.7422 31.8335,-663.0014 29.0167,-673.2149 36.0008,-672.7422"/>
</g>
<!-- Node147 -->
<g id="node12" class="node">
<title>Node147</title>
<g id="a_node12"><a xlink:href="d1/d33/structo2_1_1framework_1_1is__bounded__array_3_01T[N]_4.html" target="_top" xlink:title="o2::framework::is_bounded\l_array\&lt; T[N]\&gt;">
<polygon fill="none" stroke="#000000" points="158,-798.5 158,-828.5 307,-828.5 307,-798.5 158,-798.5"/>
<text text-anchor="start" x="166" y="-816.5" font-family="Helvetica,sans-Serif" font-size="10.00" fill="#000000">o2::framework::is_bounded</text>
<text text-anchor="middle" x="232.5" y="-805.5" font-family="Helvetica,sans-Serif" font-size="10.00" fill="#000000">_array&lt; T[N]&gt;</text>
</a>
</g>
</g>
<!-- Node136&#45;&gt;Node147 -->
<g id="edge11" class="edge">
<title>Node136&#45;&gt;Node147</title>
<path fill="none" stroke="#191970" d="M35.5357,-673.2934C42.7384,-703.2559 60.7837,-759.6801 99,-788.5 115.8498,-801.2069 137.2352,-808.0845 157.9253,-811.6558"/>
<polygon fill="#191970" stroke="#191970" points="38.8814,-672.2156 33.2867,-663.2183 32.0495,-673.7407 38.8814,-672.2156"/>
</g>
<!-- Node148 -->
<g id="node13" class="node">
<title>Node148</title>
<g id="a_node13"><a xlink:href="de/d5c/structo2_1_1framework_1_1is__container_3_01T_00_01std_1_1conditional__t_3_01false_00_01class__mef60b0640f3a7413451971b3764fe2133.html" target="_top" xlink:title="o2::framework::is_container\l\&lt; T, std::conditional_t\l\&lt; false, class_member_checker\l\&lt; typename T::value_type, typename\l T::size_type, typename T::allocator\l_type, typename T::iterator, typename\l T::const_iterator, decltype(std::declval\l\&lt; T \&gt;().size()), decltype(std::declval\&lt;\l T \&gt;().begin()), decltype(std::declval\&lt; T\l \&gt;().end()), decltype(std::declval\&lt; T \&gt;().cbegin\l()), decltype(std::declval\&lt; T \&gt;().cend())\&gt;, void \&gt; \&gt;">
<polygon fill="none" stroke="#000000" points="99,-650 99,-779 366,-779 366,-650 99,-650"/>
<text text-anchor="start" x="107" y="-767" font-family="Helvetica,sans-Serif" font-size="10.00" fill="#000000">o2::framework::is_container</text>
<text text-anchor="start" x="107" y="-756" font-family="Helvetica,sans-Serif" font-size="10.00" fill="#000000">&lt; T, std::conditional_t</text>
<text text-anchor="start" x="107" y="-745" font-family="Helvetica,sans-Serif" font-size="10.00" fill="#000000">&lt; false, class_member_checker</text>
<text text-anchor="start" x="107" y="-734" font-family="Helvetica,sans-Serif" font-size="10.00" fill="#000000">&lt; typename T::value_type, typename</text>
<text text-anchor="start" x="107" y="-723" font-family="Helvetica,sans-Serif" font-size="10.00" fill="#000000"> T::size_type, typename T::allocator</text>
<text text-anchor="start" x="107" y="-712" font-family="Helvetica,sans-Serif" font-size="10.00" fill="#000000">_type, typename T::iterator, typename</text>
<text text-anchor="start" x="107" y="-701" font-family="Helvetica,sans-Serif" font-size="10.00" fill="#000000"> T::const_iterator, decltype(std::declval</text>
<text text-anchor="start" x="107" y="-690" font-family="Helvetica,sans-Serif" font-size="10.00" fill="#000000">&lt; T &gt;().size()), decltype(std::declval&lt;</text>
<text text-anchor="start" x="107" y="-679" font-family="Helvetica,sans-Serif" font-size="10.00" fill="#000000"> T &gt;().begin()), decltype(std::declval&lt; T</text>
<text text-anchor="start" x="107" y="-668" font-family="Helvetica,sans-Serif" font-size="10.00" fill="#000000"> &gt;().end()), decltype(std::declval&lt; T &gt;().cbegin</text>
<text text-anchor="middle" x="232.5" y="-657" font-family="Helvetica,sans-Serif" font-size="10.00" fill="#000000">()), decltype(std::declval&lt; T &gt;().cend())&gt;, void &gt; &gt;</text>
</a>
</g>
</g>
<!-- Node136&#45;&gt;Node148 -->
<g id="edge12" class="edge">
<title>Node136&#45;&gt;Node148</title>
<path fill="none" stroke="#191970" d="M72.6262,-665.9811C80.6543,-668.4175 89.4703,-671.093 98.7095,-673.8969"/>
<polygon fill="#191970" stroke="#191970" points="73.4917,-662.5862 62.9063,-663.0313 71.4589,-669.2845 73.4917,-662.5862"/>
</g>
<!-- Node149 -->
<g id="node14" class="node">
<title>Node149</title>
<g id="a_node14"><a xlink:href="df/ddf/structo2_1_1framework_1_1is__forced__non__messageable_3_01T_00_01typename_01std_1_1enable__if_3_9497e1cc58c5001cfb1a9a57a11a8068.html" target="_top" xlink:title="o2::framework::is_forced\l_non_messageable\&lt; T, typename\l std::enable_if\&lt; std::is_same\l\&lt; typename T::non_messageable,\l MarkAsNonMessageable \&gt;::value\l \&gt;::type \&gt;">
<polygon fill="none" stroke="#000000" points="141,-556.5 141,-630.5 324,-630.5 324,-556.5 141,-556.5"/>
<text text-anchor="start" x="149" y="-618.5" font-family="Helvetica,sans-Serif" font-size="10.00" fill="#000000">o2::framework::is_forced</text>
<text text-anchor="start" x="149" y="-607.5" font-family="Helvetica,sans-Serif" font-size="10.00" fill="#000000">_non_messageable&lt; T, typename</text>
<text text-anchor="start" x="149" y="-596.5" font-family="Helvetica,sans-Serif" font-size="10.00" fill="#000000"> std::enable_if&lt; std::is_same</text>
<text text-anchor="start" x="149" y="-585.5" font-family="Helvetica,sans-Serif" font-size="10.00" fill="#000000">&lt; typename T::non_messageable,</text>
<text text-anchor="start" x="149" y="-574.5" font-family="Helvetica,sans-Serif" font-size="10.00" fill="#000000"> MarkAsNonMessageable &gt;::value</text>
<text text-anchor="middle" x="232.5" y="-563.5" font-family="Helvetica,sans-Serif" font-size="10.00" fill="#000000"> &gt;::type &gt;</text>
</a>
</g>
</g>
<!-- Node136&#45;&gt;Node149 -->
<g id="edge13" class="edge">
<title>Node136&#45;&gt;Node149</title>
<path fill="none" stroke="#191970" d="M73.1948,-641.0538C92.8863,-635.1757 117.2243,-627.9106 140.8985,-620.8437"/>
<polygon fill="#191970" stroke="#191970" points="71.9301,-637.7786 63.349,-643.9928 73.9324,-644.4862 71.9301,-637.7786"/>
</g>
<!-- Node150 -->
<g id="node15" class="node">
<title>Node150</title>
<g id="a_node15"><a xlink:href="d2/dd2/structo2_1_1framework_1_1is__messageable_3_01o2_1_1itsmft_1_1Cluster_01_4.html" target="_top" xlink:title="o2::framework::is_messageable\l\&lt; o2::itsmft::Cluster \&gt;">
<polygon fill="none" stroke="#000000" points="146,-507.5 146,-537.5 319,-537.5 319,-507.5 146,-507.5"/>
<text text-anchor="start" x="154" y="-525.5" font-family="Helvetica,sans-Serif" font-size="10.00" fill="#000000">o2::framework::is_messageable</text>
<text text-anchor="middle" x="232.5" y="-514.5" font-family="Helvetica,sans-Serif" font-size="10.00" fill="#000000">&lt; o2::itsmft::Cluster &gt;</text>
</a>
</g>
</g>
<!-- Node136&#45;&gt;Node150 -->
<g id="edge14" class="edge">
<title>Node136&#45;&gt;Node150</title>
<path fill="none" stroke="#191970" d="M38.2669,-634.1104C47.8182,-609.7797 67.6679,-568.6808 99,-547.5 112.8699,-538.1238 129.3151,-532.0255 145.8403,-528.1081"/>
<polygon fill="#191970" stroke="#191970" points="34.909,-633.0986 34.6994,-643.6914 41.469,-635.5413 34.909,-633.0986"/>
</g>
<!-- Node151 -->
<g id="node16" class="node">
<title>Node151</title>
<g id="a_node16"><a xlink:href="d0/d3d/structo2_1_1framework_1_1is__messageable_3_01o2_1_1mft_1_1TrackCA_01_4.html" target="_top" xlink:title="o2::framework::is_messageable\l\&lt; o2::mft::TrackCA \&gt;">
<polygon fill="none" stroke="#000000" points="146,-458.5 146,-488.5 319,-488.5 319,-458.5 146,-458.5"/>
<text text-anchor="start" x="154" y="-476.5" font-family="Helvetica,sans-Serif" font-size="10.00" fill="#000000">o2::framework::is_messageable</text>
<text text-anchor="middle" x="232.5" y="-465.5" font-family="Helvetica,sans-Serif" font-size="10.00" fill="#000000">&lt; o2::mft::TrackCA &gt;</text>
</a>
</g>
</g>
<!-- Node136&#45;&gt;Node151 -->
<g id="edge15" class="edge">
<title>Node136&#45;&gt;Node151</title>
<path fill="none" stroke="#191970" d="M34.1417,-633.6569C39.7063,-600.1932 55.8906,-532.8365 99,-498.5 112.3722,-487.8491 128.8775,-481.2259 145.6688,-477.2032"/>
<polygon fill="#191970" stroke="#191970" points="30.6713,-633.1987 32.6382,-643.6094 37.5928,-634.2444 30.6713,-633.1987"/>
</g>
<!-- Node152 -->
<g id="node17" class="node">
<title>Node152</title>
<g id="a_node17"><a xlink:href="d0/dd9/structo2_1_1framework_1_1is__messageable_3_01o2_1_1mft_1_1TrackLTF_01_4.html" target="_top" xlink:title="o2::framework::is_messageable\l\&lt; o2::mft::TrackLTF \&gt;">
<polygon fill="none" stroke="#000000" points="146,-409.5 146,-439.5 319,-439.5 319,-409.5 146,-409.5"/>
<text text-anchor="start" x="154" y="-427.5" font-family="Helvetica,sans-Serif" font-size="10.00" fill="#000000">o2::framework::is_messageable</text>
<text text-anchor="middle" x="232.5" y="-416.5" font-family="Helvetica,sans-Serif" font-size="10.00" fill="#000000">&lt; o2::mft::TrackLTF &gt;</text>
</a>
</g>
</g>
<!-- Node136&#45;&gt;Node152 -->
<g id="edge16" class="edge">
<title>Node136&#45;&gt;Node152</title>
<path fill="none" stroke="#191970" d="M35.346,-633.9432C44.806,-587.8458 70.5188,-474.3888 99,-449.5 112.1392,-438.0181 128.8372,-431.0852 145.9387,-427.0309"/>
<polygon fill="#191970" stroke="#191970" points="31.8872,-633.3905 33.3451,-643.8845 38.7495,-634.7717 31.8872,-633.3905"/>
</g>
<!-- Node153 -->
<g id="node18" class="node">
<title>Node153</title>
<g id="a_node18"><a xlink:href="dd/dc9/structo2_1_1framework_1_1is__messageable_3_01o2_1_1mft_1_1TrackMFT_01_4.html" target="_top" xlink:title="o2::framework::is_messageable\l\&lt; o2::mft::TrackMFT \&gt;">
<polygon fill="none" stroke="#000000" points="146,-360.5 146,-390.5 319,-390.5 319,-360.5 146,-360.5"/>
<text text-anchor="start" x="154" y="-378.5" font-family="Helvetica,sans-Serif" font-size="10.00" fill="#000000">o2::framework::is_messageable</text>
<text text-anchor="middle" x="232.5" y="-367.5" font-family="Helvetica,sans-Serif" font-size="10.00" fill="#000000">&lt; o2::mft::TrackMFT &gt;</text>
</a>
</g>
</g>
<!-- Node136&#45;&gt;Node153 -->
<g id="edge17" class="edge">
<title>Node136&#45;&gt;Node153</title>
<path fill="none" stroke="#191970" d="M34.0031,-634.0515C41.2933,-580.5044 64.2198,-432.7453 99,-400.5 111.8824,-388.5565 128.5729,-381.4473 145.7642,-377.3701"/>
<polygon fill="#191970" stroke="#191970" points="30.5326,-633.5988 32.6862,-643.9725 37.4717,-634.52 30.5326,-633.5988"/>
</g>
<!-- Node154 -->
<g id="node19" class="node">
<title>Node154</title>
<g id="a_node19"><a xlink:href="d5/d34/structo2_1_1framework_1_1is__messageable_3_01o2_1_1tof_1_1Cluster_01_4.html" target="_top" xlink:title="o2::framework::is_messageable\l\&lt; o2::tof::Cluster \&gt;">
<polygon fill="none" stroke="#000000" points="146,-311.5 146,-341.5 319,-341.5 319,-311.5 146,-311.5"/>
<text text-anchor="start" x="154" y="-329.5" font-family="Helvetica,sans-Serif" font-size="10.00" fill="#000000">o2::framework::is_messageable</text>
<text text-anchor="middle" x="232.5" y="-318.5" font-family="Helvetica,sans-Serif" font-size="10.00" fill="#000000">&lt; o2::tof::Cluster &gt;</text>
</a>
</g>
</g>
<!-- Node136&#45;&gt;Node154 -->
<g id="edge18" class="edge">
<title>Node136&#45;&gt;Node154</title>
<path fill="none" stroke="#191970" d="M33.1421,-633.5814C38.5705,-572.7493 57.9768,-391.1209 99,-351.5 111.7207,-339.2141 128.4463,-331.9813 145.7383,-327.8951"/>
<polygon fill="#191970" stroke="#191970" points="29.6359,-633.504 32.2646,-643.7676 36.61,-634.1049 29.6359,-633.504"/>
</g>
<!-- Node155 -->
<g id="node20" class="node">
<title>Node155</title>
<g id="a_node20"><a xlink:href="d2/dc9/structo2_1_1framework_1_1is__messageable_3_01o2_1_1zdc_1_1RecEvent_01_4.html" target="_top" xlink:title="o2::framework::is_messageable\l\&lt; o2::zdc::RecEvent \&gt;">
<polygon fill="none" stroke="#000000" points="146,-262.5 146,-292.5 319,-292.5 319,-262.5 146,-262.5"/>
<text text-anchor="start" x="154" y="-280.5" font-family="Helvetica,sans-Serif" font-size="10.00" fill="#000000">o2::framework::is_messageable</text>
<text text-anchor="middle" x="232.5" y="-269.5" font-family="Helvetica,sans-Serif" font-size="10.00" fill="#000000">&lt; o2::zdc::RecEvent &gt;</text>
</a>
</g>
</g>
<!-- Node136&#45;&gt;Node155 -->
<g id="edge19" class="edge">
<title>Node136&#45;&gt;Node155</title>
<path fill="none" stroke="#191970" d="M32.4493,-633.936C36.1001,-567.1627 51.4948,-349.7746 99,-302.5 111.6191,-289.9421 128.4066,-282.617 145.8062,-278.5303"/>
<polygon fill="#191970" stroke="#191970" points="28.9527,-633.7824 31.9297,-643.9504 35.9433,-634.1452 28.9527,-633.7824"/>
</g>
<!-- Node156 -->
<g id="node21" class="node">
<title>Node156</title>
<g id="a_node21"><a xlink:href="d4/d04/structo2_1_1framework_1_1is__specialization_3_01Ref_3_01Args_8_8_8_01_4_00_01Ref_01_4.html" target="_top" xlink:title="o2::framework::is_specialization\l\&lt; Ref\&lt; Args... \&gt;, Ref \&gt;">
<polygon fill="none" stroke="#000000" points="145,-213.5 145,-243.5 320,-243.5 320,-213.5 145,-213.5"/>
<text text-anchor="start" x="153" y="-231.5" font-family="Helvetica,sans-Serif" font-size="10.00" fill="#000000">o2::framework::is_specialization</text>
<text text-anchor="middle" x="232.5" y="-220.5" font-family="Helvetica,sans-Serif" font-size="10.00" fill="#000000">&lt; Ref&lt; Args... &gt;, Ref &gt;</text>
</a>
</g>
</g>
<!-- Node136&#45;&gt;Node156 -->
<g id="edge20" class="edge">
<title>Node136&#45;&gt;Node156</title>
<path fill="none" stroke="#191970" d="M31.9553,-633.6189C34.0498,-560.5617 45.1294,-308.3462 99,-253.5 111.3098,-240.9672 127.7611,-233.6117 144.9008,-229.4814"/>
<polygon fill="#191970" stroke="#191970" points="28.4532,-633.6603 31.6912,-643.7482 35.4508,-633.8428 28.4532,-633.6603"/>
</g>
<!-- Node157 -->
<g id="node22" class="node">
<title>Node157</title>
<g id="a_node22"><a xlink:href="d0/d7f/structo2_1_1framework_1_1MakeRootTreeWriterSpec_1_1StringAssignable_3_01T_00_01std_1_1enable__if66c05a5661a1f9dce6d76d2039b1dcfd.html" target="_top" xlink:title="o2::framework::MakeRootTree\lWriterSpec::StringAssignable\l\&lt; T, std::enable_if_t\&lt; std\l::is_same_v\&lt; std::decay_t\&lt; T\l \&gt;, char const * \&gt;\|\|std::is_same\l_v\&lt; std::decay_t\&lt; T \&gt;, char * \&gt;\|\l\|std::is_same_v\&lt; std::decay_t\&lt; T\l \&gt;, std::string \&gt; \&gt; \&gt;">
<polygon fill="none" stroke="#000000" points="142.5,-98.5 142.5,-194.5 322.5,-194.5 322.5,-98.5 142.5,-98.5"/>
<text text-anchor="start" x="150.5" y="-182.5" font-family="Helvetica,sans-Serif" font-size="10.00" fill="#000000">o2::framework::MakeRootTree</text>
<text text-anchor="start" x="150.5" y="-171.5" font-family="Helvetica,sans-Serif" font-size="10.00" fill="#000000">WriterSpec::StringAssignable</text>
<text text-anchor="start" x="150.5" y="-160.5" font-family="Helvetica,sans-Serif" font-size="10.00" fill="#000000">&lt; T, std::enable_if_t&lt; std</text>
<text text-anchor="start" x="150.5" y="-149.5" font-family="Helvetica,sans-Serif" font-size="10.00" fill="#000000">::is_same_v&lt; std::decay_t&lt; T</text>
<text text-anchor="start" x="150.5" y="-138.5" font-family="Helvetica,sans-Serif" font-size="10.00" fill="#000000"> &gt;, char const * &gt;||std::is_same</text>
<text text-anchor="start" x="150.5" y="-127.5" font-family="Helvetica,sans-Serif" font-size="10.00" fill="#000000">_v&lt; std::decay_t&lt; T &gt;, char * &gt;|</text>
<text text-anchor="start" x="150.5" y="-116.5" font-family="Helvetica,sans-Serif" font-size="10.00" fill="#000000">|std::is_same_v&lt; std::decay_t&lt; T</text>
<text text-anchor="middle" x="232.5" y="-105.5" font-family="Helvetica,sans-Serif" font-size="10.00" fill="#000000"> &gt;, std::string &gt; &gt; &gt;</text>
</a>
</g>
</g>
<!-- Node136&#45;&gt;Node157 -->
<g id="edge21" class="edge">
<title>Node136&#45;&gt;Node157</title>
<path fill="none" stroke="#191970" d="M31.989,-633.6474C34.2711,-555.9406 46.1271,-273.3224 99,-204.5 110.1614,-189.9717 125.7081,-179.0205 142.2612,-170.7855"/>
<polygon fill="#191970" stroke="#191970" points="28.4824,-633.8464 31.709,-643.938 35.4798,-634.0369 28.4824,-633.8464"/>
</g>
<!-- Node158 -->
<g id="node23" class="node">
<title>Node158</title>
<g id="a_node23"><a xlink:href="db/d8e/structo2_1_1soa_1_1is__index_3_01Ref_3_01Args_8_8_8_01_4_00_01Ref_01_4.html" target="_top" xlink:title="o2::soa::is_index\&lt;\l Ref\&lt; Args... \&gt;, Ref \&gt;">
<polygon fill="none" stroke="#000000" points="171.5,-49.5 171.5,-79.5 293.5,-79.5 293.5,-49.5 171.5,-49.5"/>
<text text-anchor="start" x="179.5" y="-67.5" font-family="Helvetica,sans-Serif" font-size="10.00" fill="#000000">o2::soa::is_index&lt;</text>
<text text-anchor="middle" x="232.5" y="-56.5" font-family="Helvetica,sans-Serif" font-size="10.00" fill="#000000"> Ref&lt; Args... &gt;, Ref &gt;</text>
</a>
</g>
</g>
<!-- Node136&#45;&gt;Node158 -->
<g id="edge22" class="edge">
<title>Node136&#45;&gt;Node158</title>
<path fill="none" stroke="#191970" d="M32.5068,-633.5275C37.5064,-537.9423 60.9534,-130.1446 99,-89.5 117.2897,-69.9613 145.6034,-62.8338 171.4574,-60.9529"/>
<polygon fill="#191970" stroke="#191970" points="29.0076,-633.4241 31.9888,-643.5908 35.9984,-633.784 29.0076,-633.4241"/>
</g>
<!-- Node159 -->
<g id="node24" class="node">
<title>Node159</title>
<g id="a_node24"><a xlink:href="dc/d6e/structstd_1_1is__trivially__copyable_3_01Point3D_3_01T_01_4_01_4.html" target="_top" xlink:title="std::is_trivially_copyable\l\&lt; Point3D\&lt; T \&gt; \&gt;">
<polygon fill="none" stroke="#000000" points="163.5,-.5 163.5,-30.5 301.5,-30.5 301.5,-.5 163.5,-.5"/>
<text text-anchor="start" x="171.5" y="-18.5" font-family="Helvetica,sans-Serif" font-size="10.00" fill="#000000">std::is_trivially_copyable</text>
<text text-anchor="middle" x="232.5" y="-7.5" font-family="Helvetica,sans-Serif" font-size="10.00" fill="#000000">&lt; Point3D&lt; T &gt; &gt;</text>
</a>
</g>
</g>
<!-- Node136&#45;&gt;Node159 -->
<g id="edge23" class="edge">
<title>Node136&#45;&gt;Node159</title>
<path fill="none" stroke="#191970" d="M32.3112,-633.4139C36.5646,-532.6241 57.6847,-85.0563 99,-40.5 115.3535,-22.8636 139.8688,-15.3124 163.4457,-12.6096"/>
<polygon fill="#191970" stroke="#191970" points="28.8018,-633.5722 31.8851,-643.7084 35.7958,-633.8617 28.8018,-633.5722"/>
</g>
<!-- Node1 -->
<g id="node3" class="node">
<title>Node1</title>
<g id="a_node3"><a xlink:href="d3/d71/structnlohmann_1_1detail_1_1is__compatible__type.html" target="_top" xlink:title="nlohmann::detail::is\l_compatible_type\&lt; BasicJson\lType, CompatibleType \&gt;">
<polygon fill="none" stroke="#000000" points="402,-1423 402,-1464 563,-1464 563,-1423 402,-1423"/>
<text text-anchor="start" x="410" y="-1452" font-family="Helvetica,sans-Serif" font-size="10.00" fill="#000000">nlohmann::detail::is</text>
<text text-anchor="start" x="410" y="-1441" font-family="Helvetica,sans-Serif" font-size="10.00" fill="#000000">_compatible_type&lt; BasicJson</text>
<text text-anchor="middle" x="482.5" y="-1430" font-family="Helvetica,sans-Serif" font-size="10.00" fill="#000000">Type, CompatibleType &gt;</text>
</a>
</g>
</g>
<!-- Node0&#45;&gt;Node1 -->
<g id="edge2" class="edge">
<title>Node0&#45;&gt;Node1</title>
<path fill="none" stroke="#191970" d="M344.5832,-1443.5C363.87,-1443.5 383.5714,-1443.5 401.8243,-1443.5"/>
<polygon fill="#191970" stroke="#191970" points="344.5452,-1440.0001 334.5451,-1443.5 344.5451,-1447.0001 344.5452,-1440.0001"/>
</g>
</g>
</svg>
