<?xml version="1.0" encoding="UTF-8" standalone="no"?>
<!DOCTYPE svg PUBLIC "-//W3C//DTD SVG 1.1//EN"
 "http://www.w3.org/Graphics/SVG/1.1/DTD/svg11.dtd">
<!-- Generated by graphviz version 2.40.1 (20161225.0304)
 -->
<!-- Title: /home/travis/build/AliceO2Group/AliceO2/DataFormats/Reconstruction/include/ReconstructionDataFormats/TrackTPCITS.h Pages: 1 -->
<svg width="2557pt" height="372pt"
 viewBox="0.00 0.00 2556.50 372.00" xmlns="http://www.w3.org/2000/svg" xmlns:xlink="http://www.w3.org/1999/xlink">
<g id="graph0" class="graph" transform="scale(1 1) rotate(0) translate(4 368)">
<title>/home/travis/build/AliceO2Group/AliceO2/DataFormats/Reconstruction/include/ReconstructionDataFormats/TrackTPCITS.h</title>
<!-- Node53 -->
<g id="node1" class="node">
<title>Node53</title>
<polygon fill="#bfbfbf" stroke="#000000" points="1017.5,-300.5 1017.5,-363.5 1210.5,-363.5 1210.5,-300.5 1017.5,-300.5"/>
<text text-anchor="start" x="1025.5" y="-351.5" font-family="Helvetica,sans-Serif" font-size="10.00" fill="#000000">/home/travis/build</text>
<text text-anchor="start" x="1025.5" y="-340.5" font-family="Helvetica,sans-Serif" font-size="10.00" fill="#000000">/AliceO2Group/AliceO2</text>
<text text-anchor="start" x="1025.5" y="-329.5" font-family="Helvetica,sans-Serif" font-size="10.00" fill="#000000">/DataFormats/Reconstruction</text>
<text text-anchor="start" x="1025.5" y="-318.5" font-family="Helvetica,sans-Serif" font-size="10.00" fill="#000000">/include/ReconstructionDataFormats</text>
<text text-anchor="middle" x="1114" y="-307.5" font-family="Helvetica,sans-Serif" font-size="10.00" fill="#000000">/TrackTPCITS.h</text>
</g>
<!-- Node54 -->
<g id="node2" class="node">
<title>Node54</title>
<g id="a_node2"><a xlink:href="../../db/d65/TrackTPCITS_8cxx.html" target="_top" xlink:title="/home/travis/build\l/AliceO2Group/AliceO2\l/DataFormats/Reconstruction\l/src/TrackTPCITS.cxx">
<polygon fill="none" stroke="#000000" points="0,-206 0,-258 158,-258 158,-206 0,-206"/>
<text text-anchor="start" x="8" y="-246" font-family="Helvetica,sans-Serif" font-size="10.00" fill="#000000">/home/travis/build</text>
<text text-anchor="start" x="8" y="-235" font-family="Helvetica,sans-Serif" font-size="10.00" fill="#000000">/AliceO2Group/AliceO2</text>
<text text-anchor="start" x="8" y="-224" font-family="Helvetica,sans-Serif" font-size="10.00" fill="#000000">/DataFormats/Reconstruction</text>
<text text-anchor="middle" x="79" y="-213" font-family="Helvetica,sans-Serif" font-size="10.00" fill="#000000">/src/TrackTPCITS.cxx</text>
</a>
</g>
</g>
<!-- Node53&#45;&gt;Node54 -->
<g id="edge1" class="edge">
<title>Node53&#45;&gt;Node54</title>
<path fill="none" stroke="#191970" d="M1007.0974,-327.7719C795.2293,-318.8185 328.9671,-296.1015 172,-264 164.2212,-262.4091 156.1999,-260.3404 148.2808,-258.0199"/>
<polygon fill="#191970" stroke="#191970" points="1007.1614,-331.2776 1017.2996,-328.2007 1007.4554,-324.2838 1007.1614,-331.2776"/>
</g>
<!-- Node55 -->
<g id="node3" class="node">
<title>Node55</title>
<g id="a_node3"><a xlink:href="../../d0/d74/MatchTOF_8h.html" target="_top" xlink:title="Class to perform TOF matching to global tracks. ">
<polygon fill="none" stroke="#000000" points="214,-106 214,-158 402,-158 402,-106 214,-106"/>
<text text-anchor="start" x="222" y="-146" font-family="Helvetica,sans-Serif" font-size="10.00" fill="#000000">/home/travis/build</text>
<text text-anchor="start" x="222" y="-135" font-family="Helvetica,sans-Serif" font-size="10.00" fill="#000000">/AliceO2Group/AliceO2</text>
<text text-anchor="start" x="222" y="-124" font-family="Helvetica,sans-Serif" font-size="10.00" fill="#000000">/Detectors/GlobalTracking</text>
<text text-anchor="middle" x="308" y="-113" font-family="Helvetica,sans-Serif" font-size="10.00" fill="#000000">/include/GlobalTracking/MatchTOF.h</text>
</a>
</g>
</g>
<!-- Node53&#45;&gt;Node55 -->
<g id="edge2" class="edge">
<title>Node53&#45;&gt;Node55</title>
<path fill="none" stroke="#191970" d="M1007.0434,-326.0597C824.5696,-315.2624 467.7968,-291.0227 417,-264 372.1325,-240.1316 338.5713,-189.2538 321.231,-158.0992"/>
<polygon fill="#191970" stroke="#191970" points="1007.0141,-329.564 1017.2025,-326.6576 1007.4255,-322.5761 1007.0141,-329.564"/>
</g>
<!-- Node57 -->
<g id="node5" class="node">
<title>Node57</title>
<g id="a_node5"><a xlink:href="../../d8/d84/RecoWorkflowSpec_8cxx.html" target="_top" xlink:title="/home/travis/build\l/AliceO2Group/AliceO2\l/Detectors/GlobalTrackingWorkflow\l/tofworkflow/src/RecoWorkflowSpec.cxx">
<polygon fill="none" stroke="#000000" points="17.5,-6 17.5,-58 226.5,-58 226.5,-6 17.5,-6"/>
<text text-anchor="start" x="25.5" y="-46" font-family="Helvetica,sans-Serif" font-size="10.00" fill="#000000">/home/travis/build</text>
<text text-anchor="start" x="25.5" y="-35" font-family="Helvetica,sans-Serif" font-size="10.00" fill="#000000">/AliceO2Group/AliceO2</text>
<text text-anchor="start" x="25.5" y="-24" font-family="Helvetica,sans-Serif" font-size="10.00" fill="#000000">/Detectors/GlobalTrackingWorkflow</text>
<text text-anchor="middle" x="122" y="-13" font-family="Helvetica,sans-Serif" font-size="10.00" fill="#000000">/tofworkflow/src/RecoWorkflowSpec.cxx</text>
</a>
</g>
</g>
<!-- Node53&#45;&gt;Node57 -->
<g id="edge21" class="edge">
<title>Node53&#45;&gt;Node57</title>
<path fill="none" stroke="#191970" d="M1007.1986,-329.4133C825.5289,-323.8747 464.5117,-307.6096 346,-264 273.8993,-237.4686 257.7949,-219.8133 205,-164 174.3987,-131.6492 148.8536,-86.3706 134.5022,-58.1362"/>
<polygon fill="#191970" stroke="#191970" points="1007.2068,-332.915 1017.3071,-329.716 1007.4164,-325.9181 1007.2068,-332.915"/>
</g>
<!-- Node58 -->
<g id="node6" class="node">
<title>Node58</title>
<g id="a_node6"><a xlink:href="../../d3/dac/MatchTPCITS_8h.html" target="_top" xlink:title="Class to perform TPC ITS matching. ">
<polygon fill="none" stroke="#000000" points="426.5,-206 426.5,-258 631.5,-258 631.5,-206 426.5,-206"/>
<text text-anchor="start" x="434.5" y="-246" font-family="Helvetica,sans-Serif" font-size="10.00" fill="#000000">/home/travis/build</text>
<text text-anchor="start" x="434.5" y="-235" font-family="Helvetica,sans-Serif" font-size="10.00" fill="#000000">/AliceO2Group/AliceO2</text>
<text text-anchor="start" x="434.5" y="-224" font-family="Helvetica,sans-Serif" font-size="10.00" fill="#000000">/Detectors/GlobalTracking</text>
<text text-anchor="middle" x="529" y="-213" font-family="Helvetica,sans-Serif" font-size="10.00" fill="#000000">/include/GlobalTracking/MatchTPCITS.h</text>
</a>
</g>
</g>
<!-- Node53&#45;&gt;Node58 -->
<g id="edge5" class="edge">
<title>Node53&#45;&gt;Node58</title>
<path fill="none" stroke="#191970" d="M1007.2362,-313.7498C900.3591,-295.4802 737.0533,-267.5647 631.6524,-249.5474"/>
<polygon fill="#191970" stroke="#191970" points="1006.9524,-317.252 1017.3991,-315.487 1008.1319,-310.352 1006.9524,-317.252"/>
</g>
<!-- Node62 -->
<g id="node10" class="node">
<title>Node62</title>
<g id="a_node10"><a xlink:href="../../d6/d73/TPCITSMatchingSpec_8cxx.html" target="_top" xlink:title="/home/travis/build\l/AliceO2Group/AliceO2\l/Detectors/GlobalTrackingWorkflow\l/src/TPCITSMatchingSpec.cxx">
<polygon fill="none" stroke="#000000" points="610.5,-6 610.5,-58 797.5,-58 797.5,-6 610.5,-6"/>
<text text-anchor="start" x="618.5" y="-46" font-family="Helvetica,sans-Serif" font-size="10.00" fill="#000000">/home/travis/build</text>
<text text-anchor="start" x="618.5" y="-35" font-family="Helvetica,sans-Serif" font-size="10.00" fill="#000000">/AliceO2Group/AliceO2</text>
<text text-anchor="start" x="618.5" y="-24" font-family="Helvetica,sans-Serif" font-size="10.00" fill="#000000">/Detectors/GlobalTrackingWorkflow</text>
<text text-anchor="middle" x="704" y="-13" font-family="Helvetica,sans-Serif" font-size="10.00" fill="#000000">/src/TPCITSMatchingSpec.cxx</text>
</a>
</g>
</g>
<!-- Node53&#45;&gt;Node62 -->
<g id="edge19" class="edge">
<title>Node53&#45;&gt;Node62</title>
<path fill="none" stroke="#191970" d="M1067.7926,-293.8248C1009.8323,-246.5163 906.777,-164.2893 814,-100 792.9624,-85.4221 768.848,-70.343 748.569,-58.1"/>
<polygon fill="#191970" stroke="#191970" points="1065.709,-296.6422 1075.666,-300.263 1070.1402,-291.2233 1065.709,-296.6422"/>
</g>
<!-- Node63 -->
<g id="node11" class="node">
<title>Node63</title>
<g id="a_node11"><a xlink:href="../../de/daa/TrackTPCITSReaderSpec_8h.html" target="_top" xlink:title="/home/travis/build\l/AliceO2Group/AliceO2\l/Detectors/GlobalTrackingWorkflow\l/include/GlobalTrackingWorkflow\l/TrackTPCITSReaderSpec.h">
<polygon fill="none" stroke="#000000" points="1020.5,-100.5 1020.5,-163.5 1207.5,-163.5 1207.5,-100.5 1020.5,-100.5"/>
<text text-anchor="start" x="1028.5" y="-151.5" font-family="Helvetica,sans-Serif" font-size="10.00" fill="#000000">/home/travis/build</text>
<text text-anchor="start" x="1028.5" y="-140.5" font-family="Helvetica,sans-Serif" font-size="10.00" fill="#000000">/AliceO2Group/AliceO2</text>
<text text-anchor="start" x="1028.5" y="-129.5" font-family="Helvetica,sans-Serif" font-size="10.00" fill="#000000">/Detectors/GlobalTrackingWorkflow</text>
<text text-anchor="start" x="1028.5" y="-118.5" font-family="Helvetica,sans-Serif" font-size="10.00" fill="#000000">/include/GlobalTrackingWorkflow</text>
<text text-anchor="middle" x="1114" y="-107.5" font-family="Helvetica,sans-Serif" font-size="10.00" fill="#000000">/TrackTPCITSReaderSpec.h</text>
</a>
</g>
</g>
<!-- Node53&#45;&gt;Node63 -->
<g id="edge12" class="edge">
<title>Node53&#45;&gt;Node63</title>
<path fill="none" stroke="#191970" d="M1114,-290.1431C1114,-252.3965 1114,-197.7143 1114,-163.5423"/>
<polygon fill="#191970" stroke="#191970" points="1110.5001,-290.3094 1114,-300.3094 1117.5001,-290.3094 1110.5001,-290.3094"/>
</g>
<!-- Node69 -->
<g id="node17" class="node">
<title>Node69</title>
<g id="a_node17"><a xlink:href="../../db/d2d/PrimaryVertexingSpec_8cxx.html" target="_top" xlink:title="/home/travis/build\l/AliceO2Group/AliceO2\l/Detectors/GlobalTrackingWorkflow\l/src/PrimaryVertexingSpec.cxx">
<polygon fill="none" stroke="#000000" points="2361.5,-6 2361.5,-58 2548.5,-58 2548.5,-6 2361.5,-6"/>
<text text-anchor="start" x="2369.5" y="-46" font-family="Helvetica,sans-Serif" font-size="10.00" fill="#000000">/home/travis/build</text>
<text text-anchor="start" x="2369.5" y="-35" font-family="Helvetica,sans-Serif" font-size="10.00" fill="#000000">/AliceO2Group/AliceO2</text>
<text text-anchor="start" x="2369.5" y="-24" font-family="Helvetica,sans-Serif" font-size="10.00" fill="#000000">/Detectors/GlobalTrackingWorkflow</text>
<text text-anchor="middle" x="2455" y="-13" font-family="Helvetica,sans-Serif" font-size="10.00" fill="#000000">/src/PrimaryVertexingSpec.cxx</text>
</a>
</g>
</g>
<!-- Node53&#45;&gt;Node69 -->
<g id="edge18" class="edge">
<title>Node53&#45;&gt;Node69</title>
<path fill="none" stroke="#191970" d="M1220.9486,-329.2198C1503.0467,-321.455 2253.0172,-297.8642 2360,-264 2439.9479,-238.6934 2479.3485,-237.3454 2520,-164 2533.789,-139.1213 2530.5882,-126.4003 2520,-100 2513.556,-83.9327 2501.3043,-69.5127 2489.1593,-58.1305"/>
<polygon fill="#191970" stroke="#191970" points="1220.607,-325.7278 1210.7066,-329.5004 1220.7988,-332.7251 1220.607,-325.7278"/>
</g>
<!-- Node70 -->
<g id="node18" class="node">
<title>Node70</title>
<g id="a_node18"><a xlink:href="../../d3/d52/TrackWriterTPCITSSpec_8cxx.html" target="_top" xlink:title="/home/travis/build\l/AliceO2Group/AliceO2\l/Detectors/GlobalTrackingWorkflow\l/src/TrackWriterTPCITSSpec.cxx">
<polygon fill="none" stroke="#000000" points="1543.5,-206 1543.5,-258 1730.5,-258 1730.5,-206 1543.5,-206"/>
<text text-anchor="start" x="1551.5" y="-246" font-family="Helvetica,sans-Serif" font-size="10.00" fill="#000000">/home/travis/build</text>
<text text-anchor="start" x="1551.5" y="-235" font-family="Helvetica,sans-Serif" font-size="10.00" fill="#000000">/AliceO2Group/AliceO2</text>
<text text-anchor="start" x="1551.5" y="-224" font-family="Helvetica,sans-Serif" font-size="10.00" fill="#000000">/Detectors/GlobalTrackingWorkflow</text>
<text text-anchor="middle" x="1637" y="-213" font-family="Helvetica,sans-Serif" font-size="10.00" fill="#000000">/src/TrackWriterTPCITSSpec.cxx</text>
</a>
</g>
</g>
<!-- Node53&#45;&gt;Node70 -->
<g id="edge20" class="edge">
<title>Node53&#45;&gt;Node70</title>
<path fill="none" stroke="#191970" d="M1220.6347,-318.4189C1305.1125,-306.7365 1425.8361,-287.9846 1530,-264 1537.7469,-262.2162 1545.7569,-260.183 1553.7471,-258.026"/>
<polygon fill="#191970" stroke="#191970" points="1219.9466,-314.9804 1210.5157,-319.8084 1220.8989,-321.9153 1219.9466,-314.9804"/>
</g>
<!-- Node71 -->
<g id="node19" class="node">
<title>Node71</title>
<g id="a_node19"><a xlink:href="../../d8/d85/TPCInterpolationSpec_8cxx.html" target="_top" xlink:title="/home/travis/build\l/AliceO2Group/AliceO2\l/Detectors/GlobalTrackingWorkflow\l/tpcinterpolationworkflow/src\l/TPCInterpolationSpec.cxx">
<polygon fill="none" stroke="#000000" points="1651.5,-.5 1651.5,-63.5 1838.5,-63.5 1838.5,-.5 1651.5,-.5"/>
<text text-anchor="start" x="1659.5" y="-51.5" font-family="Helvetica,sans-Serif" font-size="10.00" fill="#000000">/home/travis/build</text>
<text text-anchor="start" x="1659.5" y="-40.5" font-family="Helvetica,sans-Serif" font-size="10.00" fill="#000000">/AliceO2Group/AliceO2</text>
<text text-anchor="start" x="1659.5" y="-29.5" font-family="Helvetica,sans-Serif" font-size="10.00" fill="#000000">/Detectors/GlobalTrackingWorkflow</text>
<text text-anchor="start" x="1659.5" y="-18.5" font-family="Helvetica,sans-Serif" font-size="10.00" fill="#000000">/tpcinterpolationworkflow/src</text>
<text text-anchor="middle" x="1745" y="-7.5" font-family="Helvetica,sans-Serif" font-size="10.00" fill="#000000">/TPCInterpolationSpec.cxx</text>
</a>
</g>
</g>
<!-- Node53&#45;&gt;Node71 -->
<g id="edge22" class="edge">
<title>Node53&#45;&gt;Node71</title>
<path fill="none" stroke="#191970" d="M1220.4012,-304.4878C1303.1416,-278.8839 1416.9464,-233.9919 1497,-164 1522.0766,-142.0752 1509.8712,-120.6596 1536,-100 1538.5348,-97.9958 1596.9387,-79.0627 1651.3589,-61.683"/>
<polygon fill="#191970" stroke="#191970" points="1219.2677,-301.1743 1210.7233,-307.4388 1221.3093,-307.87 1219.2677,-301.1743"/>
</g>
<!-- Node72 -->
<g id="node20" class="node">
<title>Node72</title>
<g id="a_node20"><a xlink:href="../../d3/d0c/TrackInterpolation_8h.html" target="_top" xlink:title="Definition of the TrackInterpolation class. ">
<polygon fill="none" stroke="#000000" points="1748.5,-200.5 1748.5,-263.5 1927.5,-263.5 1927.5,-200.5 1748.5,-200.5"/>
<text text-anchor="start" x="1756.5" y="-251.5" font-family="Helvetica,sans-Serif" font-size="10.00" fill="#000000">/home/travis/build</text>
<text text-anchor="start" x="1756.5" y="-240.5" font-family="Helvetica,sans-Serif" font-size="10.00" fill="#000000">/AliceO2Group/AliceO2</text>
<text text-anchor="start" x="1756.5" y="-229.5" font-family="Helvetica,sans-Serif" font-size="10.00" fill="#000000">/Detectors/TPC/calibration</text>
<text text-anchor="start" x="1756.5" y="-218.5" font-family="Helvetica,sans-Serif" font-size="10.00" fill="#000000">/SpacePoints/include/SpacePoints</text>
<text text-anchor="middle" x="1838" y="-207.5" font-family="Helvetica,sans-Serif" font-size="10.00" fill="#000000">/TrackInterpolation.h</text>
</a>
</g>
</g>
<!-- Node53&#45;&gt;Node72 -->
<g id="edge23" class="edge">
<title>Node53&#45;&gt;Node72</title>
<path fill="none" stroke="#191970" d="M1220.6992,-327.153C1346.159,-319.9067 1560.1123,-302.7008 1740,-264 1742.7996,-263.3977 1745.6321,-262.7457 1748.4824,-262.0525"/>
<polygon fill="#191970" stroke="#191970" points="1220.4892,-323.6592 1210.7035,-327.7201 1220.8857,-330.648 1220.4892,-323.6592"/>
</g>
<!-- Node78 -->
<g id="node26" class="node">
<title>Node78</title>
<g id="a_node26"><a xlink:href="../../d4/d02/PVertexer_8h.html" target="_top" xlink:title="Primary vertex finder. ">
<polygon fill="none" stroke="#000000" points="2179,-206 2179,-258 2351,-258 2351,-206 2179,-206"/>
<text text-anchor="start" x="2187" y="-246" font-family="Helvetica,sans-Serif" font-size="10.00" fill="#000000">/home/travis/build</text>
<text text-anchor="start" x="2187" y="-235" font-family="Helvetica,sans-Serif" font-size="10.00" fill="#000000">/AliceO2Group/AliceO2</text>
<text text-anchor="start" x="2187" y="-224" font-family="Helvetica,sans-Serif" font-size="10.00" fill="#000000">/Detectors/Vertexing/include</text>
<text text-anchor="middle" x="2265" y="-213" font-family="Helvetica,sans-Serif" font-size="10.00" fill="#000000">/DetectorsVertexing/PVertexer.h</text>
</a>
</g>
</g>
<!-- Node53&#45;&gt;Node78 -->
<g id="edge31" class="edge">
<title>Node53&#45;&gt;Node78</title>
<path fill="none" stroke="#191970" d="M1220.7765,-323.6856C1377.7674,-311.3459 1680.0847,-287.1449 1937,-264 2019.057,-256.6077 2112.5811,-247.4067 2178.7085,-240.7708"/>
<polygon fill="#191970" stroke="#191970" points="1220.3432,-320.2088 1210.648,-324.4811 1220.8914,-327.1873 1220.3432,-320.2088"/>
</g>
<!-- Node56 -->
<g id="node4" class="node">
<title>Node56</title>
<g id="a_node4"><a xlink:href="../../db/d6a/MatchTOF_8cxx.html" target="_top" xlink:title="/home/travis/build\l/AliceO2Group/AliceO2\l/Detectors/GlobalTracking\l/src/MatchTOF.cxx">
<polygon fill="none" stroke="#000000" points="245,-6 245,-58 387,-58 387,-6 245,-6"/>
<text text-anchor="start" x="253" y="-46" font-family="Helvetica,sans-Serif" font-size="10.00" fill="#000000">/home/travis/build</text>
<text text-anchor="start" x="253" y="-35" font-family="Helvetica,sans-Serif" font-size="10.00" fill="#000000">/AliceO2Group/AliceO2</text>
<text text-anchor="start" x="253" y="-24" font-family="Helvetica,sans-Serif" font-size="10.00" fill="#000000">/Detectors/GlobalTracking</text>
<text text-anchor="middle" x="316" y="-13" font-family="Helvetica,sans-Serif" font-size="10.00" fill="#000000">/src/MatchTOF.cxx</text>
</a>
</g>
</g>
<!-- Node55&#45;&gt;Node56 -->
<g id="edge3" class="edge">
<title>Node55&#45;&gt;Node56</title>
<path fill="none" stroke="#191970" d="M310.8883,-95.8962C311.8845,-83.4433 312.9807,-69.7413 313.9016,-58.2299"/>
<polygon fill="#191970" stroke="#191970" points="307.3897,-95.7399 310.081,-105.9872 314.3674,-96.2982 307.3897,-95.7399"/>
</g>
<!-- Node55&#45;&gt;Node57 -->
<g id="edge4" class="edge">
<title>Node55&#45;&gt;Node57</title>
<path fill="none" stroke="#191970" d="M250.7207,-101.2047C225.0207,-87.3875 195.0291,-71.263 170.4643,-58.0561"/>
<polygon fill="#191970" stroke="#191970" points="249.1511,-104.3345 259.6162,-105.9872 252.4659,-98.1691 249.1511,-104.3345"/>
</g>
<!-- Node58&#45;&gt;Node55 -->
<g id="edge6" class="edge">
<title>Node58&#45;&gt;Node55</title>
<path fill="none" stroke="#191970" d="M462.1398,-201.7465C431.3411,-187.8105 395.1535,-171.436 365.5839,-158.0561"/>
<polygon fill="#191970" stroke="#191970" points="460.9582,-205.0534 471.5118,-205.9872 463.8439,-198.6759 460.9582,-205.0534"/>
</g>
<!-- Node58&#45;&gt;Node56 -->
<g id="edge7" class="edge">
<title>Node58&#45;&gt;Node56</title>
<path fill="none" stroke="#191970" d="M485.1563,-199.1995C472.6791,-188.7259 459.6095,-176.5691 449,-164 427.6622,-138.7212 433.3712,-124.369 411,-100 396.3233,-84.0126 377.3191,-69.5102 360.1689,-58.0444"/>
<polygon fill="#191970" stroke="#191970" points="483.2862,-202.1922 493.2382,-205.8265 487.7247,-196.7793 483.2862,-202.1922"/>
</g>
<!-- Node59 -->
<g id="node7" class="node">
<title>Node59</title>
<g id="a_node7"><a xlink:href="../../dc/d59/MatchTPCITS_8cxx.html" target="_top" xlink:title="/home/travis/build\l/AliceO2Group/AliceO2\l/Detectors/GlobalTracking\l/src/MatchTPCITS.cxx">
<polygon fill="none" stroke="#000000" points="458,-106 458,-158 600,-158 600,-106 458,-106"/>
<text text-anchor="start" x="466" y="-146" font-family="Helvetica,sans-Serif" font-size="10.00" fill="#000000">/home/travis/build</text>
<text text-anchor="start" x="466" y="-135" font-family="Helvetica,sans-Serif" font-size="10.00" fill="#000000">/AliceO2Group/AliceO2</text>
<text text-anchor="start" x="466" y="-124" font-family="Helvetica,sans-Serif" font-size="10.00" fill="#000000">/Detectors/GlobalTracking</text>
<text text-anchor="middle" x="529" y="-113" font-family="Helvetica,sans-Serif" font-size="10.00" fill="#000000">/src/MatchTPCITS.cxx</text>
</a>
</g>
</g>
<!-- Node58&#45;&gt;Node59 -->
<g id="edge8" class="edge">
<title>Node58&#45;&gt;Node59</title>
<path fill="none" stroke="#191970" d="M529,-195.8962C529,-183.4433 529,-169.7413 529,-158.2299"/>
<polygon fill="#191970" stroke="#191970" points="525.5001,-195.9872 529,-205.9872 532.5001,-195.9873 525.5001,-195.9872"/>
</g>
<!-- Node60 -->
<g id="node8" class="node">
<title>Node60</title>
<g id="a_node8"><a xlink:href="../../da/d20/TPCITSMatchingSpec_8h.html" target="_top" xlink:title="/home/travis/build\l/AliceO2Group/AliceO2\l/Detectors/GlobalTrackingWorkflow\l/include/GlobalTrackingWorkflow\l/TPCITSMatchingSpec.h">
<polygon fill="none" stroke="#000000" points="618.5,-100.5 618.5,-163.5 805.5,-163.5 805.5,-100.5 618.5,-100.5"/>
<text text-anchor="start" x="626.5" y="-151.5" font-family="Helvetica,sans-Serif" font-size="10.00" fill="#000000">/home/travis/build</text>
<text text-anchor="start" x="626.5" y="-140.5" font-family="Helvetica,sans-Serif" font-size="10.00" fill="#000000">/AliceO2Group/AliceO2</text>
<text text-anchor="start" x="626.5" y="-129.5" font-family="Helvetica,sans-Serif" font-size="10.00" fill="#000000">/Detectors/GlobalTrackingWorkflow</text>
<text text-anchor="start" x="626.5" y="-118.5" font-family="Helvetica,sans-Serif" font-size="10.00" fill="#000000">/include/GlobalTrackingWorkflow</text>
<text text-anchor="middle" x="712" y="-107.5" font-family="Helvetica,sans-Serif" font-size="10.00" fill="#000000">/TPCITSMatchingSpec.h</text>
</a>
</g>
</g>
<!-- Node58&#45;&gt;Node60 -->
<g id="edge9" class="edge">
<title>Node58&#45;&gt;Node60</title>
<path fill="none" stroke="#191970" d="M585.4321,-201.1628C607.263,-189.2333 632.2321,-175.589 654.1919,-163.5891"/>
<polygon fill="#191970" stroke="#191970" points="583.7003,-198.1206 576.6034,-205.9872 587.057,-204.2633 583.7003,-198.1206"/>
</g>
<!-- Node61 -->
<g id="node9" class="node">
<title>Node61</title>
<g id="a_node9"><a xlink:href="../../d5/db4/MatchTPCITSWorkflow_8cxx.html" target="_top" xlink:title="/home/travis/build\l/AliceO2Group/AliceO2\l/Detectors/GlobalTrackingWorkflow\l/src/MatchTPCITSWorkflow.cxx">
<polygon fill="none" stroke="#000000" points="405.5,-6 405.5,-58 592.5,-58 592.5,-6 405.5,-6"/>
<text text-anchor="start" x="413.5" y="-46" font-family="Helvetica,sans-Serif" font-size="10.00" fill="#000000">/home/travis/build</text>
<text text-anchor="start" x="413.5" y="-35" font-family="Helvetica,sans-Serif" font-size="10.00" fill="#000000">/AliceO2Group/AliceO2</text>
<text text-anchor="start" x="413.5" y="-24" font-family="Helvetica,sans-Serif" font-size="10.00" fill="#000000">/Detectors/GlobalTrackingWorkflow</text>
<text text-anchor="middle" x="499" y="-13" font-family="Helvetica,sans-Serif" font-size="10.00" fill="#000000">/src/MatchTPCITSWorkflow.cxx</text>
</a>
</g>
</g>
<!-- Node60&#45;&gt;Node61 -->
<g id="edge10" class="edge">
<title>Node60&#45;&gt;Node61</title>
<path fill="none" stroke="#191970" d="M635.5757,-96.12C608.8614,-83.5781 579.3969,-69.745 554.6948,-58.1478"/>
<polygon fill="#191970" stroke="#191970" points="634.3583,-99.415 644.8978,-100.4966 637.3332,-93.0786 634.3583,-99.415"/>
</g>
<!-- Node60&#45;&gt;Node62 -->
<g id="edge11" class="edge">
<title>Node60&#45;&gt;Node62</title>
<path fill="none" stroke="#191970" d="M708.653,-90.1631C707.7829,-79.2863 706.8704,-67.8798 706.0862,-58.078"/>
<polygon fill="#191970" stroke="#191970" points="705.1824,-90.6704 709.4688,-100.3594 712.1601,-90.1121 705.1824,-90.6704"/>
</g>
<!-- Node64 -->
<g id="node12" class="node">
<title>Node64</title>
<g id="a_node12"><a xlink:href="../../d2/dfc/primary-vertexing-workflow_8cxx.html" target="_top" xlink:title="/home/travis/build\l/AliceO2Group/AliceO2\l/Detectors/GlobalTrackingWorkflow\l/src/primary&#45;vertexing&#45;workflow.cxx">
<polygon fill="none" stroke="#000000" points="1856.5,-6 1856.5,-58 2049.5,-58 2049.5,-6 1856.5,-6"/>
<text text-anchor="start" x="1864.5" y="-46" font-family="Helvetica,sans-Serif" font-size="10.00" fill="#000000">/home/travis/build</text>
<text text-anchor="start" x="1864.5" y="-35" font-family="Helvetica,sans-Serif" font-size="10.00" fill="#000000">/AliceO2Group/AliceO2</text>
<text text-anchor="start" x="1864.5" y="-24" font-family="Helvetica,sans-Serif" font-size="10.00" fill="#000000">/Detectors/GlobalTrackingWorkflow</text>
<text text-anchor="middle" x="1953" y="-13" font-family="Helvetica,sans-Serif" font-size="10.00" fill="#000000">/src/primary&#45;vertexing&#45;workflow.cxx</text>
</a>
</g>
</g>
<!-- Node63&#45;&gt;Node64 -->
<g id="edge13" class="edge">
<title>Node63&#45;&gt;Node64</title>
<path fill="none" stroke="#191970" d="M1217.4735,-100.1089C1495.2635,-51.4261 1574.6995,-112.718 1848,-64 1856.8178,-62.4282 1865.9369,-60.3549 1874.9497,-58.0172"/>
<polygon fill="#191970" stroke="#191970" points="1216.7368,-96.685 1207.5073,-101.8875 1217.9667,-103.5761 1216.7368,-96.685"/>
</g>
<!-- Node65 -->
<g id="node13" class="node">
<title>Node65</title>
<g id="a_node13"><a xlink:href="../../dd/d3a/TrackTPCITSReaderSpec_8cxx.html" target="_top" xlink:title="/home/travis/build\l/AliceO2Group/AliceO2\l/Detectors/GlobalTrackingWorkflow\l/src/TrackTPCITSReaderSpec.cxx">
<polygon fill="none" stroke="#000000" points="815.5,-6 815.5,-58 1002.5,-58 1002.5,-6 815.5,-6"/>
<text text-anchor="start" x="823.5" y="-46" font-family="Helvetica,sans-Serif" font-size="10.00" fill="#000000">/home/travis/build</text>
<text text-anchor="start" x="823.5" y="-35" font-family="Helvetica,sans-Serif" font-size="10.00" fill="#000000">/AliceO2Group/AliceO2</text>
<text text-anchor="start" x="823.5" y="-24" font-family="Helvetica,sans-Serif" font-size="10.00" fill="#000000">/Detectors/GlobalTrackingWorkflow</text>
<text text-anchor="middle" x="909" y="-13" font-family="Helvetica,sans-Serif" font-size="10.00" fill="#000000">/src/TrackTPCITSReaderSpec.cxx</text>
</a>
</g>
</g>
<!-- Node63&#45;&gt;Node65 -->
<g id="edge14" class="edge">
<title>Node63&#45;&gt;Node65</title>
<path fill="none" stroke="#191970" d="M1040.1091,-95.9557C1014.4876,-83.4573 986.2735,-69.6944 962.603,-58.1478"/>
<polygon fill="#191970" stroke="#191970" points="1038.8959,-99.258 1049.4181,-100.4966 1041.9649,-92.9666 1038.8959,-99.258"/>
</g>
<!-- Node66 -->
<g id="node14" class="node">
<title>Node66</title>
<g id="a_node14"><a xlink:href="../../d6/d1f/tof-calibinfo-reader_8cxx.html" target="_top" xlink:title="/home/travis/build\l/AliceO2Group/AliceO2\l/Detectors/GlobalTrackingWorkflow\l/tofworkflow/src/tof&#45;calibinfo\l&#45;reader.cxx">
<polygon fill="none" stroke="#000000" points="1020.5,-.5 1020.5,-63.5 1207.5,-63.5 1207.5,-.5 1020.5,-.5"/>
<text text-anchor="start" x="1028.5" y="-51.5" font-family="Helvetica,sans-Serif" font-size="10.00" fill="#000000">/home/travis/build</text>
<text text-anchor="start" x="1028.5" y="-40.5" font-family="Helvetica,sans-Serif" font-size="10.00" fill="#000000">/AliceO2Group/AliceO2</text>
<text text-anchor="start" x="1028.5" y="-29.5" font-family="Helvetica,sans-Serif" font-size="10.00" fill="#000000">/Detectors/GlobalTrackingWorkflow</text>
<text text-anchor="start" x="1028.5" y="-18.5" font-family="Helvetica,sans-Serif" font-size="10.00" fill="#000000">/tofworkflow/src/tof&#45;calibinfo</text>
<text text-anchor="middle" x="1114" y="-7.5" font-family="Helvetica,sans-Serif" font-size="10.00" fill="#000000">&#45;reader.cxx</text>
</a>
</g>
</g>
<!-- Node63&#45;&gt;Node66 -->
<g id="edge15" class="edge">
<title>Node63&#45;&gt;Node66</title>
<path fill="none" stroke="#191970" d="M1114,-90.2111C1114,-81.37 1114,-72.1767 1114,-63.778"/>
<polygon fill="#191970" stroke="#191970" points="1110.5001,-90.3593 1114,-100.3594 1117.5001,-90.3594 1110.5001,-90.3593"/>
</g>
<!-- Node67 -->
<g id="node15" class="node">
<title>Node67</title>
<g id="a_node15"><a xlink:href="../../da/dfd/tof-reco-workflow_8cxx.html" target="_top" xlink:title="Basic DPL workflow for TOF reconstruction starting from digits. ">
<polygon fill="none" stroke="#000000" points="1225.5,-6 1225.5,-58 1428.5,-58 1428.5,-6 1225.5,-6"/>
<text text-anchor="start" x="1233.5" y="-46" font-family="Helvetica,sans-Serif" font-size="10.00" fill="#000000">/home/travis/build</text>
<text text-anchor="start" x="1233.5" y="-35" font-family="Helvetica,sans-Serif" font-size="10.00" fill="#000000">/AliceO2Group/AliceO2</text>
<text text-anchor="start" x="1233.5" y="-24" font-family="Helvetica,sans-Serif" font-size="10.00" fill="#000000">/Detectors/GlobalTrackingWorkflow</text>
<text text-anchor="middle" x="1327" y="-13" font-family="Helvetica,sans-Serif" font-size="10.00" fill="#000000">/tofworkflow/src/tof&#45;reco&#45;workflow.cxx</text>
</a>
</g>
</g>
<!-- Node63&#45;&gt;Node67 -->
<g id="edge16" class="edge">
<title>Node63&#45;&gt;Node67</title>
<path fill="none" stroke="#191970" d="M1190.4243,-96.12C1217.1386,-83.5781 1246.6031,-69.745 1271.3052,-58.1478"/>
<polygon fill="#191970" stroke="#191970" points="1188.6668,-93.0786 1181.1022,-100.4966 1191.6417,-99.415 1188.6668,-93.0786"/>
</g>
<!-- Node68 -->
<g id="node16" class="node">
<title>Node68</title>
<g id="a_node16"><a xlink:href="../../d1/d67/TrackInterpolationWorkflow_8cxx.html" target="_top" xlink:title="/home/travis/build\l/AliceO2Group/AliceO2\l/Detectors/GlobalTrackingWorkflow\l/tpcinterpolationworkflow/src\l/TrackInterpolationWorkflow.cxx">
<polygon fill="none" stroke="#000000" points="1446.5,-.5 1446.5,-63.5 1633.5,-63.5 1633.5,-.5 1446.5,-.5"/>
<text text-anchor="start" x="1454.5" y="-51.5" font-family="Helvetica,sans-Serif" font-size="10.00" fill="#000000">/home/travis/build</text>
<text text-anchor="start" x="1454.5" y="-40.5" font-family="Helvetica,sans-Serif" font-size="10.00" fill="#000000">/AliceO2Group/AliceO2</text>
<text text-anchor="start" x="1454.5" y="-29.5" font-family="Helvetica,sans-Serif" font-size="10.00" fill="#000000">/Detectors/GlobalTrackingWorkflow</text>
<text text-anchor="start" x="1454.5" y="-18.5" font-family="Helvetica,sans-Serif" font-size="10.00" fill="#000000">/tpcinterpolationworkflow/src</text>
<text text-anchor="middle" x="1540" y="-7.5" font-family="Helvetica,sans-Serif" font-size="10.00" fill="#000000">/TrackInterpolationWorkflow.cxx</text>
</a>
</g>
</g>
<!-- Node63&#45;&gt;Node68 -->
<g id="edge17" class="edge">
<title>Node63&#45;&gt;Node68</title>
<path fill="none" stroke="#191970" d="M1217.6289,-99.9899C1315.6973,-77.7773 1344.2869,-86.2133 1438,-64 1440.7991,-63.3365 1443.6332,-62.636 1446.4878,-61.9055"/>
<polygon fill="#191970" stroke="#191970" points="1216.5485,-96.6474 1207.5959,-102.3131 1218.1277,-103.4669 1216.5485,-96.6474"/>
</g>
<!-- Node73 -->
<g id="node21" class="node">
<title>Node73</title>
<g id="a_node21"><a xlink:href="../../dc/d50/TPCInterpolationSpec_8h.html" target="_top" xlink:title="/home/travis/build\l/AliceO2Group/AliceO2\l/Detectors/GlobalTrackingWorkflow\l/tpcinterpolationworkflow/include\l/TPCInterpolationWorkflow/TPCInterpolationSpec.h">
<polygon fill="none" stroke="#000000" points="1226,-100.5 1226,-163.5 1488,-163.5 1488,-100.5 1226,-100.5"/>
<text text-anchor="start" x="1234" y="-151.5" font-family="Helvetica,sans-Serif" font-size="10.00" fill="#000000">/home/travis/build</text>
<text text-anchor="start" x="1234" y="-140.5" font-family="Helvetica,sans-Serif" font-size="10.00" fill="#000000">/AliceO2Group/AliceO2</text>
<text text-anchor="start" x="1234" y="-129.5" font-family="Helvetica,sans-Serif" font-size="10.00" fill="#000000">/Detectors/GlobalTrackingWorkflow</text>
<text text-anchor="start" x="1234" y="-118.5" font-family="Helvetica,sans-Serif" font-size="10.00" fill="#000000">/tpcinterpolationworkflow/include</text>
<text text-anchor="middle" x="1357" y="-107.5" font-family="Helvetica,sans-Serif" font-size="10.00" fill="#000000">/TPCInterpolationWorkflow/TPCInterpolationSpec.h</text>
</a>
</g>
</g>
<!-- Node72&#45;&gt;Node73 -->
<g id="edge24" class="edge">
<title>Node72&#45;&gt;Node73</title>
<path fill="none" stroke="#191970" d="M1738.656,-199.7687C1648.9641,-177.8011 1623.5504,-179.5508 1536,-164 1520.6141,-161.2672 1504.4858,-158.3947 1488.4775,-155.5389"/>
<polygon fill="#191970" stroke="#191970" points="1737.877,-203.1815 1748.4255,-202.1919 1739.5623,-196.3874 1737.877,-203.1815"/>
</g>
<!-- Node74 -->
<g id="node22" class="node">
<title>Node74</title>
<g id="a_node22"><a xlink:href="../../d2/d27/TPCResidualWriterSpec_8cxx.html" target="_top" xlink:title="/home/travis/build\l/AliceO2Group/AliceO2\l/Detectors/GlobalTrackingWorkflow\l/tpcinterpolationworkflow/src\l/TPCResidualWriterSpec.cxx">
<polygon fill="none" stroke="#000000" points="1769.5,-100.5 1769.5,-163.5 1956.5,-163.5 1956.5,-100.5 1769.5,-100.5"/>
<text text-anchor="start" x="1777.5" y="-151.5" font-family="Helvetica,sans-Serif" font-size="10.00" fill="#000000">/home/travis/build</text>
<text text-anchor="start" x="1777.5" y="-140.5" font-family="Helvetica,sans-Serif" font-size="10.00" fill="#000000">/AliceO2Group/AliceO2</text>
<text text-anchor="start" x="1777.5" y="-129.5" font-family="Helvetica,sans-Serif" font-size="10.00" fill="#000000">/Detectors/GlobalTrackingWorkflow</text>
<text text-anchor="start" x="1777.5" y="-118.5" font-family="Helvetica,sans-Serif" font-size="10.00" fill="#000000">/tpcinterpolationworkflow/src</text>
<text text-anchor="middle" x="1863" y="-107.5" font-family="Helvetica,sans-Serif" font-size="10.00" fill="#000000">/TPCResidualWriterSpec.cxx</text>
</a>
</g>
</g>
<!-- Node72&#45;&gt;Node74 -->
<g id="edge27" class="edge">
<title>Node72&#45;&gt;Node74</title>
<path fill="none" stroke="#191970" d="M1848.3752,-190.4993C1850.6075,-181.5699 1852.933,-172.268 1855.0555,-163.778"/>
<polygon fill="#191970" stroke="#191970" points="1844.9401,-189.809 1845.9102,-200.3594 1851.7311,-191.5068 1844.9401,-189.809"/>
</g>
<!-- Node75 -->
<g id="node23" class="node">
<title>Node75</title>
<g id="a_node23"><a xlink:href="../../da/ddb/TrackResiduals_8h.html" target="_top" xlink:title="Definition of the TrackResiduals class. ">
<polygon fill="none" stroke="#000000" points="1974.5,-100.5 1974.5,-163.5 2153.5,-163.5 2153.5,-100.5 1974.5,-100.5"/>
<text text-anchor="start" x="1982.5" y="-151.5" font-family="Helvetica,sans-Serif" font-size="10.00" fill="#000000">/home/travis/build</text>
<text text-anchor="start" x="1982.5" y="-140.5" font-family="Helvetica,sans-Serif" font-size="10.00" fill="#000000">/AliceO2Group/AliceO2</text>
<text text-anchor="start" x="1982.5" y="-129.5" font-family="Helvetica,sans-Serif" font-size="10.00" fill="#000000">/Detectors/TPC/calibration</text>
<text text-anchor="start" x="1982.5" y="-118.5" font-family="Helvetica,sans-Serif" font-size="10.00" fill="#000000">/SpacePoints/include/SpacePoints</text>
<text text-anchor="middle" x="2064" y="-107.5" font-family="Helvetica,sans-Serif" font-size="10.00" fill="#000000">/TrackResiduals.h</text>
</a>
</g>
</g>
<!-- Node72&#45;&gt;Node75 -->
<g id="edge28" class="edge">
<title>Node72&#45;&gt;Node75</title>
<path fill="none" stroke="#191970" d="M1918.3841,-196.4318C1942.6615,-185.6896 1969.1357,-173.9753 1992.7721,-163.5168"/>
<polygon fill="#191970" stroke="#191970" points="1916.9261,-193.2495 1909.1976,-200.4966 1919.7586,-199.6509 1916.9261,-193.2495"/>
</g>
<!-- Node77 -->
<g id="node25" class="node">
<title>Node77</title>
<g id="a_node25"><a xlink:href="../../d4/d15/TrackInterpolation_8cxx.html" target="_top" xlink:title="Implementation of the TrackInterpolation class. ">
<polygon fill="none" stroke="#000000" points="1544.5,-106 1544.5,-158 1751.5,-158 1751.5,-106 1544.5,-106"/>
<text text-anchor="start" x="1552.5" y="-146" font-family="Helvetica,sans-Serif" font-size="10.00" fill="#000000">/home/travis/build</text>
<text text-anchor="start" x="1552.5" y="-135" font-family="Helvetica,sans-Serif" font-size="10.00" fill="#000000">/AliceO2Group/AliceO2</text>
<text text-anchor="start" x="1552.5" y="-124" font-family="Helvetica,sans-Serif" font-size="10.00" fill="#000000">/Detectors/TPC/calibration</text>
<text text-anchor="middle" x="1648" y="-113" font-family="Helvetica,sans-Serif" font-size="10.00" fill="#000000">/SpacePoints/src/TrackInterpolation.cxx</text>
</a>
</g>
</g>
<!-- Node72&#45;&gt;Node77 -->
<g id="edge30" class="edge">
<title>Node72&#45;&gt;Node77</title>
<path fill="none" stroke="#191970" d="M1769.2032,-195.7911C1745.5396,-183.3367 1719.5231,-169.6437 1697.6808,-158.1478"/>
<polygon fill="#191970" stroke="#191970" points="1767.6643,-198.9363 1778.1436,-200.4966 1770.9245,-192.7419 1767.6643,-198.9363"/>
</g>
<!-- Node73&#45;&gt;Node68 -->
<g id="edge26" class="edge">
<title>Node73&#45;&gt;Node68</title>
<path fill="none" stroke="#191970" d="M1423.6523,-95.578C1442.8797,-85.0712 1463.691,-73.6989 1482.3243,-63.5168"/>
<polygon fill="#191970" stroke="#191970" points="1421.7481,-92.63 1414.6512,-100.4966 1425.1048,-98.7727 1421.7481,-92.63"/>
</g>
<!-- Node73&#45;&gt;Node71 -->
<g id="edge25" class="edge">
<title>Node73&#45;&gt;Node71</title>
<path fill="none" stroke="#191970" d="M1497.9384,-100.5745C1544.32,-89.6782 1596.0286,-76.9347 1643,-64 1645.7735,-63.2363 1648.585,-62.4477 1651.4198,-61.6401"/>
<polygon fill="#191970" stroke="#191970" points="1497.0649,-97.1843 1488.1256,-102.871 1498.6601,-104.0001 1497.0649,-97.1843"/>
</g>
<!-- Node76 -->
<g id="node24" class="node">
<title>Node76</title>
<g id="a_node24"><a xlink:href="../../d9/df0/TrackResiduals_8cxx.html" target="_top" xlink:title="Implementation of the TrackResiduals class. ">
<polygon fill="none" stroke="#000000" points="2067.5,-6 2067.5,-58 2258.5,-58 2258.5,-6 2067.5,-6"/>
<text text-anchor="start" x="2075.5" y="-46" font-family="Helvetica,sans-Serif" font-size="10.00" fill="#000000">/home/travis/build</text>
<text text-anchor="start" x="2075.5" y="-35" font-family="Helvetica,sans-Serif" font-size="10.00" fill="#000000">/AliceO2Group/AliceO2</text>
<text text-anchor="start" x="2075.5" y="-24" font-family="Helvetica,sans-Serif" font-size="10.00" fill="#000000">/Detectors/TPC/calibration</text>
<text text-anchor="middle" x="2163" y="-13" font-family="Helvetica,sans-Serif" font-size="10.00" fill="#000000">/SpacePoints/src/TrackResiduals.cxx</text>
</a>
</g>
</g>
<!-- Node75&#45;&gt;Node76 -->
<g id="edge29" class="edge">
<title>Node75&#45;&gt;Node76</title>
<path fill="none" stroke="#191970" d="M2102.4365,-93.1752C2114.0774,-81.4167 2126.5787,-68.7892 2137.1828,-58.078"/>
<polygon fill="#191970" stroke="#191970" points="2099.8724,-90.7904 2095.3242,-100.3594 2104.847,-95.7153 2099.8724,-90.7904"/>
</g>
<!-- Node79 -->
<g id="node27" class="node">
<title>Node79</title>
<g id="a_node27"><a xlink:href="../../d8/d11/PrimaryVertexingSpec_8h.html" target="_top" xlink:title="/home/travis/build\l/AliceO2Group/AliceO2\l/Detectors/GlobalTrackingWorkflow\l/include/GlobalTrackingWorkflow\l/PrimaryVertexingSpec.h">
<polygon fill="none" stroke="#000000" points="2171.5,-100.5 2171.5,-163.5 2358.5,-163.5 2358.5,-100.5 2171.5,-100.5"/>
<text text-anchor="start" x="2179.5" y="-151.5" font-family="Helvetica,sans-Serif" font-size="10.00" fill="#000000">/home/travis/build</text>
<text text-anchor="start" x="2179.5" y="-140.5" font-family="Helvetica,sans-Serif" font-size="10.00" fill="#000000">/AliceO2Group/AliceO2</text>
<text text-anchor="start" x="2179.5" y="-129.5" font-family="Helvetica,sans-Serif" font-size="10.00" fill="#000000">/Detectors/GlobalTrackingWorkflow</text>
<text text-anchor="start" x="2179.5" y="-118.5" font-family="Helvetica,sans-Serif" font-size="10.00" fill="#000000">/include/GlobalTrackingWorkflow</text>
<text text-anchor="middle" x="2265" y="-107.5" font-family="Helvetica,sans-Serif" font-size="10.00" fill="#000000">/PrimaryVertexingSpec.h</text>
</a>
</g>
</g>
<!-- Node78&#45;&gt;Node79 -->
<g id="edge32" class="edge">
<title>Node78&#45;&gt;Node79</title>
<path fill="none" stroke="#191970" d="M2265,-195.8138C2265,-185.2664 2265,-173.829 2265,-163.5891"/>
<polygon fill="#191970" stroke="#191970" points="2261.5001,-195.9872 2265,-205.9872 2268.5001,-195.9873 2261.5001,-195.9872"/>
</g>
<!-- Node80 -->
<g id="node28" class="node">
<title>Node80</title>
<g id="a_node28"><a xlink:href="../../da/d7a/PVertexer_8cxx.html" target="_top" xlink:title="Primary vertex finder. ">
<polygon fill="none" stroke="#000000" points="2377,-106 2377,-158 2511,-158 2511,-106 2377,-106"/>
<text text-anchor="start" x="2385" y="-146" font-family="Helvetica,sans-Serif" font-size="10.00" fill="#000000">/home/travis/build</text>
<text text-anchor="start" x="2385" y="-135" font-family="Helvetica,sans-Serif" font-size="10.00" fill="#000000">/AliceO2Group/AliceO2</text>
<text text-anchor="start" x="2385" y="-124" font-family="Helvetica,sans-Serif" font-size="10.00" fill="#000000">/Detectors/Vertexing/src</text>
<text text-anchor="middle" x="2444" y="-113" font-family="Helvetica,sans-Serif" font-size="10.00" fill="#000000">/PVertexer.cxx</text>
</a>
</g>
</g>
<!-- Node78&#45;&gt;Node80 -->
<g id="edge35" class="edge">
<title>Node78&#45;&gt;Node80</title>
<path fill="none" stroke="#191970" d="M2320.4478,-201.0236C2345.1084,-187.2467 2373.8225,-171.2053 2397.3597,-158.0561"/>
<polygon fill="#191970" stroke="#191970" points="2318.5859,-198.0545 2311.5629,-205.9872 2321.9999,-204.1656 2318.5859,-198.0545"/>
</g>
<!-- Node79&#45;&gt;Node64 -->
<g id="edge33" class="edge">
<title>Node79&#45;&gt;Node64</title>
<path fill="none" stroke="#191970" d="M2161.7981,-98.9225C2120.2846,-85.6168 2073.1156,-70.4986 2034.1265,-58.0021"/>
<polygon fill="#191970" stroke="#191970" points="2160.7986,-102.2774 2171.3897,-101.9967 2162.9352,-95.6115 2160.7986,-102.2774"/>
</g>
<!-- Node79&#45;&gt;Node69 -->
<g id="edge34" class="edge">
<title>Node79&#45;&gt;Node69</title>
<path fill="none" stroke="#191970" d="M2333.7968,-95.7911C2357.4604,-83.3367 2383.4769,-69.6437 2405.3192,-58.1478"/>
<polygon fill="#191970" stroke="#191970" points="2332.0755,-92.7419 2324.8564,-100.4966 2335.3357,-98.9363 2332.0755,-92.7419"/>
</g>
</g>
</svg>
