<?xml version="1.0" encoding="UTF-8" standalone="no"?>
<!DOCTYPE svg PUBLIC "-//W3C//DTD SVG 1.1//EN"
 "http://www.w3.org/Graphics/SVG/1.1/DTD/svg11.dtd">
<!-- Generated by graphviz version 2.40.1 (20161225.0304)
 -->
<!-- Title: /home/travis/build/AliceO2Group/AliceO2/Generators/src/GeneratorFactory.cxx Pages: 1 -->
<!--zoomable 385 -->
<svg id="main" version="1.1" xmlns="http://www.w3.org/2000/svg" xmlns:xlink="http://www.w3.org/1999/xlink" xml:space="preserve" onload="init(evt)">
<style type="text/css"><![CDATA[
.edge:hover path { stroke: red; }
.edge:hover polygon { stroke: red; fill: red; }
]]></style>
<script type="text/javascript"><![CDATA[
var edges = document.getElementsByTagName('g');
if (edges && edges.length) {
  for (var i=0;i<edges.length;i++) {
    if (edges[i].id.substr(0,4)=='edge') {
      edges[i].setAttribute('class','edge');
    }
  }
}
]]></script>
        <defs>
                <circle id="rim" cx="0" cy="0" r="7"/>
                <circle id="rim2" cx="0" cy="0" r="3.5"/>
                <g id="zoomPlus">
                        <use xlink:href="#rim" fill="#404040">
                                <set attributeName="fill" to="#808080" begin="zoomplus.mouseover" end="zoomplus.mouseout"/>
                        </use>
                        <path d="M-4,0h8M0,-4v8" fill="none" stroke="white" stroke-width="1.5" pointer-events="none"/>
                </g>
                <g id="zoomMin">
                        <use xlink:href="#rim" fill="#404040">
                                <set attributeName="fill" to="#808080" begin="zoomminus.mouseover" end="zoomminus.mouseout"/>
                        </use>
                        <path d="M-4,0h8" fill="none" stroke="white" stroke-width="1.5" pointer-events="none"/>
                </g>
                <g id="dirArrow">
                        <path fill="none" stroke="white" stroke-width="1.5" d="M0,-3.0v7 M-2.5,-0.5L0,-3.0L2.5,-0.5"/>
                </g>
               <g id="resetDef">
                       <use xlink:href="#rim2" fill="#404040">
                               <set attributeName="fill" to="#808080" begin="reset.mouseover" end="reset.mouseout"/>
                       </use>
               </g>
        </defs>

<script type="text/javascript">
var viewWidth = 1795;
var viewHeight = 385;
var sectionId = 'dynsection-0';
</script>
<script xlink:href="../../svgpan.js"/>
<svg id="graph" class="graph">
<g id="viewport">
<title>/home/travis/build/AliceO2Group/AliceO2/Generators/src/GeneratorFactory.cxx</title>
<!-- Node0 -->
<g id="node1" class="node">
<title>Node0</title>
<polygon fill="#bfbfbf" stroke="#000000" points="801,-335.5 801,-376.5 998,-376.5 998,-335.5 801,-335.5"/>
<text text-anchor="start" x="809" y="-364.5" font-family="Helvetica,sans-Serif" font-size="10.00" fill="#000000">/home/travis/build</text>
<text text-anchor="start" x="809" y="-353.5" font-family="Helvetica,sans-Serif" font-size="10.00" fill="#000000">/AliceO2Group/AliceO2</text>
<text text-anchor="middle" x="899.5" y="-342.5" font-family="Helvetica,sans-Serif" font-size="10.00" fill="#000000">/Generators/src/GeneratorFactory.cxx</text>
</g>
<!-- Node1 -->
<g id="node2" class="node">
<title>Node1</title>
<g id="a_node2"><a xlink:href="../../d4/d6f/GeneratorFactory_8h.html" target="_top" xlink:title="Generators/GeneratorFactory.h">
<polygon fill="none" stroke="#000000" points="0,-274 0,-293 165,-293 165,-274 0,-274"/>
<text text-anchor="middle" x="82.5" y="-281" font-family="Helvetica,sans-Serif" font-size="10.00" fill="#000000">Generators/GeneratorFactory.h</text>
</a>
</g>
</g>
<!-- Node0&#45;&gt;Node1 -->
<g id="edge1" class="edge">
<title>Node0&#45;&gt;Node1</title>
<path fill="none" stroke="#191970" d="M800.8699,-351.0886C660.9536,-343.4783 396.9865,-326.7488 173.5,-299 163.719,-297.7856 153.3857,-296.2601 143.3298,-294.6431"/>
<polygon fill="#191970" stroke="#191970" points="143.8337,-291.179 133.3972,-293.0037 142.6937,-298.0855 143.8337,-291.179"/>
</g>
<!-- Node2 -->
<g id="node3" class="node">
<title>Node2</title>
<polygon fill="none" stroke="#bfbfbf" points="183,-274 183,-293 312,-293 312,-274 183,-274"/>
<text text-anchor="middle" x="247.5" y="-281" font-family="Helvetica,sans-Serif" font-size="10.00" fill="#000000">FairPrimaryGenerator.h</text>
</g>
<!-- Node0&#45;&gt;Node2 -->
<g id="edge2" class="edge">
<title>Node0&#45;&gt;Node2</title>
<path fill="none" stroke="#191970" d="M800.802,-349.0343C686.3405,-340.2963 492.1576,-323.4348 326.5,-299 318.5375,-297.8255 310.1598,-296.3951 301.9567,-294.8834"/>
<polygon fill="#191970" stroke="#191970" points="302.5537,-291.4343 292.0768,-293.0107 301.2501,-298.3118 302.5537,-291.4343"/>
</g>
<!-- Node3 -->
<g id="node4" class="node">
<title>Node3</title>
<polygon fill="none" stroke="#bfbfbf" points="670,-140 670,-159 761,-159 761,-140 670,-140"/>
<text text-anchor="middle" x="715.5" y="-147" font-family="Helvetica,sans-Serif" font-size="10.00" fill="#000000">FairGenerator.h</text>
</g>
<!-- Node0&#45;&gt;Node3 -->
<g id="edge3" class="edge">
<title>Node0&#45;&gt;Node3</title>
<path fill="none" stroke="#191970" d="M800.7596,-352.5965C652.9764,-346.4727 388.4108,-331.1232 359.5,-299 269.6296,-199.144 538.6434,-164.0109 659.7154,-153.4612"/>
<polygon fill="#191970" stroke="#191970" points="660.2419,-156.9293 669.912,-152.6004 659.653,-149.9541 660.2419,-156.9293"/>
</g>
<!-- Node4 -->
<g id="node5" class="node">
<title>Node4</title>
<polygon fill="none" stroke="#bfbfbf" points="368.5,-274 368.5,-293 478.5,-293 478.5,-274 368.5,-274"/>
<text text-anchor="middle" x="423.5" y="-281" font-family="Helvetica,sans-Serif" font-size="10.00" fill="#000000">FairBoxGenerator.h</text>
</g>
<!-- Node0&#45;&gt;Node4 -->
<g id="edge4" class="edge">
<title>Node0&#45;&gt;Node4</title>
<path fill="none" stroke="#191970" d="M800.8199,-345.1623C717.0733,-335.2932 593.9143,-319.1948 487.5,-299 481.8156,-297.9212 475.8775,-296.6632 470.0081,-295.339"/>
<polygon fill="#191970" stroke="#191970" points="470.7853,-291.9264 460.2521,-293.0679 469.1981,-298.7441 470.7853,-291.9264"/>
</g>
<!-- Node5 -->
<g id="node6" class="node">
<title>Node5</title>
<polygon fill="none" stroke="#bfbfbf" points="1145,-207 1145,-226 1220,-226 1220,-207 1145,-207"/>
<text text-anchor="middle" x="1182.5" y="-214" font-family="Helvetica,sans-Serif" font-size="10.00" fill="#000000">FairLogger.h</text>
</g>
<!-- Node0&#45;&gt;Node5 -->
<g id="edge5" class="edge">
<title>Node0&#45;&gt;Node5</title>
<path fill="none" stroke="#191970" d="M998.3284,-349.6631C1072.2579,-342.6193 1164.5497,-328.1354 1188.5,-299 1202.9752,-281.391 1197.1932,-253.9014 1190.7097,-235.5538"/>
<polygon fill="#191970" stroke="#191970" points="1193.9515,-234.2333 1187.0596,-226.1865 1187.4292,-236.7749 1193.9515,-234.2333"/>
</g>
<!-- Node6 -->
<g id="node7" class="node">
<title>Node6</title>
<g id="a_node7"><a xlink:href="../../d4/dee/SimConfig_8h.html" target="_top" xlink:title="SimConfig/SimConfig.h">
<polygon fill="none" stroke="#000000" points="496.5,-274 496.5,-293 624.5,-293 624.5,-274 496.5,-274"/>
<text text-anchor="middle" x="560.5" y="-281" font-family="Helvetica,sans-Serif" font-size="10.00" fill="#000000">SimConfig/SimConfig.h</text>
</a>
</g>
</g>
<!-- Node0&#45;&gt;Node6 -->
<g id="edge6" class="edge">
<title>Node0&#45;&gt;Node6</title>
<path fill="none" stroke="#191970" d="M803.263,-335.4183C742.4632,-322.4154 666.0902,-306.082 615.4141,-295.2442"/>
<polygon fill="#191970" stroke="#191970" points="615.8306,-291.7542 605.3198,-293.0853 614.3666,-298.5994 615.8306,-291.7542"/>
</g>
<!-- Node9 -->
<g id="node10" class="node">
<title>Node9</title>
<g id="a_node10"><a xlink:href="../../de/daf/GeneratorFromFile_8h.html" target="_top" xlink:title="Generators/GeneratorFrom\lFile.h">
<polygon fill="none" stroke="#000000" points="642.5,-268.5 642.5,-298.5 788.5,-298.5 788.5,-268.5 642.5,-268.5"/>
<text text-anchor="start" x="650.5" y="-286.5" font-family="Helvetica,sans-Serif" font-size="10.00" fill="#000000">Generators/GeneratorFrom</text>
<text text-anchor="middle" x="715.5" y="-275.5" font-family="Helvetica,sans-Serif" font-size="10.00" fill="#000000">File.h</text>
</a>
</g>
</g>
<!-- Node0&#45;&gt;Node9 -->
<g id="edge9" class="edge">
<title>Node0&#45;&gt;Node9</title>
<path fill="none" stroke="#191970" d="M847.2652,-335.4183C820.886,-325.0244 789.1059,-312.5023 763.366,-302.3602"/>
<polygon fill="#191970" stroke="#191970" points="764.4074,-299.0087 753.8205,-298.5991 761.8412,-305.5214 764.4074,-299.0087"/>
</g>
<!-- Node10 -->
<g id="node11" class="node">
<title>Node10</title>
<g id="a_node11"><a xlink:href="../../d2/d3c/GeneratorTGenerator_8h.html" target="_top" xlink:title="Generators/GeneratorTGenerator.h">
<polygon fill="none" stroke="#000000" points="807,-274 807,-293 992,-293 992,-274 807,-274"/>
<text text-anchor="middle" x="899.5" y="-281" font-family="Helvetica,sans-Serif" font-size="10.00" fill="#000000">Generators/GeneratorTGenerator.h</text>
</a>
</g>
</g>
<!-- Node0&#45;&gt;Node10 -->
<g id="edge11" class="edge">
<title>Node0&#45;&gt;Node10</title>
<path fill="none" stroke="#191970" d="M899.5,-335.4183C899.5,-325.32 899.5,-313.213 899.5,-303.2314"/>
<polygon fill="#191970" stroke="#191970" points="903.0001,-303.0853 899.5,-293.0853 896.0001,-303.0854 903.0001,-303.0853"/>
</g>
<!-- Node16 -->
<g id="node17" class="node">
<title>Node16</title>
<g id="a_node17"><a xlink:href="../../d2/d04/BoxGunParam_8h.html" target="_top" xlink:title="Generators/BoxGunParam.h">
<polygon fill="none" stroke="#000000" points="1238.5,-207 1238.5,-226 1390.5,-226 1390.5,-207 1238.5,-207"/>
<text text-anchor="middle" x="1314.5" y="-214" font-family="Helvetica,sans-Serif" font-size="10.00" fill="#000000">Generators/BoxGunParam.h</text>
</a>
</g>
</g>
<!-- Node0&#45;&gt;Node16 -->
<g id="edge19" class="edge">
<title>Node0&#45;&gt;Node16</title>
<path fill="none" stroke="#191970" d="M998.0275,-349.475C1060.0164,-342.5596 1140.4837,-328.3192 1206.5,-299 1242.6992,-282.9232 1277.8638,-252.4557 1297.7848,-233.3839"/>
<polygon fill="#191970" stroke="#191970" points="1300.4109,-235.7113 1305.1136,-226.2173 1295.5168,-230.7064 1300.4109,-235.7113"/>
</g>
<!-- Node27 -->
<g id="node28" class="node">
<title>Node27</title>
<g id="a_node28"><a xlink:href="../../d9/dc0/TriggerParticle_8h.html" target="_top" xlink:title="Generators/TriggerParticle.h">
<polygon fill="none" stroke="#000000" points="1010.5,-274 1010.5,-293 1162.5,-293 1162.5,-274 1010.5,-274"/>
<text text-anchor="middle" x="1086.5" y="-281" font-family="Helvetica,sans-Serif" font-size="10.00" fill="#000000">Generators/TriggerParticle.h</text>
</a>
</g>
</g>
<!-- Node0&#45;&gt;Node27 -->
<g id="edge33" class="edge">
<title>Node0&#45;&gt;Node27</title>
<path fill="none" stroke="#191970" d="M952.5865,-335.4183C984.6547,-322.9855 1024.5766,-307.5077 1052.4517,-296.7006"/>
<polygon fill="#191970" stroke="#191970" points="1053.7178,-299.9636 1061.7764,-293.0853 1051.1874,-293.4369 1053.7178,-299.9636"/>
</g>
<!-- Node28 -->
<g id="node29" class="node">
<title>Node28</title>
<g id="a_node29"><a xlink:href="../../dc/dae/TriggerParticleParam_8h.html" target="_top" xlink:title="Generators/TriggerParticle\lParam.h">
<polygon fill="none" stroke="#000000" points="984,-201.5 984,-231.5 1127,-231.5 1127,-201.5 984,-201.5"/>
<text text-anchor="start" x="992" y="-219.5" font-family="Helvetica,sans-Serif" font-size="10.00" fill="#000000">Generators/TriggerParticle</text>
<text text-anchor="middle" x="1055.5" y="-208.5" font-family="Helvetica,sans-Serif" font-size="10.00" fill="#000000">Param.h</text>
</a>
</g>
</g>
<!-- Node0&#45;&gt;Node28 -->
<g id="edge39" class="edge">
<title>Node0&#45;&gt;Node28</title>
<path fill="none" stroke="#191970" d="M998.2735,-348.2199C1066.8526,-340.528 1149.6757,-325.8719 1171.5,-299 1193.4748,-271.9429 1156.0218,-249.6569 1117.9555,-235.0982"/>
<polygon fill="#191970" stroke="#191970" points="1118.8939,-231.7147 1108.3002,-231.5651 1116.4884,-238.2884 1118.8939,-231.7147"/>
</g>
<!-- Node29 -->
<g id="node30" class="node">
<title>Node29</title>
<g id="a_node30"><a xlink:href="../../d2/d80/ConfigurationMacroHelper_8h.html" target="_top" xlink:title="Generators/Configuration\lMacroHelper.h">
<polygon fill="none" stroke="#000000" points="1396,-268.5 1396,-298.5 1535,-298.5 1535,-268.5 1396,-268.5"/>
<text text-anchor="start" x="1404" y="-286.5" font-family="Helvetica,sans-Serif" font-size="10.00" fill="#000000">Generators/Configuration</text>
<text text-anchor="middle" x="1465.5" y="-275.5" font-family="Helvetica,sans-Serif" font-size="10.00" fill="#000000">MacroHelper.h</text>
</a>
</g>
</g>
<!-- Node0&#45;&gt;Node29 -->
<g id="edge40" class="edge">
<title>Node0&#45;&gt;Node29</title>
<path fill="none" stroke="#191970" d="M998.0897,-343.3715C1108.0183,-329.2905 1283.6996,-306.7872 1385.4711,-293.7511"/>
<polygon fill="#191970" stroke="#191970" points="1386.2152,-297.1844 1395.6895,-292.4422 1385.3258,-290.2412 1386.2152,-297.1844"/>
</g>
<!-- Node35 -->
<g id="node36" class="node">
<title>Node35</title>
<polygon fill="none" stroke="#bfbfbf" points="1553.5,-274 1553.5,-293 1625.5,-293 1625.5,-274 1553.5,-274"/>
<text text-anchor="middle" x="1589.5" y="-281" font-family="Helvetica,sans-Serif" font-size="10.00" fill="#000000">TRandom.h</text>
</g>
<!-- Node0&#45;&gt;Node35 -->
<g id="edge47" class="edge">
<title>Node0&#45;&gt;Node35</title>
<path fill="none" stroke="#191970" d="M998.2886,-350.2213C1152.429,-340.7054 1443.0047,-320.6255 1544.5,-299 1548.1064,-298.2316 1551.8229,-297.2601 1555.5014,-296.1796"/>
<polygon fill="#191970" stroke="#191970" points="1556.588,-299.5069 1565.0487,-293.1299 1554.4579,-292.8388 1556.588,-299.5069"/>
</g>
<!-- Node7 -->
<g id="node8" class="node">
<title>Node7</title>
<polygon fill="none" stroke="#bfbfbf" points="435,-207 435,-226 494,-226 494,-207 435,-207"/>
<text text-anchor="middle" x="464.5" y="-214" font-family="Helvetica,sans-Serif" font-size="10.00" fill="#000000">Rtypes.h</text>
</g>
<!-- Node6&#45;&gt;Node7 -->
<g id="edge7" class="edge">
<title>Node6&#45;&gt;Node7</title>
<path fill="none" stroke="#191970" d="M546.7455,-273.9005C531.0623,-262.9549 505.2017,-244.9064 486.6642,-231.9688"/>
<polygon fill="#191970" stroke="#191970" points="488.4324,-228.9347 478.2289,-226.0817 484.4262,-234.675 488.4324,-228.9347"/>
</g>
<!-- Node8 -->
<g id="node9" class="node">
<title>Node8</title>
<polygon fill="none" stroke="#bfbfbf" points="511.5,-207 511.5,-226 661.5,-226 661.5,-207 511.5,-207"/>
<text text-anchor="middle" x="586.5" y="-214" font-family="Helvetica,sans-Serif" font-size="10.00" fill="#000000">boost/program_options.hpp</text>
</g>
<!-- Node6&#45;&gt;Node8 -->
<g id="edge8" class="edge">
<title>Node6&#45;&gt;Node8</title>
<path fill="none" stroke="#191970" d="M564.2252,-273.9005C568.0866,-263.95 574.226,-248.1292 579.0823,-235.6147"/>
<polygon fill="#191970" stroke="#191970" points="582.4269,-236.6706 582.7817,-226.0817 575.901,-234.1381 582.4269,-236.6706"/>
</g>
<!-- Node9&#45;&gt;Node3 -->
<g id="edge10" class="edge">
<title>Node9&#45;&gt;Node3</title>
<path fill="none" stroke="#191970" d="M715.5,-268.389C715.5,-244.0735 715.5,-196.2644 715.5,-169.2698"/>
<polygon fill="#191970" stroke="#191970" points="719.0001,-169.1041 715.5,-159.1042 712.0001,-169.1042 719.0001,-169.1041"/>
</g>
<!-- Node11 -->
<g id="node12" class="node">
<title>Node11</title>
<g id="a_node12"><a xlink:href="../../d9/d12/Generator_8h.html" target="_top" xlink:title="Generators/Generator.h">
<polygon fill="none" stroke="#000000" points="796,-207 796,-226 927,-226 927,-207 796,-207"/>
<text text-anchor="middle" x="861.5" y="-214" font-family="Helvetica,sans-Serif" font-size="10.00" fill="#000000">Generators/Generator.h</text>
</a>
</g>
</g>
<!-- Node10&#45;&gt;Node11 -->
<g id="edge12" class="edge">
<title>Node10&#45;&gt;Node11</title>
<path fill="none" stroke="#191970" d="M894.0555,-273.9005C888.2991,-263.751 879.0787,-247.4941 871.9176,-234.8679"/>
<polygon fill="#191970" stroke="#191970" points="874.9123,-233.0533 866.9344,-226.0817 868.8234,-236.5067 874.9123,-233.0533"/>
</g>
<!-- Node11&#45;&gt;Node3 -->
<g id="edge13" class="edge">
<title>Node11&#45;&gt;Node3</title>
<path fill="none" stroke="#191970" d="M840.5818,-206.9005C815.7544,-195.5072 774.1567,-176.4178 745.8058,-163.4075"/>
<polygon fill="#191970" stroke="#191970" points="746.9279,-160.0715 736.3794,-159.0817 744.0083,-166.4336 746.9279,-160.0715"/>
</g>
<!-- Node12 -->
<g id="node13" class="node">
<title>Node12</title>
<polygon fill="none" stroke="#bfbfbf" points="842.5,-73 842.5,-92 910.5,-92 910.5,-73 842.5,-73"/>
<text text-anchor="middle" x="876.5" y="-80" font-family="Helvetica,sans-Serif" font-size="10.00" fill="#000000">TParticle.h</text>
</g>
<!-- Node11&#45;&gt;Node12 -->
<g id="edge14" class="edge">
<title>Node11&#45;&gt;Node12</title>
<path fill="none" stroke="#191970" d="M862.5788,-206.8631C865.022,-185.0364 871.0193,-131.4605 874.2882,-102.2589"/>
<polygon fill="#191970" stroke="#191970" points="877.7967,-102.3769 875.431,-92.0496 870.8402,-101.5982 877.7967,-102.3769"/>
</g>
<!-- Node13 -->
<g id="node14" class="node">
<title>Node13</title>
<g id="a_node14"><a xlink:href="../../d7/dac/Trigger_8h.html" target="_top" xlink:title="Generators/Trigger.h">
<polygon fill="none" stroke="#000000" points="894,-140 894,-159 1009,-159 1009,-140 894,-140"/>
<text text-anchor="middle" x="951.5" y="-147" font-family="Helvetica,sans-Serif" font-size="10.00" fill="#000000">Generators/Trigger.h</text>
</a>
</g>
</g>
<!-- Node11&#45;&gt;Node13 -->
<g id="edge15" class="edge">
<title>Node11&#45;&gt;Node13</title>
<path fill="none" stroke="#191970" d="M874.3948,-206.9005C888.9642,-196.0544 912.9022,-178.2339 930.2454,-165.3229"/>
<polygon fill="#191970" stroke="#191970" points="932.6978,-167.8606 938.6291,-159.0817 928.5177,-162.2457 932.6978,-167.8606"/>
</g>
<!-- Node15 -->
<g id="node16" class="node">
<title>Node15</title>
<polygon fill="none" stroke="#bfbfbf" points="812,-6 812,-25 859,-25 859,-6 812,-6"/>
<text text-anchor="middle" x="835.5" y="-13" font-family="Helvetica,sans-Serif" font-size="10.00" fill="#000000">vector</text>
</g>
<!-- Node11&#45;&gt;Node15 -->
<g id="edge18" class="edge">
<title>Node11&#45;&gt;Node15</title>
<path fill="none" stroke="#191970" d="M858.3971,-206.8052C852.1613,-186.7538 838.2961,-139.1547 833.5,-98 831.9051,-84.3148 833.2326,-80.7752 833.5,-67 833.7022,-56.5835 834.1342,-44.9885 834.5451,-35.442"/>
<polygon fill="#191970" stroke="#191970" points="838.0452,-35.5182 835.0028,-25.3696 831.0524,-35.2004 838.0452,-35.5182"/>
</g>
<!-- Node13&#45;&gt;Node12 -->
<g id="edge17" class="edge">
<title>Node13&#45;&gt;Node12</title>
<path fill="none" stroke="#191970" d="M940.7543,-139.9005C928.836,-129.2535 909.3943,-111.8856 895.0132,-99.0385"/>
<polygon fill="#191970" stroke="#191970" points="897.0151,-96.1337 887.2257,-92.0817 892.3516,-101.354 897.0151,-96.1337"/>
</g>
<!-- Node14 -->
<g id="node15" class="node">
<title>Node14</title>
<polygon fill="none" stroke="#bfbfbf" points="929,-73 929,-92 994,-92 994,-73 929,-73"/>
<text text-anchor="middle" x="961.5" y="-80" font-family="Helvetica,sans-Serif" font-size="10.00" fill="#000000">functional</text>
</g>
<!-- Node13&#45;&gt;Node14 -->
<g id="edge16" class="edge">
<title>Node13&#45;&gt;Node14</title>
<path fill="none" stroke="#191970" d="M952.9328,-139.9005C954.4031,-130.0495 956.7321,-114.4451 958.5909,-101.9912"/>
<polygon fill="#191970" stroke="#191970" points="962.0553,-102.4888 960.0699,-92.0817 955.132,-101.4554 962.0553,-102.4888"/>
</g>
<!-- Node17 -->
<g id="node18" class="node">
<title>Node17</title>
<g id="a_node18"><a xlink:href="../../db/d2c/ConfigurableParam_8h.html" target="_top" xlink:title="CommonUtils/Configurable\lParam.h">
<polygon fill="none" stroke="#000000" points="1012.5,-67.5 1012.5,-97.5 1160.5,-97.5 1160.5,-67.5 1012.5,-67.5"/>
<text text-anchor="start" x="1020.5" y="-85.5" font-family="Helvetica,sans-Serif" font-size="10.00" fill="#000000">CommonUtils/Configurable</text>
<text text-anchor="middle" x="1086.5" y="-74.5" font-family="Helvetica,sans-Serif" font-size="10.00" fill="#000000">Param.h</text>
</a>
</g>
</g>
<!-- Node16&#45;&gt;Node17 -->
<g id="edge20" class="edge">
<title>Node16&#45;&gt;Node17</title>
<path fill="none" stroke="#191970" d="M1292.2832,-206.9796C1270.29,-197.2848 1235.8896,-181.387 1207.5,-165 1174.7486,-146.0952 1139.2099,-121.3094 1115.1781,-103.8576"/>
<polygon fill="#191970" stroke="#191970" points="1117.0096,-100.861 1106.8714,-97.7843 1112.8782,-106.5118 1117.0096,-100.861"/>
</g>
<!-- Node23 -->
<g id="node24" class="node">
<title>Node23</title>
<g id="a_node24"><a xlink:href="../../da/d6b/ConfigurableParamHelper_8h.html" target="_top" xlink:title="CommonUtils/Configurable\lParamHelper.h">
<polygon fill="none" stroke="#000000" points="1216.5,-134.5 1216.5,-164.5 1364.5,-164.5 1364.5,-134.5 1216.5,-134.5"/>
<text text-anchor="start" x="1224.5" y="-152.5" font-family="Helvetica,sans-Serif" font-size="10.00" fill="#000000">CommonUtils/Configurable</text>
<text text-anchor="middle" x="1290.5" y="-141.5" font-family="Helvetica,sans-Serif" font-size="10.00" fill="#000000">ParamHelper.h</text>
</a>
</g>
</g>
<!-- Node16&#45;&gt;Node23 -->
<g id="edge27" class="edge">
<title>Node16&#45;&gt;Node23</title>
<path fill="none" stroke="#191970" d="M1311.0614,-206.9005C1307.9938,-198.3368 1303.3687,-185.4252 1299.2816,-174.0152"/>
<polygon fill="#191970" stroke="#191970" points="1302.5482,-172.7557 1295.8809,-164.5218 1295.9583,-175.1163 1302.5482,-172.7557"/>
</g>
<!-- Node17&#45;&gt;Node15 -->
<g id="edge21" class="edge">
<title>Node17&#45;&gt;Node15</title>
<path fill="none" stroke="#191970" d="M1012.1621,-68.6C969.7842,-59.7514 916.0151,-46.9521 869.5,-31 867.6591,-30.3687 865.7827,-29.6724 863.9045,-28.9352"/>
<polygon fill="#191970" stroke="#191970" points="865.2265,-25.6942 854.6533,-25.0178 862.497,-32.1401 865.2265,-25.6942"/>
</g>
<!-- Node18 -->
<g id="node19" class="node">
<title>Node18</title>
<polygon fill="none" stroke="#bfbfbf" points="1087.5,-6 1087.5,-25 1125.5,-25 1125.5,-6 1087.5,-6"/>
<text text-anchor="middle" x="1106.5" y="-13" font-family="Helvetica,sans-Serif" font-size="10.00" fill="#000000">map</text>
</g>
<!-- Node17&#45;&gt;Node18 -->
<g id="edge22" class="edge">
<title>Node17&#45;&gt;Node18</title>
<path fill="none" stroke="#191970" d="M1091.0383,-67.2967C1093.9124,-57.6685 1097.6547,-45.1318 1100.7377,-34.8038"/>
<polygon fill="#191970" stroke="#191970" points="1104.1411,-35.6383 1103.6478,-25.055 1097.4336,-33.636 1104.1411,-35.6383"/>
</g>
<!-- Node19 -->
<g id="node20" class="node">
<title>Node19</title>
<polygon fill="none" stroke="#bfbfbf" points="1144,-6 1144,-25 1237,-25 1237,-6 1144,-6"/>
<text text-anchor="middle" x="1190.5" y="-13" font-family="Helvetica,sans-Serif" font-size="10.00" fill="#000000">unordered_map</text>
</g>
<!-- Node17&#45;&gt;Node19 -->
<g id="edge23" class="edge">
<title>Node17&#45;&gt;Node19</title>
<path fill="none" stroke="#191970" d="M1109.8396,-67.4639C1126.8179,-56.526 1149.7242,-41.769 1166.7882,-30.7759"/>
<polygon fill="#191970" stroke="#191970" points="1169.0814,-33.462 1175.5924,-25.1039 1165.2904,-27.5774 1169.0814,-33.462"/>
</g>
<!-- Node20 -->
<g id="node21" class="node">
<title>Node20</title>
<polygon fill="none" stroke="#bfbfbf" points="878,-.5 878,-30.5 991,-30.5 991,-.5 878,-.5"/>
<text text-anchor="start" x="886" y="-18.5" font-family="Helvetica,sans-Serif" font-size="10.00" fill="#000000">boost/property_tree</text>
<text text-anchor="middle" x="934.5" y="-7.5" font-family="Helvetica,sans-Serif" font-size="10.00" fill="#000000">/ptree.hpp</text>
</g>
<!-- Node17&#45;&gt;Node20 -->
<g id="edge24" class="edge">
<title>Node17&#45;&gt;Node20</title>
<path fill="none" stroke="#191970" d="M1052.3882,-67.4639C1030.4633,-57.7996 1001.7746,-45.154 978.1881,-34.7572"/>
<polygon fill="#191970" stroke="#191970" points="979.3228,-31.4325 968.7605,-30.6017 976.4993,-37.8379 979.3228,-31.4325"/>
</g>
<!-- Node21 -->
<g id="node22" class="node">
<title>Node21</title>
<polygon fill="none" stroke="#bfbfbf" points="1294,-6 1294,-25 1351,-25 1351,-6 1294,-6"/>
<text text-anchor="middle" x="1322.5" y="-13" font-family="Helvetica,sans-Serif" font-size="10.00" fill="#000000">typeinfo</text>
</g>
<!-- Node17&#45;&gt;Node21 -->
<g id="edge25" class="edge">
<title>Node17&#45;&gt;Node21</title>
<path fill="none" stroke="#191970" d="M1139.463,-67.4639C1183.344,-55.0061 1244.6752,-37.5943 1283.9944,-26.4317"/>
<polygon fill="#191970" stroke="#191970" points="1285.0721,-29.7641 1293.736,-23.666 1283.1603,-23.0302 1285.0721,-29.7641"/>
</g>
<!-- Node22 -->
<g id="node23" class="node">
<title>Node22</title>
<polygon fill="none" stroke="#bfbfbf" points="1009.5,-6 1009.5,-25 1069.5,-25 1069.5,-6 1009.5,-6"/>
<text text-anchor="middle" x="1039.5" y="-13" font-family="Helvetica,sans-Serif" font-size="10.00" fill="#000000">iostream</text>
</g>
<!-- Node17&#45;&gt;Node22 -->
<g id="edge26" class="edge">
<title>Node17&#45;&gt;Node22</title>
<path fill="none" stroke="#191970" d="M1075.835,-67.2967C1068.7965,-57.2631 1059.5423,-44.0709 1052.1348,-33.5113"/>
<polygon fill="#191970" stroke="#191970" points="1054.8109,-31.2316 1046.2027,-25.055 1049.0803,-35.2516 1054.8109,-31.2316"/>
</g>
<!-- Node23&#45;&gt;Node17 -->
<g id="edge28" class="edge">
<title>Node23&#45;&gt;Node17</title>
<path fill="none" stroke="#191970" d="M1244.7184,-134.4639C1214.3774,-124.499 1174.3851,-111.3642 1142.1998,-100.7936"/>
<polygon fill="#191970" stroke="#191970" points="1143.0741,-97.3968 1132.4813,-97.6017 1140.8898,-104.0473 1143.0741,-97.3968"/>
</g>
<!-- Node23&#45;&gt;Node21 -->
<g id="edge31" class="edge">
<title>Node23&#45;&gt;Node21</title>
<path fill="none" stroke="#191970" d="M1303.4535,-134.4249C1310.9093,-124.7239 1319.5599,-111.452 1323.5,-98 1329.5773,-77.2515 1328.1406,-52.2903 1325.9378,-35.2968"/>
<polygon fill="#191970" stroke="#191970" points="1329.3985,-34.7732 1324.4509,-25.4046 1322.4763,-35.8138 1329.3985,-34.7732"/>
</g>
<!-- Node24 -->
<g id="node25" class="node">
<title>Node24</title>
<polygon fill="none" stroke="#bfbfbf" points="1371,-73 1371,-92 1428,-92 1428,-73 1371,-73"/>
<text text-anchor="middle" x="1399.5" y="-80" font-family="Helvetica,sans-Serif" font-size="10.00" fill="#000000">TClass.h</text>
</g>
<!-- Node23&#45;&gt;Node24 -->
<g id="edge29" class="edge">
<title>Node23&#45;&gt;Node24</title>
<path fill="none" stroke="#191970" d="M1314.9617,-134.4639C1332.921,-123.4247 1357.2089,-108.4954 1375.1434,-97.4715"/>
<polygon fill="#191970" stroke="#191970" points="1377.1893,-100.3223 1383.8757,-92.1039 1373.5236,-94.3588 1377.1893,-100.3223"/>
</g>
<!-- Node25 -->
<g id="node26" class="node">
<title>Node25</title>
<polygon fill="none" stroke="#bfbfbf" points="1179,-73 1179,-92 1248,-92 1248,-73 1179,-73"/>
<text text-anchor="middle" x="1213.5" y="-80" font-family="Helvetica,sans-Serif" font-size="10.00" fill="#000000">type_traits</text>
</g>
<!-- Node23&#45;&gt;Node25 -->
<g id="edge30" class="edge">
<title>Node23&#45;&gt;Node25</title>
<path fill="none" stroke="#191970" d="M1273.0275,-134.2967C1260.7976,-123.6551 1244.4841,-109.4602 1232.0279,-98.6217"/>
<polygon fill="#191970" stroke="#191970" points="1234.3225,-95.9788 1224.4811,-92.055 1229.7276,-101.2596 1234.3225,-95.9788"/>
</g>
<!-- Node26 -->
<g id="node27" class="node">
<title>Node26</title>
<polygon fill="none" stroke="#bfbfbf" points="1266.5,-73 1266.5,-92 1314.5,-92 1314.5,-73 1266.5,-73"/>
<text text-anchor="middle" x="1290.5" y="-80" font-family="Helvetica,sans-Serif" font-size="10.00" fill="#000000">TFile.h</text>
</g>
<!-- Node23&#45;&gt;Node26 -->
<g id="edge32" class="edge">
<title>Node23&#45;&gt;Node26</title>
<path fill="none" stroke="#191970" d="M1290.5,-134.2967C1290.5,-124.7699 1290.5,-112.3954 1290.5,-102.1306"/>
<polygon fill="#191970" stroke="#191970" points="1294.0001,-102.0549 1290.5,-92.055 1287.0001,-102.055 1294.0001,-102.0549"/>
</g>
<!-- Node27&#45;&gt;Node5 -->
<g id="edge38" class="edge">
<title>Node27&#45;&gt;Node5</title>
<path fill="none" stroke="#191970" d="M1100.2545,-273.9005C1115.9377,-262.9549 1141.7983,-244.9064 1160.3358,-231.9688"/>
<polygon fill="#191970" stroke="#191970" points="1162.5738,-234.675 1168.7711,-226.0817 1158.5676,-228.9347 1162.5738,-234.675"/>
</g>
<!-- Node27&#45;&gt;Node13 -->
<g id="edge34" class="edge">
<title>Node27&#45;&gt;Node13</title>
<path fill="none" stroke="#191970" d="M1046.4625,-273.9282C1022.7137,-266.2983 993.7733,-253.2707 975.5,-232 960.2862,-214.2907 954.7044,-187.3977 952.6637,-169.1703"/>
<polygon fill="#191970" stroke="#191970" points="956.1416,-168.7633 951.7961,-159.1006 949.1675,-169.3642 956.1416,-168.7633"/>
</g>
<!-- Node27&#45;&gt;Node28 -->
<g id="edge35" class="edge">
<title>Node27&#45;&gt;Node28</title>
<path fill="none" stroke="#191970" d="M1082.0585,-273.9005C1078.0561,-265.2503 1072.0012,-252.164 1066.6831,-240.6699"/>
<polygon fill="#191970" stroke="#191970" points="1069.8261,-239.1277 1062.4504,-231.5218 1063.4731,-242.0671 1069.8261,-239.1277"/>
</g>
<!-- Node28&#45;&gt;Node17 -->
<g id="edge36" class="edge">
<title>Node28&#45;&gt;Node17</title>
<path fill="none" stroke="#191970" d="M1058.9958,-201.389C1064.2519,-178.6691 1074.2532,-135.438 1080.6376,-107.8405"/>
<polygon fill="#191970" stroke="#191970" points="1084.1253,-108.293 1082.9694,-97.7614 1077.3055,-106.7152 1084.1253,-108.293"/>
</g>
<!-- Node28&#45;&gt;Node23 -->
<g id="edge37" class="edge">
<title>Node28&#45;&gt;Node23</title>
<path fill="none" stroke="#191970" d="M1108.2386,-201.4639C1143.6422,-191.3701 1190.4531,-178.024 1227.7697,-167.3848"/>
<polygon fill="#191970" stroke="#191970" points="1228.8743,-170.7094 1237.5314,-164.6017 1226.9549,-163.9777 1228.8743,-170.7094"/>
</g>
<!-- Node29&#45;&gt;Node5 -->
<g id="edge41" class="edge">
<title>Node29&#45;&gt;Node5</title>
<path fill="none" stroke="#191970" d="M1395.8513,-270.2769C1348.6134,-260.8264 1284.9216,-247.1419 1229.5,-232 1226.3505,-231.1395 1223.1004,-230.193 1219.849,-229.2048"/>
<polygon fill="#191970" stroke="#191970" points="1220.7797,-225.8285 1210.19,-226.1604 1218.6753,-232.5047 1220.7797,-225.8285"/>
</g>
<!-- Node30 -->
<g id="node31" class="node">
<title>Node30</title>
<polygon fill="none" stroke="#bfbfbf" points="1470.5,-207 1470.5,-226 1528.5,-226 1528.5,-207 1470.5,-207"/>
<text text-anchor="middle" x="1499.5" y="-214" font-family="Helvetica,sans-Serif" font-size="10.00" fill="#000000">TROOT.h</text>
</g>
<!-- Node29&#45;&gt;Node30 -->
<g id="edge42" class="edge">
<title>Node29&#45;&gt;Node30</title>
<path fill="none" stroke="#191970" d="M1473.2151,-268.2967C1478.2039,-258.4658 1484.7315,-245.6026 1490.0336,-235.1545"/>
<polygon fill="#191970" stroke="#191970" points="1493.247,-236.5563 1494.6512,-226.055 1487.0047,-233.3886 1493.247,-236.5563"/>
</g>
<!-- Node31 -->
<g id="node32" class="node">
<title>Node31</title>
<polygon fill="none" stroke="#bfbfbf" points="1546.5,-207 1546.5,-226 1614.5,-226 1614.5,-207 1546.5,-207"/>
<text text-anchor="middle" x="1580.5" y="-214" font-family="Helvetica,sans-Serif" font-size="10.00" fill="#000000">TSystem.h</text>
</g>
<!-- Node29&#45;&gt;Node31 -->
<g id="edge43" class="edge">
<title>Node29&#45;&gt;Node31</title>
<path fill="none" stroke="#191970" d="M1491.3082,-268.4639C1510.4299,-257.3234 1536.3517,-242.2212 1555.3218,-231.1691"/>
<polygon fill="#191970" stroke="#191970" points="1557.1371,-234.1622 1564.0157,-226.1039 1553.6132,-228.1138 1557.1371,-234.1622"/>
</g>
<!-- Node32 -->
<g id="node33" class="node">
<title>Node32</title>
<polygon fill="none" stroke="#bfbfbf" points="1633,-207 1633,-226 1696,-226 1696,-207 1633,-207"/>
<text text-anchor="middle" x="1664.5" y="-214" font-family="Helvetica,sans-Serif" font-size="10.00" fill="#000000">TGlobal.h</text>
</g>
<!-- Node29&#45;&gt;Node32 -->
<g id="edge44" class="edge">
<title>Node29&#45;&gt;Node32</title>
<path fill="none" stroke="#191970" d="M1513.751,-268.4118C1545.1398,-258.4392 1586.8945,-244.8773 1623.5,-232 1625.741,-231.2116 1628.0452,-230.385 1630.3638,-229.5413"/>
<polygon fill="#191970" stroke="#191970" points="1631.6882,-232.7832 1639.8517,-226.0298 1629.2585,-226.2184 1631.6882,-232.7832"/>
</g>
<!-- Node33 -->
<g id="node34" class="node">
<title>Node33</title>
<polygon fill="none" stroke="#bfbfbf" points="1714.5,-207 1714.5,-226 1786.5,-226 1786.5,-207 1714.5,-207"/>
<text text-anchor="middle" x="1750.5" y="-214" font-family="Helvetica,sans-Serif" font-size="10.00" fill="#000000">TFunction.h</text>
</g>
<!-- Node29&#45;&gt;Node33 -->
<g id="edge45" class="edge">
<title>Node29&#45;&gt;Node33</title>
<path fill="none" stroke="#191970" d="M1535.2499,-269.5034C1594.2414,-257.4864 1674.0427,-240.7585 1705.5,-232 1708.5075,-231.1626 1711.6073,-230.2349 1714.7069,-229.2616"/>
<polygon fill="#191970" stroke="#191970" points="1716.0807,-232.4945 1724.4923,-226.0527 1713.8995,-225.843 1716.0807,-232.4945"/>
</g>
<!-- Node34 -->
<g id="node35" class="node">
<title>Node34</title>
<polygon fill="none" stroke="#bfbfbf" points="1408.5,-207 1408.5,-226 1452.5,-226 1452.5,-207 1408.5,-207"/>
<text text-anchor="middle" x="1430.5" y="-214" font-family="Helvetica,sans-Serif" font-size="10.00" fill="#000000">string</text>
</g>
<!-- Node29&#45;&gt;Node34 -->
<g id="edge46" class="edge">
<title>Node29&#45;&gt;Node34</title>
<path fill="none" stroke="#191970" d="M1457.558,-268.2967C1452.4225,-258.4658 1445.7029,-245.6026 1440.2449,-235.1545"/>
<polygon fill="#191970" stroke="#191970" points="1443.2239,-233.2979 1435.4914,-226.055 1437.0194,-236.5391 1443.2239,-233.2979"/>
</g>
</g>
</svg>
        <g id="navigator" transform="translate(0 0)" fill="#404254">
                <rect fill="#f2f5e9" fill-opacity="0.5" stroke="#606060" stroke-width=".5" x="0" y="0" width="60" height="60"/>
                <use id="zoomplus" xlink:href="#zoomPlus" x="17" y="9" onmousedown="handleZoom(evt,'in')"/>
                <use id="zoomminus" xlink:href="#zoomMin" x="42" y="9" onmousedown="handleZoom(evt,'out')"/>
                <use id="reset" xlink:href="#resetDef" x="30" y="36" onmousedown="handleReset()"/>
                <g id="arrowUp" xlink:href="#dirArrow" transform="translate(30 24)" onmousedown="handlePan(0,-1)">
                  <use xlink:href="#rim" fill="#404040">
                        <set attributeName="fill" to="#808080" begin="arrowUp.mouseover" end="arrowUp.mouseout"/>
                  </use>
                  <path fill="none" stroke="white" stroke-width="1.5" d="M0,-3.0v7 M-2.5,-0.5L0,-3.0L2.5,-0.5"/>
                </g>
                <g id="arrowRight" xlink:href="#dirArrow" transform="rotate(90) translate(36 -43)" onmousedown="handlePan(1,0)">
                  <use xlink:href="#rim" fill="#404040">
                        <set attributeName="fill" to="#808080" begin="arrowRight.mouseover" end="arrowRight.mouseout"/>
                  </use>
                  <path fill="none" stroke="white" stroke-width="1.5" d="M0,-3.0v7 M-2.5,-0.5L0,-3.0L2.5,-0.5"/>
                </g>
                <g id="arrowDown" xlink:href="#dirArrow" transform="rotate(180) translate(-30 -48)" onmousedown="handlePan(0,1)">
                  <use xlink:href="#rim" fill="#404040">
                        <set attributeName="fill" to="#808080" begin="arrowDown.mouseover" end="arrowDown.mouseout"/>
                  </use>
                  <path fill="none" stroke="white" stroke-width="1.5" d="M0,-3.0v7 M-2.5,-0.5L0,-3.0L2.5,-0.5"/>
                </g>
                <g id="arrowLeft" xlink:href="#dirArrow" transform="rotate(270) translate(-36 17)" onmousedown="handlePan(-1,0)">
                  <use xlink:href="#rim" fill="#404040">
                        <set attributeName="fill" to="#808080" begin="arrowLeft.mouseover" end="arrowLeft.mouseout"/>
                  </use>
                  <path fill="none" stroke="white" stroke-width="1.5" d="M0,-3.0v7 M-2.5,-0.5L0,-3.0L2.5,-0.5"/>
                </g>
        </g>
        <svg viewBox="0 0 15 15" width="100%" height="30px" preserveAspectRatio="xMaxYMin meet">
         <g id="arrow_out" transform="scale(0.3 0.3)">
          <a xlink:href="GeneratorFactory_8cxx__incl_org.svg" target="_base">
           <rect id="button" ry="5" rx="5" y="6" x="6" height="38" width="38"
                fill="#f2f5e9" fill-opacity="0.5" stroke="#606060" stroke-width="1.0"/>
           <path id="arrow"
             d="M 11.500037,31.436501 C 11.940474,20.09759 22.043105,11.32322 32.158766,21.979434 L 37.068811,17.246167 C 37.068811,17.246167 37.088388,32 37.088388,32 L 22.160133,31.978069 C 22.160133,31.978069 26.997745,27.140456 26.997745,27.140456 C 18.528582,18.264221 13.291696,25.230495 11.500037,31.436501 z"
             style="fill:#404040;"/>
          </a>
         </g>
        </svg>
</svg>
