<?xml version="1.0" encoding="UTF-8" standalone="no"?>
<!DOCTYPE svg PUBLIC "-//W3C//DTD SVG 1.1//EN"
 "http://www.w3.org/Graphics/SVG/1.1/DTD/svg11.dtd">
<!-- Generated by graphviz version 2.40.1 (20161225.0304)
 -->
<!-- Title: /home/travis/build/AliceO2Group/AliceO2/Framework/Core/src/AnalysisHelpers.cxx Pages: 1 -->
<!--zoomable 341 -->
<svg id="main" version="1.1" xmlns="http://www.w3.org/2000/svg" xmlns:xlink="http://www.w3.org/1999/xlink" xml:space="preserve" onload="init(evt)">
<style type="text/css"><![CDATA[
.edge:hover path { stroke: red; }
.edge:hover polygon { stroke: red; fill: red; }
]]></style>
<script type="text/javascript"><![CDATA[
var edges = document.getElementsByTagName('g');
if (edges && edges.length) {
  for (var i=0;i<edges.length;i++) {
    if (edges[i].id.substr(0,4)=='edge') {
      edges[i].setAttribute('class','edge');
    }
  }
}
]]></script>
        <defs>
                <circle id="rim" cx="0" cy="0" r="7"/>
                <circle id="rim2" cx="0" cy="0" r="3.5"/>
                <g id="zoomPlus">
                        <use xlink:href="#rim" fill="#404040">
                                <set attributeName="fill" to="#808080" begin="zoomplus.mouseover" end="zoomplus.mouseout"/>
                        </use>
                        <path d="M-4,0h8M0,-4v8" fill="none" stroke="white" stroke-width="1.5" pointer-events="none"/>
                </g>
                <g id="zoomMin">
                        <use xlink:href="#rim" fill="#404040">
                                <set attributeName="fill" to="#808080" begin="zoomminus.mouseover" end="zoomminus.mouseout"/>
                        </use>
                        <path d="M-4,0h8" fill="none" stroke="white" stroke-width="1.5" pointer-events="none"/>
                </g>
                <g id="dirArrow">
                        <path fill="none" stroke="white" stroke-width="1.5" d="M0,-3.0v7 M-2.5,-0.5L0,-3.0L2.5,-0.5"/>
                </g>
               <g id="resetDef">
                       <use xlink:href="#rim2" fill="#404040">
                               <set attributeName="fill" to="#808080" begin="reset.mouseover" end="reset.mouseout"/>
                       </use>
               </g>
        </defs>

<script type="text/javascript">
var viewWidth = 2570;
var viewHeight = 341;
var sectionId = 'dynsection-0';
</script>
<script xlink:href="../../svgpan.js"/>
<svg id="graph" class="graph">
<g id="viewport">
<title>/home/travis/build/AliceO2Group/AliceO2/Framework/Core/src/AnalysisHelpers.cxx</title>
<!-- Node0 -->
<g id="node1" class="node">
<title>Node0</title>
<polygon fill="#bfbfbf" stroke="#000000" points="317,-280.5 317,-332.5 478,-332.5 478,-280.5 317,-280.5"/>
<text text-anchor="start" x="325" y="-320.5" font-family="Helvetica,sans-Serif" font-size="10.00" fill="#000000">/home/travis/build</text>
<text text-anchor="start" x="325" y="-309.5" font-family="Helvetica,sans-Serif" font-size="10.00" fill="#000000">/AliceO2Group/AliceO2</text>
<text text-anchor="start" x="325" y="-298.5" font-family="Helvetica,sans-Serif" font-size="10.00" fill="#000000">/Framework/Core/src/Analysis</text>
<text text-anchor="middle" x="397.5" y="-287.5" font-family="Helvetica,sans-Serif" font-size="10.00" fill="#000000">Helpers.cxx</text>
</g>
<!-- Node1 -->
<g id="node2" class="node">
<title>Node1</title>
<g id="a_node2"><a xlink:href="../../db/d34/AnalysisHelpers_8h.html" target="_top" xlink:title="Framework/AnalysisHelpers.h">
<polygon fill="none" stroke="#000000" points="0,-224.5 0,-243.5 161,-243.5 161,-224.5 0,-224.5"/>
<text text-anchor="middle" x="80.5" y="-231.5" font-family="Helvetica,sans-Serif" font-size="10.00" fill="#000000">Framework/AnalysisHelpers.h</text>
</a>
</g>
</g>
<!-- Node0&#45;&gt;Node1 -->
<g id="edge1" class="edge">
<title>Node0&#45;&gt;Node1</title>
<path fill="none" stroke="#191970" d="M316.6873,-288.0176C258.6821,-274.7514 182.2348,-257.2674 132.2508,-245.8357"/>
<polygon fill="#191970" stroke="#191970" points="132.8402,-242.3803 122.3116,-243.5626 131.2795,-249.2041 132.8402,-242.3803"/>
</g>
<!-- Node2 -->
<g id="node3" class="node">
<title>Node2</title>
<polygon fill="none" stroke="#bfbfbf" points="61.5,-168.5 61.5,-187.5 189.5,-187.5 189.5,-168.5 61.5,-168.5"/>
<text text-anchor="middle" x="125.5" y="-175.5" font-family="Helvetica,sans-Serif" font-size="10.00" fill="#000000">ROOT/RDataFrame.hxx</text>
</g>
<!-- Node0&#45;&gt;Node2 -->
<g id="edge70" class="edge">
<title>Node0&#45;&gt;Node2</title>
<path fill="none" stroke="#191970" d="M316.7365,-281.2407C287.6775,-271.0503 255.0403,-258.3045 226.5,-244 197.2696,-229.3496 166.1349,-208.0273 146.2856,-193.6162"/>
<polygon fill="#191970" stroke="#191970" points="148.1373,-190.6335 138.0072,-187.53 143.9909,-196.2733 148.1373,-190.6335"/>
</g>
<!-- Node4 -->
<g id="node5" class="node">
<title>Node4</title>
<g id="a_node5"><a xlink:href="../../de/d35/RCombinedDS_8h.html" target="_top" xlink:title="Framework/RCombinedDS.h">
<polygon fill="none" stroke="#000000" points="235.5,-224.5 235.5,-243.5 387.5,-243.5 387.5,-224.5 235.5,-224.5"/>
<text text-anchor="middle" x="311.5" y="-231.5" font-family="Helvetica,sans-Serif" font-size="10.00" fill="#000000">Framework/RCombinedDS.h</text>
</a>
</g>
</g>
<!-- Node0&#45;&gt;Node4 -->
<g id="edge5" class="edge">
<title>Node0&#45;&gt;Node4</title>
<path fill="none" stroke="#191970" d="M366.452,-280.3258C354.4554,-270.2124 341.1106,-258.9624 330.576,-250.0815"/>
<polygon fill="#191970" stroke="#191970" points="332.7109,-247.3035 322.8093,-243.534 328.1991,-252.6555 332.7109,-247.3035"/>
</g>
<!-- Node8 -->
<g id="node9" class="node">
<title>Node8</title>
<g id="a_node9"><a xlink:href="../../d5/d98/TableBuilder_8h.html" target="_top" xlink:title="Framework/TableBuilder.h">
<polygon fill="none" stroke="#000000" points="887.5,-224.5 887.5,-243.5 1029.5,-243.5 1029.5,-224.5 887.5,-224.5"/>
<text text-anchor="middle" x="958.5" y="-231.5" font-family="Helvetica,sans-Serif" font-size="10.00" fill="#000000">Framework/TableBuilder.h</text>
</a>
</g>
</g>
<!-- Node0&#45;&gt;Node8 -->
<g id="edge11" class="edge">
<title>Node0&#45;&gt;Node8</title>
<path fill="none" stroke="#191970" d="M478.1761,-296.0739C584.5058,-282.3326 770.5155,-258.2939 877.1704,-244.5105"/>
<polygon fill="#191970" stroke="#191970" points="877.7699,-247.9622 887.2388,-243.2093 876.8727,-241.02 877.7699,-247.9622"/>
</g>
<!-- Node45 -->
<g id="node46" class="node">
<title>Node45</title>
<g id="a_node46"><a xlink:href="../../dc/d03/TableConsumer_8h.html" target="_top" xlink:title="Framework/TableConsumer.h">
<polygon fill="none" stroke="#000000" points="406,-224.5 406,-243.5 563,-243.5 563,-224.5 406,-224.5"/>
<text text-anchor="middle" x="484.5" y="-231.5" font-family="Helvetica,sans-Serif" font-size="10.00" fill="#000000">Framework/TableConsumer.h</text>
</a>
</g>
</g>
<!-- Node0&#45;&gt;Node45 -->
<g id="edge68" class="edge">
<title>Node0&#45;&gt;Node45</title>
<path fill="none" stroke="#191970" d="M428.909,-280.3258C441.0451,-270.2124 454.5451,-258.9624 465.2022,-250.0815"/>
<polygon fill="#191970" stroke="#191970" points="467.6176,-252.6247 473.0592,-243.534 463.1363,-247.2471 467.6176,-252.6247"/>
</g>
<!-- Node46 -->
<g id="node47" class="node">
<title>Node46</title>
<polygon fill="none" stroke="#bfbfbf" points="1047.5,-224.5 1047.5,-243.5 1163.5,-243.5 1163.5,-224.5 1047.5,-224.5"/>
<text text-anchor="middle" x="1105.5" y="-231.5" font-family="Helvetica,sans-Serif" font-size="10.00" fill="#000000">ROOT/RArrowDS.hxx</text>
</g>
<!-- Node0&#45;&gt;Node46 -->
<g id="edge71" class="edge">
<title>Node0&#45;&gt;Node46</title>
<path fill="none" stroke="#191970" d="M478.0919,-299.969C597.762,-289.976 829.7348,-269.474 1037.245,-244.104"/>
<polygon fill="#191970" stroke="#191970" points="1037.9216,-247.5473 1047.4201,-242.8537 1037.0678,-240.5996 1037.9216,-247.5473"/>
</g>
<!-- Node1&#45;&gt;Node1 -->
<g id="edge2" class="edge">
<title>Node1&#45;&gt;Node1</title>
<path fill="none" stroke="#191970" d="M122.254,-243.5001C150.8878,-246.3269 179,-243.1602 179,-234 179,-225.9133 157.0905,-222.4977 132.2547,-223.7531"/>
<polygon fill="#191970" stroke="#191970" points="131.9655,-220.2648 122.254,-224.4999 132.4869,-227.2454 131.9655,-220.2648"/>
</g>
<!-- Node1&#45;&gt;Node2 -->
<g id="edge3" class="edge">
<title>Node1&#45;&gt;Node2</title>
<path fill="none" stroke="#191970" d="M88.3384,-224.2455C94.662,-216.3761 103.7224,-205.101 111.3136,-195.6542"/>
<polygon fill="#191970" stroke="#191970" points="114.2158,-197.6302 117.7514,-187.6427 108.7592,-193.2454 114.2158,-197.6302"/>
</g>
<!-- Node3 -->
<g id="node4" class="node">
<title>Node3</title>
<polygon fill="none" stroke="#bfbfbf" points="293.5,-56.5 293.5,-75.5 337.5,-75.5 337.5,-56.5 293.5,-56.5"/>
<text text-anchor="middle" x="315.5" y="-63.5" font-family="Helvetica,sans-Serif" font-size="10.00" fill="#000000">string</text>
</g>
<!-- Node1&#45;&gt;Node3 -->
<g id="edge4" class="edge">
<title>Node1&#45;&gt;Node3</title>
<path fill="none" stroke="#191970" d="M70.7998,-224.4436C58.4091,-211.048 39.9826,-186.2805 52.5,-168 79.6273,-128.3831 219.4961,-89.6138 283.4818,-73.6362"/>
<polygon fill="#191970" stroke="#191970" points="284.5586,-76.9757 293.43,-71.1835 282.8829,-70.1792 284.5586,-76.9757"/>
</g>
<!-- Node4&#45;&gt;Node2 -->
<g id="edge6" class="edge">
<title>Node4&#45;&gt;Node2</title>
<path fill="none" stroke="#191970" d="M279.5255,-224.3733C248.3287,-214.9807 200.729,-200.6496 166.7068,-190.4064"/>
<polygon fill="#191970" stroke="#191970" points="167.6418,-187.0327 157.0573,-187.5011 165.6237,-193.7355 167.6418,-187.0327"/>
</g>
<!-- Node4&#45;&gt;Node3 -->
<g id="edge9" class="edge">
<title>Node4&#45;&gt;Node3</title>
<path fill="none" stroke="#191970" d="M283.0619,-224.3621C266.5721,-217.1374 247.201,-205.4529 237.5,-188 233.1815,-180.2306 234.6497,-176.4195 237.5,-168 249.2486,-133.2955 278.0618,-101.1101 297.1857,-82.5136"/>
<polygon fill="#191970" stroke="#191970" points="299.6053,-85.0427 304.4685,-75.6299 294.7968,-79.9555 299.6053,-85.0427"/>
</g>
<!-- Node5 -->
<g id="node6" class="node">
<title>Node5</title>
<polygon fill="none" stroke="#bfbfbf" points="246,-168.5 246,-187.5 377,-187.5 377,-168.5 246,-168.5"/>
<text text-anchor="middle" x="311.5" y="-175.5" font-family="Helvetica,sans-Serif" font-size="10.00" fill="#000000">ROOT/RDataSource.hxx</text>
</g>
<!-- Node4&#45;&gt;Node5 -->
<g id="edge7" class="edge">
<title>Node4&#45;&gt;Node5</title>
<path fill="none" stroke="#191970" d="M311.5,-224.2455C311.5,-216.9382 311.5,-206.6944 311.5,-197.7046"/>
<polygon fill="#191970" stroke="#191970" points="315.0001,-197.6426 311.5,-187.6427 308.0001,-197.6427 315.0001,-197.6426"/>
</g>
<!-- Node6 -->
<g id="node7" class="node">
<title>Node6</title>
<polygon fill="none" stroke="#bfbfbf" points="452.5,-56.5 452.5,-75.5 510.5,-75.5 510.5,-56.5 452.5,-56.5"/>
<text text-anchor="middle" x="481.5" y="-63.5" font-family="Helvetica,sans-Serif" font-size="10.00" fill="#000000">memory</text>
</g>
<!-- Node4&#45;&gt;Node6 -->
<g id="edge8" class="edge">
<title>Node4&#45;&gt;Node6</title>
<path fill="none" stroke="#191970" d="M331.2852,-224.3933C347.215,-216.0901 369.6492,-203.0703 386.5,-188 421.9861,-156.2636 453.8969,-109.95 470.1561,-84.4862"/>
<polygon fill="#191970" stroke="#191970" points="473.243,-86.1519 475.5961,-75.8217 467.3146,-82.4297 473.243,-86.1519"/>
</g>
<!-- Node7 -->
<g id="node8" class="node">
<title>Node7</title>
<polygon fill="none" stroke="#bfbfbf" points="472,-168.5 472,-187.5 519,-187.5 519,-168.5 472,-168.5"/>
<text text-anchor="middle" x="495.5" y="-175.5" font-family="Helvetica,sans-Serif" font-size="10.00" fill="#000000">vector</text>
</g>
<!-- Node4&#45;&gt;Node7 -->
<g id="edge10" class="edge">
<title>Node4&#45;&gt;Node7</title>
<path fill="none" stroke="#191970" d="M343.1307,-224.3733C376.2806,-214.2842 428.153,-198.4969 461.9902,-188.1986"/>
<polygon fill="#191970" stroke="#191970" points="463.3241,-191.4512 471.8718,-185.1912 461.2859,-184.7545 463.3241,-191.4512"/>
</g>
<!-- Node8&#45;&gt;Node3 -->
<g id="edge65" class="edge">
<title>Node8&#45;&gt;Node3</title>
<path fill="none" stroke="#191970" d="M887.3052,-228.2924C792.4423,-220.2094 629.8858,-204.5582 572.5,-188 566.5212,-186.2749 410.6004,-111.6181 344.5871,-79.9587"/>
<polygon fill="#191970" stroke="#191970" points="346.0585,-76.7827 335.5283,-75.6135 343.031,-83.0942 346.0585,-76.7827"/>
</g>
<!-- Node8&#45;&gt;Node6 -->
<g id="edge66" class="edge">
<title>Node8&#45;&gt;Node6</title>
<path fill="none" stroke="#191970" d="M887.1881,-229.1364C800.0046,-222.4078 658.0608,-208.6971 609.5,-188 557.4856,-165.8309 514.0607,-112.4125 493.7891,-84.1844"/>
<polygon fill="#191970" stroke="#191970" points="496.424,-81.8452 487.823,-75.6587 490.6888,-85.8586 496.424,-81.8452"/>
</g>
<!-- Node8&#45;&gt;Node7 -->
<g id="edge64" class="edge">
<title>Node8&#45;&gt;Node7</title>
<path fill="none" stroke="#191970" d="M887.3428,-229.5628C802.5503,-223.5247 656.84,-210.7717 533.5,-188 532.0325,-187.7291 530.5384,-187.4314 529.0328,-187.1136"/>
<polygon fill="#191970" stroke="#191970" points="529.6273,-183.6583 519.0934,-184.7928 528.0356,-190.475 529.6273,-183.6583"/>
</g>
<!-- Node9 -->
<g id="node10" class="node">
<title>Node9</title>
<g id="a_node10"><a xlink:href="../../de/d33/ASoA_8h.html" target="_top" xlink:title="Framework/ASoA.h">
<polygon fill="none" stroke="#000000" points="1261.5,-168.5 1261.5,-187.5 1369.5,-187.5 1369.5,-168.5 1261.5,-168.5"/>
<text text-anchor="middle" x="1315.5" y="-175.5" font-family="Helvetica,sans-Serif" font-size="10.00" fill="#000000">Framework/ASoA.h</text>
</a>
</g>
</g>
<!-- Node8&#45;&gt;Node9 -->
<g id="edge12" class="edge">
<title>Node8&#45;&gt;Node9</title>
<path fill="none" stroke="#191970" d="M1019.4649,-224.4369C1083.9256,-214.3254 1185.1992,-198.4393 1250.9769,-188.1213"/>
<polygon fill="#191970" stroke="#191970" points="1251.8812,-191.5223 1261.218,-186.5148 1250.7964,-184.6069 1251.8812,-191.5223"/>
</g>
<!-- Node15 -->
<g id="node16" class="node">
<title>Node15</title>
<g id="a_node16"><a xlink:href="../../de/d9b/FunctionalHelpers_8h.html" target="_top" xlink:title="Framework/FunctionalHelpers.h">
<polygon fill="none" stroke="#000000" points="2311.5,-112.5 2311.5,-131.5 2481.5,-131.5 2481.5,-112.5 2311.5,-112.5"/>
<text text-anchor="middle" x="2396.5" y="-119.5" font-family="Helvetica,sans-Serif" font-size="10.00" fill="#000000">Framework/FunctionalHelpers.h</text>
</a>
</g>
</g>
<!-- Node8&#45;&gt;Node15 -->
<g id="edge55" class="edge">
<title>Node8&#45;&gt;Node15</title>
<path fill="none" stroke="#191970" d="M1029.5916,-225.0429C1032.6008,-224.6861 1035.58,-224.3371 1038.5,-224 1189.4535,-206.5753 1232.875,-231.4041 1378.5,-188 1397.1681,-182.4359 1398.6771,-173.0154 1417.5,-168 1422.8027,-166.5871 2056.0056,-137.5479 2301.1222,-126.3505"/>
<polygon fill="#191970" stroke="#191970" points="2301.6114,-129.8319 2311.4413,-125.8792 2301.2919,-122.8392 2301.6114,-129.8319"/>
</g>
<!-- Node16 -->
<g id="node17" class="node">
<title>Node16</title>
<polygon fill="none" stroke="#bfbfbf" points="2497,-56.5 2497,-75.5 2562,-75.5 2562,-56.5 2497,-56.5"/>
<text text-anchor="middle" x="2529.5" y="-63.5" font-family="Helvetica,sans-Serif" font-size="10.00" fill="#000000">functional</text>
</g>
<!-- Node8&#45;&gt;Node16 -->
<g id="edge63" class="edge">
<title>Node8&#45;&gt;Node16</title>
<path fill="none" stroke="#191970" d="M1029.5697,-224.8248C1032.5849,-224.5277 1035.5714,-224.2508 1038.5,-224 1199.5675,-210.2086 2353.5138,-217.8354 2490.5,-132 2507.3608,-121.435 2517.8292,-100.7011 2523.6211,-85.2783"/>
<polygon fill="#191970" stroke="#191970" points="2526.993,-86.2342 2526.9049,-75.6398 2520.3669,-83.9768 2526.993,-86.2342"/>
</g>
<!-- Node26 -->
<g id="node27" class="node">
<title>Node26</title>
<polygon fill="none" stroke="#bfbfbf" points="799,-56.5 799,-75.5 880,-75.5 880,-56.5 799,-56.5"/>
<text text-anchor="middle" x="839.5" y="-63.5" font-family="Helvetica,sans-Serif" font-size="10.00" fill="#000000">arrow/table.h</text>
</g>
<!-- Node8&#45;&gt;Node26 -->
<g id="edge61" class="edge">
<title>Node8&#45;&gt;Node26</title>
<path fill="none" stroke="#191970" d="M959.6344,-224.2837C961.6971,-201.9729 963.6847,-146.3587 937.5,-112 925.6768,-96.486 907.3339,-85.9908 889.7005,-78.9947"/>
<polygon fill="#191970" stroke="#191970" points="890.6169,-75.6033 880.0231,-75.4584 888.2143,-82.1781 890.6169,-75.6033"/>
</g>
<!-- Node38 -->
<g id="node39" class="node">
<title>Node38</title>
<g id="a_node39"><a xlink:href="../../db/d4f/StructToTuple_8h.html" target="_top" xlink:title="Framework/StructToTuple.h">
<polygon fill="none" stroke="#000000" points="652,-168.5 652,-187.5 799,-187.5 799,-168.5 652,-168.5"/>
<text text-anchor="middle" x="725.5" y="-175.5" font-family="Helvetica,sans-Serif" font-size="10.00" fill="#000000">Framework/StructToTuple.h</text>
</a>
</g>
</g>
<!-- Node8&#45;&gt;Node38 -->
<g id="edge51" class="edge">
<title>Node8&#45;&gt;Node38</title>
<path fill="none" stroke="#191970" d="M918.7106,-224.4369C879.002,-214.8932 817.8896,-200.2052 775.0545,-189.9101"/>
<polygon fill="#191970" stroke="#191970" points="775.6663,-186.4575 765.1253,-187.5237 774.0305,-193.2637 775.6663,-186.4575"/>
</g>
<!-- Node39 -->
<g id="node40" class="node">
<title>Node39</title>
<polygon fill="none" stroke="#bfbfbf" points="548,-112.5 548,-131.5 589,-131.5 589,-112.5 548,-112.5"/>
<text text-anchor="middle" x="568.5" y="-119.5" font-family="Helvetica,sans-Serif" font-size="10.00" fill="#000000">tuple</text>
</g>
<!-- Node8&#45;&gt;Node39 -->
<g id="edge67" class="edge">
<title>Node8&#45;&gt;Node39</title>
<path fill="none" stroke="#191970" d="M887.361,-228.3406C808.1262,-221.2124 685.6338,-207.4936 643.5,-188 619.0613,-176.6932 596.6809,-154.8271 582.8503,-139.3674"/>
<polygon fill="#191970" stroke="#191970" points="585.2754,-136.8209 576.0874,-131.5454 579.9802,-141.3992 585.2754,-136.8209"/>
</g>
<!-- Node40 -->
<g id="node41" class="node">
<title>Node40</title>
<g id="a_node41"><a xlink:href="../../d7/dbe/VariantHelpers_8h.html" target="_top" xlink:title="Framework/VariantHelpers.h">
<polygon fill="none" stroke="#000000" points="773,-112.5 773,-131.5 928,-131.5 928,-112.5 773,-112.5"/>
<text text-anchor="middle" x="850.5" y="-119.5" font-family="Helvetica,sans-Serif" font-size="10.00" fill="#000000">Framework/VariantHelpers.h</text>
</a>
</g>
</g>
<!-- Node8&#45;&gt;Node40 -->
<g id="edge56" class="edge">
<title>Node8&#45;&gt;Node40</title>
<path fill="none" stroke="#191970" d="M949.292,-224.4509C930.9601,-205.4401 889.6908,-162.6423 866.7155,-138.816"/>
<polygon fill="#191970" stroke="#191970" points="869.1456,-136.2939 859.6847,-131.5249 864.1066,-141.1528 869.1456,-136.2939"/>
</g>
<!-- Node41 -->
<g id="node42" class="node">
<title>Node41</title>
<polygon fill="none" stroke="#bfbfbf" points="1426,-168.5 1426,-187.5 1535,-187.5 1535,-168.5 1426,-168.5"/>
<text text-anchor="middle" x="1480.5" y="-175.5" font-family="Helvetica,sans-Serif" font-size="10.00" fill="#000000">arrow/type_traits.h</text>
</g>
<!-- Node8&#45;&gt;Node41 -->
<g id="edge58" class="edge">
<title>Node8&#45;&gt;Node41</title>
<path fill="none" stroke="#191970" d="M1029.5878,-225.0087C1032.598,-224.6612 1035.5785,-224.3235 1038.5,-224 1204.0363,-205.6693 1246.151,-207.9496 1411.5,-188 1412.9646,-187.8233 1414.4461,-187.6407 1415.9397,-187.4533"/>
<polygon fill="#191970" stroke="#191970" points="1416.4536,-190.916 1425.9187,-186.1556 1415.5508,-183.9745 1416.4536,-190.916"/>
</g>
<!-- Node42 -->
<g id="node43" class="node">
<title>Node42</title>
<polygon fill="none" stroke="#bfbfbf" points="1553.5,-168.5 1553.5,-187.5 1609.5,-187.5 1609.5,-168.5 1553.5,-168.5"/>
<text text-anchor="middle" x="1581.5" y="-175.5" font-family="Helvetica,sans-Serif" font-size="10.00" fill="#000000">sstream</text>
</g>
<!-- Node8&#45;&gt;Node42 -->
<g id="edge59" class="edge">
<title>Node8&#45;&gt;Node42</title>
<path fill="none" stroke="#191970" d="M1029.578,-224.9156C1032.5909,-224.5936 1035.5746,-224.2867 1038.5,-224 1259.5955,-202.332 1320.4247,-224.9057 1543.2944,-187.9013"/>
<polygon fill="#191970" stroke="#191970" points="1544.0617,-191.3215 1553.3426,-186.2111 1542.9005,-184.4185 1544.0617,-191.3215"/>
</g>
<!-- Node43 -->
<g id="node44" class="node">
<title>Node43</title>
<polygon fill="none" stroke="#bfbfbf" points="1627.5,-168.5 1627.5,-187.5 1695.5,-187.5 1695.5,-168.5 1627.5,-168.5"/>
<text text-anchor="middle" x="1661.5" y="-175.5" font-family="Helvetica,sans-Serif" font-size="10.00" fill="#000000">arrow/stl.h</text>
</g>
<!-- Node8&#45;&gt;Node43 -->
<g id="edge60" class="edge">
<title>Node8&#45;&gt;Node43</title>
<path fill="none" stroke="#191970" d="M1029.5748,-224.8822C1032.5886,-224.5694 1035.5734,-224.2735 1038.5,-224 1292.389,-200.2759 1361.2064,-224.7435 1617.3556,-187.9378"/>
<polygon fill="#191970" stroke="#191970" points="1617.9382,-191.39 1627.3304,-186.4874 1616.9309,-184.4628 1617.9382,-191.39"/>
</g>
<!-- Node44 -->
<g id="node45" class="node">
<title>Node44</title>
<polygon fill="none" stroke="#bfbfbf" points="1714,-168.5 1714,-187.5 1803,-187.5 1803,-168.5 1714,-168.5"/>
<text text-anchor="middle" x="1758.5" y="-175.5" font-family="Helvetica,sans-Serif" font-size="10.00" fill="#000000">arrow/builder.h</text>
</g>
<!-- Node8&#45;&gt;Node44 -->
<g id="edge62" class="edge">
<title>Node8&#45;&gt;Node44</title>
<path fill="none" stroke="#191970" d="M1029.5721,-224.8526C1032.5866,-224.5479 1035.5723,-224.2618 1038.5,-224 1330.4383,-197.8962 1408.4052,-222.4962 1703.6345,-187.9419"/>
<polygon fill="#191970" stroke="#191970" points="1704.2595,-191.3925 1713.7789,-186.7414 1703.4369,-184.441 1704.2595,-191.3925"/>
</g>
<!-- Node10 -->
<g id="node11" class="node">
<title>Node10</title>
<g id="a_node11"><a xlink:href="../../dd/dce/Pack_8h.html" target="_top" xlink:title="Framework/Pack.h">
<polygon fill="none" stroke="#000000" points="2374,-56.5 2374,-75.5 2479,-75.5 2479,-56.5 2374,-56.5"/>
<text text-anchor="middle" x="2426.5" y="-63.5" font-family="Helvetica,sans-Serif" font-size="10.00" fill="#000000">Framework/Pack.h</text>
</a>
</g>
</g>
<!-- Node9&#45;&gt;Node10 -->
<g id="edge13" class="edge">
<title>Node9&#45;&gt;Node10</title>
<path fill="none" stroke="#191970" d="M1369.633,-169.5616C1374.3162,-168.9766 1378.9874,-168.4441 1383.5,-168 1701.0343,-136.7529 1783.9198,-171.7672 2100.5,-132 2200.3637,-119.4556 2315.3618,-93.3984 2378.5938,-78.0436"/>
<polygon fill="#191970" stroke="#191970" points="2379.7783,-81.3572 2388.6613,-75.5829 2378.1163,-74.5574 2379.7783,-81.3572"/>
</g>
<!-- Node14 -->
<g id="node15" class="node">
<title>Node14</title>
<g id="a_node15"><a xlink:href="../../d1/d00/CheckTypes_8h.html" target="_top" xlink:title="Framework/CheckTypes.h">
<polygon fill="none" stroke="#000000" points="2050.5,-56.5 2050.5,-75.5 2190.5,-75.5 2190.5,-56.5 2050.5,-56.5"/>
<text text-anchor="middle" x="2120.5" y="-63.5" font-family="Helvetica,sans-Serif" font-size="10.00" fill="#000000">Framework/CheckTypes.h</text>
</a>
</g>
</g>
<!-- Node9&#45;&gt;Node14 -->
<g id="edge17" class="edge">
<title>Node9&#45;&gt;Node14</title>
<path fill="none" stroke="#191970" d="M1369.6367,-169.5987C1374.3192,-169.0056 1378.9891,-168.4611 1383.5,-168 1521.4565,-153.898 1873.6652,-171.8217 2006.5,-132 2042.1188,-121.3221 2078.4802,-97.5831 2100.2718,-81.682"/>
<polygon fill="#191970" stroke="#191970" points="2102.4873,-84.3959 2108.4093,-75.6106 2098.3013,-78.7854 2102.4873,-84.3959"/>
</g>
<!-- Node9&#45;&gt;Node15 -->
<g id="edge18" class="edge">
<title>Node9&#45;&gt;Node15</title>
<path fill="none" stroke="#191970" d="M1369.6283,-169.5127C1374.3126,-168.9383 1378.9853,-168.4216 1383.5,-168 1779.8751,-130.9877 1881.1747,-156.8145 2278.5,-132 2285.9191,-131.5366 2293.5963,-131.0047 2301.3108,-130.4328"/>
<polygon fill="#191970" stroke="#191970" points="2301.7497,-133.9096 2311.4551,-129.6603 2301.2181,-126.9298 2301.7497,-133.9096"/>
</g>
<!-- Node17 -->
<g id="node18" class="node">
<title>Node17</title>
<g id="a_node18"><a xlink:href="../../d9/de8/CompilerBuiltins_8h.html" target="_top" xlink:title="Framework/CompilerBuiltins.h">
<polygon fill="none" stroke="#000000" points="616.5,-56.5 616.5,-75.5 780.5,-75.5 780.5,-56.5 616.5,-56.5"/>
<text text-anchor="middle" x="698.5" y="-63.5" font-family="Helvetica,sans-Serif" font-size="10.00" fill="#000000">Framework/CompilerBuiltins.h</text>
</a>
</g>
</g>
<!-- Node9&#45;&gt;Node17 -->
<g id="edge21" class="edge">
<title>Node9&#45;&gt;Node17</title>
<path fill="none" stroke="#191970" d="M1261.4577,-171.5275C1200.7925,-163.8545 1099.5789,-149.8293 1013.5,-132 979.2982,-124.9158 971.5572,-119.7495 937.5,-112 879.0326,-98.6961 811.9466,-86.007 763.7624,-77.339"/>
<polygon fill="#191970" stroke="#191970" points="764.2375,-73.8685 753.7772,-75.5516 763.004,-80.7589 764.2375,-73.8685"/>
</g>
<!-- Node18 -->
<g id="node19" class="node">
<title>Node18</title>
<g id="a_node19"><a xlink:href="../../db/d31/Traits_8h.html" target="_top" xlink:title="Framework/Traits.h">
<polygon fill="none" stroke="#000000" points="646,-112.5 646,-131.5 755,-131.5 755,-112.5 646,-112.5"/>
<text text-anchor="middle" x="700.5" y="-119.5" font-family="Helvetica,sans-Serif" font-size="10.00" fill="#000000">Framework/Traits.h</text>
</a>
</g>
</g>
<!-- Node9&#45;&gt;Node18 -->
<g id="edge22" class="edge">
<title>Node9&#45;&gt;Node18</title>
<path fill="none" stroke="#191970" d="M1261.4048,-174.7757C1164.2642,-168.7036 953.6428,-154.2556 765.3614,-132.0242"/>
<polygon fill="#191970" stroke="#191970" points="765.6208,-128.5304 755.277,-130.8234 764.793,-135.4813 765.6208,-128.5304"/>
</g>
<!-- Node20 -->
<g id="node21" class="node">
<title>Node20</title>
<g id="a_node21"><a xlink:href="../../d0/d91/Expressions_8h.html" target="_top" xlink:title="Framework/Expressions.h">
<polygon fill="none" stroke="#000000" points="1509,-112.5 1509,-131.5 1650,-131.5 1650,-112.5 1509,-112.5"/>
<text text-anchor="middle" x="1579.5" y="-119.5" font-family="Helvetica,sans-Serif" font-size="10.00" fill="#000000">Framework/Expressions.h</text>
</a>
</g>
</g>
<!-- Node9&#45;&gt;Node20 -->
<g id="edge24" class="edge">
<title>Node9&#45;&gt;Node20</title>
<path fill="none" stroke="#191970" d="M1360.5833,-168.4369C1405.9546,-158.8127 1475.9886,-143.957 1524.5766,-133.6504"/>
<polygon fill="#191970" stroke="#191970" points="1525.5466,-137.0226 1534.6027,-131.5237 1524.0941,-130.175 1525.5466,-137.0226"/>
</g>
<!-- Node9&#45;&gt;Node26 -->
<g id="edge44" class="edge">
<title>Node9&#45;&gt;Node26</title>
<path fill="none" stroke="#191970" d="M1366.8482,-168.4847C1404.1528,-160.4058 1450.0269,-147.6439 1461.5,-132 1466.7568,-124.8322 1467.5848,-118.4798 1461.5,-112 1419.5679,-67.3459 987.4714,-82.9343 890.0375,-75.5783"/>
<polygon fill="#191970" stroke="#191970" points="890.3796,-72.0952 880.0831,-74.5915 889.689,-79.061 890.3796,-72.0952"/>
</g>
<!-- Node27 -->
<g id="node28" class="node">
<title>Node27</title>
<polygon fill="none" stroke="#bfbfbf" points="2209,-56.5 2209,-75.5 2356,-75.5 2356,-56.5 2209,-56.5"/>
<text text-anchor="middle" x="2282.5" y="-63.5" font-family="Helvetica,sans-Serif" font-size="10.00" fill="#000000">gandiva/selection_vector.h</text>
</g>
<!-- Node9&#45;&gt;Node27 -->
<g id="edge48" class="edge">
<title>Node9&#45;&gt;Node27</title>
<path fill="none" stroke="#191970" d="M1369.6351,-169.5829C1374.3179,-168.9932 1378.9884,-168.4538 1383.5,-168 1675.7944,-138.5984 1753.5753,-179.3722 2043.5,-132 2116.5226,-120.0685 2199.2327,-94.4049 2245.7007,-78.8287"/>
<polygon fill="#191970" stroke="#191970" points="2246.9751,-82.0925 2255.326,-75.5724 2244.7318,-75.4617 2246.9751,-82.0925"/>
</g>
<!-- Node31 -->
<g id="node32" class="node">
<title>Node31</title>
<polygon fill="none" stroke="#bfbfbf" points="1834,-56.5 1834,-75.5 1913,-75.5 1913,-56.5 1834,-56.5"/>
<text text-anchor="middle" x="1873.5" y="-63.5" font-family="Helvetica,sans-Serif" font-size="10.00" fill="#000000">fmt/format.h</text>
</g>
<!-- Node9&#45;&gt;Node31 -->
<g id="edge50" class="edge">
<title>Node9&#45;&gt;Node31</title>
<path fill="none" stroke="#191970" d="M1369.6791,-169.9512C1374.3524,-169.2816 1379.0087,-168.6231 1383.5,-168 1506.0321,-151.0002 1538.6274,-158.3233 1659.5,-132 1723.5088,-118.0604 1795.9628,-93.8795 1838.0172,-78.9769"/>
<polygon fill="#191970" stroke="#191970" points="1839.2848,-82.2408 1847.5254,-75.5817 1836.9308,-75.6484 1839.2848,-82.2408"/>
</g>
<!-- Node33 -->
<g id="node34" class="node">
<title>Node33</title>
<g id="a_node34"><a xlink:href="../../d4/de7/ArrowTypes_8h.html" target="_top" xlink:title="Framework/ArrowTypes.h">
<polygon fill="none" stroke="#000000" points="1858,-112.5 1858,-131.5 1997,-131.5 1997,-112.5 1858,-112.5"/>
<text text-anchor="middle" x="1927.5" y="-119.5" font-family="Helvetica,sans-Serif" font-size="10.00" fill="#000000">Framework/ArrowTypes.h</text>
</a>
</g>
</g>
<!-- Node9&#45;&gt;Node33 -->
<g id="edge42" class="edge">
<title>Node9&#45;&gt;Node33</title>
<path fill="none" stroke="#191970" d="M1369.6509,-169.7293C1374.3303,-169.1079 1378.9957,-168.5211 1383.5,-168 1471.1603,-157.8579 1719.1115,-138.1328 1847.7929,-128.1313"/>
<polygon fill="#191970" stroke="#191970" points="1848.2804,-131.6041 1857.9794,-127.3405 1847.7385,-124.6251 1848.2804,-131.6041"/>
</g>
<!-- Node34 -->
<g id="node35" class="node">
<title>Node34</title>
<polygon fill="none" stroke="#bfbfbf" points="1022.5,-112.5 1022.5,-131.5 1102.5,-131.5 1102.5,-112.5 1022.5,-112.5"/>
<text text-anchor="middle" x="1062.5" y="-119.5" font-family="Helvetica,sans-Serif" font-size="10.00" fill="#000000">arrow/array.h</text>
</g>
<!-- Node9&#45;&gt;Node34 -->
<g id="edge45" class="edge">
<title>Node9&#45;&gt;Node34</title>
<path fill="none" stroke="#191970" d="M1272.2952,-168.4369C1227.9849,-158.6291 1159.1293,-143.3883 1112.4929,-133.0656"/>
<polygon fill="#191970" stroke="#191970" points="1113.1245,-129.6208 1102.6044,-130.8769 1111.6117,-136.4554 1113.1245,-129.6208"/>
</g>
<!-- Node35 -->
<g id="node36" class="node">
<title>Node35</title>
<polygon fill="none" stroke="#bfbfbf" points="1120.5,-112.5 1120.5,-131.5 1230.5,-131.5 1230.5,-112.5 1120.5,-112.5"/>
<text text-anchor="middle" x="1175.5" y="-119.5" font-family="Helvetica,sans-Serif" font-size="10.00" fill="#000000">arrow/util/variant.h</text>
</g>
<!-- Node9&#45;&gt;Node35 -->
<g id="edge46" class="edge">
<title>Node9&#45;&gt;Node35</title>
<path fill="none" stroke="#191970" d="M1291.4331,-168.3733C1268.6572,-159.2629 1234.2656,-145.5062 1208.851,-135.3404"/>
<polygon fill="#191970" stroke="#191970" points="1209.8375,-131.9654 1199.2528,-131.5011 1207.2377,-138.4648 1209.8375,-131.9654"/>
</g>
<!-- Node36 -->
<g id="node37" class="node">
<title>Node36</title>
<polygon fill="none" stroke="#bfbfbf" points="1249,-112.5 1249,-131.5 1382,-131.5 1382,-112.5 1249,-112.5"/>
<text text-anchor="middle" x="1315.5" y="-119.5" font-family="Helvetica,sans-Serif" font-size="10.00" fill="#000000">arrow/compute/kernel.h</text>
</g>
<!-- Node9&#45;&gt;Node36 -->
<g id="edge47" class="edge">
<title>Node9&#45;&gt;Node36</title>
<path fill="none" stroke="#191970" d="M1315.5,-168.2455C1315.5,-160.9382 1315.5,-150.6944 1315.5,-141.7046"/>
<polygon fill="#191970" stroke="#191970" points="1319.0001,-141.6426 1315.5,-131.6427 1312.0001,-141.6427 1319.0001,-141.6426"/>
</g>
<!-- Node37 -->
<g id="node38" class="node">
<title>Node37</title>
<polygon fill="none" stroke="#bfbfbf" points="1400.5,-112.5 1400.5,-131.5 1452.5,-131.5 1452.5,-112.5 1400.5,-112.5"/>
<text text-anchor="middle" x="1426.5" y="-119.5" font-family="Helvetica,sans-Serif" font-size="10.00" fill="#000000">cassert</text>
</g>
<!-- Node9&#45;&gt;Node37 -->
<g id="edge49" class="edge">
<title>Node9&#45;&gt;Node37</title>
<path fill="none" stroke="#191970" d="M1334.5816,-168.3733C1352.2402,-159.4644 1378.7053,-146.1127 1398.7098,-136.0203"/>
<polygon fill="#191970" stroke="#191970" points="1400.3158,-139.1303 1407.6674,-131.5011 1397.1628,-132.8806 1400.3158,-139.1303"/>
</g>
<!-- Node11 -->
<g id="node12" class="node">
<title>Node11</title>
<polygon fill="none" stroke="#bfbfbf" points="2333,-.5 2333,-19.5 2386,-19.5 2386,-.5 2333,-.5"/>
<text text-anchor="middle" x="2359.5" y="-7.5" font-family="Helvetica,sans-Serif" font-size="10.00" fill="#000000">cstddef</text>
</g>
<!-- Node10&#45;&gt;Node11 -->
<g id="edge14" class="edge">
<title>Node10&#45;&gt;Node11</title>
<path fill="none" stroke="#191970" d="M2414.8295,-56.2455C2404.9339,-47.9746 2390.5373,-35.9416 2378.9099,-26.2232"/>
<polygon fill="#191970" stroke="#191970" points="2380.9542,-23.3703 2371.0368,-19.6427 2376.465,-28.7413 2380.9542,-23.3703"/>
</g>
<!-- Node12 -->
<g id="node13" class="node">
<title>Node12</title>
<polygon fill="none" stroke="#bfbfbf" points="2404,-.5 2404,-19.5 2449,-19.5 2449,-.5 2404,-.5"/>
<text text-anchor="middle" x="2426.5" y="-7.5" font-family="Helvetica,sans-Serif" font-size="10.00" fill="#000000">utility</text>
</g>
<!-- Node10&#45;&gt;Node12 -->
<g id="edge15" class="edge">
<title>Node10&#45;&gt;Node12</title>
<path fill="none" stroke="#191970" d="M2426.5,-56.2455C2426.5,-48.9382 2426.5,-38.6944 2426.5,-29.7046"/>
<polygon fill="#191970" stroke="#191970" points="2430.0001,-29.6426 2426.5,-19.6427 2423.0001,-29.6427 2430.0001,-29.6426"/>
</g>
<!-- Node13 -->
<g id="node14" class="node">
<title>Node13</title>
<polygon fill="none" stroke="#bfbfbf" points="2467.5,-.5 2467.5,-19.5 2513.5,-19.5 2513.5,-.5 2467.5,-.5"/>
<text text-anchor="middle" x="2490.5" y="-7.5" font-family="Helvetica,sans-Serif" font-size="10.00" fill="#000000">cstdio</text>
</g>
<!-- Node10&#45;&gt;Node13 -->
<g id="edge16" class="edge">
<title>Node10&#45;&gt;Node13</title>
<path fill="none" stroke="#191970" d="M2437.6479,-56.2455C2447.0087,-48.0549 2460.5858,-36.1749 2471.6349,-26.5069"/>
<polygon fill="#191970" stroke="#191970" points="2474.2588,-28.8618 2479.4798,-19.6427 2469.6492,-23.5937 2474.2588,-28.8618"/>
</g>
<!-- Node15&#45;&gt;Node10 -->
<g id="edge19" class="edge">
<title>Node15&#45;&gt;Node10</title>
<path fill="none" stroke="#191970" d="M2401.7256,-112.2455C2405.8123,-104.617 2411.6135,-93.7881 2416.575,-84.5267"/>
<polygon fill="#191970" stroke="#191970" points="2419.6972,-86.1103 2421.3343,-75.6427 2413.5268,-82.8047 2419.6972,-86.1103"/>
</g>
<!-- Node15&#45;&gt;Node16 -->
<g id="edge20" class="edge">
<title>Node15&#45;&gt;Node16</title>
<path fill="none" stroke="#191970" d="M2419.3635,-112.3733C2440.905,-103.3032 2473.3838,-89.6279 2497.4956,-79.4755"/>
<polygon fill="#191970" stroke="#191970" points="2499.0767,-82.6075 2506.9348,-75.5011 2496.3603,-76.156 2499.0767,-82.6075"/>
</g>
<!-- Node19 -->
<g id="node20" class="node">
<title>Node19</title>
<polygon fill="none" stroke="#bfbfbf" points="529,-56.5 529,-75.5 598,-75.5 598,-56.5 529,-56.5"/>
<text text-anchor="middle" x="563.5" y="-63.5" font-family="Helvetica,sans-Serif" font-size="10.00" fill="#000000">type_traits</text>
</g>
<!-- Node18&#45;&gt;Node19 -->
<g id="edge23" class="edge">
<title>Node18&#45;&gt;Node19</title>
<path fill="none" stroke="#191970" d="M676.9489,-112.3733C654.6609,-103.2629 621.0063,-89.5062 596.1363,-79.3404"/>
<polygon fill="#191970" stroke="#191970" points="597.3247,-76.0451 586.7438,-75.5011 594.6761,-82.5247 597.3247,-76.0451"/>
</g>
<!-- Node20&#45;&gt;Node3 -->
<g id="edge40" class="edge">
<title>Node20&#45;&gt;Node3</title>
<path fill="none" stroke="#191970" d="M1508.7198,-115.4316C1493.1732,-114.1481 1476.7893,-112.9176 1461.5,-112 1009.5859,-84.877 895.5008,-101.6368 443.5,-76 410.8359,-74.1473 373.5504,-71.1318 347.6804,-68.8959"/>
<polygon fill="#191970" stroke="#191970" points="347.9465,-65.4059 337.6795,-68.0212 347.3365,-72.3793 347.9465,-65.4059"/>
</g>
<!-- Node20&#45;&gt;Node6 -->
<g id="edge41" class="edge">
<title>Node20&#45;&gt;Node6</title>
<path fill="none" stroke="#191970" d="M1508.7178,-115.4649C1493.1713,-114.1794 1476.788,-112.9397 1461.5,-112 1047.1259,-86.5291 936.437,-135.5164 520.9365,-75.6913"/>
<polygon fill="#191970" stroke="#191970" points="521.151,-72.1858 510.7517,-74.212 520.1447,-79.1131 521.151,-72.1858"/>
</g>
<!-- Node20&#45;&gt;Node10 -->
<g id="edge27" class="edge">
<title>Node20&#45;&gt;Node10</title>
<path fill="none" stroke="#191970" d="M1650.1132,-118.8119C1812.4704,-111.3319 2209.5709,-92.1463 2363.739,-76.0697"/>
<polygon fill="#191970" stroke="#191970" points="2364.4079,-79.5179 2373.9754,-74.9666 2363.6579,-72.5582 2364.4079,-79.5179"/>
</g>
<!-- Node20&#45;&gt;Node14 -->
<g id="edge28" class="edge">
<title>Node20&#45;&gt;Node14</title>
<path fill="none" stroke="#191970" d="M1650.0057,-115.5693C1738.6275,-107.354 1895.6827,-92.3579 2040.349,-76.1068"/>
<polygon fill="#191970" stroke="#191970" points="2040.7556,-79.5832 2050.3004,-74.9847 2039.9712,-72.6273 2040.7556,-79.5832"/>
</g>
<!-- Node20&#45;&gt;Node17 -->
<g id="edge26" class="edge">
<title>Node20&#45;&gt;Node17</title>
<path fill="none" stroke="#191970" d="M1508.7062,-115.6419C1493.1605,-114.3459 1476.7803,-113.0571 1461.5,-112 1166.907,-91.6195 1089.8948,-99.952 791.0084,-75.9931"/>
<polygon fill="#191970" stroke="#191970" points="790.9868,-72.48 780.7376,-75.1641 790.4236,-79.4573 790.9868,-72.48"/>
</g>
<!-- Node21 -->
<g id="node22" class="node">
<title>Node21</title>
<g id="a_node22"><a xlink:href="../../dd/dc2/BasicOps_8h.html" target="_top" xlink:title="Framework/BasicOps.h">
<polygon fill="none" stroke="#000000" points="1427.5,-56.5 1427.5,-75.5 1555.5,-75.5 1555.5,-56.5 1427.5,-56.5"/>
<text text-anchor="middle" x="1491.5" y="-63.5" font-family="Helvetica,sans-Serif" font-size="10.00" fill="#000000">Framework/BasicOps.h</text>
</a>
</g>
</g>
<!-- Node20&#45;&gt;Node21 -->
<g id="edge25" class="edge">
<title>Node20&#45;&gt;Node21</title>
<path fill="none" stroke="#191970" d="M1564.1716,-112.2455C1550.6697,-103.6534 1530.7878,-91.0014 1515.2314,-81.1018"/>
<polygon fill="#191970" stroke="#191970" points="1516.9685,-78.0587 1506.6528,-75.6427 1513.2103,-83.9643 1516.9685,-78.0587"/>
</g>
<!-- Node22 -->
<g id="node23" class="node">
<title>Node22</title>
<polygon fill="none" stroke="#bfbfbf" points="1931,-56.5 1931,-75.5 2032,-75.5 2032,-56.5 1931,-56.5"/>
<text text-anchor="middle" x="1981.5" y="-63.5" font-family="Helvetica,sans-Serif" font-size="10.00" fill="#000000">arrow/type_fwd.h</text>
</g>
<!-- Node20&#45;&gt;Node22 -->
<g id="edge29" class="edge">
<title>Node20&#45;&gt;Node22</title>
<path fill="none" stroke="#191970" d="M1650.2198,-113.2412C1717.4057,-104.7545 1821.5219,-91.1754 1921.0609,-76.1819"/>
<polygon fill="#191970" stroke="#191970" points="1921.6243,-79.6365 1930.988,-74.6794 1920.5768,-72.7153 1921.6243,-79.6365"/>
</g>
<!-- Node23 -->
<g id="node24" class="node">
<title>Node23</title>
<polygon fill="none" stroke="#bfbfbf" points="1573.5,-56.5 1573.5,-75.5 1719.5,-75.5 1719.5,-56.5 1573.5,-56.5"/>
<text text-anchor="middle" x="1646.5" y="-63.5" font-family="Helvetica,sans-Serif" font-size="10.00" fill="#000000">gandiva/gandiva_aliases.h</text>
</g>
<!-- Node20&#45;&gt;Node23 -->
<g id="edge30" class="edge">
<title>Node20&#45;&gt;Node23</title>
<path fill="none" stroke="#191970" d="M1591.1705,-112.2455C1601.0661,-103.9746 1615.4627,-91.9416 1627.0901,-82.2232"/>
<polygon fill="#191970" stroke="#191970" points="1629.535,-84.7413 1634.9632,-75.6427 1625.0458,-79.3703 1629.535,-84.7413"/>
</g>
<!-- Node24 -->
<g id="node25" class="node">
<title>Node24</title>
<polygon fill="none" stroke="#bfbfbf" points="1737.5,-56.5 1737.5,-75.5 1815.5,-75.5 1815.5,-56.5 1737.5,-56.5"/>
<text text-anchor="middle" x="1776.5" y="-63.5" font-family="Helvetica,sans-Serif" font-size="10.00" fill="#000000">arrow/type.h</text>
</g>
<!-- Node20&#45;&gt;Node24 -->
<g id="edge31" class="edge">
<title>Node20&#45;&gt;Node24</title>
<path fill="none" stroke="#191970" d="M1613.3655,-112.3733C1646.549,-102.9404 1697.255,-88.5265 1733.3194,-78.2747"/>
<polygon fill="#191970" stroke="#191970" points="1734.4145,-81.6021 1743.0764,-75.5011 1732.5005,-74.8689 1734.4145,-81.6021"/>
</g>
<!-- Node25 -->
<g id="node26" class="node">
<title>Node25</title>
<polygon fill="none" stroke="#bfbfbf" points="898,-56.5 898,-75.5 993,-75.5 993,-56.5 898,-56.5"/>
<text text-anchor="middle" x="945.5" y="-63.5" font-family="Helvetica,sans-Serif" font-size="10.00" fill="#000000">gandiva/arrow.h</text>
</g>
<!-- Node20&#45;&gt;Node25 -->
<g id="edge32" class="edge">
<title>Node20&#45;&gt;Node25</title>
<path fill="none" stroke="#191970" d="M1508.5637,-113.4177C1503.8067,-112.9153 1499.0854,-112.4373 1494.5,-112 1279.5427,-91.5012 1221.8223,-102.6279 1003.2262,-75.964"/>
<polygon fill="#191970" stroke="#191970" points="1003.3851,-72.4571 993.032,-74.7075 1002.5287,-79.4046 1003.3851,-72.4571"/>
</g>
<!-- Node20&#45;&gt;Node26 -->
<g id="edge33" class="edge">
<title>Node20&#45;&gt;Node26</title>
<path fill="none" stroke="#191970" d="M1508.5704,-113.3454C1503.8117,-112.8604 1499.0883,-112.4061 1494.5,-112 1229.4596,-88.5436 1158.3739,-109.9592 890.1179,-75.8918"/>
<polygon fill="#191970" stroke="#191970" points="890.4459,-72.4053 880.0816,-74.6032 889.5544,-79.3483 890.4459,-72.4053"/>
</g>
<!-- Node20&#45;&gt;Node27 -->
<g id="edge34" class="edge">
<title>Node20&#45;&gt;Node27</title>
<path fill="none" stroke="#191970" d="M1650.2561,-117.8094C1763.6204,-110.8612 1993.2079,-95.8293 2198.6778,-76.0392"/>
<polygon fill="#191970" stroke="#191970" points="2199.137,-79.5112 2208.7529,-75.0631 2198.4619,-72.5438 2199.137,-79.5112"/>
</g>
<!-- Node28 -->
<g id="node29" class="node">
<title>Node28</title>
<polygon fill="none" stroke="#bfbfbf" points="1011.5,-56.5 1011.5,-75.5 1103.5,-75.5 1103.5,-56.5 1011.5,-56.5"/>
<text text-anchor="middle" x="1057.5" y="-63.5" font-family="Helvetica,sans-Serif" font-size="10.00" fill="#000000">gandiva/node.h</text>
</g>
<!-- Node20&#45;&gt;Node28 -->
<g id="edge35" class="edge">
<title>Node20&#45;&gt;Node28</title>
<path fill="none" stroke="#191970" d="M1508.5524,-113.5302C1503.7981,-113.0005 1499.0805,-112.4858 1494.5,-112 1325.361,-94.0622 1282.0295,-98.9694 1113.5,-76 1113.3991,-75.9862 1113.2981,-75.9724 1113.197,-75.9586"/>
<polygon fill="#191970" stroke="#191970" points="1114.001,-72.5394 1103.5972,-74.5424 1112.9793,-79.4644 1114.001,-72.5394"/>
</g>
<!-- Node29 -->
<g id="node30" class="node">
<title>Node29</title>
<polygon fill="none" stroke="#bfbfbf" points="1122,-56.5 1122,-75.5 1211,-75.5 1211,-56.5 1122,-56.5"/>
<text text-anchor="middle" x="1166.5" y="-63.5" font-family="Helvetica,sans-Serif" font-size="10.00" fill="#000000">gandiva/filter.h</text>
</g>
<!-- Node20&#45;&gt;Node29 -->
<g id="edge36" class="edge">
<title>Node20&#45;&gt;Node29</title>
<path fill="none" stroke="#191970" d="M1508.8394,-113.4204C1425.0129,-103.1634 1289.1209,-86.2689 1221.5037,-76.0648"/>
<polygon fill="#191970" stroke="#191970" points="1221.6725,-72.5496 1211.2562,-74.4865 1220.6069,-79.468 1221.6725,-72.5496"/>
</g>
<!-- Node30 -->
<g id="node31" class="node">
<title>Node30</title>
<polygon fill="none" stroke="#bfbfbf" points="1229.5,-56.5 1229.5,-75.5 1339.5,-75.5 1339.5,-56.5 1229.5,-56.5"/>
<text text-anchor="middle" x="1284.5" y="-63.5" font-family="Helvetica,sans-Serif" font-size="10.00" fill="#000000">gandiva/projector.h</text>
</g>
<!-- Node20&#45;&gt;Node30 -->
<g id="edge37" class="edge">
<title>Node20&#45;&gt;Node30</title>
<path fill="none" stroke="#191970" d="M1529.1229,-112.4369C1477.9995,-102.7321 1398.8545,-87.708 1344.5147,-77.3926"/>
<polygon fill="#191970" stroke="#191970" points="1345.1467,-73.9502 1334.6693,-75.5237 1343.8411,-80.8273 1345.1467,-73.9502"/>
</g>
<!-- Node20&#45;&gt;Node31 -->
<g id="edge38" class="edge">
<title>Node20&#45;&gt;Node31</title>
<path fill="none" stroke="#191970" d="M1631.6405,-112.4559C1679.0413,-103.7239 1751.1916,-90.2948 1823.6993,-76.1337"/>
<polygon fill="#191970" stroke="#191970" points="1824.7889,-79.4869 1833.9303,-74.131 1823.4442,-72.6172 1824.7889,-79.4869"/>
</g>
<!-- Node32 -->
<g id="node33" class="node">
<title>Node32</title>
<polygon fill="none" stroke="#bfbfbf" points="1358,-56.5 1358,-75.5 1409,-75.5 1409,-56.5 1358,-56.5"/>
<text text-anchor="middle" x="1383.5" y="-63.5" font-family="Helvetica,sans-Serif" font-size="10.00" fill="#000000">variant</text>
</g>
<!-- Node20&#45;&gt;Node32 -->
<g id="edge39" class="edge">
<title>Node20&#45;&gt;Node32</title>
<path fill="none" stroke="#191970" d="M1545.8064,-112.3733C1510.3902,-102.2543 1454.9126,-86.4036 1418.8762,-76.1075"/>
<polygon fill="#191970" stroke="#191970" points="1419.8373,-72.7421 1409.2605,-73.3601 1417.9142,-79.4728 1419.8373,-72.7421"/>
</g>
<!-- Node33&#45;&gt;Node22 -->
<g id="edge43" class="edge">
<title>Node33&#45;&gt;Node22</title>
<path fill="none" stroke="#191970" d="M1936.9061,-112.2455C1944.6493,-104.2155 1955.812,-92.6394 1965.0318,-83.0781"/>
<polygon fill="#191970" stroke="#191970" points="1967.7798,-85.2706 1972.2017,-75.6427 1962.7409,-80.4117 1967.7798,-85.2706"/>
</g>
<!-- Node38&#45;&gt;Node18 -->
<g id="edge52" class="edge">
<title>Node38&#45;&gt;Node18</title>
<path fill="none" stroke="#191970" d="M721.1453,-168.2455C717.7756,-160.6973 713.007,-150.0158 708.9017,-140.8197"/>
<polygon fill="#191970" stroke="#191970" points="712.0773,-139.3473 704.8048,-131.6427 705.6853,-142.2009 712.0773,-139.3473"/>
</g>
<!-- Node38&#45;&gt;Node19 -->
<g id="edge54" class="edge">
<title>Node38&#45;&gt;Node19</title>
<path fill="none" stroke="#191970" d="M703.6716,-168.4359C685.3258,-159.9723 658.769,-146.7073 637.5,-132 616.2347,-117.2953 594.4514,-97.1282 580.077,-82.9691"/>
<polygon fill="#191970" stroke="#191970" points="582.4491,-80.3914 572.9038,-75.7938 577.4986,-85.3405 582.4491,-80.3914"/>
</g>
<!-- Node38&#45;&gt;Node39 -->
<g id="edge53" class="edge">
<title>Node38&#45;&gt;Node39</title>
<path fill="none" stroke="#191970" d="M698.5107,-168.3733C670.7478,-158.4706 627.5947,-143.0784 598.7085,-132.775"/>
<polygon fill="#191970" stroke="#191970" points="599.7293,-129.4232 589.1347,-129.3601 597.3776,-136.0163 599.7293,-129.4232"/>
</g>
<!-- Node40&#45;&gt;Node17 -->
<g id="edge57" class="edge">
<title>Node40&#45;&gt;Node17</title>
<path fill="none" stroke="#191970" d="M824.3703,-112.3733C799.4232,-103.1822 761.6408,-89.2624 733.9794,-79.0713"/>
<polygon fill="#191970" stroke="#191970" points="734.8822,-75.674 724.2888,-75.5011 732.4622,-82.2424 734.8822,-75.674"/>
</g>
<!-- Node45&#45;&gt;Node6 -->
<g id="edge69" class="edge">
<title>Node45&#45;&gt;Node6</title>
<path fill="none" stroke="#191970" d="M478.5235,-224.2032C473.3888,-215.1737 466.3729,-201.2108 463.5,-188 455.6882,-152.0782 466.4529,-109.4602 474.3892,-85.2882"/>
<polygon fill="#191970" stroke="#191970" points="477.7894,-86.1653 477.7596,-75.5705 471.1759,-83.8715 477.7894,-86.1653"/>
</g>
</g>
</svg>
        <g id="navigator" transform="translate(0 0)" fill="#404254">
                <rect fill="#f2f5e9" fill-opacity="0.5" stroke="#606060" stroke-width=".5" x="0" y="0" width="60" height="60"/>
                <use id="zoomplus" xlink:href="#zoomPlus" x="17" y="9" onmousedown="handleZoom(evt,'in')"/>
                <use id="zoomminus" xlink:href="#zoomMin" x="42" y="9" onmousedown="handleZoom(evt,'out')"/>
                <use id="reset" xlink:href="#resetDef" x="30" y="36" onmousedown="handleReset()"/>
                <g id="arrowUp" xlink:href="#dirArrow" transform="translate(30 24)" onmousedown="handlePan(0,-1)">
                  <use xlink:href="#rim" fill="#404040">
                        <set attributeName="fill" to="#808080" begin="arrowUp.mouseover" end="arrowUp.mouseout"/>
                  </use>
                  <path fill="none" stroke="white" stroke-width="1.5" d="M0,-3.0v7 M-2.5,-0.5L0,-3.0L2.5,-0.5"/>
                </g>
                <g id="arrowRight" xlink:href="#dirArrow" transform="rotate(90) translate(36 -43)" onmousedown="handlePan(1,0)">
                  <use xlink:href="#rim" fill="#404040">
                        <set attributeName="fill" to="#808080" begin="arrowRight.mouseover" end="arrowRight.mouseout"/>
                  </use>
                  <path fill="none" stroke="white" stroke-width="1.5" d="M0,-3.0v7 M-2.5,-0.5L0,-3.0L2.5,-0.5"/>
                </g>
                <g id="arrowDown" xlink:href="#dirArrow" transform="rotate(180) translate(-30 -48)" onmousedown="handlePan(0,1)">
                  <use xlink:href="#rim" fill="#404040">
                        <set attributeName="fill" to="#808080" begin="arrowDown.mouseover" end="arrowDown.mouseout"/>
                  </use>
                  <path fill="none" stroke="white" stroke-width="1.5" d="M0,-3.0v7 M-2.5,-0.5L0,-3.0L2.5,-0.5"/>
                </g>
                <g id="arrowLeft" xlink:href="#dirArrow" transform="rotate(270) translate(-36 17)" onmousedown="handlePan(-1,0)">
                  <use xlink:href="#rim" fill="#404040">
                        <set attributeName="fill" to="#808080" begin="arrowLeft.mouseover" end="arrowLeft.mouseout"/>
                  </use>
                  <path fill="none" stroke="white" stroke-width="1.5" d="M0,-3.0v7 M-2.5,-0.5L0,-3.0L2.5,-0.5"/>
                </g>
        </g>
        <svg viewBox="0 0 15 15" width="100%" height="30px" preserveAspectRatio="xMaxYMin meet">
         <g id="arrow_out" transform="scale(0.3 0.3)">
          <a xlink:href="AnalysisHelpers_8cxx__incl_org.svg" target="_base">
           <rect id="button" ry="5" rx="5" y="6" x="6" height="38" width="38"
                fill="#f2f5e9" fill-opacity="0.5" stroke="#606060" stroke-width="1.0"/>
           <path id="arrow"
             d="M 11.500037,31.436501 C 11.940474,20.09759 22.043105,11.32322 32.158766,21.979434 L 37.068811,17.246167 C 37.068811,17.246167 37.088388,32 37.088388,32 L 22.160133,31.978069 C 22.160133,31.978069 26.997745,27.140456 26.997745,27.140456 C 18.528582,18.264221 13.291696,25.230495 11.500037,31.436501 z"
             style="fill:#404040;"/>
          </a>
         </g>
        </svg>
</svg>
