<?xml version="1.0" encoding="UTF-8" standalone="no"?>
<!DOCTYPE svg PUBLIC "-//W3C//DTD SVG 1.1//EN"
 "http://www.w3.org/Graphics/SVG/1.1/DTD/svg11.dtd">
<!-- Generated by graphviz version 2.40.1 (20161225.0304)
 -->
<!-- Title: /home/travis/build/AliceO2Group/AliceO2/GPU/GPUTracking/TPCClusterFinder/GPUTPCCFChainContext.h Pages: 1 -->
<svg width="921pt" height="453pt"
 viewBox="0.00 0.00 921.00 453.00" xmlns="http://www.w3.org/2000/svg" xmlns:xlink="http://www.w3.org/1999/xlink">
<g id="graph0" class="graph" transform="scale(1 1) rotate(0) translate(4 449)">
<title>/home/travis/build/AliceO2Group/AliceO2/GPU/GPUTracking/TPCClusterFinder/GPUTPCCFChainContext.h</title>
<!-- Node0 -->
<g id="node1" class="node">
<title>Node0</title>
<polygon fill="#bfbfbf" stroke="#000000" points="633,-392.5 633,-444.5 824,-444.5 824,-392.5 633,-392.5"/>
<text text-anchor="start" x="641" y="-432.5" font-family="Helvetica,sans-Serif" font-size="10.00" fill="#000000">/home/travis/build</text>
<text text-anchor="start" x="641" y="-421.5" font-family="Helvetica,sans-Serif" font-size="10.00" fill="#000000">/AliceO2Group/AliceO2</text>
<text text-anchor="start" x="641" y="-410.5" font-family="Helvetica,sans-Serif" font-size="10.00" fill="#000000">/GPU/GPUTracking/TPCClusterFinder</text>
<text text-anchor="middle" x="728.5" y="-399.5" font-family="Helvetica,sans-Serif" font-size="10.00" fill="#000000">/GPUTPCCFChainContext.h</text>
</g>
<!-- Node1 -->
<g id="node2" class="node">
<title>Node1</title>
<g id="a_node2"><a xlink:href="../../d9/db0/clusterFinderDefs_8h.html" target="_top" xlink:title="clusterFinderDefs.h">
<polygon fill="none" stroke="#000000" points="490.5,-224.5 490.5,-243.5 600.5,-243.5 600.5,-224.5 490.5,-224.5"/>
<text text-anchor="middle" x="545.5" y="-231.5" font-family="Helvetica,sans-Serif" font-size="10.00" fill="#000000">clusterFinderDefs.h</text>
</a>
</g>
</g>
<!-- Node0&#45;&gt;Node1 -->
<g id="edge1" class="edge">
<title>Node0&#45;&gt;Node1</title>
<path fill="none" stroke="#191970" d="M661.2088,-392.3447C642.8511,-382.9048 624.0385,-370.8317 609.5,-356 583.0642,-329.0311 589.2414,-313.3379 571.5,-280 566.6679,-270.9199 561.0809,-260.9694 556.3273,-252.6528"/>
<polygon fill="#191970" stroke="#191970" points="559.2477,-250.7105 551.2249,-243.7905 553.1812,-254.2032 559.2477,-250.7105"/>
</g>
<!-- Node12 -->
<g id="node13" class="node">
<title>Node12</title>
<g id="a_node13"><a xlink:href="../../d4/dc5/GPUDataTypes_8h.html" target="_top" xlink:title="GPUDataTypes.h">
<polygon fill="none" stroke="#000000" points="727.5,-280.5 727.5,-299.5 825.5,-299.5 825.5,-280.5 727.5,-280.5"/>
<text text-anchor="middle" x="776.5" y="-287.5" font-family="Helvetica,sans-Serif" font-size="10.00" fill="#000000">GPUDataTypes.h</text>
</a>
</g>
</g>
<!-- Node0&#45;&gt;Node12 -->
<g id="edge13" class="edge">
<title>Node0&#45;&gt;Node12</title>
<path fill="none" stroke="#191970" d="M740.5191,-392.2798C745.4217,-381.1891 750.9865,-368.0672 755.5,-356 761.2921,-340.5143 766.9204,-322.6235 770.89,-309.3786"/>
<polygon fill="#191970" stroke="#191970" points="774.3315,-310.082 773.8014,-299.5005 767.617,-308.103 774.3315,-310.082"/>
</g>
<!-- Node14 -->
<g id="node15" class="node">
<title>Node14</title>
<g id="a_node15"><a xlink:href="../../d6/d4b/GPUTPCClusterFinder_8h.html" target="_top" xlink:title="GPUTPCClusterFinder.h">
<polygon fill="none" stroke="#000000" points="618.5,-336.5 618.5,-355.5 746.5,-355.5 746.5,-336.5 618.5,-336.5"/>
<text text-anchor="middle" x="682.5" y="-343.5" font-family="Helvetica,sans-Serif" font-size="10.00" fill="#000000">GPUTPCClusterFinder.h</text>
</a>
</g>
</g>
<!-- Node0&#45;&gt;Node14 -->
<g id="edge16" class="edge">
<title>Node0&#45;&gt;Node14</title>
<path fill="none" stroke="#191970" d="M711.8929,-392.3258C705.9844,-383.0135 699.4645,-372.7375 694.0696,-364.2347"/>
<polygon fill="#191970" stroke="#191970" points="696.862,-362.1027 688.5492,-355.534 690.9513,-365.8529 696.862,-362.1027"/>
</g>
<!-- Node17 -->
<g id="node18" class="node">
<title>Node17</title>
<g id="a_node18"><a xlink:href="../../d8/dcc/CfFragment_8h.html" target="_top" xlink:title="CfFragment.h">
<polygon fill="none" stroke="#000000" points="480.5,-280.5 480.5,-299.5 562.5,-299.5 562.5,-280.5 480.5,-280.5"/>
<text text-anchor="middle" x="521.5" y="-287.5" font-family="Helvetica,sans-Serif" font-size="10.00" fill="#000000">CfFragment.h</text>
</a>
</g>
</g>
<!-- Node0&#45;&gt;Node17 -->
<g id="edge30" class="edge">
<title>Node0&#45;&gt;Node17</title>
<path fill="none" stroke="#191970" d="M644.5829,-392.4309C621.3057,-383.0193 596.8578,-370.9396 576.5,-356 558.7445,-342.9701 543.1738,-323.0143 533.1745,-308.4568"/>
<polygon fill="#191970" stroke="#191970" points="535.88,-306.2031 527.4411,-299.7971 530.0433,-310.0674 535.88,-306.2031"/>
</g>
<!-- Node20 -->
<g id="node21" class="node">
<title>Node20</title>
<polygon fill="none" stroke="#bfbfbf" points="803,-336.5 803,-355.5 850,-355.5 850,-336.5 803,-336.5"/>
<text text-anchor="middle" x="826.5" y="-343.5" font-family="Helvetica,sans-Serif" font-size="10.00" fill="#000000">vector</text>
</g>
<!-- Node0&#45;&gt;Node20 -->
<g id="edge31" class="edge">
<title>Node0&#45;&gt;Node20</title>
<path fill="none" stroke="#191970" d="M763.8802,-392.3258C777.8215,-382.0122 793.3605,-370.5165 805.4716,-361.5567"/>
<polygon fill="#191970" stroke="#191970" points="807.655,-364.2951 813.6127,-355.534 803.4918,-358.6677 807.655,-364.2951"/>
</g>
<!-- Node21 -->
<g id="node22" class="node">
<title>Node21</title>
<polygon fill="none" stroke="#bfbfbf" points="868,-336.5 868,-355.5 913,-355.5 913,-336.5 868,-336.5"/>
<text text-anchor="middle" x="890.5" y="-343.5" font-family="Helvetica,sans-Serif" font-size="10.00" fill="#000000">utility</text>
</g>
<!-- Node0&#45;&gt;Node21 -->
<g id="edge32" class="edge">
<title>Node0&#45;&gt;Node21</title>
<path fill="none" stroke="#191970" d="M786.9857,-392.3258C811.7095,-381.2612 839.4732,-368.8361 860.0188,-359.6413"/>
<polygon fill="#191970" stroke="#191970" points="861.4985,-362.8136 869.1964,-355.534 858.6391,-356.4243 861.4985,-362.8136"/>
</g>
<!-- Node2 -->
<g id="node3" class="node">
<title>Node2</title>
<g id="a_node3"><a xlink:href="../../d2/d6d/GPUDef_8h.html" target="_top" xlink:title="GPUDef.h">
<polygon fill="none" stroke="#000000" points="545,-168.5 545,-187.5 608,-187.5 608,-168.5 545,-168.5"/>
<text text-anchor="middle" x="576.5" y="-175.5" font-family="Helvetica,sans-Serif" font-size="10.00" fill="#000000">GPUDef.h</text>
</a>
</g>
</g>
<!-- Node1&#45;&gt;Node2 -->
<g id="edge2" class="edge">
<title>Node1&#45;&gt;Node2</title>
<path fill="none" stroke="#191970" d="M550.8998,-224.2455C555.1227,-216.617 561.1173,-205.7881 566.2441,-196.5267"/>
<polygon fill="#191970" stroke="#191970" points="569.381,-198.0867 571.1621,-187.6427 563.2568,-194.6965 569.381,-198.0867"/>
</g>
<!-- Node3 -->
<g id="node4" class="node">
<title>Node3</title>
<g id="a_node4"><a xlink:href="../../df/d21/GPUCommonDef_8h.html" target="_top" xlink:title="GPUCommonDef.h">
<polygon fill="none" stroke="#000000" points="668,-56.5 668,-75.5 775,-75.5 775,-56.5 668,-56.5"/>
<text text-anchor="middle" x="721.5" y="-63.5" font-family="Helvetica,sans-Serif" font-size="10.00" fill="#000000">GPUCommonDef.h</text>
</a>
</g>
</g>
<!-- Node2&#45;&gt;Node3 -->
<g id="edge3" class="edge">
<title>Node2&#45;&gt;Node3</title>
<path fill="none" stroke="#191970" d="M608.0908,-174.5424C636.6198,-169.7652 677.8029,-158.4826 702.5,-132 714.0503,-119.6147 718.6326,-100.6566 720.4234,-86.2315"/>
<polygon fill="#191970" stroke="#191970" points="723.9472,-86.116 721.3409,-75.8467 716.9744,-85.4999 723.9472,-86.116"/>
</g>
<!-- Node6 -->
<g id="node7" class="node">
<title>Node6</title>
<g id="a_node7"><a xlink:href="../../d2/d37/GPUDefConstantsAndSettings_8h.html" target="_top" xlink:title="GPUDefConstantsAndSettings.h">
<polygon fill="none" stroke="#000000" points="522,-112.5 522,-131.5 693,-131.5 693,-112.5 522,-112.5"/>
<text text-anchor="middle" x="607.5" y="-119.5" font-family="Helvetica,sans-Serif" font-size="10.00" fill="#000000">GPUDefConstantsAndSettings.h</text>
</a>
</g>
</g>
<!-- Node2&#45;&gt;Node6 -->
<g id="edge6" class="edge">
<title>Node2&#45;&gt;Node6</title>
<path fill="none" stroke="#191970" d="M581.8998,-168.2455C586.1227,-160.617 592.1173,-149.7881 597.2441,-140.5267"/>
<polygon fill="#191970" stroke="#191970" points="600.381,-142.0867 602.1621,-131.6427 594.2568,-138.6965 600.381,-142.0867"/>
</g>
<!-- Node7 -->
<g id="node8" class="node">
<title>Node7</title>
<g id="a_node8"><a xlink:href="../../dc/de9/GPUDefGPUParameters_8h.html" target="_top" xlink:title="GPUDefGPUParameters.h">
<polygon fill="none" stroke="#000000" points="181.5,-112.5 181.5,-131.5 321.5,-131.5 321.5,-112.5 181.5,-112.5"/>
<text text-anchor="middle" x="251.5" y="-119.5" font-family="Helvetica,sans-Serif" font-size="10.00" fill="#000000">GPUDefGPUParameters.h</text>
</a>
</g>
</g>
<!-- Node2&#45;&gt;Node7 -->
<g id="edge8" class="edge">
<title>Node2&#45;&gt;Node7</title>
<path fill="none" stroke="#191970" d="M544.7459,-172.5285C492.1482,-163.4655 385.9018,-145.1585 316.7757,-133.2475"/>
<polygon fill="#191970" stroke="#191970" points="317.3061,-129.7874 306.8569,-131.5384 316.1174,-136.6857 317.3061,-129.7874"/>
</g>
<!-- Node9 -->
<g id="node10" class="node">
<title>Node9</title>
<g id="a_node10"><a xlink:href="../../d3/d4c/GPUDefOpenCL12Templates_8h.html" target="_top" xlink:title="GPUDefOpenCL12Templates.h">
<polygon fill="none" stroke="#000000" points="339.5,-112.5 339.5,-131.5 503.5,-131.5 503.5,-112.5 339.5,-112.5"/>
<text text-anchor="middle" x="421.5" y="-119.5" font-family="Helvetica,sans-Serif" font-size="10.00" fill="#000000">GPUDefOpenCL12Templates.h</text>
</a>
</g>
</g>
<!-- Node2&#45;&gt;Node9 -->
<g id="edge10" class="edge">
<title>Node2&#45;&gt;Node9</title>
<path fill="none" stroke="#191970" d="M549.8546,-168.3733C524.3036,-159.1419 485.5488,-145.1402 457.3091,-134.9375"/>
<polygon fill="#191970" stroke="#191970" points="458.3921,-131.6074 447.7978,-131.5011 456.0135,-138.1909 458.3921,-131.6074"/>
</g>
<!-- Node10 -->
<g id="node11" class="node">
<title>Node10</title>
<g id="a_node11"><a xlink:href="../../d2/d45/GPUCommonRtypes_8h.html" target="_top" xlink:title="GPUCommonRtypes.h">
<polygon fill="none" stroke="#000000" points="0,-112.5 0,-131.5 125,-131.5 125,-112.5 0,-112.5"/>
<text text-anchor="middle" x="62.5" y="-119.5" font-family="Helvetica,sans-Serif" font-size="10.00" fill="#000000">GPUCommonRtypes.h</text>
</a>
</g>
</g>
<!-- Node2&#45;&gt;Node10 -->
<g id="edge11" class="edge">
<title>Node2&#45;&gt;Node10</title>
<path fill="none" stroke="#191970" d="M544.972,-173.9814C529.991,-172.1042 511.829,-169.8752 495.5,-168 369.0233,-153.4757 221.5706,-138.1544 135.4706,-129.3699"/>
<polygon fill="#191970" stroke="#191970" points="135.5836,-125.8634 125.2803,-128.3315 134.8739,-132.8273 135.5836,-125.8634"/>
</g>
<!-- Node4 -->
<g id="node5" class="node">
<title>Node4</title>
<g id="a_node5"><a xlink:href="../../d5/d93/GPUCommonDefSettings_8h.html" target="_top" xlink:title="GPUCommonDefSettings.h">
<polygon fill="none" stroke="#000000" points="570.5,-.5 570.5,-19.5 718.5,-19.5 718.5,-.5 570.5,-.5"/>
<text text-anchor="middle" x="644.5" y="-7.5" font-family="Helvetica,sans-Serif" font-size="10.00" fill="#000000">GPUCommonDefSettings.h</text>
</a>
</g>
</g>
<!-- Node3&#45;&gt;Node4 -->
<g id="edge4" class="edge">
<title>Node3&#45;&gt;Node4</title>
<path fill="none" stroke="#191970" d="M708.0876,-56.2455C696.4943,-47.814 679.5252,-35.4729 666.0322,-25.6598"/>
<polygon fill="#191970" stroke="#191970" points="667.9047,-22.6938 657.7587,-19.6427 663.7874,-28.355 667.9047,-22.6938"/>
</g>
<!-- Node5 -->
<g id="node6" class="node">
<title>Node5</title>
<g id="a_node6"><a xlink:href="../../da/d5a/GPUCommonDefAPI_8h.html" target="_top" xlink:title="GPUCommonDefAPI.h">
<polygon fill="none" stroke="#000000" points="736.5,-.5 736.5,-19.5 860.5,-19.5 860.5,-.5 736.5,-.5"/>
<text text-anchor="middle" x="798.5" y="-7.5" font-family="Helvetica,sans-Serif" font-size="10.00" fill="#000000">GPUCommonDefAPI.h</text>
</a>
</g>
</g>
<!-- Node3&#45;&gt;Node5 -->
<g id="edge5" class="edge">
<title>Node3&#45;&gt;Node5</title>
<path fill="none" stroke="#191970" d="M734.9124,-56.2455C746.5057,-47.814 763.4748,-35.4729 776.9678,-25.6598"/>
<polygon fill="#191970" stroke="#191970" points="779.2126,-28.355 785.2413,-19.6427 775.0953,-22.6938 779.2126,-28.355"/>
</g>
<!-- Node6&#45;&gt;Node3 -->
<g id="edge7" class="edge">
<title>Node6&#45;&gt;Node3</title>
<path fill="none" stroke="#191970" d="M627.0973,-112.3733C645.2331,-103.4644 672.4135,-90.1127 692.9587,-80.0203"/>
<polygon fill="#191970" stroke="#191970" points="694.7261,-83.0517 702.1584,-75.5011 691.6397,-76.7688 694.7261,-83.0517"/>
</g>
<!-- Node8 -->
<g id="node9" class="node">
<title>Node8</title>
<g id="a_node9"><a xlink:href="../../d6/dff/GPUDefMacros_8h.html" target="_top" xlink:title="GPUDefMacros.h">
<polygon fill="none" stroke="#000000" points="202.5,-56.5 202.5,-75.5 300.5,-75.5 300.5,-56.5 202.5,-56.5"/>
<text text-anchor="middle" x="251.5" y="-63.5" font-family="Helvetica,sans-Serif" font-size="10.00" fill="#000000">GPUDefMacros.h</text>
</a>
</g>
</g>
<!-- Node7&#45;&gt;Node8 -->
<g id="edge9" class="edge">
<title>Node7&#45;&gt;Node8</title>
<path fill="none" stroke="#191970" d="M251.5,-112.2455C251.5,-104.9382 251.5,-94.6944 251.5,-85.7046"/>
<polygon fill="#191970" stroke="#191970" points="255.0001,-85.6426 251.5,-75.6427 248.0001,-85.6427 255.0001,-85.6426"/>
</g>
<!-- Node11 -->
<g id="node12" class="node">
<title>Node11</title>
<polygon fill="none" stroke="#bfbfbf" points="33,-56.5 33,-75.5 92,-75.5 92,-56.5 33,-56.5"/>
<text text-anchor="middle" x="62.5" y="-63.5" font-family="Helvetica,sans-Serif" font-size="10.00" fill="#000000">Rtypes.h</text>
</g>
<!-- Node10&#45;&gt;Node11 -->
<g id="edge12" class="edge">
<title>Node10&#45;&gt;Node11</title>
<path fill="none" stroke="#191970" d="M62.5,-112.2455C62.5,-104.9382 62.5,-94.6944 62.5,-85.7046"/>
<polygon fill="#191970" stroke="#191970" points="66.0001,-85.6426 62.5,-75.6427 59.0001,-85.6427 66.0001,-85.6426"/>
</g>
<!-- Node12&#45;&gt;Node3 -->
<g id="edge14" class="edge">
<title>Node12&#45;&gt;Node3</title>
<path fill="none" stroke="#191970" d="M783.9115,-280.3578C798.9589,-259.5402 830.3691,-208.958 814.5,-168 800.2977,-131.3439 766.1096,-99.783 743.3809,-81.8389"/>
<polygon fill="#191970" stroke="#191970" points="745.3636,-78.9487 735.2966,-75.6461 741.1068,-84.5057 745.3636,-78.9487"/>
</g>
<!-- Node13 -->
<g id="node14" class="node">
<title>Node13</title>
<polygon fill="none" stroke="#bfbfbf" points="752,-168.5 752,-187.5 805,-187.5 805,-168.5 752,-168.5"/>
<text text-anchor="middle" x="778.5" y="-175.5" font-family="Helvetica,sans-Serif" font-size="10.00" fill="#000000">cstddef</text>
</g>
<!-- Node12&#45;&gt;Node13 -->
<g id="edge15" class="edge">
<title>Node12&#45;&gt;Node13</title>
<path fill="none" stroke="#191970" d="M776.6705,-280.4509C776.9967,-262.184 777.7151,-221.9553 778.1483,-197.6976"/>
<polygon fill="#191970" stroke="#191970" points="781.6507,-197.5858 778.3299,-187.5249 774.6518,-197.4608 781.6507,-197.5858"/>
</g>
<!-- Node14&#45;&gt;Node2 -->
<g id="edge17" class="edge">
<title>Node14&#45;&gt;Node2</title>
<path fill="none" stroke="#191970" d="M677.0856,-336.3426C665.319,-315.4954 636.3139,-264.8591 609.5,-224 603.3222,-214.5862 596.0649,-204.3858 589.9315,-195.988"/>
<polygon fill="#191970" stroke="#191970" points="592.5745,-193.675 583.8214,-187.7055 586.9414,-197.8306 592.5745,-193.675"/>
</g>
<!-- Node14&#45;&gt;Node12 -->
<g id="edge23" class="edge">
<title>Node14&#45;&gt;Node12</title>
<path fill="none" stroke="#191970" d="M698.8736,-336.2455C713.4308,-327.5731 734.931,-314.7645 751.6152,-304.825"/>
<polygon fill="#191970" stroke="#191970" points="753.5144,-307.7676 760.3141,-299.6427 749.9317,-301.7539 753.5144,-307.7676"/>
</g>
<!-- Node15 -->
<g id="node16" class="node">
<title>Node15</title>
<g id="a_node16"><a xlink:href="../../d6/d57/GPUProcessor_8h.html" target="_top" xlink:title="GPUProcessor.h">
<polygon fill="none" stroke="#000000" points="657,-224.5 657,-243.5 750,-243.5 750,-224.5 657,-224.5"/>
<text text-anchor="middle" x="703.5" y="-231.5" font-family="Helvetica,sans-Serif" font-size="10.00" fill="#000000">GPUProcessor.h</text>
</a>
</g>
</g>
<!-- Node14&#45;&gt;Node15 -->
<g id="edge18" class="edge">
<title>Node14&#45;&gt;Node15</title>
<path fill="none" stroke="#191970" d="M684.2904,-336.4509C687.731,-318.1013 695.3267,-277.5908 699.8683,-253.3693"/>
<polygon fill="#191970" stroke="#191970" points="703.3112,-253.9986 701.7141,-243.5249 696.4311,-252.7086 703.3112,-253.9986"/>
</g>
<!-- Node14&#45;&gt;Node17 -->
<g id="edge24" class="edge">
<title>Node14&#45;&gt;Node17</title>
<path fill="none" stroke="#191970" d="M654.8231,-336.3733C628.1672,-327.1016 587.6762,-313.0178 558.3116,-302.804"/>
<polygon fill="#191970" stroke="#191970" points="559.4105,-299.4807 548.8157,-299.5011 557.1109,-306.0921 559.4105,-299.4807"/>
</g>
<!-- Node15&#45;&gt;Node2 -->
<g id="edge20" class="edge">
<title>Node15&#45;&gt;Node2</title>
<path fill="none" stroke="#191970" d="M681.6679,-224.3733C661.1897,-215.3435 630.3601,-201.7494 607.3681,-191.6111"/>
<polygon fill="#191970" stroke="#191970" points="608.6093,-188.3333 598.0472,-187.5011 605.785,-194.7383 608.6093,-188.3333"/>
</g>
<!-- Node15&#45;&gt;Node3 -->
<g id="edge19" class="edge">
<title>Node15&#45;&gt;Node3</title>
<path fill="none" stroke="#191970" d="M705.8126,-224.2292C709.9589,-206.1535 718.5042,-166.2146 721.5,-132 722.845,-116.6384 722.7759,-99.1883 722.4078,-86.0909"/>
<polygon fill="#191970" stroke="#191970" points="725.897,-85.7293 722.0353,-75.8634 718.9016,-85.9842 725.897,-85.7293"/>
</g>
<!-- Node15&#45;&gt;Node13 -->
<g id="edge21" class="edge">
<title>Node15&#45;&gt;Node13</title>
<path fill="none" stroke="#191970" d="M716.564,-224.2455C727.8562,-215.814 744.3845,-203.4729 757.5271,-193.6598"/>
<polygon fill="#191970" stroke="#191970" points="759.6669,-196.4301 765.5857,-187.6427 755.4789,-190.8211 759.6669,-196.4301"/>
</g>
<!-- Node16 -->
<g id="node17" class="node">
<title>Node16</title>
<polygon fill="none" stroke="#bfbfbf" points="422.5,-168.5 422.5,-187.5 486.5,-187.5 486.5,-168.5 422.5,-168.5"/>
<text text-anchor="middle" x="454.5" y="-175.5" font-family="Helvetica,sans-Serif" font-size="10.00" fill="#000000">algorithm</text>
</g>
<!-- Node15&#45;&gt;Node16 -->
<g id="edge22" class="edge">
<title>Node15&#45;&gt;Node16</title>
<path fill="none" stroke="#191970" d="M660.9783,-224.4369C615.0064,-214.0978 542.1894,-197.7213 496.4439,-187.4332"/>
<polygon fill="#191970" stroke="#191970" points="497.0769,-183.9882 486.5526,-185.2086 495.5409,-190.8176 497.0769,-183.9882"/>
</g>
<!-- Node17&#45;&gt;Node1 -->
<g id="edge25" class="edge">
<title>Node17&#45;&gt;Node1</title>
<path fill="none" stroke="#191970" d="M525.6805,-280.2455C528.881,-272.7776 533.396,-262.2427 537.3084,-253.1137"/>
<polygon fill="#191970" stroke="#191970" points="540.6452,-254.2129 541.3674,-243.6427 534.2112,-251.4554 540.6452,-254.2129"/>
</g>
<!-- Node18 -->
<g id="node19" class="node">
<title>Node18</title>
<g id="a_node19"><a xlink:href="../../d6/da2/GPUCommonMath_8h.html" target="_top" xlink:title="GPUCommonMath.h">
<polygon fill="none" stroke="#000000" points="227,-224.5 227,-243.5 342,-243.5 342,-224.5 227,-224.5"/>
<text text-anchor="middle" x="284.5" y="-231.5" font-family="Helvetica,sans-Serif" font-size="10.00" fill="#000000">GPUCommonMath.h</text>
</a>
</g>
</g>
<!-- Node17&#45;&gt;Node18 -->
<g id="edge26" class="edge">
<title>Node17&#45;&gt;Node18</title>
<path fill="none" stroke="#191970" d="M481.0275,-280.4369C440.552,-270.8731 378.2133,-256.1432 334.6297,-245.845"/>
<polygon fill="#191970" stroke="#191970" points="335.3424,-242.4171 324.8055,-243.5237 333.7327,-249.2295 335.3424,-242.4171"/>
</g>
<!-- Node18&#45;&gt;Node3 -->
<g id="edge27" class="edge">
<title>Node18&#45;&gt;Node3</title>
<path fill="none" stroke="#191970" d="M263.6052,-224.3471C221.5924,-203.7153 134.0591,-153.7965 172.5,-112 204.7615,-76.9223 519.5559,-68.5816 657.3991,-66.6078"/>
<polygon fill="#191970" stroke="#191970" points="657.8526,-70.102 667.8039,-66.4661 657.7572,-63.1027 657.8526,-70.102"/>
</g>
<!-- Node18&#45;&gt;Node16 -->
<g id="edge29" class="edge">
<title>Node18&#45;&gt;Node16</title>
<path fill="none" stroke="#191970" d="M313.724,-224.3733C341.9925,-215.0613 384.9965,-200.8953 416.0344,-190.671"/>
<polygon fill="#191970" stroke="#191970" points="417.2544,-193.9542 425.6573,-187.5011 415.0643,-187.3056 417.2544,-193.9542"/>
</g>
<!-- Node19 -->
<g id="node20" class="node">
<title>Node19</title>
<polygon fill="none" stroke="#bfbfbf" points="78,-168.5 78,-187.5 125,-187.5 125,-168.5 78,-168.5"/>
<text text-anchor="middle" x="101.5" y="-175.5" font-family="Helvetica,sans-Serif" font-size="10.00" fill="#000000">cmath</text>
</g>
<!-- Node18&#45;&gt;Node19 -->
<g id="edge28" class="edge">
<title>Node18&#45;&gt;Node19</title>
<path fill="none" stroke="#191970" d="M253.0412,-224.3733C220.164,-214.3125 168.7707,-198.5856 135.1117,-188.2855"/>
<polygon fill="#191970" stroke="#191970" points="135.8617,-184.8549 125.2752,-185.2755 133.8134,-191.5485 135.8617,-184.8549"/>
</g>
</g>
</svg>
