<?xml version="1.0" encoding="UTF-8" standalone="no"?>
<!DOCTYPE svg PUBLIC "-//W3C//DTD SVG 1.1//EN"
 "http://www.w3.org/Graphics/SVG/1.1/DTD/svg11.dtd">
<!-- Generated by graphviz version 2.40.1 (20161225.0304)
 -->
<!-- Title: TracksAndEventClassificationQA Pages: 1 -->
<!--zoomable 871 -->
<svg id="main" version="1.1" xmlns="http://www.w3.org/2000/svg" xmlns:xlink="http://www.w3.org/1999/xlink" xml:space="preserve" onload="init(evt)">
<style type="text/css"><![CDATA[
.edge:hover path { stroke: red; }
.edge:hover polygon { stroke: red; fill: red; }
]]></style>
<script type="text/javascript"><![CDATA[
var edges = document.getElementsByTagName('g');
if (edges && edges.length) {
  for (var i=0;i<edges.length;i++) {
    if (edges[i].id.substr(0,4)=='edge') {
      edges[i].setAttribute('class','edge');
    }
  }
}
]]></script>
        <defs>
                <circle id="rim" cx="0" cy="0" r="7"/>
                <circle id="rim2" cx="0" cy="0" r="3.5"/>
                <g id="zoomPlus">
                        <use xlink:href="#rim" fill="#404040">
                                <set attributeName="fill" to="#808080" begin="zoomplus.mouseover" end="zoomplus.mouseout"/>
                        </use>
                        <path d="M-4,0h8M0,-4v8" fill="none" stroke="white" stroke-width="1.5" pointer-events="none"/>
                </g>
                <g id="zoomMin">
                        <use xlink:href="#rim" fill="#404040">
                                <set attributeName="fill" to="#808080" begin="zoomminus.mouseover" end="zoomminus.mouseout"/>
                        </use>
                        <path d="M-4,0h8" fill="none" stroke="white" stroke-width="1.5" pointer-events="none"/>
                </g>
                <g id="dirArrow">
                        <path fill="none" stroke="white" stroke-width="1.5" d="M0,-3.0v7 M-2.5,-0.5L0,-3.0L2.5,-0.5"/>
                </g>
               <g id="resetDef">
                       <use xlink:href="#rim2" fill="#404040">
                               <set attributeName="fill" to="#808080" begin="reset.mouseover" end="reset.mouseout"/>
                       </use>
               </g>
        </defs>

<script type="text/javascript">
var viewWidth = 956;
var viewHeight = 871;
var sectionId = 'dynsection-0';
</script>
<script xlink:href="../../svgpan.js"/>
<svg id="graph" class="graph">
<g id="viewport">
<title>TracksAndEventClassificationQA</title>
<!-- Node1 -->
<g id="node1" class="node">
<title>Node1</title>
<polygon fill="#bfbfbf" stroke="#000000" points="497.5,-.5 497.5,-57.5 670.5,-57.5 670.5,-.5 497.5,-.5"/>
<text text-anchor="middle" x="584" y="-45.5" font-family="Helvetica,sans-Serif" font-size="10.00" fill="#000000">TracksAndEventClassificationQA</text>
<polyline fill="none" stroke="#000000" points="497.5,-38.5 670.5,-38.5 "/>
<text text-anchor="middle" x="584" y="-26.5" font-family="Helvetica,sans-Serif" font-size="10.00" fill="#000000"> </text>
<polyline fill="none" stroke="#000000" points="497.5,-19.5 670.5,-19.5 "/>
<text text-anchor="start" x="505.5" y="-7.5" font-family="Helvetica,sans-Serif" font-size="10.00" fill="#000000">+ process()</text>
</g>
<!-- Node2 -->
<g id="node2" class="node">
<title>Node2</title>
<g id="a_node2"><a xlink:href="../../d4/d79/structo2_1_1framework_1_1OutputObj.html" target="_top" xlink:title="{o2::framework::OutputObj\l\&lt; TH1F \&gt;\n||+ spec()\l+ OutputObj()\l+ OutputObj()\l+ setObject()\l+ setObject()\l+ setObject()\l+ setHash()\l+ operator&#45;\&gt;()\l+ operator*()\l+ ref()\l}">
<polygon fill="none" stroke="#000000" points="430.5,-193.5 430.5,-360.5 573.5,-360.5 573.5,-193.5 430.5,-193.5"/>
<text text-anchor="start" x="438.5" y="-348.5" font-family="Helvetica,sans-Serif" font-size="10.00" fill="#000000">o2::framework::OutputObj</text>
<text text-anchor="middle" x="502" y="-337.5" font-family="Helvetica,sans-Serif" font-size="10.00" fill="#000000">&lt; TH1F &gt;</text>
<polyline fill="none" stroke="#000000" points="430.5,-330.5 573.5,-330.5 "/>
<text text-anchor="middle" x="502" y="-318.5" font-family="Helvetica,sans-Serif" font-size="10.00" fill="#000000"> </text>
<polyline fill="none" stroke="#000000" points="430.5,-311.5 573.5,-311.5 "/>
<text text-anchor="start" x="438.5" y="-299.5" font-family="Helvetica,sans-Serif" font-size="10.00" fill="#000000">+ spec()</text>
<text text-anchor="start" x="438.5" y="-288.5" font-family="Helvetica,sans-Serif" font-size="10.00" fill="#000000">+ OutputObj()</text>
<text text-anchor="start" x="438.5" y="-277.5" font-family="Helvetica,sans-Serif" font-size="10.00" fill="#000000">+ OutputObj()</text>
<text text-anchor="start" x="438.5" y="-266.5" font-family="Helvetica,sans-Serif" font-size="10.00" fill="#000000">+ setObject()</text>
<text text-anchor="start" x="438.5" y="-255.5" font-family="Helvetica,sans-Serif" font-size="10.00" fill="#000000">+ setObject()</text>
<text text-anchor="start" x="438.5" y="-244.5" font-family="Helvetica,sans-Serif" font-size="10.00" fill="#000000">+ setObject()</text>
<text text-anchor="start" x="438.5" y="-233.5" font-family="Helvetica,sans-Serif" font-size="10.00" fill="#000000">+ setHash()</text>
<text text-anchor="start" x="438.5" y="-222.5" font-family="Helvetica,sans-Serif" font-size="10.00" fill="#000000">+ operator&#45;&gt;()</text>
<text text-anchor="start" x="438.5" y="-211.5" font-family="Helvetica,sans-Serif" font-size="10.00" fill="#000000">+ operator*()</text>
<text text-anchor="start" x="438.5" y="-200.5" font-family="Helvetica,sans-Serif" font-size="10.00" fill="#000000">+ ref()</text>
</a>
</g>
</g>
<!-- Node2&#45;&gt;Node1 -->
<g id="edge1" class="edge">
<title>Node2&#45;&gt;Node1</title>
<path fill="none" stroke="#404040" d="M511.4071,-193.4696C517.811,-156.199 528.4482,-112.5486 546,-76 547.3315,-73.2274 548.8563,-70.4735 550.5127,-67.7704"/>
<polygon fill="none" stroke="#404040" points="550.6496,-67.57 550.7342,-60.3594 557.4227,-57.6642 557.3381,-64.8749 550.6496,-67.57"/>
<text text-anchor="middle" x="610" y="-167" font-family="Helvetica,sans-Serif" font-size="10.00" fill="#000000"> +fTracksNone</text>
<text text-anchor="middle" x="610" y="-156" font-family="Helvetica,sans-Serif" font-size="10.00" fill="#000000">+fTracksOneAndTwo</text>
<text text-anchor="middle" x="610" y="-145" font-family="Helvetica,sans-Serif" font-size="10.00" fill="#000000">+fTracksOneUnsel</text>
<text text-anchor="middle" x="610" y="-134" font-family="Helvetica,sans-Serif" font-size="10.00" fill="#000000">+fTracksTwo</text>
<text text-anchor="middle" x="610" y="-123" font-family="Helvetica,sans-Serif" font-size="10.00" fill="#000000">+fTracksOneAndTwoUnsel</text>
<text text-anchor="middle" x="610" y="-112" font-family="Helvetica,sans-Serif" font-size="10.00" fill="#000000">+fSelectedEvents</text>
<text text-anchor="middle" x="610" y="-101" font-family="Helvetica,sans-Serif" font-size="10.00" fill="#000000">+fTracksTwoUnsel</text>
<text text-anchor="middle" x="610" y="-90" font-family="Helvetica,sans-Serif" font-size="10.00" fill="#000000">+fTracksOne</text>
<text text-anchor="middle" x="610" y="-79" font-family="Helvetica,sans-Serif" font-size="10.00" fill="#000000">+fTracksNoneUnsel</text>
</g>
<!-- Node3 -->
<g id="node3" class="node">
<title>Node3</title>
<polygon fill="none" stroke="#bfbfbf" points="450.5,-640 450.5,-697 589.5,-697 589.5,-640 450.5,-640"/>
<text text-anchor="middle" x="520" y="-685" font-family="Helvetica,sans-Serif" font-size="10.00" fill="#000000">OutputObjHandlingPolicy</text>
<polyline fill="none" stroke="#bfbfbf" points="450.5,-678 589.5,-678 "/>
<text text-anchor="middle" x="520" y="-666" font-family="Helvetica,sans-Serif" font-size="10.00" fill="#000000"> </text>
<polyline fill="none" stroke="#bfbfbf" points="450.5,-659 589.5,-659 "/>
<text text-anchor="middle" x="520" y="-647" font-family="Helvetica,sans-Serif" font-size="10.00" fill="#000000"> </text>
</g>
<!-- Node3&#45;&gt;Node2 -->
<g id="edge2" class="edge">
<title>Node3&#45;&gt;Node2</title>
<path fill="none" stroke="#404040" d="M522.9332,-639.6227C527.6956,-587.4132 535.5694,-473.9224 525,-379 524.7582,-376.828 524.4882,-374.6347 524.1933,-372.4269"/>
<polygon fill="none" stroke="#404040" points="524.1872,-372.386 519.3366,-367.0501 522.3964,-360.5204 527.247,-365.8563 524.1872,-372.386"/>
<text text-anchor="middle" x="551.5" y="-484" font-family="Helvetica,sans-Serif" font-size="10.00" fill="#000000"> +policy</text>
</g>
<!-- Node11 -->
<g id="node11" class="node">
<title>Node11</title>
<g id="a_node11"><a xlink:href="../../d4/d79/structo2_1_1framework_1_1OutputObj.html" target="_top" xlink:title="{o2::framework::OutputObj\&lt; T \&gt;\n||+ OutputObj()\l+ OutputObj()\l+ setObject()\l+ setObject()\l+ setObject()\l+ setHash()\l+ spec()\l+ operator&#45;\&gt;()\l+ operator*()\l+ ref()\l}">
<polygon fill="none" stroke="#000000" points="207,-408.5 207,-564.5 379,-564.5 379,-408.5 207,-408.5"/>
<text text-anchor="middle" x="293" y="-552.5" font-family="Helvetica,sans-Serif" font-size="10.00" fill="#000000">o2::framework::OutputObj&lt; T &gt;</text>
<polyline fill="none" stroke="#000000" points="207,-545.5 379,-545.5 "/>
<text text-anchor="middle" x="293" y="-533.5" font-family="Helvetica,sans-Serif" font-size="10.00" fill="#000000"> </text>
<polyline fill="none" stroke="#000000" points="207,-526.5 379,-526.5 "/>
<text text-anchor="start" x="215" y="-514.5" font-family="Helvetica,sans-Serif" font-size="10.00" fill="#000000">+ OutputObj()</text>
<text text-anchor="start" x="215" y="-503.5" font-family="Helvetica,sans-Serif" font-size="10.00" fill="#000000">+ OutputObj()</text>
<text text-anchor="start" x="215" y="-492.5" font-family="Helvetica,sans-Serif" font-size="10.00" fill="#000000">+ setObject()</text>
<text text-anchor="start" x="215" y="-481.5" font-family="Helvetica,sans-Serif" font-size="10.00" fill="#000000">+ setObject()</text>
<text text-anchor="start" x="215" y="-470.5" font-family="Helvetica,sans-Serif" font-size="10.00" fill="#000000">+ setObject()</text>
<text text-anchor="start" x="215" y="-459.5" font-family="Helvetica,sans-Serif" font-size="10.00" fill="#000000">+ setHash()</text>
<text text-anchor="start" x="215" y="-448.5" font-family="Helvetica,sans-Serif" font-size="10.00" fill="#000000">+ spec()</text>
<text text-anchor="start" x="215" y="-437.5" font-family="Helvetica,sans-Serif" font-size="10.00" fill="#000000">+ operator&#45;&gt;()</text>
<text text-anchor="start" x="215" y="-426.5" font-family="Helvetica,sans-Serif" font-size="10.00" fill="#000000">+ operator*()</text>
<text text-anchor="start" x="215" y="-415.5" font-family="Helvetica,sans-Serif" font-size="10.00" fill="#000000">+ ref()</text>
</a>
</g>
</g>
<!-- Node3&#45;&gt;Node11 -->
<g id="edge13" class="edge">
<title>Node3&#45;&gt;Node11</title>
<path fill="none" stroke="#404040" d="M483.1004,-639.974C458.5961,-620.9395 425.5366,-595.0871 388.6046,-565.4507"/>
<polygon fill="none" stroke="#404040" points="388.4864,-565.3557 381.304,-564.7133 379.1345,-557.8363 386.3169,-558.4787 388.4864,-565.3557"/>
<text text-anchor="middle" x="445.5" y="-586" font-family="Helvetica,sans-Serif" font-size="10.00" fill="#000000"> +policy</text>
</g>
<!-- Node4 -->
<g id="node4" class="node">
<title>Node4</title>
<g id="a_node4"><a xlink:href="../../d3/d87/classuint32__t.html" target="_top" xlink:title="{uint32_t\n||}">
<polygon fill="none" stroke="#000000" points="0,-640 0,-697 56,-697 56,-640 0,-640"/>
<text text-anchor="middle" x="28" y="-685" font-family="Helvetica,sans-Serif" font-size="10.00" fill="#000000">uint32_t</text>
<polyline fill="none" stroke="#000000" points="0,-678 56,-678 "/>
<text text-anchor="middle" x="28" y="-666" font-family="Helvetica,sans-Serif" font-size="10.00" fill="#000000"> </text>
<polyline fill="none" stroke="#000000" points="0,-659 56,-659 "/>
<text text-anchor="middle" x="28" y="-647" font-family="Helvetica,sans-Serif" font-size="10.00" fill="#000000"> </text>
</a>
</g>
</g>
<!-- Node4&#45;&gt;Node2 -->
<g id="edge3" class="edge">
<title>Node4&#45;&gt;Node2</title>
<path fill="none" stroke="#404040" d="M19.4015,-639.767C5.6598,-587.4594 -14.5966,-475.841 39,-408 85.8749,-348.6672 297.988,-307.7402 418.199,-288.8581"/>
<polygon fill="none" stroke="#404040" points="418.3903,-288.8285 423.707,-283.9568 430.2488,-286.9908 424.9321,-291.8625 418.3903,-288.8285"/>
<text text-anchor="middle" x="73" y="-484" font-family="Helvetica,sans-Serif" font-size="10.00" fill="#000000"> +mTaskHash</text>
</g>
<!-- Node4&#45;&gt;Node11 -->
<g id="edge12" class="edge">
<title>Node4&#45;&gt;Node11</title>
<path fill="none" stroke="#404040" d="M54.486,-639.7308C73.1161,-621.0817 99.538,-597.6234 127,-583 153.837,-568.7094 165.8358,-578.6583 193,-565 194.0137,-564.4903 195.027,-563.9694 196.0395,-563.438"/>
<polygon fill="none" stroke="#404040" points="196.3775,-563.2482 199.6499,-556.8223 206.84,-557.3714 203.5677,-563.7973 196.3775,-563.2482"/>
<text text-anchor="middle" x="161" y="-586" font-family="Helvetica,sans-Serif" font-size="10.00" fill="#000000"> +mTaskHash</text>
</g>
<!-- Node5 -->
<g id="node5" class="node">
<title>Node5</title>
<polygon fill="none" stroke="#bfbfbf" points="603.5,-789 603.5,-846 632.5,-846 632.5,-789 603.5,-789"/>
<text text-anchor="middle" x="618" y="-834" font-family="Helvetica,sans-Serif" font-size="10.00" fill="#000000">int</text>
<polyline fill="none" stroke="#bfbfbf" points="603.5,-827 632.5,-827 "/>
<text text-anchor="middle" x="618" y="-815" font-family="Helvetica,sans-Serif" font-size="10.00" fill="#000000"> </text>
<polyline fill="none" stroke="#bfbfbf" points="603.5,-808 632.5,-808 "/>
<text text-anchor="middle" x="618" y="-796" font-family="Helvetica,sans-Serif" font-size="10.00" fill="#000000"> </text>
</g>
<!-- Node5&#45;&gt;Node2 -->
<g id="edge4" class="edge">
<title>Node5&#45;&gt;Node2</title>
<path fill="none" stroke="#404040" d="M619.0755,-788.8719C620.7762,-720.9476 620.151,-545.4456 576,-408 572.0856,-395.8141 566.9585,-383.4937 561.2265,-371.5368"/>
<polygon fill="none" stroke="#404040" points="561.1642,-371.4117 554.9072,-367.8269 555.8098,-360.6725 562.0667,-364.2573 561.1642,-371.4117"/>
<text text-anchor="middle" x="630" y="-586" font-family="Helvetica,sans-Serif" font-size="10.00" fill="#000000"> +label</text>
</g>
<!-- Node7 -->
<g id="node7" class="node">
<title>Node7</title>
<g id="a_node7"><a xlink:href="../../da/d96/structo2_1_1framework_1_1InputSpec.html" target="_top" xlink:title="{o2::framework::InputSpec\n||+ InputSpec()\l+ InputSpec()\l+ InputSpec()\l+ InputSpec()\l+ InputSpec()\l+ operator==()\l}">
<polygon fill="none" stroke="#000000" points="646,-612.5 646,-724.5 788,-724.5 788,-612.5 646,-612.5"/>
<text text-anchor="middle" x="717" y="-712.5" font-family="Helvetica,sans-Serif" font-size="10.00" fill="#000000">o2::framework::InputSpec</text>
<polyline fill="none" stroke="#000000" points="646,-705.5 788,-705.5 "/>
<text text-anchor="middle" x="717" y="-693.5" font-family="Helvetica,sans-Serif" font-size="10.00" fill="#000000"> </text>
<polyline fill="none" stroke="#000000" points="646,-686.5 788,-686.5 "/>
<text text-anchor="start" x="654" y="-674.5" font-family="Helvetica,sans-Serif" font-size="10.00" fill="#000000">+ InputSpec()</text>
<text text-anchor="start" x="654" y="-663.5" font-family="Helvetica,sans-Serif" font-size="10.00" fill="#000000">+ InputSpec()</text>
<text text-anchor="start" x="654" y="-652.5" font-family="Helvetica,sans-Serif" font-size="10.00" fill="#000000">+ InputSpec()</text>
<text text-anchor="start" x="654" y="-641.5" font-family="Helvetica,sans-Serif" font-size="10.00" fill="#000000">+ InputSpec()</text>
<text text-anchor="start" x="654" y="-630.5" font-family="Helvetica,sans-Serif" font-size="10.00" fill="#000000">+ InputSpec()</text>
<text text-anchor="start" x="654" y="-619.5" font-family="Helvetica,sans-Serif" font-size="10.00" fill="#000000">+ operator==()</text>
</a>
</g>
</g>
<!-- Node5&#45;&gt;Node7 -->
<g id="edge9" class="edge">
<title>Node5&#45;&gt;Node7</title>
<path fill="none" stroke="#404040" d="M632.5259,-795.2972C642.2479,-780.4661 655.3488,-760.5362 667,-743 668.7968,-740.2957 670.6324,-737.5378 672.4887,-734.7531"/>
<polygon fill="none" stroke="#404040" points="672.6044,-734.5799 672.6095,-727.3688 679.2679,-724.6 679.2628,-731.8111 672.6044,-734.5799"/>
<text text-anchor="middle" x="691" y="-746" font-family="Helvetica,sans-Serif" font-size="10.00" fill="#000000"> +binding</text>
</g>
<!-- Node5&#45;&gt;Node11 -->
<g id="edge14" class="edge">
<title>Node5&#45;&gt;Node11</title>
<path fill="none" stroke="#404040" d="M603.4962,-815.7088C545.2332,-808.1895 329.4596,-777.1269 290,-725 272.704,-702.1517 274.9869,-634.2961 280.7338,-576.7777"/>
<polygon fill="none" stroke="#404040" points="280.7509,-576.6148 277.4009,-570.229 282.0069,-564.6807 285.3569,-571.0664 280.7509,-576.6148"/>
<text text-anchor="middle" x="308" y="-666" font-family="Helvetica,sans-Serif" font-size="10.00" fill="#000000"> +label</text>
</g>
<!-- Node6 -->
<g id="node6" class="node">
<title>Node6</title>
<polygon fill="none" stroke="#bfbfbf" points="135,-640 135,-697 173,-697 173,-640 135,-640"/>
<text text-anchor="middle" x="154" y="-685" font-family="Helvetica,sans-Serif" font-size="10.00" fill="#000000">bool</text>
<polyline fill="none" stroke="#bfbfbf" points="135,-678 173,-678 "/>
<text text-anchor="middle" x="154" y="-666" font-family="Helvetica,sans-Serif" font-size="10.00" fill="#000000"> </text>
<polyline fill="none" stroke="#bfbfbf" points="135,-659 173,-659 "/>
<text text-anchor="middle" x="154" y="-647" font-family="Helvetica,sans-Serif" font-size="10.00" fill="#000000"> </text>
</g>
<!-- Node6&#45;&gt;Node2 -->
<g id="edge5" class="edge">
<title>Node6&#45;&gt;Node2</title>
<path fill="none" stroke="#404040" d="M141.3027,-639.9336C120.5231,-588.3829 86.2767,-478.6095 136,-408 169.1989,-360.856 321.1394,-318.2836 418.5171,-295.1835"/>
<polygon fill="none" stroke="#404040" points="418.7213,-295.1357 423.6496,-289.8714 430.4044,-292.3957 425.4762,-297.6601 418.7213,-295.1357"/>
<text text-anchor="middle" x="167" y="-484" font-family="Helvetica,sans-Serif" font-size="10.00" fill="#000000"> +isdangling</text>
</g>
<!-- Node6&#45;&gt;Node11 -->
<g id="edge16" class="edge">
<title>Node6&#45;&gt;Node11</title>
<path fill="none" stroke="#404040" d="M169.169,-639.8632C178.6646,-622.8074 191.6069,-601.0411 205,-583 207.193,-580.0459 209.4616,-577.0786 211.7873,-574.1116"/>
<polygon fill="none" stroke="#404040" points="211.8703,-574.0083 212.5104,-566.8256 219.3868,-564.6539 218.7467,-571.8365 211.8703,-574.0083"/>
<text text-anchor="middle" x="236" y="-586" font-family="Helvetica,sans-Serif" font-size="10.00" fill="#000000"> +isdangling</text>
</g>
<!-- Node7&#45;&gt;Node2 -->
<g id="edge6" class="edge">
<title>Node7&#45;&gt;Node2</title>
<path fill="none" stroke="#404040" d="M695.2155,-612.4617C689.6063,-597.1777 683.8034,-580.5451 679,-565 653.8278,-483.5354 678.4779,-450.4838 632,-379 619.283,-359.441 601.5266,-342.0153 583.2159,-327.3413"/>
<polygon fill="none" stroke="#404040" points="583.1094,-327.259 575.9159,-326.7556 573.6138,-319.9218 580.8074,-320.4252 583.1094,-327.259"/>
<text text-anchor="middle" x="696" y="-484" font-family="Helvetica,sans-Serif" font-size="10.00" fill="#000000"> +spec</text>
</g>
<!-- Node7&#45;&gt;Node11 -->
<g id="edge17" class="edge">
<title>Node7&#45;&gt;Node11</title>
<path fill="none" stroke="#404040" d="M645.698,-631.5296C630.2337,-624.3974 613.7778,-617.4579 598,-612 542.8744,-592.9307 526.9319,-595.6978 470,-583 436.9968,-575.6391 424.015,-580.2577 390.2835,-565.5467"/>
<polygon fill="none" stroke="#404040" points="389.9767,-565.4035 382.8477,-566.489 379.1038,-560.326 386.2327,-559.2404 389.9767,-565.4035"/>
<text text-anchor="middle" x="546" y="-586" font-family="Helvetica,sans-Serif" font-size="10.00" fill="#000000"> +spec</text>
</g>
<!-- Node8 -->
<g id="node8" class="node">
<title>Node8</title>
<polygon fill="none" stroke="#bfbfbf" points="678,-789 678,-846 766,-846 766,-789 678,-789"/>
<text text-anchor="middle" x="722" y="-834" font-family="Helvetica,sans-Serif" font-size="10.00" fill="#000000">enum Lifetime</text>
<polyline fill="none" stroke="#bfbfbf" points="678,-827 766,-827 "/>
<text text-anchor="middle" x="722" y="-815" font-family="Helvetica,sans-Serif" font-size="10.00" fill="#000000"> </text>
<polyline fill="none" stroke="#bfbfbf" points="678,-808 766,-808 "/>
<text text-anchor="middle" x="722" y="-796" font-family="Helvetica,sans-Serif" font-size="10.00" fill="#000000"> </text>
</g>
<!-- Node8&#45;&gt;Node7 -->
<g id="edge7" class="edge">
<title>Node8&#45;&gt;Node7</title>
<path fill="none" stroke="#404040" d="M721.0359,-788.7713C720.5378,-773.9277 719.9069,-755.1262 719.2928,-736.825"/>
<polygon fill="none" stroke="#404040" points="719.2853,-736.5982 715.0862,-730.7357 718.8827,-724.6049 723.0817,-730.4674 719.2853,-736.5982"/>
<text text-anchor="middle" x="744" y="-746" font-family="Helvetica,sans-Serif" font-size="10.00" fill="#000000"> +lifetime</text>
</g>
<!-- Node9 -->
<g id="node9" class="node">
<title>Node9</title>
<polygon fill="none" stroke="#bfbfbf" points="784,-772.5 784,-862.5 948,-862.5 948,-772.5 784,-772.5"/>
<text text-anchor="start" x="792" y="-850.5" font-family="Helvetica,sans-Serif" font-size="10.00" fill="#000000">variant&lt; o2::framework</text>
<text text-anchor="start" x="792" y="-839.5" font-family="Helvetica,sans-Serif" font-size="10.00" fill="#000000">::ConcreteDataMatcher,</text>
<text text-anchor="start" x="792" y="-828.5" font-family="Helvetica,sans-Serif" font-size="10.00" fill="#000000"> o2::framework::data_matcher</text>
<text text-anchor="middle" x="866" y="-817.5" font-family="Helvetica,sans-Serif" font-size="10.00" fill="#000000">::DataDescriptorMatcher &gt;</text>
<polyline fill="none" stroke="#bfbfbf" points="784,-810.5 948,-810.5 "/>
<text text-anchor="middle" x="866" y="-798.5" font-family="Helvetica,sans-Serif" font-size="10.00" fill="#000000"> </text>
<polyline fill="none" stroke="#bfbfbf" points="784,-791.5 948,-791.5 "/>
<text text-anchor="middle" x="866" y="-779.5" font-family="Helvetica,sans-Serif" font-size="10.00" fill="#000000"> </text>
</g>
<!-- Node9&#45;&gt;Node7 -->
<g id="edge8" class="edge">
<title>Node9&#45;&gt;Node7</title>
<path fill="none" stroke="#404040" d="M820.8907,-772.3907C808.5245,-760.0245 794.8716,-746.3716 781.641,-733.141"/>
<polygon fill="none" stroke="#404040" points="781.5107,-733.0107 774.4396,-731.5964 773.0254,-724.5254 780.0964,-725.9396 781.5107,-733.0107"/>
<text text-anchor="middle" x="826" y="-746" font-family="Helvetica,sans-Serif" font-size="10.00" fill="#000000"> +matcher</text>
</g>
<!-- Node10 -->
<g id="node10" class="node">
<title>Node10</title>
<polygon fill="none" stroke="#bfbfbf" points="397,-458 397,-515 513,-515 513,-458 397,-458"/>
<text text-anchor="middle" x="455" y="-503" font-family="Helvetica,sans-Serif" font-size="10.00" fill="#000000">shared_ptr&lt; TH1F &gt;</text>
<polyline fill="none" stroke="#bfbfbf" points="397,-496 513,-496 "/>
<text text-anchor="middle" x="455" y="-484" font-family="Helvetica,sans-Serif" font-size="10.00" fill="#000000"> </text>
<polyline fill="none" stroke="#bfbfbf" points="397,-477 513,-477 "/>
<text text-anchor="middle" x="455" y="-465" font-family="Helvetica,sans-Serif" font-size="10.00" fill="#000000"> </text>
</g>
<!-- Node10&#45;&gt;Node2 -->
<g id="edge10" class="edge">
<title>Node10&#45;&gt;Node2</title>
<path fill="none" stroke="#404040" d="M461.4366,-457.8092C466.4079,-435.6498 473.5896,-403.6379 480.5328,-372.6888"/>
<polygon fill="none" stroke="#404040" points="480.5502,-372.6111 477.9607,-365.8809 483.1771,-360.9021 485.7666,-367.6322 480.5502,-372.6111"/>
<text text-anchor="middle" x="500" y="-382" font-family="Helvetica,sans-Serif" font-size="10.00" fill="#000000"> +object</text>
</g>
<!-- Node11&#45;&gt;Node2 -->
<g id="edge11" class="edge">
<title>Node11&#45;&gt;Node2</title>
<path fill="none" stroke="#ffa500" d="M378.192,-401.1042C395.5023,-383.7524 413.545,-365.6666 430.3299,-348.8415"/>
<polygon fill="#ffa500" stroke="#ffa500" points="375.4087,-398.9385 370.8239,-408.4899 380.3644,-403.8823 375.4087,-398.9385"/>
<text text-anchor="middle" x="423.5" y="-382" font-family="Helvetica,sans-Serif" font-size="10.00" fill="#000000"> &lt; TH1F &gt;</text>
</g>
<!-- Node12 -->
<g id="node12" class="node">
<title>Node12</title>
<polygon fill="none" stroke="#bfbfbf" points="335.5,-640 335.5,-697 432.5,-697 432.5,-640 335.5,-640"/>
<text text-anchor="middle" x="384" y="-685" font-family="Helvetica,sans-Serif" font-size="10.00" fill="#000000">shared_ptr&lt; T &gt;</text>
<polyline fill="none" stroke="#bfbfbf" points="335.5,-678 432.5,-678 "/>
<text text-anchor="middle" x="384" y="-666" font-family="Helvetica,sans-Serif" font-size="10.00" fill="#000000"> </text>
<polyline fill="none" stroke="#bfbfbf" points="335.5,-659 432.5,-659 "/>
<text text-anchor="middle" x="384" y="-647" font-family="Helvetica,sans-Serif" font-size="10.00" fill="#000000"> </text>
</g>
<!-- Node12&#45;&gt;Node11 -->
<g id="edge15" class="edge">
<title>Node12&#45;&gt;Node11</title>
<path fill="none" stroke="#404040" d="M369.5808,-639.6616C360.8414,-622.1827 349.1715,-598.843 337.5812,-575.6624"/>
<polygon fill="none" stroke="#404040" points="337.4591,-575.418 331.198,-571.8403 332.0924,-564.6849 338.3535,-568.2626 337.4591,-575.418"/>
<text text-anchor="middle" x="368" y="-586" font-family="Helvetica,sans-Serif" font-size="10.00" fill="#000000"> +object</text>
</g>
<!-- Node13 -->
<g id="node13" class="node">
<title>Node13</title>
<g id="a_node13"><a xlink:href="../../d1/d9a/structo2_1_1framework_1_1expressions_1_1Filter.html" target="_top" xlink:title="A struct, containing the root of the expression tree. ">
<polygon fill="none" stroke="#000000" points="656,-237.5 656,-316.5 808,-316.5 808,-237.5 656,-237.5"/>
<text text-anchor="start" x="664" y="-304.5" font-family="Helvetica,sans-Serif" font-size="10.00" fill="#000000">o2::framework::expressions</text>
<text text-anchor="middle" x="732" y="-293.5" font-family="Helvetica,sans-Serif" font-size="10.00" fill="#000000">::Filter</text>
<polyline fill="none" stroke="#000000" points="656,-286.5 808,-286.5 "/>
<text text-anchor="middle" x="732" y="-274.5" font-family="Helvetica,sans-Serif" font-size="10.00" fill="#000000"> </text>
<polyline fill="none" stroke="#000000" points="656,-267.5 808,-267.5 "/>
<text text-anchor="start" x="664" y="-255.5" font-family="Helvetica,sans-Serif" font-size="10.00" fill="#000000">+ Filter()</text>
<text text-anchor="start" x="664" y="-244.5" font-family="Helvetica,sans-Serif" font-size="10.00" fill="#000000">+ Filter()</text>
</a>
</g>
</g>
<!-- Node13&#45;&gt;Node1 -->
<g id="edge18" class="edge">
<title>Node13&#45;&gt;Node1</title>
<path fill="none" stroke="#404040" d="M729.682,-237.2481C725.2149,-193.3376 712.1548,-122.6814 674,-76 670.7998,-72.0846 667.1866,-68.4566 663.2933,-65.1006"/>
<polygon fill="none" stroke="#404040" points="663.268,-65.0812 656.0738,-64.5873 653.7627,-57.7566 660.9569,-58.2504 663.268,-65.0812"/>
<text text-anchor="middle" x="773" y="-128.5" font-family="Helvetica,sans-Serif" font-size="10.00" fill="#000000"> +onlyacceptedevents</text>
<text text-anchor="middle" x="773" y="-117.5" font-family="Helvetica,sans-Serif" font-size="10.00" fill="#000000">+onlyacceptedtracks</text>
</g>
<!-- Node14 -->
<g id="node14" class="node">
<title>Node14</title>
<polygon fill="none" stroke="#bfbfbf" points="721.5,-452.5 721.5,-520.5 872.5,-520.5 872.5,-452.5 721.5,-452.5"/>
<text text-anchor="start" x="729.5" y="-508.5" font-family="Helvetica,sans-Serif" font-size="10.00" fill="#000000">unique_ptr&lt; o2::framework</text>
<text text-anchor="middle" x="797" y="-497.5" font-family="Helvetica,sans-Serif" font-size="10.00" fill="#000000">::expressions::Node &gt;</text>
<polyline fill="none" stroke="#bfbfbf" points="721.5,-490.5 872.5,-490.5 "/>
<text text-anchor="middle" x="797" y="-478.5" font-family="Helvetica,sans-Serif" font-size="10.00" fill="#000000"> </text>
<polyline fill="none" stroke="#bfbfbf" points="721.5,-471.5 872.5,-471.5 "/>
<text text-anchor="middle" x="797" y="-459.5" font-family="Helvetica,sans-Serif" font-size="10.00" fill="#000000"> </text>
</g>
<!-- Node14&#45;&gt;Node13 -->
<g id="edge19" class="edge">
<title>Node14&#45;&gt;Node13</title>
<path fill="none" stroke="#404040" d="M786.412,-452.3739C775.9796,-418.7496 759.9089,-366.9526 747.9339,-328.3563"/>
<polygon fill="none" stroke="#404040" points="747.9158,-328.2978 742.3175,-323.7526 744.3598,-316.8367 749.9582,-321.3819 747.9158,-328.2978"/>
<text text-anchor="middle" x="784" y="-382" font-family="Helvetica,sans-Serif" font-size="10.00" fill="#000000"> +node</text>
</g>
</g>
</svg>
        <g id="navigator" transform="translate(0 0)" fill="#404254">
                <rect fill="#f2f5e9" fill-opacity="0.5" stroke="#606060" stroke-width=".5" x="0" y="0" width="60" height="60"/>
                <use id="zoomplus" xlink:href="#zoomPlus" x="17" y="9" onmousedown="handleZoom(evt,'in')"/>
                <use id="zoomminus" xlink:href="#zoomMin" x="42" y="9" onmousedown="handleZoom(evt,'out')"/>
                <use id="reset" xlink:href="#resetDef" x="30" y="36" onmousedown="handleReset()"/>
                <g id="arrowUp" xlink:href="#dirArrow" transform="translate(30 24)" onmousedown="handlePan(0,-1)">
                  <use xlink:href="#rim" fill="#404040">
                        <set attributeName="fill" to="#808080" begin="arrowUp.mouseover" end="arrowUp.mouseout"/>
                  </use>
                  <path fill="none" stroke="white" stroke-width="1.5" d="M0,-3.0v7 M-2.5,-0.5L0,-3.0L2.5,-0.5"/>
                </g>
                <g id="arrowRight" xlink:href="#dirArrow" transform="rotate(90) translate(36 -43)" onmousedown="handlePan(1,0)">
                  <use xlink:href="#rim" fill="#404040">
                        <set attributeName="fill" to="#808080" begin="arrowRight.mouseover" end="arrowRight.mouseout"/>
                  </use>
                  <path fill="none" stroke="white" stroke-width="1.5" d="M0,-3.0v7 M-2.5,-0.5L0,-3.0L2.5,-0.5"/>
                </g>
                <g id="arrowDown" xlink:href="#dirArrow" transform="rotate(180) translate(-30 -48)" onmousedown="handlePan(0,1)">
                  <use xlink:href="#rim" fill="#404040">
                        <set attributeName="fill" to="#808080" begin="arrowDown.mouseover" end="arrowDown.mouseout"/>
                  </use>
                  <path fill="none" stroke="white" stroke-width="1.5" d="M0,-3.0v7 M-2.5,-0.5L0,-3.0L2.5,-0.5"/>
                </g>
                <g id="arrowLeft" xlink:href="#dirArrow" transform="rotate(270) translate(-36 17)" onmousedown="handlePan(-1,0)">
                  <use xlink:href="#rim" fill="#404040">
                        <set attributeName="fill" to="#808080" begin="arrowLeft.mouseover" end="arrowLeft.mouseout"/>
                  </use>
                  <path fill="none" stroke="white" stroke-width="1.5" d="M0,-3.0v7 M-2.5,-0.5L0,-3.0L2.5,-0.5"/>
                </g>
        </g>
        <svg viewBox="0 0 15 15" width="100%" height="30px" preserveAspectRatio="xMaxYMin meet">
         <g id="arrow_out" transform="scale(0.3 0.3)">
          <a xlink:href="structTracksAndEventClassificationQA__coll__graph_org.svg" target="_base">
           <rect id="button" ry="5" rx="5" y="6" x="6" height="38" width="38"
                fill="#f2f5e9" fill-opacity="0.5" stroke="#606060" stroke-width="1.0"/>
           <path id="arrow"
             d="M 11.500037,31.436501 C 11.940474,20.09759 22.043105,11.32322 32.158766,21.979434 L 37.068811,17.246167 C 37.068811,17.246167 37.088388,32 37.088388,32 L 22.160133,31.978069 C 22.160133,31.978069 26.997745,27.140456 26.997745,27.140456 C 18.528582,18.264221 13.291696,25.230495 11.500037,31.436501 z"
             style="fill:#404040;"/>
          </a>
         </g>
        </svg>
</svg>
