<?xml version="1.0" encoding="UTF-8" standalone="no"?>
<!DOCTYPE svg PUBLIC "-//W3C//DTD SVG 1.1//EN"
 "http://www.w3.org/Graphics/SVG/1.1/DTD/svg11.dtd">
<!-- Generated by graphviz version 2.40.1 (20161225.0304)
 -->
<!-- Title: o2::framework::Spawns&lt; T &gt; Pages: 1 -->
<svg width="465pt" height="365pt"
 viewBox="0.00 0.00 464.50 365.00" xmlns="http://www.w3.org/2000/svg" xmlns:xlink="http://www.w3.org/1999/xlink">
<g id="graph0" class="graph" transform="scale(1 1) rotate(0) translate(4 361)">
<title>o2::framework::Spawns&lt; T &gt;</title>
<!-- Node0 -->
<g id="node1" class="node">
<title>Node0</title>
<polygon fill="#bfbfbf" stroke="#000000" points="143.5,-116.5 143.5,-173.5 303.5,-173.5 303.5,-116.5 143.5,-116.5"/>
<text text-anchor="middle" x="223.5" y="-161.5" font-family="Helvetica,sans-Serif" font-size="10.00" fill="#000000">o2::framework::Spawns&lt; T &gt;</text>
<polyline fill="none" stroke="#000000" points="143.5,-154.5 303.5,-154.5 "/>
<text text-anchor="middle" x="223.5" y="-142.5" font-family="Helvetica,sans-Serif" font-size="10.00" fill="#000000"> </text>
<polyline fill="none" stroke="#000000" points="143.5,-135.5 303.5,-135.5 "/>
<text text-anchor="start" x="151.5" y="-123.5" font-family="Helvetica,sans-Serif" font-size="10.00" fill="#000000">+ pack()</text>
</g>
<!-- Node2 -->
<g id="node3" class="node">
<title>Node2</title>
<g id="a_node3"><a xlink:href="../../d7/d15/structo2_1_1framework_1_1Spawns.html" target="_top" xlink:title="{o2::framework::Spawns\l\&lt; aod::EPhi \&gt;\n||+ pack()\l}">
<polygon fill="none" stroke="#000000" points="0,-.5 0,-68.5 131,-68.5 131,-.5 0,-.5"/>
<text text-anchor="start" x="8" y="-56.5" font-family="Helvetica,sans-Serif" font-size="10.00" fill="#000000">o2::framework::Spawns</text>
<text text-anchor="middle" x="65.5" y="-45.5" font-family="Helvetica,sans-Serif" font-size="10.00" fill="#000000">&lt; aod::EPhi &gt;</text>
<polyline fill="none" stroke="#000000" points="0,-38.5 131,-38.5 "/>
<text text-anchor="middle" x="65.5" y="-26.5" font-family="Helvetica,sans-Serif" font-size="10.00" fill="#000000"> </text>
<polyline fill="none" stroke="#000000" points="0,-19.5 131,-19.5 "/>
<text text-anchor="start" x="8" y="-7.5" font-family="Helvetica,sans-Serif" font-size="10.00" fill="#000000">+ pack()</text>
</a>
</g>
</g>
<!-- Node0&#45;&gt;Node2 -->
<g id="edge2" class="edge">
<title>Node0&#45;&gt;Node2</title>
<path fill="none" stroke="#ffa500" d="M167.4745,-110.6955C161.0187,-106.5058 154.5764,-102.2147 148.5,-98 135.2319,-88.7969 121.1575,-78.3179 108.441,-68.5625"/>
<polygon fill="#ffa500" stroke="#ffa500" points="165.9469,-113.8739 176.2533,-116.3293 169.7277,-107.9827 165.9469,-113.8739"/>
<text text-anchor="middle" x="184" y="-90" font-family="Helvetica,sans-Serif" font-size="10.00" fill="#000000"> &lt; aod::EPhi &gt;</text>
</g>
<!-- Node3 -->
<g id="node4" class="node">
<title>Node3</title>
<g id="a_node4"><a xlink:href="../../d7/d15/structo2_1_1framework_1_1Spawns.html" target="_top" xlink:title="{o2::framework::Spawns\l\&lt; aod::HfCandProng2Ext \&gt;\n||+ pack()\l}">
<polygon fill="none" stroke="#000000" points="149,-.5 149,-68.5 298,-68.5 298,-.5 149,-.5"/>
<text text-anchor="start" x="157" y="-56.5" font-family="Helvetica,sans-Serif" font-size="10.00" fill="#000000">o2::framework::Spawns</text>
<text text-anchor="middle" x="223.5" y="-45.5" font-family="Helvetica,sans-Serif" font-size="10.00" fill="#000000">&lt; aod::HfCandProng2Ext &gt;</text>
<polyline fill="none" stroke="#000000" points="149,-38.5 298,-38.5 "/>
<text text-anchor="middle" x="223.5" y="-26.5" font-family="Helvetica,sans-Serif" font-size="10.00" fill="#000000"> </text>
<polyline fill="none" stroke="#000000" points="149,-19.5 298,-19.5 "/>
<text text-anchor="start" x="157" y="-7.5" font-family="Helvetica,sans-Serif" font-size="10.00" fill="#000000">+ pack()</text>
</a>
</g>
</g>
<!-- Node0&#45;&gt;Node3 -->
<g id="edge3" class="edge">
<title>Node0&#45;&gt;Node3</title>
<path fill="none" stroke="#ffa500" d="M223.5,-105.9162C223.5,-93.7375 223.5,-80.4096 223.5,-68.6001"/>
<polygon fill="#ffa500" stroke="#ffa500" points="220.0001,-106.2559 223.5,-116.2559 227.0001,-106.2559 220.0001,-106.2559"/>
<text text-anchor="middle" x="291.5" y="-90" font-family="Helvetica,sans-Serif" font-size="10.00" fill="#000000"> &lt; aod::HfCandProng2Ext &gt;</text>
</g>
<!-- Node4 -->
<g id="node5" class="node">
<title>Node4</title>
<g id="a_node5"><a xlink:href="../../d7/d15/structo2_1_1framework_1_1Spawns.html" target="_top" xlink:title="{o2::framework::Spawns\l\&lt; aod::MTracks \&gt;\n||+ pack()\l}">
<polygon fill="none" stroke="#000000" points="317,-.5 317,-68.5 448,-68.5 448,-.5 317,-.5"/>
<text text-anchor="start" x="325" y="-56.5" font-family="Helvetica,sans-Serif" font-size="10.00" fill="#000000">o2::framework::Spawns</text>
<text text-anchor="middle" x="382.5" y="-45.5" font-family="Helvetica,sans-Serif" font-size="10.00" fill="#000000">&lt; aod::MTracks &gt;</text>
<polyline fill="none" stroke="#000000" points="317,-38.5 448,-38.5 "/>
<text text-anchor="middle" x="382.5" y="-26.5" font-family="Helvetica,sans-Serif" font-size="10.00" fill="#000000"> </text>
<polyline fill="none" stroke="#000000" points="317,-19.5 448,-19.5 "/>
<text text-anchor="start" x="325" y="-7.5" font-family="Helvetica,sans-Serif" font-size="10.00" fill="#000000">+ pack()</text>
</a>
</g>
</g>
<!-- Node0&#45;&gt;Node4 -->
<g id="edge4" class="edge">
<title>Node0&#45;&gt;Node4</title>
<path fill="none" stroke="#ffa500" d="M313.2166,-127.2669C330.5886,-120.4551 347.4282,-111.0322 360.5,-98 368.4319,-90.0921 373.5087,-79.1854 376.7562,-68.6411"/>
<polygon fill="#ffa500" stroke="#ffa500" points="311.7331,-124.0821 303.5314,-130.789 314.1254,-130.6606 311.7331,-124.0821"/>
<text text-anchor="middle" x="412" y="-90" font-family="Helvetica,sans-Serif" font-size="10.00" fill="#000000"> &lt; aod::MTracks &gt;</text>
</g>
<!-- Node1 -->
<g id="node2" class="node">
<title>Node1</title>
<g id="a_node2"><a xlink:href="../../da/d17/structo2_1_1framework_1_1TransformTable.html" target="_top" xlink:title="Base template for table transformation declarations. ">
<polygon fill="none" stroke="#000000" points="152,-211.5 152,-356.5 295,-356.5 295,-211.5 152,-211.5"/>
<text text-anchor="start" x="160" y="-344.5" font-family="Helvetica,sans-Serif" font-size="10.00" fill="#000000">o2::framework::Transform</text>
<text text-anchor="middle" x="223.5" y="-333.5" font-family="Helvetica,sans-Serif" font-size="10.00" fill="#000000">Table&lt; T &gt;</text>
<polyline fill="none" stroke="#000000" points="152,-326.5 295,-326.5 "/>
<text text-anchor="start" x="160" y="-314.5" font-family="Helvetica,sans-Serif" font-size="10.00" fill="#000000">+ table</text>
<polyline fill="none" stroke="#000000" points="152,-307.5 295,-307.5 "/>
<text text-anchor="start" x="160" y="-295.5" font-family="Helvetica,sans-Serif" font-size="10.00" fill="#000000">+ base_spec()</text>
<text text-anchor="start" x="160" y="-284.5" font-family="Helvetica,sans-Serif" font-size="10.00" fill="#000000">+ base_specs_impl()</text>
<text text-anchor="start" x="160" y="-273.5" font-family="Helvetica,sans-Serif" font-size="10.00" fill="#000000">+ base_specs()</text>
<text text-anchor="start" x="160" y="-262.5" font-family="Helvetica,sans-Serif" font-size="10.00" fill="#000000">+ spec()</text>
<text text-anchor="start" x="160" y="-251.5" font-family="Helvetica,sans-Serif" font-size="10.00" fill="#000000">+ ref()</text>
<text text-anchor="start" x="160" y="-240.5" font-family="Helvetica,sans-Serif" font-size="10.00" fill="#000000">+ operator&#45;&gt;()</text>
<text text-anchor="start" x="160" y="-229.5" font-family="Helvetica,sans-Serif" font-size="10.00" fill="#000000">+ operator*()</text>
<text text-anchor="start" x="160" y="-218.5" font-family="Helvetica,sans-Serif" font-size="10.00" fill="#000000">+ asArrowTable()</text>
</a>
</g>
</g>
<!-- Node1&#45;&gt;Node0 -->
<g id="edge1" class="edge">
<title>Node1&#45;&gt;Node0</title>
<path fill="none" stroke="#191970" d="M223.5,-200.9457C223.5,-191.161 223.5,-181.7491 223.5,-173.5272"/>
<polygon fill="none" stroke="#191970" points="220.0001,-201.2432 223.5,-211.2432 227.0001,-201.2433 220.0001,-201.2432"/>
</g>
</g>
</svg>
