<?xml version="1.0" encoding="UTF-8" standalone="no"?>
<!DOCTYPE svg PUBLIC "-//W3C//DTD SVG 1.1//EN"
 "http://www.w3.org/Graphics/SVG/1.1/DTD/svg11.dtd">
<!-- Generated by graphviz version 2.40.1 (20161225.0304)
 -->
<!-- Title: /home/travis/build/AliceO2Group/AliceO2/Analysis/DataModel/include/Analysis/SecondaryVertexHF.h Pages: 1 -->
<svg width="3064pt" height="341pt"
 viewBox="0.00 0.00 3063.50 341.00" xmlns="http://www.w3.org/2000/svg" xmlns:xlink="http://www.w3.org/1999/xlink">
<g id="graph0" class="graph" transform="scale(1 1) rotate(0) translate(4 337)">
<title>/home/travis/build/AliceO2Group/AliceO2/Analysis/DataModel/include/Analysis/SecondaryVertexHF.h</title>
<!-- Node0 -->
<g id="node1" class="node">
<title>Node0</title>
<polygon fill="#bfbfbf" stroke="#000000" points="2317,-280.5 2317,-332.5 2484,-332.5 2484,-280.5 2317,-280.5"/>
<text text-anchor="start" x="2325" y="-320.5" font-family="Helvetica,sans-Serif" font-size="10.00" fill="#000000">/home/travis/build</text>
<text text-anchor="start" x="2325" y="-309.5" font-family="Helvetica,sans-Serif" font-size="10.00" fill="#000000">/AliceO2Group/AliceO2</text>
<text text-anchor="start" x="2325" y="-298.5" font-family="Helvetica,sans-Serif" font-size="10.00" fill="#000000">/Analysis/DataModel/include</text>
<text text-anchor="middle" x="2400.5" y="-287.5" font-family="Helvetica,sans-Serif" font-size="10.00" fill="#000000">/Analysis/SecondaryVertexHF.h</text>
</g>
<!-- Node1 -->
<g id="node2" class="node">
<title>Node1</title>
<g id="a_node2"><a xlink:href="../../d2/d8c/AnalysisDataModel_8h.html" target="_top" xlink:title="Framework/AnalysisDataModel.h">
<polygon fill="none" stroke="#000000" points="2254.5,-224.5 2254.5,-243.5 2430.5,-243.5 2430.5,-224.5 2254.5,-224.5"/>
<text text-anchor="middle" x="2342.5" y="-231.5" font-family="Helvetica,sans-Serif" font-size="10.00" fill="#000000">Framework/AnalysisDataModel.h</text>
</a>
</g>
</g>
<!-- Node0&#45;&gt;Node1 -->
<g id="edge1" class="edge">
<title>Node0&#45;&gt;Node1</title>
<path fill="none" stroke="#191970" d="M2379.5607,-280.3258C2371.8705,-270.7131 2363.3588,-260.0735 2356.4339,-251.4174"/>
<polygon fill="#191970" stroke="#191970" points="2359.1072,-249.1563 2350.1272,-243.534 2353.6411,-253.5292 2359.1072,-249.1563"/>
</g>
<!-- Node44 -->
<g id="node45" class="node">
<title>Node44</title>
<g id="a_node45"><a xlink:href="../../dc/dca/RecoDecay_8h.html" target="_top" xlink:title="Implementation of the RecoDecay class. ">
<polygon fill="none" stroke="#000000" points="2560.5,-168.5 2560.5,-187.5 2682.5,-187.5 2682.5,-168.5 2560.5,-168.5"/>
<text text-anchor="middle" x="2621.5" y="-175.5" font-family="Helvetica,sans-Serif" font-size="10.00" fill="#000000">Analysis/RecoDecay.h</text>
</a>
</g>
</g>
<!-- Node0&#45;&gt;Node44 -->
<g id="edge55" class="edge">
<title>Node0&#45;&gt;Node44</title>
<path fill="none" stroke="#191970" d="M2445.2226,-280.4961C2490.6085,-254.1066 2559.2714,-214.1827 2596.0736,-192.7841"/>
<polygon fill="#191970" stroke="#191970" points="2598.2515,-195.5665 2605.1371,-187.5142 2594.7329,-189.515 2598.2515,-195.5665"/>
</g>
<!-- Node2 -->
<g id="node3" class="node">
<title>Node2</title>
<g id="a_node3"><a xlink:href="../../de/d33/ASoA_8h.html" target="_top" xlink:title="Framework/ASoA.h">
<polygon fill="none" stroke="#000000" points="1356.5,-168.5 1356.5,-187.5 1464.5,-187.5 1464.5,-168.5 1356.5,-168.5"/>
<text text-anchor="middle" x="1410.5" y="-175.5" font-family="Helvetica,sans-Serif" font-size="10.00" fill="#000000">Framework/ASoA.h</text>
</a>
</g>
</g>
<!-- Node1&#45;&gt;Node2 -->
<g id="edge2" class="edge">
<title>Node1&#45;&gt;Node2</title>
<path fill="none" stroke="#191970" d="M2254.4,-228.7064C2068.1363,-217.5146 1638.1016,-191.6756 1474.9002,-181.8695"/>
<polygon fill="#191970" stroke="#191970" points="1474.7337,-178.3533 1464.5417,-181.2471 1474.3138,-185.3407 1474.7337,-178.3533"/>
</g>
<!-- Node33 -->
<g id="node34" class="node">
<title>Node33</title>
<g id="a_node34"><a xlink:href="../../d9/d52/Common_2MathUtils_2include_2MathUtils_2Utils_8h.html" target="_top" xlink:title="MathUtils/Utils.h">
<polygon fill="none" stroke="#000000" points="2293.5,-168.5 2293.5,-187.5 2391.5,-187.5 2391.5,-168.5 2293.5,-168.5"/>
<text text-anchor="middle" x="2342.5" y="-175.5" font-family="Helvetica,sans-Serif" font-size="10.00" fill="#000000">MathUtils/Utils.h</text>
</a>
</g>
</g>
<!-- Node1&#45;&gt;Node33 -->
<g id="edge41" class="edge">
<title>Node1&#45;&gt;Node33</title>
<path fill="none" stroke="#191970" d="M2342.5,-224.2455C2342.5,-216.9382 2342.5,-206.6944 2342.5,-197.7046"/>
<polygon fill="#191970" stroke="#191970" points="2346.0001,-197.6426 2342.5,-187.6427 2339.0001,-197.6427 2346.0001,-197.6426"/>
</g>
<!-- Node35 -->
<g id="node36" class="node">
<title>Node35</title>
<polygon fill="none" stroke="#bfbfbf" points="2230,-56.5 2230,-75.5 2277,-75.5 2277,-56.5 2230,-56.5"/>
<text text-anchor="middle" x="2253.5" y="-63.5" font-family="Helvetica,sans-Serif" font-size="10.00" fill="#000000">cmath</text>
</g>
<!-- Node1&#45;&gt;Node35 -->
<g id="edge52" class="edge">
<title>Node1&#45;&gt;Node35</title>
<path fill="none" stroke="#191970" d="M2306.2664,-224.3932C2264.7609,-211.2278 2198.7288,-183.164 2169.5,-132 2154.8703,-106.3912 2190.8293,-87.1305 2220.1722,-76.2129"/>
<polygon fill="#191970" stroke="#191970" points="2221.5136,-79.4514 2229.7871,-72.8332 2219.1922,-72.8475 2221.5136,-79.4514"/>
</g>
<!-- Node42 -->
<g id="node43" class="node">
<title>Node42</title>
<g id="a_node43"><a xlink:href="../../d2/d12/DataTypes_8h.html" target="_top" xlink:title="Framework/DataTypes.h">
<polygon fill="none" stroke="#000000" points="2865.5,-168.5 2865.5,-187.5 2999.5,-187.5 2999.5,-168.5 2865.5,-168.5"/>
<text text-anchor="middle" x="2932.5" y="-175.5" font-family="Helvetica,sans-Serif" font-size="10.00" fill="#000000">Framework/DataTypes.h</text>
</a>
</g>
</g>
<!-- Node1&#45;&gt;Node42 -->
<g id="edge53" class="edge">
<title>Node1&#45;&gt;Node42</title>
<path fill="none" stroke="#191970" d="M2430.5102,-225.6465C2545.6139,-214.7214 2745.468,-195.7522 2855.0767,-185.3486"/>
<polygon fill="#191970" stroke="#191970" points="2855.4485,-188.8292 2865.073,-184.3998 2854.787,-181.8605 2855.4485,-188.8292"/>
</g>
<!-- Node3 -->
<g id="node4" class="node">
<title>Node3</title>
<g id="a_node4"><a xlink:href="../../dd/dce/Pack_8h.html" target="_top" xlink:title="Framework/Pack.h">
<polygon fill="none" stroke="#000000" points="41,-56.5 41,-75.5 146,-75.5 146,-56.5 41,-56.5"/>
<text text-anchor="middle" x="93.5" y="-63.5" font-family="Helvetica,sans-Serif" font-size="10.00" fill="#000000">Framework/Pack.h</text>
</a>
</g>
</g>
<!-- Node2&#45;&gt;Node3 -->
<g id="edge3" class="edge">
<title>Node2&#45;&gt;Node3</title>
<path fill="none" stroke="#191970" d="M1356.2585,-177.8418C1116.5881,-176.9196 162.2072,-170.8144 112.5,-132 98.7203,-121.24 94.4924,-101.1545 93.3951,-85.9558"/>
<polygon fill="#191970" stroke="#191970" points="96.8793,-85.4036 93.0599,-75.5212 89.8829,-85.6285 96.8793,-85.4036"/>
</g>
<!-- Node7 -->
<g id="node8" class="node">
<title>Node7</title>
<g id="a_node8"><a xlink:href="../../d1/d00/CheckTypes_8h.html" target="_top" xlink:title="Framework/CheckTypes.h">
<polygon fill="none" stroke="#000000" points="247.5,-56.5 247.5,-75.5 387.5,-75.5 387.5,-56.5 247.5,-56.5"/>
<text text-anchor="middle" x="317.5" y="-63.5" font-family="Helvetica,sans-Serif" font-size="10.00" fill="#000000">Framework/CheckTypes.h</text>
</a>
</g>
</g>
<!-- Node2&#45;&gt;Node7 -->
<g id="edge7" class="edge">
<title>Node2&#45;&gt;Node7</title>
<path fill="none" stroke="#191970" d="M1356.4198,-176.7233C1235.3224,-173.3966 933.3016,-162.4949 682.5,-132 570.8487,-118.4243 441.6464,-92.6509 370.8142,-77.6433"/>
<polygon fill="#191970" stroke="#191970" points="371.3059,-74.1696 360.7962,-75.5099 369.8478,-81.0161 371.3059,-74.1696"/>
</g>
<!-- Node8 -->
<g id="node9" class="node">
<title>Node8</title>
<g id="a_node9"><a xlink:href="../../de/d9b/FunctionalHelpers_8h.html" target="_top" xlink:title="Framework/FunctionalHelpers.h">
<polygon fill="none" stroke="#000000" points="121.5,-112.5 121.5,-131.5 291.5,-131.5 291.5,-112.5 121.5,-112.5"/>
<text text-anchor="middle" x="206.5" y="-119.5" font-family="Helvetica,sans-Serif" font-size="10.00" fill="#000000">Framework/FunctionalHelpers.h</text>
</a>
</g>
</g>
<!-- Node2&#45;&gt;Node8 -->
<g id="edge8" class="edge">
<title>Node2&#45;&gt;Node8</title>
<path fill="none" stroke="#191970" d="M1356.3566,-175.6821C1204.7763,-169.1631 763.2641,-149.9706 396.5,-132 365.6729,-130.4895 332.0376,-128.7495 301.7507,-127.1487"/>
<polygon fill="#191970" stroke="#191970" points="301.788,-123.6459 291.6168,-126.6117 301.4176,-130.6361 301.788,-123.6459"/>
</g>
<!-- Node10 -->
<g id="node11" class="node">
<title>Node10</title>
<g id="a_node11"><a xlink:href="../../d9/de8/CompilerBuiltins_8h.html" target="_top" xlink:title="Framework/CompilerBuiltins.h">
<polygon fill="none" stroke="#000000" points="405.5,-56.5 405.5,-75.5 569.5,-75.5 569.5,-56.5 405.5,-56.5"/>
<text text-anchor="middle" x="487.5" y="-63.5" font-family="Helvetica,sans-Serif" font-size="10.00" fill="#000000">Framework/CompilerBuiltins.h</text>
</a>
</g>
</g>
<!-- Node2&#45;&gt;Node10 -->
<g id="edge11" class="edge">
<title>Node2&#45;&gt;Node10</title>
<path fill="none" stroke="#191970" d="M1356.1134,-176.3806C1248.8055,-172.643 1002.4485,-161.3701 797.5,-132 703.2725,-118.4967 594.8355,-93.105 534.4211,-78.0582"/>
<polygon fill="#191970" stroke="#191970" points="534.981,-74.5903 524.4302,-75.5549 533.2797,-81.3804 534.981,-74.5903"/>
</g>
<!-- Node11 -->
<g id="node12" class="node">
<title>Node11</title>
<g id="a_node12"><a xlink:href="../../db/d31/Traits_8h.html" target="_top" xlink:title="Framework/Traits.h">
<polygon fill="none" stroke="#000000" points="1477,-112.5 1477,-131.5 1586,-131.5 1586,-112.5 1477,-112.5"/>
<text text-anchor="middle" x="1531.5" y="-119.5" font-family="Helvetica,sans-Serif" font-size="10.00" fill="#000000">Framework/Traits.h</text>
</a>
</g>
</g>
<!-- Node2&#45;&gt;Node11 -->
<g id="edge12" class="edge">
<title>Node2&#45;&gt;Node11</title>
<path fill="none" stroke="#191970" d="M1431.3006,-168.3733C1450.7243,-159.3838 1479.9224,-145.8706 1501.7964,-135.7471"/>
<polygon fill="#191970" stroke="#191970" points="1503.3656,-138.8776 1510.9708,-131.5011 1500.4255,-132.5249 1503.3656,-138.8776"/>
</g>
<!-- Node13 -->
<g id="node14" class="node">
<title>Node13</title>
<g id="a_node14"><a xlink:href="../../d0/d91/Expressions_8h.html" target="_top" xlink:title="Framework/Expressions.h">
<polygon fill="none" stroke="#000000" points="1203,-112.5 1203,-131.5 1344,-131.5 1344,-112.5 1203,-112.5"/>
<text text-anchor="middle" x="1273.5" y="-119.5" font-family="Helvetica,sans-Serif" font-size="10.00" fill="#000000">Framework/Expressions.h</text>
</a>
</g>
</g>
<!-- Node2&#45;&gt;Node13 -->
<g id="edge14" class="edge">
<title>Node2&#45;&gt;Node13</title>
<path fill="none" stroke="#191970" d="M1386.9489,-168.3733C1364.6609,-159.2629 1331.0063,-145.5062 1306.1363,-135.3404"/>
<polygon fill="#191970" stroke="#191970" points="1307.3247,-132.0451 1296.7438,-131.5011 1304.6761,-138.5247 1307.3247,-132.0451"/>
</g>
<!-- Node19 -->
<g id="node20" class="node">
<title>Node19</title>
<polygon fill="none" stroke="#bfbfbf" points="1782,-56.5 1782,-75.5 1863,-75.5 1863,-56.5 1782,-56.5"/>
<text text-anchor="middle" x="1822.5" y="-63.5" font-family="Helvetica,sans-Serif" font-size="10.00" fill="#000000">arrow/table.h</text>
</g>
<!-- Node2&#45;&gt;Node19 -->
<g id="edge34" class="edge">
<title>Node2&#45;&gt;Node19</title>
<path fill="none" stroke="#191970" d="M1403.7816,-168.1286C1395.0018,-153.8936 1382.3197,-127.6029 1396.5,-112 1423.2383,-82.5794 1699.4533,-82.0883 1771.7935,-75.6213"/>
<polygon fill="#191970" stroke="#191970" points="1772.3574,-79.08 1781.9013,-74.4797 1771.5717,-72.1242 1772.3574,-79.08"/>
</g>
<!-- Node20 -->
<g id="node21" class="node">
<title>Node20</title>
<polygon fill="none" stroke="#bfbfbf" points="1881,-56.5 1881,-75.5 2028,-75.5 2028,-56.5 1881,-56.5"/>
<text text-anchor="middle" x="1954.5" y="-63.5" font-family="Helvetica,sans-Serif" font-size="10.00" fill="#000000">gandiva/selection_vector.h</text>
</g>
<!-- Node2&#45;&gt;Node20 -->
<g id="edge38" class="edge">
<title>Node2&#45;&gt;Node20</title>
<path fill="none" stroke="#191970" d="M1410.9357,-168.0196C1412.1733,-153.1438 1416.8631,-125.4664 1434.5,-112 1471.4078,-83.8195 1790.9178,-81.1188 1870.7695,-75.8337"/>
<polygon fill="#191970" stroke="#191970" points="1871.0622,-79.3216 1880.7498,-75.0319 1870.5016,-72.3441 1871.0622,-79.3216"/>
</g>
<!-- Node24 -->
<g id="node25" class="node">
<title>Node24</title>
<polygon fill="none" stroke="#bfbfbf" points="2046,-56.5 2046,-75.5 2125,-75.5 2125,-56.5 2046,-56.5"/>
<text text-anchor="middle" x="2085.5" y="-63.5" font-family="Helvetica,sans-Serif" font-size="10.00" fill="#000000">fmt/format.h</text>
</g>
<!-- Node2&#45;&gt;Node24 -->
<g id="edge40" class="edge">
<title>Node2&#45;&gt;Node24</title>
<path fill="none" stroke="#191970" d="M1415.569,-168.2142C1424.0183,-153.0637 1442.5481,-124.3876 1467.5,-112 1578.2112,-57.0363 1894.9284,-90.9538 2035.7623,-75.7825"/>
<polygon fill="#191970" stroke="#191970" points="2036.4895,-79.2203 2045.999,-74.5492 2035.6521,-72.2706 2036.4895,-79.2203"/>
</g>
<!-- Node28 -->
<g id="node29" class="node">
<title>Node28</title>
<g id="a_node29"><a xlink:href="../../d4/de7/ArrowTypes_8h.html" target="_top" xlink:title="Framework/ArrowTypes.h">
<polygon fill="none" stroke="#000000" points="807,-112.5 807,-131.5 946,-131.5 946,-112.5 807,-112.5"/>
<text text-anchor="middle" x="876.5" y="-119.5" font-family="Helvetica,sans-Serif" font-size="10.00" fill="#000000">Framework/ArrowTypes.h</text>
</a>
</g>
</g>
<!-- Node2&#45;&gt;Node28 -->
<g id="edge32" class="edge">
<title>Node2&#45;&gt;Node28</title>
<path fill="none" stroke="#191970" d="M1356.3585,-172.3222C1261.8648,-162.4128 1066.4341,-141.9182 956.3597,-130.3748"/>
<polygon fill="#191970" stroke="#191970" points="956.6164,-126.8826 946.3058,-129.3205 955.8862,-133.8444 956.6164,-126.8826"/>
</g>
<!-- Node29 -->
<g id="node30" class="node">
<title>Node29</title>
<polygon fill="none" stroke="#bfbfbf" points="1604.5,-112.5 1604.5,-131.5 1684.5,-131.5 1684.5,-112.5 1604.5,-112.5"/>
<text text-anchor="middle" x="1644.5" y="-119.5" font-family="Helvetica,sans-Serif" font-size="10.00" fill="#000000">arrow/array.h</text>
</g>
<!-- Node2&#45;&gt;Node29 -->
<g id="edge35" class="edge">
<title>Node2&#45;&gt;Node29</title>
<path fill="none" stroke="#191970" d="M1450.4602,-168.4369C1490.3392,-158.8932 1551.7139,-144.2052 1594.7328,-133.9101"/>
<polygon fill="#191970" stroke="#191970" points="1595.7939,-137.2551 1604.7047,-131.5237 1594.1646,-130.4473 1595.7939,-137.2551"/>
</g>
<!-- Node30 -->
<g id="node31" class="node">
<title>Node30</title>
<polygon fill="none" stroke="#bfbfbf" points="1702.5,-112.5 1702.5,-131.5 1812.5,-131.5 1812.5,-112.5 1702.5,-112.5"/>
<text text-anchor="middle" x="1757.5" y="-119.5" font-family="Helvetica,sans-Serif" font-size="10.00" fill="#000000">arrow/util/variant.h</text>
</g>
<!-- Node2&#45;&gt;Node30 -->
<g id="edge36" class="edge">
<title>Node2&#45;&gt;Node30</title>
<path fill="none" stroke="#191970" d="M1464.7188,-169.25C1526.1456,-159.3367 1626.2353,-143.1839 1691.9831,-132.5733"/>
<polygon fill="#191970" stroke="#191970" points="1692.9145,-135.9684 1702.2291,-130.9198 1691.7992,-129.0578 1692.9145,-135.9684"/>
</g>
<!-- Node31 -->
<g id="node32" class="node">
<title>Node31</title>
<polygon fill="none" stroke="#bfbfbf" points="1831,-112.5 1831,-131.5 1964,-131.5 1964,-112.5 1831,-112.5"/>
<text text-anchor="middle" x="1897.5" y="-119.5" font-family="Helvetica,sans-Serif" font-size="10.00" fill="#000000">arrow/compute/kernel.h</text>
</g>
<!-- Node2&#45;&gt;Node31 -->
<g id="edge37" class="edge">
<title>Node2&#45;&gt;Node31</title>
<path fill="none" stroke="#191970" d="M1464.7252,-172.2692C1541.4723,-164.0832 1686.4437,-148.3455 1820.7216,-132.0755"/>
<polygon fill="#191970" stroke="#191970" points="1821.2764,-135.5339 1830.7812,-130.8531 1820.432,-128.585 1821.2764,-135.5339"/>
</g>
<!-- Node32 -->
<g id="node33" class="node">
<title>Node32</title>
<polygon fill="none" stroke="#bfbfbf" points="1982.5,-112.5 1982.5,-131.5 2034.5,-131.5 2034.5,-112.5 1982.5,-112.5"/>
<text text-anchor="middle" x="2008.5" y="-119.5" font-family="Helvetica,sans-Serif" font-size="10.00" fill="#000000">cassert</text>
</g>
<!-- Node2&#45;&gt;Node32 -->
<g id="edge39" class="edge">
<title>Node2&#45;&gt;Node32</title>
<path fill="none" stroke="#191970" d="M1464.7966,-176.9627C1565.5983,-174.2849 1788.1768,-164.8386 1972.5,-132 1972.5998,-131.9822 1972.6997,-131.9643 1972.7997,-131.9462"/>
<polygon fill="#191970" stroke="#191970" points="1973.2492,-135.4298 1982.2861,-129.8995 1971.7729,-128.5873 1973.2492,-135.4298"/>
</g>
<!-- Node4 -->
<g id="node5" class="node">
<title>Node4</title>
<polygon fill="none" stroke="#bfbfbf" points="0,-.5 0,-19.5 53,-19.5 53,-.5 0,-.5"/>
<text text-anchor="middle" x="26.5" y="-7.5" font-family="Helvetica,sans-Serif" font-size="10.00" fill="#000000">cstddef</text>
</g>
<!-- Node3&#45;&gt;Node4 -->
<g id="edge4" class="edge">
<title>Node3&#45;&gt;Node4</title>
<path fill="none" stroke="#191970" d="M81.8295,-56.2455C71.9339,-47.9746 57.5373,-35.9416 45.9099,-26.2232"/>
<polygon fill="#191970" stroke="#191970" points="47.9542,-23.3703 38.0368,-19.6427 43.465,-28.7413 47.9542,-23.3703"/>
</g>
<!-- Node5 -->
<g id="node6" class="node">
<title>Node5</title>
<polygon fill="none" stroke="#bfbfbf" points="71,-.5 71,-19.5 116,-19.5 116,-.5 71,-.5"/>
<text text-anchor="middle" x="93.5" y="-7.5" font-family="Helvetica,sans-Serif" font-size="10.00" fill="#000000">utility</text>
</g>
<!-- Node3&#45;&gt;Node5 -->
<g id="edge5" class="edge">
<title>Node3&#45;&gt;Node5</title>
<path fill="none" stroke="#191970" d="M93.5,-56.2455C93.5,-48.9382 93.5,-38.6944 93.5,-29.7046"/>
<polygon fill="#191970" stroke="#191970" points="97.0001,-29.6426 93.5,-19.6427 90.0001,-29.6427 97.0001,-29.6426"/>
</g>
<!-- Node6 -->
<g id="node7" class="node">
<title>Node6</title>
<polygon fill="none" stroke="#bfbfbf" points="134.5,-.5 134.5,-19.5 180.5,-19.5 180.5,-.5 134.5,-.5"/>
<text text-anchor="middle" x="157.5" y="-7.5" font-family="Helvetica,sans-Serif" font-size="10.00" fill="#000000">cstdio</text>
</g>
<!-- Node3&#45;&gt;Node6 -->
<g id="edge6" class="edge">
<title>Node3&#45;&gt;Node6</title>
<path fill="none" stroke="#191970" d="M104.6479,-56.2455C114.0087,-48.0549 127.5858,-36.1749 138.6349,-26.5069"/>
<polygon fill="#191970" stroke="#191970" points="141.2588,-28.8618 146.4798,-19.6427 136.6492,-23.5937 141.2588,-28.8618"/>
</g>
<!-- Node8&#45;&gt;Node3 -->
<g id="edge9" class="edge">
<title>Node8&#45;&gt;Node3</title>
<path fill="none" stroke="#191970" d="M187.0746,-112.3733C169.0979,-103.4644 142.1559,-90.1127 121.791,-80.0203"/>
<polygon fill="#191970" stroke="#191970" points="123.1861,-76.8055 112.6719,-75.5011 120.0778,-83.0776 123.1861,-76.8055"/>
</g>
<!-- Node9 -->
<g id="node10" class="node">
<title>Node9</title>
<polygon fill="none" stroke="#bfbfbf" points="164,-56.5 164,-75.5 229,-75.5 229,-56.5 164,-56.5"/>
<text text-anchor="middle" x="196.5" y="-63.5" font-family="Helvetica,sans-Serif" font-size="10.00" fill="#000000">functional</text>
</g>
<!-- Node8&#45;&gt;Node9 -->
<g id="edge10" class="edge">
<title>Node8&#45;&gt;Node9</title>
<path fill="none" stroke="#191970" d="M204.7581,-112.2455C203.4533,-104.9382 201.624,-94.6944 200.0187,-85.7046"/>
<polygon fill="#191970" stroke="#191970" points="203.4254,-84.8717 198.2219,-75.6427 196.5344,-86.1022 203.4254,-84.8717"/>
</g>
<!-- Node12 -->
<g id="node13" class="node">
<title>Node12</title>
<polygon fill="none" stroke="#bfbfbf" points="2143,-56.5 2143,-75.5 2212,-75.5 2212,-56.5 2143,-56.5"/>
<text text-anchor="middle" x="2177.5" y="-63.5" font-family="Helvetica,sans-Serif" font-size="10.00" fill="#000000">type_traits</text>
</g>
<!-- Node11&#45;&gt;Node12 -->
<g id="edge13" class="edge">
<title>Node11&#45;&gt;Node12</title>
<path fill="none" stroke="#191970" d="M1586.2702,-113.117C1589.3892,-112.7125 1592.4823,-112.3361 1595.5,-112 1830.4172,-85.839 1894.6268,-109.9826 2132.5343,-75.9181"/>
<polygon fill="#191970" stroke="#191970" points="2133.1349,-79.3677 2142.5285,-74.4677 2132.1295,-72.4403 2133.1349,-79.3677"/>
</g>
<!-- Node13&#45;&gt;Node3 -->
<g id="edge17" class="edge">
<title>Node13&#45;&gt;Node3</title>
<path fill="none" stroke="#191970" d="M1202.9917,-119.6006C979.7807,-111.9373 295.62,-87.9081 156.1325,-75.9678"/>
<polygon fill="#191970" stroke="#191970" points="156.3002,-72.4684 146.0184,-75.0249 155.6503,-79.4382 156.3002,-72.4684"/>
</g>
<!-- Node13&#45;&gt;Node7 -->
<g id="edge18" class="edge">
<title>Node13&#45;&gt;Node7</title>
<path fill="none" stroke="#191970" d="M1202.8952,-120.0578C1055.4121,-115.6179 703.6818,-103.0309 398.0773,-76.0796"/>
<polygon fill="#191970" stroke="#191970" points="397.9529,-72.5548 387.6823,-75.1557 397.3331,-79.5273 397.9529,-72.5548"/>
</g>
<!-- Node13&#45;&gt;Node10 -->
<g id="edge16" class="edge">
<title>Node13&#45;&gt;Node10</title>
<path fill="none" stroke="#191970" d="M1202.8847,-118.3403C1078.98,-111.6957 814.1054,-96.4987 579.8968,-76.091"/>
<polygon fill="#191970" stroke="#191970" points="580.0914,-72.5947 569.824,-75.2084 579.4803,-79.568 580.0914,-72.5947"/>
</g>
<!-- Node14 -->
<g id="node15" class="node">
<title>Node14</title>
<g id="a_node15"><a xlink:href="../../dd/dc2/BasicOps_8h.html" target="_top" xlink:title="Framework/BasicOps.h">
<polygon fill="none" stroke="#000000" points="707.5,-56.5 707.5,-75.5 835.5,-75.5 835.5,-56.5 707.5,-56.5"/>
<text text-anchor="middle" x="771.5" y="-63.5" font-family="Helvetica,sans-Serif" font-size="10.00" fill="#000000">Framework/BasicOps.h</text>
</a>
</g>
</g>
<!-- Node13&#45;&gt;Node14 -->
<g id="edge15" class="edge">
<title>Node13&#45;&gt;Node14</title>
<path fill="none" stroke="#191970" d="M1202.8288,-115.0634C1119.8982,-106.7791 977.9655,-92.1521 845.8822,-76.1405"/>
<polygon fill="#191970" stroke="#191970" points="845.93,-72.6205 835.5803,-74.8863 845.084,-79.5692 845.93,-72.6205"/>
</g>
<!-- Node15 -->
<g id="node16" class="node">
<title>Node15</title>
<polygon fill="none" stroke="#bfbfbf" points="588,-56.5 588,-75.5 689,-75.5 689,-56.5 588,-56.5"/>
<text text-anchor="middle" x="638.5" y="-63.5" font-family="Helvetica,sans-Serif" font-size="10.00" fill="#000000">arrow/type_fwd.h</text>
</g>
<!-- Node13&#45;&gt;Node15 -->
<g id="edge19" class="edge">
<title>Node13&#45;&gt;Node15</title>
<path fill="none" stroke="#191970" d="M1202.934,-118.2989C1096.2041,-112.2704 887.1608,-98.7852 699.2599,-75.9938"/>
<polygon fill="#191970" stroke="#191970" points="699.5461,-72.5028 689.1948,-74.7615 698.6953,-79.4509 699.5461,-72.5028"/>
</g>
<!-- Node16 -->
<g id="node17" class="node">
<title>Node16</title>
<polygon fill="none" stroke="#bfbfbf" points="853.5,-56.5 853.5,-75.5 999.5,-75.5 999.5,-56.5 853.5,-56.5"/>
<text text-anchor="middle" x="926.5" y="-63.5" font-family="Helvetica,sans-Serif" font-size="10.00" fill="#000000">gandiva/gandiva_aliases.h</text>
</g>
<!-- Node13&#45;&gt;Node16 -->
<g id="edge20" class="edge">
<title>Node13&#45;&gt;Node16</title>
<path fill="none" stroke="#191970" d="M1214.2428,-112.4369C1153.6089,-102.6516 1059.4644,-87.4582 995.5083,-77.1368"/>
<polygon fill="#191970" stroke="#191970" points="995.9427,-73.6617 985.5127,-75.5237 994.8274,-80.5723 995.9427,-73.6617"/>
</g>
<!-- Node17 -->
<g id="node18" class="node">
<title>Node17</title>
<polygon fill="none" stroke="#bfbfbf" points="1017.5,-56.5 1017.5,-75.5 1095.5,-75.5 1095.5,-56.5 1017.5,-56.5"/>
<text text-anchor="middle" x="1056.5" y="-63.5" font-family="Helvetica,sans-Serif" font-size="10.00" fill="#000000">arrow/type.h</text>
</g>
<!-- Node13&#45;&gt;Node17 -->
<g id="edge21" class="edge">
<title>Node13&#45;&gt;Node17</title>
<path fill="none" stroke="#191970" d="M1236.1964,-112.3733C1199.3315,-102.8598 1142.834,-88.2797 1103.0494,-78.0127"/>
<polygon fill="#191970" stroke="#191970" points="1103.8742,-74.611 1093.3169,-75.5011 1102.125,-81.3889 1103.8742,-74.611"/>
</g>
<!-- Node18 -->
<g id="node19" class="node">
<title>Node18</title>
<polygon fill="none" stroke="#bfbfbf" points="1114,-56.5 1114,-75.5 1209,-75.5 1209,-56.5 1114,-56.5"/>
<text text-anchor="middle" x="1161.5" y="-63.5" font-family="Helvetica,sans-Serif" font-size="10.00" fill="#000000">gandiva/arrow.h</text>
</g>
<!-- Node13&#45;&gt;Node18 -->
<g id="edge22" class="edge">
<title>Node13&#45;&gt;Node18</title>
<path fill="none" stroke="#191970" d="M1254.2465,-112.3733C1236.4288,-103.4644 1209.7253,-90.1127 1189.5406,-80.0203"/>
<polygon fill="#191970" stroke="#191970" points="1191.0118,-76.8428 1180.5022,-75.5011 1187.8813,-83.1038 1191.0118,-76.8428"/>
</g>
<!-- Node13&#45;&gt;Node19 -->
<g id="edge23" class="edge">
<title>Node13&#45;&gt;Node19</title>
<path fill="none" stroke="#191970" d="M1344.4435,-113.4905C1349.1988,-112.9705 1353.9177,-112.4687 1358.5,-112 1539.0061,-93.5382 1587.9568,-101.845 1771.9008,-75.9336"/>
<polygon fill="#191970" stroke="#191970" points="1772.4987,-79.3839 1781.9057,-74.5095 1771.5122,-72.4537 1772.4987,-79.3839"/>
</g>
<!-- Node13&#45;&gt;Node20 -->
<g id="edge24" class="edge">
<title>Node13&#45;&gt;Node20</title>
<path fill="none" stroke="#191970" d="M1344.0668,-116.1961C1361.2237,-114.8035 1379.5197,-113.3337 1396.5,-112 1604.2686,-95.6809 1659.0927,-96.6329 1870.5626,-76.0534"/>
<polygon fill="#191970" stroke="#191970" points="1871.1404,-79.5137 1880.7523,-75.057 1870.4591,-72.5469 1871.1404,-79.5137"/>
</g>
<!-- Node21 -->
<g id="node22" class="node">
<title>Node21</title>
<polygon fill="none" stroke="#bfbfbf" points="1227.5,-56.5 1227.5,-75.5 1319.5,-75.5 1319.5,-56.5 1227.5,-56.5"/>
<text text-anchor="middle" x="1273.5" y="-63.5" font-family="Helvetica,sans-Serif" font-size="10.00" fill="#000000">gandiva/node.h</text>
</g>
<!-- Node13&#45;&gt;Node21 -->
<g id="edge25" class="edge">
<title>Node13&#45;&gt;Node21</title>
<path fill="none" stroke="#191970" d="M1273.5,-112.2455C1273.5,-104.9382 1273.5,-94.6944 1273.5,-85.7046"/>
<polygon fill="#191970" stroke="#191970" points="1277.0001,-85.6426 1273.5,-75.6427 1270.0001,-85.6427 1277.0001,-85.6426"/>
</g>
<!-- Node22 -->
<g id="node23" class="node">
<title>Node22</title>
<polygon fill="none" stroke="#bfbfbf" points="1338,-56.5 1338,-75.5 1427,-75.5 1427,-56.5 1338,-56.5"/>
<text text-anchor="middle" x="1382.5" y="-63.5" font-family="Helvetica,sans-Serif" font-size="10.00" fill="#000000">gandiva/filter.h</text>
</g>
<!-- Node13&#45;&gt;Node22 -->
<g id="edge26" class="edge">
<title>Node13&#45;&gt;Node22</title>
<path fill="none" stroke="#191970" d="M1292.4864,-112.2455C1309.6792,-103.4125 1335.2238,-90.2887 1354.7132,-80.2758"/>
<polygon fill="#191970" stroke="#191970" points="1356.4359,-83.3257 1363.7312,-75.6427 1353.237,-77.0993 1356.4359,-83.3257"/>
</g>
<!-- Node23 -->
<g id="node24" class="node">
<title>Node23</title>
<polygon fill="none" stroke="#bfbfbf" points="1445.5,-56.5 1445.5,-75.5 1555.5,-75.5 1555.5,-56.5 1445.5,-56.5"/>
<text text-anchor="middle" x="1500.5" y="-63.5" font-family="Helvetica,sans-Serif" font-size="10.00" fill="#000000">gandiva/projector.h</text>
</g>
<!-- Node13&#45;&gt;Node23 -->
<g id="edge27" class="edge">
<title>Node13&#45;&gt;Node23</title>
<path fill="none" stroke="#191970" d="M1312.2648,-112.4369C1350.8692,-102.9133 1410.2384,-88.2672 1451.9572,-77.9753"/>
<polygon fill="#191970" stroke="#191970" points="1453.0245,-81.317 1461.8951,-75.5237 1451.3479,-74.5208 1453.0245,-81.317"/>
</g>
<!-- Node13&#45;&gt;Node24 -->
<g id="edge28" class="edge">
<title>Node13&#45;&gt;Node24</title>
<path fill="none" stroke="#191970" d="M1344.031,-117.5839C1372.1736,-115.8311 1404.8694,-113.8062 1434.5,-112 1698.7711,-95.891 1769.0393,-110.5191 2035.7547,-75.9118"/>
<polygon fill="#191970" stroke="#191970" points="2036.2722,-79.374 2045.7335,-74.6061 2035.3639,-72.4332 2036.2722,-79.374"/>
</g>
<!-- Node25 -->
<g id="node26" class="node">
<title>Node25</title>
<polygon fill="none" stroke="#bfbfbf" points="1574,-56.5 1574,-75.5 1625,-75.5 1625,-56.5 1574,-56.5"/>
<text text-anchor="middle" x="1599.5" y="-63.5" font-family="Helvetica,sans-Serif" font-size="10.00" fill="#000000">variant</text>
</g>
<!-- Node13&#45;&gt;Node25 -->
<g id="edge29" class="edge">
<title>Node13&#45;&gt;Node25</title>
<path fill="none" stroke="#191970" d="M1344.2167,-113.2696C1401.1121,-105.6843 1483.2417,-93.4761 1564.1218,-75.8556"/>
<polygon fill="#191970" stroke="#191970" points="1564.9669,-79.2534 1573.9773,-73.6798 1563.4579,-72.4179 1564.9669,-79.2534"/>
</g>
<!-- Node26 -->
<g id="node27" class="node">
<title>Node26</title>
<polygon fill="none" stroke="#bfbfbf" points="1643.5,-56.5 1643.5,-75.5 1687.5,-75.5 1687.5,-56.5 1643.5,-56.5"/>
<text text-anchor="middle" x="1665.5" y="-63.5" font-family="Helvetica,sans-Serif" font-size="10.00" fill="#000000">string</text>
</g>
<!-- Node13&#45;&gt;Node26 -->
<g id="edge30" class="edge">
<title>Node13&#45;&gt;Node26</title>
<path fill="none" stroke="#191970" d="M1344.1381,-113.6513C1440.9223,-102.1082 1605.9529,-82.0152 1633.5,-76 1633.5995,-75.9783 1633.6992,-75.9564 1633.7989,-75.9343"/>
<polygon fill="#191970" stroke="#191970" points="1634.4428,-79.3827 1643.2547,-73.5006 1632.6979,-72.6037 1634.4428,-79.3827"/>
</g>
<!-- Node27 -->
<g id="node28" class="node">
<title>Node27</title>
<polygon fill="none" stroke="#bfbfbf" points="1705.5,-56.5 1705.5,-75.5 1763.5,-75.5 1763.5,-56.5 1705.5,-56.5"/>
<text text-anchor="middle" x="1734.5" y="-63.5" font-family="Helvetica,sans-Serif" font-size="10.00" fill="#000000">memory</text>
</g>
<!-- Node13&#45;&gt;Node27 -->
<g id="edge31" class="edge">
<title>Node13&#45;&gt;Node27</title>
<path fill="none" stroke="#191970" d="M1344.4545,-113.5933C1349.2071,-113.0484 1353.9225,-112.513 1358.5,-112 1505.4065,-95.5355 1546.1764,-102.9637 1695.1679,-76.0204"/>
<polygon fill="#191970" stroke="#191970" points="1695.9339,-79.4384 1705.1404,-74.1953 1694.6737,-72.5528 1695.9339,-79.4384"/>
</g>
<!-- Node28&#45;&gt;Node15 -->
<g id="edge33" class="edge">
<title>Node28&#45;&gt;Node15</title>
<path fill="none" stroke="#191970" d="M835.8568,-112.4369C795.2105,-102.8731 732.6087,-88.1432 688.8413,-77.845"/>
<polygon fill="#191970" stroke="#191970" points="689.5114,-74.4072 678.9756,-75.5237 687.9081,-81.2211 689.5114,-74.4072"/>
</g>
<!-- Node34 -->
<g id="node35" class="node">
<title>Node34</title>
<polygon fill="none" stroke="#bfbfbf" points="2186.5,-112.5 2186.5,-131.5 2228.5,-131.5 2228.5,-112.5 2186.5,-112.5"/>
<text text-anchor="middle" x="2207.5" y="-119.5" font-family="Helvetica,sans-Serif" font-size="10.00" fill="#000000">array</text>
</g>
<!-- Node33&#45;&gt;Node34 -->
<g id="edge42" class="edge">
<title>Node33&#45;&gt;Node34</title>
<path fill="none" stroke="#191970" d="M2319.2927,-168.3733C2296.7977,-159.042 2262.5523,-144.8365 2237.8931,-134.6075"/>
<polygon fill="#191970" stroke="#191970" points="2239.2076,-131.3636 2228.6297,-130.7649 2236.5254,-137.8294 2239.2076,-131.3636"/>
</g>
<!-- Node33&#45;&gt;Node35 -->
<g id="edge43" class="edge">
<title>Node33&#45;&gt;Node35</title>
<path fill="none" stroke="#191970" d="M2293.4761,-170.9537C2250.1035,-163.5975 2191.5727,-150.5327 2177.5,-132 2160.9561,-110.213 2193.0638,-90.3921 2220.5087,-78.2796"/>
<polygon fill="#191970" stroke="#191970" points="2222.0665,-81.4216 2229.9345,-74.3261 2219.359,-74.9665 2222.0665,-81.4216"/>
</g>
<!-- Node36 -->
<g id="node37" class="node">
<title>Node36</title>
<g id="a_node37"><a xlink:href="../../df/d21/GPUCommonDef_8h.html" target="_top" xlink:title="GPUCommonDef.h">
<polygon fill="none" stroke="#000000" points="2378,-56.5 2378,-75.5 2485,-75.5 2485,-56.5 2378,-56.5"/>
<text text-anchor="middle" x="2431.5" y="-63.5" font-family="Helvetica,sans-Serif" font-size="10.00" fill="#000000">GPUCommonDef.h</text>
</a>
</g>
</g>
<!-- Node33&#45;&gt;Node36 -->
<g id="edge44" class="edge">
<title>Node33&#45;&gt;Node36</title>
<path fill="none" stroke="#191970" d="M2362.3674,-168.4928C2376.985,-160.578 2396.349,-148.0266 2408.5,-132 2418.7966,-118.4193 2424.7181,-99.8738 2427.9659,-85.8993"/>
<polygon fill="#191970" stroke="#191970" points="2431.4455,-86.354 2430.0298,-75.8542 2424.5887,-84.9451 2431.4455,-86.354"/>
</g>
<!-- Node39 -->
<g id="node40" class="node">
<title>Node39</title>
<g id="a_node40"><a xlink:href="../../d6/da2/GPUCommonMath_8h.html" target="_top" xlink:title="GPUCommonMath.h">
<polygon fill="none" stroke="#000000" points="2285,-112.5 2285,-131.5 2400,-131.5 2400,-112.5 2285,-112.5"/>
<text text-anchor="middle" x="2342.5" y="-119.5" font-family="Helvetica,sans-Serif" font-size="10.00" fill="#000000">GPUCommonMath.h</text>
</a>
</g>
</g>
<!-- Node33&#45;&gt;Node39 -->
<g id="edge47" class="edge">
<title>Node33&#45;&gt;Node39</title>
<path fill="none" stroke="#191970" d="M2342.5,-168.2455C2342.5,-160.9382 2342.5,-150.6944 2342.5,-141.7046"/>
<polygon fill="#191970" stroke="#191970" points="2346.0001,-141.6426 2342.5,-131.6427 2339.0001,-141.6427 2346.0001,-141.6426"/>
</g>
<!-- Node41 -->
<g id="node42" class="node">
<title>Node41</title>
<g id="a_node42"><a xlink:href="../../d6/d84/MathConstants_8h.html" target="_top" xlink:title="useful math constants ">
<polygon fill="none" stroke="#000000" points="2456.5,-112.5 2456.5,-131.5 2650.5,-131.5 2650.5,-112.5 2456.5,-112.5"/>
<text text-anchor="middle" x="2553.5" y="-119.5" font-family="Helvetica,sans-Serif" font-size="10.00" fill="#000000">CommonConstants/MathConstants.h</text>
</a>
</g>
</g>
<!-- Node33&#45;&gt;Node41 -->
<g id="edge51" class="edge">
<title>Node33&#45;&gt;Node41</title>
<path fill="none" stroke="#191970" d="M2378.7722,-168.3733C2414.4658,-158.9001 2469.0879,-144.4032 2507.7451,-134.1435"/>
<polygon fill="#191970" stroke="#191970" points="2508.9336,-137.4493 2517.7011,-131.5011 2507.1379,-130.6835 2508.9336,-137.4493"/>
</g>
<!-- Node37 -->
<g id="node38" class="node">
<title>Node37</title>
<g id="a_node38"><a xlink:href="../../d5/d93/GPUCommonDefSettings_8h.html" target="_top" xlink:title="GPUCommonDefSettings.h">
<polygon fill="none" stroke="#000000" points="2280.5,-.5 2280.5,-19.5 2428.5,-19.5 2428.5,-.5 2280.5,-.5"/>
<text text-anchor="middle" x="2354.5" y="-7.5" font-family="Helvetica,sans-Serif" font-size="10.00" fill="#000000">GPUCommonDefSettings.h</text>
</a>
</g>
</g>
<!-- Node36&#45;&gt;Node37 -->
<g id="edge45" class="edge">
<title>Node36&#45;&gt;Node37</title>
<path fill="none" stroke="#191970" d="M2418.0876,-56.2455C2406.4943,-47.814 2389.5252,-35.4729 2376.0322,-25.6598"/>
<polygon fill="#191970" stroke="#191970" points="2377.9047,-22.6938 2367.7587,-19.6427 2373.7874,-28.355 2377.9047,-22.6938"/>
</g>
<!-- Node38 -->
<g id="node39" class="node">
<title>Node38</title>
<g id="a_node39"><a xlink:href="../../da/d5a/GPUCommonDefAPI_8h.html" target="_top" xlink:title="GPUCommonDefAPI.h">
<polygon fill="none" stroke="#000000" points="2446.5,-.5 2446.5,-19.5 2570.5,-19.5 2570.5,-.5 2446.5,-.5"/>
<text text-anchor="middle" x="2508.5" y="-7.5" font-family="Helvetica,sans-Serif" font-size="10.00" fill="#000000">GPUCommonDefAPI.h</text>
</a>
</g>
</g>
<!-- Node36&#45;&gt;Node38 -->
<g id="edge46" class="edge">
<title>Node36&#45;&gt;Node38</title>
<path fill="none" stroke="#191970" d="M2444.9124,-56.2455C2456.5057,-47.814 2473.4748,-35.4729 2486.9678,-25.6598"/>
<polygon fill="#191970" stroke="#191970" points="2489.2126,-28.355 2495.2413,-19.6427 2485.0953,-22.6938 2489.2126,-28.355"/>
</g>
<!-- Node39&#45;&gt;Node35 -->
<g id="edge49" class="edge">
<title>Node39&#45;&gt;Node35</title>
<path fill="none" stroke="#191970" d="M2326.9974,-112.2455C2313.342,-103.6534 2293.2343,-91.0014 2277.5011,-81.1018"/>
<polygon fill="#191970" stroke="#191970" points="2279.1529,-78.006 2268.825,-75.6427 2275.4249,-83.9307 2279.1529,-78.006"/>
</g>
<!-- Node39&#45;&gt;Node36 -->
<g id="edge48" class="edge">
<title>Node39&#45;&gt;Node36</title>
<path fill="none" stroke="#191970" d="M2358.0026,-112.2455C2371.658,-103.6534 2391.7657,-91.0014 2407.4989,-81.1018"/>
<polygon fill="#191970" stroke="#191970" points="2409.5751,-83.9307 2416.175,-75.6427 2405.8471,-78.006 2409.5751,-83.9307"/>
</g>
<!-- Node40 -->
<g id="node41" class="node">
<title>Node40</title>
<polygon fill="none" stroke="#bfbfbf" points="2295.5,-56.5 2295.5,-75.5 2359.5,-75.5 2359.5,-56.5 2295.5,-56.5"/>
<text text-anchor="middle" x="2327.5" y="-63.5" font-family="Helvetica,sans-Serif" font-size="10.00" fill="#000000">algorithm</text>
</g>
<!-- Node39&#45;&gt;Node40 -->
<g id="edge50" class="edge">
<title>Node39&#45;&gt;Node40</title>
<path fill="none" stroke="#191970" d="M2339.8872,-112.2455C2337.9084,-104.8579 2335.1256,-94.4689 2332.6988,-85.4087"/>
<polygon fill="#191970" stroke="#191970" points="2336.0511,-84.3966 2330.0829,-75.6427 2329.2895,-86.2078 2336.0511,-84.3966"/>
</g>
<!-- Node43 -->
<g id="node44" class="node">
<title>Node43</title>
<polygon fill="none" stroke="#bfbfbf" points="3005.5,-112.5 3005.5,-131.5 3055.5,-131.5 3055.5,-112.5 3005.5,-112.5"/>
<text text-anchor="middle" x="3030.5" y="-119.5" font-family="Helvetica,sans-Serif" font-size="10.00" fill="#000000">cstdint</text>
</g>
<!-- Node42&#45;&gt;Node43 -->
<g id="edge54" class="edge">
<title>Node42&#45;&gt;Node43</title>
<path fill="none" stroke="#191970" d="M2949.5703,-168.2455C2964.747,-159.5731 2987.1621,-146.7645 3004.5563,-136.825"/>
<polygon fill="#191970" stroke="#191970" points="3006.6794,-139.643 3013.6253,-131.6427 3003.2064,-133.5653 3006.6794,-139.643"/>
</g>
<!-- Node44&#45;&gt;Node34 -->
<g id="edge58" class="edge">
<title>Node44&#45;&gt;Node34</title>
<path fill="none" stroke="#191970" d="M2560.3097,-173.5573C2484.9901,-167.4055 2353.43,-154.4336 2242.5,-132 2241.2457,-131.7463 2239.9708,-131.4702 2238.6865,-131.1768"/>
<polygon fill="#191970" stroke="#191970" points="2239.3939,-127.7454 2228.8399,-128.6741 2237.6695,-134.5297 2239.3939,-127.7454"/>
</g>
<!-- Node44&#45;&gt;Node35 -->
<g id="edge59" class="edge">
<title>Node44&#45;&gt;Node35</title>
<path fill="none" stroke="#191970" d="M2560.2678,-173.3754C2466.7914,-165.7952 2297.0169,-149.7807 2275.5,-132 2261.9968,-120.8415 2256.7325,-101.1432 2254.7059,-86.1626"/>
<polygon fill="#191970" stroke="#191970" points="2258.1543,-85.461 2253.7044,-75.846 2251.1871,-86.1374 2258.1543,-85.461"/>
</g>
<!-- Node44&#45;&gt;Node41 -->
<g id="edge62" class="edge">
<title>Node44&#45;&gt;Node41</title>
<path fill="none" stroke="#191970" d="M2609.6553,-168.2455C2599.612,-159.9746 2585.0005,-147.9416 2573.1996,-138.2232"/>
<polygon fill="#191970" stroke="#191970" points="2575.1533,-135.298 2565.209,-131.6427 2570.7033,-140.7015 2575.1533,-135.298"/>
</g>
<!-- Node45 -->
<g id="node46" class="node">
<title>Node45</title>
<polygon fill="none" stroke="#bfbfbf" points="2669,-112.5 2669,-131.5 2710,-131.5 2710,-112.5 2669,-112.5"/>
<text text-anchor="middle" x="2689.5" y="-119.5" font-family="Helvetica,sans-Serif" font-size="10.00" fill="#000000">tuple</text>
</g>
<!-- Node44&#45;&gt;Node45 -->
<g id="edge56" class="edge">
<title>Node44&#45;&gt;Node45</title>
<path fill="none" stroke="#191970" d="M2633.3447,-168.2455C2643.388,-159.9746 2657.9995,-147.9416 2669.8004,-138.2232"/>
<polygon fill="#191970" stroke="#191970" points="2672.2967,-140.7015 2677.791,-131.6427 2667.8467,-135.298 2672.2967,-140.7015"/>
</g>
<!-- Node46 -->
<g id="node47" class="node">
<title>Node46</title>
<polygon fill="none" stroke="#bfbfbf" points="2728,-112.5 2728,-131.5 2775,-131.5 2775,-112.5 2728,-112.5"/>
<text text-anchor="middle" x="2751.5" y="-119.5" font-family="Helvetica,sans-Serif" font-size="10.00" fill="#000000">vector</text>
</g>
<!-- Node44&#45;&gt;Node46 -->
<g id="edge57" class="edge">
<title>Node44&#45;&gt;Node46</title>
<path fill="none" stroke="#191970" d="M2643.8478,-168.3733C2664.9033,-159.3032 2696.6495,-145.6279 2720.2175,-135.4755"/>
<polygon fill="#191970" stroke="#191970" points="2721.6444,-138.6719 2729.4438,-131.5011 2718.875,-132.243 2721.6444,-138.6719"/>
</g>
<!-- Node47 -->
<g id="node48" class="node">
<title>Node47</title>
<polygon fill="none" stroke="#bfbfbf" points="2793,-112.5 2793,-131.5 2892,-131.5 2892,-112.5 2793,-112.5"/>
<text text-anchor="middle" x="2842.5" y="-119.5" font-family="Helvetica,sans-Serif" font-size="10.00" fill="#000000">TDatabasePDG.h</text>
</g>
<!-- Node44&#45;&gt;Node47 -->
<g id="edge60" class="edge">
<title>Node44&#45;&gt;Node47</title>
<path fill="none" stroke="#191970" d="M2659.2401,-168.4369C2696.7448,-158.9335 2754.3799,-144.3291 2794.9824,-134.0407"/>
<polygon fill="#191970" stroke="#191970" points="2796.0816,-137.3728 2804.9155,-131.5237 2794.3621,-130.5873 2796.0816,-137.3728"/>
</g>
<!-- Node48 -->
<g id="node49" class="node">
<title>Node48</title>
<polygon fill="none" stroke="#bfbfbf" points="2910,-112.5 2910,-131.5 2987,-131.5 2987,-112.5 2910,-112.5"/>
<text text-anchor="middle" x="2948.5" y="-119.5" font-family="Helvetica,sans-Serif" font-size="10.00" fill="#000000">TPDGCode.h</text>
</g>
<!-- Node44&#45;&gt;Node48 -->
<g id="edge61" class="edge">
<title>Node44&#45;&gt;Node48</title>
<path fill="none" stroke="#191970" d="M2682.5458,-168.8138C2737.0347,-160.423 2819.258,-147.293 2899.5155,-132.3156"/>
<polygon fill="#191970" stroke="#191970" points="2900.6181,-135.6698 2909.8002,-130.3839 2899.3259,-128.7901 2900.6181,-135.6698"/>
</g>
</g>
</svg>
