<?xml version="1.0" encoding="UTF-8" standalone="no"?>
<!DOCTYPE svg PUBLIC "-//W3C//DTD SVG 1.1//EN"
 "http://www.w3.org/Graphics/SVG/1.1/DTD/svg11.dtd">
<!-- Generated by graphviz version 2.40.1 (20161225.0304)
 -->
<!-- Title: /home/travis/build/AliceO2Group/AliceO2/Detectors/TPC/base/include/TPCBase/Utils.h Pages: 1 -->
<svg width="1630pt" height="699pt"
 viewBox="0.00 0.00 1629.50 699.00" xmlns="http://www.w3.org/2000/svg" xmlns:xlink="http://www.w3.org/1999/xlink">
<g id="graph0" class="graph" transform="scale(1 1) rotate(0) translate(4 695)">
<title>/home/travis/build/AliceO2Group/AliceO2/Detectors/TPC/base/include/TPCBase/Utils.h</title>
<!-- Node0 -->
<g id="node1" class="node">
<title>Node0</title>
<polygon fill="#bfbfbf" stroke="#000000" points="1022.5,-638.5 1022.5,-690.5 1175.5,-690.5 1175.5,-638.5 1022.5,-638.5"/>
<text text-anchor="start" x="1030.5" y="-678.5" font-family="Helvetica,sans-Serif" font-size="10.00" fill="#000000">/home/travis/build</text>
<text text-anchor="start" x="1030.5" y="-667.5" font-family="Helvetica,sans-Serif" font-size="10.00" fill="#000000">/AliceO2Group/AliceO2</text>
<text text-anchor="start" x="1030.5" y="-656.5" font-family="Helvetica,sans-Serif" font-size="10.00" fill="#000000">/Detectors/TPC/base/include</text>
<text text-anchor="middle" x="1099" y="-645.5" font-family="Helvetica,sans-Serif" font-size="10.00" fill="#000000">/TPCBase/Utils.h</text>
</g>
<!-- Node1 -->
<g id="node2" class="node">
<title>Node1</title>
<polygon fill="none" stroke="#bfbfbf" points="486.5,-358.5 486.5,-377.5 533.5,-377.5 533.5,-358.5 486.5,-358.5"/>
<text text-anchor="middle" x="510" y="-365.5" font-family="Helvetica,sans-Serif" font-size="10.00" fill="#000000">vector</text>
</g>
<!-- Node0&#45;&gt;Node1 -->
<g id="edge1" class="edge">
<title>Node0&#45;&gt;Node1</title>
<path fill="none" stroke="#191970" d="M1022.4284,-658.4677C840.2263,-643.0887 396,-599.121 396,-536 396,-536 396,-536 396,-480 396,-433.4628 444.9383,-399.828 478.6864,-382.1659"/>
<polygon fill="#191970" stroke="#191970" points="480.3862,-385.2289 487.749,-377.6105 477.2424,-378.9746 480.3862,-385.2289"/>
</g>
<!-- Node2 -->
<g id="node3" class="node">
<title>Node2</title>
<polygon fill="none" stroke="#bfbfbf" points="1169.5,-582.5 1169.5,-601.5 1242.5,-601.5 1242.5,-582.5 1169.5,-582.5"/>
<text text-anchor="middle" x="1206" y="-589.5" font-family="Helvetica,sans-Serif" font-size="10.00" fill="#000000">string_view</text>
</g>
<!-- Node0&#45;&gt;Node2 -->
<g id="edge2" class="edge">
<title>Node0&#45;&gt;Node2</title>
<path fill="none" stroke="#191970" d="M1137.6295,-638.3258C1152.9988,-627.912 1170.1467,-616.2931 1183.4245,-607.2965"/>
<polygon fill="#191970" stroke="#191970" points="1185.6138,-610.0409 1191.9291,-601.534 1181.6872,-604.2459 1185.6138,-610.0409"/>
</g>
<!-- Node3 -->
<g id="node4" class="node">
<title>Node3</title>
<g id="a_node4"><a xlink:href="../../d6/d2b/TPC_2base_2include_2TPCBase_2CalDet_8h.html" target="_top" xlink:title="TPCBase/CalDet.h">
<polygon fill="none" stroke="#000000" points="1047,-582.5 1047,-601.5 1151,-601.5 1151,-582.5 1047,-582.5"/>
<text text-anchor="middle" x="1099" y="-589.5" font-family="Helvetica,sans-Serif" font-size="10.00" fill="#000000">TPCBase/CalDet.h</text>
</a>
</g>
</g>
<!-- Node0&#45;&gt;Node3 -->
<g id="edge3" class="edge">
<title>Node0&#45;&gt;Node3</title>
<path fill="none" stroke="#191970" d="M1099,-638.3258C1099,-629.5142 1099,-619.8397 1099,-611.621"/>
<polygon fill="#191970" stroke="#191970" points="1102.5001,-611.534 1099,-601.534 1095.5001,-611.534 1102.5001,-611.534"/>
</g>
<!-- Node3&#45;&gt;Node1 -->
<g id="edge5" class="edge">
<title>Node3&#45;&gt;Node1</title>
<path fill="none" stroke="#191970" d="M1046.7048,-590.3213C919.5252,-585.0877 599.3253,-564.6256 529,-490 503.0154,-462.4265 503.8547,-414.7716 506.8646,-387.9089"/>
<polygon fill="#191970" stroke="#191970" points="510.3615,-388.1637 508.2155,-377.7885 503.4231,-387.2375 510.3615,-388.1637"/>
</g>
<!-- Node4 -->
<g id="node5" class="node">
<title>Node4</title>
<polygon fill="none" stroke="#bfbfbf" points="538,-470.5 538,-489.5 596,-489.5 596,-470.5 538,-470.5"/>
<text text-anchor="middle" x="567" y="-477.5" font-family="Helvetica,sans-Serif" font-size="10.00" fill="#000000">memory</text>
</g>
<!-- Node3&#45;&gt;Node4 -->
<g id="edge4" class="edge">
<title>Node3&#45;&gt;Node4</title>
<path fill="none" stroke="#191970" d="M1051.3741,-582.4421C963.8413,-564.7918 771.5422,-525.6271 610,-490 608.737,-489.7214 607.4536,-489.4362 606.1581,-489.1463"/>
<polygon fill="#191970" stroke="#191970" points="606.6506,-485.6691 596.1238,-486.8679 605.1006,-492.4953 606.6506,-485.6691"/>
</g>
<!-- Node5 -->
<g id="node6" class="node">
<title>Node5</title>
<polygon fill="none" stroke="#bfbfbf" points="1434,-414.5 1434,-433.5 1478,-433.5 1478,-414.5 1434,-414.5"/>
<text text-anchor="middle" x="1456" y="-421.5" font-family="Helvetica,sans-Serif" font-size="10.00" fill="#000000">string</text>
</g>
<!-- Node3&#45;&gt;Node5 -->
<g id="edge6" class="edge">
<title>Node3&#45;&gt;Node5</title>
<path fill="none" stroke="#191970" d="M1102.1952,-582.2615C1111.0288,-555.9446 1136.4206,-484.4148 1156,-470 1203.6812,-434.8961 1362.009,-445.9509 1420,-434 1421.2508,-433.7422 1422.5221,-433.465 1423.8034,-433.1727"/>
<polygon fill="#191970" stroke="#191970" points="1424.7921,-436.5334 1433.6459,-430.7144 1423.0958,-429.742 1424.7921,-436.5334"/>
</g>
<!-- Node6 -->
<g id="node7" class="node">
<title>Node6</title>
<polygon fill="none" stroke="#bfbfbf" points="1427.5,-470.5 1427.5,-489.5 1528.5,-489.5 1528.5,-470.5 1427.5,-470.5"/>
<text text-anchor="middle" x="1478" y="-477.5" font-family="Helvetica,sans-Serif" font-size="10.00" fill="#000000">boost/format.hpp</text>
</g>
<!-- Node3&#45;&gt;Node6 -->
<g id="edge7" class="edge">
<title>Node3&#45;&gt;Node6</title>
<path fill="none" stroke="#191970" d="M1151.22,-582.7021C1189.3055,-575.0737 1241.7722,-562.791 1286,-546 1303.8427,-539.2261 1306.3289,-533.2096 1324,-526 1358.0055,-512.1263 1397.7526,-500.3589 1428.3481,-492.1994"/>
<polygon fill="#191970" stroke="#191970" points="1429.5684,-495.4977 1438.3516,-489.5727 1427.7906,-488.7272 1429.5684,-495.4977"/>
</g>
<!-- Node7 -->
<g id="node8" class="node">
<title>Node7</title>
<polygon fill="none" stroke="#bfbfbf" points="1333,-526.5 1333,-545.5 1473,-545.5 1473,-526.5 1333,-526.5"/>
<text text-anchor="middle" x="1403" y="-533.5" font-family="Helvetica,sans-Serif" font-size="10.00" fill="#000000">boost/range/combine.hpp</text>
</g>
<!-- Node3&#45;&gt;Node7 -->
<g id="edge8" class="edge">
<title>Node3&#45;&gt;Node7</title>
<path fill="none" stroke="#191970" d="M1150.914,-582.4369C1203.5971,-572.7321 1285.1568,-557.708 1341.1543,-547.3926"/>
<polygon fill="#191970" stroke="#191970" points="1342.0996,-550.7775 1351.3001,-545.5237 1340.8314,-543.8933 1342.0996,-550.7775"/>
</g>
<!-- Node8 -->
<g id="node9" class="node">
<title>Node8</title>
<polygon fill="none" stroke="#bfbfbf" points="1491,-526.5 1491,-545.5 1543,-545.5 1543,-526.5 1491,-526.5"/>
<text text-anchor="middle" x="1517" y="-533.5" font-family="Helvetica,sans-Serif" font-size="10.00" fill="#000000">cassert</text>
</g>
<!-- Node3&#45;&gt;Node8 -->
<g id="edge9" class="edge">
<title>Node3&#45;&gt;Node8</title>
<path fill="none" stroke="#191970" d="M1151.2169,-583.2596C1154.1861,-582.8188 1157.1296,-582.3955 1160,-582 1299.451,-562.787 1338.9586,-573.3751 1480.7997,-545.962"/>
<polygon fill="#191970" stroke="#191970" points="1481.6025,-549.3713 1490.7415,-544.0113 1480.2547,-542.5022 1481.6025,-549.3713"/>
</g>
<!-- Node9 -->
<g id="node10" class="node">
<title>Node9</title>
<polygon fill="none" stroke="#bfbfbf" points="1546.5,-470.5 1546.5,-489.5 1621.5,-489.5 1621.5,-470.5 1546.5,-470.5"/>
<text text-anchor="middle" x="1584" y="-477.5" font-family="Helvetica,sans-Serif" font-size="10.00" fill="#000000">FairLogger.h</text>
</g>
<!-- Node3&#45;&gt;Node9 -->
<g id="edge10" class="edge">
<title>Node3&#45;&gt;Node9</title>
<path fill="none" stroke="#191970" d="M1151.2078,-583.1915C1154.1793,-582.768 1157.1258,-582.3671 1160,-582 1246.7728,-570.9172 1480.0724,-595.7872 1552,-546 1567.5029,-535.2692 1575.7773,-514.8734 1579.9989,-499.582"/>
<polygon fill="#191970" stroke="#191970" points="1583.4735,-500.1014 1582.4019,-489.5609 1576.6665,-498.469 1583.4735,-500.1014"/>
</g>
<!-- Node10 -->
<g id="node11" class="node">
<title>Node10</title>
<g id="a_node11"><a xlink:href="../../d1/d73/Defs_8h.html" target="_top" xlink:title="Common definitions for 2D coordinates. ">
<polygon fill="none" stroke="#000000" points="745.5,-190.5 745.5,-209.5 878.5,-209.5 878.5,-190.5 745.5,-190.5"/>
<text text-anchor="middle" x="812" y="-197.5" font-family="Helvetica,sans-Serif" font-size="10.00" fill="#000000">DataFormatsTPC/Defs.h</text>
</a>
</g>
</g>
<!-- Node3&#45;&gt;Node10 -->
<g id="edge11" class="edge">
<title>Node3&#45;&gt;Node10</title>
<path fill="none" stroke="#191970" d="M1046.8943,-589.6249C878.227,-581.2515 358,-549.7699 358,-480 358,-480 358,-480 358,-312 358,-235.2306 605.7926,-210.7634 735.2485,-203.2192"/>
<polygon fill="#191970" stroke="#191970" points="735.7106,-206.6989 745.4983,-202.6429 735.3175,-199.7099 735.7106,-206.6989"/>
</g>
<!-- Node24 -->
<g id="node25" class="node">
<title>Node24</title>
<g id="a_node25"><a xlink:href="../../d5/d1d/TPC_2base_2include_2TPCBase_2Mapper_8h.html" target="_top" xlink:title="TPCBase/Mapper.h">
<polygon fill="none" stroke="#000000" points="963.5,-470.5 963.5,-489.5 1070.5,-489.5 1070.5,-470.5 963.5,-470.5"/>
<text text-anchor="middle" x="1017" y="-477.5" font-family="Helvetica,sans-Serif" font-size="10.00" fill="#000000">TPCBase/Mapper.h</text>
</a>
</g>
</g>
<!-- Node3&#45;&gt;Node24 -->
<g id="edge26" class="edge">
<title>Node3&#45;&gt;Node24</title>
<path fill="none" stroke="#191970" d="M1092.0087,-582.4509C1078.2716,-563.688 1047.5704,-521.7548 1030.0014,-497.758"/>
<polygon fill="#191970" stroke="#191970" points="1032.705,-495.5259 1023.9736,-489.5249 1027.057,-499.6611 1032.705,-495.5259"/>
</g>
<!-- Node29 -->
<g id="node30" class="node">
<title>Node29</title>
<g id="a_node30"><a xlink:href="../../d3/dd6/Sector_8h.html" target="_top" xlink:title="TPCBase/Sector.h">
<polygon fill="none" stroke="#000000" points="980.5,-246.5 980.5,-265.5 1081.5,-265.5 1081.5,-246.5 980.5,-246.5"/>
<text text-anchor="middle" x="1031" y="-253.5" font-family="Helvetica,sans-Serif" font-size="10.00" fill="#000000">TPCBase/Sector.h</text>
</a>
</g>
</g>
<!-- Node3&#45;&gt;Node29 -->
<g id="edge62" class="edge">
<title>Node3&#45;&gt;Node29</title>
<path fill="none" stroke="#191970" d="M1098.8508,-582.2875C1099.0626,-558.9813 1103.0848,-499.6279 1137,-470 1182.1503,-430.5573 1230.7024,-481.7153 1267,-434 1275.9745,-422.2025 1277.3254,-386.8559 1261,-358 1227.0832,-298.0506 1147.6858,-273.2546 1091.7044,-263.051"/>
<polygon fill="#191970" stroke="#191970" points="1091.9876,-259.5486 1081.5402,-261.3104 1090.806,-266.4482 1091.9876,-259.5486"/>
</g>
<!-- Node32 -->
<g id="node33" class="node">
<title>Node32</title>
<g id="a_node33"><a xlink:href="../../dc/d14/ROC_8h.html" target="_top" xlink:title="TPCBase/ROC.h">
<polygon fill="none" stroke="#000000" points="766,-302.5 766,-321.5 858,-321.5 858,-302.5 766,-302.5"/>
<text text-anchor="middle" x="812" y="-309.5" font-family="Helvetica,sans-Serif" font-size="10.00" fill="#000000">TPCBase/ROC.h</text>
</a>
</g>
</g>
<!-- Node3&#45;&gt;Node32 -->
<g id="edge61" class="edge">
<title>Node3&#45;&gt;Node32</title>
<path fill="none" stroke="#191970" d="M1046.9714,-588.9791C921.8748,-580.7497 608.7047,-554.1117 529,-490 486.2362,-455.6022 488.8339,-431.5902 477,-378 475.0833,-369.3202 471.1578,-364.6993 477,-358 495.019,-337.3377 665.1116,-322.337 755.7503,-315.737"/>
<polygon fill="#191970" stroke="#191970" points="756.1386,-319.2182 765.8625,-315.0115 755.6376,-312.2362 756.1386,-319.2182"/>
</g>
<!-- Node38 -->
<g id="node39" class="node">
<title>Node38</title>
<g id="a_node39"><a xlink:href="../../db/d9b/CalArray_8h.html" target="_top" xlink:title="TPCBase/CalArray.h">
<polygon fill="none" stroke="#000000" points="1165,-526.5 1165,-545.5 1277,-545.5 1277,-526.5 1165,-526.5"/>
<text text-anchor="middle" x="1221" y="-533.5" font-family="Helvetica,sans-Serif" font-size="10.00" fill="#000000">TPCBase/CalArray.h</text>
</a>
</g>
</g>
<!-- Node3&#45;&gt;Node38 -->
<g id="edge63" class="edge">
<title>Node3&#45;&gt;Node38</title>
<path fill="none" stroke="#191970" d="M1119.9725,-582.3733C1139.5567,-573.3838 1168.9961,-559.8706 1191.051,-549.7471"/>
<polygon fill="#191970" stroke="#191970" points="1192.6729,-552.8538 1200.3011,-545.5011 1189.7527,-546.4919 1192.6729,-552.8538"/>
</g>
<!-- Node11 -->
<g id="node12" class="node">
<title>Node11</title>
<polygon fill="none" stroke="#bfbfbf" points="1120.5,-134.5 1120.5,-153.5 1167.5,-153.5 1167.5,-134.5 1120.5,-134.5"/>
<text text-anchor="middle" x="1144" y="-141.5" font-family="Helvetica,sans-Serif" font-size="10.00" fill="#000000">cmath</text>
</g>
<!-- Node10&#45;&gt;Node11 -->
<g id="edge12" class="edge">
<title>Node10&#45;&gt;Node11</title>
<path fill="none" stroke="#191970" d="M868.6956,-190.4369C938.2612,-178.7029 1053.9297,-159.1926 1110.6141,-149.6314"/>
<polygon fill="#191970" stroke="#191970" points="1111.2089,-153.0806 1120.4875,-147.966 1110.0446,-146.1781 1111.2089,-153.0806"/>
</g>
<!-- Node12 -->
<g id="node13" class="node">
<title>Node12</title>
<g id="a_node13"><a xlink:href="../../d2/dd0/Cartesian2D_8h.html" target="_top" xlink:title="MathUtils/Cartesian2D.h">
<polygon fill="none" stroke="#000000" points="111.5,-73 111.5,-92 246.5,-92 246.5,-73 111.5,-73"/>
<text text-anchor="middle" x="179" y="-80" font-family="Helvetica,sans-Serif" font-size="10.00" fill="#000000">MathUtils/Cartesian2D.h</text>
</a>
</g>
</g>
<!-- Node10&#45;&gt;Node12 -->
<g id="edge13" class="edge">
<title>Node10&#45;&gt;Node12</title>
<path fill="none" stroke="#191970" d="M758.2691,-190.46C658.9738,-172.7595 440.0702,-133.408 256,-98 249.4323,-96.7366 242.5548,-95.3884 235.7272,-94.0342"/>
<polygon fill="#191970" stroke="#191970" points="236.2932,-90.5782 225.8018,-92.0551 234.9243,-97.4431 236.2932,-90.5782"/>
</g>
<!-- Node15 -->
<g id="node16" class="node">
<title>Node15</title>
<g id="a_node16"><a xlink:href="../../dd/d76/Cartesian3D_8h.html" target="_top" xlink:title="MathUtils/Cartesian3D.h">
<polygon fill="none" stroke="#000000" points="763.5,-134.5 763.5,-153.5 898.5,-153.5 898.5,-134.5 763.5,-134.5"/>
<text text-anchor="middle" x="831" y="-141.5" font-family="Helvetica,sans-Serif" font-size="10.00" fill="#000000">MathUtils/Cartesian3D.h</text>
</a>
</g>
</g>
<!-- Node10&#45;&gt;Node15 -->
<g id="edge16" class="edge">
<title>Node10&#45;&gt;Node15</title>
<path fill="none" stroke="#191970" d="M815.3095,-190.2455C817.8433,-182.7776 821.4177,-172.2427 824.515,-163.1137"/>
<polygon fill="#191970" stroke="#191970" points="827.8298,-164.237 827.7284,-153.6427 821.2009,-161.9879 827.8298,-164.237"/>
</g>
<!-- Node13 -->
<g id="node14" class="node">
<title>Node13</title>
<polygon fill="none" stroke="#bfbfbf" points="0,-.5 0,-30.5 164,-30.5 164,-.5 0,-.5"/>
<text text-anchor="start" x="8" y="-18.5" font-family="Helvetica,sans-Serif" font-size="10.00" fill="#000000">Math/GenVector/Displacement</text>
<text text-anchor="middle" x="82" y="-7.5" font-family="Helvetica,sans-Serif" font-size="10.00" fill="#000000">Vector2D.h</text>
</g>
<!-- Node12&#45;&gt;Node13 -->
<g id="edge14" class="edge">
<title>Node12&#45;&gt;Node13</title>
<path fill="none" stroke="#191970" d="M165.1023,-72.9005C151.3265,-63.3853 129.7795,-48.5023 112.0779,-36.2755"/>
<polygon fill="#191970" stroke="#191970" points="113.9651,-33.3253 103.7479,-30.5218 109.9868,-39.0849 113.9651,-33.3253"/>
</g>
<!-- Node14 -->
<g id="node15" class="node">
<title>Node14</title>
<polygon fill="none" stroke="#bfbfbf" points="182.5,-6 182.5,-25 371.5,-25 371.5,-6 182.5,-6"/>
<text text-anchor="middle" x="277" y="-13" font-family="Helvetica,sans-Serif" font-size="10.00" fill="#000000">Math/GenVector/PositionVector2D.h</text>
</g>
<!-- Node12&#45;&gt;Node14 -->
<g id="edge15" class="edge">
<title>Node12&#45;&gt;Node14</title>
<path fill="none" stroke="#191970" d="M193.041,-72.9005C209.1238,-61.9052 235.6906,-43.7422 254.6316,-30.7927"/>
<polygon fill="#191970" stroke="#191970" points="256.7052,-33.6148 262.985,-25.0817 252.7545,-27.8362 256.7052,-33.6148"/>
</g>
<!-- Node15&#45;&gt;Node12 -->
<g id="edge25" class="edge">
<title>Node15&#45;&gt;Node12</title>
<path fill="none" stroke="#191970" d="M763.4385,-141.1996C655.6932,-136.1491 438.4841,-123.574 256,-98 248.0314,-96.8833 239.6454,-95.4578 231.4576,-93.9253"/>
<polygon fill="#191970" stroke="#191970" points="232.0935,-90.4835 221.6102,-92.0165 230.7613,-97.3556 232.0935,-90.4835"/>
</g>
<!-- Node16 -->
<g id="node17" class="node">
<title>Node16</title>
<polygon fill="none" stroke="#bfbfbf" points="998,-67.5 998,-97.5 1162,-97.5 1162,-67.5 998,-67.5"/>
<text text-anchor="start" x="1006" y="-85.5" font-family="Helvetica,sans-Serif" font-size="10.00" fill="#000000">Math/GenVector/Displacement</text>
<text text-anchor="middle" x="1080" y="-74.5" font-family="Helvetica,sans-Serif" font-size="10.00" fill="#000000">Vector3D.h</text>
</g>
<!-- Node15&#45;&gt;Node16 -->
<g id="edge17" class="edge">
<title>Node15&#45;&gt;Node16</title>
<path fill="none" stroke="#191970" d="M869.633,-134.4581C906.7937,-125.2799 963.8537,-111.1867 1009.1762,-99.9926"/>
<polygon fill="#191970" stroke="#191970" points="1010.0818,-103.3742 1018.9508,-97.5784 1008.4032,-96.5784 1010.0818,-103.3742"/>
</g>
<!-- Node17 -->
<g id="node18" class="node">
<title>Node17</title>
<polygon fill="none" stroke="#bfbfbf" points="1180.5,-73 1180.5,-92 1369.5,-92 1369.5,-73 1180.5,-73"/>
<text text-anchor="middle" x="1275" y="-80" font-family="Helvetica,sans-Serif" font-size="10.00" fill="#000000">Math/GenVector/PositionVector3D.h</text>
</g>
<!-- Node15&#45;&gt;Node17 -->
<g id="edge18" class="edge">
<title>Node15&#45;&gt;Node17</title>
<path fill="none" stroke="#191970" d="M898.7716,-135.1042C967.4203,-126.029 1076.6438,-111.4137 1171,-98 1181.0667,-96.5689 1191.6761,-95.0268 1202.1155,-93.4898"/>
<polygon fill="#191970" stroke="#191970" points="1202.6684,-96.9462 1212.0491,-92.0214 1201.6447,-90.0214 1202.6684,-96.9462"/>
</g>
<!-- Node18 -->
<g id="node19" class="node">
<title>Node18</title>
<polygon fill="none" stroke="#bfbfbf" points="265,-73 265,-92 425,-92 425,-73 265,-73"/>
<text text-anchor="middle" x="345" y="-80" font-family="Helvetica,sans-Serif" font-size="10.00" fill="#000000">Math/GenVector/Rotation3D.h</text>
</g>
<!-- Node15&#45;&gt;Node18 -->
<g id="edge19" class="edge">
<title>Node15&#45;&gt;Node18</title>
<path fill="none" stroke="#191970" d="M763.4128,-137.3557C684.2848,-129.3022 549.3617,-114.7151 434,-98 425.1089,-96.7117 415.7407,-95.224 406.5542,-93.6905"/>
<polygon fill="#191970" stroke="#191970" points="407.1329,-90.2387 396.6882,-92.0158 405.9614,-97.14 407.1329,-90.2387"/>
</g>
<!-- Node19 -->
<g id="node20" class="node">
<title>Node19</title>
<polygon fill="none" stroke="#bfbfbf" points="443,-73 443,-92 611,-92 611,-73 443,-73"/>
<text text-anchor="middle" x="527" y="-80" font-family="Helvetica,sans-Serif" font-size="10.00" fill="#000000">Math/GenVector/Transform3D.h</text>
</g>
<!-- Node15&#45;&gt;Node19 -->
<g id="edge20" class="edge">
<title>Node15&#45;&gt;Node19</title>
<path fill="none" stroke="#191970" d="M783.8335,-134.4581C730.0277,-123.573 642.0509,-105.7751 584.3324,-94.0985"/>
<polygon fill="#191970" stroke="#191970" points="584.7726,-90.6167 574.2771,-92.0643 583.3845,-97.4777 584.7726,-90.6167"/>
</g>
<!-- Node20 -->
<g id="node21" class="node">
<title>Node20</title>
<polygon fill="none" stroke="#bfbfbf" points="629.5,-73 629.5,-92 802.5,-92 802.5,-73 629.5,-73"/>
<text text-anchor="middle" x="716" y="-80" font-family="Helvetica,sans-Serif" font-size="10.00" fill="#000000">Math/GenVector/Translation3D.h</text>
</g>
<!-- Node15&#45;&gt;Node20 -->
<g id="edge21" class="edge">
<title>Node15&#45;&gt;Node20</title>
<path fill="none" stroke="#191970" d="M813.0313,-134.3906C794.2116,-124.3262 764.4415,-108.4057 742.8359,-96.8514"/>
<polygon fill="#191970" stroke="#191970" points="744.3114,-93.6714 733.8426,-92.0419 741.0102,-99.8442 744.3114,-93.6714"/>
</g>
<!-- Node21 -->
<g id="node22" class="node">
<title>Node21</title>
<polygon fill="none" stroke="#bfbfbf" points="820.5,-73 820.5,-92 879.5,-92 879.5,-73 820.5,-73"/>
<text text-anchor="middle" x="850" y="-80" font-family="Helvetica,sans-Serif" font-size="10.00" fill="#000000">Rtypes.h</text>
</g>
<!-- Node15&#45;&gt;Node21 -->
<g id="edge22" class="edge">
<title>Node15&#45;&gt;Node21</title>
<path fill="none" stroke="#191970" d="M833.9688,-134.3906C836.6302,-125.776 840.6171,-112.8708 843.9491,-102.0858"/>
<polygon fill="#191970" stroke="#191970" points="847.3816,-102.8324 846.9894,-92.2449 840.6935,-100.7661 847.3816,-102.8324"/>
</g>
<!-- Node22 -->
<g id="node23" class="node">
<title>Node22</title>
<polygon fill="none" stroke="#bfbfbf" points="898,-73 898,-92 980,-92 980,-73 898,-73"/>
<text text-anchor="middle" x="939" y="-80" font-family="Helvetica,sans-Serif" font-size="10.00" fill="#000000">TGeoMatrix.h</text>
</g>
<!-- Node15&#45;&gt;Node22 -->
<g id="edge23" class="edge">
<title>Node15&#45;&gt;Node22</title>
<path fill="none" stroke="#191970" d="M847.875,-134.3906C865.4698,-124.3713 893.2566,-108.5483 913.5241,-97.0071"/>
<polygon fill="#191970" stroke="#191970" points="915.2856,-100.0318 922.2435,-92.0419 911.8217,-93.9489 915.2856,-100.0318"/>
</g>
<!-- Node23 -->
<g id="node24" class="node">
<title>Node23</title>
<polygon fill="none" stroke="#bfbfbf" points="1387.5,-73 1387.5,-92 1436.5,-92 1436.5,-73 1387.5,-73"/>
<text text-anchor="middle" x="1412" y="-80" font-family="Helvetica,sans-Serif" font-size="10.00" fill="#000000">iosfwd</text>
</g>
<!-- Node15&#45;&gt;Node23 -->
<g id="edge24" class="edge">
<title>Node15&#45;&gt;Node23</title>
<path fill="none" stroke="#191970" d="M898.5481,-141.3187C1024.4148,-135.829 1290.1139,-121.7817 1379,-98 1380.972,-97.4724 1382.9708,-96.8317 1384.9584,-96.1149"/>
<polygon fill="#191970" stroke="#191970" points="1386.755,-99.1571 1394.6271,-92.0663 1384.0512,-92.7003 1386.755,-99.1571"/>
</g>
<!-- Node24&#45;&gt;Node1 -->
<g id="edge28" class="edge">
<title>Node24&#45;&gt;Node1</title>
<path fill="none" stroke="#191970" d="M963.4796,-476.7514C851.8152,-469.6539 601.4778,-451.9562 567,-434 546.539,-423.3438 530.2414,-401.9905 520.3999,-386.4496"/>
<polygon fill="#191970" stroke="#191970" points="523.2767,-384.4418 515.1269,-377.6719 517.2762,-388.0464 523.2767,-384.4418"/>
</g>
<!-- Node24&#45;&gt;Node5 -->
<g id="edge30" class="edge">
<title>Node24&#45;&gt;Node5</title>
<path fill="none" stroke="#191970" d="M1070.5183,-473.4074C1141.6715,-464.6077 1271.3279,-448.4514 1382,-434 1395.7949,-432.1987 1411.0277,-430.1504 1424.0689,-428.3786"/>
<polygon fill="#191970" stroke="#191970" points="1424.5525,-431.8452 1433.9884,-427.027 1423.6074,-424.9092 1424.5525,-431.8452"/>
</g>
<!-- Node24&#45;&gt;Node10 -->
<g id="edge32" class="edge">
<title>Node24&#45;&gt;Node10</title>
<path fill="none" stroke="#191970" d="M986.1272,-470.4075C953.7381,-458.7967 910.2015,-437.815 931,-414 1010.1845,-323.331 1240.5326,-469.8388 1196,-358 1170.6457,-294.3255 1150.5222,-278.1613 1090,-246 1055.9795,-227.9216 958.5893,-214.6762 888.6836,-207.16"/>
<polygon fill="#191970" stroke="#191970" points="888.8922,-203.6627 878.5799,-206.0928 888.1568,-210.624 888.8922,-203.6627"/>
</g>
<!-- Node24&#45;&gt;Node11 -->
<g id="edge31" class="edge">
<title>Node24&#45;&gt;Node11</title>
<path fill="none" stroke="#191970" d="M1070.6782,-474.0517C1133.7025,-466.3914 1233.8508,-451.908 1267,-434 1302.6784,-414.7257 1330,-408.5518 1330,-368 1330,-368 1330,-368 1330,-256 1330,-185.6771 1231.2171,-158.369 1177.6293,-148.7287"/>
<polygon fill="#191970" stroke="#191970" points="1178.0001,-145.2418 1167.557,-147.0287 1176.835,-152.1442 1178.0001,-145.2418"/>
</g>
<!-- Node25 -->
<g id="node26" class="node">
<title>Node25</title>
<polygon fill="none" stroke="#bfbfbf" points="940,-414.5 940,-433.5 978,-433.5 978,-414.5 940,-414.5"/>
<text text-anchor="middle" x="959" y="-421.5" font-family="Helvetica,sans-Serif" font-size="10.00" fill="#000000">map</text>
</g>
<!-- Node24&#45;&gt;Node25 -->
<g id="edge27" class="edge">
<title>Node24&#45;&gt;Node25</title>
<path fill="none" stroke="#191970" d="M1006.8972,-470.2455C998.4972,-462.1352 986.3506,-450.4075 976.3916,-440.7919"/>
<polygon fill="#191970" stroke="#191970" points="978.6122,-438.0707 968.9871,-433.6427 973.75,-443.1066 978.6122,-438.0707"/>
</g>
<!-- Node26 -->
<g id="node27" class="node">
<title>Node26</title>
<polygon fill="none" stroke="#bfbfbf" points="996,-414.5 996,-433.5 1038,-433.5 1038,-414.5 996,-414.5"/>
<text text-anchor="middle" x="1017" y="-421.5" font-family="Helvetica,sans-Serif" font-size="10.00" fill="#000000">array</text>
</g>
<!-- Node24&#45;&gt;Node26 -->
<g id="edge29" class="edge">
<title>Node24&#45;&gt;Node26</title>
<path fill="none" stroke="#191970" d="M1017,-470.2455C1017,-462.9382 1017,-452.6944 1017,-443.7046"/>
<polygon fill="#191970" stroke="#191970" points="1020.5001,-443.6426 1017,-433.6427 1013.5001,-443.6427 1020.5001,-443.6426"/>
</g>
<!-- Node27 -->
<g id="node28" class="node">
<title>Node27</title>
<g id="a_node28"><a xlink:href="../../de/d41/PadPos_8h.html" target="_top" xlink:title="TPCBase/PadPos.h">
<polygon fill="none" stroke="#000000" points="952,-302.5 952,-321.5 1058,-321.5 1058,-302.5 952,-302.5"/>
<text text-anchor="middle" x="1005" y="-309.5" font-family="Helvetica,sans-Serif" font-size="10.00" fill="#000000">TPCBase/PadPos.h</text>
</a>
</g>
</g>
<!-- Node24&#45;&gt;Node27 -->
<g id="edge33" class="edge">
<title>Node24&#45;&gt;Node27</title>
<path fill="none" stroke="#191970" d="M1066.6142,-470.4751C1116.7439,-460.3503 1187.9381,-444.3956 1196,-434 1201.4473,-426.9758 1201.4528,-421.0199 1196,-414 1156.3246,-362.9219 1108.8783,-413.7804 1055,-378 1037.1216,-366.127 1023.0907,-345.6551 1014.5002,-330.652"/>
<polygon fill="#191970" stroke="#191970" points="1017.5024,-328.8461 1009.655,-321.7279 1011.3506,-332.1862 1017.5024,-328.8461"/>
</g>
<!-- Node28 -->
<g id="node29" class="node">
<title>Node28</title>
<g id="a_node29"><a xlink:href="../../dd/d0b/PadSecPos_8h.html" target="_top" xlink:title="TPCBase/PadSecPos.h">
<polygon fill="none" stroke="#000000" points="1064.5,-358.5 1064.5,-377.5 1187.5,-377.5 1187.5,-358.5 1064.5,-358.5"/>
<text text-anchor="middle" x="1126" y="-365.5" font-family="Helvetica,sans-Serif" font-size="10.00" fill="#000000">TPCBase/PadSecPos.h</text>
</a>
</g>
</g>
<!-- Node24&#45;&gt;Node28 -->
<g id="edge34" class="edge">
<title>Node24&#45;&gt;Node28</title>
<path fill="none" stroke="#191970" d="M1070.6019,-471.9824C1130.3501,-462.5012 1219.9613,-446.4382 1230,-434 1249.7037,-409.5868 1212.6689,-391.4794 1177.4555,-380.4681"/>
<polygon fill="#191970" stroke="#191970" points="1178.2029,-377.0392 1167.6204,-377.5512 1176.2124,-383.7502 1178.2029,-377.0392"/>
</g>
<!-- Node24&#45;&gt;Node29 -->
<g id="edge60" class="edge">
<title>Node24&#45;&gt;Node29</title>
<path fill="none" stroke="#191970" d="M1070.6631,-471.0217C1136.8488,-459.6928 1241.3768,-440.8592 1247,-434 1307.2688,-360.4839 1149.2826,-295.3787 1071.4221,-268.7618"/>
<polygon fill="#191970" stroke="#191970" points="1072.4889,-265.428 1061.8949,-265.5601 1070.259,-272.0634 1072.4889,-265.428"/>
</g>
<!-- Node31 -->
<g id="node32" class="node">
<title>Node31</title>
<g id="a_node32"><a xlink:href="../../da/d61/PadROCPos_8h.html" target="_top" xlink:title="TPCBase/PadROCPos.h">
<polygon fill="none" stroke="#000000" points="694.5,-358.5 694.5,-377.5 821.5,-377.5 821.5,-358.5 694.5,-358.5"/>
<text text-anchor="middle" x="758" y="-365.5" font-family="Helvetica,sans-Serif" font-size="10.00" fill="#000000">TPCBase/PadROCPos.h</text>
</a>
</g>
</g>
<!-- Node24&#45;&gt;Node31 -->
<g id="edge39" class="edge">
<title>Node24&#45;&gt;Node31</title>
<path fill="none" stroke="#191970" d="M963.2621,-477.7611C896.7554,-473.7715 789.068,-462.9173 763,-434 751.9638,-421.7575 751.7251,-402.514 753.6489,-387.9583"/>
<polygon fill="#191970" stroke="#191970" points="757.1268,-388.3877 755.3985,-377.9348 750.2311,-387.184 757.1268,-388.3877"/>
</g>
<!-- Node33 -->
<g id="node34" class="node">
<title>Node33</title>
<g id="a_node34"><a xlink:href="../../d3/d54/DigitPos_8h.html" target="_top" xlink:title="TPCBase/DigitPos.h">
<polygon fill="none" stroke="#000000" points="772,-414.5 772,-433.5 884,-433.5 884,-414.5 772,-414.5"/>
<text text-anchor="middle" x="828" y="-421.5" font-family="Helvetica,sans-Serif" font-size="10.00" fill="#000000">TPCBase/DigitPos.h</text>
</a>
</g>
</g>
<!-- Node24&#45;&gt;Node33 -->
<g id="edge45" class="edge">
<title>Node24&#45;&gt;Node33</title>
<path fill="none" stroke="#191970" d="M984.5097,-470.3733C952.8098,-460.9807 904.4424,-446.6496 869.8714,-436.4064"/>
<polygon fill="#191970" stroke="#191970" points="870.6486,-432.9863 860.0663,-433.5011 868.6599,-439.6979 870.6486,-432.9863"/>
</g>
<!-- Node35 -->
<g id="node36" class="node">
<title>Node35</title>
<g id="a_node36"><a xlink:href="../../d1/d1f/FECInfo_8h.html" target="_top" xlink:title="TPCBase/FECInfo.h">
<polygon fill="none" stroke="#000000" points="1358,-246.5 1358,-265.5 1466,-265.5 1466,-246.5 1358,-246.5"/>
<text text-anchor="middle" x="1412" y="-253.5" font-family="Helvetica,sans-Serif" font-size="10.00" fill="#000000">TPCBase/FECInfo.h</text>
</a>
</g>
</g>
<!-- Node24&#45;&gt;Node35 -->
<g id="edge53" class="edge">
<title>Node24&#45;&gt;Node35</title>
<path fill="none" stroke="#191970" d="M1070.543,-475.4478C1157.7777,-467.5937 1323.0112,-450.725 1344,-434 1393.9402,-394.2049 1407.2298,-313.2196 1410.746,-275.7871"/>
<polygon fill="#191970" stroke="#191970" points="1414.2473,-275.9088 1411.5532,-265.6622 1407.2694,-275.3524 1414.2473,-275.9088"/>
</g>
<!-- Node36 -->
<g id="node37" class="node">
<title>Node36</title>
<g id="a_node37"><a xlink:href="../../da/d9d/PadRegionInfo_8h.html" target="_top" xlink:title="TPCBase/PadRegionInfo.h">
<polygon fill="none" stroke="#000000" points="576,-414.5 576,-433.5 716,-433.5 716,-414.5 576,-414.5"/>
<text text-anchor="middle" x="646" y="-421.5" font-family="Helvetica,sans-Serif" font-size="10.00" fill="#000000">TPCBase/PadRegionInfo.h</text>
</a>
</g>
</g>
<!-- Node24&#45;&gt;Node36 -->
<g id="edge55" class="edge">
<title>Node24&#45;&gt;Node36</title>
<path fill="none" stroke="#191970" d="M963.4496,-471.9169C899.1503,-462.2114 790.9966,-445.8863 719.0641,-435.0285"/>
<polygon fill="#191970" stroke="#191970" points="719.5733,-431.5658 709.1629,-433.534 718.5285,-438.4874 719.5733,-431.5658"/>
</g>
<!-- Node37 -->
<g id="node38" class="node">
<title>Node37</title>
<g id="a_node38"><a xlink:href="../../d6/d42/PartitionInfo_8h.html" target="_top" xlink:title="TPCBase/PartitionInfo.h">
<polygon fill="none" stroke="#000000" points="1056.5,-414.5 1056.5,-433.5 1187.5,-433.5 1187.5,-414.5 1056.5,-414.5"/>
<text text-anchor="middle" x="1122" y="-421.5" font-family="Helvetica,sans-Serif" font-size="10.00" fill="#000000">TPCBase/PartitionInfo.h</text>
</a>
</g>
</g>
<!-- Node24&#45;&gt;Node37 -->
<g id="edge59" class="edge">
<title>Node24&#45;&gt;Node37</title>
<path fill="none" stroke="#191970" d="M1035.2896,-470.2455C1051.7762,-461.4527 1076.2352,-448.4079 1094.9765,-438.4125"/>
<polygon fill="#191970" stroke="#191970" points="1096.7435,-441.4368 1103.92,-433.6427 1093.4494,-435.2604 1096.7435,-441.4368"/>
</g>
<!-- Node28&#45;&gt;Node27 -->
<g id="edge38" class="edge">
<title>Node28&#45;&gt;Node27</title>
<path fill="none" stroke="#191970" d="M1105.1994,-358.3733C1085.7757,-349.3838 1056.5776,-335.8706 1034.7036,-325.7471"/>
<polygon fill="#191970" stroke="#191970" points="1036.0745,-322.5249 1025.5292,-321.5011 1033.1344,-328.8776 1036.0745,-322.5249"/>
</g>
<!-- Node28&#45;&gt;Node29 -->
<g id="edge35" class="edge">
<title>Node28&#45;&gt;Node29</title>
<path fill="none" stroke="#191970" d="M1117.9004,-358.4509C1101.9153,-339.6054 1066.1032,-297.3849 1045.7944,-273.4419"/>
<polygon fill="#191970" stroke="#191970" points="1048.2169,-270.887 1039.0791,-265.5249 1042.8786,-275.415 1048.2169,-270.887"/>
</g>
<!-- Node29&#45;&gt;Node10 -->
<g id="edge37" class="edge">
<title>Node29&#45;&gt;Node10</title>
<path fill="none" stroke="#191970" d="M993.3526,-246.3733C956.148,-236.8598 899.1297,-222.2797 858.9784,-212.0127"/>
<polygon fill="#191970" stroke="#191970" points="859.7116,-208.5877 849.1562,-209.5011 857.9773,-215.3695 859.7116,-208.5877"/>
</g>
<!-- Node30 -->
<g id="node31" class="node">
<title>Node30</title>
<g id="a_node31"><a xlink:href="../../d0/dda/DataFormats_2Detectors_2TPC_2include_2DataFormatsTPC_2Constants_8h.html" target="_top" xlink:title="DataFormatsTPC/Constants.h">
<polygon fill="none" stroke="#000000" points="951.5,-190.5 951.5,-209.5 1110.5,-209.5 1110.5,-190.5 951.5,-190.5"/>
<text text-anchor="middle" x="1031" y="-197.5" font-family="Helvetica,sans-Serif" font-size="10.00" fill="#000000">DataFormatsTPC/Constants.h</text>
</a>
</g>
</g>
<!-- Node29&#45;&gt;Node30 -->
<g id="edge36" class="edge">
<title>Node29&#45;&gt;Node30</title>
<path fill="none" stroke="#191970" d="M1031,-246.2455C1031,-238.9382 1031,-228.6944 1031,-219.7046"/>
<polygon fill="#191970" stroke="#191970" points="1034.5001,-219.6426 1031,-209.6427 1027.5001,-219.6427 1034.5001,-219.6426"/>
</g>
<!-- Node31&#45;&gt;Node10 -->
<g id="edge40" class="edge">
<title>Node31&#45;&gt;Node10</title>
<path fill="none" stroke="#191970" d="M756.3219,-358.4216C754.3874,-345.4175 752.0636,-321.5556 757,-302 765.0341,-270.1727 785.1687,-237.4821 798.7158,-217.9571"/>
<polygon fill="#191970" stroke="#191970" points="801.628,-219.9015 804.5824,-209.7269 795.9279,-215.8384 801.628,-219.9015"/>
</g>
<!-- Node31&#45;&gt;Node27 -->
<g id="edge44" class="edge">
<title>Node31&#45;&gt;Node27</title>
<path fill="none" stroke="#191970" d="M800.1802,-358.4369C842.4523,-348.8529 907.6062,-334.0812 953.0417,-323.78"/>
<polygon fill="#191970" stroke="#191970" points="954.0152,-327.1482 962.9938,-321.5237 952.4674,-320.3215 954.0152,-327.1482"/>
</g>
<!-- Node31&#45;&gt;Node32 -->
<g id="edge41" class="edge">
<title>Node31&#45;&gt;Node32</title>
<path fill="none" stroke="#191970" d="M767.4061,-358.2455C775.1493,-350.2155 786.312,-338.6394 795.5318,-329.0781"/>
<polygon fill="#191970" stroke="#191970" points="798.2798,-331.2706 802.7017,-321.6427 793.2409,-326.4117 798.2798,-331.2706"/>
</g>
<!-- Node32&#45;&gt;Node10 -->
<g id="edge42" class="edge">
<title>Node32&#45;&gt;Node10</title>
<path fill="none" stroke="#191970" d="M812,-302.4509C812,-284.184 812,-243.9553 812,-219.6976"/>
<polygon fill="#191970" stroke="#191970" points="815.5001,-219.5249 812,-209.5249 808.5001,-219.5249 815.5001,-219.5249"/>
</g>
<!-- Node32&#45;&gt;Node29 -->
<g id="edge43" class="edge">
<title>Node32&#45;&gt;Node29</title>
<path fill="none" stroke="#191970" d="M849.6474,-302.3733C886.852,-292.8598 943.8703,-278.2797 984.0216,-268.0127"/>
<polygon fill="#191970" stroke="#191970" points="985.0227,-271.3695 993.8438,-265.5011 983.2884,-264.5877 985.0227,-271.3695"/>
</g>
<!-- Node33&#45;&gt;Node10 -->
<g id="edge46" class="edge">
<title>Node33&#45;&gt;Node10</title>
<path fill="none" stroke="#191970" d="M778.0685,-414.4252C741.4558,-406.2713 696.2512,-393.4382 685,-378 641.2048,-317.9068 738.7795,-245.5647 787.0278,-214.899"/>
<polygon fill="#191970" stroke="#191970" points="789.0528,-217.7612 795.6908,-209.5036 785.3521,-211.8194 789.0528,-217.7612"/>
</g>
<!-- Node33&#45;&gt;Node27 -->
<g id="edge51" class="edge">
<title>Node33&#45;&gt;Node27</title>
<path fill="none" stroke="#191970" d="M871.0045,-414.4999C908.2429,-405.5604 958.4948,-391.5568 974,-378 987.8219,-365.9151 995.9323,-346.3401 1000.3666,-331.6404"/>
<polygon fill="#191970" stroke="#191970" points="1003.8617,-332.1201 1003.0746,-321.5546 997.1011,-330.3049 1003.8617,-332.1201"/>
</g>
<!-- Node33&#45;&gt;Node28 -->
<g id="edge52" class="edge">
<title>Node33&#45;&gt;Node28</title>
<path fill="none" stroke="#191970" d="M878.8894,-414.4369C930.5327,-404.7321 1010.4826,-389.708 1065.3749,-379.3926"/>
<polygon fill="#191970" stroke="#191970" points="1066.1389,-382.8104 1075.3205,-377.5237 1064.8461,-375.9308 1066.1389,-382.8104"/>
</g>
<!-- Node34 -->
<g id="node35" class="node">
<title>Node34</title>
<g id="a_node35"><a xlink:href="../../df/d26/CRU_8h.html" target="_top" xlink:title="TPCBase/CRU.h">
<polygon fill="none" stroke="#000000" points="840,-358.5 840,-377.5 932,-377.5 932,-358.5 840,-358.5"/>
<text text-anchor="middle" x="886" y="-365.5" font-family="Helvetica,sans-Serif" font-size="10.00" fill="#000000">TPCBase/CRU.h</text>
</a>
</g>
</g>
<!-- Node33&#45;&gt;Node34 -->
<g id="edge47" class="edge">
<title>Node33&#45;&gt;Node34</title>
<path fill="none" stroke="#191970" d="M838.1028,-414.2455C846.5028,-406.1352 858.6494,-394.4075 868.6084,-384.7919"/>
<polygon fill="#191970" stroke="#191970" points="871.25,-387.1066 876.0129,-377.6427 866.3878,-382.0707 871.25,-387.1066"/>
</g>
<!-- Node34&#45;&gt;Node10 -->
<g id="edge48" class="edge">
<title>Node34&#45;&gt;Node10</title>
<path fill="none" stroke="#191970" d="M883.916,-358.3849C880.9356,-345.3393 874.9283,-321.4304 867,-302 854.5241,-271.4244 835.4359,-238.1247 823.3436,-218.164"/>
<polygon fill="#191970" stroke="#191970" points="826.2436,-216.198 818.029,-209.5069 820.2781,-219.8603 826.2436,-216.198"/>
</g>
<!-- Node34&#45;&gt;Node29 -->
<g id="edge49" class="edge">
<title>Node34&#45;&gt;Node29</title>
<path fill="none" stroke="#191970" d="M892.4406,-358.4779C902.1376,-344.6782 921.6401,-318.9243 943,-302 959.6449,-288.8116 980.6476,-277.6642 997.9598,-269.6474"/>
<polygon fill="#191970" stroke="#191970" points="999.4578,-272.8115 1007.1469,-265.5227 996.5906,-266.4256 999.4578,-272.8115"/>
</g>
<!-- Node34&#45;&gt;Node32 -->
<g id="edge50" class="edge">
<title>Node34&#45;&gt;Node32</title>
<path fill="none" stroke="#191970" d="M873.1102,-358.2455C862.0746,-349.8943 845.9708,-337.7076 833.0647,-327.9408"/>
<polygon fill="#191970" stroke="#191970" points="834.8283,-324.8862 824.7421,-321.6427 830.6041,-330.4681 834.8283,-324.8862"/>
</g>
<!-- Node35&#45;&gt;Node23 -->
<g id="edge54" class="edge">
<title>Node35&#45;&gt;Node23</title>
<path fill="none" stroke="#191970" d="M1412,-246.4248C1412,-218.999 1412,-139.732 1412,-102.3964"/>
<polygon fill="#191970" stroke="#191970" points="1415.5001,-102.2595 1412,-92.2595 1408.5001,-102.2596 1415.5001,-102.2595"/>
</g>
<!-- Node36&#45;&gt;Node1 -->
<g id="edge56" class="edge">
<title>Node36&#45;&gt;Node1</title>
<path fill="none" stroke="#191970" d="M622.6208,-414.3733C600.4955,-405.2629 567.0866,-391.5062 542.3981,-381.3404"/>
<polygon fill="#191970" stroke="#191970" points="543.6536,-378.0723 533.0742,-377.5011 540.9883,-384.5451 543.6536,-378.0723"/>
</g>
<!-- Node36&#45;&gt;Node10 -->
<g id="edge57" class="edge">
<title>Node36&#45;&gt;Node10</title>
<path fill="none" stroke="#191970" d="M646.9045,-414.367C649.1873,-393.1413 656.386,-341.1212 675,-302 688.4823,-273.6642 693.7095,-265.8661 718,-246 734.9285,-232.1549 756.7189,-221.16 775.0567,-213.3957"/>
<polygon fill="#191970" stroke="#191970" points="776.62,-216.5383 784.5611,-209.5248 773.9796,-210.0553 776.62,-216.5383"/>
</g>
<!-- Node36&#45;&gt;Node27 -->
<g id="edge58" class="edge">
<title>Node36&#45;&gt;Node27</title>
<path fill="none" stroke="#191970" d="M716.2543,-418.2119C790.7759,-411.1685 902.9095,-397.7207 941,-378 962.8012,-366.7128 981.5086,-345.1632 992.9697,-329.7577"/>
<polygon fill="#191970" stroke="#191970" points="995.8878,-331.6939 998.8491,-321.5213 990.1904,-327.6269 995.8878,-331.6939"/>
</g>
<!-- Node38&#45;&gt;Node1 -->
<g id="edge66" class="edge">
<title>Node38&#45;&gt;Node1</title>
<path fill="none" stroke="#191970" d="M1164.8541,-534.4353C1019.8067,-529.3483 637.0885,-508.975 539,-434 524.4373,-422.8689 517.0457,-402.8732 513.3863,-387.7985"/>
<polygon fill="#191970" stroke="#191970" points="516.789,-386.97 511.3321,-377.8886 509.9347,-388.3909 516.789,-386.97"/>
</g>
<!-- Node38&#45;&gt;Node4 -->
<g id="edge65" class="edge">
<title>Node38&#45;&gt;Node4</title>
<path fill="none" stroke="#191970" d="M1164.6546,-534.6424C1056.5314,-531.4008 812.6824,-521.01 610,-490 608.7215,-489.8044 607.4247,-489.5911 606.1176,-489.3634"/>
<polygon fill="#191970" stroke="#191970" points="606.5134,-485.8744 596.027,-487.3865 605.1675,-492.7439 606.5134,-485.8744"/>
</g>
<!-- Node38&#45;&gt;Node5 -->
<g id="edge67" class="edge">
<title>Node38&#45;&gt;Node5</title>
<path fill="none" stroke="#191970" d="M1275.1585,-526.4339C1307.0089,-519.35 1347.3129,-507.7873 1380,-490 1403.5715,-477.1731 1426.2108,-455.9863 1440.5546,-441.0845"/>
<polygon fill="#191970" stroke="#191970" points="1443.3367,-443.2343 1447.6232,-433.5453 1438.2301,-438.4465 1443.3367,-443.2343"/>
</g>
<!-- Node38&#45;&gt;Node6 -->
<g id="edge70" class="edge">
<title>Node38&#45;&gt;Node6</title>
<path fill="none" stroke="#191970" d="M1264.8879,-526.4369C1308.9638,-516.8328 1376.9481,-502.0191 1424.2358,-491.7152"/>
<polygon fill="#191970" stroke="#191970" points="1425.2676,-495.0725 1434.2932,-489.5237 1423.7772,-488.233 1425.2676,-495.0725"/>
</g>
<!-- Node38&#45;&gt;Node9 -->
<g id="edge71" class="edge">
<title>Node38&#45;&gt;Node9</title>
<path fill="none" stroke="#191970" d="M1277.0231,-529.0751C1338.4115,-521.2171 1439.9998,-507.4229 1536.4681,-490.1887"/>
<polygon fill="#191970" stroke="#191970" points="1537.1667,-493.6193 1546.3873,-488.401 1535.925,-486.7303 1537.1667,-493.6193"/>
</g>
<!-- Node38&#45;&gt;Node24 -->
<g id="edge72" class="edge">
<title>Node38&#45;&gt;Node24</title>
<path fill="none" stroke="#191970" d="M1185.9311,-526.3733C1151.5685,-516.9404 1099.0608,-502.5265 1061.7149,-492.2747"/>
<polygon fill="#191970" stroke="#191970" points="1062.181,-488.7732 1051.6112,-489.5011 1060.328,-495.5235 1062.181,-488.7732"/>
</g>
<!-- Node39 -->
<g id="node40" class="node">
<title>Node39</title>
<polygon fill="none" stroke="#bfbfbf" points="1253,-470.5 1253,-489.5 1297,-489.5 1297,-470.5 1253,-470.5"/>
<text text-anchor="middle" x="1275" y="-477.5" font-family="Helvetica,sans-Serif" font-size="10.00" fill="#000000">Vc/Vc</text>
</g>
<!-- Node38&#45;&gt;Node39 -->
<g id="edge64" class="edge">
<title>Node38&#45;&gt;Node39</title>
<path fill="none" stroke="#191970" d="M1230.4061,-526.2455C1238.1493,-518.2155 1249.312,-506.6394 1258.5318,-497.0781"/>
<polygon fill="#191970" stroke="#191970" points="1261.2798,-499.2706 1265.7017,-489.6427 1256.2409,-494.4117 1261.2798,-499.2706"/>
</g>
<!-- Node40 -->
<g id="node41" class="node">
<title>Node40</title>
<polygon fill="none" stroke="#bfbfbf" points="1315,-470.5 1315,-489.5 1371,-489.5 1371,-470.5 1315,-470.5"/>
<text text-anchor="middle" x="1343" y="-477.5" font-family="Helvetica,sans-Serif" font-size="10.00" fill="#000000">numeric</text>
</g>
<!-- Node38&#45;&gt;Node40 -->
<g id="edge68" class="edge">
<title>Node38&#45;&gt;Node40</title>
<path fill="none" stroke="#191970" d="M1241.9725,-526.3733C1261.5567,-517.3838 1290.9961,-503.8706 1313.051,-493.7471"/>
<polygon fill="#191970" stroke="#191970" points="1314.6729,-496.8538 1322.3011,-489.5011 1311.7527,-490.4919 1314.6729,-496.8538"/>
</g>
<!-- Node41 -->
<g id="node42" class="node">
<title>Node41</title>
<polygon fill="none" stroke="#bfbfbf" points="1165.5,-470.5 1165.5,-489.5 1234.5,-489.5 1234.5,-470.5 1165.5,-470.5"/>
<text text-anchor="middle" x="1200" y="-477.5" font-family="Helvetica,sans-Serif" font-size="10.00" fill="#000000">type_traits</text>
</g>
<!-- Node38&#45;&gt;Node41 -->
<g id="edge69" class="edge">
<title>Node38&#45;&gt;Node41</title>
<path fill="none" stroke="#191970" d="M1217.3421,-526.2455C1214.5416,-518.7776 1210.591,-508.2427 1207.1676,-499.1137"/>
<polygon fill="#191970" stroke="#191970" points="1210.4045,-497.777 1203.616,-489.6427 1203.8501,-500.2349 1210.4045,-497.777"/>
</g>
</g>
</svg>
