<?xml version="1.0" encoding="UTF-8" standalone="no"?>
<!DOCTYPE svg PUBLIC "-//W3C//DTD SVG 1.1//EN"
 "http://www.w3.org/Graphics/SVG/1.1/DTD/svg11.dtd">
<!-- Generated by graphviz version 2.40.1 (20161225.0304)
 -->
<!-- Title: /home/travis/build/AliceO2Group/AliceO2/Framework/Core/src/TableTreeHelpers.cxx Pages: 1 -->
<svg width="2626pt" height="397pt"
 viewBox="0.00 0.00 2625.50 397.00" xmlns="http://www.w3.org/2000/svg" xmlns:xlink="http://www.w3.org/1999/xlink">
<g id="graph0" class="graph" transform="scale(1 1) rotate(0) translate(4 393)">
<title>/home/travis/build/AliceO2Group/AliceO2/Framework/Core/src/TableTreeHelpers.cxx</title>
<!-- Node0 -->
<g id="node1" class="node">
<title>Node0</title>
<polygon fill="#bfbfbf" stroke="#000000" points="2341.5,-336.5 2341.5,-388.5 2506.5,-388.5 2506.5,-336.5 2341.5,-336.5"/>
<text text-anchor="start" x="2349.5" y="-376.5" font-family="Helvetica,sans-Serif" font-size="10.00" fill="#000000">/home/travis/build</text>
<text text-anchor="start" x="2349.5" y="-365.5" font-family="Helvetica,sans-Serif" font-size="10.00" fill="#000000">/AliceO2Group/AliceO2</text>
<text text-anchor="start" x="2349.5" y="-354.5" font-family="Helvetica,sans-Serif" font-size="10.00" fill="#000000">/Framework/Core/src/TableTree</text>
<text text-anchor="middle" x="2424" y="-343.5" font-family="Helvetica,sans-Serif" font-size="10.00" fill="#000000">Helpers.cxx</text>
</g>
<!-- Node1 -->
<g id="node2" class="node">
<title>Node1</title>
<g id="a_node2"><a xlink:href="../../d4/df5/TableTreeHelpers_8h.html" target="_top" xlink:title="Framework/TableTreeHelpers.h">
<polygon fill="none" stroke="#000000" points="2005,-280.5 2005,-299.5 2171,-299.5 2171,-280.5 2005,-280.5"/>
<text text-anchor="middle" x="2088" y="-287.5" font-family="Helvetica,sans-Serif" font-size="10.00" fill="#000000">Framework/TableTreeHelpers.h</text>
</a>
</g>
</g>
<!-- Node0&#45;&gt;Node1 -->
<g id="edge1" class="edge">
<title>Node0&#45;&gt;Node1</title>
<path fill="none" stroke="#191970" d="M2341.3748,-344.6716C2279.3096,-331.2796 2196.0715,-313.319 2142.2336,-301.7022"/>
<polygon fill="#191970" stroke="#191970" points="2142.7174,-298.2261 2132.2041,-299.5381 2141.2409,-305.0686 2142.7174,-298.2261"/>
</g>
<!-- Node41 -->
<g id="node42" class="node">
<title>Node41</title>
<polygon fill="none" stroke="#bfbfbf" points="2508.5,-168.5 2508.5,-187.5 2617.5,-187.5 2617.5,-168.5 2508.5,-168.5"/>
<text text-anchor="middle" x="2563" y="-175.5" font-family="Helvetica,sans-Serif" font-size="10.00" fill="#000000">arrow/type_traits.h</text>
</g>
<!-- Node0&#45;&gt;Node41 -->
<g id="edge65" class="edge">
<title>Node0&#45;&gt;Node41</title>
<path fill="none" stroke="#191970" d="M2421.2012,-336.4922C2419.395,-306.1489 2421.133,-256.0585 2447,-224 2459.9764,-207.9176 2479.3869,-197.4336 2498.6354,-190.6088"/>
<polygon fill="#191970" stroke="#191970" points="2499.9169,-193.8726 2508.3459,-187.4537 2497.7537,-187.2152 2499.9169,-193.8726"/>
</g>
<!-- Node46 -->
<g id="node47" class="node">
<title>Node46</title>
<g id="a_node47"><a xlink:href="../../dd/da4/Logger_8h.html" target="_top" xlink:title="Framework/Logger.h">
<polygon fill="none" stroke="#000000" points="2452.5,-280.5 2452.5,-299.5 2567.5,-299.5 2567.5,-280.5 2452.5,-280.5"/>
<text text-anchor="middle" x="2510" y="-287.5" font-family="Helvetica,sans-Serif" font-size="10.00" fill="#000000">Framework/Logger.h</text>
</a>
</g>
</g>
<!-- Node0&#45;&gt;Node46 -->
<g id="edge63" class="edge">
<title>Node0&#45;&gt;Node46</title>
<path fill="none" stroke="#191970" d="M2455.048,-336.3258C2467.0446,-326.2124 2480.3894,-314.9624 2490.924,-306.0815"/>
<polygon fill="#191970" stroke="#191970" points="2493.3009,-308.6555 2498.6907,-299.534 2488.7891,-303.3035 2493.3009,-308.6555"/>
</g>
<!-- Node2 -->
<g id="node3" class="node">
<title>Node2</title>
<polygon fill="none" stroke="#bfbfbf" points="2106,-224.5 2106,-243.5 2154,-243.5 2154,-224.5 2106,-224.5"/>
<text text-anchor="middle" x="2130" y="-231.5" font-family="Helvetica,sans-Serif" font-size="10.00" fill="#000000">TFile.h</text>
</g>
<!-- Node1&#45;&gt;Node2 -->
<g id="edge2" class="edge">
<title>Node1&#45;&gt;Node2</title>
<path fill="none" stroke="#191970" d="M2095.3158,-280.2455C2101.2179,-272.3761 2109.6742,-261.101 2116.7594,-251.6542"/>
<polygon fill="#191970" stroke="#191970" points="2119.568,-253.7427 2122.768,-243.6427 2113.9679,-249.5427 2119.568,-253.7427"/>
</g>
<!-- Node3 -->
<g id="node4" class="node">
<title>Node3</title>
<polygon fill="none" stroke="#bfbfbf" points="2172.5,-224.5 2172.5,-243.5 2257.5,-243.5 2257.5,-224.5 2172.5,-224.5"/>
<text text-anchor="middle" x="2215" y="-231.5" font-family="Helvetica,sans-Serif" font-size="10.00" fill="#000000">TTreeReader.h</text>
</g>
<!-- Node1&#45;&gt;Node3 -->
<g id="edge3" class="edge">
<title>Node1&#45;&gt;Node3</title>
<path fill="none" stroke="#191970" d="M2109.8321,-280.3733C2130.3103,-271.3435 2161.1399,-257.7494 2184.1319,-247.6111"/>
<polygon fill="#191970" stroke="#191970" points="2185.715,-250.7383 2193.4528,-243.5011 2182.8907,-244.3333 2185.715,-250.7383"/>
</g>
<!-- Node4 -->
<g id="node5" class="node">
<title>Node4</title>
<polygon fill="none" stroke="#bfbfbf" points="1742.5,-224.5 1742.5,-243.5 1855.5,-243.5 1855.5,-224.5 1742.5,-224.5"/>
<text text-anchor="middle" x="1799" y="-231.5" font-family="Helvetica,sans-Serif" font-size="10.00" fill="#000000">TTreeReaderValue.h</text>
</g>
<!-- Node1&#45;&gt;Node4 -->
<g id="edge4" class="edge">
<title>Node1&#45;&gt;Node4</title>
<path fill="none" stroke="#191970" d="M2038.6475,-280.4369C1988.6678,-270.7522 1911.3502,-255.7703 1858.1258,-245.4569"/>
<polygon fill="#191970" stroke="#191970" points="1858.6322,-241.99 1848.1489,-243.5237 1857.3005,-248.8622 1858.6322,-241.99"/>
</g>
<!-- Node5 -->
<g id="node6" class="node">
<title>Node5</title>
<polygon fill="none" stroke="#bfbfbf" points="1874,-224.5 1874,-243.5 1984,-243.5 1984,-224.5 1874,-224.5"/>
<text text-anchor="middle" x="1929" y="-231.5" font-family="Helvetica,sans-Serif" font-size="10.00" fill="#000000">TTreeReaderArray.h</text>
</g>
<!-- Node1&#45;&gt;Node5 -->
<g id="edge5" class="edge">
<title>Node1&#45;&gt;Node5</title>
<path fill="none" stroke="#191970" d="M2060.6669,-280.3733C2034.4566,-271.1419 1994.7016,-257.1402 1965.7332,-246.9375"/>
<polygon fill="#191970" stroke="#191970" points="1966.5712,-243.5219 1955.9764,-243.5011 1964.2458,-250.1244 1966.5712,-243.5219"/>
</g>
<!-- Node6 -->
<g id="node7" class="node">
<title>Node6</title>
<g id="a_node7"><a xlink:href="../../d5/d98/TableBuilder_8h.html" target="_top" xlink:title="TableBuilder.h">
<polygon fill="none" stroke="#000000" points="2002.5,-224.5 2002.5,-243.5 2087.5,-243.5 2087.5,-224.5 2002.5,-224.5"/>
<text text-anchor="middle" x="2045" y="-231.5" font-family="Helvetica,sans-Serif" font-size="10.00" fill="#000000">TableBuilder.h</text>
</a>
</g>
</g>
<!-- Node1&#45;&gt;Node6 -->
<g id="edge6" class="edge">
<title>Node1&#45;&gt;Node6</title>
<path fill="none" stroke="#191970" d="M2080.51,-280.2455C2074.4674,-272.3761 2065.8097,-261.101 2058.5559,-251.6542"/>
<polygon fill="#191970" stroke="#191970" points="2061.2705,-249.4426 2052.4042,-243.6427 2055.7185,-253.7058 2061.2705,-249.4426"/>
</g>
<!-- Node7 -->
<g id="node8" class="node">
<title>Node7</title>
<g id="a_node8"><a xlink:href="../../de/d33/ASoA_8h.html" target="_top" xlink:title="Framework/ASoA.h">
<polygon fill="none" stroke="#000000" points="1268,-168.5 1268,-187.5 1376,-187.5 1376,-168.5 1268,-168.5"/>
<text text-anchor="middle" x="1322" y="-175.5" font-family="Helvetica,sans-Serif" font-size="10.00" fill="#000000">Framework/ASoA.h</text>
</a>
</g>
</g>
<!-- Node6&#45;&gt;Node7 -->
<g id="edge7" class="edge">
<title>Node6&#45;&gt;Node7</title>
<path fill="none" stroke="#191970" d="M2002.218,-225.3456C1999.1054,-224.8472 1996.0085,-224.3909 1993,-224 1771.348,-195.1981 1506.0071,-183.7496 1386.2412,-179.8064"/>
<polygon fill="#191970" stroke="#191970" points="1386.2527,-176.305 1376.1449,-179.4805 1386.0268,-183.3014 1386.2527,-176.305"/>
</g>
<!-- Node13 -->
<g id="node14" class="node">
<title>Node13</title>
<g id="a_node14"><a xlink:href="../../de/d9b/FunctionalHelpers_8h.html" target="_top" xlink:title="Framework/FunctionalHelpers.h">
<polygon fill="none" stroke="#000000" points="1626,-112.5 1626,-131.5 1796,-131.5 1796,-112.5 1626,-112.5"/>
<text text-anchor="middle" x="1711" y="-119.5" font-family="Helvetica,sans-Serif" font-size="10.00" fill="#000000">Framework/FunctionalHelpers.h</text>
</a>
</g>
</g>
<!-- Node6&#45;&gt;Node13 -->
<g id="edge50" class="edge">
<title>Node6&#45;&gt;Node13</title>
<path fill="none" stroke="#191970" d="M2002.378,-225.7592C1936.5986,-213.0118 1817.4002,-189.7832 1813,-188 1781.8385,-175.3719 1749.9348,-152.8792 1730.296,-137.7038"/>
<polygon fill="#191970" stroke="#191970" points="1732.4465,-134.9423 1722.4254,-131.5031 1728.1146,-140.4409 1732.4465,-134.9423"/>
</g>
<!-- Node14 -->
<g id="node15" class="node">
<title>Node14</title>
<polygon fill="none" stroke="#bfbfbf" points="2018.5,-56.5 2018.5,-75.5 2083.5,-75.5 2083.5,-56.5 2018.5,-56.5"/>
<text text-anchor="middle" x="2051" y="-63.5" font-family="Helvetica,sans-Serif" font-size="10.00" fill="#000000">functional</text>
</g>
<!-- Node6&#45;&gt;Node14 -->
<g id="edge58" class="edge">
<title>Node6&#45;&gt;Node14</title>
<path fill="none" stroke="#191970" d="M2011.1035,-224.4632C1993.1299,-217.4893 1972.6198,-206.0275 1962,-188 1957.4883,-180.3412 1960.5527,-176.7703 1962,-168 1966.2793,-142.0683 1964.922,-132.791 1981,-112 1991.2636,-98.7278 2006.494,-88.0754 2020.1297,-80.3772"/>
<polygon fill="#191970" stroke="#191970" points="2022.0562,-83.3165 2029.2343,-75.5237 2018.7633,-77.1393 2022.0562,-83.3165"/>
</g>
<!-- Node24 -->
<g id="node25" class="node">
<title>Node24</title>
<polygon fill="none" stroke="#bfbfbf" points="1780.5,-56.5 1780.5,-75.5 1861.5,-75.5 1861.5,-56.5 1780.5,-56.5"/>
<text text-anchor="middle" x="1821" y="-63.5" font-family="Helvetica,sans-Serif" font-size="10.00" fill="#000000">arrow/table.h</text>
</g>
<!-- Node6&#45;&gt;Node24 -->
<g id="edge56" class="edge">
<title>Node6&#45;&gt;Node24</title>
<path fill="none" stroke="#191970" d="M2008.2513,-224.4875C1984.0184,-217.0734 1952.3732,-205.1331 1928,-188 1886.5353,-158.8524 1850.5059,-110.4201 1832.7505,-84.2033"/>
<polygon fill="#191970" stroke="#191970" points="1835.5049,-82.0239 1827.0597,-75.6264 1829.6721,-85.8941 1835.5049,-82.0239"/>
</g>
<!-- Node31 -->
<g id="node32" class="node">
<title>Node31</title>
<polygon fill="none" stroke="#bfbfbf" points="1880,-56.5 1880,-75.5 1924,-75.5 1924,-56.5 1880,-56.5"/>
<text text-anchor="middle" x="1902" y="-63.5" font-family="Helvetica,sans-Serif" font-size="10.00" fill="#000000">string</text>
</g>
<!-- Node6&#45;&gt;Node31 -->
<g id="edge60" class="edge">
<title>Node6&#45;&gt;Node31</title>
<path fill="none" stroke="#191970" d="M2006.87,-224.3922C1986.09,-217.3955 1961.3514,-205.9344 1945,-188 1918.3759,-158.7985 1908.0366,-112.1017 1904.174,-85.7564"/>
<polygon fill="#191970" stroke="#191970" points="1907.6042,-84.9899 1902.8529,-75.5202 1900.6617,-85.886 1907.6042,-84.9899"/>
</g>
<!-- Node32 -->
<g id="node33" class="node">
<title>Node32</title>
<polygon fill="none" stroke="#bfbfbf" points="1942,-56.5 1942,-75.5 2000,-75.5 2000,-56.5 1942,-56.5"/>
<text text-anchor="middle" x="1971" y="-63.5" font-family="Helvetica,sans-Serif" font-size="10.00" fill="#000000">memory</text>
</g>
<!-- Node6&#45;&gt;Node32 -->
<g id="edge61" class="edge">
<title>Node6&#45;&gt;Node32</title>
<path fill="none" stroke="#191970" d="M2006.9024,-224.4497C1988.1054,-217.6063 1967.1252,-206.2734 1956,-188 1936.493,-155.9592 1950.847,-110.3989 1961.7582,-84.992"/>
<polygon fill="#191970" stroke="#191970" points="1965.0184,-86.2779 1965.9746,-75.7263 1958.647,-83.3786 1965.0184,-86.2779"/>
</g>
<!-- Node38 -->
<g id="node39" class="node">
<title>Node38</title>
<g id="a_node39"><a xlink:href="../../db/d4f/StructToTuple_8h.html" target="_top" xlink:title="Framework/StructToTuple.h">
<polygon fill="none" stroke="#000000" points="1971.5,-168.5 1971.5,-187.5 2118.5,-187.5 2118.5,-168.5 1971.5,-168.5"/>
<text text-anchor="middle" x="2045" y="-175.5" font-family="Helvetica,sans-Serif" font-size="10.00" fill="#000000">Framework/StructToTuple.h</text>
</a>
</g>
</g>
<!-- Node6&#45;&gt;Node38 -->
<g id="edge46" class="edge">
<title>Node6&#45;&gt;Node38</title>
<path fill="none" stroke="#191970" d="M2045,-224.2455C2045,-216.9382 2045,-206.6944 2045,-197.7046"/>
<polygon fill="#191970" stroke="#191970" points="2048.5001,-197.6426 2045,-187.6427 2041.5001,-197.6427 2048.5001,-197.6426"/>
</g>
<!-- Node39 -->
<g id="node40" class="node">
<title>Node39</title>
<polygon fill="none" stroke="#bfbfbf" points="2308.5,-112.5 2308.5,-131.5 2349.5,-131.5 2349.5,-112.5 2308.5,-112.5"/>
<text text-anchor="middle" x="2329" y="-119.5" font-family="Helvetica,sans-Serif" font-size="10.00" fill="#000000">tuple</text>
</g>
<!-- Node6&#45;&gt;Node39 -->
<g id="edge62" class="edge">
<title>Node6&#45;&gt;Node39</title>
<path fill="none" stroke="#191970" d="M2087.5135,-225.4962C2090.718,-224.9559 2093.9068,-224.4494 2097,-224 2137.2195,-218.1564 2433.7128,-218.1191 2461,-188 2493.1334,-152.5318 2408.0956,-133.6843 2359.7697,-126.0861"/>
<polygon fill="#191970" stroke="#191970" points="2360.1933,-122.6106 2349.7856,-124.5931 2359.158,-129.5336 2360.1933,-122.6106"/>
</g>
<!-- Node40 -->
<g id="node41" class="node">
<title>Node40</title>
<g id="a_node41"><a xlink:href="../../d7/dbe/VariantHelpers_8h.html" target="_top" xlink:title="Framework/VariantHelpers.h">
<polygon fill="none" stroke="#000000" points="596.5,-168.5 596.5,-187.5 751.5,-187.5 751.5,-168.5 596.5,-168.5"/>
<text text-anchor="middle" x="674" y="-175.5" font-family="Helvetica,sans-Serif" font-size="10.00" fill="#000000">Framework/VariantHelpers.h</text>
</a>
</g>
</g>
<!-- Node6&#45;&gt;Node40 -->
<g id="edge51" class="edge">
<title>Node6&#45;&gt;Node40</title>
<path fill="none" stroke="#191970" d="M2002.2319,-225.2304C1999.1161,-224.7591 1996.0146,-224.3404 1993,-224 1753.5492,-196.9659 1017.1718,-183.3026 762.0796,-179.2883"/>
<polygon fill="#191970" stroke="#191970" points="761.8053,-175.7837 751.7519,-179.1269 761.6959,-182.7828 761.8053,-175.7837"/>
</g>
<!-- Node6&#45;&gt;Node41 -->
<g id="edge53" class="edge">
<title>Node6&#45;&gt;Node41</title>
<path fill="none" stroke="#191970" d="M2087.5095,-225.4678C2090.7149,-224.934 2093.905,-224.4368 2097,-224 2272.4298,-199.2404 2318.0466,-208.713 2494,-188 2495.4651,-187.8275 2496.9471,-187.6488 2498.441,-187.4648"/>
<polygon fill="#191970" stroke="#191970" points="2498.9487,-190.9285 2508.4222,-186.1848 2498.0582,-183.9854 2498.9487,-190.9285"/>
</g>
<!-- Node42 -->
<g id="node43" class="node">
<title>Node42</title>
<polygon fill="none" stroke="#bfbfbf" points="2137,-168.5 2137,-187.5 2193,-187.5 2193,-168.5 2137,-168.5"/>
<text text-anchor="middle" x="2165" y="-175.5" font-family="Helvetica,sans-Serif" font-size="10.00" fill="#000000">sstream</text>
</g>
<!-- Node6&#45;&gt;Node42 -->
<g id="edge54" class="edge">
<title>Node6&#45;&gt;Node42</title>
<path fill="none" stroke="#191970" d="M2065.6287,-224.3733C2084.8919,-215.3838 2113.8486,-201.8706 2135.5419,-191.7471"/>
<polygon fill="#191970" stroke="#191970" points="2137.0587,-194.9017 2144.6405,-187.5011 2134.0985,-188.5584 2137.0587,-194.9017"/>
</g>
<!-- Node43 -->
<g id="node44" class="node">
<title>Node43</title>
<polygon fill="none" stroke="#bfbfbf" points="2211,-168.5 2211,-187.5 2279,-187.5 2279,-168.5 2211,-168.5"/>
<text text-anchor="middle" x="2245" y="-175.5" font-family="Helvetica,sans-Serif" font-size="10.00" fill="#000000">arrow/stl.h</text>
</g>
<!-- Node6&#45;&gt;Node43 -->
<g id="edge55" class="edge">
<title>Node6&#45;&gt;Node43</title>
<path fill="none" stroke="#191970" d="M2079.3812,-224.3733C2113.0701,-214.9404 2164.5482,-200.5265 2201.1618,-190.2747"/>
<polygon fill="#191970" stroke="#191970" points="2202.3815,-193.5679 2211.0674,-187.5011 2200.494,-186.8271 2202.3815,-193.5679"/>
</g>
<!-- Node44 -->
<g id="node45" class="node">
<title>Node44</title>
<polygon fill="none" stroke="#bfbfbf" points="2297.5,-168.5 2297.5,-187.5 2386.5,-187.5 2386.5,-168.5 2297.5,-168.5"/>
<text text-anchor="middle" x="2342" y="-175.5" font-family="Helvetica,sans-Serif" font-size="10.00" fill="#000000">arrow/builder.h</text>
</g>
<!-- Node6&#45;&gt;Node44 -->
<g id="edge57" class="edge">
<title>Node6&#45;&gt;Node44</title>
<path fill="none" stroke="#191970" d="M2087.5642,-225.7988C2090.757,-225.1885 2093.9293,-224.5835 2097,-224 2162.4327,-211.5658 2237.736,-197.4573 2287.3952,-188.1813"/>
<polygon fill="#191970" stroke="#191970" points="2288.0945,-191.6113 2297.2821,-186.335 2286.8095,-184.7302 2288.0945,-191.6113"/>
</g>
<!-- Node45 -->
<g id="node46" class="node">
<title>Node45</title>
<polygon fill="none" stroke="#bfbfbf" points="2404.5,-168.5 2404.5,-187.5 2451.5,-187.5 2451.5,-168.5 2404.5,-168.5"/>
<text text-anchor="middle" x="2428" y="-175.5" font-family="Helvetica,sans-Serif" font-size="10.00" fill="#000000">vector</text>
</g>
<!-- Node6&#45;&gt;Node45 -->
<g id="edge59" class="edge">
<title>Node6&#45;&gt;Node45</title>
<path fill="none" stroke="#191970" d="M2087.5249,-225.5717C2090.7267,-225.0139 2093.9118,-224.4829 2097,-224 2225.5879,-203.8938 2262.6493,-214.8791 2394.2727,-187.8142"/>
<polygon fill="#191970" stroke="#191970" points="2395.2633,-191.1828 2404.335,-185.7097 2393.8302,-184.3311 2395.2633,-191.1828"/>
</g>
<!-- Node8 -->
<g id="node9" class="node">
<title>Node8</title>
<g id="a_node9"><a xlink:href="../../dd/dce/Pack_8h.html" target="_top" xlink:title="Framework/Pack.h">
<polygon fill="none" stroke="#000000" points="1657.5,-56.5 1657.5,-75.5 1762.5,-75.5 1762.5,-56.5 1657.5,-56.5"/>
<text text-anchor="middle" x="1710" y="-63.5" font-family="Helvetica,sans-Serif" font-size="10.00" fill="#000000">Framework/Pack.h</text>
</a>
</g>
</g>
<!-- Node7&#45;&gt;Node8 -->
<g id="edge8" class="edge">
<title>Node7&#45;&gt;Node8</title>
<path fill="none" stroke="#191970" d="M1355.0807,-168.4509C1425.235,-148.2002 1588.8925,-100.9589 1667.0141,-78.4083"/>
<polygon fill="#191970" stroke="#191970" points="1668.366,-81.661 1677.0031,-75.5249 1666.4246,-74.9356 1668.366,-81.661"/>
</g>
<!-- Node12 -->
<g id="node13" class="node">
<title>Node12</title>
<g id="a_node13"><a xlink:href="../../d1/d00/CheckTypes_8h.html" target="_top" xlink:title="Framework/CheckTypes.h">
<polygon fill="none" stroke="#000000" points="182,-56.5 182,-75.5 322,-75.5 322,-56.5 182,-56.5"/>
<text text-anchor="middle" x="252" y="-63.5" font-family="Helvetica,sans-Serif" font-size="10.00" fill="#000000">Framework/CheckTypes.h</text>
</a>
</g>
</g>
<!-- Node7&#45;&gt;Node12 -->
<g id="edge12" class="edge">
<title>Node7&#45;&gt;Node12</title>
<path fill="none" stroke="#191970" d="M1267.9641,-176.7266C1106.2202,-172.6529 627.6268,-158.6216 474,-132 406.1863,-120.2487 329.8099,-94.7062 286.6376,-79.0681"/>
<polygon fill="#191970" stroke="#191970" points="287.7669,-75.7544 277.1731,-75.6052 285.3616,-82.3282 287.7669,-75.7544"/>
</g>
<!-- Node7&#45;&gt;Node13 -->
<g id="edge13" class="edge">
<title>Node7&#45;&gt;Node13</title>
<path fill="none" stroke="#191970" d="M1376.0888,-170.2134C1443.319,-160.5351 1558.4743,-143.9574 1634.6683,-132.9886"/>
<polygon fill="#191970" stroke="#191970" points="1635.2885,-136.4355 1644.6877,-131.5462 1634.291,-129.5069 1635.2885,-136.4355"/>
</g>
<!-- Node15 -->
<g id="node16" class="node">
<title>Node15</title>
<g id="a_node16"><a xlink:href="../../d9/de8/CompilerBuiltins_8h.html" target="_top" xlink:title="Framework/CompilerBuiltins.h">
<polygon fill="none" stroke="#000000" points="0,-56.5 0,-75.5 164,-75.5 164,-56.5 0,-56.5"/>
<text text-anchor="middle" x="82" y="-63.5" font-family="Helvetica,sans-Serif" font-size="10.00" fill="#000000">Framework/CompilerBuiltins.h</text>
</a>
</g>
</g>
<!-- Node7&#45;&gt;Node15 -->
<g id="edge16" class="edge">
<title>Node7&#45;&gt;Node15</title>
<path fill="none" stroke="#191970" d="M1267.9485,-176.4829C1095.7936,-171.4696 561.5742,-154.4669 390,-132 295.4292,-119.6164 186.7587,-93.4721 127.096,-78.0652"/>
<polygon fill="#191970" stroke="#191970" points="127.8046,-74.6331 117.2456,-75.5038 126.0429,-81.4078 127.8046,-74.6331"/>
</g>
<!-- Node16 -->
<g id="node17" class="node">
<title>Node16</title>
<g id="a_node17"><a xlink:href="../../db/d31/Traits_8h.html" target="_top" xlink:title="Framework/Traits.h">
<polygon fill="none" stroke="#000000" points="1990.5,-112.5 1990.5,-131.5 2099.5,-131.5 2099.5,-112.5 1990.5,-112.5"/>
<text text-anchor="middle" x="2045" y="-119.5" font-family="Helvetica,sans-Serif" font-size="10.00" fill="#000000">Framework/Traits.h</text>
</a>
</g>
</g>
<!-- Node7&#45;&gt;Node16 -->
<g id="edge17" class="edge">
<title>Node7&#45;&gt;Node16</title>
<path fill="none" stroke="#191970" d="M1376.0468,-173.8138C1506.6967,-163.6943 1839.2527,-137.9362 1980.2423,-127.0158"/>
<polygon fill="#191970" stroke="#191970" points="1980.7612,-130.4862 1990.4611,-126.2243 1980.2206,-123.5071 1980.7612,-130.4862"/>
</g>
<!-- Node18 -->
<g id="node19" class="node">
<title>Node18</title>
<g id="a_node19"><a xlink:href="../../d0/d91/Expressions_8h.html" target="_top" xlink:title="Framework/Expressions.h">
<polygon fill="none" stroke="#000000" points="1251.5,-112.5 1251.5,-131.5 1392.5,-131.5 1392.5,-112.5 1251.5,-112.5"/>
<text text-anchor="middle" x="1322" y="-119.5" font-family="Helvetica,sans-Serif" font-size="10.00" fill="#000000">Framework/Expressions.h</text>
</a>
</g>
</g>
<!-- Node7&#45;&gt;Node18 -->
<g id="edge19" class="edge">
<title>Node7&#45;&gt;Node18</title>
<path fill="none" stroke="#191970" d="M1322,-168.2455C1322,-160.9382 1322,-150.6944 1322,-141.7046"/>
<polygon fill="#191970" stroke="#191970" points="1325.5001,-141.6426 1322,-131.6427 1318.5001,-141.6427 1325.5001,-141.6426"/>
</g>
<!-- Node7&#45;&gt;Node24 -->
<g id="edge39" class="edge">
<title>Node7&#45;&gt;Node24</title>
<path fill="none" stroke="#191970" d="M1365.8484,-168.4136C1407.9594,-159.1808 1473.3581,-144.7736 1530,-132 1568.7033,-123.2718 1578.3148,-120.8081 1617,-112 1669.3255,-100.0862 1729.2362,-86.5947 1770.5285,-77.3192"/>
<polygon fill="#191970" stroke="#191970" points="1771.358,-80.7202 1780.3481,-75.1141 1769.8241,-73.8903 1771.358,-80.7202"/>
</g>
<!-- Node25 -->
<g id="node26" class="node">
<title>Node25</title>
<polygon fill="none" stroke="#bfbfbf" points="1395.5,-56.5 1395.5,-75.5 1542.5,-75.5 1542.5,-56.5 1395.5,-56.5"/>
<text text-anchor="middle" x="1469" y="-63.5" font-family="Helvetica,sans-Serif" font-size="10.00" fill="#000000">gandiva/selection_vector.h</text>
</g>
<!-- Node7&#45;&gt;Node25 -->
<g id="edge43" class="edge">
<title>Node7&#45;&gt;Node25</title>
<path fill="none" stroke="#191970" d="M1341.3314,-168.4413C1357.8512,-159.8839 1381.9055,-146.482 1401,-132 1420.5046,-117.2069 1440.3085,-97.3132 1453.4744,-83.2458"/>
<polygon fill="#191970" stroke="#191970" points="1456.2066,-85.4457 1460.4068,-75.719 1451.0577,-80.7035 1456.2066,-85.4457"/>
</g>
<!-- Node29 -->
<g id="node30" class="node">
<title>Node29</title>
<polygon fill="none" stroke="#bfbfbf" points="1560.5,-56.5 1560.5,-75.5 1639.5,-75.5 1639.5,-56.5 1560.5,-56.5"/>
<text text-anchor="middle" x="1600" y="-63.5" font-family="Helvetica,sans-Serif" font-size="10.00" fill="#000000">fmt/format.h</text>
</g>
<!-- Node7&#45;&gt;Node29 -->
<g id="edge45" class="edge">
<title>Node7&#45;&gt;Node29</title>
<path fill="none" stroke="#191970" d="M1345.7021,-168.4509C1395.2493,-148.4895 1509.8905,-102.3031 1566.7648,-79.3897"/>
<polygon fill="#191970" stroke="#191970" points="1568.3903,-82.5083 1576.3579,-75.5249 1565.7744,-76.0154 1568.3903,-82.5083"/>
</g>
<!-- Node33 -->
<g id="node34" class="node">
<title>Node33</title>
<g id="a_node34"><a xlink:href="../../d4/de7/ArrowTypes_8h.html" target="_top" xlink:title="Framework/ArrowTypes.h">
<polygon fill="none" stroke="#000000" points="483.5,-112.5 483.5,-131.5 622.5,-131.5 622.5,-112.5 483.5,-112.5"/>
<text text-anchor="middle" x="553" y="-119.5" font-family="Helvetica,sans-Serif" font-size="10.00" fill="#000000">Framework/ArrowTypes.h</text>
</a>
</g>
</g>
<!-- Node7&#45;&gt;Node33 -->
<g id="edge37" class="edge">
<title>Node7&#45;&gt;Node33</title>
<path fill="none" stroke="#191970" d="M1267.9254,-174.0622C1134.6146,-164.3543 789.6825,-139.2357 632.7947,-127.8108"/>
<polygon fill="#191970" stroke="#191970" points="632.9648,-124.314 622.737,-127.0784 632.4563,-131.2955 632.9648,-124.314"/>
</g>
<!-- Node34 -->
<g id="node35" class="node">
<title>Node34</title>
<polygon fill="none" stroke="#bfbfbf" points="803,-112.5 803,-131.5 883,-131.5 883,-112.5 803,-112.5"/>
<text text-anchor="middle" x="843" y="-119.5" font-family="Helvetica,sans-Serif" font-size="10.00" fill="#000000">arrow/array.h</text>
</g>
<!-- Node7&#45;&gt;Node34 -->
<g id="edge40" class="edge">
<title>Node7&#45;&gt;Node34</title>
<path fill="none" stroke="#191970" d="M1267.8198,-173.8616C1187.993,-167.3992 1033.9097,-153.5358 893.165,-132.0562"/>
<polygon fill="#191970" stroke="#191970" points="893.4724,-128.5623 883.0556,-130.4965 892.405,-135.4804 893.4724,-128.5623"/>
</g>
<!-- Node35 -->
<g id="node36" class="node">
<title>Node35</title>
<polygon fill="none" stroke="#bfbfbf" points="901,-112.5 901,-131.5 1011,-131.5 1011,-112.5 901,-112.5"/>
<text text-anchor="middle" x="956" y="-119.5" font-family="Helvetica,sans-Serif" font-size="10.00" fill="#000000">arrow/util/variant.h</text>
</g>
<!-- Node7&#45;&gt;Node35 -->
<g id="edge41" class="edge">
<title>Node7&#45;&gt;Node35</title>
<path fill="none" stroke="#191970" d="M1267.9821,-169.836C1209.6759,-161.0096 1113.7849,-146.4521 1021.2551,-132.1895"/>
<polygon fill="#191970" stroke="#191970" points="1021.5726,-128.6971 1011.1559,-130.6319 1020.5055,-135.6153 1021.5726,-128.6971"/>
</g>
<!-- Node36 -->
<g id="node37" class="node">
<title>Node36</title>
<polygon fill="none" stroke="#bfbfbf" points="1029.5,-112.5 1029.5,-131.5 1162.5,-131.5 1162.5,-112.5 1029.5,-112.5"/>
<text text-anchor="middle" x="1096" y="-119.5" font-family="Helvetica,sans-Serif" font-size="10.00" fill="#000000">arrow/compute/kernel.h</text>
</g>
<!-- Node7&#45;&gt;Node36 -->
<g id="edge42" class="edge">
<title>Node7&#45;&gt;Node36</title>
<path fill="none" stroke="#191970" d="M1283.406,-168.4369C1244.9716,-158.9133 1185.864,-144.2672 1144.329,-133.9753"/>
<polygon fill="#191970" stroke="#191970" points="1144.9831,-130.5316 1134.4348,-131.5237 1143.2994,-137.3261 1144.9831,-130.5316"/>
</g>
<!-- Node37 -->
<g id="node38" class="node">
<title>Node37</title>
<polygon fill="none" stroke="#bfbfbf" points="1181,-112.5 1181,-131.5 1233,-131.5 1233,-112.5 1181,-112.5"/>
<text text-anchor="middle" x="1207" y="-119.5" font-family="Helvetica,sans-Serif" font-size="10.00" fill="#000000">cassert</text>
</g>
<!-- Node7&#45;&gt;Node37 -->
<g id="edge44" class="edge">
<title>Node7&#45;&gt;Node37</title>
<path fill="none" stroke="#191970" d="M1302.2308,-168.3733C1283.8531,-159.4241 1256.2688,-145.9917 1235.5107,-135.8835"/>
<polygon fill="#191970" stroke="#191970" points="1237.0343,-132.7325 1226.5112,-131.5011 1233.9696,-139.026 1237.0343,-132.7325"/>
</g>
<!-- Node9 -->
<g id="node10" class="node">
<title>Node9</title>
<polygon fill="none" stroke="#bfbfbf" points="1616.5,-.5 1616.5,-19.5 1669.5,-19.5 1669.5,-.5 1616.5,-.5"/>
<text text-anchor="middle" x="1643" y="-7.5" font-family="Helvetica,sans-Serif" font-size="10.00" fill="#000000">cstddef</text>
</g>
<!-- Node8&#45;&gt;Node9 -->
<g id="edge9" class="edge">
<title>Node8&#45;&gt;Node9</title>
<path fill="none" stroke="#191970" d="M1698.3295,-56.2455C1688.4339,-47.9746 1674.0373,-35.9416 1662.4099,-26.2232"/>
<polygon fill="#191970" stroke="#191970" points="1664.4542,-23.3703 1654.5368,-19.6427 1659.965,-28.7413 1664.4542,-23.3703"/>
</g>
<!-- Node10 -->
<g id="node11" class="node">
<title>Node10</title>
<polygon fill="none" stroke="#bfbfbf" points="1687.5,-.5 1687.5,-19.5 1732.5,-19.5 1732.5,-.5 1687.5,-.5"/>
<text text-anchor="middle" x="1710" y="-7.5" font-family="Helvetica,sans-Serif" font-size="10.00" fill="#000000">utility</text>
</g>
<!-- Node8&#45;&gt;Node10 -->
<g id="edge10" class="edge">
<title>Node8&#45;&gt;Node10</title>
<path fill="none" stroke="#191970" d="M1710,-56.2455C1710,-48.9382 1710,-38.6944 1710,-29.7046"/>
<polygon fill="#191970" stroke="#191970" points="1713.5001,-29.6426 1710,-19.6427 1706.5001,-29.6427 1713.5001,-29.6426"/>
</g>
<!-- Node11 -->
<g id="node12" class="node">
<title>Node11</title>
<polygon fill="none" stroke="#bfbfbf" points="1751,-.5 1751,-19.5 1797,-19.5 1797,-.5 1751,-.5"/>
<text text-anchor="middle" x="1774" y="-7.5" font-family="Helvetica,sans-Serif" font-size="10.00" fill="#000000">cstdio</text>
</g>
<!-- Node8&#45;&gt;Node11 -->
<g id="edge11" class="edge">
<title>Node8&#45;&gt;Node11</title>
<path fill="none" stroke="#191970" d="M1721.1479,-56.2455C1730.5087,-48.0549 1744.0858,-36.1749 1755.1349,-26.5069"/>
<polygon fill="#191970" stroke="#191970" points="1757.7588,-28.8618 1762.9798,-19.6427 1753.1492,-23.5937 1757.7588,-28.8618"/>
</g>
<!-- Node13&#45;&gt;Node8 -->
<g id="edge14" class="edge">
<title>Node13&#45;&gt;Node8</title>
<path fill="none" stroke="#191970" d="M1710.8258,-112.2455C1710.6953,-104.9382 1710.5124,-94.6944 1710.3519,-85.7046"/>
<polygon fill="#191970" stroke="#191970" points="1713.8503,-85.5786 1710.1722,-75.6427 1706.8514,-85.7036 1713.8503,-85.5786"/>
</g>
<!-- Node13&#45;&gt;Node14 -->
<g id="edge15" class="edge">
<title>Node13&#45;&gt;Node14</title>
<path fill="none" stroke="#191970" d="M1783.5443,-112.4682C1841.7578,-104.4359 1925.7625,-91.9877 2008.6575,-75.9357"/>
<polygon fill="#191970" stroke="#191970" points="2009.3544,-79.3658 2018.4971,-74.0121 2008.0113,-72.4958 2009.3544,-79.3658"/>
</g>
<!-- Node17 -->
<g id="node18" class="node">
<title>Node17</title>
<polygon fill="none" stroke="#bfbfbf" points="2101.5,-56.5 2101.5,-75.5 2170.5,-75.5 2170.5,-56.5 2101.5,-56.5"/>
<text text-anchor="middle" x="2136" y="-63.5" font-family="Helvetica,sans-Serif" font-size="10.00" fill="#000000">type_traits</text>
</g>
<!-- Node16&#45;&gt;Node17 -->
<g id="edge18" class="edge">
<title>Node16&#45;&gt;Node17</title>
<path fill="none" stroke="#191970" d="M2060.851,-112.2455C2074.8132,-103.6534 2095.3728,-91.0014 2111.4596,-81.1018"/>
<polygon fill="#191970" stroke="#191970" points="2113.6484,-83.8645 2120.3307,-75.6427 2109.9797,-77.9029 2113.6484,-83.8645"/>
</g>
<!-- Node18&#45;&gt;Node8 -->
<g id="edge22" class="edge">
<title>Node18&#45;&gt;Node8</title>
<path fill="none" stroke="#191970" d="M1392.3281,-112.4845C1456.1335,-103.7582 1553.074,-90.2683 1647.2585,-76.0891"/>
<polygon fill="#191970" stroke="#191970" points="1647.8804,-79.535 1657.2459,-74.5813 1646.8354,-72.6134 1647.8804,-79.535"/>
</g>
<!-- Node18&#45;&gt;Node12 -->
<g id="edge23" class="edge">
<title>Node18&#45;&gt;Node12</title>
<path fill="none" stroke="#191970" d="M1251.3635,-112.8405C1248.2013,-112.5345 1245.069,-112.252 1242,-112 841.5064,-79.1157 736.5561,-108.9699 332.3904,-76.043"/>
<polygon fill="#191970" stroke="#191970" points="332.4316,-72.5346 322.1782,-75.2029 331.8576,-79.511 332.4316,-72.5346"/>
</g>
<!-- Node18&#45;&gt;Node15 -->
<g id="edge21" class="edge">
<title>Node18&#45;&gt;Node15</title>
<path fill="none" stroke="#191970" d="M1251.3653,-112.8181C1248.2027,-112.5182 1245.0697,-112.243 1242,-112 771.4578,-74.7452 648.8941,-109.4888 174.5161,-76.0539"/>
<polygon fill="#191970" stroke="#191970" points="174.5376,-72.5467 164.3145,-75.3283 174.0409,-79.5291 174.5376,-72.5467"/>
</g>
<!-- Node19 -->
<g id="node20" class="node">
<title>Node19</title>
<g id="a_node20"><a xlink:href="../../dd/dc2/BasicOps_8h.html" target="_top" xlink:title="Framework/BasicOps.h">
<polygon fill="none" stroke="#000000" points="529,-56.5 529,-75.5 657,-75.5 657,-56.5 529,-56.5"/>
<text text-anchor="middle" x="593" y="-63.5" font-family="Helvetica,sans-Serif" font-size="10.00" fill="#000000">Framework/BasicOps.h</text>
</a>
</g>
</g>
<!-- Node18&#45;&gt;Node19 -->
<g id="edge20" class="edge">
<title>Node18&#45;&gt;Node19</title>
<path fill="none" stroke="#191970" d="M1251.3557,-112.9286C1248.1957,-112.5988 1245.0659,-112.2872 1242,-112 989.8603,-88.3848 922.9272,-101.0904 667.0284,-76.0331"/>
<polygon fill="#191970" stroke="#191970" points="667.3584,-72.5488 657.0624,-75.0476 666.6695,-79.5148 667.3584,-72.5488"/>
</g>
<!-- Node20 -->
<g id="node21" class="node">
<title>Node20</title>
<polygon fill="none" stroke="#bfbfbf" points="340.5,-56.5 340.5,-75.5 441.5,-75.5 441.5,-56.5 340.5,-56.5"/>
<text text-anchor="middle" x="391" y="-63.5" font-family="Helvetica,sans-Serif" font-size="10.00" fill="#000000">arrow/type_fwd.h</text>
</g>
<!-- Node18&#45;&gt;Node20 -->
<g id="edge24" class="edge">
<title>Node18&#45;&gt;Node20</title>
<path fill="none" stroke="#191970" d="M1251.3616,-112.8633C1248.2,-112.5512 1245.0682,-112.2611 1242,-112 894.2483,-82.4085 802.1089,-112.9196 451.9638,-76.0959"/>
<polygon fill="#191970" stroke="#191970" points="452.1079,-72.5916 441.794,-75.0152 451.3681,-79.5524 452.1079,-72.5916"/>
</g>
<!-- Node21 -->
<g id="node22" class="node">
<title>Node21</title>
<polygon fill="none" stroke="#bfbfbf" points="675,-56.5 675,-75.5 821,-75.5 821,-56.5 675,-56.5"/>
<text text-anchor="middle" x="748" y="-63.5" font-family="Helvetica,sans-Serif" font-size="10.00" fill="#000000">gandiva/gandiva_aliases.h</text>
</g>
<!-- Node18&#45;&gt;Node21 -->
<g id="edge25" class="edge">
<title>Node18&#45;&gt;Node21</title>
<path fill="none" stroke="#191970" d="M1251.3462,-113.0236C1248.1888,-112.6681 1245.0621,-112.3251 1242,-112 1062.4311,-92.9384 1014.4844,-95.046 831.2695,-76.1027"/>
<polygon fill="#191970" stroke="#191970" points="831.6121,-72.6195 821.3035,-75.0654 830.8874,-79.5819 831.6121,-72.6195"/>
</g>
<!-- Node22 -->
<g id="node23" class="node">
<title>Node22</title>
<polygon fill="none" stroke="#bfbfbf" points="839,-56.5 839,-75.5 917,-75.5 917,-56.5 839,-56.5"/>
<text text-anchor="middle" x="878" y="-63.5" font-family="Helvetica,sans-Serif" font-size="10.00" fill="#000000">arrow/type.h</text>
</g>
<!-- Node18&#45;&gt;Node22 -->
<g id="edge26" class="edge">
<title>Node18&#45;&gt;Node22</title>
<path fill="none" stroke="#191970" d="M1251.3349,-113.1244C1248.1805,-112.7416 1245.0576,-112.3653 1242,-112 1104.9346,-95.6264 1067.3093,-98.2992 927.485,-76.1215"/>
<polygon fill="#191970" stroke="#191970" points="927.6658,-72.606 917.2383,-74.4812 926.5593,-79.518 927.6658,-72.606"/>
</g>
<!-- Node23 -->
<g id="node24" class="node">
<title>Node23</title>
<polygon fill="none" stroke="#bfbfbf" points="935.5,-56.5 935.5,-75.5 1030.5,-75.5 1030.5,-56.5 935.5,-56.5"/>
<text text-anchor="middle" x="983" y="-63.5" font-family="Helvetica,sans-Serif" font-size="10.00" fill="#000000">gandiva/arrow.h</text>
</g>
<!-- Node18&#45;&gt;Node23 -->
<g id="edge27" class="edge">
<title>Node18&#45;&gt;Node23</title>
<path fill="none" stroke="#191970" d="M1262.2764,-112.4706C1207.4032,-103.6667 1123.5325,-90.0892 1040.6758,-76.0989"/>
<polygon fill="#191970" stroke="#191970" points="1041.0221,-72.6078 1030.5784,-74.391 1039.8546,-79.5098 1041.0221,-72.6078"/>
</g>
<!-- Node18&#45;&gt;Node24 -->
<g id="edge28" class="edge">
<title>Node18&#45;&gt;Node24</title>
<path fill="none" stroke="#191970" d="M1392.6425,-116.8565C1479.2336,-110.0826 1630.6199,-96.7228 1770.358,-75.9643"/>
<polygon fill="#191970" stroke="#191970" points="1771.0285,-79.403 1780.3979,-74.4569 1769.9891,-72.4806 1771.0285,-79.403"/>
</g>
<!-- Node18&#45;&gt;Node25 -->
<g id="edge29" class="edge">
<title>Node18&#45;&gt;Node25</title>
<path fill="none" stroke="#191970" d="M1347.2702,-112.3733C1371.3966,-103.1822 1407.9362,-89.2624 1434.6877,-79.0713"/>
<polygon fill="#191970" stroke="#191970" points="1435.9607,-82.3318 1444.0596,-75.5011 1433.4687,-75.7904 1435.9607,-82.3318"/>
</g>
<!-- Node26 -->
<g id="node27" class="node">
<title>Node26</title>
<polygon fill="none" stroke="#bfbfbf" points="1049,-56.5 1049,-75.5 1141,-75.5 1141,-56.5 1049,-56.5"/>
<text text-anchor="middle" x="1095" y="-63.5" font-family="Helvetica,sans-Serif" font-size="10.00" fill="#000000">gandiva/node.h</text>
</g>
<!-- Node18&#45;&gt;Node26 -->
<g id="edge30" class="edge">
<title>Node18&#45;&gt;Node26</title>
<path fill="none" stroke="#191970" d="M1283.2352,-112.4369C1244.6308,-102.9133 1185.2616,-88.2672 1143.5428,-77.9753"/>
<polygon fill="#191970" stroke="#191970" points="1144.1521,-74.5208 1133.6049,-75.5237 1142.4755,-81.317 1144.1521,-74.5208"/>
</g>
<!-- Node27 -->
<g id="node28" class="node">
<title>Node27</title>
<polygon fill="none" stroke="#bfbfbf" points="1159.5,-56.5 1159.5,-75.5 1248.5,-75.5 1248.5,-56.5 1159.5,-56.5"/>
<text text-anchor="middle" x="1204" y="-63.5" font-family="Helvetica,sans-Serif" font-size="10.00" fill="#000000">gandiva/filter.h</text>
</g>
<!-- Node18&#45;&gt;Node27 -->
<g id="edge31" class="edge">
<title>Node18&#45;&gt;Node27</title>
<path fill="none" stroke="#191970" d="M1301.7151,-112.3733C1282.8579,-103.4241 1254.554,-89.9917 1233.2545,-79.8835"/>
<polygon fill="#191970" stroke="#191970" points="1234.5551,-76.6266 1224.0202,-75.5011 1231.5539,-82.9506 1234.5551,-76.6266"/>
</g>
<!-- Node28 -->
<g id="node29" class="node">
<title>Node28</title>
<polygon fill="none" stroke="#bfbfbf" points="1267,-56.5 1267,-75.5 1377,-75.5 1377,-56.5 1267,-56.5"/>
<text text-anchor="middle" x="1322" y="-63.5" font-family="Helvetica,sans-Serif" font-size="10.00" fill="#000000">gandiva/projector.h</text>
</g>
<!-- Node18&#45;&gt;Node28 -->
<g id="edge32" class="edge">
<title>Node18&#45;&gt;Node28</title>
<path fill="none" stroke="#191970" d="M1322,-112.2455C1322,-104.9382 1322,-94.6944 1322,-85.7046"/>
<polygon fill="#191970" stroke="#191970" points="1325.5001,-85.6426 1322,-75.6427 1318.5001,-85.6427 1325.5001,-85.6426"/>
</g>
<!-- Node18&#45;&gt;Node29 -->
<g id="edge33" class="edge">
<title>Node18&#45;&gt;Node29</title>
<path fill="none" stroke="#191970" d="M1369.8161,-112.4396C1413.9777,-103.5999 1481.6855,-90.0216 1550.2952,-76.1381"/>
<polygon fill="#191970" stroke="#191970" points="1551.3151,-79.5028 1560.4218,-74.0881 1549.9261,-72.6419 1551.3151,-79.5028"/>
</g>
<!-- Node30 -->
<g id="node31" class="node">
<title>Node30</title>
<polygon fill="none" stroke="#bfbfbf" points="459.5,-56.5 459.5,-75.5 510.5,-75.5 510.5,-56.5 459.5,-56.5"/>
<text text-anchor="middle" x="485" y="-63.5" font-family="Helvetica,sans-Serif" font-size="10.00" fill="#000000">variant</text>
</g>
<!-- Node18&#45;&gt;Node30 -->
<g id="edge34" class="edge">
<title>Node18&#45;&gt;Node30</title>
<path fill="none" stroke="#191970" d="M1251.3601,-112.8802C1248.1989,-112.5635 1245.0677,-112.2678 1242,-112 925.212,-84.3417 838.7404,-127.5709 520.7999,-75.7378"/>
<polygon fill="#191970" stroke="#191970" points="521.2794,-72.2696 510.8432,-74.096 520.1405,-79.1764 521.2794,-72.2696"/>
</g>
<!-- Node18&#45;&gt;Node31 -->
<g id="edge35" class="edge">
<title>Node18&#45;&gt;Node31</title>
<path fill="none" stroke="#191970" d="M1392.74,-117.9971C1519.5141,-110.5012 1780.5212,-93.5163 1870,-76 1870.1,-75.9804 1870.2001,-75.9607 1870.3003,-75.9407"/>
<polygon fill="#191970" stroke="#191970" points="1870.8958,-79.3982 1879.7809,-73.6272 1869.2363,-72.5977 1870.8958,-79.3982"/>
</g>
<!-- Node18&#45;&gt;Node32 -->
<g id="edge36" class="edge">
<title>Node18&#45;&gt;Node32</title>
<path fill="none" stroke="#191970" d="M1392.6012,-120.8509C1504.9917,-118.106 1731.4982,-108.8348 1931.5482,-75.9716"/>
<polygon fill="#191970" stroke="#191970" points="1932.368,-79.3833 1941.6565,-74.2869 1931.2172,-72.4785 1932.368,-79.3833"/>
</g>
<!-- Node33&#45;&gt;Node20 -->
<g id="edge38" class="edge">
<title>Node33&#45;&gt;Node20</title>
<path fill="none" stroke="#191970" d="M525.1512,-112.3733C498.3297,-103.1016 457.5873,-89.0178 428.0402,-78.804"/>
<polygon fill="#191970" stroke="#191970" points="429.0802,-75.4603 418.4854,-75.5011 426.7931,-82.0762 429.0802,-75.4603"/>
</g>
<!-- Node38&#45;&gt;Node16 -->
<g id="edge47" class="edge">
<title>Node38&#45;&gt;Node16</title>
<path fill="none" stroke="#191970" d="M2045,-168.2455C2045,-160.9382 2045,-150.6944 2045,-141.7046"/>
<polygon fill="#191970" stroke="#191970" points="2048.5001,-141.6426 2045,-131.6427 2041.5001,-141.6427 2048.5001,-141.6426"/>
</g>
<!-- Node38&#45;&gt;Node17 -->
<g id="edge49" class="edge">
<title>Node38&#45;&gt;Node17</title>
<path fill="none" stroke="#191970" d="M2063.0926,-168.3993C2076.9481,-160.2734 2095.7112,-147.4898 2108,-132 2118.9728,-118.1689 2126.3821,-99.4027 2130.8081,-85.4164"/>
<polygon fill="#191970" stroke="#191970" points="2134.1687,-86.3943 2133.6208,-75.8137 2127.4509,-84.4266 2134.1687,-86.3943"/>
</g>
<!-- Node38&#45;&gt;Node39 -->
<g id="edge48" class="edge">
<title>Node38&#45;&gt;Node39</title>
<path fill="none" stroke="#191970" d="M2093.4986,-168.4369C2152.0941,-156.8829 2248.9267,-137.7891 2298.1751,-128.0782"/>
<polygon fill="#191970" stroke="#191970" points="2299.0795,-131.4673 2308.2135,-126.0988 2297.7252,-124.5995 2299.0795,-131.4673"/>
</g>
<!-- Node40&#45;&gt;Node15 -->
<g id="edge52" class="edge">
<title>Node40&#45;&gt;Node15</title>
<path fill="none" stroke="#191970" d="M596.0301,-174.4793C480.372,-168.58 269.2321,-155.0247 197,-132 161.5312,-120.694 124.9825,-97.3342 102.8725,-81.6615"/>
<polygon fill="#191970" stroke="#191970" points="104.7499,-78.6997 94.5966,-75.6728 100.6462,-84.3707 104.7499,-78.6997"/>
</g>
<!-- Node47 -->
<g id="node48" class="node">
<title>Node47</title>
<polygon fill="none" stroke="#bfbfbf" points="2456,-224.5 2456,-243.5 2564,-243.5 2564,-224.5 2456,-224.5"/>
<text text-anchor="middle" x="2510" y="-231.5" font-family="Helvetica,sans-Serif" font-size="10.00" fill="#000000">fairlogger/Logger.h</text>
</g>
<!-- Node46&#45;&gt;Node47 -->
<g id="edge64" class="edge">
<title>Node46&#45;&gt;Node47</title>
<path fill="none" stroke="#191970" d="M2510,-280.2455C2510,-272.9382 2510,-262.6944 2510,-253.7046"/>
<polygon fill="#191970" stroke="#191970" points="2513.5001,-253.6426 2510,-243.6427 2506.5001,-253.6427 2513.5001,-253.6426"/>
</g>
</g>
</svg>
