<?xml version="1.0" encoding="UTF-8" standalone="no"?>
<!DOCTYPE svg PUBLIC "-//W3C//DTD SVG 1.1//EN"
 "http://www.w3.org/Graphics/SVG/1.1/DTD/svg11.dtd">
<!-- Generated by graphviz version 2.40.1 (20161225.0304)
 -->
<!-- Title: o2::framework::DataProcessingHeader Pages: 1 -->
<svg width="915pt" height="1091pt"
 viewBox="0.00 0.00 914.88 1091.00" xmlns="http://www.w3.org/2000/svg" xmlns:xlink="http://www.w3.org/1999/xlink">
<g id="graph0" class="graph" transform="scale(1 1) rotate(0) translate(4 1087)">
<title>o2::framework::DataProcessingHeader</title>
<!-- Node2 -->
<g id="node1" class="node">
<title>Node2</title>
<polygon fill="#bfbfbf" stroke="#000000" points="542.8757,-.5 542.8757,-123.5 712.8757,-123.5 712.8757,-.5 542.8757,-.5"/>
<text text-anchor="start" x="550.8757" y="-111.5" font-family="Helvetica,sans-Serif" font-size="10.00" fill="#000000">o2::framework::DataProcessing</text>
<text text-anchor="middle" x="627.8757" y="-100.5" font-family="Helvetica,sans-Serif" font-size="10.00" fill="#000000">Header</text>
<polyline fill="none" stroke="#000000" points="542.8757,-93.5 712.8757,-93.5 "/>
<text text-anchor="middle" x="627.8757" y="-81.5" font-family="Helvetica,sans-Serif" font-size="10.00" fill="#000000"> </text>
<polyline fill="none" stroke="#000000" points="542.8757,-74.5 712.8757,-74.5 "/>
<text text-anchor="start" x="550.8757" y="-62.5" font-family="Helvetica,sans-Serif" font-size="10.00" fill="#000000">+ DataProcessingHeader()</text>
<text text-anchor="start" x="550.8757" y="-51.5" font-family="Helvetica,sans-Serif" font-size="10.00" fill="#000000">+ DataProcessingHeader()</text>
<text text-anchor="start" x="550.8757" y="-40.5" font-family="Helvetica,sans-Serif" font-size="10.00" fill="#000000">+ DataProcessingHeader()</text>
<text text-anchor="start" x="550.8757" y="-29.5" font-family="Helvetica,sans-Serif" font-size="10.00" fill="#000000">+ DataProcessingHeader()</text>
<text text-anchor="start" x="550.8757" y="-18.5" font-family="Helvetica,sans-Serif" font-size="10.00" fill="#000000">+ getCreationTime()</text>
<text text-anchor="start" x="550.8757" y="-7.5" font-family="Helvetica,sans-Serif" font-size="10.00" fill="#000000">+ Get()</text>
</g>
<!-- Node3 -->
<g id="node2" class="node">
<title>Node3</title>
<g id="a_node2"><a xlink:href="../../d8/dbd/structo2_1_1header_1_1BaseHeader.html" target="_top" xlink:title="the base header struct Every header type must begin (i.e. derive) with this. Don&#39;t use this struct di...">
<polygon fill="none" stroke="#000000" points="408.3757,-193.5 408.3757,-360.5 581.3757,-360.5 581.3757,-193.5 408.3757,-193.5"/>
<text text-anchor="middle" x="494.8757" y="-348.5" font-family="Helvetica,sans-Serif" font-size="10.00" fill="#000000">o2::header::BaseHeader</text>
<polyline fill="none" stroke="#000000" points="408.3757,-341.5 581.3757,-341.5 "/>
<text text-anchor="middle" x="494.8757" y="-329.5" font-family="Helvetica,sans-Serif" font-size="10.00" fill="#000000"> </text>
<polyline fill="none" stroke="#000000" points="408.3757,-322.5 581.3757,-322.5 "/>
<text text-anchor="start" x="416.3757" y="-310.5" font-family="Helvetica,sans-Serif" font-size="10.00" fill="#000000">+ BaseHeader()</text>
<text text-anchor="start" x="416.3757" y="-299.5" font-family="Helvetica,sans-Serif" font-size="10.00" fill="#000000">+ BaseHeader()</text>
<text text-anchor="start" x="416.3757" y="-288.5" font-family="Helvetica,sans-Serif" font-size="10.00" fill="#000000">+ BaseHeader()</text>
<text text-anchor="start" x="416.3757" y="-277.5" font-family="Helvetica,sans-Serif" font-size="10.00" fill="#000000">+ size()</text>
<text text-anchor="start" x="416.3757" y="-266.5" font-family="Helvetica,sans-Serif" font-size="10.00" fill="#000000">+ data()</text>
<text text-anchor="start" x="416.3757" y="-255.5" font-family="Helvetica,sans-Serif" font-size="10.00" fill="#000000">+ next()</text>
<text text-anchor="start" x="416.3757" y="-244.5" font-family="Helvetica,sans-Serif" font-size="10.00" fill="#000000">+ next()</text>
<text text-anchor="start" x="416.3757" y="-233.5" font-family="Helvetica,sans-Serif" font-size="10.00" fill="#000000">+ sanityCheck()</text>
<text text-anchor="start" x="416.3757" y="-222.5" font-family="Helvetica,sans-Serif" font-size="10.00" fill="#000000">+ throwInconsistentStackError()</text>
<text text-anchor="start" x="416.3757" y="-211.5" font-family="Helvetica,sans-Serif" font-size="10.00" fill="#000000">+ get()</text>
<text text-anchor="start" x="416.3757" y="-200.5" font-family="Helvetica,sans-Serif" font-size="10.00" fill="#000000">+ get()</text>
</a>
</g>
</g>
<!-- Node3&#45;&gt;Node2 -->
<g id="edge1" class="edge">
<title>Node3&#45;&gt;Node2</title>
<path fill="none" stroke="#191970" d="M552.1057,-184.4854C564.8499,-163.8838 578.0574,-142.5333 589.8064,-123.5407"/>
<polygon fill="none" stroke="#191970" points="548.9622,-182.9141 546.6778,-193.2598 554.9152,-186.5967 548.9622,-182.9141"/>
</g>
<!-- Node4 -->
<g id="node3" class="node">
<title>Node4</title>
<g id="a_node3"><a xlink:href="../../d9/db3/structo2_1_1header_1_1Descriptor.html" target="_top" xlink:title="{o2::header::Descriptor\l\&lt; gSizeHeaderDescriptionString \&gt;\n||+ Descriptor()\l+ Descriptor()\l+ Descriptor()\l+ Descriptor()\l+ operator=()\l+ operator ItgType()\l+ runtimeInit()\l+ operator==()\l+ operator==()\l+ operator\&lt;()\l+ operator!=()\l+ operator!=()\l+ as()\l+ print()\l}">
<polygon fill="none" stroke="#000000" points="278.3757,-474.5 278.3757,-685.5 463.3757,-685.5 463.3757,-474.5 278.3757,-474.5"/>
<text text-anchor="start" x="286.3757" y="-673.5" font-family="Helvetica,sans-Serif" font-size="10.00" fill="#000000">o2::header::Descriptor</text>
<text text-anchor="middle" x="370.8757" y="-662.5" font-family="Helvetica,sans-Serif" font-size="10.00" fill="#000000">&lt; gSizeHeaderDescriptionString &gt;</text>
<polyline fill="none" stroke="#000000" points="278.3757,-655.5 463.3757,-655.5 "/>
<text text-anchor="middle" x="370.8757" y="-643.5" font-family="Helvetica,sans-Serif" font-size="10.00" fill="#000000"> </text>
<polyline fill="none" stroke="#000000" points="278.3757,-636.5 463.3757,-636.5 "/>
<text text-anchor="start" x="286.3757" y="-624.5" font-family="Helvetica,sans-Serif" font-size="10.00" fill="#000000">+ Descriptor()</text>
<text text-anchor="start" x="286.3757" y="-613.5" font-family="Helvetica,sans-Serif" font-size="10.00" fill="#000000">+ Descriptor()</text>
<text text-anchor="start" x="286.3757" y="-602.5" font-family="Helvetica,sans-Serif" font-size="10.00" fill="#000000">+ Descriptor()</text>
<text text-anchor="start" x="286.3757" y="-591.5" font-family="Helvetica,sans-Serif" font-size="10.00" fill="#000000">+ Descriptor()</text>
<text text-anchor="start" x="286.3757" y="-580.5" font-family="Helvetica,sans-Serif" font-size="10.00" fill="#000000">+ operator=()</text>
<text text-anchor="start" x="286.3757" y="-569.5" font-family="Helvetica,sans-Serif" font-size="10.00" fill="#000000">+ operator ItgType()</text>
<text text-anchor="start" x="286.3757" y="-558.5" font-family="Helvetica,sans-Serif" font-size="10.00" fill="#000000">+ runtimeInit()</text>
<text text-anchor="start" x="286.3757" y="-547.5" font-family="Helvetica,sans-Serif" font-size="10.00" fill="#000000">+ operator==()</text>
<text text-anchor="start" x="286.3757" y="-536.5" font-family="Helvetica,sans-Serif" font-size="10.00" fill="#000000">+ operator==()</text>
<text text-anchor="start" x="286.3757" y="-525.5" font-family="Helvetica,sans-Serif" font-size="10.00" fill="#000000">+ operator&lt;()</text>
<text text-anchor="start" x="286.3757" y="-514.5" font-family="Helvetica,sans-Serif" font-size="10.00" fill="#000000">+ operator!=()</text>
<text text-anchor="start" x="286.3757" y="-503.5" font-family="Helvetica,sans-Serif" font-size="10.00" fill="#000000">+ operator!=()</text>
<text text-anchor="start" x="286.3757" y="-492.5" font-family="Helvetica,sans-Serif" font-size="10.00" fill="#000000">+ as()</text>
<text text-anchor="start" x="286.3757" y="-481.5" font-family="Helvetica,sans-Serif" font-size="10.00" fill="#000000">+ print()</text>
</a>
</g>
</g>
<!-- Node4&#45;&gt;Node3 -->
<g id="edge2" class="edge">
<title>Node4&#45;&gt;Node3</title>
<path fill="none" stroke="#404040" d="M391.3745,-474.2891C399.4176,-442.8255 410.0974,-408.8104 423.8757,-379 425.0787,-376.3973 426.3481,-373.79 427.6737,-371.1855"/>
<polygon fill="none" stroke="#404040" points="427.7297,-371.0814 427.0496,-363.9024 433.4148,-360.5135 434.0949,-367.6925 427.7297,-371.0814"/>
<text text-anchor="middle" x="456.8757" y="-415" font-family="Helvetica,sans-Serif" font-size="10.00" fill="#000000"> +description</text>
</g>
<!-- Node5 -->
<g id="node4" class="node">
<title>Node5</title>
<polygon fill="none" stroke="#bfbfbf" points="555.3757,-1025.5 555.3757,-1082.5 594.3757,-1082.5 594.3757,-1025.5 555.3757,-1025.5"/>
<text text-anchor="middle" x="574.8757" y="-1070.5" font-family="Helvetica,sans-Serif" font-size="10.00" fill="#000000">Type</text>
<polyline fill="none" stroke="#bfbfbf" points="555.3757,-1063.5 594.3757,-1063.5 "/>
<text text-anchor="middle" x="574.8757" y="-1051.5" font-family="Helvetica,sans-Serif" font-size="10.00" fill="#000000"> </text>
<polyline fill="none" stroke="#bfbfbf" points="555.3757,-1044.5 594.3757,-1044.5 "/>
<text text-anchor="middle" x="574.8757" y="-1032.5" font-family="Helvetica,sans-Serif" font-size="10.00" fill="#000000"> </text>
</g>
<!-- Node5&#45;&gt;Node4 -->
<g id="edge3" class="edge">
<title>Node5&#45;&gt;Node4</title>
<path fill="none" stroke="#404040" d="M594.8374,-1044.7825C623.2273,-1030.4221 674.1225,-999.7429 694.8757,-956 735.2632,-870.8726 750.687,-819.914 694.8757,-744 659.5713,-695.9792 624.6968,-718.4608 566.8757,-704 528.6061,-694.4289 512.3508,-704.572 474.3435,-686.654"/>
<polygon fill="none" stroke="#404040" points="474.2792,-686.621 467.1149,-687.4416 463.6019,-681.144 470.7662,-680.3235 474.2792,-686.621"/>
<text text-anchor="middle" x="743.3757" y="-847.5" font-family="Helvetica,sans-Serif" font-size="10.00" fill="#000000"> +itg</text>
</g>
<!-- Node9 -->
<g id="node8" class="node">
<title>Node9</title>
<g id="a_node8"><a xlink:href="../../d9/db3/structo2_1_1header_1_1Descriptor.html" target="_top" xlink:title="{o2::header::Descriptor\l\&lt; N, PrinterPolicy \&gt;\n||+ Descriptor()\l+ Descriptor()\l+ Descriptor()\l+ operator=()\l+ operator ItgType()\l+ Descriptor()\l+ runtimeInit()\l+ operator==()\l+ operator\&lt;()\l+ operator!=()\l+ operator==()\l+ operator!=()\l+ as()\l+ print()\l}">
<polygon fill="none" stroke="#000000" points="315.3757,-744.5 315.3757,-955.5 440.3757,-955.5 440.3757,-744.5 315.3757,-744.5"/>
<text text-anchor="start" x="323.3757" y="-943.5" font-family="Helvetica,sans-Serif" font-size="10.00" fill="#000000">o2::header::Descriptor</text>
<text text-anchor="middle" x="377.8757" y="-932.5" font-family="Helvetica,sans-Serif" font-size="10.00" fill="#000000">&lt; N, PrinterPolicy &gt;</text>
<polyline fill="none" stroke="#000000" points="315.3757,-925.5 440.3757,-925.5 "/>
<text text-anchor="middle" x="377.8757" y="-913.5" font-family="Helvetica,sans-Serif" font-size="10.00" fill="#000000"> </text>
<polyline fill="none" stroke="#000000" points="315.3757,-906.5 440.3757,-906.5 "/>
<text text-anchor="start" x="323.3757" y="-894.5" font-family="Helvetica,sans-Serif" font-size="10.00" fill="#000000">+ Descriptor()</text>
<text text-anchor="start" x="323.3757" y="-883.5" font-family="Helvetica,sans-Serif" font-size="10.00" fill="#000000">+ Descriptor()</text>
<text text-anchor="start" x="323.3757" y="-872.5" font-family="Helvetica,sans-Serif" font-size="10.00" fill="#000000">+ Descriptor()</text>
<text text-anchor="start" x="323.3757" y="-861.5" font-family="Helvetica,sans-Serif" font-size="10.00" fill="#000000">+ operator=()</text>
<text text-anchor="start" x="323.3757" y="-850.5" font-family="Helvetica,sans-Serif" font-size="10.00" fill="#000000">+ operator ItgType()</text>
<text text-anchor="start" x="323.3757" y="-839.5" font-family="Helvetica,sans-Serif" font-size="10.00" fill="#000000">+ Descriptor()</text>
<text text-anchor="start" x="323.3757" y="-828.5" font-family="Helvetica,sans-Serif" font-size="10.00" fill="#000000">+ runtimeInit()</text>
<text text-anchor="start" x="323.3757" y="-817.5" font-family="Helvetica,sans-Serif" font-size="10.00" fill="#000000">+ operator==()</text>
<text text-anchor="start" x="323.3757" y="-806.5" font-family="Helvetica,sans-Serif" font-size="10.00" fill="#000000">+ operator&lt;()</text>
<text text-anchor="start" x="323.3757" y="-795.5" font-family="Helvetica,sans-Serif" font-size="10.00" fill="#000000">+ operator!=()</text>
<text text-anchor="start" x="323.3757" y="-784.5" font-family="Helvetica,sans-Serif" font-size="10.00" fill="#000000">+ operator==()</text>
<text text-anchor="start" x="323.3757" y="-773.5" font-family="Helvetica,sans-Serif" font-size="10.00" fill="#000000">+ operator!=()</text>
<text text-anchor="start" x="323.3757" y="-762.5" font-family="Helvetica,sans-Serif" font-size="10.00" fill="#000000">+ as()</text>
<text text-anchor="start" x="323.3757" y="-751.5" font-family="Helvetica,sans-Serif" font-size="10.00" fill="#000000">+ print()</text>
</a>
</g>
</g>
<!-- Node5&#45;&gt;Node9 -->
<g id="edge8" class="edge">
<title>Node5&#45;&gt;Node9</title>
<path fill="none" stroke="#404040" d="M555.2915,-1040.4411C530.4015,-1022.686 486.8358,-989.8218 454.8757,-956 452.7569,-953.7578 450.6466,-951.4557 448.5496,-949.1063"/>
<polygon fill="none" stroke="#404040" points="448.3852,-948.916 441.4355,-946.9918 440.5388,-939.8366 447.4885,-941.7608 448.3852,-948.916"/>
<text text-anchor="middle" x="521.3757" y="-988" font-family="Helvetica,sans-Serif" font-size="10.00" fill="#000000"> +itg</text>
</g>
<!-- Node10 -->
<g id="node9" class="node">
<title>Node10</title>
<g id="a_node9"><a xlink:href="../../d9/db3/structo2_1_1header_1_1Descriptor.html" target="_top" xlink:title="{o2::header::Descriptor\l\&lt; gSizeSerializationMethodString \&gt;\n||+ Descriptor()\l+ Descriptor()\l+ Descriptor()\l+ Descriptor()\l+ operator=()\l+ operator ItgType()\l+ runtimeInit()\l+ operator==()\l+ operator==()\l+ operator\&lt;()\l+ operator!=()\l+ operator!=()\l+ as()\l+ print()\l}">
<polygon fill="none" stroke="#000000" points="69.3757,-474.5 69.3757,-685.5 260.3757,-685.5 260.3757,-474.5 69.3757,-474.5"/>
<text text-anchor="start" x="77.3757" y="-673.5" font-family="Helvetica,sans-Serif" font-size="10.00" fill="#000000">o2::header::Descriptor</text>
<text text-anchor="middle" x="164.8757" y="-662.5" font-family="Helvetica,sans-Serif" font-size="10.00" fill="#000000">&lt; gSizeSerializationMethodString &gt;</text>
<polyline fill="none" stroke="#000000" points="69.3757,-655.5 260.3757,-655.5 "/>
<text text-anchor="middle" x="164.8757" y="-643.5" font-family="Helvetica,sans-Serif" font-size="10.00" fill="#000000"> </text>
<polyline fill="none" stroke="#000000" points="69.3757,-636.5 260.3757,-636.5 "/>
<text text-anchor="start" x="77.3757" y="-624.5" font-family="Helvetica,sans-Serif" font-size="10.00" fill="#000000">+ Descriptor()</text>
<text text-anchor="start" x="77.3757" y="-613.5" font-family="Helvetica,sans-Serif" font-size="10.00" fill="#000000">+ Descriptor()</text>
<text text-anchor="start" x="77.3757" y="-602.5" font-family="Helvetica,sans-Serif" font-size="10.00" fill="#000000">+ Descriptor()</text>
<text text-anchor="start" x="77.3757" y="-591.5" font-family="Helvetica,sans-Serif" font-size="10.00" fill="#000000">+ Descriptor()</text>
<text text-anchor="start" x="77.3757" y="-580.5" font-family="Helvetica,sans-Serif" font-size="10.00" fill="#000000">+ operator=()</text>
<text text-anchor="start" x="77.3757" y="-569.5" font-family="Helvetica,sans-Serif" font-size="10.00" fill="#000000">+ operator ItgType()</text>
<text text-anchor="start" x="77.3757" y="-558.5" font-family="Helvetica,sans-Serif" font-size="10.00" fill="#000000">+ runtimeInit()</text>
<text text-anchor="start" x="77.3757" y="-547.5" font-family="Helvetica,sans-Serif" font-size="10.00" fill="#000000">+ operator==()</text>
<text text-anchor="start" x="77.3757" y="-536.5" font-family="Helvetica,sans-Serif" font-size="10.00" fill="#000000">+ operator==()</text>
<text text-anchor="start" x="77.3757" y="-525.5" font-family="Helvetica,sans-Serif" font-size="10.00" fill="#000000">+ operator&lt;()</text>
<text text-anchor="start" x="77.3757" y="-514.5" font-family="Helvetica,sans-Serif" font-size="10.00" fill="#000000">+ operator!=()</text>
<text text-anchor="start" x="77.3757" y="-503.5" font-family="Helvetica,sans-Serif" font-size="10.00" fill="#000000">+ operator!=()</text>
<text text-anchor="start" x="77.3757" y="-492.5" font-family="Helvetica,sans-Serif" font-size="10.00" fill="#000000">+ as()</text>
<text text-anchor="start" x="77.3757" y="-481.5" font-family="Helvetica,sans-Serif" font-size="10.00" fill="#000000">+ print()</text>
</a>
</g>
</g>
<!-- Node5&#45;&gt;Node10 -->
<g id="edge14" class="edge">
<title>Node5&#45;&gt;Node10</title>
<path fill="none" stroke="#404040" d="M573.6875,-1025.2714C570.4163,-952.4461 560.2777,-764.8907 541.8757,-744 518.9311,-717.9523 499.3624,-735.1423 465.8757,-726 434.0064,-717.2993 427.1066,-711.2476 394.8757,-704 343.2425,-692.3894 322.1171,-709.1017 271.5732,-686.7209"/>
<polygon fill="none" stroke="#404040" points="271.5145,-686.6929 264.3759,-687.7135 260.6883,-681.5166 267.8268,-680.496 271.5145,-686.6929"/>
<text text-anchor="middle" x="582.3757" y="-847.5" font-family="Helvetica,sans-Serif" font-size="10.00" fill="#000000"> +itg</text>
</g>
<!-- Node6 -->
<g id="node5" class="node">
<title>Node6</title>
<polygon fill="none" stroke="#bfbfbf" points="81.8757,-1025.5 81.8757,-1082.5 119.8757,-1082.5 119.8757,-1025.5 81.8757,-1025.5"/>
<text text-anchor="middle" x="100.8757" y="-1070.5" font-family="Helvetica,sans-Serif" font-size="10.00" fill="#000000">char</text>
<polyline fill="none" stroke="#bfbfbf" points="81.8757,-1063.5 119.8757,-1063.5 "/>
<text text-anchor="middle" x="100.8757" y="-1051.5" font-family="Helvetica,sans-Serif" font-size="10.00" fill="#000000"> </text>
<polyline fill="none" stroke="#bfbfbf" points="81.8757,-1044.5 119.8757,-1044.5 "/>
<text text-anchor="middle" x="100.8757" y="-1032.5" font-family="Helvetica,sans-Serif" font-size="10.00" fill="#000000"> </text>
</g>
<!-- Node6&#45;&gt;Node3 -->
<g id="edge12" class="edge">
<title>Node6&#45;&gt;Node3</title>
<path fill="none" stroke="#404040" d="M87.0178,-1025.2836C45.1709,-933.9668 -69.3362,-646.1745 59.8757,-474 141.0108,-365.8877 295.2471,-315.5777 396.5584,-293.2961"/>
<polygon fill="none" stroke="#404040" points="396.6006,-293.2872 401.6322,-288.1216 408.3356,-290.7795 403.304,-295.945 396.6006,-293.2872"/>
<text text-anchor="middle" x="36.8757" y="-712.5" font-family="Helvetica,sans-Serif" font-size="10.00" fill="#000000"> +magicString</text>
</g>
<!-- Node6&#45;&gt;Node4 -->
<g id="edge4" class="edge">
<title>Node6&#45;&gt;Node4</title>
<path fill="none" stroke="#404040" d="M120.1873,-1036.6041C138.9106,-1018.4802 166.4014,-988.2653 179.8757,-956 198.1463,-912.2497 171.4637,-778.603 203.8757,-744 234.7472,-711.0416 268.1821,-753.6636 303.8757,-726 314.5315,-717.7415 323.5519,-707.3961 331.1748,-696.0464"/>
<polygon fill="none" stroke="#404040" points="331.1837,-696.032 330.9548,-688.8245 337.5199,-685.8411 337.7488,-693.0486 331.1837,-696.032"/>
<text text-anchor="middle" x="216.3757" y="-847.5" font-family="Helvetica,sans-Serif" font-size="10.00" fill="#000000"> +str</text>
</g>
<!-- Node6&#45;&gt;Node9 -->
<g id="edge9" class="edge">
<title>Node6&#45;&gt;Node9</title>
<path fill="none" stroke="#404040" d="M120.1184,-1044.2148C150.227,-1028.9547 210.3646,-998.6787 261.8757,-974 279.0922,-965.7516 286.1218,-968.1147 300.8757,-956 302.7215,-954.4844 304.5454,-952.9148 306.3461,-951.2982"/>
<polygon fill="none" stroke="#404040" points="306.4891,-951.1611 308.0512,-944.1212 315.1504,-942.8556 313.5882,-949.8955 306.4891,-951.1611"/>
<text text-anchor="middle" x="274.3757" y="-988" font-family="Helvetica,sans-Serif" font-size="10.00" fill="#000000"> +str</text>
</g>
<!-- Node6&#45;&gt;Node10 -->
<g id="edge15" class="edge">
<title>Node6&#45;&gt;Node10</title>
<path fill="none" stroke="#404040" d="M94.1942,-1025.3304C82.4525,-970.0761 61.4756,-845.3433 84.8757,-744 88.4888,-728.3519 93.8082,-712.47 100.0163,-697.0606"/>
<polygon fill="none" stroke="#404040" points="100.0416,-697.0001 98.6731,-689.9201 104.6822,-685.9337 106.0507,-693.0138 100.0416,-697.0001"/>
<text text-anchor="middle" x="97.3757" y="-847.5" font-family="Helvetica,sans-Serif" font-size="10.00" fill="#000000"> +str</text>
</g>
<!-- Node7 -->
<g id="node6" class="node">
<title>Node7</title>
<polygon fill="none" stroke="#bfbfbf" points="462.3757,-1025.5 462.3757,-1082.5 491.3757,-1082.5 491.3757,-1025.5 462.3757,-1025.5"/>
<text text-anchor="middle" x="476.8757" y="-1070.5" font-family="Helvetica,sans-Serif" font-size="10.00" fill="#000000">int</text>
<polyline fill="none" stroke="#bfbfbf" points="462.3757,-1063.5 491.3757,-1063.5 "/>
<text text-anchor="middle" x="476.8757" y="-1051.5" font-family="Helvetica,sans-Serif" font-size="10.00" fill="#000000"> </text>
<polyline fill="none" stroke="#bfbfbf" points="462.3757,-1044.5 491.3757,-1044.5 "/>
<text text-anchor="middle" x="476.8757" y="-1032.5" font-family="Helvetica,sans-Serif" font-size="10.00" fill="#000000"> </text>
</g>
<!-- Node7&#45;&gt;Node4 -->
<g id="edge5" class="edge">
<title>Node7&#45;&gt;Node4</title>
<path fill="none" stroke="#404040" d="M491.4012,-1047.7411C518.7081,-1035.0662 577.0033,-1003.4728 599.8757,-956 640.7727,-871.1162 649.2087,-824.275 599.8757,-744 579.27,-710.4702 556.9634,-719.7008 520.8757,-704 502.5099,-696.0096 493.7916,-697.8876 473.982,-686.6976"/>
<polygon fill="none" stroke="#404040" points="473.8578,-686.6208 466.6509,-686.8653 463.6533,-680.3067 470.8603,-680.0623 473.8578,-686.6208"/>
<text text-anchor="middle" x="661.8757" y="-858.5" font-family="Helvetica,sans-Serif" font-size="10.00" fill="#000000"> +arraySize</text>
<text text-anchor="middle" x="661.8757" y="-847.5" font-family="Helvetica,sans-Serif" font-size="10.00" fill="#000000">+size</text>
<text text-anchor="middle" x="661.8757" y="-836.5" font-family="Helvetica,sans-Serif" font-size="10.00" fill="#000000">+bitcount</text>
</g>
<!-- Node7&#45;&gt;Node9 -->
<g id="edge10" class="edge">
<title>Node7&#45;&gt;Node9</title>
<path fill="none" stroke="#404040" d="M462.0837,-1048.5865C445.3522,-1041.6498 418.6483,-1027.9579 404.8757,-1007 397.0439,-995.0823 391.2717,-981.5963 387.0471,-967.6571"/>
<polygon fill="none" stroke="#404040" points="386.9905,-967.4481 381.5602,-962.7035 383.8512,-955.866 389.2816,-960.6106 386.9905,-967.4481"/>
<text text-anchor="middle" x="433.8757" y="-999" font-family="Helvetica,sans-Serif" font-size="10.00" fill="#000000"> +arraySize</text>
<text text-anchor="middle" x="433.8757" y="-988" font-family="Helvetica,sans-Serif" font-size="10.00" fill="#000000">+size</text>
<text text-anchor="middle" x="433.8757" y="-977" font-family="Helvetica,sans-Serif" font-size="10.00" fill="#000000">+bitcount</text>
</g>
<!-- Node7&#45;&gt;Node10 -->
<g id="edge16" class="edge">
<title>Node7&#45;&gt;Node10</title>
<path fill="none" stroke="#404040" d="M478.1266,-1025.4336C480.5266,-957.1892 482.8499,-787.1462 448.8757,-744 414.6175,-700.4932 383.7008,-720.6126 330.8757,-704 306.7116,-696.4008 296.087,-699.6636 271.3224,-686.8118"/>
<polygon fill="none" stroke="#404040" points="271.0951,-686.6834 263.9034,-687.2135 260.6482,-680.7789 267.8398,-680.2489 271.0951,-686.6834"/>
<text text-anchor="middle" x="508.8757" y="-858.5" font-family="Helvetica,sans-Serif" font-size="10.00" fill="#000000"> +arraySize</text>
<text text-anchor="middle" x="508.8757" y="-847.5" font-family="Helvetica,sans-Serif" font-size="10.00" fill="#000000">+size</text>
<text text-anchor="middle" x="508.8757" y="-836.5" font-family="Helvetica,sans-Serif" font-size="10.00" fill="#000000">+bitcount</text>
</g>
<!-- Node8 -->
<g id="node7" class="node">
<title>Node8</title>
<polygon fill="none" stroke="#bfbfbf" points="209.3757,-1025.5 209.3757,-1082.5 316.3757,-1082.5 316.3757,-1025.5 209.3757,-1025.5"/>
<text text-anchor="middle" x="262.8757" y="-1070.5" font-family="Helvetica,sans-Serif" font-size="10.00" fill="#000000">anonymous:+@71</text>
<polyline fill="none" stroke="#bfbfbf" points="209.3757,-1063.5 316.3757,-1063.5 "/>
<text text-anchor="middle" x="262.8757" y="-1051.5" font-family="Helvetica,sans-Serif" font-size="10.00" fill="#000000"> </text>
<polyline fill="none" stroke="#bfbfbf" points="209.3757,-1044.5 316.3757,-1044.5 "/>
<text text-anchor="middle" x="262.8757" y="-1032.5" font-family="Helvetica,sans-Serif" font-size="10.00" fill="#000000"> </text>
</g>
<!-- Node8&#45;&gt;Node4 -->
<g id="edge6" class="edge">
<title>Node8&#45;&gt;Node4</title>
<path fill="none" stroke="#404040" d="M253.6748,-1025.1519C236.6464,-965.6715 207.4955,-827.957 271.8757,-744 288.8171,-721.907 312.4911,-745.9837 331.8757,-726 340.0103,-717.614 346.495,-707.7277 351.6576,-697.1169"/>
<polygon fill="none" stroke="#404040" points="351.7818,-696.8316 350.5099,-689.7336 356.5728,-685.8295 357.8447,-692.9275 351.7818,-696.8316"/>
<text text-anchor="middle" x="288.8757" y="-847.5" font-family="Helvetica,sans-Serif" font-size="10.00" fill="#000000"> +@71</text>
</g>
<!-- Node8&#45;&gt;Node9 -->
<g id="edge11" class="edge">
<title>Node8&#45;&gt;Node9</title>
<path fill="none" stroke="#404040" d="M279.1085,-1025.2045C288.1414,-1009.1809 300.046,-988.0632 312.4523,-966.0555"/>
<polygon fill="none" stroke="#404040" points="312.4821,-966.0026 311.944,-958.8115 318.375,-955.5491 318.913,-962.7401 312.4821,-966.0026"/>
<text text-anchor="middle" x="323.8757" y="-988" font-family="Helvetica,sans-Serif" font-size="10.00" fill="#000000"> +@71</text>
</g>
<!-- Node8&#45;&gt;Node10 -->
<g id="edge17" class="edge">
<title>Node8&#45;&gt;Node10</title>
<path fill="none" stroke="#404040" d="M242.1015,-1025.4943C228.7105,-1008.7224 210.0683,-988.1045 189.8757,-974 172.5542,-961.901 157.6526,-973.5421 145.8757,-956 118.4062,-915.0833 129.8922,-791.9012 143.971,-697.5707"/>
<polygon fill="none" stroke="#404040" points="143.982,-697.4975 140.931,-690.9636 145.7888,-685.6343 148.8398,-692.1681 143.982,-697.4975"/>
<text text-anchor="middle" x="162.8757" y="-847.5" font-family="Helvetica,sans-Serif" font-size="10.00" fill="#000000"> +@71</text>
</g>
<!-- Node9&#45;&gt;Node4 -->
<g id="edge7" class="edge">
<title>Node9&#45;&gt;Node4</title>
<path fill="none" stroke="#ffa500" d="M384.6136,-734.1336C384.6078,-723.9414 384.3872,-713.7853 383.8757,-704 383.565,-698.0555 383.171,-691.9573 382.7152,-685.8069"/>
<polygon fill="#ffa500" stroke="#ffa500" points="381.1126,-734.3041 384.5506,-744.3256 388.1125,-734.3474 381.1126,-734.3041"/>
<text text-anchor="start" x="384.8757" y="-718" font-family="Helvetica,sans-Serif" font-size="10.00" fill="#000000"> &lt; gSizeHeaderDescription</text>
<text text-anchor="middle" x="450.8757" y="-707" font-family="Helvetica,sans-Serif" font-size="10.00" fill="#000000">String &gt;</text>
</g>
<!-- Node9&#45;&gt;Node10 -->
<g id="edge18" class="edge">
<title>Node9&#45;&gt;Node10</title>
<path fill="none" stroke="#ffa500" d="M307.3462,-748.3371C305.2332,-746.8101 303.0762,-745.3609 300.8757,-744 259.4884,-718.4052 227.7011,-759.9882 192.8757,-726 181.5164,-714.9137 173.9989,-700.728 169.1329,-685.5719"/>
<polygon fill="#ffa500" stroke="#ffa500" points="305.2574,-751.1471 315.2771,-754.5904 309.5915,-745.6503 305.2574,-751.1471"/>
<text text-anchor="start" x="192.8757" y="-718" font-family="Helvetica,sans-Serif" font-size="10.00" fill="#000000"> &lt; gSizeSerializationMethod</text>
<text text-anchor="middle" x="261.8757" y="-707" font-family="Helvetica,sans-Serif" font-size="10.00" fill="#000000">String &gt;</text>
</g>
<!-- Node10&#45;&gt;Node3 -->
<g id="edge13" class="edge">
<title>Node10&#45;&gt;Node3</title>
<path fill="none" stroke="#404040" d="M234.9531,-474.3475C259.7278,-441.504 289.3408,-406.6863 320.8757,-379 343.7717,-358.8983 371.2049,-340.6778 397.4458,-325.3819"/>
<polygon fill="none" stroke="#404040" points="397.7913,-325.1844 401.015,-318.734 408.2092,-319.2289 404.9854,-325.6793 397.7913,-325.1844"/>
<text text-anchor="middle" x="356.8757" y="-415" font-family="Helvetica,sans-Serif" font-size="10.00" fill="#000000"> +serialization</text>
</g>
<!-- Node11 -->
<g id="node10" class="node">
<title>Node11</title>
<g id="a_node10"><a xlink:href="../../d3/d87/classuint32__t.html" target="_top" xlink:title="{uint32_t\n||}">
<polygon fill="none" stroke="#000000" points="480.8757,-551.5 480.8757,-608.5 536.8757,-608.5 536.8757,-551.5 480.8757,-551.5"/>
<text text-anchor="middle" x="508.8757" y="-596.5" font-family="Helvetica,sans-Serif" font-size="10.00" fill="#000000">uint32_t</text>
<polyline fill="none" stroke="#000000" points="480.8757,-589.5 536.8757,-589.5 "/>
<text text-anchor="middle" x="508.8757" y="-577.5" font-family="Helvetica,sans-Serif" font-size="10.00" fill="#000000"> </text>
<polyline fill="none" stroke="#000000" points="480.8757,-570.5 536.8757,-570.5 "/>
<text text-anchor="middle" x="508.8757" y="-558.5" font-family="Helvetica,sans-Serif" font-size="10.00" fill="#000000"> </text>
</a>
</g>
</g>
<!-- Node11&#45;&gt;Node3 -->
<g id="edge19" class="edge">
<title>Node11&#45;&gt;Node3</title>
<path fill="none" stroke="#404040" d="M505.0783,-551.4986C501.9288,-526.4069 497.6851,-488.8518 495.8757,-456 494.3936,-429.0913 493.8009,-399.8731 493.6651,-372.9977"/>
<polygon fill="none" stroke="#404040" points="493.6647,-372.8311 489.649,-366.8416 493.6333,-360.8311 497.649,-366.8206 493.6647,-372.8311"/>
<text text-anchor="middle" x="541.3757" y="-448" font-family="Helvetica,sans-Serif" font-size="10.00" fill="#000000"> +headerVersion</text>
<text text-anchor="middle" x="541.3757" y="-437" font-family="Helvetica,sans-Serif" font-size="10.00" fill="#000000">+headerSize</text>
<text text-anchor="middle" x="541.3757" y="-426" font-family="Helvetica,sans-Serif" font-size="10.00" fill="#000000">+sMagicString</text>
<text text-anchor="middle" x="541.3757" y="-415" font-family="Helvetica,sans-Serif" font-size="10.00" fill="#000000">+flagsNextHeader</text>
<text text-anchor="middle" x="541.3757" y="-404" font-family="Helvetica,sans-Serif" font-size="10.00" fill="#000000">+magicStringInt</text>
<text text-anchor="middle" x="541.3757" y="-393" font-family="Helvetica,sans-Serif" font-size="10.00" fill="#000000">+flagsUnused</text>
<text text-anchor="middle" x="541.3757" y="-382" font-family="Helvetica,sans-Serif" font-size="10.00" fill="#000000">+flags</text>
</g>
<!-- Node12 -->
<g id="node11" class="node">
<title>Node12</title>
<polygon fill="none" stroke="#bfbfbf" points="555.3757,-551.5 555.3757,-608.5 662.3757,-608.5 662.3757,-551.5 555.3757,-551.5"/>
<text text-anchor="middle" x="608.8757" y="-596.5" font-family="Helvetica,sans-Serif" font-size="10.00" fill="#000000">anonymous:+@73</text>
<polyline fill="none" stroke="#bfbfbf" points="555.3757,-589.5 662.3757,-589.5 "/>
<text text-anchor="middle" x="608.8757" y="-577.5" font-family="Helvetica,sans-Serif" font-size="10.00" fill="#000000"> </text>
<polyline fill="none" stroke="#bfbfbf" points="555.3757,-570.5 662.3757,-570.5 "/>
<text text-anchor="middle" x="608.8757" y="-558.5" font-family="Helvetica,sans-Serif" font-size="10.00" fill="#000000"> </text>
</g>
<!-- Node12&#45;&gt;Node3 -->
<g id="edge20" class="edge">
<title>Node12&#45;&gt;Node3</title>
<path fill="none" stroke="#404040" d="M611.1124,-551.2712C613.0888,-510.9205 612.438,-436.0176 586.8757,-379 585.7027,-376.3836 584.437,-373.788 583.0898,-371.217"/>
<polygon fill="none" stroke="#404040" points="583.0852,-371.2089 576.6323,-367.9901 577.1215,-360.7956 583.5744,-364.0144 583.0852,-371.2089"/>
<text text-anchor="middle" x="623.8757" y="-415" font-family="Helvetica,sans-Serif" font-size="10.00" fill="#000000"> +@73</text>
</g>
<!-- Node13 -->
<g id="node12" class="node">
<title>Node13</title>
<polygon fill="none" stroke="#bfbfbf" points="680.3757,-551.5 680.3757,-608.5 787.3757,-608.5 787.3757,-551.5 680.3757,-551.5"/>
<text text-anchor="middle" x="733.8757" y="-596.5" font-family="Helvetica,sans-Serif" font-size="10.00" fill="#000000">anonymous:+@75</text>
<polyline fill="none" stroke="#bfbfbf" points="680.3757,-589.5 787.3757,-589.5 "/>
<text text-anchor="middle" x="733.8757" y="-577.5" font-family="Helvetica,sans-Serif" font-size="10.00" fill="#000000"> </text>
<polyline fill="none" stroke="#bfbfbf" points="680.3757,-570.5 787.3757,-570.5 "/>
<text text-anchor="middle" x="733.8757" y="-558.5" font-family="Helvetica,sans-Serif" font-size="10.00" fill="#000000"> </text>
</g>
<!-- Node13&#45;&gt;Node3 -->
<g id="edge21" class="edge">
<title>Node13&#45;&gt;Node3</title>
<path fill="none" stroke="#404040" d="M728.8233,-551.3942C719.6985,-508.0546 696.4097,-425.8528 644.8757,-379 628.497,-364.1091 616.2432,-371.125 592.3862,-360.8197"/>
<polygon fill="none" stroke="#404040" points="592.0991,-360.6735 584.9372,-361.5154 581.4056,-355.2283 588.5674,-354.3864 592.0991,-360.6735"/>
<text text-anchor="middle" x="712.8757" y="-415" font-family="Helvetica,sans-Serif" font-size="10.00" fill="#000000"> +@75</text>
</g>
<!-- Node14 -->
<g id="node13" class="node">
<title>Node14</title>
<polygon fill="none" stroke="#bfbfbf" points="805.3757,-551.5 805.3757,-608.5 848.3757,-608.5 848.3757,-551.5 805.3757,-551.5"/>
<text text-anchor="middle" x="826.8757" y="-596.5" font-family="Helvetica,sans-Serif" font-size="10.00" fill="#000000">const</text>
<polyline fill="none" stroke="#bfbfbf" points="805.3757,-589.5 848.3757,-589.5 "/>
<text text-anchor="middle" x="826.8757" y="-577.5" font-family="Helvetica,sans-Serif" font-size="10.00" fill="#000000"> </text>
<polyline fill="none" stroke="#bfbfbf" points="805.3757,-570.5 848.3757,-570.5 "/>
<text text-anchor="middle" x="826.8757" y="-558.5" font-family="Helvetica,sans-Serif" font-size="10.00" fill="#000000"> </text>
</g>
<!-- Node14&#45;&gt;Node3 -->
<g id="edge22" class="edge">
<title>Node14&#45;&gt;Node3</title>
<path fill="none" stroke="#404040" d="M823.3912,-551.2187C816.0894,-505.2448 794.4864,-416.5976 733.8757,-379 682.5243,-347.1461 652.8035,-382.7229 592.7312,-360.9582"/>
<polygon fill="none" stroke="#404040" points="592.6771,-360.9361 585.6091,-362.3653 581.5713,-356.3907 588.6393,-354.9614 592.6771,-360.9361"/>
<text text-anchor="middle" x="851.3757" y="-426" font-family="Helvetica,sans-Serif" font-size="10.00" fill="#000000"> +sHeaderType</text>
<text text-anchor="middle" x="851.3757" y="-415" font-family="Helvetica,sans-Serif" font-size="10.00" fill="#000000">+sSerializationMethod</text>
<text text-anchor="middle" x="851.3757" y="-404" font-family="Helvetica,sans-Serif" font-size="10.00" fill="#000000">+sVersion</text>
</g>
<!-- Node15 -->
<g id="node14" class="node">
<title>Node15</title>
<g id="a_node14"><a xlink:href="../../d6/d30/classuint64__t.html" target="_top" xlink:title="{uint64_t\n||}">
<polygon fill="none" stroke="#000000" points="599.8757,-248.5 599.8757,-305.5 655.8757,-305.5 655.8757,-248.5 599.8757,-248.5"/>
<text text-anchor="middle" x="627.8757" y="-293.5" font-family="Helvetica,sans-Serif" font-size="10.00" fill="#000000">uint64_t</text>
<polyline fill="none" stroke="#000000" points="599.8757,-286.5 655.8757,-286.5 "/>
<text text-anchor="middle" x="627.8757" y="-274.5" font-family="Helvetica,sans-Serif" font-size="10.00" fill="#000000"> </text>
<polyline fill="none" stroke="#000000" points="599.8757,-267.5 655.8757,-267.5 "/>
<text text-anchor="middle" x="627.8757" y="-255.5" font-family="Helvetica,sans-Serif" font-size="10.00" fill="#000000"> </text>
</a>
</g>
</g>
<!-- Node15&#45;&gt;Node2 -->
<g id="edge23" class="edge">
<title>Node15&#45;&gt;Node2</title>
<path fill="none" stroke="#404040" d="M627.8757,-248.4497C627.8757,-219.8369 627.8757,-174.5935 627.8757,-135.8408"/>
<polygon fill="none" stroke="#404040" points="627.8758,-135.7825 623.8758,-129.7825 627.8757,-123.7825 631.8758,-129.7825 627.8758,-135.7825"/>
<text text-anchor="middle" x="655.8757" y="-167" font-family="Helvetica,sans-Serif" font-size="10.00" fill="#000000"> +duration</text>
<text text-anchor="middle" x="655.8757" y="-156" font-family="Helvetica,sans-Serif" font-size="10.00" fill="#000000">+startTime</text>
<text text-anchor="middle" x="655.8757" y="-145" font-family="Helvetica,sans-Serif" font-size="10.00" fill="#000000">+creation</text>
</g>
<!-- Node16 -->
<g id="node15" class="node">
<title>Node16</title>
<polygon fill="none" stroke="#bfbfbf" points="684.8757,-248.5 684.8757,-305.5 728.8757,-305.5 728.8757,-248.5 684.8757,-248.5"/>
<text text-anchor="middle" x="706.8757" y="-293.5" font-family="Helvetica,sans-Serif" font-size="10.00" fill="#000000">static</text>
<polyline fill="none" stroke="#bfbfbf" points="684.8757,-286.5 728.8757,-286.5 "/>
<text text-anchor="middle" x="706.8757" y="-274.5" font-family="Helvetica,sans-Serif" font-size="10.00" fill="#000000"> </text>
<polyline fill="none" stroke="#bfbfbf" points="684.8757,-267.5 728.8757,-267.5 "/>
<text text-anchor="middle" x="706.8757" y="-255.5" font-family="Helvetica,sans-Serif" font-size="10.00" fill="#000000"> </text>
</g>
<!-- Node16&#45;&gt;Node2 -->
<g id="edge24" class="edge">
<title>Node16&#45;&gt;Node2</title>
<path fill="none" stroke="#404040" d="M705.9646,-248.3164C704.2171,-220.264 699.196,-176.8078 684.8757,-142 683.8477,-139.5013 682.7286,-137.0054 681.5336,-134.5216"/>
<polygon fill="none" stroke="#404040" points="681.4462,-134.3554 675.1115,-130.91 675.8555,-123.7373 682.1902,-127.1828 681.4462,-134.3554"/>
<text text-anchor="middle" x="732.3757" y="-161.5" font-family="Helvetica,sans-Serif" font-size="10.00" fill="#000000"> +sHeaderType</text>
<text text-anchor="middle" x="732.3757" y="-150.5" font-family="Helvetica,sans-Serif" font-size="10.00" fill="#000000">+sVersion</text>
</g>
</g>
</svg>
