<?xml version="1.0" encoding="UTF-8" standalone="no"?>
<!DOCTYPE svg PUBLIC "-//W3C//DTD SVG 1.1//EN"
 "http://www.w3.org/Graphics/SVG/1.1/DTD/svg11.dtd">
<!-- Generated by graphviz version 2.40.1 (20161225.0304)
 -->
<!-- Title: o2::conf::SimConfigData Pages: 1 -->
<svg width="695pt" height="380pt"
 viewBox="0.00 0.00 695.00 380.00" xmlns="http://www.w3.org/2000/svg" xmlns:xlink="http://www.w3.org/1999/xlink">
<g id="graph0" class="graph" transform="scale(1 1) rotate(0) translate(4 376)">
<title>o2::conf::SimConfigData</title>
<!-- Node1 -->
<g id="node1" class="node">
<title>Node1</title>
<polygon fill="#bfbfbf" stroke="#000000" points="242,-.5 242,-156.5 376,-156.5 376,-.5 242,-.5"/>
<text text-anchor="middle" x="309" y="-144.5" font-family="Helvetica,sans-Serif" font-size="10.00" fill="#000000">o2::conf::SimConfigData</text>
<polyline fill="none" stroke="#000000" points="242,-137.5 376,-137.5 "/>
<text text-anchor="start" x="250" y="-125.5" font-family="Helvetica,sans-Serif" font-size="10.00" fill="#000000">+ mExtKinFileName</text>
<text text-anchor="start" x="250" y="-114.5" font-family="Helvetica,sans-Serif" font-size="10.00" fill="#000000">+ mExtGenFileName</text>
<text text-anchor="start" x="250" y="-103.5" font-family="Helvetica,sans-Serif" font-size="10.00" fill="#000000">+ mExtGenFuncName</text>
<text text-anchor="start" x="250" y="-92.5" font-family="Helvetica,sans-Serif" font-size="10.00" fill="#000000">+ mExtTrgFileName</text>
<text text-anchor="start" x="250" y="-81.5" font-family="Helvetica,sans-Serif" font-size="10.00" fill="#000000">+ mExtTrgFuncName</text>
<text text-anchor="start" x="250" y="-70.5" font-family="Helvetica,sans-Serif" font-size="10.00" fill="#000000">+ mLogVerbosity</text>
<text text-anchor="start" x="250" y="-59.5" font-family="Helvetica,sans-Serif" font-size="10.00" fill="#000000">+ mConfigFile</text>
<text text-anchor="start" x="250" y="-48.5" font-family="Helvetica,sans-Serif" font-size="10.00" fill="#000000">+ mPrimaryChunkSize</text>
<text text-anchor="start" x="250" y="-37.5" font-family="Helvetica,sans-Serif" font-size="10.00" fill="#000000">+ mSimWorkers</text>
<text text-anchor="start" x="250" y="-26.5" font-family="Helvetica,sans-Serif" font-size="10.00" fill="#000000">+ mField</text>
<polyline fill="none" stroke="#000000" points="242,-19.5 376,-19.5 "/>
<text text-anchor="start" x="250" y="-7.5" font-family="Helvetica,sans-Serif" font-size="10.00" fill="#000000">+ ClassDefNV()</text>
</g>
<!-- Node2 -->
<g id="node2" class="node">
<title>Node2</title>
<g id="a_node2"><a xlink:href="../../d4/dc3/classfloat.html" target="_top" xlink:title="{float\n||}">
<polygon fill="none" stroke="#000000" points="0,-314.5 0,-371.5 38,-371.5 38,-314.5 0,-314.5"/>
<text text-anchor="middle" x="19" y="-359.5" font-family="Helvetica,sans-Serif" font-size="10.00" fill="#000000">float</text>
<polyline fill="none" stroke="#000000" points="0,-352.5 38,-352.5 "/>
<text text-anchor="middle" x="19" y="-340.5" font-family="Helvetica,sans-Serif" font-size="10.00" fill="#000000"> </text>
<polyline fill="none" stroke="#000000" points="0,-333.5 38,-333.5 "/>
<text text-anchor="middle" x="19" y="-321.5" font-family="Helvetica,sans-Serif" font-size="10.00" fill="#000000"> </text>
</a>
</g>
</g>
<!-- Node2&#45;&gt;Node1 -->
<g id="edge1" class="edge">
<title>Node2&#45;&gt;Node1</title>
<path fill="none" stroke="#404040" d="M16.699,-314.4791C15.3396,-277.8939 18.5714,-214.4647 52,-175 96.3605,-122.6295 172.1372,-98.6425 229.9479,-87.678"/>
<polygon fill="none" stroke="#404040" points="230.1799,-87.6367 235.3847,-82.6456 241.9936,-85.5304 236.7889,-90.5214 230.1799,-87.6367"/>
<text text-anchor="middle" x="76.5" y="-233" font-family="Helvetica,sans-Serif" font-size="10.00" fill="#000000"> +mBMax</text>
</g>
<!-- Node3 -->
<g id="node3" class="node">
<title>Node3</title>
<polygon fill="none" stroke="#bfbfbf" points="56.5,-314.5 56.5,-371.5 175.5,-371.5 175.5,-314.5 56.5,-314.5"/>
<text text-anchor="middle" x="116" y="-359.5" font-family="Helvetica,sans-Serif" font-size="10.00" fill="#000000">vector&lt; std::string &gt;</text>
<polyline fill="none" stroke="#bfbfbf" points="56.5,-352.5 175.5,-352.5 "/>
<text text-anchor="middle" x="116" y="-340.5" font-family="Helvetica,sans-Serif" font-size="10.00" fill="#000000"> </text>
<polyline fill="none" stroke="#bfbfbf" points="56.5,-333.5 175.5,-333.5 "/>
<text text-anchor="middle" x="116" y="-321.5" font-family="Helvetica,sans-Serif" font-size="10.00" fill="#000000"> </text>
</g>
<!-- Node3&#45;&gt;Node1 -->
<g id="edge2" class="edge">
<title>Node3&#45;&gt;Node1</title>
<path fill="none" stroke="#404040" d="M109.7299,-314.2507C103.6196,-278.5595 98.7752,-217.2424 126,-175 149.6287,-138.3373 192.0192,-114.743 230.0547,-100.0686"/>
<polygon fill="none" stroke="#404040" points="230.4284,-99.9315 234.6825,-94.1089 241.6934,-95.7962 237.4393,-101.6189 230.4284,-99.9315"/>
<text text-anchor="middle" x="176" y="-233" font-family="Helvetica,sans-Serif" font-size="10.00" fill="#000000"> +mActiveDetectors</text>
</g>
<!-- Node4 -->
<g id="node4" class="node">
<title>Node4</title>
<polygon fill="none" stroke="#bfbfbf" points="224.5,-314.5 224.5,-371.5 253.5,-371.5 253.5,-314.5 224.5,-314.5"/>
<text text-anchor="middle" x="239" y="-359.5" font-family="Helvetica,sans-Serif" font-size="10.00" fill="#000000">int</text>
<polyline fill="none" stroke="#bfbfbf" points="224.5,-352.5 253.5,-352.5 "/>
<text text-anchor="middle" x="239" y="-340.5" font-family="Helvetica,sans-Serif" font-size="10.00" fill="#000000"> </text>
<polyline fill="none" stroke="#bfbfbf" points="224.5,-333.5 253.5,-333.5 "/>
<text text-anchor="middle" x="239" y="-321.5" font-family="Helvetica,sans-Serif" font-size="10.00" fill="#000000"> </text>
</g>
<!-- Node4&#45;&gt;Node1 -->
<g id="edge3" class="edge">
<title>Node4&#45;&gt;Node1</title>
<path fill="none" stroke="#404040" d="M234.0035,-314.2264C229.237,-280.0876 224.8059,-221.8924 240,-175 240.7812,-172.5892 241.6466,-170.1872 242.5865,-167.7987"/>
<polygon fill="none" stroke="#404040" points="242.6269,-167.7075 241.4021,-160.6011 247.4907,-156.7373 248.7155,-163.8437 242.6269,-167.7075"/>
<text text-anchor="middle" x="298.5" y="-288" font-family="Helvetica,sans-Serif" font-size="10.00" fill="#000000"> +mOutputPrefix</text>
<text text-anchor="middle" x="298.5" y="-277" font-family="Helvetica,sans-Serif" font-size="10.00" fill="#000000">+mMCEngine</text>
<text text-anchor="middle" x="298.5" y="-266" font-family="Helvetica,sans-Serif" font-size="10.00" fill="#000000">+mStartSeed</text>
<text text-anchor="middle" x="298.5" y="-255" font-family="Helvetica,sans-Serif" font-size="10.00" fill="#000000">+mInternalChunkSize</text>
<text text-anchor="middle" x="298.5" y="-244" font-family="Helvetica,sans-Serif" font-size="10.00" fill="#000000">+mCCDBUrl</text>
<text text-anchor="middle" x="298.5" y="-233" font-family="Helvetica,sans-Serif" font-size="10.00" fill="#000000">+mKeyValueTokens</text>
<text text-anchor="middle" x="298.5" y="-222" font-family="Helvetica,sans-Serif" font-size="10.00" fill="#000000">+mLogSeverity</text>
<text text-anchor="middle" x="298.5" y="-211" font-family="Helvetica,sans-Serif" font-size="10.00" fill="#000000">+mTrigger</text>
<text text-anchor="middle" x="298.5" y="-200" font-family="Helvetica,sans-Serif" font-size="10.00" fill="#000000">+mGenerator</text>
<text text-anchor="middle" x="298.5" y="-189" font-family="Helvetica,sans-Serif" font-size="10.00" fill="#000000">+mEmbedIntoFileName</text>
<text text-anchor="middle" x="298.5" y="-178" font-family="Helvetica,sans-Serif" font-size="10.00" fill="#000000">...</text>
</g>
<!-- Node5 -->
<g id="node5" class="node">
<title>Node5</title>
<polygon fill="none" stroke="#bfbfbf" points="360,-314.5 360,-371.5 398,-371.5 398,-314.5 360,-314.5"/>
<text text-anchor="middle" x="379" y="-359.5" font-family="Helvetica,sans-Serif" font-size="10.00" fill="#000000">bool</text>
<polyline fill="none" stroke="#bfbfbf" points="360,-352.5 398,-352.5 "/>
<text text-anchor="middle" x="379" y="-340.5" font-family="Helvetica,sans-Serif" font-size="10.00" fill="#000000"> </text>
<polyline fill="none" stroke="#bfbfbf" points="360,-333.5 398,-333.5 "/>
<text text-anchor="middle" x="379" y="-321.5" font-family="Helvetica,sans-Serif" font-size="10.00" fill="#000000"> </text>
</g>
<!-- Node5&#45;&gt;Node1 -->
<g id="edge4" class="edge">
<title>Node5&#45;&gt;Node1</title>
<path fill="none" stroke="#404040" d="M378.1269,-314.455C376.4404,-280.536 371.4958,-222.5521 357,-175 356.3043,-172.718 355.5589,-170.4238 354.7704,-168.1245"/>
<polygon fill="none" stroke="#404040" points="354.6748,-167.8668 348.8371,-163.6334 350.4997,-156.6165 356.3373,-160.85 354.6748,-167.8668"/>
<text text-anchor="middle" x="429" y="-238.5" font-family="Helvetica,sans-Serif" font-size="10.00" fill="#000000"> +mFilterNoHitEvents</text>
<text text-anchor="middle" x="429" y="-227.5" font-family="Helvetica,sans-Serif" font-size="10.00" fill="#000000">+mIsMT</text>
</g>
<!-- Node6 -->
<g id="node6" class="node">
<title>Node6</title>
<polygon fill="none" stroke="#bfbfbf" points="489,-314.5 489,-371.5 527,-371.5 527,-314.5 489,-314.5"/>
<text text-anchor="middle" x="508" y="-359.5" font-family="Helvetica,sans-Serif" font-size="10.00" fill="#000000">long</text>
<polyline fill="none" stroke="#bfbfbf" points="489,-352.5 527,-352.5 "/>
<text text-anchor="middle" x="508" y="-340.5" font-family="Helvetica,sans-Serif" font-size="10.00" fill="#000000"> </text>
<polyline fill="none" stroke="#bfbfbf" points="489,-333.5 527,-333.5 "/>
<text text-anchor="middle" x="508" y="-321.5" font-family="Helvetica,sans-Serif" font-size="10.00" fill="#000000"> </text>
</g>
<!-- Node6&#45;&gt;Node1 -->
<g id="edge5" class="edge">
<title>Node6&#45;&gt;Node1</title>
<path fill="none" stroke="#404040" d="M507.3297,-314.1914C505.8434,-272.2619 501.0935,-197.0181 486,-175 462.6973,-141.0064 423.3817,-117.8678 387.7152,-102.7906"/>
<polygon fill="none" stroke="#404040" points="387.4149,-102.6693 380.3535,-104.1311 376.2883,-98.1751 383.3497,-96.7133 387.4149,-102.6693"/>
<text text-anchor="middle" x="544.5" y="-233" font-family="Helvetica,sans-Serif" font-size="10.00" fill="#000000"> +mTimestamp</text>
</g>
<!-- Node7 -->
<g id="node7" class="node">
<title>Node7</title>
<polygon fill="none" stroke="#bfbfbf" points="577.5,-314.5 577.5,-371.5 638.5,-371.5 638.5,-314.5 577.5,-314.5"/>
<text text-anchor="middle" x="608" y="-359.5" font-family="Helvetica,sans-Serif" font-size="10.00" fill="#000000">unsigned</text>
<polyline fill="none" stroke="#bfbfbf" points="577.5,-352.5 638.5,-352.5 "/>
<text text-anchor="middle" x="608" y="-340.5" font-family="Helvetica,sans-Serif" font-size="10.00" fill="#000000"> </text>
<polyline fill="none" stroke="#bfbfbf" points="577.5,-333.5 638.5,-333.5 "/>
<text text-anchor="middle" x="608" y="-321.5" font-family="Helvetica,sans-Serif" font-size="10.00" fill="#000000"> </text>
</g>
<!-- Node7&#45;&gt;Node1 -->
<g id="edge6" class="edge">
<title>Node7&#45;&gt;Node1</title>
<path fill="none" stroke="#404040" d="M612.6524,-314.2379C616.8628,-277.6843 618.2058,-214.5914 586,-175 560.5438,-143.706 460.5053,-114.1864 387.9474,-96.2306"/>
<polygon fill="none" stroke="#404040" points="387.7607,-96.1851 380.9836,-98.649 376.1026,-93.3409 382.8797,-90.877 387.7607,-96.1851"/>
<text text-anchor="middle" x="650.5" y="-238.5" font-family="Helvetica,sans-Serif" font-size="10.00" fill="#000000"> +mStartEvent</text>
<text text-anchor="middle" x="650.5" y="-227.5" font-family="Helvetica,sans-Serif" font-size="10.00" fill="#000000">+mNEvents</text>
</g>
</g>
</svg>
