<?xml version="1.0" encoding="UTF-8" standalone="no"?>
<!DOCTYPE svg PUBLIC "-//W3C//DTD SVG 1.1//EN"
 "http://www.w3.org/Graphics/SVG/1.1/DTD/svg11.dtd">
<!-- Generated by graphviz version 2.40.1 (20161225.0304)
 -->
<!-- Title: /home/travis/build/AliceO2Group/AliceO2/Detectors/ITSMFT/common/reconstruction/include/ITSMFTReconstruction/RUDecodeData.h Pages: 1 -->
<!--zoomable 385 -->
<svg id="main" version="1.1" xmlns="http://www.w3.org/2000/svg" xmlns:xlink="http://www.w3.org/1999/xlink" xml:space="preserve" onload="init(evt)">
<style type="text/css"><![CDATA[
.edge:hover path { stroke: red; }
.edge:hover polygon { stroke: red; fill: red; }
]]></style>
<script type="text/javascript"><![CDATA[
var edges = document.getElementsByTagName('g');
if (edges && edges.length) {
  for (var i=0;i<edges.length;i++) {
    if (edges[i].id.substr(0,4)=='edge') {
      edges[i].setAttribute('class','edge');
    }
  }
}
]]></script>
        <defs>
                <circle id="rim" cx="0" cy="0" r="7"/>
                <circle id="rim2" cx="0" cy="0" r="3.5"/>
                <g id="zoomPlus">
                        <use xlink:href="#rim" fill="#404040">
                                <set attributeName="fill" to="#808080" begin="zoomplus.mouseover" end="zoomplus.mouseout"/>
                        </use>
                        <path d="M-4,0h8M0,-4v8" fill="none" stroke="white" stroke-width="1.5" pointer-events="none"/>
                </g>
                <g id="zoomMin">
                        <use xlink:href="#rim" fill="#404040">
                                <set attributeName="fill" to="#808080" begin="zoomminus.mouseover" end="zoomminus.mouseout"/>
                        </use>
                        <path d="M-4,0h8" fill="none" stroke="white" stroke-width="1.5" pointer-events="none"/>
                </g>
                <g id="dirArrow">
                        <path fill="none" stroke="white" stroke-width="1.5" d="M0,-3.0v7 M-2.5,-0.5L0,-3.0L2.5,-0.5"/>
                </g>
               <g id="resetDef">
                       <use xlink:href="#rim2" fill="#404040">
                               <set attributeName="fill" to="#808080" begin="reset.mouseover" end="reset.mouseout"/>
                       </use>
               </g>
        </defs>

<script type="text/javascript">
var viewWidth = 1096;
var viewHeight = 385;
var sectionId = 'dynsection-0';
</script>
<script xlink:href="../../svgpan.js"/>
<svg id="graph" class="graph">
<g id="viewport">
<title>/home/travis/build/AliceO2Group/AliceO2/Detectors/ITSMFT/common/reconstruction/include/ITSMFTReconstruction/RUDecodeData.h</title>
<!-- Node0 -->
<g id="node1" class="node">
<title>Node0</title>
<polygon fill="#bfbfbf" stroke="#000000" points="318,-313.5 318,-376.5 530,-376.5 530,-313.5 318,-313.5"/>
<text text-anchor="start" x="326" y="-364.5" font-family="Helvetica,sans-Serif" font-size="10.00" fill="#000000">/home/travis/build</text>
<text text-anchor="start" x="326" y="-353.5" font-family="Helvetica,sans-Serif" font-size="10.00" fill="#000000">/AliceO2Group/AliceO2</text>
<text text-anchor="start" x="326" y="-342.5" font-family="Helvetica,sans-Serif" font-size="10.00" fill="#000000">/Detectors/ITSMFT/common</text>
<text text-anchor="start" x="326" y="-331.5" font-family="Helvetica,sans-Serif" font-size="10.00" fill="#000000">/reconstruction/include</text>
<text text-anchor="middle" x="424" y="-320.5" font-family="Helvetica,sans-Serif" font-size="10.00" fill="#000000">/ITSMFTReconstruction/RUDecodeData.h</text>
</g>
<!-- Node1 -->
<g id="node2" class="node">
<title>Node1</title>
<polygon fill="none" stroke="#bfbfbf" points="278,-252 278,-271 320,-271 320,-252 278,-252"/>
<text text-anchor="middle" x="299" y="-259" font-family="Helvetica,sans-Serif" font-size="10.00" fill="#000000">array</text>
</g>
<!-- Node0&#45;&gt;Node1 -->
<g id="edge1" class="edge">
<title>Node0&#45;&gt;Node1</title>
<path fill="none" stroke="#191970" d="M376.7429,-313.4322C357.9021,-300.8466 337.0933,-286.9463 321.7489,-276.6963"/>
<polygon fill="#191970" stroke="#191970" points="323.6616,-273.7649 313.402,-271.1205 319.7732,-279.5856 323.6616,-273.7649"/>
</g>
<!-- Node2 -->
<g id="node3" class="node">
<title>Node2</title>
<polygon fill="none" stroke="#bfbfbf" points="338,-252 338,-271 396,-271 396,-252 338,-252"/>
<text text-anchor="middle" x="367" y="-259" font-family="Helvetica,sans-Serif" font-size="10.00" fill="#000000">memory</text>
</g>
<!-- Node0&#45;&gt;Node2 -->
<g id="edge2" class="edge">
<title>Node0&#45;&gt;Node2</title>
<path fill="none" stroke="#191970" d="M402.4507,-313.4322C394.7101,-302.0928 386.2409,-289.6862 379.522,-279.8437"/>
<polygon fill="#191970" stroke="#191970" points="382.2262,-277.597 373.6975,-271.3112 376.4448,-281.5437 382.2262,-277.597"/>
</g>
<!-- Node3 -->
<g id="node4" class="node">
<title>Node3</title>
<g id="a_node4"><a xlink:href="../../da/d8d/PixelData_8h.html" target="_top" xlink:title="Transient data classes for single pixel and set of pixels from current chip. ">
<polygon fill="none" stroke="#000000" points="259.5,-179.5 259.5,-209.5 382.5,-209.5 382.5,-179.5 259.5,-179.5"/>
<text text-anchor="start" x="267.5" y="-197.5" font-family="Helvetica,sans-Serif" font-size="10.00" fill="#000000">ITSMFTReconstruction</text>
<text text-anchor="middle" x="321" y="-186.5" font-family="Helvetica,sans-Serif" font-size="10.00" fill="#000000">/PixelData.h</text>
</a>
</g>
</g>
<!-- Node0&#45;&gt;Node3 -->
<g id="edge3" class="edge">
<title>Node0&#45;&gt;Node3</title>
<path fill="none" stroke="#191970" d="M424.343,-313.4941C423.1234,-292.6844 418.6411,-265.718 405,-246 395.8989,-232.8445 382.238,-222.4281 368.563,-214.5051"/>
<polygon fill="#191970" stroke="#191970" points="370.0812,-211.3469 359.6224,-209.6549 366.7433,-217.4999 370.0812,-211.3469"/>
</g>
<!-- Node15 -->
<g id="node16" class="node">
<title>Node15</title>
<g id="a_node16"><a xlink:href="../../d0/d35/PayLoadCont_8h.html" target="_top" xlink:title="Declaration of class for continuos buffer of ALPIDE data. ">
<polygon fill="none" stroke="#000000" points="400.5,-179.5 400.5,-209.5 523.5,-209.5 523.5,-179.5 400.5,-179.5"/>
<text text-anchor="start" x="408.5" y="-197.5" font-family="Helvetica,sans-Serif" font-size="10.00" fill="#000000">ITSMFTReconstruction</text>
<text text-anchor="middle" x="462" y="-186.5" font-family="Helvetica,sans-Serif" font-size="10.00" fill="#000000">/PayLoadCont.h</text>
</a>
</g>
</g>
<!-- Node0&#45;&gt;Node15 -->
<g id="edge17" class="edge">
<title>Node0&#45;&gt;Node15</title>
<path fill="none" stroke="#191970" d="M431.966,-313.4503C439.0434,-285.4203 449.2465,-245.0107 455.7496,-219.2549"/>
<polygon fill="#191970" stroke="#191970" points="459.1543,-220.0669 458.209,-209.5143 452.3673,-218.3532 459.1543,-220.0669"/>
</g>
<!-- Node18 -->
<g id="node19" class="node">
<title>Node18</title>
<g id="a_node19"><a xlink:href="../../d8/da2/AlpideCoder_8h.html" target="_top" xlink:title="class for the ALPIDE data decoding/encoding ">
<polygon fill="none" stroke="#000000" points="613.5,-246.5 613.5,-276.5 736.5,-276.5 736.5,-246.5 613.5,-246.5"/>
<text text-anchor="start" x="621.5" y="-264.5" font-family="Helvetica,sans-Serif" font-size="10.00" fill="#000000">ITSMFTReconstruction</text>
<text text-anchor="middle" x="675" y="-253.5" font-family="Helvetica,sans-Serif" font-size="10.00" fill="#000000">/AlpideCoder.h</text>
</a>
</g>
</g>
<!-- Node0&#45;&gt;Node18 -->
<g id="edge22" class="edge">
<title>Node0&#45;&gt;Node18</title>
<path fill="none" stroke="#191970" d="M518.8923,-313.4322C553.0673,-302.0633 590.4672,-289.6215 620.0906,-279.7667"/>
<polygon fill="#191970" stroke="#191970" points="621.4388,-283.0068 629.8227,-276.5291 619.2292,-276.3647 621.4388,-283.0068"/>
</g>
<!-- Node4 -->
<g id="node5" class="node">
<title>Node4</title>
<g id="a_node5"><a xlink:href="../../d3/d1e/DataFormats_2Detectors_2ITSMFT_2common_2include_2DataFormatsITSMFT_2Digit_8h.html" target="_top" xlink:title="DataFormatsITSMFT/Digit.h">
<polygon fill="none" stroke="#000000" points="327.5,-118 327.5,-137 476.5,-137 476.5,-118 327.5,-118"/>
<text text-anchor="middle" x="402" y="-125" font-family="Helvetica,sans-Serif" font-size="10.00" fill="#000000">DataFormatsITSMFT/Digit.h</text>
</a>
</g>
</g>
<!-- Node3&#45;&gt;Node4 -->
<g id="edge4" class="edge">
<title>Node3&#45;&gt;Node4</title>
<path fill="none" stroke="#191970" d="M339.3802,-179.2967C352.2454,-168.6551 369.4063,-154.4602 382.5096,-143.6217"/>
<polygon fill="#191970" stroke="#191970" points="384.9737,-146.1257 390.4485,-137.055 380.5121,-140.7318 384.9737,-146.1257"/>
</g>
<!-- Node7 -->
<g id="node8" class="node">
<title>Node7</title>
<g id="a_node8"><a xlink:href="../../d9/d80/InteractionRecord_8h.html" target="_top" xlink:title="CommonDataFormat/Interaction\lRecord.h">
<polygon fill="none" stroke="#000000" points="72,-112.5 72,-142.5 246,-142.5 246,-112.5 72,-112.5"/>
<text text-anchor="start" x="80" y="-130.5" font-family="Helvetica,sans-Serif" font-size="10.00" fill="#000000">CommonDataFormat/Interaction</text>
<text text-anchor="middle" x="159" y="-119.5" font-family="Helvetica,sans-Serif" font-size="10.00" fill="#000000">Record.h</text>
</a>
</g>
</g>
<!-- Node3&#45;&gt;Node7 -->
<g id="edge7" class="edge">
<title>Node3&#45;&gt;Node7</title>
<path fill="none" stroke="#191970" d="M284.644,-179.4639C261.069,-169.7137 230.1565,-156.9289 204.8932,-146.4805"/>
<polygon fill="#191970" stroke="#191970" points="206.0931,-143.1893 195.5145,-142.6017 203.4177,-149.6579 206.0931,-143.1893"/>
</g>
<!-- Node11 -->
<g id="node12" class="node">
<title>Node11</title>
<polygon fill="none" stroke="#bfbfbf" points="0,-56.5 0,-75.5 50,-75.5 50,-56.5 0,-56.5"/>
<text text-anchor="middle" x="25" y="-63.5" font-family="Helvetica,sans-Serif" font-size="10.00" fill="#000000">cstdint</text>
</g>
<!-- Node3&#45;&gt;Node11 -->
<g id="edge16" class="edge">
<title>Node3&#45;&gt;Node11</title>
<path fill="none" stroke="#191970" d="M259.2073,-188.4734C192.926,-180.9299 93.1173,-166.119 63,-143 44.492,-128.7927 34.4109,-103.1754 29.3707,-85.4107"/>
<polygon fill="#191970" stroke="#191970" points="32.7154,-84.3621 26.8536,-75.5366 25.9323,-86.0913 32.7154,-84.3621"/>
</g>
<!-- Node13 -->
<g id="node14" class="node">
<title>Node13</title>
<polygon fill="none" stroke="#bfbfbf" points="684.5,-118 684.5,-137 731.5,-137 731.5,-118 684.5,-118"/>
<text text-anchor="middle" x="708" y="-125" font-family="Helvetica,sans-Serif" font-size="10.00" fill="#000000">vector</text>
</g>
<!-- Node3&#45;&gt;Node13 -->
<g id="edge14" class="edge">
<title>Node3&#45;&gt;Node13</title>
<path fill="none" stroke="#191970" d="M382.7874,-180.5654C385.5595,-180.0201 388.3068,-179.4954 391,-179 499.2423,-159.0903 527.6997,-162.5919 636,-143 648.5536,-140.729 662.2586,-137.8738 674.3105,-135.2347"/>
<polygon fill="#191970" stroke="#191970" points="675.4031,-138.5774 684.4056,-132.9913 673.8845,-131.7441 675.4031,-138.5774"/>
</g>
<!-- Node14 -->
<g id="node15" class="node">
<title>Node14</title>
<polygon fill="none" stroke="#bfbfbf" points="264.5,-118 264.5,-137 309.5,-137 309.5,-118 264.5,-118"/>
<text text-anchor="middle" x="287" y="-125" font-family="Helvetica,sans-Serif" font-size="10.00" fill="#000000">utility</text>
</g>
<!-- Node3&#45;&gt;Node14 -->
<g id="edge15" class="edge">
<title>Node3&#45;&gt;Node14</title>
<path fill="none" stroke="#191970" d="M313.2849,-179.2967C308.2961,-169.4658 301.7685,-156.6026 296.4664,-146.1545"/>
<polygon fill="#191970" stroke="#191970" points="299.4953,-144.3886 291.8488,-137.055 293.253,-147.5563 299.4953,-144.3886"/>
</g>
<!-- Node5 -->
<g id="node6" class="node">
<title>Node5</title>
<polygon fill="none" stroke="#bfbfbf" points="626.5,-.5 626.5,-19.5 685.5,-19.5 685.5,-.5 626.5,-.5"/>
<text text-anchor="middle" x="656" y="-7.5" font-family="Helvetica,sans-Serif" font-size="10.00" fill="#000000">Rtypes.h</text>
</g>
<!-- Node4&#45;&gt;Node5 -->
<g id="edge5" class="edge">
<title>Node4&#45;&gt;Node5</title>
<path fill="none" stroke="#191970" d="M432.8937,-117.9814C461.8969,-108.6355 506.2071,-93.2948 543,-76 575.3473,-60.7948 610.6133,-39.3521 632.994,-25.0809"/>
<polygon fill="#191970" stroke="#191970" points="634.9551,-27.981 641.4696,-19.6256 631.1665,-22.0949 634.9551,-27.981"/>
</g>
<!-- Node6 -->
<g id="node7" class="node">
<title>Node6</title>
<polygon fill="none" stroke="#bfbfbf" points="741,-56.5 741,-75.5 791,-75.5 791,-56.5 741,-56.5"/>
<text text-anchor="middle" x="766" y="-63.5" font-family="Helvetica,sans-Serif" font-size="10.00" fill="#000000">climits</text>
</g>
<!-- Node4&#45;&gt;Node6 -->
<g id="edge6" class="edge">
<title>Node4&#45;&gt;Node6</title>
<path fill="none" stroke="#191970" d="M452.0024,-117.9751C462.8723,-115.9569 474.3152,-113.872 485,-112 573.3311,-96.5243 677.5774,-79.8829 730.8288,-71.4988"/>
<polygon fill="#191970" stroke="#191970" points="731.444,-74.9452 740.7793,-69.9349 730.3571,-68.0301 731.444,-74.9452"/>
</g>
<!-- Node8 -->
<g id="node9" class="node">
<title>Node8</title>
<g id="a_node9"><a xlink:href="../../d2/d45/GPUCommonRtypes_8h.html" target="_top" xlink:title="GPUCommonRtypes.h">
<polygon fill="none" stroke="#000000" points="68.5,-56.5 68.5,-75.5 193.5,-75.5 193.5,-56.5 68.5,-56.5"/>
<text text-anchor="middle" x="131" y="-63.5" font-family="Helvetica,sans-Serif" font-size="10.00" fill="#000000">GPUCommonRtypes.h</text>
</a>
</g>
</g>
<!-- Node7&#45;&gt;Node8 -->
<g id="edge8" class="edge">
<title>Node7&#45;&gt;Node8</title>
<path fill="none" stroke="#191970" d="M152.0786,-112.2977C148.3539,-104.1166 143.722,-93.943 139.7496,-85.2179"/>
<polygon fill="#191970" stroke="#191970" points="142.8122,-83.4978 135.4832,-75.8469 136.4414,-86.3983 142.8122,-83.4978"/>
</g>
<!-- Node9 -->
<g id="node10" class="node">
<title>Node9</title>
<polygon fill="none" stroke="#bfbfbf" points="211.5,-56.5 211.5,-75.5 260.5,-75.5 260.5,-56.5 211.5,-56.5"/>
<text text-anchor="middle" x="236" y="-63.5" font-family="Helvetica,sans-Serif" font-size="10.00" fill="#000000">iosfwd</text>
</g>
<!-- Node7&#45;&gt;Node9 -->
<g id="edge10" class="edge">
<title>Node7&#45;&gt;Node9</title>
<path fill="none" stroke="#191970" d="M178.0337,-112.2977C189.5015,-103.1384 204.0962,-91.4816 215.7719,-82.1562"/>
<polygon fill="#191970" stroke="#191970" points="218.0419,-84.8225 223.6713,-75.8469 213.6734,-79.3529 218.0419,-84.8225"/>
</g>
<!-- Node10 -->
<g id="node11" class="node">
<title>Node10</title>
<polygon fill="none" stroke="#bfbfbf" points="278.5,-56.5 278.5,-75.5 325.5,-75.5 325.5,-56.5 278.5,-56.5"/>
<text text-anchor="middle" x="302" y="-63.5" font-family="Helvetica,sans-Serif" font-size="10.00" fill="#000000">cmath</text>
</g>
<!-- Node7&#45;&gt;Node10 -->
<g id="edge11" class="edge">
<title>Node7&#45;&gt;Node10</title>
<path fill="none" stroke="#191970" d="M193.9817,-112.4554C217.3184,-102.419 247.7498,-89.3314 270.363,-79.6061"/>
<polygon fill="#191970" stroke="#191970" points="272.0364,-82.6965 279.8401,-75.5303 269.2708,-76.2659 272.0364,-82.6965"/>
</g>
<!-- Node7&#45;&gt;Node11 -->
<g id="edge12" class="edge">
<title>Node7&#45;&gt;Node11</title>
<path fill="none" stroke="#191970" d="M126.2199,-112.4554C104.45,-102.464 76.0914,-89.4487 54.9314,-79.7372"/>
<polygon fill="#191970" stroke="#191970" points="56.3137,-76.5206 45.7652,-75.5303 53.3938,-82.8826 56.3137,-76.5206"/>
</g>
<!-- Node12 -->
<g id="node13" class="node">
<title>Node12</title>
<g id="a_node13"><a xlink:href="../../d4/dc6/LHCConstants_8h.html" target="_top" xlink:title="Header to collect LHC related constants. ">
<polygon fill="none" stroke="#000000" points="344,-56.5 344,-75.5 534,-75.5 534,-56.5 344,-56.5"/>
<text text-anchor="middle" x="439" y="-63.5" font-family="Helvetica,sans-Serif" font-size="10.00" fill="#000000">CommonConstants/LHCConstants.h</text>
</a>
</g>
</g>
<!-- Node7&#45;&gt;Node12 -->
<g id="edge13" class="edge">
<title>Node7&#45;&gt;Node12</title>
<path fill="none" stroke="#191970" d="M227.4957,-112.4554C276.2635,-101.7439 340.8548,-87.5569 385.7717,-77.6912"/>
<polygon fill="#191970" stroke="#191970" points="386.5936,-81.0942 395.6099,-75.5303 385.0919,-74.2572 386.5936,-81.0942"/>
</g>
<!-- Node8&#45;&gt;Node5 -->
<g id="edge9" class="edge">
<title>Node8&#45;&gt;Node5</title>
<path fill="none" stroke="#191970" d="M193.7025,-57.0337C196.5055,-56.6754 199.2813,-56.3291 202,-56 354.9853,-37.4832 537.5983,-20.5479 616.49,-13.4813"/>
<polygon fill="#191970" stroke="#191970" points="616.8277,-16.9652 626.4769,-12.5899 616.2053,-9.9929 616.8277,-16.9652"/>
</g>
<!-- Node15&#45;&gt;Node5 -->
<g id="edge21" class="edge">
<title>Node15&#45;&gt;Node5</title>
<path fill="none" stroke="#191970" d="M523.7444,-179.6695C570.6157,-167.8461 628.2961,-151.8523 636,-143 663.6062,-111.2787 662.269,-58.367 659.0489,-29.7783"/>
<polygon fill="#191970" stroke="#191970" points="662.5085,-29.2418 657.7303,-19.7857 655.5687,-30.1576 662.5085,-29.2418"/>
</g>
<!-- Node15&#45;&gt;Node13 -->
<g id="edge19" class="edge">
<title>Node15&#45;&gt;Node13</title>
<path fill="none" stroke="#191970" d="M523.5313,-180.3034C574.6055,-168.3273 643.0738,-151.774 670,-143 672.1466,-142.3005 674.344,-141.5367 676.5468,-140.7352"/>
<polygon fill="#191970" stroke="#191970" points="678.0197,-143.9188 686.0972,-137.0628 675.5073,-137.3852 678.0197,-143.9188"/>
</g>
<!-- Node16 -->
<g id="node17" class="node">
<title>Node16</title>
<polygon fill="none" stroke="#bfbfbf" points="494,-118 494,-137 544,-137 544,-118 494,-118"/>
<text text-anchor="middle" x="519" y="-125" font-family="Helvetica,sans-Serif" font-size="10.00" fill="#000000">cstring</text>
</g>
<!-- Node15&#45;&gt;Node16 -->
<g id="edge18" class="edge">
<title>Node15&#45;&gt;Node16</title>
<path fill="none" stroke="#191970" d="M474.9342,-179.2967C483.6426,-169.0605 495.148,-155.5366 504.2186,-144.8746"/>
<polygon fill="#191970" stroke="#191970" points="507.0571,-146.9395 510.8711,-137.055 501.7255,-142.4036 507.0571,-146.9395"/>
</g>
<!-- Node17 -->
<g id="node18" class="node">
<title>Node17</title>
<polygon fill="none" stroke="#bfbfbf" points="562.5,-118 562.5,-137 627.5,-137 627.5,-118 562.5,-118"/>
<text text-anchor="middle" x="595" y="-125" font-family="Helvetica,sans-Serif" font-size="10.00" fill="#000000">functional</text>
</g>
<!-- Node15&#45;&gt;Node17 -->
<g id="edge20" class="edge">
<title>Node15&#45;&gt;Node17</title>
<path fill="none" stroke="#191970" d="M491.8478,-179.4639C514.264,-168.1715 544.7606,-152.8086 566.7738,-141.7192"/>
<polygon fill="#191970" stroke="#191970" points="568.5793,-144.7287 575.9355,-137.1039 565.43,-138.4772 568.5793,-144.7287"/>
</g>
<!-- Node18&#45;&gt;Node3 -->
<g id="edge32" class="edge">
<title>Node18&#45;&gt;Node3</title>
<path fill="none" stroke="#191970" d="M613.3759,-251.0304C558.0122,-241.464 474.2454,-226.595 392.736,-210.3139"/>
<polygon fill="#191970" stroke="#191970" points="393.3023,-206.8579 382.8091,-208.3217 391.9249,-213.721 393.3023,-206.8579"/>
</g>
<!-- Node18&#45;&gt;Node5 -->
<g id="edge23" class="edge">
<title>Node18&#45;&gt;Node5</title>
<path fill="none" stroke="#191970" d="M736.6574,-255.1555C819.9436,-245.9552 959.8009,-228.0307 975,-210 984.8368,-198.3306 991.192,-137.4517 973,-112 940.1827,-66.0866 773.0499,-30.8791 695.5557,-16.7519"/>
<polygon fill="#191970" stroke="#191970" points="696.1414,-13.3012 685.6801,-14.9775 694.9035,-20.1909 696.1414,-13.3012"/>
</g>
<!-- Node18&#45;&gt;Node11 -->
<g id="edge25" class="edge">
<title>Node18&#45;&gt;Node11</title>
<path fill="none" stroke="#191970" d="M613.1839,-257.5674C529.9367,-251.4652 377.5191,-237.4468 250,-210 152.5677,-189.029 100.5579,-218.9283 36,-143 22.582,-127.2187 21.2948,-102.7028 22.4184,-85.5864"/>
<polygon fill="#191970" stroke="#191970" points="25.9076,-85.8675 23.4017,-75.5733 18.9411,-85.1833 25.9076,-85.8675"/>
</g>
<!-- Node18&#45;&gt;Node13 -->
<g id="edge26" class="edge">
<title>Node18&#45;&gt;Node13</title>
<path fill="none" stroke="#191970" d="M678.9059,-246.1858C681.5072,-235.9478 684.9879,-222.1741 688,-210 693.2918,-188.6119 699.2237,-164.0689 703.2434,-147.3498"/>
<polygon fill="#191970" stroke="#191970" points="706.7585,-147.7008 705.6894,-137.1601 699.9519,-146.0669 706.7585,-147.7008"/>
</g>
<!-- Node18&#45;&gt;Node15 -->
<g id="edge30" class="edge">
<title>Node18&#45;&gt;Node15</title>
<path fill="none" stroke="#191970" d="M627.1986,-246.4639C595.3825,-236.456 553.4022,-223.2509 519.7231,-212.657"/>
<polygon fill="#191970" stroke="#191970" points="520.5993,-209.2636 510.0098,-209.6017 518.4988,-215.9411 520.5993,-209.2636"/>
</g>
<!-- Node19 -->
<g id="node20" class="node">
<title>Node19</title>
<polygon fill="none" stroke="#bfbfbf" points="1042,-185 1042,-204 1088,-204 1088,-185 1042,-185"/>
<text text-anchor="middle" x="1065" y="-192" font-family="Helvetica,sans-Serif" font-size="10.00" fill="#000000">cstdio</text>
</g>
<!-- Node18&#45;&gt;Node19 -->
<g id="edge24" class="edge">
<title>Node18&#45;&gt;Node19</title>
<path fill="none" stroke="#191970" d="M736.555,-257.2401C807.7673,-251.2334 928.0416,-237.7493 1028,-210 1030.3215,-209.3555 1032.6912,-208.6022 1035.0537,-207.7812"/>
<polygon fill="#191970" stroke="#191970" points="1036.4969,-210.9764 1044.5831,-204.1307 1033.9928,-204.4397 1036.4969,-210.9764"/>
</g>
<!-- Node20 -->
<g id="node21" class="node">
<title>Node20</title>
<polygon fill="none" stroke="#bfbfbf" points="542,-185 542,-204 586,-204 586,-185 542,-185"/>
<text text-anchor="middle" x="564" y="-192" font-family="Helvetica,sans-Serif" font-size="10.00" fill="#000000">string</text>
</g>
<!-- Node18&#45;&gt;Node20 -->
<g id="edge27" class="edge">
<title>Node18&#45;&gt;Node20</title>
<path fill="none" stroke="#191970" d="M650.0894,-246.4639C631.7167,-235.3741 606.84,-220.3584 588.5526,-209.32"/>
<polygon fill="#191970" stroke="#191970" points="590.281,-206.2751 579.911,-204.1039 586.6636,-212.268 590.281,-206.2751"/>
</g>
<!-- Node21 -->
<g id="node22" class="node">
<title>Node21</title>
<polygon fill="none" stroke="#bfbfbf" points="604.5,-185 604.5,-204 679.5,-204 679.5,-185 604.5,-185"/>
<text text-anchor="middle" x="642" y="-192" font-family="Helvetica,sans-Serif" font-size="10.00" fill="#000000">FairLogger.h</text>
</g>
<!-- Node18&#45;&gt;Node21 -->
<g id="edge28" class="edge">
<title>Node18&#45;&gt;Node21</title>
<path fill="none" stroke="#191970" d="M667.5118,-246.2967C662.6697,-236.4658 656.3341,-223.6026 651.188,-213.1545"/>
<polygon fill="#191970" stroke="#191970" points="654.2645,-211.4794 646.7062,-204.055 647.9849,-214.5724 654.2645,-211.4794"/>
</g>
<!-- Node22 -->
<g id="node23" class="node">
<title>Node22</title>
<polygon fill="none" stroke="#bfbfbf" points="750,-118 750,-137 810,-137 810,-118 750,-118"/>
<text text-anchor="middle" x="780" y="-125" font-family="Helvetica,sans-Serif" font-size="10.00" fill="#000000">iostream</text>
</g>
<!-- Node18&#45;&gt;Node22 -->
<g id="edge29" class="edge">
<title>Node18&#45;&gt;Node22</title>
<path fill="none" stroke="#191970" d="M686.8407,-246.389C706.4043,-221.4222 745.3764,-171.6864 766.1727,-145.1462"/>
<polygon fill="#191970" stroke="#191970" points="769.0615,-147.1343 772.4743,-137.1042 763.5515,-142.8168 769.0615,-147.1343"/>
</g>
<!-- Node23 -->
<g id="node24" class="node">
<title>Node23</title>
<polygon fill="none" stroke="#bfbfbf" points="926,-118 926,-137 964,-137 964,-118 926,-118"/>
<text text-anchor="middle" x="945" y="-125" font-family="Helvetica,sans-Serif" font-size="10.00" fill="#000000">map</text>
</g>
<!-- Node18&#45;&gt;Node23 -->
<g id="edge31" class="edge">
<title>Node18&#45;&gt;Node23</title>
<path fill="none" stroke="#191970" d="M736.6589,-259.1589C811.0258,-254.8887 929.5088,-242.9664 957,-210 971.7821,-192.2738 963.4915,-164.6189 955.1374,-146.2833"/>
<polygon fill="#191970" stroke="#191970" points="958.2052,-144.591 950.6357,-137.1779 951.9301,-147.6934 958.2052,-144.591"/>
</g>
<!-- Node24 -->
<g id="node25" class="node">
<title>Node24</title>
<g id="a_node25"><a xlink:href="../../d0/d7b/NoiseMap_8h.html" target="_top" xlink:title="Definition of the ITSMFT NoiseMap. ">
<polygon fill="none" stroke="#000000" points="774,-185 774,-204 948,-204 948,-185 774,-185"/>
<text text-anchor="middle" x="861" y="-192" font-family="Helvetica,sans-Serif" font-size="10.00" fill="#000000">DataFormatsITSMFT/NoiseMap.h</text>
</a>
</g>
</g>
<!-- Node18&#45;&gt;Node24 -->
<g id="edge33" class="edge">
<title>Node18&#45;&gt;Node24</title>
<path fill="none" stroke="#191970" d="M716.742,-246.4639C749.3123,-234.7316 794.0806,-218.6054 825.0684,-207.4431"/>
<polygon fill="#191970" stroke="#191970" points="826.3901,-210.6872 834.6122,-204.0053 824.0178,-204.1015 826.3901,-210.6872"/>
</g>
<!-- Node24&#45;&gt;Node5 -->
<g id="edge34" class="edge">
<title>Node24&#45;&gt;Node5</title>
<path fill="none" stroke="#191970" d="M860.0988,-184.9294C858.3293,-169.1098 853.5187,-136.7928 842,-112 828.8915,-83.7853 825.3523,-74.0322 800,-56 768.7764,-33.7917 726.3319,-21.9531 695.6201,-15.8795"/>
<polygon fill="#191970" stroke="#191970" points="696.1588,-12.4198 685.6877,-14.0342 694.8801,-19.302 696.1588,-12.4198"/>
</g>
<!-- Node24&#45;&gt;Node6 -->
<g id="edge36" class="edge">
<title>Node24&#45;&gt;Node6</title>
<path fill="none" stroke="#191970" d="M857.5251,-184.9114C851.3879,-168.7855 837.5088,-135.6796 819,-112 810.2073,-100.7508 798.3585,-90.1614 788.0941,-81.9849"/>
<polygon fill="#191970" stroke="#191970" points="790.0081,-79.0416 779.9465,-75.7227 785.7423,-84.5917 790.0081,-79.0416"/>
</g>
<!-- Node24&#45;&gt;Node13 -->
<g id="edge37" class="edge">
<title>Node24&#45;&gt;Node13</title>
<path fill="none" stroke="#191970" d="M837.8945,-184.8564C813.6565,-174.6765 774.501,-158.0513 741,-143 739.8308,-142.4747 738.6401,-141.9355 737.4386,-141.388"/>
<polygon fill="#191970" stroke="#191970" points="738.7405,-138.134 728.1946,-137.1169 735.8045,-144.4885 738.7405,-138.134"/>
</g>
<!-- Node24&#45;&gt;Node22 -->
<g id="edge35" class="edge">
<title>Node24&#45;&gt;Node22</title>
<path fill="none" stroke="#191970" d="M849.3947,-184.9005C836.4025,-174.1539 815.1327,-156.5603 799.5602,-143.6794"/>
<polygon fill="#191970" stroke="#191970" points="801.5202,-140.7585 791.5838,-137.0817 797.0586,-146.1524 801.5202,-140.7585"/>
</g>
<!-- Node24&#45;&gt;Node23 -->
<g id="edge38" class="edge">
<title>Node24&#45;&gt;Node23</title>
<path fill="none" stroke="#191970" d="M873.0352,-184.9005C886.6332,-174.0544 908.9754,-156.2339 925.1624,-143.3229"/>
<polygon fill="#191970" stroke="#191970" points="927.3519,-146.0535 932.9872,-137.0817 922.9869,-140.5811 927.3519,-146.0535"/>
</g>
</g>
</svg>
        <g id="navigator" transform="translate(0 0)" fill="#404254">
                <rect fill="#f2f5e9" fill-opacity="0.5" stroke="#606060" stroke-width=".5" x="0" y="0" width="60" height="60"/>
                <use id="zoomplus" xlink:href="#zoomPlus" x="17" y="9" onmousedown="handleZoom(evt,'in')"/>
                <use id="zoomminus" xlink:href="#zoomMin" x="42" y="9" onmousedown="handleZoom(evt,'out')"/>
                <use id="reset" xlink:href="#resetDef" x="30" y="36" onmousedown="handleReset()"/>
                <g id="arrowUp" xlink:href="#dirArrow" transform="translate(30 24)" onmousedown="handlePan(0,-1)">
                  <use xlink:href="#rim" fill="#404040">
                        <set attributeName="fill" to="#808080" begin="arrowUp.mouseover" end="arrowUp.mouseout"/>
                  </use>
                  <path fill="none" stroke="white" stroke-width="1.5" d="M0,-3.0v7 M-2.5,-0.5L0,-3.0L2.5,-0.5"/>
                </g>
                <g id="arrowRight" xlink:href="#dirArrow" transform="rotate(90) translate(36 -43)" onmousedown="handlePan(1,0)">
                  <use xlink:href="#rim" fill="#404040">
                        <set attributeName="fill" to="#808080" begin="arrowRight.mouseover" end="arrowRight.mouseout"/>
                  </use>
                  <path fill="none" stroke="white" stroke-width="1.5" d="M0,-3.0v7 M-2.5,-0.5L0,-3.0L2.5,-0.5"/>
                </g>
                <g id="arrowDown" xlink:href="#dirArrow" transform="rotate(180) translate(-30 -48)" onmousedown="handlePan(0,1)">
                  <use xlink:href="#rim" fill="#404040">
                        <set attributeName="fill" to="#808080" begin="arrowDown.mouseover" end="arrowDown.mouseout"/>
                  </use>
                  <path fill="none" stroke="white" stroke-width="1.5" d="M0,-3.0v7 M-2.5,-0.5L0,-3.0L2.5,-0.5"/>
                </g>
                <g id="arrowLeft" xlink:href="#dirArrow" transform="rotate(270) translate(-36 17)" onmousedown="handlePan(-1,0)">
                  <use xlink:href="#rim" fill="#404040">
                        <set attributeName="fill" to="#808080" begin="arrowLeft.mouseover" end="arrowLeft.mouseout"/>
                  </use>
                  <path fill="none" stroke="white" stroke-width="1.5" d="M0,-3.0v7 M-2.5,-0.5L0,-3.0L2.5,-0.5"/>
                </g>
        </g>
        <svg viewBox="0 0 15 15" width="100%" height="30px" preserveAspectRatio="xMaxYMin meet">
         <g id="arrow_out" transform="scale(0.3 0.3)">
          <a xlink:href="RUDecodeData_8h__incl_org.svg" target="_base">
           <rect id="button" ry="5" rx="5" y="6" x="6" height="38" width="38"
                fill="#f2f5e9" fill-opacity="0.5" stroke="#606060" stroke-width="1.0"/>
           <path id="arrow"
             d="M 11.500037,31.436501 C 11.940474,20.09759 22.043105,11.32322 32.158766,21.979434 L 37.068811,17.246167 C 37.068811,17.246167 37.088388,32 37.088388,32 L 22.160133,31.978069 C 22.160133,31.978069 26.997745,27.140456 26.997745,27.140456 C 18.528582,18.264221 13.291696,25.230495 11.500037,31.436501 z"
             style="fill:#404040;"/>
          </a>
         </g>
        </svg>
</svg>
