<?xml version="1.0" encoding="UTF-8" standalone="no"?>
<!DOCTYPE svg PUBLIC "-//W3C//DTD SVG 1.1//EN"
 "http://www.w3.org/Graphics/SVG/1.1/DTD/svg11.dtd">
<!-- Generated by graphviz version 2.40.1 (20161225.0304)
 -->
<!-- Title: /home/travis/build/AliceO2Group/AliceO2/Detectors/ITSMFT/ITS/tracking/include/ITStracking/Tracker.h Pages: 1 -->
<svg width="4639pt" height="642pt"
 viewBox="0.00 0.00 4638.52 642.00" xmlns="http://www.w3.org/2000/svg" xmlns:xlink="http://www.w3.org/1999/xlink">
<g id="graph0" class="graph" transform="scale(1 1) rotate(0) translate(4 638)">
<title>/home/travis/build/AliceO2Group/AliceO2/Detectors/ITSMFT/ITS/tracking/include/ITStracking/Tracker.h</title>
<!-- Node0 -->
<g id="node1" class="node">
<title>Node0</title>
<polygon fill="#bfbfbf" stroke="#000000" points="1184.5,-570.5 1184.5,-633.5 1339.5,-633.5 1339.5,-570.5 1184.5,-570.5"/>
<text text-anchor="start" x="1192.5" y="-621.5" font-family="Helvetica,sans-Serif" font-size="10.00" fill="#000000">/home/travis/build</text>
<text text-anchor="start" x="1192.5" y="-610.5" font-family="Helvetica,sans-Serif" font-size="10.00" fill="#000000">/AliceO2Group/AliceO2</text>
<text text-anchor="start" x="1192.5" y="-599.5" font-family="Helvetica,sans-Serif" font-size="10.00" fill="#000000">/Detectors/ITSMFT/ITS</text>
<text text-anchor="start" x="1192.5" y="-588.5" font-family="Helvetica,sans-Serif" font-size="10.00" fill="#000000">/tracking/include/ITStracking</text>
<text text-anchor="middle" x="1262" y="-577.5" font-family="Helvetica,sans-Serif" font-size="10.00" fill="#000000">/Tracker.h</text>
</g>
<!-- Node1 -->
<g id="node2" class="node">
<title>Node1</title>
<polygon fill="none" stroke="#bfbfbf" points="1533,-56.5 1533,-75.5 1575,-75.5 1575,-56.5 1533,-56.5"/>
<text text-anchor="middle" x="1554" y="-63.5" font-family="Helvetica,sans-Serif" font-size="10.00" fill="#000000">array</text>
</g>
<!-- Node0&#45;&gt;Node1 -->
<g id="edge1" class="edge">
<title>Node0&#45;&gt;Node1</title>
<path fill="none" stroke="#191970" d="M1339.7392,-597.7569C1554.1292,-585.0251 2138,-542.9648 2138,-462.5 2138,-462.5 2138,-462.5 2138,-328.5 2138,-217.3275 1903.5528,-121.6835 1878,-112 1824.6876,-91.7968 1655.831,-74.9989 1585.3641,-68.6841"/>
<polygon fill="#191970" stroke="#191970" points="1585.5882,-65.1904 1575.3187,-67.7955 1584.9713,-72.1631 1585.5882,-65.1904"/>
</g>
<!-- Node2 -->
<g id="node3" class="node">
<title>Node2</title>
<polygon fill="none" stroke="#bfbfbf" points="74,-514.5 74,-533.5 124,-533.5 124,-514.5 74,-514.5"/>
<text text-anchor="middle" x="99" y="-521.5" font-family="Helvetica,sans-Serif" font-size="10.00" fill="#000000">chrono</text>
</g>
<!-- Node0&#45;&gt;Node2 -->
<g id="edge2" class="edge">
<title>Node0&#45;&gt;Node2</title>
<path fill="none" stroke="#191970" d="M1184.2427,-599.2279C964.2496,-591.0777 340.3041,-565.7586 138,-534 136.7182,-533.7988 135.4172,-533.5742 134.1066,-533.3306"/>
<polygon fill="#191970" stroke="#191970" points="134.5405,-529.8441 124.0286,-531.1664 133.0708,-536.688 134.5405,-529.8441"/>
</g>
<!-- Node3 -->
<g id="node4" class="node">
<title>Node3</title>
<polygon fill="none" stroke="#bfbfbf" points="666.5,-56.5 666.5,-75.5 713.5,-75.5 713.5,-56.5 666.5,-56.5"/>
<text text-anchor="middle" x="690" y="-63.5" font-family="Helvetica,sans-Serif" font-size="10.00" fill="#000000">cmath</text>
</g>
<!-- Node0&#45;&gt;Node3 -->
<g id="edge3" class="edge">
<title>Node0&#45;&gt;Node3</title>
<path fill="none" stroke="#191970" d="M1184.2506,-599.6038C941.4768,-591.8017 211.294,-565.7869 172,-534 146.3456,-513.2468 152,-495.4976 152,-462.5 152,-462.5 152,-462.5 152,-261.5 152,-153.6982 538.3939,-88.2049 656.2677,-70.7335"/>
<polygon fill="#191970" stroke="#191970" points="656.8002,-74.193 666.1886,-69.283 655.7874,-67.2666 656.8002,-74.193"/>
</g>
<!-- Node4 -->
<g id="node5" class="node">
<title>Node4</title>
<polygon fill="none" stroke="#bfbfbf" points="181.5,-514.5 181.5,-533.5 236.5,-533.5 236.5,-514.5 181.5,-514.5"/>
<text text-anchor="middle" x="209" y="-521.5" font-family="Helvetica,sans-Serif" font-size="10.00" fill="#000000">fstream</text>
</g>
<!-- Node0&#45;&gt;Node4 -->
<g id="edge4" class="edge">
<title>Node0&#45;&gt;Node4</title>
<path fill="none" stroke="#191970" d="M1184.4736,-601.176C1014.4636,-598.4105 596.4688,-586.3719 251,-534 249.7077,-533.8041 248.3967,-533.5885 247.0753,-533.3568"/>
<polygon fill="#191970" stroke="#191970" points="247.3783,-529.8483 236.8868,-531.3244 246.0089,-536.7131 247.3783,-529.8483"/>
</g>
<!-- Node5 -->
<g id="node6" class="node">
<title>Node5</title>
<polygon fill="none" stroke="#bfbfbf" points="1632,-252 1632,-271 1688,-271 1688,-252 1632,-252"/>
<text text-anchor="middle" x="1660" y="-259" font-family="Helvetica,sans-Serif" font-size="10.00" fill="#000000">iomanip</text>
</g>
<!-- Node0&#45;&gt;Node5 -->
<g id="edge5" class="edge">
<title>Node0&#45;&gt;Node5</title>
<path fill="none" stroke="#191970" d="M1339.785,-590.2954C1453.3051,-570.9888 1651,-527.9682 1651,-462.5 1651,-462.5 1651,-462.5 1651,-395.5 1651,-354.8786 1655.1682,-307.4859 1657.8314,-281.3515"/>
<polygon fill="#191970" stroke="#191970" points="1661.3299,-281.5483 1658.8964,-271.2367 1654.3684,-280.8152 1661.3299,-281.5483"/>
</g>
<!-- Node6 -->
<g id="node7" class="node">
<title>Node6</title>
<polygon fill="none" stroke="#bfbfbf" points="2165.5,-185 2165.5,-204 2214.5,-204 2214.5,-185 2165.5,-185"/>
<text text-anchor="middle" x="2190" y="-192" font-family="Helvetica,sans-Serif" font-size="10.00" fill="#000000">iosfwd</text>
</g>
<!-- Node0&#45;&gt;Node6 -->
<g id="edge6" class="edge">
<title>Node0&#45;&gt;Node6</title>
<path fill="none" stroke="#191970" d="M1339.8076,-600.6301C1544.5098,-596.3901 2086.8308,-580.8169 2152,-534 2252.7646,-461.6117 2236.2823,-398.5838 2261,-277 2263.7448,-263.4984 2267.2598,-258.2737 2261,-246 2252.6924,-229.7111 2236.5573,-217.3724 2221.7656,-208.8618"/>
<polygon fill="#191970" stroke="#191970" points="2223.2777,-205.7012 2212.8113,-204.0564 2219.9676,-211.8691 2223.2777,-205.7012"/>
</g>
<!-- Node7 -->
<g id="node8" class="node">
<title>Node7</title>
<polygon fill="none" stroke="#bfbfbf" points="2352,-118 2352,-137 2410,-137 2410,-118 2352,-118"/>
<text text-anchor="middle" x="2381" y="-125" font-family="Helvetica,sans-Serif" font-size="10.00" fill="#000000">memory</text>
</g>
<!-- Node0&#45;&gt;Node7 -->
<g id="edge7" class="edge">
<title>Node0&#45;&gt;Node7</title>
<path fill="none" stroke="#191970" d="M1331.7718,-570.3735C1371.7301,-547.0035 1414,-510.8542 1414,-462.5 1414,-462.5 1414,-462.5 1414,-395.5 1414,-290.8201 1504.2242,-296.3495 1596,-246 1680.0378,-199.8957 1706.8912,-197.2068 1801,-179 2038.0246,-133.144 2107.7633,-197.2878 2343,-143 2345.7987,-142.3541 2348.6582,-141.5273 2351.4901,-140.5925"/>
<polygon fill="#191970" stroke="#191970" points="2352.7265,-143.867 2360.8827,-137.1047 2350.2897,-137.3048 2352.7265,-143.867"/>
</g>
<!-- Node8 -->
<g id="node9" class="node">
<title>Node8</title>
<polygon fill="none" stroke="#bfbfbf" points="566.5,-185 566.5,-204 611.5,-204 611.5,-185 566.5,-185"/>
<text text-anchor="middle" x="589" y="-192" font-family="Helvetica,sans-Serif" font-size="10.00" fill="#000000">utility</text>
</g>
<!-- Node0&#45;&gt;Node8 -->
<g id="edge8" class="edge">
<title>Node0&#45;&gt;Node8</title>
<path fill="none" stroke="#191970" d="M1184.3137,-595.5751C1053.2349,-581.4589 784.4258,-538.1092 600,-411 524.248,-358.7905 425.1024,-323.2944 475,-246 492.7812,-218.4558 529.2335,-205.4884 556.1533,-199.4842"/>
<polygon fill="#191970" stroke="#191970" points="557.1898,-202.8459 566.3037,-197.4435 555.81,-195.9833 557.1898,-202.8459"/>
</g>
<!-- Node9 -->
<g id="node10" class="node">
<title>Node9</title>
<g id="a_node10"><a xlink:href="../../d3/d59/Configuration_8h.html" target="_top" xlink:title="ITStracking/Configuration.h">
<polygon fill="none" stroke="#000000" points="1123.5,-252 1123.5,-271 1272.5,-271 1272.5,-252 1123.5,-252"/>
<text text-anchor="middle" x="1198" y="-259" font-family="Helvetica,sans-Serif" font-size="10.00" fill="#000000">ITStracking/Configuration.h</text>
</a>
</g>
</g>
<!-- Node0&#45;&gt;Node9 -->
<g id="edge9" class="edge">
<title>Node0&#45;&gt;Node9</title>
<path fill="none" stroke="#191970" d="M1262,-570.42C1262,-542.1459 1262,-499.5547 1262,-462.5 1262,-462.5 1262,-462.5 1262,-395.5 1262,-350.0366 1231.6317,-303.6239 1212.7331,-279.1423"/>
<polygon fill="#191970" stroke="#191970" points="1215.3376,-276.7946 1206.3669,-271.1574 1209.8642,-281.1584 1215.3376,-276.7946"/>
</g>
<!-- Node13 -->
<g id="node14" class="node">
<title>Node13</title>
<g id="a_node14"><a xlink:href="../../df/d3d/Definitions_8h.html" target="_top" xlink:title="ITStracking/Definitions.h">
<polygon fill="none" stroke="#000000" points="64,-118 64,-137 200,-137 200,-118 64,-118"/>
<text text-anchor="middle" x="132" y="-125" font-family="Helvetica,sans-Serif" font-size="10.00" fill="#000000">ITStracking/Definitions.h</text>
</a>
</g>
</g>
<!-- Node0&#45;&gt;Node13 -->
<g id="edge23" class="edge">
<title>Node0&#45;&gt;Node13</title>
<path fill="none" stroke="#191970" d="M1184.4685,-600.9858C935.3351,-597.26 165.579,-581.9497 65,-534 26.2336,-515.5186 0,-505.4464 0,-462.5 0,-462.5 0,-462.5 0,-261.5 0,-204.1513 62.1195,-162.4248 101.13,-141.8752"/>
<polygon fill="#191970" stroke="#191970" points="103.1716,-144.7636 110.4981,-137.1103 99.9981,-138.5242 103.1716,-144.7636"/>
</g>
<!-- Node18 -->
<g id="node19" class="node">
<title>Node18</title>
<g id="a_node19"><a xlink:href="../../dc/d8d/ITS_2tracking_2include_2ITStracking_2ROframe_8h.html" target="_top" xlink:title="ITStracking/ROframe.h">
<polygon fill="none" stroke="#000000" points="1480.5,-386 1480.5,-405 1607.5,-405 1607.5,-386 1480.5,-386"/>
<text text-anchor="middle" x="1544" y="-393" font-family="Helvetica,sans-Serif" font-size="10.00" fill="#000000">ITStracking/ROframe.h</text>
</a>
</g>
</g>
<!-- Node0&#45;&gt;Node18 -->
<g id="edge24" class="edge">
<title>Node0&#45;&gt;Node18</title>
<path fill="none" stroke="#191970" d="M1339.575,-579.0755C1368.9299,-568.2037 1401.5996,-553.2968 1428,-534 1474.6374,-499.9115 1514.2109,-443.1839 1532.7448,-414.0373"/>
<polygon fill="#191970" stroke="#191970" points="1535.8824,-415.6202 1538.2034,-405.2827 1529.9425,-411.9165 1535.8824,-415.6202"/>
</g>
<!-- Node22 -->
<g id="node23" class="node">
<title>Node22</title>
<g id="a_node23"><a xlink:href="../../dc/d3e/MathUtils_8h.html" target="_top" xlink:title="ITStracking/MathUtils.h">
<polygon fill="none" stroke="#000000" points="698,-252 698,-271 828,-271 828,-252 698,-252"/>
<text text-anchor="middle" x="763" y="-259" font-family="Helvetica,sans-Serif" font-size="10.00" fill="#000000">ITStracking/MathUtils.h</text>
</a>
</g>
</g>
<!-- Node0&#45;&gt;Node22 -->
<g id="edge92" class="edge">
<title>Node0&#45;&gt;Node22</title>
<path fill="none" stroke="#191970" d="M1184.4884,-591.5582C1066.4011,-573.4487 855,-531.4061 855,-462.5 855,-462.5 855,-462.5 855,-395.5 855,-356.7791 849.1883,-344.7331 827,-313 816.8406,-298.4704 801.4566,-285.9079 788.3176,-276.8283"/>
<polygon fill="#191970" stroke="#191970" points="789.9449,-273.7086 779.6718,-271.1174 786.0868,-279.5494 789.9449,-273.7086"/>
</g>
<!-- Node44 -->
<g id="node45" class="node">
<title>Node44</title>
<g id="a_node45"><a xlink:href="../../d7/dcd/MCCompLabel_8h.html" target="_top" xlink:title="SimulationDataFormat\l/MCCompLabel.h">
<polygon fill="none" stroke="#000000" points="3089.5,-313.5 3089.5,-343.5 3216.5,-343.5 3216.5,-313.5 3089.5,-313.5"/>
<text text-anchor="start" x="3097.5" y="-331.5" font-family="Helvetica,sans-Serif" font-size="10.00" fill="#000000">SimulationDataFormat</text>
<text text-anchor="middle" x="3153" y="-320.5" font-family="Helvetica,sans-Serif" font-size="10.00" fill="#000000">/MCCompLabel.h</text>
</a>
</g>
</g>
<!-- Node0&#45;&gt;Node44 -->
<g id="edge169" class="edge">
<title>Node0&#45;&gt;Node44</title>
<path fill="none" stroke="#191970" d="M1339.6131,-600.8192C1690.9275,-594.6561 3120.4776,-560.4783 3244,-411 3263.7816,-387.0617 3231.6113,-363.6619 3200.1934,-347.9341"/>
<polygon fill="#191970" stroke="#191970" points="3201.4924,-344.6754 3190.9621,-343.5076 3198.4658,-350.9873 3201.4924,-344.6754"/>
</g>
<!-- Node50 -->
<g id="node51" class="node">
<title>Node50</title>
<g id="a_node51"><a xlink:href="../../d3/da9/PrimaryVertexContext_8h.html" target="_top" xlink:title="ITStracking/PrimaryVertex\lContext.h">
<polygon fill="none" stroke="#000000" points="1024,-447.5 1024,-477.5 1168,-477.5 1168,-447.5 1024,-447.5"/>
<text text-anchor="start" x="1032" y="-465.5" font-family="Helvetica,sans-Serif" font-size="10.00" fill="#000000">ITStracking/PrimaryVertex</text>
<text text-anchor="middle" x="1096" y="-454.5" font-family="Helvetica,sans-Serif" font-size="10.00" fill="#000000">Context.h</text>
</a>
</g>
</g>
<!-- Node0&#45;&gt;Node50 -->
<g id="edge93" class="edge">
<title>Node0&#45;&gt;Node50</title>
<path fill="none" stroke="#191970" d="M1224.332,-570.3453C1193.1236,-544.1189 1149.5806,-507.5271 1122.094,-484.4284"/>
<polygon fill="#191970" stroke="#191970" points="1124.0181,-481.4736 1114.1107,-477.7195 1119.5146,-486.8326 1124.0181,-481.4736"/>
</g>
<!-- Node52 -->
<g id="node53" class="node">
<title>Node52</title>
<g id="a_node53"><a xlink:href="../../d4/d5a/ITS_2tracking_2include_2ITStracking_2Road_8h.html" target="_top" xlink:title="ITStracking/Road.h">
<polygon fill="none" stroke="#000000" points="846.5,-252 846.5,-271 953.5,-271 953.5,-252 846.5,-252"/>
<text text-anchor="middle" x="900" y="-259" font-family="Helvetica,sans-Serif" font-size="10.00" fill="#000000">ITStracking/Road.h</text>
</a>
</g>
</g>
<!-- Node0&#45;&gt;Node52 -->
<g id="edge115" class="edge">
<title>Node0&#45;&gt;Node52</title>
<path fill="none" stroke="#191970" d="M1184.4233,-586.3818C1084.0757,-563.9095 922,-518.8859 922,-462.5 922,-462.5 922,-462.5 922,-395.5 922,-354.2432 911.7194,-306.7739 905.2137,-280.8651"/>
<polygon fill="#191970" stroke="#191970" points="908.5958,-279.9636 902.6976,-271.1623 901.8199,-281.7207 908.5958,-279.9636"/>
</g>
<!-- Node54 -->
<g id="node55" class="node">
<title>Node54</title>
<g id="a_node55"><a xlink:href="../../d1/d71/TrackITS_8h.html" target="_top" xlink:title="Definition of the ITS track. ">
<polygon fill="none" stroke="#000000" points="2447.5,-514.5 2447.5,-533.5 2594.5,-533.5 2594.5,-514.5 2447.5,-514.5"/>
<text text-anchor="middle" x="2521" y="-521.5" font-family="Helvetica,sans-Serif" font-size="10.00" fill="#000000">DataFormatsITS/TrackITS.h</text>
</a>
</g>
</g>
<!-- Node0&#45;&gt;Node54 -->
<g id="edge116" class="edge">
<title>Node0&#45;&gt;Node54</title>
<path fill="none" stroke="#191970" d="M1339.806,-597.1796C1563.3923,-583.3276 2206.4479,-543.4877 2437.2666,-529.1876"/>
<polygon fill="#191970" stroke="#191970" points="2437.5204,-532.6787 2447.2848,-528.5669 2437.0874,-525.6921 2437.5204,-532.6787"/>
</g>
<!-- Node71 -->
<g id="node72" class="node">
<title>Node71</title>
<g id="a_node72"><a xlink:href="../../dd/da4/Logger_8h.html" target="_top" xlink:title="Framework/Logger.h">
<polygon fill="none" stroke="#000000" points="3396.5,-514.5 3396.5,-533.5 3511.5,-533.5 3511.5,-514.5 3396.5,-514.5"/>
<text text-anchor="middle" x="3454" y="-521.5" font-family="Helvetica,sans-Serif" font-size="10.00" fill="#000000">Framework/Logger.h</text>
</a>
</g>
</g>
<!-- Node0&#45;&gt;Node71 -->
<g id="edge170" class="edge">
<title>Node0&#45;&gt;Node71</title>
<path fill="none" stroke="#191970" d="M1339.5495,-599.9446C1607.3688,-592.7244 2518.1712,-567.1568 3270,-534 3308.543,-532.3002 3351.6047,-529.9827 3386.3745,-528.0067"/>
<polygon fill="#191970" stroke="#191970" points="3386.6326,-531.4978 3396.4164,-527.4325 3386.2329,-524.5092 3386.6326,-531.4978"/>
</g>
<!-- Node9&#45;&gt;Node1 -->
<g id="edge10" class="edge">
<title>Node9&#45;&gt;Node1</title>
<path fill="none" stroke="#191970" d="M1251.9769,-251.9456C1263.2192,-249.9688 1274.9948,-247.908 1286,-246 1379.7346,-229.7488 1423.1133,-269.9252 1497,-210 1507.1684,-201.753 1534.8593,-122.6982 1547.5232,-85.3555"/>
<polygon fill="#191970" stroke="#191970" points="1550.9257,-86.2186 1550.8028,-75.6244 1544.2923,-83.9829 1550.9257,-86.2186"/>
</g>
<!-- Node9&#45;&gt;Node3 -->
<g id="edge13" class="edge">
<title>Node9&#45;&gt;Node3</title>
<path fill="none" stroke="#191970" d="M1186.7293,-251.9907C1166.1748,-235.0824 1120.6807,-199.631 1077,-179 952.9909,-120.4287 792.0973,-85.3189 723.4301,-72.0689"/>
<polygon fill="#191970" stroke="#191970" points="724.0793,-68.6297 713.6016,-70.2009 722.7723,-75.5066 724.0793,-68.6297"/>
</g>
<!-- Node10 -->
<g id="node11" class="node">
<title>Node10</title>
<polygon fill="none" stroke="#bfbfbf" points="1246,-118 1246,-137 1296,-137 1296,-118 1246,-118"/>
<text text-anchor="middle" x="1271" y="-125" font-family="Helvetica,sans-Serif" font-size="10.00" fill="#000000">climits</text>
</g>
<!-- Node9&#45;&gt;Node10 -->
<g id="edge11" class="edge">
<title>Node9&#45;&gt;Node10</title>
<path fill="none" stroke="#191970" d="M1203.25,-251.8631C1215.2985,-229.7466 1245.1054,-175.0326 1260.8623,-146.109"/>
<polygon fill="#191970" stroke="#191970" points="1264.0871,-147.5055 1265.7976,-137.0496 1257.9401,-144.1567 1264.0871,-147.5055"/>
</g>
<!-- Node11 -->
<g id="node12" class="node">
<title>Node11</title>
<polygon fill="none" stroke="#bfbfbf" points="1162.5,-118 1162.5,-137 1209.5,-137 1209.5,-118 1162.5,-118"/>
<text text-anchor="middle" x="1186" y="-125" font-family="Helvetica,sans-Serif" font-size="10.00" fill="#000000">vector</text>
</g>
<!-- Node9&#45;&gt;Node11 -->
<g id="edge12" class="edge">
<title>Node9&#45;&gt;Node11</title>
<path fill="none" stroke="#191970" d="M1197.137,-251.8631C1195.1824,-230.0364 1190.3845,-176.4605 1187.7695,-147.2589"/>
<polygon fill="#191970" stroke="#191970" points="1191.2333,-146.6976 1186.8552,-137.0496 1184.2612,-147.322 1191.2333,-146.6976"/>
</g>
<!-- Node12 -->
<g id="node13" class="node">
<title>Node12</title>
<g id="a_node13"><a xlink:href="../../d0/d86/Detectors_2ITSMFT_2ITS_2tracking_2include_2ITStracking_2Constants_8h.html" target="_top" xlink:title="ITStracking/Constants.h">
<polygon fill="none" stroke="#000000" points="936,-185 936,-204 1068,-204 1068,-185 936,-185"/>
<text text-anchor="middle" x="1002" y="-192" font-family="Helvetica,sans-Serif" font-size="10.00" fill="#000000">ITStracking/Constants.h</text>
</a>
</g>
</g>
<!-- Node9&#45;&gt;Node12 -->
<g id="edge14" class="edge">
<title>Node9&#45;&gt;Node12</title>
<path fill="none" stroke="#191970" d="M1169.918,-251.9005C1135.7149,-240.2086 1077.8028,-220.4122 1039.7303,-207.3976"/>
<polygon fill="#191970" stroke="#191970" points="1040.6245,-204.0045 1030.0299,-204.0817 1038.3602,-210.6282 1040.6245,-204.0045"/>
</g>
<!-- Node12&#45;&gt;Node10 -->
<g id="edge15" class="edge">
<title>Node12&#45;&gt;Node10</title>
<path fill="none" stroke="#191970" d="M1044.7825,-184.9695C1088.4757,-175.0792 1158.1937,-158.8641 1218,-143 1223.8769,-141.4411 1230.0948,-139.7033 1236.1241,-137.9709"/>
<polygon fill="#191970" stroke="#191970" points="1237.3779,-141.2512 1245.9993,-135.093 1235.4194,-134.5307 1237.3779,-141.2512"/>
</g>
<!-- Node12&#45;&gt;Node11 -->
<g id="edge16" class="edge">
<title>Node12&#45;&gt;Node11</title>
<path fill="none" stroke="#191970" d="M1028.3627,-184.9005C1061.1526,-172.9607 1117.1538,-152.569 1152.8278,-139.579"/>
<polygon fill="#191970" stroke="#191970" points="1154.1157,-142.8349 1162.3146,-136.1246 1151.7206,-136.2574 1154.1157,-142.8349"/>
</g>
<!-- Node12&#45;&gt;Node13 -->
<g id="edge17" class="edge">
<title>Node12&#45;&gt;Node13</title>
<path fill="none" stroke="#191970" d="M935.8896,-187.2687C909.5005,-184.4985 878.8288,-181.4244 851,-179 618.1595,-158.7156 342.3857,-140.6183 210.2416,-132.3127"/>
<polygon fill="#191970" stroke="#191970" points="210.409,-128.8164 200.2095,-131.6836 209.9708,-135.8027 210.409,-128.8164"/>
</g>
<!-- Node13&#45;&gt;Node1 -->
<g id="edge18" class="edge">
<title>Node13&#45;&gt;Node1</title>
<path fill="none" stroke="#191970" d="M200.1069,-124.5544C454.712,-113.543 1345.0513,-75.0368 1522.9348,-67.3435"/>
<polygon fill="#191970" stroke="#191970" points="1523.0936,-70.84 1532.933,-66.9111 1522.791,-63.8466 1523.0936,-70.84"/>
</g>
<!-- Node14 -->
<g id="node15" class="node">
<title>Node14</title>
<g id="a_node15"><a xlink:href="../../df/d21/GPUCommonDef_8h.html" target="_top" xlink:title="GPUCommonDef.h">
<polygon fill="none" stroke="#000000" points="250.5,-56.5 250.5,-75.5 357.5,-75.5 357.5,-56.5 250.5,-56.5"/>
<text text-anchor="middle" x="304" y="-63.5" font-family="Helvetica,sans-Serif" font-size="10.00" fill="#000000">GPUCommonDef.h</text>
</a>
</g>
</g>
<!-- Node13&#45;&gt;Node14 -->
<g id="edge19" class="edge">
<title>Node13&#45;&gt;Node14</title>
<path fill="none" stroke="#191970" d="M158.875,-117.8906C188.1586,-107.42 235.169,-90.6111 267.7137,-78.9745"/>
<polygon fill="#191970" stroke="#191970" points="269.0759,-82.2045 277.3137,-75.5419 266.7191,-75.6131 269.0759,-82.2045"/>
</g>
<!-- Node17 -->
<g id="node18" class="node">
<title>Node17</title>
<polygon fill="none" stroke="#bfbfbf" points="105.5,-56.5 105.5,-75.5 158.5,-75.5 158.5,-56.5 105.5,-56.5"/>
<text text-anchor="middle" x="132" y="-63.5" font-family="Helvetica,sans-Serif" font-size="10.00" fill="#000000">cstddef</text>
</g>
<!-- Node13&#45;&gt;Node17 -->
<g id="edge22" class="edge">
<title>Node13&#45;&gt;Node17</title>
<path fill="none" stroke="#191970" d="M132,-117.8906C132,-109.3657 132,-96.6392 132,-85.9235"/>
<polygon fill="#191970" stroke="#191970" points="135.5001,-85.7448 132,-75.7449 128.5001,-85.7449 135.5001,-85.7448"/>
</g>
<!-- Node15 -->
<g id="node16" class="node">
<title>Node15</title>
<g id="a_node16"><a xlink:href="../../d5/d93/GPUCommonDefSettings_8h.html" target="_top" xlink:title="GPUCommonDefSettings.h">
<polygon fill="none" stroke="#000000" points="153,-.5 153,-19.5 301,-19.5 301,-.5 153,-.5"/>
<text text-anchor="middle" x="227" y="-7.5" font-family="Helvetica,sans-Serif" font-size="10.00" fill="#000000">GPUCommonDefSettings.h</text>
</a>
</g>
</g>
<!-- Node14&#45;&gt;Node15 -->
<g id="edge20" class="edge">
<title>Node14&#45;&gt;Node15</title>
<path fill="none" stroke="#191970" d="M290.5876,-56.2455C278.9943,-47.814 262.0252,-35.4729 248.5322,-25.6598"/>
<polygon fill="#191970" stroke="#191970" points="250.4047,-22.6938 240.2587,-19.6427 246.2874,-28.355 250.4047,-22.6938"/>
</g>
<!-- Node16 -->
<g id="node17" class="node">
<title>Node16</title>
<g id="a_node17"><a xlink:href="../../da/d5a/GPUCommonDefAPI_8h.html" target="_top" xlink:title="GPUCommonDefAPI.h">
<polygon fill="none" stroke="#000000" points="319,-.5 319,-19.5 443,-19.5 443,-.5 319,-.5"/>
<text text-anchor="middle" x="381" y="-7.5" font-family="Helvetica,sans-Serif" font-size="10.00" fill="#000000">GPUCommonDefAPI.h</text>
</a>
</g>
</g>
<!-- Node14&#45;&gt;Node16 -->
<g id="edge21" class="edge">
<title>Node14&#45;&gt;Node16</title>
<path fill="none" stroke="#191970" d="M317.4124,-56.2455C329.0057,-47.814 345.9748,-35.4729 359.4678,-25.6598"/>
<polygon fill="#191970" stroke="#191970" points="361.7126,-28.355 367.7413,-19.6427 357.5953,-22.6938 361.7126,-28.355"/>
</g>
<!-- Node18&#45;&gt;Node1 -->
<g id="edge25" class="edge">
<title>Node18&#45;&gt;Node1</title>
<path fill="none" stroke="#191970" d="M1543.4364,-385.7462C1542.7432,-370.2046 1542.1876,-338.9288 1547,-313 1552.7453,-282.0452 1553.3288,-272.7073 1570,-246 1581.9817,-226.8053 1597.3409,-230.905 1606,-210 1622.668,-169.7599 1623.8903,-151.7118 1606,-112 1600.4303,-99.6369 1589.7137,-89.2563 1579.4494,-81.5033"/>
<polygon fill="#191970" stroke="#191970" points="1581.2549,-78.4948 1571.0567,-75.623 1577.2382,-84.2277 1581.2549,-78.4948"/>
</g>
<!-- Node18&#45;&gt;Node8 -->
<g id="edge27" class="edge">
<title>Node18&#45;&gt;Node8</title>
<path fill="none" stroke="#191970" d="M1480.3981,-390.6834C1410.433,-384.3104 1295.1535,-370.6254 1199,-344 1089.1503,-313.5821 1072.015,-275.8145 962,-246 839.1766,-212.7144 687.4705,-200.2718 621.8247,-196.2202"/>
<polygon fill="#191970" stroke="#191970" points="621.8706,-192.7169 611.6811,-195.6194 621.4567,-199.7046 621.8706,-192.7169"/>
</g>
<!-- Node18&#45;&gt;Node11 -->
<g id="edge26" class="edge">
<title>Node18&#45;&gt;Node11</title>
<path fill="none" stroke="#191970" d="M1532.0042,-385.8782C1501.9885,-361.8646 1421.087,-297.5215 1352,-246 1301.1463,-208.076 1240.1701,-165.196 1208.1456,-142.8704"/>
<polygon fill="#191970" stroke="#191970" points="1210.1202,-139.9804 1199.9133,-137.1396 1206.1209,-145.7255 1210.1202,-139.9804"/>
</g>
<!-- Node18&#45;&gt;Node12 -->
<g id="edge58" class="edge">
<title>Node18&#45;&gt;Node12</title>
<path fill="none" stroke="#191970" d="M1483.1035,-385.9636C1397.4501,-370.9671 1238,-337.1882 1114,-277 1077.5579,-259.3114 1040.7885,-229.3849 1019.7653,-210.8511"/>
<polygon fill="#191970" stroke="#191970" points="1022.0463,-208.1953 1012.2633,-204.1279 1017.3745,-213.4083 1022.0463,-208.1953"/>
</g>
<!-- Node19 -->
<g id="node20" class="node">
<title>Node19</title>
<polygon fill="none" stroke="#bfbfbf" points="2282,-118 2282,-137 2334,-137 2334,-118 2282,-118"/>
<text text-anchor="middle" x="2308" y="-125" font-family="Helvetica,sans-Serif" font-size="10.00" fill="#000000">cassert</text>
</g>
<!-- Node18&#45;&gt;Node19 -->
<g id="edge28" class="edge">
<title>Node18&#45;&gt;Node19</title>
<path fill="none" stroke="#191970" d="M1544.4961,-385.9258C1546.3732,-359.7063 1555.2036,-286.0345 1596,-246 1613.1037,-229.2157 1777.5558,-183.9616 1801,-179 1974.8984,-142.1969 2188.11,-131.4406 2271.825,-128.5154"/>
<polygon fill="#191970" stroke="#191970" points="2271.9648,-132.0128 2281.8426,-128.1816 2271.7316,-125.0167 2271.9648,-132.0128"/>
</g>
<!-- Node20 -->
<g id="node21" class="node">
<title>Node20</title>
<polygon fill="none" stroke="#bfbfbf" points="2099,-185 2099,-204 2147,-204 2147,-185 2099,-185"/>
<text text-anchor="middle" x="2123" y="-192" font-family="Helvetica,sans-Serif" font-size="10.00" fill="#000000">gsl/gsl</text>
</g>
<!-- Node18&#45;&gt;Node20 -->
<g id="edge29" class="edge">
<title>Node18&#45;&gt;Node20</title>
<path fill="none" stroke="#191970" d="M1551.7845,-385.6251C1559.5266,-375.5306 1571.4522,-359.2179 1580,-344 1603.2933,-302.5302 1584.5664,-274.0211 1623,-246 1641.8729,-232.2401 1978.9623,-205.4698 2088.749,-197.0792"/>
<polygon fill="#191970" stroke="#191970" points="2089.2349,-200.5524 2098.9403,-196.3032 2088.7034,-193.5726 2089.2349,-200.5524"/>
</g>
<!-- Node21 -->
<g id="node22" class="node">
<title>Node21</title>
<g id="a_node22"><a xlink:href="../../da/d7f/Detectors_2ITSMFT_2ITS_2tracking_2include_2ITStracking_2Cluster_8h.html" target="_top" xlink:title="ITStracking/Cluster.h">
<polygon fill="none" stroke="#000000" points="701.5,-319 701.5,-338 818.5,-338 818.5,-319 701.5,-319"/>
<text text-anchor="middle" x="760" y="-326" font-family="Helvetica,sans-Serif" font-size="10.00" fill="#000000">ITStracking/Cluster.h</text>
</a>
</g>
</g>
<!-- Node18&#45;&gt;Node21 -->
<g id="edge30" class="edge">
<title>Node18&#45;&gt;Node21</title>
<path fill="none" stroke="#191970" d="M1480.1744,-390.0455C1334.55,-377.6006 978.7966,-347.1982 828.6508,-334.3668"/>
<polygon fill="#191970" stroke="#191970" points="828.8936,-330.8749 818.6318,-333.5106 828.2974,-337.8495 828.8936,-330.8749"/>
</g>
<!-- Node29 -->
<g id="node30" class="node">
<title>Node29</title>
<g id="a_node30"><a xlink:href="../../d3/d6f/DataFormats_2Reconstruction_2include_2ReconstructionDataFormats_2Vertex_8h.html" target="_top" xlink:title="ReconstructionDataFormats\l/Vertex.h">
<polygon fill="none" stroke="#000000" points="1903,-313.5 1903,-343.5 2055,-343.5 2055,-313.5 1903,-313.5"/>
<text text-anchor="start" x="1911" y="-331.5" font-family="Helvetica,sans-Serif" font-size="10.00" fill="#000000">ReconstructionDataFormats</text>
<text text-anchor="middle" x="1979" y="-320.5" font-family="Helvetica,sans-Serif" font-size="10.00" fill="#000000">/Vertex.h</text>
</a>
</g>
</g>
<!-- Node18&#45;&gt;Node29 -->
<g id="edge59" class="edge">
<title>Node18&#45;&gt;Node29</title>
<path fill="none" stroke="#191970" d="M1605.8629,-385.9717C1680.921,-374.411 1807.9083,-354.8521 1892.5968,-341.8081"/>
<polygon fill="#191970" stroke="#191970" points="1893.358,-345.2322 1902.7086,-340.2506 1892.2923,-338.3138 1893.358,-345.2322"/>
</g>
<!-- Node18&#45;&gt;Node44 -->
<g id="edge80" class="edge">
<title>Node18&#45;&gt;Node44</title>
<path fill="none" stroke="#191970" d="M1607.7632,-394.807C1811.4643,-392.26 2464.7547,-381.5145 3004,-344 3028.518,-342.2943 3055.2382,-339.7358 3079.1939,-337.1865"/>
<polygon fill="#191970" stroke="#191970" points="3079.7108,-340.6511 3089.2769,-336.097 3078.9588,-333.6916 3079.7108,-340.6511"/>
</g>
<!-- Node45 -->
<g id="node46" class="node">
<title>Node45</title>
<g id="a_node46"><a xlink:href="../../db/d14/MCTruthContainer_8h.html" target="_top" xlink:title="Definition of a container to keep Monte Carlo truth external to simulation objects. ">
<polygon fill="none" stroke="#000000" points="2482.5,-246.5 2482.5,-276.5 2609.5,-276.5 2609.5,-246.5 2482.5,-246.5"/>
<text text-anchor="start" x="2490.5" y="-264.5" font-family="Helvetica,sans-Serif" font-size="10.00" fill="#000000">SimulationDataFormat</text>
<text text-anchor="middle" x="2546" y="-253.5" font-family="Helvetica,sans-Serif" font-size="10.00" fill="#000000">/MCTruthContainer.h</text>
</a>
</g>
</g>
<!-- Node18&#45;&gt;Node45 -->
<g id="edge82" class="edge">
<title>Node18&#45;&gt;Node45</title>
<path fill="none" stroke="#191970" d="M1607.8084,-390.6446C1706.0462,-382.8394 1900.1486,-366.1081 2064,-344 2209.3072,-324.394 2377.9302,-293.6932 2472.2753,-275.791"/>
<polygon fill="#191970" stroke="#191970" points="2473.1181,-279.1935 2482.2877,-273.8862 2471.8098,-272.3168 2473.1181,-279.1935"/>
</g>
<!-- Node21&#45;&gt;Node1 -->
<g id="edge31" class="edge">
<title>Node21&#45;&gt;Node1</title>
<path fill="none" stroke="#191970" d="M818.6048,-324.6842C935.6259,-316.7402 1194.4231,-297.4563 1281,-277 1318.5135,-268.1364 1325.1161,-257.1985 1362,-246 1430.9155,-225.0761 1467.4187,-259.2175 1520,-210 1554.5742,-177.6376 1556.984,-117.2055 1555.6252,-85.9166"/>
<polygon fill="#191970" stroke="#191970" points="1559.1113,-85.581 1555.0066,-75.8136 1552.1244,-86.0088 1559.1113,-85.581"/>
</g>
<!-- Node21&#45;&gt;Node13 -->
<g id="edge32" class="edge">
<title>Node21&#45;&gt;Node13</title>
<path fill="none" stroke="#191970" d="M701.3289,-323.5574C568.8641,-311.3399 251.7958,-275.8342 170,-210 150.386,-194.2135 140.4565,-166.0273 135.7609,-147.0492"/>
<polygon fill="#191970" stroke="#191970" points="139.1389,-146.1142 133.5674,-137.1026 132.3032,-147.6218 139.1389,-146.1142"/>
</g>
<!-- Node21&#45;&gt;Node22 -->
<g id="edge33" class="edge">
<title>Node21&#45;&gt;Node22</title>
<path fill="none" stroke="#191970" d="M760.4298,-318.9005C760.8665,-309.149 761.5555,-293.7597 762.1103,-281.3695"/>
<polygon fill="#191970" stroke="#191970" points="765.6201,-281.2282 762.571,-271.0817 758.6271,-280.9151 765.6201,-281.2282"/>
</g>
<!-- Node28 -->
<g id="node29" class="node">
<title>Node28</title>
<g id="a_node29"><a xlink:href="../../dc/ddf/ITS_2tracking_2include_2ITStracking_2IndexTableUtils_8h.html" target="_top" xlink:title="ITStracking/IndexTableUtils.h">
<polygon fill="none" stroke="#000000" points="484,-252 484,-271 642,-271 642,-252 484,-252"/>
<text text-anchor="middle" x="563" y="-259" font-family="Helvetica,sans-Serif" font-size="10.00" fill="#000000">ITStracking/IndexTableUtils.h</text>
</a>
</g>
</g>
<!-- Node21&#45;&gt;Node28 -->
<g id="edge50" class="edge">
<title>Node21&#45;&gt;Node28</title>
<path fill="none" stroke="#191970" d="M731.7747,-318.9005C697.3971,-307.2086 639.1896,-287.4122 600.9228,-274.3976"/>
<polygon fill="#191970" stroke="#191970" points="601.7674,-270.988 591.1729,-271.0817 599.5134,-277.6152 601.7674,-270.988"/>
</g>
<!-- Node22&#45;&gt;Node1 -->
<g id="edge34" class="edge">
<title>Node22&#45;&gt;Node1</title>
<path fill="none" stroke="#191970" d="M780.4601,-251.8589C798.4064,-241.8157 827.0336,-225.4224 851,-210 914.5646,-169.0962 918.9361,-137.7584 990,-112 1089.2402,-76.0286 1419.2913,-68.0345 1522.7228,-66.3948"/>
<polygon fill="#191970" stroke="#191970" points="1522.8857,-69.8929 1532.8322,-66.2436 1522.781,-62.8936 1522.8857,-69.8929"/>
</g>
<!-- Node22&#45;&gt;Node3 -->
<g id="edge35" class="edge">
<title>Node22&#45;&gt;Node3</title>
<path fill="none" stroke="#191970" d="M759.3799,-251.8051C747.9468,-221.1863 712.4634,-126.1587 697.1525,-85.1551"/>
<polygon fill="#191970" stroke="#191970" points="700.419,-83.8972 693.6419,-75.7534 693.8612,-86.346 700.419,-83.8972"/>
</g>
<!-- Node22&#45;&gt;Node12 -->
<g id="edge47" class="edge">
<title>Node22&#45;&gt;Node12</title>
<path fill="none" stroke="#191970" d="M796.9891,-251.9717C839.2518,-240.124 911.4802,-219.8758 957.9501,-206.8487"/>
<polygon fill="#191970" stroke="#191970" points="959.0572,-210.1734 967.7412,-204.1039 957.1677,-203.4332 959.0572,-210.1734"/>
</g>
<!-- Node22&#45;&gt;Node14 -->
<g id="edge49" class="edge">
<title>Node22&#45;&gt;Node14</title>
<path fill="none" stroke="#191970" d="M697.9079,-252.0644C682.5404,-249.9552 666.2039,-247.8095 651,-246 610.9724,-241.2362 317.0524,-239.8843 290,-210 258.6503,-175.3686 280.2386,-115.0571 294.3941,-84.6544"/>
<polygon fill="#191970" stroke="#191970" points="297.5864,-86.0932 298.8225,-75.5707 291.2943,-83.0257 297.5864,-86.0932"/>
</g>
<!-- Node22&#45;&gt;Node19 -->
<g id="edge36" class="edge">
<title>Node22&#45;&gt;Node19</title>
<path fill="none" stroke="#191970" d="M803.1358,-251.9348C814.0634,-249.6482 825.9377,-247.4517 837,-246 1128.2721,-207.7768 1204.8818,-241.1027 1497,-210 1584.2618,-200.709 1604.8817,-189.5517 1692,-179 1911.2762,-152.4414 2176.1353,-135.2993 2271.547,-129.5993"/>
<polygon fill="#191970" stroke="#191970" points="2272.0355,-133.0766 2281.811,-128.9914 2271.6215,-126.0889 2272.0355,-133.0766"/>
</g>
<!-- Node23 -->
<g id="node24" class="node">
<title>Node23</title>
<polygon fill="none" stroke="#bfbfbf" points="782,-185 782,-204 842,-204 842,-185 782,-185"/>
<text text-anchor="middle" x="812" y="-192" font-family="Helvetica,sans-Serif" font-size="10.00" fill="#000000">iostream</text>
</g>
<!-- Node22&#45;&gt;Node23 -->
<g id="edge37" class="edge">
<title>Node22&#45;&gt;Node23</title>
<path fill="none" stroke="#191970" d="M770.0205,-251.9005C777.5161,-241.6515 789.5663,-225.1747 798.8376,-212.4976"/>
<polygon fill="#191970" stroke="#191970" points="801.9144,-214.2195 804.9925,-204.0817 796.2642,-210.0873 801.9144,-214.2195"/>
</g>
<!-- Node24 -->
<g id="node25" class="node">
<title>Node24</title>
<g id="a_node25"><a xlink:href="../../d9/d52/Common_2MathUtils_2include_2MathUtils_2Utils_8h.html" target="_top" xlink:title="MathUtils/Utils.h">
<polygon fill="none" stroke="#000000" points="1390,-185 1390,-204 1488,-204 1488,-185 1390,-185"/>
<text text-anchor="middle" x="1439" y="-192" font-family="Helvetica,sans-Serif" font-size="10.00" fill="#000000">MathUtils/Utils.h</text>
</a>
</g>
</g>
<!-- Node22&#45;&gt;Node24 -->
<g id="edge38" class="edge">
<title>Node22&#45;&gt;Node24</title>
<path fill="none" stroke="#191970" d="M804.328,-251.9209C814.9316,-249.7176 826.351,-247.5649 837,-246 1034.8083,-216.9317 1271.7755,-202.6 1379.9388,-197.1746"/>
<polygon fill="#191970" stroke="#191970" points="1380.1836,-200.6668 1389.9985,-196.6771 1379.8378,-193.6754 1380.1836,-200.6668"/>
</g>
<!-- Node25 -->
<g id="node26" class="node">
<title>Node25</title>
<g id="a_node26"><a xlink:href="../../d6/da2/GPUCommonMath_8h.html" target="_top" xlink:title="GPUCommonMath.h">
<polygon fill="none" stroke="#000000" points="582.5,-118 582.5,-137 697.5,-137 697.5,-118 582.5,-118"/>
<text text-anchor="middle" x="640" y="-125" font-family="Helvetica,sans-Serif" font-size="10.00" fill="#000000">GPUCommonMath.h</text>
</a>
</g>
</g>
<!-- Node22&#45;&gt;Node25 -->
<g id="edge48" class="edge">
<title>Node22&#45;&gt;Node25</title>
<path fill="none" stroke="#191970" d="M754.1541,-251.8631C733.4987,-229.3603 681.867,-173.1112 655.7121,-144.6173"/>
<polygon fill="#191970" stroke="#191970" points="658.1064,-142.0498 648.7657,-137.0496 652.9495,-146.7834 658.1064,-142.0498"/>
</g>
<!-- Node24&#45;&gt;Node1 -->
<g id="edge39" class="edge">
<title>Node24&#45;&gt;Node1</title>
<path fill="none" stroke="#191970" d="M1445.4337,-184.8728C1456.256,-168.972 1479.1672,-136.5409 1502,-112 1511.878,-101.3831 1523.9566,-90.5853 1533.9856,-82.1217"/>
<polygon fill="#191970" stroke="#191970" points="1536.3687,-84.6925 1541.8346,-75.6164 1531.9018,-79.3029 1536.3687,-84.6925"/>
</g>
<!-- Node24&#45;&gt;Node3 -->
<g id="edge40" class="edge">
<title>Node24&#45;&gt;Node3</title>
<path fill="none" stroke="#191970" d="M1435.9976,-184.7228C1429.8894,-166.7087 1414.1538,-128.6049 1386,-112 1328.6149,-78.1546 855.5786,-68.506 723.9025,-66.4641"/>
<polygon fill="#191970" stroke="#191970" points="723.675,-62.9603 713.6234,-66.3095 723.5697,-69.9595 723.675,-62.9603"/>
</g>
<!-- Node24&#45;&gt;Node14 -->
<g id="edge41" class="edge">
<title>Node24&#45;&gt;Node14</title>
<path fill="none" stroke="#191970" d="M1429.0207,-184.9456C1407.9074,-164.9744 1358.9404,-119.9943 1338,-112 1292.6076,-94.6707 585.6498,-73.7834 367.5637,-67.7241"/>
<polygon fill="#191970" stroke="#191970" points="367.6459,-64.2252 357.5528,-67.4469 367.452,-71.2225 367.6459,-64.2252"/>
</g>
<!-- Node24&#45;&gt;Node25 -->
<g id="edge42" class="edge">
<title>Node24&#45;&gt;Node25</title>
<path fill="none" stroke="#191970" d="M1389.9222,-190.3846C1252.7101,-178.8787 864.8941,-146.3585 707.5674,-133.1659"/>
<polygon fill="#191970" stroke="#191970" points="707.8005,-129.6732 697.543,-132.3253 707.2155,-136.6487 707.8005,-129.6732"/>
</g>
<!-- Node27 -->
<g id="node28" class="node">
<title>Node27</title>
<g id="a_node28"><a xlink:href="../../d6/d84/MathConstants_8h.html" target="_top" xlink:title="useful math constants ">
<polygon fill="none" stroke="#000000" points="1658,-118 1658,-137 1852,-137 1852,-118 1658,-118"/>
<text text-anchor="middle" x="1755" y="-125" font-family="Helvetica,sans-Serif" font-size="10.00" fill="#000000">CommonConstants/MathConstants.h</text>
</a>
</g>
</g>
<!-- Node24&#45;&gt;Node27 -->
<g id="edge46" class="edge">
<title>Node24&#45;&gt;Node27</title>
<path fill="none" stroke="#191970" d="M1483.9395,-184.9717C1540.8361,-172.9082 1638.8092,-152.1354 1700.0815,-139.1441"/>
<polygon fill="#191970" stroke="#191970" points="1700.9034,-142.5477 1709.96,-137.0496 1699.4515,-135.7 1700.9034,-142.5477"/>
</g>
<!-- Node25&#45;&gt;Node3 -->
<g id="edge44" class="edge">
<title>Node25&#45;&gt;Node3</title>
<path fill="none" stroke="#191970" d="M647.8125,-117.8906C655.254,-108.7376 666.6334,-94.7409 675.6992,-83.59"/>
<polygon fill="#191970" stroke="#191970" points="678.4847,-85.712 682.0774,-75.7449 673.0533,-81.2962 678.4847,-85.712"/>
</g>
<!-- Node25&#45;&gt;Node14 -->
<g id="edge43" class="edge">
<title>Node25&#45;&gt;Node14</title>
<path fill="none" stroke="#191970" d="M587.8687,-117.9581C527.9421,-106.9894 429.6653,-89.0012 365.9031,-77.3305"/>
<polygon fill="#191970" stroke="#191970" points="366.4439,-73.8714 355.9772,-75.5137 365.1836,-80.757 366.4439,-73.8714"/>
</g>
<!-- Node26 -->
<g id="node27" class="node">
<title>Node26</title>
<polygon fill="none" stroke="#bfbfbf" points="3076,-56.5 3076,-75.5 3140,-75.5 3140,-56.5 3076,-56.5"/>
<text text-anchor="middle" x="3108" y="-63.5" font-family="Helvetica,sans-Serif" font-size="10.00" fill="#000000">algorithm</text>
</g>
<!-- Node25&#45;&gt;Node26 -->
<g id="edge45" class="edge">
<title>Node25&#45;&gt;Node26</title>
<path fill="none" stroke="#191970" d="M697.6967,-125.6311C792.6411,-122.5838 987.7733,-116.4399 1153,-112 1920.2367,-91.3831 2856.9853,-71.3066 3065.5405,-66.8939"/>
<polygon fill="#191970" stroke="#191970" points="3065.8301,-70.3886 3075.7538,-66.678 3065.6821,-63.3902 3065.8301,-70.3886"/>
</g>
<!-- Node28&#45;&gt;Node1 -->
<g id="edge51" class="edge">
<title>Node28&#45;&gt;Node1</title>
<path fill="none" stroke="#191970" d="M575.1123,-251.9993C597.1787,-235.1046 645.9149,-199.6742 692,-179 792.2625,-134.0213 821.77,-131.0242 930,-112 1045.964,-91.6164 1412.9846,-72.7692 1522.7168,-67.4728"/>
<polygon fill="#191970" stroke="#191970" points="1522.9834,-70.9642 1532.8043,-66.9893 1522.6482,-63.9722 1522.9834,-70.9642"/>
</g>
<!-- Node28&#45;&gt;Node8 -->
<g id="edge52" class="edge">
<title>Node28&#45;&gt;Node8</title>
<path fill="none" stroke="#191970" d="M566.7252,-251.9005C570.5866,-241.95 576.726,-226.1292 581.5823,-213.6147"/>
<polygon fill="#191970" stroke="#191970" points="584.9269,-214.6706 585.2817,-204.0817 578.401,-212.1381 584.9269,-214.6706"/>
</g>
<!-- Node28&#45;&gt;Node11 -->
<g id="edge53" class="edge">
<title>Node28&#45;&gt;Node11</title>
<path fill="none" stroke="#191970" d="M586.9894,-251.89C640.0593,-230.6559 763.486,-181.4212 773,-179 910.8736,-143.9133 1080.9698,-132.3338 1152.1663,-128.8572"/>
<polygon fill="#191970" stroke="#191970" points="1152.505,-132.3453 1162.3313,-128.3837 1152.1792,-125.3529 1152.505,-132.3453"/>
</g>
<!-- Node28&#45;&gt;Node12 -->
<g id="edge54" class="edge">
<title>Node28&#45;&gt;Node12</title>
<path fill="none" stroke="#191970" d="M625.4318,-251.9717C705.6157,-239.7341 844.5239,-218.5339 929.3585,-205.5865"/>
<polygon fill="#191970" stroke="#191970" points="930.0711,-209.0184 939.4286,-204.0496 929.015,-202.0985 930.0711,-209.0184"/>
</g>
<!-- Node28&#45;&gt;Node13 -->
<g id="edge55" class="edge">
<title>Node28&#45;&gt;Node13</title>
<path fill="none" stroke="#191970" d="M483.9151,-255.6458C395.8767,-248.1179 259.9272,-233.1836 214,-210 184.119,-194.9164 158.5567,-164.7804 144.247,-145.4068"/>
<polygon fill="#191970" stroke="#191970" points="146.9837,-143.2166 138.3225,-137.1145 141.288,-147.2859 146.9837,-143.2166"/>
</g>
<!-- Node28&#45;&gt;Node14 -->
<g id="edge57" class="edge">
<title>Node28&#45;&gt;Node14</title>
<path fill="none" stroke="#191970" d="M483.6767,-253.6839C396.5424,-244.2814 266.8888,-227.557 252,-210 223.8295,-176.7809 234.1097,-151.7118 252,-112 257.5697,-99.6369 268.2863,-89.2563 278.5506,-81.5033"/>
<polygon fill="#191970" stroke="#191970" points="280.7618,-84.2277 286.9433,-75.623 276.7451,-78.4948 280.7618,-84.2277"/>
</g>
<!-- Node28&#45;&gt;Node25 -->
<g id="edge56" class="edge">
<title>Node28&#45;&gt;Node25</title>
<path fill="none" stroke="#191970" d="M559.0818,-251.8651C553.1632,-235.6709 543.9435,-202.4669 557,-179 566.6698,-161.6201 584.8998,-149.3558 601.8172,-141.1675"/>
<polygon fill="#191970" stroke="#191970" points="603.3323,-144.3238 611.0179,-137.0312 600.4621,-137.9393 603.3323,-144.3238"/>
</g>
<!-- Node29&#45;&gt;Node1 -->
<g id="edge76" class="edge">
<title>Node29&#45;&gt;Node1</title>
<path fill="none" stroke="#191970" d="M1902.876,-317.3238C1835.335,-306.6302 1745.7205,-290.2195 1735,-277 1726.3217,-266.2988 1729.7754,-258.7487 1735,-246 1750.8505,-207.3229 1768.1507,-204.8473 1801,-179 1825.4398,-159.7696 1845.6779,-170.0618 1861,-143 1867.7883,-131.0106 1869.9916,-122.4393 1861,-112 1843.107,-91.2262 1659.6813,-74.413 1585.1897,-68.3899"/>
<polygon fill="#191970" stroke="#191970" points="1585.2685,-64.8852 1575.0222,-67.5804 1584.7129,-71.8631 1585.2685,-64.8852"/>
</g>
<!-- Node29&#45;&gt;Node5 -->
<g id="edge77" class="edge">
<title>Node29&#45;&gt;Node5</title>
<path fill="none" stroke="#191970" d="M1902.971,-317.927C1846.8688,-309.2672 1768.9664,-295.4385 1702,-277 1699.1899,-276.2263 1696.3019,-275.3466 1693.4191,-274.4087"/>
<polygon fill="#191970" stroke="#191970" points="1694.3531,-271.0283 1683.7583,-271.0645 1692.0632,-277.6432 1694.3531,-271.0283"/>
</g>
<!-- Node29&#45;&gt;Node6 -->
<g id="edge79" class="edge">
<title>Node29&#45;&gt;Node6</title>
<path fill="none" stroke="#191970" d="M2012.4367,-313.4927C2032.7584,-303.9171 2058.951,-290.7539 2081,-277 2114.0953,-256.3556 2149.6231,-228.2142 2170.8188,-210.7114"/>
<polygon fill="#191970" stroke="#191970" points="2173.2761,-213.2197 2178.7196,-204.1302 2168.7959,-207.8412 2173.2761,-213.2197"/>
</g>
<!-- Node30 -->
<g id="node31" class="node">
<title>Node30</title>
<g id="a_node31"><a xlink:href="../../dd/d76/Cartesian3D_8h.html" target="_top" xlink:title="MathUtils/Cartesian3D.h">
<polygon fill="none" stroke="#000000" points="3661.5,-252 3661.5,-271 3796.5,-271 3796.5,-252 3661.5,-252"/>
<text text-anchor="middle" x="3729" y="-259" font-family="Helvetica,sans-Serif" font-size="10.00" fill="#000000">MathUtils/Cartesian3D.h</text>
</a>
</g>
</g>
<!-- Node29&#45;&gt;Node30 -->
<g id="edge60" class="edge">
<title>Node29&#45;&gt;Node30</title>
<path fill="none" stroke="#191970" d="M2055.0386,-325.5888C2342.4958,-314.5833 3361.2223,-275.5806 3651.3667,-264.4722"/>
<polygon fill="#191970" stroke="#191970" points="3651.5195,-267.9691 3661.3782,-264.0889 3651.2516,-260.9742 3651.5195,-267.9691"/>
</g>
<!-- Node41 -->
<g id="node42" class="node">
<title>Node41</title>
<g id="a_node42"><a xlink:href="../../df/d5d/common_2include_2CommonDataFormat_2TimeStamp_8h.html" target="_top" xlink:title="CommonDataFormat/TimeStamp.h">
<polygon fill="none" stroke="#000000" points="1885.5,-252 1885.5,-271 2072.5,-271 2072.5,-252 1885.5,-252"/>
<text text-anchor="middle" x="1979" y="-259" font-family="Helvetica,sans-Serif" font-size="10.00" fill="#000000">CommonDataFormat/TimeStamp.h</text>
</a>
</g>
</g>
<!-- Node29&#45;&gt;Node41 -->
<g id="edge72" class="edge">
<title>Node29&#45;&gt;Node41</title>
<path fill="none" stroke="#191970" d="M1979,-313.2967C1979,-303.7699 1979,-291.3954 1979,-281.1306"/>
<polygon fill="#191970" stroke="#191970" points="1982.5001,-281.0549 1979,-271.055 1975.5001,-281.055 1982.5001,-281.0549"/>
</g>
<!-- Node43 -->
<g id="node44" class="node">
<title>Node43</title>
<polygon fill="none" stroke="#bfbfbf" points="2204.5,-252 2204.5,-271 2235.5,-271 2235.5,-252 2204.5,-252"/>
<text text-anchor="middle" x="2220" y="-259" font-family="Helvetica,sans-Serif" font-size="10.00" fill="#000000">ios</text>
</g>
<!-- Node29&#45;&gt;Node43 -->
<g id="edge78" class="edge">
<title>Node29&#45;&gt;Node43</title>
<path fill="none" stroke="#191970" d="M2055.0105,-314.5116C2095.7468,-305.8835 2146.3863,-293.3239 2190,-277 2191.6609,-276.3784 2193.3481,-275.6872 2195.0323,-274.9517"/>
<polygon fill="#191970" stroke="#191970" points="2196.9444,-277.9159 2204.44,-270.4281 2193.911,-271.6073 2196.9444,-277.9159"/>
</g>
<!-- Node30&#45;&gt;Node6 -->
<g id="edge68" class="edge">
<title>Node30&#45;&gt;Node6</title>
<path fill="none" stroke="#191970" d="M3661.3842,-258.5564C3394.786,-246.9501 2421.4198,-204.5748 2224.7728,-196.0138"/>
<polygon fill="#191970" stroke="#191970" points="2224.8594,-192.5144 2214.7166,-195.576 2224.5549,-199.5077 2224.8594,-192.5144"/>
</g>
<!-- Node31 -->
<g id="node32" class="node">
<title>Node31</title>
<polygon fill="none" stroke="#bfbfbf" points="4029,-179.5 4029,-209.5 4193,-209.5 4193,-179.5 4029,-179.5"/>
<text text-anchor="start" x="4037" y="-197.5" font-family="Helvetica,sans-Serif" font-size="10.00" fill="#000000">Math/GenVector/Displacement</text>
<text text-anchor="middle" x="4111" y="-186.5" font-family="Helvetica,sans-Serif" font-size="10.00" fill="#000000">Vector3D.h</text>
</g>
<!-- Node30&#45;&gt;Node31 -->
<g id="edge61" class="edge">
<title>Node30&#45;&gt;Node31</title>
<path fill="none" stroke="#191970" d="M3783.3256,-251.9717C3844.5087,-241.2406 3944.9839,-223.618 4018.5702,-210.7115"/>
<polygon fill="#191970" stroke="#191970" points="4019.5232,-214.0979 4028.7682,-208.9229 4018.3139,-207.2031 4019.5232,-214.0979"/>
</g>
<!-- Node32 -->
<g id="node33" class="node">
<title>Node32</title>
<polygon fill="none" stroke="#bfbfbf" points="4211.5,-185 4211.5,-204 4400.5,-204 4400.5,-185 4211.5,-185"/>
<text text-anchor="middle" x="4306" y="-192" font-family="Helvetica,sans-Serif" font-size="10.00" fill="#000000">Math/GenVector/PositionVector3D.h</text>
</g>
<!-- Node30&#45;&gt;Node32 -->
<g id="edge62" class="edge">
<title>Node30&#45;&gt;Node32</title>
<path fill="none" stroke="#191970" d="M3796.8537,-254.9623C3888.797,-245.9094 4058.016,-228.5607 4202,-210 4212.6736,-208.6241 4223.9465,-207.0599 4234.9766,-205.4671"/>
<polygon fill="#191970" stroke="#191970" points="4235.6249,-208.9096 4245.014,-204.0009 4234.6131,-201.9832 4235.6249,-208.9096"/>
</g>
<!-- Node33 -->
<g id="node34" class="node">
<title>Node33</title>
<polygon fill="none" stroke="#bfbfbf" points="3373,-185 3373,-204 3533,-204 3533,-185 3373,-185"/>
<text text-anchor="middle" x="3453" y="-192" font-family="Helvetica,sans-Serif" font-size="10.00" fill="#000000">Math/GenVector/Rotation3D.h</text>
</g>
<!-- Node30&#45;&gt;Node33 -->
<g id="edge63" class="edge">
<title>Node30&#45;&gt;Node33</title>
<path fill="none" stroke="#191970" d="M3689.749,-251.9717C3640.5343,-240.0246 3556.132,-219.5357 3502.5256,-206.5225"/>
<polygon fill="#191970" stroke="#191970" points="3503.1059,-203.0618 3492.5624,-204.1039 3501.4545,-209.8642 3503.1059,-203.0618"/>
</g>
<!-- Node34 -->
<g id="node35" class="node">
<title>Node34</title>
<polygon fill="none" stroke="#bfbfbf" points="3551,-185 3551,-204 3719,-204 3719,-185 3551,-185"/>
<text text-anchor="middle" x="3635" y="-192" font-family="Helvetica,sans-Serif" font-size="10.00" fill="#000000">Math/GenVector/Transform3D.h</text>
</g>
<!-- Node30&#45;&gt;Node34 -->
<g id="edge64" class="edge">
<title>Node30&#45;&gt;Node34</title>
<path fill="none" stroke="#191970" d="M3715.5321,-251.9005C3700.1756,-240.9549 3674.8537,-222.9064 3656.7024,-209.9688"/>
<polygon fill="#191970" stroke="#191970" points="3658.6176,-207.0358 3648.4429,-204.0817 3654.5546,-212.736 3658.6176,-207.0358"/>
</g>
<!-- Node35 -->
<g id="node36" class="node">
<title>Node35</title>
<polygon fill="none" stroke="#bfbfbf" points="3737.5,-185 3737.5,-204 3910.5,-204 3910.5,-185 3737.5,-185"/>
<text text-anchor="middle" x="3824" y="-192" font-family="Helvetica,sans-Serif" font-size="10.00" fill="#000000">Math/GenVector/Translation3D.h</text>
</g>
<!-- Node30&#45;&gt;Node35 -->
<g id="edge65" class="edge">
<title>Node30&#45;&gt;Node35</title>
<path fill="none" stroke="#191970" d="M3742.6112,-251.9005C3758.1311,-240.9549 3783.7223,-222.9064 3802.0667,-209.9688"/>
<polygon fill="#191970" stroke="#191970" points="3804.2592,-212.7054 3810.4141,-204.0817 3800.2248,-206.9849 3804.2592,-212.7054"/>
</g>
<!-- Node36 -->
<g id="node37" class="node">
<title>Node36</title>
<polygon fill="none" stroke="#bfbfbf" points="3262.5,-118 3262.5,-137 3321.5,-137 3321.5,-118 3262.5,-118"/>
<text text-anchor="middle" x="3292" y="-125" font-family="Helvetica,sans-Serif" font-size="10.00" fill="#000000">Rtypes.h</text>
</g>
<!-- Node30&#45;&gt;Node36 -->
<g id="edge66" class="edge">
<title>Node30&#45;&gt;Node36</title>
<path fill="none" stroke="#191970" d="M3796.5469,-258.8479C3964.5599,-251.9252 4389.3295,-232.2927 4410,-210 4419.3678,-199.897 4419.5156,-188.964 4410,-179 4372.0131,-139.223 3526.3722,-129.5198 3331.7097,-127.81"/>
<polygon fill="#191970" stroke="#191970" points="3331.6649,-124.3096 3321.6352,-127.7237 3331.6048,-131.3094 3331.6649,-124.3096"/>
</g>
<!-- Node37 -->
<g id="node38" class="node">
<title>Node37</title>
<polygon fill="none" stroke="#bfbfbf" points="3929,-185 3929,-204 4011,-204 4011,-185 3929,-185"/>
<text text-anchor="middle" x="3970" y="-192" font-family="Helvetica,sans-Serif" font-size="10.00" fill="#000000">TGeoMatrix.h</text>
</g>
<!-- Node30&#45;&gt;Node37 -->
<g id="edge67" class="edge">
<title>Node30&#45;&gt;Node37</title>
<path fill="none" stroke="#191970" d="M3766.0863,-251.9375C3804.6533,-241.8909 3866.7251,-225.4341 3920,-210 3923.3307,-209.0351 3926.7793,-208.0134 3930.2367,-206.9735"/>
<polygon fill="#191970" stroke="#191970" points="3931.3669,-210.288 3939.9129,-204.0258 3929.3269,-203.5919 3931.3669,-210.288"/>
</g>
<!-- Node38 -->
<g id="node39" class="node">
<title>Node38</title>
<g id="a_node39"><a xlink:href="../../d2/dd0/Cartesian2D_8h.html" target="_top" xlink:title="MathUtils/Cartesian2D.h">
<polygon fill="none" stroke="#000000" points="4457.5,-185 4457.5,-204 4592.5,-204 4592.5,-185 4457.5,-185"/>
<text text-anchor="middle" x="4525" y="-192" font-family="Helvetica,sans-Serif" font-size="10.00" fill="#000000">MathUtils/Cartesian2D.h</text>
</a>
</g>
</g>
<!-- Node30&#45;&gt;Node38 -->
<g id="edge69" class="edge">
<title>Node30&#45;&gt;Node38</title>
<path fill="none" stroke="#191970" d="M3796.6921,-259.208C3923.8012,-254.3304 4206.6851,-240.7539 4443,-210 4451.664,-208.8725 4460.7964,-207.416 4469.6957,-205.8482"/>
<polygon fill="#191970" stroke="#191970" points="4470.3963,-209.2783 4479.6069,-204.0424 4469.1415,-202.3917 4470.3963,-209.2783"/>
</g>
<!-- Node39 -->
<g id="node40" class="node">
<title>Node39</title>
<polygon fill="none" stroke="#bfbfbf" points="4436,-112.5 4436,-142.5 4600,-142.5 4600,-112.5 4436,-112.5"/>
<text text-anchor="start" x="4444" y="-130.5" font-family="Helvetica,sans-Serif" font-size="10.00" fill="#000000">Math/GenVector/Displacement</text>
<text text-anchor="middle" x="4518" y="-119.5" font-family="Helvetica,sans-Serif" font-size="10.00" fill="#000000">Vector2D.h</text>
</g>
<!-- Node38&#45;&gt;Node39 -->
<g id="edge70" class="edge">
<title>Node38&#45;&gt;Node39</title>
<path fill="none" stroke="#191970" d="M4523.9971,-184.9005C4523.1204,-176.5099 4521.8077,-163.9451 4520.6337,-152.7085"/>
<polygon fill="#191970" stroke="#191970" points="4524.0897,-152.1039 4519.5694,-142.5218 4517.1276,-152.8314 4524.0897,-152.1039"/>
</g>
<!-- Node40 -->
<g id="node41" class="node">
<title>Node40</title>
<polygon fill="none" stroke="#bfbfbf" points="4228.5,-118 4228.5,-137 4417.5,-137 4417.5,-118 4228.5,-118"/>
<text text-anchor="middle" x="4323" y="-125" font-family="Helvetica,sans-Serif" font-size="10.00" fill="#000000">Math/GenVector/PositionVector2D.h</text>
</g>
<!-- Node38&#45;&gt;Node40 -->
<g id="edge71" class="edge">
<title>Node38&#45;&gt;Node40</title>
<path fill="none" stroke="#191970" d="M4496.0583,-184.9005C4460.6582,-173.1589 4400.6149,-153.2436 4361.3855,-140.2318"/>
<polygon fill="#191970" stroke="#191970" points="4362.4814,-136.9079 4351.888,-137.0817 4360.2776,-143.5519 4362.4814,-136.9079"/>
</g>
<!-- Node41&#45;&gt;Node14 -->
<g id="edge75" class="edge">
<title>Node41&#45;&gt;Node14</title>
<path fill="none" stroke="#191970" d="M1921.0878,-251.9879C1906.4076,-249.7962 1890.6472,-247.6323 1876,-246 1766.388,-233.7848 1478.215,-262.0888 1381,-210 1332.4163,-183.9684 1353.9266,-137.3813 1305,-112 1284.1442,-101.1808 585.3023,-75.8521 367.8913,-68.2169"/>
<polygon fill="#191970" stroke="#191970" points="367.7186,-64.7088 357.6021,-67.8562 367.4732,-71.7045 367.7186,-64.7088"/>
</g>
<!-- Node42 -->
<g id="node43" class="node">
<title>Node42</title>
<g id="a_node43"><a xlink:href="../../d2/d45/GPUCommonRtypes_8h.html" target="_top" xlink:title="GPUCommonRtypes.h">
<polygon fill="none" stroke="#000000" points="3229.5,-185 3229.5,-204 3354.5,-204 3354.5,-185 3229.5,-185"/>
<text text-anchor="middle" x="3292" y="-192" font-family="Helvetica,sans-Serif" font-size="10.00" fill="#000000">GPUCommonRtypes.h</text>
</a>
</g>
</g>
<!-- Node41&#45;&gt;Node42 -->
<g id="edge73" class="edge">
<title>Node41&#45;&gt;Node42</title>
<path fill="none" stroke="#191970" d="M2072.5216,-254.1655C2110.5117,-251.3487 2154.8358,-248.2687 2195,-246 2582.7117,-224.1001 2680.2607,-231.4055 3068,-210 3118.5538,-207.2091 3175.4697,-203.2603 3219.2791,-200.047"/>
<polygon fill="#191970" stroke="#191970" points="3219.5534,-203.5364 3229.2689,-199.3104 3219.0386,-196.5553 3219.5534,-203.5364"/>
</g>
<!-- Node42&#45;&gt;Node36 -->
<g id="edge74" class="edge">
<title>Node42&#45;&gt;Node36</title>
<path fill="none" stroke="#191970" d="M3292,-184.9005C3292,-175.149 3292,-159.7597 3292,-147.3695"/>
<polygon fill="#191970" stroke="#191970" points="3295.5001,-147.0816 3292,-137.0817 3288.5001,-147.0817 3295.5001,-147.0816"/>
</g>
<!-- Node44&#45;&gt;Node42 -->
<g id="edge81" class="edge">
<title>Node44&#45;&gt;Node42</title>
<path fill="none" stroke="#191970" d="M3166.3265,-313.4138C3181.4845,-296.4932 3207.2222,-268.4773 3231,-246 3243.9676,-233.7416 3259.3209,-220.7871 3271.3801,-210.9373"/>
<polygon fill="#191970" stroke="#191970" points="3273.926,-213.3796 3279.4978,-204.3682 3269.5225,-207.9381 3273.926,-213.3796"/>
</g>
<!-- Node45&#45;&gt;Node7 -->
<g id="edge90" class="edge">
<title>Node45&#45;&gt;Node7</title>
<path fill="none" stroke="#191970" d="M2482.3347,-249.6408C2456.9863,-242.0627 2429.3129,-229.7814 2410,-210 2393.2335,-192.8268 2386.1157,-165.4032 2383.1237,-146.9376"/>
<polygon fill="#191970" stroke="#191970" points="2386.5888,-146.4434 2381.7706,-137.0075 2379.6528,-147.3885 2386.5888,-146.4434"/>
</g>
<!-- Node45&#45;&gt;Node11 -->
<g id="edge91" class="edge">
<title>Node45&#45;&gt;Node11</title>
<path fill="none" stroke="#191970" d="M2488.303,-246.4234C2399.0288,-223.1442 2236.2468,-180.9111 2223,-179 1788.9795,-116.3831 1669.5027,-215.3612 1237,-143 1231.1529,-142.0217 1225.0385,-140.5624 1219.1567,-138.9241"/>
<polygon fill="#191970" stroke="#191970" points="1220.1497,-135.568 1209.5659,-136.0512 1218.141,-142.2736 1220.1497,-135.568"/>
</g>
<!-- Node45&#45;&gt;Node19 -->
<g id="edge85" class="edge">
<title>Node45&#45;&gt;Node19</title>
<path fill="none" stroke="#191970" d="M2482.1689,-248.2451C2452.1002,-240.1645 2416.6365,-227.8714 2388,-210 2360.3638,-192.7529 2335.4364,-163.9449 2321.0051,-145.3398"/>
<polygon fill="#191970" stroke="#191970" points="2323.6178,-142.9917 2314.7979,-137.1213 2318.0319,-147.2105 2323.6178,-142.9917"/>
</g>
<!-- Node45&#45;&gt;Node20 -->
<g id="edge87" class="edge">
<title>Node45&#45;&gt;Node20</title>
<path fill="none" stroke="#191970" d="M2482.2246,-248.388C2477.4191,-247.5345 2472.6375,-246.7271 2468,-246 2330.098,-224.3789 2290.2659,-248.1722 2156,-210 2154.0822,-209.4548 2152.1366,-208.809 2150.1993,-208.0958"/>
<polygon fill="#191970" stroke="#191970" points="2151.3216,-204.7708 2140.7467,-204.1196 2148.6074,-211.2232 2151.3216,-204.7708"/>
</g>
<!-- Node45&#45;&gt;Node42 -->
<g id="edge83" class="edge">
<title>Node45&#45;&gt;Node42</title>
<path fill="none" stroke="#191970" d="M2609.6035,-255.7876C2747.4987,-243.4029 3073.286,-214.1432 3219.1603,-201.0419"/>
<polygon fill="#191970" stroke="#191970" points="3219.7005,-204.5076 3229.3473,-200.127 3219.0743,-197.5356 3219.7005,-204.5076"/>
</g>
<!-- Node46 -->
<g id="node47" class="node">
<title>Node46</title>
<polygon fill="none" stroke="#bfbfbf" points="2813,-118 2813,-137 2863,-137 2863,-118 2813,-118"/>
<text text-anchor="middle" x="2838" y="-125" font-family="Helvetica,sans-Serif" font-size="10.00" fill="#000000">cstdint</text>
</g>
<!-- Node45&#45;&gt;Node46 -->
<g id="edge84" class="edge">
<title>Node45&#45;&gt;Node46</title>
<path fill="none" stroke="#191970" d="M2545.009,-246.2119C2544.7044,-227.4777 2547.3069,-196.1214 2566,-179 2644.8908,-106.7423 2701.4534,-173.4816 2804,-143 2805.9121,-142.4316 2807.8555,-141.7762 2809.7949,-141.0627"/>
<polygon fill="#191970" stroke="#191970" points="2811.3849,-144.1931 2819.2973,-137.1473 2808.718,-137.721 2811.3849,-144.1931"/>
</g>
<!-- Node47 -->
<g id="node48" class="node">
<title>Node47</title>
<polygon fill="none" stroke="#bfbfbf" points="2497.5,-118 2497.5,-137 2562.5,-137 2562.5,-118 2497.5,-118"/>
<text text-anchor="middle" x="2530" y="-125" font-family="Helvetica,sans-Serif" font-size="10.00" fill="#000000">stdexcept</text>
</g>
<!-- Node45&#45;&gt;Node47 -->
<g id="edge86" class="edge">
<title>Node45&#45;&gt;Node47</title>
<path fill="none" stroke="#191970" d="M2492.685,-246.4569C2462.0283,-236.6112 2427.8724,-223.172 2419,-210 2411.3029,-198.5728 2411.586,-190.6129 2419,-179 2434.071,-155.3935 2463.0575,-142.4427 2487.63,-135.4332"/>
<polygon fill="#191970" stroke="#191970" points="2488.6946,-138.7727 2497.4874,-132.862 2486.9277,-131.9994 2488.6946,-138.7727"/>
</g>
<!-- Node48 -->
<g id="node49" class="node">
<title>Node48</title>
<polygon fill="none" stroke="#bfbfbf" points="2575.5,-185 2575.5,-204 2644.5,-204 2644.5,-185 2575.5,-185"/>
<text text-anchor="middle" x="2610" y="-192" font-family="Helvetica,sans-Serif" font-size="10.00" fill="#000000">type_traits</text>
</g>
<!-- Node45&#45;&gt;Node48 -->
<g id="edge88" class="edge">
<title>Node45&#45;&gt;Node48</title>
<path fill="none" stroke="#191970" d="M2560.5226,-246.2967C2570.3973,-235.9591 2583.4749,-222.2684 2593.7051,-211.5588"/>
<polygon fill="#191970" stroke="#191970" points="2596.4964,-213.7037 2600.8729,-204.055 2591.4346,-208.8685 2596.4964,-213.7037"/>
</g>
<!-- Node49 -->
<g id="node50" class="node">
<title>Node49</title>
<polygon fill="none" stroke="#bfbfbf" points="2581,-118 2581,-137 2631,-137 2631,-118 2581,-118"/>
<text text-anchor="middle" x="2606" y="-125" font-family="Helvetica,sans-Serif" font-size="10.00" fill="#000000">cstring</text>
</g>
<!-- Node45&#45;&gt;Node49 -->
<g id="edge89" class="edge">
<title>Node45&#45;&gt;Node49</title>
<path fill="none" stroke="#191970" d="M2525.2165,-246.2119C2505.2496,-229.5879 2480.1398,-202.2764 2495,-179 2496.1933,-177.1309 2543.0736,-155.7811 2575.5209,-141.1644"/>
<polygon fill="#191970" stroke="#191970" points="2576.9661,-144.3522 2584.65,-137.0579 2574.0944,-137.9683 2576.9661,-144.3522"/>
</g>
<!-- Node50&#45;&gt;Node1 -->
<g id="edge95" class="edge">
<title>Node50&#45;&gt;Node1</title>
<path fill="none" stroke="#191970" d="M1116.2013,-447.2417C1167.5589,-409.0148 1308.2555,-307.789 1438,-246 1483.3002,-224.4264 1509.4124,-245.3702 1545,-210 1576.732,-178.4618 1574.5849,-156.2518 1568,-112 1566.6673,-103.0439 1563.9506,-93.419 1561.2619,-85.3"/>
<polygon fill="#191970" stroke="#191970" points="1564.4936,-83.9402 1557.8624,-75.6772 1557.8933,-86.272 1564.4936,-83.9402"/>
</g>
<!-- Node50&#45;&gt;Node6 -->
<g id="edge96" class="edge">
<title>Node50&#45;&gt;Node6</title>
<path fill="none" stroke="#191970" d="M1168.0459,-456.5053C1268.5398,-447.8839 1456.4262,-430.8219 1616,-411 1899.2176,-375.8193 2081.1551,-511.3745 2244,-277 2259.9525,-254.0403 2233.5723,-226.7978 2212.3806,-210.0819"/>
<polygon fill="#191970" stroke="#191970" points="2214.4204,-207.2365 2204.3268,-204.0162 2210.2091,-212.8281 2214.4204,-207.2365"/>
</g>
<!-- Node50&#45;&gt;Node9 -->
<g id="edge103" class="edge">
<title>Node50&#45;&gt;Node9</title>
<path fill="none" stroke="#191970" d="M1103.6666,-447.3923C1121.9934,-411.2777 1168.3092,-320.0083 1188.4268,-280.3649"/>
<polygon fill="#191970" stroke="#191970" points="1191.6449,-281.7576 1193.0491,-271.2562 1185.4026,-278.5898 1191.6449,-281.7576"/>
</g>
<!-- Node50&#45;&gt;Node11 -->
<g id="edge97" class="edge">
<title>Node50&#45;&gt;Node11</title>
<path fill="none" stroke="#191970" d="M1096,-447.2271C1096,-422.3518 1096,-371.5382 1096,-328.5 1096,-328.5 1096,-328.5 1096,-261.5 1096,-211.9368 1138.9555,-166.8998 1165.5143,-143.7908"/>
<polygon fill="#191970" stroke="#191970" points="1168.0895,-146.198 1173.4859,-137.0804 1163.5816,-140.8427 1168.0895,-146.198"/>
</g>
<!-- Node50&#45;&gt;Node12 -->
<g id="edge104" class="edge">
<title>Node50&#45;&gt;Node12</title>
<path fill="none" stroke="#191970" d="M1090.6768,-447.3233C1074.6115,-401.52 1026.6242,-264.7051 1008.7809,-213.8328"/>
<polygon fill="#191970" stroke="#191970" points="1011.9771,-212.3705 1005.3646,-204.0926 1005.3717,-214.6874 1011.9771,-212.3705"/>
</g>
<!-- Node50&#45;&gt;Node13 -->
<g id="edge105" class="edge">
<title>Node50&#45;&gt;Node13</title>
<path fill="none" stroke="#191970" d="M1023.7874,-460.4249C847.62,-454.955 405.7427,-438.6327 345,-411 230.0035,-358.6865 200.6431,-322.9267 144,-210 134.0988,-190.2604 131.7373,-164.7446 131.4452,-147.3499"/>
<polygon fill="#191970" stroke="#191970" points="134.9456,-147.2509 131.4936,-137.2342 127.9457,-147.2173 134.9456,-147.2509"/>
</g>
<!-- Node50&#45;&gt;Node26 -->
<g id="edge94" class="edge">
<title>Node50&#45;&gt;Node26</title>
<path fill="none" stroke="#191970" d="M1168.0494,-462.1772C1479.0876,-460.5433 2698.5367,-451.5829 2865,-411 3000.1747,-378.0451 3048.4235,-337.1114 3105,-210 3122.8663,-169.8595 3122.6936,-155.6857 3118,-112 3117.0637,-103.285 3115.1567,-93.7985 3113.2568,-85.7166"/>
<polygon fill="#191970" stroke="#191970" points="3116.5899,-84.6187 3110.7621,-75.7707 3109.8002,-86.3218 3116.5899,-84.6187"/>
</g>
<!-- Node51 -->
<g id="node52" class="node">
<title>Node51</title>
<g id="a_node52"><a xlink:href="../../d3/d78/Detectors_2ITSMFT_2ITS_2tracking_2include_2ITStracking_2Cell_8h.html" target="_top" xlink:title="ITStracking/Cell.h">
<polygon fill="none" stroke="#000000" points="332,-185 332,-204 434,-204 434,-185 332,-185"/>
<text text-anchor="middle" x="383" y="-192" font-family="Helvetica,sans-Serif" font-size="10.00" fill="#000000">ITStracking/Cell.h</text>
</a>
</g>
</g>
<!-- Node50&#45;&gt;Node51 -->
<g id="edge98" class="edge">
<title>Node50&#45;&gt;Node51</title>
<path fill="none" stroke="#191970" d="M1023.9279,-460.0421C844.0666,-453.5598 388.2234,-434.8465 366,-411 314.7074,-355.9614 353.7069,-255.1827 373.4016,-213.4118"/>
<polygon fill="#191970" stroke="#191970" points="376.587,-214.8647 377.818,-204.3416 370.2934,-211.8002 376.587,-214.8647"/>
</g>
<!-- Node50&#45;&gt;Node52 -->
<g id="edge106" class="edge">
<title>Node50&#45;&gt;Node52</title>
<path fill="none" stroke="#191970" d="M1061.6428,-447.2906C1043.8152,-438.3497 1022.3981,-425.8797 1006,-411 1003.0552,-408.3278 940.0339,-318.6112 912.5877,-279.4663"/>
<polygon fill="#191970" stroke="#191970" points="915.3278,-277.2776 906.722,-271.0977 909.5956,-281.2954 915.3278,-277.2776"/>
</g>
<!-- Node53 -->
<g id="node54" class="node">
<title>Node53</title>
<g id="a_node54"><a xlink:href="../../d8/db3/ITSMFT_2ITS_2tracking_2include_2ITStracking_2Tracklet_8h.html" target="_top" xlink:title="ITStracking/Tracklet.h">
<polygon fill="none" stroke="#000000" points="609,-386 609,-405 731,-405 731,-386 609,-386"/>
<text text-anchor="middle" x="670" y="-393" font-family="Helvetica,sans-Serif" font-size="10.00" fill="#000000">ITStracking/Tracklet.h</text>
</a>
</g>
</g>
<!-- Node50&#45;&gt;Node53 -->
<g id="edge110" class="edge">
<title>Node50&#45;&gt;Node53</title>
<path fill="none" stroke="#191970" d="M1023.7349,-451.1344C944.7891,-438.718 819.1564,-418.9589 740.7957,-406.6345"/>
<polygon fill="#191970" stroke="#191970" points="740.9577,-403.1171 730.5354,-405.0208 739.8701,-410.0321 740.9577,-403.1171"/>
</g>
<!-- Node51&#45;&gt;Node1 -->
<g id="edge99" class="edge">
<title>Node51&#45;&gt;Node1</title>
<path fill="none" stroke="#191970" d="M399.5739,-184.8234C431.7342,-166.6206 505.3944,-127.7047 573,-112 667.1687,-90.1247 1364.4949,-70.904 1522.3116,-66.8047"/>
<polygon fill="#191970" stroke="#191970" points="1522.82,-70.2929 1532.7264,-66.5359 1522.6393,-63.2952 1522.82,-70.2929"/>
</g>
<!-- Node51&#45;&gt;Node11 -->
<g id="edge100" class="edge">
<title>Node51&#45;&gt;Node11</title>
<path fill="none" stroke="#191970" d="M434.0033,-189.8599C468.6802,-186.7289 515.6017,-182.5386 557,-179 784.3167,-159.5696 1057.9815,-137.6761 1152.2077,-130.1812"/>
<polygon fill="#191970" stroke="#191970" points="1152.5984,-133.6613 1162.2896,-129.3798 1152.0436,-126.6833 1152.5984,-133.6613"/>
</g>
<!-- Node51&#45;&gt;Node13 -->
<g id="edge101" class="edge">
<title>Node51&#45;&gt;Node13</title>
<path fill="none" stroke="#191970" d="M347.3044,-184.9717C302.7336,-173.0743 226.4281,-152.7059 177.6492,-139.6852"/>
<polygon fill="#191970" stroke="#191970" points="178.5433,-136.3014 167.9789,-137.1039 176.7379,-143.0646 178.5433,-136.3014"/>
</g>
<!-- Node51&#45;&gt;Node14 -->
<g id="edge102" class="edge">
<title>Node51&#45;&gt;Node14</title>
<path fill="none" stroke="#191970" d="M377.0622,-184.8416C363.9658,-163.5393 332.4156,-112.2203 315.375,-84.5025"/>
<polygon fill="#191970" stroke="#191970" points="318.2257,-82.4563 310.0067,-75.7705 312.2625,-86.1224 318.2257,-82.4563"/>
</g>
<!-- Node52&#45;&gt;Node1 -->
<g id="edge107" class="edge">
<title>Node52&#45;&gt;Node1</title>
<path fill="none" stroke="#191970" d="M900.3649,-251.8571C901.5418,-234.7368 906.4705,-198.9609 927,-179 1013.5227,-94.8734 1408.0987,-72.062 1522.7028,-67.1605"/>
<polygon fill="#191970" stroke="#191970" points="1523.0523,-70.6492 1532.8998,-66.7406 1522.7643,-63.6551 1523.0523,-70.6492"/>
</g>
<!-- Node52&#45;&gt;Node12 -->
<g id="edge108" class="edge">
<title>Node52&#45;&gt;Node12</title>
<path fill="none" stroke="#191970" d="M914.6141,-251.9005C931.429,-240.8554 959.2549,-222.5776 978.9858,-209.6172"/>
<polygon fill="#191970" stroke="#191970" points="980.9764,-212.4972 987.413,-204.0817 977.1333,-206.6465 980.9764,-212.4972"/>
</g>
<!-- Node52&#45;&gt;Node14 -->
<g id="edge109" class="edge">
<title>Node52&#45;&gt;Node14</title>
<path fill="none" stroke="#191970" d="M865.8847,-251.9775C856.5814,-249.6907 846.4585,-247.4836 837,-246 780.4405,-237.1286 364.7034,-249.2238 323,-210 289.1357,-178.1493 294.1926,-117.4919 299.675,-86.0368"/>
<polygon fill="#191970" stroke="#191970" points="303.1774,-86.3598 301.6427,-75.8767 296.3051,-85.0288 303.1774,-86.3598"/>
</g>
<!-- Node53&#45;&gt;Node14 -->
<g id="edge114" class="edge">
<title>Node53&#45;&gt;Node14</title>
<path fill="none" stroke="#191970" d="M617.7583,-385.946C536.453,-369.9517 375.81,-333.8075 249,-277 198.4797,-254.3683 189.4806,-241.5596 144,-210 103.3229,-181.7736 77.1023,-187.304 55,-143 48.8495,-130.6713 46.1869,-122.5904 55,-112 66.8263,-97.7888 170.6344,-82.3909 240.4285,-73.5028"/>
<polygon fill="#191970" stroke="#191970" points="240.9796,-76.9611 250.4642,-72.2396 240.1054,-70.0159 240.9796,-76.9611"/>
</g>
<!-- Node53&#45;&gt;Node21 -->
<g id="edge111" class="edge">
<title>Node53&#45;&gt;Node21</title>
<path fill="none" stroke="#191970" d="M682.8948,-385.9005C697.4642,-375.0544 721.4022,-357.2339 738.7454,-344.3229"/>
<polygon fill="#191970" stroke="#191970" points="741.1978,-346.8606 747.1291,-338.0817 737.0177,-341.2457 741.1978,-346.8606"/>
</g>
<!-- Node53&#45;&gt;Node23 -->
<g id="edge112" class="edge">
<title>Node53&#45;&gt;Node23</title>
<path fill="none" stroke="#191970" d="M668.2178,-385.9028C664.0246,-360.2473 656.2091,-289.1036 689,-246 699.5609,-232.1177 740.3076,-216.7342 772.0438,-206.427"/>
<polygon fill="#191970" stroke="#191970" points="773.5121,-209.6328 781.9814,-203.2672 771.391,-202.9619 773.5121,-209.6328"/>
</g>
<!-- Node53&#45;&gt;Node25 -->
<g id="edge113" class="edge">
<title>Node53&#45;&gt;Node25</title>
<path fill="none" stroke="#191970" d="M635.1803,-385.9452C588.9823,-371.1789 509.2781,-337.9417 475,-277 439.6361,-214.1279 543.5051,-163.4775 602.4105,-140.639"/>
<polygon fill="#191970" stroke="#191970" points="603.6848,-143.8991 611.7985,-137.086 601.207,-137.3522 603.6848,-143.8991"/>
</g>
<!-- Node54&#45;&gt;Node11 -->
<g id="edge117" class="edge">
<title>Node54&#45;&gt;Node11</title>
<path fill="none" stroke="#191970" d="M2447.445,-519.8892C2188.99,-504.9654 1338,-451.5698 1338,-395.5 1338,-395.5 1338,-395.5 1338,-328.5 1338,-305.9456 1239.3759,-189.3093 1201.0127,-144.7928"/>
<polygon fill="#191970" stroke="#191970" points="1203.5758,-142.4059 1194.3887,-137.1288 1198.2798,-146.9833 1203.5758,-142.4059"/>
</g>
<!-- Node55 -->
<g id="node56" class="node">
<title>Node55</title>
<g id="a_node56"><a xlink:href="../../d7/d8b/DataFormats_2Reconstruction_2include_2ReconstructionDataFormats_2Track_8h.html" target="_top" xlink:title="ReconstructionDataFormats\l/Track.h">
<polygon fill="none" stroke="#000000" points="2600,-447.5 2600,-477.5 2752,-477.5 2752,-447.5 2600,-447.5"/>
<text text-anchor="start" x="2608" y="-465.5" font-family="Helvetica,sans-Serif" font-size="10.00" fill="#000000">ReconstructionDataFormats</text>
<text text-anchor="middle" x="2676" y="-454.5" font-family="Helvetica,sans-Serif" font-size="10.00" fill="#000000">/Track.h</text>
</a>
</g>
</g>
<!-- Node54&#45;&gt;Node55 -->
<g id="edge118" class="edge">
<title>Node54&#45;&gt;Node55</title>
<path fill="none" stroke="#191970" d="M2545.2188,-514.3906C2567.4586,-505.5664 2601.0445,-492.2404 2628.6114,-481.3026"/>
<polygon fill="#191970" stroke="#191970" points="2630.0785,-484.486 2638.0827,-477.5446 2627.4968,-477.9794 2630.0785,-484.486"/>
</g>
<!-- Node70 -->
<g id="node71" class="node">
<title>Node70</title>
<g id="a_node71"><a xlink:href="../../de/d64/RangeReference_8h.html" target="_top" xlink:title="Class to refer to the 1st entry and N elements of some group in the continuous container. ">
<polygon fill="none" stroke="#000000" points="3284,-453 3284,-472 3494,-472 3494,-453 3284,-453"/>
<text text-anchor="middle" x="3389" y="-460" font-family="Helvetica,sans-Serif" font-size="10.00" fill="#000000">CommonDataFormat/RangeReference.h</text>
</a>
</g>
</g>
<!-- Node54&#45;&gt;Node70 -->
<g id="edge167" class="edge">
<title>Node54&#45;&gt;Node70</title>
<path fill="none" stroke="#191970" d="M2594.6308,-518.7831C2745.8902,-508.066 3092.5759,-483.5024 3273.8215,-470.6607"/>
<polygon fill="#191970" stroke="#191970" points="3274.1937,-474.1432 3283.9213,-469.9451 3273.6989,-467.1607 3274.1937,-474.1432"/>
</g>
<!-- Node55&#45;&gt;Node1 -->
<g id="edge121" class="edge">
<title>Node55&#45;&gt;Node1</title>
<path fill="none" stroke="#191970" d="M2658.777,-447.4034C2591.4642,-389.5362 2337.4139,-181.6402 2085,-112 1989.8879,-85.7589 1684.7568,-71.3158 1585.5129,-67.2243"/>
<polygon fill="#191970" stroke="#191970" points="1585.3752,-63.716 1575.2416,-66.8077 1585.0915,-70.7102 1585.3752,-63.716"/>
</g>
<!-- Node55&#45;&gt;Node3 -->
<g id="edge123" class="edge">
<title>Node55&#45;&gt;Node3</title>
<path fill="none" stroke="#191970" d="M2599.949,-461.8122C2237.2674,-458.3801 696.8906,-442.0242 600,-411 490.2092,-375.8452 418.1675,-273.6359 484,-179 525.6674,-119.102 609.6804,-87.7398 656.5197,-74.2794"/>
<polygon fill="#191970" stroke="#191970" points="657.4939,-77.6414 666.1984,-71.6013 655.6271,-70.8949 657.4939,-77.6414"/>
</g>
<!-- Node55&#45;&gt;Node6 -->
<g id="edge125" class="edge">
<title>Node55&#45;&gt;Node6</title>
<path fill="none" stroke="#191970" d="M2599.7855,-455.6501C2529.8882,-448.0551 2432.7148,-433.7758 2402,-411 2335.5736,-361.743 2377.1152,-301.7104 2316,-246 2314.1613,-244.3239 2260.1894,-222.5561 2223.4873,-207.8628"/>
<polygon fill="#191970" stroke="#191970" points="2224.6959,-204.5767 2214.1112,-204.1127 2222.0963,-211.0761 2224.6959,-204.5767"/>
</g>
<!-- Node55&#45;&gt;Node24 -->
<g id="edge164" class="edge">
<title>Node55&#45;&gt;Node24</title>
<path fill="none" stroke="#191970" d="M2599.5643,-461.8886C2341.0227,-459.4776 1512.9771,-448.8225 1471,-411 1414.7717,-360.3368 1426.6732,-257.4328 1434.7227,-214.2627"/>
<polygon fill="#191970" stroke="#191970" points="1438.2059,-214.6929 1436.737,-204.2004 1431.3421,-213.3188 1438.2059,-214.6929"/>
</g>
<!-- Node55&#45;&gt;Node26 -->
<g id="edge120" class="edge">
<title>Node55&#45;&gt;Node26</title>
<path fill="none" stroke="#191970" d="M2752.2209,-459.2985C3112.5777,-443.9174 4628,-376.3878 4628,-328.5 4628,-328.5 4628,-328.5 4628,-194.5 4628,-156.8735 4638.0782,-135.8792 4609,-112 4580.027,-88.2072 3390.7021,-70.0254 3150.157,-66.5875"/>
<polygon fill="#191970" stroke="#191970" points="3150.1138,-63.0866 3140.065,-66.444 3150.0142,-70.0859 3150.1138,-63.0866"/>
</g>
<!-- Node55&#45;&gt;Node27 -->
<g id="edge163" class="edge">
<title>Node55&#45;&gt;Node27</title>
<path fill="none" stroke="#191970" d="M2599.9362,-457.1687C2536.8579,-450.9975 2445.6004,-437.9773 2370,-411 2230.6988,-361.2917 2215.2105,-308.1555 2081,-246 1981.8738,-200.0927 1859.5403,-159.7448 1796.6614,-140.1281"/>
<polygon fill="#191970" stroke="#191970" points="1797.315,-136.6665 1786.727,-137.0473 1795.2416,-143.3523 1797.315,-136.6665"/>
</g>
<!-- Node55&#45;&gt;Node42 -->
<g id="edge119" class="edge">
<title>Node55&#45;&gt;Node42</title>
<path fill="none" stroke="#191970" d="M2752.1577,-460.3112C2898.2697,-455.4351 3206.8367,-441.6097 3244,-411 3303.1963,-362.2428 3299.3314,-258.2786 3294.7022,-214.5442"/>
<polygon fill="#191970" stroke="#191970" points="3298.1456,-213.8607 3293.4873,-204.3449 3291.1947,-214.6887 3298.1456,-213.8607"/>
</g>
<!-- Node55&#45;&gt;Node49 -->
<g id="edge124" class="edge">
<title>Node55&#45;&gt;Node49</title>
<path fill="none" stroke="#191970" d="M2675.45,-447.3646C2673.3971,-409.8472 2663.7023,-310.9048 2618,-246 2601.8166,-223.0169 2579.0456,-234.8985 2566,-210 2554.3185,-187.7051 2572.3287,-161.4766 2587.8077,-144.6799"/>
<polygon fill="#191970" stroke="#191970" points="2590.5799,-146.8505 2595.0619,-137.2504 2585.5715,-141.9602 2590.5799,-146.8505"/>
</g>
<!-- Node56 -->
<g id="node57" class="node">
<title>Node56</title>
<polygon fill="none" stroke="#bfbfbf" points="3039,-386 3039,-405 3083,-405 3083,-386 3039,-386"/>
<text text-anchor="middle" x="3061" y="-393" font-family="Helvetica,sans-Serif" font-size="10.00" fill="#000000">cfloat</text>
</g>
<!-- Node55&#45;&gt;Node56 -->
<g id="edge122" class="edge">
<title>Node55&#45;&gt;Node56</title>
<path fill="none" stroke="#191970" d="M2752.0804,-457.0057C2823.595,-450.5037 2933.0856,-437.0861 3025,-411 3027.1807,-410.3811 3029.4034,-409.6608 3031.6204,-408.876"/>
<polygon fill="#191970" stroke="#191970" points="3033.1226,-412.0464 3041.154,-405.1365 3030.5665,-405.5298 3033.1226,-412.0464"/>
</g>
<!-- Node57 -->
<g id="node58" class="node">
<title>Node57</title>
<g id="a_node58"><a xlink:href="../../d4/de2/BaseCluster_8h.html" target="_top" xlink:title="ReconstructionDataFormats\l/BaseCluster.h">
<polygon fill="none" stroke="#000000" points="2704,-380.5 2704,-410.5 2856,-410.5 2856,-380.5 2704,-380.5"/>
<text text-anchor="start" x="2712" y="-398.5" font-family="Helvetica,sans-Serif" font-size="10.00" fill="#000000">ReconstructionDataFormats</text>
<text text-anchor="middle" x="2780" y="-387.5" font-family="Helvetica,sans-Serif" font-size="10.00" fill="#000000">/BaseCluster.h</text>
</a>
</g>
</g>
<!-- Node55&#45;&gt;Node57 -->
<g id="edge126" class="edge">
<title>Node55&#45;&gt;Node57</title>
<path fill="none" stroke="#191970" d="M2699.3396,-447.4639C2713.5574,-438.3044 2731.9323,-426.4667 2747.5522,-416.4038"/>
<polygon fill="#191970" stroke="#191970" points="2749.8674,-419.0758 2756.3784,-410.7177 2746.0764,-413.1912 2749.8674,-419.0758"/>
</g>
<!-- Node65 -->
<g id="node66" class="node">
<title>Node65</title>
<polygon fill="none" stroke="#bfbfbf" points="3065,-118 3065,-137 3109,-137 3109,-118 3065,-118"/>
<text text-anchor="middle" x="3087" y="-125" font-family="Helvetica,sans-Serif" font-size="10.00" fill="#000000">string</text>
</g>
<!-- Node55&#45;&gt;Node65 -->
<g id="edge162" class="edge">
<title>Node55&#45;&gt;Node65</title>
<path fill="none" stroke="#191970" d="M2752.3286,-451.5961C2824.6919,-437.7411 2932.6571,-407.5046 3004,-344 3056.6798,-297.108 3069.3307,-277.7284 3089,-210 3095.031,-189.233 3093.255,-164.2752 3090.7815,-147.2875"/>
<polygon fill="#191970" stroke="#191970" points="3094.2296,-146.6862 3089.1303,-137.3992 3087.3252,-147.8392 3094.2296,-146.6862"/>
</g>
<!-- Node69 -->
<g id="node70" class="node">
<title>Node69</title>
<g id="a_node70"><a xlink:href="../../d8/d77/Primitive2D_8h.html" target="_top" xlink:title="Declarations of 2D primitives: straight line (XY interval) and circle. ">
<polygon fill="none" stroke="#000000" points="3101.5,-386 3101.5,-405 3234.5,-405 3234.5,-386 3101.5,-386"/>
<text text-anchor="middle" x="3168" y="-393" font-family="Helvetica,sans-Serif" font-size="10.00" fill="#000000">MathUtils/Primitive2D.h</text>
</a>
</g>
</g>
<!-- Node55&#45;&gt;Node69 -->
<g id="edge165" class="edge">
<title>Node55&#45;&gt;Node69</title>
<path fill="none" stroke="#191970" d="M2752.1648,-454.8739C2835.7781,-446.0826 2973.8584,-430.33 3092,-411 3099.2178,-409.8191 3106.7938,-408.4415 3114.2511,-407.004"/>
<polygon fill="#191970" stroke="#191970" points="3115.1694,-410.3903 3124.3019,-405.0193 3113.8133,-403.5229 3115.1694,-410.3903"/>
</g>
<!-- Node57&#45;&gt;Node5 -->
<g id="edge129" class="edge">
<title>Node57&#45;&gt;Node5</title>
<path fill="none" stroke="#191970" d="M2703.9194,-393.7858C2518.6542,-389.1758 2048.0294,-374.7271 1894,-344 1818.2025,-328.8793 1733.7034,-294.426 1689.9366,-275.1686"/>
<polygon fill="#191970" stroke="#191970" points="1691.2863,-271.9384 1680.7267,-271.075 1688.4431,-278.335 1691.2863,-271.9384"/>
</g>
<!-- Node57&#45;&gt;Node6 -->
<g id="edge131" class="edge">
<title>Node57&#45;&gt;Node6</title>
<path fill="none" stroke="#191970" d="M2739.4351,-380.3938C2663.9957,-352.4955 2496.8046,-291.5808 2354,-246 2298.9238,-228.4206 2283.7063,-228.6987 2229,-210 2226.8714,-209.2724 2224.6889,-208.4949 2222.4965,-207.69"/>
<polygon fill="#191970" stroke="#191970" points="2223.5487,-204.3455 2212.9578,-204.0566 2221.0569,-210.887 2223.5487,-204.3455"/>
</g>
<!-- Node57&#45;&gt;Node30 -->
<g id="edge161" class="edge">
<title>Node57&#45;&gt;Node30</title>
<path fill="none" stroke="#191970" d="M2856.2949,-387.807C2945.2136,-378.5825 3096.504,-362.0858 3226,-344 3384.764,-321.8266 3570.702,-289.7244 3665.8605,-272.8475"/>
<polygon fill="#191970" stroke="#191970" points="3666.6617,-276.26 3675.8951,-271.0645 3665.437,-269.368 3666.6617,-276.26"/>
</g>
<!-- Node57&#45;&gt;Node43 -->
<g id="edge130" class="edge">
<title>Node57&#45;&gt;Node43</title>
<path fill="none" stroke="#191970" d="M2703.9256,-389.7032C2601.5683,-381.283 2425.2728,-364.4221 2364,-344 2316.8489,-328.2846 2267.8589,-296.2895 2240.9169,-277.0896"/>
<polygon fill="#191970" stroke="#191970" points="2242.8121,-274.1408 2232.6598,-271.1109 2238.7068,-279.8106 2242.8121,-274.1408"/>
</g>
<!-- Node58 -->
<g id="node59" class="node">
<title>Node58</title>
<polygon fill="none" stroke="#bfbfbf" points="2931.5,-319 2931.5,-338 2994.5,-338 2994.5,-319 2931.5,-319"/>
<text text-anchor="middle" x="2963" y="-326" font-family="Helvetica,sans-Serif" font-size="10.00" fill="#000000">TObject.h</text>
</g>
<!-- Node57&#45;&gt;Node58 -->
<g id="edge127" class="edge">
<title>Node57&#45;&gt;Node58</title>
<path fill="none" stroke="#191970" d="M2821.9949,-380.4377C2850.2899,-370.2478 2888.4322,-356.4316 2922,-344 2924.0873,-343.227 2926.2329,-342.4283 2928.3961,-341.6198"/>
<polygon fill="#191970" stroke="#191970" points="2929.7371,-344.8549 2937.8681,-338.0625 2927.2759,-338.3019 2929.7371,-344.8549"/>
</g>
<!-- Node59 -->
<g id="node60" class="node">
<title>Node59</title>
<polygon fill="none" stroke="#bfbfbf" points="2663,-185 2663,-204 2707,-204 2707,-185 2663,-185"/>
<text text-anchor="middle" x="2685" y="-192" font-family="Helvetica,sans-Serif" font-size="10.00" fill="#000000">bitset</text>
</g>
<!-- Node57&#45;&gt;Node59 -->
<g id="edge128" class="edge">
<title>Node57&#45;&gt;Node59</title>
<path fill="none" stroke="#191970" d="M2762.7847,-380.2482C2752.8867,-370.6829 2740.8899,-357.6151 2733,-344 2708.1548,-301.1265 2694.3917,-243.7618 2688.4995,-214.1021"/>
<polygon fill="#191970" stroke="#191970" points="2691.92,-213.3531 2686.62,-204.1792 2685.0423,-214.6559 2691.92,-213.3531"/>
</g>
<!-- Node60 -->
<g id="node61" class="node">
<title>Node60</title>
<g id="a_node61"><a xlink:href="../../d4/d20/DetMatrixCache_8h.html" target="_top" xlink:title="DetectorsCommonDataFormats\l/DetMatrixCache.h">
<polygon fill="none" stroke="#000000" points="2742.5,-313.5 2742.5,-343.5 2913.5,-343.5 2913.5,-313.5 2742.5,-313.5"/>
<text text-anchor="start" x="2750.5" y="-331.5" font-family="Helvetica,sans-Serif" font-size="10.00" fill="#000000">DetectorsCommonDataFormats</text>
<text text-anchor="middle" x="2828" y="-320.5" font-family="Helvetica,sans-Serif" font-size="10.00" fill="#000000">/DetMatrixCache.h</text>
</a>
</g>
</g>
<!-- Node57&#45;&gt;Node60 -->
<g id="edge132" class="edge">
<title>Node57&#45;&gt;Node60</title>
<path fill="none" stroke="#191970" d="M2790.8919,-380.2967C2796.9063,-371.9016 2804.5049,-361.2952 2811.2574,-351.8698"/>
<polygon fill="#191970" stroke="#191970" points="2814.1725,-353.8107 2817.1512,-343.6432 2808.4821,-349.734 2814.1725,-353.8107"/>
</g>
<!-- Node60&#45;&gt;Node1 -->
<g id="edge137" class="edge">
<title>Node60&#45;&gt;Node1</title>
<path fill="none" stroke="#191970" d="M2789.301,-313.3225C2737.3192,-292.4166 2642.6186,-252.4938 2566,-210 2497.333,-171.9162 2493.5208,-136.7422 2419,-112 2338.6758,-85.3309 1730.7358,-69.9947 1585.2224,-66.6825"/>
<polygon fill="#191970" stroke="#191970" points="1585.2586,-63.1825 1575.1823,-66.4564 1585.101,-70.1807 1585.2586,-63.1825"/>
</g>
<!-- Node60&#45;&gt;Node11 -->
<g id="edge138" class="edge">
<title>Node60&#45;&gt;Node11</title>
<path fill="none" stroke="#191970" d="M2742.2545,-316.1598C2585.9731,-293.7001 2268.521,-248.238 2244,-246 2052.8499,-228.5543 1568.2777,-252.0689 1381,-210 1317.293,-195.6893 1248.113,-161.5193 1211.7258,-141.9386"/>
<polygon fill="#191970" stroke="#191970" points="1213.2391,-138.7774 1202.7838,-137.0635 1209.8883,-144.9233 1213.2391,-138.7774"/>
</g>
<!-- Node60&#45;&gt;Node30 -->
<g id="edge160" class="edge">
<title>Node60&#45;&gt;Node30</title>
<path fill="none" stroke="#191970" d="M2913.5067,-314.0292C2916.3692,-313.6634 2919.2063,-313.3187 2922,-313 3188.6418,-282.5848 3507.0505,-268.8769 3651.2348,-263.8842"/>
<polygon fill="#191970" stroke="#191970" points="3651.4374,-267.3794 3661.3119,-263.5397 3651.1981,-260.3835 3651.4374,-267.3794"/>
</g>
<!-- Node60&#45;&gt;Node42 -->
<g id="edge136" class="edge">
<title>Node60&#45;&gt;Node42</title>
<path fill="none" stroke="#191970" d="M2880.3247,-313.389C2972.9989,-286.6253 3164.2303,-231.399 3249.4291,-206.7942"/>
<polygon fill="#191970" stroke="#191970" points="3250.4015,-210.1565 3259.0377,-204.0193 3248.4592,-203.4313 3250.4015,-210.1565"/>
</g>
<!-- Node61 -->
<g id="node62" class="node">
<title>Node61</title>
<g id="a_node62"><a xlink:href="../../df/d5b/GPUCommonLogger_8h.html" target="_top" xlink:title="GPUCommonLogger.h">
<polygon fill="none" stroke="#000000" points="1744.5,-252 1744.5,-271 1867.5,-271 1867.5,-252 1744.5,-252"/>
<text text-anchor="middle" x="1806" y="-259" font-family="Helvetica,sans-Serif" font-size="10.00" fill="#000000">GPUCommonLogger.h</text>
</a>
</g>
</g>
<!-- Node60&#45;&gt;Node61 -->
<g id="edge133" class="edge">
<title>Node60&#45;&gt;Node61</title>
<path fill="none" stroke="#191970" d="M2742.3994,-325.669C2541.072,-318.7193 2042.0415,-299.7182 1876,-277 1868.7086,-276.0024 1861.0513,-274.6388 1853.586,-273.1315"/>
<polygon fill="#191970" stroke="#191970" points="1854.0863,-269.6598 1843.5776,-271.0078 1852.6333,-276.5073 1854.0863,-269.6598"/>
</g>
<!-- Node63 -->
<g id="node64" class="node">
<title>Node63</title>
<g id="a_node64"><a xlink:href="../../d6/d31/DetID_8h.html" target="_top" xlink:title="DetectorsCommonDataFormats\l/DetID.h">
<polygon fill="none" stroke="#000000" points="2742.5,-246.5 2742.5,-276.5 2913.5,-276.5 2913.5,-246.5 2742.5,-246.5"/>
<text text-anchor="start" x="2750.5" y="-264.5" font-family="Helvetica,sans-Serif" font-size="10.00" fill="#000000">DetectorsCommonDataFormats</text>
<text text-anchor="middle" x="2828" y="-253.5" font-family="Helvetica,sans-Serif" font-size="10.00" fill="#000000">/DetID.h</text>
</a>
</g>
</g>
<!-- Node60&#45;&gt;Node63 -->
<g id="edge139" class="edge">
<title>Node60&#45;&gt;Node63</title>
<path fill="none" stroke="#191970" d="M2828,-313.2967C2828,-305.5013 2828,-295.7991 2828,-286.9064"/>
<polygon fill="#191970" stroke="#191970" points="2831.5001,-286.6431 2828,-276.6432 2824.5001,-286.6432 2831.5001,-286.6431"/>
</g>
<!-- Node61&#45;&gt;Node23 -->
<g id="edge134" class="edge">
<title>Node61&#45;&gt;Node23</title>
<path fill="none" stroke="#191970" d="M1746.4373,-251.9922C1730.4205,-249.7197 1713.08,-247.5158 1697,-246 1355.916,-213.8478 1268.1988,-240.9105 927,-210 902.0584,-207.7404 874.2225,-204.0204 852.1845,-200.7911"/>
<polygon fill="#191970" stroke="#191970" points="852.5914,-197.3132 842.1848,-199.3015 851.5599,-204.2368 852.5914,-197.3132"/>
</g>
<!-- Node62 -->
<g id="node63" class="node">
<title>Node62</title>
<polygon fill="none" stroke="#bfbfbf" points="1810,-185 1810,-204 1856,-204 1856,-185 1810,-185"/>
<text text-anchor="middle" x="1833" y="-192" font-family="Helvetica,sans-Serif" font-size="10.00" fill="#000000">cstdio</text>
</g>
<!-- Node61&#45;&gt;Node62 -->
<g id="edge135" class="edge">
<title>Node61&#45;&gt;Node62</title>
<path fill="none" stroke="#191970" d="M1809.8684,-251.9005C1813.8784,-241.95 1820.2539,-226.1292 1825.297,-213.6147"/>
<polygon fill="#191970" stroke="#191970" points="1828.6472,-214.6651 1829.1387,-204.0817 1822.1546,-212.0486 1828.6472,-214.6651"/>
</g>
<!-- Node63&#45;&gt;Node1 -->
<g id="edge141" class="edge">
<title>Node63&#45;&gt;Node1</title>
<path fill="none" stroke="#191970" d="M2867.1388,-246.333C2884.2722,-237.9342 2903.3184,-225.9243 2916,-210 2943.7494,-175.1551 2967.9696,-144.0169 2937,-112 2912.6935,-86.8716 1788.5096,-69.3998 1585.3104,-66.4443"/>
<polygon fill="#191970" stroke="#191970" points="1585.0919,-62.9409 1575.0424,-66.296 1584.9907,-69.9402 1585.0919,-62.9409"/>
</g>
<!-- Node63&#45;&gt;Node19 -->
<g id="edge143" class="edge">
<title>Node63&#45;&gt;Node19</title>
<path fill="none" stroke="#191970" d="M2805.3391,-246.3873C2790.5269,-236.3489 2770.8708,-222.723 2754,-210 2736.5979,-196.8764 2736.1571,-187.2917 2716,-179 2561.9743,-115.6409 2504.0969,-185.2619 2343,-143 2340.6678,-142.3882 2338.2937,-141.6384 2335.9363,-140.8022"/>
<polygon fill="#191970" stroke="#191970" points="2337.0748,-137.4877 2326.4908,-137.009 2334.4661,-143.9835 2337.0748,-137.4877"/>
</g>
<!-- Node63&#45;&gt;Node24 -->
<g id="edge148" class="edge">
<title>Node63&#45;&gt;Node24</title>
<path fill="none" stroke="#191970" d="M2742.468,-254.6027C2704.3808,-251.6821 2658.9652,-248.406 2618,-246 2561.6928,-242.693 1729.6466,-206.959 1498.2927,-197.0404"/>
<polygon fill="#191970" stroke="#191970" points="1498.1968,-193.5331 1488.0561,-196.6015 1497.897,-200.5267 1498.1968,-193.5331"/>
</g>
<!-- Node63&#45;&gt;Node36 -->
<g id="edge140" class="edge">
<title>Node63&#45;&gt;Node36</title>
<path fill="none" stroke="#191970" d="M2913.6336,-248.8484C2965.0661,-240.2049 3031.4722,-227.193 3089,-210 3152.6752,-190.9697 3223.978,-159.4939 3262.8463,-141.4203"/>
<polygon fill="#191970" stroke="#191970" points="3264.434,-144.5415 3272.0048,-137.1298 3261.4644,-138.2026 3264.434,-144.5415"/>
</g>
<!-- Node63&#45;&gt;Node46 -->
<g id="edge144" class="edge">
<title>Node63&#45;&gt;Node46</title>
<path fill="none" stroke="#191970" d="M2860.9056,-246.4761C2875.3794,-237.9924 2890.9054,-225.8713 2899,-210 2905.2598,-197.7263 2904.8039,-191.4957 2899,-179 2891.9318,-163.7823 2877.907,-151.4403 2865.0859,-142.6574"/>
<polygon fill="#191970" stroke="#191970" points="2866.8097,-139.6051 2856.5023,-137.1539 2863.0314,-145.4979 2866.8097,-139.6051"/>
</g>
<!-- Node63&#45;&gt;Node48 -->
<g id="edge147" class="edge">
<title>Node63&#45;&gt;Node48</title>
<path fill="none" stroke="#191970" d="M2774.4758,-246.4219C2739.9521,-236.5084 2694.1609,-223.0078 2654,-210 2651.4164,-209.1632 2648.7548,-208.2797 2646.0799,-207.3761"/>
<polygon fill="#191970" stroke="#191970" points="2647.0452,-204.0069 2636.4505,-204.0632 2644.7679,-210.6261 2647.0452,-204.0069"/>
</g>
<!-- Node63&#45;&gt;Node59 -->
<g id="edge142" class="edge">
<title>Node63&#45;&gt;Node59</title>
<path fill="none" stroke="#191970" d="M2795.908,-246.4639C2771.5902,-235.0702 2738.4279,-219.5327 2714.7138,-208.4219"/>
<polygon fill="#191970" stroke="#191970" points="2716.0382,-205.1773 2705.4979,-204.1039 2713.0683,-211.5161 2716.0382,-205.1773"/>
</g>
<!-- Node64 -->
<g id="node65" class="node">
<title>Node64</title>
<polygon fill="none" stroke="#bfbfbf" points="2985.5,-185 2985.5,-204 3058.5,-204 3058.5,-185 2985.5,-185"/>
<text text-anchor="middle" x="3022" y="-192" font-family="Helvetica,sans-Serif" font-size="10.00" fill="#000000">string_view</text>
</g>
<!-- Node63&#45;&gt;Node64 -->
<g id="edge145" class="edge">
<title>Node63&#45;&gt;Node64</title>
<path fill="none" stroke="#191970" d="M2871.5374,-246.4639C2905.6556,-234.6808 2952.6068,-218.4657 2984.9419,-207.2984"/>
<polygon fill="#191970" stroke="#191970" points="2986.1676,-210.578 2994.4772,-204.0053 2983.8825,-203.9615 2986.1676,-210.578"/>
</g>
<!-- Node63&#45;&gt;Node65 -->
<g id="edge146" class="edge">
<title>Node63&#45;&gt;Node65</title>
<path fill="none" stroke="#191970" d="M2913.7812,-247.7005C2978.0424,-236.6017 3056.7485,-221.0843 3068,-210 3084.5524,-193.6937 3087.9072,-166.0663 3088.052,-147.3181"/>
<polygon fill="#191970" stroke="#191970" points="3091.5489,-147.1357 3087.8294,-137.2153 3084.5506,-147.29 3091.5489,-147.1357"/>
</g>
<!-- Node66 -->
<g id="node67" class="node">
<title>Node66</title>
<g id="a_node67"><a xlink:href="../../dc/dcd/DataHeader_8h.html" target="_top" xlink:title="Headers/DataHeader.h">
<polygon fill="none" stroke="#000000" points="2763.5,-185 2763.5,-204 2890.5,-204 2890.5,-185 2763.5,-185"/>
<text text-anchor="middle" x="2827" y="-192" font-family="Helvetica,sans-Serif" font-size="10.00" fill="#000000">Headers/DataHeader.h</text>
</a>
</g>
</g>
<!-- Node63&#45;&gt;Node66 -->
<g id="edge149" class="edge">
<title>Node63&#45;&gt;Node66</title>
<path fill="none" stroke="#191970" d="M2827.7731,-246.2967C2827.6309,-236.7699 2827.4462,-224.3954 2827.293,-214.1306"/>
<polygon fill="#191970" stroke="#191970" points="2830.7916,-214.0016 2827.1426,-204.055 2823.7923,-214.1061 2830.7916,-214.0016"/>
</g>
<!-- Node66&#45;&gt;Node7 -->
<g id="edge151" class="edge">
<title>Node66&#45;&gt;Node7</title>
<path fill="none" stroke="#191970" d="M2781.3016,-184.9492C2770.7175,-182.8678 2759.4837,-180.7631 2749,-179 2633.5233,-159.5799 2603.945,-159.3939 2488,-143 2465.5262,-139.8223 2440.41,-136.1883 2420.1621,-133.2381"/>
<polygon fill="#191970" stroke="#191970" points="2420.4578,-129.7442 2410.0572,-131.7636 2419.4471,-136.6709 2420.4578,-129.7442"/>
</g>
<!-- Node66&#45;&gt;Node10 -->
<g id="edge157" class="edge">
<title>Node66&#45;&gt;Node10</title>
<path fill="none" stroke="#191970" d="M2767.2193,-184.9791C2750.6687,-182.6634 2732.6715,-180.4412 2716,-179 2243.2711,-138.1331 2123.1611,-160.7203 1649,-143 1522.8398,-138.2852 1373.0281,-131.9121 1306.2077,-129.0291"/>
<polygon fill="#191970" stroke="#191970" points="1306.3542,-125.5322 1296.2124,-128.5971 1306.0519,-132.5257 1306.3542,-125.5322"/>
</g>
<!-- Node66&#45;&gt;Node19 -->
<g id="edge152" class="edge">
<title>Node66&#45;&gt;Node19</title>
<path fill="none" stroke="#191970" d="M2783.4135,-184.9774C2772.2371,-182.7729 2760.2069,-180.6056 2749,-179 2569.6786,-153.3088 2518.4006,-188.286 2343,-143 2340.6655,-142.3973 2338.2896,-141.654 2335.9311,-140.8222"/>
<polygon fill="#191970" stroke="#191970" points="2337.0678,-137.5072 2326.4834,-137.0374 2334.4646,-144.0052 2337.0678,-137.5072"/>
</g>
<!-- Node66&#45;&gt;Node26 -->
<g id="edge154" class="edge">
<title>Node66&#45;&gt;Node26</title>
<path fill="none" stroke="#191970" d="M2848.1207,-184.8416C2897.469,-162.2748 3020.4809,-106.0221 3077.763,-79.8273"/>
<polygon fill="#191970" stroke="#191970" points="3079.3789,-82.937 3087.0176,-75.5952 3076.4677,-76.571 3079.3789,-82.937"/>
</g>
<!-- Node66&#45;&gt;Node46 -->
<g id="edge150" class="edge">
<title>Node66&#45;&gt;Node46</title>
<path fill="none" stroke="#191970" d="M2828.576,-184.9005C2830.1934,-175.0495 2832.7553,-159.4451 2834.8,-146.9912"/>
<polygon fill="#191970" stroke="#191970" points="2838.2605,-147.5166 2836.4269,-137.0817 2831.3529,-146.3825 2838.2605,-147.5166"/>
</g>
<!-- Node66&#45;&gt;Node47 -->
<g id="edge155" class="edge">
<title>Node66&#45;&gt;Node47</title>
<path fill="none" stroke="#191970" d="M2779.3143,-184.9657C2706.8963,-170.473 2577.0036,-144.4194 2572,-143 2569.3572,-142.2503 2566.6436,-141.4122 2563.9291,-140.5243"/>
<polygon fill="#191970" stroke="#191970" points="2564.8145,-137.1271 2554.2198,-137.1604 2562.5229,-143.7413 2564.8145,-137.1271"/>
</g>
<!-- Node66&#45;&gt;Node49 -->
<g id="edge153" class="edge">
<title>Node66&#45;&gt;Node49</title>
<path fill="none" stroke="#191970" d="M2784.8117,-184.9157C2746.5149,-175.7382 2688.7452,-160.696 2640,-143 2638.365,-142.4064 2636.6995,-141.7672 2635.0279,-141.0983"/>
<polygon fill="#191970" stroke="#191970" points="2636.1271,-137.7621 2625.5558,-137.0557 2633.3793,-144.2002 2636.1271,-137.7621"/>
</g>
<!-- Node66&#45;&gt;Node65 -->
<g id="edge156" class="edge">
<title>Node66&#45;&gt;Node65</title>
<path fill="none" stroke="#191970" d="M2865.5892,-184.9182C2906.4639,-174.7202 2972.856,-158.017 3030,-143 3038.0897,-140.8741 3046.8106,-138.5294 3054.9392,-136.3212"/>
<polygon fill="#191970" stroke="#191970" points="3056.1005,-139.6324 3064.8267,-133.6239 3054.2581,-132.8792 3056.1005,-139.6324"/>
</g>
<!-- Node67 -->
<g id="node68" class="node">
<title>Node67</title>
<g id="a_node68"><a xlink:href="../../d7/df8/Types_8h.html" target="_top" xlink:title="MemoryResources/Types.h">
<polygon fill="none" stroke="#000000" points="2649,-118 2649,-137 2795,-137 2795,-118 2649,-118"/>
<text text-anchor="middle" x="2722" y="-125" font-family="Helvetica,sans-Serif" font-size="10.00" fill="#000000">MemoryResources/Types.h</text>
</a>
</g>
</g>
<!-- Node66&#45;&gt;Node67 -->
<g id="edge158" class="edge">
<title>Node66&#45;&gt;Node67</title>
<path fill="none" stroke="#191970" d="M2811.9561,-184.9005C2794.6466,-173.8554 2766.0023,-155.5776 2745.6911,-142.6172"/>
<polygon fill="#191970" stroke="#191970" points="2747.3288,-139.5103 2737.016,-137.0817 2743.5633,-145.4113 2747.3288,-139.5103"/>
</g>
<!-- Node68 -->
<g id="node69" class="node">
<title>Node68</title>
<polygon fill="none" stroke="#bfbfbf" points="2881.5,-118 2881.5,-137 2928.5,-137 2928.5,-118 2881.5,-118"/>
<text text-anchor="middle" x="2905" y="-125" font-family="Helvetica,sans-Serif" font-size="10.00" fill="#000000">cerrno</text>
</g>
<!-- Node66&#45;&gt;Node68 -->
<g id="edge159" class="edge">
<title>Node66&#45;&gt;Node68</title>
<path fill="none" stroke="#191970" d="M2838.1755,-184.9005C2850.6864,-174.1539 2871.1686,-156.5603 2886.1642,-143.6794"/>
<polygon fill="#191970" stroke="#191970" points="2888.5401,-146.2526 2893.8452,-137.0817 2883.9789,-140.9426 2888.5401,-146.2526"/>
</g>
<!-- Node69&#45;&gt;Node42 -->
<g id="edge166" class="edge">
<title>Node69&#45;&gt;Node42</title>
<path fill="none" stroke="#191970" d="M3181.9691,-385.8334C3194.7907,-376.383 3213.6202,-360.9716 3226,-344 3256.5269,-302.1504 3277.0813,-243.9518 3286.3604,-214.011"/>
<polygon fill="#191970" stroke="#191970" points="3289.7401,-214.9256 3289.2665,-204.3413 3283.0363,-212.9108 3289.7401,-214.9256"/>
</g>
<!-- Node70&#45;&gt;Node42 -->
<g id="edge168" class="edge">
<title>Node70&#45;&gt;Node42</title>
<path fill="none" stroke="#191970" d="M3388.1485,-452.8979C3385.0555,-421.5396 3372.549,-319.9086 3335,-246 3328.4877,-233.1817 3318.2583,-220.7512 3309.4104,-211.3149"/>
<polygon fill="#191970" stroke="#191970" points="3311.9053,-208.8601 3302.4151,-204.1497 3306.8965,-213.7501 3311.9053,-208.8601"/>
</g>
<!-- Node72 -->
<g id="node73" class="node">
<title>Node72</title>
<polygon fill="none" stroke="#bfbfbf" points="3512,-453 3512,-472 3620,-472 3620,-453 3512,-453"/>
<text text-anchor="middle" x="3566" y="-460" font-family="Helvetica,sans-Serif" font-size="10.00" fill="#000000">fairlogger/Logger.h</text>
</g>
<!-- Node71&#45;&gt;Node72 -->
<g id="edge171" class="edge">
<title>Node71&#45;&gt;Node72</title>
<path fill="none" stroke="#191970" d="M3471.5,-514.3906C3489.7465,-504.3713 3518.5624,-488.5483 3539.5806,-477.0071"/>
<polygon fill="#191970" stroke="#191970" points="3541.542,-479.923 3548.6229,-472.0419 3538.1728,-473.7872 3541.542,-479.923"/>
</g>
</g>
</svg>
