<?xml version="1.0" encoding="UTF-8" standalone="no"?>
<!DOCTYPE svg PUBLIC "-//W3C//DTD SVG 1.1//EN"
 "http://www.w3.org/Graphics/SVG/1.1/DTD/svg11.dtd">
<!-- Generated by graphviz version 2.40.1 (20161225.0304)
 -->
<!-- Title: /home/travis/build/AliceO2Group/AliceO2/DataFormats/Detectors/TRD/src/RawData.cxx Pages: 1 -->
<svg width="316pt" height="173pt"
 viewBox="0.00 0.00 316.00 173.00" xmlns="http://www.w3.org/2000/svg" xmlns:xlink="http://www.w3.org/1999/xlink">
<g id="graph0" class="graph" transform="scale(1 1) rotate(0) translate(4 169)">
<title>/home/travis/build/AliceO2Group/AliceO2/DataFormats/Detectors/TRD/src/RawData.cxx</title>
<!-- Node0 -->
<g id="node1" class="node">
<title>Node0</title>
<polygon fill="#bfbfbf" stroke="#000000" points="37.5,-112.5 37.5,-164.5 170.5,-164.5 170.5,-112.5 37.5,-112.5"/>
<text text-anchor="start" x="45.5" y="-152.5" font-family="Helvetica,sans-Serif" font-size="10.00" fill="#000000">/home/travis/build</text>
<text text-anchor="start" x="45.5" y="-141.5" font-family="Helvetica,sans-Serif" font-size="10.00" fill="#000000">/AliceO2Group/AliceO2</text>
<text text-anchor="start" x="45.5" y="-130.5" font-family="Helvetica,sans-Serif" font-size="10.00" fill="#000000">/DataFormats/Detectors</text>
<text text-anchor="middle" x="104" y="-119.5" font-family="Helvetica,sans-Serif" font-size="10.00" fill="#000000">/TRD/src/RawData.cxx</text>
</g>
<!-- Node1 -->
<g id="node2" class="node">
<title>Node1</title>
<polygon fill="none" stroke="#bfbfbf" points="0,-56.5 0,-75.5 56,-75.5 56,-56.5 0,-56.5"/>
<text text-anchor="middle" x="28" y="-63.5" font-family="Helvetica,sans-Serif" font-size="10.00" fill="#000000">iomanip</text>
</g>
<!-- Node0&#45;&gt;Node1 -->
<g id="edge1" class="edge">
<title>Node0&#45;&gt;Node1</title>
<path fill="none" stroke="#191970" d="M76.5623,-112.3258C66.1706,-102.4127 54.6341,-91.4075 45.4138,-82.6118"/>
<polygon fill="#191970" stroke="#191970" points="47.6459,-79.904 37.9943,-75.534 42.8141,-84.969 47.6459,-79.904"/>
</g>
<!-- Node2 -->
<g id="node3" class="node">
<title>Node2</title>
<polygon fill="none" stroke="#bfbfbf" points="74,-56.5 74,-75.5 134,-75.5 134,-56.5 74,-56.5"/>
<text text-anchor="middle" x="104" y="-63.5" font-family="Helvetica,sans-Serif" font-size="10.00" fill="#000000">iostream</text>
</g>
<!-- Node0&#45;&gt;Node2 -->
<g id="edge2" class="edge">
<title>Node0&#45;&gt;Node2</title>
<path fill="none" stroke="#191970" d="M104,-112.3258C104,-103.5142 104,-93.8397 104,-85.621"/>
<polygon fill="#191970" stroke="#191970" points="107.5001,-85.534 104,-75.534 100.5001,-85.534 107.5001,-85.534"/>
</g>
<!-- Node3 -->
<g id="node4" class="node">
<title>Node3</title>
<g id="a_node4"><a xlink:href="../../dc/d62/RawData_8h.html" target="_top" xlink:title="DataFormatsTRD/RawData.h">
<polygon fill="none" stroke="#000000" points="152,-56.5 152,-75.5 308,-75.5 308,-56.5 152,-56.5"/>
<text text-anchor="middle" x="230" y="-63.5" font-family="Helvetica,sans-Serif" font-size="10.00" fill="#000000">DataFormatsTRD/RawData.h</text>
</a>
</g>
</g>
<!-- Node0&#45;&gt;Node3 -->
<g id="edge3" class="edge">
<title>Node0&#45;&gt;Node3</title>
<path fill="none" stroke="#191970" d="M149.4889,-112.3258C168.1094,-101.6116 188.9469,-89.6218 204.7573,-80.5246"/>
<polygon fill="#191970" stroke="#191970" points="206.5085,-83.555 213.4306,-75.534 203.0174,-77.4877 206.5085,-83.555"/>
</g>
<!-- Node4 -->
<g id="node5" class="node">
<title>Node4</title>
<polygon fill="none" stroke="#bfbfbf" points="176,-.5 176,-19.5 284,-19.5 284,-.5 176,-.5"/>
<text text-anchor="middle" x="230" y="-7.5" font-family="Helvetica,sans-Serif" font-size="10.00" fill="#000000">fairlogger/Logger.h</text>
</g>
<!-- Node3&#45;&gt;Node4 -->
<g id="edge4" class="edge">
<title>Node3&#45;&gt;Node4</title>
<path fill="none" stroke="#191970" d="M230,-56.2455C230,-48.9382 230,-38.6944 230,-29.7046"/>
<polygon fill="#191970" stroke="#191970" points="233.5001,-29.6426 230,-19.6427 226.5001,-29.6427 233.5001,-29.6426"/>
</g>
</g>
</svg>
