<?xml version="1.0" encoding="UTF-8" standalone="no"?>
<!DOCTYPE svg PUBLIC "-//W3C//DTD SVG 1.1//EN"
 "http://www.w3.org/Graphics/SVG/1.1/DTD/svg11.dtd">
<!-- Generated by graphviz version 2.40.1 (20161225.0304)
 -->
<!-- Title: /home/travis/build/AliceO2Group/AliceO2/Analysis/DataModel/include/PID/PIDTOF.h Pages: 1 -->
<svg width="634pt" height="240pt"
 viewBox="0.00 0.00 633.50 240.00" xmlns="http://www.w3.org/2000/svg" xmlns:xlink="http://www.w3.org/1999/xlink">
<g id="graph0" class="graph" transform="scale(1 1) rotate(0) translate(4 236)">
<title>/home/travis/build/AliceO2Group/AliceO2/Analysis/DataModel/include/PID/PIDTOF.h</title>
<!-- Node0 -->
<g id="node1" class="node">
<title>Node0</title>
<polygon fill="#bfbfbf" stroke="#000000" points="275,-179.5 275,-231.5 430,-231.5 430,-179.5 275,-179.5"/>
<text text-anchor="start" x="283" y="-219.5" font-family="Helvetica,sans-Serif" font-size="10.00" fill="#000000">/home/travis/build</text>
<text text-anchor="start" x="283" y="-208.5" font-family="Helvetica,sans-Serif" font-size="10.00" fill="#000000">/AliceO2Group/AliceO2</text>
<text text-anchor="start" x="283" y="-197.5" font-family="Helvetica,sans-Serif" font-size="10.00" fill="#000000">/Analysis/DataModel/include</text>
<text text-anchor="middle" x="352.5" y="-186.5" font-family="Helvetica,sans-Serif" font-size="10.00" fill="#000000">/PID/PIDTOF.h</text>
</g>
<!-- Node1 -->
<g id="node2" class="node">
<title>Node1</title>
<polygon fill="none" stroke="#bfbfbf" points="225,-.5 225,-19.5 284,-19.5 284,-.5 225,-.5"/>
<text text-anchor="middle" x="254.5" y="-7.5" font-family="Helvetica,sans-Serif" font-size="10.00" fill="#000000">Rtypes.h</text>
</g>
<!-- Node0&#45;&gt;Node1 -->
<g id="edge1" class="edge">
<title>Node0&#45;&gt;Node1</title>
<path fill="none" stroke="#191970" d="M299.9441,-179.2662C286.1328,-169.7689 272.794,-157.6846 264.5,-143 244.2826,-107.205 247.2976,-57.091 251.0449,-29.7347"/>
<polygon fill="#191970" stroke="#191970" points="254.5086,-30.2376 252.5766,-19.8204 247.5907,-29.1687 254.5086,-30.2376"/>
</g>
<!-- Node2 -->
<g id="node3" class="node">
<title>Node2</title>
<polygon fill="none" stroke="#bfbfbf" points="443.5,-62 443.5,-81 499.5,-81 499.5,-62 443.5,-62"/>
<text text-anchor="middle" x="471.5" y="-69" font-family="Helvetica,sans-Serif" font-size="10.00" fill="#000000">TMath.h</text>
</g>
<!-- Node0&#45;&gt;Node2 -->
<g id="edge2" class="edge">
<title>Node0&#45;&gt;Node2</title>
<path fill="none" stroke="#191970" d="M398.9257,-179.4605C413.6478,-169.5133 429.054,-157.1204 440.5,-143 452.9774,-127.6073 461.3242,-106.426 466.1829,-91.1169"/>
<polygon fill="#191970" stroke="#191970" points="469.6435,-91.7556 469.1136,-81.174 462.9291,-89.7765 469.6435,-91.7556"/>
</g>
<!-- Node3 -->
<g id="node4" class="node">
<title>Node3</title>
<g id="a_node4"><a xlink:href="../../dd/da4/Logger_8h.html" target="_top" xlink:title="Framework/Logger.h">
<polygon fill="none" stroke="#000000" points="504,-123.5 504,-142.5 619,-142.5 619,-123.5 504,-123.5"/>
<text text-anchor="middle" x="561.5" y="-130.5" font-family="Helvetica,sans-Serif" font-size="10.00" fill="#000000">Framework/Logger.h</text>
</a>
</g>
</g>
<!-- Node0&#45;&gt;Node3 -->
<g id="edge3" class="edge">
<title>Node0&#45;&gt;Node3</title>
<path fill="none" stroke="#191970" d="M427.6585,-179.4283C460.4501,-168.0532 497.4362,-155.2231 524.2045,-145.9374"/>
<polygon fill="#191970" stroke="#191970" points="525.6328,-149.1467 533.9334,-142.5626 523.3386,-142.5333 525.6328,-149.1467"/>
</g>
<!-- Node5 -->
<g id="node6" class="node">
<title>Node5</title>
<g id="a_node6"><a xlink:href="../../d5/d08/DataFormats_2Reconstruction_2include_2ReconstructionDataFormats_2PID_8h.html" target="_top" xlink:title="ReconstructionDataFormats\l/PID.h">
<polygon fill="none" stroke="#000000" points="55.5,-56.5 55.5,-86.5 207.5,-86.5 207.5,-56.5 55.5,-56.5"/>
<text text-anchor="start" x="63.5" y="-74.5" font-family="Helvetica,sans-Serif" font-size="10.00" fill="#000000">ReconstructionDataFormats</text>
<text text-anchor="middle" x="131.5" y="-63.5" font-family="Helvetica,sans-Serif" font-size="10.00" fill="#000000">/PID.h</text>
</a>
</g>
</g>
<!-- Node0&#45;&gt;Node5 -->
<g id="edge5" class="edge">
<title>Node0&#45;&gt;Node5</title>
<path fill="none" stroke="#191970" d="M290.6545,-179.4881C268.2783,-169.1781 243.1939,-156.5482 221.5,-143 198.0812,-128.3746 173.6872,-108.6728 156.2129,-93.6541"/>
<polygon fill="#191970" stroke="#191970" points="158.0655,-90.6264 148.225,-86.7002 153.4692,-95.9061 158.0655,-90.6264"/>
</g>
<!-- Node7 -->
<g id="node8" class="node">
<title>Node7</title>
<g id="a_node8"><a xlink:href="../../dc/d68/DetectorResponse_8h.html" target="_top" xlink:title="Handler for any detector (or other entity) response. This provides the basic quantities computed by a...">
<polygon fill="none" stroke="#000000" points="273.5,-123.5 273.5,-142.5 431.5,-142.5 431.5,-123.5 273.5,-123.5"/>
<text text-anchor="middle" x="352.5" y="-130.5" font-family="Helvetica,sans-Serif" font-size="10.00" fill="#000000">PIDBase/DetectorResponse.h</text>
</a>
</g>
</g>
<!-- Node0&#45;&gt;Node7 -->
<g id="edge8" class="edge">
<title>Node0&#45;&gt;Node7</title>
<path fill="none" stroke="#191970" d="M352.5,-179.3258C352.5,-170.5142 352.5,-160.8397 352.5,-152.621"/>
<polygon fill="#191970" stroke="#191970" points="356.0001,-152.534 352.5,-142.534 349.0001,-152.534 356.0001,-152.534"/>
</g>
<!-- Node4 -->
<g id="node5" class="node">
<title>Node4</title>
<polygon fill="none" stroke="#bfbfbf" points="517.5,-62 517.5,-81 625.5,-81 625.5,-62 517.5,-62"/>
<text text-anchor="middle" x="571.5" y="-69" font-family="Helvetica,sans-Serif" font-size="10.00" fill="#000000">fairlogger/Logger.h</text>
</g>
<!-- Node3&#45;&gt;Node4 -->
<g id="edge4" class="edge">
<title>Node3&#45;&gt;Node4</title>
<path fill="none" stroke="#191970" d="M563.0625,-123.3906C564.4487,-114.8657 566.518,-102.1392 568.2604,-91.4235"/>
<polygon fill="#191970" stroke="#191970" points="571.7651,-91.677 569.9155,-81.2449 564.8558,-90.5535 571.7651,-91.677"/>
</g>
<!-- Node5&#45;&gt;Node1 -->
<g id="edge6" class="edge">
<title>Node5&#45;&gt;Node1</title>
<path fill="none" stroke="#191970" d="M161.5892,-56.4554C181.3019,-46.599 206.9002,-33.7999 226.2347,-24.1327"/>
<polygon fill="#191970" stroke="#191970" points="228.0603,-27.133 235.4394,-19.5303 224.9298,-20.872 228.0603,-27.133"/>
</g>
<!-- Node6 -->
<g id="node7" class="node">
<title>Node6</title>
<g id="a_node7"><a xlink:href="../../d3/d9d/PhysicsConstants_8h.html" target="_top" xlink:title="Header to collect physics constants. ">
<polygon fill="none" stroke="#000000" points="0,-.5 0,-19.5 207,-19.5 207,-.5 0,-.5"/>
<text text-anchor="middle" x="103.5" y="-7.5" font-family="Helvetica,sans-Serif" font-size="10.00" fill="#000000">CommonConstants/PhysicsConstants.h</text>
</a>
</g>
</g>
<!-- Node5&#45;&gt;Node6 -->
<g id="edge7" class="edge">
<title>Node5&#45;&gt;Node6</title>
<path fill="none" stroke="#191970" d="M124.5786,-56.2977C120.8539,-48.1166 116.222,-37.943 112.2496,-29.2179"/>
<polygon fill="#191970" stroke="#191970" points="115.3122,-27.4978 107.9832,-19.8469 108.9414,-30.3983 115.3122,-27.4978"/>
</g>
<!-- Node7&#45;&gt;Node1 -->
<g id="edge9" class="edge">
<title>Node7&#45;&gt;Node1</title>
<path fill="none" stroke="#191970" d="M336.057,-123.3623C322.9564,-115.0411 304.8291,-102.0122 292.5,-87 278.2195,-69.6117 267.5687,-45.9604 261.2318,-29.476"/>
<polygon fill="#191970" stroke="#191970" points="264.42,-28.0036 257.6956,-19.8162 257.8466,-30.41 264.42,-28.0036"/>
</g>
<!-- Node7&#45;&gt;Node2 -->
<g id="edge10" class="edge">
<title>Node7&#45;&gt;Node2</title>
<path fill="none" stroke="#191970" d="M371.0938,-123.3906C390.6553,-113.2811 421.6501,-97.2628 444.0309,-85.6962"/>
<polygon fill="#191970" stroke="#191970" points="445.76,-88.7425 453.0368,-81.0419 442.5461,-82.5238 445.76,-88.7425"/>
</g>
<!-- Node7&#45;&gt;Node5 -->
<g id="edge11" class="edge">
<title>Node7&#45;&gt;Node5</title>
<path fill="none" stroke="#191970" d="M317.9688,-123.3906C285.2204,-114.2774 235.218,-100.3627 195.2335,-89.2358"/>
<polygon fill="#191970" stroke="#191970" points="196.135,-85.8537 185.5627,-86.5446 194.2583,-92.5975 196.135,-85.8537"/>
</g>
<!-- Node8 -->
<g id="node9" class="node">
<title>Node8</title>
<g id="a_node9"><a xlink:href="../../d0/ded/ParamBase_8h.html" target="_top" xlink:title="Set of utilities to handle the parametrization of the PID response for each detector These are the ba...">
<polygon fill="none" stroke="#000000" points="301.5,-62 301.5,-81 425.5,-81 425.5,-62 301.5,-62"/>
<text text-anchor="middle" x="363.5" y="-69" font-family="Helvetica,sans-Serif" font-size="10.00" fill="#000000">PIDBase/ParamBase.h</text>
</a>
</g>
</g>
<!-- Node7&#45;&gt;Node8 -->
<g id="edge12" class="edge">
<title>Node7&#45;&gt;Node8</title>
<path fill="none" stroke="#191970" d="M354.2188,-123.3906C355.7435,-114.8657 358.0198,-102.1392 359.9364,-91.4235"/>
<polygon fill="#191970" stroke="#191970" points="363.4416,-91.7049 361.757,-81.2449 356.5509,-90.4724 363.4416,-91.7049"/>
</g>
<!-- Node9 -->
<g id="node10" class="node">
<title>Node9</title>
<polygon fill="none" stroke="#bfbfbf" points="330,-.5 330,-19.5 397,-19.5 397,-.5 330,-.5"/>
<text text-anchor="middle" x="363.5" y="-7.5" font-family="Helvetica,sans-Serif" font-size="10.00" fill="#000000">TNamed.h</text>
</g>
<!-- Node8&#45;&gt;Node9 -->
<g id="edge13" class="edge">
<title>Node8&#45;&gt;Node9</title>
<path fill="none" stroke="#191970" d="M363.5,-61.8906C363.5,-53.3657 363.5,-40.6392 363.5,-29.9235"/>
<polygon fill="#191970" stroke="#191970" points="367.0001,-29.7448 363.5,-19.7449 360.0001,-29.7449 367.0001,-29.7448"/>
</g>
</g>
</svg>
