<?xml version="1.0" encoding="UTF-8" standalone="no"?>
<!DOCTYPE svg PUBLIC "-//W3C//DTD SVG 1.1//EN"
 "http://www.w3.org/Graphics/SVG/1.1/DTD/svg11.dtd">
<!-- Generated by graphviz version 2.40.1 (20161225.0304)
 -->
<!-- Title: /home/travis/build/AliceO2Group/AliceO2/Analysis/Core/include/Analysis/VarManager.h Pages: 1 -->
<svg width="337pt" height="117pt"
 viewBox="0.00 0.00 337.00 117.00" xmlns="http://www.w3.org/2000/svg" xmlns:xlink="http://www.w3.org/1999/xlink">
<g id="graph0" class="graph" transform="scale(1 1) rotate(0) translate(4 113)">
<title>/home/travis/build/AliceO2Group/AliceO2/Analysis/Core/include/Analysis/VarManager.h</title>
<!-- Node0 -->
<g id="node1" class="node">
<title>Node0</title>
<polygon fill="#bfbfbf" stroke="#000000" points="118.5,-56.5 118.5,-108.5 248.5,-108.5 248.5,-56.5 118.5,-56.5"/>
<text text-anchor="start" x="126.5" y="-96.5" font-family="Helvetica,sans-Serif" font-size="10.00" fill="#000000">/home/travis/build</text>
<text text-anchor="start" x="126.5" y="-85.5" font-family="Helvetica,sans-Serif" font-size="10.00" fill="#000000">/AliceO2Group/AliceO2</text>
<text text-anchor="start" x="126.5" y="-74.5" font-family="Helvetica,sans-Serif" font-size="10.00" fill="#000000">/Analysis/Core/include</text>
<text text-anchor="middle" x="183.5" y="-63.5" font-family="Helvetica,sans-Serif" font-size="10.00" fill="#000000">/Analysis/VarManager.h</text>
</g>
<!-- Node1 -->
<g id="node2" class="node">
<title>Node1</title>
<polygon fill="none" stroke="#bfbfbf" points="0,-.5 0,-19.5 63,-19.5 63,-.5 0,-.5"/>
<text text-anchor="middle" x="31.5" y="-7.5" font-family="Helvetica,sans-Serif" font-size="10.00" fill="#000000">TObject.h</text>
</g>
<!-- Node0&#45;&gt;Node1 -->
<g id="edge1" class="edge">
<title>Node0&#45;&gt;Node1</title>
<path fill="none" stroke="#191970" d="M128.6245,-56.3258C105.6368,-45.3613 79.8482,-33.0608 60.6246,-23.8917"/>
<polygon fill="#191970" stroke="#191970" points="62.0212,-20.6801 51.4885,-19.534 59.0076,-26.9982 62.0212,-20.6801"/>
</g>
<!-- Node2 -->
<g id="node3" class="node">
<title>Node2</title>
<polygon fill="none" stroke="#bfbfbf" points="81.5,-.5 81.5,-19.5 141.5,-19.5 141.5,-.5 81.5,-.5"/>
<text text-anchor="middle" x="111.5" y="-7.5" font-family="Helvetica,sans-Serif" font-size="10.00" fill="#000000">TString.h</text>
</g>
<!-- Node0&#45;&gt;Node2 -->
<g id="edge2" class="edge">
<title>Node0&#45;&gt;Node2</title>
<path fill="none" stroke="#191970" d="M157.5063,-56.3258C147.761,-46.5128 136.953,-35.6298 128.2626,-26.879"/>
<polygon fill="#191970" stroke="#191970" points="130.4983,-24.1632 120.9683,-19.534 125.5314,-29.0958 130.4983,-24.1632"/>
</g>
<!-- Node3 -->
<g id="node4" class="node">
<title>Node3</title>
<polygon fill="none" stroke="#bfbfbf" points="160,-.5 160,-19.5 207,-19.5 207,-.5 160,-.5"/>
<text text-anchor="middle" x="183.5" y="-7.5" font-family="Helvetica,sans-Serif" font-size="10.00" fill="#000000">vector</text>
</g>
<!-- Node0&#45;&gt;Node3 -->
<g id="edge3" class="edge">
<title>Node0&#45;&gt;Node3</title>
<path fill="none" stroke="#191970" d="M183.5,-56.3258C183.5,-47.5142 183.5,-37.8397 183.5,-29.621"/>
<polygon fill="#191970" stroke="#191970" points="187.0001,-29.534 183.5,-19.534 180.0001,-29.534 187.0001,-29.534"/>
</g>
<!-- Node4 -->
<g id="node5" class="node">
<title>Node4</title>
<polygon fill="none" stroke="#bfbfbf" points="225.5,-.5 225.5,-19.5 263.5,-19.5 263.5,-.5 225.5,-.5"/>
<text text-anchor="middle" x="244.5" y="-7.5" font-family="Helvetica,sans-Serif" font-size="10.00" fill="#000000">map</text>
</g>
<!-- Node0&#45;&gt;Node4 -->
<g id="edge4" class="edge">
<title>Node0&#45;&gt;Node4</title>
<path fill="none" stroke="#191970" d="M205.5224,-56.3258C213.6104,-46.7131 222.5623,-36.0735 229.8453,-27.4174"/>
<polygon fill="#191970" stroke="#191970" points="232.7183,-29.4392 236.4783,-19.534 227.362,-24.9325 232.7183,-29.4392"/>
</g>
<!-- Node5 -->
<g id="node6" class="node">
<title>Node5</title>
<polygon fill="none" stroke="#bfbfbf" points="282,-.5 282,-19.5 329,-19.5 329,-.5 282,-.5"/>
<text text-anchor="middle" x="305.5" y="-7.5" font-family="Helvetica,sans-Serif" font-size="10.00" fill="#000000">cmath</text>
</g>
<!-- Node0&#45;&gt;Node5 -->
<g id="edge5" class="edge">
<title>Node0&#45;&gt;Node5</title>
<path fill="none" stroke="#191970" d="M227.5448,-56.3258C245.4057,-45.7118 265.3733,-33.8458 280.6282,-24.7804"/>
<polygon fill="#191970" stroke="#191970" points="282.648,-27.6515 289.4566,-19.534 279.0719,-21.6339 282.648,-27.6515"/>
</g>
</g>
</svg>
