<?xml version="1.0" encoding="UTF-8" standalone="no"?>
<!DOCTYPE svg PUBLIC "-//W3C//DTD SVG 1.1//EN"
 "http://www.w3.org/Graphics/SVG/1.1/DTD/svg11.dtd">
<!-- Generated by graphviz version 2.40.1 (20161225.0304)
 -->
<!-- Title: /home/travis/build/AliceO2Group/AliceO2/DataFormats/Detectors/FIT/FT0/include/DataFormatsFT0/RecPoints.h Pages: 1 -->
<!--zoomable 361 -->
<svg id="main" version="1.1" xmlns="http://www.w3.org/2000/svg" xmlns:xlink="http://www.w3.org/1999/xlink" xml:space="preserve" onload="init(evt)">
<style type="text/css"><![CDATA[
.edge:hover path { stroke: red; }
.edge:hover polygon { stroke: red; fill: red; }
]]></style>
<script type="text/javascript"><![CDATA[
var edges = document.getElementsByTagName('g');
if (edges && edges.length) {
  for (var i=0;i<edges.length;i++) {
    if (edges[i].id.substr(0,4)=='edge') {
      edges[i].setAttribute('class','edge');
    }
  }
}
]]></script>
        <defs>
                <circle id="rim" cx="0" cy="0" r="7"/>
                <circle id="rim2" cx="0" cy="0" r="3.5"/>
                <g id="zoomPlus">
                        <use xlink:href="#rim" fill="#404040">
                                <set attributeName="fill" to="#808080" begin="zoomplus.mouseover" end="zoomplus.mouseout"/>
                        </use>
                        <path d="M-4,0h8M0,-4v8" fill="none" stroke="white" stroke-width="1.5" pointer-events="none"/>
                </g>
                <g id="zoomMin">
                        <use xlink:href="#rim" fill="#404040">
                                <set attributeName="fill" to="#808080" begin="zoomminus.mouseover" end="zoomminus.mouseout"/>
                        </use>
                        <path d="M-4,0h8" fill="none" stroke="white" stroke-width="1.5" pointer-events="none"/>
                </g>
                <g id="dirArrow">
                        <path fill="none" stroke="white" stroke-width="1.5" d="M0,-3.0v7 M-2.5,-0.5L0,-3.0L2.5,-0.5"/>
                </g>
               <g id="resetDef">
                       <use xlink:href="#rim2" fill="#404040">
                               <set attributeName="fill" to="#808080" begin="reset.mouseover" end="reset.mouseout"/>
                       </use>
               </g>
        </defs>

<script type="text/javascript">
var viewWidth = 1682;
var viewHeight = 361;
var sectionId = 'dynsection-1';
</script>
<script xlink:href="../../svgpan.js"/>
<svg id="graph" class="graph">
<g id="viewport">
<title>/home/travis/build/AliceO2Group/AliceO2/DataFormats/Detectors/FIT/FT0/include/DataFormatsFT0/RecPoints.h</title>
<!-- Node20 -->
<g id="node1" class="node">
<title>Node20</title>
<polygon fill="#bfbfbf" stroke="#000000" points="536.5,-289.5 536.5,-352.5 712.5,-352.5 712.5,-289.5 536.5,-289.5"/>
<text text-anchor="start" x="544.5" y="-340.5" font-family="Helvetica,sans-Serif" font-size="10.00" fill="#000000">/home/travis/build</text>
<text text-anchor="start" x="544.5" y="-329.5" font-family="Helvetica,sans-Serif" font-size="10.00" fill="#000000">/AliceO2Group/AliceO2</text>
<text text-anchor="start" x="544.5" y="-318.5" font-family="Helvetica,sans-Serif" font-size="10.00" fill="#000000">/DataFormats/Detectors</text>
<text text-anchor="start" x="544.5" y="-307.5" font-family="Helvetica,sans-Serif" font-size="10.00" fill="#000000">/FIT/FT0/include/DataFormatsFT0</text>
<text text-anchor="middle" x="624.5" y="-296.5" font-family="Helvetica,sans-Serif" font-size="10.00" fill="#000000">/RecPoints.h</text>
</g>
<!-- Node21 -->
<g id="node2" class="node">
<title>Node21</title>
<g id="a_node2"><a xlink:href="../../d3/d21/RecPoints_8cxx.html" target="_top" xlink:title="/home/travis/build\l/AliceO2Group/AliceO2\l/DataFormats/Detectors\l/FIT/FT0/src/RecPoints.cxx">
<polygon fill="none" stroke="#000000" points="10.5,-195 10.5,-247 152.5,-247 152.5,-195 10.5,-195"/>
<text text-anchor="start" x="18.5" y="-235" font-family="Helvetica,sans-Serif" font-size="10.00" fill="#000000">/home/travis/build</text>
<text text-anchor="start" x="18.5" y="-224" font-family="Helvetica,sans-Serif" font-size="10.00" fill="#000000">/AliceO2Group/AliceO2</text>
<text text-anchor="start" x="18.5" y="-213" font-family="Helvetica,sans-Serif" font-size="10.00" fill="#000000">/DataFormats/Detectors</text>
<text text-anchor="middle" x="81.5" y="-202" font-family="Helvetica,sans-Serif" font-size="10.00" fill="#000000">/FIT/FT0/src/RecPoints.cxx</text>
</a>
</g>
</g>
<!-- Node20&#45;&gt;Node21 -->
<g id="edge1" class="edge">
<title>Node20&#45;&gt;Node21</title>
<path fill="none" stroke="#191970" d="M526.4214,-312.5313C432.8548,-303.0277 288.499,-284.6363 166.5,-253 159.9368,-251.2981 153.1803,-249.265 146.4806,-247.0602"/>
<polygon fill="#191970" stroke="#191970" points="526.1445,-316.021 536.4435,-313.535 526.8421,-309.0559 526.1445,-316.021"/>
</g>
<!-- Node22 -->
<g id="node3" class="node">
<title>Node22</title>
<g id="a_node3"><a xlink:href="../../d1/d6c/CollisionTimeRecoTask_8h.html" target="_top" xlink:title="Definition of the FDD reconstruction. ">
<polygon fill="none" stroke="#000000" points="209,-189.5 209,-252.5 426,-252.5 426,-189.5 209,-189.5"/>
<text text-anchor="start" x="217" y="-240.5" font-family="Helvetica,sans-Serif" font-size="10.00" fill="#000000">/home/travis/build</text>
<text text-anchor="start" x="217" y="-229.5" font-family="Helvetica,sans-Serif" font-size="10.00" fill="#000000">/AliceO2Group/AliceO2</text>
<text text-anchor="start" x="217" y="-218.5" font-family="Helvetica,sans-Serif" font-size="10.00" fill="#000000">/Detectors/FIT/FT0/reconstruction</text>
<text text-anchor="start" x="217" y="-207.5" font-family="Helvetica,sans-Serif" font-size="10.00" fill="#000000">/include/FT0Reconstruction/CollisionTime</text>
<text text-anchor="middle" x="317.5" y="-196.5" font-family="Helvetica,sans-Serif" font-size="10.00" fill="#000000">RecoTask.h</text>
</a>
</g>
</g>
<!-- Node20&#45;&gt;Node22 -->
<g id="edge2" class="edge">
<title>Node20&#45;&gt;Node22</title>
<path fill="none" stroke="#191970" d="M526.1585,-288.9669C490.3982,-277.3186 450.0314,-264.1698 414.3972,-252.5626"/>
<polygon fill="#191970" stroke="#191970" points="525.5224,-292.4407 536.1148,-292.21 527.6905,-285.7849 525.5224,-292.4407"/>
</g>
<!-- Node23 -->
<g id="node4" class="node">
<title>Node23</title>
<g id="a_node4"><a xlink:href="../../d9/d2f/CollisionTimeRecoTask_8cxx.html" target="_top" xlink:title="Implementation of the FIT reconstruction task. ">
<polygon fill="none" stroke="#000000" points="0,-95 0,-147 177,-147 177,-95 0,-95"/>
<text text-anchor="start" x="8" y="-135" font-family="Helvetica,sans-Serif" font-size="10.00" fill="#000000">/home/travis/build</text>
<text text-anchor="start" x="8" y="-124" font-family="Helvetica,sans-Serif" font-size="10.00" fill="#000000">/AliceO2Group/AliceO2</text>
<text text-anchor="start" x="8" y="-113" font-family="Helvetica,sans-Serif" font-size="10.00" fill="#000000">/Detectors/FIT/FT0/reconstruction</text>
<text text-anchor="middle" x="88.5" y="-102" font-family="Helvetica,sans-Serif" font-size="10.00" fill="#000000">/src/CollisionTimeRecoTask.cxx</text>
</a>
</g>
</g>
<!-- Node20&#45;&gt;Node23 -->
<g id="edge7" class="edge">
<title>Node20&#45;&gt;Node23</title>
<path fill="none" stroke="#191970" d="M526.3106,-314.8883C417.7539,-306.486 251.3433,-288.2265 199.5,-253 172.1382,-234.4082 182.2578,-214.7573 161.5,-189 149.3275,-173.8957 133.8333,-158.9921 120.2537,-147.0045"/>
<polygon fill="#191970" stroke="#191970" points="526.067,-318.3798 536.3032,-315.6466 526.5967,-311.3998 526.067,-318.3798"/>
</g>
<!-- Node24 -->
<g id="node5" class="node">
<title>Node24</title>
<g id="a_node5"><a xlink:href="../../d9/d69/ReconstructionSpec_8h.html" target="_top" xlink:title="/home/travis/build\l/AliceO2Group/AliceO2\l/Detectors/FIT/FT0/workflow\l/include/FT0Workflow/ReconstructionSpec.h">
<polygon fill="none" stroke="#000000" points="195,-95 195,-147 422,-147 422,-95 195,-95"/>
<text text-anchor="start" x="203" y="-135" font-family="Helvetica,sans-Serif" font-size="10.00" fill="#000000">/home/travis/build</text>
<text text-anchor="start" x="203" y="-124" font-family="Helvetica,sans-Serif" font-size="10.00" fill="#000000">/AliceO2Group/AliceO2</text>
<text text-anchor="start" x="203" y="-113" font-family="Helvetica,sans-Serif" font-size="10.00" fill="#000000">/Detectors/FIT/FT0/workflow</text>
<text text-anchor="middle" x="308.5" y="-102" font-family="Helvetica,sans-Serif" font-size="10.00" fill="#000000">/include/FT0Workflow/ReconstructionSpec.h</text>
</a>
</g>
</g>
<!-- Node20&#45;&gt;Node24 -->
<g id="edge8" class="edge">
<title>Node20&#45;&gt;Node24</title>
<path fill="none" stroke="#191970" d="M549.3598,-284.5507C532.4012,-275.1307 514.879,-264.4011 499.5,-253 466.9315,-228.8557 467.1087,-213.0899 434.5,-189 413.0073,-173.1221 387.3469,-158.5884 364.8091,-147.0698"/>
<polygon fill="#191970" stroke="#191970" points="547.7077,-287.6363 558.1624,-289.3539 551.0607,-281.4916 547.7077,-287.6363"/>
</g>
<!-- Node27 -->
<g id="node8" class="node">
<title>Node27</title>
<g id="a_node8"><a xlink:href="../../db/d8e/FT0_2workflow_2include_2FT0Workflow_2RecPointReaderSpec_8h.html" target="_top" xlink:title="/home/travis/build\l/AliceO2Group/AliceO2\l/Detectors/FIT/FT0/workflow\l/include/FT0Workflow/RecPointReaderSpec.h">
<polygon fill="none" stroke="#000000" points="509,-195 509,-247 740,-247 740,-195 509,-195"/>
<text text-anchor="start" x="517" y="-235" font-family="Helvetica,sans-Serif" font-size="10.00" fill="#000000">/home/travis/build</text>
<text text-anchor="start" x="517" y="-224" font-family="Helvetica,sans-Serif" font-size="10.00" fill="#000000">/AliceO2Group/AliceO2</text>
<text text-anchor="start" x="517" y="-213" font-family="Helvetica,sans-Serif" font-size="10.00" fill="#000000">/Detectors/FIT/FT0/workflow</text>
<text text-anchor="middle" x="624.5" y="-202" font-family="Helvetica,sans-Serif" font-size="10.00" fill="#000000">/include/FT0Workflow/RecPointReaderSpec.h</text>
</a>
</g>
</g>
<!-- Node20&#45;&gt;Node27 -->
<g id="edge9" class="edge">
<title>Node20&#45;&gt;Node27</title>
<path fill="none" stroke="#191970" d="M624.5,-279.1631C624.5,-268.2863 624.5,-256.8798 624.5,-247.078"/>
<polygon fill="#191970" stroke="#191970" points="621.0001,-279.3593 624.5,-289.3594 628.0001,-279.3594 621.0001,-279.3593"/>
</g>
<!-- Node31 -->
<g id="node12" class="node">
<title>Node31</title>
<g id="a_node12"><a xlink:href="../../d4/d66/FT0_2workflow_2src_2RecPointWriterSpec_8cxx.html" target="_top" xlink:title="/home/travis/build\l/AliceO2Group/AliceO2\l/Detectors/FIT/FT0/workflow\l/src/RecPointWriterSpec.cxx">
<polygon fill="none" stroke="#000000" points="1521.5,-195 1521.5,-247 1673.5,-247 1673.5,-195 1521.5,-195"/>
<text text-anchor="start" x="1529.5" y="-235" font-family="Helvetica,sans-Serif" font-size="10.00" fill="#000000">/home/travis/build</text>
<text text-anchor="start" x="1529.5" y="-224" font-family="Helvetica,sans-Serif" font-size="10.00" fill="#000000">/AliceO2Group/AliceO2</text>
<text text-anchor="start" x="1529.5" y="-213" font-family="Helvetica,sans-Serif" font-size="10.00" fill="#000000">/Detectors/FIT/FT0/workflow</text>
<text text-anchor="middle" x="1597.5" y="-202" font-family="Helvetica,sans-Serif" font-size="10.00" fill="#000000">/src/RecPointWriterSpec.cxx</text>
</a>
</g>
</g>
<!-- Node20&#45;&gt;Node31 -->
<g id="edge13" class="edge">
<title>Node20&#45;&gt;Node31</title>
<path fill="none" stroke="#191970" d="M722.714,-316.7153C920.4059,-307.5526 1360.0407,-284.3122 1507.5,-253 1514.9619,-251.4155 1522.6481,-249.3672 1530.237,-247.073"/>
<polygon fill="#191970" stroke="#191970" points="722.4526,-313.2235 712.6244,-317.1804 722.775,-320.2161 722.4526,-313.2235"/>
</g>
<!-- Node32 -->
<g id="node13" class="node">
<title>Node32</title>
<g id="a_node13"><a xlink:href="../../d0/d74/MatchTOF_8h.html" target="_top" xlink:title="Class to perform TOF matching to global tracks. ">
<polygon fill="none" stroke="#000000" points="1277.5,-95 1277.5,-147 1465.5,-147 1465.5,-95 1277.5,-95"/>
<text text-anchor="start" x="1285.5" y="-135" font-family="Helvetica,sans-Serif" font-size="10.00" fill="#000000">/home/travis/build</text>
<text text-anchor="start" x="1285.5" y="-124" font-family="Helvetica,sans-Serif" font-size="10.00" fill="#000000">/AliceO2Group/AliceO2</text>
<text text-anchor="start" x="1285.5" y="-113" font-family="Helvetica,sans-Serif" font-size="10.00" fill="#000000">/Detectors/GlobalTracking</text>
<text text-anchor="middle" x="1371.5" y="-102" font-family="Helvetica,sans-Serif" font-size="10.00" fill="#000000">/include/GlobalTracking/MatchTOF.h</text>
</a>
</g>
</g>
<!-- Node20&#45;&gt;Node32 -->
<g id="edge14" class="edge">
<title>Node20&#45;&gt;Node32</title>
<path fill="none" stroke="#191970" d="M722.6122,-319.4272C877.5518,-315.4744 1170.6361,-301.6062 1261.5,-253 1306.4795,-228.9389 1340.4492,-178.1259 1358.0485,-147.0355"/>
<polygon fill="#191970" stroke="#191970" points="722.5207,-315.9283 712.61,-319.6734 722.6931,-322.9261 722.5207,-315.9283"/>
</g>
<!-- Node34 -->
<g id="node15" class="node">
<title>Node34</title>
<g id="a_node15"><a xlink:href="../../d8/d84/RecoWorkflowSpec_8cxx.html" target="_top" xlink:title="/home/travis/build\l/AliceO2Group/AliceO2\l/Detectors/GlobalTrackingWorkflow\l/tofworkflow/src/RecoWorkflowSpec.cxx">
<polygon fill="none" stroke="#000000" points="1376,-.5 1376,-52.5 1585,-52.5 1585,-.5 1376,-.5"/>
<text text-anchor="start" x="1384" y="-40.5" font-family="Helvetica,sans-Serif" font-size="10.00" fill="#000000">/home/travis/build</text>
<text text-anchor="start" x="1384" y="-29.5" font-family="Helvetica,sans-Serif" font-size="10.00" fill="#000000">/AliceO2Group/AliceO2</text>
<text text-anchor="start" x="1384" y="-18.5" font-family="Helvetica,sans-Serif" font-size="10.00" fill="#000000">/Detectors/GlobalTrackingWorkflow</text>
<text text-anchor="middle" x="1480.5" y="-7.5" font-family="Helvetica,sans-Serif" font-size="10.00" fill="#000000">/tofworkflow/src/RecoWorkflowSpec.cxx</text>
</a>
</g>
</g>
<!-- Node20&#45;&gt;Node34 -->
<g id="edge24" class="edge">
<title>Node20&#45;&gt;Node34</title>
<path fill="none" stroke="#191970" d="M722.6876,-316.6066C885.3274,-308.4367 1203.2442,-288.4368 1309.5,-253 1390.8455,-225.8709 1430.6584,-226.6953 1474.5,-153 1492.7667,-122.2946 1490.2608,-79.6004 1485.9937,-52.5095"/>
<polygon fill="#191970" stroke="#191970" points="722.4933,-313.1119 712.6795,-317.1043 722.841,-320.1032 722.4933,-313.1119"/>
</g>
<!-- Node35 -->
<g id="node16" class="node">
<title>Node35</title>
<g id="a_node16"><a xlink:href="../../d3/dac/MatchTPCITS_8h.html" target="_top" xlink:title="Class to perform TPC ITS matching. ">
<polygon fill="none" stroke="#000000" points="1048,-195 1048,-247 1253,-247 1253,-195 1048,-195"/>
<text text-anchor="start" x="1056" y="-235" font-family="Helvetica,sans-Serif" font-size="10.00" fill="#000000">/home/travis/build</text>
<text text-anchor="start" x="1056" y="-224" font-family="Helvetica,sans-Serif" font-size="10.00" fill="#000000">/AliceO2Group/AliceO2</text>
<text text-anchor="start" x="1056" y="-213" font-family="Helvetica,sans-Serif" font-size="10.00" fill="#000000">/Detectors/GlobalTracking</text>
<text text-anchor="middle" x="1150.5" y="-202" font-family="Helvetica,sans-Serif" font-size="10.00" fill="#000000">/include/GlobalTracking/MatchTPCITS.h</text>
</a>
</g>
</g>
<!-- Node20&#45;&gt;Node35 -->
<g id="edge17" class="edge">
<title>Node20&#45;&gt;Node35</title>
<path fill="none" stroke="#191970" d="M722.4789,-302.3728C815.1061,-284.7631 953.5565,-258.4417 1047.7257,-240.5388"/>
<polygon fill="#191970" stroke="#191970" points="721.7109,-298.9561 712.5406,-304.2622 723.0183,-305.8329 721.7109,-298.9561"/>
</g>
<!-- Node22&#45;&gt;Node23 -->
<g id="edge3" class="edge">
<title>Node22&#45;&gt;Node23</title>
<path fill="none" stroke="#191970" d="M236.0867,-185.4483C207.1676,-172.8199 175.168,-158.8463 148.3784,-147.1478"/>
<polygon fill="#191970" stroke="#191970" points="234.7923,-188.7022 245.3573,-189.4966 237.5936,-182.2872 234.7923,-188.7022"/>
</g>
<!-- Node22&#45;&gt;Node24 -->
<g id="edge4" class="edge">
<title>Node22&#45;&gt;Node24</title>
<path fill="none" stroke="#191970" d="M313.7347,-179.1631C312.7558,-168.2863 311.7292,-156.8798 310.847,-147.078"/>
<polygon fill="#191970" stroke="#191970" points="310.27,-179.7134 314.6523,-189.3594 317.2418,-179.0859 310.27,-179.7134"/>
</g>
<!-- Node25 -->
<g id="node6" class="node">
<title>Node25</title>
<g id="a_node6"><a xlink:href="../../d1/d6b/ReconstructionSpec_8cxx.html" target="_top" xlink:title="/home/travis/build\l/AliceO2Group/AliceO2\l/Detectors/FIT/FT0/workflow\l/src/ReconstructionSpec.cxx">
<polygon fill="none" stroke="#000000" points="147.5,-.5 147.5,-52.5 299.5,-52.5 299.5,-.5 147.5,-.5"/>
<text text-anchor="start" x="155.5" y="-40.5" font-family="Helvetica,sans-Serif" font-size="10.00" fill="#000000">/home/travis/build</text>
<text text-anchor="start" x="155.5" y="-29.5" font-family="Helvetica,sans-Serif" font-size="10.00" fill="#000000">/AliceO2Group/AliceO2</text>
<text text-anchor="start" x="155.5" y="-18.5" font-family="Helvetica,sans-Serif" font-size="10.00" fill="#000000">/Detectors/FIT/FT0/workflow</text>
<text text-anchor="middle" x="223.5" y="-7.5" font-family="Helvetica,sans-Serif" font-size="10.00" fill="#000000">/src/ReconstructionSpec.cxx</text>
</a>
</g>
</g>
<!-- Node24&#45;&gt;Node25 -->
<g id="edge5" class="edge">
<title>Node24&#45;&gt;Node25</title>
<path fill="none" stroke="#191970" d="M278.1866,-87.2986C267.9927,-75.9654 256.777,-63.4962 247.1702,-52.8157"/>
<polygon fill="#191970" stroke="#191970" points="275.7586,-89.833 285.0484,-94.9273 280.9631,-85.1518 275.7586,-89.833"/>
</g>
<!-- Node26 -->
<g id="node7" class="node">
<title>Node26</title>
<g id="a_node7"><a xlink:href="../../d3/d63/FIT_2FT0_2workflow_2src_2RecoWorkflow_8cxx.html" target="_top" xlink:title="/home/travis/build\l/AliceO2Group/AliceO2\l/Detectors/FIT/FT0/workflow\l/src/RecoWorkflow.cxx">
<polygon fill="none" stroke="#000000" points="317.5,-.5 317.5,-52.5 469.5,-52.5 469.5,-.5 317.5,-.5"/>
<text text-anchor="start" x="325.5" y="-40.5" font-family="Helvetica,sans-Serif" font-size="10.00" fill="#000000">/home/travis/build</text>
<text text-anchor="start" x="325.5" y="-29.5" font-family="Helvetica,sans-Serif" font-size="10.00" fill="#000000">/AliceO2Group/AliceO2</text>
<text text-anchor="start" x="325.5" y="-18.5" font-family="Helvetica,sans-Serif" font-size="10.00" fill="#000000">/Detectors/FIT/FT0/workflow</text>
<text text-anchor="middle" x="393.5" y="-7.5" font-family="Helvetica,sans-Serif" font-size="10.00" fill="#000000">/src/RecoWorkflow.cxx</text>
</a>
</g>
</g>
<!-- Node24&#45;&gt;Node26 -->
<g id="edge6" class="edge">
<title>Node24&#45;&gt;Node26</title>
<path fill="none" stroke="#191970" d="M338.8134,-87.2986C349.0073,-75.9654 360.223,-63.4962 369.8298,-52.8157"/>
<polygon fill="#191970" stroke="#191970" points="336.0369,-85.1518 331.9516,-94.9273 341.2414,-89.833 336.0369,-85.1518"/>
</g>
<!-- Node28 -->
<g id="node9" class="node">
<title>Node28</title>
<g id="a_node9"><a xlink:href="../../d8/df2/FT0_2workflow_2src_2RecPointReaderSpec_8cxx.html" target="_top" xlink:title="/home/travis/build\l/AliceO2Group/AliceO2\l/Detectors/FIT/FT0/workflow\l/src/RecPointReaderSpec.cxx">
<polygon fill="none" stroke="#000000" points="440.5,-95 440.5,-147 596.5,-147 596.5,-95 440.5,-95"/>
<text text-anchor="start" x="448.5" y="-135" font-family="Helvetica,sans-Serif" font-size="10.00" fill="#000000">/home/travis/build</text>
<text text-anchor="start" x="448.5" y="-124" font-family="Helvetica,sans-Serif" font-size="10.00" fill="#000000">/AliceO2Group/AliceO2</text>
<text text-anchor="start" x="448.5" y="-113" font-family="Helvetica,sans-Serif" font-size="10.00" fill="#000000">/Detectors/FIT/FT0/workflow</text>
<text text-anchor="middle" x="518.5" y="-102" font-family="Helvetica,sans-Serif" font-size="10.00" fill="#000000">/src/RecPointReaderSpec.cxx</text>
</a>
</g>
</g>
<!-- Node27&#45;&gt;Node28 -->
<g id="edge10" class="edge">
<title>Node27&#45;&gt;Node28</title>
<path fill="none" stroke="#191970" d="M589.3706,-187.8591C575.3686,-174.6496 559.4819,-159.6622 546.3037,-147.2299"/>
<polygon fill="#191970" stroke="#191970" points="587.2507,-190.6709 596.9265,-194.9872 592.0543,-185.5791 587.2507,-190.6709"/>
</g>
<!-- Node29 -->
<g id="node10" class="node">
<title>Node29</title>
<g id="a_node10"><a xlink:href="../../d5/db4/MatchTPCITSWorkflow_8cxx.html" target="_top" xlink:title="/home/travis/build\l/AliceO2Group/AliceO2\l/Detectors/GlobalTrackingWorkflow\l/src/MatchTPCITSWorkflow.cxx">
<polygon fill="none" stroke="#000000" points="621,-.5 621,-52.5 808,-52.5 808,-.5 621,-.5"/>
<text text-anchor="start" x="629" y="-40.5" font-family="Helvetica,sans-Serif" font-size="10.00" fill="#000000">/home/travis/build</text>
<text text-anchor="start" x="629" y="-29.5" font-family="Helvetica,sans-Serif" font-size="10.00" fill="#000000">/AliceO2Group/AliceO2</text>
<text text-anchor="start" x="629" y="-18.5" font-family="Helvetica,sans-Serif" font-size="10.00" fill="#000000">/Detectors/GlobalTrackingWorkflow</text>
<text text-anchor="middle" x="714.5" y="-7.5" font-family="Helvetica,sans-Serif" font-size="10.00" fill="#000000">/src/MatchTPCITSWorkflow.cxx</text>
</a>
</g>
</g>
<!-- Node27&#45;&gt;Node29 -->
<g id="edge11" class="edge">
<title>Node27&#45;&gt;Node29</title>
<path fill="none" stroke="#191970" d="M623.108,-184.712C623.5513,-156.9413 627.5261,-118.5221 643.5,-89 651.0805,-74.9901 663.1098,-62.624 675.1283,-52.6674"/>
<polygon fill="#191970" stroke="#191970" points="619.608,-184.7882 623.0933,-194.7933 626.608,-184.7984 619.608,-184.7882"/>
</g>
<!-- Node30 -->
<g id="node11" class="node">
<title>Node30</title>
<g id="a_node11"><a xlink:href="../../da/dfd/tof-reco-workflow_8cxx.html" target="_top" xlink:title="Basic DPL workflow for TOF reconstruction starting from digits. ">
<polygon fill="none" stroke="#000000" points="653,-95 653,-147 856,-147 856,-95 653,-95"/>
<text text-anchor="start" x="661" y="-135" font-family="Helvetica,sans-Serif" font-size="10.00" fill="#000000">/home/travis/build</text>
<text text-anchor="start" x="661" y="-124" font-family="Helvetica,sans-Serif" font-size="10.00" fill="#000000">/AliceO2Group/AliceO2</text>
<text text-anchor="start" x="661" y="-113" font-family="Helvetica,sans-Serif" font-size="10.00" fill="#000000">/Detectors/GlobalTrackingWorkflow</text>
<text text-anchor="middle" x="754.5" y="-102" font-family="Helvetica,sans-Serif" font-size="10.00" fill="#000000">/tofworkflow/src/tof&#45;reco&#45;workflow.cxx</text>
</a>
</g>
</g>
<!-- Node27&#45;&gt;Node30 -->
<g id="edge12" class="edge">
<title>Node27&#45;&gt;Node30</title>
<path fill="none" stroke="#191970" d="M666.6316,-188.5911C684.0327,-175.2056 703.9399,-159.8924 720.4011,-147.2299"/>
<polygon fill="#191970" stroke="#191970" points="664.1089,-186.1159 658.3166,-194.9872 668.3769,-191.6643 664.1089,-186.1159"/>
</g>
<!-- Node33 -->
<g id="node14" class="node">
<title>Node33</title>
<g id="a_node14"><a xlink:href="../../db/d6a/MatchTOF_8cxx.html" target="_top" xlink:title="/home/travis/build\l/AliceO2Group/AliceO2\l/Detectors/GlobalTracking\l/src/MatchTOF.cxx">
<polygon fill="none" stroke="#000000" points="1190.5,-.5 1190.5,-52.5 1332.5,-52.5 1332.5,-.5 1190.5,-.5"/>
<text text-anchor="start" x="1198.5" y="-40.5" font-family="Helvetica,sans-Serif" font-size="10.00" fill="#000000">/home/travis/build</text>
<text text-anchor="start" x="1198.5" y="-29.5" font-family="Helvetica,sans-Serif" font-size="10.00" fill="#000000">/AliceO2Group/AliceO2</text>
<text text-anchor="start" x="1198.5" y="-18.5" font-family="Helvetica,sans-Serif" font-size="10.00" fill="#000000">/Detectors/GlobalTracking</text>
<text text-anchor="middle" x="1261.5" y="-7.5" font-family="Helvetica,sans-Serif" font-size="10.00" fill="#000000">/src/MatchTOF.cxx</text>
</a>
</g>
</g>
<!-- Node32&#45;&gt;Node33 -->
<g id="edge15" class="edge">
<title>Node32&#45;&gt;Node33</title>
<path fill="none" stroke="#191970" d="M1333.4092,-88.2765C1319.9179,-76.6863 1304.923,-63.8043 1292.132,-52.8157"/>
<polygon fill="#191970" stroke="#191970" points="1331.2848,-91.0657 1341.1508,-94.9273 1335.8463,-85.756 1331.2848,-91.0657"/>
</g>
<!-- Node32&#45;&gt;Node34 -->
<g id="edge16" class="edge">
<title>Node32&#45;&gt;Node34</title>
<path fill="none" stroke="#191970" d="M1409.2446,-88.2765C1422.6132,-76.6863 1437.4718,-63.8043 1450.1465,-52.8157"/>
<polygon fill="#191970" stroke="#191970" points="1406.8363,-85.7321 1401.5733,-94.9273 1411.4218,-91.0212 1406.8363,-85.7321"/>
</g>
<!-- Node35&#45;&gt;Node32 -->
<g id="edge18" class="edge">
<title>Node35&#45;&gt;Node32</title>
<path fill="none" stroke="#191970" d="M1217.3602,-190.7465C1248.1589,-176.8105 1284.3465,-160.436 1313.9161,-147.0561"/>
<polygon fill="#191970" stroke="#191970" points="1215.6561,-187.6759 1207.9882,-194.9872 1218.5418,-194.0534 1215.6561,-187.6759"/>
</g>
<!-- Node35&#45;&gt;Node33 -->
<g id="edge19" class="edge">
<title>Node35&#45;&gt;Node33</title>
<path fill="none" stroke="#191970" d="M1198.5271,-188.5575C1210.4943,-178.4249 1222.2492,-166.3579 1230.5,-153 1249.7498,-121.8349 1257.0506,-79.456 1259.8167,-52.5359"/>
<polygon fill="#191970" stroke="#191970" points="1196.2301,-185.914 1190.6671,-194.9308 1200.6389,-191.3511 1196.2301,-185.914"/>
</g>
<!-- Node36 -->
<g id="node17" class="node">
<title>Node36</title>
<g id="a_node17"><a xlink:href="../../dc/d59/MatchTPCITS_8cxx.html" target="_top" xlink:title="/home/travis/build\l/AliceO2Group/AliceO2\l/Detectors/GlobalTracking\l/src/MatchTPCITS.cxx">
<polygon fill="none" stroke="#000000" points="1079.5,-95 1079.5,-147 1221.5,-147 1221.5,-95 1079.5,-95"/>
<text text-anchor="start" x="1087.5" y="-135" font-family="Helvetica,sans-Serif" font-size="10.00" fill="#000000">/home/travis/build</text>
<text text-anchor="start" x="1087.5" y="-124" font-family="Helvetica,sans-Serif" font-size="10.00" fill="#000000">/AliceO2Group/AliceO2</text>
<text text-anchor="start" x="1087.5" y="-113" font-family="Helvetica,sans-Serif" font-size="10.00" fill="#000000">/Detectors/GlobalTracking</text>
<text text-anchor="middle" x="1150.5" y="-102" font-family="Helvetica,sans-Serif" font-size="10.00" fill="#000000">/src/MatchTPCITS.cxx</text>
</a>
</g>
</g>
<!-- Node35&#45;&gt;Node36 -->
<g id="edge20" class="edge">
<title>Node35&#45;&gt;Node36</title>
<path fill="none" stroke="#191970" d="M1150.5,-184.8962C1150.5,-172.4433 1150.5,-158.7413 1150.5,-147.2299"/>
<polygon fill="#191970" stroke="#191970" points="1147.0001,-184.9872 1150.5,-194.9872 1154.0001,-184.9873 1147.0001,-184.9872"/>
</g>
<!-- Node37 -->
<g id="node18" class="node">
<title>Node37</title>
<g id="a_node18"><a xlink:href="../../da/d20/TPCITSMatchingSpec_8h.html" target="_top" xlink:title="/home/travis/build\l/AliceO2Group/AliceO2\l/Detectors/GlobalTrackingWorkflow\l/include/GlobalTrackingWorkflow\l/TPCITSMatchingSpec.h">
<polygon fill="none" stroke="#000000" points="874,-89.5 874,-152.5 1061,-152.5 1061,-89.5 874,-89.5"/>
<text text-anchor="start" x="882" y="-140.5" font-family="Helvetica,sans-Serif" font-size="10.00" fill="#000000">/home/travis/build</text>
<text text-anchor="start" x="882" y="-129.5" font-family="Helvetica,sans-Serif" font-size="10.00" fill="#000000">/AliceO2Group/AliceO2</text>
<text text-anchor="start" x="882" y="-118.5" font-family="Helvetica,sans-Serif" font-size="10.00" fill="#000000">/Detectors/GlobalTrackingWorkflow</text>
<text text-anchor="start" x="882" y="-107.5" font-family="Helvetica,sans-Serif" font-size="10.00" fill="#000000">/include/GlobalTrackingWorkflow</text>
<text text-anchor="middle" x="967.5" y="-96.5" font-family="Helvetica,sans-Serif" font-size="10.00" fill="#000000">/TPCITSMatchingSpec.h</text>
</a>
</g>
</g>
<!-- Node35&#45;&gt;Node37 -->
<g id="edge21" class="edge">
<title>Node35&#45;&gt;Node37</title>
<path fill="none" stroke="#191970" d="M1094.0679,-190.1628C1072.237,-178.2333 1047.2679,-164.589 1025.3081,-152.5891"/>
<polygon fill="#191970" stroke="#191970" points="1092.443,-193.2633 1102.8966,-194.9872 1095.7997,-187.1206 1092.443,-193.2633"/>
</g>
<!-- Node37&#45;&gt;Node29 -->
<g id="edge22" class="edge">
<title>Node37&#45;&gt;Node29</title>
<path fill="none" stroke="#191970" d="M873.4113,-85.8562C843.8759,-74.8242 811.8129,-62.8481 784.2736,-52.5617"/>
<polygon fill="#191970" stroke="#191970" points="872.3104,-89.1811 882.9029,-89.4015 874.7598,-82.6236 872.3104,-89.1811"/>
</g>
<!-- Node38 -->
<g id="node19" class="node">
<title>Node38</title>
<g id="a_node19"><a xlink:href="../../d6/d73/TPCITSMatchingSpec_8cxx.html" target="_top" xlink:title="/home/travis/build\l/AliceO2Group/AliceO2\l/Detectors/GlobalTrackingWorkflow\l/src/TPCITSMatchingSpec.cxx">
<polygon fill="none" stroke="#000000" points="874,-.5 874,-52.5 1061,-52.5 1061,-.5 874,-.5"/>
<text text-anchor="start" x="882" y="-40.5" font-family="Helvetica,sans-Serif" font-size="10.00" fill="#000000">/home/travis/build</text>
<text text-anchor="start" x="882" y="-29.5" font-family="Helvetica,sans-Serif" font-size="10.00" fill="#000000">/AliceO2Group/AliceO2</text>
<text text-anchor="start" x="882" y="-18.5" font-family="Helvetica,sans-Serif" font-size="10.00" fill="#000000">/Detectors/GlobalTrackingWorkflow</text>
<text text-anchor="middle" x="967.5" y="-7.5" font-family="Helvetica,sans-Serif" font-size="10.00" fill="#000000">/src/TPCITSMatchingSpec.cxx</text>
</a>
</g>
</g>
<!-- Node37&#45;&gt;Node38 -->
<g id="edge23" class="edge">
<title>Node37&#45;&gt;Node38</title>
<path fill="none" stroke="#191970" d="M967.5,-79.2457C967.5,-70.2008 967.5,-60.8836 967.5,-52.6442"/>
<polygon fill="#191970" stroke="#191970" points="964.0001,-79.2699 967.5,-89.27 971.0001,-79.27 964.0001,-79.2699"/>
</g>
</g>
</svg>
        <g id="navigator" transform="translate(0 0)" fill="#404254">
                <rect fill="#f2f5e9" fill-opacity="0.5" stroke="#606060" stroke-width=".5" x="0" y="0" width="60" height="60"/>
                <use id="zoomplus" xlink:href="#zoomPlus" x="17" y="9" onmousedown="handleZoom(evt,'in')"/>
                <use id="zoomminus" xlink:href="#zoomMin" x="42" y="9" onmousedown="handleZoom(evt,'out')"/>
                <use id="reset" xlink:href="#resetDef" x="30" y="36" onmousedown="handleReset()"/>
                <g id="arrowUp" xlink:href="#dirArrow" transform="translate(30 24)" onmousedown="handlePan(0,-1)">
                  <use xlink:href="#rim" fill="#404040">
                        <set attributeName="fill" to="#808080" begin="arrowUp.mouseover" end="arrowUp.mouseout"/>
                  </use>
                  <path fill="none" stroke="white" stroke-width="1.5" d="M0,-3.0v7 M-2.5,-0.5L0,-3.0L2.5,-0.5"/>
                </g>
                <g id="arrowRight" xlink:href="#dirArrow" transform="rotate(90) translate(36 -43)" onmousedown="handlePan(1,0)">
                  <use xlink:href="#rim" fill="#404040">
                        <set attributeName="fill" to="#808080" begin="arrowRight.mouseover" end="arrowRight.mouseout"/>
                  </use>
                  <path fill="none" stroke="white" stroke-width="1.5" d="M0,-3.0v7 M-2.5,-0.5L0,-3.0L2.5,-0.5"/>
                </g>
                <g id="arrowDown" xlink:href="#dirArrow" transform="rotate(180) translate(-30 -48)" onmousedown="handlePan(0,1)">
                  <use xlink:href="#rim" fill="#404040">
                        <set attributeName="fill" to="#808080" begin="arrowDown.mouseover" end="arrowDown.mouseout"/>
                  </use>
                  <path fill="none" stroke="white" stroke-width="1.5" d="M0,-3.0v7 M-2.5,-0.5L0,-3.0L2.5,-0.5"/>
                </g>
                <g id="arrowLeft" xlink:href="#dirArrow" transform="rotate(270) translate(-36 17)" onmousedown="handlePan(-1,0)">
                  <use xlink:href="#rim" fill="#404040">
                        <set attributeName="fill" to="#808080" begin="arrowLeft.mouseover" end="arrowLeft.mouseout"/>
                  </use>
                  <path fill="none" stroke="white" stroke-width="1.5" d="M0,-3.0v7 M-2.5,-0.5L0,-3.0L2.5,-0.5"/>
                </g>
        </g>
        <svg viewBox="0 0 15 15" width="100%" height="30px" preserveAspectRatio="xMaxYMin meet">
         <g id="arrow_out" transform="scale(0.3 0.3)">
          <a xlink:href="RecPoints_8h__dep__incl_org.svg" target="_base">
           <rect id="button" ry="5" rx="5" y="6" x="6" height="38" width="38"
                fill="#f2f5e9" fill-opacity="0.5" stroke="#606060" stroke-width="1.0"/>
           <path id="arrow"
             d="M 11.500037,31.436501 C 11.940474,20.09759 22.043105,11.32322 32.158766,21.979434 L 37.068811,17.246167 C 37.068811,17.246167 37.088388,32 37.088388,32 L 22.160133,31.978069 C 22.160133,31.978069 26.997745,27.140456 26.997745,27.140456 C 18.528582,18.264221 13.291696,25.230495 11.500037,31.436501 z"
             style="fill:#404040;"/>
          </a>
         </g>
        </svg>
</svg>
