<?xml version="1.0" encoding="UTF-8" standalone="no"?>
<!DOCTYPE svg PUBLIC "-//W3C//DTD SVG 1.1//EN"
 "http://www.w3.org/Graphics/SVG/1.1/DTD/svg11.dtd">
<!-- Generated by graphviz version 2.40.1 (20161225.0304)
 -->
<!-- Title: o2::phos::PHOSBlockHeader Pages: 1 -->
<svg width="1076pt" height="1003pt"
 viewBox="0.00 0.00 1076.00 1003.00" xmlns="http://www.w3.org/2000/svg" xmlns:xlink="http://www.w3.org/1999/xlink">
<g id="graph0" class="graph" transform="scale(1 1) rotate(0) translate(4 999)">
<title>o2::phos::PHOSBlockHeader</title>
<!-- Node2 -->
<g id="node1" class="node">
<title>Node2</title>
<polygon fill="#bfbfbf" stroke="#000000" points="741.5,-.5 741.5,-57.5 894.5,-57.5 894.5,-.5 741.5,-.5"/>
<text text-anchor="middle" x="818" y="-45.5" font-family="Helvetica,sans-Serif" font-size="10.00" fill="#000000">o2::phos::PHOSBlockHeader</text>
<polyline fill="none" stroke="#000000" points="741.5,-38.5 894.5,-38.5 "/>
<text text-anchor="middle" x="818" y="-26.5" font-family="Helvetica,sans-Serif" font-size="10.00" fill="#000000"> </text>
<polyline fill="none" stroke="#000000" points="741.5,-19.5 894.5,-19.5 "/>
<text text-anchor="start" x="749.5" y="-7.5" font-family="Helvetica,sans-Serif" font-size="10.00" fill="#000000">+ PHOSBlockHeader()</text>
</g>
<!-- Node3 -->
<g id="node2" class="node">
<title>Node3</title>
<g id="a_node2"><a xlink:href="../../d8/dbd/structo2_1_1header_1_1BaseHeader.html" target="_top" xlink:title="the base header struct Every header type must begin (i.e. derive) with this. Don&#39;t use this struct di...">
<polygon fill="none" stroke="#000000" points="324.5,-105.5 324.5,-272.5 497.5,-272.5 497.5,-105.5 324.5,-105.5"/>
<text text-anchor="middle" x="411" y="-260.5" font-family="Helvetica,sans-Serif" font-size="10.00" fill="#000000">o2::header::BaseHeader</text>
<polyline fill="none" stroke="#000000" points="324.5,-253.5 497.5,-253.5 "/>
<text text-anchor="middle" x="411" y="-241.5" font-family="Helvetica,sans-Serif" font-size="10.00" fill="#000000"> </text>
<polyline fill="none" stroke="#000000" points="324.5,-234.5 497.5,-234.5 "/>
<text text-anchor="start" x="332.5" y="-222.5" font-family="Helvetica,sans-Serif" font-size="10.00" fill="#000000">+ BaseHeader()</text>
<text text-anchor="start" x="332.5" y="-211.5" font-family="Helvetica,sans-Serif" font-size="10.00" fill="#000000">+ BaseHeader()</text>
<text text-anchor="start" x="332.5" y="-200.5" font-family="Helvetica,sans-Serif" font-size="10.00" fill="#000000">+ BaseHeader()</text>
<text text-anchor="start" x="332.5" y="-189.5" font-family="Helvetica,sans-Serif" font-size="10.00" fill="#000000">+ size()</text>
<text text-anchor="start" x="332.5" y="-178.5" font-family="Helvetica,sans-Serif" font-size="10.00" fill="#000000">+ data()</text>
<text text-anchor="start" x="332.5" y="-167.5" font-family="Helvetica,sans-Serif" font-size="10.00" fill="#000000">+ next()</text>
<text text-anchor="start" x="332.5" y="-156.5" font-family="Helvetica,sans-Serif" font-size="10.00" fill="#000000">+ next()</text>
<text text-anchor="start" x="332.5" y="-145.5" font-family="Helvetica,sans-Serif" font-size="10.00" fill="#000000">+ sanityCheck()</text>
<text text-anchor="start" x="332.5" y="-134.5" font-family="Helvetica,sans-Serif" font-size="10.00" fill="#000000">+ throwInconsistentStackError()</text>
<text text-anchor="start" x="332.5" y="-123.5" font-family="Helvetica,sans-Serif" font-size="10.00" fill="#000000">+ get()</text>
<text text-anchor="start" x="332.5" y="-112.5" font-family="Helvetica,sans-Serif" font-size="10.00" fill="#000000">+ get()</text>
</a>
</g>
</g>
<!-- Node3&#45;&gt;Node2 -->
<g id="edge1" class="edge">
<title>Node3&#45;&gt;Node2</title>
<path fill="none" stroke="#191970" d="M507.4727,-151.0746C580.3813,-122.4127 678.9091,-83.6795 745.2627,-57.5945"/>
<polygon fill="none" stroke="#191970" points="505.8386,-147.9562 497.8125,-154.8722 508.3997,-154.4709 505.8386,-147.9562"/>
</g>
<!-- Node4 -->
<g id="node3" class="node">
<title>Node4</title>
<g id="a_node3"><a xlink:href="../../d9/db3/structo2_1_1header_1_1Descriptor.html" target="_top" xlink:title="{o2::header::Descriptor\l\&lt; gSizeHeaderDescriptionString \&gt;\n||+ Descriptor()\l+ Descriptor()\l+ Descriptor()\l+ Descriptor()\l+ operator=()\l+ operator ItgType()\l+ runtimeInit()\l+ operator==()\l+ operator==()\l+ operator\&lt;()\l+ operator!=()\l+ operator!=()\l+ as()\l+ print()\l}">
<polygon fill="none" stroke="#000000" points="387.5,-386.5 387.5,-597.5 572.5,-597.5 572.5,-386.5 387.5,-386.5"/>
<text text-anchor="start" x="395.5" y="-585.5" font-family="Helvetica,sans-Serif" font-size="10.00" fill="#000000">o2::header::Descriptor</text>
<text text-anchor="middle" x="480" y="-574.5" font-family="Helvetica,sans-Serif" font-size="10.00" fill="#000000">&lt; gSizeHeaderDescriptionString &gt;</text>
<polyline fill="none" stroke="#000000" points="387.5,-567.5 572.5,-567.5 "/>
<text text-anchor="middle" x="480" y="-555.5" font-family="Helvetica,sans-Serif" font-size="10.00" fill="#000000"> </text>
<polyline fill="none" stroke="#000000" points="387.5,-548.5 572.5,-548.5 "/>
<text text-anchor="start" x="395.5" y="-536.5" font-family="Helvetica,sans-Serif" font-size="10.00" fill="#000000">+ Descriptor()</text>
<text text-anchor="start" x="395.5" y="-525.5" font-family="Helvetica,sans-Serif" font-size="10.00" fill="#000000">+ Descriptor()</text>
<text text-anchor="start" x="395.5" y="-514.5" font-family="Helvetica,sans-Serif" font-size="10.00" fill="#000000">+ Descriptor()</text>
<text text-anchor="start" x="395.5" y="-503.5" font-family="Helvetica,sans-Serif" font-size="10.00" fill="#000000">+ Descriptor()</text>
<text text-anchor="start" x="395.5" y="-492.5" font-family="Helvetica,sans-Serif" font-size="10.00" fill="#000000">+ operator=()</text>
<text text-anchor="start" x="395.5" y="-481.5" font-family="Helvetica,sans-Serif" font-size="10.00" fill="#000000">+ operator ItgType()</text>
<text text-anchor="start" x="395.5" y="-470.5" font-family="Helvetica,sans-Serif" font-size="10.00" fill="#000000">+ runtimeInit()</text>
<text text-anchor="start" x="395.5" y="-459.5" font-family="Helvetica,sans-Serif" font-size="10.00" fill="#000000">+ operator==()</text>
<text text-anchor="start" x="395.5" y="-448.5" font-family="Helvetica,sans-Serif" font-size="10.00" fill="#000000">+ operator==()</text>
<text text-anchor="start" x="395.5" y="-437.5" font-family="Helvetica,sans-Serif" font-size="10.00" fill="#000000">+ operator&lt;()</text>
<text text-anchor="start" x="395.5" y="-426.5" font-family="Helvetica,sans-Serif" font-size="10.00" fill="#000000">+ operator!=()</text>
<text text-anchor="start" x="395.5" y="-415.5" font-family="Helvetica,sans-Serif" font-size="10.00" fill="#000000">+ operator!=()</text>
<text text-anchor="start" x="395.5" y="-404.5" font-family="Helvetica,sans-Serif" font-size="10.00" fill="#000000">+ as()</text>
<text text-anchor="start" x="395.5" y="-393.5" font-family="Helvetica,sans-Serif" font-size="10.00" fill="#000000">+ print()</text>
</a>
</g>
</g>
<!-- Node4&#45;&gt;Node3 -->
<g id="edge2" class="edge">
<title>Node4&#45;&gt;Node3</title>
<path fill="none" stroke="#404040" d="M455.964,-386.4507C448.4126,-353.2903 440.1225,-316.8859 432.7398,-284.4662"/>
<polygon fill="none" stroke="#404040" points="432.7285,-284.4163 427.4961,-279.4542 430.064,-272.7158 435.2964,-277.6779 432.7285,-284.4163"/>
<text text-anchor="middle" x="485" y="-327" font-family="Helvetica,sans-Serif" font-size="10.00" fill="#000000"> +description</text>
</g>
<!-- Node5 -->
<g id="node4" class="node">
<title>Node5</title>
<polygon fill="none" stroke="#bfbfbf" points="907.5,-937.5 907.5,-994.5 946.5,-994.5 946.5,-937.5 907.5,-937.5"/>
<text text-anchor="middle" x="927" y="-982.5" font-family="Helvetica,sans-Serif" font-size="10.00" fill="#000000">Type</text>
<polyline fill="none" stroke="#bfbfbf" points="907.5,-975.5 946.5,-975.5 "/>
<text text-anchor="middle" x="927" y="-963.5" font-family="Helvetica,sans-Serif" font-size="10.00" fill="#000000"> </text>
<polyline fill="none" stroke="#bfbfbf" points="907.5,-956.5 946.5,-956.5 "/>
<text text-anchor="middle" x="927" y="-944.5" font-family="Helvetica,sans-Serif" font-size="10.00" fill="#000000"> </text>
</g>
<!-- Node5&#45;&gt;Node4 -->
<g id="edge3" class="edge">
<title>Node5&#45;&gt;Node4</title>
<path fill="none" stroke="#404040" d="M922.5868,-937.2717C919.5903,-917.74 915.5436,-891.3127 912,-868 903.4269,-811.599 909.5174,-649.0257 863,-616 813.4252,-580.8037 645.6042,-622.589 590,-598 587.6787,-596.9735 585.3772,-595.8756 583.0973,-594.7131"/>
<polygon fill="none" stroke="#404040" points="583.0603,-594.6924 575.8707,-595.2489 572.5917,-588.8264 579.7814,-588.2698 583.0603,-594.6924"/>
<text text-anchor="middle" x="924.5" y="-759.5" font-family="Helvetica,sans-Serif" font-size="10.00" fill="#000000"> +itg</text>
</g>
<!-- Node9 -->
<g id="node8" class="node">
<title>Node9</title>
<g id="a_node8"><a xlink:href="../../d9/db3/structo2_1_1header_1_1Descriptor.html" target="_top" xlink:title="{o2::header::Descriptor\l\&lt; N, PrinterPolicy \&gt;\n||+ Descriptor()\l+ Descriptor()\l+ Descriptor()\l+ operator=()\l+ operator ItgType()\l+ Descriptor()\l+ runtimeInit()\l+ operator==()\l+ operator\&lt;()\l+ operator!=()\l+ operator==()\l+ operator!=()\l+ as()\l+ print()\l}">
<polygon fill="none" stroke="#000000" points="680.5,-656.5 680.5,-867.5 805.5,-867.5 805.5,-656.5 680.5,-656.5"/>
<text text-anchor="start" x="688.5" y="-855.5" font-family="Helvetica,sans-Serif" font-size="10.00" fill="#000000">o2::header::Descriptor</text>
<text text-anchor="middle" x="743" y="-844.5" font-family="Helvetica,sans-Serif" font-size="10.00" fill="#000000">&lt; N, PrinterPolicy &gt;</text>
<polyline fill="none" stroke="#000000" points="680.5,-837.5 805.5,-837.5 "/>
<text text-anchor="middle" x="743" y="-825.5" font-family="Helvetica,sans-Serif" font-size="10.00" fill="#000000"> </text>
<polyline fill="none" stroke="#000000" points="680.5,-818.5 805.5,-818.5 "/>
<text text-anchor="start" x="688.5" y="-806.5" font-family="Helvetica,sans-Serif" font-size="10.00" fill="#000000">+ Descriptor()</text>
<text text-anchor="start" x="688.5" y="-795.5" font-family="Helvetica,sans-Serif" font-size="10.00" fill="#000000">+ Descriptor()</text>
<text text-anchor="start" x="688.5" y="-784.5" font-family="Helvetica,sans-Serif" font-size="10.00" fill="#000000">+ Descriptor()</text>
<text text-anchor="start" x="688.5" y="-773.5" font-family="Helvetica,sans-Serif" font-size="10.00" fill="#000000">+ operator=()</text>
<text text-anchor="start" x="688.5" y="-762.5" font-family="Helvetica,sans-Serif" font-size="10.00" fill="#000000">+ operator ItgType()</text>
<text text-anchor="start" x="688.5" y="-751.5" font-family="Helvetica,sans-Serif" font-size="10.00" fill="#000000">+ Descriptor()</text>
<text text-anchor="start" x="688.5" y="-740.5" font-family="Helvetica,sans-Serif" font-size="10.00" fill="#000000">+ runtimeInit()</text>
<text text-anchor="start" x="688.5" y="-729.5" font-family="Helvetica,sans-Serif" font-size="10.00" fill="#000000">+ operator==()</text>
<text text-anchor="start" x="688.5" y="-718.5" font-family="Helvetica,sans-Serif" font-size="10.00" fill="#000000">+ operator&lt;()</text>
<text text-anchor="start" x="688.5" y="-707.5" font-family="Helvetica,sans-Serif" font-size="10.00" fill="#000000">+ operator!=()</text>
<text text-anchor="start" x="688.5" y="-696.5" font-family="Helvetica,sans-Serif" font-size="10.00" fill="#000000">+ operator==()</text>
<text text-anchor="start" x="688.5" y="-685.5" font-family="Helvetica,sans-Serif" font-size="10.00" fill="#000000">+ operator!=()</text>
<text text-anchor="start" x="688.5" y="-674.5" font-family="Helvetica,sans-Serif" font-size="10.00" fill="#000000">+ as()</text>
<text text-anchor="start" x="688.5" y="-663.5" font-family="Helvetica,sans-Serif" font-size="10.00" fill="#000000">+ print()</text>
</a>
</g>
</g>
<!-- Node5&#45;&gt;Node9 -->
<g id="edge8" class="edge">
<title>Node5&#45;&gt;Node9</title>
<path fill="none" stroke="#404040" d="M907.1895,-945.8691C904.1416,-942.8655 901.008,-939.8295 898,-937 864.287,-905.2879 851.1196,-902.2607 820,-868 817.8171,-865.5968 815.6383,-863.132 813.4698,-860.6201"/>
<polygon fill="none" stroke="#404040" points="813.3951,-860.5311 806.4727,-858.5109 805.6751,-851.344 812.5974,-853.3642 813.3951,-860.5311"/>
<text text-anchor="middle" x="888.5" y="-900" font-family="Helvetica,sans-Serif" font-size="10.00" fill="#000000"> +itg</text>
</g>
<!-- Node10 -->
<g id="node9" class="node">
<title>Node10</title>
<g id="a_node9"><a xlink:href="../../d9/db3/structo2_1_1header_1_1Descriptor.html" target="_top" xlink:title="{o2::header::Descriptor\l\&lt; gSizeSerializationMethodString \&gt;\n||+ Descriptor()\l+ Descriptor()\l+ Descriptor()\l+ Descriptor()\l+ operator=()\l+ operator ItgType()\l+ runtimeInit()\l+ operator==()\l+ operator==()\l+ operator\&lt;()\l+ operator!=()\l+ operator!=()\l+ as()\l+ print()\l}">
<polygon fill="none" stroke="#000000" points="599.5,-386.5 599.5,-597.5 790.5,-597.5 790.5,-386.5 599.5,-386.5"/>
<text text-anchor="start" x="607.5" y="-585.5" font-family="Helvetica,sans-Serif" font-size="10.00" fill="#000000">o2::header::Descriptor</text>
<text text-anchor="middle" x="695" y="-574.5" font-family="Helvetica,sans-Serif" font-size="10.00" fill="#000000">&lt; gSizeSerializationMethodString &gt;</text>
<polyline fill="none" stroke="#000000" points="599.5,-567.5 790.5,-567.5 "/>
<text text-anchor="middle" x="695" y="-555.5" font-family="Helvetica,sans-Serif" font-size="10.00" fill="#000000"> </text>
<polyline fill="none" stroke="#000000" points="599.5,-548.5 790.5,-548.5 "/>
<text text-anchor="start" x="607.5" y="-536.5" font-family="Helvetica,sans-Serif" font-size="10.00" fill="#000000">+ Descriptor()</text>
<text text-anchor="start" x="607.5" y="-525.5" font-family="Helvetica,sans-Serif" font-size="10.00" fill="#000000">+ Descriptor()</text>
<text text-anchor="start" x="607.5" y="-514.5" font-family="Helvetica,sans-Serif" font-size="10.00" fill="#000000">+ Descriptor()</text>
<text text-anchor="start" x="607.5" y="-503.5" font-family="Helvetica,sans-Serif" font-size="10.00" fill="#000000">+ Descriptor()</text>
<text text-anchor="start" x="607.5" y="-492.5" font-family="Helvetica,sans-Serif" font-size="10.00" fill="#000000">+ operator=()</text>
<text text-anchor="start" x="607.5" y="-481.5" font-family="Helvetica,sans-Serif" font-size="10.00" fill="#000000">+ operator ItgType()</text>
<text text-anchor="start" x="607.5" y="-470.5" font-family="Helvetica,sans-Serif" font-size="10.00" fill="#000000">+ runtimeInit()</text>
<text text-anchor="start" x="607.5" y="-459.5" font-family="Helvetica,sans-Serif" font-size="10.00" fill="#000000">+ operator==()</text>
<text text-anchor="start" x="607.5" y="-448.5" font-family="Helvetica,sans-Serif" font-size="10.00" fill="#000000">+ operator==()</text>
<text text-anchor="start" x="607.5" y="-437.5" font-family="Helvetica,sans-Serif" font-size="10.00" fill="#000000">+ operator&lt;()</text>
<text text-anchor="start" x="607.5" y="-426.5" font-family="Helvetica,sans-Serif" font-size="10.00" fill="#000000">+ operator!=()</text>
<text text-anchor="start" x="607.5" y="-415.5" font-family="Helvetica,sans-Serif" font-size="10.00" fill="#000000">+ operator!=()</text>
<text text-anchor="start" x="607.5" y="-404.5" font-family="Helvetica,sans-Serif" font-size="10.00" fill="#000000">+ as()</text>
<text text-anchor="start" x="607.5" y="-393.5" font-family="Helvetica,sans-Serif" font-size="10.00" fill="#000000">+ print()</text>
</a>
</g>
</g>
<!-- Node5&#45;&gt;Node10 -->
<g id="edge14" class="edge">
<title>Node5&#45;&gt;Node10</title>
<path fill="none" stroke="#404040" d="M946.8083,-950.4812C967.3621,-932.9927 998.2497,-902.4674 1011,-868 1043.69,-779.6304 1064.3426,-733.6685 1011,-656 957.8573,-578.6227 891.0947,-638.054 801.5551,-598.5509"/>
<polygon fill="none" stroke="#404040" points="801.3297,-598.4422 794.1876,-599.4372 790.5221,-593.2271 797.6642,-592.2321 801.3297,-598.4422"/>
<text text-anchor="middle" x="1055.5" y="-759.5" font-family="Helvetica,sans-Serif" font-size="10.00" fill="#000000"> +itg</text>
</g>
<!-- Node6 -->
<g id="node5" class="node">
<title>Node6</title>
<polygon fill="none" stroke="#bfbfbf" points="441,-937.5 441,-994.5 479,-994.5 479,-937.5 441,-937.5"/>
<text text-anchor="middle" x="460" y="-982.5" font-family="Helvetica,sans-Serif" font-size="10.00" fill="#000000">char</text>
<polyline fill="none" stroke="#bfbfbf" points="441,-975.5 479,-975.5 "/>
<text text-anchor="middle" x="460" y="-963.5" font-family="Helvetica,sans-Serif" font-size="10.00" fill="#000000"> </text>
<polyline fill="none" stroke="#bfbfbf" points="441,-956.5 479,-956.5 "/>
<text text-anchor="middle" x="460" y="-944.5" font-family="Helvetica,sans-Serif" font-size="10.00" fill="#000000"> </text>
</g>
<!-- Node6&#45;&gt;Node3 -->
<g id="edge12" class="edge">
<title>Node6&#45;&gt;Node3</title>
<path fill="none" stroke="#404040" d="M440.8672,-952.8787C429.3653,-944.2649 415.0568,-932.1809 405,-919 389.8044,-899.0839 388.7477,-891.8229 381,-868 348.8118,-769.0267 346.8216,-741.6115 337,-638 325.34,-514.9949 355.5449,-374.706 380.8144,-284.1591"/>
<polygon fill="none" stroke="#404040" points="380.8338,-284.0903 378.6208,-277.2272 384.1049,-272.5447 386.3179,-279.4079 380.8338,-284.0903"/>
<text text-anchor="middle" x="372" y="-624.5" font-family="Helvetica,sans-Serif" font-size="10.00" fill="#000000"> +magicString</text>
</g>
<!-- Node6&#45;&gt;Node4 -->
<g id="edge4" class="edge">
<title>Node6&#45;&gt;Node4</title>
<path fill="none" stroke="#404040" d="M440.7254,-941.9071C426.9287,-923.0345 409.5167,-895.459 402,-868 377.1225,-777.1213 381.2566,-747.9105 402,-656 402.3832,-654.3021 411.788,-634.2514 423.9432,-608.7148"/>
<polygon fill="none" stroke="#404040" points="423.944,-608.7132 422.915,-601.5758 429.1076,-597.8809 430.1365,-605.0183 423.944,-608.7132"/>
<text text-anchor="middle" x="414.5" y="-759.5" font-family="Helvetica,sans-Serif" font-size="10.00" fill="#000000"> +str</text>
</g>
<!-- Node6&#45;&gt;Node9 -->
<g id="edge9" class="edge">
<title>Node6&#45;&gt;Node9</title>
<path fill="none" stroke="#404040" d="M479.1883,-957.2647C498.9243,-948.1496 530.4435,-933.2282 557,-919 582.4644,-905.357 586.7404,-898.0417 613,-886 635.6128,-875.6306 645.972,-882.7561 666,-868 667.6996,-866.7478 669.3772,-865.447 671.0321,-864.1029"/>
<polygon fill="none" stroke="#404040" points="671.2579,-863.9038 673.1122,-856.9352 680.2579,-855.9666 678.4036,-862.9353 671.2579,-863.9038"/>
<text text-anchor="middle" x="625.5" y="-900" font-family="Helvetica,sans-Serif" font-size="10.00" fill="#000000"> +str</text>
</g>
<!-- Node6&#45;&gt;Node10 -->
<g id="edge15" class="edge">
<title>Node6&#45;&gt;Node10</title>
<path fill="none" stroke="#404040" d="M479.0305,-942.1686C493.0829,-923.2168 511.3743,-895.4183 521,-868 558.3618,-761.5769 489.714,-710.688 551,-616 559.4488,-602.9464 568.5722,-607.3449 581,-598 583.9295,-595.7972 586.8686,-593.5303 589.8081,-591.2122"/>
<polygon fill="none" stroke="#404040" points="589.8437,-591.1835 592.0037,-584.3035 599.1852,-583.6512 597.0252,-590.5312 589.8437,-591.1835"/>
<text text-anchor="middle" x="545.5" y="-759.5" font-family="Helvetica,sans-Serif" font-size="10.00" fill="#000000"> +str</text>
</g>
<!-- Node7 -->
<g id="node6" class="node">
<title>Node7</title>
<polygon fill="none" stroke="#bfbfbf" points="568.5,-937.5 568.5,-994.5 597.5,-994.5 597.5,-937.5 568.5,-937.5"/>
<text text-anchor="middle" x="583" y="-982.5" font-family="Helvetica,sans-Serif" font-size="10.00" fill="#000000">int</text>
<polyline fill="none" stroke="#bfbfbf" points="568.5,-975.5 597.5,-975.5 "/>
<text text-anchor="middle" x="583" y="-963.5" font-family="Helvetica,sans-Serif" font-size="10.00" fill="#000000"> </text>
<polyline fill="none" stroke="#bfbfbf" points="568.5,-956.5 597.5,-956.5 "/>
<text text-anchor="middle" x="583" y="-944.5" font-family="Helvetica,sans-Serif" font-size="10.00" fill="#000000"> </text>
</g>
<!-- Node7&#45;&gt;Node4 -->
<g id="edge5" class="edge">
<title>Node7&#45;&gt;Node4</title>
<path fill="none" stroke="#404040" d="M568.4006,-959.4361C541.5684,-946.4546 485.1367,-914.6591 463,-868 424.9807,-787.8641 432.0585,-686.9995 447.0989,-609.9177"/>
<polygon fill="none" stroke="#404040" points="447.1806,-609.5162 444.4585,-602.8386 449.5754,-597.7576 452.2975,-604.4352 447.1806,-609.5162"/>
<text text-anchor="middle" x="492" y="-770.5" font-family="Helvetica,sans-Serif" font-size="10.00" fill="#000000"> +arraySize</text>
<text text-anchor="middle" x="492" y="-759.5" font-family="Helvetica,sans-Serif" font-size="10.00" fill="#000000">+size</text>
<text text-anchor="middle" x="492" y="-748.5" font-family="Helvetica,sans-Serif" font-size="10.00" fill="#000000">+bitcount</text>
</g>
<!-- Node7&#45;&gt;Node9 -->
<g id="edge10" class="edge">
<title>Node7&#45;&gt;Node9</title>
<path fill="none" stroke="#404040" d="M597.6921,-956.3439C610.3558,-947.5684 628.6531,-933.7681 642,-919 653.4768,-906.3012 664.5167,-892.1601 674.8116,-877.7122"/>
<polygon fill="none" stroke="#404040" points="674.9488,-877.5156 675.1022,-870.3061 681.8161,-867.6748 681.6627,-874.8843 674.9488,-877.5156"/>
<text text-anchor="middle" x="697" y="-911" font-family="Helvetica,sans-Serif" font-size="10.00" fill="#000000"> +arraySize</text>
<text text-anchor="middle" x="697" y="-900" font-family="Helvetica,sans-Serif" font-size="10.00" fill="#000000">+size</text>
<text text-anchor="middle" x="697" y="-889" font-family="Helvetica,sans-Serif" font-size="10.00" fill="#000000">+bitcount</text>
</g>
<!-- Node7&#45;&gt;Node10 -->
<g id="edge16" class="edge">
<title>Node7&#45;&gt;Node10</title>
<path fill="none" stroke="#404040" d="M581.7457,-937.2558C579.3666,-868.6141 577.2742,-697.7507 613,-656 633.8851,-631.5928 662.292,-662.5577 683,-638 690.1639,-629.5044 695.2318,-619.6554 698.7106,-609.1627"/>
<polygon fill="none" stroke="#404040" points="698.7188,-609.1324 696.444,-602.2894 701.8857,-597.5578 704.1604,-604.4007 698.7188,-609.1324"/>
<text text-anchor="middle" x="642" y="-770.5" font-family="Helvetica,sans-Serif" font-size="10.00" fill="#000000"> +arraySize</text>
<text text-anchor="middle" x="642" y="-759.5" font-family="Helvetica,sans-Serif" font-size="10.00" fill="#000000">+size</text>
<text text-anchor="middle" x="642" y="-748.5" font-family="Helvetica,sans-Serif" font-size="10.00" fill="#000000">+bitcount</text>
</g>
<!-- Node8 -->
<g id="node7" class="node">
<title>Node8</title>
<polygon fill="none" stroke="#bfbfbf" points="782.5,-937.5 782.5,-994.5 889.5,-994.5 889.5,-937.5 782.5,-937.5"/>
<text text-anchor="middle" x="836" y="-982.5" font-family="Helvetica,sans-Serif" font-size="10.00" fill="#000000">anonymous:+@71</text>
<polyline fill="none" stroke="#bfbfbf" points="782.5,-975.5 889.5,-975.5 "/>
<text text-anchor="middle" x="836" y="-963.5" font-family="Helvetica,sans-Serif" font-size="10.00" fill="#000000"> </text>
<polyline fill="none" stroke="#bfbfbf" points="782.5,-956.5 889.5,-956.5 "/>
<text text-anchor="middle" x="836" y="-944.5" font-family="Helvetica,sans-Serif" font-size="10.00" fill="#000000"> </text>
</g>
<!-- Node8&#45;&gt;Node4 -->
<g id="edge6" class="edge">
<title>Node8&#45;&gt;Node4</title>
<path fill="none" stroke="#404040" d="M838.0901,-937.2728C842.451,-868.669 849.3871,-697.8838 814,-656 792.1553,-630.1448 770.4444,-652.7924 740,-638 725.7651,-631.0835 726.5383,-622.2537 712,-616 661.6513,-594.3424 639.1924,-622.1694 590,-598 587.5825,-596.8122 585.1837,-595.5518 582.8059,-594.2265"/>
<polygon fill="none" stroke="#404040" points="582.7972,-594.2213 575.5934,-594.5472 572.5219,-588.0229 579.7257,-587.697 582.7972,-594.2213"/>
<text text-anchor="middle" x="859" y="-759.5" font-family="Helvetica,sans-Serif" font-size="10.00" fill="#000000"> +@71</text>
</g>
<!-- Node8&#45;&gt;Node9 -->
<g id="edge11" class="edge">
<title>Node8&#45;&gt;Node9</title>
<path fill="none" stroke="#404040" d="M782.0831,-949.3578C767.9532,-942.3026 754.3505,-932.489 746,-919 738.6749,-907.1675 734.1519,-893.8113 731.6046,-880.0096"/>
<polygon fill="none" stroke="#404040" points="731.5563,-879.6719 726.7455,-874.3001 729.8539,-867.7933 734.6646,-873.1651 731.5563,-879.6719"/>
<text text-anchor="middle" x="763" y="-900" font-family="Helvetica,sans-Serif" font-size="10.00" fill="#000000"> +@71</text>
</g>
<!-- Node8&#45;&gt;Node10 -->
<g id="edge17" class="edge">
<title>Node8&#45;&gt;Node10</title>
<path fill="none" stroke="#404040" d="M881.1312,-937.3225C903.6568,-920.237 928.6769,-896.3581 941,-868 978.5521,-781.5843 990.126,-736.4019 941,-656 920.6872,-622.7552 899.266,-630.2338 863,-616 838.6105,-606.4275 827.1447,-611.5143 801.3836,-598.6763"/>
<polygon fill="none" stroke="#404040" points="801.2602,-598.6082 794.0743,-599.2115 790.7537,-592.8104 797.9395,-592.2072 801.2602,-598.6082"/>
<text text-anchor="middle" x="990" y="-759.5" font-family="Helvetica,sans-Serif" font-size="10.00" fill="#000000"> +@71</text>
</g>
<!-- Node9&#45;&gt;Node4 -->
<g id="edge7" class="edge">
<title>Node9&#45;&gt;Node4</title>
<path fill="none" stroke="#ffa500" d="M672.3925,-660.4604C670.3031,-658.8961 668.172,-657.4059 666,-656 633.2173,-634.7813 612.4857,-659.6706 580,-638 563.8985,-627.259 549.6657,-612.9625 537.357,-597.5109"/>
<polygon fill="#ffa500" stroke="#ffa500" points="670.2755,-663.2499 680.2437,-666.8396 674.6897,-657.8172 670.2755,-663.2499"/>
<text text-anchor="start" x="580" y="-630" font-family="Helvetica,sans-Serif" font-size="10.00" fill="#000000"> &lt; gSizeHeaderDescription</text>
<text text-anchor="middle" x="646" y="-619" font-family="Helvetica,sans-Serif" font-size="10.00" fill="#000000">String &gt;</text>
</g>
<!-- Node9&#45;&gt;Node10 -->
<g id="edge18" class="edge">
<title>Node9&#45;&gt;Node10</title>
<path fill="none" stroke="#ffa500" d="M722.4615,-646.4709C719.5956,-630.3503 716.6624,-613.8513 713.8301,-597.9196"/>
<polygon fill="#ffa500" stroke="#ffa500" points="719.0393,-647.2179 724.2357,-656.4509 725.9313,-645.9926 719.0393,-647.2179"/>
<text text-anchor="start" x="721" y="-630" font-family="Helvetica,sans-Serif" font-size="10.00" fill="#000000"> &lt; gSizeSerializationMethod</text>
<text text-anchor="middle" x="790" y="-619" font-family="Helvetica,sans-Serif" font-size="10.00" fill="#000000">String &gt;</text>
</g>
<!-- Node10&#45;&gt;Node3 -->
<g id="edge13" class="edge">
<title>Node10&#45;&gt;Node3</title>
<path fill="none" stroke="#404040" d="M601.7444,-386.3055C596.4008,-380.1267 591.1217,-373.9915 586,-368 557.0852,-334.1743 552.6745,-323.2385 522,-291 516.9092,-285.6496 511.592,-280.2395 506.1602,-274.8477"/>
<polygon fill="none" stroke="#404040" points="506.1144,-274.8028 499.0298,-273.4581 497.5462,-266.4012 504.6308,-267.7459 506.1144,-274.8028"/>
<text text-anchor="middle" x="622" y="-327" font-family="Helvetica,sans-Serif" font-size="10.00" fill="#000000"> +serialization</text>
</g>
<!-- Node11 -->
<g id="node10" class="node">
<title>Node11</title>
<g id="a_node10"><a xlink:href="../../d3/d87/classuint32__t.html" target="_top" xlink:title="{uint32_t\n||}">
<polygon fill="none" stroke="#000000" points="0,-463.5 0,-520.5 56,-520.5 56,-463.5 0,-463.5"/>
<text text-anchor="middle" x="28" y="-508.5" font-family="Helvetica,sans-Serif" font-size="10.00" fill="#000000">uint32_t</text>
<polyline fill="none" stroke="#000000" points="0,-501.5 56,-501.5 "/>
<text text-anchor="middle" x="28" y="-489.5" font-family="Helvetica,sans-Serif" font-size="10.00" fill="#000000"> </text>
<polyline fill="none" stroke="#000000" points="0,-482.5 56,-482.5 "/>
<text text-anchor="middle" x="28" y="-470.5" font-family="Helvetica,sans-Serif" font-size="10.00" fill="#000000"> </text>
</a>
</g>
</g>
<!-- Node11&#45;&gt;Node3 -->
<g id="edge19" class="edge">
<title>Node11&#45;&gt;Node3</title>
<path fill="none" stroke="#404040" d="M28.1572,-463.1763C29.9779,-419.9254 39.804,-338.2796 86,-291 117.8412,-258.4119 229.0954,-228.1002 312.629,-209.1308"/>
<polygon fill="none" stroke="#404040" points="312.7709,-209.0991 317.7501,-203.883 324.4801,-206.4729 319.5009,-211.689 312.7709,-209.0991"/>
<text text-anchor="middle" x="131.5" y="-360" font-family="Helvetica,sans-Serif" font-size="10.00" fill="#000000"> +headerVersion</text>
<text text-anchor="middle" x="131.5" y="-349" font-family="Helvetica,sans-Serif" font-size="10.00" fill="#000000">+headerSize</text>
<text text-anchor="middle" x="131.5" y="-338" font-family="Helvetica,sans-Serif" font-size="10.00" fill="#000000">+sMagicString</text>
<text text-anchor="middle" x="131.5" y="-327" font-family="Helvetica,sans-Serif" font-size="10.00" fill="#000000">+flagsNextHeader</text>
<text text-anchor="middle" x="131.5" y="-316" font-family="Helvetica,sans-Serif" font-size="10.00" fill="#000000">+magicStringInt</text>
<text text-anchor="middle" x="131.5" y="-305" font-family="Helvetica,sans-Serif" font-size="10.00" fill="#000000">+flagsUnused</text>
<text text-anchor="middle" x="131.5" y="-294" font-family="Helvetica,sans-Serif" font-size="10.00" fill="#000000">+flags</text>
</g>
<!-- Node12 -->
<g id="node11" class="node">
<title>Node12</title>
<polygon fill="none" stroke="#bfbfbf" points="81.5,-463.5 81.5,-520.5 188.5,-520.5 188.5,-463.5 81.5,-463.5"/>
<text text-anchor="middle" x="135" y="-508.5" font-family="Helvetica,sans-Serif" font-size="10.00" fill="#000000">anonymous:+@73</text>
<polyline fill="none" stroke="#bfbfbf" points="81.5,-501.5 188.5,-501.5 "/>
<text text-anchor="middle" x="135" y="-489.5" font-family="Helvetica,sans-Serif" font-size="10.00" fill="#000000"> </text>
<polyline fill="none" stroke="#bfbfbf" points="81.5,-482.5 188.5,-482.5 "/>
<text text-anchor="middle" x="135" y="-470.5" font-family="Helvetica,sans-Serif" font-size="10.00" fill="#000000"> </text>
</g>
<!-- Node12&#45;&gt;Node3 -->
<g id="edge20" class="edge">
<title>Node12&#45;&gt;Node3</title>
<path fill="none" stroke="#404040" d="M142.7039,-463.1857C155.1979,-421.038 183.399,-342.054 231,-291 254.0151,-266.3154 284.3842,-246.0101 313.6084,-230.1948"/>
<polygon fill="none" stroke="#404040" points="313.6854,-230.1544 317.1356,-223.8222 324.3077,-224.5715 320.8575,-230.9037 313.6854,-230.1544"/>
<text text-anchor="middle" x="248" y="-327" font-family="Helvetica,sans-Serif" font-size="10.00" fill="#000000"> +@73</text>
</g>
<!-- Node13 -->
<g id="node12" class="node">
<title>Node13</title>
<polygon fill="none" stroke="#bfbfbf" points="206.5,-463.5 206.5,-520.5 313.5,-520.5 313.5,-463.5 206.5,-463.5"/>
<text text-anchor="middle" x="260" y="-508.5" font-family="Helvetica,sans-Serif" font-size="10.00" fill="#000000">anonymous:+@75</text>
<polyline fill="none" stroke="#bfbfbf" points="206.5,-501.5 313.5,-501.5 "/>
<text text-anchor="middle" x="260" y="-489.5" font-family="Helvetica,sans-Serif" font-size="10.00" fill="#000000"> </text>
<polyline fill="none" stroke="#bfbfbf" points="206.5,-482.5 313.5,-482.5 "/>
<text text-anchor="middle" x="260" y="-470.5" font-family="Helvetica,sans-Serif" font-size="10.00" fill="#000000"> </text>
</g>
<!-- Node13&#45;&gt;Node3 -->
<g id="edge21" class="edge">
<title>Node13&#45;&gt;Node3</title>
<path fill="none" stroke="#404040" d="M258.9737,-463.3862C258.7505,-422.5176 263.0362,-346.2682 294,-291 300.0387,-280.2214 307.6671,-270.032 316.1221,-260.5664"/>
<polygon fill="none" stroke="#404040" points="316.2291,-260.4527 317.4312,-253.3425 324.4568,-251.7173 323.2547,-258.8276 316.2291,-260.4527"/>
<text text-anchor="middle" x="311" y="-327" font-family="Helvetica,sans-Serif" font-size="10.00" fill="#000000"> +@75</text>
</g>
<!-- Node14 -->
<g id="node13" class="node">
<title>Node14</title>
<polygon fill="none" stroke="#bfbfbf" points="808.5,-463.5 808.5,-520.5 851.5,-520.5 851.5,-463.5 808.5,-463.5"/>
<text text-anchor="middle" x="830" y="-508.5" font-family="Helvetica,sans-Serif" font-size="10.00" fill="#000000">const</text>
<polyline fill="none" stroke="#bfbfbf" points="808.5,-501.5 851.5,-501.5 "/>
<text text-anchor="middle" x="830" y="-489.5" font-family="Helvetica,sans-Serif" font-size="10.00" fill="#000000"> </text>
<polyline fill="none" stroke="#bfbfbf" points="808.5,-482.5 851.5,-482.5 "/>
<text text-anchor="middle" x="830" y="-470.5" font-family="Helvetica,sans-Serif" font-size="10.00" fill="#000000"> </text>
</g>
<!-- Node14&#45;&gt;Node2 -->
<g id="edge24" class="edge">
<title>Node14&#45;&gt;Node2</title>
<path fill="none" stroke="#404040" d="M829.2584,-463.3867C827.2062,-384.2064 821.4465,-161.9757 819.0582,-69.8285"/>
<polygon fill="none" stroke="#404040" points="819.0553,-69.7138 814.9012,-63.8195 818.7443,-57.7179 822.8985,-63.6122 819.0553,-69.7138"/>
<text text-anchor="middle" x="862.5" y="-192" font-family="Helvetica,sans-Serif" font-size="10.00" fill="#000000"> +sHeaderType</text>
<text text-anchor="middle" x="862.5" y="-181" font-family="Helvetica,sans-Serif" font-size="10.00" fill="#000000">+sVersion</text>
</g>
<!-- Node14&#45;&gt;Node3 -->
<g id="edge22" class="edge">
<title>Node14&#45;&gt;Node3</title>
<path fill="none" stroke="#404040" d="M829.5874,-463.3246C827.6175,-439.1115 820.7708,-405.3752 799,-386 763.3037,-354.2316 730.8616,-397.154 693,-368 663.2152,-345.0653 685.0425,-317.1121 658,-291 617.2148,-251.618 559.0841,-226.5918 509.4616,-211.1898"/>
<polygon fill="none" stroke="#404040" points="509.2,-211.1115 502.3046,-213.2219 497.7044,-207.6686 504.5998,-205.5582 509.2,-211.1115"/>
<text text-anchor="middle" x="748.5" y="-338" font-family="Helvetica,sans-Serif" font-size="10.00" fill="#000000"> +sHeaderType</text>
<text text-anchor="middle" x="748.5" y="-327" font-family="Helvetica,sans-Serif" font-size="10.00" fill="#000000">+sSerializationMethod</text>
<text text-anchor="middle" x="748.5" y="-316" font-family="Helvetica,sans-Serif" font-size="10.00" fill="#000000">+sVersion</text>
</g>
<!-- Node15 -->
<g id="node14" class="node">
<title>Node15</title>
<polygon fill="none" stroke="#bfbfbf" points="911,-160.5 911,-217.5 949,-217.5 949,-160.5 911,-160.5"/>
<text text-anchor="middle" x="930" y="-205.5" font-family="Helvetica,sans-Serif" font-size="10.00" fill="#000000">bool</text>
<polyline fill="none" stroke="#bfbfbf" points="911,-198.5 949,-198.5 "/>
<text text-anchor="middle" x="930" y="-186.5" font-family="Helvetica,sans-Serif" font-size="10.00" fill="#000000"> </text>
<polyline fill="none" stroke="#bfbfbf" points="911,-179.5 949,-179.5 "/>
<text text-anchor="middle" x="930" y="-167.5" font-family="Helvetica,sans-Serif" font-size="10.00" fill="#000000"> </text>
</g>
<!-- Node15&#45;&gt;Node2 -->
<g id="edge23" class="edge">
<title>Node15&#45;&gt;Node2</title>
<path fill="none" stroke="#404040" d="M922.1168,-160.2885C916.6576,-143.3273 908.3247,-121.9305 897,-105 887.6406,-91.0076 875.3176,-77.6113 863.1963,-66.0697"/>
<polygon fill="none" stroke="#404040" points="862.8498,-65.751 855.726,-64.6322 854.0188,-57.6261 861.1426,-58.7449 862.8498,-65.751"/>
<text text-anchor="middle" x="921.5" y="-79" font-family="Helvetica,sans-Serif" font-size="10.00" fill="#000000"> +mHasPayload</text>
</g>
</g>
</svg>
