<?xml version="1.0" encoding="UTF-8" standalone="no"?>
<!DOCTYPE svg PUBLIC "-//W3C//DTD SVG 1.1//EN"
 "http://www.w3.org/Graphics/SVG/1.1/DTD/svg11.dtd">
<!-- Generated by graphviz version 2.40.1 (20161225.0304)
 -->
<!-- Title: o2::tpc::CTF Pages: 1 -->
<svg width="943pt" height="1542pt"
 viewBox="0.00 0.00 942.50 1542.00" xmlns="http://www.w3.org/2000/svg" xmlns:xlink="http://www.w3.org/1999/xlink">
<g id="graph0" class="graph" transform="scale(1 1) rotate(0) translate(4 1538)">
<title>o2::tpc::CTF</title>
<!-- Node3 -->
<g id="node1" class="node">
<title>Node3</title>
<polygon fill="#bfbfbf" stroke="#000000" points="454,-.5 454,-57.5 547,-57.5 547,-.5 454,-.5"/>
<text text-anchor="middle" x="500.5" y="-45.5" font-family="Helvetica,sans-Serif" font-size="10.00" fill="#000000">o2::tpc::CTF</text>
<polyline fill="none" stroke="#000000" points="454,-38.5 547,-38.5 "/>
<text text-anchor="middle" x="500.5" y="-26.5" font-family="Helvetica,sans-Serif" font-size="10.00" fill="#000000"> </text>
<polyline fill="none" stroke="#000000" points="454,-19.5 547,-19.5 "/>
<text text-anchor="start" x="462" y="-7.5" font-family="Helvetica,sans-Serif" font-size="10.00" fill="#000000">+ ClassDefNV()</text>
</g>
<!-- Node4 -->
<g id="node2" class="node">
<title>Node4</title>
<g id="a_node2"><a xlink:href="../../dc/d08/classo2_1_1ctf_1_1EncodedBlocks.html" target="_top" xlink:title="{o2::ctf::EncodedBlocks\l\&lt; CompressedClustersCounters,\l 23, uint32_t \&gt;\n||+ setHeader()\l+ getHeader()\l+ getHeader()\l+ getMetadata()\l+ getMetadata()\l+ getBlock()\l+ setANSHeader()\l+ getANSHeader()\l+ getANSHeader()\l+ empty()\l+ flat()\l+ clear()\l+ compactify()\l+ size()\l+ getFreeSize()\l+ copyToFlat()\l+ copyToFlat()\l+ appendToTree()\l+ readFromTree()\l+ encode()\l+ encode()\l+ decode()\l+ decode()\l+ print()\l+ getNBlocks()\l+ getMinAlignedSize()\l+ get()\l+ get()\l+ getImage()\l+ create()\l+ create()\l+ estimateBlockSize()\l+ expand()\l+ readFromTree()\l+ createDictionaryBlocks()\l# init()\l# estimateSize()\l# estimateSizeFromMetadata()\l# fillFlatCopy()\l# ClassDefNV()\l# relocate()\l# fillTreeBranch()\l# readTreeBranch()\l}">
<polygon fill="none" stroke="#000000" points="349,-105.5 349,-646.5 524,-646.5 524,-105.5 349,-105.5"/>
<text text-anchor="start" x="357" y="-634.5" font-family="Helvetica,sans-Serif" font-size="10.00" fill="#000000">o2::ctf::EncodedBlocks</text>
<text text-anchor="start" x="357" y="-623.5" font-family="Helvetica,sans-Serif" font-size="10.00" fill="#000000">&lt; CompressedClustersCounters,</text>
<text text-anchor="middle" x="436.5" y="-612.5" font-family="Helvetica,sans-Serif" font-size="10.00" fill="#000000"> 23, uint32_t &gt;</text>
<polyline fill="none" stroke="#000000" points="349,-605.5 524,-605.5 "/>
<text text-anchor="middle" x="436.5" y="-593.5" font-family="Helvetica,sans-Serif" font-size="10.00" fill="#000000"> </text>
<polyline fill="none" stroke="#000000" points="349,-586.5 524,-586.5 "/>
<text text-anchor="start" x="357" y="-574.5" font-family="Helvetica,sans-Serif" font-size="10.00" fill="#000000">+ setHeader()</text>
<text text-anchor="start" x="357" y="-563.5" font-family="Helvetica,sans-Serif" font-size="10.00" fill="#000000">+ getHeader()</text>
<text text-anchor="start" x="357" y="-552.5" font-family="Helvetica,sans-Serif" font-size="10.00" fill="#000000">+ getHeader()</text>
<text text-anchor="start" x="357" y="-541.5" font-family="Helvetica,sans-Serif" font-size="10.00" fill="#000000">+ getMetadata()</text>
<text text-anchor="start" x="357" y="-530.5" font-family="Helvetica,sans-Serif" font-size="10.00" fill="#000000">+ getMetadata()</text>
<text text-anchor="start" x="357" y="-519.5" font-family="Helvetica,sans-Serif" font-size="10.00" fill="#000000">+ getBlock()</text>
<text text-anchor="start" x="357" y="-508.5" font-family="Helvetica,sans-Serif" font-size="10.00" fill="#000000">+ setANSHeader()</text>
<text text-anchor="start" x="357" y="-497.5" font-family="Helvetica,sans-Serif" font-size="10.00" fill="#000000">+ getANSHeader()</text>
<text text-anchor="start" x="357" y="-486.5" font-family="Helvetica,sans-Serif" font-size="10.00" fill="#000000">+ getANSHeader()</text>
<text text-anchor="start" x="357" y="-475.5" font-family="Helvetica,sans-Serif" font-size="10.00" fill="#000000">+ empty()</text>
<text text-anchor="start" x="357" y="-464.5" font-family="Helvetica,sans-Serif" font-size="10.00" fill="#000000">+ flat()</text>
<text text-anchor="start" x="357" y="-453.5" font-family="Helvetica,sans-Serif" font-size="10.00" fill="#000000">+ clear()</text>
<text text-anchor="start" x="357" y="-442.5" font-family="Helvetica,sans-Serif" font-size="10.00" fill="#000000">+ compactify()</text>
<text text-anchor="start" x="357" y="-431.5" font-family="Helvetica,sans-Serif" font-size="10.00" fill="#000000">+ size()</text>
<text text-anchor="start" x="357" y="-420.5" font-family="Helvetica,sans-Serif" font-size="10.00" fill="#000000">+ getFreeSize()</text>
<text text-anchor="start" x="357" y="-409.5" font-family="Helvetica,sans-Serif" font-size="10.00" fill="#000000">+ copyToFlat()</text>
<text text-anchor="start" x="357" y="-398.5" font-family="Helvetica,sans-Serif" font-size="10.00" fill="#000000">+ copyToFlat()</text>
<text text-anchor="start" x="357" y="-387.5" font-family="Helvetica,sans-Serif" font-size="10.00" fill="#000000">+ appendToTree()</text>
<text text-anchor="start" x="357" y="-376.5" font-family="Helvetica,sans-Serif" font-size="10.00" fill="#000000">+ readFromTree()</text>
<text text-anchor="start" x="357" y="-365.5" font-family="Helvetica,sans-Serif" font-size="10.00" fill="#000000">+ encode()</text>
<text text-anchor="start" x="357" y="-354.5" font-family="Helvetica,sans-Serif" font-size="10.00" fill="#000000">+ encode()</text>
<text text-anchor="start" x="357" y="-343.5" font-family="Helvetica,sans-Serif" font-size="10.00" fill="#000000">+ decode()</text>
<text text-anchor="start" x="357" y="-332.5" font-family="Helvetica,sans-Serif" font-size="10.00" fill="#000000">+ decode()</text>
<text text-anchor="start" x="357" y="-321.5" font-family="Helvetica,sans-Serif" font-size="10.00" fill="#000000">+ print()</text>
<text text-anchor="start" x="357" y="-310.5" font-family="Helvetica,sans-Serif" font-size="10.00" fill="#000000">+ getNBlocks()</text>
<text text-anchor="start" x="357" y="-299.5" font-family="Helvetica,sans-Serif" font-size="10.00" fill="#000000">+ getMinAlignedSize()</text>
<text text-anchor="start" x="357" y="-288.5" font-family="Helvetica,sans-Serif" font-size="10.00" fill="#000000">+ get()</text>
<text text-anchor="start" x="357" y="-277.5" font-family="Helvetica,sans-Serif" font-size="10.00" fill="#000000">+ get()</text>
<text text-anchor="start" x="357" y="-266.5" font-family="Helvetica,sans-Serif" font-size="10.00" fill="#000000">+ getImage()</text>
<text text-anchor="start" x="357" y="-255.5" font-family="Helvetica,sans-Serif" font-size="10.00" fill="#000000">+ create()</text>
<text text-anchor="start" x="357" y="-244.5" font-family="Helvetica,sans-Serif" font-size="10.00" fill="#000000">+ create()</text>
<text text-anchor="start" x="357" y="-233.5" font-family="Helvetica,sans-Serif" font-size="10.00" fill="#000000">+ estimateBlockSize()</text>
<text text-anchor="start" x="357" y="-222.5" font-family="Helvetica,sans-Serif" font-size="10.00" fill="#000000">+ expand()</text>
<text text-anchor="start" x="357" y="-211.5" font-family="Helvetica,sans-Serif" font-size="10.00" fill="#000000">+ readFromTree()</text>
<text text-anchor="start" x="357" y="-200.5" font-family="Helvetica,sans-Serif" font-size="10.00" fill="#000000">+ createDictionaryBlocks()</text>
<text text-anchor="start" x="357" y="-189.5" font-family="Helvetica,sans-Serif" font-size="10.00" fill="#000000"># init()</text>
<text text-anchor="start" x="357" y="-178.5" font-family="Helvetica,sans-Serif" font-size="10.00" fill="#000000"># estimateSize()</text>
<text text-anchor="start" x="357" y="-167.5" font-family="Helvetica,sans-Serif" font-size="10.00" fill="#000000"># estimateSizeFromMetadata()</text>
<text text-anchor="start" x="357" y="-156.5" font-family="Helvetica,sans-Serif" font-size="10.00" fill="#000000"># fillFlatCopy()</text>
<text text-anchor="start" x="357" y="-145.5" font-family="Helvetica,sans-Serif" font-size="10.00" fill="#000000"># ClassDefNV()</text>
<text text-anchor="start" x="357" y="-134.5" font-family="Helvetica,sans-Serif" font-size="10.00" fill="#000000"># relocate()</text>
<text text-anchor="start" x="357" y="-123.5" font-family="Helvetica,sans-Serif" font-size="10.00" fill="#000000"># fillTreeBranch()</text>
<text text-anchor="start" x="357" y="-112.5" font-family="Helvetica,sans-Serif" font-size="10.00" fill="#000000"># readTreeBranch()</text>
</a>
</g>
</g>
<!-- Node4&#45;&gt;Node3 -->
<g id="edge1" class="edge">
<title>Node4&#45;&gt;Node3</title>
<path fill="none" stroke="#191970" d="M488.3337,-94.9644C490.9809,-80.6115 493.3291,-67.8798 495.2392,-57.5232"/>
<polygon fill="none" stroke="#191970" points="484.8268,-94.6816 486.4549,-105.1506 491.7107,-95.9513 484.8268,-94.6816"/>
</g>
<!-- Node5 -->
<g id="node3" class="node">
<title>Node5</title>
<g id="a_node3"><a xlink:href="../../da/d30/classstd_1_1array_3_01o2_1_1ctf_1_1Block_3_01uint32__t_01_4_00_01N_01_4.html" target="_top" xlink:title="{array\&lt; o2::ctf::Block\l\&lt; uint32_t \&gt;, N \&gt;\n||}">
<polygon fill="none" stroke="#000000" points="0,-936.5 0,-1004.5 117,-1004.5 117,-936.5 0,-936.5"/>
<text text-anchor="start" x="8" y="-992.5" font-family="Helvetica,sans-Serif" font-size="10.00" fill="#000000">array&lt; o2::ctf::Block</text>
<text text-anchor="middle" x="58.5" y="-981.5" font-family="Helvetica,sans-Serif" font-size="10.00" fill="#000000">&lt; uint32_t &gt;, N &gt;</text>
<polyline fill="none" stroke="#000000" points="0,-974.5 117,-974.5 "/>
<text text-anchor="middle" x="58.5" y="-962.5" font-family="Helvetica,sans-Serif" font-size="10.00" fill="#000000"> </text>
<polyline fill="none" stroke="#000000" points="0,-955.5 117,-955.5 "/>
<text text-anchor="middle" x="58.5" y="-943.5" font-family="Helvetica,sans-Serif" font-size="10.00" fill="#000000"> </text>
</a>
</g>
</g>
<!-- Node5&#45;&gt;Node4 -->
<g id="edge2" class="edge">
<title>Node5&#45;&gt;Node4</title>
<path fill="none" stroke="#404040" d="M53.3237,-936.0301C46.1436,-876.8022 38.8269,-753.5535 85.5,-665 141.619,-558.5246 255.4084,-476.3605 338.2602,-427.3206"/>
<polygon fill="none" stroke="#404040" points="338.3538,-427.2659 341.5156,-420.7849 348.7141,-421.2108 345.5524,-427.6918 338.3538,-427.2659"/>
<text text-anchor="middle" x="112.5" y="-673.5" font-family="Helvetica,sans-Serif" font-size="10.00" fill="#000000"> #mBlocks</text>
</g>
<!-- Node6 -->
<g id="node4" class="node">
<title>Node6</title>
<polygon fill="none" stroke="#bfbfbf" points="73,-1349.5 73,-1406.5 234,-1406.5 234,-1349.5 73,-1349.5"/>
<text text-anchor="middle" x="153.5" y="-1394.5" font-family="Helvetica,sans-Serif" font-size="10.00" fill="#000000">array&lt; o2::ctf::Metadata, N &gt;</text>
<polyline fill="none" stroke="#bfbfbf" points="73,-1387.5 234,-1387.5 "/>
<text text-anchor="middle" x="153.5" y="-1375.5" font-family="Helvetica,sans-Serif" font-size="10.00" fill="#000000"> </text>
<polyline fill="none" stroke="#bfbfbf" points="73,-1368.5 234,-1368.5 "/>
<text text-anchor="middle" x="153.5" y="-1356.5" font-family="Helvetica,sans-Serif" font-size="10.00" fill="#000000"> </text>
</g>
<!-- Node6&#45;&gt;Node4 -->
<g id="edge3" class="edge">
<title>Node6&#45;&gt;Node4</title>
<path fill="none" stroke="#404040" d="M149.4187,-1349.2781C137.0488,-1253.9874 105.839,-940.9534 191.5,-705 223.2263,-617.6099 286.3078,-533.7921 340.5145,-472.6293"/>
<polygon fill="none" stroke="#404040" points="340.7815,-472.3311 341.8044,-465.1929 348.7869,-463.3917 347.764,-470.5299 340.7815,-472.3311"/>
<text text-anchor="middle" x="225" y="-968" font-family="Helvetica,sans-Serif" font-size="10.00" fill="#000000"> #mMetadata</text>
</g>
<!-- Node15 -->
<g id="node13" class="node">
<title>Node15</title>
<g id="a_node13"><a xlink:href="../../dc/d08/classo2_1_1ctf_1_1EncodedBlocks.html" target="_top" xlink:title="&lt;&lt;======================== Auxiliary classes =======================&lt;&lt; ">
<polygon fill="none" stroke="#000000" points="268,-705.5 268,-1235.5 437,-1235.5 437,-705.5 268,-705.5"/>
<text text-anchor="start" x="276" y="-1223.5" font-family="Helvetica,sans-Serif" font-size="10.00" fill="#000000">o2::ctf::EncodedBlocks</text>
<text text-anchor="middle" x="352.5" y="-1212.5" font-family="Helvetica,sans-Serif" font-size="10.00" fill="#000000">&lt; H, N, W &gt;</text>
<polyline fill="none" stroke="#000000" points="268,-1205.5 437,-1205.5 "/>
<text text-anchor="middle" x="352.5" y="-1193.5" font-family="Helvetica,sans-Serif" font-size="10.00" fill="#000000"> </text>
<polyline fill="none" stroke="#000000" points="268,-1186.5 437,-1186.5 "/>
<text text-anchor="start" x="276" y="-1174.5" font-family="Helvetica,sans-Serif" font-size="10.00" fill="#000000">+ setHeader()</text>
<text text-anchor="start" x="276" y="-1163.5" font-family="Helvetica,sans-Serif" font-size="10.00" fill="#000000">+ getHeader()</text>
<text text-anchor="start" x="276" y="-1152.5" font-family="Helvetica,sans-Serif" font-size="10.00" fill="#000000">+ getHeader()</text>
<text text-anchor="start" x="276" y="-1141.5" font-family="Helvetica,sans-Serif" font-size="10.00" fill="#000000">+ getMetadata()</text>
<text text-anchor="start" x="276" y="-1130.5" font-family="Helvetica,sans-Serif" font-size="10.00" fill="#000000">+ getMetadata()</text>
<text text-anchor="start" x="276" y="-1119.5" font-family="Helvetica,sans-Serif" font-size="10.00" fill="#000000">+ getBlock()</text>
<text text-anchor="start" x="276" y="-1108.5" font-family="Helvetica,sans-Serif" font-size="10.00" fill="#000000">+ setANSHeader()</text>
<text text-anchor="start" x="276" y="-1097.5" font-family="Helvetica,sans-Serif" font-size="10.00" fill="#000000">+ getANSHeader()</text>
<text text-anchor="start" x="276" y="-1086.5" font-family="Helvetica,sans-Serif" font-size="10.00" fill="#000000">+ getANSHeader()</text>
<text text-anchor="start" x="276" y="-1075.5" font-family="Helvetica,sans-Serif" font-size="10.00" fill="#000000">+ empty()</text>
<text text-anchor="start" x="276" y="-1064.5" font-family="Helvetica,sans-Serif" font-size="10.00" fill="#000000">+ flat()</text>
<text text-anchor="start" x="276" y="-1053.5" font-family="Helvetica,sans-Serif" font-size="10.00" fill="#000000">+ clear()</text>
<text text-anchor="start" x="276" y="-1042.5" font-family="Helvetica,sans-Serif" font-size="10.00" fill="#000000">+ compactify()</text>
<text text-anchor="start" x="276" y="-1031.5" font-family="Helvetica,sans-Serif" font-size="10.00" fill="#000000">+ size()</text>
<text text-anchor="start" x="276" y="-1020.5" font-family="Helvetica,sans-Serif" font-size="10.00" fill="#000000">+ getFreeSize()</text>
<text text-anchor="start" x="276" y="-1009.5" font-family="Helvetica,sans-Serif" font-size="10.00" fill="#000000">+ copyToFlat()</text>
<text text-anchor="start" x="276" y="-998.5" font-family="Helvetica,sans-Serif" font-size="10.00" fill="#000000">+ copyToFlat()</text>
<text text-anchor="start" x="276" y="-987.5" font-family="Helvetica,sans-Serif" font-size="10.00" fill="#000000">+ appendToTree()</text>
<text text-anchor="start" x="276" y="-976.5" font-family="Helvetica,sans-Serif" font-size="10.00" fill="#000000">+ readFromTree()</text>
<text text-anchor="start" x="276" y="-965.5" font-family="Helvetica,sans-Serif" font-size="10.00" fill="#000000">+ encode()</text>
<text text-anchor="start" x="276" y="-954.5" font-family="Helvetica,sans-Serif" font-size="10.00" fill="#000000">+ encode()</text>
<text text-anchor="start" x="276" y="-943.5" font-family="Helvetica,sans-Serif" font-size="10.00" fill="#000000">+ decode()</text>
<text text-anchor="start" x="276" y="-932.5" font-family="Helvetica,sans-Serif" font-size="10.00" fill="#000000">+ decode()</text>
<text text-anchor="start" x="276" y="-921.5" font-family="Helvetica,sans-Serif" font-size="10.00" fill="#000000">+ print()</text>
<text text-anchor="start" x="276" y="-910.5" font-family="Helvetica,sans-Serif" font-size="10.00" fill="#000000">+ getNBlocks()</text>
<text text-anchor="start" x="276" y="-899.5" font-family="Helvetica,sans-Serif" font-size="10.00" fill="#000000">+ getMinAlignedSize()</text>
<text text-anchor="start" x="276" y="-888.5" font-family="Helvetica,sans-Serif" font-size="10.00" fill="#000000">+ get()</text>
<text text-anchor="start" x="276" y="-877.5" font-family="Helvetica,sans-Serif" font-size="10.00" fill="#000000">+ get()</text>
<text text-anchor="start" x="276" y="-866.5" font-family="Helvetica,sans-Serif" font-size="10.00" fill="#000000">+ getImage()</text>
<text text-anchor="start" x="276" y="-855.5" font-family="Helvetica,sans-Serif" font-size="10.00" fill="#000000">+ create()</text>
<text text-anchor="start" x="276" y="-844.5" font-family="Helvetica,sans-Serif" font-size="10.00" fill="#000000">+ create()</text>
<text text-anchor="start" x="276" y="-833.5" font-family="Helvetica,sans-Serif" font-size="10.00" fill="#000000">+ estimateBlockSize()</text>
<text text-anchor="start" x="276" y="-822.5" font-family="Helvetica,sans-Serif" font-size="10.00" fill="#000000">+ expand()</text>
<text text-anchor="start" x="276" y="-811.5" font-family="Helvetica,sans-Serif" font-size="10.00" fill="#000000">+ readFromTree()</text>
<text text-anchor="start" x="276" y="-800.5" font-family="Helvetica,sans-Serif" font-size="10.00" fill="#000000">+ createDictionaryBlocks()</text>
<text text-anchor="start" x="276" y="-789.5" font-family="Helvetica,sans-Serif" font-size="10.00" fill="#000000"># init()</text>
<text text-anchor="start" x="276" y="-778.5" font-family="Helvetica,sans-Serif" font-size="10.00" fill="#000000"># estimateSize()</text>
<text text-anchor="start" x="276" y="-767.5" font-family="Helvetica,sans-Serif" font-size="10.00" fill="#000000"># estimateSizeFromMetadata()</text>
<text text-anchor="start" x="276" y="-756.5" font-family="Helvetica,sans-Serif" font-size="10.00" fill="#000000"># fillFlatCopy()</text>
<text text-anchor="start" x="276" y="-745.5" font-family="Helvetica,sans-Serif" font-size="10.00" fill="#000000"># ClassDefNV()</text>
<text text-anchor="start" x="276" y="-734.5" font-family="Helvetica,sans-Serif" font-size="10.00" fill="#000000"># relocate()</text>
<text text-anchor="start" x="276" y="-723.5" font-family="Helvetica,sans-Serif" font-size="10.00" fill="#000000"># fillTreeBranch()</text>
<text text-anchor="start" x="276" y="-712.5" font-family="Helvetica,sans-Serif" font-size="10.00" fill="#000000"># readTreeBranch()</text>
</a>
</g>
</g>
<!-- Node6&#45;&gt;Node15 -->
<g id="edge13" class="edge">
<title>Node6&#45;&gt;Node15</title>
<path fill="none" stroke="#404040" d="M163.2925,-1349.4062C172.8476,-1323.4235 188.8023,-1284.5924 208.5,-1254 214.2946,-1245.0005 218.5633,-1244.9064 224.5,-1236 237.7319,-1216.1494 250.3895,-1194.7235 262.2432,-1172.9545"/>
<polygon fill="none" stroke="#404040" points="262.3172,-1172.8166 261.6333,-1165.638 267.9967,-1162.2457 268.6806,-1169.4243 262.3172,-1172.8166"/>
<text text-anchor="middle" x="242" y="-1284.5" font-family="Helvetica,sans-Serif" font-size="10.00" fill="#000000"> #mMetadata</text>
</g>
<!-- Node7 -->
<g id="node5" class="node">
<title>Node7</title>
<g id="a_node5"><a xlink:href="../../dc/dbb/structo2_1_1ctf_1_1ANSHeader.html" target="_top" xlink:title="&gt;&gt;======================== Auxiliary classes =======================&gt;&gt; ">
<polygon fill="none" stroke="#000000" points="434,-1344 434,-1412 543,-1412 543,-1344 434,-1344"/>
<text text-anchor="middle" x="488.5" y="-1400" font-family="Helvetica,sans-Serif" font-size="10.00" fill="#000000">o2::ctf::ANSHeader</text>
<polyline fill="none" stroke="#000000" points="434,-1393 543,-1393 "/>
<text text-anchor="middle" x="488.5" y="-1381" font-family="Helvetica,sans-Serif" font-size="10.00" fill="#000000"> </text>
<polyline fill="none" stroke="#000000" points="434,-1374 543,-1374 "/>
<text text-anchor="start" x="442" y="-1362" font-family="Helvetica,sans-Serif" font-size="10.00" fill="#000000">+ clear()</text>
<text text-anchor="start" x="442" y="-1351" font-family="Helvetica,sans-Serif" font-size="10.00" fill="#000000">+ ClassDefNV()</text>
</a>
</g>
</g>
<!-- Node7&#45;&gt;Node4 -->
<g id="edge4" class="edge">
<title>Node7&#45;&gt;Node4</title>
<path fill="none" stroke="#404040" d="M504.4482,-1343.9849C507.3702,-1336.2622 509.9755,-1327.9799 511.5,-1320 538.8129,-1177.03 529.9297,-809.3841 511.5,-665 511.2349,-662.9232 510.9595,-660.8399 510.6742,-658.751"/>
<polygon fill="none" stroke="#404040" points="510.6533,-658.6063 505.8351,-653.2411 508.9345,-646.73 513.7527,-652.0952 510.6533,-658.6063"/>
<text text-anchor="middle" x="568" y="-968" font-family="Helvetica,sans-Serif" font-size="10.00" fill="#000000"> #mANSHeader</text>
</g>
<!-- Node7&#45;&gt;Node15 -->
<g id="edge16" class="edge">
<title>Node7&#45;&gt;Node15</title>
<path fill="none" stroke="#404040" d="M451.3068,-1343.7767C444.9509,-1336.4499 438.9683,-1328.3757 434.5,-1320 429.669,-1310.9445 421.8951,-1283.4095 413.0126,-1247.5044"/>
<polygon fill="none" stroke="#404040" points="412.9436,-1247.2219 407.6324,-1242.3443 410.0921,-1235.5656 415.4033,-1240.4432 412.9436,-1247.2219"/>
<text text-anchor="middle" x="473" y="-1284.5" font-family="Helvetica,sans-Serif" font-size="10.00" fill="#000000"> #mANSHeader</text>
</g>
<!-- Node8 -->
<g id="node6" class="node">
<title>Node8</title>
<polygon fill="none" stroke="#bfbfbf" points="459.5,-1476.5 459.5,-1533.5 509.5,-1533.5 509.5,-1476.5 459.5,-1476.5"/>
<text text-anchor="middle" x="484.5" y="-1521.5" font-family="Helvetica,sans-Serif" font-size="10.00" fill="#000000">uint8_t</text>
<polyline fill="none" stroke="#bfbfbf" points="459.5,-1514.5 509.5,-1514.5 "/>
<text text-anchor="middle" x="484.5" y="-1502.5" font-family="Helvetica,sans-Serif" font-size="10.00" fill="#000000"> </text>
<polyline fill="none" stroke="#bfbfbf" points="459.5,-1495.5 509.5,-1495.5 "/>
<text text-anchor="middle" x="484.5" y="-1483.5" font-family="Helvetica,sans-Serif" font-size="10.00" fill="#000000"> </text>
</g>
<!-- Node8&#45;&gt;Node7 -->
<g id="edge5" class="edge">
<title>Node8&#45;&gt;Node7</title>
<path fill="none" stroke="#404040" d="M484.6757,-1476.4593C484.8137,-1464.0284 485.0601,-1449.291 485.5,-1436 485.6284,-1432.1202 485.786,-1428.0956 485.9612,-1424.0574"/>
<polygon fill="none" stroke="#404040" points="485.9629,-1424.0204 482.2497,-1417.8388 486.5276,-1412.0337 490.2408,-1418.2153 485.9629,-1424.0204"/>
<text text-anchor="middle" x="523.5" y="-1450" font-family="Helvetica,sans-Serif" font-size="10.00" fill="#000000"> +minorVersion</text>
<text text-anchor="middle" x="523.5" y="-1439" font-family="Helvetica,sans-Serif" font-size="10.00" fill="#000000">+majorVersion</text>
</g>
<!-- Node9 -->
<g id="node7" class="node">
<title>Node9</title>
<g id="a_node7"><a xlink:href="../../d0/d1c/structo2_1_1ctf_1_1Registry.html" target="_top" xlink:title="registry struct for the buffer start and offsets of writable space ">
<polygon fill="none" stroke="#000000" points="577.5,-1338.5 577.5,-1417.5 699.5,-1417.5 699.5,-1338.5 577.5,-1338.5"/>
<text text-anchor="middle" x="638.5" y="-1405.5" font-family="Helvetica,sans-Serif" font-size="10.00" fill="#000000">o2::ctf::Registry</text>
<polyline fill="none" stroke="#000000" points="577.5,-1398.5 699.5,-1398.5 "/>
<text text-anchor="middle" x="638.5" y="-1386.5" font-family="Helvetica,sans-Serif" font-size="10.00" fill="#000000"> </text>
<polyline fill="none" stroke="#000000" points="577.5,-1379.5 699.5,-1379.5 "/>
<text text-anchor="start" x="585.5" y="-1367.5" font-family="Helvetica,sans-Serif" font-size="10.00" fill="#000000">+ getFreeBlockStart()</text>
<text text-anchor="start" x="585.5" y="-1356.5" font-family="Helvetica,sans-Serif" font-size="10.00" fill="#000000">+ getFreeSize()</text>
<text text-anchor="start" x="585.5" y="-1345.5" font-family="Helvetica,sans-Serif" font-size="10.00" fill="#000000">+ ClassDefNV()</text>
</a>
</g>
</g>
<!-- Node9&#45;&gt;Node4 -->
<g id="edge6" class="edge">
<title>Node9&#45;&gt;Node4</title>
<path fill="none" stroke="#404040" d="M638.8098,-1338.41C639.6051,-1202.6115 639.8849,-760.9775 610.5,-705 590.5862,-667.0646 558.8962,-681.5063 533.5,-647 532.6854,-645.8932 531.8772,-644.779 531.0752,-643.6575"/>
<polygon fill="none" stroke="#404040" points="530.8121,-643.2739 524.1199,-640.588 524.0252,-633.3775 530.7175,-636.0634 530.8121,-643.2739"/>
<text text-anchor="middle" x="669" y="-968" font-family="Helvetica,sans-Serif" font-size="10.00" fill="#000000"> #mRegistry</text>
</g>
<!-- Node9&#45;&gt;Node15 -->
<g id="edge17" class="edge">
<title>Node9&#45;&gt;Node15</title>
<path fill="none" stroke="#404040" d="M583.2262,-1338.2843C576.3101,-1332.4534 569.5503,-1326.2848 563.5,-1320 555.5453,-1311.737 509.6767,-1245.6646 503.5,-1236 483.208,-1204.2497 462.5468,-1169.6693 443.2849,-1136.2761"/>
<polygon fill="none" stroke="#404040" points="443.0607,-1135.8859 436.6033,-1132.6762 437.0824,-1125.481 443.5399,-1128.6907 443.0607,-1135.8859"/>
<text text-anchor="middle" x="594" y="-1284.5" font-family="Helvetica,sans-Serif" font-size="10.00" fill="#000000"> #mRegistry</text>
</g>
<!-- Node10 -->
<g id="node8" class="node">
<title>Node10</title>
<polygon fill="none" stroke="#bfbfbf" points="563.5,-1476.5 563.5,-1533.5 601.5,-1533.5 601.5,-1476.5 563.5,-1476.5"/>
<text text-anchor="middle" x="582.5" y="-1521.5" font-family="Helvetica,sans-Serif" font-size="10.00" fill="#000000">char</text>
<polyline fill="none" stroke="#bfbfbf" points="563.5,-1514.5 601.5,-1514.5 "/>
<text text-anchor="middle" x="582.5" y="-1502.5" font-family="Helvetica,sans-Serif" font-size="10.00" fill="#000000"> </text>
<polyline fill="none" stroke="#bfbfbf" points="563.5,-1495.5 601.5,-1495.5 "/>
<text text-anchor="middle" x="582.5" y="-1483.5" font-family="Helvetica,sans-Serif" font-size="10.00" fill="#000000"> </text>
</g>
<!-- Node10&#45;&gt;Node9 -->
<g id="edge7" class="edge">
<title>Node10&#45;&gt;Node9</title>
<path fill="none" stroke="#404040" d="M587.2045,-1476.3964C589.8829,-1463.6857 593.8565,-1448.7479 599.5,-1436 600.6605,-1433.3787 601.9389,-1430.7472 603.3036,-1428.1298"/>
<polygon fill="none" stroke="#404040" points="603.4043,-1427.952 602.8812,-1420.7599 609.3189,-1417.5108 609.842,-1424.703 603.4043,-1427.952"/>
<text text-anchor="middle" x="617.5" y="-1444.5" font-family="Helvetica,sans-Serif" font-size="10.00" fill="#000000"> +head</text>
</g>
<!-- Node11 -->
<g id="node9" class="node">
<title>Node11</title>
<polygon fill="none" stroke="#bfbfbf" points="620,-1476.5 620,-1533.5 665,-1533.5 665,-1476.5 620,-1476.5"/>
<text text-anchor="middle" x="642.5" y="-1521.5" font-family="Helvetica,sans-Serif" font-size="10.00" fill="#000000">size_t</text>
<polyline fill="none" stroke="#bfbfbf" points="620,-1514.5 665,-1514.5 "/>
<text text-anchor="middle" x="642.5" y="-1502.5" font-family="Helvetica,sans-Serif" font-size="10.00" fill="#000000"> </text>
<polyline fill="none" stroke="#bfbfbf" points="620,-1495.5 665,-1495.5 "/>
<text text-anchor="middle" x="642.5" y="-1483.5" font-family="Helvetica,sans-Serif" font-size="10.00" fill="#000000"> </text>
</g>
<!-- Node11&#45;&gt;Node9 -->
<g id="edge8" class="edge">
<title>Node11&#45;&gt;Node9</title>
<path fill="none" stroke="#404040" d="M641.6023,-1476.4987C641.1734,-1462.8801 640.6461,-1446.1381 640.1487,-1430.3462"/>
<polygon fill="none" stroke="#404040" points="640.1365,-1429.9571 635.9496,-1424.086 639.7587,-1417.963 643.9456,-1423.8341 640.1365,-1429.9571"/>
<text text-anchor="middle" x="677" y="-1450" font-family="Helvetica,sans-Serif" font-size="10.00" fill="#000000"> +offsFreeStart</text>
<text text-anchor="middle" x="677" y="-1439" font-family="Helvetica,sans-Serif" font-size="10.00" fill="#000000">+size</text>
</g>
<!-- Node12 -->
<g id="node10" class="node">
<title>Node12</title>
<polygon fill="none" stroke="#bfbfbf" points="724,-1476.5 724,-1533.5 753,-1533.5 753,-1476.5 724,-1476.5"/>
<text text-anchor="middle" x="738.5" y="-1521.5" font-family="Helvetica,sans-Serif" font-size="10.00" fill="#000000">int</text>
<polyline fill="none" stroke="#bfbfbf" points="724,-1514.5 753,-1514.5 "/>
<text text-anchor="middle" x="738.5" y="-1502.5" font-family="Helvetica,sans-Serif" font-size="10.00" fill="#000000"> </text>
<polyline fill="none" stroke="#bfbfbf" points="724,-1495.5 753,-1495.5 "/>
<text text-anchor="middle" x="738.5" y="-1483.5" font-family="Helvetica,sans-Serif" font-size="10.00" fill="#000000"> </text>
</g>
<!-- Node12&#45;&gt;Node9 -->
<g id="edge9" class="edge">
<title>Node12&#45;&gt;Node9</title>
<path fill="none" stroke="#404040" d="M733.5614,-1476.3128C730.2864,-1463.1503 724.9748,-1447.8702 716.5,-1436 714.0226,-1432.53 711.2744,-1429.18 708.3331,-1425.9601"/>
<polygon fill="none" stroke="#404040" points="708.0893,-1425.7168 701.017,-1424.3086 699.5968,-1417.2387 706.6691,-1418.6469 708.0893,-1425.7168"/>
<text text-anchor="middle" x="764.5" y="-1444.5" font-family="Helvetica,sans-Serif" font-size="10.00" fill="#000000"> +nFilledBlocks</text>
</g>
<!-- Node13 -->
<g id="node11" class="node">
<title>Node13</title>
<g id="a_node11"><a xlink:href="../../dd/dd7/structo2_1_1tpc_1_1CompressedClustersCounters.html" target="_top" xlink:title="{o2::tpc::CompressedClusters\lCounters\n||+ ClassDefNV()\l}">
<polygon fill="none" stroke="#000000" points="717.5,-936.5 717.5,-1004.5 873.5,-1004.5 873.5,-936.5 717.5,-936.5"/>
<text text-anchor="start" x="725.5" y="-992.5" font-family="Helvetica,sans-Serif" font-size="10.00" fill="#000000">o2::tpc::CompressedClusters</text>
<text text-anchor="middle" x="795.5" y="-981.5" font-family="Helvetica,sans-Serif" font-size="10.00" fill="#000000">Counters</text>
<polyline fill="none" stroke="#000000" points="717.5,-974.5 873.5,-974.5 "/>
<text text-anchor="middle" x="795.5" y="-962.5" font-family="Helvetica,sans-Serif" font-size="10.00" fill="#000000"> </text>
<polyline fill="none" stroke="#000000" points="717.5,-955.5 873.5,-955.5 "/>
<text text-anchor="start" x="725.5" y="-943.5" font-family="Helvetica,sans-Serif" font-size="10.00" fill="#000000">+ ClassDefNV()</text>
</a>
</g>
</g>
<!-- Node13&#45;&gt;Node4 -->
<g id="edge10" class="edge">
<title>Node13&#45;&gt;Node4</title>
<path fill="none" stroke="#404040" d="M790.0513,-936.2131C780.2141,-882.6899 755.4851,-777.8745 703.5,-705 686.7709,-681.5487 678.9466,-676.4195 652.5,-665 603.392,-643.7954 574.8021,-680.9908 533.5,-647 533.4005,-646.9181 533.3011,-646.8362 533.2019,-646.7541"/>
<polygon fill="none" stroke="#404040" points="533.2325,-646.7813 526.0902,-645.7879 524.2601,-638.8129 531.4025,-639.8063 533.2325,-646.7813"/>
<text text-anchor="middle" x="716" y="-673.5" font-family="Helvetica,sans-Serif" font-size="10.00" fill="#000000"> #mHeader</text>
</g>
<!-- Node14 -->
<g id="node12" class="node">
<title>Node14</title>
<polygon fill="none" stroke="#bfbfbf" points="765,-1349.5 765,-1406.5 826,-1406.5 826,-1349.5 765,-1349.5"/>
<text text-anchor="middle" x="795.5" y="-1394.5" font-family="Helvetica,sans-Serif" font-size="10.00" fill="#000000">unsigned</text>
<polyline fill="none" stroke="#bfbfbf" points="765,-1387.5 826,-1387.5 "/>
<text text-anchor="middle" x="795.5" y="-1375.5" font-family="Helvetica,sans-Serif" font-size="10.00" fill="#000000"> </text>
<polyline fill="none" stroke="#bfbfbf" points="765,-1368.5 826,-1368.5 "/>
<text text-anchor="middle" x="795.5" y="-1356.5" font-family="Helvetica,sans-Serif" font-size="10.00" fill="#000000"> </text>
</g>
<!-- Node14&#45;&gt;Node13 -->
<g id="edge11" class="edge">
<title>Node14&#45;&gt;Node13</title>
<path fill="none" stroke="#404040" d="M795.5,-1349.3454C795.5,-1279.8301 795.5,-1101.7254 795.5,-1016.8393"/>
<polygon fill="none" stroke="#404040" points="795.5001,-1016.773 791.5,-1010.773 795.5,-1004.773 799.5,-1010.773 795.5001,-1016.773"/>
<text text-anchor="middle" x="865" y="-1312" font-family="Helvetica,sans-Serif" font-size="10.00" fill="#000000"> +nAttachedClusters</text>
<text text-anchor="middle" x="865" y="-1301" font-family="Helvetica,sans-Serif" font-size="10.00" fill="#000000">+nSliceRows</text>
<text text-anchor="middle" x="865" y="-1290" font-family="Helvetica,sans-Serif" font-size="10.00" fill="#000000">+nAttachedClustersReduced</text>
<text text-anchor="middle" x="865" y="-1279" font-family="Helvetica,sans-Serif" font-size="10.00" fill="#000000">+nTracks</text>
<text text-anchor="middle" x="865" y="-1268" font-family="Helvetica,sans-Serif" font-size="10.00" fill="#000000">+nUnattachedClusters</text>
<text text-anchor="middle" x="865" y="-1257" font-family="Helvetica,sans-Serif" font-size="10.00" fill="#000000">+nComppressionModes</text>
</g>
<!-- Node15&#45;&gt;Node4 -->
<g id="edge12" class="edge">
<title>Node15&#45;&gt;Node4</title>
<path fill="none" stroke="#ffa500" d="M345.8128,-695.0281C346.8306,-684.8756 348.0512,-674.839 349.5,-665 350.3969,-658.9089 351.3948,-652.7682 352.4825,-646.5952"/>
<polygon fill="#ffa500" stroke="#ffa500" points="342.3064,-694.934 344.8615,-705.2161 349.2761,-695.5848 342.3064,-694.934"/>
<text text-anchor="start" x="349.5" y="-679" font-family="Helvetica,sans-Serif" font-size="10.00" fill="#000000"> &lt; CompressedClustersCounters,</text>
<text text-anchor="middle" x="430.5" y="-668" font-family="Helvetica,sans-Serif" font-size="10.00" fill="#000000"> 23, uint32_t &gt;</text>
</g>
<!-- Node16 -->
<g id="node14" class="node">
<title>Node16</title>
<polygon fill="none" stroke="#bfbfbf" points="252,-1349.5 252,-1406.5 281,-1406.5 281,-1349.5 252,-1349.5"/>
<text text-anchor="middle" x="266.5" y="-1394.5" font-family="Helvetica,sans-Serif" font-size="10.00" fill="#000000">H</text>
<polyline fill="none" stroke="#bfbfbf" points="252,-1387.5 281,-1387.5 "/>
<text text-anchor="middle" x="266.5" y="-1375.5" font-family="Helvetica,sans-Serif" font-size="10.00" fill="#000000"> </text>
<polyline fill="none" stroke="#bfbfbf" points="252,-1368.5 281,-1368.5 "/>
<text text-anchor="middle" x="266.5" y="-1356.5" font-family="Helvetica,sans-Serif" font-size="10.00" fill="#000000"> </text>
</g>
<!-- Node16&#45;&gt;Node15 -->
<g id="edge14" class="edge">
<title>Node16&#45;&gt;Node15</title>
<path fill="none" stroke="#404040" d="M272.5474,-1349.3454C277.5798,-1325.4998 285.3089,-1288.8766 294.0154,-1247.6217"/>
<polygon fill="none" stroke="#404040" points="294.0176,-1247.611 291.3428,-1240.9143 296.4956,-1235.8696 299.1704,-1242.5663 294.0176,-1247.611"/>
<text text-anchor="middle" x="321" y="-1284.5" font-family="Helvetica,sans-Serif" font-size="10.00" fill="#000000"> #mHeader</text>
</g>
<!-- Node17 -->
<g id="node15" class="node">
<title>Node17</title>
<polygon fill="none" stroke="#bfbfbf" points="299,-1344 299,-1412 416,-1412 416,-1344 299,-1344"/>
<text text-anchor="start" x="307" y="-1400" font-family="Helvetica,sans-Serif" font-size="10.00" fill="#000000">array&lt; o2::ctf::Block</text>
<text text-anchor="middle" x="357.5" y="-1389" font-family="Helvetica,sans-Serif" font-size="10.00" fill="#000000">&lt; W &gt;, N &gt;</text>
<polyline fill="none" stroke="#bfbfbf" points="299,-1382 416,-1382 "/>
<text text-anchor="middle" x="357.5" y="-1370" font-family="Helvetica,sans-Serif" font-size="10.00" fill="#000000"> </text>
<polyline fill="none" stroke="#bfbfbf" points="299,-1363 416,-1363 "/>
<text text-anchor="middle" x="357.5" y="-1351" font-family="Helvetica,sans-Serif" font-size="10.00" fill="#000000"> </text>
</g>
<!-- Node17&#45;&gt;Node15 -->
<g id="edge15" class="edge">
<title>Node17&#45;&gt;Node15</title>
<path fill="none" stroke="#404040" d="M357.0823,-1343.9577C356.7922,-1320.3107 356.375,-1286.3113 355.909,-1248.3372"/>
<polygon fill="none" stroke="#404040" points="355.9035,-1247.8754 351.8301,-1241.925 355.7562,-1235.8763 359.8295,-1241.8268 355.9035,-1247.8754"/>
<text text-anchor="middle" x="384.5" y="-1284.5" font-family="Helvetica,sans-Serif" font-size="10.00" fill="#000000"> #mBlocks</text>
</g>
<!-- Node18 -->
<g id="node16" class="node">
<title>Node18</title>
<polygon fill="none" stroke="#bfbfbf" points="542.5,-347.5 542.5,-404.5 586.5,-404.5 586.5,-347.5 542.5,-347.5"/>
<text text-anchor="middle" x="564.5" y="-392.5" font-family="Helvetica,sans-Serif" font-size="10.00" fill="#000000">static</text>
<polyline fill="none" stroke="#bfbfbf" points="542.5,-385.5 586.5,-385.5 "/>
<text text-anchor="middle" x="564.5" y="-373.5" font-family="Helvetica,sans-Serif" font-size="10.00" fill="#000000"> </text>
<polyline fill="none" stroke="#bfbfbf" points="542.5,-366.5 586.5,-366.5 "/>
<text text-anchor="middle" x="564.5" y="-354.5" font-family="Helvetica,sans-Serif" font-size="10.00" fill="#000000"> </text>
</g>
<!-- Node18&#45;&gt;Node3 -->
<g id="edge18" class="edge">
<title>Node18&#45;&gt;Node3</title>
<path fill="none" stroke="#404040" d="M563.9891,-347.3971C562.4897,-297.4002 556.601,-191.224 533.5,-105 530.2334,-92.8075 525.3289,-80.044 520.2932,-68.5336"/>
<polygon fill="none" stroke="#404040" points="520.2452,-68.4281 514.1174,-64.6268 515.2696,-57.5083 521.3973,-61.3096 520.2452,-68.4281"/>
<text text-anchor="middle" x="537" y="-79" font-family="Helvetica,sans-Serif" font-size="10.00" fill="#000000"> +N</text>
</g>
</g>
</svg>
