<?xml version="1.0" encoding="UTF-8" standalone="no"?>
<!DOCTYPE svg PUBLIC "-//W3C//DTD SVG 1.1//EN"
 "http://www.w3.org/Graphics/SVG/1.1/DTD/svg11.dtd">
<!-- Generated by graphviz version 2.40.1 (20161225.0304)
 -->
<!-- Title: /home/travis/build/AliceO2Group/AliceO2/Detectors/EMCAL/simulation/src/RawCreator.cxx Pages: 1 -->
<svg width="4498pt" height="564pt"
 viewBox="0.00 0.00 4498.00 564.00" xmlns="http://www.w3.org/2000/svg" xmlns:xlink="http://www.w3.org/1999/xlink">
<g id="graph0" class="graph" transform="scale(1 1) rotate(0) translate(4 560)">
<title>/home/travis/build/AliceO2Group/AliceO2/Detectors/EMCAL/simulation/src/RawCreator.cxx</title>
<!-- Node0 -->
<g id="node1" class="node">
<title>Node0</title>
<polygon fill="#bfbfbf" stroke="#000000" points="2788,-503.5 2788,-555.5 2946,-555.5 2946,-503.5 2788,-503.5"/>
<text text-anchor="start" x="2796" y="-543.5" font-family="Helvetica,sans-Serif" font-size="10.00" fill="#000000">/home/travis/build</text>
<text text-anchor="start" x="2796" y="-532.5" font-family="Helvetica,sans-Serif" font-size="10.00" fill="#000000">/AliceO2Group/AliceO2</text>
<text text-anchor="start" x="2796" y="-521.5" font-family="Helvetica,sans-Serif" font-size="10.00" fill="#000000">/Detectors/EMCAL/simulation</text>
<text text-anchor="middle" x="2867" y="-510.5" font-family="Helvetica,sans-Serif" font-size="10.00" fill="#000000">/src/RawCreator.cxx</text>
</g>
<!-- Node1 -->
<g id="node2" class="node">
<title>Node1</title>
<polygon fill="none" stroke="#bfbfbf" points="1199,-73 1199,-92 1257,-92 1257,-73 1199,-73"/>
<text text-anchor="middle" x="1228" y="-80" font-family="Helvetica,sans-Serif" font-size="10.00" fill="#000000">memory</text>
</g>
<!-- Node0&#45;&gt;Node1 -->
<g id="edge1" class="edge">
<title>Node0&#45;&gt;Node1</title>
<path fill="none" stroke="#191970" d="M2787.9226,-528.5332C2421.2133,-523.5412 904,-497.0814 904,-401 904,-401 904,-401 904,-216.5 904,-169.2648 930.1456,-157.7083 971,-134 1056.3148,-84.4908 1095.0697,-124.7957 1190,-98 1192.4599,-97.3056 1194.9767,-96.5015 1197.486,-95.632"/>
<polygon fill="#191970" stroke="#191970" points="1198.8691,-98.8511 1206.9914,-92.0483 1196.3996,-92.3011 1198.8691,-98.8511"/>
</g>
<!-- Node2 -->
<g id="node3" class="node">
<title>Node2</title>
<polygon fill="none" stroke="#bfbfbf" points="1565,-73 1565,-92 1609,-92 1609,-73 1565,-73"/>
<text text-anchor="middle" x="1587" y="-80" font-family="Helvetica,sans-Serif" font-size="10.00" fill="#000000">string</text>
</g>
<!-- Node0&#45;&gt;Node2 -->
<g id="edge2" class="edge">
<title>Node0&#45;&gt;Node2</title>
<path fill="none" stroke="#191970" d="M2787.5213,-525.9422C2502.5683,-512.6691 1549,-463.5771 1549,-401 1549,-401 1549,-401 1549,-216.5 1549,-174.2065 1566.7376,-127.1555 1577.9757,-101.5895"/>
<polygon fill="#191970" stroke="#191970" points="1581.2396,-102.8667 1582.1873,-92.3143 1574.8659,-99.9726 1581.2396,-102.8667"/>
</g>
<!-- Node3 -->
<g id="node4" class="node">
<title>Node3</title>
<polygon fill="none" stroke="#bfbfbf" points="1615.5,-140 1615.5,-159 1662.5,-159 1662.5,-140 1615.5,-140"/>
<text text-anchor="middle" x="1639" y="-147" font-family="Helvetica,sans-Serif" font-size="10.00" fill="#000000">vector</text>
</g>
<!-- Node0&#45;&gt;Node3 -->
<g id="edge3" class="edge">
<title>Node0&#45;&gt;Node3</title>
<path fill="none" stroke="#191970" d="M2787.9891,-527.4087C2578.7698,-520.7577 2015.2555,-495.2927 1852,-411 1750.3412,-358.5112 1719.2657,-333.7737 1667,-232 1656.4573,-211.4709 1648.5354,-186.1067 1643.8552,-168.9634"/>
<polygon fill="#191970" stroke="#191970" points="1647.1704,-167.8066 1641.2529,-159.0183 1640.3984,-169.5787 1647.1704,-167.8066"/>
</g>
<!-- Node4 -->
<g id="node5" class="node">
<title>Node4</title>
<polygon fill="none" stroke="#bfbfbf" points="3428,-447.5 3428,-466.5 3578,-466.5 3578,-447.5 3428,-447.5"/>
<text text-anchor="middle" x="3503" y="-454.5" font-family="Helvetica,sans-Serif" font-size="10.00" fill="#000000">boost/program_options.hpp</text>
</g>
<!-- Node0&#45;&gt;Node4 -->
<g id="edge4" class="edge">
<title>Node0&#45;&gt;Node4</title>
<path fill="none" stroke="#191970" d="M2946.2639,-520.4644C3066.4252,-506.7668 3293.7597,-480.8521 3417.5083,-466.7455"/>
<polygon fill="#191970" stroke="#191970" points="3418.1554,-470.1945 3427.6946,-465.5843 3417.3626,-463.2395 3418.1554,-470.1945"/>
</g>
<!-- Node5 -->
<g id="node6" class="node">
<title>Node5</title>
<polygon fill="none" stroke="#bfbfbf" points="1813,-207 1813,-226 1861,-226 1861,-207 1813,-207"/>
<text text-anchor="middle" x="1837" y="-214" font-family="Helvetica,sans-Serif" font-size="10.00" fill="#000000">TFile.h</text>
</g>
<!-- Node0&#45;&gt;Node5 -->
<g id="edge5" class="edge">
<title>Node0&#45;&gt;Node5</title>
<path fill="none" stroke="#191970" d="M2787.9372,-524.6427C2589.2278,-511.6456 2073.4382,-472.8041 1914,-411 1868.6578,-393.4237 1844.0261,-397.2799 1820,-355 1798.3493,-316.9001 1815.7835,-263.4917 1827.8774,-235.4318"/>
<polygon fill="#191970" stroke="#191970" points="1831.2109,-236.5559 1832.1584,-226.0035 1824.8371,-233.6618 1831.2109,-236.5559"/>
</g>
<!-- Node6 -->
<g id="node7" class="node">
<title>Node6</title>
<polygon fill="none" stroke="#bfbfbf" points="3126,-335.5 3126,-354.5 3178,-354.5 3178,-335.5 3126,-335.5"/>
<text text-anchor="middle" x="3152" y="-342.5" font-family="Helvetica,sans-Serif" font-size="10.00" fill="#000000">TTree.h</text>
</g>
<!-- Node0&#45;&gt;Node6 -->
<g id="edge6" class="edge">
<title>Node0&#45;&gt;Node6</title>
<path fill="none" stroke="#191970" d="M2946.3129,-514.7277C3042.3563,-495.0388 3195.4772,-457.2469 3229,-411 3244.714,-389.3216 3214.5883,-370.1091 3187.5379,-358.0824"/>
<polygon fill="#191970" stroke="#191970" points="3188.7525,-354.7962 3178.1783,-354.1359 3186.0328,-361.2463 3188.7525,-354.7962"/>
</g>
<!-- Node7 -->
<g id="node8" class="node">
<title>Node7</title>
<polygon fill="none" stroke="#bfbfbf" points="3596.5,-447.5 3596.5,-466.5 3681.5,-466.5 3681.5,-447.5 3596.5,-447.5"/>
<text text-anchor="middle" x="3639" y="-454.5" font-family="Helvetica,sans-Serif" font-size="10.00" fill="#000000">TTreeReader.h</text>
</g>
<!-- Node0&#45;&gt;Node7 -->
<g id="edge7" class="edge">
<title>Node0&#45;&gt;Node7</title>
<path fill="none" stroke="#191970" d="M2946.1401,-525.314C3077.2113,-517.7896 3347.7066,-499.7586 3586.5779,-466.9197"/>
<polygon fill="#191970" stroke="#191970" points="3587.0676,-470.3854 3596.4924,-465.5456 3586.1066,-463.4517 3587.0676,-470.3854"/>
</g>
<!-- Node8 -->
<g id="node9" class="node">
<title>Node8</title>
<g id="a_node9"><a xlink:href="../../db/d2c/ConfigurableParam_8h.html" target="_top" xlink:title="CommonUtils/Configurable\lParam.h">
<polygon fill="none" stroke="#000000" points="1955,-201.5 1955,-231.5 2103,-231.5 2103,-201.5 1955,-201.5"/>
<text text-anchor="start" x="1963" y="-219.5" font-family="Helvetica,sans-Serif" font-size="10.00" fill="#000000">CommonUtils/Configurable</text>
<text text-anchor="middle" x="2029" y="-208.5" font-family="Helvetica,sans-Serif" font-size="10.00" fill="#000000">Param.h</text>
</a>
</g>
</g>
<!-- Node0&#45;&gt;Node8 -->
<g id="edge8" class="edge">
<title>Node0&#45;&gt;Node8</title>
<path fill="none" stroke="#191970" d="M2787.8723,-521.9658C2557.0436,-499.1979 1896.8335,-428.1665 1835,-355 1789.4962,-301.1561 1890.4563,-257.6431 1963.1049,-234.5542"/>
<polygon fill="#191970" stroke="#191970" points="1964.194,-237.8809 1972.7032,-231.5687 1962.1149,-231.1968 1964.194,-237.8809"/>
</g>
<!-- Node14 -->
<g id="node15" class="node">
<title>Node14</title>
<g id="a_node15"><a xlink:href="../../d4/d8f/StringUtils_8h.html" target="_top" xlink:title="CommonUtils/StringUtils.h">
<polygon fill="none" stroke="#000000" points="4344,-391.5 4344,-410.5 4490,-410.5 4490,-391.5 4344,-391.5"/>
<text text-anchor="middle" x="4417" y="-398.5" font-family="Helvetica,sans-Serif" font-size="10.00" fill="#000000">CommonUtils/StringUtils.h</text>
</a>
</g>
</g>
<!-- Node0&#45;&gt;Node14 -->
<g id="edge15" class="edge">
<title>Node0&#45;&gt;Node14</title>
<path fill="none" stroke="#191970" d="M2946.4532,-522.798C3068.7545,-511.9657 3297.2528,-489.5389 3376,-467 3396.2635,-461.2002 3398.5141,-451.9574 3419,-447 3615.9188,-399.3478 4127.9974,-426.5786 4330,-411 4331.279,-410.9014 4332.5682,-410.7984 4333.8656,-410.6914"/>
<polygon fill="#191970" stroke="#191970" points="4334.2843,-414.1681 4343.9368,-409.8002 4333.6672,-407.1954 4334.2843,-414.1681"/>
</g>
<!-- Node16 -->
<g id="node17" class="node">
<title>Node16</title>
<g id="a_node17"><a xlink:href="../../d3/d6e/DataFormats_2Detectors_2EMCAL_2include_2DataFormatsEMCAL_2Digit_8h.html" target="_top" xlink:title="DataFormatsEMCAL/Digit.h">
<polygon fill="none" stroke="#000000" points="4061,-274 4061,-293 4209,-293 4209,-274 4061,-274"/>
<text text-anchor="middle" x="4135" y="-281" font-family="Helvetica,sans-Serif" font-size="10.00" fill="#000000">DataFormatsEMCAL/Digit.h</text>
</a>
</g>
</g>
<!-- Node0&#45;&gt;Node16 -->
<g id="edge17" class="edge">
<title>Node0&#45;&gt;Node16</title>
<path fill="none" stroke="#191970" d="M2946.1871,-514.7658C3013.4697,-502.2053 3112.6034,-483.6009 3199,-467 3531.3041,-403.1487 3929.4864,-324.3133 4076.6434,-295.0989"/>
<polygon fill="#191970" stroke="#191970" points="4077.6737,-298.4628 4086.8006,-293.0821 4076.3104,-291.5968 4077.6737,-298.4628"/>
</g>
<!-- Node29 -->
<g id="node30" class="node">
<title>Node29</title>
<g id="a_node30"><a xlink:href="../../d9/d38/EMCAL_2include_2DataFormatsEMCAL_2TriggerRecord_8h.html" target="_top" xlink:title="DataFormatsEMCAL/Trigger\lRecord.h">
<polygon fill="none" stroke="#000000" points="3875.5,-268.5 3875.5,-298.5 4024.5,-298.5 4024.5,-268.5 3875.5,-268.5"/>
<text text-anchor="start" x="3883.5" y="-286.5" font-family="Helvetica,sans-Serif" font-size="10.00" fill="#000000">DataFormatsEMCAL/Trigger</text>
<text text-anchor="middle" x="3950" y="-275.5" font-family="Helvetica,sans-Serif" font-size="10.00" fill="#000000">Record.h</text>
</a>
</g>
</g>
<!-- Node0&#45;&gt;Node29 -->
<g id="edge33" class="edge">
<title>Node0&#45;&gt;Node29</title>
<path fill="none" stroke="#191970" d="M2946.1798,-522.1069C3008.3118,-514.1829 3095.8887,-498.2488 3167,-467 3258.1519,-426.9447 3254.568,-369.4028 3348,-335 3455.4495,-295.4358 3748.3509,-312.9501 3862,-299 3863.0778,-298.8677 3864.1625,-298.731 3865.2528,-298.5904"/>
<polygon fill="#191970" stroke="#191970" points="3865.7569,-302.0541 3875.1872,-297.225 3864.8037,-295.1193 3865.7569,-302.0541"/>
</g>
<!-- Node33 -->
<g id="node34" class="node">
<title>Node33</title>
<g id="a_node34"><a xlink:href="../../dd/da8/EMCAL_2base_2include_2EMCALBase_2Geometry_8h.html" target="_top" xlink:title="EMCALBase/Geometry.h">
<polygon fill="none" stroke="#000000" points="1337.5,-207 1337.5,-226 1470.5,-226 1470.5,-207 1337.5,-207"/>
<text text-anchor="middle" x="1404" y="-214" font-family="Helvetica,sans-Serif" font-size="10.00" fill="#000000">EMCALBase/Geometry.h</text>
</a>
</g>
</g>
<!-- Node0&#45;&gt;Node33 -->
<g id="edge44" class="edge">
<title>Node0&#45;&gt;Node33</title>
<path fill="none" stroke="#191970" d="M2787.9232,-527.9714C2519.7489,-522.4865 1654.8706,-502.2287 1535,-467 1478.8302,-450.4923 1421,-459.5453 1421,-401 1421,-401 1421,-401 1421,-345 1421,-306.1658 1413.275,-261.2958 1408.2398,-236.1743"/>
<polygon fill="#191970" stroke="#191970" points="1411.6113,-235.195 1406.1531,-226.1143 1404.7572,-236.6168 1411.6113,-235.195"/>
</g>
<!-- Node50 -->
<g id="node51" class="node">
<title>Node50</title>
<g id="a_node51"><a xlink:href="../../df/da7/RawWriter_8h.html" target="_top" xlink:title="EMCALSimulation/RawWriter.h">
<polygon fill="none" stroke="#000000" points="2785,-447.5 2785,-466.5 2949,-466.5 2949,-447.5 2785,-447.5"/>
<text text-anchor="middle" x="2867" y="-454.5" font-family="Helvetica,sans-Serif" font-size="10.00" fill="#000000">EMCALSimulation/RawWriter.h</text>
</a>
</g>
</g>
<!-- Node0&#45;&gt;Node50 -->
<g id="edge69" class="edge">
<title>Node0&#45;&gt;Node50</title>
<path fill="none" stroke="#191970" d="M2867,-503.3258C2867,-494.5142 2867,-484.8397 2867,-476.621"/>
<polygon fill="#191970" stroke="#191970" points="2870.5001,-476.534 2867,-466.534 2863.5001,-476.534 2870.5001,-476.534"/>
</g>
<!-- Node8&#45;&gt;Node3 -->
<g id="edge9" class="edge">
<title>Node8&#45;&gt;Node3</title>
<path fill="none" stroke="#191970" d="M1954.9927,-205.7291C1890.2098,-196.0202 1793.6382,-180.8685 1710,-165 1697.7284,-162.6717 1684.3299,-159.8262 1672.5114,-157.2116"/>
<polygon fill="#191970" stroke="#191970" points="1673.1234,-153.7621 1662.6002,-154.9923 1671.5938,-160.5929 1673.1234,-153.7621"/>
</g>
<!-- Node9 -->
<g id="node10" class="node">
<title>Node9</title>
<polygon fill="none" stroke="#bfbfbf" points="1719,-140 1719,-159 1757,-159 1757,-140 1719,-140"/>
<text text-anchor="middle" x="1738" y="-147" font-family="Helvetica,sans-Serif" font-size="10.00" fill="#000000">map</text>
</g>
<!-- Node8&#45;&gt;Node9 -->
<g id="edge10" class="edge">
<title>Node8&#45;&gt;Node9</title>
<path fill="none" stroke="#191970" d="M1954.7985,-203.076C1883.671,-190.0198 1784.575,-171.2658 1767,-165 1765.7599,-164.5579 1764.5078,-164.0696 1763.2561,-163.5471"/>
<polygon fill="#191970" stroke="#191970" points="1764.4015,-160.2157 1753.8689,-159.0692 1761.3877,-166.5337 1764.4015,-160.2157"/>
</g>
<!-- Node10 -->
<g id="node11" class="node">
<title>Node10</title>
<polygon fill="none" stroke="#bfbfbf" points="2162.5,-140 2162.5,-159 2255.5,-159 2255.5,-140 2162.5,-140"/>
<text text-anchor="middle" x="2209" y="-147" font-family="Helvetica,sans-Serif" font-size="10.00" fill="#000000">unordered_map</text>
</g>
<!-- Node8&#45;&gt;Node10 -->
<g id="edge11" class="edge">
<title>Node8&#45;&gt;Node10</title>
<path fill="none" stroke="#191970" d="M2069.3955,-201.4639C2100.7787,-189.7824 2143.8644,-173.7449 2173.8372,-162.5884"/>
<polygon fill="#191970" stroke="#191970" points="2175.3125,-165.7739 2183.4634,-159.0053 2172.8706,-159.2136 2175.3125,-165.7739"/>
</g>
<!-- Node11 -->
<g id="node12" class="node">
<title>Node11</title>
<polygon fill="none" stroke="#bfbfbf" points="1775.5,-134.5 1775.5,-164.5 1888.5,-164.5 1888.5,-134.5 1775.5,-134.5"/>
<text text-anchor="start" x="1783.5" y="-152.5" font-family="Helvetica,sans-Serif" font-size="10.00" fill="#000000">boost/property_tree</text>
<text text-anchor="middle" x="1832" y="-141.5" font-family="Helvetica,sans-Serif" font-size="10.00" fill="#000000">/ptree.hpp</text>
</g>
<!-- Node8&#45;&gt;Node11 -->
<g id="edge12" class="edge">
<title>Node8&#45;&gt;Node11</title>
<path fill="none" stroke="#191970" d="M1984.7894,-201.4639C1955.6158,-191.5419 1917.2022,-178.4774 1886.1909,-167.9304"/>
<polygon fill="#191970" stroke="#191970" points="1886.9979,-164.508 1876.4035,-164.6017 1884.7439,-171.1352 1886.9979,-164.508"/>
</g>
<!-- Node12 -->
<g id="node13" class="node">
<title>Node12</title>
<polygon fill="none" stroke="#bfbfbf" points="1985.5,-140 1985.5,-159 2042.5,-159 2042.5,-140 1985.5,-140"/>
<text text-anchor="middle" x="2014" y="-147" font-family="Helvetica,sans-Serif" font-size="10.00" fill="#000000">typeinfo</text>
</g>
<!-- Node8&#45;&gt;Node12 -->
<g id="edge13" class="edge">
<title>Node8&#45;&gt;Node12</title>
<path fill="none" stroke="#191970" d="M2025.5963,-201.2967C2023.4634,-191.7699 2020.693,-179.3954 2018.3949,-169.1306"/>
<polygon fill="#191970" stroke="#191970" points="2021.7394,-168.0487 2016.1392,-159.055 2014.9085,-169.5781 2021.7394,-168.0487"/>
</g>
<!-- Node13 -->
<g id="node14" class="node">
<title>Node13</title>
<polygon fill="none" stroke="#bfbfbf" points="1907,-140 1907,-159 1967,-159 1967,-140 1907,-140"/>
<text text-anchor="middle" x="1937" y="-147" font-family="Helvetica,sans-Serif" font-size="10.00" fill="#000000">iostream</text>
</g>
<!-- Node8&#45;&gt;Node13 -->
<g id="edge14" class="edge">
<title>Node8&#45;&gt;Node13</title>
<path fill="none" stroke="#191970" d="M2008.1238,-201.2967C1993.2331,-190.4524 1973.2757,-175.9182 1958.2919,-165.006"/>
<polygon fill="#191970" stroke="#191970" points="1960.2643,-162.1127 1950.1203,-159.055 1956.1434,-167.7712 1960.2643,-162.1127"/>
</g>
<!-- Node15 -->
<g id="node16" class="node">
<title>Node15</title>
<polygon fill="none" stroke="#bfbfbf" points="3783,-140 3783,-159 3839,-159 3839,-140 3783,-140"/>
<text text-anchor="middle" x="3811" y="-147" font-family="Helvetica,sans-Serif" font-size="10.00" fill="#000000">sstream</text>
</g>
<!-- Node14&#45;&gt;Node15 -->
<g id="edge16" class="edge">
<title>Node14&#45;&gt;Node15</title>
<path fill="none" stroke="#191970" d="M4416.4007,-391.3974C4413.7756,-358.4012 4400.2756,-249.0589 4335,-201 4261.3473,-146.7735 4015.8951,-175.164 3925,-165 3899.6385,-162.1641 3871.1963,-158.298 3849.0657,-155.1365"/>
<polygon fill="#191970" stroke="#191970" points="3849.4605,-151.6573 3839.0633,-153.6944 3848.4615,-158.5857 3849.4605,-151.6573"/>
</g>
<!-- Node17 -->
<g id="node18" class="node">
<title>Node17</title>
<polygon fill="none" stroke="#bfbfbf" points="3584.5,-73 3584.5,-92 3633.5,-92 3633.5,-73 3584.5,-73"/>
<text text-anchor="middle" x="3609" y="-80" font-family="Helvetica,sans-Serif" font-size="10.00" fill="#000000">iosfwd</text>
</g>
<!-- Node16&#45;&gt;Node17 -->
<g id="edge18" class="edge">
<title>Node16&#45;&gt;Node17</title>
<path fill="none" stroke="#191970" d="M4138.6681,-273.8965C4148.0187,-247.6024 4169.529,-173.7575 4133,-134 4099.8978,-97.9722 3755.6749,-86.1855 3643.866,-83.292"/>
<polygon fill="#191970" stroke="#191970" points="3643.8742,-79.7912 3633.7895,-83.0392 3643.6986,-86.789 3643.8742,-79.7912"/>
</g>
<!-- Node18 -->
<g id="node19" class="node">
<title>Node18</title>
<polygon fill="none" stroke="#bfbfbf" points="4076.5,-140 4076.5,-159 4123.5,-159 4123.5,-140 4076.5,-140"/>
<text text-anchor="middle" x="4100" y="-147" font-family="Helvetica,sans-Serif" font-size="10.00" fill="#000000">cmath</text>
</g>
<!-- Node16&#45;&gt;Node18 -->
<g id="edge19" class="edge">
<title>Node16&#45;&gt;Node18</title>
<path fill="none" stroke="#191970" d="M4132.4829,-273.8631C4126.7567,-251.9398 4112.6642,-197.9858 4105.06,-168.8727"/>
<polygon fill="#191970" stroke="#191970" points="4108.4079,-167.8405 4102.4943,-159.0496 4101.6351,-169.6096 4108.4079,-167.8405"/>
</g>
<!-- Node19 -->
<g id="node20" class="node">
<title>Node19</title>
<polygon fill="none" stroke="#bfbfbf" points="4122.5,-73 4122.5,-92 4181.5,-92 4181.5,-73 4122.5,-73"/>
<text text-anchor="middle" x="4152" y="-80" font-family="Helvetica,sans-Serif" font-size="10.00" fill="#000000">Rtypes.h</text>
</g>
<!-- Node16&#45;&gt;Node19 -->
<g id="edge20" class="edge">
<title>Node16&#45;&gt;Node19</title>
<path fill="none" stroke="#191970" d="M4209.1161,-273.9706C4259.3636,-265.8132 4319.3768,-252.1558 4335,-232 4382.8119,-170.3169 4258.5125,-117.7534 4191.4928,-94.8174"/>
<polygon fill="#191970" stroke="#191970" points="4192.2492,-91.3797 4181.6553,-91.5222 4190.0258,-98.0172 4192.2492,-91.3797"/>
</g>
<!-- Node20 -->
<g id="node21" class="node">
<title>Node20</title>
<g id="a_node21"><a xlink:href="../../df/d5d/common_2include_2CommonDataFormat_2TimeStamp_8h.html" target="_top" xlink:title="CommonDataFormat/TimeStamp.h">
<polygon fill="none" stroke="#000000" points="3595.5,-207 3595.5,-226 3782.5,-226 3782.5,-207 3595.5,-207"/>
<text text-anchor="middle" x="3689" y="-214" font-family="Helvetica,sans-Serif" font-size="10.00" fill="#000000">CommonDataFormat/TimeStamp.h</text>
</a>
</g>
</g>
<!-- Node16&#45;&gt;Node20 -->
<g id="edge21" class="edge">
<title>Node16&#45;&gt;Node20</title>
<path fill="none" stroke="#191970" d="M4073.3149,-273.9924C4060.3311,-272.0027 4046.7166,-269.9249 4034,-268 3940.6895,-253.8756 3833.1393,-237.8635 3763.2627,-227.4958"/>
<polygon fill="#191970" stroke="#191970" points="3763.6379,-224.0133 3753.2326,-226.008 3762.6108,-230.9375 3763.6379,-224.0133"/>
</g>
<!-- Node25 -->
<g id="node26" class="node">
<title>Node25</title>
<g id="a_node26"><a xlink:href="../../dd/dda/DataFormats_2Detectors_2EMCAL_2include_2DataFormatsEMCAL_2Constants_8h.html" target="_top" xlink:title="DataFormatsEMCAL/Constants.h">
<polygon fill="none" stroke="#000000" points="3149.5,-140 3149.5,-159 3322.5,-159 3322.5,-140 3149.5,-140"/>
<text text-anchor="middle" x="3236" y="-147" font-family="Helvetica,sans-Serif" font-size="10.00" fill="#000000">DataFormatsEMCAL/Constants.h</text>
</a>
</g>
</g>
<!-- Node16&#45;&gt;Node25 -->
<g id="edge27" class="edge">
<title>Node16&#45;&gt;Node25</title>
<path fill="none" stroke="#191970" d="M4078.2341,-273.98C4011.7248,-262.5823 3905.6937,-243.5846 3867,-232 3832.4468,-221.6551 3827.0465,-209.5254 3792,-201 3609.5274,-156.6117 3557.8593,-183.7124 3371,-165 3356.4094,-163.5389 3340.9456,-161.8735 3325.8927,-160.1893"/>
<polygon fill="#191970" stroke="#191970" points="3325.8823,-156.666 3315.5529,-159.0225 3325.0973,-163.6218 3325.8823,-156.666"/>
</g>
<!-- Node28 -->
<g id="node29" class="node">
<title>Node28</title>
<polygon fill="none" stroke="#bfbfbf" points="4218.5,-201.5 4218.5,-231.5 4325.5,-231.5 4325.5,-201.5 4218.5,-201.5"/>
<text text-anchor="start" x="4226.5" y="-219.5" font-family="Helvetica,sans-Serif" font-size="10.00" fill="#000000">boost/serialization</text>
<text text-anchor="middle" x="4272" y="-208.5" font-family="Helvetica,sans-Serif" font-size="10.00" fill="#000000">/base_object.hpp</text>
</g>
<!-- Node16&#45;&gt;Node28 -->
<g id="edge32" class="edge">
<title>Node16&#45;&gt;Node28</title>
<path fill="none" stroke="#191970" d="M4154.6288,-273.9005C4174.7927,-264.0393 4206.7454,-248.4128 4232.2238,-235.9526"/>
<polygon fill="#191970" stroke="#191970" points="4233.8382,-239.0592 4241.2839,-231.5218 4230.7629,-232.7709 4233.8382,-239.0592"/>
</g>
<!-- Node21 -->
<g id="node22" class="node">
<title>Node21</title>
<g id="a_node22"><a xlink:href="../../d2/d45/GPUCommonRtypes_8h.html" target="_top" xlink:title="GPUCommonRtypes.h">
<polygon fill="none" stroke="#000000" points="3933.5,-140 3933.5,-159 4058.5,-159 4058.5,-140 3933.5,-140"/>
<text text-anchor="middle" x="3996" y="-147" font-family="Helvetica,sans-Serif" font-size="10.00" fill="#000000">GPUCommonRtypes.h</text>
</a>
</g>
</g>
<!-- Node20&#45;&gt;Node21 -->
<g id="edge22" class="edge">
<title>Node20&#45;&gt;Node21</title>
<path fill="none" stroke="#191970" d="M3732.6596,-206.9717C3787.7435,-194.9501 3882.457,-174.2797 3942.0234,-161.2799"/>
<polygon fill="#191970" stroke="#191970" points="3942.9702,-164.6557 3951.994,-159.1039 3941.4776,-157.8167 3942.9702,-164.6557"/>
</g>
<!-- Node22 -->
<g id="node23" class="node">
<title>Node22</title>
<g id="a_node23"><a xlink:href="../../df/d21/GPUCommonDef_8h.html" target="_top" xlink:title="GPUCommonDef.h">
<polygon fill="none" stroke="#000000" points="2399.5,-140 2399.5,-159 2506.5,-159 2506.5,-140 2399.5,-140"/>
<text text-anchor="middle" x="2453" y="-147" font-family="Helvetica,sans-Serif" font-size="10.00" fill="#000000">GPUCommonDef.h</text>
</a>
</g>
</g>
<!-- Node20&#45;&gt;Node22 -->
<g id="edge24" class="edge">
<title>Node20&#45;&gt;Node22</title>
<path fill="none" stroke="#191970" d="M3612.0701,-206.9661C3591.6004,-204.7077 3569.4853,-202.5173 3549,-201 3124.5286,-169.5605 3016.459,-196.6065 2592,-165 2567.4266,-163.1702 2540.4925,-160.3554 2516.931,-157.624"/>
<polygon fill="#191970" stroke="#191970" points="2517.0519,-154.1141 2506.7111,-156.4204 2516.2331,-161.0661 2517.0519,-154.1141"/>
</g>
<!-- Node21&#45;&gt;Node19 -->
<g id="edge23" class="edge">
<title>Node21&#45;&gt;Node19</title>
<path fill="none" stroke="#191970" d="M4018.351,-139.9005C4045.1105,-128.4077 4090.1035,-109.0838 4120.4089,-96.068"/>
<polygon fill="#191970" stroke="#191970" points="4121.8833,-99.244 4129.6905,-92.0817 4119.1208,-92.8121 4121.8833,-99.244"/>
</g>
<!-- Node23 -->
<g id="node24" class="node">
<title>Node23</title>
<g id="a_node24"><a xlink:href="../../d5/d93/GPUCommonDefSettings_8h.html" target="_top" xlink:title="GPUCommonDefSettings.h">
<polygon fill="none" stroke="#000000" points="2384,-73 2384,-92 2532,-92 2532,-73 2384,-73"/>
<text text-anchor="middle" x="2458" y="-80" font-family="Helvetica,sans-Serif" font-size="10.00" fill="#000000">GPUCommonDefSettings.h</text>
</a>
</g>
</g>
<!-- Node22&#45;&gt;Node23 -->
<g id="edge25" class="edge">
<title>Node22&#45;&gt;Node23</title>
<path fill="none" stroke="#191970" d="M2453.7164,-139.9005C2454.4441,-130.149 2455.5926,-114.7597 2456.5172,-102.3695"/>
<polygon fill="#191970" stroke="#191970" points="2460.031,-102.3144 2457.285,-92.0817 2453.0504,-101.7934 2460.031,-102.3144"/>
</g>
<!-- Node24 -->
<g id="node25" class="node">
<title>Node24</title>
<g id="a_node25"><a xlink:href="../../da/d5a/GPUCommonDefAPI_8h.html" target="_top" xlink:title="GPUCommonDefAPI.h">
<polygon fill="none" stroke="#000000" points="2242,-73 2242,-92 2366,-92 2366,-73 2242,-73"/>
<text text-anchor="middle" x="2304" y="-80" font-family="Helvetica,sans-Serif" font-size="10.00" fill="#000000">GPUCommonDefAPI.h</text>
</a>
</g>
</g>
<!-- Node22&#45;&gt;Node24 -->
<g id="edge26" class="edge">
<title>Node22&#45;&gt;Node24</title>
<path fill="none" stroke="#191970" d="M2431.6519,-139.9005C2406.2038,-128.4574 2363.4909,-109.2509 2334.5503,-96.2374"/>
<polygon fill="#191970" stroke="#191970" points="2335.8642,-92.9907 2325.3085,-92.0817 2332.9934,-99.3749 2335.8642,-92.9907"/>
</g>
<!-- Node25&#45;&gt;Node17 -->
<g id="edge29" class="edge">
<title>Node25&#45;&gt;Node17</title>
<path fill="none" stroke="#191970" d="M3289.0457,-139.9717C3366.5888,-126.043 3508.7697,-100.5038 3574.2757,-88.7373"/>
<polygon fill="#191970" stroke="#191970" points="3575.2549,-92.1176 3584.4786,-86.9047 3574.0173,-85.2278 3575.2549,-92.1176"/>
</g>
<!-- Node25&#45;&gt;Node19 -->
<g id="edge28" class="edge">
<title>Node25&#45;&gt;Node19</title>
<path fill="none" stroke="#191970" d="M3313.3911,-139.962C3332.2238,-137.8213 3352.3208,-135.6872 3371,-134 3654.4715,-108.3956 3996.9165,-90.2133 4112.0564,-84.4486"/>
<polygon fill="#191970" stroke="#191970" points="4112.3531,-87.9383 4122.1666,-83.9452 4112.0049,-80.9469 4112.3531,-87.9383"/>
</g>
<!-- Node26 -->
<g id="node27" class="node">
<title>Node26</title>
<polygon fill="none" stroke="#bfbfbf" points="3235.5,-73 3235.5,-92 3300.5,-92 3300.5,-73 3235.5,-73"/>
<text text-anchor="middle" x="3268" y="-80" font-family="Helvetica,sans-Serif" font-size="10.00" fill="#000000">exception</text>
</g>
<!-- Node25&#45;&gt;Node26 -->
<g id="edge30" class="edge">
<title>Node25&#45;&gt;Node26</title>
<path fill="none" stroke="#191970" d="M3240.5848,-139.9005C3245.3848,-129.8505 3253.0449,-113.8122 3259.0494,-101.2403"/>
<polygon fill="#191970" stroke="#191970" points="3262.2721,-102.6137 3263.4237,-92.0817 3255.9556,-99.5968 3262.2721,-102.6137"/>
</g>
<!-- Node27 -->
<g id="node28" class="node">
<title>Node27</title>
<polygon fill="none" stroke="#bfbfbf" points="2650,-73 2650,-92 2700,-92 2700,-73 2650,-73"/>
<text text-anchor="middle" x="2675" y="-80" font-family="Helvetica,sans-Serif" font-size="10.00" fill="#000000">cstdint</text>
</g>
<!-- Node25&#45;&gt;Node27 -->
<g id="edge31" class="edge">
<title>Node25&#45;&gt;Node27</title>
<path fill="none" stroke="#191970" d="M3156.3204,-139.9673C3138.4558,-137.9181 3119.5872,-135.8224 3102,-134 2927.5362,-115.9216 2878.5235,-143.0137 2709,-98 2706.8094,-97.4183 2704.5835,-96.7067 2702.3727,-95.9115"/>
<polygon fill="#191970" stroke="#191970" points="2703.5133,-92.5963 2692.9334,-92.0334 2700.8531,-99.0711 2703.5133,-92.5963"/>
</g>
<!-- Node29&#45;&gt;Node17 -->
<g id="edge34" class="edge">
<title>Node29&#45;&gt;Node17</title>
<path fill="none" stroke="#191970" d="M3875.4579,-278.0955C3774.7576,-270.0252 3605.6211,-253.4494 3587,-232 3577.9678,-221.5959 3577.9047,-211.349 3587,-201 3669.2453,-107.4175 3782.7547,-258.5825 3865,-165 3874.0953,-154.651 3873.729,-144.6599 3865,-134 3837.4414,-100.3453 3707.3511,-88.2078 3643.9307,-84.2396"/>
<polygon fill="#191970" stroke="#191970" points="3643.8151,-80.7267 3633.626,-83.6303 3643.4019,-87.7145 3643.8151,-80.7267"/>
</g>
<!-- Node29&#45;&gt;Node19 -->
<g id="edge35" class="edge">
<title>Node29&#45;&gt;Node19</title>
<path fill="none" stroke="#191970" d="M4021.6705,-268.4271C4074.4913,-252.8213 4141.2688,-222.3421 4166,-165 4174.862,-144.4524 4167.9914,-118.7642 4161.1121,-101.5601"/>
<polygon fill="#191970" stroke="#191970" points="4164.1764,-99.8311 4156.9682,-92.0663 4157.7609,-102.6314 4164.1764,-99.8311"/>
</g>
<!-- Node30 -->
<g id="node31" class="node">
<title>Node30</title>
<g id="a_node31"><a xlink:href="../../d9/d80/InteractionRecord_8h.html" target="_top" xlink:title="CommonDataFormat/Interaction\lRecord.h">
<polygon fill="none" stroke="#000000" points="3366,-201.5 3366,-231.5 3540,-231.5 3540,-201.5 3366,-201.5"/>
<text text-anchor="start" x="3374" y="-219.5" font-family="Helvetica,sans-Serif" font-size="10.00" fill="#000000">CommonDataFormat/Interaction</text>
<text text-anchor="middle" x="3453" y="-208.5" font-family="Helvetica,sans-Serif" font-size="10.00" fill="#000000">Record.h</text>
</a>
</g>
</g>
<!-- Node29&#45;&gt;Node30 -->
<g id="edge36" class="edge">
<title>Node29&#45;&gt;Node30</title>
<path fill="none" stroke="#191970" d="M3875.4856,-274.3271C3795.8362,-264.4011 3665.8879,-247.8589 3554,-232 3552.7156,-231.818 3551.4222,-231.6337 3550.1213,-231.4474"/>
<polygon fill="#191970" stroke="#191970" points="3550.4259,-227.9551 3540.0275,-229.9854 3549.4225,-234.8828 3550.4259,-227.9551"/>
</g>
<!-- Node32 -->
<g id="node33" class="node">
<title>Node32</title>
<g id="a_node33"><a xlink:href="../../de/d64/RangeReference_8h.html" target="_top" xlink:title="Class to refer to the 1st entry and N elements of some group in the continuous container. ">
<polygon fill="none" stroke="#000000" points="3876,-207 3876,-226 4086,-226 4086,-207 3876,-207"/>
<text text-anchor="middle" x="3981" y="-214" font-family="Helvetica,sans-Serif" font-size="10.00" fill="#000000">CommonDataFormat/RangeReference.h</text>
</a>
</g>
</g>
<!-- Node29&#45;&gt;Node32 -->
<g id="edge42" class="edge">
<title>Node29&#45;&gt;Node32</title>
<path fill="none" stroke="#191970" d="M3957.0344,-268.2967C3961.583,-258.4658 3967.5346,-245.6026 3972.3688,-235.1545"/>
<polygon fill="#191970" stroke="#191970" points="3975.5563,-236.6003 3976.579,-226.055 3969.2033,-233.6609 3975.5563,-236.6003"/>
</g>
<!-- Node30&#45;&gt;Node17 -->
<g id="edge38" class="edge">
<title>Node30&#45;&gt;Node17</title>
<path fill="none" stroke="#191970" d="M3540.0217,-202.9732C3544.748,-202.2923 3549.4309,-201.6302 3554,-201 3619.204,-192.0068 3804.3773,-214.29 3848,-165 3857.1311,-154.6826 3856.6557,-144.7195 3848,-134 3822.719,-102.6911 3703.7698,-89.5086 3643.7791,-84.7772"/>
<polygon fill="#191970" stroke="#191970" points="3643.8786,-81.2748 3633.644,-84.0142 3643.3531,-88.2551 3643.8786,-81.2748"/>
</g>
<!-- Node30&#45;&gt;Node18 -->
<g id="edge39" class="edge">
<title>Node30&#45;&gt;Node18</title>
<path fill="none" stroke="#191970" d="M3540.1642,-205.9C3555.7489,-204.1524 3571.8462,-202.4429 3587,-201 3800.4104,-180.6794 3860.9895,-220.7097 4068,-165 4069.9224,-164.4827 4071.8683,-163.8497 4073.8012,-163.1384"/>
<polygon fill="#191970" stroke="#191970" points="4075.3847,-166.2674 4083.1895,-159.1025 4072.6201,-159.8365 4075.3847,-166.2674"/>
</g>
<!-- Node30&#45;&gt;Node21 -->
<g id="edge37" class="edge">
<title>Node30&#45;&gt;Node21</title>
<path fill="none" stroke="#191970" d="M3540.3445,-206.3585C3626.8716,-196.2251 3763.1439,-180.0324 3881,-165 3894.6687,-163.2566 3909.2427,-161.3383 3923.2625,-159.4631"/>
<polygon fill="#191970" stroke="#191970" points="3923.9071,-162.908 3933.3523,-158.1083 3922.9755,-155.9703 3923.9071,-162.908"/>
</g>
<!-- Node30&#45;&gt;Node27 -->
<g id="edge40" class="edge">
<title>Node30&#45;&gt;Node27</title>
<path fill="none" stroke="#191970" d="M3365.7978,-211.9313C3207.1809,-203.2242 2883.3006,-183.4715 2835,-165 2813.6625,-156.8399 2813.7793,-145.4304 2794,-134 2758.4786,-113.4723 2746.5574,-114.5106 2709,-98 2707.7974,-97.4713 2706.5723,-96.9293 2705.3359,-96.3794"/>
<polygon fill="#191970" stroke="#191970" points="2706.3734,-93.0083 2695.8177,-92.0983 2703.5019,-99.3923 2706.3734,-93.0083"/>
</g>
<!-- Node31 -->
<g id="node32" class="node">
<title>Node31</title>
<g id="a_node32"><a xlink:href="../../d4/dc6/LHCConstants_8h.html" target="_top" xlink:title="Header to collect LHC related constants. ">
<polygon fill="none" stroke="#000000" points="3575,-140 3575,-159 3765,-159 3765,-140 3575,-140"/>
<text text-anchor="middle" x="3670" y="-147" font-family="Helvetica,sans-Serif" font-size="10.00" fill="#000000">CommonConstants/LHCConstants.h</text>
</a>
</g>
</g>
<!-- Node30&#45;&gt;Node31 -->
<g id="edge41" class="edge">
<title>Node30&#45;&gt;Node31</title>
<path fill="none" stroke="#191970" d="M3501.699,-201.4639C3540.1912,-189.5792 3593.2864,-173.1858 3629.4801,-162.0108"/>
<polygon fill="#191970" stroke="#191970" points="3630.6919,-165.2997 3639.2142,-159.0053 3628.6267,-158.6113 3630.6919,-165.2997"/>
</g>
<!-- Node32&#45;&gt;Node21 -->
<g id="edge43" class="edge">
<title>Node32&#45;&gt;Node21</title>
<path fill="none" stroke="#191970" d="M3983.1491,-206.9005C3985.3546,-197.0495 3988.8481,-181.4451 3991.6363,-168.9912"/>
<polygon fill="#191970" stroke="#191970" points="3995.0855,-169.6048 3993.8549,-159.0817 3988.2546,-168.0754 3995.0855,-169.6048"/>
</g>
<!-- Node33&#45;&gt;Node2 -->
<g id="edge46" class="edge">
<title>Node33&#45;&gt;Node2</title>
<path fill="none" stroke="#191970" d="M1422.4779,-206.9879C1440.7224,-197.2992 1469.1303,-181.4061 1492,-165 1520.9128,-144.2588 1551.495,-116.51 1569.9157,-99.0694"/>
<polygon fill="#191970" stroke="#191970" points="1572.4386,-101.4996 1577.2497,-92.0601 1567.6021,-96.4391 1572.4386,-101.4996"/>
</g>
<!-- Node33&#45;&gt;Node3 -->
<g id="edge48" class="edge">
<title>Node33&#45;&gt;Node3</title>
<path fill="none" stroke="#191970" d="M1437.6698,-206.9005C1482.4117,-194.1443 1560.9909,-171.7409 1605.5975,-159.0233"/>
<polygon fill="#191970" stroke="#191970" points="1606.7138,-162.3445 1615.371,-156.2368 1604.7945,-155.6128 1606.7138,-162.3445"/>
</g>
<!-- Node33&#45;&gt;Node25 -->
<g id="edge54" class="edge">
<title>Node33&#45;&gt;Node25</title>
<path fill="none" stroke="#191970" d="M1470.5212,-213.6983C1549.8928,-210.4072 1686.6156,-204.902 1804,-201 2380.7921,-181.8266 2526.3615,-206.196 3102,-165 3118.7931,-163.7982 3136.7219,-162.049 3153.8241,-160.1547"/>
<polygon fill="#191970" stroke="#191970" points="3154.2413,-163.6299 3163.7834,-159.0256 3153.4527,-156.6745 3154.2413,-163.6299"/>
</g>
<!-- Node33&#45;&gt;Node26 -->
<g id="edge45" class="edge">
<title>Node33&#45;&gt;Node26</title>
<path fill="none" stroke="#191970" d="M1470.5232,-213.7567C1549.8967,-210.5218 1686.6214,-205.0708 1804,-201 1934.6493,-196.469 2857.2474,-209.9619 2980,-165 3000.7913,-157.3846 2998.7958,-143.0588 3019,-134 3104.6078,-95.6166 3136.4909,-122.6997 3227,-98 3229.753,-97.2487 3232.5792,-96.3849 3235.3981,-95.4578"/>
<polygon fill="#191970" stroke="#191970" points="3236.5683,-98.7564 3244.837,-92.1324 3234.2422,-92.1542 3236.5683,-98.7564"/>
</g>
<!-- Node34 -->
<g id="node35" class="node">
<title>Node34</title>
<polygon fill="none" stroke="#bfbfbf" points="1094.5,-140 1094.5,-159 1135.5,-159 1135.5,-140 1094.5,-140"/>
<text text-anchor="middle" x="1115" y="-147" font-family="Helvetica,sans-Serif" font-size="10.00" fill="#000000">tuple</text>
</g>
<!-- Node33&#45;&gt;Node34 -->
<g id="edge47" class="edge">
<title>Node33&#45;&gt;Node34</title>
<path fill="none" stroke="#191970" d="M1337.3764,-208.8209C1283.9724,-201.3643 1207.6986,-187.7621 1144,-165 1142.7602,-164.557 1141.5084,-164.068 1140.2569,-163.5449"/>
<polygon fill="#191970" stroke="#191970" points="1141.4029,-160.2136 1130.8705,-159.0647 1138.3876,-166.531 1141.4029,-160.2136"/>
</g>
<!-- Node35 -->
<g id="node36" class="node">
<title>Node35</title>
<polygon fill="none" stroke="#bfbfbf" points="2061,-140 2061,-159 2145,-159 2145,-140 2061,-140"/>
<text text-anchor="middle" x="2103" y="-147" font-family="Helvetica,sans-Serif" font-size="10.00" fill="#000000">RStringView.h</text>
</g>
<!-- Node33&#45;&gt;Node35 -->
<g id="edge49" class="edge">
<title>Node33&#45;&gt;Node35</title>
<path fill="none" stroke="#191970" d="M1470.7319,-213.0273C1612.9652,-205.3267 1941.9481,-185.8435 2052,-165 2056.4681,-164.1538 2061.1,-163.0613 2065.6682,-161.8483"/>
<polygon fill="#191970" stroke="#191970" points="2066.8229,-165.1586 2075.4788,-159.049 2064.9022,-158.4272 2066.8229,-165.1586"/>
</g>
<!-- Node36 -->
<g id="node37" class="node">
<title>Node36</title>
<polygon fill="none" stroke="#bfbfbf" points="1099,-73 1099,-92 1181,-92 1181,-73 1099,-73"/>
<text text-anchor="middle" x="1140" y="-80" font-family="Helvetica,sans-Serif" font-size="10.00" fill="#000000">TGeoMatrix.h</text>
</g>
<!-- Node33&#45;&gt;Node36 -->
<g id="edge50" class="edge">
<title>Node33&#45;&gt;Node36</title>
<path fill="none" stroke="#191970" d="M1337.2436,-212.7664C1228.0118,-205.9687 1020.9615,-189.931 999,-165 989.8928,-154.6614 991.1038,-145.2906 999,-134 1002.1132,-129.5485 1060.9948,-109.0455 1101.672,-95.2907"/>
<polygon fill="#191970" stroke="#191970" points="1102.9626,-98.5493 1111.3211,-92.0388 1100.727,-91.9158 1102.9626,-98.5493"/>
</g>
<!-- Node37 -->
<g id="node38" class="node">
<title>Node37</title>
<polygon fill="none" stroke="#bfbfbf" points="1153.5,-140 1153.5,-159 1220.5,-159 1220.5,-140 1153.5,-140"/>
<text text-anchor="middle" x="1187" y="-147" font-family="Helvetica,sans-Serif" font-size="10.00" fill="#000000">TNamed.h</text>
</g>
<!-- Node33&#45;&gt;Node37 -->
<g id="edge51" class="edge">
<title>Node33&#45;&gt;Node37</title>
<path fill="none" stroke="#191970" d="M1369.4816,-206.924C1334.2412,-196.9978 1278.0463,-180.755 1230,-165 1227.5588,-164.1995 1225.0473,-163.3536 1222.5224,-162.4865"/>
<polygon fill="#191970" stroke="#191970" points="1223.4323,-159.0966 1212.8375,-159.0889 1221.1151,-165.702 1223.4323,-159.0966"/>
</g>
<!-- Node38 -->
<g id="node39" class="node">
<title>Node38</title>
<polygon fill="none" stroke="#bfbfbf" points="1239,-140 1239,-159 1307,-159 1307,-140 1239,-140"/>
<text text-anchor="middle" x="1273" y="-147" font-family="Helvetica,sans-Serif" font-size="10.00" fill="#000000">TParticle.h</text>
</g>
<!-- Node33&#45;&gt;Node38 -->
<g id="edge52" class="edge">
<title>Node33&#45;&gt;Node38</title>
<path fill="none" stroke="#191970" d="M1385.2309,-206.9005C1363.1489,-195.6067 1326.2811,-176.7506 1300.8614,-163.7497"/>
<polygon fill="#191970" stroke="#191970" points="1302.2312,-160.5191 1291.7343,-159.0817 1299.0437,-166.7513 1302.2312,-160.5191"/>
</g>
<!-- Node39 -->
<g id="node40" class="node">
<title>Node39</title>
<polygon fill="none" stroke="#bfbfbf" points="1008,-140 1008,-159 1076,-159 1076,-140 1008,-140"/>
<text text-anchor="middle" x="1042" y="-147" font-family="Helvetica,sans-Serif" font-size="10.00" fill="#000000">TVector3.h</text>
</g>
<!-- Node33&#45;&gt;Node39 -->
<g id="edge53" class="edge">
<title>Node33&#45;&gt;Node39</title>
<path fill="none" stroke="#191970" d="M1337.2746,-209.3915C1272.2153,-201.6049 1170.8145,-187.1878 1085,-165 1082.0229,-164.2303 1078.9619,-163.3384 1075.9105,-162.379"/>
<polygon fill="#191970" stroke="#191970" points="1076.9057,-159.0212 1066.3117,-159.1517 1074.6748,-165.6562 1076.9057,-159.0212"/>
</g>
<!-- Node40 -->
<g id="node41" class="node">
<title>Node40</title>
<g id="a_node41"><a xlink:href="../../d5/d5e/GeometryBase_8h.html" target="_top" xlink:title="EMCALBase/GeometryBase.h">
<polygon fill="none" stroke="#000000" points="1325,-140 1325,-159 1483,-159 1483,-140 1325,-140"/>
<text text-anchor="middle" x="1404" y="-147" font-family="Helvetica,sans-Serif" font-size="10.00" fill="#000000">EMCALBase/GeometryBase.h</text>
</a>
</g>
</g>
<!-- Node33&#45;&gt;Node40 -->
<g id="edge55" class="edge">
<title>Node33&#45;&gt;Node40</title>
<path fill="none" stroke="#191970" d="M1404,-206.9005C1404,-197.149 1404,-181.7597 1404,-169.3695"/>
<polygon fill="#191970" stroke="#191970" points="1407.5001,-169.0816 1404,-159.0817 1400.5001,-169.0817 1407.5001,-169.0816"/>
</g>
<!-- Node41 -->
<g id="node42" class="node">
<title>Node41</title>
<g id="a_node42"><a xlink:href="../../dd/d76/Cartesian3D_8h.html" target="_top" xlink:title="MathUtils/Cartesian3D.h">
<polygon fill="none" stroke="#000000" points="740.5,-140 740.5,-159 875.5,-159 875.5,-140 740.5,-140"/>
<text text-anchor="middle" x="808" y="-147" font-family="Helvetica,sans-Serif" font-size="10.00" fill="#000000">MathUtils/Cartesian3D.h</text>
</a>
</g>
</g>
<!-- Node33&#45;&gt;Node41 -->
<g id="edge57" class="edge">
<title>Node33&#45;&gt;Node41</title>
<path fill="none" stroke="#191970" d="M1337.3371,-209.7268C1245.2342,-200.2687 1073.893,-182.3127 928,-165 914.3196,-163.3766 899.7731,-161.5677 885.702,-159.7749"/>
<polygon fill="#191970" stroke="#191970" points="885.9232,-156.2747 875.5594,-158.4752 885.0334,-163.218 885.9232,-156.2747"/>
</g>
<!-- Node40&#45;&gt;Node2 -->
<g id="edge56" class="edge">
<title>Node40&#45;&gt;Node2</title>
<path fill="none" stroke="#191970" d="M1430.2194,-139.9005C1463.1415,-127.8471 1519.5902,-107.1801 1555.0157,-94.2101"/>
<polygon fill="#191970" stroke="#191970" points="1556.662,-97.3346 1564.8491,-90.6099 1554.2553,-90.7613 1556.662,-97.3346"/>
</g>
<!-- Node41&#45;&gt;Node17 -->
<g id="edge65" class="edge">
<title>Node41&#45;&gt;Node17</title>
<path fill="none" stroke="#191970" d="M875.5526,-142.9349C912.0666,-139.6597 957.961,-135.9827 999,-134 2025.039,-84.429 2283.347,-132.5956 3310,-98 3405.6569,-94.7766 3518.3947,-88.1713 3574.154,-84.7167"/>
<polygon fill="#191970" stroke="#191970" points="3574.4424,-88.2056 3584.2051,-84.0898 3574.0065,-81.2192 3574.4424,-88.2056"/>
</g>
<!-- Node41&#45;&gt;Node19 -->
<g id="edge63" class="edge">
<title>Node41&#45;&gt;Node19</title>
<path fill="none" stroke="#191970" d="M875.551,-142.9026C912.0646,-139.6181 957.9591,-135.9425 999,-134 2172.9059,-78.4391 2468.0651,-123.8864 3643,-98 3818.0003,-94.1444 4026.7699,-86.9812 4112.3964,-83.933"/>
<polygon fill="#191970" stroke="#191970" points="4112.5879,-87.4285 4122.4565,-83.5736 4112.3379,-80.4329 4112.5879,-87.4285"/>
</g>
<!-- Node41&#45;&gt;Node36 -->
<g id="edge64" class="edge">
<title>Node41&#45;&gt;Node36</title>
<path fill="none" stroke="#191970" d="M858.2911,-139.922C868.7673,-137.9469 879.7416,-135.8928 890,-134 978.8182,-117.6123 1002.2573,-119.4116 1090,-98 1093.8144,-97.0692 1097.7654,-96.0111 1101.6982,-94.8952"/>
<polygon fill="#191970" stroke="#191970" points="1102.7515,-98.2336 1111.3487,-92.0418 1100.7667,-91.5209 1102.7515,-98.2336"/>
</g>
<!-- Node42 -->
<g id="node43" class="node">
<title>Node42</title>
<polygon fill="none" stroke="#bfbfbf" points="531,-67.5 531,-97.5 695,-97.5 695,-67.5 531,-67.5"/>
<text text-anchor="start" x="539" y="-85.5" font-family="Helvetica,sans-Serif" font-size="10.00" fill="#000000">Math/GenVector/Displacement</text>
<text text-anchor="middle" x="613" y="-74.5" font-family="Helvetica,sans-Serif" font-size="10.00" fill="#000000">Vector3D.h</text>
</g>
<!-- Node41&#45;&gt;Node42 -->
<g id="edge58" class="edge">
<title>Node41&#45;&gt;Node42</title>
<path fill="none" stroke="#191970" d="M780.0613,-139.9005C750.4796,-129.7366 703.0721,-113.4479 666.3023,-100.8141"/>
<polygon fill="#191970" stroke="#191970" points="667.3147,-97.4612 656.7201,-97.5218 665.0401,-104.0813 667.3147,-97.4612"/>
</g>
<!-- Node43 -->
<g id="node44" class="node">
<title>Node43</title>
<polygon fill="none" stroke="#bfbfbf" points="713.5,-73 713.5,-92 902.5,-92 902.5,-73 713.5,-73"/>
<text text-anchor="middle" x="808" y="-80" font-family="Helvetica,sans-Serif" font-size="10.00" fill="#000000">Math/GenVector/PositionVector3D.h</text>
</g>
<!-- Node41&#45;&gt;Node43 -->
<g id="edge59" class="edge">
<title>Node41&#45;&gt;Node43</title>
<path fill="none" stroke="#191970" d="M808,-139.9005C808,-130.149 808,-114.7597 808,-102.3695"/>
<polygon fill="#191970" stroke="#191970" points="811.5001,-102.0816 808,-92.0817 804.5001,-102.0817 811.5001,-102.0816"/>
</g>
<!-- Node44 -->
<g id="node45" class="node">
<title>Node44</title>
<polygon fill="none" stroke="#bfbfbf" points="921,-73 921,-92 1081,-92 1081,-73 921,-73"/>
<text text-anchor="middle" x="1001" y="-80" font-family="Helvetica,sans-Serif" font-size="10.00" fill="#000000">Math/GenVector/Rotation3D.h</text>
</g>
<!-- Node41&#45;&gt;Node44 -->
<g id="edge60" class="edge">
<title>Node41&#45;&gt;Node44</title>
<path fill="none" stroke="#191970" d="M835.6522,-139.9005C869.3318,-128.2086 926.3574,-108.4122 963.8472,-95.3976"/>
<polygon fill="#191970" stroke="#191970" points="965.1,-98.6677 973.3991,-92.0817 962.8043,-92.0548 965.1,-98.6677"/>
</g>
<!-- Node45 -->
<g id="node46" class="node">
<title>Node45</title>
<polygon fill="none" stroke="#bfbfbf" points="0,-73 0,-92 168,-92 168,-73 0,-73"/>
<text text-anchor="middle" x="84" y="-80" font-family="Helvetica,sans-Serif" font-size="10.00" fill="#000000">Math/GenVector/Transform3D.h</text>
</g>
<!-- Node41&#45;&gt;Node45 -->
<g id="edge61" class="edge">
<title>Node41&#45;&gt;Node45</title>
<path fill="none" stroke="#191970" d="M740.1094,-145.8285C624.2971,-139.1478 381.2496,-123.3108 177,-98 167.1316,-96.7771 156.7097,-95.2617 146.5527,-93.6616"/>
<polygon fill="#191970" stroke="#191970" points="146.9443,-90.1796 136.5143,-92.0409 145.8285,-97.0901 146.9443,-90.1796"/>
</g>
<!-- Node46 -->
<g id="node47" class="node">
<title>Node46</title>
<polygon fill="none" stroke="#bfbfbf" points="186.5,-73 186.5,-92 359.5,-92 359.5,-73 186.5,-73"/>
<text text-anchor="middle" x="273" y="-80" font-family="Helvetica,sans-Serif" font-size="10.00" fill="#000000">Math/GenVector/Translation3D.h</text>
</g>
<!-- Node41&#45;&gt;Node46 -->
<g id="edge62" class="edge">
<title>Node41&#45;&gt;Node46</title>
<path fill="none" stroke="#191970" d="M740.4148,-142.5489C653.9367,-133.4344 499.5789,-116.4248 368,-98 358.5421,-96.6756 348.5727,-95.1701 338.7913,-93.6303"/>
<polygon fill="#191970" stroke="#191970" points="339.1222,-90.1389 328.6956,-92.0195 338.0192,-97.0515 339.1222,-90.1389"/>
</g>
<!-- Node47 -->
<g id="node48" class="node">
<title>Node47</title>
<g id="a_node48"><a xlink:href="../../d2/dd0/Cartesian2D_8h.html" target="_top" xlink:title="MathUtils/Cartesian2D.h">
<polygon fill="none" stroke="#000000" points="377.5,-73 377.5,-92 512.5,-92 512.5,-73 377.5,-73"/>
<text text-anchor="middle" x="445" y="-80" font-family="Helvetica,sans-Serif" font-size="10.00" fill="#000000">MathUtils/Cartesian2D.h</text>
</a>
</g>
</g>
<!-- Node41&#45;&gt;Node47 -->
<g id="edge66" class="edge">
<title>Node41&#45;&gt;Node47</title>
<path fill="none" stroke="#191970" d="M753.1102,-139.96C695.4884,-129.8646 602.2849,-113.3074 522,-98 515.4302,-96.7474 508.5514,-95.4058 501.7232,-94.0553"/>
<polygon fill="#191970" stroke="#191970" points="502.288,-90.5991 491.7971,-92.0796 500.9215,-97.4645 502.288,-90.5991"/>
</g>
<!-- Node48 -->
<g id="node49" class="node">
<title>Node48</title>
<polygon fill="none" stroke="#bfbfbf" points="265,-.5 265,-30.5 429,-30.5 429,-.5 265,-.5"/>
<text text-anchor="start" x="273" y="-18.5" font-family="Helvetica,sans-Serif" font-size="10.00" fill="#000000">Math/GenVector/Displacement</text>
<text text-anchor="middle" x="347" y="-7.5" font-family="Helvetica,sans-Serif" font-size="10.00" fill="#000000">Vector2D.h</text>
</g>
<!-- Node47&#45;&gt;Node48 -->
<g id="edge67" class="edge">
<title>Node47&#45;&gt;Node48</title>
<path fill="none" stroke="#191970" d="M430.959,-72.9005C417.0412,-63.3853 395.272,-48.5023 377.388,-36.2755"/>
<polygon fill="#191970" stroke="#191970" points="379.2026,-33.2763 368.9721,-30.5218 375.2519,-39.0549 379.2026,-33.2763"/>
</g>
<!-- Node49 -->
<g id="node50" class="node">
<title>Node49</title>
<polygon fill="none" stroke="#bfbfbf" points="447.5,-6 447.5,-25 636.5,-25 636.5,-6 447.5,-6"/>
<text text-anchor="middle" x="542" y="-13" font-family="Helvetica,sans-Serif" font-size="10.00" fill="#000000">Math/GenVector/PositionVector2D.h</text>
</g>
<!-- Node47&#45;&gt;Node49 -->
<g id="edge68" class="edge">
<title>Node47&#45;&gt;Node49</title>
<path fill="none" stroke="#191970" d="M458.8977,-72.9005C474.8164,-61.9052 501.1121,-43.7422 519.8599,-30.7927"/>
<polygon fill="#191970" stroke="#191970" points="521.8892,-33.6448 528.128,-25.0817 517.9108,-27.8852 521.8892,-33.6448"/>
</g>
<!-- Node50&#45;&gt;Node1 -->
<g id="edge73" class="edge">
<title>Node50&#45;&gt;Node1</title>
<path fill="none" stroke="#191970" d="M2784.7731,-456.0769C2570.3366,-453.244 1997.7767,-442.8403 1811,-411 1439.2757,-347.6311 1223.6847,-467.8389 999,-165 918.4831,-56.4762 953.3832,-167.7844 1190,-98 1192.3064,-97.3198 1194.6652,-96.5495 1197.0224,-95.7247"/>
<polygon fill="#191970" stroke="#191970" points="1198.4484,-98.9275 1206.5657,-92.1187 1195.9741,-92.3794 1198.4484,-98.9275"/>
</g>
<!-- Node50&#45;&gt;Node2 -->
<g id="edge74" class="edge">
<title>Node50&#45;&gt;Node2</title>
<path fill="none" stroke="#191970" d="M2784.833,-455.4647C2562.5118,-450.9905 1960.06,-436.6315 1874,-411 1719.3577,-364.9424 1678.3591,-309.7185 1607,-165 1597.0553,-144.8319 1591.8604,-119.3984 1589.286,-102.1401"/>
<polygon fill="#191970" stroke="#191970" points="1592.7405,-101.5665 1587.9491,-92.1171 1585.802,-102.492 1592.7405,-101.5665"/>
</g>
<!-- Node50&#45;&gt;Node3 -->
<g id="edge76" class="edge">
<title>Node50&#45;&gt;Node3</title>
<path fill="none" stroke="#191970" d="M2784.6641,-455.6978C2594.0579,-452.2086 2127.013,-440.8061 1973,-411 1897.7948,-396.4455 1873.0542,-398.4951 1810,-355 1734.2757,-302.765 1673.3044,-208.2303 1649.6334,-168.2068"/>
<polygon fill="#191970" stroke="#191970" points="1652.4858,-166.1494 1644.4327,-159.2647 1646.4348,-169.6687 1652.4858,-166.1494"/>
</g>
<!-- Node50&#45;&gt;Node9 -->
<g id="edge75" class="edge">
<title>Node50&#45;&gt;Node9</title>
<path fill="none" stroke="#191970" d="M2784.6665,-453.7562C2553.4659,-443.9726 1910.2117,-411.8761 1835,-355 1772.7388,-307.9173 1748.776,-210.8572 1741.1029,-169.1988"/>
<polygon fill="#191970" stroke="#191970" points="1744.5308,-168.4807 1739.3862,-159.2188 1737.6322,-169.6674 1744.5308,-168.4807"/>
</g>
<!-- Node50&#45;&gt;Node16 -->
<g id="edge142" class="edge">
<title>Node50&#45;&gt;Node16</title>
<path fill="none" stroke="#191970" d="M2949.3954,-450.7505C3039.9494,-443.1392 3179.1859,-429.0356 3229,-411 3288.0065,-389.6362 3288.244,-354.1675 3348,-335 3493.3594,-288.3742 3882.1447,-314.5975 4034,-299 4045.4651,-297.8224 4057.616,-296.2442 4069.3661,-294.5446"/>
<polygon fill="#191970" stroke="#191970" points="4070.1858,-297.9612 4079.5614,-293.0268 4069.155,-291.0375 4070.1858,-297.9612"/>
</g>
<!-- Node50&#45;&gt;Node19 -->
<g id="edge77" class="edge">
<title>Node50&#45;&gt;Node19</title>
<path fill="none" stroke="#191970" d="M2949.4363,-453.5078C3213.7654,-441.4253 4037.1748,-396.6757 4283,-299 4329.0121,-280.7176 4349.8977,-276.304 4372,-232 4392.0664,-191.7771 4380.3174,-164.1743 4347,-134 4324.3452,-113.4824 4241.901,-96.9981 4191.7515,-88.5881"/>
<polygon fill="#191970" stroke="#191970" points="4192.0084,-85.0835 4181.5735,-86.9175 4190.8745,-91.991 4192.0084,-85.0835"/>
</g>
<!-- Node50&#45;&gt;Node29 -->
<g id="edge143" class="edge">
<title>Node50&#45;&gt;Node29</title>
<path fill="none" stroke="#191970" d="M2945.7999,-447.4762C2994.4755,-440.3063 3057.7784,-428.6394 3112,-411 3149.4319,-398.8227 3233.8823,-344.8222 3272,-335 3526.3996,-269.446 3601.106,-329.8352 3862,-299 3863.0784,-298.8725 3864.1636,-298.7405 3865.2545,-298.6041"/>
<polygon fill="#191970" stroke="#191970" points="3865.7468,-302.0695 3875.1927,-297.2711 3864.8162,-295.1317 3865.7468,-302.0695"/>
</g>
<!-- Node51 -->
<g id="node52" class="node">
<title>Node51</title>
<polygon fill="none" stroke="#bfbfbf" points="1843.5,-335.5 1843.5,-354.5 1900.5,-354.5 1900.5,-335.5 1843.5,-335.5"/>
<text text-anchor="middle" x="1872" y="-342.5" font-family="Helvetica,sans-Serif" font-size="10.00" fill="#000000">gsl/span</text>
</g>
<!-- Node50&#45;&gt;Node51 -->
<g id="edge70" class="edge">
<title>Node50&#45;&gt;Node51</title>
<path fill="none" stroke="#191970" d="M2784.7209,-451.5745C2619.1778,-439.9132 2234.3887,-409.0418 1915,-355 1913.5358,-354.7523 1912.047,-354.4847 1910.5455,-354.2018"/>
<polygon fill="#191970" stroke="#191970" points="1911.0823,-350.7392 1900.583,-352.1586 1909.6759,-357.5964 1911.0823,-350.7392"/>
</g>
<!-- Node52 -->
<g id="node53" class="node">
<title>Node52</title>
<polygon fill="none" stroke="#bfbfbf" points="3515,-140 3515,-159 3557,-159 3557,-140 3515,-140"/>
<text text-anchor="middle" x="3536" y="-147" font-family="Helvetica,sans-Serif" font-size="10.00" fill="#000000">array</text>
</g>
<!-- Node50&#45;&gt;Node52 -->
<g id="edge71" class="edge">
<title>Node50&#45;&gt;Node52</title>
<path fill="none" stroke="#191970" d="M2884.0891,-447.3717C2958.728,-405.4286 3256.8522,-239.0636 3357,-201 3418.6659,-177.5624 3438.61,-186.4356 3501,-165 3502.8384,-164.3684 3504.7135,-163.6788 3506.5931,-162.9526"/>
<polygon fill="#191970" stroke="#191970" points="3507.9717,-166.1701 3515.8778,-159.1172 3505.299,-159.7004 3507.9717,-166.1701"/>
</g>
<!-- Node53 -->
<g id="node54" class="node">
<title>Node53</title>
<polygon fill="none" stroke="#bfbfbf" points="3164.5,-391.5 3164.5,-410.5 3219.5,-410.5 3219.5,-391.5 3164.5,-391.5"/>
<text text-anchor="middle" x="3192" y="-398.5" font-family="Helvetica,sans-Serif" font-size="10.00" fill="#000000">fstream</text>
</g>
<!-- Node50&#45;&gt;Node53 -->
<g id="edge72" class="edge">
<title>Node50&#45;&gt;Node53</title>
<path fill="none" stroke="#191970" d="M2934.1474,-447.4892C2991.6449,-439.0102 3076.5414,-425.695 3150,-411 3151.2816,-410.7436 3152.5835,-410.4758 3153.897,-410.1992"/>
<polygon fill="#191970" stroke="#191970" points="3155.04,-413.5311 3164.0481,-407.9539 3153.5282,-406.6962 3155.04,-413.5311"/>
</g>
<!-- Node54 -->
<g id="node55" class="node">
<title>Node54</title>
<g id="a_node55"><a xlink:href="../../da/d08/RawFileWriter_8h.html" target="_top" xlink:title="Utility class to write detectors data to (multiple) raw data file(s) respecting CRU format...">
<polygon fill="none" stroke="#000000" points="2586.5,-391.5 2586.5,-410.5 2749.5,-410.5 2749.5,-391.5 2586.5,-391.5"/>
<text text-anchor="middle" x="2668" y="-398.5" font-family="Helvetica,sans-Serif" font-size="10.00" fill="#000000">DetectorsRaw/RawFileWriter.h</text>
</a>
</g>
</g>
<!-- Node50&#45;&gt;Node54 -->
<g id="edge78" class="edge">
<title>Node50&#45;&gt;Node54</title>
<path fill="none" stroke="#191970" d="M2832.7907,-447.3733C2799.2703,-437.9404 2748.0495,-423.5265 2711.619,-413.2747"/>
<polygon fill="#191970" stroke="#191970" points="2712.3372,-409.8409 2701.7629,-410.5011 2710.4409,-416.5792 2712.3372,-409.8409"/>
</g>
<!-- Node76 -->
<g id="node77" class="node">
<title>Node76</title>
<g id="a_node77"><a xlink:href="../../d1/d7a/EMCAL_2base_2include_2EMCALBase_2Mapper_8h.html" target="_top" xlink:title="EMCALBase/Mapper.h">
<polygon fill="none" stroke="#000000" points="2999.5,-207 2999.5,-226 3120.5,-226 3120.5,-207 2999.5,-207"/>
<text text-anchor="middle" x="3060" y="-214" font-family="Helvetica,sans-Serif" font-size="10.00" fill="#000000">EMCALBase/Mapper.h</text>
</a>
</g>
</g>
<!-- Node50&#45;&gt;Node76 -->
<g id="edge129" class="edge">
<title>Node50&#45;&gt;Node76</title>
<path fill="none" stroke="#191970" d="M2878.5827,-447.3536C2898.9017,-430.0991 2941.6868,-392.2597 2972,-355 3004.5049,-315.0465 3034.9893,-262.4464 3050.0946,-234.9905"/>
<polygon fill="#191970" stroke="#191970" points="3053.2361,-236.5398 3054.9392,-226.0827 3047.0867,-233.1954 3053.2361,-236.5398"/>
</g>
<!-- Node54&#45;&gt;Node2 -->
<g id="edge83" class="edge">
<title>Node54&#45;&gt;Node2</title>
<path fill="none" stroke="#191970" d="M2586.168,-398.0292C2488.6843,-393.4013 2321.2573,-382.0039 2180,-355 2092.6921,-338.3095 2067.0214,-339.7045 1988,-299 1945.2371,-276.9725 1939.4529,-263.3857 1903,-232 1887.7505,-218.8703 1887.7766,-210.4302 1870,-201 1805.6103,-166.8423 1775.5434,-196.8881 1710,-165 1690.4006,-155.4645 1689.8084,-146.5667 1672,-134 1652.9682,-120.57 1630.3712,-106.9828 1613.2618,-97.1389"/>
<polygon fill="#191970" stroke="#191970" points="1614.8004,-93.9873 1604.3786,-92.0799 1611.3362,-100.0701 1614.8004,-93.9873"/>
</g>
<!-- Node54&#45;&gt;Node3 -->
<g id="edge81" class="edge">
<title>Node54&#45;&gt;Node3</title>
<path fill="none" stroke="#191970" d="M2586.49,-398.1436C2411.6464,-391.672 2011.6384,-374.8971 1953,-355 1894.7517,-335.2353 1774.7855,-234.1929 1723,-201 1703.3149,-188.3825 1680.7036,-174.5568 1663.9029,-164.4103"/>
<polygon fill="#191970" stroke="#191970" points="1665.5947,-161.3435 1655.2225,-159.1829 1661.9835,-167.3401 1665.5947,-161.3435"/>
</g>
<!-- Node54&#45;&gt;Node6 -->
<g id="edge88" class="edge">
<title>Node54&#45;&gt;Node6</title>
<path fill="none" stroke="#191970" d="M2749.5567,-391.5637C2856.2094,-379.2237 3038.5316,-358.1286 3115.7459,-349.1947"/>
<polygon fill="#191970" stroke="#191970" points="3116.3934,-352.6432 3125.9248,-348.017 3115.5888,-345.6896 3116.3934,-352.6432"/>
</g>
<!-- Node54&#45;&gt;Node9 -->
<g id="edge82" class="edge">
<title>Node54&#45;&gt;Node9</title>
<path fill="none" stroke="#191970" d="M2586.2534,-392.4866C2440.3352,-376.4893 2141.2922,-339.8513 2045,-299 1996.0902,-278.2503 1989.5534,-262.4273 1946,-232 1926.6866,-218.5073 1924.2986,-211.0713 1903,-201 1846.4747,-174.2713 1825.1855,-187.8907 1767,-165 1765.8047,-164.5298 1764.5955,-164.0224 1763.3841,-163.4882"/>
<polygon fill="#191970" stroke="#191970" points="1764.7701,-160.2702 1754.2476,-159.0342 1761.7027,-166.5624 1764.7701,-160.2702"/>
</g>
<!-- Node54&#45;&gt;Node10 -->
<g id="edge80" class="edge">
<title>Node54&#45;&gt;Node10</title>
<path fill="none" stroke="#191970" d="M2586.1857,-397.6381C2501.2188,-392.7706 2375.1779,-381.2671 2335,-355 2299.1785,-331.581 2240.1677,-214.4082 2217.8874,-168.2397"/>
<polygon fill="#191970" stroke="#191970" points="2220.9644,-166.5615 2213.4884,-159.0541 2214.6511,-169.585 2220.9644,-166.5615"/>
</g>
<!-- Node54&#45;&gt;Node19 -->
<g id="edge87" class="edge">
<title>Node54&#45;&gt;Node19</title>
<path fill="none" stroke="#191970" d="M2719.6274,-391.4649C2802.9068,-376.5242 2972.2137,-347.9664 3117,-335 3360.8216,-313.1645 3980.5258,-358.4287 4218,-299 4283.3656,-282.642 4318.4066,-289.2133 4354,-232 4378.511,-192.6008 4353.808,-163.5106 4318,-134 4281.7589,-104.1324 4228.2285,-91.5463 4191.8261,-86.2682"/>
<polygon fill="#191970" stroke="#191970" points="4191.9532,-82.7545 4181.5798,-84.9092 4191.0327,-89.6937 4191.9532,-82.7545"/>
</g>
<!-- Node54&#45;&gt;Node51 -->
<g id="edge79" class="edge">
<title>Node54&#45;&gt;Node51</title>
<path fill="none" stroke="#191970" d="M2586.471,-397.7484C2419.2747,-390.7961 2042.578,-373.5976 1915,-355 1913.5305,-354.7858 1912.0372,-354.5467 1910.532,-354.2878"/>
<polygon fill="#191970" stroke="#191970" points="1911.0387,-350.8208 1900.5539,-352.3435 1909.6999,-357.6916 1911.0387,-350.8208"/>
</g>
<!-- Node55 -->
<g id="node56" class="node">
<title>Node55</title>
<polygon fill="none" stroke="#bfbfbf" points="2500.5,-335.5 2500.5,-354.5 2573.5,-354.5 2573.5,-335.5 2500.5,-335.5"/>
<text text-anchor="middle" x="2537" y="-342.5" font-family="Helvetica,sans-Serif" font-size="10.00" fill="#000000">string_view</text>
</g>
<!-- Node54&#45;&gt;Node55 -->
<g id="edge84" class="edge">
<title>Node54&#45;&gt;Node55</title>
<path fill="none" stroke="#191970" d="M2645.4803,-391.3733C2624.2628,-382.3032 2592.2724,-368.6279 2568.5231,-358.4755"/>
<polygon fill="#191970" stroke="#191970" points="2569.7967,-355.2136 2559.2258,-354.5011 2567.0452,-361.6502 2569.7967,-355.2136"/>
</g>
<!-- Node56 -->
<g id="node57" class="node">
<title>Node56</title>
<polygon fill="none" stroke="#bfbfbf" points="3027.5,-140 3027.5,-159 3092.5,-159 3092.5,-140 3027.5,-140"/>
<text text-anchor="middle" x="3060" y="-147" font-family="Helvetica,sans-Serif" font-size="10.00" fill="#000000">functional</text>
</g>
<!-- Node54&#45;&gt;Node56 -->
<g id="edge85" class="edge">
<title>Node54&#45;&gt;Node56</title>
<path fill="none" stroke="#191970" d="M2729.3501,-391.4459C2779.3041,-382.8416 2845.1545,-369.3694 2868,-355 2942.1484,-308.362 2928.0536,-261.9167 2991,-201 3004.9221,-187.5268 3022.4335,-174.4954 3036.3313,-164.912"/>
<polygon fill="#191970" stroke="#191970" points="3038.5429,-167.6417 3044.8682,-159.1423 3034.6231,-161.8421 3038.5429,-167.6417"/>
</g>
<!-- Node57 -->
<g id="node58" class="node">
<title>Node57</title>
<polygon fill="none" stroke="#bfbfbf" points="2592,-335.5 2592,-354.5 2640,-354.5 2640,-335.5 2592,-335.5"/>
<text text-anchor="middle" x="2616" y="-342.5" font-family="Helvetica,sans-Serif" font-size="10.00" fill="#000000">mutex</text>
</g>
<!-- Node54&#45;&gt;Node57 -->
<g id="edge86" class="edge">
<title>Node54&#45;&gt;Node57</title>
<path fill="none" stroke="#191970" d="M2658.9423,-391.2455C2651.4858,-383.2155 2640.7366,-371.6394 2631.8583,-362.0781"/>
<polygon fill="#191970" stroke="#191970" points="2634.3232,-359.589 2624.9539,-354.6427 2629.1937,-364.3522 2634.3232,-359.589"/>
</g>
<!-- Node58 -->
<g id="node59" class="node">
<title>Node58</title>
<polygon fill="none" stroke="#bfbfbf" points="2734.5,-335.5 2734.5,-354.5 2817.5,-354.5 2817.5,-335.5 2734.5,-335.5"/>
<text text-anchor="middle" x="2776" y="-342.5" font-family="Helvetica,sans-Serif" font-size="10.00" fill="#000000">TStopwatch.h</text>
</g>
<!-- Node54&#45;&gt;Node58 -->
<g id="edge89" class="edge">
<title>Node54&#45;&gt;Node58</title>
<path fill="none" stroke="#191970" d="M2686.8122,-391.2455C2703.8473,-382.4125 2729.1575,-369.2887 2748.4681,-359.2758"/>
<polygon fill="#191970" stroke="#191970" points="2750.137,-362.353 2757.4034,-354.6427 2746.9147,-356.1388 2750.137,-362.353"/>
</g>
<!-- Node59 -->
<g id="node60" class="node">
<title>Node59</title>
<g id="a_node60"><a xlink:href="../../d4/dee/RAWDataHeader_8h.html" target="_top" xlink:title="Definition of the RAW Data Header. ">
<polygon fill="none" stroke="#000000" points="2600.5,-140 2600.5,-159 2749.5,-159 2749.5,-140 2600.5,-140"/>
<text text-anchor="middle" x="2675" y="-147" font-family="Helvetica,sans-Serif" font-size="10.00" fill="#000000">Headers/RAWDataHeader.h</text>
</a>
</g>
</g>
<!-- Node54&#45;&gt;Node59 -->
<g id="edge90" class="edge">
<title>Node54&#45;&gt;Node59</title>
<path fill="none" stroke="#191970" d="M2666.8753,-391.4561C2664.8132,-373.4245 2660.5015,-333.0991 2659,-299 2658.3939,-285.2356 2658.0761,-281.7468 2659,-268 2661.3447,-233.1117 2667.5305,-192.8337 2671.4878,-169.3619"/>
<polygon fill="#191970" stroke="#191970" points="2674.9749,-169.736 2673.2249,-159.2867 2668.0767,-168.5466 2674.9749,-169.736"/>
</g>
<!-- Node60 -->
<g id="node61" class="node">
<title>Node60</title>
<g id="a_node61"><a xlink:href="../../dc/dcd/DataHeader_8h.html" target="_top" xlink:title="Headers/DataHeader.h">
<polygon fill="none" stroke="#000000" points="2843.5,-140 2843.5,-159 2970.5,-159 2970.5,-140 2843.5,-140"/>
<text text-anchor="middle" x="2907" y="-147" font-family="Helvetica,sans-Serif" font-size="10.00" fill="#000000">Headers/DataHeader.h</text>
</a>
</g>
</g>
<!-- Node54&#45;&gt;Node60 -->
<g id="edge92" class="edge">
<title>Node54&#45;&gt;Node60</title>
<path fill="none" stroke="#191970" d="M2728.2412,-391.4691C2772.7473,-383.3398 2828.5127,-370.5183 2846,-355 2900.9585,-306.2297 2907.4281,-210.4529 2907.512,-169.1853"/>
<polygon fill="#191970" stroke="#191970" points="2911.0107,-169.0366 2907.4013,-159.0756 2904.0111,-169.1133 2911.0107,-169.0366"/>
</g>
<!-- Node68 -->
<g id="node69" class="node">
<title>Node68</title>
<g id="a_node69"><a xlink:href="../../d7/d34/DAQID_8h.html" target="_top" xlink:title="Headers/DAQID.h">
<polygon fill="none" stroke="#000000" points="2783.5,-207 2783.5,-226 2884.5,-226 2884.5,-207 2783.5,-207"/>
<text text-anchor="middle" x="2834" y="-214" font-family="Helvetica,sans-Serif" font-size="10.00" fill="#000000">Headers/DAQID.h</text>
</a>
</g>
</g>
<!-- Node54&#45;&gt;Node68 -->
<g id="edge103" class="edge">
<title>Node54&#45;&gt;Node68</title>
<path fill="none" stroke="#191970" d="M2726.133,-391.4392C2766.1262,-383.5725 2814.2436,-371.1068 2827,-355 2854.1715,-320.6921 2846.2852,-265.2749 2839.4281,-236.0244"/>
<polygon fill="#191970" stroke="#191970" points="2842.7844,-235.0211 2836.9257,-226.1936 2836.0007,-236.748 2842.7844,-235.0211"/>
</g>
<!-- Node69 -->
<g id="node70" class="node">
<title>Node69</title>
<g id="a_node70"><a xlink:href="../../d1/dec/HBFUtils_8h.html" target="_top" xlink:title="DetectorsRaw/HBFUtils.h">
<polygon fill="none" stroke="#000000" points="2343.5,-335.5 2343.5,-354.5 2482.5,-354.5 2482.5,-335.5 2343.5,-335.5"/>
<text text-anchor="middle" x="2413" y="-342.5" font-family="Helvetica,sans-Serif" font-size="10.00" fill="#000000">DetectorsRaw/HBFUtils.h</text>
</a>
</g>
</g>
<!-- Node54&#45;&gt;Node69 -->
<g id="edge105" class="edge">
<title>Node54&#45;&gt;Node69</title>
<path fill="none" stroke="#191970" d="M2624.4537,-391.4369C2580.7207,-381.8328 2513.2655,-367.0191 2466.3458,-356.7152"/>
<polygon fill="#191970" stroke="#191970" points="2466.8847,-353.2502 2456.3667,-354.5237 2465.3832,-360.0872 2466.8847,-353.2502"/>
</g>
<!-- Node70 -->
<g id="node71" class="node">
<title>Node70</title>
<g id="a_node71"><a xlink:href="../../d6/dec/Raw_2include_2DetectorsRaw_2RDHUtils_8h.html" target="_top" xlink:title="DetectorsRaw/RDHUtils.h">
<polygon fill="none" stroke="#000000" points="2667.5,-274 2667.5,-293 2808.5,-293 2808.5,-274 2667.5,-274"/>
<text text-anchor="middle" x="2738" y="-281" font-family="Helvetica,sans-Serif" font-size="10.00" fill="#000000">DetectorsRaw/RDHUtils.h</text>
</a>
</g>
</g>
<!-- Node54&#45;&gt;Node70 -->
<g id="edge128" class="edge">
<title>Node54&#45;&gt;Node70</title>
<path fill="none" stroke="#191970" d="M2673.7284,-391.3845C2685.3677,-371.8471 2711.9534,-327.2211 2727.032,-301.9106"/>
<polygon fill="#191970" stroke="#191970" points="2730.0812,-303.6307 2732.1925,-293.2484 2724.0675,-300.0481 2730.0812,-303.6307"/>
</g>
<!-- Node59&#45;&gt;Node27 -->
<g id="edge91" class="edge">
<title>Node59&#45;&gt;Node27</title>
<path fill="none" stroke="#191970" d="M2675,-139.9005C2675,-130.149 2675,-114.7597 2675,-102.3695"/>
<polygon fill="#191970" stroke="#191970" points="2678.5001,-102.0816 2675,-92.0817 2671.5001,-102.0817 2678.5001,-102.0816"/>
</g>
<!-- Node60&#45;&gt;Node1 -->
<g id="edge94" class="edge">
<title>Node60&#45;&gt;Node1</title>
<path fill="none" stroke="#191970" d="M2843.3472,-141.7848C2817.2455,-138.8946 2786.71,-135.8631 2759,-134 2225.2989,-98.1172 2090.5082,-118.6255 1556,-98 1451.7997,-93.9791 1329.0482,-87.7909 1267.4548,-84.5853"/>
<polygon fill="#191970" stroke="#191970" points="1267.5635,-81.0863 1257.3945,-84.0599 1267.1984,-88.0768 1267.5635,-81.0863"/>
</g>
<!-- Node60&#45;&gt;Node2 -->
<g id="edge99" class="edge">
<title>Node60&#45;&gt;Node2</title>
<path fill="none" stroke="#191970" d="M2843.3333,-141.9805C2817.2295,-139.1196 2786.6963,-136.0569 2759,-134 2308.1214,-100.5143 1757.9265,-86.3777 1619.6893,-83.2124"/>
<polygon fill="#191970" stroke="#191970" points="1619.4515,-79.7062 1609.3749,-82.9792 1619.2932,-86.7044 1619.4515,-79.7062"/>
</g>
<!-- Node60&#45;&gt;Node27 -->
<g id="edge93" class="edge">
<title>Node60&#45;&gt;Node27</title>
<path fill="none" stroke="#191970" d="M2861.1078,-139.9381C2820.5378,-130.927 2760.0455,-116.1198 2709,-98 2707.3608,-97.4181 2705.692,-96.7881 2704.0178,-96.1264"/>
<polygon fill="#191970" stroke="#191970" points="2705.1109,-92.7883 2694.5381,-92.105 2702.3772,-99.2324 2705.1109,-92.7883"/>
</g>
<!-- Node61 -->
<g id="node62" class="node">
<title>Node61</title>
<polygon fill="none" stroke="#bfbfbf" points="2718,-73 2718,-92 2770,-92 2770,-73 2718,-73"/>
<text text-anchor="middle" x="2744" y="-80" font-family="Helvetica,sans-Serif" font-size="10.00" fill="#000000">cassert</text>
</g>
<!-- Node60&#45;&gt;Node61 -->
<g id="edge95" class="edge">
<title>Node60&#45;&gt;Node61</title>
<path fill="none" stroke="#191970" d="M2882.3587,-139.8765C2856.5086,-129.713 2814.7458,-113.1009 2779,-98 2777.6226,-97.4181 2776.217,-96.8188 2774.7987,-96.2096"/>
<polygon fill="#191970" stroke="#191970" points="2775.9865,-92.9094 2765.4206,-92.1257 2773.1916,-99.3273 2775.9865,-92.9094"/>
</g>
<!-- Node62 -->
<g id="node63" class="node">
<title>Node62</title>
<polygon fill="none" stroke="#bfbfbf" points="2788,-73 2788,-92 2838,-92 2838,-73 2788,-73"/>
<text text-anchor="middle" x="2813" y="-80" font-family="Helvetica,sans-Serif" font-size="10.00" fill="#000000">cstring</text>
</g>
<!-- Node60&#45;&gt;Node62 -->
<g id="edge96" class="edge">
<title>Node60&#45;&gt;Node62</title>
<path fill="none" stroke="#191970" d="M2893.5321,-139.9005C2878.1756,-128.9549 2852.8537,-110.9064 2834.7024,-97.9688"/>
<polygon fill="#191970" stroke="#191970" points="2836.6176,-95.0358 2826.4429,-92.0817 2832.5546,-100.736 2836.6176,-95.0358"/>
</g>
<!-- Node63 -->
<g id="node64" class="node">
<title>Node63</title>
<polygon fill="none" stroke="#bfbfbf" points="2856,-73 2856,-92 2920,-92 2920,-73 2856,-73"/>
<text text-anchor="middle" x="2888" y="-80" font-family="Helvetica,sans-Serif" font-size="10.00" fill="#000000">algorithm</text>
</g>
<!-- Node60&#45;&gt;Node63 -->
<g id="edge97" class="edge">
<title>Node60&#45;&gt;Node63</title>
<path fill="none" stroke="#191970" d="M2904.2778,-139.9005C2901.4842,-130.0495 2897.059,-114.4451 2893.5273,-101.9912"/>
<polygon fill="#191970" stroke="#191970" points="2896.8127,-100.7474 2890.7172,-92.0817 2890.0783,-102.6572 2896.8127,-100.7474"/>
</g>
<!-- Node64 -->
<g id="node65" class="node">
<title>Node64</title>
<polygon fill="none" stroke="#bfbfbf" points="2556.5,-73 2556.5,-92 2621.5,-92 2621.5,-73 2556.5,-73"/>
<text text-anchor="middle" x="2589" y="-80" font-family="Helvetica,sans-Serif" font-size="10.00" fill="#000000">stdexcept</text>
</g>
<!-- Node60&#45;&gt;Node64 -->
<g id="edge98" class="edge">
<title>Node60&#45;&gt;Node64</title>
<path fill="none" stroke="#191970" d="M2849.0473,-139.9747C2794.921,-130.6788 2712.0397,-115.4198 2641,-98 2637.0973,-97.043 2633.0514,-95.9746 2629.0184,-94.8584"/>
<polygon fill="#191970" stroke="#191970" points="2629.6861,-91.4091 2619.109,-92.022 2627.7597,-98.1388 2629.6861,-91.4091"/>
</g>
<!-- Node65 -->
<g id="node66" class="node">
<title>Node65</title>
<polygon fill="none" stroke="#bfbfbf" points="2938,-73 2938,-92 2988,-92 2988,-73 2938,-73"/>
<text text-anchor="middle" x="2963" y="-80" font-family="Helvetica,sans-Serif" font-size="10.00" fill="#000000">climits</text>
</g>
<!-- Node60&#45;&gt;Node65 -->
<g id="edge100" class="edge">
<title>Node60&#45;&gt;Node65</title>
<path fill="none" stroke="#191970" d="M2915.0234,-139.9005C2923.7561,-129.4525 2937.8982,-112.5325 2948.5708,-99.7635"/>
<polygon fill="#191970" stroke="#191970" points="2951.2638,-101.9991 2954.9914,-92.0817 2945.8928,-97.5099 2951.2638,-101.9991"/>
</g>
<!-- Node66 -->
<g id="node67" class="node">
<title>Node66</title>
<g id="a_node67"><a xlink:href="../../d7/df8/Types_8h.html" target="_top" xlink:title="MemoryResources/Types.h">
<polygon fill="none" stroke="#000000" points="3006,-73 3006,-92 3152,-92 3152,-73 3006,-73"/>
<text text-anchor="middle" x="3079" y="-80" font-family="Helvetica,sans-Serif" font-size="10.00" fill="#000000">MemoryResources/Types.h</text>
</a>
</g>
</g>
<!-- Node60&#45;&gt;Node66 -->
<g id="edge101" class="edge">
<title>Node60&#45;&gt;Node66</title>
<path fill="none" stroke="#191970" d="M2931.6434,-139.9005C2961.4029,-128.3082 3011.6156,-108.7486 3045.033,-95.7313"/>
<polygon fill="#191970" stroke="#191970" points="3046.3547,-98.9727 3054.4023,-92.0817 3043.8139,-92.4501 3046.3547,-98.9727"/>
</g>
<!-- Node67 -->
<g id="node68" class="node">
<title>Node67</title>
<polygon fill="none" stroke="#bfbfbf" points="3170.5,-73 3170.5,-92 3217.5,-92 3217.5,-73 3170.5,-73"/>
<text text-anchor="middle" x="3194" y="-80" font-family="Helvetica,sans-Serif" font-size="10.00" fill="#000000">cerrno</text>
</g>
<!-- Node60&#45;&gt;Node67 -->
<g id="edge102" class="edge">
<title>Node60&#45;&gt;Node67</title>
<path fill="none" stroke="#191970" d="M2954.808,-139.956C3027.02,-125.5194 3156.0876,-99.6256 3161,-98 3162.6525,-97.4531 3164.3308,-96.8449 3166.0103,-96.1948"/>
<polygon fill="#191970" stroke="#191970" points="3167.6521,-99.2994 3175.4705,-92.1492 3164.8997,-92.8632 3167.6521,-99.2994"/>
</g>
<!-- Node68&#45;&gt;Node60 -->
<g id="edge104" class="edge">
<title>Node68&#45;&gt;Node60</title>
<path fill="none" stroke="#191970" d="M2844.4591,-206.9005C2856.0597,-196.2535 2874.9829,-178.8856 2888.9805,-166.0385"/>
<polygon fill="#191970" stroke="#191970" points="2891.5596,-168.4221 2896.5603,-159.0817 2886.8263,-163.2649 2891.5596,-168.4221"/>
</g>
<!-- Node69&#45;&gt;Node8 -->
<g id="edge118" class="edge">
<title>Node69&#45;&gt;Node8</title>
<path fill="none" stroke="#191970" d="M2343.4135,-342.6661C2257.745,-338.5844 2118.3809,-327.6416 2076,-299 2055.8559,-285.3864 2043.3224,-260.0745 2036.3165,-241.063"/>
<polygon fill="#191970" stroke="#191970" points="2039.6047,-239.8614 2033.0627,-231.5276 2032.9798,-242.1221 2039.6047,-239.8614"/>
</g>
<!-- Node69&#45;&gt;Node19 -->
<g id="edge106" class="edge">
<title>Node69&#45;&gt;Node19</title>
<path fill="none" stroke="#191970" d="M2482.766,-335.9839C2485.8852,-335.6391 2488.9743,-335.3092 2492,-335 2696.8887,-314.062 2748.6829,-315.2071 2954,-299 3326.4743,-269.598 3428.712,-319.3121 3792,-232 3827.0699,-223.5714 3832.1739,-210.3852 3867,-201 3924.5953,-185.4788 4088.9295,-205.1984 4133,-165 4150.257,-149.2593 4153.4104,-121.2692 4153.3204,-102.3038"/>
<polygon fill="#191970" stroke="#191970" points="4156.8107,-101.9659 4152.9587,-92.0961 4149.8151,-102.2138 4156.8107,-101.9659"/>
</g>
<!-- Node69&#45;&gt;Node30 -->
<g id="edge125" class="edge">
<title>Node69&#45;&gt;Node30</title>
<path fill="none" stroke="#191970" d="M2482.7795,-336.106C2485.8951,-335.7281 2488.9797,-335.3579 2492,-335 2636.7569,-317.8466 2673.2715,-316.3912 2818,-299 3008.5595,-276.1016 3230.9003,-246.5663 3355.4862,-229.7605"/>
<polygon fill="#191970" stroke="#191970" points="3356.317,-233.1801 3365.7588,-228.3737 3355.3805,-226.2431 3356.317,-233.1801"/>
</g>
<!-- Node69&#45;&gt;Node70 -->
<g id="edge107" class="edge">
<title>Node69&#45;&gt;Node70</title>
<path fill="none" stroke="#191970" d="M2463.4247,-335.4581C2521.27,-324.512 2616.0577,-306.5752 2677.7424,-294.9026"/>
<polygon fill="#191970" stroke="#191970" points="2678.5496,-298.312 2687.7245,-293.0137 2677.248,-291.4341 2678.5496,-298.312"/>
</g>
<!-- Node73 -->
<g id="node74" class="node">
<title>Node73</title>
<g id="a_node74"><a xlink:href="../../da/d6b/ConfigurableParamHelper_8h.html" target="_top" xlink:title="CommonUtils/Configurable\lParamHelper.h">
<polygon fill="none" stroke="#000000" points="2085,-268.5 2085,-298.5 2233,-298.5 2233,-268.5 2085,-268.5"/>
<text text-anchor="start" x="2093" y="-286.5" font-family="Helvetica,sans-Serif" font-size="10.00" fill="#000000">CommonUtils/Configurable</text>
<text text-anchor="middle" x="2159" y="-275.5" font-family="Helvetica,sans-Serif" font-size="10.00" fill="#000000">ParamHelper.h</text>
</a>
</g>
</g>
<!-- Node69&#45;&gt;Node73 -->
<g id="edge119" class="edge">
<title>Node69&#45;&gt;Node73</title>
<path fill="none" stroke="#191970" d="M2373.5912,-335.4581C2335.6843,-326.2799 2277.4785,-312.1867 2231.246,-300.9926"/>
<polygon fill="#191970" stroke="#191970" points="2231.8179,-297.5301 2221.2751,-298.5784 2230.1706,-304.3335 2231.8179,-297.5301"/>
</g>
<!-- Node75 -->
<g id="node76" class="node">
<title>Node75</title>
<g id="a_node76"><a xlink:href="../../de/da4/Triggers_8h.html" target="_top" xlink:title="Definition of the 32 Central Trigger System (CTS) Trigger Types defined in https://twiki.cern.ch/twiki/pub/ALICE/NoteForFEDevelopers/CTS_CRU_FE_interface.pdf. ">
<polygon fill="none" stroke="#000000" points="2396,-274 2396,-293 2556,-293 2556,-274 2396,-274"/>
<text text-anchor="middle" x="2476" y="-281" font-family="Helvetica,sans-Serif" font-size="10.00" fill="#000000">CommonConstants/Triggers.h</text>
</a>
</g>
</g>
<!-- Node69&#45;&gt;Node75 -->
<g id="edge126" class="edge">
<title>Node69&#45;&gt;Node75</title>
<path fill="none" stroke="#191970" d="M2422.8438,-335.3906C2432.4039,-326.0581 2447.1223,-311.6902 2458.6495,-300.4374"/>
<polygon fill="#191970" stroke="#191970" points="2461.3066,-302.7348 2466.0175,-293.2449 2456.4168,-297.7257 2461.3066,-302.7348"/>
</g>
<!-- Node70&#45;&gt;Node21 -->
<g id="edge109" class="edge">
<title>Node70&#45;&gt;Node21</title>
<path fill="none" stroke="#191970" d="M2781.2861,-273.9881C2791.9484,-271.8343 2803.3602,-269.6877 2814,-268 2953.6075,-245.8551 2989.7426,-249.5642 3130,-232 3231.0362,-219.3474 3255.7297,-211.617 3357,-201 3574.6154,-178.1856 3630.0535,-184.3979 3848,-165 3872.5431,-162.8156 3899.3411,-160.1074 3923.3072,-157.569"/>
<polygon fill="#191970" stroke="#191970" points="3923.8179,-161.0344 3933.3902,-156.4935 3923.0754,-154.0739 3923.8179,-161.0344"/>
</g>
<!-- Node70&#45;&gt;Node22 -->
<g id="edge108" class="edge">
<title>Node70&#45;&gt;Node22</title>
<path fill="none" stroke="#191970" d="M2667.307,-276.566C2580.6471,-267.3401 2443.3227,-250.0782 2428,-232 2412.4258,-213.625 2426.3157,-185.746 2438.7778,-167.5759"/>
<polygon fill="#191970" stroke="#191970" points="2441.9261,-169.1998 2445.0009,-159.0609 2436.2745,-165.0694 2441.9261,-169.1998"/>
</g>
<!-- Node70&#45;&gt;Node30 -->
<g id="edge116" class="edge">
<title>Node70&#45;&gt;Node30</title>
<path fill="none" stroke="#191970" d="M2785.5227,-273.9784C2797.7016,-271.7739 2810.8051,-269.6063 2823,-268 3010.7071,-243.2749 3231.5436,-228.4855 3355.604,-221.4695"/>
<polygon fill="#191970" stroke="#191970" points="3356.0461,-224.9503 3365.8346,-220.8962 3355.6544,-217.9613 3356.0461,-224.9503"/>
</g>
<!-- Node70&#45;&gt;Node59 -->
<g id="edge110" class="edge">
<title>Node70&#45;&gt;Node59</title>
<path fill="none" stroke="#191970" d="M2733.4692,-273.8631C2723.0712,-251.7466 2697.3474,-197.0326 2683.749,-168.109"/>
<polygon fill="#191970" stroke="#191970" points="2686.9119,-166.6102 2679.4898,-159.0496 2680.5771,-169.5885 2686.9119,-166.6102"/>
</g>
<!-- Node70&#45;&gt;Node68 -->
<g id="edge117" class="edge">
<title>Node70&#45;&gt;Node68</title>
<path fill="none" stroke="#191970" d="M2751.7545,-273.9005C2767.4377,-262.9549 2793.2983,-244.9064 2811.8358,-231.9688"/>
<polygon fill="#191970" stroke="#191970" points="2814.0738,-234.675 2820.2711,-226.0817 2810.0676,-228.9347 2814.0738,-234.675"/>
</g>
<!-- Node71 -->
<g id="node72" class="node">
<title>Node71</title>
<g id="a_node72"><a xlink:href="../../d6/d89/RDHAny_8h.html" target="_top" xlink:title="Headers/RDHAny.h">
<polygon fill="none" stroke="#000000" points="2437,-207 2437,-226 2545,-226 2545,-207 2437,-207"/>
<text text-anchor="middle" x="2491" y="-214" font-family="Helvetica,sans-Serif" font-size="10.00" fill="#000000">Headers/RDHAny.h</text>
</a>
</g>
</g>
<!-- Node70&#45;&gt;Node71 -->
<g id="edge111" class="edge">
<title>Node70&#45;&gt;Node71</title>
<path fill="none" stroke="#191970" d="M2702.8732,-273.9717C2659.1043,-262.0991 2584.2366,-241.7909 2536.2227,-228.7669"/>
<polygon fill="#191970" stroke="#191970" points="2536.973,-225.344 2526.4055,-226.1039 2535.1404,-232.0999 2536.973,-225.344"/>
</g>
<!-- Node71&#45;&gt;Node22 -->
<g id="edge112" class="edge">
<title>Node71&#45;&gt;Node22</title>
<path fill="none" stroke="#191970" d="M2485.5555,-206.9005C2479.7991,-196.751 2470.5787,-180.4941 2463.4176,-167.8679"/>
<polygon fill="#191970" stroke="#191970" points="2466.4123,-166.0533 2458.4344,-159.0817 2460.3234,-169.5067 2466.4123,-166.0533"/>
</g>
<!-- Node71&#45;&gt;Node59 -->
<g id="edge113" class="edge">
<title>Node71&#45;&gt;Node59</title>
<path fill="none" stroke="#191970" d="M2517.3627,-206.9005C2549.3351,-195.2584 2603.3759,-175.5805 2639.1225,-162.5641"/>
<polygon fill="#191970" stroke="#191970" points="2640.4873,-165.792 2648.6862,-159.0817 2638.0922,-159.2145 2640.4873,-165.792"/>
</g>
<!-- Node71&#45;&gt;Node64 -->
<g id="edge115" class="edge">
<title>Node71&#45;&gt;Node64</title>
<path fill="none" stroke="#191970" d="M2498.0479,-206.8631C2514.3639,-184.5535 2554.9381,-129.0744 2575.9403,-100.3571"/>
<polygon fill="#191970" stroke="#191970" points="2578.9378,-102.1875 2582.0159,-92.0496 2573.2876,-98.0552 2578.9378,-102.1875"/>
</g>
<!-- Node72 -->
<g id="node73" class="node">
<title>Node72</title>
<polygon fill="none" stroke="#bfbfbf" points="2273.5,-140 2273.5,-159 2342.5,-159 2342.5,-140 2273.5,-140"/>
<text text-anchor="middle" x="2308" y="-147" font-family="Helvetica,sans-Serif" font-size="10.00" fill="#000000">type_traits</text>
</g>
<!-- Node71&#45;&gt;Node72 -->
<g id="edge114" class="edge">
<title>Node71&#45;&gt;Node72</title>
<path fill="none" stroke="#191970" d="M2464.7806,-206.9005C2432.9819,-195.2584 2379.2349,-175.5805 2343.6825,-162.5641"/>
<polygon fill="#191970" stroke="#191970" points="2344.7646,-159.2331 2334.1708,-159.0817 2342.3579,-165.8064 2344.7646,-159.2331"/>
</g>
<!-- Node73&#45;&gt;Node5 -->
<g id="edge124" class="edge">
<title>Node73&#45;&gt;Node5</title>
<path fill="none" stroke="#191970" d="M2086.7369,-268.4639C2019.43,-254.459 1922.0331,-234.1932 1871.0429,-223.5835"/>
<polygon fill="#191970" stroke="#191970" points="1871.6933,-220.1439 1861.19,-221.5333 1870.2673,-226.9971 1871.6933,-220.1439"/>
</g>
<!-- Node73&#45;&gt;Node8 -->
<g id="edge120" class="edge">
<title>Node73&#45;&gt;Node8</title>
<path fill="none" stroke="#191970" d="M2129.8255,-268.4639C2111.4719,-259.0047 2087.5765,-246.6894 2067.655,-236.4222"/>
<polygon fill="#191970" stroke="#191970" points="2069.0193,-233.1879 2058.527,-231.7177 2065.8124,-239.4101 2069.0193,-233.1879"/>
</g>
<!-- Node73&#45;&gt;Node12 -->
<g id="edge123" class="edge">
<title>Node73&#45;&gt;Node12</title>
<path fill="none" stroke="#191970" d="M2153.4731,-268.4178C2146.2638,-250.466 2132.1492,-220.4756 2112,-201 2101.6298,-190.9765 2069.7378,-175.0058 2045.1221,-163.5059"/>
<polygon fill="#191970" stroke="#191970" points="2046.3174,-160.2027 2035.7713,-159.187 2043.3821,-166.5576 2046.3174,-160.2027"/>
</g>
<!-- Node73&#45;&gt;Node72 -->
<g id="edge122" class="edge">
<title>Node73&#45;&gt;Node72</title>
<path fill="none" stroke="#191970" d="M2180.0928,-268.4104C2193.579,-258.4923 2211.2445,-244.9909 2226,-232 2250.2277,-210.6697 2276.1691,-183.8126 2292.2386,-166.6463"/>
<polygon fill="#191970" stroke="#191970" points="2295.0407,-168.7726 2299.2836,-159.0644 2289.9126,-164.0077 2295.0407,-168.7726"/>
</g>
<!-- Node74 -->
<g id="node75" class="node">
<title>Node74</title>
<polygon fill="none" stroke="#bfbfbf" points="2159.5,-207 2159.5,-226 2216.5,-226 2216.5,-207 2159.5,-207"/>
<text text-anchor="middle" x="2188" y="-214" font-family="Helvetica,sans-Serif" font-size="10.00" fill="#000000">TClass.h</text>
</g>
<!-- Node73&#45;&gt;Node74 -->
<g id="edge121" class="edge">
<title>Node73&#45;&gt;Node74</title>
<path fill="none" stroke="#191970" d="M2165.5805,-268.2967C2169.7918,-258.5672 2175.2887,-245.8675 2179.7855,-235.4784"/>
<polygon fill="#191970" stroke="#191970" points="2183.104,-236.6225 2183.8643,-226.055 2176.6799,-233.8419 2183.104,-236.6225"/>
</g>
<!-- Node75&#45;&gt;Node27 -->
<g id="edge127" class="edge">
<title>Node75&#45;&gt;Node27</title>
<path fill="none" stroke="#191970" d="M2497.5346,-273.8946C2514.8902,-265.1802 2538.8236,-250.822 2554,-232 2583.3225,-195.6336 2562.1675,-169.9492 2592,-134 2605.432,-117.8139 2625.3317,-105.2231 2642.2789,-96.5432"/>
<polygon fill="#191970" stroke="#191970" points="2643.8789,-99.657 2651.3304,-92.1254 2640.8085,-93.3663 2643.8789,-99.657"/>
</g>
<!-- Node76&#45;&gt;Node2 -->
<g id="edge137" class="edge">
<title>Node76&#45;&gt;Node2</title>
<path fill="none" stroke="#191970" d="M2999.3183,-210.5162C2967.8986,-207.4985 2928.9047,-203.8783 2894,-201 2782.3154,-191.7902 2495.418,-205.6835 2391,-165 2370.3686,-156.9616 2372.6484,-141.9948 2352,-134 2282.9586,-107.268 1756.1613,-88.1039 1619.3702,-83.543"/>
<polygon fill="#191970" stroke="#191970" points="1619.2418,-80.0369 1609.1317,-83.2047 1619.0106,-87.0331 1619.2418,-80.0369"/>
</g>
<!-- Node76&#45;&gt;Node10 -->
<g id="edge135" class="edge">
<title>Node76&#45;&gt;Node10</title>
<path fill="none" stroke="#191970" d="M2999.3347,-210.3083C2967.9194,-207.2356 2928.9244,-203.6291 2894,-201 2614.777,-179.9803 2541.2742,-210.6056 2265,-165 2259.784,-164.139 2254.3567,-162.9809 2249.0233,-161.6835"/>
<polygon fill="#191970" stroke="#191970" points="2249.5225,-158.1966 2238.9628,-159.0583 2247.7551,-164.9698 2249.5225,-158.1966"/>
</g>
<!-- Node76&#45;&gt;Node15 -->
<g id="edge136" class="edge">
<title>Node76&#45;&gt;Node15</title>
<path fill="none" stroke="#191970" d="M3100.6856,-206.9533C3111.7609,-204.6666 3123.7938,-202.4655 3135,-201 3417.0487,-164.1148 3496.8146,-228.8768 3774,-165 3776.6447,-164.3905 3779.3415,-163.6075 3782.0134,-162.7178"/>
<polygon fill="#191970" stroke="#191970" points="3783.3295,-165.962 3791.4426,-159.1482 3780.8512,-159.4154 3783.3295,-165.962"/>
</g>
<!-- Node76&#45;&gt;Node17 -->
<g id="edge134" class="edge">
<title>Node76&#45;&gt;Node17</title>
<path fill="none" stroke="#191970" d="M3105.1787,-206.9875C3115.0011,-204.9685 3125.3423,-202.8801 3135,-201 3222.3653,-183.992 3250.9558,-201.7942 3332,-165 3352.1615,-155.8466 3350.9892,-143.4783 3371,-134 3438.4883,-102.0336 3526.155,-89.6616 3574.0224,-85.063"/>
<polygon fill="#191970" stroke="#191970" points="3574.5288,-88.5317 3584.1742,-84.1479 3573.9003,-81.5599 3574.5288,-88.5317"/>
</g>
<!-- Node76&#45;&gt;Node19 -->
<g id="edge140" class="edge">
<title>Node76&#45;&gt;Node19</title>
<path fill="none" stroke="#191970" d="M3102.7049,-206.9345C3113.2272,-204.7823 3124.4919,-202.6499 3135,-201 3282.0606,-177.9092 3330.6575,-222.4198 3468,-165 3488.1092,-156.5928 3485.7745,-142.1235 3506,-134 3562.1613,-111.4431 3980.2943,-90.4219 4112.2345,-84.2906"/>
<polygon fill="#191970" stroke="#191970" points="4112.4833,-87.783 4122.3112,-83.8255 4112.1605,-80.7904 4112.4833,-87.783"/>
</g>
<!-- Node76&#45;&gt;Node25 -->
<g id="edge141" class="edge">
<title>Node76&#45;&gt;Node25</title>
<path fill="none" stroke="#191970" d="M3085.2165,-206.9005C3115.6681,-195.3082 3167.0485,-175.7486 3201.243,-162.7313"/>
<polygon fill="#191970" stroke="#191970" points="3202.7298,-165.9105 3210.8303,-159.0817 3200.2393,-159.3685 3202.7298,-165.9105"/>
</g>
<!-- Node76&#45;&gt;Node26 -->
<g id="edge132" class="edge">
<title>Node76&#45;&gt;Node26</title>
<path fill="none" stroke="#191970" d="M3067.2625,-206.8416C3080.3488,-190.0139 3109.4749,-155.1037 3141,-134 3149.0873,-128.5861 3198.7148,-109.0555 3233.4797,-95.6645"/>
<polygon fill="#191970" stroke="#191970" points="3234.7644,-98.9205 3242.8442,-92.0672 3232.2542,-92.386 3234.7644,-98.9205"/>
</g>
<!-- Node76&#45;&gt;Node27 -->
<g id="edge131" class="edge">
<title>Node76&#45;&gt;Node27</title>
<path fill="none" stroke="#191970" d="M2999.38,-211.9938C2945.4029,-206.2497 2865.2645,-193.3956 2801,-165 2779.7786,-155.6232 2778.2407,-146.9641 2759,-134 2739.7289,-121.0154 2717.2572,-107.3098 2700.408,-97.3045"/>
<polygon fill="#191970" stroke="#191970" points="2702.0728,-94.223 2691.6818,-92.1549 2698.5151,-100.2516 2702.0728,-94.223"/>
</g>
<!-- Node76&#45;&gt;Node35 -->
<g id="edge139" class="edge">
<title>Node76&#45;&gt;Node35</title>
<path fill="none" stroke="#191970" d="M2999.3438,-210.1835C2967.9309,-207.0779 2928.9353,-203.4796 2894,-201 2565.5484,-177.6879 2478.4287,-221.302 2154,-165 2149.2901,-164.1826 2144.4044,-163.064 2139.6057,-161.799"/>
<polygon fill="#191970" stroke="#191970" points="2140.5385,-158.4256 2129.9619,-159.0465 2138.6172,-165.1568 2140.5385,-158.4256"/>
</g>
<!-- Node76&#45;&gt;Node52 -->
<g id="edge130" class="edge">
<title>Node76&#45;&gt;Node52</title>
<path fill="none" stroke="#191970" d="M3102.2995,-206.9433C3112.9346,-204.7655 3124.3527,-202.6192 3135,-201 3296.5937,-176.4252 3342.9362,-206.6207 3501,-165 3503.3316,-164.386 3505.7054,-163.6348 3508.0624,-162.7975"/>
<polygon fill="#191970" stroke="#191970" points="3509.5335,-165.9784 3517.5075,-159.0023 3506.9235,-159.4832 3509.5335,-165.9784"/>
</g>
<!-- Node76&#45;&gt;Node56 -->
<g id="edge133" class="edge">
<title>Node76&#45;&gt;Node56</title>
<path fill="none" stroke="#191970" d="M3060,-206.9005C3060,-197.149 3060,-181.7597 3060,-169.3695"/>
<polygon fill="#191970" stroke="#191970" points="3063.5001,-169.0816 3060,-159.0817 3056.5001,-169.0817 3063.5001,-169.0816"/>
</g>
<!-- Node77 -->
<g id="node78" class="node">
<title>Node77</title>
<polygon fill="none" stroke="#bfbfbf" points="3379.5,-140 3379.5,-159 3458.5,-159 3458.5,-140 3379.5,-140"/>
<text text-anchor="middle" x="3419" y="-147" font-family="Helvetica,sans-Serif" font-size="10.00" fill="#000000">fmt/format.h</text>
</g>
<!-- Node76&#45;&gt;Node77 -->
<g id="edge138" class="edge">
<title>Node76&#45;&gt;Node77</title>
<path fill="none" stroke="#191970" d="M3104.3481,-206.9634C3114.4082,-204.9035 3125.0575,-202.8044 3135,-201 3236.8039,-182.5242 3263.9685,-187.3161 3365,-165 3369.4048,-164.027 3373.9806,-162.8997 3378.5218,-161.7056"/>
<polygon fill="#191970" stroke="#191970" points="3379.6086,-165.0369 3388.3282,-159.0187 3377.7587,-158.2857 3379.6086,-165.0369"/>
</g>
</g>
</svg>
