<?xml version="1.0" encoding="UTF-8" standalone="no"?>
<!DOCTYPE svg PUBLIC "-//W3C//DTD SVG 1.1//EN"
 "http://www.w3.org/Graphics/SVG/1.1/DTD/svg11.dtd">
<!-- Generated by graphviz version 2.40.1 (20161225.0304)
 -->
<!-- Title: /home/travis/build/AliceO2Group/AliceO2/Analysis/Core/src/InsertNewRunToTimestamp.cxx Pages: 1 -->
<svg width="649pt" height="285pt"
 viewBox="0.00 0.00 648.50 285.00" xmlns="http://www.w3.org/2000/svg" xmlns:xlink="http://www.w3.org/1999/xlink">
<g id="graph0" class="graph" transform="scale(1 1) rotate(0) translate(4 281)">
<title>/home/travis/build/AliceO2Group/AliceO2/Analysis/Core/src/InsertNewRunToTimestamp.cxx</title>
<!-- Node0 -->
<g id="node1" class="node">
<title>Node0</title>
<polygon fill="#bfbfbf" stroke="#000000" points="244,-224.5 244,-276.5 400,-276.5 400,-224.5 244,-224.5"/>
<text text-anchor="start" x="252" y="-264.5" font-family="Helvetica,sans-Serif" font-size="10.00" fill="#000000">/home/travis/build</text>
<text text-anchor="start" x="252" y="-253.5" font-family="Helvetica,sans-Serif" font-size="10.00" fill="#000000">/AliceO2Group/AliceO2</text>
<text text-anchor="start" x="252" y="-242.5" font-family="Helvetica,sans-Serif" font-size="10.00" fill="#000000">/Analysis/Core/src/InsertNew</text>
<text text-anchor="middle" x="322" y="-231.5" font-family="Helvetica,sans-Serif" font-size="10.00" fill="#000000">RunToTimestamp.cxx</text>
</g>
<!-- Node1 -->
<g id="node2" class="node">
<title>Node1</title>
<g id="a_node2"><a xlink:href="../../d8/d9e/RunToTimestamp_8h.html" target="_top" xlink:title="Analysis/RunToTimestamp.h">
<polygon fill="none" stroke="#000000" points="0,-168.5 0,-187.5 154,-187.5 154,-168.5 0,-168.5"/>
<text text-anchor="middle" x="77" y="-175.5" font-family="Helvetica,sans-Serif" font-size="10.00" fill="#000000">Analysis/RunToTimestamp.h</text>
</a>
</g>
</g>
<!-- Node0&#45;&gt;Node1 -->
<g id="edge1" class="edge">
<title>Node0&#45;&gt;Node1</title>
<path fill="none" stroke="#191970" d="M243.8069,-227.3612C202.3826,-215.103 153.1464,-200.5331 118.9511,-190.4141"/>
<polygon fill="#191970" stroke="#191970" points="119.8685,-187.0356 109.2863,-187.5541 117.8821,-193.7479 119.8685,-187.0356"/>
</g>
<!-- Node4 -->
<g id="node5" class="node">
<title>Node4</title>
<g id="a_node5"><a xlink:href="../../dd/d3e/CcdbApi_8h.html" target="_top" xlink:title="CCDB/CcdbApi.h">
<polygon fill="none" stroke="#000000" points="204,-168.5 204,-187.5 300,-187.5 300,-168.5 204,-168.5"/>
<text text-anchor="middle" x="252" y="-175.5" font-family="Helvetica,sans-Serif" font-size="10.00" fill="#000000">CCDB/CcdbApi.h</text>
</a>
</g>
</g>
<!-- Node0&#45;&gt;Node4 -->
<g id="edge4" class="edge">
<title>Node0&#45;&gt;Node4</title>
<path fill="none" stroke="#191970" d="M296.7284,-224.3258C287.2538,-214.5128 276.746,-203.6298 268.297,-194.879"/>
<polygon fill="#191970" stroke="#191970" points="270.6691,-192.297 261.2052,-187.534 265.6333,-197.1591 270.6691,-192.297"/>
</g>
<!-- Node13 -->
<g id="node14" class="node">
<title>Node13</title>
<polygon fill="none" stroke="#bfbfbf" points="318,-168.5 318,-187.5 468,-187.5 468,-168.5 318,-168.5"/>
<text text-anchor="middle" x="393" y="-175.5" font-family="Helvetica,sans-Serif" font-size="10.00" fill="#000000">boost/program_options.hpp</text>
</g>
<!-- Node0&#45;&gt;Node13 -->
<g id="edge15" class="edge">
<title>Node0&#45;&gt;Node13</title>
<path fill="none" stroke="#191970" d="M347.6326,-224.3258C357.2426,-214.5128 367.9005,-203.6298 376.4702,-194.879"/>
<polygon fill="#191970" stroke="#191970" points="379.1671,-197.1275 383.6633,-187.534 374.1658,-192.2297 379.1671,-197.1275"/>
</g>
<!-- Node14 -->
<g id="node15" class="node">
<title>Node14</title>
<polygon fill="none" stroke="#bfbfbf" points="485.5,-168.5 485.5,-187.5 560.5,-187.5 560.5,-168.5 485.5,-168.5"/>
<text text-anchor="middle" x="523" y="-175.5" font-family="Helvetica,sans-Serif" font-size="10.00" fill="#000000">FairLogger.h</text>
</g>
<!-- Node0&#45;&gt;Node14 -->
<g id="edge16" class="edge">
<title>Node0&#45;&gt;Node14</title>
<path fill="none" stroke="#191970" d="M394.2816,-224.4283C425.6791,-213.1033 461.0751,-200.3361 486.7913,-191.0604"/>
<polygon fill="#191970" stroke="#191970" points="488.2694,-194.248 496.4886,-187.5626 485.8942,-187.6633 488.2694,-194.248"/>
</g>
<!-- Node2 -->
<g id="node3" class="node">
<title>Node2</title>
<polygon fill="none" stroke="#bfbfbf" points="58,-112.5 58,-131.5 96,-131.5 96,-112.5 58,-112.5"/>
<text text-anchor="middle" x="77" y="-119.5" font-family="Helvetica,sans-Serif" font-size="10.00" fill="#000000">map</text>
</g>
<!-- Node1&#45;&gt;Node2 -->
<g id="edge2" class="edge">
<title>Node1&#45;&gt;Node2</title>
<path fill="none" stroke="#191970" d="M77,-168.2455C77,-160.9382 77,-150.6944 77,-141.7046"/>
<polygon fill="#191970" stroke="#191970" points="80.5001,-141.6426 77,-131.6427 73.5001,-141.6427 80.5001,-141.6426"/>
</g>
<!-- Node3 -->
<g id="node4" class="node">
<title>Node3</title>
<polygon fill="none" stroke="#bfbfbf" points="220.5,-56.5 220.5,-75.5 279.5,-75.5 279.5,-56.5 220.5,-56.5"/>
<text text-anchor="middle" x="250" y="-63.5" font-family="Helvetica,sans-Serif" font-size="10.00" fill="#000000">Rtypes.h</text>
</g>
<!-- Node1&#45;&gt;Node3 -->
<g id="edge3" class="edge">
<title>Node1&#45;&gt;Node3</title>
<path fill="none" stroke="#191970" d="M66.9401,-168.1778C54.1222,-154.4662 35.1914,-129.3258 49,-112 68.7666,-87.1986 157.461,-74.6927 210.1987,-69.3431"/>
<polygon fill="#191970" stroke="#191970" points="210.6215,-72.8186 220.2357,-68.3671 209.9439,-65.8514 210.6215,-72.8186"/>
</g>
<!-- Node4&#45;&gt;Node2 -->
<g id="edge7" class="edge">
<title>Node4&#45;&gt;Node2</title>
<path fill="none" stroke="#191970" d="M220.3403,-168.4906C192.4728,-160.0325 150.5867,-147.1083 105.834,-132.1976"/>
<polygon fill="#191970" stroke="#191970" points="106.8386,-128.843 96.2448,-128.9865 104.6159,-135.4808 106.8386,-128.843"/>
</g>
<!-- Node5 -->
<g id="node6" class="node">
<title>Node5</title>
<polygon fill="none" stroke="#bfbfbf" points="114,-112.5 114,-131.5 158,-131.5 158,-112.5 114,-112.5"/>
<text text-anchor="middle" x="136" y="-119.5" font-family="Helvetica,sans-Serif" font-size="10.00" fill="#000000">string</text>
</g>
<!-- Node4&#45;&gt;Node5 -->
<g id="edge5" class="edge">
<title>Node4&#45;&gt;Node5</title>
<path fill="none" stroke="#191970" d="M232.0589,-168.3733C213.5214,-159.4241 185.6972,-145.9917 164.7587,-135.8835"/>
<polygon fill="#191970" stroke="#191970" points="166.2081,-132.6967 155.6809,-131.5011 163.1648,-139.0006 166.2081,-132.6967"/>
</g>
<!-- Node6 -->
<g id="node7" class="node">
<title>Node6</title>
<polygon fill="none" stroke="#bfbfbf" points="176,-112.5 176,-131.5 234,-131.5 234,-112.5 176,-112.5"/>
<text text-anchor="middle" x="205" y="-119.5" font-family="Helvetica,sans-Serif" font-size="10.00" fill="#000000">memory</text>
</g>
<!-- Node4&#45;&gt;Node6 -->
<g id="edge6" class="edge">
<title>Node4&#45;&gt;Node6</title>
<path fill="none" stroke="#191970" d="M243.8132,-168.2455C237.1411,-160.2958 227.5521,-148.8706 219.5747,-139.3656"/>
<polygon fill="#191970" stroke="#191970" points="222.2026,-137.0524 213.093,-131.6427 216.8408,-141.5525 222.2026,-137.0524"/>
</g>
<!-- Node7 -->
<g id="node8" class="node">
<title>Node7</title>
<polygon fill="none" stroke="#bfbfbf" points="252.5,-112.5 252.5,-131.5 317.5,-131.5 317.5,-112.5 252.5,-112.5"/>
<text text-anchor="middle" x="285" y="-119.5" font-family="Helvetica,sans-Serif" font-size="10.00" fill="#000000">curl/curl.h</text>
</g>
<!-- Node4&#45;&gt;Node7 -->
<g id="edge8" class="edge">
<title>Node4&#45;&gt;Node7</title>
<path fill="none" stroke="#191970" d="M257.7482,-168.2455C262.2435,-160.617 268.6248,-149.7881 274.0825,-140.5267"/>
<polygon fill="#191970" stroke="#191970" points="277.2561,-142.035 279.3177,-131.6427 271.2253,-138.4811 277.2561,-142.035"/>
</g>
<!-- Node8 -->
<g id="node9" class="node">
<title>Node8</title>
<polygon fill="none" stroke="#bfbfbf" points="335.5,-112.5 335.5,-131.5 398.5,-131.5 398.5,-112.5 335.5,-112.5"/>
<text text-anchor="middle" x="367" y="-119.5" font-family="Helvetica,sans-Serif" font-size="10.00" fill="#000000">TObject.h</text>
</g>
<!-- Node4&#45;&gt;Node8 -->
<g id="edge9" class="edge">
<title>Node4&#45;&gt;Node8</title>
<path fill="none" stroke="#191970" d="M271.7692,-168.3733C290.1469,-159.4241 317.7312,-145.9917 338.4893,-135.8835"/>
<polygon fill="#191970" stroke="#191970" points="340.0304,-139.026 347.4888,-131.5011 336.9657,-132.7325 340.0304,-139.026"/>
</g>
<!-- Node9 -->
<g id="node10" class="node">
<title>Node9</title>
<polygon fill="none" stroke="#bfbfbf" points="417,-112.5 417,-131.5 491,-131.5 491,-112.5 417,-112.5"/>
<text text-anchor="middle" x="454" y="-119.5" font-family="Helvetica,sans-Serif" font-size="10.00" fill="#000000">TMessage.h</text>
</g>
<!-- Node4&#45;&gt;Node9 -->
<g id="edge10" class="edge">
<title>Node4&#45;&gt;Node9</title>
<path fill="none" stroke="#191970" d="M286.725,-168.3733C320.7508,-158.9404 372.7437,-144.5265 409.7234,-134.2747"/>
<polygon fill="#191970" stroke="#191970" points="411.0266,-137.5455 419.7281,-131.5011 409.1565,-130.7999 411.0266,-137.5455"/>
</g>
<!-- Node10 -->
<g id="node11" class="node">
<title>Node10</title>
<g id="a_node11"><a xlink:href="../../d4/dab/CcdbObjectInfo_8h.html" target="_top" xlink:title="CCDB/CcdbObjectInfo.h">
<polygon fill="none" stroke="#000000" points="509.5,-112.5 509.5,-131.5 640.5,-131.5 640.5,-112.5 509.5,-112.5"/>
<text text-anchor="middle" x="575" y="-119.5" font-family="Helvetica,sans-Serif" font-size="10.00" fill="#000000">CCDB/CcdbObjectInfo.h</text>
</a>
</g>
</g>
<!-- Node4&#45;&gt;Node10 -->
<g id="edge11" class="edge">
<title>Node4&#45;&gt;Node10</title>
<path fill="none" stroke="#191970" d="M300.2006,-169.5353C303.1781,-169.015 306.1296,-168.5 309,-168 377.4246,-156.0815 455.7707,-142.5464 509.6203,-133.2607"/>
<polygon fill="#191970" stroke="#191970" points="510.4575,-136.668 519.7175,-131.5198 509.2682,-129.7698 510.4575,-136.668"/>
</g>
<!-- Node10&#45;&gt;Node3 -->
<g id="edge12" class="edge">
<title>Node10&#45;&gt;Node3</title>
<path fill="none" stroke="#191970" d="M519.4998,-112.4369C454.3024,-101.2029 347.738,-82.841 290.0811,-72.9063"/>
<polygon fill="#191970" stroke="#191970" points="290.3546,-69.4019 279.9055,-71.1529 289.1659,-76.3002 290.3546,-69.4019"/>
</g>
<!-- Node11 -->
<g id="node12" class="node">
<title>Node11</title>
<g id="a_node12"><a xlink:href="../../dd/da4/Logger_8h.html" target="_top" xlink:title="Framework/Logger.h">
<polygon fill="none" stroke="#000000" points="517.5,-56.5 517.5,-75.5 632.5,-75.5 632.5,-56.5 517.5,-56.5"/>
<text text-anchor="middle" x="575" y="-63.5" font-family="Helvetica,sans-Serif" font-size="10.00" fill="#000000">Framework/Logger.h</text>
</a>
</g>
</g>
<!-- Node10&#45;&gt;Node11 -->
<g id="edge13" class="edge">
<title>Node10&#45;&gt;Node11</title>
<path fill="none" stroke="#191970" d="M575,-112.2455C575,-104.9382 575,-94.6944 575,-85.7046"/>
<polygon fill="#191970" stroke="#191970" points="578.5001,-85.6426 575,-75.6427 571.5001,-85.6427 578.5001,-85.6426"/>
</g>
<!-- Node12 -->
<g id="node13" class="node">
<title>Node12</title>
<polygon fill="none" stroke="#bfbfbf" points="521,-.5 521,-19.5 629,-19.5 629,-.5 521,-.5"/>
<text text-anchor="middle" x="575" y="-7.5" font-family="Helvetica,sans-Serif" font-size="10.00" fill="#000000">fairlogger/Logger.h</text>
</g>
<!-- Node11&#45;&gt;Node12 -->
<g id="edge14" class="edge">
<title>Node11&#45;&gt;Node12</title>
<path fill="none" stroke="#191970" d="M575,-56.2455C575,-48.9382 575,-38.6944 575,-29.7046"/>
<polygon fill="#191970" stroke="#191970" points="578.5001,-29.6426 575,-19.6427 571.5001,-29.6427 578.5001,-29.6426"/>
</g>
</g>
</svg>
