<?xml version="1.0" encoding="UTF-8" standalone="no"?>
<!DOCTYPE svg PUBLIC "-//W3C//DTD SVG 1.1//EN"
 "http://www.w3.org/Graphics/SVG/1.1/DTD/svg11.dtd">
<!-- Generated by graphviz version 2.40.1 (20161225.0304)
 -->
<!-- Title: DptDptCorrelationsTask Pages: 1 -->
<svg width="599pt" height="590pt"
 viewBox="0.00 0.00 599.00 590.00" xmlns="http://www.w3.org/2000/svg" xmlns:xlink="http://www.w3.org/1999/xlink">
<g id="graph0" class="graph" transform="scale(1 1) rotate(0) translate(4 586)">
<title>DptDptCorrelationsTask</title>
<!-- Node1 -->
<g id="node1" class="node">
<title>Node1</title>
<polygon fill="#bfbfbf" stroke="#000000" points="261.5,-.5 261.5,-57.5 393.5,-57.5 393.5,-.5 261.5,-.5"/>
<text text-anchor="middle" x="327.5" y="-45.5" font-family="Helvetica,sans-Serif" font-size="10.00" fill="#000000">DptDptCorrelationsTask</text>
<polyline fill="none" stroke="#000000" points="261.5,-38.5 393.5,-38.5 "/>
<text text-anchor="middle" x="327.5" y="-26.5" font-family="Helvetica,sans-Serif" font-size="10.00" fill="#000000"> </text>
<polyline fill="none" stroke="#000000" points="261.5,-19.5 393.5,-19.5 "/>
<text text-anchor="start" x="269.5" y="-7.5" font-family="Helvetica,sans-Serif" font-size="10.00" fill="#000000">+ process()</text>
</g>
<!-- Node2 -->
<g id="node2" class="node">
<title>Node2</title>
<g id="a_node2"><a xlink:href="../../d1/dbf/structo2_1_1framework_1_1Partition.html" target="_top" xlink:title="{o2::framework::Partition\l\&lt; FilteredTracks \&gt;\n||+ Partition()\l+ setTable()\l+ bindExternalIndices()\l+ getBoundToExternalIndices()\l+ begin()\l+ begin()\l+ end()\l+ end()\l+ size()\l}">
<polygon fill="none" stroke="#000000" points="155,-116.5 155,-272.5 322,-272.5 322,-116.5 155,-116.5"/>
<text text-anchor="start" x="163" y="-260.5" font-family="Helvetica,sans-Serif" font-size="10.00" fill="#000000">o2::framework::Partition</text>
<text text-anchor="middle" x="238.5" y="-249.5" font-family="Helvetica,sans-Serif" font-size="10.00" fill="#000000">&lt; FilteredTracks &gt;</text>
<polyline fill="none" stroke="#000000" points="155,-242.5 322,-242.5 "/>
<text text-anchor="middle" x="238.5" y="-230.5" font-family="Helvetica,sans-Serif" font-size="10.00" fill="#000000"> </text>
<polyline fill="none" stroke="#000000" points="155,-223.5 322,-223.5 "/>
<text text-anchor="start" x="163" y="-211.5" font-family="Helvetica,sans-Serif" font-size="10.00" fill="#000000">+ Partition()</text>
<text text-anchor="start" x="163" y="-200.5" font-family="Helvetica,sans-Serif" font-size="10.00" fill="#000000">+ setTable()</text>
<text text-anchor="start" x="163" y="-189.5" font-family="Helvetica,sans-Serif" font-size="10.00" fill="#000000">+ bindExternalIndices()</text>
<text text-anchor="start" x="163" y="-178.5" font-family="Helvetica,sans-Serif" font-size="10.00" fill="#000000">+ getBoundToExternalIndices()</text>
<text text-anchor="start" x="163" y="-167.5" font-family="Helvetica,sans-Serif" font-size="10.00" fill="#000000">+ begin()</text>
<text text-anchor="start" x="163" y="-156.5" font-family="Helvetica,sans-Serif" font-size="10.00" fill="#000000">+ begin()</text>
<text text-anchor="start" x="163" y="-145.5" font-family="Helvetica,sans-Serif" font-size="10.00" fill="#000000">+ end()</text>
<text text-anchor="start" x="163" y="-134.5" font-family="Helvetica,sans-Serif" font-size="10.00" fill="#000000">+ end()</text>
<text text-anchor="start" x="163" y="-123.5" font-family="Helvetica,sans-Serif" font-size="10.00" fill="#000000">+ size()</text>
</a>
</g>
</g>
<!-- Node2&#45;&gt;Node1 -->
<g id="edge1" class="edge">
<title>Node2&#45;&gt;Node1</title>
<path fill="none" stroke="#404040" d="M280.6543,-116.112C289.5173,-99.6308 298.5047,-82.9182 306.205,-68.5991"/>
<polygon fill="none" stroke="#404040" points="306.394,-68.2475 305.7129,-61.0686 312.0776,-57.6788 312.7587,-64.8577 306.394,-68.2475"/>
<text text-anchor="middle" x="326" y="-90" font-family="Helvetica,sans-Serif" font-size="10.00" fill="#000000"> +Tracks1</text>
<text text-anchor="middle" x="326" y="-79" font-family="Helvetica,sans-Serif" font-size="10.00" fill="#000000">+Tracks2</text>
</g>
<!-- Node3 -->
<g id="node3" class="node">
<title>Node3</title>
<polygon fill="none" stroke="#bfbfbf" points="0,-359 0,-427 159,-427 159,-359 0,-359"/>
<text text-anchor="start" x="8" y="-415" font-family="Helvetica,sans-Serif" font-size="10.00" fill="#000000">unique_ptr&lt; o2::soa</text>
<text text-anchor="middle" x="79.5" y="-404" font-family="Helvetica,sans-Serif" font-size="10.00" fill="#000000">::Filtered&lt; FilteredTracks &gt; &gt;</text>
<polyline fill="none" stroke="#bfbfbf" points="0,-397 159,-397 "/>
<text text-anchor="middle" x="79.5" y="-385" font-family="Helvetica,sans-Serif" font-size="10.00" fill="#000000"> </text>
<polyline fill="none" stroke="#bfbfbf" points="0,-378 159,-378 "/>
<text text-anchor="middle" x="79.5" y="-366" font-family="Helvetica,sans-Serif" font-size="10.00" fill="#000000"> </text>
</g>
<!-- Node3&#45;&gt;Node2 -->
<g id="edge2" class="edge">
<title>Node3&#45;&gt;Node2</title>
<path fill="none" stroke="#404040" d="M89.3593,-358.7332C96.4326,-337.86 107.3929,-311.3782 122.5,-291 129.4619,-281.609 137.5215,-272.5597 146.0845,-264.0184"/>
<polygon fill="none" stroke="#404040" points="146.1393,-263.9657 147.6952,-256.9245 154.7933,-255.6525 153.2373,-262.6938 146.1393,-263.9657"/>
<text text-anchor="middle" x="151.5" y="-294" font-family="Helvetica,sans-Serif" font-size="10.00" fill="#000000"> +mFiltered</text>
</g>
<!-- Node4 -->
<g id="node4" class="node">
<title>Node4</title>
<polygon fill="none" stroke="#bfbfbf" points="186.5,-519 186.5,-576 242.5,-576 242.5,-519 186.5,-519"/>
<text text-anchor="middle" x="214.5" y="-564" font-family="Helvetica,sans-Serif" font-size="10.00" fill="#000000">NodePtr</text>
<polyline fill="none" stroke="#bfbfbf" points="186.5,-557 242.5,-557 "/>
<text text-anchor="middle" x="214.5" y="-545" font-family="Helvetica,sans-Serif" font-size="10.00" fill="#000000"> </text>
<polyline fill="none" stroke="#bfbfbf" points="186.5,-538 242.5,-538 "/>
<text text-anchor="middle" x="214.5" y="-526" font-family="Helvetica,sans-Serif" font-size="10.00" fill="#000000"> </text>
</g>
<!-- Node4&#45;&gt;Node2 -->
<g id="edge3" class="edge">
<title>Node4&#45;&gt;Node2</title>
<path fill="none" stroke="#404040" d="M209.6888,-518.9297C207.3046,-503.3379 204.6867,-483.6644 203.5,-466 199.1506,-401.257 194.7031,-384.2898 203.5,-320 205.0869,-308.4024 207.4625,-296.3653 210.243,-284.5402"/>
<polygon fill="none" stroke="#404040" points="210.263,-284.4589 207.8207,-277.674 213.1443,-272.8099 215.5867,-279.5948 210.263,-284.4589"/>
<text text-anchor="middle" x="224.5" y="-390.5" font-family="Helvetica,sans-Serif" font-size="10.00" fill="#000000"> +mTree</text>
</g>
<!-- Node5 -->
<g id="node5" class="node">
<title>Node5</title>
<g id="a_node5"><a xlink:href="../../d1/dbf/structo2_1_1framework_1_1Partition.html" target="_top" xlink:title="{o2::framework::Partition\&lt; T \&gt;\n||+ Partition()\l+ setTable()\l+ bindExternalIndices()\l+ getBoundToExternalIndices()\l+ begin()\l+ end()\l+ begin()\l+ end()\l+ size()\l}">
<polygon fill="none" stroke="#000000" points="255,-320.5 255,-465.5 422,-465.5 422,-320.5 255,-320.5"/>
<text text-anchor="middle" x="338.5" y="-453.5" font-family="Helvetica,sans-Serif" font-size="10.00" fill="#000000">o2::framework::Partition&lt; T &gt;</text>
<polyline fill="none" stroke="#000000" points="255,-446.5 422,-446.5 "/>
<text text-anchor="middle" x="338.5" y="-434.5" font-family="Helvetica,sans-Serif" font-size="10.00" fill="#000000"> </text>
<polyline fill="none" stroke="#000000" points="255,-427.5 422,-427.5 "/>
<text text-anchor="start" x="263" y="-415.5" font-family="Helvetica,sans-Serif" font-size="10.00" fill="#000000">+ Partition()</text>
<text text-anchor="start" x="263" y="-404.5" font-family="Helvetica,sans-Serif" font-size="10.00" fill="#000000">+ setTable()</text>
<text text-anchor="start" x="263" y="-393.5" font-family="Helvetica,sans-Serif" font-size="10.00" fill="#000000">+ bindExternalIndices()</text>
<text text-anchor="start" x="263" y="-382.5" font-family="Helvetica,sans-Serif" font-size="10.00" fill="#000000">+ getBoundToExternalIndices()</text>
<text text-anchor="start" x="263" y="-371.5" font-family="Helvetica,sans-Serif" font-size="10.00" fill="#000000">+ begin()</text>
<text text-anchor="start" x="263" y="-360.5" font-family="Helvetica,sans-Serif" font-size="10.00" fill="#000000">+ end()</text>
<text text-anchor="start" x="263" y="-349.5" font-family="Helvetica,sans-Serif" font-size="10.00" fill="#000000">+ begin()</text>
<text text-anchor="start" x="263" y="-338.5" font-family="Helvetica,sans-Serif" font-size="10.00" fill="#000000">+ end()</text>
<text text-anchor="start" x="263" y="-327.5" font-family="Helvetica,sans-Serif" font-size="10.00" fill="#000000">+ size()</text>
</a>
</g>
</g>
<!-- Node4&#45;&gt;Node5 -->
<g id="edge6" class="edge">
<title>Node4&#45;&gt;Node5</title>
<path fill="none" stroke="#404040" d="M237.5328,-518.8018C247.567,-506.2996 259.8911,-490.9441 272.4381,-475.311"/>
<polygon fill="none" stroke="#404040" points="272.7495,-474.923 273.3855,-467.74 280.2606,-465.5644 279.6246,-472.7474 272.7495,-474.923"/>
<text text-anchor="middle" x="286.5" y="-487" font-family="Helvetica,sans-Serif" font-size="10.00" fill="#000000"> +mTree</text>
</g>
<!-- Node5&#45;&gt;Node2 -->
<g id="edge4" class="edge">
<title>Node5&#45;&gt;Node2</title>
<path fill="none" stroke="#ffa500" d="M297.3484,-311.3141C290.9398,-298.593 284.3308,-285.4742 277.961,-272.83"/>
<polygon fill="#ffa500" stroke="#ffa500" points="294.3483,-313.1383 301.9732,-320.4943 300.5998,-309.9889 294.3483,-313.1383"/>
<text text-anchor="middle" x="338" y="-294" font-family="Helvetica,sans-Serif" font-size="10.00" fill="#000000"> &lt; FilteredTracks &gt;</text>
</g>
<!-- Node6 -->
<g id="node6" class="node">
<title>Node6</title>
<polygon fill="none" stroke="#bfbfbf" points="281,-513.5 281,-581.5 396,-581.5 396,-513.5 281,-513.5"/>
<text text-anchor="start" x="289" y="-569.5" font-family="Helvetica,sans-Serif" font-size="10.00" fill="#000000">unique_ptr&lt; o2::soa</text>
<text text-anchor="middle" x="338.5" y="-558.5" font-family="Helvetica,sans-Serif" font-size="10.00" fill="#000000">::Filtered&lt; T &gt; &gt;</text>
<polyline fill="none" stroke="#bfbfbf" points="281,-551.5 396,-551.5 "/>
<text text-anchor="middle" x="338.5" y="-539.5" font-family="Helvetica,sans-Serif" font-size="10.00" fill="#000000"> </text>
<polyline fill="none" stroke="#bfbfbf" points="281,-532.5 396,-532.5 "/>
<text text-anchor="middle" x="338.5" y="-520.5" font-family="Helvetica,sans-Serif" font-size="10.00" fill="#000000"> </text>
</g>
<!-- Node6&#45;&gt;Node5 -->
<g id="edge5" class="edge">
<title>Node6&#45;&gt;Node5</title>
<path fill="none" stroke="#404040" d="M338.5,-513.2114C338.5,-502.567 338.5,-490.3269 338.5,-477.8196"/>
<polygon fill="none" stroke="#404040" points="338.5001,-477.7895 334.5,-471.7895 338.5,-465.7895 342.5,-471.7895 338.5001,-477.7895"/>
<text text-anchor="middle" x="367.5" y="-487" font-family="Helvetica,sans-Serif" font-size="10.00" fill="#000000"> +mFiltered</text>
</g>
<!-- Node7 -->
<g id="node7" class="node">
<title>Node7</title>
<g id="a_node7"><a xlink:href="../../d1/d9a/structo2_1_1framework_1_1expressions_1_1Filter.html" target="_top" xlink:title="A struct, containing the root of the expression tree. ">
<polygon fill="none" stroke="#000000" points="389.5,-155 389.5,-234 541.5,-234 541.5,-155 389.5,-155"/>
<text text-anchor="start" x="397.5" y="-222" font-family="Helvetica,sans-Serif" font-size="10.00" fill="#000000">o2::framework::expressions</text>
<text text-anchor="middle" x="465.5" y="-211" font-family="Helvetica,sans-Serif" font-size="10.00" fill="#000000">::Filter</text>
<polyline fill="none" stroke="#000000" points="389.5,-204 541.5,-204 "/>
<text text-anchor="middle" x="465.5" y="-192" font-family="Helvetica,sans-Serif" font-size="10.00" fill="#000000"> </text>
<polyline fill="none" stroke="#000000" points="389.5,-185 541.5,-185 "/>
<text text-anchor="start" x="397.5" y="-173" font-family="Helvetica,sans-Serif" font-size="10.00" fill="#000000">+ Filter()</text>
<text text-anchor="start" x="397.5" y="-162" font-family="Helvetica,sans-Serif" font-size="10.00" fill="#000000">+ Filter()</text>
</a>
</g>
</g>
<!-- Node7&#45;&gt;Node1 -->
<g id="edge7" class="edge">
<title>Node7&#45;&gt;Node1</title>
<path fill="none" stroke="#404040" d="M432.4456,-154.8586C410.2172,-128.2007 381.0838,-93.2617 359.1538,-66.9616"/>
<polygon fill="none" stroke="#404040" points="359.1113,-66.9107 352.1967,-64.8641 351.4263,-57.6943 358.341,-59.7408 359.1113,-66.9107"/>
<text text-anchor="middle" x="439.5" y="-90" font-family="Helvetica,sans-Serif" font-size="10.00" fill="#000000"> +onlyacceptedevents</text>
<text text-anchor="middle" x="439.5" y="-79" font-family="Helvetica,sans-Serif" font-size="10.00" fill="#000000">+onlyacceptedtracks</text>
</g>
<!-- Node8 -->
<g id="node8" class="node">
<title>Node8</title>
<polygon fill="none" stroke="#bfbfbf" points="440,-359 440,-427 591,-427 591,-359 440,-359"/>
<text text-anchor="start" x="448" y="-415" font-family="Helvetica,sans-Serif" font-size="10.00" fill="#000000">unique_ptr&lt; o2::framework</text>
<text text-anchor="middle" x="515.5" y="-404" font-family="Helvetica,sans-Serif" font-size="10.00" fill="#000000">::expressions::Node &gt;</text>
<polyline fill="none" stroke="#bfbfbf" points="440,-397 591,-397 "/>
<text text-anchor="middle" x="515.5" y="-385" font-family="Helvetica,sans-Serif" font-size="10.00" fill="#000000"> </text>
<polyline fill="none" stroke="#bfbfbf" points="440,-378 591,-378 "/>
<text text-anchor="middle" x="515.5" y="-366" font-family="Helvetica,sans-Serif" font-size="10.00" fill="#000000"> </text>
</g>
<!-- Node8&#45;&gt;Node7 -->
<g id="edge8" class="edge">
<title>Node8&#45;&gt;Node7</title>
<path fill="none" stroke="#404040" d="M506.9047,-358.8766C499.112,-327.9397 487.512,-281.8877 478.571,-246.3919"/>
<polygon fill="none" stroke="#404040" points="478.4611,-245.9554 473.1167,-241.1142 475.5299,-234.3189 480.8744,-239.1601 478.4611,-245.9554"/>
<text text-anchor="middle" x="509.5" y="-294" font-family="Helvetica,sans-Serif" font-size="10.00" fill="#000000"> +node</text>
</g>
</g>
</svg>
