<?xml version="1.0" encoding="UTF-8" standalone="no"?>
<!DOCTYPE svg PUBLIC "-//W3C//DTD SVG 1.1//EN"
 "http://www.w3.org/Graphics/SVG/1.1/DTD/svg11.dtd">
<!-- Generated by graphviz version 2.40.1 (20161225.0304)
 -->
<!-- Title: /home/travis/build/AliceO2Group/AliceO2/Framework/Core/include/Framework/RawDeviceService.h Pages: 1 -->
<svg width="2885pt" height="228pt"
 viewBox="0.00 0.00 2885.00 228.00" xmlns="http://www.w3.org/2000/svg" xmlns:xlink="http://www.w3.org/1999/xlink">
<g id="graph0" class="graph" transform="scale(1 1) rotate(0) translate(4 224)">
<title>/home/travis/build/AliceO2Group/AliceO2/Framework/Core/include/Framework/RawDeviceService.h</title>
<!-- Node3 -->
<g id="node1" class="node">
<title>Node3</title>
<polygon fill="#bfbfbf" stroke="#000000" points="1347,-167.5 1347,-219.5 1523,-219.5 1523,-167.5 1347,-167.5"/>
<text text-anchor="start" x="1355" y="-207.5" font-family="Helvetica,sans-Serif" font-size="10.00" fill="#000000">/home/travis/build</text>
<text text-anchor="start" x="1355" y="-196.5" font-family="Helvetica,sans-Serif" font-size="10.00" fill="#000000">/AliceO2Group/AliceO2</text>
<text text-anchor="start" x="1355" y="-185.5" font-family="Helvetica,sans-Serif" font-size="10.00" fill="#000000">/Framework/Core/include</text>
<text text-anchor="middle" x="1435" y="-174.5" font-family="Helvetica,sans-Serif" font-size="10.00" fill="#000000">/Framework/RawDeviceService.h</text>
</g>
<!-- Node4 -->
<g id="node2" class="node">
<title>Node4</title>
<g id="a_node2"><a xlink:href="../../d3/d87/RawFileReaderWorkflow_8cxx.html" target="_top" xlink:title="/home/travis/build\l/AliceO2Group/AliceO2\l/Detectors/Raw/src/RawFileReader\lWorkflow.cxx">
<polygon fill="none" stroke="#000000" points="0,-78.5 0,-130.5 182,-130.5 182,-78.5 0,-78.5"/>
<text text-anchor="start" x="8" y="-118.5" font-family="Helvetica,sans-Serif" font-size="10.00" fill="#000000">/home/travis/build</text>
<text text-anchor="start" x="8" y="-107.5" font-family="Helvetica,sans-Serif" font-size="10.00" fill="#000000">/AliceO2Group/AliceO2</text>
<text text-anchor="start" x="8" y="-96.5" font-family="Helvetica,sans-Serif" font-size="10.00" fill="#000000">/Detectors/Raw/src/RawFileReader</text>
<text text-anchor="middle" x="91" y="-85.5" font-family="Helvetica,sans-Serif" font-size="10.00" fill="#000000">Workflow.cxx</text>
</a>
</g>
</g>
<!-- Node3&#45;&gt;Node4 -->
<g id="edge1" class="edge">
<title>Node3&#45;&gt;Node4</title>
<path fill="none" stroke="#191970" d="M1336.4294,-191.2061C1082.6097,-184.8731 411.0953,-165.3055 191,-131 188.0719,-130.5436 185.1058,-130.036 182.1188,-129.4856"/>
<polygon fill="#191970" stroke="#191970" points="1336.6575,-194.7128 1346.7412,-191.4619 1336.8311,-187.7149 1336.6575,-194.7128"/>
</g>
<!-- Node5 -->
<g id="node3" class="node">
<title>Node5</title>
<g id="a_node3"><a xlink:href="../../d7/d8c/CompressorTask_8cxx.html" target="_top" xlink:title="TOF raw data compressor task. ">
<polygon fill="none" stroke="#000000" points="200,-78.5 200,-130.5 354,-130.5 354,-78.5 200,-78.5"/>
<text text-anchor="start" x="208" y="-118.5" font-family="Helvetica,sans-Serif" font-size="10.00" fill="#000000">/home/travis/build</text>
<text text-anchor="start" x="208" y="-107.5" font-family="Helvetica,sans-Serif" font-size="10.00" fill="#000000">/AliceO2Group/AliceO2</text>
<text text-anchor="start" x="208" y="-96.5" font-family="Helvetica,sans-Serif" font-size="10.00" fill="#000000">/Detectors/TOF/compression</text>
<text text-anchor="middle" x="277" y="-85.5" font-family="Helvetica,sans-Serif" font-size="10.00" fill="#000000">/src/CompressorTask.cxx</text>
</a>
</g>
</g>
<!-- Node3&#45;&gt;Node5 -->
<g id="edge2" class="edge">
<title>Node3&#45;&gt;Node5</title>
<path fill="none" stroke="#191970" d="M1336.4128,-190.7845C1108.0491,-184.0034 548.2028,-164.4281 363,-131 360.0788,-130.4727 357.1174,-129.8778 354.1381,-129.228"/>
<polygon fill="#191970" stroke="#191970" points="1336.6059,-194.2916 1346.7048,-191.0881 1336.8124,-187.2946 1336.6059,-194.2916"/>
</g>
<!-- Node6 -->
<g id="node4" class="node">
<title>Node6</title>
<g id="a_node4"><a xlink:href="../../de/d88/SimpleRawDeviceService_8h.html" target="_top" xlink:title="/home/travis/build\l/AliceO2Group/AliceO2\l/Framework/Core/include\l/Framework/SimpleRawDeviceService.h">
<polygon fill="none" stroke="#000000" points="372,-78.5 372,-130.5 582,-130.5 582,-78.5 372,-78.5"/>
<text text-anchor="start" x="380" y="-118.5" font-family="Helvetica,sans-Serif" font-size="10.00" fill="#000000">/home/travis/build</text>
<text text-anchor="start" x="380" y="-107.5" font-family="Helvetica,sans-Serif" font-size="10.00" fill="#000000">/AliceO2Group/AliceO2</text>
<text text-anchor="start" x="380" y="-96.5" font-family="Helvetica,sans-Serif" font-size="10.00" fill="#000000">/Framework/Core/include</text>
<text text-anchor="middle" x="477" y="-85.5" font-family="Helvetica,sans-Serif" font-size="10.00" fill="#000000">/Framework/SimpleRawDeviceService.h</text>
</a>
</g>
</g>
<!-- Node3&#45;&gt;Node6 -->
<g id="edge3" class="edge">
<title>Node3&#45;&gt;Node6</title>
<path fill="none" stroke="#191970" d="M1336.8509,-190.7922C1179.6883,-185.4245 862.1654,-170.3385 596,-131 591.4983,-130.3347 586.9133,-129.5942 582.2909,-128.7958"/>
<polygon fill="#191970" stroke="#191970" points="1336.857,-194.2943 1346.9688,-191.1318 1337.0919,-187.2982 1336.857,-194.2943"/>
</g>
<!-- Node7 -->
<g id="node5" class="node">
<title>Node7</title>
<g id="a_node5"><a xlink:href="../../d7/d54/runDataProcessing_8cxx.html" target="_top" xlink:title="/home/travis/build\l/AliceO2Group/AliceO2\l/Framework/Core/src/runDataProcessing.cxx">
<polygon fill="none" stroke="#000000" points="427.5,-.5 427.5,-41.5 658.5,-41.5 658.5,-.5 427.5,-.5"/>
<text text-anchor="start" x="435.5" y="-29.5" font-family="Helvetica,sans-Serif" font-size="10.00" fill="#000000">/home/travis/build</text>
<text text-anchor="start" x="435.5" y="-18.5" font-family="Helvetica,sans-Serif" font-size="10.00" fill="#000000">/AliceO2Group/AliceO2</text>
<text text-anchor="middle" x="543" y="-7.5" font-family="Helvetica,sans-Serif" font-size="10.00" fill="#000000">/Framework/Core/src/runDataProcessing.cxx</text>
</a>
</g>
</g>
<!-- Node3&#45;&gt;Node7 -->
<g id="edge10" class="edge">
<title>Node3&#45;&gt;Node7</title>
<path fill="none" stroke="#191970" d="M1336.6533,-190.4328C1135.4091,-183.4988 690.4147,-164.5519 630,-131 604.4326,-116.8009 609.0955,-100.9753 591,-78 581.3142,-65.7022 570.0611,-52.2957 560.8862,-41.5759"/>
<polygon fill="#191970" stroke="#191970" points="1336.8124,-193.9402 1346.9261,-190.7836 1337.0514,-186.9443 1336.8124,-193.9402"/>
</g>
<!-- Node8 -->
<g id="node6" class="node">
<title>Node8</title>
<g id="a_node6"><a xlink:href="../../d4/dc5/AODReaderHelpers_8cxx.html" target="_top" xlink:title="/home/travis/build\l/AliceO2Group/AliceO2\l/Framework/Core/src/AODReader\lHelpers.cxx">
<polygon fill="none" stroke="#000000" points="638.5,-78.5 638.5,-130.5 813.5,-130.5 813.5,-78.5 638.5,-78.5"/>
<text text-anchor="start" x="646.5" y="-118.5" font-family="Helvetica,sans-Serif" font-size="10.00" fill="#000000">/home/travis/build</text>
<text text-anchor="start" x="646.5" y="-107.5" font-family="Helvetica,sans-Serif" font-size="10.00" fill="#000000">/AliceO2Group/AliceO2</text>
<text text-anchor="start" x="646.5" y="-96.5" font-family="Helvetica,sans-Serif" font-size="10.00" fill="#000000">/Framework/Core/src/AODReader</text>
<text text-anchor="middle" x="726" y="-85.5" font-family="Helvetica,sans-Serif" font-size="10.00" fill="#000000">Helpers.cxx</text>
</a>
</g>
</g>
<!-- Node3&#45;&gt;Node8 -->
<g id="edge5" class="edge">
<title>Node3&#45;&gt;Node8</title>
<path fill="none" stroke="#191970" d="M1336.9159,-188.4784C1215.4546,-181.1163 1002.6111,-164.4692 823,-131 819.9108,-130.4244 816.7765,-129.7987 813.6187,-129.1328"/>
<polygon fill="#191970" stroke="#191970" points="1336.7492,-191.9746 1346.9402,-189.0774 1337.1668,-184.987 1336.7492,-191.9746"/>
</g>
<!-- Node9 -->
<g id="node7" class="node">
<title>Node9</title>
<g id="a_node7"><a xlink:href="../../d9/d10/CommonMessageBackends_8cxx.html" target="_top" xlink:title="/home/travis/build\l/AliceO2Group/AliceO2\l/Framework/Core/src/CommonMessage\lBackends.cxx">
<polygon fill="none" stroke="#000000" points="832,-78.5 832,-130.5 1038,-130.5 1038,-78.5 832,-78.5"/>
<text text-anchor="start" x="840" y="-118.5" font-family="Helvetica,sans-Serif" font-size="10.00" fill="#000000">/home/travis/build</text>
<text text-anchor="start" x="840" y="-107.5" font-family="Helvetica,sans-Serif" font-size="10.00" fill="#000000">/AliceO2Group/AliceO2</text>
<text text-anchor="start" x="840" y="-96.5" font-family="Helvetica,sans-Serif" font-size="10.00" fill="#000000">/Framework/Core/src/CommonMessage</text>
<text text-anchor="middle" x="935" y="-85.5" font-family="Helvetica,sans-Serif" font-size="10.00" fill="#000000">Backends.cxx</text>
</a>
</g>
</g>
<!-- Node3&#45;&gt;Node9 -->
<g id="edge6" class="edge">
<title>Node3&#45;&gt;Node9</title>
<path fill="none" stroke="#191970" d="M1336.3396,-179.5197C1257.9302,-167.9391 1145.6016,-150.3009 1048,-131 1044.7384,-130.355 1041.4277,-129.6831 1038.088,-128.9903"/>
<polygon fill="#191970" stroke="#191970" points="1336.2884,-183.0498 1346.6914,-181.0425 1337.3073,-176.1243 1336.2884,-183.0498"/>
</g>
<!-- Node10 -->
<g id="node8" class="node">
<title>Node10</title>
<g id="a_node8"><a xlink:href="../../d1/dca/Dispatcher_8cxx.html" target="_top" xlink:title="Implementation of Dispatcher for O2 Data Sampling. ">
<polygon fill="none" stroke="#000000" points="1056.5,-84 1056.5,-125 1247.5,-125 1247.5,-84 1056.5,-84"/>
<text text-anchor="start" x="1064.5" y="-113" font-family="Helvetica,sans-Serif" font-size="10.00" fill="#000000">/home/travis/build</text>
<text text-anchor="start" x="1064.5" y="-102" font-family="Helvetica,sans-Serif" font-size="10.00" fill="#000000">/AliceO2Group/AliceO2</text>
<text text-anchor="middle" x="1152" y="-91" font-family="Helvetica,sans-Serif" font-size="10.00" fill="#000000">/Framework/Core/src/Dispatcher.cxx</text>
</a>
</g>
</g>
<!-- Node3&#45;&gt;Node10 -->
<g id="edge7" class="edge">
<title>Node3&#45;&gt;Node10</title>
<path fill="none" stroke="#191970" d="M1342.3166,-164.3522C1301.5129,-151.52 1254.537,-136.7466 1217.4654,-125.0881"/>
<polygon fill="#191970" stroke="#191970" points="1341.4134,-167.7371 1352.0028,-167.3984 1343.5135,-161.0595 1341.4134,-167.7371"/>
</g>
<!-- Node11 -->
<g id="node9" class="node">
<title>Node11</title>
<g id="a_node9"><a xlink:href="../../dc/df3/ExternalFairMQDeviceProxy_8cxx.html" target="_top" xlink:title="/home/travis/build\l/AliceO2Group/AliceO2\l/Framework/Core/src/External\lFairMQDeviceProxy.cxx">
<polygon fill="none" stroke="#000000" points="1266,-78.5 1266,-130.5 1426,-130.5 1426,-78.5 1266,-78.5"/>
<text text-anchor="start" x="1274" y="-118.5" font-family="Helvetica,sans-Serif" font-size="10.00" fill="#000000">/home/travis/build</text>
<text text-anchor="start" x="1274" y="-107.5" font-family="Helvetica,sans-Serif" font-size="10.00" fill="#000000">/AliceO2Group/AliceO2</text>
<text text-anchor="start" x="1274" y="-96.5" font-family="Helvetica,sans-Serif" font-size="10.00" fill="#000000">/Framework/Core/src/External</text>
<text text-anchor="middle" x="1346" y="-85.5" font-family="Helvetica,sans-Serif" font-size="10.00" fill="#000000">FairMQDeviceProxy.cxx</text>
</a>
</g>
</g>
<!-- Node3&#45;&gt;Node11 -->
<g id="edge8" class="edge">
<title>Node3&#45;&gt;Node11</title>
<path fill="none" stroke="#191970" d="M1401.5029,-160.0029C1391.7529,-150.2529 1381.2511,-139.7511 1372.0341,-130.5341"/>
<polygon fill="#191970" stroke="#191970" points="1399.2325,-162.6822 1408.7784,-167.2784 1404.1822,-157.7325 1399.2325,-162.6822"/>
</g>
<!-- Node12 -->
<g id="node10" class="node">
<title>Node12</title>
<g id="a_node10"><a xlink:href="../../d4/d7a/LifetimeHelpers_8cxx.html" target="_top" xlink:title="/home/travis/build\l/AliceO2Group/AliceO2\l/Framework/Core/src/Lifetime\lHelpers.cxx">
<polygon fill="none" stroke="#000000" points="1444,-78.5 1444,-130.5 1604,-130.5 1604,-78.5 1444,-78.5"/>
<text text-anchor="start" x="1452" y="-118.5" font-family="Helvetica,sans-Serif" font-size="10.00" fill="#000000">/home/travis/build</text>
<text text-anchor="start" x="1452" y="-107.5" font-family="Helvetica,sans-Serif" font-size="10.00" fill="#000000">/AliceO2Group/AliceO2</text>
<text text-anchor="start" x="1452" y="-96.5" font-family="Helvetica,sans-Serif" font-size="10.00" fill="#000000">/Framework/Core/src/Lifetime</text>
<text text-anchor="middle" x="1524" y="-85.5" font-family="Helvetica,sans-Serif" font-size="10.00" fill="#000000">Helpers.cxx</text>
</a>
</g>
</g>
<!-- Node3&#45;&gt;Node12 -->
<g id="edge9" class="edge">
<title>Node3&#45;&gt;Node12</title>
<path fill="none" stroke="#191970" d="M1468.4971,-160.0029C1478.2471,-150.2529 1488.7489,-139.7511 1497.9659,-130.5341"/>
<polygon fill="#191970" stroke="#191970" points="1465.8178,-157.7325 1461.2216,-167.2784 1470.7675,-162.6822 1465.8178,-157.7325"/>
</g>
<!-- Node13 -->
<g id="node11" class="node">
<title>Node13</title>
<g id="a_node11"><a xlink:href="../../d3/dac/TextControlService_8cxx.html" target="_top" xlink:title="/home/travis/build\l/AliceO2Group/AliceO2\l/Framework/Core/src/TextControl\lService.cxx">
<polygon fill="none" stroke="#000000" points="1622.5,-78.5 1622.5,-130.5 1797.5,-130.5 1797.5,-78.5 1622.5,-78.5"/>
<text text-anchor="start" x="1630.5" y="-118.5" font-family="Helvetica,sans-Serif" font-size="10.00" fill="#000000">/home/travis/build</text>
<text text-anchor="start" x="1630.5" y="-107.5" font-family="Helvetica,sans-Serif" font-size="10.00" fill="#000000">/AliceO2Group/AliceO2</text>
<text text-anchor="start" x="1630.5" y="-96.5" font-family="Helvetica,sans-Serif" font-size="10.00" fill="#000000">/Framework/Core/src/TextControl</text>
<text text-anchor="middle" x="1710" y="-85.5" font-family="Helvetica,sans-Serif" font-size="10.00" fill="#000000">Service.cxx</text>
</a>
</g>
</g>
<!-- Node3&#45;&gt;Node13 -->
<g id="edge11" class="edge">
<title>Node3&#45;&gt;Node13</title>
<path fill="none" stroke="#191970" d="M1525.4471,-164.228C1558.9767,-153.3766 1596.7509,-141.1515 1629.3505,-130.6011"/>
<polygon fill="#191970" stroke="#191970" points="1524.0874,-160.9893 1515.6509,-167.3984 1526.2428,-167.6492 1524.0874,-160.9893"/>
</g>
<!-- Node14 -->
<g id="node12" class="node">
<title>Node14</title>
<g id="a_node12"><a xlink:href="../../dc/da7/WorkflowHelpers_8cxx.html" target="_top" xlink:title="/home/travis/build\l/AliceO2Group/AliceO2\l/Framework/Core/src/Workflow\lHelpers.cxx">
<polygon fill="none" stroke="#000000" points="1816,-78.5 1816,-130.5 1980,-130.5 1980,-78.5 1816,-78.5"/>
<text text-anchor="start" x="1824" y="-118.5" font-family="Helvetica,sans-Serif" font-size="10.00" fill="#000000">/home/travis/build</text>
<text text-anchor="start" x="1824" y="-107.5" font-family="Helvetica,sans-Serif" font-size="10.00" fill="#000000">/AliceO2Group/AliceO2</text>
<text text-anchor="start" x="1824" y="-96.5" font-family="Helvetica,sans-Serif" font-size="10.00" fill="#000000">/Framework/Core/src/Workflow</text>
<text text-anchor="middle" x="1898" y="-85.5" font-family="Helvetica,sans-Serif" font-size="10.00" fill="#000000">Helpers.cxx</text>
</a>
</g>
</g>
<!-- Node3&#45;&gt;Node14 -->
<g id="edge12" class="edge">
<title>Node3&#45;&gt;Node14</title>
<path fill="none" stroke="#191970" d="M1533.0924,-180.218C1608.4577,-169.2431 1714.8978,-152.0716 1807,-131 1809.8873,-130.3394 1812.8184,-129.6407 1815.773,-128.9126"/>
<polygon fill="#191970" stroke="#191970" points="1532.5291,-176.7629 1523.1332,-181.6585 1533.5313,-183.6908 1532.5291,-176.7629"/>
</g>
<!-- Node15 -->
<g id="node13" class="node">
<title>Node15</title>
<g id="a_node13"><a xlink:href="../../d2/da2/test__DataAllocator_8cxx.html" target="_top" xlink:title="/home/travis/build\l/AliceO2Group/AliceO2\l/Framework/Core/test/test\l_DataAllocator.cxx">
<polygon fill="none" stroke="#000000" points="1998.5,-78.5 1998.5,-130.5 2141.5,-130.5 2141.5,-78.5 1998.5,-78.5"/>
<text text-anchor="start" x="2006.5" y="-118.5" font-family="Helvetica,sans-Serif" font-size="10.00" fill="#000000">/home/travis/build</text>
<text text-anchor="start" x="2006.5" y="-107.5" font-family="Helvetica,sans-Serif" font-size="10.00" fill="#000000">/AliceO2Group/AliceO2</text>
<text text-anchor="start" x="2006.5" y="-96.5" font-family="Helvetica,sans-Serif" font-size="10.00" fill="#000000">/Framework/Core/test/test</text>
<text text-anchor="middle" x="2070" y="-85.5" font-family="Helvetica,sans-Serif" font-size="10.00" fill="#000000">_DataAllocator.cxx</text>
</a>
</g>
</g>
<!-- Node3&#45;&gt;Node15 -->
<g id="edge13" class="edge">
<title>Node3&#45;&gt;Node15</title>
<path fill="none" stroke="#191970" d="M1533.4383,-188.4641C1644.9776,-181.3604 1831.7101,-165.2268 1989,-131 1992.0361,-130.3393 1995.1192,-129.6087 1998.221,-128.8241"/>
<polygon fill="#191970" stroke="#191970" points="1532.9772,-184.986 1523.2151,-189.1033 1533.4141,-191.9724 1532.9772,-184.986"/>
</g>
<!-- Node16 -->
<g id="node14" class="node">
<title>Node16</title>
<g id="a_node14"><a xlink:href="../../d8/d7e/test__ParallelPipeline_8cxx.html" target="_top" xlink:title="/home/travis/build\l/AliceO2Group/AliceO2\l/Framework/Core/test/test\l_ParallelPipeline.cxx">
<polygon fill="none" stroke="#000000" points="2159.5,-78.5 2159.5,-130.5 2302.5,-130.5 2302.5,-78.5 2159.5,-78.5"/>
<text text-anchor="start" x="2167.5" y="-118.5" font-family="Helvetica,sans-Serif" font-size="10.00" fill="#000000">/home/travis/build</text>
<text text-anchor="start" x="2167.5" y="-107.5" font-family="Helvetica,sans-Serif" font-size="10.00" fill="#000000">/AliceO2Group/AliceO2</text>
<text text-anchor="start" x="2167.5" y="-96.5" font-family="Helvetica,sans-Serif" font-size="10.00" fill="#000000">/Framework/Core/test/test</text>
<text text-anchor="middle" x="2231" y="-85.5" font-family="Helvetica,sans-Serif" font-size="10.00" fill="#000000">_ParallelPipeline.cxx</text>
</a>
</g>
</g>
<!-- Node3&#45;&gt;Node16 -->
<g id="edge14" class="edge">
<title>Node3&#45;&gt;Node16</title>
<path fill="none" stroke="#191970" d="M1533.3449,-187.7563C1701.1096,-177.4827 2035.6584,-154.7981 2151,-131 2153.7226,-130.4383 2156.4817,-129.8139 2159.2569,-129.1394"/>
<polygon fill="#191970" stroke="#191970" points="1533.0438,-184.2681 1523.2754,-188.3703 1533.4699,-191.2551 1533.0438,-184.2681"/>
</g>
<!-- Node17 -->
<g id="node15" class="node">
<title>Node17</title>
<g id="a_node15"><a xlink:href="../../d5/d24/test__SimpleDataProcessingDevice01_8cxx.html" target="_top" xlink:title="/home/travis/build\l/AliceO2Group/AliceO2\l/Framework/Core/test/test\l_SimpleDataProcessingDevice01.cxx">
<polygon fill="none" stroke="#000000" points="2320.5,-78.5 2320.5,-130.5 2517.5,-130.5 2517.5,-78.5 2320.5,-78.5"/>
<text text-anchor="start" x="2328.5" y="-118.5" font-family="Helvetica,sans-Serif" font-size="10.00" fill="#000000">/home/travis/build</text>
<text text-anchor="start" x="2328.5" y="-107.5" font-family="Helvetica,sans-Serif" font-size="10.00" fill="#000000">/AliceO2Group/AliceO2</text>
<text text-anchor="start" x="2328.5" y="-96.5" font-family="Helvetica,sans-Serif" font-size="10.00" fill="#000000">/Framework/Core/test/test</text>
<text text-anchor="middle" x="2419" y="-85.5" font-family="Helvetica,sans-Serif" font-size="10.00" fill="#000000">_SimpleDataProcessingDevice01.cxx</text>
</a>
</g>
</g>
<!-- Node3&#45;&gt;Node17 -->
<g id="edge15" class="edge">
<title>Node3&#45;&gt;Node17</title>
<path fill="none" stroke="#191970" d="M1533.4916,-191.9791C1696.4178,-188.236 2031.8822,-175.3325 2312,-131 2314.7408,-130.5662 2317.5145,-130.0966 2320.3084,-129.5965"/>
<polygon fill="#191970" stroke="#191970" points="1532.9313,-188.4906 1523.0118,-192.2127 1533.0874,-195.4889 1532.9313,-188.4906"/>
</g>
<!-- Node18 -->
<g id="node16" class="node">
<title>Node18</title>
<g id="a_node16"><a xlink:href="../../dd/d16/test__StaggeringWorkflow_8cxx.html" target="_top" xlink:title="/home/travis/build\l/AliceO2Group/AliceO2\l/Framework/Core/test/test\l_StaggeringWorkflow.cxx">
<polygon fill="none" stroke="#000000" points="2535.5,-78.5 2535.5,-130.5 2678.5,-130.5 2678.5,-78.5 2535.5,-78.5"/>
<text text-anchor="start" x="2543.5" y="-118.5" font-family="Helvetica,sans-Serif" font-size="10.00" fill="#000000">/home/travis/build</text>
<text text-anchor="start" x="2543.5" y="-107.5" font-family="Helvetica,sans-Serif" font-size="10.00" fill="#000000">/AliceO2Group/AliceO2</text>
<text text-anchor="start" x="2543.5" y="-96.5" font-family="Helvetica,sans-Serif" font-size="10.00" fill="#000000">/Framework/Core/test/test</text>
<text text-anchor="middle" x="2607" y="-85.5" font-family="Helvetica,sans-Serif" font-size="10.00" fill="#000000">_StaggeringWorkflow.cxx</text>
</a>
</g>
</g>
<!-- Node3&#45;&gt;Node18 -->
<g id="edge16" class="edge">
<title>Node3&#45;&gt;Node18</title>
<path fill="none" stroke="#191970" d="M1533.4336,-191.1721C1764.8496,-185.1652 2338.1489,-167.0307 2527,-131 2529.7306,-130.479 2532.4966,-129.8894 2535.2777,-129.2442"/>
<polygon fill="#191970" stroke="#191970" points="1533.2483,-187.6757 1523.3418,-191.432 1533.4286,-194.6733 1533.2483,-187.6757"/>
</g>
<!-- Node19 -->
<g id="node17" class="node">
<title>Node19</title>
<g id="a_node17"><a xlink:href="../../d2/d23/dataSamplingBenchmark_8cxx.html" target="_top" xlink:title="/home/travis/build\l/AliceO2Group/AliceO2\l/Framework/TestWorkflows\l/src/dataSamplingBenchmark.cxx">
<polygon fill="none" stroke="#000000" points="2697,-78.5 2697,-130.5 2877,-130.5 2877,-78.5 2697,-78.5"/>
<text text-anchor="start" x="2705" y="-118.5" font-family="Helvetica,sans-Serif" font-size="10.00" fill="#000000">/home/travis/build</text>
<text text-anchor="start" x="2705" y="-107.5" font-family="Helvetica,sans-Serif" font-size="10.00" fill="#000000">/AliceO2Group/AliceO2</text>
<text text-anchor="start" x="2705" y="-96.5" font-family="Helvetica,sans-Serif" font-size="10.00" fill="#000000">/Framework/TestWorkflows</text>
<text text-anchor="middle" x="2787" y="-85.5" font-family="Helvetica,sans-Serif" font-size="10.00" fill="#000000">/src/dataSamplingBenchmark.cxx</text>
</a>
</g>
</g>
<!-- Node3&#45;&gt;Node19 -->
<g id="edge17" class="edge">
<title>Node3&#45;&gt;Node19</title>
<path fill="none" stroke="#191970" d="M1533.3722,-191.2838C1788.3359,-185.1085 2466.0881,-165.8318 2688,-131 2690.9003,-130.5448 2693.8379,-130.0381 2696.7961,-129.4886"/>
<polygon fill="#191970" stroke="#191970" points="1532.9287,-187.7933 1523.0158,-191.533 1533.0972,-194.7913 1532.9287,-187.7933"/>
</g>
<!-- Node6&#45;&gt;Node7 -->
<g id="edge4" class="edge">
<title>Node6&#45;&gt;Node7</title>
<path fill="none" stroke="#191970" d="M504.1558,-70.1438C511.7888,-60.487 519.8526,-50.2849 526.643,-41.6941"/>
<polygon fill="#191970" stroke="#191970" points="501.338,-68.0645 497.8828,-78.0801 506.8297,-72.4052 501.338,-68.0645"/>
</g>
</g>
</svg>
