<?xml version="1.0" encoding="UTF-8" standalone="no"?>
<!DOCTYPE svg PUBLIC "-//W3C//DTD SVG 1.1//EN"
 "http://www.w3.org/Graphics/SVG/1.1/DTD/svg11.dtd">
<!-- Generated by graphviz version 2.40.1 (20161225.0304)
 -->
<!-- Title: o2::framework::TransformTable&lt; T &gt; Pages: 1 -->
<svg width="151pt" height="259pt"
 viewBox="0.00 0.00 151.00 259.00" xmlns="http://www.w3.org/2000/svg" xmlns:xlink="http://www.w3.org/1999/xlink">
<g id="graph0" class="graph" transform="scale(1 1) rotate(0) translate(4 255)">
<title>o2::framework::TransformTable&lt; T &gt;</title>
<!-- Node17 -->
<g id="node1" class="node">
<title>Node17</title>
<polygon fill="#bfbfbf" stroke="#000000" points="0,-.5 0,-145.5 143,-145.5 143,-.5 0,-.5"/>
<text text-anchor="start" x="8" y="-133.5" font-family="Helvetica,sans-Serif" font-size="10.00" fill="#000000">o2::framework::Transform</text>
<text text-anchor="middle" x="71.5" y="-122.5" font-family="Helvetica,sans-Serif" font-size="10.00" fill="#000000">Table&lt; T &gt;</text>
<polyline fill="none" stroke="#000000" points="0,-115.5 143,-115.5 "/>
<text text-anchor="middle" x="71.5" y="-103.5" font-family="Helvetica,sans-Serif" font-size="10.00" fill="#000000"> </text>
<polyline fill="none" stroke="#000000" points="0,-96.5 143,-96.5 "/>
<text text-anchor="start" x="8" y="-84.5" font-family="Helvetica,sans-Serif" font-size="10.00" fill="#000000">+ base_spec()</text>
<text text-anchor="start" x="8" y="-73.5" font-family="Helvetica,sans-Serif" font-size="10.00" fill="#000000">+ base_specs_impl()</text>
<text text-anchor="start" x="8" y="-62.5" font-family="Helvetica,sans-Serif" font-size="10.00" fill="#000000">+ base_specs()</text>
<text text-anchor="start" x="8" y="-51.5" font-family="Helvetica,sans-Serif" font-size="10.00" fill="#000000">+ spec()</text>
<text text-anchor="start" x="8" y="-40.5" font-family="Helvetica,sans-Serif" font-size="10.00" fill="#000000">+ ref()</text>
<text text-anchor="start" x="8" y="-29.5" font-family="Helvetica,sans-Serif" font-size="10.00" fill="#000000">+ operator&#45;&gt;()</text>
<text text-anchor="start" x="8" y="-18.5" font-family="Helvetica,sans-Serif" font-size="10.00" fill="#000000">+ operator*()</text>
<text text-anchor="start" x="8" y="-7.5" font-family="Helvetica,sans-Serif" font-size="10.00" fill="#000000">+ asArrowTable()</text>
</g>
<!-- Node18 -->
<g id="node2" class="node">
<title>Node18</title>
<polygon fill="none" stroke="#bfbfbf" points="23,-193.5 23,-250.5 120,-250.5 120,-193.5 23,-193.5"/>
<text text-anchor="middle" x="71.5" y="-238.5" font-family="Helvetica,sans-Serif" font-size="10.00" fill="#000000">shared_ptr&lt; T &gt;</text>
<polyline fill="none" stroke="#bfbfbf" points="23,-231.5 120,-231.5 "/>
<text text-anchor="middle" x="71.5" y="-219.5" font-family="Helvetica,sans-Serif" font-size="10.00" fill="#000000"> </text>
<polyline fill="none" stroke="#bfbfbf" points="23,-212.5 120,-212.5 "/>
<text text-anchor="middle" x="71.5" y="-200.5" font-family="Helvetica,sans-Serif" font-size="10.00" fill="#000000"> </text>
</g>
<!-- Node18&#45;&gt;Node17 -->
<g id="edge1" class="edge">
<title>Node18&#45;&gt;Node17</title>
<path fill="none" stroke="#404040" d="M71.5,-193.2713C71.5,-182.8895 71.5,-170.5716 71.5,-157.843"/>
<polygon fill="none" stroke="#404040" points="71.5001,-157.5631 67.5,-151.5632 71.5,-145.5631 75.5,-151.5631 71.5001,-157.5631"/>
<text text-anchor="middle" x="90" y="-167" font-family="Helvetica,sans-Serif" font-size="10.00" fill="#000000"> +table</text>
</g>
</g>
</svg>
