<?xml version="1.0" encoding="UTF-8" standalone="no"?>
<!DOCTYPE svg PUBLIC "-//W3C//DTD SVG 1.1//EN"
 "http://www.w3.org/Graphics/SVG/1.1/DTD/svg11.dtd">
<!-- Generated by graphviz version 2.40.1 (20161225.0304)
 -->
<!-- Title: o2::framework::RawDeviceService Pages: 1 -->
<svg width="163pt" height="204pt"
 viewBox="0.00 0.00 163.00 204.00" xmlns="http://www.w3.org/2000/svg" xmlns:xlink="http://www.w3.org/1999/xlink">
<g id="graph0" class="graph" transform="scale(1 1) rotate(0) translate(4 200)">
<title>o2::framework::RawDeviceService</title>
<!-- Node2 -->
<g id="node1" class="node">
<title>Node2</title>
<polygon fill="#bfbfbf" stroke="#000000" points="3,-.5 3,-90.5 152,-90.5 152,-.5 3,-.5"/>
<text text-anchor="start" x="11" y="-78.5" font-family="Helvetica,sans-Serif" font-size="10.00" fill="#000000">o2::framework::RawDevice</text>
<text text-anchor="middle" x="77.5" y="-67.5" font-family="Helvetica,sans-Serif" font-size="10.00" fill="#000000">Service</text>
<polyline fill="none" stroke="#000000" points="3,-60.5 152,-60.5 "/>
<text text-anchor="middle" x="77.5" y="-48.5" font-family="Helvetica,sans-Serif" font-size="10.00" fill="#000000"> </text>
<polyline fill="none" stroke="#000000" points="3,-41.5 152,-41.5 "/>
<text text-anchor="start" x="11" y="-29.5" font-family="Helvetica,sans-Serif" font-size="10.00" fill="#000000">+ device()</text>
<text text-anchor="start" x="11" y="-18.5" font-family="Helvetica,sans-Serif" font-size="10.00" fill="#000000">+ setDevice()</text>
<text text-anchor="start" x="11" y="-7.5" font-family="Helvetica,sans-Serif" font-size="10.00" fill="#000000">+ spec()</text>
</g>
<!-- Node3 -->
<g id="node2" class="node">
<title>Node3</title>
<polygon fill="none" stroke="#bfbfbf" points="0,-138.5 0,-195.5 155,-195.5 155,-138.5 0,-138.5"/>
<text text-anchor="middle" x="77.5" y="-183.5" font-family="Helvetica,sans-Serif" font-size="10.00" fill="#000000">static constexpr ServiceKind</text>
<polyline fill="none" stroke="#bfbfbf" points="0,-176.5 155,-176.5 "/>
<text text-anchor="middle" x="77.5" y="-164.5" font-family="Helvetica,sans-Serif" font-size="10.00" fill="#000000"> </text>
<polyline fill="none" stroke="#bfbfbf" points="0,-157.5 155,-157.5 "/>
<text text-anchor="middle" x="77.5" y="-145.5" font-family="Helvetica,sans-Serif" font-size="10.00" fill="#000000"> </text>
</g>
<!-- Node3&#45;&gt;Node2 -->
<g id="edge1" class="edge">
<title>Node3&#45;&gt;Node2</title>
<path fill="none" stroke="#404040" d="M77.5,-138.2062C77.5,-127.5748 77.5,-115.1181 77.5,-102.847"/>
<polygon fill="none" stroke="#404040" points="77.5001,-102.7124 73.5,-96.7125 77.5,-90.7124 81.5,-96.7124 77.5001,-102.7124"/>
<text text-anchor="middle" x="114" y="-112" font-family="Helvetica,sans-Serif" font-size="10.00" fill="#000000"> +service_kind</text>
</g>
</g>
</svg>
