<?xml version="1.0" encoding="UTF-8" standalone="no"?>
<!DOCTYPE svg PUBLIC "-//W3C//DTD SVG 1.1//EN"
 "http://www.w3.org/Graphics/SVG/1.1/DTD/svg11.dtd">
<!-- Generated by graphviz version 2.40.1 (20161225.0304)
 -->
<!-- Title: /home/travis/build/AliceO2Group/AliceO2/DataFormats/Detectors/FIT/FT0/include/DataFormatsFT0/RawEventData.h Pages: 1 -->
<svg width="1734pt" height="307pt"
 viewBox="0.00 0.00 1733.50 307.00" xmlns="http://www.w3.org/2000/svg" xmlns:xlink="http://www.w3.org/1999/xlink">
<g id="graph0" class="graph" transform="scale(1 1) rotate(0) translate(4 303)">
<title>/home/travis/build/AliceO2Group/AliceO2/DataFormats/Detectors/FIT/FT0/include/DataFormatsFT0/RawEventData.h</title>
<!-- Node0 -->
<g id="node1" class="node">
<title>Node0</title>
<polygon fill="#bfbfbf" stroke="#000000" points="1154.5,-235.5 1154.5,-298.5 1330.5,-298.5 1330.5,-235.5 1154.5,-235.5"/>
<text text-anchor="start" x="1162.5" y="-286.5" font-family="Helvetica,sans-Serif" font-size="10.00" fill="#000000">/home/travis/build</text>
<text text-anchor="start" x="1162.5" y="-275.5" font-family="Helvetica,sans-Serif" font-size="10.00" fill="#000000">/AliceO2Group/AliceO2</text>
<text text-anchor="start" x="1162.5" y="-264.5" font-family="Helvetica,sans-Serif" font-size="10.00" fill="#000000">/DataFormats/Detectors</text>
<text text-anchor="start" x="1162.5" y="-253.5" font-family="Helvetica,sans-Serif" font-size="10.00" fill="#000000">/FIT/FT0/include/DataFormatsFT0</text>
<text text-anchor="middle" x="1242.5" y="-242.5" font-family="Helvetica,sans-Serif" font-size="10.00" fill="#000000">/RawEventData.h</text>
</g>
<!-- Node1 -->
<g id="node2" class="node">
<title>Node1</title>
<g id="a_node2"><a xlink:href="../../d0/d0a/DataFormats_2Detectors_2FIT_2FT0_2include_2DataFormatsFT0_2Digit_8h.html" target="_top" xlink:title="DataFormatsFT0/Digit.h">
<polygon fill="none" stroke="#000000" points="859.5,-179.5 859.5,-198.5 991.5,-198.5 991.5,-179.5 859.5,-179.5"/>
<text text-anchor="middle" x="925.5" y="-186.5" font-family="Helvetica,sans-Serif" font-size="10.00" fill="#000000">DataFormatsFT0/Digit.h</text>
</a>
</g>
</g>
<!-- Node0&#45;&gt;Node1 -->
<g id="edge1" class="edge">
<title>Node0&#45;&gt;Node1</title>
<path fill="none" stroke="#191970" d="M1154.1978,-245.2727C1096.0466,-230.9641 1022.0973,-212.7684 974.2893,-201.0049"/>
<polygon fill="#191970" stroke="#191970" points="975.0461,-197.5868 964.4995,-198.5961 973.3736,-204.3841 975.0461,-197.5868"/>
</g>
<!-- Node2 -->
<g id="node3" class="node">
<title>Node2</title>
<g id="a_node3"><a xlink:href="../../d9/d80/InteractionRecord_8h.html" target="_top" xlink:title="CommonDataFormat/Interaction\lRecord.h">
<polygon fill="none" stroke="#000000" points="164.5,-112.5 164.5,-142.5 338.5,-142.5 338.5,-112.5 164.5,-112.5"/>
<text text-anchor="start" x="172.5" y="-130.5" font-family="Helvetica,sans-Serif" font-size="10.00" fill="#000000">CommonDataFormat/Interaction</text>
<text text-anchor="middle" x="251.5" y="-119.5" font-family="Helvetica,sans-Serif" font-size="10.00" fill="#000000">Record.h</text>
</a>
</g>
</g>
<!-- Node0&#45;&gt;Node2 -->
<g id="edge30" class="edge">
<title>Node0&#45;&gt;Node2</title>
<path fill="none" stroke="#191970" d="M1154.4152,-261.1323C1027.018,-251.9294 784.1666,-231.697 579.5,-199 489.313,-184.592 386.6354,-161.0318 320.5525,-144.9228"/>
<polygon fill="#191970" stroke="#191970" points="321.217,-141.4822 310.6714,-142.5031 319.5519,-148.2813 321.217,-141.4822"/>
</g>
<!-- Node4 -->
<g id="node5" class="node">
<title>Node4</title>
<polygon fill="none" stroke="#bfbfbf" points="1060,-.5 1060,-19.5 1119,-19.5 1119,-.5 1060,-.5"/>
<text text-anchor="middle" x="1089.5" y="-7.5" font-family="Helvetica,sans-Serif" font-size="10.00" fill="#000000">Rtypes.h</text>
</g>
<!-- Node0&#45;&gt;Node4 -->
<g id="edge36" class="edge">
<title>Node0&#45;&gt;Node4</title>
<path fill="none" stroke="#191970" d="M1257.3074,-235.3951C1270.4174,-202.4191 1284.3708,-150.2841 1262.5,-112 1233.9995,-62.1109 1170.5069,-34.1851 1128.8809,-20.6188"/>
<polygon fill="#191970" stroke="#191970" points="1129.9094,-17.2733 1119.3205,-17.6289 1127.82,-23.9542 1129.9094,-17.2733"/>
</g>
<!-- Node14 -->
<g id="node15" class="node">
<title>Node14</title>
<g id="a_node15"><a xlink:href="../../dc/d44/FIT_2FT0_2include_2DataFormatsFT0_2ChannelData_8h.html" target="_top" xlink:title="DataFormatsFT0/ChannelData.h">
<polygon fill="none" stroke="#000000" points="1003.5,-118 1003.5,-137 1175.5,-137 1175.5,-118 1003.5,-118"/>
<text text-anchor="middle" x="1089.5" y="-125" font-family="Helvetica,sans-Serif" font-size="10.00" fill="#000000">DataFormatsFT0/ChannelData.h</text>
</a>
</g>
</g>
<!-- Node0&#45;&gt;Node14 -->
<g id="edge22" class="edge">
<title>Node0&#45;&gt;Node14</title>
<path fill="none" stroke="#191970" d="M1207.7819,-235.3453C1176.7307,-207.0339 1132.4314,-166.6433 1107.802,-144.1871"/>
<polygon fill="#191970" stroke="#191970" points="1109.9988,-141.4536 1100.2511,-137.3024 1105.2825,-146.6264 1109.9988,-141.4536"/>
</g>
<!-- Node17 -->
<g id="node18" class="node">
<title>Node17</title>
<polygon fill="none" stroke="#bfbfbf" points="1193.5,-118 1193.5,-137 1253.5,-137 1253.5,-118 1193.5,-118"/>
<text text-anchor="middle" x="1223.5" y="-125" font-family="Helvetica,sans-Serif" font-size="10.00" fill="#000000">iostream</text>
</g>
<!-- Node0&#45;&gt;Node17 -->
<g id="edge33" class="edge">
<title>Node0&#45;&gt;Node17</title>
<path fill="none" stroke="#191970" d="M1238.1886,-235.3453C1234.5002,-208.2648 1229.3066,-170.1327 1226.1853,-147.2154"/>
<polygon fill="#191970" stroke="#191970" points="1229.6527,-146.7386 1224.8351,-137.3024 1222.7168,-147.6833 1229.6527,-146.7386"/>
</g>
<!-- Node18 -->
<g id="node19" class="node">
<title>Node18</title>
<g id="a_node19"><a xlink:href="../../d4/dee/RAWDataHeader_8h.html" target="_top" xlink:title="Definition of the RAW Data Header. ">
<polygon fill="none" stroke="#000000" points="589,-179.5 589,-198.5 738,-198.5 738,-179.5 589,-179.5"/>
<text text-anchor="middle" x="663.5" y="-186.5" font-family="Helvetica,sans-Serif" font-size="10.00" fill="#000000">Headers/RAWDataHeader.h</text>
</a>
</g>
</g>
<!-- Node0&#45;&gt;Node18 -->
<g id="edge23" class="edge">
<title>Node0&#45;&gt;Node18</title>
<path fill="none" stroke="#191970" d="M1154.2474,-255.1111C1042.7697,-240.0933 852.4949,-214.4605 744.545,-199.918"/>
<polygon fill="#191970" stroke="#191970" points="744.7384,-196.4125 734.3606,-198.546 743.8038,-203.3498 744.7384,-196.4125"/>
</g>
<!-- Node19 -->
<g id="node20" class="node">
<title>Node19</title>
<g id="a_node20"><a xlink:href="../../dd/d1f/FT0_2include_2DataFormatsFT0_2LookUpTable_8h.html" target="_top" xlink:title="DataFormatsFT0/LookUpTable.h">
<polygon fill="none" stroke="#000000" points="1290,-179.5 1290,-198.5 1461,-198.5 1461,-179.5 1290,-179.5"/>
<text text-anchor="middle" x="1375.5" y="-186.5" font-family="Helvetica,sans-Serif" font-size="10.00" fill="#000000">DataFormatsFT0/LookUpTable.h</text>
</a>
</g>
</g>
<!-- Node0&#45;&gt;Node19 -->
<g id="edge25" class="edge">
<title>Node0&#45;&gt;Node19</title>
<path fill="none" stroke="#191970" d="M1296.2128,-235.4992C1314.9597,-224.5049 1335.1154,-212.6842 1350.4135,-203.7124"/>
<polygon fill="#191970" stroke="#191970" points="1352.3996,-206.6052 1359.255,-198.5271 1348.8584,-200.5669 1352.3996,-206.6052"/>
</g>
<!-- Node22 -->
<g id="node23" class="node">
<title>Node22</title>
<g id="a_node23"><a xlink:href="../../dd/da4/Logger_8h.html" target="_top" xlink:title="Framework/Logger.h">
<polygon fill="none" stroke="#000000" points="1479,-179.5 1479,-198.5 1594,-198.5 1594,-179.5 1479,-179.5"/>
<text text-anchor="middle" x="1536.5" y="-186.5" font-family="Helvetica,sans-Serif" font-size="10.00" fill="#000000">Framework/Logger.h</text>
</a>
</g>
</g>
<!-- Node0&#45;&gt;Node22 -->
<g id="edge31" class="edge">
<title>Node0&#45;&gt;Node22</title>
<path fill="none" stroke="#191970" d="M1330.7097,-243.5974C1383.3227,-229.6389 1447.9655,-212.4887 1490.6008,-201.1773"/>
<polygon fill="#191970" stroke="#191970" points="1491.645,-204.5215 1500.413,-198.5741 1489.8499,-197.7555 1491.645,-204.5215"/>
</g>
<!-- Node24 -->
<g id="node25" class="node">
<title>Node24</title>
<polygon fill="none" stroke="#bfbfbf" points="1612,-179.5 1612,-198.5 1657,-198.5 1657,-179.5 1612,-179.5"/>
<text text-anchor="middle" x="1634.5" y="-186.5" font-family="Helvetica,sans-Serif" font-size="10.00" fill="#000000">utility</text>
</g>
<!-- Node0&#45;&gt;Node24 -->
<g id="edge34" class="edge">
<title>Node0&#45;&gt;Node24</title>
<path fill="none" stroke="#191970" d="M1330.7135,-253.5706C1401.8548,-242.0053 1504.534,-223.6576 1602.1729,-199.1221"/>
<polygon fill="#191970" stroke="#191970" points="1603.0775,-202.5035 1611.9088,-196.6504 1601.355,-195.7187 1603.0775,-202.5035"/>
</g>
<!-- Node25 -->
<g id="node26" class="node">
<title>Node25</title>
<polygon fill="none" stroke="#bfbfbf" points="1675.5,-179.5 1675.5,-198.5 1725.5,-198.5 1725.5,-179.5 1675.5,-179.5"/>
<text text-anchor="middle" x="1700.5" y="-186.5" font-family="Helvetica,sans-Serif" font-size="10.00" fill="#000000">cstring</text>
</g>
<!-- Node0&#45;&gt;Node25 -->
<g id="edge35" class="edge">
<title>Node0&#45;&gt;Node25</title>
<path fill="none" stroke="#191970" d="M1330.8249,-256.1636C1414.7563,-245.1062 1544.5493,-226.036 1665.5337,-199.0003"/>
<polygon fill="#191970" stroke="#191970" points="1666.3585,-202.4022 1675.3425,-196.7862 1664.8172,-195.574 1666.3585,-202.4022"/>
</g>
<!-- Node1&#45;&gt;Node2 -->
<g id="edge2" class="edge">
<title>Node1&#45;&gt;Node2</title>
<path fill="none" stroke="#191970" d="M859.2291,-184.0347C757.1744,-176.237 555.428,-160.2227 384.5,-143 372.9353,-141.8347 360.8145,-140.5334 348.796,-139.1935"/>
<polygon fill="#191970" stroke="#191970" points="349.0678,-135.7021 338.739,-138.0612 348.2845,-142.6582 349.0678,-135.7021"/>
</g>
<!-- Node1&#45;&gt;Node4 -->
<g id="edge18" class="edge">
<title>Node1&#45;&gt;Node4</title>
<path fill="none" stroke="#191970" d="M933.9397,-179.4639C946.8863,-164.8622 972.4651,-136.1192 994.5,-112 1022.0436,-81.8511 1054.554,-47.1285 1073.515,-26.9621"/>
<polygon fill="#191970" stroke="#191970" points="1076.2277,-29.1867 1080.5322,-19.5057 1071.13,-24.3894 1076.2277,-29.1867"/>
</g>
<!-- Node9 -->
<g id="node10" class="node">
<title>Node9</title>
<g id="a_node10"><a xlink:href="../../de/d64/RangeReference_8h.html" target="_top" xlink:title="Class to refer to the 1st entry and N elements of some group in the continuous container. ">
<polygon fill="none" stroke="#000000" points="599.5,-118 599.5,-137 809.5,-137 809.5,-118 599.5,-118"/>
<text text-anchor="middle" x="704.5" y="-125" font-family="Helvetica,sans-Serif" font-size="10.00" fill="#000000">CommonDataFormat/RangeReference.h</text>
</a>
</g>
</g>
<!-- Node1&#45;&gt;Node9 -->
<g id="edge9" class="edge">
<title>Node1&#45;&gt;Node9</title>
<path fill="none" stroke="#191970" d="M890.9688,-179.3906C852.5318,-168.6944 790.3256,-151.3836 748.4464,-139.7294"/>
<polygon fill="#191970" stroke="#191970" points="749.3611,-136.351 738.7888,-137.0419 747.4843,-143.0948 749.3611,-136.351"/>
</g>
<!-- Node10 -->
<g id="node11" class="node">
<title>Node10</title>
<g id="a_node11"><a xlink:href="../../df/d5d/common_2include_2CommonDataFormat_2TimeStamp_8h.html" target="_top" xlink:title="CommonDataFormat/TimeStamp.h">
<polygon fill="none" stroke="#000000" points="394,-118 394,-137 581,-137 581,-118 394,-118"/>
<text text-anchor="middle" x="487.5" y="-125" font-family="Helvetica,sans-Serif" font-size="10.00" fill="#000000">CommonDataFormat/TimeStamp.h</text>
</a>
</g>
</g>
<!-- Node1&#45;&gt;Node10 -->
<g id="edge11" class="edge">
<title>Node1&#45;&gt;Node10</title>
<path fill="none" stroke="#191970" d="M859.3591,-180.1742C791.7605,-171.0936 683.7617,-156.4197 590.5,-143 580.6332,-141.5802 570.2398,-140.0532 560.0041,-138.5309"/>
<polygon fill="#191970" stroke="#191970" points="560.2535,-135.0295 549.8462,-137.0144 559.2198,-141.9527 560.2535,-135.0295"/>
</g>
<!-- Node1&#45;&gt;Node14 -->
<g id="edge16" class="edge">
<title>Node1&#45;&gt;Node14</title>
<path fill="none" stroke="#191970" d="M951.125,-179.3906C978.9263,-168.9652 1023.4844,-152.2559 1054.4994,-140.6252"/>
<polygon fill="#191970" stroke="#191970" points="1055.9206,-143.8303 1064.0549,-137.0419 1053.4627,-137.276 1055.9206,-143.8303"/>
</g>
<!-- Node15 -->
<g id="node16" class="node">
<title>Node15</title>
<polygon fill="none" stroke="#bfbfbf" points="828,-118 828,-137 885,-137 885,-118 828,-118"/>
<text text-anchor="middle" x="856.5" y="-125" font-family="Helvetica,sans-Serif" font-size="10.00" fill="#000000">gsl/span</text>
</g>
<!-- Node1&#45;&gt;Node15 -->
<g id="edge19" class="edge">
<title>Node1&#45;&gt;Node15</title>
<path fill="none" stroke="#191970" d="M914.7188,-179.3906C904.1474,-169.9683 887.8175,-155.4134 875.1397,-144.1137"/>
<polygon fill="#191970" stroke="#191970" points="877.2272,-141.2858 867.4333,-137.2449 872.5696,-146.5114 877.2272,-141.2858"/>
</g>
<!-- Node16 -->
<g id="node17" class="node">
<title>Node16</title>
<polygon fill="none" stroke="#bfbfbf" points="903.5,-118 903.5,-137 947.5,-137 947.5,-118 903.5,-118"/>
<text text-anchor="middle" x="925.5" y="-125" font-family="Helvetica,sans-Serif" font-size="10.00" fill="#000000">bitset</text>
</g>
<!-- Node1&#45;&gt;Node16 -->
<g id="edge20" class="edge">
<title>Node1&#45;&gt;Node16</title>
<path fill="none" stroke="#191970" d="M925.5,-179.3906C925.5,-170.8657 925.5,-158.1392 925.5,-147.4235"/>
<polygon fill="#191970" stroke="#191970" points="929.0001,-147.2448 925.5,-137.2449 922.0001,-147.2449 929.0001,-147.2448"/>
</g>
<!-- Node1&#45;&gt;Node17 -->
<g id="edge21" class="edge">
<title>Node1&#45;&gt;Node17</title>
<path fill="none" stroke="#191970" d="M991.528,-181.0325C1044.37,-173.7608 1120.0362,-161.33 1184.5,-143 1186.9529,-142.3025 1189.464,-141.5061 1191.9716,-140.6507"/>
<polygon fill="#191970" stroke="#191970" points="1193.3203,-143.8839 1201.4953,-137.1445 1190.9018,-137.3149 1193.3203,-143.8839"/>
</g>
<!-- Node3 -->
<g id="node4" class="node">
<title>Node3</title>
<g id="a_node4"><a xlink:href="../../d2/d45/GPUCommonRtypes_8h.html" target="_top" xlink:title="GPUCommonRtypes.h">
<polygon fill="none" stroke="#000000" points="601,-56.5 601,-75.5 726,-75.5 726,-56.5 601,-56.5"/>
<text text-anchor="middle" x="663.5" y="-63.5" font-family="Helvetica,sans-Serif" font-size="10.00" fill="#000000">GPUCommonRtypes.h</text>
</a>
</g>
</g>
<!-- Node2&#45;&gt;Node3 -->
<g id="edge3" class="edge">
<title>Node2&#45;&gt;Node3</title>
<path fill="none" stroke="#191970" d="M338.6228,-114.495C413.5739,-103.3069 520.444,-87.3542 590.8575,-76.8435"/>
<polygon fill="#191970" stroke="#191970" points="591.6001,-80.2715 600.9737,-75.3334 590.5666,-73.3482 591.6001,-80.2715"/>
</g>
<!-- Node5 -->
<g id="node6" class="node">
<title>Node5</title>
<polygon fill="none" stroke="#bfbfbf" points="274,-56.5 274,-75.5 323,-75.5 323,-56.5 274,-56.5"/>
<text text-anchor="middle" x="298.5" y="-63.5" font-family="Helvetica,sans-Serif" font-size="10.00" fill="#000000">iosfwd</text>
</g>
<!-- Node2&#45;&gt;Node5 -->
<g id="edge5" class="edge">
<title>Node2&#45;&gt;Node5</title>
<path fill="none" stroke="#191970" d="M263.118,-112.2977C269.71,-103.672 277.9948,-92.8312 284.8901,-83.8087"/>
<polygon fill="#191970" stroke="#191970" points="287.6835,-85.9176 290.9747,-75.8469 282.1217,-81.6671 287.6835,-85.9176"/>
</g>
<!-- Node6 -->
<g id="node7" class="node">
<title>Node6</title>
<polygon fill="none" stroke="#bfbfbf" points="0,-56.5 0,-75.5 47,-75.5 47,-56.5 0,-56.5"/>
<text text-anchor="middle" x="23.5" y="-63.5" font-family="Helvetica,sans-Serif" font-size="10.00" fill="#000000">cmath</text>
</g>
<!-- Node2&#45;&gt;Node6 -->
<g id="edge6" class="edge">
<title>Node2&#45;&gt;Node6</title>
<path fill="none" stroke="#191970" d="M192.0391,-112.3891C155.6792,-103.0118 108.0023,-90.4732 57.1355,-76.1116"/>
<polygon fill="#191970" stroke="#191970" points="57.8385,-72.6731 47.263,-73.3125 55.929,-79.4076 57.8385,-72.6731"/>
</g>
<!-- Node7 -->
<g id="node8" class="node">
<title>Node7</title>
<polygon fill="none" stroke="#bfbfbf" points="341.5,-56.5 341.5,-75.5 391.5,-75.5 391.5,-56.5 341.5,-56.5"/>
<text text-anchor="middle" x="366.5" y="-63.5" font-family="Helvetica,sans-Serif" font-size="10.00" fill="#000000">cstdint</text>
</g>
<!-- Node2&#45;&gt;Node7 -->
<g id="edge7" class="edge">
<title>Node2&#45;&gt;Node7</title>
<path fill="none" stroke="#191970" d="M279.6322,-112.4554C297.9786,-102.644 321.7777,-89.9167 339.8251,-80.2653"/>
<polygon fill="#191970" stroke="#191970" points="341.5114,-83.3326 348.6791,-75.5303 338.2103,-77.1598 341.5114,-83.3326"/>
</g>
<!-- Node8 -->
<g id="node9" class="node">
<title>Node8</title>
<g id="a_node9"><a xlink:href="../../d4/dc6/LHCConstants_8h.html" target="_top" xlink:title="Header to collect LHC related constants. ">
<polygon fill="none" stroke="#000000" points="65.5,-56.5 65.5,-75.5 255.5,-75.5 255.5,-56.5 65.5,-56.5"/>
<text text-anchor="middle" x="160.5" y="-63.5" font-family="Helvetica,sans-Serif" font-size="10.00" fill="#000000">CommonConstants/LHCConstants.h</text>
</a>
</g>
</g>
<!-- Node2&#45;&gt;Node8 -->
<g id="edge8" class="edge">
<title>Node2&#45;&gt;Node8</title>
<path fill="none" stroke="#191970" d="M229.0056,-112.2977C215.1033,-102.9022 197.3124,-90.8787 183.3454,-81.4395"/>
<polygon fill="#191970" stroke="#191970" points="185.0436,-78.3629 174.7985,-75.6633 181.124,-84.1626 185.0436,-78.3629"/>
</g>
<!-- Node3&#45;&gt;Node4 -->
<g id="edge4" class="edge">
<title>Node3&#45;&gt;Node4</title>
<path fill="none" stroke="#191970" d="M726.3578,-57.737C815.2574,-46.0507 975.1535,-25.0315 1049.4865,-15.26"/>
<polygon fill="#191970" stroke="#191970" points="1050.3557,-18.6759 1059.8142,-13.9024 1049.4433,-11.7356 1050.3557,-18.6759"/>
</g>
<!-- Node9&#45;&gt;Node3 -->
<g id="edge10" class="edge">
<title>Node9&#45;&gt;Node3</title>
<path fill="none" stroke="#191970" d="M698.0938,-117.8906C692.1114,-108.917 683.0253,-95.2879 675.6661,-84.2491"/>
<polygon fill="#191970" stroke="#191970" points="678.4558,-82.1239 669.9966,-75.7449 672.6314,-86.0068 678.4558,-82.1239"/>
</g>
<!-- Node10&#45;&gt;Node3 -->
<g id="edge12" class="edge">
<title>Node10&#45;&gt;Node3</title>
<path fill="none" stroke="#191970" d="M515,-117.8906C544.9647,-107.42 593.0683,-90.6111 626.3698,-78.9745"/>
<polygon fill="#191970" stroke="#191970" points="627.9074,-82.1448 636.1931,-75.5419 625.5983,-75.5366 627.9074,-82.1448"/>
</g>
<!-- Node11 -->
<g id="node12" class="node">
<title>Node11</title>
<g id="a_node12"><a xlink:href="../../df/d21/GPUCommonDef_8h.html" target="_top" xlink:title="GPUCommonDef.h">
<polygon fill="none" stroke="#000000" points="434,-56.5 434,-75.5 541,-75.5 541,-56.5 434,-56.5"/>
<text text-anchor="middle" x="487.5" y="-63.5" font-family="Helvetica,sans-Serif" font-size="10.00" fill="#000000">GPUCommonDef.h</text>
</a>
</g>
</g>
<!-- Node10&#45;&gt;Node11 -->
<g id="edge13" class="edge">
<title>Node10&#45;&gt;Node11</title>
<path fill="none" stroke="#191970" d="M487.5,-117.8906C487.5,-109.3657 487.5,-96.6392 487.5,-85.9235"/>
<polygon fill="#191970" stroke="#191970" points="491.0001,-85.7448 487.5,-75.7449 484.0001,-85.7449 491.0001,-85.7448"/>
</g>
<!-- Node12 -->
<g id="node13" class="node">
<title>Node12</title>
<g id="a_node13"><a xlink:href="../../d5/d93/GPUCommonDefSettings_8h.html" target="_top" xlink:title="GPUCommonDefSettings.h">
<polygon fill="none" stroke="#000000" points="490.5,-.5 490.5,-19.5 638.5,-19.5 638.5,-.5 490.5,-.5"/>
<text text-anchor="middle" x="564.5" y="-7.5" font-family="Helvetica,sans-Serif" font-size="10.00" fill="#000000">GPUCommonDefSettings.h</text>
</a>
</g>
</g>
<!-- Node11&#45;&gt;Node12 -->
<g id="edge14" class="edge">
<title>Node11&#45;&gt;Node12</title>
<path fill="none" stroke="#191970" d="M500.9124,-56.2455C512.5057,-47.814 529.4748,-35.4729 542.9678,-25.6598"/>
<polygon fill="#191970" stroke="#191970" points="545.2126,-28.355 551.2413,-19.6427 541.0953,-22.6938 545.2126,-28.355"/>
</g>
<!-- Node13 -->
<g id="node14" class="node">
<title>Node13</title>
<g id="a_node14"><a xlink:href="../../da/d5a/GPUCommonDefAPI_8h.html" target="_top" xlink:title="GPUCommonDefAPI.h">
<polygon fill="none" stroke="#000000" points="348.5,-.5 348.5,-19.5 472.5,-19.5 472.5,-.5 348.5,-.5"/>
<text text-anchor="middle" x="410.5" y="-7.5" font-family="Helvetica,sans-Serif" font-size="10.00" fill="#000000">GPUCommonDefAPI.h</text>
</a>
</g>
</g>
<!-- Node11&#45;&gt;Node13 -->
<g id="edge15" class="edge">
<title>Node11&#45;&gt;Node13</title>
<path fill="none" stroke="#191970" d="M474.0876,-56.2455C462.4943,-47.814 445.5252,-35.4729 432.0322,-25.6598"/>
<polygon fill="#191970" stroke="#191970" points="433.9047,-22.6938 423.7587,-19.6427 429.7874,-28.355 433.9047,-22.6938"/>
</g>
<!-- Node14&#45;&gt;Node4 -->
<g id="edge17" class="edge">
<title>Node14&#45;&gt;Node4</title>
<path fill="none" stroke="#191970" d="M1089.5,-117.8845C1089.5,-98.6913 1089.5,-55.286 1089.5,-29.7663"/>
<polygon fill="#191970" stroke="#191970" points="1093.0001,-29.7483 1089.5,-19.7484 1086.0001,-29.7484 1093.0001,-29.7483"/>
</g>
<!-- Node18&#45;&gt;Node7 -->
<g id="edge24" class="edge">
<title>Node18&#45;&gt;Node7</title>
<path fill="none" stroke="#191970" d="M588.6725,-185.8534C516.2659,-181.2355 413.3539,-170.0032 384.5,-143 368.9681,-128.4643 365.644,-103.3145 365.4397,-85.7253"/>
<polygon fill="#191970" stroke="#191970" points="368.9399,-85.7494 365.6466,-75.6794 361.9414,-85.6052 368.9399,-85.7494"/>
</g>
<!-- Node19&#45;&gt;Node4 -->
<g id="edge26" class="edge">
<title>Node19&#45;&gt;Node4</title>
<path fill="none" stroke="#191970" d="M1375.5937,-179.2965C1375.3266,-163.9687 1373.0823,-133.6719 1360.5,-112 1341.3543,-79.0232 1329.5756,-73.1136 1295.5,-56 1241.8019,-29.0315 1172.3746,-17.7384 1129.4008,-13.1042"/>
<polygon fill="#191970" stroke="#191970" points="1129.6349,-9.6101 1119.334,-12.0886 1128.9322,-16.5748 1129.6349,-9.6101"/>
</g>
<!-- Node19&#45;&gt;Node17 -->
<g id="edge28" class="edge">
<title>Node19&#45;&gt;Node17</title>
<path fill="none" stroke="#191970" d="M1351.75,-179.3906C1326.2061,-169.0554 1285.3991,-152.5447 1256.689,-140.9284"/>
<polygon fill="#191970" stroke="#191970" points="1257.666,-137.5481 1247.0832,-137.0419 1255.0404,-144.0371 1257.666,-137.5481"/>
</g>
<!-- Node20 -->
<g id="node21" class="node">
<title>Node20</title>
<polygon fill="none" stroke="#bfbfbf" points="1407.5,-118 1407.5,-137 1459.5,-137 1459.5,-118 1407.5,-118"/>
<text text-anchor="middle" x="1433.5" y="-125" font-family="Helvetica,sans-Serif" font-size="10.00" fill="#000000">cassert</text>
</g>
<!-- Node19&#45;&gt;Node20 -->
<g id="edge27" class="edge">
<title>Node19&#45;&gt;Node20</title>
<path fill="none" stroke="#191970" d="M1384.5625,-179.3906C1393.2793,-170.1478 1406.654,-155.966 1417.2196,-144.7628"/>
<polygon fill="#191970" stroke="#191970" points="1419.995,-146.9213 1424.3097,-137.2449 1414.9024,-142.1186 1419.995,-146.9213"/>
</g>
<!-- Node21 -->
<g id="node22" class="node">
<title>Node21</title>
<polygon fill="none" stroke="#bfbfbf" points="1310,-118 1310,-137 1351,-137 1351,-118 1310,-118"/>
<text text-anchor="middle" x="1330.5" y="-125" font-family="Helvetica,sans-Serif" font-size="10.00" fill="#000000">tuple</text>
</g>
<!-- Node19&#45;&gt;Node21 -->
<g id="edge29" class="edge">
<title>Node19&#45;&gt;Node21</title>
<path fill="none" stroke="#191970" d="M1368.4688,-179.3906C1361.837,-170.3273 1351.7304,-156.5149 1343.6113,-145.4188"/>
<polygon fill="#191970" stroke="#191970" points="1346.3601,-143.2484 1337.6304,-137.2449 1340.7109,-147.382 1346.3601,-143.2484"/>
</g>
<!-- Node23 -->
<g id="node24" class="node">
<title>Node23</title>
<polygon fill="none" stroke="#bfbfbf" points="1482.5,-118 1482.5,-137 1590.5,-137 1590.5,-118 1482.5,-118"/>
<text text-anchor="middle" x="1536.5" y="-125" font-family="Helvetica,sans-Serif" font-size="10.00" fill="#000000">fairlogger/Logger.h</text>
</g>
<!-- Node22&#45;&gt;Node23 -->
<g id="edge32" class="edge">
<title>Node22&#45;&gt;Node23</title>
<path fill="none" stroke="#191970" d="M1536.5,-179.3906C1536.5,-170.8657 1536.5,-158.1392 1536.5,-147.4235"/>
<polygon fill="#191970" stroke="#191970" points="1540.0001,-147.2448 1536.5,-137.2449 1533.0001,-147.2449 1540.0001,-147.2448"/>
</g>
</g>
</svg>
