<?xml version="1.0" encoding="UTF-8" standalone="no"?>
<!DOCTYPE svg PUBLIC "-//W3C//DTD SVG 1.1//EN"
 "http://www.w3.org/Graphics/SVG/1.1/DTD/svg11.dtd">
<!-- Generated by graphviz version 2.40.1 (20161225.0304)
 -->
<!-- Title: o2::header::RAWDataHeaderV4 Pages: 1 -->
<!--zoomable 424 -->
<svg id="main" version="1.1" xmlns="http://www.w3.org/2000/svg" xmlns:xlink="http://www.w3.org/1999/xlink" xml:space="preserve" onload="init(evt)">
<style type="text/css"><![CDATA[
.edge:hover path { stroke: red; }
.edge:hover polygon { stroke: red; fill: red; }
]]></style>
<script type="text/javascript"><![CDATA[
var edges = document.getElementsByTagName('g');
if (edges && edges.length) {
  for (var i=0;i<edges.length;i++) {
    if (edges[i].id.substr(0,4)=='edge') {
      edges[i].setAttribute('class','edge');
    }
  }
}
]]></script>
        <defs>
                <circle id="rim" cx="0" cy="0" r="7"/>
                <circle id="rim2" cx="0" cy="0" r="3.5"/>
                <g id="zoomPlus">
                        <use xlink:href="#rim" fill="#404040">
                                <set attributeName="fill" to="#808080" begin="zoomplus.mouseover" end="zoomplus.mouseout"/>
                        </use>
                        <path d="M-4,0h8M0,-4v8" fill="none" stroke="white" stroke-width="1.5" pointer-events="none"/>
                </g>
                <g id="zoomMin">
                        <use xlink:href="#rim" fill="#404040">
                                <set attributeName="fill" to="#808080" begin="zoomminus.mouseover" end="zoomminus.mouseout"/>
                        </use>
                        <path d="M-4,0h8" fill="none" stroke="white" stroke-width="1.5" pointer-events="none"/>
                </g>
                <g id="dirArrow">
                        <path fill="none" stroke="white" stroke-width="1.5" d="M0,-3.0v7 M-2.5,-0.5L0,-3.0L2.5,-0.5"/>
                </g>
               <g id="resetDef">
                       <use xlink:href="#rim2" fill="#404040">
                               <set attributeName="fill" to="#808080" begin="reset.mouseover" end="reset.mouseout"/>
                       </use>
               </g>
        </defs>

<script type="text/javascript">
var viewWidth = 1331;
var viewHeight = 424;
var sectionId = 'dynsection-0';
</script>
<script xlink:href="../../svgpan.js"/>
<svg id="graph" class="graph">
<g id="viewport">
<title>o2::header::RAWDataHeaderV4</title>
<!-- Node1 -->
<g id="node1" class="node">
<title>Node1</title>
<polygon fill="#bfbfbf" stroke="#000000" points="595,-.5 595,-200.5 762,-200.5 762,-.5 595,-.5"/>
<text text-anchor="middle" x="678.5" y="-188.5" font-family="Helvetica,sans-Serif" font-size="10.00" fill="#000000">o2::header::RAWDataHeaderV4</text>
<polyline fill="none" stroke="#000000" points="595,-181.5 762,-181.5 "/>
<text text-anchor="start" x="603" y="-169.5" font-family="Helvetica,sans-Serif" font-size="10.00" fill="#000000">+ word0</text>
<text text-anchor="start" x="603" y="-158.5" font-family="Helvetica,sans-Serif" font-size="10.00" fill="#000000">+ blockLength</text>
<text text-anchor="start" x="603" y="-147.5" font-family="Helvetica,sans-Serif" font-size="10.00" fill="#000000">+ zero0</text>
<text text-anchor="start" x="603" y="-136.5" font-family="Helvetica,sans-Serif" font-size="10.00" fill="#000000">+ word1</text>
<text text-anchor="start" x="603" y="-125.5" font-family="Helvetica,sans-Serif" font-size="10.00" fill="#000000">+ word2</text>
<text text-anchor="start" x="603" y="-114.5" font-family="Helvetica,sans-Serif" font-size="10.00" fill="#000000">+ word3</text>
<text text-anchor="start" x="603" y="-103.5" font-family="Helvetica,sans-Serif" font-size="10.00" fill="#000000">+ word4</text>
<text text-anchor="start" x="603" y="-92.5" font-family="Helvetica,sans-Serif" font-size="10.00" fill="#000000">+ heartbeatBC</text>
<text text-anchor="start" x="603" y="-81.5" font-family="Helvetica,sans-Serif" font-size="10.00" fill="#000000">+ zero42</text>
<text text-anchor="start" x="603" y="-70.5" font-family="Helvetica,sans-Serif" font-size="10.00" fill="#000000">+ word5</text>
<text text-anchor="start" x="603" y="-59.5" font-family="Helvetica,sans-Serif" font-size="10.00" fill="#000000">+ word6</text>
<text text-anchor="start" x="603" y="-48.5" font-family="Helvetica,sans-Serif" font-size="10.00" fill="#000000">+ detectorField</text>
<text text-anchor="start" x="603" y="-37.5" font-family="Helvetica,sans-Serif" font-size="10.00" fill="#000000">+ stop</text>
<text text-anchor="start" x="603" y="-26.5" font-family="Helvetica,sans-Serif" font-size="10.00" fill="#000000">+ pageCnt</text>
<polyline fill="none" stroke="#000000" points="595,-19.5 762,-19.5 "/>
<text text-anchor="middle" x="678.5" y="-7.5" font-family="Helvetica,sans-Serif" font-size="10.00" fill="#000000"> </text>
</g>
<!-- Node2 -->
<g id="node2" class="node">
<title>Node2</title>
<polygon fill="none" stroke="#bfbfbf" points="0,-358.5 0,-415.5 113,-415.5 113,-358.5 0,-358.5"/>
<text text-anchor="middle" x="56.5" y="-403.5" font-family="Helvetica,sans-Serif" font-size="10.00" fill="#000000">anonymous:+@147</text>
<polyline fill="none" stroke="#bfbfbf" points="0,-396.5 113,-396.5 "/>
<text text-anchor="middle" x="56.5" y="-384.5" font-family="Helvetica,sans-Serif" font-size="10.00" fill="#000000"> </text>
<polyline fill="none" stroke="#bfbfbf" points="0,-377.5 113,-377.5 "/>
<text text-anchor="middle" x="56.5" y="-365.5" font-family="Helvetica,sans-Serif" font-size="10.00" fill="#000000"> </text>
</g>
<!-- Node2&#45;&gt;Node1 -->
<g id="edge1" class="edge">
<title>Node2&#45;&gt;Node1</title>
<path fill="none" stroke="#404040" d="M66.059,-358.3228C80.2454,-320.3532 110.5864,-254.1151 159.5,-219 226.4817,-170.9138 452.2204,-132.292 582.8723,-113.3015"/>
<polygon fill="none" stroke="#404040" points="582.9454,-113.2911 588.314,-108.4767 594.8229,-111.5807 589.4543,-116.395 582.9454,-113.2911"/>
<text text-anchor="middle" x="179.5" y="-277" font-family="Helvetica,sans-Serif" font-size="10.00" fill="#000000"> +@147</text>
</g>
<!-- Node3 -->
<g id="node3" class="node">
<title>Node3</title>
<polygon fill="none" stroke="#bfbfbf" points="131,-358.5 131,-415.5 244,-415.5 244,-358.5 131,-358.5"/>
<text text-anchor="middle" x="187.5" y="-403.5" font-family="Helvetica,sans-Serif" font-size="10.00" fill="#000000">anonymous:+@139</text>
<polyline fill="none" stroke="#bfbfbf" points="131,-396.5 244,-396.5 "/>
<text text-anchor="middle" x="187.5" y="-384.5" font-family="Helvetica,sans-Serif" font-size="10.00" fill="#000000"> </text>
<polyline fill="none" stroke="#bfbfbf" points="131,-377.5 244,-377.5 "/>
<text text-anchor="middle" x="187.5" y="-365.5" font-family="Helvetica,sans-Serif" font-size="10.00" fill="#000000"> </text>
</g>
<!-- Node3&#45;&gt;Node1 -->
<g id="edge2" class="edge">
<title>Node3&#45;&gt;Node1</title>
<path fill="none" stroke="#404040" d="M196.3167,-358.4929C209.3562,-321.0253 237.3465,-255.6821 283.5,-219 370.3547,-149.9691 496.7919,-121.0899 583.0672,-109.047"/>
<polygon fill="none" stroke="#404040" points="583.0719,-109.0464 588.4892,-104.2869 594.9661,-107.4569 589.5488,-112.2164 583.0719,-109.0464"/>
<text text-anchor="middle" x="303.5" y="-277" font-family="Helvetica,sans-Serif" font-size="10.00" fill="#000000"> +@139</text>
</g>
<!-- Node4 -->
<g id="node4" class="node">
<title>Node4</title>
<polygon fill="none" stroke="#bfbfbf" points="262,-358.5 262,-415.5 375,-415.5 375,-358.5 262,-358.5"/>
<text text-anchor="middle" x="318.5" y="-403.5" font-family="Helvetica,sans-Serif" font-size="10.00" fill="#000000">anonymous:+@149</text>
<polyline fill="none" stroke="#bfbfbf" points="262,-396.5 375,-396.5 "/>
<text text-anchor="middle" x="318.5" y="-384.5" font-family="Helvetica,sans-Serif" font-size="10.00" fill="#000000"> </text>
<polyline fill="none" stroke="#bfbfbf" points="262,-377.5 375,-377.5 "/>
<text text-anchor="middle" x="318.5" y="-365.5" font-family="Helvetica,sans-Serif" font-size="10.00" fill="#000000"> </text>
</g>
<!-- Node4&#45;&gt;Node1 -->
<g id="edge3" class="edge">
<title>Node4&#45;&gt;Node1</title>
<path fill="none" stroke="#404040" d="M322.4672,-358.251C328.9799,-321.419 345.2691,-257.7235 383.5,-219 437.253,-164.5545 519.2905,-134.3268 583.2196,-118.0536"/>
<polygon fill="none" stroke="#404040" points="583.2816,-118.0384 588.1537,-112.7221 594.935,-115.1747 590.0629,-120.491 583.2816,-118.0384"/>
<text text-anchor="middle" x="403.5" y="-277" font-family="Helvetica,sans-Serif" font-size="10.00" fill="#000000"> +@149</text>
</g>
<!-- Node5 -->
<g id="node5" class="node">
<title>Node5</title>
<g id="a_node5"><a xlink:href="../../d6/d30/classuint64__t.html" target="_top" xlink:title="{uint64_t\n||}">
<polygon fill="none" stroke="#000000" points="393.5,-358.5 393.5,-415.5 449.5,-415.5 449.5,-358.5 393.5,-358.5"/>
<text text-anchor="middle" x="421.5" y="-403.5" font-family="Helvetica,sans-Serif" font-size="10.00" fill="#000000">uint64_t</text>
<polyline fill="none" stroke="#000000" points="393.5,-396.5 449.5,-396.5 "/>
<text text-anchor="middle" x="421.5" y="-384.5" font-family="Helvetica,sans-Serif" font-size="10.00" fill="#000000"> </text>
<polyline fill="none" stroke="#000000" points="393.5,-377.5 449.5,-377.5 "/>
<text text-anchor="middle" x="421.5" y="-365.5" font-family="Helvetica,sans-Serif" font-size="10.00" fill="#000000"> </text>
</a>
</g>
</g>
<!-- Node5&#45;&gt;Node1 -->
<g id="edge4" class="edge">
<title>Node5&#45;&gt;Node1</title>
<path fill="none" stroke="#404040" d="M423.7574,-358.4881C427.9286,-322.4866 439.6816,-260.275 472.5,-219 501.3109,-182.765 544.4385,-155.5294 583.7987,-136.3651"/>
<polygon fill="none" stroke="#404040" points="583.9359,-136.3003 587.6515,-130.1202 594.7854,-131.1731 591.0697,-137.3532 583.9359,-136.3003"/>
<text text-anchor="middle" x="504.5" y="-332" font-family="Helvetica,sans-Serif" font-size="10.00" fill="#000000"> +word7</text>
<text text-anchor="middle" x="504.5" y="-321" font-family="Helvetica,sans-Serif" font-size="10.00" fill="#000000">+triggerType</text>
<text text-anchor="middle" x="504.5" y="-310" font-family="Helvetica,sans-Serif" font-size="10.00" fill="#000000">+zero6</text>
<text text-anchor="middle" x="504.5" y="-299" font-family="Helvetica,sans-Serif" font-size="10.00" fill="#000000">+par</text>
<text text-anchor="middle" x="504.5" y="-288" font-family="Helvetica,sans-Serif" font-size="10.00" fill="#000000">+feeId</text>
<text text-anchor="middle" x="504.5" y="-277" font-family="Helvetica,sans-Serif" font-size="10.00" fill="#000000">+priority</text>
<text text-anchor="middle" x="504.5" y="-266" font-family="Helvetica,sans-Serif" font-size="10.00" fill="#000000">+headerSize</text>
<text text-anchor="middle" x="504.5" y="-255" font-family="Helvetica,sans-Serif" font-size="10.00" fill="#000000">+version</text>
<text text-anchor="middle" x="504.5" y="-244" font-family="Helvetica,sans-Serif" font-size="10.00" fill="#000000">+triggerBC</text>
<text text-anchor="middle" x="504.5" y="-233" font-family="Helvetica,sans-Serif" font-size="10.00" fill="#000000">+zero41</text>
<text text-anchor="middle" x="504.5" y="-222" font-family="Helvetica,sans-Serif" font-size="10.00" fill="#000000">...</text>
</g>
<!-- Node6 -->
<g id="node6" class="node">
<title>Node6</title>
<polygon fill="none" stroke="#bfbfbf" points="468,-358.5 468,-415.5 581,-415.5 581,-358.5 468,-358.5"/>
<text text-anchor="middle" x="524.5" y="-403.5" font-family="Helvetica,sans-Serif" font-size="10.00" fill="#000000">anonymous:+@151</text>
<polyline fill="none" stroke="#bfbfbf" points="468,-396.5 581,-396.5 "/>
<text text-anchor="middle" x="524.5" y="-384.5" font-family="Helvetica,sans-Serif" font-size="10.00" fill="#000000"> </text>
<polyline fill="none" stroke="#bfbfbf" points="468,-377.5 581,-377.5 "/>
<text text-anchor="middle" x="524.5" y="-365.5" font-family="Helvetica,sans-Serif" font-size="10.00" fill="#000000"> </text>
</g>
<!-- Node6&#45;&gt;Node1 -->
<g id="edge5" class="edge">
<title>Node6&#45;&gt;Node1</title>
<path fill="none" stroke="#404040" d="M533.437,-358.3621C544.6828,-324.1032 565.6852,-265.5445 591.5,-219 592.9893,-216.3147 594.5308,-213.6201 596.1163,-210.923"/>
<polygon fill="none" stroke="#404040" points="596.2039,-210.7787 595.8991,-203.574 602.4324,-200.5217 602.7371,-207.7264 596.2039,-210.7787"/>
<text text-anchor="middle" x="611.5" y="-277" font-family="Helvetica,sans-Serif" font-size="10.00" fill="#000000"> +@151</text>
</g>
<!-- Node7 -->
<g id="node7" class="node">
<title>Node7</title>
<polygon fill="none" stroke="#bfbfbf" points="599.5,-358.5 599.5,-415.5 655.5,-415.5 655.5,-358.5 599.5,-358.5"/>
<text text-anchor="middle" x="627.5" y="-403.5" font-family="Helvetica,sans-Serif" font-size="10.00" fill="#000000">uint16_t</text>
<polyline fill="none" stroke="#bfbfbf" points="599.5,-396.5 655.5,-396.5 "/>
<text text-anchor="middle" x="627.5" y="-384.5" font-family="Helvetica,sans-Serif" font-size="10.00" fill="#000000"> </text>
<polyline fill="none" stroke="#bfbfbf" points="599.5,-377.5 655.5,-377.5 "/>
<text text-anchor="middle" x="627.5" y="-365.5" font-family="Helvetica,sans-Serif" font-size="10.00" fill="#000000"> </text>
</g>
<!-- Node7&#45;&gt;Node1 -->
<g id="edge6" class="edge">
<title>Node7&#45;&gt;Node1</title>
<path fill="none" stroke="#404040" d="M632.5765,-358.4819C638.6315,-324.4672 649.1202,-265.5456 658.5463,-212.593"/>
<polygon fill="none" stroke="#404040" points="658.5612,-212.5086 655.6747,-205.9005 660.6644,-200.6944 663.5509,-207.3026 658.5612,-212.5086"/>
<text text-anchor="middle" x="674" y="-277" font-family="Helvetica,sans-Serif" font-size="10.00" fill="#000000"> +cruID</text>
</g>
<!-- Node8 -->
<g id="node8" class="node">
<title>Node8</title>
<polygon fill="none" stroke="#bfbfbf" points="674,-358.5 674,-415.5 787,-415.5 787,-358.5 674,-358.5"/>
<text text-anchor="middle" x="730.5" y="-403.5" font-family="Helvetica,sans-Serif" font-size="10.00" fill="#000000">anonymous:+@153</text>
<polyline fill="none" stroke="#bfbfbf" points="674,-396.5 787,-396.5 "/>
<text text-anchor="middle" x="730.5" y="-384.5" font-family="Helvetica,sans-Serif" font-size="10.00" fill="#000000"> </text>
<polyline fill="none" stroke="#bfbfbf" points="674,-377.5 787,-377.5 "/>
<text text-anchor="middle" x="730.5" y="-365.5" font-family="Helvetica,sans-Serif" font-size="10.00" fill="#000000"> </text>
</g>
<!-- Node8&#45;&gt;Node1 -->
<g id="edge7" class="edge">
<title>Node8&#45;&gt;Node1</title>
<path fill="none" stroke="#404040" d="M725.3239,-358.4819C719.1502,-324.4672 708.4559,-265.5456 698.845,-212.593"/>
<polygon fill="none" stroke="#404040" points="698.8284,-212.5015 693.8212,-207.3123 696.6854,-200.6944 701.6926,-205.8836 698.8284,-212.5015"/>
<text text-anchor="middle" x="741.5" y="-277" font-family="Helvetica,sans-Serif" font-size="10.00" fill="#000000"> +@153</text>
</g>
<!-- Node9 -->
<g id="node9" class="node">
<title>Node9</title>
<polygon fill="none" stroke="#bfbfbf" points="805.5,-358.5 805.5,-415.5 855.5,-415.5 855.5,-358.5 805.5,-358.5"/>
<text text-anchor="middle" x="830.5" y="-403.5" font-family="Helvetica,sans-Serif" font-size="10.00" fill="#000000">uint8_t</text>
<polyline fill="none" stroke="#bfbfbf" points="805.5,-396.5 855.5,-396.5 "/>
<text text-anchor="middle" x="830.5" y="-384.5" font-family="Helvetica,sans-Serif" font-size="10.00" fill="#000000"> </text>
<polyline fill="none" stroke="#bfbfbf" points="805.5,-377.5 855.5,-377.5 "/>
<text text-anchor="middle" x="830.5" y="-365.5" font-family="Helvetica,sans-Serif" font-size="10.00" fill="#000000"> </text>
</g>
<!-- Node9&#45;&gt;Node1 -->
<g id="edge8" class="edge">
<title>Node9&#45;&gt;Node1</title>
<path fill="none" stroke="#404040" d="M807.3017,-358.4737C803.2806,-352.6058 799.4506,-346.2914 796.5,-340 772.9278,-289.7384 789.2488,-269.1784 765.5,-219 764.2794,-216.421 762.9994,-213.8412 761.6677,-211.2657"/>
<polygon fill="none" stroke="#404040" points="761.6604,-211.2523 755.2777,-207.8966 755.9203,-200.7142 762.3031,-204.0698 761.6604,-211.2523"/>
<text text-anchor="middle" x="836.5" y="-288" font-family="Helvetica,sans-Serif" font-size="10.00" fill="#000000"> +linkID</text>
<text text-anchor="middle" x="836.5" y="-277" font-family="Helvetica,sans-Serif" font-size="10.00" fill="#000000">+endPointID</text>
<text text-anchor="middle" x="836.5" y="-266" font-family="Helvetica,sans-Serif" font-size="10.00" fill="#000000">+packetCounter</text>
</g>
<!-- Node10 -->
<g id="node10" class="node">
<title>Node10</title>
<g id="a_node10"><a xlink:href="../../d3/d87/classuint32__t.html" target="_top" xlink:title="{uint32_t\n||}">
<polygon fill="none" stroke="#000000" points="873.5,-358.5 873.5,-415.5 929.5,-415.5 929.5,-358.5 873.5,-358.5"/>
<text text-anchor="middle" x="901.5" y="-403.5" font-family="Helvetica,sans-Serif" font-size="10.00" fill="#000000">uint32_t</text>
<polyline fill="none" stroke="#000000" points="873.5,-396.5 929.5,-396.5 "/>
<text text-anchor="middle" x="901.5" y="-384.5" font-family="Helvetica,sans-Serif" font-size="10.00" fill="#000000"> </text>
<polyline fill="none" stroke="#000000" points="873.5,-377.5 929.5,-377.5 "/>
<text text-anchor="middle" x="901.5" y="-365.5" font-family="Helvetica,sans-Serif" font-size="10.00" fill="#000000"> </text>
</a>
</g>
</g>
<!-- Node10&#45;&gt;Node1 -->
<g id="edge9" class="edge">
<title>Node10&#45;&gt;Node1</title>
<path fill="none" stroke="#404040" d="M900.161,-358.2483C897.7269,-316.3922 891.3796,-241.242 876.5,-219 851.7656,-182.0273 811.2373,-154.834 773.2695,-135.8925"/>
<polygon fill="none" stroke="#404040" points="772.9301,-135.7292 765.7888,-136.73 762.1183,-130.523 769.2596,-129.5221 772.9301,-135.7292"/>
<text text-anchor="middle" x="940" y="-293.5" font-family="Helvetica,sans-Serif" font-size="10.00" fill="#000000"> +heartbeatOrbit</text>
<text text-anchor="middle" x="940" y="-282.5" font-family="Helvetica,sans-Serif" font-size="10.00" fill="#000000">+triggerOrbit</text>
<text text-anchor="middle" x="940" y="-271.5" font-family="Helvetica,sans-Serif" font-size="10.00" fill="#000000">+memorySize</text>
<text text-anchor="middle" x="940" y="-260.5" font-family="Helvetica,sans-Serif" font-size="10.00" fill="#000000">+offsetToNext</text>
</g>
<!-- Node11 -->
<g id="node11" class="node">
<title>Node11</title>
<polygon fill="none" stroke="#bfbfbf" points="948,-358.5 948,-415.5 1061,-415.5 1061,-358.5 948,-358.5"/>
<text text-anchor="middle" x="1004.5" y="-403.5" font-family="Helvetica,sans-Serif" font-size="10.00" fill="#000000">anonymous:+@141</text>
<polyline fill="none" stroke="#bfbfbf" points="948,-396.5 1061,-396.5 "/>
<text text-anchor="middle" x="1004.5" y="-384.5" font-family="Helvetica,sans-Serif" font-size="10.00" fill="#000000"> </text>
<polyline fill="none" stroke="#bfbfbf" points="948,-377.5 1061,-377.5 "/>
<text text-anchor="middle" x="1004.5" y="-365.5" font-family="Helvetica,sans-Serif" font-size="10.00" fill="#000000"> </text>
</g>
<!-- Node11&#45;&gt;Node1 -->
<g id="edge10" class="edge">
<title>Node11&#45;&gt;Node1</title>
<path fill="none" stroke="#404040" d="M1008.9259,-358.4188C1012.8942,-322.0585 1013.9788,-259.1719 982.5,-219 932.4836,-155.1711 843.3437,-125.673 774.4762,-112.0697"/>
<polygon fill="none" stroke="#404040" points="774.0981,-111.9988 767.4637,-114.8245 762.3036,-109.7873 768.938,-106.9616 774.0981,-111.9988"/>
<text text-anchor="middle" x="1030.5" y="-277" font-family="Helvetica,sans-Serif" font-size="10.00" fill="#000000"> +@141</text>
</g>
<!-- Node12 -->
<g id="node12" class="node">
<title>Node12</title>
<polygon fill="none" stroke="#bfbfbf" points="1079,-358.5 1079,-415.5 1192,-415.5 1192,-358.5 1079,-358.5"/>
<text text-anchor="middle" x="1135.5" y="-403.5" font-family="Helvetica,sans-Serif" font-size="10.00" fill="#000000">anonymous:+@143</text>
<polyline fill="none" stroke="#bfbfbf" points="1079,-396.5 1192,-396.5 "/>
<text text-anchor="middle" x="1135.5" y="-384.5" font-family="Helvetica,sans-Serif" font-size="10.00" fill="#000000"> </text>
<polyline fill="none" stroke="#bfbfbf" points="1079,-377.5 1192,-377.5 "/>
<text text-anchor="middle" x="1135.5" y="-365.5" font-family="Helvetica,sans-Serif" font-size="10.00" fill="#000000"> </text>
</g>
<!-- Node12&#45;&gt;Node1 -->
<g id="edge11" class="edge">
<title>Node12&#45;&gt;Node1</title>
<path fill="none" stroke="#404040" d="M1129.1723,-358.3237C1119.4646,-320.9728 1097.3456,-256.0827 1054.5,-219 975.4555,-150.5874 856.8868,-121.6267 774.0945,-109.3941"/>
<polygon fill="none" stroke="#404040" points="774.03,-109.3851 767.5298,-112.5073 762.1478,-107.708 768.6479,-104.5858 774.03,-109.3851"/>
<text text-anchor="middle" x="1143.5" y="-277" font-family="Helvetica,sans-Serif" font-size="10.00" fill="#000000"> +@143</text>
</g>
<!-- Node13 -->
<g id="node13" class="node">
<title>Node13</title>
<polygon fill="none" stroke="#bfbfbf" points="1210,-358.5 1210,-415.5 1323,-415.5 1323,-358.5 1210,-358.5"/>
<text text-anchor="middle" x="1266.5" y="-403.5" font-family="Helvetica,sans-Serif" font-size="10.00" fill="#000000">anonymous:+@145</text>
<polyline fill="none" stroke="#bfbfbf" points="1210,-396.5 1323,-396.5 "/>
<text text-anchor="middle" x="1266.5" y="-384.5" font-family="Helvetica,sans-Serif" font-size="10.00" fill="#000000"> </text>
<polyline fill="none" stroke="#bfbfbf" points="1210,-377.5 1323,-377.5 "/>
<text text-anchor="middle" x="1266.5" y="-365.5" font-family="Helvetica,sans-Serif" font-size="10.00" fill="#000000"> </text>
</g>
<!-- Node13&#45;&gt;Node1 -->
<g id="edge12" class="edge">
<title>Node13&#45;&gt;Node1</title>
<path fill="none" stroke="#404040" d="M1257.5606,-358.4321C1244.2067,-320.5864 1215.3619,-254.4882 1167.5,-219 1105.8317,-173.2747 898.3173,-134.4755 774.3076,-114.6478"/>
<polygon fill="none" stroke="#404040" points="774.0576,-114.6083 767.5056,-117.6201 762.2055,-112.7306 768.7574,-109.7187 774.0576,-114.6083"/>
<text text-anchor="middle" x="1269.5" y="-277" font-family="Helvetica,sans-Serif" font-size="10.00" fill="#000000"> +@145</text>
</g>
</g>
</svg>
        <g id="navigator" transform="translate(0 0)" fill="#404254">
                <rect fill="#f2f5e9" fill-opacity="0.5" stroke="#606060" stroke-width=".5" x="0" y="0" width="60" height="60"/>
                <use id="zoomplus" xlink:href="#zoomPlus" x="17" y="9" onmousedown="handleZoom(evt,'in')"/>
                <use id="zoomminus" xlink:href="#zoomMin" x="42" y="9" onmousedown="handleZoom(evt,'out')"/>
                <use id="reset" xlink:href="#resetDef" x="30" y="36" onmousedown="handleReset()"/>
                <g id="arrowUp" xlink:href="#dirArrow" transform="translate(30 24)" onmousedown="handlePan(0,-1)">
                  <use xlink:href="#rim" fill="#404040">
                        <set attributeName="fill" to="#808080" begin="arrowUp.mouseover" end="arrowUp.mouseout"/>
                  </use>
                  <path fill="none" stroke="white" stroke-width="1.5" d="M0,-3.0v7 M-2.5,-0.5L0,-3.0L2.5,-0.5"/>
                </g>
                <g id="arrowRight" xlink:href="#dirArrow" transform="rotate(90) translate(36 -43)" onmousedown="handlePan(1,0)">
                  <use xlink:href="#rim" fill="#404040">
                        <set attributeName="fill" to="#808080" begin="arrowRight.mouseover" end="arrowRight.mouseout"/>
                  </use>
                  <path fill="none" stroke="white" stroke-width="1.5" d="M0,-3.0v7 M-2.5,-0.5L0,-3.0L2.5,-0.5"/>
                </g>
                <g id="arrowDown" xlink:href="#dirArrow" transform="rotate(180) translate(-30 -48)" onmousedown="handlePan(0,1)">
                  <use xlink:href="#rim" fill="#404040">
                        <set attributeName="fill" to="#808080" begin="arrowDown.mouseover" end="arrowDown.mouseout"/>
                  </use>
                  <path fill="none" stroke="white" stroke-width="1.5" d="M0,-3.0v7 M-2.5,-0.5L0,-3.0L2.5,-0.5"/>
                </g>
                <g id="arrowLeft" xlink:href="#dirArrow" transform="rotate(270) translate(-36 17)" onmousedown="handlePan(-1,0)">
                  <use xlink:href="#rim" fill="#404040">
                        <set attributeName="fill" to="#808080" begin="arrowLeft.mouseover" end="arrowLeft.mouseout"/>
                  </use>
                  <path fill="none" stroke="white" stroke-width="1.5" d="M0,-3.0v7 M-2.5,-0.5L0,-3.0L2.5,-0.5"/>
                </g>
        </g>
        <svg viewBox="0 0 15 15" width="100%" height="30px" preserveAspectRatio="xMaxYMin meet">
         <g id="arrow_out" transform="scale(0.3 0.3)">
          <a xlink:href="structo2_1_1header_1_1RAWDataHeaderV4__coll__graph_org.svg" target="_base">
           <rect id="button" ry="5" rx="5" y="6" x="6" height="38" width="38"
                fill="#f2f5e9" fill-opacity="0.5" stroke="#606060" stroke-width="1.0"/>
           <path id="arrow"
             d="M 11.500037,31.436501 C 11.940474,20.09759 22.043105,11.32322 32.158766,21.979434 L 37.068811,17.246167 C 37.068811,17.246167 37.088388,32 37.088388,32 L 22.160133,31.978069 C 22.160133,31.978069 26.997745,27.140456 26.997745,27.140456 C 18.528582,18.264221 13.291696,25.230495 11.500037,31.436501 z"
             style="fill:#404040;"/>
          </a>
         </g>
        </svg>
</svg>
