<?xml version="1.0" encoding="UTF-8" standalone="no"?>
<!DOCTYPE svg PUBLIC "-//W3C//DTD SVG 1.1//EN"
 "http://www.w3.org/Graphics/SVG/1.1/DTD/svg11.dtd">
<!-- Generated by graphviz version 2.40.1 (20161225.0304)
 -->
<!-- Title: o2::trd::TRDFeeID Pages: 1 -->
<svg width="298pt" height="215pt"
 viewBox="0.00 0.00 298.00 215.00" xmlns="http://www.w3.org/2000/svg" xmlns:xlink="http://www.w3.org/1999/xlink">
<g id="graph0" class="graph" transform="scale(1 1) rotate(0) translate(4 211)">
<title>o2::trd::TRDFeeID</title>
<!-- Node1 -->
<g id="node1" class="node">
<title>Node1</title>
<polygon fill="#bfbfbf" stroke="#000000" points="48.5,-.5 48.5,-57.5 149.5,-57.5 149.5,-.5 48.5,-.5"/>
<text text-anchor="middle" x="99" y="-45.5" font-family="Helvetica,sans-Serif" font-size="10.00" fill="#000000">o2::trd::TRDFeeID</text>
<polyline fill="none" stroke="#000000" points="48.5,-38.5 149.5,-38.5 "/>
<text text-anchor="middle" x="99" y="-26.5" font-family="Helvetica,sans-Serif" font-size="10.00" fill="#000000"> </text>
<polyline fill="none" stroke="#000000" points="48.5,-19.5 149.5,-19.5 "/>
<text text-anchor="middle" x="99" y="-7.5" font-family="Helvetica,sans-Serif" font-size="10.00" fill="#000000"> </text>
</g>
<!-- Node2 -->
<g id="node2" class="node">
<title>Node2</title>
<polygon fill="none" stroke="#bfbfbf" points="0,-149.5 0,-206.5 56,-206.5 56,-149.5 0,-149.5"/>
<text text-anchor="middle" x="28" y="-194.5" font-family="Helvetica,sans-Serif" font-size="10.00" fill="#000000">uint16_t</text>
<polyline fill="none" stroke="#bfbfbf" points="0,-187.5 56,-187.5 "/>
<text text-anchor="middle" x="28" y="-175.5" font-family="Helvetica,sans-Serif" font-size="10.00" fill="#000000"> </text>
<polyline fill="none" stroke="#bfbfbf" points="0,-168.5 56,-168.5 "/>
<text text-anchor="middle" x="28" y="-156.5" font-family="Helvetica,sans-Serif" font-size="10.00" fill="#000000"> </text>
</g>
<!-- Node2&#45;&gt;Node1 -->
<g id="edge1" class="edge">
<title>Node2&#45;&gt;Node1</title>
<path fill="none" stroke="#404040" d="M33.3699,-149.4996C38.1237,-128.3306 46.3094,-99.2256 59,-76 60.5598,-73.1454 62.3122,-70.3069 64.1895,-67.5207"/>
<polygon fill="none" stroke="#404040" points="64.291,-67.383 64.6335,-60.18 71.4142,-57.7258 71.0717,-64.9288 64.291,-67.383"/>
<text text-anchor="middle" x="77" y="-101" font-family="Helvetica,sans-Serif" font-size="10.00" fill="#000000"> +word</text>
</g>
<!-- Node3 -->
<g id="node3" class="node">
<title>Node3</title>
<polygon fill="none" stroke="#bfbfbf" points="74,-149.5 74,-206.5 124,-206.5 124,-149.5 74,-149.5"/>
<text text-anchor="middle" x="99" y="-194.5" font-family="Helvetica,sans-Serif" font-size="10.00" fill="#000000">uint8_t</text>
<polyline fill="none" stroke="#bfbfbf" points="74,-187.5 124,-187.5 "/>
<text text-anchor="middle" x="99" y="-175.5" font-family="Helvetica,sans-Serif" font-size="10.00" fill="#000000"> </text>
<polyline fill="none" stroke="#bfbfbf" points="74,-168.5 124,-168.5 "/>
<text text-anchor="middle" x="99" y="-156.5" font-family="Helvetica,sans-Serif" font-size="10.00" fill="#000000"> </text>
</g>
<!-- Node3&#45;&gt;Node1 -->
<g id="edge2" class="edge">
<title>Node3&#45;&gt;Node1</title>
<path fill="none" stroke="#404040" d="M99,-149.2713C99,-126.7002 99,-94.9774 99,-69.7784"/>
<polygon fill="none" stroke="#404040" points="99.0001,-69.6405 95,-63.6405 99,-57.6405 103,-63.6405 99.0001,-69.6405"/>
<text text-anchor="middle" x="135.5" y="-123" font-family="Helvetica,sans-Serif" font-size="10.00" fill="#000000"> +side</text>
<text text-anchor="middle" x="135.5" y="-112" font-family="Helvetica,sans-Serif" font-size="10.00" fill="#000000">+endpoint</text>
<text text-anchor="middle" x="135.5" y="-101" font-family="Helvetica,sans-Serif" font-size="10.00" fill="#000000">+supermodule</text>
<text text-anchor="middle" x="135.5" y="-90" font-family="Helvetica,sans-Serif" font-size="10.00" fill="#000000">+unused1</text>
<text text-anchor="middle" x="135.5" y="-79" font-family="Helvetica,sans-Serif" font-size="10.00" fill="#000000">+unused2</text>
</g>
<!-- Node4 -->
<g id="node4" class="node">
<title>Node4</title>
<polygon fill="none" stroke="#bfbfbf" points="142,-149.5 142,-206.5 290,-206.5 290,-149.5 142,-149.5"/>
<text text-anchor="middle" x="216" y="-194.5" font-family="Helvetica,sans-Serif" font-size="10.00" fill="#000000">anonymous:+__attribute__</text>
<polyline fill="none" stroke="#bfbfbf" points="142,-187.5 290,-187.5 "/>
<text text-anchor="middle" x="216" y="-175.5" font-family="Helvetica,sans-Serif" font-size="10.00" fill="#000000"> </text>
<polyline fill="none" stroke="#bfbfbf" points="142,-168.5 290,-168.5 "/>
<text text-anchor="middle" x="216" y="-156.5" font-family="Helvetica,sans-Serif" font-size="10.00" fill="#000000"> </text>
</g>
<!-- Node4&#45;&gt;Node1 -->
<g id="edge3" class="edge">
<title>Node4&#45;&gt;Node1</title>
<path fill="none" stroke="#404040" d="M210.0799,-149.4692C204.3531,-127.4566 193.8534,-97.2718 176,-76 171.1766,-70.253 165.4619,-65.0111 159.3585,-60.2863"/>
<polygon fill="none" stroke="#404040" points="159.2989,-60.244 152.0911,-60.0264 149.5197,-53.2893 156.7275,-53.5069 159.2989,-60.244"/>
<text text-anchor="middle" x="241.5" y="-101" font-family="Helvetica,sans-Serif" font-size="10.00" fill="#000000"> +__attribute__</text>
</g>
</g>
</svg>
