<?xml version="1.0" encoding="UTF-8" standalone="no"?>
<!DOCTYPE svg PUBLIC "-//W3C//DTD SVG 1.1//EN"
 "http://www.w3.org/Graphics/SVG/1.1/DTD/svg11.dtd">
<!-- Generated by graphviz version 2.40.1 (20161225.0304)
 -->
<!-- Title: /home/travis/build/AliceO2Group/AliceO2/Analysis/DataModel/include/Analysis/EventSelection.h Pages: 1 -->
<!--zoomable 341 -->
<svg id="main" version="1.1" xmlns="http://www.w3.org/2000/svg" xmlns:xlink="http://www.w3.org/1999/xlink" xml:space="preserve" onload="init(evt)">
<style type="text/css"><![CDATA[
.edge:hover path { stroke: red; }
.edge:hover polygon { stroke: red; fill: red; }
]]></style>
<script type="text/javascript"><![CDATA[
var edges = document.getElementsByTagName('g');
if (edges && edges.length) {
  for (var i=0;i<edges.length;i++) {
    if (edges[i].id.substr(0,4)=='edge') {
      edges[i].setAttribute('class','edge');
    }
  }
}
]]></script>
        <defs>
                <circle id="rim" cx="0" cy="0" r="7"/>
                <circle id="rim2" cx="0" cy="0" r="3.5"/>
                <g id="zoomPlus">
                        <use xlink:href="#rim" fill="#404040">
                                <set attributeName="fill" to="#808080" begin="zoomplus.mouseover" end="zoomplus.mouseout"/>
                        </use>
                        <path d="M-4,0h8M0,-4v8" fill="none" stroke="white" stroke-width="1.5" pointer-events="none"/>
                </g>
                <g id="zoomMin">
                        <use xlink:href="#rim" fill="#404040">
                                <set attributeName="fill" to="#808080" begin="zoomminus.mouseover" end="zoomminus.mouseout"/>
                        </use>
                        <path d="M-4,0h8" fill="none" stroke="white" stroke-width="1.5" pointer-events="none"/>
                </g>
                <g id="dirArrow">
                        <path fill="none" stroke="white" stroke-width="1.5" d="M0,-3.0v7 M-2.5,-0.5L0,-3.0L2.5,-0.5"/>
                </g>
               <g id="resetDef">
                       <use xlink:href="#rim2" fill="#404040">
                               <set attributeName="fill" to="#808080" begin="reset.mouseover" end="reset.mouseout"/>
                       </use>
               </g>
        </defs>

<script type="text/javascript">
var viewWidth = 2830;
var viewHeight = 341;
var sectionId = 'dynsection-0';
</script>
<script xlink:href="../../svgpan.js"/>
<svg id="graph" class="graph">
<g id="viewport">
<title>/home/travis/build/AliceO2Group/AliceO2/Analysis/DataModel/include/Analysis/EventSelection.h</title>
<!-- Node0 -->
<g id="node1" class="node">
<title>Node0</title>
<polygon fill="#bfbfbf" stroke="#000000" points="817.5,-280.5 817.5,-332.5 972.5,-332.5 972.5,-280.5 817.5,-280.5"/>
<text text-anchor="start" x="825.5" y="-320.5" font-family="Helvetica,sans-Serif" font-size="10.00" fill="#000000">/home/travis/build</text>
<text text-anchor="start" x="825.5" y="-309.5" font-family="Helvetica,sans-Serif" font-size="10.00" fill="#000000">/AliceO2Group/AliceO2</text>
<text text-anchor="start" x="825.5" y="-298.5" font-family="Helvetica,sans-Serif" font-size="10.00" fill="#000000">/Analysis/DataModel/include</text>
<text text-anchor="middle" x="895" y="-287.5" font-family="Helvetica,sans-Serif" font-size="10.00" fill="#000000">/Analysis/EventSelection.h</text>
</g>
<!-- Node1 -->
<g id="node2" class="node">
<title>Node1</title>
<g id="a_node2"><a xlink:href="../../d2/d8c/AnalysisDataModel_8h.html" target="_top" xlink:title="Framework/AnalysisDataModel.h">
<polygon fill="none" stroke="#000000" points="2110,-224.5 2110,-243.5 2286,-243.5 2286,-224.5 2110,-224.5"/>
<text text-anchor="middle" x="2198" y="-231.5" font-family="Helvetica,sans-Serif" font-size="10.00" fill="#000000">Framework/AnalysisDataModel.h</text>
</a>
</g>
</g>
<!-- Node0&#45;&gt;Node1 -->
<g id="edge1" class="edge">
<title>Node0&#45;&gt;Node1</title>
<path fill="none" stroke="#191970" d="M972.6064,-302.1819C1197.6764,-289.6588 1850.45,-253.338 2099.6931,-239.4699"/>
<polygon fill="#191970" stroke="#191970" points="2100.0328,-242.9565 2109.8228,-238.9062 2099.6438,-235.9673 2100.0328,-242.9565"/>
</g>
<!-- Node44 -->
<g id="node45" class="node">
<title>Node44</title>
<g id="a_node45"><a xlink:href="../../d6/d44/TriggerAliases_8h.html" target="_top" xlink:title="Analysis/TriggerAliases.h">
<polygon fill="none" stroke="#000000" points="94,-224.5 94,-243.5 232,-243.5 232,-224.5 94,-224.5"/>
<text text-anchor="middle" x="163" y="-231.5" font-family="Helvetica,sans-Serif" font-size="10.00" fill="#000000">Analysis/TriggerAliases.h</text>
</a>
</g>
</g>
<!-- Node0&#45;&gt;Node44 -->
<g id="edge55" class="edge">
<title>Node0&#45;&gt;Node44</title>
<path fill="none" stroke="#191970" d="M817.3562,-298.8099C677.2704,-284.9352 383.7009,-255.859 242.3671,-241.8608"/>
<polygon fill="#191970" stroke="#191970" points="242.3435,-238.3414 232.0472,-240.8387 241.6535,-245.3074 242.3435,-238.3414"/>
</g>
<!-- Node2 -->
<g id="node3" class="node">
<title>Node2</title>
<g id="a_node3"><a xlink:href="../../de/d33/ASoA_8h.html" target="_top" xlink:title="Framework/ASoA.h">
<polygon fill="none" stroke="#000000" points="1387,-168.5 1387,-187.5 1495,-187.5 1495,-168.5 1387,-168.5"/>
<text text-anchor="middle" x="1441" y="-175.5" font-family="Helvetica,sans-Serif" font-size="10.00" fill="#000000">Framework/ASoA.h</text>
</a>
</g>
</g>
<!-- Node1&#45;&gt;Node2 -->
<g id="edge2" class="edge">
<title>Node1&#45;&gt;Node2</title>
<path fill="none" stroke="#191970" d="M2109.6809,-227.4665C1955.545,-216.0641 1640.9565,-192.792 1505.4514,-182.7679"/>
<polygon fill="#191970" stroke="#191970" points="1505.4624,-179.2592 1495.2314,-182.0118 1504.946,-186.2401 1505.4624,-179.2592"/>
</g>
<!-- Node33 -->
<g id="node34" class="node">
<title>Node33</title>
<g id="a_node34"><a xlink:href="../../d9/d52/Common_2MathUtils_2include_2MathUtils_2Utils_8h.html" target="_top" xlink:title="MathUtils/Utils.h">
<polygon fill="none" stroke="#000000" points="2434,-168.5 2434,-187.5 2532,-187.5 2532,-168.5 2434,-168.5"/>
<text text-anchor="middle" x="2483" y="-175.5" font-family="Helvetica,sans-Serif" font-size="10.00" fill="#000000">MathUtils/Utils.h</text>
</a>
</g>
</g>
<!-- Node1&#45;&gt;Node33 -->
<g id="edge41" class="edge">
<title>Node1&#45;&gt;Node33</title>
<path fill="none" stroke="#191970" d="M2246.6694,-224.4369C2295.9573,-214.7522 2372.2048,-199.7703 2424.6926,-189.4569"/>
<polygon fill="#191970" stroke="#191970" points="2425.3938,-192.8861 2434.5313,-187.5237 2424.0441,-186.0175 2425.3938,-192.8861"/>
</g>
<!-- Node35 -->
<g id="node36" class="node">
<title>Node35</title>
<polygon fill="none" stroke="#bfbfbf" points="2481.5,-56.5 2481.5,-75.5 2528.5,-75.5 2528.5,-56.5 2481.5,-56.5"/>
<text text-anchor="middle" x="2505" y="-63.5" font-family="Helvetica,sans-Serif" font-size="10.00" fill="#000000">cmath</text>
</g>
<!-- Node1&#45;&gt;Node35 -->
<g id="edge52" class="edge">
<title>Node1&#45;&gt;Node35</title>
<path fill="none" stroke="#191970" d="M2196.1571,-224.4419C2192.3371,-201.4788 2186.2902,-142.8294 2217,-112 2252.1064,-76.7569 2402.9847,-68.5154 2471.2362,-66.5882"/>
<polygon fill="#191970" stroke="#191970" points="2471.542,-70.0816 2481.4503,-66.3299 2471.365,-63.0839 2471.542,-70.0816"/>
</g>
<!-- Node42 -->
<g id="node43" class="node">
<title>Node42</title>
<g id="a_node43"><a xlink:href="../../d2/d12/DataTypes_8h.html" target="_top" xlink:title="Framework/DataTypes.h">
<polygon fill="none" stroke="#000000" points="2620,-168.5 2620,-187.5 2754,-187.5 2754,-168.5 2620,-168.5"/>
<text text-anchor="middle" x="2687" y="-175.5" font-family="Helvetica,sans-Serif" font-size="10.00" fill="#000000">Framework/DataTypes.h</text>
</a>
</g>
</g>
<!-- Node1&#45;&gt;Node42 -->
<g id="edge53" class="edge">
<title>Node1&#45;&gt;Node42</title>
<path fill="none" stroke="#191970" d="M2281.2292,-224.4686C2373.2417,-213.9314 2520.2587,-197.0951 2609.7864,-186.8425"/>
<polygon fill="#191970" stroke="#191970" points="2610.3381,-190.3022 2619.8749,-185.6871 2609.5416,-183.3477 2610.3381,-190.3022"/>
</g>
<!-- Node3 -->
<g id="node4" class="node">
<title>Node3</title>
<g id="a_node4"><a xlink:href="../../dd/dce/Pack_8h.html" target="_top" xlink:title="Framework/Pack.h">
<polygon fill="none" stroke="#000000" points="1981.5,-56.5 1981.5,-75.5 2086.5,-75.5 2086.5,-56.5 1981.5,-56.5"/>
<text text-anchor="middle" x="2034" y="-63.5" font-family="Helvetica,sans-Serif" font-size="10.00" fill="#000000">Framework/Pack.h</text>
</a>
</g>
</g>
<!-- Node2&#45;&gt;Node3 -->
<g id="edge3" class="edge">
<title>Node2&#45;&gt;Node3</title>
<path fill="none" stroke="#191970" d="M1495.3337,-177.117C1609.6388,-174.6146 1871.1683,-165.3179 1953,-132 1979.3243,-121.282 2003.7685,-98.9594 2018.7726,-83.2527"/>
<polygon fill="#191970" stroke="#191970" points="2021.5005,-85.4578 2025.7182,-75.7387 2016.3601,-80.7063 2021.5005,-85.4578"/>
</g>
<!-- Node7 -->
<g id="node8" class="node">
<title>Node7</title>
<g id="a_node8"><a xlink:href="../../d1/d00/CheckTypes_8h.html" target="_top" xlink:title="Framework/CheckTypes.h">
<polygon fill="none" stroke="#000000" points="62,-56.5 62,-75.5 202,-75.5 202,-56.5 62,-56.5"/>
<text text-anchor="middle" x="132" y="-63.5" font-family="Helvetica,sans-Serif" font-size="10.00" fill="#000000">Framework/CheckTypes.h</text>
</a>
</g>
</g>
<!-- Node2&#45;&gt;Node7 -->
<g id="edge7" class="edge">
<title>Node2&#45;&gt;Node7</title>
<path fill="none" stroke="#191970" d="M1386.9985,-176.6878C1252.8788,-173.0752 893.9151,-161.241 596,-132 453.5057,-118.0139 287.6723,-92.0711 197.9118,-77.2174"/>
<polygon fill="#191970" stroke="#191970" points="198.3169,-73.7368 187.8785,-75.5508 197.1698,-80.6422 198.3169,-73.7368"/>
</g>
<!-- Node8 -->
<g id="node9" class="node">
<title>Node8</title>
<g id="a_node9"><a xlink:href="../../de/d9b/FunctionalHelpers_8h.html" target="_top" xlink:title="Framework/FunctionalHelpers.h">
<polygon fill="none" stroke="#000000" points="2000,-112.5 2000,-131.5 2170,-131.5 2170,-112.5 2000,-112.5"/>
<text text-anchor="middle" x="2085" y="-119.5" font-family="Helvetica,sans-Serif" font-size="10.00" fill="#000000">Framework/FunctionalHelpers.h</text>
</a>
</g>
</g>
<!-- Node2&#45;&gt;Node8 -->
<g id="edge8" class="edge">
<title>Node2&#45;&gt;Node8</title>
<path fill="none" stroke="#191970" d="M1495.1745,-173.7247C1593.1624,-165.9255 1806.3567,-148.653 1986,-132 1987.282,-131.8812 1988.5733,-131.7608 1989.8722,-131.639"/>
<polygon fill="#191970" stroke="#191970" points="1990.3288,-135.1115 1999.9532,-130.6819 1989.6672,-128.1428 1990.3288,-135.1115"/>
</g>
<!-- Node10 -->
<g id="node11" class="node">
<title>Node10</title>
<g id="a_node11"><a xlink:href="../../d9/de8/CompilerBuiltins_8h.html" target="_top" xlink:title="Framework/CompilerBuiltins.h">
<polygon fill="none" stroke="#000000" points="220,-56.5 220,-75.5 384,-75.5 384,-56.5 220,-56.5"/>
<text text-anchor="middle" x="302" y="-63.5" font-family="Helvetica,sans-Serif" font-size="10.00" fill="#000000">Framework/CompilerBuiltins.h</text>
</a>
</g>
</g>
<!-- Node2&#45;&gt;Node10 -->
<g id="edge11" class="edge">
<title>Node2&#45;&gt;Node10</title>
<path fill="none" stroke="#191970" d="M1386.8794,-175.9077C1269.8742,-171.0564 984.7259,-157.4653 747,-132 610.8591,-117.4165 452.4935,-91.8558 366.1856,-77.1912"/>
<polygon fill="#191970" stroke="#191970" points="366.7246,-73.7327 356.2786,-75.5019 365.5479,-80.6331 366.7246,-73.7327"/>
</g>
<!-- Node11 -->
<g id="node12" class="node">
<title>Node11</title>
<g id="a_node12"><a xlink:href="../../db/d31/Traits_8h.html" target="_top" xlink:title="Framework/Traits.h">
<polygon fill="none" stroke="#000000" points="1386.5,-112.5 1386.5,-131.5 1495.5,-131.5 1495.5,-112.5 1386.5,-112.5"/>
<text text-anchor="middle" x="1441" y="-119.5" font-family="Helvetica,sans-Serif" font-size="10.00" fill="#000000">Framework/Traits.h</text>
</a>
</g>
</g>
<!-- Node2&#45;&gt;Node11 -->
<g id="edge12" class="edge">
<title>Node2&#45;&gt;Node11</title>
<path fill="none" stroke="#191970" d="M1441,-168.2455C1441,-160.9382 1441,-150.6944 1441,-141.7046"/>
<polygon fill="#191970" stroke="#191970" points="1444.5001,-141.6426 1441,-131.6427 1437.5001,-141.6427 1444.5001,-141.6426"/>
</g>
<!-- Node13 -->
<g id="node14" class="node">
<title>Node13</title>
<g id="a_node14"><a xlink:href="../../d0/d91/Expressions_8h.html" target="_top" xlink:title="Framework/Expressions.h">
<polygon fill="none" stroke="#000000" points="951.5,-112.5 951.5,-131.5 1092.5,-131.5 1092.5,-112.5 951.5,-112.5"/>
<text text-anchor="middle" x="1022" y="-119.5" font-family="Helvetica,sans-Serif" font-size="10.00" fill="#000000">Framework/Expressions.h</text>
</a>
</g>
</g>
<!-- Node2&#45;&gt;Node13 -->
<g id="edge14" class="edge">
<title>Node2&#45;&gt;Node13</title>
<path fill="none" stroke="#191970" d="M1386.6526,-170.7364C1314.4143,-161.0816 1186.1839,-143.9434 1102.645,-132.7783"/>
<polygon fill="#191970" stroke="#191970" points="1103.0612,-129.3029 1092.6857,-131.4472 1102.1338,-136.2412 1103.0612,-129.3029"/>
</g>
<!-- Node19 -->
<g id="node20" class="node">
<title>Node19</title>
<polygon fill="none" stroke="#bfbfbf" points="1533.5,-56.5 1533.5,-75.5 1614.5,-75.5 1614.5,-56.5 1533.5,-56.5"/>
<text text-anchor="middle" x="1574" y="-63.5" font-family="Helvetica,sans-Serif" font-size="10.00" fill="#000000">arrow/table.h</text>
</g>
<!-- Node2&#45;&gt;Node19 -->
<g id="edge34" class="edge">
<title>Node2&#45;&gt;Node19</title>
<path fill="none" stroke="#191970" d="M1386.8927,-170.5453C1338.4811,-161.6534 1278.9956,-143.8296 1306,-112 1336.0281,-76.6065 1460.9286,-83.8367 1523.2125,-75.805"/>
<polygon fill="#191970" stroke="#191970" points="1524.0099,-79.2236 1533.3629,-74.2466 1522.9475,-72.3047 1524.0099,-79.2236"/>
</g>
<!-- Node20 -->
<g id="node21" class="node">
<title>Node20</title>
<polygon fill="none" stroke="#bfbfbf" points="1632.5,-56.5 1632.5,-75.5 1779.5,-75.5 1779.5,-56.5 1632.5,-56.5"/>
<text text-anchor="middle" x="1706" y="-63.5" font-family="Helvetica,sans-Serif" font-size="10.00" fill="#000000">gandiva/selection_vector.h</text>
</g>
<!-- Node2&#45;&gt;Node20 -->
<g id="edge38" class="edge">
<title>Node2&#45;&gt;Node20</title>
<path fill="none" stroke="#191970" d="M1404.5219,-168.4697C1368.5012,-157.3464 1321.7835,-137.2183 1344,-112 1345.1505,-110.694 1515.4882,-89.4823 1622.0651,-76.3245"/>
<polygon fill="#191970" stroke="#191970" points="1622.6761,-79.7758 1632.1721,-75.0773 1621.8187,-72.8285 1622.6761,-79.7758"/>
</g>
<!-- Node24 -->
<g id="node25" class="node">
<title>Node24</title>
<polygon fill="none" stroke="#bfbfbf" points="1797.5,-56.5 1797.5,-75.5 1876.5,-75.5 1876.5,-56.5 1797.5,-56.5"/>
<text text-anchor="middle" x="1837" y="-63.5" font-family="Helvetica,sans-Serif" font-size="10.00" fill="#000000">fmt/format.h</text>
</g>
<!-- Node2&#45;&gt;Node24 -->
<g id="edge40" class="edge">
<title>Node2&#45;&gt;Node24</title>
<path fill="none" stroke="#191970" d="M1419.7326,-168.3259C1394.5474,-155.6082 1358.2386,-132.4766 1377,-112 1406.4562,-79.8509 1710.677,-82.2559 1787.519,-75.5732"/>
<polygon fill="#191970" stroke="#191970" points="1787.9349,-79.0486 1797.4875,-74.4662 1787.1623,-72.0914 1787.9349,-79.0486"/>
</g>
<!-- Node28 -->
<g id="node29" class="node">
<title>Node28</title>
<g id="a_node29"><a xlink:href="../../d4/de7/ArrowTypes_8h.html" target="_top" xlink:title="Framework/ArrowTypes.h">
<polygon fill="none" stroke="#000000" points="756.5,-112.5 756.5,-131.5 895.5,-131.5 895.5,-112.5 756.5,-112.5"/>
<text text-anchor="middle" x="826" y="-119.5" font-family="Helvetica,sans-Serif" font-size="10.00" fill="#000000">Framework/ArrowTypes.h</text>
</a>
</g>
</g>
<!-- Node2&#45;&gt;Node28 -->
<g id="edge32" class="edge">
<title>Node2&#45;&gt;Node28</title>
<path fill="none" stroke="#191970" d="M1386.9619,-173.0795C1278.3749,-163.1919 1033.2355,-140.8702 906.0049,-129.285"/>
<polygon fill="#191970" stroke="#191970" points="906.2088,-125.7892 895.9326,-128.3678 905.574,-132.7603 906.2088,-125.7892"/>
</g>
<!-- Node29 -->
<g id="node30" class="node">
<title>Node29</title>
<polygon fill="none" stroke="#bfbfbf" points="1514,-112.5 1514,-131.5 1594,-131.5 1594,-112.5 1514,-112.5"/>
<text text-anchor="middle" x="1554" y="-119.5" font-family="Helvetica,sans-Serif" font-size="10.00" fill="#000000">arrow/array.h</text>
</g>
<!-- Node2&#45;&gt;Node29 -->
<g id="edge35" class="edge">
<title>Node2&#45;&gt;Node29</title>
<path fill="none" stroke="#191970" d="M1460.4254,-168.3733C1478.4021,-159.4644 1505.3441,-146.1127 1525.709,-136.0203"/>
<polygon fill="#191970" stroke="#191970" points="1527.4222,-139.0776 1534.8281,-131.5011 1524.3139,-132.8055 1527.4222,-139.0776"/>
</g>
<!-- Node30 -->
<g id="node31" class="node">
<title>Node30</title>
<polygon fill="none" stroke="#bfbfbf" points="1612,-112.5 1612,-131.5 1722,-131.5 1722,-112.5 1612,-112.5"/>
<text text-anchor="middle" x="1667" y="-119.5" font-family="Helvetica,sans-Serif" font-size="10.00" fill="#000000">arrow/util/variant.h</text>
</g>
<!-- Node2&#45;&gt;Node30 -->
<g id="edge36" class="edge">
<title>Node2&#45;&gt;Node30</title>
<path fill="none" stroke="#191970" d="M1479.594,-168.4369C1518.0284,-158.9133 1577.136,-144.2672 1618.671,-133.9753"/>
<polygon fill="#191970" stroke="#191970" points="1619.7006,-137.3261 1628.5652,-131.5237 1618.0169,-130.5316 1619.7006,-137.3261"/>
</g>
<!-- Node31 -->
<g id="node32" class="node">
<title>Node31</title>
<polygon fill="none" stroke="#bfbfbf" points="1740.5,-112.5 1740.5,-131.5 1873.5,-131.5 1873.5,-112.5 1740.5,-112.5"/>
<text text-anchor="middle" x="1807" y="-119.5" font-family="Helvetica,sans-Serif" font-size="10.00" fill="#000000">arrow/compute/kernel.h</text>
</g>
<!-- Node2&#45;&gt;Node31 -->
<g id="edge37" class="edge">
<title>Node2&#45;&gt;Node31</title>
<path fill="none" stroke="#191970" d="M1495.0046,-169.737C1558.4954,-160.0226 1664.1353,-143.8591 1734.6615,-133.0682"/>
<polygon fill="#191970" stroke="#191970" points="1735.4474,-136.4888 1744.803,-131.5165 1734.3886,-129.5693 1735.4474,-136.4888"/>
</g>
<!-- Node32 -->
<g id="node33" class="node">
<title>Node32</title>
<polygon fill="none" stroke="#bfbfbf" points="1892,-112.5 1892,-131.5 1944,-131.5 1944,-112.5 1892,-112.5"/>
<text text-anchor="middle" x="1918" y="-119.5" font-family="Helvetica,sans-Serif" font-size="10.00" fill="#000000">cassert</text>
</g>
<!-- Node2&#45;&gt;Node32 -->
<g id="edge39" class="edge">
<title>Node2&#45;&gt;Node32</title>
<path fill="none" stroke="#191970" d="M1495.0503,-175.2756C1578.6221,-170.41 1743.976,-158.1785 1882,-132 1882.0996,-131.9811 1882.1993,-131.9621 1882.2991,-131.9429"/>
<polygon fill="#191970" stroke="#191970" points="1882.7748,-135.4229 1891.7734,-129.8306 1881.2514,-128.5906 1882.7748,-135.4229"/>
</g>
<!-- Node4 -->
<g id="node5" class="node">
<title>Node4</title>
<polygon fill="none" stroke="#bfbfbf" points="2075.5,-.5 2075.5,-19.5 2128.5,-19.5 2128.5,-.5 2075.5,-.5"/>
<text text-anchor="middle" x="2102" y="-7.5" font-family="Helvetica,sans-Serif" font-size="10.00" fill="#000000">cstddef</text>
</g>
<!-- Node3&#45;&gt;Node4 -->
<g id="edge4" class="edge">
<title>Node3&#45;&gt;Node4</title>
<path fill="none" stroke="#191970" d="M2045.8447,-56.2455C2055.888,-47.9746 2070.4995,-35.9416 2082.3004,-26.2232"/>
<polygon fill="#191970" stroke="#191970" points="2084.7967,-28.7015 2090.291,-19.6427 2080.3467,-23.298 2084.7967,-28.7015"/>
</g>
<!-- Node5 -->
<g id="node6" class="node">
<title>Node5</title>
<polygon fill="none" stroke="#bfbfbf" points="1947.5,-.5 1947.5,-19.5 1992.5,-19.5 1992.5,-.5 1947.5,-.5"/>
<text text-anchor="middle" x="1970" y="-7.5" font-family="Helvetica,sans-Serif" font-size="10.00" fill="#000000">utility</text>
</g>
<!-- Node3&#45;&gt;Node5 -->
<g id="edge5" class="edge">
<title>Node3&#45;&gt;Node5</title>
<path fill="none" stroke="#191970" d="M2022.8521,-56.2455C2013.4913,-48.0549 1999.9142,-36.1749 1988.8651,-26.5069"/>
<polygon fill="#191970" stroke="#191970" points="1990.8508,-23.5937 1981.0202,-19.6427 1986.2412,-28.8618 1990.8508,-23.5937"/>
</g>
<!-- Node6 -->
<g id="node7" class="node">
<title>Node6</title>
<polygon fill="none" stroke="#bfbfbf" points="2011,-.5 2011,-19.5 2057,-19.5 2057,-.5 2011,-.5"/>
<text text-anchor="middle" x="2034" y="-7.5" font-family="Helvetica,sans-Serif" font-size="10.00" fill="#000000">cstdio</text>
</g>
<!-- Node3&#45;&gt;Node6 -->
<g id="edge6" class="edge">
<title>Node3&#45;&gt;Node6</title>
<path fill="none" stroke="#191970" d="M2034,-56.2455C2034,-48.9382 2034,-38.6944 2034,-29.7046"/>
<polygon fill="#191970" stroke="#191970" points="2037.5001,-29.6426 2034,-19.6427 2030.5001,-29.6427 2037.5001,-29.6426"/>
</g>
<!-- Node8&#45;&gt;Node3 -->
<g id="edge9" class="edge">
<title>Node8&#45;&gt;Node3</title>
<path fill="none" stroke="#191970" d="M2076.1165,-112.2455C2068.8034,-104.2155 2058.2609,-92.6394 2049.5533,-83.0781"/>
<polygon fill="#191970" stroke="#191970" points="2052.1028,-80.6795 2042.7817,-75.6427 2046.9273,-85.3928 2052.1028,-80.6795"/>
</g>
<!-- Node9 -->
<g id="node10" class="node">
<title>Node9</title>
<polygon fill="none" stroke="#bfbfbf" points="2104.5,-56.5 2104.5,-75.5 2169.5,-75.5 2169.5,-56.5 2104.5,-56.5"/>
<text text-anchor="middle" x="2137" y="-63.5" font-family="Helvetica,sans-Serif" font-size="10.00" fill="#000000">functional</text>
</g>
<!-- Node8&#45;&gt;Node9 -->
<g id="edge10" class="edge">
<title>Node8&#45;&gt;Node9</title>
<path fill="none" stroke="#191970" d="M2094.0577,-112.2455C2101.5142,-104.2155 2112.2634,-92.6394 2121.1417,-83.0781"/>
<polygon fill="#191970" stroke="#191970" points="2123.8063,-85.3522 2128.0461,-75.6427 2118.6768,-80.589 2123.8063,-85.3522"/>
</g>
<!-- Node12 -->
<g id="node13" class="node">
<title>Node12</title>
<polygon fill="none" stroke="#bfbfbf" points="1894.5,-56.5 1894.5,-75.5 1963.5,-75.5 1963.5,-56.5 1894.5,-56.5"/>
<text text-anchor="middle" x="1929" y="-63.5" font-family="Helvetica,sans-Serif" font-size="10.00" fill="#000000">type_traits</text>
</g>
<!-- Node11&#45;&gt;Node12 -->
<g id="edge13" class="edge">
<title>Node11&#45;&gt;Node12</title>
<path fill="none" stroke="#191970" d="M1495.782,-113.217C1498.898,-112.787 1501.9872,-112.3777 1505,-112 1670.1218,-91.2976 1715.7667,-102.4109 1884.5257,-75.8731"/>
<polygon fill="#191970" stroke="#191970" points="1885.1703,-79.3146 1894.4949,-74.2845 1884.0687,-72.4018 1885.1703,-79.3146"/>
</g>
<!-- Node13&#45;&gt;Node3 -->
<g id="edge17" class="edge">
<title>Node13&#45;&gt;Node3</title>
<path fill="none" stroke="#191970" d="M1092.6833,-119.6021C1279.245,-113.1122 1782.8702,-94.5094 1971.2162,-75.9371"/>
<polygon fill="#191970" stroke="#191970" points="1971.6939,-79.4066 1981.2881,-74.912 1970.9851,-72.4426 1971.6939,-79.4066"/>
</g>
<!-- Node13&#45;&gt;Node7 -->
<g id="edge18" class="edge">
<title>Node13&#45;&gt;Node7</title>
<path fill="none" stroke="#191970" d="M951.2075,-115.6223C935.6617,-114.3275 919.2812,-113.0441 904,-112 599.6075,-91.2013 519.9017,-103.1214 212.2844,-76.0532"/>
<polygon fill="#191970" stroke="#191970" points="212.4522,-72.5544 202.1821,-75.1575 211.8339,-79.5271 212.4522,-72.5544"/>
</g>
<!-- Node13&#45;&gt;Node10 -->
<g id="edge16" class="edge">
<title>Node13&#45;&gt;Node10</title>
<path fill="none" stroke="#191970" d="M951.192,-115.8346C935.6472,-114.5271 919.271,-113.1849 904,-112 680.3334,-94.6448 621.4685,-96.3827 394.5578,-76.1115"/>
<polygon fill="#191970" stroke="#191970" points="394.5984,-72.6011 384.3254,-75.1927 393.9723,-79.5731 394.5984,-72.6011"/>
</g>
<!-- Node14 -->
<g id="node15" class="node">
<title>Node14</title>
<g id="a_node15"><a xlink:href="../../dd/dc2/BasicOps_8h.html" target="_top" xlink:title="Framework/BasicOps.h">
<polygon fill="none" stroke="#000000" points="1014,-56.5 1014,-75.5 1142,-75.5 1142,-56.5 1014,-56.5"/>
<text text-anchor="middle" x="1078" y="-63.5" font-family="Helvetica,sans-Serif" font-size="10.00" fill="#000000">Framework/BasicOps.h</text>
</a>
</g>
</g>
<!-- Node13&#45;&gt;Node14 -->
<g id="edge15" class="edge">
<title>Node13&#45;&gt;Node14</title>
<path fill="none" stroke="#191970" d="M1031.7545,-112.2455C1039.8648,-104.1352 1051.5925,-92.4075 1061.2081,-82.7919"/>
<polygon fill="#191970" stroke="#191970" points="1063.7611,-85.1887 1068.3573,-75.6427 1058.8113,-80.2389 1063.7611,-85.1887"/>
</g>
<!-- Node15 -->
<g id="node16" class="node">
<title>Node15</title>
<polygon fill="none" stroke="#bfbfbf" points="402.5,-56.5 402.5,-75.5 503.5,-75.5 503.5,-56.5 402.5,-56.5"/>
<text text-anchor="middle" x="453" y="-63.5" font-family="Helvetica,sans-Serif" font-size="10.00" fill="#000000">arrow/type_fwd.h</text>
</g>
<!-- Node13&#45;&gt;Node15 -->
<g id="edge19" class="edge">
<title>Node13&#45;&gt;Node15</title>
<path fill="none" stroke="#191970" d="M951.4018,-115.9166C828.9034,-105.3195 584.0882,-83.9446 514.0437,-75.9695"/>
<polygon fill="#191970" stroke="#191970" points="514.0461,-72.4446 503.6995,-74.7246 513.2096,-79.3944 514.0461,-72.4446"/>
</g>
<!-- Node16 -->
<g id="node17" class="node">
<title>Node16</title>
<polygon fill="none" stroke="#bfbfbf" points="1160,-56.5 1160,-75.5 1306,-75.5 1306,-56.5 1160,-56.5"/>
<text text-anchor="middle" x="1233" y="-63.5" font-family="Helvetica,sans-Serif" font-size="10.00" fill="#000000">gandiva/gandiva_aliases.h</text>
</g>
<!-- Node13&#45;&gt;Node16 -->
<g id="edge20" class="edge">
<title>Node13&#45;&gt;Node16</title>
<path fill="none" stroke="#191970" d="M1058.2722,-112.3733C1093.9658,-102.9001 1148.5879,-88.4032 1187.2451,-78.1435"/>
<polygon fill="#191970" stroke="#191970" points="1188.4336,-81.4493 1197.2011,-75.5011 1186.6379,-74.6835 1188.4336,-81.4493"/>
</g>
<!-- Node17 -->
<g id="node18" class="node">
<title>Node17</title>
<polygon fill="none" stroke="#bfbfbf" points="1324,-56.5 1324,-75.5 1402,-75.5 1402,-56.5 1324,-56.5"/>
<text text-anchor="middle" x="1363" y="-63.5" font-family="Helvetica,sans-Serif" font-size="10.00" fill="#000000">arrow/type.h</text>
</g>
<!-- Node13&#45;&gt;Node17 -->
<g id="edge21" class="edge">
<title>Node13&#45;&gt;Node17</title>
<path fill="none" stroke="#191970" d="M1088.7801,-112.4806C1146.0054,-104.1024 1230.8629,-91.1568 1314.1191,-76.0932"/>
<polygon fill="#191970" stroke="#191970" points="1314.7878,-79.5291 1323.999,-74.2942 1313.5337,-72.6424 1314.7878,-79.5291"/>
</g>
<!-- Node18 -->
<g id="node19" class="node">
<title>Node18</title>
<polygon fill="none" stroke="#bfbfbf" points="1420.5,-56.5 1420.5,-75.5 1515.5,-75.5 1515.5,-56.5 1420.5,-56.5"/>
<text text-anchor="middle" x="1468" y="-63.5" font-family="Helvetica,sans-Serif" font-size="10.00" fill="#000000">gandiva/arrow.h</text>
</g>
<!-- Node13&#45;&gt;Node18 -->
<g id="edge22" class="edge">
<title>Node13&#45;&gt;Node18</title>
<path fill="none" stroke="#191970" d="M1092.7852,-114.8327C1168.6543,-106.8785 1292.8666,-93.0747 1410.2055,-76.045"/>
<polygon fill="#191970" stroke="#191970" points="1411.0579,-79.4576 1420.4464,-74.5478 1410.0452,-72.5313 1411.0579,-79.4576"/>
</g>
<!-- Node13&#45;&gt;Node19 -->
<g id="edge23" class="edge">
<title>Node13&#45;&gt;Node19</title>
<path fill="none" stroke="#191970" d="M1092.5295,-117.9034C1187.9257,-111.8354 1363.5331,-98.806 1523.3845,-75.9427"/>
<polygon fill="#191970" stroke="#191970" points="1524.0074,-79.3891 1533.4034,-74.4936 1523.0053,-72.4612 1524.0074,-79.3891"/>
</g>
<!-- Node13&#45;&gt;Node20 -->
<g id="edge24" class="edge">
<title>Node13&#45;&gt;Node20</title>
<path fill="none" stroke="#191970" d="M1092.8648,-117.5786C1203.484,-110.4548 1424.1573,-95.3542 1622.24,-76.0361"/>
<polygon fill="#191970" stroke="#191970" points="1622.6414,-79.5136 1632.252,-75.0541 1621.9581,-72.547 1622.6414,-79.5136"/>
</g>
<!-- Node21 -->
<g id="node22" class="node">
<title>Node21</title>
<polygon fill="none" stroke="#bfbfbf" points="522,-56.5 522,-75.5 614,-75.5 614,-56.5 522,-56.5"/>
<text text-anchor="middle" x="568" y="-63.5" font-family="Helvetica,sans-Serif" font-size="10.00" fill="#000000">gandiva/node.h</text>
</g>
<!-- Node13&#45;&gt;Node21 -->
<g id="edge25" class="edge">
<title>Node13&#45;&gt;Node21</title>
<path fill="none" stroke="#191970" d="M951.1842,-115.2412C873.4591,-107.5056 744.7731,-93.7677 624.3157,-76.1187"/>
<polygon fill="#191970" stroke="#191970" points="624.5816,-72.6201 614.1774,-74.621 623.5585,-79.5449 624.5816,-72.6201"/>
</g>
<!-- Node22 -->
<g id="node23" class="node">
<title>Node22</title>
<polygon fill="none" stroke="#bfbfbf" points="632.5,-56.5 632.5,-75.5 721.5,-75.5 721.5,-56.5 632.5,-56.5"/>
<text text-anchor="middle" x="677" y="-63.5" font-family="Helvetica,sans-Serif" font-size="10.00" fill="#000000">gandiva/filter.h</text>
</g>
<!-- Node13&#45;&gt;Node22 -->
<g id="edge26" class="edge">
<title>Node13&#45;&gt;Node22</title>
<path fill="none" stroke="#191970" d="M958.6271,-112.4741C901.8719,-103.8308 816.1011,-90.4935 731.78,-76.0996"/>
<polygon fill="#191970" stroke="#191970" points="732.2203,-72.6241 721.7729,-74.3851 731.0382,-79.5236 732.2203,-72.6241"/>
</g>
<!-- Node23 -->
<g id="node24" class="node">
<title>Node23</title>
<polygon fill="none" stroke="#bfbfbf" points="740,-56.5 740,-75.5 850,-75.5 850,-56.5 740,-56.5"/>
<text text-anchor="middle" x="795" y="-63.5" font-family="Helvetica,sans-Serif" font-size="10.00" fill="#000000">gandiva/projector.h</text>
</g>
<!-- Node13&#45;&gt;Node23 -->
<g id="edge27" class="edge">
<title>Node13&#45;&gt;Node23</title>
<path fill="none" stroke="#191970" d="M983.2352,-112.4369C944.6308,-102.9133 885.2616,-88.2672 843.5428,-77.9753"/>
<polygon fill="#191970" stroke="#191970" points="844.1521,-74.5208 833.6049,-75.5237 842.4755,-81.317 844.1521,-74.5208"/>
</g>
<!-- Node13&#45;&gt;Node24 -->
<g id="edge28" class="edge">
<title>Node13&#45;&gt;Node24</title>
<path fill="none" stroke="#191970" d="M1092.667,-119.037C1252.116,-112.1484 1636.9502,-94.3326 1787.2501,-75.8782"/>
<polygon fill="#191970" stroke="#191970" points="1787.7565,-79.3421 1797.2334,-74.6052 1786.871,-72.3983 1787.7565,-79.3421"/>
</g>
<!-- Node25 -->
<g id="node26" class="node">
<title>Node25</title>
<polygon fill="none" stroke="#bfbfbf" points="868.5,-56.5 868.5,-75.5 919.5,-75.5 919.5,-56.5 868.5,-56.5"/>
<text text-anchor="middle" x="894" y="-63.5" font-family="Helvetica,sans-Serif" font-size="10.00" fill="#000000">variant</text>
</g>
<!-- Node13&#45;&gt;Node25 -->
<g id="edge29" class="edge">
<title>Node13&#45;&gt;Node25</title>
<path fill="none" stroke="#191970" d="M999.996,-112.3733C979.3565,-103.3435 948.2842,-89.7494 925.1111,-79.6111"/>
<polygon fill="#191970" stroke="#191970" points="926.2813,-76.3028 915.7169,-75.5011 923.4755,-82.7159 926.2813,-76.3028"/>
</g>
<!-- Node26 -->
<g id="node27" class="node">
<title>Node26</title>
<polygon fill="none" stroke="#bfbfbf" points="0,-56.5 0,-75.5 44,-75.5 44,-56.5 0,-56.5"/>
<text text-anchor="middle" x="22" y="-63.5" font-family="Helvetica,sans-Serif" font-size="10.00" fill="#000000">string</text>
</g>
<!-- Node13&#45;&gt;Node26 -->
<g id="edge30" class="edge">
<title>Node13&#45;&gt;Node26</title>
<path fill="none" stroke="#191970" d="M951.2148,-115.5114C935.6686,-114.2232 919.2861,-112.9706 904,-112 529.5208,-88.2221 427.4245,-141.76 54.1617,-75.7274"/>
<polygon fill="#191970" stroke="#191970" points="54.6278,-72.2554 44.1682,-73.9426 53.397,-79.1463 54.6278,-72.2554"/>
</g>
<!-- Node27 -->
<g id="node28" class="node">
<title>Node27</title>
<polygon fill="none" stroke="#bfbfbf" points="938,-56.5 938,-75.5 996,-75.5 996,-56.5 938,-56.5"/>
<text text-anchor="middle" x="967" y="-63.5" font-family="Helvetica,sans-Serif" font-size="10.00" fill="#000000">memory</text>
</g>
<!-- Node13&#45;&gt;Node27 -->
<g id="edge31" class="edge">
<title>Node13&#45;&gt;Node27</title>
<path fill="none" stroke="#191970" d="M1012.4197,-112.2455C1004.4542,-104.1352 992.9359,-92.4075 983.4921,-82.7919"/>
<polygon fill="#191970" stroke="#191970" points="985.9747,-80.3247 976.4705,-75.6427 980.9805,-85.2297 985.9747,-80.3247"/>
</g>
<!-- Node28&#45;&gt;Node15 -->
<g id="edge33" class="edge">
<title>Node28&#45;&gt;Node15</title>
<path fill="none" stroke="#191970" d="M758.4757,-112.4587C697.2761,-103.7237 604.3272,-90.2404 513.6314,-76.0759"/>
<polygon fill="#191970" stroke="#191970" points="514.149,-72.6144 503.7279,-74.5251 513.066,-79.5301 514.149,-72.6144"/>
</g>
<!-- Node34 -->
<g id="node35" class="node">
<title>Node34</title>
<polygon fill="none" stroke="#bfbfbf" points="2438,-112.5 2438,-131.5 2480,-131.5 2480,-112.5 2438,-112.5"/>
<text text-anchor="middle" x="2459" y="-119.5" font-family="Helvetica,sans-Serif" font-size="10.00" fill="#000000">array</text>
</g>
<!-- Node33&#45;&gt;Node34 -->
<g id="edge42" class="edge">
<title>Node33&#45;&gt;Node34</title>
<path fill="none" stroke="#191970" d="M2478.8195,-168.2455C2475.619,-160.7776 2471.104,-150.2427 2467.1916,-141.1137"/>
<polygon fill="#191970" stroke="#191970" points="2470.2888,-139.4554 2463.1326,-131.6427 2463.8548,-142.2129 2470.2888,-139.4554"/>
</g>
<!-- Node33&#45;&gt;Node35 -->
<g id="edge43" class="edge">
<title>Node33&#45;&gt;Node35</title>
<path fill="none" stroke="#191970" d="M2484.8757,-168.4509C2488.4801,-150.1013 2496.4375,-109.5908 2501.1953,-85.3693"/>
<polygon fill="#191970" stroke="#191970" points="2504.6359,-86.012 2503.129,-75.5249 2497.7671,-84.6627 2504.6359,-86.012"/>
</g>
<!-- Node36 -->
<g id="node37" class="node">
<title>Node36</title>
<g id="a_node37"><a xlink:href="../../df/d21/GPUCommonDef_8h.html" target="_top" xlink:title="GPUCommonDef.h">
<polygon fill="none" stroke="#000000" points="2629.5,-56.5 2629.5,-75.5 2736.5,-75.5 2736.5,-56.5 2629.5,-56.5"/>
<text text-anchor="middle" x="2683" y="-63.5" font-family="Helvetica,sans-Serif" font-size="10.00" fill="#000000">GPUCommonDef.h</text>
</a>
</g>
</g>
<!-- Node33&#45;&gt;Node36 -->
<g id="edge44" class="edge">
<title>Node33&#45;&gt;Node36</title>
<path fill="none" stroke="#191970" d="M2532.417,-170.4875C2578.0591,-162.6257 2641.5016,-149.0566 2660,-132 2672.9379,-120.0705 2678.5984,-100.4749 2681.0747,-85.728"/>
<polygon fill="#191970" stroke="#191970" points="2684.5723,-85.9764 2682.4155,-75.6035 2677.6329,-85.0574 2684.5723,-85.9764"/>
</g>
<!-- Node39 -->
<g id="node40" class="node">
<title>Node39</title>
<g id="a_node40"><a xlink:href="../../d6/da2/GPUCommonMath_8h.html" target="_top" xlink:title="GPUCommonMath.h">
<polygon fill="none" stroke="#000000" points="2536.5,-112.5 2536.5,-131.5 2651.5,-131.5 2651.5,-112.5 2536.5,-112.5"/>
<text text-anchor="middle" x="2594" y="-119.5" font-family="Helvetica,sans-Serif" font-size="10.00" fill="#000000">GPUCommonMath.h</text>
</a>
</g>
</g>
<!-- Node33&#45;&gt;Node39 -->
<g id="edge47" class="edge">
<title>Node33&#45;&gt;Node39</title>
<path fill="none" stroke="#191970" d="M2502.0816,-168.3733C2519.7402,-159.4644 2546.2053,-146.1127 2566.2098,-136.0203"/>
<polygon fill="#191970" stroke="#191970" points="2567.8158,-139.1303 2575.1674,-131.5011 2564.6628,-132.8806 2567.8158,-139.1303"/>
</g>
<!-- Node41 -->
<g id="node42" class="node">
<title>Node41</title>
<g id="a_node42"><a xlink:href="../../d6/d84/MathConstants_8h.html" target="_top" xlink:title="useful math constants ">
<polygon fill="none" stroke="#000000" points="2226,-112.5 2226,-131.5 2420,-131.5 2420,-112.5 2226,-112.5"/>
<text text-anchor="middle" x="2323" y="-119.5" font-family="Helvetica,sans-Serif" font-size="10.00" fill="#000000">CommonConstants/MathConstants.h</text>
</a>
</g>
</g>
<!-- Node33&#45;&gt;Node41 -->
<g id="edge51" class="edge">
<title>Node33&#45;&gt;Node41</title>
<path fill="none" stroke="#191970" d="M2455.495,-168.3733C2429.1198,-159.1419 2389.1149,-145.1402 2359.9642,-134.9375"/>
<polygon fill="#191970" stroke="#191970" points="2360.7409,-131.5012 2350.1461,-131.5011 2358.4284,-138.1082 2360.7409,-131.5012"/>
</g>
<!-- Node37 -->
<g id="node38" class="node">
<title>Node37</title>
<g id="a_node38"><a xlink:href="../../d5/d93/GPUCommonDefSettings_8h.html" target="_top" xlink:title="GPUCommonDefSettings.h">
<polygon fill="none" stroke="#000000" points="2532,-.5 2532,-19.5 2680,-19.5 2680,-.5 2532,-.5"/>
<text text-anchor="middle" x="2606" y="-7.5" font-family="Helvetica,sans-Serif" font-size="10.00" fill="#000000">GPUCommonDefSettings.h</text>
</a>
</g>
</g>
<!-- Node36&#45;&gt;Node37 -->
<g id="edge45" class="edge">
<title>Node36&#45;&gt;Node37</title>
<path fill="none" stroke="#191970" d="M2669.5876,-56.2455C2657.9943,-47.814 2641.0252,-35.4729 2627.5322,-25.6598"/>
<polygon fill="#191970" stroke="#191970" points="2629.4047,-22.6938 2619.2587,-19.6427 2625.2874,-28.355 2629.4047,-22.6938"/>
</g>
<!-- Node38 -->
<g id="node39" class="node">
<title>Node38</title>
<g id="a_node39"><a xlink:href="../../da/d5a/GPUCommonDefAPI_8h.html" target="_top" xlink:title="GPUCommonDefAPI.h">
<polygon fill="none" stroke="#000000" points="2698,-.5 2698,-19.5 2822,-19.5 2822,-.5 2698,-.5"/>
<text text-anchor="middle" x="2760" y="-7.5" font-family="Helvetica,sans-Serif" font-size="10.00" fill="#000000">GPUCommonDefAPI.h</text>
</a>
</g>
</g>
<!-- Node36&#45;&gt;Node38 -->
<g id="edge46" class="edge">
<title>Node36&#45;&gt;Node38</title>
<path fill="none" stroke="#191970" d="M2696.4124,-56.2455C2708.0057,-47.814 2724.9748,-35.4729 2738.4678,-25.6598"/>
<polygon fill="#191970" stroke="#191970" points="2740.7126,-28.355 2746.7413,-19.6427 2736.5953,-22.6938 2740.7126,-28.355"/>
</g>
<!-- Node39&#45;&gt;Node35 -->
<g id="edge49" class="edge">
<title>Node39&#45;&gt;Node35</title>
<path fill="none" stroke="#191970" d="M2578.4974,-112.2455C2564.842,-103.6534 2544.7343,-91.0014 2529.0011,-81.1018"/>
<polygon fill="#191970" stroke="#191970" points="2530.6529,-78.006 2520.325,-75.6427 2526.9249,-83.9307 2530.6529,-78.006"/>
</g>
<!-- Node39&#45;&gt;Node36 -->
<g id="edge48" class="edge">
<title>Node39&#45;&gt;Node36</title>
<path fill="none" stroke="#191970" d="M2609.5026,-112.2455C2623.158,-103.6534 2643.2657,-91.0014 2658.9989,-81.1018"/>
<polygon fill="#191970" stroke="#191970" points="2661.0751,-83.9307 2667.675,-75.6427 2657.3471,-78.006 2661.0751,-83.9307"/>
</g>
<!-- Node40 -->
<g id="node41" class="node">
<title>Node40</title>
<polygon fill="none" stroke="#bfbfbf" points="2547,-56.5 2547,-75.5 2611,-75.5 2611,-56.5 2547,-56.5"/>
<text text-anchor="middle" x="2579" y="-63.5" font-family="Helvetica,sans-Serif" font-size="10.00" fill="#000000">algorithm</text>
</g>
<!-- Node39&#45;&gt;Node40 -->
<g id="edge50" class="edge">
<title>Node39&#45;&gt;Node40</title>
<path fill="none" stroke="#191970" d="M2591.3872,-112.2455C2589.4084,-104.8579 2586.6256,-94.4689 2584.1988,-85.4087"/>
<polygon fill="#191970" stroke="#191970" points="2587.5511,-84.3966 2581.5829,-75.6427 2580.7895,-86.2078 2587.5511,-84.3966"/>
</g>
<!-- Node43 -->
<g id="node44" class="node">
<title>Node43</title>
<polygon fill="none" stroke="#bfbfbf" points="2708,-112.5 2708,-131.5 2758,-131.5 2758,-112.5 2708,-112.5"/>
<text text-anchor="middle" x="2733" y="-119.5" font-family="Helvetica,sans-Serif" font-size="10.00" fill="#000000">cstdint</text>
</g>
<!-- Node42&#45;&gt;Node43 -->
<g id="edge54" class="edge">
<title>Node42&#45;&gt;Node43</title>
<path fill="none" stroke="#191970" d="M2695.0126,-168.2455C2701.4768,-160.3761 2710.7385,-149.101 2718.4983,-139.6542"/>
<polygon fill="#191970" stroke="#191970" points="2721.4364,-141.5916 2725.0792,-131.6427 2716.0273,-137.1484 2721.4364,-141.5916"/>
</g>
<!-- Node44&#45;&gt;Node26 -->
<g id="edge57" class="edge">
<title>Node44&#45;&gt;Node26</title>
<path fill="none" stroke="#191970" d="M155.0152,-224.4862C132.244,-197.3545 66.7169,-119.2798 36.9876,-83.8576"/>
<polygon fill="#191970" stroke="#191970" points="39.3581,-81.2376 30.2484,-75.8279 33.9962,-85.7377 39.3581,-81.2376"/>
</g>
<!-- Node45 -->
<g id="node46" class="node">
<title>Node45</title>
<polygon fill="none" stroke="#bfbfbf" points="144,-168.5 144,-187.5 182,-187.5 182,-168.5 144,-168.5"/>
<text text-anchor="middle" x="163" y="-175.5" font-family="Helvetica,sans-Serif" font-size="10.00" fill="#000000">map</text>
</g>
<!-- Node44&#45;&gt;Node45 -->
<g id="edge56" class="edge">
<title>Node44&#45;&gt;Node45</title>
<path fill="none" stroke="#191970" d="M163,-224.2455C163,-216.9382 163,-206.6944 163,-197.7046"/>
<polygon fill="#191970" stroke="#191970" points="166.5001,-197.6426 163,-187.6427 159.5001,-197.6427 166.5001,-197.6426"/>
</g>
<!-- Node46 -->
<g id="node47" class="node">
<title>Node46</title>
<polygon fill="none" stroke="#bfbfbf" points="200.5,-168.5 200.5,-187.5 247.5,-187.5 247.5,-168.5 200.5,-168.5"/>
<text text-anchor="middle" x="224" y="-175.5" font-family="Helvetica,sans-Serif" font-size="10.00" fill="#000000">vector</text>
</g>
<!-- Node44&#45;&gt;Node46 -->
<g id="edge58" class="edge">
<title>Node44&#45;&gt;Node46</title>
<path fill="none" stroke="#191970" d="M173.6254,-224.2455C182.5473,-216.0549 195.488,-204.1749 206.0192,-194.5069"/>
<polygon fill="#191970" stroke="#191970" points="208.4968,-196.9837 213.4964,-187.6427 203.7629,-191.8271 208.4968,-196.9837"/>
</g>
<!-- Node47 -->
<g id="node48" class="node">
<title>Node47</title>
<polygon fill="none" stroke="#bfbfbf" points="28.5,-168.5 28.5,-187.5 87.5,-187.5 87.5,-168.5 28.5,-168.5"/>
<text text-anchor="middle" x="58" y="-175.5" font-family="Helvetica,sans-Serif" font-size="10.00" fill="#000000">Rtypes.h</text>
</g>
<!-- Node44&#45;&gt;Node47 -->
<g id="edge59" class="edge">
<title>Node44&#45;&gt;Node47</title>
<path fill="none" stroke="#191970" d="M144.7104,-224.2455C128.2238,-215.4527 103.7648,-202.4079 85.0235,-192.4125"/>
<polygon fill="#191970" stroke="#191970" points="86.5506,-189.2604 76.08,-187.6427 83.2565,-195.4368 86.5506,-189.2604"/>
</g>
</g>
</svg>
        <g id="navigator" transform="translate(0 0)" fill="#404254">
                <rect fill="#f2f5e9" fill-opacity="0.5" stroke="#606060" stroke-width=".5" x="0" y="0" width="60" height="60"/>
                <use id="zoomplus" xlink:href="#zoomPlus" x="17" y="9" onmousedown="handleZoom(evt,'in')"/>
                <use id="zoomminus" xlink:href="#zoomMin" x="42" y="9" onmousedown="handleZoom(evt,'out')"/>
                <use id="reset" xlink:href="#resetDef" x="30" y="36" onmousedown="handleReset()"/>
                <g id="arrowUp" xlink:href="#dirArrow" transform="translate(30 24)" onmousedown="handlePan(0,-1)">
                  <use xlink:href="#rim" fill="#404040">
                        <set attributeName="fill" to="#808080" begin="arrowUp.mouseover" end="arrowUp.mouseout"/>
                  </use>
                  <path fill="none" stroke="white" stroke-width="1.5" d="M0,-3.0v7 M-2.5,-0.5L0,-3.0L2.5,-0.5"/>
                </g>
                <g id="arrowRight" xlink:href="#dirArrow" transform="rotate(90) translate(36 -43)" onmousedown="handlePan(1,0)">
                  <use xlink:href="#rim" fill="#404040">
                        <set attributeName="fill" to="#808080" begin="arrowRight.mouseover" end="arrowRight.mouseout"/>
                  </use>
                  <path fill="none" stroke="white" stroke-width="1.5" d="M0,-3.0v7 M-2.5,-0.5L0,-3.0L2.5,-0.5"/>
                </g>
                <g id="arrowDown" xlink:href="#dirArrow" transform="rotate(180) translate(-30 -48)" onmousedown="handlePan(0,1)">
                  <use xlink:href="#rim" fill="#404040">
                        <set attributeName="fill" to="#808080" begin="arrowDown.mouseover" end="arrowDown.mouseout"/>
                  </use>
                  <path fill="none" stroke="white" stroke-width="1.5" d="M0,-3.0v7 M-2.5,-0.5L0,-3.0L2.5,-0.5"/>
                </g>
                <g id="arrowLeft" xlink:href="#dirArrow" transform="rotate(270) translate(-36 17)" onmousedown="handlePan(-1,0)">
                  <use xlink:href="#rim" fill="#404040">
                        <set attributeName="fill" to="#808080" begin="arrowLeft.mouseover" end="arrowLeft.mouseout"/>
                  </use>
                  <path fill="none" stroke="white" stroke-width="1.5" d="M0,-3.0v7 M-2.5,-0.5L0,-3.0L2.5,-0.5"/>
                </g>
        </g>
        <svg viewBox="0 0 15 15" width="100%" height="30px" preserveAspectRatio="xMaxYMin meet">
         <g id="arrow_out" transform="scale(0.3 0.3)">
          <a xlink:href="EventSelection_8h__incl_org.svg" target="_base">
           <rect id="button" ry="5" rx="5" y="6" x="6" height="38" width="38"
                fill="#f2f5e9" fill-opacity="0.5" stroke="#606060" stroke-width="1.0"/>
           <path id="arrow"
             d="M 11.500037,31.436501 C 11.940474,20.09759 22.043105,11.32322 32.158766,21.979434 L 37.068811,17.246167 C 37.068811,17.246167 37.088388,32 37.088388,32 L 22.160133,31.978069 C 22.160133,31.978069 26.997745,27.140456 26.997745,27.140456 C 18.528582,18.264221 13.291696,25.230495 11.500037,31.436501 z"
             style="fill:#404040;"/>
          </a>
         </g>
        </svg>
</svg>
