<?xml version="1.0" encoding="UTF-8" standalone="no"?>
<!DOCTYPE svg PUBLIC "-//W3C//DTD SVG 1.1//EN"
 "http://www.w3.org/Graphics/SVG/1.1/DTD/svg11.dtd">
<!-- Generated by graphviz version 2.40.1 (20161225.0304)
 -->
<!-- Title: /home/travis/build/AliceO2Group/AliceO2/DataFormats/Detectors/TOF/include/DataFormatsTOF/CTF.h Pages: 1 -->
<svg width="1176pt" height="350pt"
 viewBox="0.00 0.00 1176.00 350.00" xmlns="http://www.w3.org/2000/svg" xmlns:xlink="http://www.w3.org/1999/xlink">
<g id="graph0" class="graph" transform="scale(1 1) rotate(0) translate(4 346)">
<title>/home/travis/build/AliceO2Group/AliceO2/DataFormats/Detectors/TOF/include/DataFormatsTOF/CTF.h</title>
<!-- Node41 -->
<g id="node1" class="node">
<title>Node41</title>
<polygon fill="#bfbfbf" stroke="#000000" points="199.5,-289.5 199.5,-341.5 389.5,-341.5 389.5,-289.5 199.5,-289.5"/>
<text text-anchor="start" x="207.5" y="-329.5" font-family="Helvetica,sans-Serif" font-size="10.00" fill="#000000">/home/travis/build</text>
<text text-anchor="start" x="207.5" y="-318.5" font-family="Helvetica,sans-Serif" font-size="10.00" fill="#000000">/AliceO2Group/AliceO2</text>
<text text-anchor="start" x="207.5" y="-307.5" font-family="Helvetica,sans-Serif" font-size="10.00" fill="#000000">/DataFormats/Detectors</text>
<text text-anchor="middle" x="294.5" y="-296.5" font-family="Helvetica,sans-Serif" font-size="10.00" fill="#000000">/TOF/include/DataFormatsTOF/CTF.h</text>
</g>
<!-- Node42 -->
<g id="node2" class="node">
<title>Node42</title>
<g id="a_node2"><a xlink:href="../../d8/d12/TOF_2src_2CTF_8cxx.html" target="_top" xlink:title="/home/travis/build\l/AliceO2Group/AliceO2\l/DataFormats/Detectors\l/TOF/src/CTF.cxx">
<polygon fill="none" stroke="#000000" points="0,-195 0,-247 133,-247 133,-195 0,-195"/>
<text text-anchor="start" x="8" y="-235" font-family="Helvetica,sans-Serif" font-size="10.00" fill="#000000">/home/travis/build</text>
<text text-anchor="start" x="8" y="-224" font-family="Helvetica,sans-Serif" font-size="10.00" fill="#000000">/AliceO2Group/AliceO2</text>
<text text-anchor="start" x="8" y="-213" font-family="Helvetica,sans-Serif" font-size="10.00" fill="#000000">/DataFormats/Detectors</text>
<text text-anchor="middle" x="66.5" y="-202" font-family="Helvetica,sans-Serif" font-size="10.00" fill="#000000">/TOF/src/CTF.cxx</text>
</a>
</g>
</g>
<!-- Node41&#45;&gt;Node42 -->
<g id="edge1" class="edge">
<title>Node41&#45;&gt;Node42</title>
<path fill="none" stroke="#191970" d="M220.5494,-285.5605C195.4255,-275.3174 167.2088,-263.7348 141.5,-253 136.9278,-251.0909 132.2039,-249.1056 127.4553,-247.1008"/>
<polygon fill="#191970" stroke="#191970" points="219.4337,-288.8852 230.0152,-289.4161 222.0743,-282.4024 219.4337,-288.8852"/>
</g>
<!-- Node43 -->
<g id="node3" class="node">
<title>Node43</title>
<g id="a_node3"><a xlink:href="../../d8/d12/CTFReaderSpec_8cxx.html" target="_top" xlink:title="/home/travis/build\l/AliceO2Group/AliceO2\l/Detectors/CTF/workflow\l/src/CTFReaderSpec.cxx">
<polygon fill="none" stroke="#000000" points="151,-195 151,-247 286,-247 286,-195 151,-195"/>
<text text-anchor="start" x="159" y="-235" font-family="Helvetica,sans-Serif" font-size="10.00" fill="#000000">/home/travis/build</text>
<text text-anchor="start" x="159" y="-224" font-family="Helvetica,sans-Serif" font-size="10.00" fill="#000000">/AliceO2Group/AliceO2</text>
<text text-anchor="start" x="159" y="-213" font-family="Helvetica,sans-Serif" font-size="10.00" fill="#000000">/Detectors/CTF/workflow</text>
<text text-anchor="middle" x="218.5" y="-202" font-family="Helvetica,sans-Serif" font-size="10.00" fill="#000000">/src/CTFReaderSpec.cxx</text>
</a>
</g>
</g>
<!-- Node41&#45;&gt;Node43 -->
<g id="edge2" class="edge">
<title>Node41&#45;&gt;Node43</title>
<path fill="none" stroke="#191970" d="M267.1331,-281.4714C258.089,-270.2258 248.171,-257.8935 239.6639,-247.3157"/>
<polygon fill="#191970" stroke="#191970" points="264.537,-283.8282 273.5315,-289.4273 269.9918,-279.4412 264.537,-283.8282"/>
</g>
<!-- Node44 -->
<g id="node4" class="node">
<title>Node44</title>
<g id="a_node4"><a xlink:href="../../d4/dd7/CTFWriterSpec_8cxx.html" target="_top" xlink:title="/home/travis/build\l/AliceO2Group/AliceO2\l/Detectors/CTF/workflow\l/src/CTFWriterSpec.cxx">
<polygon fill="none" stroke="#000000" points="304,-195 304,-247 439,-247 439,-195 304,-195"/>
<text text-anchor="start" x="312" y="-235" font-family="Helvetica,sans-Serif" font-size="10.00" fill="#000000">/home/travis/build</text>
<text text-anchor="start" x="312" y="-224" font-family="Helvetica,sans-Serif" font-size="10.00" fill="#000000">/AliceO2Group/AliceO2</text>
<text text-anchor="start" x="312" y="-213" font-family="Helvetica,sans-Serif" font-size="10.00" fill="#000000">/Detectors/CTF/workflow</text>
<text text-anchor="middle" x="371.5" y="-202" font-family="Helvetica,sans-Serif" font-size="10.00" fill="#000000">/src/CTFWriterSpec.cxx</text>
</a>
</g>
</g>
<!-- Node41&#45;&gt;Node44 -->
<g id="edge3" class="edge">
<title>Node41&#45;&gt;Node44</title>
<path fill="none" stroke="#191970" d="M322.227,-281.4714C331.3901,-270.2258 341.4386,-257.8935 350.0576,-247.3157"/>
<polygon fill="#191970" stroke="#191970" points="319.3479,-279.4641 315.7444,-289.4273 324.7745,-283.8858 319.3479,-279.4641"/>
</g>
<!-- Node45 -->
<g id="node5" class="node">
<title>Node45</title>
<g id="a_node5"><a xlink:href="../../db/dd1/TOF_2reconstruction_2include_2TOFReconstruction_2CTFCoder_8h.html" target="_top" xlink:title="/home/travis/build\l/AliceO2Group/AliceO2\l/Detectors/TOF/reconstruction\l/include/TOFReconstruction\l/CTFCoder.h">
<polygon fill="none" stroke="#000000" points="457,-189.5 457,-252.5 618,-252.5 618,-189.5 457,-189.5"/>
<text text-anchor="start" x="465" y="-240.5" font-family="Helvetica,sans-Serif" font-size="10.00" fill="#000000">/home/travis/build</text>
<text text-anchor="start" x="465" y="-229.5" font-family="Helvetica,sans-Serif" font-size="10.00" fill="#000000">/AliceO2Group/AliceO2</text>
<text text-anchor="start" x="465" y="-218.5" font-family="Helvetica,sans-Serif" font-size="10.00" fill="#000000">/Detectors/TOF/reconstruction</text>
<text text-anchor="start" x="465" y="-207.5" font-family="Helvetica,sans-Serif" font-size="10.00" fill="#000000">/include/TOFReconstruction</text>
<text text-anchor="middle" x="537.5" y="-196.5" font-family="Helvetica,sans-Serif" font-size="10.00" fill="#000000">/CTFCoder.h</text>
</a>
</g>
</g>
<!-- Node41&#45;&gt;Node45 -->
<g id="edge4" class="edge">
<title>Node41&#45;&gt;Node45</title>
<path fill="none" stroke="#191970" d="M371.0476,-285.7315C398.3629,-275.1089 429.2069,-263.114 456.8561,-252.3615"/>
<polygon fill="#191970" stroke="#191970" points="369.5955,-282.5408 361.5441,-289.4273 372.1327,-289.0648 369.5955,-282.5408"/>
</g>
<!-- Node46 -->
<g id="node6" class="node">
<title>Node46</title>
<g id="a_node6"><a xlink:href="../../d7/de7/TOF_2reconstruction_2src_2CTFCoder_8cxx.html" target="_top" xlink:title="/home/travis/build\l/AliceO2Group/AliceO2\l/Detectors/TOF/reconstruction\l/src/CTFCoder.cxx">
<polygon fill="none" stroke="#000000" points="257,-95 257,-147 418,-147 418,-95 257,-95"/>
<text text-anchor="start" x="265" y="-135" font-family="Helvetica,sans-Serif" font-size="10.00" fill="#000000">/home/travis/build</text>
<text text-anchor="start" x="265" y="-124" font-family="Helvetica,sans-Serif" font-size="10.00" fill="#000000">/AliceO2Group/AliceO2</text>
<text text-anchor="start" x="265" y="-113" font-family="Helvetica,sans-Serif" font-size="10.00" fill="#000000">/Detectors/TOF/reconstruction</text>
<text text-anchor="middle" x="337.5" y="-102" font-family="Helvetica,sans-Serif" font-size="10.00" fill="#000000">/src/CTFCoder.cxx</text>
</a>
</g>
</g>
<!-- Node45&#45;&gt;Node46 -->
<g id="edge5" class="edge">
<title>Node45&#45;&gt;Node46</title>
<path fill="none" stroke="#191970" d="M465.4113,-184.9557C440.4147,-172.4573 412.8887,-158.6944 389.7956,-147.1478"/>
<polygon fill="#191970" stroke="#191970" points="463.9837,-188.1549 474.4933,-189.4966 467.1142,-181.8939 463.9837,-188.1549"/>
</g>
<!-- Node47 -->
<g id="node7" class="node">
<title>Node47</title>
<g id="a_node7"><a xlink:href="../../d2/d19/TOF_2workflow_2include_2TOFWorkflow_2EntropyDecoderSpec_8h.html" target="_top" xlink:title="/home/travis/build\l/AliceO2Group/AliceO2\l/Detectors/TOF/workflow\l/include/TOFWorkflow/EntropyDecoder\lSpec.h">
<polygon fill="none" stroke="#000000" points="436,-89.5 436,-152.5 639,-152.5 639,-89.5 436,-89.5"/>
<text text-anchor="start" x="444" y="-140.5" font-family="Helvetica,sans-Serif" font-size="10.00" fill="#000000">/home/travis/build</text>
<text text-anchor="start" x="444" y="-129.5" font-family="Helvetica,sans-Serif" font-size="10.00" fill="#000000">/AliceO2Group/AliceO2</text>
<text text-anchor="start" x="444" y="-118.5" font-family="Helvetica,sans-Serif" font-size="10.00" fill="#000000">/Detectors/TOF/workflow</text>
<text text-anchor="start" x="444" y="-107.5" font-family="Helvetica,sans-Serif" font-size="10.00" fill="#000000">/include/TOFWorkflow/EntropyDecoder</text>
<text text-anchor="middle" x="537.5" y="-96.5" font-family="Helvetica,sans-Serif" font-size="10.00" fill="#000000">Spec.h</text>
</a>
</g>
</g>
<!-- Node45&#45;&gt;Node47 -->
<g id="edge6" class="edge">
<title>Node45&#45;&gt;Node47</title>
<path fill="none" stroke="#191970" d="M537.5,-179.2111C537.5,-170.37 537.5,-161.1767 537.5,-152.778"/>
<polygon fill="#191970" stroke="#191970" points="534.0001,-179.3593 537.5,-189.3594 541.0001,-179.3594 534.0001,-179.3593"/>
</g>
<!-- Node51 -->
<g id="node11" class="node">
<title>Node51</title>
<g id="a_node11"><a xlink:href="../../db/d30/TOF_2workflow_2include_2TOFWorkflow_2EntropyEncoderSpec_8h.html" target="_top" xlink:title="/home/travis/build\l/AliceO2Group/AliceO2\l/Detectors/TOF/workflow\l/include/TOFWorkflow/EntropyEncoder\lSpec.h">
<polygon fill="none" stroke="#000000" points="752,-89.5 752,-152.5 953,-152.5 953,-89.5 752,-89.5"/>
<text text-anchor="start" x="760" y="-140.5" font-family="Helvetica,sans-Serif" font-size="10.00" fill="#000000">/home/travis/build</text>
<text text-anchor="start" x="760" y="-129.5" font-family="Helvetica,sans-Serif" font-size="10.00" fill="#000000">/AliceO2Group/AliceO2</text>
<text text-anchor="start" x="760" y="-118.5" font-family="Helvetica,sans-Serif" font-size="10.00" fill="#000000">/Detectors/TOF/workflow</text>
<text text-anchor="start" x="760" y="-107.5" font-family="Helvetica,sans-Serif" font-size="10.00" fill="#000000">/include/TOFWorkflow/EntropyEncoder</text>
<text text-anchor="middle" x="852.5" y="-96.5" font-family="Helvetica,sans-Serif" font-size="10.00" fill="#000000">Spec.h</text>
</a>
</g>
</g>
<!-- Node45&#45;&gt;Node51 -->
<g id="edge10" class="edge">
<title>Node45&#45;&gt;Node51</title>
<path fill="none" stroke="#191970" d="M628.0068,-192.2677C667.1409,-179.8441 713.0571,-165.2676 753.1323,-152.5453"/>
<polygon fill="#191970" stroke="#191970" points="626.6835,-189.0156 618.2113,-195.3774 628.8016,-195.6874 626.6835,-189.0156"/>
</g>
<!-- Node48 -->
<g id="node8" class="node">
<title>Node48</title>
<g id="a_node8"><a xlink:href="../../dc/d55/ctf-reader-workflow_8cxx.html" target="_top" xlink:title="/home/travis/build\l/AliceO2Group/AliceO2\l/Detectors/CTF/workflow\l/src/ctf&#45;reader&#45;workflow.cxx">
<polygon fill="none" stroke="#000000" points="242,-.5 242,-52.5 393,-52.5 393,-.5 242,-.5"/>
<text text-anchor="start" x="250" y="-40.5" font-family="Helvetica,sans-Serif" font-size="10.00" fill="#000000">/home/travis/build</text>
<text text-anchor="start" x="250" y="-29.5" font-family="Helvetica,sans-Serif" font-size="10.00" fill="#000000">/AliceO2Group/AliceO2</text>
<text text-anchor="start" x="250" y="-18.5" font-family="Helvetica,sans-Serif" font-size="10.00" fill="#000000">/Detectors/CTF/workflow</text>
<text text-anchor="middle" x="317.5" y="-7.5" font-family="Helvetica,sans-Serif" font-size="10.00" fill="#000000">/src/ctf&#45;reader&#45;workflow.cxx</text>
</a>
</g>
</g>
<!-- Node47&#45;&gt;Node48 -->
<g id="edge7" class="edge">
<title>Node47&#45;&gt;Node48</title>
<path fill="none" stroke="#191970" d="M454.682,-85.4259C429.2773,-74.5134 401.8089,-62.7145 378.1727,-52.5617"/>
<polygon fill="#191970" stroke="#191970" points="453.3677,-88.6705 463.9373,-89.4015 456.1305,-82.2388 453.3677,-88.6705"/>
</g>
<!-- Node49 -->
<g id="node9" class="node">
<title>Node49</title>
<g id="a_node9"><a xlink:href="../../da/dfd/tof-reco-workflow_8cxx.html" target="_top" xlink:title="Basic DPL workflow for TOF reconstruction starting from digits. ">
<polygon fill="none" stroke="#000000" points="587,-.5 587,-52.5 790,-52.5 790,-.5 587,-.5"/>
<text text-anchor="start" x="595" y="-40.5" font-family="Helvetica,sans-Serif" font-size="10.00" fill="#000000">/home/travis/build</text>
<text text-anchor="start" x="595" y="-29.5" font-family="Helvetica,sans-Serif" font-size="10.00" fill="#000000">/AliceO2Group/AliceO2</text>
<text text-anchor="start" x="595" y="-18.5" font-family="Helvetica,sans-Serif" font-size="10.00" fill="#000000">/Detectors/GlobalTrackingWorkflow</text>
<text text-anchor="middle" x="688.5" y="-7.5" font-family="Helvetica,sans-Serif" font-size="10.00" fill="#000000">/tofworkflow/src/tof&#45;reco&#45;workflow.cxx</text>
</a>
</g>
</g>
<!-- Node47&#45;&gt;Node49 -->
<g id="edge8" class="edge">
<title>Node47&#45;&gt;Node49</title>
<path fill="none" stroke="#191970" d="M596.8087,-83.883C613.4975,-73.4387 631.2939,-62.3012 646.7247,-52.6442"/>
<polygon fill="#191970" stroke="#191970" points="594.8209,-80.998 588.2009,-89.27 598.5345,-86.9318 594.8209,-80.998"/>
</g>
<!-- Node50 -->
<g id="node10" class="node">
<title>Node50</title>
<g id="a_node10"><a xlink:href="../../d8/dc2/TOF_2workflow_2src_2EntropyDecoderSpec_8cxx.html" target="_top" xlink:title="/home/travis/build\l/AliceO2Group/AliceO2\l/Detectors/TOF/workflow\l/src/EntropyDecoderSpec.cxx">
<polygon fill="none" stroke="#000000" points="411.5,-.5 411.5,-52.5 569.5,-52.5 569.5,-.5 411.5,-.5"/>
<text text-anchor="start" x="419.5" y="-40.5" font-family="Helvetica,sans-Serif" font-size="10.00" fill="#000000">/home/travis/build</text>
<text text-anchor="start" x="419.5" y="-29.5" font-family="Helvetica,sans-Serif" font-size="10.00" fill="#000000">/AliceO2Group/AliceO2</text>
<text text-anchor="start" x="419.5" y="-18.5" font-family="Helvetica,sans-Serif" font-size="10.00" fill="#000000">/Detectors/TOF/workflow</text>
<text text-anchor="middle" x="490.5" y="-7.5" font-family="Helvetica,sans-Serif" font-size="10.00" fill="#000000">/src/EntropyDecoderSpec.cxx</text>
</a>
</g>
</g>
<!-- Node47&#45;&gt;Node50 -->
<g id="edge9" class="edge">
<title>Node47&#45;&gt;Node50</title>
<path fill="none" stroke="#191970" d="M517.1682,-80.1201C512.5343,-70.8031 507.733,-61.1494 503.5029,-52.6442"/>
<polygon fill="#191970" stroke="#191970" points="514.1319,-81.8749 521.7189,-89.27 520.3995,-78.7576 514.1319,-81.8749"/>
</g>
<!-- Node51&#45;&gt;Node49 -->
<g id="edge11" class="edge">
<title>Node51&#45;&gt;Node49</title>
<path fill="none" stroke="#191970" d="M788.5838,-84.1703C770.3145,-73.6431 750.7849,-62.3898 733.8719,-52.6442"/>
<polygon fill="#191970" stroke="#191970" points="787.0222,-87.3099 797.4341,-89.27 790.5171,-81.2447 787.0222,-87.3099"/>
</g>
<!-- Node52 -->
<g id="node12" class="node">
<title>Node52</title>
<g id="a_node12"><a xlink:href="../../d5/db8/TOF_2workflow_2src_2entropy-encoder-workflow_8cxx.html" target="_top" xlink:title="/home/travis/build\l/AliceO2Group/AliceO2\l/Detectors/TOF/workflow\l/src/entropy&#45;encoder&#45;workflow.cxx">
<polygon fill="none" stroke="#000000" points="808.5,-.5 808.5,-52.5 992.5,-52.5 992.5,-.5 808.5,-.5"/>
<text text-anchor="start" x="816.5" y="-40.5" font-family="Helvetica,sans-Serif" font-size="10.00" fill="#000000">/home/travis/build</text>
<text text-anchor="start" x="816.5" y="-29.5" font-family="Helvetica,sans-Serif" font-size="10.00" fill="#000000">/AliceO2Group/AliceO2</text>
<text text-anchor="start" x="816.5" y="-18.5" font-family="Helvetica,sans-Serif" font-size="10.00" fill="#000000">/Detectors/TOF/workflow</text>
<text text-anchor="middle" x="900.5" y="-7.5" font-family="Helvetica,sans-Serif" font-size="10.00" fill="#000000">/src/entropy&#45;encoder&#45;workflow.cxx</text>
</a>
</g>
</g>
<!-- Node51&#45;&gt;Node52 -->
<g id="edge12" class="edge">
<title>Node51&#45;&gt;Node52</title>
<path fill="none" stroke="#191970" d="M873.2644,-80.1201C877.9969,-70.8031 882.9003,-61.1494 887.2204,-52.6442"/>
<polygon fill="#191970" stroke="#191970" points="870.025,-78.7691 868.6168,-89.27 876.2661,-81.9392 870.025,-78.7691"/>
</g>
<!-- Node53 -->
<g id="node13" class="node">
<title>Node53</title>
<g id="a_node13"><a xlink:href="../../df/d4e/TOF_2workflow_2src_2EntropyEncoderSpec_8cxx.html" target="_top" xlink:title="/home/travis/build\l/AliceO2Group/AliceO2\l/Detectors/TOF/workflow\l/src/EntropyEncoderSpec.cxx">
<polygon fill="none" stroke="#000000" points="1011,-.5 1011,-52.5 1168,-52.5 1168,-.5 1011,-.5"/>
<text text-anchor="start" x="1019" y="-40.5" font-family="Helvetica,sans-Serif" font-size="10.00" fill="#000000">/home/travis/build</text>
<text text-anchor="start" x="1019" y="-29.5" font-family="Helvetica,sans-Serif" font-size="10.00" fill="#000000">/AliceO2Group/AliceO2</text>
<text text-anchor="start" x="1019" y="-18.5" font-family="Helvetica,sans-Serif" font-size="10.00" fill="#000000">/Detectors/TOF/workflow</text>
<text text-anchor="middle" x="1089.5" y="-7.5" font-family="Helvetica,sans-Serif" font-size="10.00" fill="#000000">/src/EntropyEncoderSpec.cxx</text>
</a>
</g>
</g>
<!-- Node51&#45;&gt;Node53 -->
<g id="edge13" class="edge">
<title>Node51&#45;&gt;Node53</title>
<path fill="none" stroke="#191970" d="M941.3576,-85.5694C968.8258,-74.6169 998.5646,-62.759 1024.1389,-52.5617"/>
<polygon fill="#191970" stroke="#191970" points="939.7396,-82.4466 931.7471,-89.4015 942.3322,-88.9487 939.7396,-82.4466"/>
</g>
</g>
</svg>
