<?xml version="1.0" encoding="UTF-8" standalone="no"?>
<!DOCTYPE svg PUBLIC "-//W3C//DTD SVG 1.1//EN"
 "http://www.w3.org/Graphics/SVG/1.1/DTD/svg11.dtd">
<!-- Generated by graphviz version 2.40.1 (20161225.0304)
 -->
<!-- Title: /home/travis/build/AliceO2Group/AliceO2/Analysis/DataModel/src/dummy.cxx Pages: 1 -->
<!--zoomable 397 -->
<svg id="main" version="1.1" xmlns="http://www.w3.org/2000/svg" xmlns:xlink="http://www.w3.org/1999/xlink" xml:space="preserve" onload="init(evt)">
<style type="text/css"><![CDATA[
.edge:hover path { stroke: red; }
.edge:hover polygon { stroke: red; fill: red; }
]]></style>
<script type="text/javascript"><![CDATA[
var edges = document.getElementsByTagName('g');
if (edges && edges.length) {
  for (var i=0;i<edges.length;i++) {
    if (edges[i].id.substr(0,4)=='edge') {
      edges[i].setAttribute('class','edge');
    }
  }
}
]]></script>
        <defs>
                <circle id="rim" cx="0" cy="0" r="7"/>
                <circle id="rim2" cx="0" cy="0" r="3.5"/>
                <g id="zoomPlus">
                        <use xlink:href="#rim" fill="#404040">
                                <set attributeName="fill" to="#808080" begin="zoomplus.mouseover" end="zoomplus.mouseout"/>
                        </use>
                        <path d="M-4,0h8M0,-4v8" fill="none" stroke="white" stroke-width="1.5" pointer-events="none"/>
                </g>
                <g id="zoomMin">
                        <use xlink:href="#rim" fill="#404040">
                                <set attributeName="fill" to="#808080" begin="zoomminus.mouseover" end="zoomminus.mouseout"/>
                        </use>
                        <path d="M-4,0h8" fill="none" stroke="white" stroke-width="1.5" pointer-events="none"/>
                </g>
                <g id="dirArrow">
                        <path fill="none" stroke="white" stroke-width="1.5" d="M0,-3.0v7 M-2.5,-0.5L0,-3.0L2.5,-0.5"/>
                </g>
               <g id="resetDef">
                       <use xlink:href="#rim2" fill="#404040">
                               <set attributeName="fill" to="#808080" begin="reset.mouseover" end="reset.mouseout"/>
                       </use>
               </g>
        </defs>

<script type="text/javascript">
var viewWidth = 2737;
var viewHeight = 397;
var sectionId = 'dynsection-0';
</script>
<script xlink:href="../../svgpan.js"/>
<svg id="graph" class="graph">
<g id="viewport">
<title>/home/travis/build/AliceO2Group/AliceO2/Analysis/DataModel/src/dummy.cxx</title>
<!-- Node0 -->
<g id="node1" class="node">
<title>Node0</title>
<polygon fill="#bfbfbf" stroke="#000000" points="2163.5,-336.5 2163.5,-388.5 2297.5,-388.5 2297.5,-336.5 2163.5,-336.5"/>
<text text-anchor="start" x="2171.5" y="-376.5" font-family="Helvetica,sans-Serif" font-size="10.00" fill="#000000">/home/travis/build</text>
<text text-anchor="start" x="2171.5" y="-365.5" font-family="Helvetica,sans-Serif" font-size="10.00" fill="#000000">/AliceO2Group/AliceO2</text>
<text text-anchor="start" x="2171.5" y="-354.5" font-family="Helvetica,sans-Serif" font-size="10.00" fill="#000000">/Analysis/DataModel/src</text>
<text text-anchor="middle" x="2230.5" y="-343.5" font-family="Helvetica,sans-Serif" font-size="10.00" fill="#000000">/dummy.cxx</text>
</g>
<!-- Node1 -->
<g id="node2" class="node">
<title>Node1</title>
<g id="a_node2"><a xlink:href="../../dd/ddf/SecondaryVertex_8h.html" target="_top" xlink:title="Analysis/SecondaryVertex.h">
<polygon fill="none" stroke="#000000" points="2154.5,-280.5 2154.5,-299.5 2306.5,-299.5 2306.5,-280.5 2154.5,-280.5"/>
<text text-anchor="middle" x="2230.5" y="-287.5" font-family="Helvetica,sans-Serif" font-size="10.00" fill="#000000">Analysis/SecondaryVertex.h</text>
</a>
</g>
</g>
<!-- Node0&#45;&gt;Node1 -->
<g id="edge1" class="edge">
<title>Node0&#45;&gt;Node1</title>
<path fill="none" stroke="#191970" d="M2230.5,-336.3258C2230.5,-327.5142 2230.5,-317.8397 2230.5,-309.621"/>
<polygon fill="#191970" stroke="#191970" points="2234.0001,-309.534 2230.5,-299.534 2227.0001,-309.534 2234.0001,-309.534"/>
</g>
<!-- Node2 -->
<g id="node3" class="node">
<title>Node2</title>
<g id="a_node3"><a xlink:href="../../d2/d8c/AnalysisDataModel_8h.html" target="_top" xlink:title="Framework/AnalysisDataModel.h">
<polygon fill="none" stroke="#000000" points="2142.5,-224.5 2142.5,-243.5 2318.5,-243.5 2318.5,-224.5 2142.5,-224.5"/>
<text text-anchor="middle" x="2230.5" y="-231.5" font-family="Helvetica,sans-Serif" font-size="10.00" fill="#000000">Framework/AnalysisDataModel.h</text>
</a>
</g>
</g>
<!-- Node1&#45;&gt;Node2 -->
<g id="edge2" class="edge">
<title>Node1&#45;&gt;Node2</title>
<path fill="none" stroke="#191970" d="M2230.5,-280.2455C2230.5,-272.9382 2230.5,-262.6944 2230.5,-253.7046"/>
<polygon fill="#191970" stroke="#191970" points="2234.0001,-253.6426 2230.5,-243.6427 2227.0001,-253.6427 2234.0001,-253.6426"/>
</g>
<!-- Node3 -->
<g id="node4" class="node">
<title>Node3</title>
<g id="a_node4"><a xlink:href="../../de/d33/ASoA_8h.html" target="_top" xlink:title="Framework/ASoA.h">
<polygon fill="none" stroke="#000000" points="1278.5,-168.5 1278.5,-187.5 1386.5,-187.5 1386.5,-168.5 1278.5,-168.5"/>
<text text-anchor="middle" x="1332.5" y="-175.5" font-family="Helvetica,sans-Serif" font-size="10.00" fill="#000000">Framework/ASoA.h</text>
</a>
</g>
</g>
<!-- Node2&#45;&gt;Node3 -->
<g id="edge3" class="edge">
<title>Node2&#45;&gt;Node3</title>
<path fill="none" stroke="#191970" d="M2142.3502,-228.5029C1962.0339,-217.2582 1554.7594,-191.8603 1396.8033,-182.01"/>
<polygon fill="#191970" stroke="#191970" points="1396.9631,-178.5133 1386.7647,-181.384 1396.5274,-185.4997 1396.9631,-178.5133"/>
</g>
<!-- Node34 -->
<g id="node35" class="node">
<title>Node34</title>
<g id="a_node35"><a xlink:href="../../d9/d52/Common_2MathUtils_2include_2MathUtils_2Utils_8h.html" target="_top" xlink:title="MathUtils/Utils.h">
<polygon fill="none" stroke="#000000" points="2312.5,-168.5 2312.5,-187.5 2410.5,-187.5 2410.5,-168.5 2312.5,-168.5"/>
<text text-anchor="middle" x="2361.5" y="-175.5" font-family="Helvetica,sans-Serif" font-size="10.00" fill="#000000">MathUtils/Utils.h</text>
</a>
</g>
</g>
<!-- Node2&#45;&gt;Node34 -->
<g id="edge42" class="edge">
<title>Node2&#45;&gt;Node34</title>
<path fill="none" stroke="#191970" d="M2253.0197,-224.3733C2274.2372,-215.3032 2306.2276,-201.6279 2329.9769,-191.4755"/>
<polygon fill="#191970" stroke="#191970" points="2331.4548,-194.6502 2339.2742,-187.5011 2328.7033,-188.2136 2331.4548,-194.6502"/>
</g>
<!-- Node36 -->
<g id="node37" class="node">
<title>Node36</title>
<polygon fill="none" stroke="#bfbfbf" points="2189,-56.5 2189,-75.5 2236,-75.5 2236,-56.5 2189,-56.5"/>
<text text-anchor="middle" x="2212.5" y="-63.5" font-family="Helvetica,sans-Serif" font-size="10.00" fill="#000000">cmath</text>
</g>
<!-- Node2&#45;&gt;Node36 -->
<g id="edge53" class="edge">
<title>Node2&#45;&gt;Node36</title>
<path fill="none" stroke="#191970" d="M2228.0592,-224.2378C2223.683,-206.176 2214.6636,-166.259 2211.5,-132 2210.6827,-123.1488 2211.4034,-120.8884 2211.5,-112 2211.5943,-103.3235 2211.7886,-93.7282 2211.9811,-85.5559"/>
<polygon fill="#191970" stroke="#191970" points="2215.481,-85.5984 2212.2329,-75.5138 2208.4832,-85.4229 2215.481,-85.5984"/>
</g>
<!-- Node43 -->
<g id="node44" class="node">
<title>Node43</title>
<g id="a_node44"><a xlink:href="../../d2/d12/DataTypes_8h.html" target="_top" xlink:title="Framework/DataTypes.h">
<polygon fill="none" stroke="#000000" points="2566.5,-168.5 2566.5,-187.5 2700.5,-187.5 2700.5,-168.5 2566.5,-168.5"/>
<text text-anchor="middle" x="2633.5" y="-175.5" font-family="Helvetica,sans-Serif" font-size="10.00" fill="#000000">Framework/DataTypes.h</text>
</a>
</g>
</g>
<!-- Node2&#45;&gt;Node43 -->
<g id="edge54" class="edge">
<title>Node2&#45;&gt;Node43</title>
<path fill="none" stroke="#191970" d="M2299.3203,-224.4369C2370.6037,-214.5315 2481.7665,-199.0846 2556.0732,-188.7591"/>
<polygon fill="#191970" stroke="#191970" points="2556.8826,-192.1803 2566.3056,-187.3372 2555.919,-185.2469 2556.8826,-192.1803"/>
</g>
<!-- Node4 -->
<g id="node5" class="node">
<title>Node4</title>
<g id="a_node5"><a xlink:href="../../dd/dce/Pack_8h.html" target="_top" xlink:title="Framework/Pack.h">
<polygon fill="none" stroke="#000000" points="83,-56.5 83,-75.5 188,-75.5 188,-56.5 83,-56.5"/>
<text text-anchor="middle" x="135.5" y="-63.5" font-family="Helvetica,sans-Serif" font-size="10.00" fill="#000000">Framework/Pack.h</text>
</a>
</g>
</g>
<!-- Node3&#45;&gt;Node4 -->
<g id="edge4" class="edge">
<title>Node3&#45;&gt;Node4</title>
<path fill="none" stroke="#191970" d="M1278.2114,-177.3328C1145.0661,-175.1902 791.8622,-166.4428 499.5,-132 387.7912,-118.8398 258.5654,-92.7961 188.0734,-77.6562"/>
<polygon fill="#191970" stroke="#191970" points="188.6217,-74.194 178.1082,-75.5044 187.1442,-81.0363 188.6217,-74.194"/>
</g>
<!-- Node8 -->
<g id="node9" class="node">
<title>Node8</title>
<g id="a_node9"><a xlink:href="../../d1/d00/CheckTypes_8h.html" target="_top" xlink:title="Framework/CheckTypes.h">
<polygon fill="none" stroke="#000000" points="206.5,-56.5 206.5,-75.5 346.5,-75.5 346.5,-56.5 206.5,-56.5"/>
<text text-anchor="middle" x="276.5" y="-63.5" font-family="Helvetica,sans-Serif" font-size="10.00" fill="#000000">Framework/CheckTypes.h</text>
</a>
</g>
</g>
<!-- Node3&#45;&gt;Node8 -->
<g id="edge8" class="edge">
<title>Node3&#45;&gt;Node8</title>
<path fill="none" stroke="#191970" d="M1278.4921,-176.6648C1160.3764,-173.2636 870.3876,-162.2902 629.5,-132 521.6774,-118.4419 397.0365,-92.75 328.4639,-77.7326"/>
<polygon fill="#191970" stroke="#191970" points="328.8753,-74.2394 318.3566,-75.5073 327.3701,-81.0757 328.8753,-74.2394"/>
</g>
<!-- Node9 -->
<g id="node10" class="node">
<title>Node9</title>
<g id="a_node10"><a xlink:href="../../de/d9b/FunctionalHelpers_8h.html" target="_top" xlink:title="Framework/FunctionalHelpers.h">
<polygon fill="none" stroke="#000000" points="50.5,-112.5 50.5,-131.5 220.5,-131.5 220.5,-112.5 50.5,-112.5"/>
<text text-anchor="middle" x="135.5" y="-119.5" font-family="Helvetica,sans-Serif" font-size="10.00" fill="#000000">Framework/FunctionalHelpers.h</text>
</a>
</g>
</g>
<!-- Node3&#45;&gt;Node9 -->
<g id="edge9" class="edge">
<title>Node3&#45;&gt;Node9</title>
<path fill="none" stroke="#191970" d="M1278.295,-175.9847C1123.9743,-170.1652 669.0396,-152.44 291.5,-132 271.9107,-130.9394 250.9459,-129.6805 230.9443,-128.4197"/>
<polygon fill="#191970" stroke="#191970" points="231.1021,-124.9228 220.9003,-127.7815 230.6582,-131.9087 231.1021,-124.9228"/>
</g>
<!-- Node11 -->
<g id="node12" class="node">
<title>Node11</title>
<g id="a_node12"><a xlink:href="../../d9/de8/CompilerBuiltins_8h.html" target="_top" xlink:title="Framework/CompilerBuiltins.h">
<polygon fill="none" stroke="#000000" points="364.5,-56.5 364.5,-75.5 528.5,-75.5 528.5,-56.5 364.5,-56.5"/>
<text text-anchor="middle" x="446.5" y="-63.5" font-family="Helvetica,sans-Serif" font-size="10.00" fill="#000000">Framework/CompilerBuiltins.h</text>
</a>
</g>
</g>
<!-- Node3&#45;&gt;Node11 -->
<g id="edge12" class="edge">
<title>Node3&#45;&gt;Node11</title>
<path fill="none" stroke="#191970" d="M1278.1476,-176.4261C1173.2683,-172.8077 935.8918,-161.7904 738.5,-132 649.7808,-118.6105 547.9298,-93.2658 491.0034,-78.1789"/>
<polygon fill="#191970" stroke="#191970" points="491.8122,-74.7723 481.248,-75.5771 490.0083,-81.5359 491.8122,-74.7723"/>
</g>
<!-- Node12 -->
<g id="node13" class="node">
<title>Node12</title>
<g id="a_node13"><a xlink:href="../../db/d31/Traits_8h.html" target="_top" xlink:title="Framework/Traits.h">
<polygon fill="none" stroke="#000000" points="1399,-112.5 1399,-131.5 1508,-131.5 1508,-112.5 1399,-112.5"/>
<text text-anchor="middle" x="1453.5" y="-119.5" font-family="Helvetica,sans-Serif" font-size="10.00" fill="#000000">Framework/Traits.h</text>
</a>
</g>
</g>
<!-- Node3&#45;&gt;Node12 -->
<g id="edge13" class="edge">
<title>Node3&#45;&gt;Node12</title>
<path fill="none" stroke="#191970" d="M1353.3006,-168.3733C1372.7243,-159.3838 1401.9224,-145.8706 1423.7964,-135.7471"/>
<polygon fill="#191970" stroke="#191970" points="1425.3656,-138.8776 1432.9708,-131.5011 1422.4255,-132.5249 1425.3656,-138.8776"/>
</g>
<!-- Node14 -->
<g id="node15" class="node">
<title>Node14</title>
<g id="a_node15"><a xlink:href="../../d0/d91/Expressions_8h.html" target="_top" xlink:title="Framework/Expressions.h">
<polygon fill="none" stroke="#000000" points="1125,-112.5 1125,-131.5 1266,-131.5 1266,-112.5 1125,-112.5"/>
<text text-anchor="middle" x="1195.5" y="-119.5" font-family="Helvetica,sans-Serif" font-size="10.00" fill="#000000">Framework/Expressions.h</text>
</a>
</g>
</g>
<!-- Node3&#45;&gt;Node14 -->
<g id="edge15" class="edge">
<title>Node3&#45;&gt;Node14</title>
<path fill="none" stroke="#191970" d="M1308.9489,-168.3733C1286.6609,-159.2629 1253.0063,-145.5062 1228.1363,-135.3404"/>
<polygon fill="#191970" stroke="#191970" points="1229.3247,-132.0451 1218.7438,-131.5011 1226.6761,-138.5247 1229.3247,-132.0451"/>
</g>
<!-- Node20 -->
<g id="node21" class="node">
<title>Node20</title>
<polygon fill="none" stroke="#bfbfbf" points="1741,-56.5 1741,-75.5 1822,-75.5 1822,-56.5 1741,-56.5"/>
<text text-anchor="middle" x="1781.5" y="-63.5" font-family="Helvetica,sans-Serif" font-size="10.00" fill="#000000">arrow/table.h</text>
</g>
<!-- Node3&#45;&gt;Node20 -->
<g id="edge35" class="edge">
<title>Node3&#45;&gt;Node20</title>
<path fill="none" stroke="#191970" d="M1325.7641,-168.1126C1316.9625,-153.8577 1304.2534,-127.5424 1318.5,-112 1348.1053,-79.7019 1653.7899,-82.1806 1730.9048,-75.5998"/>
<polygon fill="#191970" stroke="#191970" points="1731.3442,-79.0728 1740.9056,-74.5088 1730.5849,-72.1141 1731.3442,-79.0728"/>
</g>
<!-- Node21 -->
<g id="node22" class="node">
<title>Node21</title>
<polygon fill="none" stroke="#bfbfbf" points="1840,-56.5 1840,-75.5 1987,-75.5 1987,-56.5 1840,-56.5"/>
<text text-anchor="middle" x="1913.5" y="-63.5" font-family="Helvetica,sans-Serif" font-size="10.00" fill="#000000">gandiva/selection_vector.h</text>
</g>
<!-- Node3&#45;&gt;Node21 -->
<g id="edge39" class="edge">
<title>Node3&#45;&gt;Node21</title>
<path fill="none" stroke="#191970" d="M1332.8858,-168.4918C1334.0474,-153.7217 1338.6259,-125.5574 1356.5,-112 1396.6921,-81.5146 1744.5325,-81.1298 1829.5583,-75.8391"/>
<polygon fill="#191970" stroke="#191970" points="1830.0496,-79.3118 1839.7522,-75.0564 1829.5136,-72.3324 1830.0496,-79.3118"/>
</g>
<!-- Node25 -->
<g id="node26" class="node">
<title>Node25</title>
<polygon fill="none" stroke="#bfbfbf" points="2005,-56.5 2005,-75.5 2084,-75.5 2084,-56.5 2005,-56.5"/>
<text text-anchor="middle" x="2044.5" y="-63.5" font-family="Helvetica,sans-Serif" font-size="10.00" fill="#000000">fmt/format.h</text>
</g>
<!-- Node3&#45;&gt;Node25 -->
<g id="edge41" class="edge">
<title>Node3&#45;&gt;Node25</title>
<path fill="none" stroke="#191970" d="M1337.5633,-168.2028C1346.0049,-153.0367 1364.5243,-124.3396 1389.5,-112 1507.7311,-53.5863 1846.0755,-91.7281 1994.7881,-75.7933"/>
<polygon fill="#191970" stroke="#191970" points="1995.2185,-79.2669 2004.7337,-74.6074 1994.3896,-72.3161 1995.2185,-79.2669"/>
</g>
<!-- Node29 -->
<g id="node30" class="node">
<title>Node29</title>
<g id="a_node30"><a xlink:href="../../d4/de7/ArrowTypes_8h.html" target="_top" xlink:title="Framework/ArrowTypes.h">
<polygon fill="none" stroke="#000000" points="748,-112.5 748,-131.5 887,-131.5 887,-112.5 748,-112.5"/>
<text text-anchor="middle" x="817.5" y="-119.5" font-family="Helvetica,sans-Serif" font-size="10.00" fill="#000000">Framework/ArrowTypes.h</text>
</a>
</g>
</g>
<!-- Node3&#45;&gt;Node29 -->
<g id="edge33" class="edge">
<title>Node3&#45;&gt;Node29</title>
<path fill="none" stroke="#191970" d="M1278.3594,-172.1129C1187.2938,-162.2106 1003.0634,-142.1778 897.193,-130.6656"/>
<polygon fill="#191970" stroke="#191970" points="897.5176,-127.1804 887.1979,-129.5788 896.7609,-134.1394 897.5176,-127.1804"/>
</g>
<!-- Node30 -->
<g id="node31" class="node">
<title>Node30</title>
<polygon fill="none" stroke="#bfbfbf" points="1526.5,-112.5 1526.5,-131.5 1606.5,-131.5 1606.5,-112.5 1526.5,-112.5"/>
<text text-anchor="middle" x="1566.5" y="-119.5" font-family="Helvetica,sans-Serif" font-size="10.00" fill="#000000">arrow/array.h</text>
</g>
<!-- Node3&#45;&gt;Node30 -->
<g id="edge36" class="edge">
<title>Node3&#45;&gt;Node30</title>
<path fill="none" stroke="#191970" d="M1372.4602,-168.4369C1412.3392,-158.8932 1473.7139,-144.2052 1516.7328,-133.9101"/>
<polygon fill="#191970" stroke="#191970" points="1517.7939,-137.2551 1526.7047,-131.5237 1516.1646,-130.4473 1517.7939,-137.2551"/>
</g>
<!-- Node31 -->
<g id="node32" class="node">
<title>Node31</title>
<polygon fill="none" stroke="#bfbfbf" points="1624.5,-112.5 1624.5,-131.5 1734.5,-131.5 1734.5,-112.5 1624.5,-112.5"/>
<text text-anchor="middle" x="1679.5" y="-119.5" font-family="Helvetica,sans-Serif" font-size="10.00" fill="#000000">arrow/util/variant.h</text>
</g>
<!-- Node3&#45;&gt;Node31 -->
<g id="edge37" class="edge">
<title>Node3&#45;&gt;Node31</title>
<path fill="none" stroke="#191970" d="M1386.7188,-169.25C1448.1456,-159.3367 1548.2353,-143.1839 1613.9831,-132.5733"/>
<polygon fill="#191970" stroke="#191970" points="1614.9145,-135.9684 1624.2291,-130.9198 1613.7992,-129.0578 1614.9145,-135.9684"/>
</g>
<!-- Node32 -->
<g id="node33" class="node">
<title>Node32</title>
<polygon fill="none" stroke="#bfbfbf" points="1753,-112.5 1753,-131.5 1886,-131.5 1886,-112.5 1753,-112.5"/>
<text text-anchor="middle" x="1819.5" y="-119.5" font-family="Helvetica,sans-Serif" font-size="10.00" fill="#000000">arrow/compute/kernel.h</text>
</g>
<!-- Node3&#45;&gt;Node32 -->
<g id="edge38" class="edge">
<title>Node3&#45;&gt;Node32</title>
<path fill="none" stroke="#191970" d="M1386.7252,-172.2692C1463.4723,-164.0832 1608.4437,-148.3455 1742.7216,-132.0755"/>
<polygon fill="#191970" stroke="#191970" points="1743.2764,-135.5339 1752.7812,-130.8531 1742.432,-128.585 1743.2764,-135.5339"/>
</g>
<!-- Node33 -->
<g id="node34" class="node">
<title>Node33</title>
<polygon fill="none" stroke="#bfbfbf" points="1904.5,-112.5 1904.5,-131.5 1956.5,-131.5 1956.5,-112.5 1904.5,-112.5"/>
<text text-anchor="middle" x="1930.5" y="-119.5" font-family="Helvetica,sans-Serif" font-size="10.00" fill="#000000">cassert</text>
</g>
<!-- Node3&#45;&gt;Node33 -->
<g id="edge40" class="edge">
<title>Node3&#45;&gt;Node33</title>
<path fill="none" stroke="#191970" d="M1386.7966,-176.9627C1487.5983,-174.2849 1710.1768,-164.8386 1894.5,-132 1894.5998,-131.9822 1894.6997,-131.9643 1894.7997,-131.9462"/>
<polygon fill="#191970" stroke="#191970" points="1895.2492,-135.4298 1904.2861,-129.8995 1893.7729,-128.5873 1895.2492,-135.4298"/>
</g>
<!-- Node5 -->
<g id="node6" class="node">
<title>Node5</title>
<polygon fill="none" stroke="#bfbfbf" points="177,-.5 177,-19.5 230,-19.5 230,-.5 177,-.5"/>
<text text-anchor="middle" x="203.5" y="-7.5" font-family="Helvetica,sans-Serif" font-size="10.00" fill="#000000">cstddef</text>
</g>
<!-- Node4&#45;&gt;Node5 -->
<g id="edge5" class="edge">
<title>Node4&#45;&gt;Node5</title>
<path fill="none" stroke="#191970" d="M147.3447,-56.2455C157.388,-47.9746 171.9995,-35.9416 183.8004,-26.2232"/>
<polygon fill="#191970" stroke="#191970" points="186.2967,-28.7015 191.791,-19.6427 181.8467,-23.298 186.2967,-28.7015"/>
</g>
<!-- Node6 -->
<g id="node7" class="node">
<title>Node6</title>
<polygon fill="none" stroke="#bfbfbf" points="49,-.5 49,-19.5 94,-19.5 94,-.5 49,-.5"/>
<text text-anchor="middle" x="71.5" y="-7.5" font-family="Helvetica,sans-Serif" font-size="10.00" fill="#000000">utility</text>
</g>
<!-- Node4&#45;&gt;Node6 -->
<g id="edge6" class="edge">
<title>Node4&#45;&gt;Node6</title>
<path fill="none" stroke="#191970" d="M124.3521,-56.2455C114.9913,-48.0549 101.4142,-36.1749 90.3651,-26.5069"/>
<polygon fill="#191970" stroke="#191970" points="92.3508,-23.5937 82.5202,-19.6427 87.7412,-28.8618 92.3508,-23.5937"/>
</g>
<!-- Node7 -->
<g id="node8" class="node">
<title>Node7</title>
<polygon fill="none" stroke="#bfbfbf" points="112.5,-.5 112.5,-19.5 158.5,-19.5 158.5,-.5 112.5,-.5"/>
<text text-anchor="middle" x="135.5" y="-7.5" font-family="Helvetica,sans-Serif" font-size="10.00" fill="#000000">cstdio</text>
</g>
<!-- Node4&#45;&gt;Node7 -->
<g id="edge7" class="edge">
<title>Node4&#45;&gt;Node7</title>
<path fill="none" stroke="#191970" d="M135.5,-56.2455C135.5,-48.9382 135.5,-38.6944 135.5,-29.7046"/>
<polygon fill="#191970" stroke="#191970" points="139.0001,-29.6426 135.5,-19.6427 132.0001,-29.6427 139.0001,-29.6426"/>
</g>
<!-- Node9&#45;&gt;Node4 -->
<g id="edge10" class="edge">
<title>Node9&#45;&gt;Node4</title>
<path fill="none" stroke="#191970" d="M135.5,-112.2455C135.5,-104.9382 135.5,-94.6944 135.5,-85.7046"/>
<polygon fill="#191970" stroke="#191970" points="139.0001,-85.6426 135.5,-75.6427 132.0001,-85.6427 139.0001,-85.6426"/>
</g>
<!-- Node10 -->
<g id="node11" class="node">
<title>Node10</title>
<polygon fill="none" stroke="#bfbfbf" points="0,-56.5 0,-75.5 65,-75.5 65,-56.5 0,-56.5"/>
<text text-anchor="middle" x="32.5" y="-63.5" font-family="Helvetica,sans-Serif" font-size="10.00" fill="#000000">functional</text>
</g>
<!-- Node9&#45;&gt;Node10 -->
<g id="edge11" class="edge">
<title>Node9&#45;&gt;Node10</title>
<path fill="none" stroke="#191970" d="M117.5588,-112.2455C101.46,-103.4928 77.6121,-90.527 59.2609,-80.5496"/>
<polygon fill="#191970" stroke="#191970" points="60.6929,-77.3444 50.2356,-75.6427 57.3493,-83.4942 60.6929,-77.3444"/>
</g>
<!-- Node13 -->
<g id="node14" class="node">
<title>Node13</title>
<polygon fill="none" stroke="#bfbfbf" points="2102,-56.5 2102,-75.5 2171,-75.5 2171,-56.5 2102,-56.5"/>
<text text-anchor="middle" x="2136.5" y="-63.5" font-family="Helvetica,sans-Serif" font-size="10.00" fill="#000000">type_traits</text>
</g>
<!-- Node12&#45;&gt;Node13 -->
<g id="edge14" class="edge">
<title>Node12&#45;&gt;Node13</title>
<path fill="none" stroke="#191970" d="M1508.2684,-113.1015C1511.3879,-112.7009 1514.4815,-112.3296 1517.5,-112 1768.8115,-84.5586 1837.3259,-111.7826 2091.6277,-75.8973"/>
<polygon fill="#191970" stroke="#191970" points="2092.1266,-79.3617 2101.5305,-74.4815 2091.1358,-72.4322 2092.1266,-79.3617"/>
</g>
<!-- Node14&#45;&gt;Node4 -->
<g id="edge18" class="edge">
<title>Node14&#45;&gt;Node4</title>
<path fill="none" stroke="#191970" d="M1124.8128,-119.7907C931.5879,-113.5872 396.3988,-95.2633 198.238,-75.9298"/>
<polygon fill="#191970" stroke="#191970" points="198.5113,-72.4397 188.211,-74.9204 197.8101,-79.4045 198.5113,-72.4397"/>
</g>
<!-- Node14&#45;&gt;Node8 -->
<g id="edge19" class="edge">
<title>Node14&#45;&gt;Node8</title>
<path fill="none" stroke="#191970" d="M1124.8542,-119.8308C981.9213,-115.0718 647.9956,-102.0771 357.0156,-76.0776"/>
<polygon fill="#191970" stroke="#191970" points="356.9567,-72.5583 346.6831,-75.1473 356.3288,-79.53 356.9567,-72.5583"/>
</g>
<!-- Node14&#45;&gt;Node11 -->
<g id="edge17" class="edge">
<title>Node14&#45;&gt;Node11</title>
<path fill="none" stroke="#191970" d="M1124.8297,-117.9816C1006.073,-111.0257 758.7028,-95.6662 538.9381,-76.0998"/>
<polygon fill="#191970" stroke="#191970" points="539.0975,-72.6002 528.8253,-75.1947 538.4734,-79.5723 539.0975,-72.6002"/>
</g>
<!-- Node15 -->
<g id="node16" class="node">
<title>Node15</title>
<g id="a_node16"><a xlink:href="../../dd/dc2/BasicOps_8h.html" target="_top" xlink:title="Framework/BasicOps.h">
<polygon fill="none" stroke="#000000" points="1594.5,-56.5 1594.5,-75.5 1722.5,-75.5 1722.5,-56.5 1594.5,-56.5"/>
<text text-anchor="middle" x="1658.5" y="-63.5" font-family="Helvetica,sans-Serif" font-size="10.00" fill="#000000">Framework/BasicOps.h</text>
</a>
</g>
</g>
<!-- Node14&#45;&gt;Node15 -->
<g id="edge16" class="edge">
<title>Node14&#45;&gt;Node15</title>
<path fill="none" stroke="#191970" d="M1266.158,-113.6829C1365.6418,-101.9707 1539.2202,-81.5267 1584.4841,-76.0648"/>
<polygon fill="#191970" stroke="#191970" points="1584.9148,-79.5383 1594.4149,-74.8479 1584.0634,-72.5902 1584.9148,-79.5383"/>
</g>
<!-- Node16 -->
<g id="node17" class="node">
<title>Node16</title>
<polygon fill="none" stroke="#bfbfbf" points="547,-56.5 547,-75.5 648,-75.5 648,-56.5 547,-56.5"/>
<text text-anchor="middle" x="597.5" y="-63.5" font-family="Helvetica,sans-Serif" font-size="10.00" fill="#000000">arrow/type_fwd.h</text>
</g>
<!-- Node14&#45;&gt;Node16 -->
<g id="edge20" class="edge">
<title>Node14&#45;&gt;Node16</title>
<path fill="none" stroke="#191970" d="M1124.8111,-117.7619C1023.7454,-111.3013 831.9335,-97.5525 658.2887,-76.0055"/>
<polygon fill="#191970" stroke="#191970" points="658.5547,-72.5116 648.1973,-74.7419 657.6849,-79.4574 658.5547,-72.5116"/>
</g>
<!-- Node17 -->
<g id="node18" class="node">
<title>Node17</title>
<polygon fill="none" stroke="#bfbfbf" points="666.5,-56.5 666.5,-75.5 812.5,-75.5 812.5,-56.5 666.5,-56.5"/>
<text text-anchor="middle" x="739.5" y="-63.5" font-family="Helvetica,sans-Serif" font-size="10.00" fill="#000000">gandiva/gandiva_aliases.h</text>
</g>
<!-- Node14&#45;&gt;Node17 -->
<g id="edge21" class="edge">
<title>Node14&#45;&gt;Node17</title>
<path fill="none" stroke="#191970" d="M1124.7503,-113.3114C1043.1759,-103.2935 909.24,-86.8453 822.7289,-76.2211"/>
<polygon fill="#191970" stroke="#191970" points="823.0343,-72.7324 812.6823,-74.9873 822.181,-79.6802 823.0343,-72.7324"/>
</g>
<!-- Node18 -->
<g id="node19" class="node">
<title>Node18</title>
<polygon fill="none" stroke="#bfbfbf" points="830.5,-56.5 830.5,-75.5 908.5,-75.5 908.5,-56.5 830.5,-56.5"/>
<text text-anchor="middle" x="869.5" y="-63.5" font-family="Helvetica,sans-Serif" font-size="10.00" fill="#000000">arrow/type.h</text>
</g>
<!-- Node14&#45;&gt;Node18 -->
<g id="edge22" class="edge">
<title>Node14&#45;&gt;Node18</title>
<path fill="none" stroke="#191970" d="M1133.2637,-112.4574C1079.1518,-103.9884 998.3925,-90.9372 918.7205,-76.171"/>
<polygon fill="#191970" stroke="#191970" points="918.978,-72.6588 908.506,-74.2671 917.6953,-79.5402 918.978,-72.6588"/>
</g>
<!-- Node19 -->
<g id="node20" class="node">
<title>Node19</title>
<polygon fill="none" stroke="#bfbfbf" points="927,-56.5 927,-75.5 1022,-75.5 1022,-56.5 927,-56.5"/>
<text text-anchor="middle" x="974.5" y="-63.5" font-family="Helvetica,sans-Serif" font-size="10.00" fill="#000000">gandiva/arrow.h</text>
</g>
<!-- Node14&#45;&gt;Node19 -->
<g id="edge23" class="edge">
<title>Node14&#45;&gt;Node19</title>
<path fill="none" stroke="#191970" d="M1157.7599,-112.4369C1120.2552,-102.9335 1062.6201,-88.3291 1022.0176,-78.0407"/>
<polygon fill="#191970" stroke="#191970" points="1022.6379,-74.5873 1012.0845,-75.5237 1020.9184,-81.3728 1022.6379,-74.5873"/>
</g>
<!-- Node14&#45;&gt;Node20 -->
<g id="edge24" class="edge">
<title>Node14&#45;&gt;Node20</title>
<path fill="none" stroke="#191970" d="M1266.4397,-113.4529C1271.1959,-112.9419 1275.9161,-112.4524 1280.5,-112 1477.3852,-92.5675 1530.6384,-103.4028 1730.948,-75.9155"/>
<polygon fill="#191970" stroke="#191970" points="1731.4848,-79.3746 1740.9091,-74.5338 1730.523,-72.441 1731.4848,-79.3746"/>
</g>
<!-- Node14&#45;&gt;Node21 -->
<g id="edge25" class="edge">
<title>Node14&#45;&gt;Node21</title>
<path fill="none" stroke="#191970" d="M1266.0617,-116.1302C1283.2188,-114.7397 1301.5162,-113.2875 1318.5,-112 1542.6328,-95.0098 1601.6928,-97.5696 1829.4822,-76.0536"/>
<polygon fill="#191970" stroke="#191970" points="1830.1301,-79.5079 1839.7543,-75.0779 1829.4681,-72.5393 1830.1301,-79.5079"/>
</g>
<!-- Node22 -->
<g id="node23" class="node">
<title>Node22</title>
<polygon fill="none" stroke="#bfbfbf" points="1040.5,-56.5 1040.5,-75.5 1132.5,-75.5 1132.5,-56.5 1040.5,-56.5"/>
<text text-anchor="middle" x="1086.5" y="-63.5" font-family="Helvetica,sans-Serif" font-size="10.00" fill="#000000">gandiva/node.h</text>
</g>
<!-- Node14&#45;&gt;Node22 -->
<g id="edge26" class="edge">
<title>Node14&#45;&gt;Node22</title>
<path fill="none" stroke="#191970" d="M1176.5136,-112.2455C1159.3208,-103.4125 1133.7762,-90.2887 1114.2868,-80.2758"/>
<polygon fill="#191970" stroke="#191970" points="1115.763,-77.0993 1105.2688,-75.6427 1112.5641,-83.3257 1115.763,-77.0993"/>
</g>
<!-- Node23 -->
<g id="node24" class="node">
<title>Node23</title>
<polygon fill="none" stroke="#bfbfbf" points="1151,-56.5 1151,-75.5 1240,-75.5 1240,-56.5 1151,-56.5"/>
<text text-anchor="middle" x="1195.5" y="-63.5" font-family="Helvetica,sans-Serif" font-size="10.00" fill="#000000">gandiva/filter.h</text>
</g>
<!-- Node14&#45;&gt;Node23 -->
<g id="edge27" class="edge">
<title>Node14&#45;&gt;Node23</title>
<path fill="none" stroke="#191970" d="M1195.5,-112.2455C1195.5,-104.9382 1195.5,-94.6944 1195.5,-85.7046"/>
<polygon fill="#191970" stroke="#191970" points="1199.0001,-85.6426 1195.5,-75.6427 1192.0001,-85.6427 1199.0001,-85.6426"/>
</g>
<!-- Node24 -->
<g id="node25" class="node">
<title>Node24</title>
<polygon fill="none" stroke="#bfbfbf" points="1258.5,-56.5 1258.5,-75.5 1368.5,-75.5 1368.5,-56.5 1258.5,-56.5"/>
<text text-anchor="middle" x="1313.5" y="-63.5" font-family="Helvetica,sans-Serif" font-size="10.00" fill="#000000">gandiva/projector.h</text>
</g>
<!-- Node14&#45;&gt;Node24 -->
<g id="edge28" class="edge">
<title>Node14&#45;&gt;Node24</title>
<path fill="none" stroke="#191970" d="M1215.7849,-112.3733C1234.6421,-103.4241 1262.946,-89.9917 1284.2455,-79.8835"/>
<polygon fill="#191970" stroke="#191970" points="1285.9461,-82.9506 1293.4798,-75.5011 1282.9449,-76.6266 1285.9461,-82.9506"/>
</g>
<!-- Node14&#45;&gt;Node25 -->
<g id="edge29" class="edge">
<title>Node14&#45;&gt;Node25</title>
<path fill="none" stroke="#191970" d="M1266.0278,-117.5313C1294.17,-115.7712 1326.8664,-113.755 1356.5,-112 1637.1252,-95.3801 1711.6669,-112.1334 1994.5823,-75.9281"/>
<polygon fill="#191970" stroke="#191970" points="1995.2654,-79.3691 2004.7351,-74.6177 1994.3693,-72.4267 1995.2654,-79.3691"/>
</g>
<!-- Node26 -->
<g id="node27" class="node">
<title>Node26</title>
<polygon fill="none" stroke="#bfbfbf" points="1387,-56.5 1387,-75.5 1438,-75.5 1438,-56.5 1387,-56.5"/>
<text text-anchor="middle" x="1412.5" y="-63.5" font-family="Helvetica,sans-Serif" font-size="10.00" fill="#000000">variant</text>
</g>
<!-- Node14&#45;&gt;Node26 -->
<g id="edge30" class="edge">
<title>Node14&#45;&gt;Node26</title>
<path fill="none" stroke="#191970" d="M1234.6433,-112.4756C1269.4704,-103.919 1322.0302,-90.8055 1376.989,-76.0787"/>
<polygon fill="#191970" stroke="#191970" points="1378.1637,-79.3872 1386.911,-73.4092 1376.345,-72.6276 1378.1637,-79.3872"/>
</g>
<!-- Node27 -->
<g id="node28" class="node">
<title>Node27</title>
<polygon fill="none" stroke="#bfbfbf" points="1456.5,-56.5 1456.5,-75.5 1500.5,-75.5 1500.5,-56.5 1456.5,-56.5"/>
<text text-anchor="middle" x="1478.5" y="-63.5" font-family="Helvetica,sans-Serif" font-size="10.00" fill="#000000">string</text>
</g>
<!-- Node14&#45;&gt;Node27 -->
<g id="edge31" class="edge">
<title>Node14&#45;&gt;Node27</title>
<path fill="none" stroke="#191970" d="M1259.397,-112.4909C1310.3972,-104.3738 1383.4897,-91.558 1446.5,-76 1446.5989,-75.9756 1446.6979,-75.951 1446.7971,-75.9264"/>
<polygon fill="#191970" stroke="#191970" points="1447.4996,-79.363 1456.2181,-73.3431 1445.6485,-72.6122 1447.4996,-79.363"/>
</g>
<!-- Node28 -->
<g id="node29" class="node">
<title>Node28</title>
<polygon fill="none" stroke="#bfbfbf" points="1518.5,-56.5 1518.5,-75.5 1576.5,-75.5 1576.5,-56.5 1518.5,-56.5"/>
<text text-anchor="middle" x="1547.5" y="-63.5" font-family="Helvetica,sans-Serif" font-size="10.00" fill="#000000">memory</text>
</g>
<!-- Node14&#45;&gt;Node28 -->
<g id="edge32" class="edge">
<title>Node14&#45;&gt;Node28</title>
<path fill="none" stroke="#191970" d="M1266.2729,-112.5706C1339.6115,-102.6422 1450.4188,-87.1645 1508.0056,-76.093"/>
<polygon fill="#191970" stroke="#191970" points="1508.9941,-79.465 1518.1179,-74.0793 1507.6269,-72.5998 1508.9941,-79.465"/>
</g>
<!-- Node29&#45;&gt;Node16 -->
<g id="edge34" class="edge">
<title>Node29&#45;&gt;Node16</title>
<path fill="none" stroke="#191970" d="M779.6807,-112.3733C742.3062,-102.8598 685.0276,-88.2797 644.6929,-78.0127"/>
<polygon fill="#191970" stroke="#191970" points="645.3802,-74.5761 634.8258,-75.5011 643.6534,-81.3598 645.3802,-74.5761"/>
</g>
<!-- Node35 -->
<g id="node36" class="node">
<title>Node35</title>
<polygon fill="none" stroke="#bfbfbf" points="2580.5,-112.5 2580.5,-131.5 2622.5,-131.5 2622.5,-112.5 2580.5,-112.5"/>
<text text-anchor="middle" x="2601.5" y="-119.5" font-family="Helvetica,sans-Serif" font-size="10.00" fill="#000000">array</text>
</g>
<!-- Node34&#45;&gt;Node35 -->
<g id="edge43" class="edge">
<title>Node34&#45;&gt;Node35</title>
<path fill="none" stroke="#191970" d="M2410.6574,-168.7667C2451.1902,-160.8084 2510.3413,-148.4057 2570.2677,-132.1359"/>
<polygon fill="#191970" stroke="#191970" points="2571.566,-135.4089 2580.2802,-129.3828 2569.7101,-128.6594 2571.566,-135.4089"/>
</g>
<!-- Node34&#45;&gt;Node36 -->
<g id="edge44" class="edge">
<title>Node34&#45;&gt;Node36</title>
<path fill="none" stroke="#191970" d="M2318.5822,-168.4469C2283.589,-159.7925 2237.9845,-146.247 2225.5,-132 2214.5682,-119.5249 2211.765,-100.5767 2211.4356,-86.1781"/>
<polygon fill="#191970" stroke="#191970" points="2214.9407,-85.869 2211.5939,-75.8167 2207.9415,-85.762 2214.9407,-85.869"/>
</g>
<!-- Node37 -->
<g id="node38" class="node">
<title>Node37</title>
<g id="a_node38"><a xlink:href="../../df/d21/GPUCommonDef_8h.html" target="_top" xlink:title="GPUCommonDef.h">
<polygon fill="none" stroke="#000000" points="2470,-56.5 2470,-75.5 2577,-75.5 2577,-56.5 2470,-56.5"/>
<text text-anchor="middle" x="2523.5" y="-63.5" font-family="Helvetica,sans-Serif" font-size="10.00" fill="#000000">GPUCommonDef.h</text>
</a>
</g>
</g>
<!-- Node34&#45;&gt;Node37 -->
<g id="edge45" class="edge">
<title>Node34&#45;&gt;Node37</title>
<path fill="none" stroke="#191970" d="M2410.5122,-173.0649C2484.4437,-165.1212 2617.411,-148.6924 2631.5,-132 2652.3169,-107.3365 2613.6972,-89.2484 2576.9899,-78.3091"/>
<polygon fill="#191970" stroke="#191970" points="2577.8141,-74.905 2567.2388,-75.5481 2575.907,-81.6402 2577.8141,-74.905"/>
</g>
<!-- Node40 -->
<g id="node41" class="node">
<title>Node40</title>
<g id="a_node41"><a xlink:href="../../d6/da2/GPUCommonMath_8h.html" target="_top" xlink:title="GPUCommonMath.h">
<polygon fill="none" stroke="#000000" points="2235,-112.5 2235,-131.5 2350,-131.5 2350,-112.5 2235,-112.5"/>
<text text-anchor="middle" x="2292.5" y="-119.5" font-family="Helvetica,sans-Serif" font-size="10.00" fill="#000000">GPUCommonMath.h</text>
</a>
</g>
</g>
<!-- Node34&#45;&gt;Node40 -->
<g id="edge48" class="edge">
<title>Node34&#45;&gt;Node40</title>
<path fill="none" stroke="#191970" d="M2349.4811,-168.2455C2339.2902,-159.9746 2324.4638,-147.9416 2312.4893,-138.2232"/>
<polygon fill="#191970" stroke="#191970" points="2314.3514,-135.2268 2304.3812,-131.6427 2309.9402,-140.662 2314.3514,-135.2268"/>
</g>
<!-- Node42 -->
<g id="node43" class="node">
<title>Node42</title>
<g id="a_node43"><a xlink:href="../../d6/d84/MathConstants_8h.html" target="_top" xlink:title="useful math constants ">
<polygon fill="none" stroke="#000000" points="2368.5,-112.5 2368.5,-131.5 2562.5,-131.5 2562.5,-112.5 2368.5,-112.5"/>
<text text-anchor="middle" x="2465.5" y="-119.5" font-family="Helvetica,sans-Serif" font-size="10.00" fill="#000000">CommonConstants/MathConstants.h</text>
</a>
</g>
</g>
<!-- Node34&#45;&gt;Node42 -->
<g id="edge52" class="edge">
<title>Node34&#45;&gt;Node42</title>
<path fill="none" stroke="#191970" d="M2379.6154,-168.2455C2395.945,-159.4527 2420.171,-146.4079 2438.7339,-136.4125"/>
<polygon fill="#191970" stroke="#191970" points="2440.4468,-139.4654 2447.5922,-131.6427 2437.1281,-133.3021 2440.4468,-139.4654"/>
</g>
<!-- Node38 -->
<g id="node39" class="node">
<title>Node38</title>
<g id="a_node39"><a xlink:href="../../d5/d93/GPUCommonDefSettings_8h.html" target="_top" xlink:title="GPUCommonDefSettings.h">
<polygon fill="none" stroke="#000000" points="2372.5,-.5 2372.5,-19.5 2520.5,-19.5 2520.5,-.5 2372.5,-.5"/>
<text text-anchor="middle" x="2446.5" y="-7.5" font-family="Helvetica,sans-Serif" font-size="10.00" fill="#000000">GPUCommonDefSettings.h</text>
</a>
</g>
</g>
<!-- Node37&#45;&gt;Node38 -->
<g id="edge46" class="edge">
<title>Node37&#45;&gt;Node38</title>
<path fill="none" stroke="#191970" d="M2510.0876,-56.2455C2498.4943,-47.814 2481.5252,-35.4729 2468.0322,-25.6598"/>
<polygon fill="#191970" stroke="#191970" points="2469.9047,-22.6938 2459.7587,-19.6427 2465.7874,-28.355 2469.9047,-22.6938"/>
</g>
<!-- Node39 -->
<g id="node40" class="node">
<title>Node39</title>
<g id="a_node40"><a xlink:href="../../da/d5a/GPUCommonDefAPI_8h.html" target="_top" xlink:title="GPUCommonDefAPI.h">
<polygon fill="none" stroke="#000000" points="2538.5,-.5 2538.5,-19.5 2662.5,-19.5 2662.5,-.5 2538.5,-.5"/>
<text text-anchor="middle" x="2600.5" y="-7.5" font-family="Helvetica,sans-Serif" font-size="10.00" fill="#000000">GPUCommonDefAPI.h</text>
</a>
</g>
</g>
<!-- Node37&#45;&gt;Node39 -->
<g id="edge47" class="edge">
<title>Node37&#45;&gt;Node39</title>
<path fill="none" stroke="#191970" d="M2536.9124,-56.2455C2548.5057,-47.814 2565.4748,-35.4729 2578.9678,-25.6598"/>
<polygon fill="#191970" stroke="#191970" points="2581.2126,-28.355 2587.2413,-19.6427 2577.0953,-22.6938 2581.2126,-28.355"/>
</g>
<!-- Node40&#45;&gt;Node36 -->
<g id="edge50" class="edge">
<title>Node40&#45;&gt;Node36</title>
<path fill="none" stroke="#191970" d="M2278.5651,-112.2455C2266.4053,-103.7337 2248.5536,-91.2375 2234.4715,-81.3801"/>
<polygon fill="#191970" stroke="#191970" points="2236.4747,-78.51 2226.2752,-75.6427 2232.4605,-84.2447 2236.4747,-78.51"/>
</g>
<!-- Node40&#45;&gt;Node37 -->
<g id="edge49" class="edge">
<title>Node40&#45;&gt;Node37</title>
<path fill="none" stroke="#191970" d="M2331.9478,-112.4369C2371.3156,-102.8932 2431.9034,-88.2052 2474.3708,-77.9101"/>
<polygon fill="#191970" stroke="#191970" points="2475.321,-81.2812 2484.2149,-75.5237 2473.6717,-74.4783 2475.321,-81.2812"/>
</g>
<!-- Node41 -->
<g id="node42" class="node">
<title>Node41</title>
<polygon fill="none" stroke="#bfbfbf" points="2260.5,-56.5 2260.5,-75.5 2324.5,-75.5 2324.5,-56.5 2260.5,-56.5"/>
<text text-anchor="middle" x="2292.5" y="-63.5" font-family="Helvetica,sans-Serif" font-size="10.00" fill="#000000">algorithm</text>
</g>
<!-- Node40&#45;&gt;Node41 -->
<g id="edge51" class="edge">
<title>Node40&#45;&gt;Node41</title>
<path fill="none" stroke="#191970" d="M2292.5,-112.2455C2292.5,-104.9382 2292.5,-94.6944 2292.5,-85.7046"/>
<polygon fill="#191970" stroke="#191970" points="2296.0001,-85.6426 2292.5,-75.6427 2289.0001,-85.6427 2296.0001,-85.6426"/>
</g>
<!-- Node44 -->
<g id="node45" class="node">
<title>Node44</title>
<polygon fill="none" stroke="#bfbfbf" points="2678.5,-112.5 2678.5,-131.5 2728.5,-131.5 2728.5,-112.5 2678.5,-112.5"/>
<text text-anchor="middle" x="2703.5" y="-119.5" font-family="Helvetica,sans-Serif" font-size="10.00" fill="#000000">cstdint</text>
</g>
<!-- Node43&#45;&gt;Node44 -->
<g id="edge55" class="edge">
<title>Node43&#45;&gt;Node44</title>
<path fill="none" stroke="#191970" d="M2645.6931,-168.2455C2656.1321,-159.8943 2671.3655,-147.7076 2683.574,-137.9408"/>
<polygon fill="#191970" stroke="#191970" points="2685.8244,-140.6227 2691.4467,-131.6427 2681.4515,-135.1566 2685.8244,-140.6227"/>
</g>
</g>
</svg>
        <g id="navigator" transform="translate(0 0)" fill="#404254">
                <rect fill="#f2f5e9" fill-opacity="0.5" stroke="#606060" stroke-width=".5" x="0" y="0" width="60" height="60"/>
                <use id="zoomplus" xlink:href="#zoomPlus" x="17" y="9" onmousedown="handleZoom(evt,'in')"/>
                <use id="zoomminus" xlink:href="#zoomMin" x="42" y="9" onmousedown="handleZoom(evt,'out')"/>
                <use id="reset" xlink:href="#resetDef" x="30" y="36" onmousedown="handleReset()"/>
                <g id="arrowUp" xlink:href="#dirArrow" transform="translate(30 24)" onmousedown="handlePan(0,-1)">
                  <use xlink:href="#rim" fill="#404040">
                        <set attributeName="fill" to="#808080" begin="arrowUp.mouseover" end="arrowUp.mouseout"/>
                  </use>
                  <path fill="none" stroke="white" stroke-width="1.5" d="M0,-3.0v7 M-2.5,-0.5L0,-3.0L2.5,-0.5"/>
                </g>
                <g id="arrowRight" xlink:href="#dirArrow" transform="rotate(90) translate(36 -43)" onmousedown="handlePan(1,0)">
                  <use xlink:href="#rim" fill="#404040">
                        <set attributeName="fill" to="#808080" begin="arrowRight.mouseover" end="arrowRight.mouseout"/>
                  </use>
                  <path fill="none" stroke="white" stroke-width="1.5" d="M0,-3.0v7 M-2.5,-0.5L0,-3.0L2.5,-0.5"/>
                </g>
                <g id="arrowDown" xlink:href="#dirArrow" transform="rotate(180) translate(-30 -48)" onmousedown="handlePan(0,1)">
                  <use xlink:href="#rim" fill="#404040">
                        <set attributeName="fill" to="#808080" begin="arrowDown.mouseover" end="arrowDown.mouseout"/>
                  </use>
                  <path fill="none" stroke="white" stroke-width="1.5" d="M0,-3.0v7 M-2.5,-0.5L0,-3.0L2.5,-0.5"/>
                </g>
                <g id="arrowLeft" xlink:href="#dirArrow" transform="rotate(270) translate(-36 17)" onmousedown="handlePan(-1,0)">
                  <use xlink:href="#rim" fill="#404040">
                        <set attributeName="fill" to="#808080" begin="arrowLeft.mouseover" end="arrowLeft.mouseout"/>
                  </use>
                  <path fill="none" stroke="white" stroke-width="1.5" d="M0,-3.0v7 M-2.5,-0.5L0,-3.0L2.5,-0.5"/>
                </g>
        </g>
        <svg viewBox="0 0 15 15" width="100%" height="30px" preserveAspectRatio="xMaxYMin meet">
         <g id="arrow_out" transform="scale(0.3 0.3)">
          <a xlink:href="Analysis_2DataModel_2src_2dummy_8cxx__incl_org.svg" target="_base">
           <rect id="button" ry="5" rx="5" y="6" x="6" height="38" width="38"
                fill="#f2f5e9" fill-opacity="0.5" stroke="#606060" stroke-width="1.0"/>
           <path id="arrow"
             d="M 11.500037,31.436501 C 11.940474,20.09759 22.043105,11.32322 32.158766,21.979434 L 37.068811,17.246167 C 37.068811,17.246167 37.088388,32 37.088388,32 L 22.160133,31.978069 C 22.160133,31.978069 26.997745,27.140456 26.997745,27.140456 C 18.528582,18.264221 13.291696,25.230495 11.500037,31.436501 z"
             style="fill:#404040;"/>
          </a>
         </g>
        </svg>
</svg>
