<?xml version="1.0" encoding="UTF-8" standalone="no"?>
<!DOCTYPE svg PUBLIC "-//W3C//DTD SVG 1.1//EN"
 "http://www.w3.org/Graphics/SVG/1.1/DTD/svg11.dtd">
<!-- Generated by graphviz version 2.40.1 (20161225.0304)
 -->
<!-- Title: o2::trd::TrackletMCMData Pages: 1 -->
<svg width="374pt" height="193pt"
 viewBox="0.00 0.00 374.00 193.00" xmlns="http://www.w3.org/2000/svg" xmlns:xlink="http://www.w3.org/1999/xlink">
<g id="graph0" class="graph" transform="scale(1 1) rotate(0) translate(4 189)">
<title>o2::trd::TrackletMCMData</title>
<!-- Node1 -->
<g id="node1" class="node">
<title>Node1</title>
<polygon fill="#bfbfbf" stroke="#000000" points="134.5,-.5 134.5,-57.5 273.5,-57.5 273.5,-.5 134.5,-.5"/>
<text text-anchor="middle" x="204" y="-45.5" font-family="Helvetica,sans-Serif" font-size="10.00" fill="#000000">o2::trd::TrackletMCMData</text>
<polyline fill="none" stroke="#000000" points="134.5,-38.5 273.5,-38.5 "/>
<text text-anchor="middle" x="204" y="-26.5" font-family="Helvetica,sans-Serif" font-size="10.00" fill="#000000"> </text>
<polyline fill="none" stroke="#000000" points="134.5,-19.5 273.5,-19.5 "/>
<text text-anchor="middle" x="204" y="-7.5" font-family="Helvetica,sans-Serif" font-size="10.00" fill="#000000"> </text>
</g>
<!-- Node2 -->
<g id="node2" class="node">
<title>Node2</title>
<polygon fill="none" stroke="#bfbfbf" points="0,-127.5 0,-184.5 56,-184.5 56,-127.5 0,-127.5"/>
<text text-anchor="middle" x="28" y="-172.5" font-family="Helvetica,sans-Serif" font-size="10.00" fill="#000000">uint16_t</text>
<polyline fill="none" stroke="#bfbfbf" points="0,-165.5 56,-165.5 "/>
<text text-anchor="middle" x="28" y="-153.5" font-family="Helvetica,sans-Serif" font-size="10.00" fill="#000000"> </text>
<polyline fill="none" stroke="#bfbfbf" points="0,-146.5 56,-146.5 "/>
<text text-anchor="middle" x="28" y="-134.5" font-family="Helvetica,sans-Serif" font-size="10.00" fill="#000000"> </text>
</g>
<!-- Node2&#45;&gt;Node1 -->
<g id="edge1" class="edge">
<title>Node2&#45;&gt;Node1</title>
<path fill="none" stroke="#404040" d="M55.4073,-127.3601C71.7931,-111.1468 93.5431,-91.1468 115,-76 121.0892,-71.7015 127.6202,-67.5306 134.2767,-63.564"/>
<polygon fill="none" stroke="#404040" points="134.3944,-63.4963 137.5992,-57.0365 144.7947,-57.5102 141.59,-63.97 134.3944,-63.4963"/>
<text text-anchor="middle" x="132.5" y="-101" font-family="Helvetica,sans-Serif" font-size="10.00" fill="#000000"> +pos</text>
<text text-anchor="middle" x="132.5" y="-90" font-family="Helvetica,sans-Serif" font-size="10.00" fill="#000000">+pid</text>
<text text-anchor="middle" x="132.5" y="-79" font-family="Helvetica,sans-Serif" font-size="10.00" fill="#000000">+slope</text>
</g>
<!-- Node3 -->
<g id="node3" class="node">
<title>Node3</title>
<polygon fill="none" stroke="#bfbfbf" points="74,-127.5 74,-184.5 222,-184.5 222,-127.5 74,-127.5"/>
<text text-anchor="middle" x="148" y="-172.5" font-family="Helvetica,sans-Serif" font-size="10.00" fill="#000000">anonymous:+__attribute__</text>
<polyline fill="none" stroke="#bfbfbf" points="74,-165.5 222,-165.5 "/>
<text text-anchor="middle" x="148" y="-153.5" font-family="Helvetica,sans-Serif" font-size="10.00" fill="#000000"> </text>
<polyline fill="none" stroke="#bfbfbf" points="74,-146.5 222,-146.5 "/>
<text text-anchor="middle" x="148" y="-134.5" font-family="Helvetica,sans-Serif" font-size="10.00" fill="#000000"> </text>
</g>
<!-- Node3&#45;&gt;Node1 -->
<g id="edge2" class="edge">
<title>Node3&#45;&gt;Node1</title>
<path fill="none" stroke="#404040" d="M150.7214,-127.1427C153.0293,-111.4219 157.2637,-91.974 165,-76 166.4031,-73.1029 168.0219,-70.2319 169.7855,-67.4216"/>
<polygon fill="none" stroke="#404040" points="169.7981,-67.4035 169.9616,-60.1942 176.6792,-57.5723 176.5157,-64.7815 169.7981,-67.4035"/>
<text text-anchor="middle" x="202.5" y="-90" font-family="Helvetica,sans-Serif" font-size="10.00" fill="#000000"> +__attribute__</text>
</g>
<!-- Node4 -->
<g id="node4" class="node">
<title>Node4</title>
<polygon fill="none" stroke="#bfbfbf" points="240,-127.5 240,-184.5 290,-184.5 290,-127.5 240,-127.5"/>
<text text-anchor="middle" x="265" y="-172.5" font-family="Helvetica,sans-Serif" font-size="10.00" fill="#000000">uint8_t</text>
<polyline fill="none" stroke="#bfbfbf" points="240,-165.5 290,-165.5 "/>
<text text-anchor="middle" x="265" y="-153.5" font-family="Helvetica,sans-Serif" font-size="10.00" fill="#000000"> </text>
<polyline fill="none" stroke="#bfbfbf" points="240,-146.5 290,-146.5 "/>
<text text-anchor="middle" x="265" y="-134.5" font-family="Helvetica,sans-Serif" font-size="10.00" fill="#000000"> </text>
</g>
<!-- Node4&#45;&gt;Node1 -->
<g id="edge3" class="edge">
<title>Node4&#45;&gt;Node1</title>
<path fill="none" stroke="#404040" d="M258.6368,-127.2795C254.5279,-111.6002 248.3713,-92.1482 240,-76 238.521,-73.147 236.8663,-70.2898 235.1008,-67.472"/>
<polygon fill="none" stroke="#404040" points="235.0823,-67.4447 228.402,-64.7294 228.3391,-57.5185 235.0194,-60.2339 235.0823,-67.4447"/>
<text text-anchor="middle" x="278.5" y="-90" font-family="Helvetica,sans-Serif" font-size="10.00" fill="#000000"> +checkbit</text>
</g>
<!-- Node5 -->
<g id="node5" class="node">
<title>Node5</title>
<g id="a_node5"><a xlink:href="../../d3/d87/classuint32__t.html" target="_top" xlink:title="{uint32_t\n||}">
<polygon fill="none" stroke="#000000" points="310,-127.5 310,-184.5 366,-184.5 366,-127.5 310,-127.5"/>
<text text-anchor="middle" x="338" y="-172.5" font-family="Helvetica,sans-Serif" font-size="10.00" fill="#000000">uint32_t</text>
<polyline fill="none" stroke="#000000" points="310,-165.5 366,-165.5 "/>
<text text-anchor="middle" x="338" y="-153.5" font-family="Helvetica,sans-Serif" font-size="10.00" fill="#000000"> </text>
<polyline fill="none" stroke="#000000" points="310,-146.5 366,-146.5 "/>
<text text-anchor="middle" x="338" y="-134.5" font-family="Helvetica,sans-Serif" font-size="10.00" fill="#000000"> </text>
</a>
</g>
</g>
<!-- Node5&#45;&gt;Node1 -->
<g id="edge4" class="edge">
<title>Node5&#45;&gt;Node1</title>
<path fill="none" stroke="#404040" d="M333.3419,-127.1608C329.3489,-110.4775 322.0748,-90.0674 309,-76 301.8871,-68.3472 293.2967,-61.8594 284.1297,-56.3801"/>
<polygon fill="none" stroke="#404040" points="284.1119,-56.3705 276.9285,-57.0019 273.5828,-50.614 280.7662,-49.9825 284.1119,-56.3705"/>
<text text-anchor="middle" x="345" y="-90" font-family="Helvetica,sans-Serif" font-size="10.00" fill="#000000"> +word</text>
</g>
</g>
</svg>
