<?xml version="1.0" encoding="UTF-8" standalone="no"?>
<!DOCTYPE svg PUBLIC "-//W3C//DTD SVG 1.1//EN"
 "http://www.w3.org/Graphics/SVG/1.1/DTD/svg11.dtd">
<!-- Generated by graphviz version 2.40.1 (20161225.0304)
 -->
<!-- Title: /home/travis/build/AliceO2Group/AliceO2/Framework/Core/include/Framework/Kernels.h Pages: 1 -->
<svg width="2547pt" height="341pt"
 viewBox="0.00 0.00 2546.50 341.00" xmlns="http://www.w3.org/2000/svg" xmlns:xlink="http://www.w3.org/1999/xlink">
<g id="graph0" class="graph" transform="scale(1 1) rotate(0) translate(4 337)">
<title>/home/travis/build/AliceO2Group/AliceO2/Framework/Core/include/Framework/Kernels.h</title>
<!-- Node0 -->
<g id="node1" class="node">
<title>Node0</title>
<polygon fill="#bfbfbf" stroke="#000000" points="2127,-280.5 2127,-332.5 2264,-332.5 2264,-280.5 2127,-280.5"/>
<text text-anchor="start" x="2135" y="-320.5" font-family="Helvetica,sans-Serif" font-size="10.00" fill="#000000">/home/travis/build</text>
<text text-anchor="start" x="2135" y="-309.5" font-family="Helvetica,sans-Serif" font-size="10.00" fill="#000000">/AliceO2Group/AliceO2</text>
<text text-anchor="start" x="2135" y="-298.5" font-family="Helvetica,sans-Serif" font-size="10.00" fill="#000000">/Framework/Core/include</text>
<text text-anchor="middle" x="2195.5" y="-287.5" font-family="Helvetica,sans-Serif" font-size="10.00" fill="#000000">/Framework/Kernels.h</text>
</g>
<!-- Node1 -->
<g id="node2" class="node">
<title>Node1</title>
<g id="a_node2"><a xlink:href="../../dd/dc2/BasicOps_8h.html" target="_top" xlink:title="Framework/BasicOps.h">
<polygon fill="none" stroke="#000000" points="87.5,-56.5 87.5,-75.5 215.5,-75.5 215.5,-56.5 87.5,-56.5"/>
<text text-anchor="middle" x="151.5" y="-63.5" font-family="Helvetica,sans-Serif" font-size="10.00" fill="#000000">Framework/BasicOps.h</text>
</a>
</g>
</g>
<!-- Node0&#45;&gt;Node1 -->
<g id="edge1" class="edge">
<title>Node0&#45;&gt;Node1</title>
<path fill="none" stroke="#191970" d="M2126.8264,-305.1117C1909.8777,-299.8944 1220.271,-276.9404 657.5,-188 482.5657,-160.3534 278.9083,-103.5316 193.0405,-78.4112"/>
<polygon fill="#191970" stroke="#191970" points="193.9852,-75.0408 183.4041,-75.5802 192.0121,-81.757 193.9852,-75.0408"/>
</g>
<!-- Node2 -->
<g id="node3" class="node">
<title>Node2</title>
<g id="a_node3"><a xlink:href="../../d5/d98/TableBuilder_8h.html" target="_top" xlink:title="Framework/TableBuilder.h">
<polygon fill="none" stroke="#000000" points="1510.5,-224.5 1510.5,-243.5 1652.5,-243.5 1652.5,-224.5 1510.5,-224.5"/>
<text text-anchor="middle" x="1581.5" y="-231.5" font-family="Helvetica,sans-Serif" font-size="10.00" fill="#000000">Framework/TableBuilder.h</text>
</a>
</g>
</g>
<!-- Node0&#45;&gt;Node2 -->
<g id="edge2" class="edge">
<title>Node0&#45;&gt;Node2</title>
<path fill="none" stroke="#191970" d="M2126.8536,-298.3944C2012.7129,-284.9168 1784.4283,-257.9614 1662.558,-243.5712"/>
<polygon fill="#191970" stroke="#191970" points="1662.8784,-240.0848 1652.5369,-242.3879 1662.0575,-247.0365 1662.8784,-240.0848"/>
</g>
<!-- Node26 -->
<g id="node27" class="node">
<title>Node26</title>
<polygon fill="none" stroke="#bfbfbf" points="2126.5,-56.5 2126.5,-75.5 2170.5,-75.5 2170.5,-56.5 2126.5,-56.5"/>
<text text-anchor="middle" x="2148.5" y="-63.5" font-family="Helvetica,sans-Serif" font-size="10.00" fill="#000000">string</text>
</g>
<!-- Node0&#45;&gt;Node26 -->
<g id="edge63" class="edge">
<title>Node0&#45;&gt;Node26</title>
<path fill="none" stroke="#191970" d="M2220.352,-280.3963C2254.5488,-241.2101 2307.8661,-166.0229 2270.5,-112 2259.9556,-96.7552 2212.9709,-82.1893 2180.4867,-73.673"/>
<polygon fill="#191970" stroke="#191970" points="2181.0689,-70.2095 2170.5139,-71.1273 2179.3376,-76.992 2181.0689,-70.2095"/>
</g>
<!-- Node30 -->
<g id="node31" class="node">
<title>Node30</title>
<polygon fill="none" stroke="#bfbfbf" points="2000.5,-112.5 2000.5,-131.5 2110.5,-131.5 2110.5,-112.5 2000.5,-112.5"/>
<text text-anchor="middle" x="2055.5" y="-119.5" font-family="Helvetica,sans-Serif" font-size="10.00" fill="#000000">arrow/util/variant.h</text>
</g>
<!-- Node0&#45;&gt;Node30 -->
<g id="edge62" class="edge">
<title>Node0&#45;&gt;Node30</title>
<path fill="none" stroke="#191970" d="M2175.7384,-280.457C2146.9399,-242.5047 2094.1642,-172.9538 2069.2344,-140.1"/>
<polygon fill="#191970" stroke="#191970" points="2071.8175,-137.714 2062.9845,-131.8635 2066.2411,-141.9454 2071.8175,-137.714"/>
</g>
<!-- Node31 -->
<g id="node32" class="node">
<title>Node31</title>
<polygon fill="none" stroke="#bfbfbf" points="2129,-112.5 2129,-131.5 2262,-131.5 2262,-112.5 2129,-112.5"/>
<text text-anchor="middle" x="2195.5" y="-119.5" font-family="Helvetica,sans-Serif" font-size="10.00" fill="#000000">arrow/compute/kernel.h</text>
</g>
<!-- Node0&#45;&gt;Node31 -->
<g id="edge59" class="edge">
<title>Node0&#45;&gt;Node31</title>
<path fill="none" stroke="#191970" d="M2195.5,-280.457C2195.5,-243.3157 2195.5,-175.9117 2195.5,-142.2556"/>
<polygon fill="#191970" stroke="#191970" points="2199.0001,-141.8634 2195.5,-131.8635 2192.0001,-141.8635 2199.0001,-141.8634"/>
</g>
<!-- Node41 -->
<g id="node42" class="node">
<title>Node41</title>
<polygon fill="none" stroke="#bfbfbf" points="2318.5,-224.5 2318.5,-243.5 2404.5,-243.5 2404.5,-224.5 2318.5,-224.5"/>
<text text-anchor="middle" x="2361.5" y="-231.5" font-family="Helvetica,sans-Serif" font-size="10.00" fill="#000000">arrow/status.h</text>
</g>
<!-- Node0&#45;&gt;Node41 -->
<g id="edge60" class="edge">
<title>Node0&#45;&gt;Node41</title>
<path fill="none" stroke="#191970" d="M2255.4298,-280.3258C2280.7641,-269.2612 2309.2133,-256.8361 2330.2662,-247.6413"/>
<polygon fill="#191970" stroke="#191970" points="2331.9072,-250.7439 2339.6704,-243.534 2329.1055,-244.329 2331.9072,-250.7439"/>
</g>
<!-- Node42 -->
<g id="node43" class="node">
<title>Node42</title>
<polygon fill="none" stroke="#bfbfbf" points="2422.5,-224.5 2422.5,-243.5 2538.5,-243.5 2538.5,-224.5 2422.5,-224.5"/>
<text text-anchor="middle" x="2480.5" y="-231.5" font-family="Helvetica,sans-Serif" font-size="10.00" fill="#000000">arrow/util/visibility.h</text>
</g>
<!-- Node0&#45;&gt;Node42 -->
<g id="edge61" class="edge">
<title>Node0&#45;&gt;Node42</title>
<path fill="none" stroke="#191970" d="M2264.1273,-289.0422C2316.4537,-275.7311 2387.1488,-257.7472 2433.2717,-246.0142"/>
<polygon fill="#191970" stroke="#191970" points="2434.1822,-249.3942 2443.0106,-243.5368 2432.4564,-242.6102 2434.1822,-249.3942"/>
</g>
<!-- Node3 -->
<g id="node4" class="node">
<title>Node3</title>
<g id="a_node4"><a xlink:href="../../de/d33/ASoA_8h.html" target="_top" xlink:title="Framework/ASoA.h">
<polygon fill="none" stroke="#000000" points="1261.5,-168.5 1261.5,-187.5 1369.5,-187.5 1369.5,-168.5 1261.5,-168.5"/>
<text text-anchor="middle" x="1315.5" y="-175.5" font-family="Helvetica,sans-Serif" font-size="10.00" fill="#000000">Framework/ASoA.h</text>
</a>
</g>
</g>
<!-- Node2&#45;&gt;Node3 -->
<g id="edge3" class="edge">
<title>Node2&#45;&gt;Node3</title>
<path fill="none" stroke="#191970" d="M1536.0752,-224.4369C1490.2645,-214.7925 1419.5002,-199.8948 1370.5325,-189.5858"/>
<polygon fill="#191970" stroke="#191970" points="1371.244,-186.1589 1360.7374,-187.5237 1369.8019,-193.0088 1371.244,-186.1589"/>
</g>
<!-- Node9 -->
<g id="node10" class="node">
<title>Node9</title>
<g id="a_node10"><a xlink:href="../../de/d9b/FunctionalHelpers_8h.html" target="_top" xlink:title="Framework/FunctionalHelpers.h">
<polygon fill="none" stroke="#000000" points="1736.5,-112.5 1736.5,-131.5 1906.5,-131.5 1906.5,-112.5 1736.5,-112.5"/>
<text text-anchor="middle" x="1821.5" y="-119.5" font-family="Helvetica,sans-Serif" font-size="10.00" fill="#000000">Framework/FunctionalHelpers.h</text>
</a>
</g>
</g>
<!-- Node2&#45;&gt;Node9 -->
<g id="edge46" class="edge">
<title>Node2&#45;&gt;Node9</title>
<path fill="none" stroke="#191970" d="M1652.7035,-227.721C1735.3062,-219.7023 1862.0887,-204.8327 1876.5,-188 1891.3537,-170.6507 1868.7603,-150.4429 1848.2031,-137.0034"/>
<polygon fill="#191970" stroke="#191970" points="1849.9753,-133.984 1839.6327,-131.686 1846.2849,-139.9322 1849.9753,-133.984"/>
</g>
<!-- Node10 -->
<g id="node11" class="node">
<title>Node10</title>
<polygon fill="none" stroke="#bfbfbf" points="2043,-56.5 2043,-75.5 2108,-75.5 2108,-56.5 2043,-56.5"/>
<text text-anchor="middle" x="2075.5" y="-63.5" font-family="Helvetica,sans-Serif" font-size="10.00" fill="#000000">functional</text>
</g>
<!-- Node2&#45;&gt;Node10 -->
<g id="edge54" class="edge">
<title>Node2&#45;&gt;Node10</title>
<path fill="none" stroke="#191970" d="M1652.8381,-229.2878C1731.8198,-223.0649 1853.3049,-210.2108 1893.5,-188 1932.4025,-166.5035 1922.2981,-137.7862 1958.5,-112 1980.9772,-95.9897 2009.7919,-84.5733 2033.2009,-77.1185"/>
<polygon fill="#191970" stroke="#191970" points="2034.3276,-80.434 2042.8681,-74.1642 2032.2818,-73.7396 2034.3276,-80.434"/>
</g>
<!-- Node19 -->
<g id="node20" class="node">
<title>Node19</title>
<polygon fill="none" stroke="#bfbfbf" points="1821,-56.5 1821,-75.5 1902,-75.5 1902,-56.5 1821,-56.5"/>
<text text-anchor="middle" x="1861.5" y="-63.5" font-family="Helvetica,sans-Serif" font-size="10.00" fill="#000000">arrow/table.h</text>
</g>
<!-- Node2&#45;&gt;Node19 -->
<g id="edge52" class="edge">
<title>Node2&#45;&gt;Node19</title>
<path fill="none" stroke="#191970" d="M1510.3217,-228.3588C1452.6641,-221.0433 1385.674,-204.5601 1416.5,-168 1447.0205,-131.8022 1580.3123,-142.4152 1626.5,-132 1695.8238,-116.3677 1775.1644,-92.8947 1821.6515,-78.5612"/>
<polygon fill="#191970" stroke="#191970" points="1822.8208,-81.8632 1831.337,-75.5604 1820.7491,-75.1767 1822.8208,-81.8632"/>
</g>
<!-- Node2&#45;&gt;Node26 -->
<g id="edge56" class="edge">
<title>Node2&#45;&gt;Node26</title>
<path fill="none" stroke="#191970" d="M1652.5248,-229.873C1737.5788,-223.9792 1874.2468,-211.2062 1919.5,-188 1960.9024,-166.7685 1951.746,-136.1777 1991.5,-112 2040.8956,-81.9584 2061.1277,-92.6232 2116.5,-76 2116.601,-75.9697 2116.7023,-75.9393 2116.8036,-75.9088"/>
<polygon fill="#191970" stroke="#191970" points="2117.9451,-79.2198 2126.486,-72.9507 2115.8997,-72.5253 2117.9451,-79.2198"/>
</g>
<!-- Node27 -->
<g id="node28" class="node">
<title>Node27</title>
<polygon fill="none" stroke="#bfbfbf" points="233.5,-56.5 233.5,-75.5 291.5,-75.5 291.5,-56.5 233.5,-56.5"/>
<text text-anchor="middle" x="262.5" y="-63.5" font-family="Helvetica,sans-Serif" font-size="10.00" fill="#000000">memory</text>
</g>
<!-- Node2&#45;&gt;Node27 -->
<g id="edge57" class="edge">
<title>Node2&#45;&gt;Node27</title>
<path fill="none" stroke="#191970" d="M1510.3913,-232.6453C1376.0439,-229.3906 1090.0119,-218.9523 996.5,-188 981.4278,-183.0111 890.6115,-116.8686 875.5,-112 634.9937,-34.5145 555.3868,-114.6074 302.0833,-75.9384"/>
<polygon fill="#191970" stroke="#191970" points="302.2602,-72.4232 291.8373,-74.3243 301.1708,-79.3379 302.2602,-72.4232"/>
</g>
<!-- Node33 -->
<g id="node34" class="node">
<title>Node33</title>
<g id="a_node34"><a xlink:href="../../db/d4f/StructToTuple_8h.html" target="_top" xlink:title="Framework/StructToTuple.h">
<polygon fill="none" stroke="#000000" points="667,-168.5 667,-187.5 814,-187.5 814,-168.5 667,-168.5"/>
<text text-anchor="middle" x="740.5" y="-175.5" font-family="Helvetica,sans-Serif" font-size="10.00" fill="#000000">Framework/StructToTuple.h</text>
</a>
</g>
</g>
<!-- Node2&#45;&gt;Node33 -->
<g id="edge42" class="edge">
<title>Node2&#45;&gt;Node33</title>
<path fill="none" stroke="#191970" d="M1510.4861,-230.5475C1378.1781,-223.9052 1085.0069,-208.1996 838.5,-188 833.794,-187.6144 828.9631,-187.1956 824.0891,-186.7553"/>
<polygon fill="#191970" stroke="#191970" points="824.3305,-183.2628 814.0502,-185.8252 823.6846,-190.2329 824.3305,-183.2628"/>
</g>
<!-- Node34 -->
<g id="node35" class="node">
<title>Node34</title>
<polygon fill="none" stroke="#bfbfbf" points="699,-112.5 699,-131.5 740,-131.5 740,-112.5 699,-112.5"/>
<text text-anchor="middle" x="719.5" y="-119.5" font-family="Helvetica,sans-Serif" font-size="10.00" fill="#000000">tuple</text>
</g>
<!-- Node2&#45;&gt;Node34 -->
<g id="edge58" class="edge">
<title>Node2&#45;&gt;Node34</title>
<path fill="none" stroke="#191970" d="M1510.4081,-232.217C1357.0724,-227.9013 999.5926,-215.1836 881.5,-188 855.4443,-182.0023 788.5928,-153.0321 749.3909,-135.5279"/>
<polygon fill="#191970" stroke="#191970" points="750.6185,-132.2427 740.0617,-131.3457 747.755,-138.6302 750.6185,-132.2427"/>
</g>
<!-- Node35 -->
<g id="node36" class="node">
<title>Node35</title>
<g id="a_node36"><a xlink:href="../../d7/dbe/VariantHelpers_8h.html" target="_top" xlink:title="Framework/VariantHelpers.h">
<polygon fill="none" stroke="#000000" points="1006,-168.5 1006,-187.5 1161,-187.5 1161,-168.5 1006,-168.5"/>
<text text-anchor="middle" x="1083.5" y="-175.5" font-family="Helvetica,sans-Serif" font-size="10.00" fill="#000000">Framework/VariantHelpers.h</text>
</a>
</g>
</g>
<!-- Node2&#45;&gt;Node35 -->
<g id="edge47" class="edge">
<title>Node2&#45;&gt;Node35</title>
<path fill="none" stroke="#191970" d="M1510.4134,-226.0063C1421.1262,-215.966 1267.951,-198.7415 1171.4005,-187.8844"/>
<polygon fill="#191970" stroke="#191970" points="1171.6966,-184.3957 1161.3681,-186.7562 1170.9143,-191.3519 1171.6966,-184.3957"/>
</g>
<!-- Node36 -->
<g id="node37" class="node">
<title>Node36</title>
<polygon fill="none" stroke="#bfbfbf" points="1426,-168.5 1426,-187.5 1535,-187.5 1535,-168.5 1426,-168.5"/>
<text text-anchor="middle" x="1480.5" y="-175.5" font-family="Helvetica,sans-Serif" font-size="10.00" fill="#000000">arrow/type_traits.h</text>
</g>
<!-- Node2&#45;&gt;Node36 -->
<g id="edge49" class="edge">
<title>Node2&#45;&gt;Node36</title>
<path fill="none" stroke="#191970" d="M1563.9071,-224.2455C1548.121,-215.4928 1524.7361,-202.527 1506.7413,-192.5496"/>
<polygon fill="#191970" stroke="#191970" points="1508.3341,-189.4308 1497.8913,-187.6427 1504.9397,-195.5528 1508.3341,-189.4308"/>
</g>
<!-- Node37 -->
<g id="node38" class="node">
<title>Node37</title>
<polygon fill="none" stroke="#bfbfbf" points="1553.5,-168.5 1553.5,-187.5 1609.5,-187.5 1609.5,-168.5 1553.5,-168.5"/>
<text text-anchor="middle" x="1581.5" y="-175.5" font-family="Helvetica,sans-Serif" font-size="10.00" fill="#000000">sstream</text>
</g>
<!-- Node2&#45;&gt;Node37 -->
<g id="edge50" class="edge">
<title>Node2&#45;&gt;Node37</title>
<path fill="none" stroke="#191970" d="M1581.5,-224.2455C1581.5,-216.9382 1581.5,-206.6944 1581.5,-197.7046"/>
<polygon fill="#191970" stroke="#191970" points="1585.0001,-197.6426 1581.5,-187.6427 1578.0001,-197.6427 1585.0001,-197.6426"/>
</g>
<!-- Node38 -->
<g id="node39" class="node">
<title>Node38</title>
<polygon fill="none" stroke="#bfbfbf" points="1627.5,-168.5 1627.5,-187.5 1695.5,-187.5 1695.5,-168.5 1627.5,-168.5"/>
<text text-anchor="middle" x="1661.5" y="-175.5" font-family="Helvetica,sans-Serif" font-size="10.00" fill="#000000">arrow/stl.h</text>
</g>
<!-- Node2&#45;&gt;Node38 -->
<g id="edge51" class="edge">
<title>Node2&#45;&gt;Node38</title>
<path fill="none" stroke="#191970" d="M1595.4349,-224.2455C1607.5947,-215.7337 1625.4464,-203.2375 1639.5285,-193.3801"/>
<polygon fill="#191970" stroke="#191970" points="1641.5395,-196.2447 1647.7248,-187.6427 1637.5253,-190.51 1641.5395,-196.2447"/>
</g>
<!-- Node39 -->
<g id="node40" class="node">
<title>Node39</title>
<polygon fill="none" stroke="#bfbfbf" points="1714,-168.5 1714,-187.5 1803,-187.5 1803,-168.5 1714,-168.5"/>
<text text-anchor="middle" x="1758.5" y="-175.5" font-family="Helvetica,sans-Serif" font-size="10.00" fill="#000000">arrow/builder.h</text>
</g>
<!-- Node2&#45;&gt;Node39 -->
<g id="edge53" class="edge">
<title>Node2&#45;&gt;Node39</title>
<path fill="none" stroke="#191970" d="M1611.9274,-224.3733C1641.4872,-215.021 1686.5226,-200.7725 1718.8695,-190.5385"/>
<polygon fill="#191970" stroke="#191970" points="1719.9913,-193.8546 1728.4697,-187.5011 1717.8797,-187.1807 1719.9913,-193.8546"/>
</g>
<!-- Node40 -->
<g id="node41" class="node">
<title>Node40</title>
<polygon fill="none" stroke="#bfbfbf" points="1821,-168.5 1821,-187.5 1868,-187.5 1868,-168.5 1821,-168.5"/>
<text text-anchor="middle" x="1844.5" y="-175.5" font-family="Helvetica,sans-Serif" font-size="10.00" fill="#000000">vector</text>
</g>
<!-- Node2&#45;&gt;Node40 -->
<g id="edge55" class="edge">
<title>Node2&#45;&gt;Node40</title>
<path fill="none" stroke="#191970" d="M1637.1396,-224.4323C1681.6465,-216.425 1745.812,-204.0922 1810.7752,-187.9954"/>
<polygon fill="#191970" stroke="#191970" points="1811.9346,-191.3131 1820.7836,-185.4867 1810.2326,-184.5232 1811.9346,-191.3131"/>
</g>
<!-- Node4 -->
<g id="node5" class="node">
<title>Node4</title>
<g id="a_node5"><a xlink:href="../../dd/dce/Pack_8h.html" target="_top" xlink:title="Framework/Pack.h">
<polygon fill="none" stroke="#000000" points="1920,-56.5 1920,-75.5 2025,-75.5 2025,-56.5 1920,-56.5"/>
<text text-anchor="middle" x="1972.5" y="-63.5" font-family="Helvetica,sans-Serif" font-size="10.00" fill="#000000">Framework/Pack.h</text>
</a>
</g>
</g>
<!-- Node3&#45;&gt;Node4 -->
<g id="edge4" class="edge">
<title>Node3&#45;&gt;Node4</title>
<path fill="none" stroke="#191970" d="M1369.5635,-170.816C1431.7021,-162.3707 1536.6826,-147.5258 1626.5,-132 1671.5918,-124.2055 1682.5677,-120.6667 1727.5,-112 1789.9166,-99.9609 1861.362,-86.5939 1910.9285,-77.3859"/>
<polygon fill="#191970" stroke="#191970" points="1911.6581,-80.8104 1920.8513,-75.5438 1910.3804,-73.928 1911.6581,-80.8104"/>
</g>
<!-- Node8 -->
<g id="node9" class="node">
<title>Node8</title>
<g id="a_node9"><a xlink:href="../../d1/d00/CheckTypes_8h.html" target="_top" xlink:title="Framework/CheckTypes.h">
<polygon fill="none" stroke="#000000" points="491.5,-56.5 491.5,-75.5 631.5,-75.5 631.5,-56.5 491.5,-56.5"/>
<text text-anchor="middle" x="561.5" y="-63.5" font-family="Helvetica,sans-Serif" font-size="10.00" fill="#000000">Framework/CheckTypes.h</text>
</a>
</g>
</g>
<!-- Node3&#45;&gt;Node8 -->
<g id="edge8" class="edge">
<title>Node3&#45;&gt;Node8</title>
<path fill="none" stroke="#191970" d="M1261.0968,-171.9823C1215.2203,-165.6823 1148.4465,-153.6024 1093.5,-132 1077.5392,-125.725 1076.8052,-117.3164 1060.5,-112 885.509,-54.9435 828.7969,-94.3276 641.8553,-76.071"/>
<polygon fill="#191970" stroke="#191970" points="641.9976,-72.5675 631.6941,-75.0348 641.2874,-79.5313 641.9976,-72.5675"/>
</g>
<!-- Node3&#45;&gt;Node9 -->
<g id="edge9" class="edge">
<title>Node3&#45;&gt;Node9</title>
<path fill="none" stroke="#191970" d="M1369.6509,-172.007C1454.7363,-162.5904 1620.8799,-144.203 1726.2594,-132.5405"/>
<polygon fill="#191970" stroke="#191970" points="1726.7087,-136.0122 1736.263,-131.4333 1725.9386,-129.0547 1726.7087,-136.0122"/>
</g>
<!-- Node11 -->
<g id="node12" class="node">
<title>Node11</title>
<g id="a_node12"><a xlink:href="../../d9/de8/CompilerBuiltins_8h.html" target="_top" xlink:title="Framework/CompilerBuiltins.h">
<polygon fill="none" stroke="#000000" points="309.5,-56.5 309.5,-75.5 473.5,-75.5 473.5,-56.5 309.5,-56.5"/>
<text text-anchor="middle" x="391.5" y="-63.5" font-family="Helvetica,sans-Serif" font-size="10.00" fill="#000000">Framework/CompilerBuiltins.h</text>
</a>
</g>
</g>
<!-- Node3&#45;&gt;Node11 -->
<g id="edge12" class="edge">
<title>Node3&#45;&gt;Node11</title>
<path fill="none" stroke="#191970" d="M1261.2695,-175.2096C1195.8947,-170.738 1083.2502,-159.4738 990.5,-132 970.2908,-126.0138 967.8886,-117.3433 947.5,-112 750.1195,-60.2718 690.7329,-94.2242 483.7947,-76.0715"/>
<polygon fill="#191970" stroke="#191970" points="484.1032,-72.5852 473.8278,-75.1671 483.4706,-79.5565 484.1032,-72.5852"/>
</g>
<!-- Node12 -->
<g id="node13" class="node">
<title>Node12</title>
<g id="a_node13"><a xlink:href="../../db/d31/Traits_8h.html" target="_top" xlink:title="Framework/Traits.h">
<polygon fill="none" stroke="#000000" points="758,-112.5 758,-131.5 867,-131.5 867,-112.5 758,-112.5"/>
<text text-anchor="middle" x="812.5" y="-119.5" font-family="Helvetica,sans-Serif" font-size="10.00" fill="#000000">Framework/Traits.h</text>
</a>
</g>
</g>
<!-- Node3&#45;&gt;Node12 -->
<g id="edge13" class="edge">
<title>Node3&#45;&gt;Node12</title>
<path fill="none" stroke="#191970" d="M1261.1923,-171.9538C1167.865,-161.5635 977.4524,-140.3645 877.332,-129.2179"/>
<polygon fill="#191970" stroke="#191970" points="877.6696,-125.7339 867.3437,-128.1059 876.895,-132.6909 877.6696,-125.7339"/>
</g>
<!-- Node14 -->
<g id="node15" class="node">
<title>Node14</title>
<g id="a_node15"><a xlink:href="../../d0/d91/Expressions_8h.html" target="_top" xlink:title="Framework/Expressions.h">
<polygon fill="none" stroke="#000000" points="1146,-112.5 1146,-131.5 1287,-131.5 1287,-112.5 1146,-112.5"/>
<text text-anchor="middle" x="1216.5" y="-119.5" font-family="Helvetica,sans-Serif" font-size="10.00" fill="#000000">Framework/Expressions.h</text>
</a>
</g>
</g>
<!-- Node3&#45;&gt;Node14 -->
<g id="edge15" class="edge">
<title>Node3&#45;&gt;Node14</title>
<path fill="none" stroke="#191970" d="M1298.2555,-168.2455C1282.9239,-159.5731 1260.2801,-146.7645 1242.7084,-136.825"/>
<polygon fill="#191970" stroke="#191970" points="1243.9741,-133.5198 1233.5469,-131.6427 1240.5276,-139.6126 1243.9741,-133.5198"/>
</g>
<!-- Node3&#45;&gt;Node19 -->
<g id="edge35" class="edge">
<title>Node3&#45;&gt;Node19</title>
<path fill="none" stroke="#191970" d="M1369.5552,-169.7592C1443.6038,-158.3474 1569.8091,-138.4128 1590.5,-132 1610.6324,-125.7603 1613.4744,-118.5745 1633.5,-112 1635.6297,-111.3008 1744.5766,-89.4248 1811.0803,-76.0966"/>
<polygon fill="#191970" stroke="#191970" points="1811.849,-79.5123 1820.9664,-74.1156 1810.4736,-72.6487 1811.849,-79.5123"/>
</g>
<!-- Node20 -->
<g id="node21" class="node">
<title>Node20</title>
<polygon fill="none" stroke="#bfbfbf" points="650,-56.5 650,-75.5 797,-75.5 797,-56.5 650,-56.5"/>
<text text-anchor="middle" x="723.5" y="-63.5" font-family="Helvetica,sans-Serif" font-size="10.00" fill="#000000">gandiva/selection_vector.h</text>
</g>
<!-- Node3&#45;&gt;Node20 -->
<g id="edge39" class="edge">
<title>Node3&#45;&gt;Node20</title>
<path fill="none" stroke="#191970" d="M1268.8105,-168.4743C1232.2717,-160.4308 1180.4589,-147.7206 1136.5,-132 1116.6537,-124.9026 1113.7591,-117.8151 1093.5,-112 1090.0672,-111.0147 915.3825,-89.509 807.2922,-76.256"/>
<polygon fill="#191970" stroke="#191970" points="807.3993,-72.743 797.0477,-75.0002 806.5475,-79.691 807.3993,-72.743"/>
</g>
<!-- Node24 -->
<g id="node25" class="node">
<title>Node24</title>
<polygon fill="none" stroke="#bfbfbf" points="1605,-56.5 1605,-75.5 1684,-75.5 1684,-56.5 1605,-56.5"/>
<text text-anchor="middle" x="1644.5" y="-63.5" font-family="Helvetica,sans-Serif" font-size="10.00" fill="#000000">fmt/format.h</text>
</g>
<!-- Node3&#45;&gt;Node24 -->
<g id="edge41" class="edge">
<title>Node3&#45;&gt;Node24</title>
<path fill="none" stroke="#191970" d="M1315.233,-168.2054C1315.4134,-153.5723 1318.0963,-126.2076 1334.5,-112 1376.6823,-75.4649 1523.13,-84.827 1594.9301,-75.7733"/>
<polygon fill="#191970" stroke="#191970" points="1595.5772,-79.2159 1604.9606,-74.2963 1594.5574,-72.2906 1595.5772,-79.2159"/>
</g>
<!-- Node28 -->
<g id="node29" class="node">
<title>Node28</title>
<g id="a_node29"><a xlink:href="../../d4/de7/ArrowTypes_8h.html" target="_top" xlink:title="Framework/ArrowTypes.h">
<polygon fill="none" stroke="#000000" points="1344,-112.5 1344,-131.5 1483,-131.5 1483,-112.5 1344,-112.5"/>
<text text-anchor="middle" x="1413.5" y="-119.5" font-family="Helvetica,sans-Serif" font-size="10.00" fill="#000000">Framework/ArrowTypes.h</text>
</a>
</g>
</g>
<!-- Node3&#45;&gt;Node28 -->
<g id="edge33" class="edge">
<title>Node3&#45;&gt;Node28</title>
<path fill="none" stroke="#191970" d="M1332.5703,-168.2455C1347.747,-159.5731 1370.1621,-146.7645 1387.5563,-136.825"/>
<polygon fill="#191970" stroke="#191970" points="1389.6794,-139.643 1396.6253,-131.6427 1386.2064,-133.5653 1389.6794,-139.643"/>
</g>
<!-- Node29 -->
<g id="node30" class="node">
<title>Node29</title>
<polygon fill="none" stroke="#bfbfbf" points="1501.5,-112.5 1501.5,-131.5 1581.5,-131.5 1581.5,-112.5 1501.5,-112.5"/>
<text text-anchor="middle" x="1541.5" y="-119.5" font-family="Helvetica,sans-Serif" font-size="10.00" fill="#000000">arrow/array.h</text>
</g>
<!-- Node3&#45;&gt;Node29 -->
<g id="edge36" class="edge">
<title>Node3&#45;&gt;Node29</title>
<path fill="none" stroke="#191970" d="M1354.094,-168.4369C1392.5284,-158.9133 1451.636,-144.2672 1493.171,-133.9753"/>
<polygon fill="#191970" stroke="#191970" points="1494.2006,-137.3261 1503.0652,-131.5237 1492.5169,-130.5316 1494.2006,-137.3261"/>
</g>
<!-- Node3&#45;&gt;Node30 -->
<g id="edge37" class="edge">
<title>Node3&#45;&gt;Node30</title>
<path fill="none" stroke="#191970" d="M1369.7265,-172.3609C1384.8588,-170.8608 1401.3137,-169.2982 1416.5,-168 1430.6649,-166.7891 1829.9998,-138.1563 1990.0662,-126.6872"/>
<polygon fill="#191970" stroke="#191970" points="1990.5326,-130.1629 2000.2568,-125.9571 1990.0322,-123.1808 1990.5326,-130.1629"/>
</g>
<!-- Node3&#45;&gt;Node31 -->
<g id="edge38" class="edge">
<title>Node3&#45;&gt;Node31</title>
<path fill="none" stroke="#191970" d="M1369.7099,-172.1541C1384.8421,-170.6525 1401.3011,-169.1409 1416.5,-168 1725.1248,-144.8325 1806.2064,-160.0932 2118.5481,-132.0114"/>
<polygon fill="#191970" stroke="#191970" points="2119.1625,-135.4701 2128.8054,-131.0811 2118.5302,-128.4987 2119.1625,-135.4701"/>
</g>
<!-- Node32 -->
<g id="node33" class="node">
<title>Node32</title>
<polygon fill="none" stroke="#bfbfbf" points="999.5,-112.5 999.5,-131.5 1051.5,-131.5 1051.5,-112.5 999.5,-112.5"/>
<text text-anchor="middle" x="1025.5" y="-119.5" font-family="Helvetica,sans-Serif" font-size="10.00" fill="#000000">cassert</text>
</g>
<!-- Node3&#45;&gt;Node32 -->
<g id="edge40" class="edge">
<title>Node3&#45;&gt;Node32</title>
<path fill="none" stroke="#191970" d="M1261.1718,-169.0199C1210.3981,-160.3871 1132.5666,-146.5383 1065.5,-132 1064.2408,-131.727 1062.9609,-131.443 1061.6694,-131.1508"/>
<polygon fill="#191970" stroke="#191970" points="1062.2309,-127.6873 1051.6947,-128.7997 1060.6249,-134.5006 1062.2309,-127.6873"/>
</g>
<!-- Node5 -->
<g id="node6" class="node">
<title>Node5</title>
<polygon fill="none" stroke="#bfbfbf" points="1879,-.5 1879,-19.5 1932,-19.5 1932,-.5 1879,-.5"/>
<text text-anchor="middle" x="1905.5" y="-7.5" font-family="Helvetica,sans-Serif" font-size="10.00" fill="#000000">cstddef</text>
</g>
<!-- Node4&#45;&gt;Node5 -->
<g id="edge5" class="edge">
<title>Node4&#45;&gt;Node5</title>
<path fill="none" stroke="#191970" d="M1960.8295,-56.2455C1950.9339,-47.9746 1936.5373,-35.9416 1924.9099,-26.2232"/>
<polygon fill="#191970" stroke="#191970" points="1926.9542,-23.3703 1917.0368,-19.6427 1922.465,-28.7413 1926.9542,-23.3703"/>
</g>
<!-- Node6 -->
<g id="node7" class="node">
<title>Node6</title>
<polygon fill="none" stroke="#bfbfbf" points="1950,-.5 1950,-19.5 1995,-19.5 1995,-.5 1950,-.5"/>
<text text-anchor="middle" x="1972.5" y="-7.5" font-family="Helvetica,sans-Serif" font-size="10.00" fill="#000000">utility</text>
</g>
<!-- Node4&#45;&gt;Node6 -->
<g id="edge6" class="edge">
<title>Node4&#45;&gt;Node6</title>
<path fill="none" stroke="#191970" d="M1972.5,-56.2455C1972.5,-48.9382 1972.5,-38.6944 1972.5,-29.7046"/>
<polygon fill="#191970" stroke="#191970" points="1976.0001,-29.6426 1972.5,-19.6427 1969.0001,-29.6427 1976.0001,-29.6426"/>
</g>
<!-- Node7 -->
<g id="node8" class="node">
<title>Node7</title>
<polygon fill="none" stroke="#bfbfbf" points="2013.5,-.5 2013.5,-19.5 2059.5,-19.5 2059.5,-.5 2013.5,-.5"/>
<text text-anchor="middle" x="2036.5" y="-7.5" font-family="Helvetica,sans-Serif" font-size="10.00" fill="#000000">cstdio</text>
</g>
<!-- Node4&#45;&gt;Node7 -->
<g id="edge7" class="edge">
<title>Node4&#45;&gt;Node7</title>
<path fill="none" stroke="#191970" d="M1983.6479,-56.2455C1993.0087,-48.0549 2006.5858,-36.1749 2017.6349,-26.5069"/>
<polygon fill="#191970" stroke="#191970" points="2020.2588,-28.8618 2025.4798,-19.6427 2015.6492,-23.5937 2020.2588,-28.8618"/>
</g>
<!-- Node9&#45;&gt;Node4 -->
<g id="edge10" class="edge">
<title>Node9&#45;&gt;Node4</title>
<path fill="none" stroke="#191970" d="M1847.4578,-112.3733C1872.2407,-103.1822 1909.7746,-89.2624 1937.254,-79.0713"/>
<polygon fill="#191970" stroke="#191970" points="1938.7219,-82.26 1946.8809,-75.5011 1936.2879,-75.6968 1938.7219,-82.26"/>
</g>
<!-- Node9&#45;&gt;Node10 -->
<g id="edge11" class="edge">
<title>Node9&#45;&gt;Node10</title>
<path fill="none" stroke="#191970" d="M1866.6364,-112.4806C1907.4976,-103.8011 1969.5961,-90.458 2033.158,-76.0445"/>
<polygon fill="#191970" stroke="#191970" points="2033.9806,-79.4468 2042.9557,-73.8167 2032.4286,-72.621 2033.9806,-79.4468"/>
</g>
<!-- Node13 -->
<g id="node14" class="node">
<title>Node13</title>
<polygon fill="none" stroke="#bfbfbf" points="0,-56.5 0,-75.5 69,-75.5 69,-56.5 0,-56.5"/>
<text text-anchor="middle" x="34.5" y="-63.5" font-family="Helvetica,sans-Serif" font-size="10.00" fill="#000000">type_traits</text>
</g>
<!-- Node12&#45;&gt;Node13 -->
<g id="edge14" class="edge">
<title>Node12&#45;&gt;Node13</title>
<path fill="none" stroke="#191970" d="M757.735,-113.0694C754.6147,-112.677 751.5199,-112.3162 748.5,-112 455.2452,-81.2908 375.6295,-116.3871 79.6356,-75.9182"/>
<polygon fill="#191970" stroke="#191970" points="79.8511,-72.4148 69.4655,-74.5098 78.8908,-79.3486 79.8511,-72.4148"/>
</g>
<!-- Node14&#45;&gt;Node1 -->
<g id="edge16" class="edge">
<title>Node14&#45;&gt;Node1</title>
<path fill="none" stroke="#191970" d="M1145.8501,-117.1563C1119.1182,-115.4064 1088.4131,-113.4955 1060.5,-112 692.4874,-92.2832 596.6334,-108.9658 225.7667,-76.0313"/>
<polygon fill="#191970" stroke="#191970" points="225.8278,-72.5229 215.5558,-75.1182 225.2042,-79.495 225.8278,-72.5229"/>
</g>
<!-- Node14&#45;&gt;Node4 -->
<g id="edge18" class="edge">
<title>Node14&#45;&gt;Node4</title>
<path fill="none" stroke="#191970" d="M1287.3011,-115.7435C1302.8463,-114.4414 1319.2245,-113.1245 1334.5,-112 1587.0598,-93.4081 1653.8956,-104.1736 1909.8158,-75.9689"/>
<polygon fill="#191970" stroke="#191970" points="1910.2304,-79.4444 1919.7827,-74.8614 1909.4573,-72.4872 1910.2304,-79.4444"/>
</g>
<!-- Node14&#45;&gt;Node8 -->
<g id="edge19" class="edge">
<title>Node14&#45;&gt;Node8</title>
<path fill="none" stroke="#191970" d="M1145.9297,-116.2404C1128.7729,-114.8463 1110.4778,-113.3648 1093.5,-112 895.4252,-96.0777 843.0812,-96.6636 641.7068,-76.0856"/>
<polygon fill="#191970" stroke="#191970" points="641.9969,-72.5971 631.6917,-75.0574 641.282,-79.5605 641.9969,-72.5971"/>
</g>
<!-- Node14&#45;&gt;Node11 -->
<g id="edge17" class="edge">
<title>Node14&#45;&gt;Node11</title>
<path fill="none" stroke="#191970" d="M1145.8333,-117.4429C1119.0995,-115.7261 1088.3974,-113.7629 1060.5,-112 806.8868,-95.9734 740.6127,-98.0083 483.8239,-76.0806"/>
<polygon fill="#191970" stroke="#191970" points="484.0854,-72.5903 473.8228,-75.2227 483.4871,-79.5646 484.0854,-72.5903"/>
</g>
<!-- Node15 -->
<g id="node16" class="node">
<title>Node15</title>
<polygon fill="none" stroke="#bfbfbf" points="1702,-56.5 1702,-75.5 1803,-75.5 1803,-56.5 1702,-56.5"/>
<text text-anchor="middle" x="1752.5" y="-63.5" font-family="Helvetica,sans-Serif" font-size="10.00" fill="#000000">arrow/type_fwd.h</text>
</g>
<!-- Node14&#45;&gt;Node15 -->
<g id="edge20" class="edge">
<title>Node14&#45;&gt;Node15</title>
<path fill="none" stroke="#191970" d="M1287.0896,-115.7803C1395.752,-106.1079 1600.1525,-87.5003 1691.7249,-75.9994"/>
<polygon fill="#191970" stroke="#191970" points="1692.3266,-79.4509 1701.7976,-74.7023 1691.4325,-72.5083 1692.3266,-79.4509"/>
</g>
<!-- Node16 -->
<g id="node17" class="node">
<title>Node16</title>
<polygon fill="none" stroke="#bfbfbf" points="1013.5,-56.5 1013.5,-75.5 1159.5,-75.5 1159.5,-56.5 1013.5,-56.5"/>
<text text-anchor="middle" x="1086.5" y="-63.5" font-family="Helvetica,sans-Serif" font-size="10.00" fill="#000000">gandiva/gandiva_aliases.h</text>
</g>
<!-- Node14&#45;&gt;Node16 -->
<g id="edge21" class="edge">
<title>Node14&#45;&gt;Node16</title>
<path fill="none" stroke="#191970" d="M1194.1522,-112.3733C1173.0967,-103.3032 1141.3505,-89.6279 1117.7825,-79.4755"/>
<polygon fill="#191970" stroke="#191970" points="1119.125,-76.243 1108.5562,-75.5011 1116.3556,-82.6719 1119.125,-76.243"/>
</g>
<!-- Node17 -->
<g id="node18" class="node">
<title>Node17</title>
<polygon fill="none" stroke="#bfbfbf" points="1177.5,-56.5 1177.5,-75.5 1255.5,-75.5 1255.5,-56.5 1177.5,-56.5"/>
<text text-anchor="middle" x="1216.5" y="-63.5" font-family="Helvetica,sans-Serif" font-size="10.00" fill="#000000">arrow/type.h</text>
</g>
<!-- Node14&#45;&gt;Node17 -->
<g id="edge22" class="edge">
<title>Node14&#45;&gt;Node17</title>
<path fill="none" stroke="#191970" d="M1216.5,-112.2455C1216.5,-104.9382 1216.5,-94.6944 1216.5,-85.7046"/>
<polygon fill="#191970" stroke="#191970" points="1220.0001,-85.6426 1216.5,-75.6427 1213.0001,-85.6427 1220.0001,-85.6426"/>
</g>
<!-- Node18 -->
<g id="node19" class="node">
<title>Node18</title>
<polygon fill="none" stroke="#bfbfbf" points="1274,-56.5 1274,-75.5 1369,-75.5 1369,-56.5 1274,-56.5"/>
<text text-anchor="middle" x="1321.5" y="-63.5" font-family="Helvetica,sans-Serif" font-size="10.00" fill="#000000">gandiva/arrow.h</text>
</g>
<!-- Node14&#45;&gt;Node18 -->
<g id="edge23" class="edge">
<title>Node14&#45;&gt;Node18</title>
<path fill="none" stroke="#191970" d="M1234.7896,-112.2455C1251.2762,-103.4527 1275.7352,-90.4079 1294.4765,-80.4125"/>
<polygon fill="#191970" stroke="#191970" points="1296.2435,-83.4368 1303.42,-75.6427 1292.9494,-77.2604 1296.2435,-83.4368"/>
</g>
<!-- Node14&#45;&gt;Node19 -->
<g id="edge24" class="edge">
<title>Node14&#45;&gt;Node19</title>
<path fill="none" stroke="#191970" d="M1287.3125,-115.8921C1302.8571,-114.5812 1319.232,-113.2231 1334.5,-112 1543.1127,-95.2887 1599.1308,-104.5991 1810.7168,-75.9422"/>
<polygon fill="#191970" stroke="#191970" points="1811.4774,-79.3709 1820.9111,-74.5487 1810.5292,-72.4354 1811.4774,-79.3709"/>
</g>
<!-- Node14&#45;&gt;Node20 -->
<g id="edge25" class="edge">
<title>Node14&#45;&gt;Node20</title>
<path fill="none" stroke="#191970" d="M1145.543,-113.6156C1140.791,-113.0654 1136.0765,-112.5227 1131.5,-112 990.3538,-95.8801 952.5488,-92.8255 807.4371,-76.0991"/>
<polygon fill="#191970" stroke="#191970" points="807.5974,-72.5945 797.2619,-74.9242 806.7944,-79.5482 807.5974,-72.5945"/>
</g>
<!-- Node21 -->
<g id="node22" class="node">
<title>Node21</title>
<polygon fill="none" stroke="#bfbfbf" points="1387.5,-56.5 1387.5,-75.5 1479.5,-75.5 1479.5,-56.5 1387.5,-56.5"/>
<text text-anchor="middle" x="1433.5" y="-63.5" font-family="Helvetica,sans-Serif" font-size="10.00" fill="#000000">gandiva/node.h</text>
</g>
<!-- Node14&#45;&gt;Node21 -->
<g id="edge26" class="edge">
<title>Node14&#45;&gt;Node21</title>
<path fill="none" stroke="#191970" d="M1253.8036,-112.3733C1290.6685,-102.8598 1347.166,-88.2797 1386.9506,-78.0127"/>
<polygon fill="#191970" stroke="#191970" points="1387.875,-81.3889 1396.6831,-75.5011 1386.1258,-74.611 1387.875,-81.3889"/>
</g>
<!-- Node22 -->
<g id="node23" class="node">
<title>Node22</title>
<polygon fill="none" stroke="#bfbfbf" points="1498,-56.5 1498,-75.5 1587,-75.5 1587,-56.5 1498,-56.5"/>
<text text-anchor="middle" x="1542.5" y="-63.5" font-family="Helvetica,sans-Serif" font-size="10.00" fill="#000000">gandiva/filter.h</text>
</g>
<!-- Node14&#45;&gt;Node22 -->
<g id="edge27" class="edge">
<title>Node14&#45;&gt;Node22</title>
<path fill="none" stroke="#191970" d="M1274.3813,-112.4796C1327.2174,-103.7281 1407.7568,-90.2363 1487.496,-76.1573"/>
<polygon fill="#191970" stroke="#191970" points="1488.4836,-79.537 1497.7207,-74.348 1487.2637,-72.6441 1488.4836,-79.537"/>
</g>
<!-- Node23 -->
<g id="node24" class="node">
<title>Node23</title>
<polygon fill="none" stroke="#bfbfbf" points="815.5,-56.5 815.5,-75.5 925.5,-75.5 925.5,-56.5 815.5,-56.5"/>
<text text-anchor="middle" x="870.5" y="-63.5" font-family="Helvetica,sans-Serif" font-size="10.00" fill="#000000">gandiva/projector.h</text>
</g>
<!-- Node14&#45;&gt;Node23 -->
<g id="edge28" class="edge">
<title>Node14&#45;&gt;Node23</title>
<path fill="none" stroke="#191970" d="M1157.4136,-112.4369C1095.7635,-102.4588 999.3703,-86.8576 935.5767,-76.5326"/>
<polygon fill="#191970" stroke="#191970" points="936.0592,-73.0653 925.6284,-74.9225 934.9407,-79.9753 936.0592,-73.0653"/>
</g>
<!-- Node14&#45;&gt;Node24 -->
<g id="edge29" class="edge">
<title>Node14&#45;&gt;Node24</title>
<path fill="none" stroke="#191970" d="M1287.2952,-113.5566C1383.512,-102.0617 1548.1497,-82.3165 1594.9045,-75.8364"/>
<polygon fill="#191970" stroke="#191970" points="1595.5876,-79.2736 1604.9699,-74.3519 1594.5662,-72.3485 1595.5876,-79.2736"/>
</g>
<!-- Node25 -->
<g id="node26" class="node">
<title>Node25</title>
<polygon fill="none" stroke="#bfbfbf" points="944,-56.5 944,-75.5 995,-75.5 995,-56.5 944,-56.5"/>
<text text-anchor="middle" x="969.5" y="-63.5" font-family="Helvetica,sans-Serif" font-size="10.00" fill="#000000">variant</text>
</g>
<!-- Node14&#45;&gt;Node25 -->
<g id="edge30" class="edge">
<title>Node14&#45;&gt;Node25</title>
<path fill="none" stroke="#191970" d="M1168.3015,-112.467C1127.3864,-104.1662 1066.9145,-91.4095 1005.008,-76.0047"/>
<polygon fill="#191970" stroke="#191970" points="1005.6139,-72.5484 995.0628,-73.5099 1003.9106,-79.338 1005.6139,-72.5484"/>
</g>
<!-- Node14&#45;&gt;Node26 -->
<g id="edge31" class="edge">
<title>Node14&#45;&gt;Node26</title>
<path fill="none" stroke="#191970" d="M1287.2879,-115.5544C1302.834,-114.2636 1319.2158,-112.9991 1334.5,-112 1681.6827,-89.3059 1773.8567,-136.3859 2116.5,-76 2116.6003,-75.9823 2116.7007,-75.9644 2116.8013,-75.9463"/>
<polygon fill="#191970" stroke="#191970" points="2117.3537,-79.4113 2126.3015,-73.7379 2115.7687,-72.5931 2117.3537,-79.4113"/>
</g>
<!-- Node14&#45;&gt;Node27 -->
<g id="edge32" class="edge">
<title>Node14&#45;&gt;Node27</title>
<path fill="none" stroke="#191970" d="M1145.8465,-117.2206C1119.1143,-115.4781 1088.4098,-113.5555 1060.5,-112 726.1646,-93.367 636.4858,-126.6503 301.804,-75.8957"/>
<polygon fill="#191970" stroke="#191970" points="302.2446,-72.4224 291.8302,-74.3694 301.1857,-79.3419 302.2446,-72.4224"/>
</g>
<!-- Node28&#45;&gt;Node15 -->
<g id="edge34" class="edge">
<title>Node28&#45;&gt;Node15</title>
<path fill="none" stroke="#191970" d="M1471.482,-112.4705C1525.7125,-103.5507 1609.2599,-89.7914 1691.7141,-76.1282"/>
<polygon fill="#191970" stroke="#191970" points="1692.469,-79.5509 1701.762,-74.4627 1691.3243,-72.6451 1692.469,-79.5509"/>
</g>
<!-- Node33&#45;&gt;Node12 -->
<g id="edge43" class="edge">
<title>Node33&#45;&gt;Node12</title>
<path fill="none" stroke="#191970" d="M753.0414,-168.2455C763.7787,-159.8943 779.4473,-147.7076 792.0047,-137.9408"/>
<polygon fill="#191970" stroke="#191970" points="794.3575,-140.5449 800.1023,-131.6427 790.0599,-135.0194 794.3575,-140.5449"/>
</g>
<!-- Node33&#45;&gt;Node13 -->
<g id="edge45" class="edge">
<title>Node33&#45;&gt;Node13</title>
<path fill="none" stroke="#191970" d="M667.7238,-168.4991C547.3738,-152.4107 299.205,-117.6434 79.164,-76.0161"/>
<polygon fill="#191970" stroke="#191970" points="79.5165,-72.5205 69.0389,-74.092 78.2096,-79.3975 79.5165,-72.5205"/>
</g>
<!-- Node33&#45;&gt;Node34 -->
<g id="edge44" class="edge">
<title>Node33&#45;&gt;Node34</title>
<path fill="none" stroke="#191970" d="M736.8421,-168.2455C734.0416,-160.7776 730.091,-150.2427 726.6676,-141.1137"/>
<polygon fill="#191970" stroke="#191970" points="729.9045,-139.777 723.116,-131.6427 723.3501,-142.2349 729.9045,-139.777"/>
</g>
<!-- Node35&#45;&gt;Node11 -->
<g id="edge48" class="edge">
<title>Node35&#45;&gt;Node11</title>
<path fill="none" stroke="#191970" d="M1056.3318,-168.4775C1030.7243,-159.4086 991.3378,-145.2186 957.5,-132 935.9732,-123.5906 931.9517,-117.4812 909.5,-112 727.6447,-67.6028 673.8904,-93.482 483.867,-76.0889"/>
<polygon fill="#191970" stroke="#191970" points="484.1148,-72.5968 473.8302,-75.1418 483.4571,-79.5659 484.1148,-72.5968"/>
</g>
</g>
</svg>
