<?xml version="1.0" encoding="UTF-8" standalone="no"?>
<!DOCTYPE svg PUBLIC "-//W3C//DTD SVG 1.1//EN"
 "http://www.w3.org/Graphics/SVG/1.1/DTD/svg11.dtd">
<!-- Generated by graphviz version 2.40.1 (20161225.0304)
 -->
<!-- Title: o2::framework::SourceInfoHeader Pages: 1 -->
<!--zoomable 1047 -->
<svg id="main" version="1.1" xmlns="http://www.w3.org/2000/svg" xmlns:xlink="http://www.w3.org/1999/xlink" xml:space="preserve" onload="init(evt)">
<style type="text/css"><![CDATA[
.edge:hover path { stroke: red; }
.edge:hover polygon { stroke: red; fill: red; }
]]></style>
<script type="text/javascript"><![CDATA[
var edges = document.getElementsByTagName('g');
if (edges && edges.length) {
  for (var i=0;i<edges.length;i++) {
    if (edges[i].id.substr(0,4)=='edge') {
      edges[i].setAttribute('class','edge');
    }
  }
}
]]></script>
        <defs>
                <circle id="rim" cx="0" cy="0" r="7"/>
                <circle id="rim2" cx="0" cy="0" r="3.5"/>
                <g id="zoomPlus">
                        <use xlink:href="#rim" fill="#404040">
                                <set attributeName="fill" to="#808080" begin="zoomplus.mouseover" end="zoomplus.mouseout"/>
                        </use>
                        <path d="M-4,0h8M0,-4v8" fill="none" stroke="white" stroke-width="1.5" pointer-events="none"/>
                </g>
                <g id="zoomMin">
                        <use xlink:href="#rim" fill="#404040">
                                <set attributeName="fill" to="#808080" begin="zoomminus.mouseover" end="zoomminus.mouseout"/>
                        </use>
                        <path d="M-4,0h8" fill="none" stroke="white" stroke-width="1.5" pointer-events="none"/>
                </g>
                <g id="dirArrow">
                        <path fill="none" stroke="white" stroke-width="1.5" d="M0,-3.0v7 M-2.5,-0.5L0,-3.0L2.5,-0.5"/>
                </g>
               <g id="resetDef">
                       <use xlink:href="#rim2" fill="#404040">
                               <set attributeName="fill" to="#808080" begin="reset.mouseover" end="reset.mouseout"/>
                       </use>
               </g>
        </defs>

<script type="text/javascript">
var viewWidth = 915;
var viewHeight = 1047;
var sectionId = 'dynsection-1';
</script>
<script xlink:href="../../svgpan.js"/>
<svg id="graph" class="graph">
<g id="viewport">
<title>o2::framework::SourceInfoHeader</title>
<!-- Node2 -->
<g id="node1" class="node">
<title>Node2</title>
<polygon fill="#bfbfbf" stroke="#000000" points="579.8757,-.5 579.8757,-90.5 725.8757,-90.5 725.8757,-.5 579.8757,-.5"/>
<text text-anchor="start" x="587.8757" y="-78.5" font-family="Helvetica,sans-Serif" font-size="10.00" fill="#000000">o2::framework::SourceInfo</text>
<text text-anchor="middle" x="652.8757" y="-67.5" font-family="Helvetica,sans-Serif" font-size="10.00" fill="#000000">Header</text>
<polyline fill="none" stroke="#000000" points="579.8757,-60.5 725.8757,-60.5 "/>
<text text-anchor="middle" x="652.8757" y="-48.5" font-family="Helvetica,sans-Serif" font-size="10.00" fill="#000000"> </text>
<polyline fill="none" stroke="#000000" points="579.8757,-41.5 725.8757,-41.5 "/>
<text text-anchor="start" x="587.8757" y="-29.5" font-family="Helvetica,sans-Serif" font-size="10.00" fill="#000000">+ SourceInfoHeader()</text>
<text text-anchor="start" x="587.8757" y="-18.5" font-family="Helvetica,sans-Serif" font-size="10.00" fill="#000000">+ SourceInfoHeader()</text>
<text text-anchor="start" x="587.8757" y="-7.5" font-family="Helvetica,sans-Serif" font-size="10.00" fill="#000000">+ Get()</text>
</g>
<!-- Node3 -->
<g id="node2" class="node">
<title>Node3</title>
<g id="a_node2"><a xlink:href="../../d8/dbd/structo2_1_1header_1_1BaseHeader.html" target="_top" xlink:title="the base header struct Every header type must begin (i.e. derive) with this. Don&#39;t use this struct di...">
<polygon fill="none" stroke="#000000" points="408.3757,-149.5 408.3757,-316.5 581.3757,-316.5 581.3757,-149.5 408.3757,-149.5"/>
<text text-anchor="middle" x="494.8757" y="-304.5" font-family="Helvetica,sans-Serif" font-size="10.00" fill="#000000">o2::header::BaseHeader</text>
<polyline fill="none" stroke="#000000" points="408.3757,-297.5 581.3757,-297.5 "/>
<text text-anchor="middle" x="494.8757" y="-285.5" font-family="Helvetica,sans-Serif" font-size="10.00" fill="#000000"> </text>
<polyline fill="none" stroke="#000000" points="408.3757,-278.5 581.3757,-278.5 "/>
<text text-anchor="start" x="416.3757" y="-266.5" font-family="Helvetica,sans-Serif" font-size="10.00" fill="#000000">+ BaseHeader()</text>
<text text-anchor="start" x="416.3757" y="-255.5" font-family="Helvetica,sans-Serif" font-size="10.00" fill="#000000">+ BaseHeader()</text>
<text text-anchor="start" x="416.3757" y="-244.5" font-family="Helvetica,sans-Serif" font-size="10.00" fill="#000000">+ BaseHeader()</text>
<text text-anchor="start" x="416.3757" y="-233.5" font-family="Helvetica,sans-Serif" font-size="10.00" fill="#000000">+ size()</text>
<text text-anchor="start" x="416.3757" y="-222.5" font-family="Helvetica,sans-Serif" font-size="10.00" fill="#000000">+ data()</text>
<text text-anchor="start" x="416.3757" y="-211.5" font-family="Helvetica,sans-Serif" font-size="10.00" fill="#000000">+ next()</text>
<text text-anchor="start" x="416.3757" y="-200.5" font-family="Helvetica,sans-Serif" font-size="10.00" fill="#000000">+ next()</text>
<text text-anchor="start" x="416.3757" y="-189.5" font-family="Helvetica,sans-Serif" font-size="10.00" fill="#000000">+ sanityCheck()</text>
<text text-anchor="start" x="416.3757" y="-178.5" font-family="Helvetica,sans-Serif" font-size="10.00" fill="#000000">+ throwInconsistentStackError()</text>
<text text-anchor="start" x="416.3757" y="-167.5" font-family="Helvetica,sans-Serif" font-size="10.00" fill="#000000">+ get()</text>
<text text-anchor="start" x="416.3757" y="-156.5" font-family="Helvetica,sans-Serif" font-size="10.00" fill="#000000">+ get()</text>
</a>
</g>
</g>
<!-- Node3&#45;&gt;Node2 -->
<g id="edge1" class="edge">
<title>Node3&#45;&gt;Node2</title>
<path fill="none" stroke="#191970" d="M572.1351,-141.3156C586.9814,-123.6973 601.9098,-105.9817 614.8215,-90.6593"/>
<polygon fill="none" stroke="#191970" points="569.0946,-139.4923 565.3271,-149.3947 574.4475,-144.003 569.0946,-139.4923"/>
</g>
<!-- Node4 -->
<g id="node3" class="node">
<title>Node4</title>
<g id="a_node3"><a xlink:href="../../d9/db3/structo2_1_1header_1_1Descriptor.html" target="_top" xlink:title="{o2::header::Descriptor\l\&lt; gSizeHeaderDescriptionString \&gt;\n||+ Descriptor()\l+ Descriptor()\l+ Descriptor()\l+ Descriptor()\l+ operator=()\l+ operator ItgType()\l+ runtimeInit()\l+ operator==()\l+ operator==()\l+ operator\&lt;()\l+ operator!=()\l+ operator!=()\l+ as()\l+ print()\l}">
<polygon fill="none" stroke="#000000" points="278.3757,-430.5 278.3757,-641.5 463.3757,-641.5 463.3757,-430.5 278.3757,-430.5"/>
<text text-anchor="start" x="286.3757" y="-629.5" font-family="Helvetica,sans-Serif" font-size="10.00" fill="#000000">o2::header::Descriptor</text>
<text text-anchor="middle" x="370.8757" y="-618.5" font-family="Helvetica,sans-Serif" font-size="10.00" fill="#000000">&lt; gSizeHeaderDescriptionString &gt;</text>
<polyline fill="none" stroke="#000000" points="278.3757,-611.5 463.3757,-611.5 "/>
<text text-anchor="middle" x="370.8757" y="-599.5" font-family="Helvetica,sans-Serif" font-size="10.00" fill="#000000"> </text>
<polyline fill="none" stroke="#000000" points="278.3757,-592.5 463.3757,-592.5 "/>
<text text-anchor="start" x="286.3757" y="-580.5" font-family="Helvetica,sans-Serif" font-size="10.00" fill="#000000">+ Descriptor()</text>
<text text-anchor="start" x="286.3757" y="-569.5" font-family="Helvetica,sans-Serif" font-size="10.00" fill="#000000">+ Descriptor()</text>
<text text-anchor="start" x="286.3757" y="-558.5" font-family="Helvetica,sans-Serif" font-size="10.00" fill="#000000">+ Descriptor()</text>
<text text-anchor="start" x="286.3757" y="-547.5" font-family="Helvetica,sans-Serif" font-size="10.00" fill="#000000">+ Descriptor()</text>
<text text-anchor="start" x="286.3757" y="-536.5" font-family="Helvetica,sans-Serif" font-size="10.00" fill="#000000">+ operator=()</text>
<text text-anchor="start" x="286.3757" y="-525.5" font-family="Helvetica,sans-Serif" font-size="10.00" fill="#000000">+ operator ItgType()</text>
<text text-anchor="start" x="286.3757" y="-514.5" font-family="Helvetica,sans-Serif" font-size="10.00" fill="#000000">+ runtimeInit()</text>
<text text-anchor="start" x="286.3757" y="-503.5" font-family="Helvetica,sans-Serif" font-size="10.00" fill="#000000">+ operator==()</text>
<text text-anchor="start" x="286.3757" y="-492.5" font-family="Helvetica,sans-Serif" font-size="10.00" fill="#000000">+ operator==()</text>
<text text-anchor="start" x="286.3757" y="-481.5" font-family="Helvetica,sans-Serif" font-size="10.00" fill="#000000">+ operator&lt;()</text>
<text text-anchor="start" x="286.3757" y="-470.5" font-family="Helvetica,sans-Serif" font-size="10.00" fill="#000000">+ operator!=()</text>
<text text-anchor="start" x="286.3757" y="-459.5" font-family="Helvetica,sans-Serif" font-size="10.00" fill="#000000">+ operator!=()</text>
<text text-anchor="start" x="286.3757" y="-448.5" font-family="Helvetica,sans-Serif" font-size="10.00" fill="#000000">+ as()</text>
<text text-anchor="start" x="286.3757" y="-437.5" font-family="Helvetica,sans-Serif" font-size="10.00" fill="#000000">+ print()</text>
</a>
</g>
</g>
<!-- Node4&#45;&gt;Node3 -->
<g id="edge2" class="edge">
<title>Node4&#45;&gt;Node3</title>
<path fill="none" stroke="#404040" d="M391.3745,-430.2891C399.4176,-398.8255 410.0974,-364.8104 423.8757,-335 425.0787,-332.3973 426.3481,-329.79 427.6737,-327.1855"/>
<polygon fill="none" stroke="#404040" points="427.7297,-327.0814 427.0496,-319.9024 433.4148,-316.5135 434.0949,-323.6925 427.7297,-327.0814"/>
<text text-anchor="middle" x="456.8757" y="-371" font-family="Helvetica,sans-Serif" font-size="10.00" fill="#000000"> +description</text>
</g>
<!-- Node5 -->
<g id="node4" class="node">
<title>Node5</title>
<polygon fill="none" stroke="#bfbfbf" points="555.3757,-981.5 555.3757,-1038.5 594.3757,-1038.5 594.3757,-981.5 555.3757,-981.5"/>
<text text-anchor="middle" x="574.8757" y="-1026.5" font-family="Helvetica,sans-Serif" font-size="10.00" fill="#000000">Type</text>
<polyline fill="none" stroke="#bfbfbf" points="555.3757,-1019.5 594.3757,-1019.5 "/>
<text text-anchor="middle" x="574.8757" y="-1007.5" font-family="Helvetica,sans-Serif" font-size="10.00" fill="#000000"> </text>
<polyline fill="none" stroke="#bfbfbf" points="555.3757,-1000.5 594.3757,-1000.5 "/>
<text text-anchor="middle" x="574.8757" y="-988.5" font-family="Helvetica,sans-Serif" font-size="10.00" fill="#000000"> </text>
</g>
<!-- Node5&#45;&gt;Node4 -->
<g id="edge3" class="edge">
<title>Node5&#45;&gt;Node4</title>
<path fill="none" stroke="#404040" d="M594.5235,-1001.0661C623.0472,-986.8666 674.813,-956.1635 695.8757,-912 736.436,-826.9548 751.7708,-775.8523 695.8757,-700 660.2665,-651.6766 625.1245,-674.4995 566.8757,-660 528.5956,-650.4712 512.349,-660.5789 474.3433,-642.6548"/>
<polygon fill="none" stroke="#404040" points="474.2788,-642.6218 467.1145,-643.4419 463.6019,-637.144 470.7663,-636.324 474.2788,-642.6218"/>
<text text-anchor="middle" x="744.3757" y="-803.5" font-family="Helvetica,sans-Serif" font-size="10.00" fill="#000000"> +itg</text>
</g>
<!-- Node9 -->
<g id="node8" class="node">
<title>Node9</title>
<g id="a_node8"><a xlink:href="../../d9/db3/structo2_1_1header_1_1Descriptor.html" target="_top" xlink:title="{o2::header::Descriptor\l\&lt; N, PrinterPolicy \&gt;\n||+ Descriptor()\l+ Descriptor()\l+ Descriptor()\l+ operator=()\l+ operator ItgType()\l+ Descriptor()\l+ runtimeInit()\l+ operator==()\l+ operator\&lt;()\l+ operator!=()\l+ operator==()\l+ operator!=()\l+ as()\l+ print()\l}">
<polygon fill="none" stroke="#000000" points="315.3757,-700.5 315.3757,-911.5 440.3757,-911.5 440.3757,-700.5 315.3757,-700.5"/>
<text text-anchor="start" x="323.3757" y="-899.5" font-family="Helvetica,sans-Serif" font-size="10.00" fill="#000000">o2::header::Descriptor</text>
<text text-anchor="middle" x="377.8757" y="-888.5" font-family="Helvetica,sans-Serif" font-size="10.00" fill="#000000">&lt; N, PrinterPolicy &gt;</text>
<polyline fill="none" stroke="#000000" points="315.3757,-881.5 440.3757,-881.5 "/>
<text text-anchor="middle" x="377.8757" y="-869.5" font-family="Helvetica,sans-Serif" font-size="10.00" fill="#000000"> </text>
<polyline fill="none" stroke="#000000" points="315.3757,-862.5 440.3757,-862.5 "/>
<text text-anchor="start" x="323.3757" y="-850.5" font-family="Helvetica,sans-Serif" font-size="10.00" fill="#000000">+ Descriptor()</text>
<text text-anchor="start" x="323.3757" y="-839.5" font-family="Helvetica,sans-Serif" font-size="10.00" fill="#000000">+ Descriptor()</text>
<text text-anchor="start" x="323.3757" y="-828.5" font-family="Helvetica,sans-Serif" font-size="10.00" fill="#000000">+ Descriptor()</text>
<text text-anchor="start" x="323.3757" y="-817.5" font-family="Helvetica,sans-Serif" font-size="10.00" fill="#000000">+ operator=()</text>
<text text-anchor="start" x="323.3757" y="-806.5" font-family="Helvetica,sans-Serif" font-size="10.00" fill="#000000">+ operator ItgType()</text>
<text text-anchor="start" x="323.3757" y="-795.5" font-family="Helvetica,sans-Serif" font-size="10.00" fill="#000000">+ Descriptor()</text>
<text text-anchor="start" x="323.3757" y="-784.5" font-family="Helvetica,sans-Serif" font-size="10.00" fill="#000000">+ runtimeInit()</text>
<text text-anchor="start" x="323.3757" y="-773.5" font-family="Helvetica,sans-Serif" font-size="10.00" fill="#000000">+ operator==()</text>
<text text-anchor="start" x="323.3757" y="-762.5" font-family="Helvetica,sans-Serif" font-size="10.00" fill="#000000">+ operator&lt;()</text>
<text text-anchor="start" x="323.3757" y="-751.5" font-family="Helvetica,sans-Serif" font-size="10.00" fill="#000000">+ operator!=()</text>
<text text-anchor="start" x="323.3757" y="-740.5" font-family="Helvetica,sans-Serif" font-size="10.00" fill="#000000">+ operator==()</text>
<text text-anchor="start" x="323.3757" y="-729.5" font-family="Helvetica,sans-Serif" font-size="10.00" fill="#000000">+ operator!=()</text>
<text text-anchor="start" x="323.3757" y="-718.5" font-family="Helvetica,sans-Serif" font-size="10.00" fill="#000000">+ as()</text>
<text text-anchor="start" x="323.3757" y="-707.5" font-family="Helvetica,sans-Serif" font-size="10.00" fill="#000000">+ print()</text>
</a>
</g>
</g>
<!-- Node5&#45;&gt;Node9 -->
<g id="edge8" class="edge">
<title>Node5&#45;&gt;Node9</title>
<path fill="none" stroke="#404040" d="M555.2915,-996.4411C530.4015,-978.686 486.8358,-945.8218 454.8757,-912 452.7569,-909.7578 450.6466,-907.4557 448.5496,-905.1063"/>
<polygon fill="none" stroke="#404040" points="448.3852,-904.916 441.4355,-902.9918 440.5388,-895.8366 447.4885,-897.7608 448.3852,-904.916"/>
<text text-anchor="middle" x="521.3757" y="-944" font-family="Helvetica,sans-Serif" font-size="10.00" fill="#000000"> +itg</text>
</g>
<!-- Node10 -->
<g id="node9" class="node">
<title>Node10</title>
<g id="a_node9"><a xlink:href="../../d9/db3/structo2_1_1header_1_1Descriptor.html" target="_top" xlink:title="{o2::header::Descriptor\l\&lt; gSizeSerializationMethodString \&gt;\n||+ Descriptor()\l+ Descriptor()\l+ Descriptor()\l+ Descriptor()\l+ operator=()\l+ operator ItgType()\l+ runtimeInit()\l+ operator==()\l+ operator==()\l+ operator\&lt;()\l+ operator!=()\l+ operator!=()\l+ as()\l+ print()\l}">
<polygon fill="none" stroke="#000000" points="69.3757,-430.5 69.3757,-641.5 260.3757,-641.5 260.3757,-430.5 69.3757,-430.5"/>
<text text-anchor="start" x="77.3757" y="-629.5" font-family="Helvetica,sans-Serif" font-size="10.00" fill="#000000">o2::header::Descriptor</text>
<text text-anchor="middle" x="164.8757" y="-618.5" font-family="Helvetica,sans-Serif" font-size="10.00" fill="#000000">&lt; gSizeSerializationMethodString &gt;</text>
<polyline fill="none" stroke="#000000" points="69.3757,-611.5 260.3757,-611.5 "/>
<text text-anchor="middle" x="164.8757" y="-599.5" font-family="Helvetica,sans-Serif" font-size="10.00" fill="#000000"> </text>
<polyline fill="none" stroke="#000000" points="69.3757,-592.5 260.3757,-592.5 "/>
<text text-anchor="start" x="77.3757" y="-580.5" font-family="Helvetica,sans-Serif" font-size="10.00" fill="#000000">+ Descriptor()</text>
<text text-anchor="start" x="77.3757" y="-569.5" font-family="Helvetica,sans-Serif" font-size="10.00" fill="#000000">+ Descriptor()</text>
<text text-anchor="start" x="77.3757" y="-558.5" font-family="Helvetica,sans-Serif" font-size="10.00" fill="#000000">+ Descriptor()</text>
<text text-anchor="start" x="77.3757" y="-547.5" font-family="Helvetica,sans-Serif" font-size="10.00" fill="#000000">+ Descriptor()</text>
<text text-anchor="start" x="77.3757" y="-536.5" font-family="Helvetica,sans-Serif" font-size="10.00" fill="#000000">+ operator=()</text>
<text text-anchor="start" x="77.3757" y="-525.5" font-family="Helvetica,sans-Serif" font-size="10.00" fill="#000000">+ operator ItgType()</text>
<text text-anchor="start" x="77.3757" y="-514.5" font-family="Helvetica,sans-Serif" font-size="10.00" fill="#000000">+ runtimeInit()</text>
<text text-anchor="start" x="77.3757" y="-503.5" font-family="Helvetica,sans-Serif" font-size="10.00" fill="#000000">+ operator==()</text>
<text text-anchor="start" x="77.3757" y="-492.5" font-family="Helvetica,sans-Serif" font-size="10.00" fill="#000000">+ operator==()</text>
<text text-anchor="start" x="77.3757" y="-481.5" font-family="Helvetica,sans-Serif" font-size="10.00" fill="#000000">+ operator&lt;()</text>
<text text-anchor="start" x="77.3757" y="-470.5" font-family="Helvetica,sans-Serif" font-size="10.00" fill="#000000">+ operator!=()</text>
<text text-anchor="start" x="77.3757" y="-459.5" font-family="Helvetica,sans-Serif" font-size="10.00" fill="#000000">+ operator!=()</text>
<text text-anchor="start" x="77.3757" y="-448.5" font-family="Helvetica,sans-Serif" font-size="10.00" fill="#000000">+ as()</text>
<text text-anchor="start" x="77.3757" y="-437.5" font-family="Helvetica,sans-Serif" font-size="10.00" fill="#000000">+ print()</text>
</a>
</g>
</g>
<!-- Node5&#45;&gt;Node10 -->
<g id="edge14" class="edge">
<title>Node5&#45;&gt;Node10</title>
<path fill="none" stroke="#404040" d="M573.6875,-981.2714C570.4163,-908.4461 560.2777,-720.8907 541.8757,-700 518.9311,-673.9523 499.3624,-691.1423 465.8757,-682 434.0064,-673.2993 427.1066,-667.2476 394.8757,-660 343.2425,-648.3894 322.1171,-665.1017 271.5732,-642.7209"/>
<polygon fill="none" stroke="#404040" points="271.5145,-642.6929 264.3759,-643.7135 260.6883,-637.5166 267.8268,-636.496 271.5145,-642.6929"/>
<text text-anchor="middle" x="582.3757" y="-803.5" font-family="Helvetica,sans-Serif" font-size="10.00" fill="#000000"> +itg</text>
</g>
<!-- Node6 -->
<g id="node5" class="node">
<title>Node6</title>
<polygon fill="none" stroke="#bfbfbf" points="81.8757,-981.5 81.8757,-1038.5 119.8757,-1038.5 119.8757,-981.5 81.8757,-981.5"/>
<text text-anchor="middle" x="100.8757" y="-1026.5" font-family="Helvetica,sans-Serif" font-size="10.00" fill="#000000">char</text>
<polyline fill="none" stroke="#bfbfbf" points="81.8757,-1019.5 119.8757,-1019.5 "/>
<text text-anchor="middle" x="100.8757" y="-1007.5" font-family="Helvetica,sans-Serif" font-size="10.00" fill="#000000"> </text>
<polyline fill="none" stroke="#bfbfbf" points="81.8757,-1000.5 119.8757,-1000.5 "/>
<text text-anchor="middle" x="100.8757" y="-988.5" font-family="Helvetica,sans-Serif" font-size="10.00" fill="#000000"> </text>
</g>
<!-- Node6&#45;&gt;Node3 -->
<g id="edge12" class="edge">
<title>Node6&#45;&gt;Node3</title>
<path fill="none" stroke="#404040" d="M87.0178,-981.2836C45.1709,-889.9668 -69.3362,-602.1745 59.8757,-430 141.0108,-321.8877 295.2471,-271.5777 396.5584,-249.2961"/>
<polygon fill="none" stroke="#404040" points="396.6006,-249.2872 401.6322,-244.1216 408.3356,-246.7795 403.304,-251.945 396.6006,-249.2872"/>
<text text-anchor="middle" x="36.8757" y="-668.5" font-family="Helvetica,sans-Serif" font-size="10.00" fill="#000000"> +magicString</text>
</g>
<!-- Node6&#45;&gt;Node4 -->
<g id="edge4" class="edge">
<title>Node6&#45;&gt;Node4</title>
<path fill="none" stroke="#404040" d="M120.1873,-992.6041C138.9106,-974.4802 166.4014,-944.2653 179.8757,-912 198.1463,-868.2497 171.4637,-734.603 203.8757,-700 234.7472,-667.0416 268.1821,-709.6636 303.8757,-682 314.5315,-673.7415 323.5519,-663.3961 331.1748,-652.0464"/>
<polygon fill="none" stroke="#404040" points="331.1837,-652.032 330.9548,-644.8245 337.5199,-641.8411 337.7488,-649.0486 331.1837,-652.032"/>
<text text-anchor="middle" x="216.3757" y="-803.5" font-family="Helvetica,sans-Serif" font-size="10.00" fill="#000000"> +str</text>
</g>
<!-- Node6&#45;&gt;Node9 -->
<g id="edge9" class="edge">
<title>Node6&#45;&gt;Node9</title>
<path fill="none" stroke="#404040" d="M120.1184,-1000.2148C150.227,-984.9547 210.3646,-954.6787 261.8757,-930 279.0922,-921.7516 286.1218,-924.1147 300.8757,-912 302.7215,-910.4844 304.5454,-908.9148 306.3461,-907.2982"/>
<polygon fill="none" stroke="#404040" points="306.4891,-907.1611 308.0512,-900.1212 315.1504,-898.8556 313.5882,-905.8955 306.4891,-907.1611"/>
<text text-anchor="middle" x="274.3757" y="-944" font-family="Helvetica,sans-Serif" font-size="10.00" fill="#000000"> +str</text>
</g>
<!-- Node6&#45;&gt;Node10 -->
<g id="edge15" class="edge">
<title>Node6&#45;&gt;Node10</title>
<path fill="none" stroke="#404040" d="M94.1942,-981.3304C82.4525,-926.0761 61.4756,-801.3433 84.8757,-700 88.4888,-684.3519 93.8082,-668.47 100.0163,-653.0606"/>
<polygon fill="none" stroke="#404040" points="100.0416,-653.0001 98.6731,-645.9201 104.6822,-641.9337 106.0507,-649.0138 100.0416,-653.0001"/>
<text text-anchor="middle" x="97.3757" y="-803.5" font-family="Helvetica,sans-Serif" font-size="10.00" fill="#000000"> +str</text>
</g>
<!-- Node7 -->
<g id="node6" class="node">
<title>Node7</title>
<polygon fill="none" stroke="#bfbfbf" points="462.3757,-981.5 462.3757,-1038.5 491.3757,-1038.5 491.3757,-981.5 462.3757,-981.5"/>
<text text-anchor="middle" x="476.8757" y="-1026.5" font-family="Helvetica,sans-Serif" font-size="10.00" fill="#000000">int</text>
<polyline fill="none" stroke="#bfbfbf" points="462.3757,-1019.5 491.3757,-1019.5 "/>
<text text-anchor="middle" x="476.8757" y="-1007.5" font-family="Helvetica,sans-Serif" font-size="10.00" fill="#000000"> </text>
<polyline fill="none" stroke="#bfbfbf" points="462.3757,-1000.5 491.3757,-1000.5 "/>
<text text-anchor="middle" x="476.8757" y="-988.5" font-family="Helvetica,sans-Serif" font-size="10.00" fill="#000000"> </text>
</g>
<!-- Node7&#45;&gt;Node4 -->
<g id="edge5" class="edge">
<title>Node7&#45;&gt;Node4</title>
<path fill="none" stroke="#404040" d="M491.4012,-1003.7411C518.7081,-991.0662 577.0033,-959.4728 599.8757,-912 640.7727,-827.1162 649.2087,-780.275 599.8757,-700 579.27,-666.4702 556.9634,-675.7008 520.8757,-660 502.5099,-652.0096 493.7916,-653.8876 473.982,-642.6976"/>
<polygon fill="none" stroke="#404040" points="473.8578,-642.6208 466.6509,-642.8653 463.6533,-636.3067 470.8603,-636.0623 473.8578,-642.6208"/>
<text text-anchor="middle" x="662.8757" y="-814.5" font-family="Helvetica,sans-Serif" font-size="10.00" fill="#000000"> +arraySize</text>
<text text-anchor="middle" x="662.8757" y="-803.5" font-family="Helvetica,sans-Serif" font-size="10.00" fill="#000000">+size</text>
<text text-anchor="middle" x="662.8757" y="-792.5" font-family="Helvetica,sans-Serif" font-size="10.00" fill="#000000">+bitcount</text>
</g>
<!-- Node7&#45;&gt;Node9 -->
<g id="edge10" class="edge">
<title>Node7&#45;&gt;Node9</title>
<path fill="none" stroke="#404040" d="M462.0837,-1004.5865C445.3522,-997.6498 418.6483,-983.9579 404.8757,-963 397.0439,-951.0823 391.2717,-937.5963 387.0471,-923.6571"/>
<polygon fill="none" stroke="#404040" points="386.9905,-923.4481 381.5602,-918.7035 383.8512,-911.866 389.2816,-916.6106 386.9905,-923.4481"/>
<text text-anchor="middle" x="433.8757" y="-955" font-family="Helvetica,sans-Serif" font-size="10.00" fill="#000000"> +arraySize</text>
<text text-anchor="middle" x="433.8757" y="-944" font-family="Helvetica,sans-Serif" font-size="10.00" fill="#000000">+size</text>
<text text-anchor="middle" x="433.8757" y="-933" font-family="Helvetica,sans-Serif" font-size="10.00" fill="#000000">+bitcount</text>
</g>
<!-- Node7&#45;&gt;Node10 -->
<g id="edge16" class="edge">
<title>Node7&#45;&gt;Node10</title>
<path fill="none" stroke="#404040" d="M478.1266,-981.4336C480.5266,-913.1892 482.8499,-743.1462 448.8757,-700 414.6175,-656.4932 383.7008,-676.6126 330.8757,-660 306.7116,-652.4008 296.087,-655.6636 271.3224,-642.8118"/>
<polygon fill="none" stroke="#404040" points="271.0951,-642.6834 263.9034,-643.2135 260.6482,-636.7789 267.8398,-636.2489 271.0951,-642.6834"/>
<text text-anchor="middle" x="508.8757" y="-814.5" font-family="Helvetica,sans-Serif" font-size="10.00" fill="#000000"> +arraySize</text>
<text text-anchor="middle" x="508.8757" y="-803.5" font-family="Helvetica,sans-Serif" font-size="10.00" fill="#000000">+size</text>
<text text-anchor="middle" x="508.8757" y="-792.5" font-family="Helvetica,sans-Serif" font-size="10.00" fill="#000000">+bitcount</text>
</g>
<!-- Node8 -->
<g id="node7" class="node">
<title>Node8</title>
<polygon fill="none" stroke="#bfbfbf" points="209.3757,-981.5 209.3757,-1038.5 316.3757,-1038.5 316.3757,-981.5 209.3757,-981.5"/>
<text text-anchor="middle" x="262.8757" y="-1026.5" font-family="Helvetica,sans-Serif" font-size="10.00" fill="#000000">anonymous:+@71</text>
<polyline fill="none" stroke="#bfbfbf" points="209.3757,-1019.5 316.3757,-1019.5 "/>
<text text-anchor="middle" x="262.8757" y="-1007.5" font-family="Helvetica,sans-Serif" font-size="10.00" fill="#000000"> </text>
<polyline fill="none" stroke="#bfbfbf" points="209.3757,-1000.5 316.3757,-1000.5 "/>
<text text-anchor="middle" x="262.8757" y="-988.5" font-family="Helvetica,sans-Serif" font-size="10.00" fill="#000000"> </text>
</g>
<!-- Node8&#45;&gt;Node4 -->
<g id="edge6" class="edge">
<title>Node8&#45;&gt;Node4</title>
<path fill="none" stroke="#404040" d="M253.6748,-981.1519C236.6464,-921.6715 207.4955,-783.957 271.8757,-700 288.8171,-677.907 312.4911,-701.9837 331.8757,-682 340.0103,-673.614 346.495,-663.7277 351.6576,-653.1169"/>
<polygon fill="none" stroke="#404040" points="351.7818,-652.8316 350.5099,-645.7336 356.5728,-641.8295 357.8447,-648.9275 351.7818,-652.8316"/>
<text text-anchor="middle" x="288.8757" y="-803.5" font-family="Helvetica,sans-Serif" font-size="10.00" fill="#000000"> +@71</text>
</g>
<!-- Node8&#45;&gt;Node9 -->
<g id="edge11" class="edge">
<title>Node8&#45;&gt;Node9</title>
<path fill="none" stroke="#404040" d="M279.1085,-981.2045C288.1414,-965.1809 300.046,-944.0632 312.4523,-922.0555"/>
<polygon fill="none" stroke="#404040" points="312.4821,-922.0026 311.944,-914.8115 318.375,-911.5491 318.913,-918.7401 312.4821,-922.0026"/>
<text text-anchor="middle" x="323.8757" y="-944" font-family="Helvetica,sans-Serif" font-size="10.00" fill="#000000"> +@71</text>
</g>
<!-- Node8&#45;&gt;Node10 -->
<g id="edge17" class="edge">
<title>Node8&#45;&gt;Node10</title>
<path fill="none" stroke="#404040" d="M242.1015,-981.4943C228.7105,-964.7224 210.0683,-944.1045 189.8757,-930 172.5542,-917.901 157.6526,-929.5421 145.8757,-912 118.4062,-871.0833 129.8922,-747.9012 143.971,-653.5707"/>
<polygon fill="none" stroke="#404040" points="143.982,-653.4975 140.931,-646.9636 145.7888,-641.6343 148.8398,-648.1681 143.982,-653.4975"/>
<text text-anchor="middle" x="162.8757" y="-803.5" font-family="Helvetica,sans-Serif" font-size="10.00" fill="#000000"> +@71</text>
</g>
<!-- Node9&#45;&gt;Node4 -->
<g id="edge7" class="edge">
<title>Node9&#45;&gt;Node4</title>
<path fill="none" stroke="#ffa500" d="M384.6136,-690.1336C384.6078,-679.9414 384.3872,-669.7853 383.8757,-660 383.565,-654.0555 383.171,-647.9573 382.7152,-641.8069"/>
<polygon fill="#ffa500" stroke="#ffa500" points="381.1126,-690.3041 384.5506,-700.3256 388.1125,-690.3474 381.1126,-690.3041"/>
<text text-anchor="start" x="384.8757" y="-674" font-family="Helvetica,sans-Serif" font-size="10.00" fill="#000000"> &lt; gSizeHeaderDescription</text>
<text text-anchor="middle" x="450.8757" y="-663" font-family="Helvetica,sans-Serif" font-size="10.00" fill="#000000">String &gt;</text>
</g>
<!-- Node9&#45;&gt;Node10 -->
<g id="edge18" class="edge">
<title>Node9&#45;&gt;Node10</title>
<path fill="none" stroke="#ffa500" d="M307.3462,-704.3371C305.2332,-702.8101 303.0762,-701.3609 300.8757,-700 259.4884,-674.4052 227.7011,-715.9882 192.8757,-682 181.5164,-670.9137 173.9989,-656.728 169.1329,-641.5719"/>
<polygon fill="#ffa500" stroke="#ffa500" points="305.2574,-707.1471 315.2771,-710.5904 309.5915,-701.6503 305.2574,-707.1471"/>
<text text-anchor="start" x="192.8757" y="-674" font-family="Helvetica,sans-Serif" font-size="10.00" fill="#000000"> &lt; gSizeSerializationMethod</text>
<text text-anchor="middle" x="261.8757" y="-663" font-family="Helvetica,sans-Serif" font-size="10.00" fill="#000000">String &gt;</text>
</g>
<!-- Node10&#45;&gt;Node3 -->
<g id="edge13" class="edge">
<title>Node10&#45;&gt;Node3</title>
<path fill="none" stroke="#404040" d="M234.9531,-430.3475C259.7278,-397.504 289.3408,-362.6863 320.8757,-335 343.7717,-314.8983 371.2049,-296.6778 397.4458,-281.3819"/>
<polygon fill="none" stroke="#404040" points="397.7913,-281.1844 401.015,-274.734 408.2092,-275.2289 404.9854,-281.6793 397.7913,-281.1844"/>
<text text-anchor="middle" x="356.8757" y="-371" font-family="Helvetica,sans-Serif" font-size="10.00" fill="#000000"> +serialization</text>
</g>
<!-- Node11 -->
<g id="node10" class="node">
<title>Node11</title>
<g id="a_node10"><a xlink:href="../../d3/d87/classuint32__t.html" target="_top" xlink:title="{uint32_t\n||}">
<polygon fill="none" stroke="#000000" points="480.8757,-507.5 480.8757,-564.5 536.8757,-564.5 536.8757,-507.5 480.8757,-507.5"/>
<text text-anchor="middle" x="508.8757" y="-552.5" font-family="Helvetica,sans-Serif" font-size="10.00" fill="#000000">uint32_t</text>
<polyline fill="none" stroke="#000000" points="480.8757,-545.5 536.8757,-545.5 "/>
<text text-anchor="middle" x="508.8757" y="-533.5" font-family="Helvetica,sans-Serif" font-size="10.00" fill="#000000"> </text>
<polyline fill="none" stroke="#000000" points="480.8757,-526.5 536.8757,-526.5 "/>
<text text-anchor="middle" x="508.8757" y="-514.5" font-family="Helvetica,sans-Serif" font-size="10.00" fill="#000000"> </text>
</a>
</g>
</g>
<!-- Node11&#45;&gt;Node3 -->
<g id="edge19" class="edge">
<title>Node11&#45;&gt;Node3</title>
<path fill="none" stroke="#404040" d="M505.0783,-507.4986C501.9288,-482.4069 497.6851,-444.8518 495.8757,-412 494.3936,-385.0913 493.8009,-355.8731 493.6651,-328.9977"/>
<polygon fill="none" stroke="#404040" points="493.6647,-328.8311 489.649,-322.8416 493.6333,-316.8311 497.649,-322.8206 493.6647,-328.8311"/>
<text text-anchor="middle" x="541.3757" y="-404" font-family="Helvetica,sans-Serif" font-size="10.00" fill="#000000"> +headerVersion</text>
<text text-anchor="middle" x="541.3757" y="-393" font-family="Helvetica,sans-Serif" font-size="10.00" fill="#000000">+headerSize</text>
<text text-anchor="middle" x="541.3757" y="-382" font-family="Helvetica,sans-Serif" font-size="10.00" fill="#000000">+sMagicString</text>
<text text-anchor="middle" x="541.3757" y="-371" font-family="Helvetica,sans-Serif" font-size="10.00" fill="#000000">+flagsNextHeader</text>
<text text-anchor="middle" x="541.3757" y="-360" font-family="Helvetica,sans-Serif" font-size="10.00" fill="#000000">+magicStringInt</text>
<text text-anchor="middle" x="541.3757" y="-349" font-family="Helvetica,sans-Serif" font-size="10.00" fill="#000000">+flagsUnused</text>
<text text-anchor="middle" x="541.3757" y="-338" font-family="Helvetica,sans-Serif" font-size="10.00" fill="#000000">+flags</text>
</g>
<!-- Node12 -->
<g id="node11" class="node">
<title>Node12</title>
<polygon fill="none" stroke="#bfbfbf" points="555.3757,-507.5 555.3757,-564.5 662.3757,-564.5 662.3757,-507.5 555.3757,-507.5"/>
<text text-anchor="middle" x="608.8757" y="-552.5" font-family="Helvetica,sans-Serif" font-size="10.00" fill="#000000">anonymous:+@73</text>
<polyline fill="none" stroke="#bfbfbf" points="555.3757,-545.5 662.3757,-545.5 "/>
<text text-anchor="middle" x="608.8757" y="-533.5" font-family="Helvetica,sans-Serif" font-size="10.00" fill="#000000"> </text>
<polyline fill="none" stroke="#bfbfbf" points="555.3757,-526.5 662.3757,-526.5 "/>
<text text-anchor="middle" x="608.8757" y="-514.5" font-family="Helvetica,sans-Serif" font-size="10.00" fill="#000000"> </text>
</g>
<!-- Node12&#45;&gt;Node3 -->
<g id="edge20" class="edge">
<title>Node12&#45;&gt;Node3</title>
<path fill="none" stroke="#404040" d="M611.1124,-507.2712C613.0888,-466.9205 612.438,-392.0176 586.8757,-335 585.7027,-332.3836 584.437,-329.788 583.0898,-327.217"/>
<polygon fill="none" stroke="#404040" points="583.0852,-327.2089 576.6323,-323.9901 577.1215,-316.7956 583.5744,-320.0144 583.0852,-327.2089"/>
<text text-anchor="middle" x="624.8757" y="-371" font-family="Helvetica,sans-Serif" font-size="10.00" fill="#000000"> +@73</text>
</g>
<!-- Node13 -->
<g id="node12" class="node">
<title>Node13</title>
<polygon fill="none" stroke="#bfbfbf" points="680.3757,-507.5 680.3757,-564.5 787.3757,-564.5 787.3757,-507.5 680.3757,-507.5"/>
<text text-anchor="middle" x="733.8757" y="-552.5" font-family="Helvetica,sans-Serif" font-size="10.00" fill="#000000">anonymous:+@75</text>
<polyline fill="none" stroke="#bfbfbf" points="680.3757,-545.5 787.3757,-545.5 "/>
<text text-anchor="middle" x="733.8757" y="-533.5" font-family="Helvetica,sans-Serif" font-size="10.00" fill="#000000"> </text>
<polyline fill="none" stroke="#bfbfbf" points="680.3757,-526.5 787.3757,-526.5 "/>
<text text-anchor="middle" x="733.8757" y="-514.5" font-family="Helvetica,sans-Serif" font-size="10.00" fill="#000000"> </text>
</g>
<!-- Node13&#45;&gt;Node3 -->
<g id="edge21" class="edge">
<title>Node13&#45;&gt;Node3</title>
<path fill="none" stroke="#404040" d="M729.0074,-507.3647C720.1534,-463.9861 697.3456,-381.7335 645.8757,-335 629.1396,-319.804 616.6024,-327.2452 592.1977,-316.7273"/>
<polygon fill="none" stroke="#404040" points="592.0963,-316.676 584.9361,-317.5314 581.3926,-311.251 588.5528,-310.3956 592.0963,-316.676"/>
<text text-anchor="middle" x="712.8757" y="-371" font-family="Helvetica,sans-Serif" font-size="10.00" fill="#000000"> +@75</text>
</g>
<!-- Node14 -->
<g id="node13" class="node">
<title>Node14</title>
<polygon fill="none" stroke="#bfbfbf" points="805.3757,-507.5 805.3757,-564.5 848.3757,-564.5 848.3757,-507.5 805.3757,-507.5"/>
<text text-anchor="middle" x="826.8757" y="-552.5" font-family="Helvetica,sans-Serif" font-size="10.00" fill="#000000">const</text>
<polyline fill="none" stroke="#bfbfbf" points="805.3757,-545.5 848.3757,-545.5 "/>
<text text-anchor="middle" x="826.8757" y="-533.5" font-family="Helvetica,sans-Serif" font-size="10.00" fill="#000000"> </text>
<polyline fill="none" stroke="#bfbfbf" points="805.3757,-526.5 848.3757,-526.5 "/>
<text text-anchor="middle" x="826.8757" y="-514.5" font-family="Helvetica,sans-Serif" font-size="10.00" fill="#000000"> </text>
</g>
<!-- Node14&#45;&gt;Node3 -->
<g id="edge22" class="edge">
<title>Node14&#45;&gt;Node3</title>
<path fill="none" stroke="#404040" d="M823.3912,-507.2187C816.0894,-461.2448 794.4864,-372.5976 733.8757,-335 682.5243,-303.1461 652.8035,-338.7229 592.7312,-316.9582"/>
<polygon fill="none" stroke="#404040" points="592.6771,-316.9361 585.6091,-318.3653 581.5713,-312.3907 588.6393,-310.9614 592.6771,-316.9361"/>
<text text-anchor="middle" x="851.3757" y="-382" font-family="Helvetica,sans-Serif" font-size="10.00" fill="#000000"> +sHeaderType</text>
<text text-anchor="middle" x="851.3757" y="-371" font-family="Helvetica,sans-Serif" font-size="10.00" fill="#000000">+sSerializationMethod</text>
<text text-anchor="middle" x="851.3757" y="-360" font-family="Helvetica,sans-Serif" font-size="10.00" fill="#000000">+sVersion</text>
</g>
<!-- Node15 -->
<g id="node14" class="node">
<title>Node15</title>
<polygon fill="none" stroke="#bfbfbf" points="599.3757,-204.5 599.3757,-261.5 706.3757,-261.5 706.3757,-204.5 599.3757,-204.5"/>
<text text-anchor="middle" x="652.8757" y="-249.5" font-family="Helvetica,sans-Serif" font-size="10.00" fill="#000000">InputChannelState</text>
<polyline fill="none" stroke="#bfbfbf" points="599.3757,-242.5 706.3757,-242.5 "/>
<text text-anchor="middle" x="652.8757" y="-230.5" font-family="Helvetica,sans-Serif" font-size="10.00" fill="#000000"> </text>
<polyline fill="none" stroke="#bfbfbf" points="599.3757,-223.5 706.3757,-223.5 "/>
<text text-anchor="middle" x="652.8757" y="-211.5" font-family="Helvetica,sans-Serif" font-size="10.00" fill="#000000"> </text>
</g>
<!-- Node15&#45;&gt;Node2 -->
<g id="edge23" class="edge">
<title>Node15&#45;&gt;Node2</title>
<path fill="none" stroke="#404040" d="M652.8757,-204.114C652.8757,-177.3341 652.8757,-136.7038 652.8757,-103.2704"/>
<polygon fill="none" stroke="#404040" points="652.8758,-102.853 648.8758,-96.8531 652.8757,-90.853 656.8758,-96.853 652.8758,-102.853"/>
<text text-anchor="middle" x="671.3757" y="-117.5" font-family="Helvetica,sans-Serif" font-size="10.00" fill="#000000"> +state</text>
</g>
<!-- Node16 -->
<g id="node15" class="node">
<title>Node16</title>
<polygon fill="none" stroke="#bfbfbf" points="724.8757,-204.5 724.8757,-261.5 768.8757,-261.5 768.8757,-204.5 724.8757,-204.5"/>
<text text-anchor="middle" x="746.8757" y="-249.5" font-family="Helvetica,sans-Serif" font-size="10.00" fill="#000000">static</text>
<polyline fill="none" stroke="#bfbfbf" points="724.8757,-242.5 768.8757,-242.5 "/>
<text text-anchor="middle" x="746.8757" y="-230.5" font-family="Helvetica,sans-Serif" font-size="10.00" fill="#000000"> </text>
<polyline fill="none" stroke="#bfbfbf" points="724.8757,-223.5 768.8757,-223.5 "/>
<text text-anchor="middle" x="746.8757" y="-211.5" font-family="Helvetica,sans-Serif" font-size="10.00" fill="#000000"> </text>
</g>
<!-- Node16&#45;&gt;Node2 -->
<g id="edge24" class="edge">
<title>Node16&#45;&gt;Node2</title>
<path fill="none" stroke="#404040" d="M736.8956,-204.2703C730.9635,-187.8809 723.0243,-167.0666 714.8757,-149 706.6203,-130.6967 703.9983,-126.3405 693.8757,-109 692.3417,-106.3722 690.7492,-103.6994 689.1215,-101.0115"/>
<polygon fill="none" stroke="#404040" points="689.0181,-100.8439 682.4634,-97.8378 682.7171,-90.6312 689.2718,-93.6372 689.0181,-100.8439"/>
<text text-anchor="middle" x="743.3757" y="-123" font-family="Helvetica,sans-Serif" font-size="10.00" fill="#000000"> +sHeaderType</text>
<text text-anchor="middle" x="743.3757" y="-112" font-family="Helvetica,sans-Serif" font-size="10.00" fill="#000000">+sVersion</text>
</g>
</g>
</svg>
        <g id="navigator" transform="translate(0 0)" fill="#404254">
                <rect fill="#f2f5e9" fill-opacity="0.5" stroke="#606060" stroke-width=".5" x="0" y="0" width="60" height="60"/>
                <use id="zoomplus" xlink:href="#zoomPlus" x="17" y="9" onmousedown="handleZoom(evt,'in')"/>
                <use id="zoomminus" xlink:href="#zoomMin" x="42" y="9" onmousedown="handleZoom(evt,'out')"/>
                <use id="reset" xlink:href="#resetDef" x="30" y="36" onmousedown="handleReset()"/>
                <g id="arrowUp" xlink:href="#dirArrow" transform="translate(30 24)" onmousedown="handlePan(0,-1)">
                  <use xlink:href="#rim" fill="#404040">
                        <set attributeName="fill" to="#808080" begin="arrowUp.mouseover" end="arrowUp.mouseout"/>
                  </use>
                  <path fill="none" stroke="white" stroke-width="1.5" d="M0,-3.0v7 M-2.5,-0.5L0,-3.0L2.5,-0.5"/>
                </g>
                <g id="arrowRight" xlink:href="#dirArrow" transform="rotate(90) translate(36 -43)" onmousedown="handlePan(1,0)">
                  <use xlink:href="#rim" fill="#404040">
                        <set attributeName="fill" to="#808080" begin="arrowRight.mouseover" end="arrowRight.mouseout"/>
                  </use>
                  <path fill="none" stroke="white" stroke-width="1.5" d="M0,-3.0v7 M-2.5,-0.5L0,-3.0L2.5,-0.5"/>
                </g>
                <g id="arrowDown" xlink:href="#dirArrow" transform="rotate(180) translate(-30 -48)" onmousedown="handlePan(0,1)">
                  <use xlink:href="#rim" fill="#404040">
                        <set attributeName="fill" to="#808080" begin="arrowDown.mouseover" end="arrowDown.mouseout"/>
                  </use>
                  <path fill="none" stroke="white" stroke-width="1.5" d="M0,-3.0v7 M-2.5,-0.5L0,-3.0L2.5,-0.5"/>
                </g>
                <g id="arrowLeft" xlink:href="#dirArrow" transform="rotate(270) translate(-36 17)" onmousedown="handlePan(-1,0)">
                  <use xlink:href="#rim" fill="#404040">
                        <set attributeName="fill" to="#808080" begin="arrowLeft.mouseover" end="arrowLeft.mouseout"/>
                  </use>
                  <path fill="none" stroke="white" stroke-width="1.5" d="M0,-3.0v7 M-2.5,-0.5L0,-3.0L2.5,-0.5"/>
                </g>
        </g>
        <svg viewBox="0 0 15 15" width="100%" height="30px" preserveAspectRatio="xMaxYMin meet">
         <g id="arrow_out" transform="scale(0.3 0.3)">
          <a xlink:href="structo2_1_1framework_1_1SourceInfoHeader__coll__graph_org.svg" target="_base">
           <rect id="button" ry="5" rx="5" y="6" x="6" height="38" width="38"
                fill="#f2f5e9" fill-opacity="0.5" stroke="#606060" stroke-width="1.0"/>
           <path id="arrow"
             d="M 11.500037,31.436501 C 11.940474,20.09759 22.043105,11.32322 32.158766,21.979434 L 37.068811,17.246167 C 37.068811,17.246167 37.088388,32 37.088388,32 L 22.160133,31.978069 C 22.160133,31.978069 26.997745,27.140456 26.997745,27.140456 C 18.528582,18.264221 13.291696,25.230495 11.500037,31.436501 z"
             style="fill:#404040;"/>
          </a>
         </g>
        </svg>
</svg>
