<?xml version="1.0" encoding="UTF-8" standalone="no"?>
<!DOCTYPE svg PUBLIC "-//W3C//DTD SVG 1.1//EN"
 "http://www.w3.org/Graphics/SVG/1.1/DTD/svg11.dtd">
<!-- Generated by graphviz version 2.40.1 (20161225.0304)
 -->
<!-- Title: HFCandidateCreator2Prong Pages: 1 -->
<svg width="1327pt" height="860pt"
 viewBox="0.00 0.00 1326.50 860.00" xmlns="http://www.w3.org/2000/svg" xmlns:xlink="http://www.w3.org/1999/xlink">
<g id="graph0" class="graph" transform="scale(1 1) rotate(0) translate(4 856)">
<title>HFCandidateCreator2Prong</title>
<!-- Node1 -->
<g id="node1" class="node">
<title>Node1</title>
<polygon fill="#bfbfbf" stroke="#000000" points="262.5,-.5 262.5,-57.5 411.5,-57.5 411.5,-.5 262.5,-.5"/>
<text text-anchor="middle" x="337" y="-45.5" font-family="Helvetica,sans-Serif" font-size="10.00" fill="#000000">HFCandidateCreator2Prong</text>
<polyline fill="none" stroke="#000000" points="262.5,-38.5 411.5,-38.5 "/>
<text text-anchor="middle" x="337" y="-26.5" font-family="Helvetica,sans-Serif" font-size="10.00" fill="#000000"> </text>
<polyline fill="none" stroke="#000000" points="262.5,-19.5 411.5,-19.5 "/>
<text text-anchor="start" x="270.5" y="-7.5" font-family="Helvetica,sans-Serif" font-size="10.00" fill="#000000">+ process()</text>
</g>
<!-- Node2 -->
<g id="node2" class="node">
<title>Node2</title>
<g id="a_node2"><a xlink:href="../../d8/d71/structo2_1_1framework_1_1Configurable.html" target="_top" xlink:title="{o2::framework::Configurable\l\&lt; double \&gt;\n||+ Configurable()\l+ operator double()\l+ operator&#45;\&gt;()\l}">
<polygon fill="none" stroke="#000000" points="64.5,-419.5 64.5,-509.5 219.5,-509.5 219.5,-419.5 64.5,-419.5"/>
<text text-anchor="start" x="72.5" y="-497.5" font-family="Helvetica,sans-Serif" font-size="10.00" fill="#000000">o2::framework::Configurable</text>
<text text-anchor="middle" x="142" y="-486.5" font-family="Helvetica,sans-Serif" font-size="10.00" fill="#000000">&lt; double &gt;</text>
<polyline fill="none" stroke="#000000" points="64.5,-479.5 219.5,-479.5 "/>
<text text-anchor="middle" x="142" y="-467.5" font-family="Helvetica,sans-Serif" font-size="10.00" fill="#000000"> </text>
<polyline fill="none" stroke="#000000" points="64.5,-460.5 219.5,-460.5 "/>
<text text-anchor="start" x="72.5" y="-448.5" font-family="Helvetica,sans-Serif" font-size="10.00" fill="#000000">+ Configurable()</text>
<text text-anchor="start" x="72.5" y="-437.5" font-family="Helvetica,sans-Serif" font-size="10.00" fill="#000000">+ operator double()</text>
<text text-anchor="start" x="72.5" y="-426.5" font-family="Helvetica,sans-Serif" font-size="10.00" fill="#000000">+ operator&#45;&gt;()</text>
</a>
</g>
</g>
<!-- Node2&#45;&gt;Node1 -->
<g id="edge1" class="edge">
<title>Node2&#45;&gt;Node1</title>
<path fill="none" stroke="#404040" d="M145.897,-419.388C153.219,-353.6039 173.3639,-229.2627 226,-138 241.9987,-110.2608 266.9871,-84.8358 289.2067,-65.5312"/>
<polygon fill="none" stroke="#404040" points="289.366,-65.3964 291.3616,-58.4669 298.5256,-57.6437 296.53,-64.5732 289.366,-65.3964"/>
<text text-anchor="middle" x="279.5" y="-241.5" font-family="Helvetica,sans-Serif" font-size="10.00" fill="#000000"> +magneticField</text>
<text text-anchor="middle" x="279.5" y="-230.5" font-family="Helvetica,sans-Serif" font-size="10.00" fill="#000000">+d_maxdzini</text>
<text text-anchor="middle" x="279.5" y="-219.5" font-family="Helvetica,sans-Serif" font-size="10.00" fill="#000000">+d_maxr</text>
<text text-anchor="middle" x="279.5" y="-208.5" font-family="Helvetica,sans-Serif" font-size="10.00" fill="#000000">+d_minrelchi2change</text>
<text text-anchor="middle" x="279.5" y="-197.5" font-family="Helvetica,sans-Serif" font-size="10.00" fill="#000000">+d_minparamchange</text>
</g>
<!-- Node3 -->
<g id="node3" class="node">
<title>Node3</title>
<polygon fill="none" stroke="#bfbfbf" points="0,-618 0,-675 50,-675 50,-618 0,-618"/>
<text text-anchor="middle" x="25" y="-663" font-family="Helvetica,sans-Serif" font-size="10.00" fill="#000000">double</text>
<polyline fill="none" stroke="#bfbfbf" points="0,-656 50,-656 "/>
<text text-anchor="middle" x="25" y="-644" font-family="Helvetica,sans-Serif" font-size="10.00" fill="#000000"> </text>
<polyline fill="none" stroke="#bfbfbf" points="0,-637 50,-637 "/>
<text text-anchor="middle" x="25" y="-625" font-family="Helvetica,sans-Serif" font-size="10.00" fill="#000000"> </text>
</g>
<!-- Node3&#45;&gt;Node1 -->
<g id="edge7" class="edge">
<title>Node3&#45;&gt;Node1</title>
<path fill="none" stroke="#404040" d="M25.5759,-617.8531C27.1509,-569.3356 33.033,-468.2481 55,-386 85.9757,-270.0217 90.5986,-234.5003 162,-138 185.8212,-105.8052 222.2499,-80.9308 255.7147,-63.1279"/>
<polygon fill="none" stroke="#404040" points="255.7878,-63.0904 259.2904,-56.7871 266.456,-57.5959 262.9534,-63.8992 255.7878,-63.0904"/>
<text text-anchor="middle" x="99" y="-360" font-family="Helvetica,sans-Serif" font-size="10.00" fill="#000000"> +massKPi</text>
<text text-anchor="middle" x="99" y="-349" font-family="Helvetica,sans-Serif" font-size="10.00" fill="#000000">+massPi</text>
<text text-anchor="middle" x="99" y="-338" font-family="Helvetica,sans-Serif" font-size="10.00" fill="#000000">+massK</text>
<text text-anchor="middle" x="99" y="-327" font-family="Helvetica,sans-Serif" font-size="10.00" fill="#000000">+massPiK</text>
</g>
<!-- Node3&#45;&gt;Node2 -->
<g id="edge2" class="edge">
<title>Node3&#45;&gt;Node2</title>
<path fill="none" stroke="#404040" d="M28.1166,-617.7391C30.9241,-600.4369 36.1933,-578.4573 46,-561 54.5576,-545.7664 66.1799,-531.2826 78.3828,-518.3863"/>
<polygon fill="none" stroke="#404040" points="78.4843,-518.283 79.8351,-511.1995 86.8933,-509.722 85.5425,-516.8055 78.4843,-518.283"/>
<text text-anchor="middle" x="65.5" y="-564" font-family="Helvetica,sans-Serif" font-size="10.00" fill="#000000"> +value</text>
</g>
<!-- Node4 -->
<g id="node4" class="node">
<title>Node4</title>
<polygon fill="none" stroke="#bfbfbf" points="486.5,-778 486.5,-835 515.5,-835 515.5,-778 486.5,-778"/>
<text text-anchor="middle" x="501" y="-823" font-family="Helvetica,sans-Serif" font-size="10.00" fill="#000000">int</text>
<polyline fill="none" stroke="#bfbfbf" points="486.5,-816 515.5,-816 "/>
<text text-anchor="middle" x="501" y="-804" font-family="Helvetica,sans-Serif" font-size="10.00" fill="#000000"> </text>
<polyline fill="none" stroke="#bfbfbf" points="486.5,-797 515.5,-797 "/>
<text text-anchor="middle" x="501" y="-785" font-family="Helvetica,sans-Serif" font-size="10.00" fill="#000000"> </text>
</g>
<!-- Node4&#45;&gt;Node2 -->
<g id="edge3" class="edge">
<title>Node4&#45;&gt;Node2</title>
<path fill="none" stroke="#404040" d="M486.1545,-803.7114C417.3492,-790.6416 131.8081,-734.7534 108,-703 68.7299,-650.6245 90.1875,-573.1421 112.7953,-520.8308"/>
<polygon fill="none" stroke="#404040" points="112.8575,-520.692 111.6623,-513.5806 117.7669,-509.7421 118.9622,-516.8535 112.8575,-520.692"/>
<text text-anchor="middle" x="128" y="-649.5" font-family="Helvetica,sans-Serif" font-size="10.00" fill="#000000"> +name</text>
<text text-anchor="middle" x="128" y="-638.5" font-family="Helvetica,sans-Serif" font-size="10.00" fill="#000000">+help</text>
</g>
<!-- Node5 -->
<g id="node5" class="node">
<title>Node5</title>
<g id="a_node5"><a xlink:href="../../d8/d71/structo2_1_1framework_1_1Configurable.html" target="_top" xlink:title="{o2::framework::Configurable\&lt; T \&gt;\n||+ Configurable()\l+ operator T()\l+ operator&#45;\&gt;()\l}">
<polygon fill="none" stroke="#000000" points="157,-607 157,-686 341,-686 341,-607 157,-607"/>
<text text-anchor="middle" x="249" y="-674" font-family="Helvetica,sans-Serif" font-size="10.00" fill="#000000">o2::framework::Configurable&lt; T &gt;</text>
<polyline fill="none" stroke="#000000" points="157,-667 341,-667 "/>
<text text-anchor="middle" x="249" y="-655" font-family="Helvetica,sans-Serif" font-size="10.00" fill="#000000"> </text>
<polyline fill="none" stroke="#000000" points="157,-648 341,-648 "/>
<text text-anchor="start" x="165" y="-636" font-family="Helvetica,sans-Serif" font-size="10.00" fill="#000000">+ Configurable()</text>
<text text-anchor="start" x="165" y="-625" font-family="Helvetica,sans-Serif" font-size="10.00" fill="#000000">+ operator T()</text>
<text text-anchor="start" x="165" y="-614" font-family="Helvetica,sans-Serif" font-size="10.00" fill="#000000">+ operator&#45;&gt;()</text>
</a>
</g>
</g>
<!-- Node4&#45;&gt;Node5 -->
<g id="edge5" class="edge">
<title>Node4&#45;&gt;Node5</title>
<path fill="none" stroke="#404040" d="M486.3048,-804.1759C454.059,-798.4919 375.7721,-781.4476 323,-743 305.9015,-730.5427 290.8509,-713.0529 278.8647,-696.3787"/>
<polygon fill="none" stroke="#404040" points="278.6239,-696.0298 271.9234,-693.3645 271.8066,-686.1543 278.5071,-688.8196 278.6239,-696.0298"/>
<text text-anchor="middle" x="343" y="-735" font-family="Helvetica,sans-Serif" font-size="10.00" fill="#000000"> +name</text>
<text text-anchor="middle" x="343" y="-724" font-family="Helvetica,sans-Serif" font-size="10.00" fill="#000000">+help</text>
</g>
<!-- Node7 -->
<g id="node7" class="node">
<title>Node7</title>
<g id="a_node7"><a xlink:href="../../d8/d71/structo2_1_1framework_1_1Configurable.html" target="_top" xlink:title="{o2::framework::Configurable\l\&lt; bool \&gt;\n||+ Configurable()\l+ operator bool()\l+ operator&#45;\&gt;()\l}">
<polygon fill="none" stroke="#000000" points="259.5,-419.5 259.5,-509.5 414.5,-509.5 414.5,-419.5 259.5,-419.5"/>
<text text-anchor="start" x="267.5" y="-497.5" font-family="Helvetica,sans-Serif" font-size="10.00" fill="#000000">o2::framework::Configurable</text>
<text text-anchor="middle" x="337" y="-486.5" font-family="Helvetica,sans-Serif" font-size="10.00" fill="#000000">&lt; bool &gt;</text>
<polyline fill="none" stroke="#000000" points="259.5,-479.5 414.5,-479.5 "/>
<text text-anchor="middle" x="337" y="-467.5" font-family="Helvetica,sans-Serif" font-size="10.00" fill="#000000"> </text>
<polyline fill="none" stroke="#000000" points="259.5,-460.5 414.5,-460.5 "/>
<text text-anchor="start" x="267.5" y="-448.5" font-family="Helvetica,sans-Serif" font-size="10.00" fill="#000000">+ Configurable()</text>
<text text-anchor="start" x="267.5" y="-437.5" font-family="Helvetica,sans-Serif" font-size="10.00" fill="#000000">+ operator bool()</text>
<text text-anchor="start" x="267.5" y="-426.5" font-family="Helvetica,sans-Serif" font-size="10.00" fill="#000000">+ operator&#45;&gt;()</text>
</a>
</g>
</g>
<!-- Node4&#45;&gt;Node7 -->
<g id="edge9" class="edge">
<title>Node4&#45;&gt;Node7</title>
<path fill="none" stroke="#404040" d="M486.2825,-797.7461C461.3572,-782.0951 411.1048,-746.8153 386,-703 368.6251,-672.6756 353.2521,-582.018 344.5441,-521.6212"/>
<polygon fill="none" stroke="#404040" points="344.5242,-521.4802 339.722,-516.1007 342.8407,-509.5988 347.6429,-514.9784 344.5242,-521.4802"/>
<text text-anchor="middle" x="406" y="-649.5" font-family="Helvetica,sans-Serif" font-size="10.00" fill="#000000"> +name</text>
<text text-anchor="middle" x="406" y="-638.5" font-family="Helvetica,sans-Serif" font-size="10.00" fill="#000000">+help</text>
</g>
<!-- Node9 -->
<g id="node9" class="node">
<title>Node9</title>
<g id="a_node9"><a xlink:href="../../d4/d79/structo2_1_1framework_1_1OutputObj.html" target="_top" xlink:title="{o2::framework::OutputObj\l\&lt; TH1F \&gt;\n||+ spec()\l+ OutputObj()\l+ OutputObj()\l+ setObject()\l+ setObject()\l+ setObject()\l+ setHash()\l+ operator&#45;\&gt;()\l+ operator*()\l+ ref()\l}">
<polygon fill="none" stroke="#000000" points="726.5,-138.5 726.5,-305.5 869.5,-305.5 869.5,-138.5 726.5,-138.5"/>
<text text-anchor="start" x="734.5" y="-293.5" font-family="Helvetica,sans-Serif" font-size="10.00" fill="#000000">o2::framework::OutputObj</text>
<text text-anchor="middle" x="798" y="-282.5" font-family="Helvetica,sans-Serif" font-size="10.00" fill="#000000">&lt; TH1F &gt;</text>
<polyline fill="none" stroke="#000000" points="726.5,-275.5 869.5,-275.5 "/>
<text text-anchor="middle" x="798" y="-263.5" font-family="Helvetica,sans-Serif" font-size="10.00" fill="#000000"> </text>
<polyline fill="none" stroke="#000000" points="726.5,-256.5 869.5,-256.5 "/>
<text text-anchor="start" x="734.5" y="-244.5" font-family="Helvetica,sans-Serif" font-size="10.00" fill="#000000">+ spec()</text>
<text text-anchor="start" x="734.5" y="-233.5" font-family="Helvetica,sans-Serif" font-size="10.00" fill="#000000">+ OutputObj()</text>
<text text-anchor="start" x="734.5" y="-222.5" font-family="Helvetica,sans-Serif" font-size="10.00" fill="#000000">+ OutputObj()</text>
<text text-anchor="start" x="734.5" y="-211.5" font-family="Helvetica,sans-Serif" font-size="10.00" fill="#000000">+ setObject()</text>
<text text-anchor="start" x="734.5" y="-200.5" font-family="Helvetica,sans-Serif" font-size="10.00" fill="#000000">+ setObject()</text>
<text text-anchor="start" x="734.5" y="-189.5" font-family="Helvetica,sans-Serif" font-size="10.00" fill="#000000">+ setObject()</text>
<text text-anchor="start" x="734.5" y="-178.5" font-family="Helvetica,sans-Serif" font-size="10.00" fill="#000000">+ setHash()</text>
<text text-anchor="start" x="734.5" y="-167.5" font-family="Helvetica,sans-Serif" font-size="10.00" fill="#000000">+ operator&#45;&gt;()</text>
<text text-anchor="start" x="734.5" y="-156.5" font-family="Helvetica,sans-Serif" font-size="10.00" fill="#000000">+ operator*()</text>
<text text-anchor="start" x="734.5" y="-145.5" font-family="Helvetica,sans-Serif" font-size="10.00" fill="#000000">+ ref()</text>
</a>
</g>
</g>
<!-- Node4&#45;&gt;Node9 -->
<g id="edge15" class="edge">
<title>Node4&#45;&gt;Node9</title>
<path fill="none" stroke="#404040" d="M515.8821,-805.0305C582.4547,-798.1238 851.8189,-766.5265 901,-703 935.099,-658.9549 880.8625,-426.9322 869,-386 862.3508,-363.0565 853.2791,-339.0796 843.8434,-316.7662"/>
<polygon fill="none" stroke="#404040" points="843.7863,-316.6334 837.7392,-312.7049 839.0397,-305.6121 845.0868,-309.5406 843.7863,-316.6334"/>
<text text-anchor="middle" x="925" y="-564" font-family="Helvetica,sans-Serif" font-size="10.00" fill="#000000"> +label</text>
</g>
<!-- Node12 -->
<g id="node12" class="node">
<title>Node12</title>
<g id="a_node12"><a xlink:href="../../da/d96/structo2_1_1framework_1_1InputSpec.html" target="_top" xlink:title="{o2::framework::InputSpec\n||+ InputSpec()\l+ InputSpec()\l+ InputSpec()\l+ InputSpec()\l+ InputSpec()\l+ operator==()\l}">
<polygon fill="none" stroke="#000000" points="954,-590.5 954,-702.5 1096,-702.5 1096,-590.5 954,-590.5"/>
<text text-anchor="middle" x="1025" y="-690.5" font-family="Helvetica,sans-Serif" font-size="10.00" fill="#000000">o2::framework::InputSpec</text>
<polyline fill="none" stroke="#000000" points="954,-683.5 1096,-683.5 "/>
<text text-anchor="middle" x="1025" y="-671.5" font-family="Helvetica,sans-Serif" font-size="10.00" fill="#000000"> </text>
<polyline fill="none" stroke="#000000" points="954,-664.5 1096,-664.5 "/>
<text text-anchor="start" x="962" y="-652.5" font-family="Helvetica,sans-Serif" font-size="10.00" fill="#000000">+ InputSpec()</text>
<text text-anchor="start" x="962" y="-641.5" font-family="Helvetica,sans-Serif" font-size="10.00" fill="#000000">+ InputSpec()</text>
<text text-anchor="start" x="962" y="-630.5" font-family="Helvetica,sans-Serif" font-size="10.00" fill="#000000">+ InputSpec()</text>
<text text-anchor="start" x="962" y="-619.5" font-family="Helvetica,sans-Serif" font-size="10.00" fill="#000000">+ InputSpec()</text>
<text text-anchor="start" x="962" y="-608.5" font-family="Helvetica,sans-Serif" font-size="10.00" fill="#000000">+ InputSpec()</text>
<text text-anchor="start" x="962" y="-597.5" font-family="Helvetica,sans-Serif" font-size="10.00" fill="#000000">+ operator==()</text>
</a>
</g>
</g>
<!-- Node4&#45;&gt;Node12 -->
<g id="edge20" class="edge">
<title>Node4&#45;&gt;Node12</title>
<path fill="none" stroke="#404040" d="M515.5416,-805.6162C581.9614,-801.3911 856.5025,-781.8332 932,-743 947.4663,-735.0447 961.8296,-723.5077 974.4155,-711.1588"/>
<polygon fill="none" stroke="#404040" points="974.4632,-711.1098 975.7845,-704.0207 982.8365,-702.5139 981.5151,-709.6029 974.4632,-711.1098"/>
<text text-anchor="middle" x="987" y="-729.5" font-family="Helvetica,sans-Serif" font-size="10.00" fill="#000000"> +binding</text>
</g>
<!-- Node16 -->
<g id="node16" class="node">
<title>Node16</title>
<g id="a_node16"><a xlink:href="../../d4/d79/structo2_1_1framework_1_1OutputObj.html" target="_top" xlink:title="{o2::framework::OutputObj\&lt; T \&gt;\n||+ OutputObj()\l+ OutputObj()\l+ setObject()\l+ setObject()\l+ setObject()\l+ setHash()\l+ spec()\l+ operator&#45;\&gt;()\l+ operator*()\l+ ref()\l}">
<polygon fill="none" stroke="#000000" points="538,-386.5 538,-542.5 710,-542.5 710,-386.5 538,-386.5"/>
<text text-anchor="middle" x="624" y="-530.5" font-family="Helvetica,sans-Serif" font-size="10.00" fill="#000000">o2::framework::OutputObj&lt; T &gt;</text>
<polyline fill="none" stroke="#000000" points="538,-523.5 710,-523.5 "/>
<text text-anchor="middle" x="624" y="-511.5" font-family="Helvetica,sans-Serif" font-size="10.00" fill="#000000"> </text>
<polyline fill="none" stroke="#000000" points="538,-504.5 710,-504.5 "/>
<text text-anchor="start" x="546" y="-492.5" font-family="Helvetica,sans-Serif" font-size="10.00" fill="#000000">+ OutputObj()</text>
<text text-anchor="start" x="546" y="-481.5" font-family="Helvetica,sans-Serif" font-size="10.00" fill="#000000">+ OutputObj()</text>
<text text-anchor="start" x="546" y="-470.5" font-family="Helvetica,sans-Serif" font-size="10.00" fill="#000000">+ setObject()</text>
<text text-anchor="start" x="546" y="-459.5" font-family="Helvetica,sans-Serif" font-size="10.00" fill="#000000">+ setObject()</text>
<text text-anchor="start" x="546" y="-448.5" font-family="Helvetica,sans-Serif" font-size="10.00" fill="#000000">+ setObject()</text>
<text text-anchor="start" x="546" y="-437.5" font-family="Helvetica,sans-Serif" font-size="10.00" fill="#000000">+ setHash()</text>
<text text-anchor="start" x="546" y="-426.5" font-family="Helvetica,sans-Serif" font-size="10.00" fill="#000000">+ spec()</text>
<text text-anchor="start" x="546" y="-415.5" font-family="Helvetica,sans-Serif" font-size="10.00" fill="#000000">+ operator&#45;&gt;()</text>
<text text-anchor="start" x="546" y="-404.5" font-family="Helvetica,sans-Serif" font-size="10.00" fill="#000000">+ operator*()</text>
<text text-anchor="start" x="546" y="-393.5" font-family="Helvetica,sans-Serif" font-size="10.00" fill="#000000">+ ref()</text>
</a>
</g>
</g>
<!-- Node4&#45;&gt;Node16 -->
<g id="edge25" class="edge">
<title>Node4&#45;&gt;Node16</title>
<path fill="none" stroke="#404040" d="M515.7566,-795.7143C537.7071,-778.7421 578.3684,-743.5274 597,-703 618.1311,-657.0358 625.2924,-601.0303 626.9814,-554.8441"/>
<polygon fill="none" stroke="#404040" points="626.985,-554.7073 623.1486,-548.6014 627.3092,-542.7116 631.1457,-548.8175 626.985,-554.7073"/>
<text text-anchor="middle" x="643" y="-644" font-family="Helvetica,sans-Serif" font-size="10.00" fill="#000000"> +label</text>
</g>
<!-- Node5&#45;&gt;Node2 -->
<g id="edge4" class="edge">
<title>Node5&#45;&gt;Node2</title>
<path fill="none" stroke="#ffa500" d="M220.4415,-597.9238C204.3534,-570.559 184.3887,-536.6004 168.6272,-509.7912"/>
<polygon fill="#ffa500" stroke="#ffa500" points="217.433,-599.7126 225.5184,-606.5593 223.4674,-596.1649 217.433,-599.7126"/>
<text text-anchor="middle" x="235.5" y="-564" font-family="Helvetica,sans-Serif" font-size="10.00" fill="#000000"> &lt; double &gt;</text>
</g>
<!-- Node5&#45;&gt;Node7 -->
<g id="edge11" class="edge">
<title>Node5&#45;&gt;Node7</title>
<path fill="none" stroke="#ffa500" d="M272.8318,-597.2115C286.0028,-569.9716 302.2505,-536.3683 315.101,-509.7912"/>
<polygon fill="#ffa500" stroke="#ffa500" points="269.5141,-596.0329 268.312,-606.5593 275.816,-599.0801 269.5141,-596.0329"/>
<text text-anchor="middle" x="311.5" y="-564" font-family="Helvetica,sans-Serif" font-size="10.00" fill="#000000"> &lt; bool &gt;</text>
</g>
<!-- Node6 -->
<g id="node6" class="node">
<title>Node6</title>
<polygon fill="none" stroke="#bfbfbf" points="234.5,-778 234.5,-835 263.5,-835 263.5,-778 234.5,-778"/>
<text text-anchor="middle" x="249" y="-823" font-family="Helvetica,sans-Serif" font-size="10.00" fill="#000000">T</text>
<polyline fill="none" stroke="#bfbfbf" points="234.5,-816 263.5,-816 "/>
<text text-anchor="middle" x="249" y="-804" font-family="Helvetica,sans-Serif" font-size="10.00" fill="#000000"> </text>
<polyline fill="none" stroke="#bfbfbf" points="234.5,-797 263.5,-797 "/>
<text text-anchor="middle" x="249" y="-785" font-family="Helvetica,sans-Serif" font-size="10.00" fill="#000000"> </text>
</g>
<!-- Node6&#45;&gt;Node5 -->
<g id="edge6" class="edge">
<title>Node6&#45;&gt;Node5</title>
<path fill="none" stroke="#404040" d="M249,-777.8952C249,-755.8577 249,-724.7968 249,-698.4075"/>
<polygon fill="none" stroke="#404040" points="249.0001,-698.2754 245,-692.2755 249,-686.2754 253,-692.2754 249.0001,-698.2754"/>
<text text-anchor="middle" x="268.5" y="-729.5" font-family="Helvetica,sans-Serif" font-size="10.00" fill="#000000"> +value</text>
</g>
<!-- Node7&#45;&gt;Node1 -->
<g id="edge8" class="edge">
<title>Node7&#45;&gt;Node1</title>
<path fill="none" stroke="#404040" d="M337,-419.1263C337,-333.9275 337,-151.272 337,-69.7468"/>
<polygon fill="none" stroke="#404040" points="337.0001,-69.5612 333,-63.5613 337,-57.5612 341,-63.5612 337.0001,-69.5612"/>
<text text-anchor="middle" x="372.5" y="-225" font-family="Helvetica,sans-Serif" font-size="10.00" fill="#000000"> +b_propdca</text>
<text text-anchor="middle" x="372.5" y="-214" font-family="Helvetica,sans-Serif" font-size="10.00" fill="#000000">+b_dovalplots</text>
</g>
<!-- Node8 -->
<g id="node8" class="node">
<title>Node8</title>
<polygon fill="none" stroke="#bfbfbf" points="435,-618 435,-675 473,-675 473,-618 435,-618"/>
<text text-anchor="middle" x="454" y="-663" font-family="Helvetica,sans-Serif" font-size="10.00" fill="#000000">bool</text>
<polyline fill="none" stroke="#bfbfbf" points="435,-656 473,-656 "/>
<text text-anchor="middle" x="454" y="-644" font-family="Helvetica,sans-Serif" font-size="10.00" fill="#000000"> </text>
<polyline fill="none" stroke="#bfbfbf" points="435,-637 473,-637 "/>
<text text-anchor="middle" x="454" y="-625" font-family="Helvetica,sans-Serif" font-size="10.00" fill="#000000"> </text>
</g>
<!-- Node8&#45;&gt;Node7 -->
<g id="edge10" class="edge">
<title>Node8&#45;&gt;Node7</title>
<path fill="none" stroke="#404040" d="M440.0092,-617.7942C434.7393,-608.4228 428.2465,-598.3008 421,-590 412.4634,-580.2214 406.4753,-581.8317 398,-572 384.7149,-556.5887 372.9025,-537.8459 363.2946,-520.3538"/>
<polygon fill="none" stroke="#404040" points="363.2433,-520.2574 356.8927,-516.8411 357.6037,-509.6651 363.9542,-513.0814 363.2433,-520.2574"/>
<text text-anchor="middle" x="417.5" y="-564" font-family="Helvetica,sans-Serif" font-size="10.00" fill="#000000"> +value</text>
</g>
<!-- Node8&#45;&gt;Node9 -->
<g id="edge16" class="edge">
<title>Node8&#45;&gt;Node9</title>
<path fill="none" stroke="#404040" d="M446.7403,-617.8308C435.5156,-566.5939 419.8272,-457.9505 467,-386 522.688,-301.0617 636.1511,-258.4507 714.594,-238.3034"/>
<polygon fill="none" stroke="#404040" points="714.7388,-238.2675 719.5979,-232.9394 726.3851,-235.3756 721.5259,-240.7037 714.7388,-238.2675"/>
<text text-anchor="middle" x="498" y="-462" font-family="Helvetica,sans-Serif" font-size="10.00" fill="#000000"> +isdangling</text>
</g>
<!-- Node8&#45;&gt;Node16 -->
<g id="edge27" class="edge">
<title>Node8&#45;&gt;Node16</title>
<path fill="none" stroke="#404040" d="M467.3036,-617.9871C471.7529,-608.9199 476.8863,-598.9301 482,-590 489.657,-576.6283 490.5785,-572.3501 501,-561 509.4162,-551.8339 518.763,-542.8558 528.4371,-534.2924"/>
<polygon fill="none" stroke="#404040" points="528.7089,-534.0577 530.6372,-527.1091 537.7928,-526.2165 535.8646,-533.1651 528.7089,-534.0577"/>
<text text-anchor="middle" x="532" y="-564" font-family="Helvetica,sans-Serif" font-size="10.00" fill="#000000"> +isdangling</text>
</g>
<!-- Node9&#45;&gt;Node1 -->
<g id="edge12" class="edge">
<title>Node9&#45;&gt;Node1</title>
<path fill="none" stroke="#404040" d="M726.4746,-192.0555C642.5235,-156.909 503.7167,-98.7968 416.4728,-62.2717"/>
<polygon fill="none" stroke="#404040" points="416.3756,-62.2311 409.2964,-63.6037 405.3065,-57.5969 412.3858,-56.2243 416.3756,-62.2311"/>
<text text-anchor="middle" x="587" y="-112" font-family="Helvetica,sans-Serif" font-size="10.00" fill="#000000"> +hvtx_x_out</text>
<text text-anchor="middle" x="587" y="-101" font-family="Helvetica,sans-Serif" font-size="10.00" fill="#000000">+hvtx_z_out</text>
<text text-anchor="middle" x="587" y="-90" font-family="Helvetica,sans-Serif" font-size="10.00" fill="#000000">+hmass2</text>
<text text-anchor="middle" x="587" y="-79" font-family="Helvetica,sans-Serif" font-size="10.00" fill="#000000">+hvtx_y_out</text>
</g>
<!-- Node10 -->
<g id="node10" class="node">
<title>Node10</title>
<polygon fill="none" stroke="#bfbfbf" points="753.5,-618 753.5,-675 892.5,-675 892.5,-618 753.5,-618"/>
<text text-anchor="middle" x="823" y="-663" font-family="Helvetica,sans-Serif" font-size="10.00" fill="#000000">OutputObjHandlingPolicy</text>
<polyline fill="none" stroke="#bfbfbf" points="753.5,-656 892.5,-656 "/>
<text text-anchor="middle" x="823" y="-644" font-family="Helvetica,sans-Serif" font-size="10.00" fill="#000000"> </text>
<polyline fill="none" stroke="#bfbfbf" points="753.5,-637 892.5,-637 "/>
<text text-anchor="middle" x="823" y="-625" font-family="Helvetica,sans-Serif" font-size="10.00" fill="#000000"> </text>
</g>
<!-- Node10&#45;&gt;Node9 -->
<g id="edge13" class="edge">
<title>Node10&#45;&gt;Node9</title>
<path fill="none" stroke="#404040" d="M823.4043,-617.9326C823.8699,-569.9491 823.9233,-470.1532 818,-386 816.438,-363.8081 813.9866,-340.0094 811.3282,-317.6146"/>
<polygon fill="none" stroke="#404040" points="811.3272,-317.6057 806.6322,-312.1324 809.8787,-305.6935 814.5737,-311.1668 811.3272,-317.6057"/>
<text text-anchor="middle" x="844.5" y="-462" font-family="Helvetica,sans-Serif" font-size="10.00" fill="#000000"> +policy</text>
</g>
<!-- Node10&#45;&gt;Node16 -->
<g id="edge24" class="edge">
<title>Node10&#45;&gt;Node16</title>
<path fill="none" stroke="#404040" d="M794.8509,-617.9101C778.0351,-601.0658 756.101,-579.5001 736,-561 730.5469,-555.9812 724.899,-550.8668 719.1696,-545.7423"/>
<polygon fill="none" stroke="#404040" points="719.0842,-545.6664 711.9423,-544.6695 710.1157,-537.6935 717.2576,-538.6904 719.0842,-545.6664"/>
<text text-anchor="middle" x="766.5" y="-564" font-family="Helvetica,sans-Serif" font-size="10.00" fill="#000000"> +policy</text>
</g>
<!-- Node11 -->
<g id="node11" class="node">
<title>Node11</title>
<g id="a_node11"><a xlink:href="../../d3/d87/classuint32__t.html" target="_top" xlink:title="{uint32_t\n||}">
<polygon fill="none" stroke="#000000" points="679,-618 679,-675 735,-675 735,-618 679,-618"/>
<text text-anchor="middle" x="707" y="-663" font-family="Helvetica,sans-Serif" font-size="10.00" fill="#000000">uint32_t</text>
<polyline fill="none" stroke="#000000" points="679,-656 735,-656 "/>
<text text-anchor="middle" x="707" y="-644" font-family="Helvetica,sans-Serif" font-size="10.00" fill="#000000"> </text>
<polyline fill="none" stroke="#000000" points="679,-637 735,-637 "/>
<text text-anchor="middle" x="707" y="-625" font-family="Helvetica,sans-Serif" font-size="10.00" fill="#000000"> </text>
</a>
</g>
</g>
<!-- Node11&#45;&gt;Node9 -->
<g id="edge14" class="edge">
<title>Node11&#45;&gt;Node9</title>
<path fill="none" stroke="#404040" d="M718.4395,-617.9447C723.4375,-604.2627 728.8645,-587.512 732,-572 748.4247,-490.7429 730.2551,-467.3916 746,-386 750.3719,-363.3999 756.8241,-339.5443 763.7079,-317.2373"/>
<polygon fill="none" stroke="#404040" points="763.7283,-317.1723 761.7186,-310.2469 767.3383,-305.7281 769.348,-312.6535 763.7283,-317.1723"/>
<text text-anchor="middle" x="780" y="-462" font-family="Helvetica,sans-Serif" font-size="10.00" fill="#000000"> +mTaskHash</text>
</g>
<!-- Node11&#45;&gt;Node16 -->
<g id="edge23" class="edge">
<title>Node11&#45;&gt;Node16</title>
<path fill="none" stroke="#404040" d="M688.891,-617.7367C680.7326,-604.1514 671.3127,-587.5393 664,-572 661.2443,-566.1442 658.5436,-560.0426 655.9284,-553.852"/>
<polygon fill="none" stroke="#404040" points="655.8843,-553.7448 649.9027,-549.7173 651.3198,-542.6468 657.3014,-546.6743 655.8843,-553.7448"/>
<text text-anchor="middle" x="698" y="-564" font-family="Helvetica,sans-Serif" font-size="10.00" fill="#000000"> +mTaskHash</text>
</g>
<!-- Node12&#45;&gt;Node9 -->
<g id="edge17" class="edge">
<title>Node12&#45;&gt;Node9</title>
<path fill="none" stroke="#404040" d="M1055.757,-590.2462C1062.4508,-575.3182 1068.5562,-558.9127 1072,-543 1086.7595,-474.8011 1098.9604,-450.3589 1072,-386 1039.5004,-308.4181 949.2801,-265.191 881.173,-242.8478"/>
<polygon fill="none" stroke="#404040" points="881.0296,-242.8024 874.1015,-244.8028 869.5903,-239.1771 876.5183,-237.1766 881.0296,-242.8024"/>
<text text-anchor="middle" x="1105" y="-462" font-family="Helvetica,sans-Serif" font-size="10.00" fill="#000000"> +spec</text>
</g>
<!-- Node12&#45;&gt;Node16 -->
<g id="edge28" class="edge">
<title>Node12&#45;&gt;Node16</title>
<path fill="none" stroke="#404040" d="M992.9533,-590.0597C983.7986,-578.6064 972.7744,-567.953 960,-561 913.803,-535.8553 773.0217,-562.0603 724,-543 723.1322,-542.6626 722.2658,-542.3149 721.401,-541.9575"/>
<polygon fill="none" stroke="#404040" points="721.1535,-541.8429 714.0276,-542.9484 710.2664,-536.7959 717.3923,-535.6903 721.1535,-541.8429"/>
<text text-anchor="middle" x="992" y="-564" font-family="Helvetica,sans-Serif" font-size="10.00" fill="#000000"> +spec</text>
</g>
<!-- Node13 -->
<g id="node13" class="node">
<title>Node13</title>
<polygon fill="none" stroke="#bfbfbf" points="981,-778 981,-835 1069,-835 1069,-778 981,-778"/>
<text text-anchor="middle" x="1025" y="-823" font-family="Helvetica,sans-Serif" font-size="10.00" fill="#000000">enum Lifetime</text>
<polyline fill="none" stroke="#bfbfbf" points="981,-816 1069,-816 "/>
<text text-anchor="middle" x="1025" y="-804" font-family="Helvetica,sans-Serif" font-size="10.00" fill="#000000"> </text>
<polyline fill="none" stroke="#bfbfbf" points="981,-797 1069,-797 "/>
<text text-anchor="middle" x="1025" y="-785" font-family="Helvetica,sans-Serif" font-size="10.00" fill="#000000"> </text>
</g>
<!-- Node13&#45;&gt;Node12 -->
<g id="edge18" class="edge">
<title>Node13&#45;&gt;Node12</title>
<path fill="none" stroke="#404040" d="M1025,-777.8952C1025,-760.3 1025,-736.9527 1025,-714.8235"/>
<polygon fill="none" stroke="#404040" points="1025.0001,-714.6991 1021,-708.6991 1025,-702.6991 1029,-708.6991 1025.0001,-714.6991"/>
<text text-anchor="middle" x="1050" y="-729.5" font-family="Helvetica,sans-Serif" font-size="10.00" fill="#000000"> +lifetime</text>
</g>
<!-- Node14 -->
<g id="node14" class="node">
<title>Node14</title>
<polygon fill="none" stroke="#bfbfbf" points="1087,-761.5 1087,-851.5 1251,-851.5 1251,-761.5 1087,-761.5"/>
<text text-anchor="start" x="1095" y="-839.5" font-family="Helvetica,sans-Serif" font-size="10.00" fill="#000000">variant&lt; o2::framework</text>
<text text-anchor="start" x="1095" y="-828.5" font-family="Helvetica,sans-Serif" font-size="10.00" fill="#000000">::ConcreteDataMatcher,</text>
<text text-anchor="start" x="1095" y="-817.5" font-family="Helvetica,sans-Serif" font-size="10.00" fill="#000000"> o2::framework::data_matcher</text>
<text text-anchor="middle" x="1169" y="-806.5" font-family="Helvetica,sans-Serif" font-size="10.00" fill="#000000">::DataDescriptorMatcher &gt;</text>
<polyline fill="none" stroke="#bfbfbf" points="1087,-799.5 1251,-799.5 "/>
<text text-anchor="middle" x="1169" y="-787.5" font-family="Helvetica,sans-Serif" font-size="10.00" fill="#000000"> </text>
<polyline fill="none" stroke="#bfbfbf" points="1087,-780.5 1251,-780.5 "/>
<text text-anchor="middle" x="1169" y="-768.5" font-family="Helvetica,sans-Serif" font-size="10.00" fill="#000000"> </text>
</g>
<!-- Node14&#45;&gt;Node12 -->
<g id="edge19" class="edge">
<title>Node14&#45;&gt;Node12</title>
<path fill="none" stroke="#404040" d="M1128.1206,-761.0784C1114.2995,-745.7217 1098.584,-728.2599 1083.6607,-711.6785"/>
<polygon fill="none" stroke="#404040" points="1083.4961,-711.4957 1076.5091,-709.7118 1075.4685,-702.5761 1082.4555,-704.36 1083.4961,-711.4957"/>
<text text-anchor="middle" x="1136" y="-729.5" font-family="Helvetica,sans-Serif" font-size="10.00" fill="#000000"> +matcher</text>
</g>
<!-- Node15 -->
<g id="node15" class="node">
<title>Node15</title>
<polygon fill="none" stroke="#bfbfbf" points="947,-436 947,-493 1063,-493 1063,-436 947,-436"/>
<text text-anchor="middle" x="1005" y="-481" font-family="Helvetica,sans-Serif" font-size="10.00" fill="#000000">shared_ptr&lt; TH1F &gt;</text>
<polyline fill="none" stroke="#bfbfbf" points="947,-474 1063,-474 "/>
<text text-anchor="middle" x="1005" y="-462" font-family="Helvetica,sans-Serif" font-size="10.00" fill="#000000"> </text>
<polyline fill="none" stroke="#bfbfbf" points="947,-455 1063,-455 "/>
<text text-anchor="middle" x="1005" y="-443" font-family="Helvetica,sans-Serif" font-size="10.00" fill="#000000"> </text>
</g>
<!-- Node15&#45;&gt;Node9 -->
<g id="edge21" class="edge">
<title>Node15&#45;&gt;Node9</title>
<path fill="none" stroke="#404040" d="M994.7745,-435.8893C983.0675,-405.8151 961.7352,-358.2089 933,-324 917.6451,-305.7202 898.434,-288.767 879.3625,-274.1403"/>
<polygon fill="none" stroke="#404040" points="879.3354,-274.1201 872.135,-273.7282 869.7273,-266.9309 876.9278,-267.3228 879.3354,-274.1201"/>
<text text-anchor="middle" x="984" y="-343.5" font-family="Helvetica,sans-Serif" font-size="10.00" fill="#000000"> +object</text>
</g>
<!-- Node16&#45;&gt;Node9 -->
<g id="edge22" class="edge">
<title>Node16&#45;&gt;Node9</title>
<path fill="none" stroke="#ffa500" d="M652.0427,-377.1075C659.9337,-358.7138 669.5578,-340.0412 681,-324 693.6755,-306.2298 710.0429,-289.4932 726.4971,-274.9153"/>
<polygon fill="#ffa500" stroke="#ffa500" points="648.7899,-375.8145 648.1912,-386.3924 655.2557,-378.4966 648.7899,-375.8145"/>
<text text-anchor="middle" x="706.5" y="-343.5" font-family="Helvetica,sans-Serif" font-size="10.00" fill="#000000"> &lt; TH1F &gt;</text>
</g>
<!-- Node17 -->
<g id="node17" class="node">
<title>Node17</title>
<polygon fill="none" stroke="#bfbfbf" points="491.5,-618 491.5,-675 588.5,-675 588.5,-618 491.5,-618"/>
<text text-anchor="middle" x="540" y="-663" font-family="Helvetica,sans-Serif" font-size="10.00" fill="#000000">shared_ptr&lt; T &gt;</text>
<polyline fill="none" stroke="#bfbfbf" points="491.5,-656 588.5,-656 "/>
<text text-anchor="middle" x="540" y="-644" font-family="Helvetica,sans-Serif" font-size="10.00" fill="#000000"> </text>
<polyline fill="none" stroke="#bfbfbf" points="491.5,-637 588.5,-637 "/>
<text text-anchor="middle" x="540" y="-625" font-family="Helvetica,sans-Serif" font-size="10.00" fill="#000000"> </text>
</g>
<!-- Node17&#45;&gt;Node16 -->
<g id="edge26" class="edge">
<title>Node17&#45;&gt;Node16</title>
<path fill="none" stroke="#404040" d="M548.6627,-617.9082C554.1023,-601.0634 561.6547,-579.4976 570,-561 571.1065,-558.5473 572.2538,-556.0739 573.4339,-553.5895"/>
<polygon fill="none" stroke="#404040" points="573.5122,-553.4298 572.5622,-546.2815 578.7952,-542.6553 579.7452,-549.8035 573.5122,-553.4298"/>
<text text-anchor="middle" x="591" y="-564" font-family="Helvetica,sans-Serif" font-size="10.00" fill="#000000"> +object</text>
</g>
<!-- Node18 -->
<g id="node18" class="node">
<title>Node18</title>
<g id="a_node18"><a xlink:href="../../d6/d86/structo2_1_1framework_1_1Produces.html" target="_top" xlink:title="{o2::framework::Produces\l\&lt; aod::HfCandBase \&gt;\n||}">
<polygon fill="none" stroke="#000000" points="1053,-188 1053,-256 1191,-256 1191,-188 1053,-188"/>
<text text-anchor="start" x="1061" y="-244" font-family="Helvetica,sans-Serif" font-size="10.00" fill="#000000">o2::framework::Produces</text>
<text text-anchor="middle" x="1122" y="-233" font-family="Helvetica,sans-Serif" font-size="10.00" fill="#000000">&lt; aod::HfCandBase &gt;</text>
<polyline fill="none" stroke="#000000" points="1053,-226 1191,-226 "/>
<text text-anchor="middle" x="1122" y="-214" font-family="Helvetica,sans-Serif" font-size="10.00" fill="#000000"> </text>
<polyline fill="none" stroke="#000000" points="1053,-207 1191,-207 "/>
<text text-anchor="middle" x="1122" y="-195" font-family="Helvetica,sans-Serif" font-size="10.00" fill="#000000"> </text>
</a>
</g>
</g>
<!-- Node18&#45;&gt;Node1 -->
<g id="edge29" class="edge">
<title>Node18&#45;&gt;Node1</title>
<path fill="none" stroke="#404040" d="M1052.8688,-196.2953C1004.3126,-178.7112 937.6456,-155.506 878,-138 766.4999,-105.2747 737.8669,-99.1848 624,-76 557.0252,-62.363 480.6305,-50.0061 423.5058,-41.3886"/>
<polygon fill="none" stroke="#404040" points="423.4863,-41.3858 416.9598,-44.4524 411.6188,-39.6074 418.1454,-36.5408 423.4863,-41.3858"/>
<text text-anchor="middle" x="866.5" y="-95.5" font-family="Helvetica,sans-Serif" font-size="10.00" fill="#000000"> +rowCandidateBase</text>
</g>
<!-- Node19 -->
<g id="node19" class="node">
<title>Node19</title>
<g id="a_node19"><a xlink:href="../../d6/d86/structo2_1_1framework_1_1Produces.html" target="_top" xlink:title="{o2::framework::Produces\&lt; T \&gt;\n||}">
<polygon fill="none" stroke="#000000" points="1151.5,-436 1151.5,-493 1318.5,-493 1318.5,-436 1151.5,-436"/>
<text text-anchor="middle" x="1235" y="-481" font-family="Helvetica,sans-Serif" font-size="10.00" fill="#000000">o2::framework::Produces&lt; T &gt;</text>
<polyline fill="none" stroke="#000000" points="1151.5,-474 1318.5,-474 "/>
<text text-anchor="middle" x="1235" y="-462" font-family="Helvetica,sans-Serif" font-size="10.00" fill="#000000"> </text>
<polyline fill="none" stroke="#000000" points="1151.5,-455 1318.5,-455 "/>
<text text-anchor="middle" x="1235" y="-443" font-family="Helvetica,sans-Serif" font-size="10.00" fill="#000000"> </text>
</a>
</g>
</g>
<!-- Node19&#45;&gt;Node18 -->
<g id="edge30" class="edge">
<title>Node19&#45;&gt;Node18</title>
<path fill="none" stroke="#ffa500" d="M1217.3147,-426.5471C1195.5372,-379.8121 1158.8688,-301.121 1137.9299,-256.1859"/>
<polygon fill="#ffa500" stroke="#ffa500" points="1214.1974,-428.1439 1221.5937,-435.7298 1220.5424,-425.1872 1214.1974,-428.1439"/>
<text text-anchor="middle" x="1244" y="-343.5" font-family="Helvetica,sans-Serif" font-size="10.00" fill="#000000"> &lt; aod::HfCandBase &gt;</text>
</g>
</g>
</svg>
