<?xml version="1.0" encoding="UTF-8" standalone="no"?>
<!DOCTYPE svg PUBLIC "-//W3C//DTD SVG 1.1//EN"
 "http://www.w3.org/Graphics/SVG/1.1/DTD/svg11.dtd">
<!-- Generated by graphviz version 2.40.1 (20161225.0304)
 -->
<!-- Title: /home/travis/build/AliceO2Group/AliceO2/Framework/Core/src/ASoA.cxx Pages: 1 -->
<svg width="2178pt" height="274pt"
 viewBox="0.00 0.00 2178.00 274.00" xmlns="http://www.w3.org/2000/svg" xmlns:xlink="http://www.w3.org/1999/xlink">
<g id="graph0" class="graph" transform="scale(1 1) rotate(0) translate(4 270)">
<title>/home/travis/build/AliceO2Group/AliceO2/Framework/Core/src/ASoA.cxx</title>
<!-- Node0 -->
<g id="node1" class="node">
<title>Node0</title>
<polygon fill="#bfbfbf" stroke="#000000" points="1117,-224.5 1117,-265.5 1282,-265.5 1282,-224.5 1117,-224.5"/>
<text text-anchor="start" x="1125" y="-253.5" font-family="Helvetica,sans-Serif" font-size="10.00" fill="#000000">/home/travis/build</text>
<text text-anchor="start" x="1125" y="-242.5" font-family="Helvetica,sans-Serif" font-size="10.00" fill="#000000">/AliceO2Group/AliceO2</text>
<text text-anchor="middle" x="1199.5" y="-231.5" font-family="Helvetica,sans-Serif" font-size="10.00" fill="#000000">/Framework/Core/src/ASoA.cxx</text>
</g>
<!-- Node1 -->
<g id="node2" class="node">
<title>Node1</title>
<g id="a_node2"><a xlink:href="../../de/d33/ASoA_8h.html" target="_top" xlink:title="Framework/ASoA.h">
<polygon fill="none" stroke="#000000" points="1078.5,-168.5 1078.5,-187.5 1186.5,-187.5 1186.5,-168.5 1078.5,-168.5"/>
<text text-anchor="middle" x="1132.5" y="-175.5" font-family="Helvetica,sans-Serif" font-size="10.00" fill="#000000">Framework/ASoA.h</text>
</a>
</g>
</g>
<!-- Node0&#45;&gt;Node1 -->
<g id="edge1" class="edge">
<title>Node0&#45;&gt;Node1</title>
<path fill="none" stroke="#191970" d="M1178.668,-224.168C1169.2794,-214.7794 1158.334,-203.834 1149.4574,-194.9574"/>
<polygon fill="#191970" stroke="#191970" points="1151.8265,-192.3767 1142.2805,-187.7805 1146.8767,-197.3265 1151.8265,-192.3767"/>
</g>
<!-- Node32 -->
<g id="node33" class="node">
<title>Node32</title>
<g id="a_node33"><a xlink:href="../../df/d1f/ArrowDebugHelpers_8h.html" target="_top" xlink:title="ArrowDebugHelpers.h">
<polygon fill="none" stroke="#000000" points="1205,-168.5 1205,-187.5 1328,-187.5 1328,-168.5 1205,-168.5"/>
<text text-anchor="middle" x="1266.5" y="-175.5" font-family="Helvetica,sans-Serif" font-size="10.00" fill="#000000">ArrowDebugHelpers.h</text>
</a>
</g>
</g>
<!-- Node0&#45;&gt;Node32 -->
<g id="edge40" class="edge">
<title>Node0&#45;&gt;Node32</title>
<path fill="none" stroke="#191970" d="M1220.332,-224.168C1229.7206,-214.7794 1240.666,-203.834 1249.5426,-194.9574"/>
<polygon fill="#191970" stroke="#191970" points="1252.1233,-197.3265 1256.7195,-187.7805 1247.1735,-192.3767 1252.1233,-197.3265"/>
</g>
<!-- Node2 -->
<g id="node3" class="node">
<title>Node2</title>
<g id="a_node3"><a xlink:href="../../dd/dce/Pack_8h.html" target="_top" xlink:title="Framework/Pack.h">
<polygon fill="none" stroke="#000000" points="83,-56.5 83,-75.5 188,-75.5 188,-56.5 83,-56.5"/>
<text text-anchor="middle" x="135.5" y="-63.5" font-family="Helvetica,sans-Serif" font-size="10.00" fill="#000000">Framework/Pack.h</text>
</a>
</g>
</g>
<!-- Node1&#45;&gt;Node2 -->
<g id="edge2" class="edge">
<title>Node1&#45;&gt;Node2</title>
<path fill="none" stroke="#191970" d="M1078.4773,-175.628C971.8658,-170.5712 727.001,-157.0928 522.5,-132 404.746,-117.5513 268.208,-92.2385 192.8685,-77.5151"/>
<polygon fill="#191970" stroke="#191970" points="193.1391,-74.0015 182.6523,-75.51 191.791,-80.8704 193.1391,-74.0015"/>
</g>
<!-- Node6 -->
<g id="node7" class="node">
<title>Node6</title>
<g id="a_node7"><a xlink:href="../../d1/d00/CheckTypes_8h.html" target="_top" xlink:title="Framework/CheckTypes.h">
<polygon fill="none" stroke="#000000" points="206.5,-56.5 206.5,-75.5 346.5,-75.5 346.5,-56.5 206.5,-56.5"/>
<text text-anchor="middle" x="276.5" y="-63.5" font-family="Helvetica,sans-Serif" font-size="10.00" fill="#000000">Framework/CheckTypes.h</text>
</a>
</g>
</g>
<!-- Node1&#45;&gt;Node6 -->
<g id="edge6" class="edge">
<title>Node1&#45;&gt;Node6</title>
<path fill="none" stroke="#191970" d="M1078.3723,-174.268C988.8774,-167.7789 804.5394,-153.0649 649.5,-132 536.8513,-116.6946 406.255,-91.9644 333.3168,-77.5171"/>
<polygon fill="#191970" stroke="#191970" points="333.9059,-74.0658 323.4154,-75.5489 332.541,-80.9315 333.9059,-74.0658"/>
</g>
<!-- Node7 -->
<g id="node8" class="node">
<title>Node7</title>
<g id="a_node8"><a xlink:href="../../de/d9b/FunctionalHelpers_8h.html" target="_top" xlink:title="Framework/FunctionalHelpers.h">
<polygon fill="none" stroke="#000000" points="50.5,-112.5 50.5,-131.5 220.5,-131.5 220.5,-112.5 50.5,-112.5"/>
<text text-anchor="middle" x="135.5" y="-119.5" font-family="Helvetica,sans-Serif" font-size="10.00" fill="#000000">Framework/FunctionalHelpers.h</text>
</a>
</g>
</g>
<!-- Node1&#45;&gt;Node7 -->
<g id="edge7" class="edge">
<title>Node1&#45;&gt;Node7</title>
<path fill="none" stroke="#191970" d="M1078.1889,-174.9494C916.4489,-165.8647 436.4637,-138.9047 230.7916,-127.3524"/>
<polygon fill="#191970" stroke="#191970" points="230.7932,-123.847 220.6126,-126.7806 230.4005,-130.836 230.7932,-123.847"/>
</g>
<!-- Node9 -->
<g id="node10" class="node">
<title>Node9</title>
<g id="a_node10"><a xlink:href="../../d9/de8/CompilerBuiltins_8h.html" target="_top" xlink:title="Framework/CompilerBuiltins.h">
<polygon fill="none" stroke="#000000" points="364.5,-56.5 364.5,-75.5 528.5,-75.5 528.5,-56.5 364.5,-56.5"/>
<text text-anchor="middle" x="446.5" y="-63.5" font-family="Helvetica,sans-Serif" font-size="10.00" fill="#000000">Framework/CompilerBuiltins.h</text>
</a>
</g>
</g>
<!-- Node1&#45;&gt;Node9 -->
<g id="edge10" class="edge">
<title>Node1&#45;&gt;Node9</title>
<path fill="none" stroke="#191970" d="M1078.2798,-172.9155C1004.8415,-165.6802 869.7924,-151.1397 755.5,-132 663.1855,-116.5408 556.6572,-92.3689 495.8731,-77.9665"/>
<polygon fill="#191970" stroke="#191970" points="496.3333,-74.4783 485.7947,-75.5685 494.713,-81.2882 496.3333,-74.4783"/>
</g>
<!-- Node10 -->
<g id="node11" class="node">
<title>Node10</title>
<g id="a_node11"><a xlink:href="../../db/d31/Traits_8h.html" target="_top" xlink:title="Framework/Traits.h">
<polygon fill="none" stroke="#000000" points="1218,-112.5 1218,-131.5 1327,-131.5 1327,-112.5 1218,-112.5"/>
<text text-anchor="middle" x="1272.5" y="-119.5" font-family="Helvetica,sans-Serif" font-size="10.00" fill="#000000">Framework/Traits.h</text>
</a>
</g>
</g>
<!-- Node1&#45;&gt;Node10 -->
<g id="edge11" class="edge">
<title>Node1&#45;&gt;Node10</title>
<path fill="none" stroke="#191970" d="M1156.5669,-168.3733C1179.3428,-159.2629 1213.7344,-145.5062 1239.149,-135.3404"/>
<polygon fill="#191970" stroke="#191970" points="1240.7623,-138.4648 1248.7472,-131.5011 1238.1625,-131.9654 1240.7623,-138.4648"/>
</g>
<!-- Node12 -->
<g id="node13" class="node">
<title>Node12</title>
<g id="a_node13"><a xlink:href="../../d0/d91/Expressions_8h.html" target="_top" xlink:title="Framework/Expressions.h">
<polygon fill="none" stroke="#000000" points="944,-112.5 944,-131.5 1085,-131.5 1085,-112.5 944,-112.5"/>
<text text-anchor="middle" x="1014.5" y="-119.5" font-family="Helvetica,sans-Serif" font-size="10.00" fill="#000000">Framework/Expressions.h</text>
</a>
</g>
</g>
<!-- Node1&#45;&gt;Node12 -->
<g id="edge13" class="edge">
<title>Node1&#45;&gt;Node12</title>
<path fill="none" stroke="#191970" d="M1112.2151,-168.3733C1093.3579,-159.4241 1065.054,-145.9917 1043.7545,-135.8835"/>
<polygon fill="#191970" stroke="#191970" points="1045.0551,-132.6266 1034.5202,-131.5011 1042.0539,-138.9506 1045.0551,-132.6266"/>
</g>
<!-- Node18 -->
<g id="node19" class="node">
<title>Node18</title>
<polygon fill="none" stroke="#bfbfbf" points="1740,-56.5 1740,-75.5 1821,-75.5 1821,-56.5 1740,-56.5"/>
<text text-anchor="middle" x="1780.5" y="-63.5" font-family="Helvetica,sans-Serif" font-size="10.00" fill="#000000">arrow/table.h</text>
</g>
<!-- Node1&#45;&gt;Node18 -->
<g id="edge33" class="edge">
<title>Node1&#45;&gt;Node18</title>
<path fill="none" stroke="#191970" d="M1129.7771,-168.3231C1126.3595,-153.8438 1122.6013,-126.6772 1137.5,-112 1182.7795,-67.3937 1629.9722,-83.1857 1729.9488,-75.5867"/>
<polygon fill="#191970" stroke="#191970" points="1730.3117,-79.068 1739.9179,-74.5991 1729.6215,-72.1021 1730.3117,-79.068"/>
</g>
<!-- Node19 -->
<g id="node20" class="node">
<title>Node19</title>
<polygon fill="none" stroke="#bfbfbf" points="1839,-56.5 1839,-75.5 1986,-75.5 1986,-56.5 1839,-56.5"/>
<text text-anchor="middle" x="1912.5" y="-63.5" font-family="Helvetica,sans-Serif" font-size="10.00" fill="#000000">gandiva/selection_vector.h</text>
</g>
<!-- Node1&#45;&gt;Node19 -->
<g id="edge37" class="edge">
<title>Node1&#45;&gt;Node19</title>
<path fill="none" stroke="#191970" d="M1135.6211,-168.263C1141.0319,-153.1794 1153.7147,-124.5932 1175.5,-112 1236.3846,-76.805 1721.9464,-81.9842 1828.6509,-75.9348"/>
<polygon fill="#191970" stroke="#191970" points="1829.0361,-79.4164 1838.7671,-75.2263 1828.547,-72.4336 1829.0361,-79.4164"/>
</g>
<!-- Node23 -->
<g id="node24" class="node">
<title>Node23</title>
<polygon fill="none" stroke="#bfbfbf" points="2004,-56.5 2004,-75.5 2083,-75.5 2083,-56.5 2004,-56.5"/>
<text text-anchor="middle" x="2043.5" y="-63.5" font-family="Helvetica,sans-Serif" font-size="10.00" fill="#000000">fmt/format.h</text>
</g>
<!-- Node1&#45;&gt;Node23 -->
<g id="edge39" class="edge">
<title>Node1&#45;&gt;Node23</title>
<path fill="none" stroke="#191970" d="M1140.199,-168.1061C1152.7797,-152.8075 1179.381,-123.9322 1209.5,-112 1369.1211,-48.7634 1805.8623,-96.1203 1993.6601,-75.9686"/>
<polygon fill="#191970" stroke="#191970" points="1994.2439,-79.4243 2003.7697,-74.7867 1993.4309,-72.4717 1994.2439,-79.4243"/>
</g>
<!-- Node27 -->
<g id="node28" class="node">
<title>Node27</title>
<g id="a_node28"><a xlink:href="../../d4/de7/ArrowTypes_8h.html" target="_top" xlink:title="Framework/ArrowTypes.h">
<polygon fill="none" stroke="#000000" points="765,-112.5 765,-131.5 904,-131.5 904,-112.5 765,-112.5"/>
<text text-anchor="middle" x="834.5" y="-119.5" font-family="Helvetica,sans-Serif" font-size="10.00" fill="#000000">Framework/ArrowTypes.h</text>
</a>
</g>
</g>
<!-- Node1&#45;&gt;Node27 -->
<g id="edge31" class="edge">
<title>Node1&#45;&gt;Node27</title>
<path fill="none" stroke="#191970" d="M1081.6106,-168.4369C1029.9673,-158.7321 950.0174,-143.708 895.1251,-133.3926"/>
<polygon fill="#191970" stroke="#191970" points="895.6539,-129.9308 885.1795,-131.5237 894.3611,-136.8104 895.6539,-129.9308"/>
</g>
<!-- Node28 -->
<g id="node29" class="node">
<title>Node28</title>
<polygon fill="none" stroke="#bfbfbf" points="1345.5,-112.5 1345.5,-131.5 1425.5,-131.5 1425.5,-112.5 1345.5,-112.5"/>
<text text-anchor="middle" x="1385.5" y="-119.5" font-family="Helvetica,sans-Serif" font-size="10.00" fill="#000000">arrow/array.h</text>
</g>
<!-- Node1&#45;&gt;Node28 -->
<g id="edge34" class="edge">
<title>Node1&#45;&gt;Node28</title>
<path fill="none" stroke="#191970" d="M1175.7048,-168.4369C1220.0151,-158.6291 1288.8707,-143.3883 1335.5071,-133.0656"/>
<polygon fill="#191970" stroke="#191970" points="1336.3883,-136.4554 1345.3956,-130.8769 1334.8755,-129.6208 1336.3883,-136.4554"/>
</g>
<!-- Node29 -->
<g id="node30" class="node">
<title>Node29</title>
<polygon fill="none" stroke="#bfbfbf" points="1443.5,-112.5 1443.5,-131.5 1553.5,-131.5 1553.5,-112.5 1443.5,-112.5"/>
<text text-anchor="middle" x="1498.5" y="-119.5" font-family="Helvetica,sans-Serif" font-size="10.00" fill="#000000">arrow/util/variant.h</text>
</g>
<!-- Node1&#45;&gt;Node29 -->
<g id="edge35" class="edge">
<title>Node1&#45;&gt;Node29</title>
<path fill="none" stroke="#191970" d="M1186.6187,-169.525C1189.9621,-169.0073 1193.2766,-168.4956 1196.5,-168 1299.0374,-152.2344 1327.083,-148.4804 1433.1757,-132.1978"/>
<polygon fill="#191970" stroke="#191970" points="1433.9922,-135.6135 1443.3447,-130.6355 1432.9291,-128.6947 1433.9922,-135.6135"/>
</g>
<!-- Node30 -->
<g id="node31" class="node">
<title>Node30</title>
<polygon fill="none" stroke="#bfbfbf" points="1572,-112.5 1572,-131.5 1705,-131.5 1705,-112.5 1572,-112.5"/>
<text text-anchor="middle" x="1638.5" y="-119.5" font-family="Helvetica,sans-Serif" font-size="10.00" fill="#000000">arrow/compute/kernel.h</text>
</g>
<!-- Node1&#45;&gt;Node30 -->
<g id="edge36" class="edge">
<title>Node1&#45;&gt;Node30</title>
<path fill="none" stroke="#191970" d="M1186.5909,-169.3266C1189.9412,-168.8581 1193.2647,-168.4115 1196.5,-168 1355.3199,-147.798 1398.3657,-150.5392 1561.3876,-132.0908"/>
<polygon fill="#191970" stroke="#191970" points="1562.2486,-135.5153 1571.7872,-130.9038 1561.4547,-128.5605 1562.2486,-135.5153"/>
</g>
<!-- Node31 -->
<g id="node32" class="node">
<title>Node31</title>
<polygon fill="none" stroke="#bfbfbf" points="1723.5,-112.5 1723.5,-131.5 1775.5,-131.5 1775.5,-112.5 1723.5,-112.5"/>
<text text-anchor="middle" x="1749.5" y="-119.5" font-family="Helvetica,sans-Serif" font-size="10.00" fill="#000000">cassert</text>
</g>
<!-- Node1&#45;&gt;Node31 -->
<g id="edge38" class="edge">
<title>Node1&#45;&gt;Node31</title>
<path fill="none" stroke="#191970" d="M1186.5777,-169.2172C1189.9313,-168.7759 1193.2592,-168.3651 1196.5,-168 1422.5794,-142.5288 1485.4291,-171.0858 1713.3401,-131.8647"/>
<polygon fill="#191970" stroke="#191970" points="1714.0149,-135.2999 1723.2641,-130.1323 1712.8111,-128.4042 1714.0149,-135.2999"/>
</g>
<!-- Node3 -->
<g id="node4" class="node">
<title>Node3</title>
<polygon fill="none" stroke="#bfbfbf" points="42,-.5 42,-19.5 95,-19.5 95,-.5 42,-.5"/>
<text text-anchor="middle" x="68.5" y="-7.5" font-family="Helvetica,sans-Serif" font-size="10.00" fill="#000000">cstddef</text>
</g>
<!-- Node2&#45;&gt;Node3 -->
<g id="edge3" class="edge">
<title>Node2&#45;&gt;Node3</title>
<path fill="none" stroke="#191970" d="M123.8295,-56.2455C113.9339,-47.9746 99.5373,-35.9416 87.9099,-26.2232"/>
<polygon fill="#191970" stroke="#191970" points="89.9542,-23.3703 80.0368,-19.6427 85.465,-28.7413 89.9542,-23.3703"/>
</g>
<!-- Node4 -->
<g id="node5" class="node">
<title>Node4</title>
<polygon fill="none" stroke="#bfbfbf" points="113,-.5 113,-19.5 158,-19.5 158,-.5 113,-.5"/>
<text text-anchor="middle" x="135.5" y="-7.5" font-family="Helvetica,sans-Serif" font-size="10.00" fill="#000000">utility</text>
</g>
<!-- Node2&#45;&gt;Node4 -->
<g id="edge4" class="edge">
<title>Node2&#45;&gt;Node4</title>
<path fill="none" stroke="#191970" d="M135.5,-56.2455C135.5,-48.9382 135.5,-38.6944 135.5,-29.7046"/>
<polygon fill="#191970" stroke="#191970" points="139.0001,-29.6426 135.5,-19.6427 132.0001,-29.6427 139.0001,-29.6426"/>
</g>
<!-- Node5 -->
<g id="node6" class="node">
<title>Node5</title>
<polygon fill="none" stroke="#bfbfbf" points="176.5,-.5 176.5,-19.5 222.5,-19.5 222.5,-.5 176.5,-.5"/>
<text text-anchor="middle" x="199.5" y="-7.5" font-family="Helvetica,sans-Serif" font-size="10.00" fill="#000000">cstdio</text>
</g>
<!-- Node2&#45;&gt;Node5 -->
<g id="edge5" class="edge">
<title>Node2&#45;&gt;Node5</title>
<path fill="none" stroke="#191970" d="M146.6479,-56.2455C156.0087,-48.0549 169.5858,-36.1749 180.6349,-26.5069"/>
<polygon fill="#191970" stroke="#191970" points="183.2588,-28.8618 188.4798,-19.6427 178.6492,-23.5937 183.2588,-28.8618"/>
</g>
<!-- Node7&#45;&gt;Node2 -->
<g id="edge8" class="edge">
<title>Node7&#45;&gt;Node2</title>
<path fill="none" stroke="#191970" d="M135.5,-112.2455C135.5,-104.9382 135.5,-94.6944 135.5,-85.7046"/>
<polygon fill="#191970" stroke="#191970" points="139.0001,-85.6426 135.5,-75.6427 132.0001,-85.6427 139.0001,-85.6426"/>
</g>
<!-- Node8 -->
<g id="node9" class="node">
<title>Node8</title>
<polygon fill="none" stroke="#bfbfbf" points="0,-56.5 0,-75.5 65,-75.5 65,-56.5 0,-56.5"/>
<text text-anchor="middle" x="32.5" y="-63.5" font-family="Helvetica,sans-Serif" font-size="10.00" fill="#000000">functional</text>
</g>
<!-- Node7&#45;&gt;Node8 -->
<g id="edge9" class="edge">
<title>Node7&#45;&gt;Node8</title>
<path fill="none" stroke="#191970" d="M117.5588,-112.2455C101.46,-103.4928 77.6121,-90.527 59.2609,-80.5496"/>
<polygon fill="#191970" stroke="#191970" points="60.6929,-77.3444 50.2356,-75.6427 57.3493,-83.4942 60.6929,-77.3444"/>
</g>
<!-- Node11 -->
<g id="node12" class="node">
<title>Node11</title>
<polygon fill="none" stroke="#bfbfbf" points="2101,-56.5 2101,-75.5 2170,-75.5 2170,-56.5 2101,-56.5"/>
<text text-anchor="middle" x="2135.5" y="-63.5" font-family="Helvetica,sans-Serif" font-size="10.00" fill="#000000">type_traits</text>
</g>
<!-- Node10&#45;&gt;Node11 -->
<g id="edge12" class="edge">
<title>Node10&#45;&gt;Node11</title>
<path fill="none" stroke="#191970" d="M1327.2627,-113.0473C1330.3836,-112.6605 1333.4792,-112.307 1336.5,-112 1667.8885,-78.3184 1757.5736,-121.4289 2090.9327,-75.9915"/>
<polygon fill="#191970" stroke="#191970" points="2091.439,-79.4548 2100.867,-74.6212 2090.4825,-72.5205 2091.439,-79.4548"/>
</g>
<!-- Node12&#45;&gt;Node2 -->
<g id="edge16" class="edge">
<title>Node12&#45;&gt;Node2</title>
<path fill="none" stroke="#191970" d="M943.7536,-114.6261C933.2814,-113.6618 922.6144,-112.75 912.5,-112 598.5995,-88.7235 515.6975,-108.9383 198.6251,-75.9971"/>
<polygon fill="#191970" stroke="#191970" points="198.5231,-72.4673 188.2126,-74.9051 197.7929,-79.4291 198.5231,-72.4673"/>
</g>
<!-- Node12&#45;&gt;Node6 -->
<g id="edge17" class="edge">
<title>Node12&#45;&gt;Node6</title>
<path fill="none" stroke="#191970" d="M943.7435,-114.7566C933.2727,-113.7737 922.6088,-112.822 912.5,-112 668.5037,-92.1599 604.1359,-99.3896 356.7022,-76.0627"/>
<polygon fill="#191970" stroke="#191970" points="356.9726,-72.5728 346.6864,-75.1113 356.3106,-79.5414 356.9726,-72.5728"/>
</g>
<!-- Node12&#45;&gt;Node9 -->
<g id="edge15" class="edge">
<title>Node12&#45;&gt;Node9</title>
<path fill="none" stroke="#191970" d="M943.9934,-115.0689C933.4379,-114.0366 922.6833,-112.988 912.5,-112 749.1045,-96.1474 705.7331,-93.2551 538.9504,-76.139"/>
<polygon fill="#191970" stroke="#191970" points="539.14,-72.6402 528.8345,-75.099 538.4241,-79.6035 539.14,-72.6402"/>
</g>
<!-- Node13 -->
<g id="node14" class="node">
<title>Node13</title>
<g id="a_node14"><a xlink:href="../../dd/dc2/BasicOps_8h.html" target="_top" xlink:title="Framework/BasicOps.h">
<polygon fill="none" stroke="#000000" points="873.5,-56.5 873.5,-75.5 1001.5,-75.5 1001.5,-56.5 873.5,-56.5"/>
<text text-anchor="middle" x="937.5" y="-63.5" font-family="Helvetica,sans-Serif" font-size="10.00" fill="#000000">Framework/BasicOps.h</text>
</a>
</g>
</g>
<!-- Node12&#45;&gt;Node13 -->
<g id="edge14" class="edge">
<title>Node12&#45;&gt;Node13</title>
<path fill="none" stroke="#191970" d="M1001.0876,-112.2455C989.4943,-103.814 972.5252,-91.4729 959.0322,-81.6598"/>
<polygon fill="#191970" stroke="#191970" points="960.9047,-78.6938 950.7587,-75.6427 956.7874,-84.355 960.9047,-78.6938"/>
</g>
<!-- Node14 -->
<g id="node15" class="node">
<title>Node14</title>
<polygon fill="none" stroke="#bfbfbf" points="547,-56.5 547,-75.5 648,-75.5 648,-56.5 547,-56.5"/>
<text text-anchor="middle" x="597.5" y="-63.5" font-family="Helvetica,sans-Serif" font-size="10.00" fill="#000000">arrow/type_fwd.h</text>
</g>
<!-- Node12&#45;&gt;Node14 -->
<g id="edge18" class="edge">
<title>Node12&#45;&gt;Node14</title>
<path fill="none" stroke="#191970" d="M943.7401,-113.7568C873.6986,-105.4043 763.1523,-91.7047 658.1518,-76.2035"/>
<polygon fill="#191970" stroke="#191970" points="658.4148,-72.7042 648.0093,-74.6978 657.3869,-79.6284 658.4148,-72.7042"/>
</g>
<!-- Node15 -->
<g id="node16" class="node">
<title>Node15</title>
<polygon fill="none" stroke="#bfbfbf" points="1019.5,-56.5 1019.5,-75.5 1165.5,-75.5 1165.5,-56.5 1019.5,-56.5"/>
<text text-anchor="middle" x="1092.5" y="-63.5" font-family="Helvetica,sans-Serif" font-size="10.00" fill="#000000">gandiva/gandiva_aliases.h</text>
</g>
<!-- Node12&#45;&gt;Node15 -->
<g id="edge19" class="edge">
<title>Node12&#45;&gt;Node15</title>
<path fill="none" stroke="#191970" d="M1028.0866,-112.2455C1039.8305,-103.814 1057.0199,-91.4729 1070.6882,-81.6598"/>
<polygon fill="#191970" stroke="#191970" points="1072.9871,-84.3179 1079.0691,-75.6427 1068.9046,-78.6316 1072.9871,-84.3179"/>
</g>
<!-- Node16 -->
<g id="node17" class="node">
<title>Node16</title>
<polygon fill="none" stroke="#bfbfbf" points="1183.5,-56.5 1183.5,-75.5 1261.5,-75.5 1261.5,-56.5 1183.5,-56.5"/>
<text text-anchor="middle" x="1222.5" y="-63.5" font-family="Helvetica,sans-Serif" font-size="10.00" fill="#000000">arrow/type.h</text>
</g>
<!-- Node12&#45;&gt;Node16 -->
<g id="edge20" class="edge">
<title>Node12&#45;&gt;Node16</title>
<path fill="none" stroke="#191970" d="M1050.2565,-112.3733C1085.4426,-102.9001 1139.2881,-88.4032 1177.3956,-78.1435"/>
<polygon fill="#191970" stroke="#191970" points="1178.4639,-81.4806 1187.2101,-75.5011 1176.644,-74.7213 1178.4639,-81.4806"/>
</g>
<!-- Node17 -->
<g id="node18" class="node">
<title>Node17</title>
<polygon fill="none" stroke="#bfbfbf" points="1280,-56.5 1280,-75.5 1375,-75.5 1375,-56.5 1280,-56.5"/>
<text text-anchor="middle" x="1327.5" y="-63.5" font-family="Helvetica,sans-Serif" font-size="10.00" fill="#000000">gandiva/arrow.h</text>
</g>
<!-- Node12&#45;&gt;Node17 -->
<g id="edge21" class="edge">
<title>Node12&#45;&gt;Node17</title>
<path fill="none" stroke="#191970" d="M1067.951,-112.4369C1124.1181,-102.3878 1212.1637,-86.6352 1269.8578,-76.313"/>
<polygon fill="#191970" stroke="#191970" points="1270.6809,-79.7214 1279.9082,-74.5148 1269.4481,-72.8308 1270.6809,-79.7214"/>
</g>
<!-- Node12&#45;&gt;Node18 -->
<g id="edge22" class="edge">
<title>Node12&#45;&gt;Node18</title>
<path fill="none" stroke="#191970" d="M1085.4285,-113.3324C1090.1874,-112.8506 1094.9112,-112.4005 1099.5,-112 1376.0575,-87.8648 1450.1402,-111.0752 1729.8808,-75.8882"/>
<polygon fill="#191970" stroke="#191970" points="1730.4409,-79.3452 1739.9195,-74.6116 1729.5578,-72.4011 1730.4409,-79.3452"/>
</g>
<!-- Node12&#45;&gt;Node19 -->
<g id="edge23" class="edge">
<title>Node12&#45;&gt;Node19</title>
<path fill="none" stroke="#191970" d="M1085.0459,-115.9085C1102.2036,-114.5254 1120.5051,-113.132 1137.5,-112 1441.9276,-91.722 1521.5387,-102.447 1828.6814,-76.108"/>
<polygon fill="#191970" stroke="#191970" points="1829.1064,-79.5844 1838.7681,-75.2368 1828.5039,-72.6104 1829.1064,-79.5844"/>
</g>
<!-- Node20 -->
<g id="node21" class="node">
<title>Node20</title>
<polygon fill="none" stroke="#bfbfbf" points="1393.5,-56.5 1393.5,-75.5 1485.5,-75.5 1485.5,-56.5 1393.5,-56.5"/>
<text text-anchor="middle" x="1439.5" y="-63.5" font-family="Helvetica,sans-Serif" font-size="10.00" fill="#000000">gandiva/node.h</text>
</g>
<!-- Node12&#45;&gt;Node20 -->
<g id="edge24" class="edge">
<title>Node12&#45;&gt;Node20</title>
<path fill="none" stroke="#191970" d="M1085.3694,-113.6705C1171.7352,-103.4399 1313.7813,-86.3373 1383.2162,-76.1098"/>
<polygon fill="#191970" stroke="#191970" points="1383.9496,-79.539 1393.3181,-74.591 1382.9088,-72.6168 1383.9496,-79.539"/>
</g>
<!-- Node21 -->
<g id="node22" class="node">
<title>Node21</title>
<polygon fill="none" stroke="#bfbfbf" points="1504,-56.5 1504,-75.5 1593,-75.5 1593,-56.5 1504,-56.5"/>
<text text-anchor="middle" x="1548.5" y="-63.5" font-family="Helvetica,sans-Serif" font-size="10.00" fill="#000000">gandiva/filter.h</text>
</g>
<!-- Node12&#45;&gt;Node21 -->
<g id="edge25" class="edge">
<title>Node12&#45;&gt;Node21</title>
<path fill="none" stroke="#191970" d="M1085.4458,-113.5125C1090.2005,-112.9872 1094.9187,-112.4782 1099.5,-112 1271.5775,-94.0394 1318.1524,-99.8471 1493.6678,-75.998"/>
<polygon fill="#191970" stroke="#191970" points="1494.3309,-79.44 1503.7624,-74.6133 1493.3795,-72.5049 1494.3309,-79.44"/>
</g>
<!-- Node22 -->
<g id="node23" class="node">
<title>Node22</title>
<polygon fill="none" stroke="#bfbfbf" points="1611.5,-56.5 1611.5,-75.5 1721.5,-75.5 1721.5,-56.5 1611.5,-56.5"/>
<text text-anchor="middle" x="1666.5" y="-63.5" font-family="Helvetica,sans-Serif" font-size="10.00" fill="#000000">gandiva/projector.h</text>
</g>
<!-- Node12&#45;&gt;Node22 -->
<g id="edge26" class="edge">
<title>Node12&#45;&gt;Node22</title>
<path fill="none" stroke="#191970" d="M1085.4355,-113.4093C1090.1927,-112.9089 1094.9143,-112.4336 1099.5,-112 1319.3635,-91.2099 1378.097,-101.0236 1601.3162,-76.0487"/>
<polygon fill="#191970" stroke="#191970" points="1601.8377,-79.5121 1611.3816,-74.9115 1601.0518,-72.5563 1601.8377,-79.5121"/>
</g>
<!-- Node12&#45;&gt;Node23 -->
<g id="edge27" class="edge">
<title>Node12&#45;&gt;Node23</title>
<path fill="none" stroke="#191970" d="M1085.0172,-117.3419C1113.1579,-115.5557 1145.856,-113.5712 1175.5,-112 1536.4935,-92.8664 1631.8184,-120.8348 1993.8045,-76.0359"/>
<polygon fill="#191970" stroke="#191970" points="1994.2807,-79.5037 2003.7705,-74.7926 1993.4141,-72.5575 1994.2807,-79.5037"/>
</g>
<!-- Node24 -->
<g id="node25" class="node">
<title>Node24</title>
<polygon fill="none" stroke="#bfbfbf" points="666,-56.5 666,-75.5 717,-75.5 717,-56.5 666,-56.5"/>
<text text-anchor="middle" x="691.5" y="-63.5" font-family="Helvetica,sans-Serif" font-size="10.00" fill="#000000">variant</text>
</g>
<!-- Node12&#45;&gt;Node24 -->
<g id="edge28" class="edge">
<title>Node12&#45;&gt;Node24</title>
<path fill="none" stroke="#191970" d="M943.9255,-113.1342C887.7483,-105.526 806.9831,-93.3634 727.247,-75.9396"/>
<polygon fill="#191970" stroke="#191970" points="727.5441,-72.4206 717.0238,-73.675 726.0301,-79.255 727.5441,-72.4206"/>
</g>
<!-- Node25 -->
<g id="node26" class="node">
<title>Node25</title>
<polygon fill="none" stroke="#bfbfbf" points="735.5,-56.5 735.5,-75.5 779.5,-75.5 779.5,-56.5 735.5,-56.5"/>
<text text-anchor="middle" x="757.5" y="-63.5" font-family="Helvetica,sans-Serif" font-size="10.00" fill="#000000">string</text>
</g>
<!-- Node12&#45;&gt;Node25 -->
<g id="edge29" class="edge">
<title>Node12&#45;&gt;Node25</title>
<path fill="none" stroke="#191970" d="M958.8406,-112.4556C915.0971,-104.5495 852.4934,-92.3446 789.4703,-76.0507"/>
<polygon fill="#191970" stroke="#191970" points="790.3241,-72.6563 779.7637,-73.5091 788.5509,-79.428 790.3241,-72.6563"/>
</g>
<!-- Node26 -->
<g id="node27" class="node">
<title>Node26</title>
<polygon fill="none" stroke="#bfbfbf" points="797.5,-56.5 797.5,-75.5 855.5,-75.5 855.5,-56.5 797.5,-56.5"/>
<text text-anchor="middle" x="826.5" y="-63.5" font-family="Helvetica,sans-Serif" font-size="10.00" fill="#000000">memory</text>
</g>
<!-- Node12&#45;&gt;Node26 -->
<g id="edge30" class="edge">
<title>Node12&#45;&gt;Node26</title>
<path fill="none" stroke="#191970" d="M982.1816,-112.3733C949.7895,-102.7245 899.9014,-87.8642 865.3676,-77.5776"/>
<polygon fill="#191970" stroke="#191970" points="866.2043,-74.1749 855.6213,-74.6744 864.2059,-80.8836 866.2043,-74.1749"/>
</g>
<!-- Node27&#45;&gt;Node14 -->
<g id="edge32" class="edge">
<title>Node27&#45;&gt;Node14</title>
<path fill="none" stroke="#191970" d="M794.0275,-112.4369C753.552,-102.8731 691.2133,-88.1432 647.6297,-77.845"/>
<polygon fill="#191970" stroke="#191970" points="648.3424,-74.4171 637.8055,-75.5237 646.7327,-81.2295 648.3424,-74.4171"/>
</g>
</g>
</svg>
