<?xml version="1.0" encoding="UTF-8" standalone="no"?>
<!DOCTYPE svg PUBLIC "-//W3C//DTD SVG 1.1//EN"
 "http://www.w3.org/Graphics/SVG/1.1/DTD/svg11.dtd">
<!-- Generated by graphviz version 2.40.1 (20161225.0304)
 -->
<!-- Title: o2::itsmft::Clusterer::ClustererThread Pages: 1 -->
<svg width="1542pt" height="1035pt"
 viewBox="0.00 0.00 1541.50 1035.00" xmlns="http://www.w3.org/2000/svg" xmlns:xlink="http://www.w3.org/1999/xlink">
<g id="graph0" class="graph" transform="scale(1 1) rotate(0) translate(4 1031)">
<title>o2::itsmft::Clusterer::ClustererThread</title>
<!-- Node1 -->
<g id="node1" class="node">
<title>Node1</title>
<polygon fill="#bfbfbf" stroke="#000000" points="766,-.5 766,-189.5 913,-189.5 913,-.5 766,-.5"/>
<text text-anchor="start" x="774" y="-177.5" font-family="Helvetica,sans-Serif" font-size="10.00" fill="#000000">o2::itsmft::Clusterer</text>
<text text-anchor="middle" x="839.5" y="-166.5" font-family="Helvetica,sans-Serif" font-size="10.00" fill="#000000">::ClustererThread</text>
<polyline fill="none" stroke="#000000" points="766,-159.5 913,-159.5 "/>
<text text-anchor="middle" x="839.5" y="-147.5" font-family="Helvetica,sans-Serif" font-size="10.00" fill="#000000"> </text>
<polyline fill="none" stroke="#000000" points="766,-140.5 913,-140.5 "/>
<text text-anchor="start" x="774" y="-128.5" font-family="Helvetica,sans-Serif" font-size="10.00" fill="#000000">+ resetColumn()</text>
<text text-anchor="start" x="774" y="-117.5" font-family="Helvetica,sans-Serif" font-size="10.00" fill="#000000">+ swapColumnBuffers()</text>
<text text-anchor="start" x="774" y="-106.5" font-family="Helvetica,sans-Serif" font-size="10.00" fill="#000000">+ expandPreCluster()</text>
<text text-anchor="start" x="774" y="-95.5" font-family="Helvetica,sans-Serif" font-size="10.00" fill="#000000">+ addNewPrecluster()</text>
<text text-anchor="start" x="774" y="-84.5" font-family="Helvetica,sans-Serif" font-size="10.00" fill="#000000">+ streamCluster()</text>
<text text-anchor="start" x="774" y="-73.5" font-family="Helvetica,sans-Serif" font-size="10.00" fill="#000000">+ fetchMCLabels()</text>
<text text-anchor="start" x="774" y="-62.5" font-family="Helvetica,sans-Serif" font-size="10.00" fill="#000000">+ initChip()</text>
<text text-anchor="start" x="774" y="-51.5" font-family="Helvetica,sans-Serif" font-size="10.00" fill="#000000">+ updateChip()</text>
<text text-anchor="start" x="774" y="-40.5" font-family="Helvetica,sans-Serif" font-size="10.00" fill="#000000">+ finishChip()</text>
<text text-anchor="start" x="774" y="-29.5" font-family="Helvetica,sans-Serif" font-size="10.00" fill="#000000">+ finishChipSingleHitFast()</text>
<text text-anchor="start" x="774" y="-18.5" font-family="Helvetica,sans-Serif" font-size="10.00" fill="#000000">+ process()</text>
<text text-anchor="start" x="774" y="-7.5" font-family="Helvetica,sans-Serif" font-size="10.00" fill="#000000">+ ClustererThread()</text>
</g>
<!-- Node2 -->
<g id="node2" class="node">
<title>Node2</title>
<polygon fill="none" stroke="#bfbfbf" points="0,-413.5 0,-481.5 107,-481.5 107,-413.5 0,-413.5"/>
<text text-anchor="start" x="8" y="-469.5" font-family="Helvetica,sans-Serif" font-size="10.00" fill="#000000">vector&lt; std::pair&lt;</text>
<text text-anchor="middle" x="53.5" y="-458.5" font-family="Helvetica,sans-Serif" font-size="10.00" fill="#000000"> int, uint32_t &gt; &gt;</text>
<polyline fill="none" stroke="#bfbfbf" points="0,-451.5 107,-451.5 "/>
<text text-anchor="middle" x="53.5" y="-439.5" font-family="Helvetica,sans-Serif" font-size="10.00" fill="#000000"> </text>
<polyline fill="none" stroke="#bfbfbf" points="0,-432.5 107,-432.5 "/>
<text text-anchor="middle" x="53.5" y="-420.5" font-family="Helvetica,sans-Serif" font-size="10.00" fill="#000000"> </text>
</g>
<!-- Node2&#45;&gt;Node1 -->
<g id="edge1" class="edge">
<title>Node2&#45;&gt;Node1</title>
<path fill="none" stroke="#404040" d="M57.7544,-413.3297C64.1742,-374.5336 79.6551,-311.2856 115.5,-270 154.8565,-224.6698 178.7258,-227.505 235.5,-208 414.066,-146.6531 634.4213,-116.1204 753.4344,-103.1169"/>
<polygon fill="none" stroke="#404040" points="753.7513,-103.0829 759.2898,-98.4651 765.6827,-101.8016 760.1441,-106.4194 753.7513,-103.0829"/>
<text text-anchor="middle" x="256" y="-227.5" font-family="Helvetica,sans-Serif" font-size="10.00" fill="#000000"> +pixels</text>
</g>
<!-- Node3 -->
<g id="node3" class="node">
<title>Node3</title>
<polygon fill="none" stroke="#bfbfbf" points="125,-413.5 125,-481.5 262,-481.5 262,-413.5 125,-413.5"/>
<text text-anchor="start" x="133" y="-469.5" font-family="Helvetica,sans-Serif" font-size="10.00" fill="#000000">vector&lt; o2::itsmft</text>
<text text-anchor="middle" x="193.5" y="-458.5" font-family="Helvetica,sans-Serif" font-size="10.00" fill="#000000">::Clusterer::ThreadStat &gt;</text>
<polyline fill="none" stroke="#bfbfbf" points="125,-451.5 262,-451.5 "/>
<text text-anchor="middle" x="193.5" y="-439.5" font-family="Helvetica,sans-Serif" font-size="10.00" fill="#000000"> </text>
<polyline fill="none" stroke="#bfbfbf" points="125,-432.5 262,-432.5 "/>
<text text-anchor="middle" x="193.5" y="-420.5" font-family="Helvetica,sans-Serif" font-size="10.00" fill="#000000"> </text>
</g>
<!-- Node3&#45;&gt;Node1 -->
<g id="edge2" class="edge">
<title>Node3&#45;&gt;Node1</title>
<path fill="none" stroke="#404040" d="M201.2285,-413.4035C215.7572,-358.4006 252.9293,-251.8312 330.5,-208 402.0021,-167.5978 627.8738,-127.6974 753.3507,-107.8864"/>
<polygon fill="none" stroke="#404040" points="753.6872,-107.8338 758.9951,-102.9526 765.5423,-105.9749 760.2344,-110.856 753.6872,-107.8338"/>
<text text-anchor="middle" x="348.5" y="-227.5" font-family="Helvetica,sans-Serif" font-size="10.00" fill="#000000"> +stats</text>
</g>
<!-- Node4 -->
<g id="node4" class="node">
<title>Node4</title>
<polygon fill="none" stroke="#bfbfbf" points="280.5,-419 280.5,-476 336.5,-476 336.5,-419 280.5,-419"/>
<text text-anchor="middle" x="308.5" y="-464" font-family="Helvetica,sans-Serif" font-size="10.00" fill="#000000">uint16_t</text>
<polyline fill="none" stroke="#bfbfbf" points="280.5,-457 336.5,-457 "/>
<text text-anchor="middle" x="308.5" y="-445" font-family="Helvetica,sans-Serif" font-size="10.00" fill="#000000"> </text>
<polyline fill="none" stroke="#bfbfbf" points="280.5,-438 336.5,-438 "/>
<text text-anchor="middle" x="308.5" y="-426" font-family="Helvetica,sans-Serif" font-size="10.00" fill="#000000"> </text>
</g>
<!-- Node4&#45;&gt;Node1 -->
<g id="edge3" class="edge">
<title>Node4&#45;&gt;Node1</title>
<path fill="none" stroke="#404040" d="M306.5458,-418.6786C305.5354,-380.2364 309.5379,-312.1438 345.5,-270 399.3534,-206.8895 627.1715,-144.8874 753.77,-114.4414"/>
<polygon fill="none" stroke="#404040" points="754.0242,-114.3808 758.9314,-109.097 765.6962,-111.5946 760.7889,-116.8784 754.0242,-114.3808"/>
<text text-anchor="middle" x="460.5" y="-227.5" font-family="Helvetica,sans-Serif" font-size="10.00" fill="#000000"> +currCol</text>
</g>
<!-- Node5 -->
<g id="node5" class="node">
<title>Node5</title>
<g id="a_node5"><a xlink:href="../../d5/db8/classo2_1_1itsmft_1_1Clusterer.html" target="_top" xlink:title="{o2::itsmft::Clusterer\n||+ Clusterer()\l+ ~Clusterer()\l+ Clusterer()\l+ operator=()\l+ process()\l+ isContinuousReadOut()\l+ setContinuousReadOut()\l+ getMaxBCSeparationToMask()\l+ setMaxBCSeparationToMask()\l+ getMaxRowColDiffToMask()\l+ setMaxRowColDiffToMask()\l+ print()\l+ clear()\l+ setNChips()\l+ loadDictionary()\l+ getTimer()\l+ getTimerMerge()\l}">
<polygon fill="none" stroke="#000000" points="355,-331 355,-564 528,-564 528,-331 355,-331"/>
<text text-anchor="middle" x="441.5" y="-552" font-family="Helvetica,sans-Serif" font-size="10.00" fill="#000000">o2::itsmft::Clusterer</text>
<polyline fill="none" stroke="#000000" points="355,-545 528,-545 "/>
<text text-anchor="middle" x="441.5" y="-533" font-family="Helvetica,sans-Serif" font-size="10.00" fill="#000000"> </text>
<polyline fill="none" stroke="#000000" points="355,-526 528,-526 "/>
<text text-anchor="start" x="363" y="-514" font-family="Helvetica,sans-Serif" font-size="10.00" fill="#000000">+ Clusterer()</text>
<text text-anchor="start" x="363" y="-503" font-family="Helvetica,sans-Serif" font-size="10.00" fill="#000000">+ ~Clusterer()</text>
<text text-anchor="start" x="363" y="-492" font-family="Helvetica,sans-Serif" font-size="10.00" fill="#000000">+ Clusterer()</text>
<text text-anchor="start" x="363" y="-481" font-family="Helvetica,sans-Serif" font-size="10.00" fill="#000000">+ operator=()</text>
<text text-anchor="start" x="363" y="-470" font-family="Helvetica,sans-Serif" font-size="10.00" fill="#000000">+ process()</text>
<text text-anchor="start" x="363" y="-459" font-family="Helvetica,sans-Serif" font-size="10.00" fill="#000000">+ isContinuousReadOut()</text>
<text text-anchor="start" x="363" y="-448" font-family="Helvetica,sans-Serif" font-size="10.00" fill="#000000">+ setContinuousReadOut()</text>
<text text-anchor="start" x="363" y="-437" font-family="Helvetica,sans-Serif" font-size="10.00" fill="#000000">+ getMaxBCSeparationToMask()</text>
<text text-anchor="start" x="363" y="-426" font-family="Helvetica,sans-Serif" font-size="10.00" fill="#000000">+ setMaxBCSeparationToMask()</text>
<text text-anchor="start" x="363" y="-415" font-family="Helvetica,sans-Serif" font-size="10.00" fill="#000000">+ getMaxRowColDiffToMask()</text>
<text text-anchor="start" x="363" y="-404" font-family="Helvetica,sans-Serif" font-size="10.00" fill="#000000">+ setMaxRowColDiffToMask()</text>
<text text-anchor="start" x="363" y="-393" font-family="Helvetica,sans-Serif" font-size="10.00" fill="#000000">+ print()</text>
<text text-anchor="start" x="363" y="-382" font-family="Helvetica,sans-Serif" font-size="10.00" fill="#000000">+ clear()</text>
<text text-anchor="start" x="363" y="-371" font-family="Helvetica,sans-Serif" font-size="10.00" fill="#000000">+ setNChips()</text>
<text text-anchor="start" x="363" y="-360" font-family="Helvetica,sans-Serif" font-size="10.00" fill="#000000">+ loadDictionary()</text>
<text text-anchor="start" x="363" y="-349" font-family="Helvetica,sans-Serif" font-size="10.00" fill="#000000">+ getTimer()</text>
<text text-anchor="start" x="363" y="-338" font-family="Helvetica,sans-Serif" font-size="10.00" fill="#000000">+ getTimerMerge()</text>
</a>
</g>
</g>
<!-- Node5&#45;&gt;Node1 -->
<g id="edge4" class="edge">
<title>Node5&#45;&gt;Node1</title>
<path fill="none" stroke="#404040" d="M492.5651,-330.8822C505.2836,-309.1415 520.2937,-287.7198 537.5,-270 599.254,-206.4032 689.0454,-158.3452 754.6663,-128.8339"/>
<polygon fill="none" stroke="#404040" points="754.8313,-128.7609 758.6961,-122.6729 765.8022,-123.8989 761.9374,-129.9869 754.8313,-128.7609"/>
<text text-anchor="middle" x="631" y="-227.5" font-family="Helvetica,sans-Serif" font-size="10.00" fill="#000000"> +parent</text>
</g>
<!-- Node6 -->
<g id="node6" class="node">
<title>Node6</title>
<polygon fill="none" stroke="#bfbfbf" points="419.5,-821 419.5,-878 463.5,-878 463.5,-821 419.5,-821"/>
<text text-anchor="middle" x="441.5" y="-866" font-family="Helvetica,sans-Serif" font-size="10.00" fill="#000000">static</text>
<polyline fill="none" stroke="#bfbfbf" points="419.5,-859 463.5,-859 "/>
<text text-anchor="middle" x="441.5" y="-847" font-family="Helvetica,sans-Serif" font-size="10.00" fill="#000000"> </text>
<polyline fill="none" stroke="#bfbfbf" points="419.5,-840 463.5,-840 "/>
<text text-anchor="middle" x="441.5" y="-828" font-family="Helvetica,sans-Serif" font-size="10.00" fill="#000000"> </text>
</g>
<!-- Node6&#45;&gt;Node5 -->
<g id="edge5" class="edge">
<title>Node6&#45;&gt;Node5</title>
<path fill="none" stroke="#404040" d="M441.5,-820.9114C441.5,-770.5439 441.5,-663.1114 441.5,-576.3545"/>
<polygon fill="none" stroke="#404040" points="441.5001,-576.2581 437.5,-570.2581 441.5,-564.2581 445.5,-570.258 441.5001,-576.2581"/>
<text text-anchor="middle" x="473.5" y="-646" font-family="Helvetica,sans-Serif" font-size="10.00" fill="#000000"> +MaxLabels</text>
</g>
<!-- Node7 -->
<g id="node7" class="node">
<title>Node7</title>
<polygon fill="none" stroke="#bfbfbf" points="546.5,-419 546.5,-476 684.5,-476 684.5,-419 546.5,-419"/>
<text text-anchor="middle" x="615.5" y="-464" font-family="Helvetica,sans-Serif" font-size="10.00" fill="#000000">vector&lt; unsigned char &gt;</text>
<polyline fill="none" stroke="#bfbfbf" points="546.5,-457 684.5,-457 "/>
<text text-anchor="middle" x="615.5" y="-445" font-family="Helvetica,sans-Serif" font-size="10.00" fill="#000000"> </text>
<polyline fill="none" stroke="#bfbfbf" points="546.5,-438 684.5,-438 "/>
<text text-anchor="middle" x="615.5" y="-426" font-family="Helvetica,sans-Serif" font-size="10.00" fill="#000000"> </text>
</g>
<!-- Node7&#45;&gt;Node1 -->
<g id="edge6" class="edge">
<title>Node7&#45;&gt;Node1</title>
<path fill="none" stroke="#404040" d="M625.2215,-418.9206C638.136,-382.7916 662.9202,-319.3585 693.5,-270 712.0474,-240.063 735.3463,-209.7888 757.8506,-183.0306"/>
<polygon fill="none" stroke="#404040" points="757.995,-182.8608 758.8345,-175.6987 765.7685,-173.7189 764.9291,-180.881 757.995,-182.8608"/>
<text text-anchor="middle" x="762.5" y="-227.5" font-family="Helvetica,sans-Serif" font-size="10.00" fill="#000000"> +patterns</text>
</g>
<!-- Node8 -->
<g id="node8" class="node">
<title>Node8</title>
<g id="a_node8"><a xlink:href="../../dc/daa/classo2_1_1dataformats_1_1MCTruthContainer.html" target="_top" xlink:title="{o2::dataformats::MCTruth\lContainer\&lt; o2::MCCompLabel \&gt;\n||+ MCTruthContainer()\l+ MCTruthContainer()\l+ MCTruthContainer()\l+ MCTruthContainer()\l+ ~MCTruthContainer()\l+ operator=()\l+ operator=()\l+ getMCTruthHeader()\l+ getElement()\l+ getIndexedSize()\l+ getNElements()\l+ getLabels()\l+ getLabels()\l+ clear()\l+ addElement()\l+ addElements()\l+ addElements()\l+ addElementRandomAccess()\l+ setFrom()\l+ mergeAtBack()\l+ mergeAtBack()\l+ flatten_to()\l+ restore_from()\l+ print()\l+ inflate()\l+ deflate()\l+ ClassDefNV()\l}">
<polygon fill="none" stroke="#000000" points="702.5,-270.5 702.5,-624.5 876.5,-624.5 876.5,-270.5 702.5,-270.5"/>
<text text-anchor="start" x="710.5" y="-612.5" font-family="Helvetica,sans-Serif" font-size="10.00" fill="#000000">o2::dataformats::MCTruth</text>
<text text-anchor="middle" x="789.5" y="-601.5" font-family="Helvetica,sans-Serif" font-size="10.00" fill="#000000">Container&lt; o2::MCCompLabel &gt;</text>
<polyline fill="none" stroke="#000000" points="702.5,-594.5 876.5,-594.5 "/>
<text text-anchor="middle" x="789.5" y="-582.5" font-family="Helvetica,sans-Serif" font-size="10.00" fill="#000000"> </text>
<polyline fill="none" stroke="#000000" points="702.5,-575.5 876.5,-575.5 "/>
<text text-anchor="start" x="710.5" y="-563.5" font-family="Helvetica,sans-Serif" font-size="10.00" fill="#000000">+ MCTruthContainer()</text>
<text text-anchor="start" x="710.5" y="-552.5" font-family="Helvetica,sans-Serif" font-size="10.00" fill="#000000">+ MCTruthContainer()</text>
<text text-anchor="start" x="710.5" y="-541.5" font-family="Helvetica,sans-Serif" font-size="10.00" fill="#000000">+ MCTruthContainer()</text>
<text text-anchor="start" x="710.5" y="-530.5" font-family="Helvetica,sans-Serif" font-size="10.00" fill="#000000">+ MCTruthContainer()</text>
<text text-anchor="start" x="710.5" y="-519.5" font-family="Helvetica,sans-Serif" font-size="10.00" fill="#000000">+ ~MCTruthContainer()</text>
<text text-anchor="start" x="710.5" y="-508.5" font-family="Helvetica,sans-Serif" font-size="10.00" fill="#000000">+ operator=()</text>
<text text-anchor="start" x="710.5" y="-497.5" font-family="Helvetica,sans-Serif" font-size="10.00" fill="#000000">+ operator=()</text>
<text text-anchor="start" x="710.5" y="-486.5" font-family="Helvetica,sans-Serif" font-size="10.00" fill="#000000">+ getMCTruthHeader()</text>
<text text-anchor="start" x="710.5" y="-475.5" font-family="Helvetica,sans-Serif" font-size="10.00" fill="#000000">+ getElement()</text>
<text text-anchor="start" x="710.5" y="-464.5" font-family="Helvetica,sans-Serif" font-size="10.00" fill="#000000">+ getIndexedSize()</text>
<text text-anchor="start" x="710.5" y="-453.5" font-family="Helvetica,sans-Serif" font-size="10.00" fill="#000000">+ getNElements()</text>
<text text-anchor="start" x="710.5" y="-442.5" font-family="Helvetica,sans-Serif" font-size="10.00" fill="#000000">+ getLabels()</text>
<text text-anchor="start" x="710.5" y="-431.5" font-family="Helvetica,sans-Serif" font-size="10.00" fill="#000000">+ getLabels()</text>
<text text-anchor="start" x="710.5" y="-420.5" font-family="Helvetica,sans-Serif" font-size="10.00" fill="#000000">+ clear()</text>
<text text-anchor="start" x="710.5" y="-409.5" font-family="Helvetica,sans-Serif" font-size="10.00" fill="#000000">+ addElement()</text>
<text text-anchor="start" x="710.5" y="-398.5" font-family="Helvetica,sans-Serif" font-size="10.00" fill="#000000">+ addElements()</text>
<text text-anchor="start" x="710.5" y="-387.5" font-family="Helvetica,sans-Serif" font-size="10.00" fill="#000000">+ addElements()</text>
<text text-anchor="start" x="710.5" y="-376.5" font-family="Helvetica,sans-Serif" font-size="10.00" fill="#000000">+ addElementRandomAccess()</text>
<text text-anchor="start" x="710.5" y="-365.5" font-family="Helvetica,sans-Serif" font-size="10.00" fill="#000000">+ setFrom()</text>
<text text-anchor="start" x="710.5" y="-354.5" font-family="Helvetica,sans-Serif" font-size="10.00" fill="#000000">+ mergeAtBack()</text>
<text text-anchor="start" x="710.5" y="-343.5" font-family="Helvetica,sans-Serif" font-size="10.00" fill="#000000">+ mergeAtBack()</text>
<text text-anchor="start" x="710.5" y="-332.5" font-family="Helvetica,sans-Serif" font-size="10.00" fill="#000000">+ flatten_to()</text>
<text text-anchor="start" x="710.5" y="-321.5" font-family="Helvetica,sans-Serif" font-size="10.00" fill="#000000">+ restore_from()</text>
<text text-anchor="start" x="710.5" y="-310.5" font-family="Helvetica,sans-Serif" font-size="10.00" fill="#000000">+ print()</text>
<text text-anchor="start" x="710.5" y="-299.5" font-family="Helvetica,sans-Serif" font-size="10.00" fill="#000000">+ inflate()</text>
<text text-anchor="start" x="710.5" y="-288.5" font-family="Helvetica,sans-Serif" font-size="10.00" fill="#000000">+ deflate()</text>
<text text-anchor="start" x="710.5" y="-277.5" font-family="Helvetica,sans-Serif" font-size="10.00" fill="#000000">+ ClassDefNV()</text>
</a>
</g>
</g>
<!-- Node8&#45;&gt;Node1 -->
<g id="edge7" class="edge">
<title>Node8&#45;&gt;Node1</title>
<path fill="none" stroke="#404040" d="M799.7593,-270.4515C802.0994,-249.3307 804.9726,-228.1314 808.5,-208 808.8785,-205.8397 809.2802,-203.6609 809.7023,-201.4691"/>
<polygon fill="none" stroke="#404040" points="809.7152,-201.4059 807.0101,-194.7214 812.14,-189.6534 814.8451,-196.3379 809.7152,-201.4059"/>
<text text-anchor="middle" x="829" y="-227.5" font-family="Helvetica,sans-Serif" font-size="10.00" fill="#000000"> +labels</text>
</g>
<!-- Node9 -->
<g id="node9" class="node">
<title>Node9</title>
<g id="a_node9"><a xlink:href="../../dc/daa/classo2_1_1dataformats_1_1MCTruthContainer.html" target="_top" xlink:title="A container to hold and manage MC truth information/labels. ">
<polygon fill="none" stroke="#000000" points="705.5,-672.5 705.5,-1026.5 873.5,-1026.5 873.5,-672.5 705.5,-672.5"/>
<text text-anchor="start" x="713.5" y="-1014.5" font-family="Helvetica,sans-Serif" font-size="10.00" fill="#000000">o2::dataformats::MCTruth</text>
<text text-anchor="middle" x="789.5" y="-1003.5" font-family="Helvetica,sans-Serif" font-size="10.00" fill="#000000">Container&lt; TruthElement &gt;</text>
<polyline fill="none" stroke="#000000" points="705.5,-996.5 873.5,-996.5 "/>
<text text-anchor="middle" x="789.5" y="-984.5" font-family="Helvetica,sans-Serif" font-size="10.00" fill="#000000"> </text>
<polyline fill="none" stroke="#000000" points="705.5,-977.5 873.5,-977.5 "/>
<text text-anchor="start" x="713.5" y="-965.5" font-family="Helvetica,sans-Serif" font-size="10.00" fill="#000000">+ MCTruthContainer()</text>
<text text-anchor="start" x="713.5" y="-954.5" font-family="Helvetica,sans-Serif" font-size="10.00" fill="#000000">+ ~MCTruthContainer()</text>
<text text-anchor="start" x="713.5" y="-943.5" font-family="Helvetica,sans-Serif" font-size="10.00" fill="#000000">+ MCTruthContainer()</text>
<text text-anchor="start" x="713.5" y="-932.5" font-family="Helvetica,sans-Serif" font-size="10.00" fill="#000000">+ MCTruthContainer()</text>
<text text-anchor="start" x="713.5" y="-921.5" font-family="Helvetica,sans-Serif" font-size="10.00" fill="#000000">+ MCTruthContainer()</text>
<text text-anchor="start" x="713.5" y="-910.5" font-family="Helvetica,sans-Serif" font-size="10.00" fill="#000000">+ operator=()</text>
<text text-anchor="start" x="713.5" y="-899.5" font-family="Helvetica,sans-Serif" font-size="10.00" fill="#000000">+ operator=()</text>
<text text-anchor="start" x="713.5" y="-888.5" font-family="Helvetica,sans-Serif" font-size="10.00" fill="#000000">+ getMCTruthHeader()</text>
<text text-anchor="start" x="713.5" y="-877.5" font-family="Helvetica,sans-Serif" font-size="10.00" fill="#000000">+ getElement()</text>
<text text-anchor="start" x="713.5" y="-866.5" font-family="Helvetica,sans-Serif" font-size="10.00" fill="#000000">+ getIndexedSize()</text>
<text text-anchor="start" x="713.5" y="-855.5" font-family="Helvetica,sans-Serif" font-size="10.00" fill="#000000">+ getNElements()</text>
<text text-anchor="start" x="713.5" y="-844.5" font-family="Helvetica,sans-Serif" font-size="10.00" fill="#000000">+ getLabels()</text>
<text text-anchor="start" x="713.5" y="-833.5" font-family="Helvetica,sans-Serif" font-size="10.00" fill="#000000">+ getLabels()</text>
<text text-anchor="start" x="713.5" y="-822.5" font-family="Helvetica,sans-Serif" font-size="10.00" fill="#000000">+ clear()</text>
<text text-anchor="start" x="713.5" y="-811.5" font-family="Helvetica,sans-Serif" font-size="10.00" fill="#000000">+ addElement()</text>
<text text-anchor="start" x="713.5" y="-800.5" font-family="Helvetica,sans-Serif" font-size="10.00" fill="#000000">+ addElements()</text>
<text text-anchor="start" x="713.5" y="-789.5" font-family="Helvetica,sans-Serif" font-size="10.00" fill="#000000">+ addElements()</text>
<text text-anchor="start" x="713.5" y="-778.5" font-family="Helvetica,sans-Serif" font-size="10.00" fill="#000000">+ addElementRandomAccess()</text>
<text text-anchor="start" x="713.5" y="-767.5" font-family="Helvetica,sans-Serif" font-size="10.00" fill="#000000">+ setFrom()</text>
<text text-anchor="start" x="713.5" y="-756.5" font-family="Helvetica,sans-Serif" font-size="10.00" fill="#000000">+ mergeAtBack()</text>
<text text-anchor="start" x="713.5" y="-745.5" font-family="Helvetica,sans-Serif" font-size="10.00" fill="#000000">+ mergeAtBack()</text>
<text text-anchor="start" x="713.5" y="-734.5" font-family="Helvetica,sans-Serif" font-size="10.00" fill="#000000">+ flatten_to()</text>
<text text-anchor="start" x="713.5" y="-723.5" font-family="Helvetica,sans-Serif" font-size="10.00" fill="#000000">+ restore_from()</text>
<text text-anchor="start" x="713.5" y="-712.5" font-family="Helvetica,sans-Serif" font-size="10.00" fill="#000000">+ print()</text>
<text text-anchor="start" x="713.5" y="-701.5" font-family="Helvetica,sans-Serif" font-size="10.00" fill="#000000">+ inflate()</text>
<text text-anchor="start" x="713.5" y="-690.5" font-family="Helvetica,sans-Serif" font-size="10.00" fill="#000000">+ deflate()</text>
<text text-anchor="start" x="713.5" y="-679.5" font-family="Helvetica,sans-Serif" font-size="10.00" fill="#000000">+ ClassDefNV()</text>
</a>
</g>
</g>
<!-- Node9&#45;&gt;Node8 -->
<g id="edge8" class="edge">
<title>Node9&#45;&gt;Node8</title>
<path fill="none" stroke="#ffa500" d="M789.5,-662.2865C789.5,-649.7776 789.5,-637.1971 789.5,-624.7401"/>
<polygon fill="#ffa500" stroke="#ffa500" points="786.0001,-662.2993 789.5,-672.2994 793.0001,-662.2994 786.0001,-662.2993"/>
<text text-anchor="middle" x="846.5" y="-646" font-family="Helvetica,sans-Serif" font-size="10.00" fill="#000000"> &lt; o2::MCCompLabel &gt;</text>
</g>
<!-- Node10 -->
<g id="node10" class="node">
<title>Node10</title>
<polygon fill="none" stroke="#bfbfbf" points="895,-419 895,-476 978,-476 978,-419 895,-419"/>
<text text-anchor="middle" x="936.5" y="-464" font-family="Helvetica,sans-Serif" font-size="10.00" fill="#000000">vector&lt; int &gt;</text>
<polyline fill="none" stroke="#bfbfbf" points="895,-457 978,-457 "/>
<text text-anchor="middle" x="936.5" y="-445" font-family="Helvetica,sans-Serif" font-size="10.00" fill="#000000"> </text>
<polyline fill="none" stroke="#bfbfbf" points="895,-438 978,-438 "/>
<text text-anchor="middle" x="936.5" y="-426" font-family="Helvetica,sans-Serif" font-size="10.00" fill="#000000"> </text>
</g>
<!-- Node10&#45;&gt;Node1 -->
<g id="edge9" class="edge">
<title>Node10&#45;&gt;Node1</title>
<path fill="none" stroke="#404040" d="M931.4207,-418.7281C924.3498,-382.6727 909.6183,-319.5944 885.5,-270 881.1842,-261.1255 876.4908,-261.0253 872.5,-252 865.4989,-236.1667 859.9521,-218.7667 855.5661,-201.4942"/>
<polygon fill="none" stroke="#404040" points="855.5071,-201.2474 850.2194,-196.3443 852.7116,-189.5775 857.9993,-194.4806 855.5071,-201.2474"/>
<text text-anchor="middle" x="919.5" y="-233" font-family="Helvetica,sans-Serif" font-size="10.00" fill="#000000"> +preClusterHeads</text>
<text text-anchor="middle" x="919.5" y="-222" font-family="Helvetica,sans-Serif" font-size="10.00" fill="#000000">+preClusterIndices</text>
</g>
<!-- Node11 -->
<g id="node11" class="node">
<title>Node11</title>
<polygon fill="none" stroke="#bfbfbf" points="996,-419 996,-476 1025,-476 1025,-419 996,-419"/>
<text text-anchor="middle" x="1010.5" y="-464" font-family="Helvetica,sans-Serif" font-size="10.00" fill="#000000">int</text>
<polyline fill="none" stroke="#bfbfbf" points="996,-457 1025,-457 "/>
<text text-anchor="middle" x="1010.5" y="-445" font-family="Helvetica,sans-Serif" font-size="10.00" fill="#000000"> </text>
<polyline fill="none" stroke="#bfbfbf" points="996,-438 1025,-438 "/>
<text text-anchor="middle" x="1010.5" y="-426" font-family="Helvetica,sans-Serif" font-size="10.00" fill="#000000"> </text>
</g>
<!-- Node11&#45;&gt;Node1 -->
<g id="edge10" class="edge">
<title>Node11&#45;&gt;Node1</title>
<path fill="none" stroke="#404040" d="M1012.1604,-418.6616C1013.4964,-370.7993 1010.0459,-273.728 966.5,-208 954.3972,-189.7321 938.6314,-172.5552 922.3456,-157.3731"/>
<polygon fill="none" stroke="#404040" points="922.1593,-157.2044 915.0269,-156.142 913.2643,-149.1495 920.3968,-150.212 922.1593,-157.2044"/>
<text text-anchor="middle" x="1012" y="-244" font-family="Helvetica,sans-Serif" font-size="10.00" fill="#000000"> +curr</text>
<text text-anchor="middle" x="1012" y="-233" font-family="Helvetica,sans-Serif" font-size="10.00" fill="#000000">+prev</text>
<text text-anchor="middle" x="1012" y="-222" font-family="Helvetica,sans-Serif" font-size="10.00" fill="#000000">+column1</text>
<text text-anchor="middle" x="1012" y="-211" font-family="Helvetica,sans-Serif" font-size="10.00" fill="#000000">+column2</text>
</g>
<!-- Node12 -->
<g id="node12" class="node">
<title>Node12</title>
<polygon fill="none" stroke="#bfbfbf" points="1043.5,-419 1043.5,-476 1081.5,-476 1081.5,-419 1043.5,-419"/>
<text text-anchor="middle" x="1062.5" y="-464" font-family="Helvetica,sans-Serif" font-size="10.00" fill="#000000">bool</text>
<polyline fill="none" stroke="#bfbfbf" points="1043.5,-457 1081.5,-457 "/>
<text text-anchor="middle" x="1062.5" y="-445" font-family="Helvetica,sans-Serif" font-size="10.00" fill="#000000"> </text>
<polyline fill="none" stroke="#bfbfbf" points="1043.5,-438 1081.5,-438 "/>
<text text-anchor="middle" x="1062.5" y="-426" font-family="Helvetica,sans-Serif" font-size="10.00" fill="#000000"> </text>
</g>
<!-- Node12&#45;&gt;Node1 -->
<g id="edge11" class="edge">
<title>Node12&#45;&gt;Node1</title>
<path fill="none" stroke="#404040" d="M1067.8231,-418.9618C1075.1337,-371.1131 1082.9715,-273.5204 1040.5,-208 1013.715,-166.679 966.2635,-138.978 924.1902,-121.3484"/>
<polygon fill="none" stroke="#404040" points="924.1881,-121.3477 917.1276,-122.8142 913.0584,-116.861 920.1188,-115.3944 924.1881,-121.3477"/>
<text text-anchor="middle" x="1088.5" y="-227.5" font-family="Helvetica,sans-Serif" font-size="10.00" fill="#000000"> +noLeftCol</text>
</g>
<!-- Node13 -->
<g id="node13" class="node">
<title>Node13</title>
<polygon fill="none" stroke="#bfbfbf" points="1099,-419 1099,-476 1248,-476 1248,-419 1099,-419"/>
<text text-anchor="middle" x="1173.5" y="-464" font-family="Helvetica,sans-Serif" font-size="10.00" fill="#000000">vector&lt; CompClusterExt &gt;</text>
<polyline fill="none" stroke="#bfbfbf" points="1099,-457 1248,-457 "/>
<text text-anchor="middle" x="1173.5" y="-445" font-family="Helvetica,sans-Serif" font-size="10.00" fill="#000000"> </text>
<polyline fill="none" stroke="#bfbfbf" points="1099,-438 1248,-438 "/>
<text text-anchor="middle" x="1173.5" y="-426" font-family="Helvetica,sans-Serif" font-size="10.00" fill="#000000"> </text>
</g>
<!-- Node13&#45;&gt;Node1 -->
<g id="edge12" class="edge">
<title>Node13&#45;&gt;Node1</title>
<path fill="none" stroke="#404040" d="M1175.3726,-418.7134C1176.9768,-369.6186 1173.1382,-269.0911 1121.5,-208 1072.241,-149.7237 988.5924,-121.2256 925.1566,-107.4605"/>
<polygon fill="none" stroke="#404040" points="924.9092,-107.4094 918.2233,-110.1111 913.158,-104.9786 919.8439,-102.277 924.9092,-107.4094"/>
<text text-anchor="middle" x="1185" y="-227.5" font-family="Helvetica,sans-Serif" font-size="10.00" fill="#000000"> +compClusters</text>
</g>
<!-- Node14 -->
<g id="node14" class="node">
<title>Node14</title>
<polygon fill="none" stroke="#bfbfbf" points="1265.5,-413.5 1265.5,-481.5 1371.5,-481.5 1371.5,-413.5 1265.5,-413.5"/>
<text text-anchor="start" x="1273.5" y="-469.5" font-family="Helvetica,sans-Serif" font-size="10.00" fill="#000000">vector&lt; o2::itsmft</text>
<text text-anchor="middle" x="1318.5" y="-458.5" font-family="Helvetica,sans-Serif" font-size="10.00" fill="#000000">::PixelData &gt;</text>
<polyline fill="none" stroke="#bfbfbf" points="1265.5,-451.5 1371.5,-451.5 "/>
<text text-anchor="middle" x="1318.5" y="-439.5" font-family="Helvetica,sans-Serif" font-size="10.00" fill="#000000"> </text>
<polyline fill="none" stroke="#bfbfbf" points="1265.5,-432.5 1371.5,-432.5 "/>
<text text-anchor="middle" x="1318.5" y="-420.5" font-family="Helvetica,sans-Serif" font-size="10.00" fill="#000000"> </text>
</g>
<!-- Node14&#45;&gt;Node1 -->
<g id="edge13" class="edge">
<title>Node14&#45;&gt;Node1</title>
<path fill="none" stroke="#404040" d="M1315.7824,-413.0777C1309.7072,-360.5325 1290.2504,-260.8616 1228.5,-208 1182.8736,-168.9414 1024.9597,-131.699 924.9094,-111.2371"/>
<polygon fill="none" stroke="#404040" points="924.7676,-111.2085 918.0929,-113.9376 913.0065,-108.8259 919.6812,-106.0968 924.7676,-111.2085"/>
<text text-anchor="middle" x="1294" y="-227.5" font-family="Helvetica,sans-Serif" font-size="10.00" fill="#000000"> +pixArrBuff</text>
</g>
<!-- Node15 -->
<g id="node15" class="node">
<title>Node15</title>
<polygon fill="none" stroke="#bfbfbf" points="1389.5,-413.5 1389.5,-481.5 1533.5,-481.5 1533.5,-413.5 1389.5,-413.5"/>
<text text-anchor="start" x="1397.5" y="-469.5" font-family="Helvetica,sans-Serif" font-size="10.00" fill="#000000">array&lt; o2::MCCompLabel,</text>
<text text-anchor="middle" x="1461.5" y="-458.5" font-family="Helvetica,sans-Serif" font-size="10.00" fill="#000000"> MaxLabels &gt;</text>
<polyline fill="none" stroke="#bfbfbf" points="1389.5,-451.5 1533.5,-451.5 "/>
<text text-anchor="middle" x="1461.5" y="-439.5" font-family="Helvetica,sans-Serif" font-size="10.00" fill="#000000"> </text>
<polyline fill="none" stroke="#bfbfbf" points="1389.5,-432.5 1533.5,-432.5 "/>
<text text-anchor="middle" x="1461.5" y="-420.5" font-family="Helvetica,sans-Serif" font-size="10.00" fill="#000000"> </text>
</g>
<!-- Node15&#45;&gt;Node1 -->
<g id="edge14" class="edge">
<title>Node15&#45;&gt;Node1</title>
<path fill="none" stroke="#404040" d="M1453.7934,-413.0644C1439.5651,-358.5845 1403.512,-253.9898 1328.5,-208 1261.6206,-166.9963 1046.8935,-127.7688 925.3941,-108.1052"/>
<polygon fill="none" stroke="#404040" points="925.0638,-108.0522 918.5054,-111.0501 913.2156,-106.1492 919.7741,-103.1513 925.0638,-108.0522"/>
<text text-anchor="middle" x="1408" y="-227.5" font-family="Helvetica,sans-Serif" font-size="10.00" fill="#000000"> +labelsBuff</text>
</g>
</g>
</svg>
