<?xml version="1.0" encoding="UTF-8" standalone="no"?>
<!DOCTYPE svg PUBLIC "-//W3C//DTD SVG 1.1//EN"
 "http://www.w3.org/Graphics/SVG/1.1/DTD/svg11.dtd">
<!-- Generated by graphviz version 2.40.1 (20161225.0304)
 -->
<!-- Title: o2::framework::DataProcessingStats Pages: 1 -->
<svg width="720pt" height="353pt"
 viewBox="0.00 0.00 719.50 353.00" xmlns="http://www.w3.org/2000/svg" xmlns:xlink="http://www.w3.org/1999/xlink">
<g id="graph0" class="graph" transform="scale(1 1) rotate(0) translate(4 349)">
<title>o2::framework::DataProcessingStats</title>
<!-- Node1 -->
<g id="node1" class="node">
<title>Node1</title>
<polygon fill="#bfbfbf" stroke="#000000" points="230.5,-.5 230.5,-68.5 400.5,-68.5 400.5,-.5 230.5,-.5"/>
<text text-anchor="start" x="238.5" y="-56.5" font-family="Helvetica,sans-Serif" font-size="10.00" fill="#000000">o2::framework::DataProcessing</text>
<text text-anchor="middle" x="315.5" y="-45.5" font-family="Helvetica,sans-Serif" font-size="10.00" fill="#000000">Stats</text>
<polyline fill="none" stroke="#000000" points="230.5,-38.5 400.5,-38.5 "/>
<text text-anchor="middle" x="315.5" y="-26.5" font-family="Helvetica,sans-Serif" font-size="10.00" fill="#000000"> </text>
<polyline fill="none" stroke="#000000" points="230.5,-19.5 400.5,-19.5 "/>
<text text-anchor="middle" x="315.5" y="-7.5" font-family="Helvetica,sans-Serif" font-size="10.00" fill="#000000"> </text>
</g>
<!-- Node2 -->
<g id="node2" class="node">
<title>Node2</title>
<polygon fill="none" stroke="#bfbfbf" points="0,-166 0,-223 83,-223 83,-166 0,-166"/>
<text text-anchor="middle" x="41.5" y="-211" font-family="Helvetica,sans-Serif" font-size="10.00" fill="#000000">vector&lt; int &gt;</text>
<polyline fill="none" stroke="#bfbfbf" points="0,-204 83,-204 "/>
<text text-anchor="middle" x="41.5" y="-192" font-family="Helvetica,sans-Serif" font-size="10.00" fill="#000000"> </text>
<polyline fill="none" stroke="#bfbfbf" points="0,-185 83,-185 "/>
<text text-anchor="middle" x="41.5" y="-173" font-family="Helvetica,sans-Serif" font-size="10.00" fill="#000000"> </text>
</g>
<!-- Node2&#45;&gt;Node1 -->
<g id="edge1" class="edge">
<title>Node2&#45;&gt;Node1</title>
<path fill="none" stroke="#404040" d="M58.0866,-165.6368C73.5602,-141.2208 98.8337,-107.0897 129.5,-87 156.0123,-69.6316 188.2834,-57.9327 218.4538,-50.084"/>
<polygon fill="none" stroke="#404040" points="218.6871,-50.0267 223.5568,-44.7082 230.3392,-47.1578 225.4695,-52.4762 218.6871,-50.0267"/>
<text text-anchor="middle" x="165.5" y="-112" font-family="Helvetica,sans-Serif" font-size="10.00" fill="#000000"> +relayerState</text>
</g>
<!-- Node3 -->
<g id="node3" class="node">
<title>Node3</title>
<g id="a_node3"><a xlink:href="../../d3/d9f/structo2_1_1framework_1_1DataProcessingStats_1_1InputLatency.html" target="_top" xlink:title="{o2::framework::DataProcessing\lStats::InputLatency\n||}">
<polygon fill="none" stroke="#000000" points="101.5,-160.5 101.5,-228.5 271.5,-228.5 271.5,-160.5 101.5,-160.5"/>
<text text-anchor="start" x="109.5" y="-216.5" font-family="Helvetica,sans-Serif" font-size="10.00" fill="#000000">o2::framework::DataProcessing</text>
<text text-anchor="middle" x="186.5" y="-205.5" font-family="Helvetica,sans-Serif" font-size="10.00" fill="#000000">Stats::InputLatency</text>
<polyline fill="none" stroke="#000000" points="101.5,-198.5 271.5,-198.5 "/>
<text text-anchor="middle" x="186.5" y="-186.5" font-family="Helvetica,sans-Serif" font-size="10.00" fill="#000000"> </text>
<polyline fill="none" stroke="#000000" points="101.5,-179.5 271.5,-179.5 "/>
<text text-anchor="middle" x="186.5" y="-167.5" font-family="Helvetica,sans-Serif" font-size="10.00" fill="#000000"> </text>
</a>
</g>
</g>
<!-- Node3&#45;&gt;Node1 -->
<g id="edge2" class="edge">
<title>Node3&#45;&gt;Node1</title>
<path fill="none" stroke="#404040" d="M197.7405,-160.3549C206.3662,-137.7872 219.9547,-108.5126 238.5,-87 241.6198,-83.3811 245.0444,-79.8984 248.6621,-76.5688"/>
<polygon fill="none" stroke="#404040" points="248.857,-76.4027 250.8275,-69.466 257.9885,-68.617 256.018,-75.5537 248.857,-76.4027"/>
<text text-anchor="middle" x="272.5" y="-112" font-family="Helvetica,sans-Serif" font-size="10.00" fill="#000000"> +lastLatency</text>
</g>
<!-- Node4 -->
<g id="node4" class="node">
<title>Node4</title>
<polygon fill="none" stroke="#bfbfbf" points="172,-287.5 172,-344.5 201,-344.5 201,-287.5 172,-287.5"/>
<text text-anchor="middle" x="186.5" y="-332.5" font-family="Helvetica,sans-Serif" font-size="10.00" fill="#000000">int</text>
<polyline fill="none" stroke="#bfbfbf" points="172,-325.5 201,-325.5 "/>
<text text-anchor="middle" x="186.5" y="-313.5" font-family="Helvetica,sans-Serif" font-size="10.00" fill="#000000"> </text>
<polyline fill="none" stroke="#bfbfbf" points="172,-306.5 201,-306.5 "/>
<text text-anchor="middle" x="186.5" y="-294.5" font-family="Helvetica,sans-Serif" font-size="10.00" fill="#000000"> </text>
</g>
<!-- Node4&#45;&gt;Node3 -->
<g id="edge3" class="edge">
<title>Node4&#45;&gt;Node3</title>
<path fill="none" stroke="#404040" d="M186.5,-287.2062C186.5,-273.3632 186.5,-256.4255 186.5,-240.8327"/>
<polygon fill="none" stroke="#404040" points="186.5001,-240.7007 182.5,-234.7008 186.5,-228.7007 190.5,-234.7007 186.5001,-240.7007"/>
<text text-anchor="middle" x="222.5" y="-261" font-family="Helvetica,sans-Serif" font-size="10.00" fill="#000000"> +maxLatency</text>
<text text-anchor="middle" x="222.5" y="-250" font-family="Helvetica,sans-Serif" font-size="10.00" fill="#000000">+minLatency</text>
</g>
<!-- Node5 -->
<g id="node5" class="node">
<title>Node5</title>
<polygon fill="none" stroke="#bfbfbf" points="290,-166 290,-223 403,-223 403,-166 290,-166"/>
<text text-anchor="middle" x="346.5" y="-211" font-family="Helvetica,sans-Serif" font-size="10.00" fill="#000000">atomic&lt; uint64_t &gt;</text>
<polyline fill="none" stroke="#bfbfbf" points="290,-204 403,-204 "/>
<text text-anchor="middle" x="346.5" y="-192" font-family="Helvetica,sans-Serif" font-size="10.00" fill="#000000"> </text>
<polyline fill="none" stroke="#bfbfbf" points="290,-185 403,-185 "/>
<text text-anchor="middle" x="346.5" y="-173" font-family="Helvetica,sans-Serif" font-size="10.00" fill="#000000"> </text>
</g>
<!-- Node5&#45;&gt;Node1 -->
<g id="edge4" class="edge">
<title>Node5&#45;&gt;Node1</title>
<path fill="none" stroke="#404040" d="M326.7228,-165.9487C322.5395,-158.4779 318.7207,-150.2081 316.5,-142 311.1821,-122.344 310.2153,-99.9169 310.8568,-80.6508"/>
<polygon fill="none" stroke="#404040" points="310.8649,-80.4917 307.1782,-74.2942 311.481,-68.5075 315.1677,-74.705 310.8649,-80.4917"/>
<text text-anchor="middle" x="395" y="-123" font-family="Helvetica,sans-Serif" font-size="10.00" fill="#000000"> +lastMetricFlushedTimestamp</text>
<text text-anchor="middle" x="395" y="-112" font-family="Helvetica,sans-Serif" font-size="10.00" fill="#000000">+lastSlowMetricSentTimestamp</text>
<text text-anchor="middle" x="395" y="-101" font-family="Helvetica,sans-Serif" font-size="10.00" fill="#000000">+beginIterationTimestamp</text>
</g>
<!-- Node6 -->
<g id="node6" class="node">
<title>Node6</title>
<polygon fill="none" stroke="#bfbfbf" points="452.5,-166 452.5,-223 538.5,-223 538.5,-166 452.5,-166"/>
<text text-anchor="middle" x="495.5" y="-211" font-family="Helvetica,sans-Serif" font-size="10.00" fill="#000000">atomic&lt; int &gt;</text>
<polyline fill="none" stroke="#bfbfbf" points="452.5,-204 538.5,-204 "/>
<text text-anchor="middle" x="495.5" y="-192" font-family="Helvetica,sans-Serif" font-size="10.00" fill="#000000"> </text>
<polyline fill="none" stroke="#bfbfbf" points="452.5,-185 538.5,-185 "/>
<text text-anchor="middle" x="495.5" y="-173" font-family="Helvetica,sans-Serif" font-size="10.00" fill="#000000"> </text>
</g>
<!-- Node6&#45;&gt;Node1 -->
<g id="edge5" class="edge">
<title>Node6&#45;&gt;Node1</title>
<path fill="none" stroke="#404040" d="M497.0701,-165.9388C496.8184,-142.0485 492.5954,-108.5132 473.5,-87 464.2657,-76.5965 439.6405,-66.5946 412.5031,-58.163"/>
<polygon fill="none" stroke="#404040" points="412.253,-58.0883 405.3583,-60.2008 400.7564,-54.649 407.6512,-52.5364 412.253,-58.0883"/>
<text text-anchor="middle" x="554.5" y="-134" font-family="Helvetica,sans-Serif" font-size="10.00" fill="#000000"> +inputParts</text>
<text text-anchor="middle" x="554.5" y="-123" font-family="Helvetica,sans-Serif" font-size="10.00" fill="#000000">+pendingInputs</text>
<text text-anchor="middle" x="554.5" y="-112" font-family="Helvetica,sans-Serif" font-size="10.00" fill="#000000">+lastElapsedTimeMs</text>
<text text-anchor="middle" x="554.5" y="-101" font-family="Helvetica,sans-Serif" font-size="10.00" fill="#000000">+lastTotalProcessedSize</text>
<text text-anchor="middle" x="554.5" y="-90" font-family="Helvetica,sans-Serif" font-size="10.00" fill="#000000">+incomplete</text>
</g>
<!-- Node7 -->
<g id="node7" class="node">
<title>Node7</title>
<polygon fill="none" stroke="#bfbfbf" points="616.5,-166 616.5,-223 660.5,-223 660.5,-166 616.5,-166"/>
<text text-anchor="middle" x="638.5" y="-211" font-family="Helvetica,sans-Serif" font-size="10.00" fill="#000000">static</text>
<polyline fill="none" stroke="#bfbfbf" points="616.5,-204 660.5,-204 "/>
<text text-anchor="middle" x="638.5" y="-192" font-family="Helvetica,sans-Serif" font-size="10.00" fill="#000000"> </text>
<polyline fill="none" stroke="#bfbfbf" points="616.5,-185 660.5,-185 "/>
<text text-anchor="middle" x="638.5" y="-173" font-family="Helvetica,sans-Serif" font-size="10.00" fill="#000000"> </text>
</g>
<!-- Node7&#45;&gt;Node1 -->
<g id="edge6" class="edge">
<title>Node7&#45;&gt;Node1</title>
<path fill="none" stroke="#404040" d="M640.8419,-165.6786C641.1328,-141.2894 637.2716,-107.1741 616.5,-87 587.9652,-59.286 489.5565,-46.0254 412.9382,-39.7952"/>
<polygon fill="none" stroke="#404040" points="412.8065,-39.7851 406.5143,-43.3078 400.8426,-38.8545 407.1347,-35.3319 412.8065,-39.7851"/>
<text text-anchor="middle" x="675" y="-112" font-family="Helvetica,sans-Serif" font-size="10.00" fill="#000000"> +service_kind</text>
</g>
</g>
</svg>
