<?xml version="1.0" encoding="UTF-8" standalone="no"?>
<!DOCTYPE svg PUBLIC "-//W3C//DTD SVG 1.1//EN"
 "http://www.w3.org/Graphics/SVG/1.1/DTD/svg11.dtd">
<!-- Generated by graphviz version 2.40.1 (20161225.0304)
 -->
<!-- Title: /home/travis/build/AliceO2Group/AliceO2/Framework/Core/src/DataSamplingConditionNConsecutive.cxx Pages: 1 -->
<!--zoomable 251 -->
<svg id="main" version="1.1" xmlns="http://www.w3.org/2000/svg" xmlns:xlink="http://www.w3.org/1999/xlink" xml:space="preserve" onload="init(evt)">
<style type="text/css"><![CDATA[
.edge:hover path { stroke: red; }
.edge:hover polygon { stroke: red; fill: red; }
]]></style>
<script type="text/javascript"><![CDATA[
var edges = document.getElementsByTagName('g');
if (edges && edges.length) {
  for (var i=0;i<edges.length;i++) {
    if (edges[i].id.substr(0,4)=='edge') {
      edges[i].setAttribute('class','edge');
    }
  }
}
]]></script>
        <defs>
                <circle id="rim" cx="0" cy="0" r="7"/>
                <circle id="rim2" cx="0" cy="0" r="3.5"/>
                <g id="zoomPlus">
                        <use xlink:href="#rim" fill="#404040">
                                <set attributeName="fill" to="#808080" begin="zoomplus.mouseover" end="zoomplus.mouseout"/>
                        </use>
                        <path d="M-4,0h8M0,-4v8" fill="none" stroke="white" stroke-width="1.5" pointer-events="none"/>
                </g>
                <g id="zoomMin">
                        <use xlink:href="#rim" fill="#404040">
                                <set attributeName="fill" to="#808080" begin="zoomminus.mouseover" end="zoomminus.mouseout"/>
                        </use>
                        <path d="M-4,0h8" fill="none" stroke="white" stroke-width="1.5" pointer-events="none"/>
                </g>
                <g id="dirArrow">
                        <path fill="none" stroke="white" stroke-width="1.5" d="M0,-3.0v7 M-2.5,-0.5L0,-3.0L2.5,-0.5"/>
                </g>
               <g id="resetDef">
                       <use xlink:href="#rim2" fill="#404040">
                               <set attributeName="fill" to="#808080" begin="reset.mouseover" end="reset.mouseout"/>
                       </use>
               </g>
        </defs>

<script type="text/javascript">
var viewWidth = 1148;
var viewHeight = 251;
var sectionId = 'dynsection-0';
</script>
<script xlink:href="../../svgpan.js"/>
<svg id="graph" class="graph">
<g id="viewport">
<title>/home/travis/build/AliceO2Group/AliceO2/Framework/Core/src/DataSamplingConditionNConsecutive.cxx</title>
<!-- Node0 -->
<g id="node1" class="node">
<title>Node0</title>
<polygon fill="#bfbfbf" stroke="#000000" points="707.5,-190.5 707.5,-242.5 895.5,-242.5 895.5,-190.5 707.5,-190.5"/>
<text text-anchor="start" x="715.5" y="-230.5" font-family="Helvetica,sans-Serif" font-size="10.00" fill="#000000">/home/travis/build</text>
<text text-anchor="start" x="715.5" y="-219.5" font-family="Helvetica,sans-Serif" font-size="10.00" fill="#000000">/AliceO2Group/AliceO2</text>
<text text-anchor="start" x="715.5" y="-208.5" font-family="Helvetica,sans-Serif" font-size="10.00" fill="#000000">/Framework/Core/src/DataSampling</text>
<text text-anchor="middle" x="801.5" y="-197.5" font-family="Helvetica,sans-Serif" font-size="10.00" fill="#000000">ConditionNConsecutive.cxx</text>
</g>
<!-- Node1 -->
<g id="node2" class="node">
<title>Node1</title>
<g id="a_node2"><a xlink:href="../../dd/dcf/DataSamplingCondition_8h.html" target="_top" xlink:title="A standarised data sampling condition, to decide if given data sample should be passed forward...">
<polygon fill="none" stroke="#000000" points="193.5,-67.5 193.5,-86.5 391.5,-86.5 391.5,-67.5 193.5,-67.5"/>
<text text-anchor="middle" x="292.5" y="-74.5" font-family="Helvetica,sans-Serif" font-size="10.00" fill="#000000">Framework/DataSamplingCondition.h</text>
</a>
</g>
</g>
<!-- Node0&#45;&gt;Node1 -->
<g id="edge1" class="edge">
<title>Node0&#45;&gt;Node1</title>
<path fill="none" stroke="#191970" d="M707.3748,-207.4421C634.7568,-198.6701 532.5154,-182.4053 446.5,-154 398.3489,-138.0988 346.3893,-109.4598 316.8127,-91.9471"/>
<polygon fill="#191970" stroke="#191970" points="318.4062,-88.8216 308.0296,-86.6823 314.8072,-94.8256 318.4062,-88.8216"/>
</g>
<!-- Node5 -->
<g id="node6" class="node">
<title>Node5</title>
<g id="a_node6"><a xlink:href="../../de/dca/DataSamplingConditionFactory_8h.html" target="_top" xlink:title="A definition of DataSamplingConditionFactory. ">
<polygon fill="none" stroke="#000000" points="456,-123.5 456,-153.5 645,-153.5 645,-123.5 456,-123.5"/>
<text text-anchor="start" x="464" y="-141.5" font-family="Helvetica,sans-Serif" font-size="10.00" fill="#000000">Framework/DataSamplingCondition</text>
<text text-anchor="middle" x="550.5" y="-130.5" font-family="Helvetica,sans-Serif" font-size="10.00" fill="#000000">Factory.h</text>
</a>
</g>
</g>
<!-- Node0&#45;&gt;Node5 -->
<g id="edge5" class="edge">
<title>Node0&#45;&gt;Node5</title>
<path fill="none" stroke="#191970" d="M717.5717,-190.4187C681.796,-179.3012 640.9394,-166.6047 608.5842,-156.5501"/>
<polygon fill="#191970" stroke="#191970" points="609.4191,-153.1445 598.8309,-153.5192 607.3417,-159.8291 609.4191,-153.1445"/>
</g>
<!-- Node7 -->
<g id="node8" class="node">
<title>Node7</title>
<g id="a_node8"><a xlink:href="../../d6/dc9/DataProcessingHeader_8h.html" target="_top" xlink:title="Framework/DataProcessing\lHeader.h">
<polygon fill="none" stroke="#000000" points="727,-123.5 727,-153.5 876,-153.5 876,-123.5 727,-123.5"/>
<text text-anchor="start" x="735" y="-141.5" font-family="Helvetica,sans-Serif" font-size="10.00" fill="#000000">Framework/DataProcessing</text>
<text text-anchor="middle" x="801.5" y="-130.5" font-family="Helvetica,sans-Serif" font-size="10.00" fill="#000000">Header.h</text>
</a>
</g>
</g>
<!-- Node0&#45;&gt;Node7 -->
<g id="edge9" class="edge">
<title>Node0&#45;&gt;Node7</title>
<path fill="none" stroke="#191970" d="M801.5,-190.0928C801.5,-181.516 801.5,-172.0289 801.5,-163.5538"/>
<polygon fill="#191970" stroke="#191970" points="805.0001,-163.5045 801.5,-153.5046 798.0001,-163.5046 805.0001,-163.5045"/>
</g>
<!-- Node19 -->
<g id="node20" class="node">
<title>Node19</title>
<g id="a_node20"><a xlink:href="../../dd/da4/Logger_8h.html" target="_top" xlink:title="Framework/Logger.h">
<polygon fill="none" stroke="#000000" points="894,-129 894,-148 1009,-148 1009,-129 894,-129"/>
<text text-anchor="middle" x="951.5" y="-136" font-family="Helvetica,sans-Serif" font-size="10.00" fill="#000000">Framework/Logger.h</text>
</a>
</g>
</g>
<!-- Node0&#45;&gt;Node19 -->
<g id="edge26" class="edge">
<title>Node0&#45;&gt;Node19</title>
<path fill="none" stroke="#191970" d="M851.8651,-190.3101C875.9647,-177.7784 903.8818,-163.2615 924.0231,-152.788"/>
<polygon fill="#191970" stroke="#191970" points="925.7039,-155.859 932.9613,-148.1401 922.4744,-149.6484 925.7039,-155.859"/>
</g>
<!-- Node21 -->
<g id="node22" class="node">
<title>Node21</title>
<polygon fill="none" stroke="#bfbfbf" points="1027,-123.5 1027,-153.5 1140,-153.5 1140,-123.5 1027,-123.5"/>
<text text-anchor="start" x="1035" y="-141.5" font-family="Helvetica,sans-Serif" font-size="10.00" fill="#000000">boost/property_tree</text>
<text text-anchor="middle" x="1083.5" y="-130.5" font-family="Helvetica,sans-Serif" font-size="10.00" fill="#000000">/ptree.hpp</text>
</g>
<!-- Node0&#45;&gt;Node21 -->
<g id="edge28" class="edge">
<title>Node0&#45;&gt;Node21</title>
<path fill="none" stroke="#191970" d="M895.794,-190.4187C936.3346,-179.2053 982.6827,-166.3856 1019.1801,-156.2906"/>
<polygon fill="#191970" stroke="#191970" points="1020.4949,-159.5584 1029.2,-153.5192 1018.6288,-152.8118 1020.4949,-159.5584"/>
</g>
<!-- Node2 -->
<g id="node3" class="node">
<title>Node2</title>
<g id="a_node3"><a xlink:href="../../d5/dfb/DataRef_8h.html" target="_top" xlink:title="Framework/DataRef.h">
<polygon fill="none" stroke="#000000" points="0,-6 0,-25 121,-25 121,-6 0,-6"/>
<text text-anchor="middle" x="60.5" y="-13" font-family="Helvetica,sans-Serif" font-size="10.00" fill="#000000">Framework/DataRef.h</text>
</a>
</g>
</g>
<!-- Node1&#45;&gt;Node2 -->
<g id="edge2" class="edge">
<title>Node1&#45;&gt;Node2</title>
<path fill="none" stroke="#191970" d="M256.5046,-67.4581C216.1223,-56.7533 150.5189,-39.3628 106.4612,-27.6837"/>
<polygon fill="#191970" stroke="#191970" points="107.1429,-24.2436 96.5799,-25.0643 105.3492,-31.0099 107.1429,-24.2436"/>
</g>
<!-- Node3 -->
<g id="node4" class="node">
<title>Node3</title>
<polygon fill="none" stroke="#bfbfbf" points="139,-.5 139,-30.5 252,-30.5 252,-.5 139,-.5"/>
<text text-anchor="start" x="147" y="-18.5" font-family="Helvetica,sans-Serif" font-size="10.00" fill="#000000">boost/property_tree</text>
<text text-anchor="middle" x="195.5" y="-7.5" font-family="Helvetica,sans-Serif" font-size="10.00" fill="#000000">/ptree_fwd.hpp</text>
</g>
<!-- Node1&#45;&gt;Node3 -->
<g id="edge3" class="edge">
<title>Node1&#45;&gt;Node3</title>
<path fill="none" stroke="#191970" d="M277.3438,-67.3906C264.216,-59.0673 244.7711,-46.7389 228.1285,-36.1872"/>
<polygon fill="#191970" stroke="#191970" points="229.5486,-32.9433 219.2289,-30.5446 225.8003,-38.8553 229.5486,-32.9433"/>
</g>
<!-- Node4 -->
<g id="node5" class="node">
<title>Node4</title>
<polygon fill="none" stroke="#bfbfbf" points="270.5,-6 270.5,-25 314.5,-25 314.5,-6 270.5,-6"/>
<text text-anchor="middle" x="292.5" y="-13" font-family="Helvetica,sans-Serif" font-size="10.00" fill="#000000">string</text>
</g>
<!-- Node1&#45;&gt;Node4 -->
<g id="edge4" class="edge">
<title>Node1&#45;&gt;Node4</title>
<path fill="none" stroke="#191970" d="M292.5,-67.3906C292.5,-58.8657 292.5,-46.1392 292.5,-35.4235"/>
<polygon fill="#191970" stroke="#191970" points="296.0001,-35.2448 292.5,-25.2449 289.0001,-35.2449 296.0001,-35.2448"/>
</g>
<!-- Node5&#45;&gt;Node1 -->
<g id="edge6" class="edge">
<title>Node5&#45;&gt;Node1</title>
<path fill="none" stroke="#191970" d="M487.3861,-123.4554C442.7333,-112.8114 383.6834,-98.7356 342.3308,-88.8783"/>
<polygon fill="#191970" stroke="#191970" points="343.0199,-85.4445 332.4808,-86.5303 341.3967,-92.2538 343.0199,-85.4445"/>
</g>
<!-- Node5&#45;&gt;Node4 -->
<g id="edge8" class="edge">
<title>Node5&#45;&gt;Node4</title>
<path fill="none" stroke="#191970" d="M518.9281,-123.3667C488.5955,-108.8472 441.4579,-86.3359 400.5,-67 366.3378,-50.8723 357.5088,-47.4488 323.5,-31 322.525,-30.5284 321.5338,-30.0465 320.5335,-29.5581"/>
<polygon fill="#191970" stroke="#191970" points="321.9947,-26.3762 311.4784,-25.088 318.896,-32.653 321.9947,-26.3762"/>
</g>
<!-- Node6 -->
<g id="node7" class="node">
<title>Node6</title>
<polygon fill="none" stroke="#bfbfbf" points="934.5,-6 934.5,-25 992.5,-25 992.5,-6 934.5,-6"/>
<text text-anchor="middle" x="963.5" y="-13" font-family="Helvetica,sans-Serif" font-size="10.00" fill="#000000">memory</text>
</g>
<!-- Node5&#45;&gt;Node6 -->
<g id="edge7" class="edge">
<title>Node5&#45;&gt;Node6</title>
<path fill="none" stroke="#191970" d="M615.6673,-123.4456C650.6012,-114.5105 694.0424,-101.9976 731.5,-87 749.2178,-79.906 751.609,-73.6453 769.5,-67 836.2029,-42.2244 857.6724,-52.5064 925.5,-31 927.6521,-30.3176 929.8537,-29.5667 932.0595,-28.7746"/>
<polygon fill="#191970" stroke="#191970" points="933.5241,-31.9619 941.6169,-25.1238 931.0262,-25.4227 933.5241,-31.9619"/>
</g>
<!-- Node7&#45;&gt;Node6 -->
<g id="edge23" class="edge">
<title>Node7&#45;&gt;Node6</title>
<path fill="none" stroke="#191970" d="M838.6565,-123.4765C858.403,-114.5117 882.4599,-101.9612 901.5,-87 921.1549,-71.5556 939.3459,-49.2152 950.871,-33.6302"/>
<polygon fill="#191970" stroke="#191970" points="953.84,-35.4969 956.8473,-25.3378 948.1611,-31.4042 953.84,-35.4969"/>
</g>
<!-- Node8 -->
<g id="node9" class="node">
<title>Node8</title>
<g id="a_node9"><a xlink:href="../../dc/dcd/DataHeader_8h.html" target="_top" xlink:title="Headers/DataHeader.h">
<polygon fill="none" stroke="#000000" points="595,-67.5 595,-86.5 722,-86.5 722,-67.5 595,-67.5"/>
<text text-anchor="middle" x="658.5" y="-74.5" font-family="Helvetica,sans-Serif" font-size="10.00" fill="#000000">Headers/DataHeader.h</text>
</a>
</g>
</g>
<!-- Node7&#45;&gt;Node8 -->
<g id="edge10" class="edge">
<title>Node7&#45;&gt;Node8</title>
<path fill="none" stroke="#191970" d="M766.5183,-123.4554C743.1816,-113.419 712.7502,-100.3314 690.137,-90.6061"/>
<polygon fill="#191970" stroke="#191970" points="691.2292,-87.2659 680.6599,-86.5303 688.4636,-93.6965 691.2292,-87.2659"/>
</g>
<!-- Node9 -->
<g id="node10" class="node">
<title>Node9</title>
<polygon fill="none" stroke="#bfbfbf" points="1010.5,-6 1010.5,-25 1060.5,-25 1060.5,-6 1010.5,-6"/>
<text text-anchor="middle" x="1035.5" y="-13" font-family="Helvetica,sans-Serif" font-size="10.00" fill="#000000">cstdint</text>
</g>
<!-- Node7&#45;&gt;Node9 -->
<g id="edge21" class="edge">
<title>Node7&#45;&gt;Node9</title>
<path fill="none" stroke="#191970" d="M843.132,-123.4027C867.6189,-113.9869 898.8973,-101.0195 925.5,-87 957.7323,-70.0137 992.6319,-46.339 1014.2808,-30.9665"/>
<polygon fill="#191970" stroke="#191970" points="1016.3432,-33.7944 1022.4328,-25.1245 1012.2657,-28.1046 1016.3432,-33.7944"/>
</g>
<!-- Node10 -->
<g id="node11" class="node">
<title>Node10</title>
<polygon fill="none" stroke="#bfbfbf" points="332.5,-6 332.5,-25 384.5,-25 384.5,-6 332.5,-6"/>
<text text-anchor="middle" x="358.5" y="-13" font-family="Helvetica,sans-Serif" font-size="10.00" fill="#000000">cassert</text>
</g>
<!-- Node7&#45;&gt;Node10 -->
<g id="edge24" class="edge">
<title>Node7&#45;&gt;Node10</title>
<path fill="none" stroke="#191970" d="M728.0226,-123.4571C645.356,-105.5453 507.7098,-72.7346 393.5,-31 391.8693,-30.4041 390.2069,-29.7684 388.5363,-29.1073"/>
<polygon fill="#191970" stroke="#191970" points="389.618,-25.7661 379.0416,-25.1418 386.9203,-32.2254 389.618,-25.7661"/>
</g>
<!-- Node17 -->
<g id="node18" class="node">
<title>Node17</title>
<polygon fill="none" stroke="#bfbfbf" points="778.5,-67.5 778.5,-86.5 824.5,-86.5 824.5,-67.5 778.5,-67.5"/>
<text text-anchor="middle" x="801.5" y="-74.5" font-family="Helvetica,sans-Serif" font-size="10.00" fill="#000000">cstdio</text>
</g>
<!-- Node7&#45;&gt;Node17 -->
<g id="edge22" class="edge">
<title>Node7&#45;&gt;Node17</title>
<path fill="none" stroke="#191970" d="M801.5,-123.2977C801.5,-115.3834 801.5,-105.6043 801.5,-97.0759"/>
<polygon fill="#191970" stroke="#191970" points="805.0001,-96.8469 801.5,-86.8469 798.0001,-96.847 805.0001,-96.8469"/>
</g>
<!-- Node18 -->
<g id="node19" class="node">
<title>Node18</title>
<polygon fill="none" stroke="#bfbfbf" points="842.5,-67.5 842.5,-86.5 892.5,-86.5 892.5,-67.5 842.5,-67.5"/>
<text text-anchor="middle" x="867.5" y="-74.5" font-family="Helvetica,sans-Serif" font-size="10.00" fill="#000000">chrono</text>
</g>
<!-- Node7&#45;&gt;Node18 -->
<g id="edge25" class="edge">
<title>Node7&#45;&gt;Node18</title>
<path fill="none" stroke="#191970" d="M817.8146,-123.2977C827.4533,-114.3163 839.6691,-102.9334 849.5759,-93.702"/>
<polygon fill="#191970" stroke="#191970" points="852.0025,-96.2249 856.9326,-86.8469 847.2304,-91.1036 852.0025,-96.2249"/>
</g>
<!-- Node8&#45;&gt;Node4 -->
<g id="edge17" class="edge">
<title>Node8&#45;&gt;Node4</title>
<path fill="none" stroke="#191970" d="M594.8105,-74.4348C526.411,-70.2652 415.1949,-59.37 323.5,-31 321.8402,-30.4865 320.1604,-29.8916 318.4862,-29.2402"/>
<polygon fill="#191970" stroke="#191970" points="319.6963,-25.9475 309.1382,-25.0655 316.8419,-32.3391 319.6963,-25.9475"/>
</g>
<!-- Node8&#45;&gt;Node6 -->
<g id="edge12" class="edge">
<title>Node8&#45;&gt;Node6</title>
<path fill="none" stroke="#191970" d="M722.1911,-67.6539C788.6671,-57.6087 888.3075,-41.6527 925.5,-31 927.9573,-30.2962 930.4721,-29.4852 932.9801,-28.611"/>
<polygon fill="#191970" stroke="#191970" points="934.3668,-31.8286 942.4829,-25.0183 931.8913,-25.2809 934.3668,-31.8286"/>
</g>
<!-- Node8&#45;&gt;Node9 -->
<g id="edge11" class="edge">
<title>Node8&#45;&gt;Node9</title>
<path fill="none" stroke="#191970" d="M722.0924,-70.7307C806.4047,-62.0296 950.4783,-45.7005 1001.5,-31 1003.4636,-30.4342 1005.4587,-29.773 1007.4479,-29.0484"/>
<polygon fill="#191970" stroke="#191970" points="1009.2563,-32.089 1017.1708,-25.0456 1006.5914,-25.6161 1009.2563,-32.089"/>
</g>
<!-- Node8&#45;&gt;Node10 -->
<g id="edge13" class="edge">
<title>Node8&#45;&gt;Node10</title>
<path fill="none" stroke="#191970" d="M594.8421,-70.3911C540.519,-63.7047 460.7527,-51.3907 393.5,-31 391.3814,-30.3577 389.2216,-29.62 387.067,-28.8228"/>
<polygon fill="#191970" stroke="#191970" points="388.3819,-25.5792 377.7999,-25.0565 385.7463,-32.0641 388.3819,-25.5792"/>
</g>
<!-- Node11 -->
<g id="node12" class="node">
<title>Node11</title>
<polygon fill="none" stroke="#bfbfbf" points="700.5,-6 700.5,-25 750.5,-25 750.5,-6 700.5,-6"/>
<text text-anchor="middle" x="725.5" y="-13" font-family="Helvetica,sans-Serif" font-size="10.00" fill="#000000">cstring</text>
</g>
<!-- Node8&#45;&gt;Node11 -->
<g id="edge14" class="edge">
<title>Node8&#45;&gt;Node11</title>
<path fill="none" stroke="#191970" d="M668.9688,-67.3906C679.2337,-57.9683 695.0903,-43.4134 707.4006,-32.1137"/>
<polygon fill="#191970" stroke="#191970" points="709.8834,-34.5856 714.8837,-25.2449 705.1499,-29.4287 709.8834,-34.5856"/>
</g>
<!-- Node12 -->
<g id="node13" class="node">
<title>Node12</title>
<polygon fill="none" stroke="#bfbfbf" points="768.5,-6 768.5,-25 832.5,-25 832.5,-6 768.5,-6"/>
<text text-anchor="middle" x="800.5" y="-13" font-family="Helvetica,sans-Serif" font-size="10.00" fill="#000000">algorithm</text>
</g>
<!-- Node8&#45;&gt;Node12 -->
<g id="edge15" class="edge">
<title>Node8&#45;&gt;Node12</title>
<path fill="none" stroke="#191970" d="M680.6875,-67.3906C704.4467,-57.1005 742.3405,-40.6888 769.1425,-29.0809"/>
<polygon fill="#191970" stroke="#191970" points="770.683,-32.2279 778.4683,-25.0419 767.9009,-25.8045 770.683,-32.2279"/>
</g>
<!-- Node13 -->
<g id="node14" class="node">
<title>Node13</title>
<polygon fill="none" stroke="#bfbfbf" points="851,-6 851,-25 916,-25 916,-6 851,-6"/>
<text text-anchor="middle" x="883.5" y="-13" font-family="Helvetica,sans-Serif" font-size="10.00" fill="#000000">stdexcept</text>
</g>
<!-- Node8&#45;&gt;Node13 -->
<g id="edge16" class="edge">
<title>Node8&#45;&gt;Node13</title>
<path fill="none" stroke="#191970" d="M702.124,-67.4231C739.4301,-58.9033 794.398,-45.5653 841.5,-31 844.0571,-30.2093 846.6863,-29.3508 849.3219,-28.4571"/>
<polygon fill="#191970" stroke="#191970" points="850.5092,-31.7497 858.7771,-25.1246 848.1823,-25.1478 850.5092,-31.7497"/>
</g>
<!-- Node14 -->
<g id="node15" class="node">
<title>Node14</title>
<polygon fill="none" stroke="#bfbfbf" points="402.5,-6 402.5,-25 452.5,-25 452.5,-6 402.5,-6"/>
<text text-anchor="middle" x="427.5" y="-13" font-family="Helvetica,sans-Serif" font-size="10.00" fill="#000000">climits</text>
</g>
<!-- Node8&#45;&gt;Node14 -->
<g id="edge18" class="edge">
<title>Node8&#45;&gt;Node14</title>
<path fill="none" stroke="#191970" d="M605.0214,-67.4974C564.9356,-59.6604 509.037,-47.2063 461.5,-31 459.6579,-30.372 457.7807,-29.6783 455.9018,-28.943"/>
<polygon fill="#191970" stroke="#191970" points="457.2225,-25.7015 446.649,-25.0304 454.4962,-32.1488 457.2225,-25.7015"/>
</g>
<!-- Node15 -->
<g id="node16" class="node">
<title>Node15</title>
<g id="a_node16"><a xlink:href="../../d7/df8/Types_8h.html" target="_top" xlink:title="MemoryResources/Types.h">
<polygon fill="none" stroke="#000000" points="470.5,-6 470.5,-25 616.5,-25 616.5,-6 470.5,-6"/>
<text text-anchor="middle" x="543.5" y="-13" font-family="Helvetica,sans-Serif" font-size="10.00" fill="#000000">MemoryResources/Types.h</text>
</a>
</g>
</g>
<!-- Node8&#45;&gt;Node15 -->
<g id="edge19" class="edge">
<title>Node8&#45;&gt;Node15</title>
<path fill="none" stroke="#191970" d="M640.5313,-67.3906C621.7116,-57.3262 591.9415,-41.4057 570.3359,-29.8514"/>
<polygon fill="#191970" stroke="#191970" points="571.8114,-26.6714 561.3426,-25.0419 568.5102,-32.8442 571.8114,-26.6714"/>
</g>
<!-- Node16 -->
<g id="node17" class="node">
<title>Node16</title>
<polygon fill="none" stroke="#bfbfbf" points="635,-6 635,-25 682,-25 682,-6 635,-6"/>
<text text-anchor="middle" x="658.5" y="-13" font-family="Helvetica,sans-Serif" font-size="10.00" fill="#000000">cerrno</text>
</g>
<!-- Node8&#45;&gt;Node16 -->
<g id="edge20" class="edge">
<title>Node8&#45;&gt;Node16</title>
<path fill="none" stroke="#191970" d="M658.5,-67.3906C658.5,-58.8657 658.5,-46.1392 658.5,-35.4235"/>
<polygon fill="#191970" stroke="#191970" points="662.0001,-35.2448 658.5,-25.2449 655.0001,-35.2449 662.0001,-35.2448"/>
</g>
<!-- Node20 -->
<g id="node21" class="node">
<title>Node20</title>
<polygon fill="none" stroke="#bfbfbf" points="986.5,-67.5 986.5,-86.5 1094.5,-86.5 1094.5,-67.5 986.5,-67.5"/>
<text text-anchor="middle" x="1040.5" y="-74.5" font-family="Helvetica,sans-Serif" font-size="10.00" fill="#000000">fairlogger/Logger.h</text>
</g>
<!-- Node19&#45;&gt;Node20 -->
<g id="edge27" class="edge">
<title>Node19&#45;&gt;Node20</title>
<path fill="none" stroke="#191970" d="M965.4063,-128.8906C979.5138,-119.1421 1001.5724,-103.8994 1018.1385,-92.4521"/>
<polygon fill="#191970" stroke="#191970" points="1020.4542,-95.1063 1026.6914,-86.5419 1016.4747,-89.3474 1020.4542,-95.1063"/>
</g>
</g>
</svg>
        <g id="navigator" transform="translate(0 0)" fill="#404254">
                <rect fill="#f2f5e9" fill-opacity="0.5" stroke="#606060" stroke-width=".5" x="0" y="0" width="60" height="60"/>
                <use id="zoomplus" xlink:href="#zoomPlus" x="17" y="9" onmousedown="handleZoom(evt,'in')"/>
                <use id="zoomminus" xlink:href="#zoomMin" x="42" y="9" onmousedown="handleZoom(evt,'out')"/>
                <use id="reset" xlink:href="#resetDef" x="30" y="36" onmousedown="handleReset()"/>
                <g id="arrowUp" xlink:href="#dirArrow" transform="translate(30 24)" onmousedown="handlePan(0,-1)">
                  <use xlink:href="#rim" fill="#404040">
                        <set attributeName="fill" to="#808080" begin="arrowUp.mouseover" end="arrowUp.mouseout"/>
                  </use>
                  <path fill="none" stroke="white" stroke-width="1.5" d="M0,-3.0v7 M-2.5,-0.5L0,-3.0L2.5,-0.5"/>
                </g>
                <g id="arrowRight" xlink:href="#dirArrow" transform="rotate(90) translate(36 -43)" onmousedown="handlePan(1,0)">
                  <use xlink:href="#rim" fill="#404040">
                        <set attributeName="fill" to="#808080" begin="arrowRight.mouseover" end="arrowRight.mouseout"/>
                  </use>
                  <path fill="none" stroke="white" stroke-width="1.5" d="M0,-3.0v7 M-2.5,-0.5L0,-3.0L2.5,-0.5"/>
                </g>
                <g id="arrowDown" xlink:href="#dirArrow" transform="rotate(180) translate(-30 -48)" onmousedown="handlePan(0,1)">
                  <use xlink:href="#rim" fill="#404040">
                        <set attributeName="fill" to="#808080" begin="arrowDown.mouseover" end="arrowDown.mouseout"/>
                  </use>
                  <path fill="none" stroke="white" stroke-width="1.5" d="M0,-3.0v7 M-2.5,-0.5L0,-3.0L2.5,-0.5"/>
                </g>
                <g id="arrowLeft" xlink:href="#dirArrow" transform="rotate(270) translate(-36 17)" onmousedown="handlePan(-1,0)">
                  <use xlink:href="#rim" fill="#404040">
                        <set attributeName="fill" to="#808080" begin="arrowLeft.mouseover" end="arrowLeft.mouseout"/>
                  </use>
                  <path fill="none" stroke="white" stroke-width="1.5" d="M0,-3.0v7 M-2.5,-0.5L0,-3.0L2.5,-0.5"/>
                </g>
        </g>
        <svg viewBox="0 0 15 15" width="100%" height="30px" preserveAspectRatio="xMaxYMin meet">
         <g id="arrow_out" transform="scale(0.3 0.3)">
          <a xlink:href="DataSamplingConditionNConsecutive_8cxx__incl_org.svg" target="_base">
           <rect id="button" ry="5" rx="5" y="6" x="6" height="38" width="38"
                fill="#f2f5e9" fill-opacity="0.5" stroke="#606060" stroke-width="1.0"/>
           <path id="arrow"
             d="M 11.500037,31.436501 C 11.940474,20.09759 22.043105,11.32322 32.158766,21.979434 L 37.068811,17.246167 C 37.068811,17.246167 37.088388,32 37.088388,32 L 22.160133,31.978069 C 22.160133,31.978069 26.997745,27.140456 26.997745,27.140456 C 18.528582,18.264221 13.291696,25.230495 11.500037,31.436501 z"
             style="fill:#404040;"/>
          </a>
         </g>
        </svg>
</svg>
