<?xml version="1.0" encoding="UTF-8" standalone="no"?>
<!DOCTYPE svg PUBLIC "-//W3C//DTD SVG 1.1//EN"
 "http://www.w3.org/Graphics/SVG/1.1/DTD/svg11.dtd">
<!-- Generated by graphviz version 2.40.1 (20161225.0304)
 -->
<!-- Title: o2::tpc::TPCSectorHeader Pages: 1 -->
<!--zoomable 1058 -->
<svg id="main" version="1.1" xmlns="http://www.w3.org/2000/svg" xmlns:xlink="http://www.w3.org/1999/xlink" xml:space="preserve" onload="init(evt)">
<style type="text/css"><![CDATA[
.edge:hover path { stroke: red; }
.edge:hover polygon { stroke: red; fill: red; }
]]></style>
<script type="text/javascript"><![CDATA[
var edges = document.getElementsByTagName('g');
if (edges && edges.length) {
  for (var i=0;i<edges.length;i++) {
    if (edges[i].id.substr(0,4)=='edge') {
      edges[i].setAttribute('class','edge');
    }
  }
}
]]></script>
        <defs>
                <circle id="rim" cx="0" cy="0" r="7"/>
                <circle id="rim2" cx="0" cy="0" r="3.5"/>
                <g id="zoomPlus">
                        <use xlink:href="#rim" fill="#404040">
                                <set attributeName="fill" to="#808080" begin="zoomplus.mouseover" end="zoomplus.mouseout"/>
                        </use>
                        <path d="M-4,0h8M0,-4v8" fill="none" stroke="white" stroke-width="1.5" pointer-events="none"/>
                </g>
                <g id="zoomMin">
                        <use xlink:href="#rim" fill="#404040">
                                <set attributeName="fill" to="#808080" begin="zoomminus.mouseover" end="zoomminus.mouseout"/>
                        </use>
                        <path d="M-4,0h8" fill="none" stroke="white" stroke-width="1.5" pointer-events="none"/>
                </g>
                <g id="dirArrow">
                        <path fill="none" stroke="white" stroke-width="1.5" d="M0,-3.0v7 M-2.5,-0.5L0,-3.0L2.5,-0.5"/>
                </g>
               <g id="resetDef">
                       <use xlink:href="#rim2" fill="#404040">
                               <set attributeName="fill" to="#808080" begin="reset.mouseover" end="reset.mouseout"/>
                       </use>
               </g>
        </defs>

<script type="text/javascript">
var viewWidth = 915;
var viewHeight = 1058;
var sectionId = 'dynsection-1';
</script>
<script xlink:href="../../svgpan.js"/>
<svg id="graph" class="graph">
<g id="viewport">
<title>o2::tpc::TPCSectorHeader</title>
<!-- Node2 -->
<g id="node1" class="node">
<title>Node2</title>
<polygon fill="#bfbfbf" stroke="#000000" points="618.8757,-.5 618.8757,-68.5 758.8757,-68.5 758.8757,-.5 618.8757,-.5"/>
<text text-anchor="middle" x="688.8757" y="-56.5" font-family="Helvetica,sans-Serif" font-size="10.00" fill="#000000">o2::tpc::TPCSectorHeader</text>
<polyline fill="none" stroke="#000000" points="618.8757,-49.5 758.8757,-49.5 "/>
<text text-anchor="middle" x="688.8757" y="-37.5" font-family="Helvetica,sans-Serif" font-size="10.00" fill="#000000"> </text>
<polyline fill="none" stroke="#000000" points="618.8757,-30.5 758.8757,-30.5 "/>
<text text-anchor="start" x="626.8757" y="-18.5" font-family="Helvetica,sans-Serif" font-size="10.00" fill="#000000">+ TPCSectorHeader()</text>
<text text-anchor="start" x="626.8757" y="-7.5" font-family="Helvetica,sans-Serif" font-size="10.00" fill="#000000">+ sector()</text>
</g>
<!-- Node3 -->
<g id="node2" class="node">
<title>Node3</title>
<g id="a_node2"><a xlink:href="../../d8/dbd/structo2_1_1header_1_1BaseHeader.html" target="_top" xlink:title="the base header struct Every header type must begin (i.e. derive) with this. Don&#39;t use this struct di...">
<polygon fill="none" stroke="#000000" points="408.3757,-160.5 408.3757,-327.5 581.3757,-327.5 581.3757,-160.5 408.3757,-160.5"/>
<text text-anchor="middle" x="494.8757" y="-315.5" font-family="Helvetica,sans-Serif" font-size="10.00" fill="#000000">o2::header::BaseHeader</text>
<polyline fill="none" stroke="#000000" points="408.3757,-308.5 581.3757,-308.5 "/>
<text text-anchor="middle" x="494.8757" y="-296.5" font-family="Helvetica,sans-Serif" font-size="10.00" fill="#000000"> </text>
<polyline fill="none" stroke="#000000" points="408.3757,-289.5 581.3757,-289.5 "/>
<text text-anchor="start" x="416.3757" y="-277.5" font-family="Helvetica,sans-Serif" font-size="10.00" fill="#000000">+ BaseHeader()</text>
<text text-anchor="start" x="416.3757" y="-266.5" font-family="Helvetica,sans-Serif" font-size="10.00" fill="#000000">+ BaseHeader()</text>
<text text-anchor="start" x="416.3757" y="-255.5" font-family="Helvetica,sans-Serif" font-size="10.00" fill="#000000">+ BaseHeader()</text>
<text text-anchor="start" x="416.3757" y="-244.5" font-family="Helvetica,sans-Serif" font-size="10.00" fill="#000000">+ size()</text>
<text text-anchor="start" x="416.3757" y="-233.5" font-family="Helvetica,sans-Serif" font-size="10.00" fill="#000000">+ data()</text>
<text text-anchor="start" x="416.3757" y="-222.5" font-family="Helvetica,sans-Serif" font-size="10.00" fill="#000000">+ next()</text>
<text text-anchor="start" x="416.3757" y="-211.5" font-family="Helvetica,sans-Serif" font-size="10.00" fill="#000000">+ next()</text>
<text text-anchor="start" x="416.3757" y="-200.5" font-family="Helvetica,sans-Serif" font-size="10.00" fill="#000000">+ sanityCheck()</text>
<text text-anchor="start" x="416.3757" y="-189.5" font-family="Helvetica,sans-Serif" font-size="10.00" fill="#000000">+ throwInconsistentStackError()</text>
<text text-anchor="start" x="416.3757" y="-178.5" font-family="Helvetica,sans-Serif" font-size="10.00" fill="#000000">+ get()</text>
<text text-anchor="start" x="416.3757" y="-167.5" font-family="Helvetica,sans-Serif" font-size="10.00" fill="#000000">+ get()</text>
</a>
</g>
</g>
<!-- Node3&#45;&gt;Node2 -->
<g id="edge1" class="edge">
<title>Node3&#45;&gt;Node2</title>
<path fill="none" stroke="#191970" d="M555.4327,-152.0561C572.3414,-129.5482 591.6619,-106.3819 611.8757,-87 618.5325,-80.6172 626.0422,-74.474 633.6951,-68.7802"/>
<polygon fill="none" stroke="#191970" points="552.4575,-150.1924 549.3151,-160.3105 558.0814,-154.3604 552.4575,-150.1924"/>
</g>
<!-- Node4 -->
<g id="node3" class="node">
<title>Node4</title>
<g id="a_node3"><a xlink:href="../../d9/db3/structo2_1_1header_1_1Descriptor.html" target="_top" xlink:title="{o2::header::Descriptor\l\&lt; gSizeHeaderDescriptionString \&gt;\n||+ Descriptor()\l+ Descriptor()\l+ Descriptor()\l+ Descriptor()\l+ operator=()\l+ operator ItgType()\l+ runtimeInit()\l+ operator==()\l+ operator==()\l+ operator\&lt;()\l+ operator!=()\l+ operator!=()\l+ as()\l+ print()\l}">
<polygon fill="none" stroke="#000000" points="278.3757,-441.5 278.3757,-652.5 463.3757,-652.5 463.3757,-441.5 278.3757,-441.5"/>
<text text-anchor="start" x="286.3757" y="-640.5" font-family="Helvetica,sans-Serif" font-size="10.00" fill="#000000">o2::header::Descriptor</text>
<text text-anchor="middle" x="370.8757" y="-629.5" font-family="Helvetica,sans-Serif" font-size="10.00" fill="#000000">&lt; gSizeHeaderDescriptionString &gt;</text>
<polyline fill="none" stroke="#000000" points="278.3757,-622.5 463.3757,-622.5 "/>
<text text-anchor="middle" x="370.8757" y="-610.5" font-family="Helvetica,sans-Serif" font-size="10.00" fill="#000000"> </text>
<polyline fill="none" stroke="#000000" points="278.3757,-603.5 463.3757,-603.5 "/>
<text text-anchor="start" x="286.3757" y="-591.5" font-family="Helvetica,sans-Serif" font-size="10.00" fill="#000000">+ Descriptor()</text>
<text text-anchor="start" x="286.3757" y="-580.5" font-family="Helvetica,sans-Serif" font-size="10.00" fill="#000000">+ Descriptor()</text>
<text text-anchor="start" x="286.3757" y="-569.5" font-family="Helvetica,sans-Serif" font-size="10.00" fill="#000000">+ Descriptor()</text>
<text text-anchor="start" x="286.3757" y="-558.5" font-family="Helvetica,sans-Serif" font-size="10.00" fill="#000000">+ Descriptor()</text>
<text text-anchor="start" x="286.3757" y="-547.5" font-family="Helvetica,sans-Serif" font-size="10.00" fill="#000000">+ operator=()</text>
<text text-anchor="start" x="286.3757" y="-536.5" font-family="Helvetica,sans-Serif" font-size="10.00" fill="#000000">+ operator ItgType()</text>
<text text-anchor="start" x="286.3757" y="-525.5" font-family="Helvetica,sans-Serif" font-size="10.00" fill="#000000">+ runtimeInit()</text>
<text text-anchor="start" x="286.3757" y="-514.5" font-family="Helvetica,sans-Serif" font-size="10.00" fill="#000000">+ operator==()</text>
<text text-anchor="start" x="286.3757" y="-503.5" font-family="Helvetica,sans-Serif" font-size="10.00" fill="#000000">+ operator==()</text>
<text text-anchor="start" x="286.3757" y="-492.5" font-family="Helvetica,sans-Serif" font-size="10.00" fill="#000000">+ operator&lt;()</text>
<text text-anchor="start" x="286.3757" y="-481.5" font-family="Helvetica,sans-Serif" font-size="10.00" fill="#000000">+ operator!=()</text>
<text text-anchor="start" x="286.3757" y="-470.5" font-family="Helvetica,sans-Serif" font-size="10.00" fill="#000000">+ operator!=()</text>
<text text-anchor="start" x="286.3757" y="-459.5" font-family="Helvetica,sans-Serif" font-size="10.00" fill="#000000">+ as()</text>
<text text-anchor="start" x="286.3757" y="-448.5" font-family="Helvetica,sans-Serif" font-size="10.00" fill="#000000">+ print()</text>
</a>
</g>
</g>
<!-- Node4&#45;&gt;Node3 -->
<g id="edge2" class="edge">
<title>Node4&#45;&gt;Node3</title>
<path fill="none" stroke="#404040" d="M391.3745,-441.2891C399.4176,-409.8255 410.0974,-375.8104 423.8757,-346 425.0787,-343.3973 426.3481,-340.79 427.6737,-338.1855"/>
<polygon fill="none" stroke="#404040" points="427.7297,-338.0814 427.0496,-330.9024 433.4148,-327.5135 434.0949,-334.6925 427.7297,-338.0814"/>
<text text-anchor="middle" x="456.8757" y="-382" font-family="Helvetica,sans-Serif" font-size="10.00" fill="#000000"> +description</text>
</g>
<!-- Node5 -->
<g id="node4" class="node">
<title>Node5</title>
<polygon fill="none" stroke="#bfbfbf" points="555.3757,-992.5 555.3757,-1049.5 594.3757,-1049.5 594.3757,-992.5 555.3757,-992.5"/>
<text text-anchor="middle" x="574.8757" y="-1037.5" font-family="Helvetica,sans-Serif" font-size="10.00" fill="#000000">Type</text>
<polyline fill="none" stroke="#bfbfbf" points="555.3757,-1030.5 594.3757,-1030.5 "/>
<text text-anchor="middle" x="574.8757" y="-1018.5" font-family="Helvetica,sans-Serif" font-size="10.00" fill="#000000"> </text>
<polyline fill="none" stroke="#bfbfbf" points="555.3757,-1011.5 594.3757,-1011.5 "/>
<text text-anchor="middle" x="574.8757" y="-999.5" font-family="Helvetica,sans-Serif" font-size="10.00" fill="#000000"> </text>
</g>
<!-- Node5&#45;&gt;Node4 -->
<g id="edge3" class="edge">
<title>Node5&#45;&gt;Node4</title>
<path fill="none" stroke="#404040" d="M594.8374,-1011.7825C623.2273,-997.4221 674.1225,-966.7429 694.8757,-923 735.2632,-837.8726 750.687,-786.914 694.8757,-711 659.5713,-662.9792 624.6968,-685.4608 566.8757,-671 528.6061,-661.4289 512.3508,-671.572 474.3435,-653.654"/>
<polygon fill="none" stroke="#404040" points="474.2792,-653.621 467.1149,-654.4416 463.6019,-648.144 470.7662,-647.3235 474.2792,-653.621"/>
<text text-anchor="middle" x="743.3757" y="-814.5" font-family="Helvetica,sans-Serif" font-size="10.00" fill="#000000"> +itg</text>
</g>
<!-- Node9 -->
<g id="node8" class="node">
<title>Node9</title>
<g id="a_node8"><a xlink:href="../../d9/db3/structo2_1_1header_1_1Descriptor.html" target="_top" xlink:title="{o2::header::Descriptor\l\&lt; N, PrinterPolicy \&gt;\n||+ Descriptor()\l+ Descriptor()\l+ Descriptor()\l+ operator=()\l+ operator ItgType()\l+ Descriptor()\l+ runtimeInit()\l+ operator==()\l+ operator\&lt;()\l+ operator!=()\l+ operator==()\l+ operator!=()\l+ as()\l+ print()\l}">
<polygon fill="none" stroke="#000000" points="315.3757,-711.5 315.3757,-922.5 440.3757,-922.5 440.3757,-711.5 315.3757,-711.5"/>
<text text-anchor="start" x="323.3757" y="-910.5" font-family="Helvetica,sans-Serif" font-size="10.00" fill="#000000">o2::header::Descriptor</text>
<text text-anchor="middle" x="377.8757" y="-899.5" font-family="Helvetica,sans-Serif" font-size="10.00" fill="#000000">&lt; N, PrinterPolicy &gt;</text>
<polyline fill="none" stroke="#000000" points="315.3757,-892.5 440.3757,-892.5 "/>
<text text-anchor="middle" x="377.8757" y="-880.5" font-family="Helvetica,sans-Serif" font-size="10.00" fill="#000000"> </text>
<polyline fill="none" stroke="#000000" points="315.3757,-873.5 440.3757,-873.5 "/>
<text text-anchor="start" x="323.3757" y="-861.5" font-family="Helvetica,sans-Serif" font-size="10.00" fill="#000000">+ Descriptor()</text>
<text text-anchor="start" x="323.3757" y="-850.5" font-family="Helvetica,sans-Serif" font-size="10.00" fill="#000000">+ Descriptor()</text>
<text text-anchor="start" x="323.3757" y="-839.5" font-family="Helvetica,sans-Serif" font-size="10.00" fill="#000000">+ Descriptor()</text>
<text text-anchor="start" x="323.3757" y="-828.5" font-family="Helvetica,sans-Serif" font-size="10.00" fill="#000000">+ operator=()</text>
<text text-anchor="start" x="323.3757" y="-817.5" font-family="Helvetica,sans-Serif" font-size="10.00" fill="#000000">+ operator ItgType()</text>
<text text-anchor="start" x="323.3757" y="-806.5" font-family="Helvetica,sans-Serif" font-size="10.00" fill="#000000">+ Descriptor()</text>
<text text-anchor="start" x="323.3757" y="-795.5" font-family="Helvetica,sans-Serif" font-size="10.00" fill="#000000">+ runtimeInit()</text>
<text text-anchor="start" x="323.3757" y="-784.5" font-family="Helvetica,sans-Serif" font-size="10.00" fill="#000000">+ operator==()</text>
<text text-anchor="start" x="323.3757" y="-773.5" font-family="Helvetica,sans-Serif" font-size="10.00" fill="#000000">+ operator&lt;()</text>
<text text-anchor="start" x="323.3757" y="-762.5" font-family="Helvetica,sans-Serif" font-size="10.00" fill="#000000">+ operator!=()</text>
<text text-anchor="start" x="323.3757" y="-751.5" font-family="Helvetica,sans-Serif" font-size="10.00" fill="#000000">+ operator==()</text>
<text text-anchor="start" x="323.3757" y="-740.5" font-family="Helvetica,sans-Serif" font-size="10.00" fill="#000000">+ operator!=()</text>
<text text-anchor="start" x="323.3757" y="-729.5" font-family="Helvetica,sans-Serif" font-size="10.00" fill="#000000">+ as()</text>
<text text-anchor="start" x="323.3757" y="-718.5" font-family="Helvetica,sans-Serif" font-size="10.00" fill="#000000">+ print()</text>
</a>
</g>
</g>
<!-- Node5&#45;&gt;Node9 -->
<g id="edge8" class="edge">
<title>Node5&#45;&gt;Node9</title>
<path fill="none" stroke="#404040" d="M555.2915,-1007.4411C530.4015,-989.686 486.8358,-956.8218 454.8757,-923 452.7569,-920.7578 450.6466,-918.4557 448.5496,-916.1063"/>
<polygon fill="none" stroke="#404040" points="448.3852,-915.916 441.4355,-913.9918 440.5388,-906.8366 447.4885,-908.7608 448.3852,-915.916"/>
<text text-anchor="middle" x="521.3757" y="-955" font-family="Helvetica,sans-Serif" font-size="10.00" fill="#000000"> +itg</text>
</g>
<!-- Node10 -->
<g id="node9" class="node">
<title>Node10</title>
<g id="a_node9"><a xlink:href="../../d9/db3/structo2_1_1header_1_1Descriptor.html" target="_top" xlink:title="{o2::header::Descriptor\l\&lt; gSizeSerializationMethodString \&gt;\n||+ Descriptor()\l+ Descriptor()\l+ Descriptor()\l+ Descriptor()\l+ operator=()\l+ operator ItgType()\l+ runtimeInit()\l+ operator==()\l+ operator==()\l+ operator\&lt;()\l+ operator!=()\l+ operator!=()\l+ as()\l+ print()\l}">
<polygon fill="none" stroke="#000000" points="69.3757,-441.5 69.3757,-652.5 260.3757,-652.5 260.3757,-441.5 69.3757,-441.5"/>
<text text-anchor="start" x="77.3757" y="-640.5" font-family="Helvetica,sans-Serif" font-size="10.00" fill="#000000">o2::header::Descriptor</text>
<text text-anchor="middle" x="164.8757" y="-629.5" font-family="Helvetica,sans-Serif" font-size="10.00" fill="#000000">&lt; gSizeSerializationMethodString &gt;</text>
<polyline fill="none" stroke="#000000" points="69.3757,-622.5 260.3757,-622.5 "/>
<text text-anchor="middle" x="164.8757" y="-610.5" font-family="Helvetica,sans-Serif" font-size="10.00" fill="#000000"> </text>
<polyline fill="none" stroke="#000000" points="69.3757,-603.5 260.3757,-603.5 "/>
<text text-anchor="start" x="77.3757" y="-591.5" font-family="Helvetica,sans-Serif" font-size="10.00" fill="#000000">+ Descriptor()</text>
<text text-anchor="start" x="77.3757" y="-580.5" font-family="Helvetica,sans-Serif" font-size="10.00" fill="#000000">+ Descriptor()</text>
<text text-anchor="start" x="77.3757" y="-569.5" font-family="Helvetica,sans-Serif" font-size="10.00" fill="#000000">+ Descriptor()</text>
<text text-anchor="start" x="77.3757" y="-558.5" font-family="Helvetica,sans-Serif" font-size="10.00" fill="#000000">+ Descriptor()</text>
<text text-anchor="start" x="77.3757" y="-547.5" font-family="Helvetica,sans-Serif" font-size="10.00" fill="#000000">+ operator=()</text>
<text text-anchor="start" x="77.3757" y="-536.5" font-family="Helvetica,sans-Serif" font-size="10.00" fill="#000000">+ operator ItgType()</text>
<text text-anchor="start" x="77.3757" y="-525.5" font-family="Helvetica,sans-Serif" font-size="10.00" fill="#000000">+ runtimeInit()</text>
<text text-anchor="start" x="77.3757" y="-514.5" font-family="Helvetica,sans-Serif" font-size="10.00" fill="#000000">+ operator==()</text>
<text text-anchor="start" x="77.3757" y="-503.5" font-family="Helvetica,sans-Serif" font-size="10.00" fill="#000000">+ operator==()</text>
<text text-anchor="start" x="77.3757" y="-492.5" font-family="Helvetica,sans-Serif" font-size="10.00" fill="#000000">+ operator&lt;()</text>
<text text-anchor="start" x="77.3757" y="-481.5" font-family="Helvetica,sans-Serif" font-size="10.00" fill="#000000">+ operator!=()</text>
<text text-anchor="start" x="77.3757" y="-470.5" font-family="Helvetica,sans-Serif" font-size="10.00" fill="#000000">+ operator!=()</text>
<text text-anchor="start" x="77.3757" y="-459.5" font-family="Helvetica,sans-Serif" font-size="10.00" fill="#000000">+ as()</text>
<text text-anchor="start" x="77.3757" y="-448.5" font-family="Helvetica,sans-Serif" font-size="10.00" fill="#000000">+ print()</text>
</a>
</g>
</g>
<!-- Node5&#45;&gt;Node10 -->
<g id="edge14" class="edge">
<title>Node5&#45;&gt;Node10</title>
<path fill="none" stroke="#404040" d="M573.6875,-992.2714C570.4163,-919.4461 560.2777,-731.8907 541.8757,-711 518.9311,-684.9523 499.3624,-702.1423 465.8757,-693 434.0064,-684.2993 427.1066,-678.2476 394.8757,-671 343.2425,-659.3894 322.1171,-676.1017 271.5732,-653.7209"/>
<polygon fill="none" stroke="#404040" points="271.5145,-653.6929 264.3759,-654.7135 260.6883,-648.5166 267.8268,-647.496 271.5145,-653.6929"/>
<text text-anchor="middle" x="582.3757" y="-814.5" font-family="Helvetica,sans-Serif" font-size="10.00" fill="#000000"> +itg</text>
</g>
<!-- Node6 -->
<g id="node5" class="node">
<title>Node6</title>
<polygon fill="none" stroke="#bfbfbf" points="81.8757,-992.5 81.8757,-1049.5 119.8757,-1049.5 119.8757,-992.5 81.8757,-992.5"/>
<text text-anchor="middle" x="100.8757" y="-1037.5" font-family="Helvetica,sans-Serif" font-size="10.00" fill="#000000">char</text>
<polyline fill="none" stroke="#bfbfbf" points="81.8757,-1030.5 119.8757,-1030.5 "/>
<text text-anchor="middle" x="100.8757" y="-1018.5" font-family="Helvetica,sans-Serif" font-size="10.00" fill="#000000"> </text>
<polyline fill="none" stroke="#bfbfbf" points="81.8757,-1011.5 119.8757,-1011.5 "/>
<text text-anchor="middle" x="100.8757" y="-999.5" font-family="Helvetica,sans-Serif" font-size="10.00" fill="#000000"> </text>
</g>
<!-- Node6&#45;&gt;Node3 -->
<g id="edge12" class="edge">
<title>Node6&#45;&gt;Node3</title>
<path fill="none" stroke="#404040" d="M87.0178,-992.2836C45.1709,-900.9668 -69.3362,-613.1745 59.8757,-441 141.0108,-332.8877 295.2471,-282.5777 396.5584,-260.2961"/>
<polygon fill="none" stroke="#404040" points="396.6006,-260.2872 401.6322,-255.1216 408.3356,-257.7795 403.304,-262.945 396.6006,-260.2872"/>
<text text-anchor="middle" x="36.8757" y="-679.5" font-family="Helvetica,sans-Serif" font-size="10.00" fill="#000000"> +magicString</text>
</g>
<!-- Node6&#45;&gt;Node4 -->
<g id="edge4" class="edge">
<title>Node6&#45;&gt;Node4</title>
<path fill="none" stroke="#404040" d="M120.1873,-1003.6041C138.9106,-985.4802 166.4014,-955.2653 179.8757,-923 198.1463,-879.2497 171.4637,-745.603 203.8757,-711 234.7472,-678.0416 268.1821,-720.6636 303.8757,-693 314.5315,-684.7415 323.5519,-674.3961 331.1748,-663.0464"/>
<polygon fill="none" stroke="#404040" points="331.1837,-663.032 330.9548,-655.8245 337.5199,-652.8411 337.7488,-660.0486 331.1837,-663.032"/>
<text text-anchor="middle" x="216.3757" y="-814.5" font-family="Helvetica,sans-Serif" font-size="10.00" fill="#000000"> +str</text>
</g>
<!-- Node6&#45;&gt;Node9 -->
<g id="edge9" class="edge">
<title>Node6&#45;&gt;Node9</title>
<path fill="none" stroke="#404040" d="M120.1184,-1011.2148C150.227,-995.9547 210.3646,-965.6787 261.8757,-941 279.0922,-932.7516 286.1218,-935.1147 300.8757,-923 302.7215,-921.4844 304.5454,-919.9148 306.3461,-918.2982"/>
<polygon fill="none" stroke="#404040" points="306.4891,-918.1611 308.0512,-911.1212 315.1504,-909.8556 313.5882,-916.8955 306.4891,-918.1611"/>
<text text-anchor="middle" x="274.3757" y="-955" font-family="Helvetica,sans-Serif" font-size="10.00" fill="#000000"> +str</text>
</g>
<!-- Node6&#45;&gt;Node10 -->
<g id="edge15" class="edge">
<title>Node6&#45;&gt;Node10</title>
<path fill="none" stroke="#404040" d="M94.1942,-992.3304C82.4525,-937.0761 61.4756,-812.3433 84.8757,-711 88.4888,-695.3519 93.8082,-679.47 100.0163,-664.0606"/>
<polygon fill="none" stroke="#404040" points="100.0416,-664.0001 98.6731,-656.9201 104.6822,-652.9337 106.0507,-660.0138 100.0416,-664.0001"/>
<text text-anchor="middle" x="97.3757" y="-814.5" font-family="Helvetica,sans-Serif" font-size="10.00" fill="#000000"> +str</text>
</g>
<!-- Node7 -->
<g id="node6" class="node">
<title>Node7</title>
<polygon fill="none" stroke="#bfbfbf" points="462.3757,-992.5 462.3757,-1049.5 491.3757,-1049.5 491.3757,-992.5 462.3757,-992.5"/>
<text text-anchor="middle" x="476.8757" y="-1037.5" font-family="Helvetica,sans-Serif" font-size="10.00" fill="#000000">int</text>
<polyline fill="none" stroke="#bfbfbf" points="462.3757,-1030.5 491.3757,-1030.5 "/>
<text text-anchor="middle" x="476.8757" y="-1018.5" font-family="Helvetica,sans-Serif" font-size="10.00" fill="#000000"> </text>
<polyline fill="none" stroke="#bfbfbf" points="462.3757,-1011.5 491.3757,-1011.5 "/>
<text text-anchor="middle" x="476.8757" y="-999.5" font-family="Helvetica,sans-Serif" font-size="10.00" fill="#000000"> </text>
</g>
<!-- Node7&#45;&gt;Node4 -->
<g id="edge5" class="edge">
<title>Node7&#45;&gt;Node4</title>
<path fill="none" stroke="#404040" d="M491.4012,-1014.7411C518.7081,-1002.0662 577.0033,-970.4728 599.8757,-923 640.7727,-838.1162 649.2087,-791.275 599.8757,-711 579.27,-677.4702 556.9634,-686.7008 520.8757,-671 502.5099,-663.0096 493.7916,-664.8876 473.982,-653.6976"/>
<polygon fill="none" stroke="#404040" points="473.8578,-653.6208 466.6509,-653.8653 463.6533,-647.3067 470.8603,-647.0623 473.8578,-653.6208"/>
<text text-anchor="middle" x="661.8757" y="-825.5" font-family="Helvetica,sans-Serif" font-size="10.00" fill="#000000"> +arraySize</text>
<text text-anchor="middle" x="661.8757" y="-814.5" font-family="Helvetica,sans-Serif" font-size="10.00" fill="#000000">+size</text>
<text text-anchor="middle" x="661.8757" y="-803.5" font-family="Helvetica,sans-Serif" font-size="10.00" fill="#000000">+bitcount</text>
</g>
<!-- Node7&#45;&gt;Node9 -->
<g id="edge10" class="edge">
<title>Node7&#45;&gt;Node9</title>
<path fill="none" stroke="#404040" d="M462.0837,-1015.5865C445.3522,-1008.6498 418.6483,-994.9579 404.8757,-974 397.0439,-962.0823 391.2717,-948.5963 387.0471,-934.6571"/>
<polygon fill="none" stroke="#404040" points="386.9905,-934.4481 381.5602,-929.7035 383.8512,-922.866 389.2816,-927.6106 386.9905,-934.4481"/>
<text text-anchor="middle" x="433.8757" y="-966" font-family="Helvetica,sans-Serif" font-size="10.00" fill="#000000"> +arraySize</text>
<text text-anchor="middle" x="433.8757" y="-955" font-family="Helvetica,sans-Serif" font-size="10.00" fill="#000000">+size</text>
<text text-anchor="middle" x="433.8757" y="-944" font-family="Helvetica,sans-Serif" font-size="10.00" fill="#000000">+bitcount</text>
</g>
<!-- Node7&#45;&gt;Node10 -->
<g id="edge16" class="edge">
<title>Node7&#45;&gt;Node10</title>
<path fill="none" stroke="#404040" d="M478.1266,-992.4336C480.5266,-924.1892 482.8499,-754.1462 448.8757,-711 414.6175,-667.4932 383.7008,-687.6126 330.8757,-671 306.7116,-663.4008 296.087,-666.6636 271.3224,-653.8118"/>
<polygon fill="none" stroke="#404040" points="271.0951,-653.6834 263.9034,-654.2135 260.6482,-647.7789 267.8398,-647.2489 271.0951,-653.6834"/>
<text text-anchor="middle" x="508.8757" y="-825.5" font-family="Helvetica,sans-Serif" font-size="10.00" fill="#000000"> +arraySize</text>
<text text-anchor="middle" x="508.8757" y="-814.5" font-family="Helvetica,sans-Serif" font-size="10.00" fill="#000000">+size</text>
<text text-anchor="middle" x="508.8757" y="-803.5" font-family="Helvetica,sans-Serif" font-size="10.00" fill="#000000">+bitcount</text>
</g>
<!-- Node8 -->
<g id="node7" class="node">
<title>Node8</title>
<polygon fill="none" stroke="#bfbfbf" points="209.3757,-992.5 209.3757,-1049.5 316.3757,-1049.5 316.3757,-992.5 209.3757,-992.5"/>
<text text-anchor="middle" x="262.8757" y="-1037.5" font-family="Helvetica,sans-Serif" font-size="10.00" fill="#000000">anonymous:+@71</text>
<polyline fill="none" stroke="#bfbfbf" points="209.3757,-1030.5 316.3757,-1030.5 "/>
<text text-anchor="middle" x="262.8757" y="-1018.5" font-family="Helvetica,sans-Serif" font-size="10.00" fill="#000000"> </text>
<polyline fill="none" stroke="#bfbfbf" points="209.3757,-1011.5 316.3757,-1011.5 "/>
<text text-anchor="middle" x="262.8757" y="-999.5" font-family="Helvetica,sans-Serif" font-size="10.00" fill="#000000"> </text>
</g>
<!-- Node8&#45;&gt;Node4 -->
<g id="edge6" class="edge">
<title>Node8&#45;&gt;Node4</title>
<path fill="none" stroke="#404040" d="M253.6748,-992.1519C236.6464,-932.6715 207.4955,-794.957 271.8757,-711 288.8171,-688.907 312.4911,-712.9837 331.8757,-693 340.0103,-684.614 346.495,-674.7277 351.6576,-664.1169"/>
<polygon fill="none" stroke="#404040" points="351.7818,-663.8316 350.5099,-656.7336 356.5728,-652.8295 357.8447,-659.9275 351.7818,-663.8316"/>
<text text-anchor="middle" x="288.8757" y="-814.5" font-family="Helvetica,sans-Serif" font-size="10.00" fill="#000000"> +@71</text>
</g>
<!-- Node8&#45;&gt;Node9 -->
<g id="edge11" class="edge">
<title>Node8&#45;&gt;Node9</title>
<path fill="none" stroke="#404040" d="M279.1085,-992.2045C288.1414,-976.1809 300.046,-955.0632 312.4523,-933.0555"/>
<polygon fill="none" stroke="#404040" points="312.4821,-933.0026 311.944,-925.8115 318.375,-922.5491 318.913,-929.7401 312.4821,-933.0026"/>
<text text-anchor="middle" x="323.8757" y="-955" font-family="Helvetica,sans-Serif" font-size="10.00" fill="#000000"> +@71</text>
</g>
<!-- Node8&#45;&gt;Node10 -->
<g id="edge17" class="edge">
<title>Node8&#45;&gt;Node10</title>
<path fill="none" stroke="#404040" d="M242.1015,-992.4943C228.7105,-975.7224 210.0683,-955.1045 189.8757,-941 172.5542,-928.901 157.6526,-940.5421 145.8757,-923 118.4062,-882.0833 129.8922,-758.9012 143.971,-664.5707"/>
<polygon fill="none" stroke="#404040" points="143.982,-664.4975 140.931,-657.9636 145.7888,-652.6343 148.8398,-659.1681 143.982,-664.4975"/>
<text text-anchor="middle" x="162.8757" y="-814.5" font-family="Helvetica,sans-Serif" font-size="10.00" fill="#000000"> +@71</text>
</g>
<!-- Node9&#45;&gt;Node4 -->
<g id="edge7" class="edge">
<title>Node9&#45;&gt;Node4</title>
<path fill="none" stroke="#ffa500" d="M384.6136,-701.1336C384.6078,-690.9414 384.3872,-680.7853 383.8757,-671 383.565,-665.0555 383.171,-658.9573 382.7152,-652.8069"/>
<polygon fill="#ffa500" stroke="#ffa500" points="381.1126,-701.3041 384.5506,-711.3256 388.1125,-701.3474 381.1126,-701.3041"/>
<text text-anchor="start" x="384.8757" y="-685" font-family="Helvetica,sans-Serif" font-size="10.00" fill="#000000"> &lt; gSizeHeaderDescription</text>
<text text-anchor="middle" x="450.8757" y="-674" font-family="Helvetica,sans-Serif" font-size="10.00" fill="#000000">String &gt;</text>
</g>
<!-- Node9&#45;&gt;Node10 -->
<g id="edge18" class="edge">
<title>Node9&#45;&gt;Node10</title>
<path fill="none" stroke="#ffa500" d="M307.3462,-715.3371C305.2332,-713.8101 303.0762,-712.3609 300.8757,-711 259.4884,-685.4052 227.7011,-726.9882 192.8757,-693 181.5164,-681.9137 173.9989,-667.728 169.1329,-652.5719"/>
<polygon fill="#ffa500" stroke="#ffa500" points="305.2574,-718.1471 315.2771,-721.5904 309.5915,-712.6503 305.2574,-718.1471"/>
<text text-anchor="start" x="192.8757" y="-685" font-family="Helvetica,sans-Serif" font-size="10.00" fill="#000000"> &lt; gSizeSerializationMethod</text>
<text text-anchor="middle" x="261.8757" y="-674" font-family="Helvetica,sans-Serif" font-size="10.00" fill="#000000">String &gt;</text>
</g>
<!-- Node10&#45;&gt;Node3 -->
<g id="edge13" class="edge">
<title>Node10&#45;&gt;Node3</title>
<path fill="none" stroke="#404040" d="M234.9531,-441.3475C259.7278,-408.504 289.3408,-373.6863 320.8757,-346 343.7717,-325.8983 371.2049,-307.6778 397.4458,-292.3819"/>
<polygon fill="none" stroke="#404040" points="397.7913,-292.1844 401.015,-285.734 408.2092,-286.2289 404.9854,-292.6793 397.7913,-292.1844"/>
<text text-anchor="middle" x="356.8757" y="-382" font-family="Helvetica,sans-Serif" font-size="10.00" fill="#000000"> +serialization</text>
</g>
<!-- Node11 -->
<g id="node10" class="node">
<title>Node11</title>
<g id="a_node10"><a xlink:href="../../d3/d87/classuint32__t.html" target="_top" xlink:title="{uint32_t\n||}">
<polygon fill="none" stroke="#000000" points="480.8757,-518.5 480.8757,-575.5 536.8757,-575.5 536.8757,-518.5 480.8757,-518.5"/>
<text text-anchor="middle" x="508.8757" y="-563.5" font-family="Helvetica,sans-Serif" font-size="10.00" fill="#000000">uint32_t</text>
<polyline fill="none" stroke="#000000" points="480.8757,-556.5 536.8757,-556.5 "/>
<text text-anchor="middle" x="508.8757" y="-544.5" font-family="Helvetica,sans-Serif" font-size="10.00" fill="#000000"> </text>
<polyline fill="none" stroke="#000000" points="480.8757,-537.5 536.8757,-537.5 "/>
<text text-anchor="middle" x="508.8757" y="-525.5" font-family="Helvetica,sans-Serif" font-size="10.00" fill="#000000"> </text>
</a>
</g>
</g>
<!-- Node11&#45;&gt;Node3 -->
<g id="edge19" class="edge">
<title>Node11&#45;&gt;Node3</title>
<path fill="none" stroke="#404040" d="M505.0783,-518.4986C501.9288,-493.4069 497.6851,-455.8518 495.8757,-423 494.3936,-396.0913 493.8009,-366.8731 493.6651,-339.9977"/>
<polygon fill="none" stroke="#404040" points="493.6647,-339.8311 489.649,-333.8416 493.6333,-327.8311 497.649,-333.8206 493.6647,-339.8311"/>
<text text-anchor="middle" x="541.3757" y="-415" font-family="Helvetica,sans-Serif" font-size="10.00" fill="#000000"> +headerVersion</text>
<text text-anchor="middle" x="541.3757" y="-404" font-family="Helvetica,sans-Serif" font-size="10.00" fill="#000000">+headerSize</text>
<text text-anchor="middle" x="541.3757" y="-393" font-family="Helvetica,sans-Serif" font-size="10.00" fill="#000000">+sMagicString</text>
<text text-anchor="middle" x="541.3757" y="-382" font-family="Helvetica,sans-Serif" font-size="10.00" fill="#000000">+flagsNextHeader</text>
<text text-anchor="middle" x="541.3757" y="-371" font-family="Helvetica,sans-Serif" font-size="10.00" fill="#000000">+magicStringInt</text>
<text text-anchor="middle" x="541.3757" y="-360" font-family="Helvetica,sans-Serif" font-size="10.00" fill="#000000">+flagsUnused</text>
<text text-anchor="middle" x="541.3757" y="-349" font-family="Helvetica,sans-Serif" font-size="10.00" fill="#000000">+flags</text>
</g>
<!-- Node12 -->
<g id="node11" class="node">
<title>Node12</title>
<polygon fill="none" stroke="#bfbfbf" points="555.3757,-518.5 555.3757,-575.5 662.3757,-575.5 662.3757,-518.5 555.3757,-518.5"/>
<text text-anchor="middle" x="608.8757" y="-563.5" font-family="Helvetica,sans-Serif" font-size="10.00" fill="#000000">anonymous:+@73</text>
<polyline fill="none" stroke="#bfbfbf" points="555.3757,-556.5 662.3757,-556.5 "/>
<text text-anchor="middle" x="608.8757" y="-544.5" font-family="Helvetica,sans-Serif" font-size="10.00" fill="#000000"> </text>
<polyline fill="none" stroke="#bfbfbf" points="555.3757,-537.5 662.3757,-537.5 "/>
<text text-anchor="middle" x="608.8757" y="-525.5" font-family="Helvetica,sans-Serif" font-size="10.00" fill="#000000"> </text>
</g>
<!-- Node12&#45;&gt;Node3 -->
<g id="edge20" class="edge">
<title>Node12&#45;&gt;Node3</title>
<path fill="none" stroke="#404040" d="M611.1124,-518.2712C613.0888,-477.9205 612.438,-403.0176 586.8757,-346 585.7027,-343.3836 584.437,-340.788 583.0898,-338.217"/>
<polygon fill="none" stroke="#404040" points="583.0852,-338.2089 576.6323,-334.9901 577.1215,-327.7956 583.5744,-331.0144 583.0852,-338.2089"/>
<text text-anchor="middle" x="623.8757" y="-382" font-family="Helvetica,sans-Serif" font-size="10.00" fill="#000000"> +@73</text>
</g>
<!-- Node13 -->
<g id="node12" class="node">
<title>Node13</title>
<polygon fill="none" stroke="#bfbfbf" points="680.3757,-518.5 680.3757,-575.5 787.3757,-575.5 787.3757,-518.5 680.3757,-518.5"/>
<text text-anchor="middle" x="733.8757" y="-563.5" font-family="Helvetica,sans-Serif" font-size="10.00" fill="#000000">anonymous:+@75</text>
<polyline fill="none" stroke="#bfbfbf" points="680.3757,-556.5 787.3757,-556.5 "/>
<text text-anchor="middle" x="733.8757" y="-544.5" font-family="Helvetica,sans-Serif" font-size="10.00" fill="#000000"> </text>
<polyline fill="none" stroke="#bfbfbf" points="680.3757,-537.5 787.3757,-537.5 "/>
<text text-anchor="middle" x="733.8757" y="-525.5" font-family="Helvetica,sans-Serif" font-size="10.00" fill="#000000"> </text>
</g>
<!-- Node13&#45;&gt;Node3 -->
<g id="edge21" class="edge">
<title>Node13&#45;&gt;Node3</title>
<path fill="none" stroke="#404040" d="M728.8233,-518.3942C719.6985,-475.0546 696.4097,-392.8528 644.8757,-346 628.497,-331.1091 616.2432,-338.125 592.3862,-327.8197"/>
<polygon fill="none" stroke="#404040" points="592.0991,-327.6735 584.9372,-328.5154 581.4056,-322.2283 588.5674,-321.3864 592.0991,-327.6735"/>
<text text-anchor="middle" x="712.8757" y="-382" font-family="Helvetica,sans-Serif" font-size="10.00" fill="#000000"> +@75</text>
</g>
<!-- Node14 -->
<g id="node13" class="node">
<title>Node14</title>
<polygon fill="none" stroke="#bfbfbf" points="805.3757,-518.5 805.3757,-575.5 848.3757,-575.5 848.3757,-518.5 805.3757,-518.5"/>
<text text-anchor="middle" x="826.8757" y="-563.5" font-family="Helvetica,sans-Serif" font-size="10.00" fill="#000000">const</text>
<polyline fill="none" stroke="#bfbfbf" points="805.3757,-556.5 848.3757,-556.5 "/>
<text text-anchor="middle" x="826.8757" y="-544.5" font-family="Helvetica,sans-Serif" font-size="10.00" fill="#000000"> </text>
<polyline fill="none" stroke="#bfbfbf" points="805.3757,-537.5 848.3757,-537.5 "/>
<text text-anchor="middle" x="826.8757" y="-525.5" font-family="Helvetica,sans-Serif" font-size="10.00" fill="#000000"> </text>
</g>
<!-- Node14&#45;&gt;Node3 -->
<g id="edge22" class="edge">
<title>Node14&#45;&gt;Node3</title>
<path fill="none" stroke="#404040" d="M823.3912,-518.2187C816.0894,-472.2448 794.4864,-383.5976 733.8757,-346 682.5243,-314.1461 652.8035,-349.7229 592.7312,-327.9582"/>
<polygon fill="none" stroke="#404040" points="592.6771,-327.9361 585.6091,-329.3653 581.5713,-323.3907 588.6393,-321.9614 592.6771,-327.9361"/>
<text text-anchor="middle" x="851.3757" y="-393" font-family="Helvetica,sans-Serif" font-size="10.00" fill="#000000"> +sHeaderType</text>
<text text-anchor="middle" x="851.3757" y="-382" font-family="Helvetica,sans-Serif" font-size="10.00" fill="#000000">+sSerializationMethod</text>
<text text-anchor="middle" x="851.3757" y="-371" font-family="Helvetica,sans-Serif" font-size="10.00" fill="#000000">+sVersion</text>
</g>
<!-- Node15 -->
<g id="node14" class="node">
<title>Node15</title>
<g id="a_node14"><a xlink:href="../../d6/d30/classuint64__t.html" target="_top" xlink:title="{uint64_t\n||}">
<polygon fill="none" stroke="#000000" points="599.8757,-215.5 599.8757,-272.5 655.8757,-272.5 655.8757,-215.5 599.8757,-215.5"/>
<text text-anchor="middle" x="627.8757" y="-260.5" font-family="Helvetica,sans-Serif" font-size="10.00" fill="#000000">uint64_t</text>
<polyline fill="none" stroke="#000000" points="599.8757,-253.5 655.8757,-253.5 "/>
<text text-anchor="middle" x="627.8757" y="-241.5" font-family="Helvetica,sans-Serif" font-size="10.00" fill="#000000"> </text>
<polyline fill="none" stroke="#000000" points="599.8757,-234.5 655.8757,-234.5 "/>
<text text-anchor="middle" x="627.8757" y="-222.5" font-family="Helvetica,sans-Serif" font-size="10.00" fill="#000000"> </text>
</a>
</g>
</g>
<!-- Node15&#45;&gt;Node2 -->
<g id="edge23" class="edge">
<title>Node15&#45;&gt;Node2</title>
<path fill="none" stroke="#404040" d="M621.2862,-215.2752C615.2799,-182.592 609.9342,-128.3919 628.8757,-87 630.2589,-83.9774 631.9106,-81.0598 633.7683,-78.2543"/>
<polygon fill="none" stroke="#404040" points="633.9138,-78.0672 634.4425,-70.8755 641.2844,-68.5975 640.7557,-75.7892 633.9138,-78.0672"/>
<text text-anchor="middle" x="678.8757" y="-134" font-family="Helvetica,sans-Serif" font-size="10.00" fill="#000000"> +sectorBits</text>
<text text-anchor="middle" x="678.8757" y="-123" font-family="Helvetica,sans-Serif" font-size="10.00" fill="#000000">+unused</text>
<text text-anchor="middle" x="678.8757" y="-112" font-family="Helvetica,sans-Serif" font-size="10.00" fill="#000000">+flags</text>
<text text-anchor="middle" x="678.8757" y="-101" font-family="Helvetica,sans-Serif" font-size="10.00" fill="#000000">+activeSectorsFlags</text>
<text text-anchor="middle" x="678.8757" y="-90" font-family="Helvetica,sans-Serif" font-size="10.00" fill="#000000">+activeSectors</text>
</g>
<!-- Node16 -->
<g id="node15" class="node">
<title>Node16</title>
<polygon fill="none" stroke="#bfbfbf" points="728.8757,-215.5 728.8757,-272.5 772.8757,-272.5 772.8757,-215.5 728.8757,-215.5"/>
<text text-anchor="middle" x="750.8757" y="-260.5" font-family="Helvetica,sans-Serif" font-size="10.00" fill="#000000">static</text>
<polyline fill="none" stroke="#bfbfbf" points="728.8757,-253.5 772.8757,-253.5 "/>
<text text-anchor="middle" x="750.8757" y="-241.5" font-family="Helvetica,sans-Serif" font-size="10.00" fill="#000000"> </text>
<polyline fill="none" stroke="#bfbfbf" points="728.8757,-234.5 772.8757,-234.5 "/>
<text text-anchor="middle" x="750.8757" y="-222.5" font-family="Helvetica,sans-Serif" font-size="10.00" fill="#000000"> </text>
</g>
<!-- Node16&#45;&gt;Node2 -->
<g id="edge24" class="edge">
<title>Node16&#45;&gt;Node2</title>
<path fill="none" stroke="#404040" d="M751.1574,-215.3576C750.5165,-182.9856 746.5163,-129.2948 728.8757,-87 727.7592,-84.323 726.4724,-81.6622 725.0599,-79.0404"/>
<polygon fill="none" stroke="#404040" points="724.9059,-78.7877 718.3674,-75.7466 718.6598,-68.5414 725.1983,-71.5825 724.9059,-78.7877"/>
<text text-anchor="middle" x="781.3757" y="-123" font-family="Helvetica,sans-Serif" font-size="10.00" fill="#000000"> +sHeaderType</text>
<text text-anchor="middle" x="781.3757" y="-112" font-family="Helvetica,sans-Serif" font-size="10.00" fill="#000000">+NSectors</text>
<text text-anchor="middle" x="781.3757" y="-101" font-family="Helvetica,sans-Serif" font-size="10.00" fill="#000000">+sVersion</text>
</g>
<!-- Node17 -->
<g id="node16" class="node">
<title>Node17</title>
<polygon fill="none" stroke="#bfbfbf" points="795.3757,-215.5 795.3757,-272.5 902.3757,-272.5 902.3757,-215.5 795.3757,-215.5"/>
<text text-anchor="middle" x="848.8757" y="-260.5" font-family="Helvetica,sans-Serif" font-size="10.00" fill="#000000">anonymous:+@35</text>
<polyline fill="none" stroke="#bfbfbf" points="795.3757,-253.5 902.3757,-253.5 "/>
<text text-anchor="middle" x="848.8757" y="-241.5" font-family="Helvetica,sans-Serif" font-size="10.00" fill="#000000"> </text>
<polyline fill="none" stroke="#bfbfbf" points="795.3757,-234.5 902.3757,-234.5 "/>
<text text-anchor="middle" x="848.8757" y="-222.5" font-family="Helvetica,sans-Serif" font-size="10.00" fill="#000000"> </text>
</g>
<!-- Node17&#45;&gt;Node2 -->
<g id="edge25" class="edge">
<title>Node17&#45;&gt;Node2</title>
<path fill="none" stroke="#404040" d="M852.0335,-215.4097C854.2123,-181.0933 852.5232,-123.6061 822.8757,-87 809.4707,-70.4487 790.1353,-59.0989 770.3052,-51.3218"/>
<polygon fill="none" stroke="#404040" points="770.241,-51.2988 763.2434,-53.0405 758.9443,-47.251 765.9419,-45.5093 770.241,-51.2988"/>
<text text-anchor="middle" x="863.8757" y="-112" font-family="Helvetica,sans-Serif" font-size="10.00" fill="#000000"> +@35</text>
</g>
</g>
</svg>
        <g id="navigator" transform="translate(0 0)" fill="#404254">
                <rect fill="#f2f5e9" fill-opacity="0.5" stroke="#606060" stroke-width=".5" x="0" y="0" width="60" height="60"/>
                <use id="zoomplus" xlink:href="#zoomPlus" x="17" y="9" onmousedown="handleZoom(evt,'in')"/>
                <use id="zoomminus" xlink:href="#zoomMin" x="42" y="9" onmousedown="handleZoom(evt,'out')"/>
                <use id="reset" xlink:href="#resetDef" x="30" y="36" onmousedown="handleReset()"/>
                <g id="arrowUp" xlink:href="#dirArrow" transform="translate(30 24)" onmousedown="handlePan(0,-1)">
                  <use xlink:href="#rim" fill="#404040">
                        <set attributeName="fill" to="#808080" begin="arrowUp.mouseover" end="arrowUp.mouseout"/>
                  </use>
                  <path fill="none" stroke="white" stroke-width="1.5" d="M0,-3.0v7 M-2.5,-0.5L0,-3.0L2.5,-0.5"/>
                </g>
                <g id="arrowRight" xlink:href="#dirArrow" transform="rotate(90) translate(36 -43)" onmousedown="handlePan(1,0)">
                  <use xlink:href="#rim" fill="#404040">
                        <set attributeName="fill" to="#808080" begin="arrowRight.mouseover" end="arrowRight.mouseout"/>
                  </use>
                  <path fill="none" stroke="white" stroke-width="1.5" d="M0,-3.0v7 M-2.5,-0.5L0,-3.0L2.5,-0.5"/>
                </g>
                <g id="arrowDown" xlink:href="#dirArrow" transform="rotate(180) translate(-30 -48)" onmousedown="handlePan(0,1)">
                  <use xlink:href="#rim" fill="#404040">
                        <set attributeName="fill" to="#808080" begin="arrowDown.mouseover" end="arrowDown.mouseout"/>
                  </use>
                  <path fill="none" stroke="white" stroke-width="1.5" d="M0,-3.0v7 M-2.5,-0.5L0,-3.0L2.5,-0.5"/>
                </g>
                <g id="arrowLeft" xlink:href="#dirArrow" transform="rotate(270) translate(-36 17)" onmousedown="handlePan(-1,0)">
                  <use xlink:href="#rim" fill="#404040">
                        <set attributeName="fill" to="#808080" begin="arrowLeft.mouseover" end="arrowLeft.mouseout"/>
                  </use>
                  <path fill="none" stroke="white" stroke-width="1.5" d="M0,-3.0v7 M-2.5,-0.5L0,-3.0L2.5,-0.5"/>
                </g>
        </g>
        <svg viewBox="0 0 15 15" width="100%" height="30px" preserveAspectRatio="xMaxYMin meet">
         <g id="arrow_out" transform="scale(0.3 0.3)">
          <a xlink:href="structo2_1_1tpc_1_1TPCSectorHeader__coll__graph_org.svg" target="_base">
           <rect id="button" ry="5" rx="5" y="6" x="6" height="38" width="38"
                fill="#f2f5e9" fill-opacity="0.5" stroke="#606060" stroke-width="1.0"/>
           <path id="arrow"
             d="M 11.500037,31.436501 C 11.940474,20.09759 22.043105,11.32322 32.158766,21.979434 L 37.068811,17.246167 C 37.068811,17.246167 37.088388,32 37.088388,32 L 22.160133,31.978069 C 22.160133,31.978069 26.997745,27.140456 26.997745,27.140456 C 18.528582,18.264221 13.291696,25.230495 11.500037,31.436501 z"
             style="fill:#404040;"/>
          </a>
         </g>
        </svg>
</svg>
