<?xml version="1.0" encoding="UTF-8" standalone="no"?>
<!DOCTYPE svg PUBLIC "-//W3C//DTD SVG 1.1//EN"
 "http://www.w3.org/Graphics/SVG/1.1/DTD/svg11.dtd">
<!-- Generated by graphviz version 2.40.1 (20161225.0304)
 -->
<!-- Title: /home/travis/build/AliceO2Group/AliceO2/Analysis/Core/include/Analysis/TrackSelection.h Pages: 1 -->
<svg width="408pt" height="173pt"
 viewBox="0.00 0.00 407.50 173.00" xmlns="http://www.w3.org/2000/svg" xmlns:xlink="http://www.w3.org/1999/xlink">
<g id="graph0" class="graph" transform="scale(1 1) rotate(0) translate(4 169)">
<title>/home/travis/build/AliceO2Group/AliceO2/Analysis/Core/include/Analysis/TrackSelection.h</title>
<!-- Node0 -->
<g id="node1" class="node">
<title>Node0</title>
<polygon fill="#bfbfbf" stroke="#000000" points="187,-112.5 187,-164.5 330,-164.5 330,-112.5 187,-112.5"/>
<text text-anchor="start" x="195" y="-152.5" font-family="Helvetica,sans-Serif" font-size="10.00" fill="#000000">/home/travis/build</text>
<text text-anchor="start" x="195" y="-141.5" font-family="Helvetica,sans-Serif" font-size="10.00" fill="#000000">/AliceO2Group/AliceO2</text>
<text text-anchor="start" x="195" y="-130.5" font-family="Helvetica,sans-Serif" font-size="10.00" fill="#000000">/Analysis/Core/include</text>
<text text-anchor="middle" x="258.5" y="-119.5" font-family="Helvetica,sans-Serif" font-size="10.00" fill="#000000">/Analysis/TrackSelection.h</text>
</g>
<!-- Node1 -->
<g id="node2" class="node">
<title>Node1</title>
<g id="a_node2"><a xlink:href="../../dd/da4/Logger_8h.html" target="_top" xlink:title="Framework/Logger.h">
<polygon fill="none" stroke="#000000" points="0,-56.5 0,-75.5 115,-75.5 115,-56.5 0,-56.5"/>
<text text-anchor="middle" x="57.5" y="-63.5" font-family="Helvetica,sans-Serif" font-size="10.00" fill="#000000">Framework/Logger.h</text>
</a>
</g>
</g>
<!-- Node0&#45;&gt;Node1 -->
<g id="edge1" class="edge">
<title>Node0&#45;&gt;Node1</title>
<path fill="none" stroke="#191970" d="M186.7857,-112.6329C155.1948,-101.2382 119.4596,-88.3486 93.5779,-79.0132"/>
<polygon fill="#191970" stroke="#191970" points="94.7645,-75.7205 84.1702,-75.6198 92.3894,-82.3053 94.7645,-75.7205"/>
</g>
<!-- Node3 -->
<g id="node4" class="node">
<title>Node3</title>
<g id="a_node4"><a xlink:href="../../d2/d12/DataTypes_8h.html" target="_top" xlink:title="Framework/DataTypes.h">
<polygon fill="none" stroke="#000000" points="133.5,-56.5 133.5,-75.5 267.5,-75.5 267.5,-56.5 133.5,-56.5"/>
<text text-anchor="middle" x="200.5" y="-63.5" font-family="Helvetica,sans-Serif" font-size="10.00" fill="#000000">Framework/DataTypes.h</text>
</a>
</g>
</g>
<!-- Node0&#45;&gt;Node3 -->
<g id="edge3" class="edge">
<title>Node0&#45;&gt;Node3</title>
<path fill="none" stroke="#191970" d="M237.5607,-112.3258C229.8705,-102.7131 221.3588,-92.0735 214.4339,-83.4174"/>
<polygon fill="#191970" stroke="#191970" points="217.1072,-81.1563 208.1272,-75.534 211.6411,-85.5292 217.1072,-81.1563"/>
</g>
<!-- Node5 -->
<g id="node6" class="node">
<title>Node5</title>
<polygon fill="none" stroke="#bfbfbf" points="286,-56.5 286,-75.5 349,-75.5 349,-56.5 286,-56.5"/>
<text text-anchor="middle" x="317.5" y="-63.5" font-family="Helvetica,sans-Serif" font-size="10.00" fill="#000000">TObject.h</text>
</g>
<!-- Node0&#45;&gt;Node5 -->
<g id="edge5" class="edge">
<title>Node0&#45;&gt;Node5</title>
<path fill="none" stroke="#191970" d="M279.8004,-112.3258C287.6231,-102.7131 296.2815,-92.0735 303.3258,-83.4174"/>
<polygon fill="#191970" stroke="#191970" points="306.144,-85.4995 309.7413,-75.534 300.7146,-81.0811 306.144,-85.4995"/>
</g>
<!-- Node6 -->
<g id="node7" class="node">
<title>Node6</title>
<polygon fill="none" stroke="#bfbfbf" points="367.5,-56.5 367.5,-75.5 399.5,-75.5 399.5,-56.5 367.5,-56.5"/>
<text text-anchor="middle" x="383.5" y="-63.5" font-family="Helvetica,sans-Serif" font-size="10.00" fill="#000000">set</text>
</g>
<!-- Node0&#45;&gt;Node6 -->
<g id="edge6" class="edge">
<title>Node0&#45;&gt;Node6</title>
<path fill="none" stroke="#191970" d="M303.6279,-112.3258C322.0438,-101.6446 342.6456,-89.6956 358.3128,-80.6086"/>
<polygon fill="#191970" stroke="#191970" points="360.4722,-83.4023 367.3665,-75.3574 356.9601,-77.3471 360.4722,-83.4023"/>
</g>
<!-- Node2 -->
<g id="node3" class="node">
<title>Node2</title>
<polygon fill="none" stroke="#bfbfbf" points="3.5,-.5 3.5,-19.5 111.5,-19.5 111.5,-.5 3.5,-.5"/>
<text text-anchor="middle" x="57.5" y="-7.5" font-family="Helvetica,sans-Serif" font-size="10.00" fill="#000000">fairlogger/Logger.h</text>
</g>
<!-- Node1&#45;&gt;Node2 -->
<g id="edge2" class="edge">
<title>Node1&#45;&gt;Node2</title>
<path fill="none" stroke="#191970" d="M57.5,-56.2455C57.5,-48.9382 57.5,-38.6944 57.5,-29.7046"/>
<polygon fill="#191970" stroke="#191970" points="61.0001,-29.6426 57.5,-19.6427 54.0001,-29.6427 61.0001,-29.6426"/>
</g>
<!-- Node4 -->
<g id="node5" class="node">
<title>Node4</title>
<polygon fill="none" stroke="#bfbfbf" points="175.5,-.5 175.5,-19.5 225.5,-19.5 225.5,-.5 175.5,-.5"/>
<text text-anchor="middle" x="200.5" y="-7.5" font-family="Helvetica,sans-Serif" font-size="10.00" fill="#000000">cstdint</text>
</g>
<!-- Node3&#45;&gt;Node4 -->
<g id="edge4" class="edge">
<title>Node3&#45;&gt;Node4</title>
<path fill="none" stroke="#191970" d="M200.5,-56.2455C200.5,-48.9382 200.5,-38.6944 200.5,-29.7046"/>
<polygon fill="#191970" stroke="#191970" points="204.0001,-29.6426 200.5,-19.6427 197.0001,-29.6427 204.0001,-29.6426"/>
</g>
</g>
</svg>
