<?xml version="1.0" encoding="UTF-8" standalone="no"?>
<!DOCTYPE svg PUBLIC "-//W3C//DTD SVG 1.1//EN"
 "http://www.w3.org/Graphics/SVG/1.1/DTD/svg11.dtd">
<!-- Generated by graphviz version 2.40.1 (20161225.0304)
 -->
<!-- Title: o2::steer::InteractionSampler Pages: 1 -->
<svg width="1051pt" height="1129pt"
 viewBox="0.00 0.00 1050.71 1129.00" xmlns="http://www.w3.org/2000/svg" xmlns:xlink="http://www.w3.org/1999/xlink">
<g id="graph0" class="graph" transform="scale(1 1) rotate(0) translate(4 1125)">
<title>o2::steer::InteractionSampler</title>
<!-- Node1 -->
<g id="node1" class="node">
<title>Node1</title>
<polygon fill="#bfbfbf" stroke="#000000" points="344.7113,-.5 344.7113,-255.5 502.7113,-255.5 502.7113,-.5 344.7113,-.5"/>
<text text-anchor="middle" x="423.7113" y="-243.5" font-family="Helvetica,sans-Serif" font-size="10.00" fill="#000000">o2::steer::InteractionSampler</text>
<polyline fill="none" stroke="#000000" points="344.7113,-236.5 502.7113,-236.5 "/>
<text text-anchor="middle" x="423.7113" y="-224.5" font-family="Helvetica,sans-Serif" font-size="10.00" fill="#000000"> </text>
<polyline fill="none" stroke="#000000" points="344.7113,-217.5 502.7113,-217.5 "/>
<text text-anchor="start" x="352.7113" y="-205.5" font-family="Helvetica,sans-Serif" font-size="10.00" fill="#000000">+ generateCollisionTime()</text>
<text text-anchor="start" x="352.7113" y="-194.5" font-family="Helvetica,sans-Serif" font-size="10.00" fill="#000000">+ generateCollisionTimes()</text>
<text text-anchor="start" x="352.7113" y="-183.5" font-family="Helvetica,sans-Serif" font-size="10.00" fill="#000000">+ init()</text>
<text text-anchor="start" x="352.7113" y="-172.5" font-family="Helvetica,sans-Serif" font-size="10.00" fill="#000000">+ setInteractionRate()</text>
<text text-anchor="start" x="352.7113" y="-161.5" font-family="Helvetica,sans-Serif" font-size="10.00" fill="#000000">+ getInteractionRate()</text>
<text text-anchor="start" x="352.7113" y="-150.5" font-family="Helvetica,sans-Serif" font-size="10.00" fill="#000000">+ setFirstIR()</text>
<text text-anchor="start" x="352.7113" y="-139.5" font-family="Helvetica,sans-Serif" font-size="10.00" fill="#000000">+ getFirstIR()</text>
<text text-anchor="start" x="352.7113" y="-128.5" font-family="Helvetica,sans-Serif" font-size="10.00" fill="#000000">+ setMuPerBC()</text>
<text text-anchor="start" x="352.7113" y="-117.5" font-family="Helvetica,sans-Serif" font-size="10.00" fill="#000000">+ getMuPerBC()</text>
<text text-anchor="start" x="352.7113" y="-106.5" font-family="Helvetica,sans-Serif" font-size="10.00" fill="#000000">+ setBCTimeRMS()</text>
<text text-anchor="start" x="352.7113" y="-95.5" font-family="Helvetica,sans-Serif" font-size="10.00" fill="#000000">+ getBCTimeRMS()</text>
<text text-anchor="start" x="352.7113" y="-84.5" font-family="Helvetica,sans-Serif" font-size="10.00" fill="#000000">+ getBunchFilling()</text>
<text text-anchor="start" x="352.7113" y="-73.5" font-family="Helvetica,sans-Serif" font-size="10.00" fill="#000000">+ getBunchFilling()</text>
<text text-anchor="start" x="352.7113" y="-62.5" font-family="Helvetica,sans-Serif" font-size="10.00" fill="#000000">+ setBunchFilling()</text>
<text text-anchor="start" x="352.7113" y="-51.5" font-family="Helvetica,sans-Serif" font-size="10.00" fill="#000000">+ setBunchFilling()</text>
<text text-anchor="start" x="352.7113" y="-40.5" font-family="Helvetica,sans-Serif" font-size="10.00" fill="#000000">+ print()</text>
<text text-anchor="start" x="352.7113" y="-29.5" font-family="Helvetica,sans-Serif" font-size="10.00" fill="#000000"># simulateInteractingBC()</text>
<text text-anchor="start" x="352.7113" y="-18.5" font-family="Helvetica,sans-Serif" font-size="10.00" fill="#000000"># nextCollidingBC()</text>
<text text-anchor="start" x="352.7113" y="-7.5" font-family="Helvetica,sans-Serif" font-size="10.00" fill="#000000"># ClassDefNV()</text>
</g>
<!-- Node2 -->
<g id="node2" class="node">
<title>Node2</title>
<polygon fill="none" stroke="#bfbfbf" points="78.7113,-1063.5 78.7113,-1120.5 128.7113,-1120.5 128.7113,-1063.5 78.7113,-1063.5"/>
<text text-anchor="middle" x="103.7113" y="-1108.5" font-family="Helvetica,sans-Serif" font-size="10.00" fill="#000000">double</text>
<polyline fill="none" stroke="#bfbfbf" points="78.7113,-1101.5 128.7113,-1101.5 "/>
<text text-anchor="middle" x="103.7113" y="-1089.5" font-family="Helvetica,sans-Serif" font-size="10.00" fill="#000000"> </text>
<polyline fill="none" stroke="#bfbfbf" points="78.7113,-1082.5 128.7113,-1082.5 "/>
<text text-anchor="middle" x="103.7113" y="-1070.5" font-family="Helvetica,sans-Serif" font-size="10.00" fill="#000000"> </text>
</g>
<!-- Node2&#45;&gt;Node1 -->
<g id="edge1" class="edge">
<title>Node2&#45;&gt;Node1</title>
<path fill="none" stroke="#404040" d="M92.2144,-1063.4561C52.0787,-959.015 -72.434,-590.4998 58.7113,-336 112.5866,-231.4499 243.4197,-176.0819 332.8782,-149.4199"/>
<polygon fill="none" stroke="#404040" points="333.1418,-149.3435 337.79,-143.8303 344.6668,-146.0004 340.0187,-151.5136 333.1418,-149.3435"/>
<text text-anchor="middle" x="26.2113" y="-569" font-family="Helvetica,sans-Serif" font-size="10.00" fill="#000000"> #mMuBC</text>
</g>
<!-- Node11 -->
<g id="node11" class="node">
<title>Node11</title>
<g id="a_node11"><a xlink:href="../../d8/d98/structo2_1_1InteractionTimeRecord.html" target="_top" xlink:title="{o2::InteractionTimeRecord\n||+ InteractionTimeRecord()\l+ InteractionTimeRecord()\l+ InteractionTimeRecord()\l+ setFromNS()\l+ clear()\l+ getTimeOffsetWrtBC()\l+ getTimeNS()\l+ operator==()\l+ operator!=()\l+ operator\&gt;()\l+ operator\&gt;=()\l+ operator\&lt;()\l+ operator\&lt;=()\l+ print()\l+ ClassDefNV()\l}">
<polygon fill="none" stroke="#000000" points="67.7113,-336.5 67.7113,-547.5 213.7113,-547.5 213.7113,-336.5 67.7113,-336.5"/>
<text text-anchor="middle" x="140.7113" y="-535.5" font-family="Helvetica,sans-Serif" font-size="10.00" fill="#000000">o2::InteractionTimeRecord</text>
<polyline fill="none" stroke="#000000" points="67.7113,-528.5 213.7113,-528.5 "/>
<text text-anchor="middle" x="140.7113" y="-516.5" font-family="Helvetica,sans-Serif" font-size="10.00" fill="#000000"> </text>
<polyline fill="none" stroke="#000000" points="67.7113,-509.5 213.7113,-509.5 "/>
<text text-anchor="start" x="75.7113" y="-497.5" font-family="Helvetica,sans-Serif" font-size="10.00" fill="#000000">+ InteractionTimeRecord()</text>
<text text-anchor="start" x="75.7113" y="-486.5" font-family="Helvetica,sans-Serif" font-size="10.00" fill="#000000">+ InteractionTimeRecord()</text>
<text text-anchor="start" x="75.7113" y="-475.5" font-family="Helvetica,sans-Serif" font-size="10.00" fill="#000000">+ InteractionTimeRecord()</text>
<text text-anchor="start" x="75.7113" y="-464.5" font-family="Helvetica,sans-Serif" font-size="10.00" fill="#000000">+ setFromNS()</text>
<text text-anchor="start" x="75.7113" y="-453.5" font-family="Helvetica,sans-Serif" font-size="10.00" fill="#000000">+ clear()</text>
<text text-anchor="start" x="75.7113" y="-442.5" font-family="Helvetica,sans-Serif" font-size="10.00" fill="#000000">+ getTimeOffsetWrtBC()</text>
<text text-anchor="start" x="75.7113" y="-431.5" font-family="Helvetica,sans-Serif" font-size="10.00" fill="#000000">+ getTimeNS()</text>
<text text-anchor="start" x="75.7113" y="-420.5" font-family="Helvetica,sans-Serif" font-size="10.00" fill="#000000">+ operator==()</text>
<text text-anchor="start" x="75.7113" y="-409.5" font-family="Helvetica,sans-Serif" font-size="10.00" fill="#000000">+ operator!=()</text>
<text text-anchor="start" x="75.7113" y="-398.5" font-family="Helvetica,sans-Serif" font-size="10.00" fill="#000000">+ operator&gt;()</text>
<text text-anchor="start" x="75.7113" y="-387.5" font-family="Helvetica,sans-Serif" font-size="10.00" fill="#000000">+ operator&gt;=()</text>
<text text-anchor="start" x="75.7113" y="-376.5" font-family="Helvetica,sans-Serif" font-size="10.00" fill="#000000">+ operator&lt;()</text>
<text text-anchor="start" x="75.7113" y="-365.5" font-family="Helvetica,sans-Serif" font-size="10.00" fill="#000000">+ operator&lt;=()</text>
<text text-anchor="start" x="75.7113" y="-354.5" font-family="Helvetica,sans-Serif" font-size="10.00" fill="#000000">+ print()</text>
<text text-anchor="start" x="75.7113" y="-343.5" font-family="Helvetica,sans-Serif" font-size="10.00" fill="#000000">+ ClassDefNV()</text>
</a>
</g>
</g>
<!-- Node2&#45;&gt;Node11 -->
<g id="edge16" class="edge">
<title>Node2&#45;&gt;Node11</title>
<path fill="none" stroke="#404040" d="M102.7446,-1063.335C100.5029,-986.9746 96.3816,-772.3694 113.7113,-595 114.8209,-583.6433 116.3011,-571.8618 117.9991,-560.1061"/>
<polygon fill="none" stroke="#404040" points="118.0528,-559.7497 114.9916,-553.2206 119.8411,-547.8837 122.9023,-554.4128 118.0528,-559.7497"/>
<text text-anchor="middle" x="148.7113" y="-797.5" font-family="Helvetica,sans-Serif" font-size="10.00" fill="#000000"> +timeInBCNS</text>
</g>
<!-- Node12 -->
<g id="node12" class="node">
<title>Node12</title>
<g id="a_node12"><a xlink:href="../../d1/d21/structo2_1_1InteractionRecord.html" target="_top" xlink:title="{o2::InteractionRecord\n||+ InteractionRecord()\l+ InteractionRecord()\l+ InteractionRecord()\l+ InteractionRecord()\l+ clear()\l+ isDummy()\l+ setFromNS()\l+ bc2ns()\l+ operator==()\l+ operator!=()\l+ differenceInBC()\l+ toLong()\l+ setFromLong()\l+ operator\&gt;()\l+ operator\&gt;=()\l+ operator\&lt;()\l+ operator\&lt;=()\l+ operator&#45;&#45;()\l+ operator&#45;&#45;()\l+ operator++()\l+ operator++()\l+ operator+=()\l+ operator&#45;=()\l+ operator+=()\l+ operator&#45;=()\l+ operator+()\l+ operator&#45;()\l+ operator+()\l+ operator&#45;()\l+ print()\l+ ClassDefNV()\l+ bc2ns()\l+ ns2bc()\l}">
<polygon fill="none" stroke="#000000" points="192.2113,-595.5 192.2113,-1004.5 313.2113,-1004.5 313.2113,-595.5 192.2113,-595.5"/>
<text text-anchor="middle" x="252.7113" y="-992.5" font-family="Helvetica,sans-Serif" font-size="10.00" fill="#000000">o2::InteractionRecord</text>
<polyline fill="none" stroke="#000000" points="192.2113,-985.5 313.2113,-985.5 "/>
<text text-anchor="middle" x="252.7113" y="-973.5" font-family="Helvetica,sans-Serif" font-size="10.00" fill="#000000"> </text>
<polyline fill="none" stroke="#000000" points="192.2113,-966.5 313.2113,-966.5 "/>
<text text-anchor="start" x="200.2113" y="-954.5" font-family="Helvetica,sans-Serif" font-size="10.00" fill="#000000">+ InteractionRecord()</text>
<text text-anchor="start" x="200.2113" y="-943.5" font-family="Helvetica,sans-Serif" font-size="10.00" fill="#000000">+ InteractionRecord()</text>
<text text-anchor="start" x="200.2113" y="-932.5" font-family="Helvetica,sans-Serif" font-size="10.00" fill="#000000">+ InteractionRecord()</text>
<text text-anchor="start" x="200.2113" y="-921.5" font-family="Helvetica,sans-Serif" font-size="10.00" fill="#000000">+ InteractionRecord()</text>
<text text-anchor="start" x="200.2113" y="-910.5" font-family="Helvetica,sans-Serif" font-size="10.00" fill="#000000">+ clear()</text>
<text text-anchor="start" x="200.2113" y="-899.5" font-family="Helvetica,sans-Serif" font-size="10.00" fill="#000000">+ isDummy()</text>
<text text-anchor="start" x="200.2113" y="-888.5" font-family="Helvetica,sans-Serif" font-size="10.00" fill="#000000">+ setFromNS()</text>
<text text-anchor="start" x="200.2113" y="-877.5" font-family="Helvetica,sans-Serif" font-size="10.00" fill="#000000">+ bc2ns()</text>
<text text-anchor="start" x="200.2113" y="-866.5" font-family="Helvetica,sans-Serif" font-size="10.00" fill="#000000">+ operator==()</text>
<text text-anchor="start" x="200.2113" y="-855.5" font-family="Helvetica,sans-Serif" font-size="10.00" fill="#000000">+ operator!=()</text>
<text text-anchor="start" x="200.2113" y="-844.5" font-family="Helvetica,sans-Serif" font-size="10.00" fill="#000000">+ differenceInBC()</text>
<text text-anchor="start" x="200.2113" y="-833.5" font-family="Helvetica,sans-Serif" font-size="10.00" fill="#000000">+ toLong()</text>
<text text-anchor="start" x="200.2113" y="-822.5" font-family="Helvetica,sans-Serif" font-size="10.00" fill="#000000">+ setFromLong()</text>
<text text-anchor="start" x="200.2113" y="-811.5" font-family="Helvetica,sans-Serif" font-size="10.00" fill="#000000">+ operator&gt;()</text>
<text text-anchor="start" x="200.2113" y="-800.5" font-family="Helvetica,sans-Serif" font-size="10.00" fill="#000000">+ operator&gt;=()</text>
<text text-anchor="start" x="200.2113" y="-789.5" font-family="Helvetica,sans-Serif" font-size="10.00" fill="#000000">+ operator&lt;()</text>
<text text-anchor="start" x="200.2113" y="-778.5" font-family="Helvetica,sans-Serif" font-size="10.00" fill="#000000">+ operator&lt;=()</text>
<text text-anchor="start" x="200.2113" y="-767.5" font-family="Helvetica,sans-Serif" font-size="10.00" fill="#000000">+ operator&#45;&#45;()</text>
<text text-anchor="start" x="200.2113" y="-756.5" font-family="Helvetica,sans-Serif" font-size="10.00" fill="#000000">+ operator&#45;&#45;()</text>
<text text-anchor="start" x="200.2113" y="-745.5" font-family="Helvetica,sans-Serif" font-size="10.00" fill="#000000">+ operator++()</text>
<text text-anchor="start" x="200.2113" y="-734.5" font-family="Helvetica,sans-Serif" font-size="10.00" fill="#000000">+ operator++()</text>
<text text-anchor="start" x="200.2113" y="-723.5" font-family="Helvetica,sans-Serif" font-size="10.00" fill="#000000">+ operator+=()</text>
<text text-anchor="start" x="200.2113" y="-712.5" font-family="Helvetica,sans-Serif" font-size="10.00" fill="#000000">+ operator&#45;=()</text>
<text text-anchor="start" x="200.2113" y="-701.5" font-family="Helvetica,sans-Serif" font-size="10.00" fill="#000000">+ operator+=()</text>
<text text-anchor="start" x="200.2113" y="-690.5" font-family="Helvetica,sans-Serif" font-size="10.00" fill="#000000">+ operator&#45;=()</text>
<text text-anchor="start" x="200.2113" y="-679.5" font-family="Helvetica,sans-Serif" font-size="10.00" fill="#000000">+ operator+()</text>
<text text-anchor="start" x="200.2113" y="-668.5" font-family="Helvetica,sans-Serif" font-size="10.00" fill="#000000">+ operator&#45;()</text>
<text text-anchor="start" x="200.2113" y="-657.5" font-family="Helvetica,sans-Serif" font-size="10.00" fill="#000000">+ operator+()</text>
<text text-anchor="start" x="200.2113" y="-646.5" font-family="Helvetica,sans-Serif" font-size="10.00" fill="#000000">+ operator&#45;()</text>
<text text-anchor="start" x="200.2113" y="-635.5" font-family="Helvetica,sans-Serif" font-size="10.00" fill="#000000">+ print()</text>
<text text-anchor="start" x="200.2113" y="-624.5" font-family="Helvetica,sans-Serif" font-size="10.00" fill="#000000">+ ClassDefNV()</text>
<text text-anchor="start" x="200.2113" y="-613.5" font-family="Helvetica,sans-Serif" font-size="10.00" fill="#000000">+ bc2ns()</text>
<text text-anchor="start" x="200.2113" y="-602.5" font-family="Helvetica,sans-Serif" font-size="10.00" fill="#000000">+ ns2bc()</text>
</a>
</g>
</g>
<!-- Node2&#45;&gt;Node12 -->
<g id="edge13" class="edge">
<title>Node2&#45;&gt;Node12</title>
<path fill="none" stroke="#404040" d="M128.9944,-1067.1966C144.6821,-1050.7161 164.3299,-1027.9553 177.7113,-1005 180.7934,-999.7129 183.785,-994.2771 186.6854,-988.7324"/>
<polygon fill="none" stroke="#404040" points="186.7269,-988.6504 185.8704,-981.4903 192.1503,-977.9458 193.0068,-985.1059 186.7269,-988.6504"/>
<text text-anchor="middle" x="204.7113" y="-1031.5" font-family="Helvetica,sans-Serif" font-size="10.00" fill="#000000"> +DummyTime</text>
</g>
<!-- Node3 -->
<g id="node3" class="node">
<title>Node3</title>
<g id="a_node3"><a xlink:href="../../d4/dc3/classfloat.html" target="_top" xlink:title="{float\n||}">
<polygon fill="none" stroke="#000000" points="231.7113,-413.5 231.7113,-470.5 269.7113,-470.5 269.7113,-413.5 231.7113,-413.5"/>
<text text-anchor="middle" x="250.7113" y="-458.5" font-family="Helvetica,sans-Serif" font-size="10.00" fill="#000000">float</text>
<polyline fill="none" stroke="#000000" points="231.7113,-451.5 269.7113,-451.5 "/>
<text text-anchor="middle" x="250.7113" y="-439.5" font-family="Helvetica,sans-Serif" font-size="10.00" fill="#000000"> </text>
<polyline fill="none" stroke="#000000" points="231.7113,-432.5 269.7113,-432.5 "/>
<text text-anchor="middle" x="250.7113" y="-420.5" font-family="Helvetica,sans-Serif" font-size="10.00" fill="#000000"> </text>
</a>
</g>
</g>
<!-- Node3&#45;&gt;Node1 -->
<g id="edge2" class="edge">
<title>Node3&#45;&gt;Node1</title>
<path fill="none" stroke="#404040" d="M239.7467,-413.3062C228.3043,-378.4777 214.8284,-318.8476 236.7113,-274 257.3485,-231.7054 296.8147,-198.0813 334.1915,-173.8131"/>
<polygon fill="none" stroke="#404040" points="334.508,-173.6138 337.4522,-167.031 344.6609,-167.2169 341.7167,-173.7996 334.508,-173.6138"/>
<text text-anchor="middle" x="275.7113" y="-310" font-family="Helvetica,sans-Serif" font-size="10.00" fill="#000000"> +Sec2NanoSec</text>
<text text-anchor="middle" x="275.7113" y="-299" font-family="Helvetica,sans-Serif" font-size="10.00" fill="#000000">#mBCTimeRMS</text>
<text text-anchor="middle" x="275.7113" y="-288" font-family="Helvetica,sans-Serif" font-size="10.00" fill="#000000">#mIntRate</text>
<text text-anchor="middle" x="275.7113" y="-277" font-family="Helvetica,sans-Serif" font-size="10.00" fill="#000000">#DefIntRate</text>
</g>
<!-- Node4 -->
<g id="node4" class="node">
<title>Node4</title>
<polygon fill="none" stroke="#bfbfbf" points="290.2113,-413.5 290.2113,-470.5 319.2113,-470.5 319.2113,-413.5 290.2113,-413.5"/>
<text text-anchor="middle" x="304.7113" y="-458.5" font-family="Helvetica,sans-Serif" font-size="10.00" fill="#000000">int</text>
<polyline fill="none" stroke="#bfbfbf" points="290.2113,-451.5 319.2113,-451.5 "/>
<text text-anchor="middle" x="304.7113" y="-439.5" font-family="Helvetica,sans-Serif" font-size="10.00" fill="#000000"> </text>
<polyline fill="none" stroke="#bfbfbf" points="290.2113,-432.5 319.2113,-432.5 "/>
<text text-anchor="middle" x="304.7113" y="-420.5" font-family="Helvetica,sans-Serif" font-size="10.00" fill="#000000"> </text>
</g>
<!-- Node4&#45;&gt;Node1 -->
<g id="edge3" class="edge">
<title>Node4&#45;&gt;Node1</title>
<path fill="none" stroke="#404040" d="M305.8213,-413.466C307.9288,-379.3081 314.0339,-320.8477 331.7113,-274 334.025,-267.8683 336.6151,-261.7184 339.4174,-255.5983"/>
<polygon fill="none" stroke="#404040" points="339.4904,-255.446 338.4765,-248.3065 344.6768,-244.6246 345.6907,-251.7641 339.4904,-255.446"/>
<text text-anchor="middle" x="369.2113" y="-299" font-family="Helvetica,sans-Serif" font-size="10.00" fill="#000000"> #mCurrBCIdx</text>
<text text-anchor="middle" x="369.2113" y="-288" font-family="Helvetica,sans-Serif" font-size="10.00" fill="#000000">#mIntBCCache</text>
</g>
<!-- Node5 -->
<g id="node5" class="node">
<title>Node5</title>
<polygon fill="none" stroke="#bfbfbf" points="337.2113,-413.5 337.2113,-470.5 468.2113,-470.5 468.2113,-413.5 337.2113,-413.5"/>
<text text-anchor="middle" x="402.7113" y="-458.5" font-family="Helvetica,sans-Serif" font-size="10.00" fill="#000000">vector&lt; std::uint16_t &gt;</text>
<polyline fill="none" stroke="#bfbfbf" points="337.2113,-451.5 468.2113,-451.5 "/>
<text text-anchor="middle" x="402.7113" y="-439.5" font-family="Helvetica,sans-Serif" font-size="10.00" fill="#000000"> </text>
<polyline fill="none" stroke="#bfbfbf" points="337.2113,-432.5 468.2113,-432.5 "/>
<text text-anchor="middle" x="402.7113" y="-420.5" font-family="Helvetica,sans-Serif" font-size="10.00" fill="#000000"> </text>
</g>
<!-- Node5&#45;&gt;Node1 -->
<g id="edge4" class="edge">
<title>Node5&#45;&gt;Node1</title>
<path fill="none" stroke="#404040" d="M404.6306,-413.3022C406.8615,-379.9447 410.7059,-322.4619 414.3619,-267.7954"/>
<polygon fill="none" stroke="#404040" points="414.3621,-267.7912 410.7715,-261.5376 415.163,-255.818 418.7536,-262.0715 414.3621,-267.7912"/>
<text text-anchor="middle" x="460.2113" y="-293.5" font-family="Helvetica,sans-Serif" font-size="10.00" fill="#000000"> #mInteractingBCs</text>
</g>
<!-- Node6 -->
<g id="node6" class="node">
<title>Node6</title>
<g id="a_node6"><a xlink:href="../../dc/dfc/classo2_1_1math__utils_1_1RandomRing.html" target="_top" xlink:title="{o2::math_utils::RandomRing\l\&lt; 10000 \&gt;\n||+ RandomRing()\l+ RandomRing()\l+ initialize()\l+ initialize()\l+ initialize()\l+ getNextValue()\l+ getNextValueVc()\l+ getRingPosition()\l}">
<polygon fill="none" stroke="#000000" points="486.2113,-369.5 486.2113,-514.5 641.2113,-514.5 641.2113,-369.5 486.2113,-369.5"/>
<text text-anchor="start" x="494.2113" y="-502.5" font-family="Helvetica,sans-Serif" font-size="10.00" fill="#000000">o2::math_utils::RandomRing</text>
<text text-anchor="middle" x="563.7113" y="-491.5" font-family="Helvetica,sans-Serif" font-size="10.00" fill="#000000">&lt; 10000 &gt;</text>
<polyline fill="none" stroke="#000000" points="486.2113,-484.5 641.2113,-484.5 "/>
<text text-anchor="middle" x="563.7113" y="-472.5" font-family="Helvetica,sans-Serif" font-size="10.00" fill="#000000"> </text>
<polyline fill="none" stroke="#000000" points="486.2113,-465.5 641.2113,-465.5 "/>
<text text-anchor="start" x="494.2113" y="-453.5" font-family="Helvetica,sans-Serif" font-size="10.00" fill="#000000">+ RandomRing()</text>
<text text-anchor="start" x="494.2113" y="-442.5" font-family="Helvetica,sans-Serif" font-size="10.00" fill="#000000">+ RandomRing()</text>
<text text-anchor="start" x="494.2113" y="-431.5" font-family="Helvetica,sans-Serif" font-size="10.00" fill="#000000">+ initialize()</text>
<text text-anchor="start" x="494.2113" y="-420.5" font-family="Helvetica,sans-Serif" font-size="10.00" fill="#000000">+ initialize()</text>
<text text-anchor="start" x="494.2113" y="-409.5" font-family="Helvetica,sans-Serif" font-size="10.00" fill="#000000">+ initialize()</text>
<text text-anchor="start" x="494.2113" y="-398.5" font-family="Helvetica,sans-Serif" font-size="10.00" fill="#000000">+ getNextValue()</text>
<text text-anchor="start" x="494.2113" y="-387.5" font-family="Helvetica,sans-Serif" font-size="10.00" fill="#000000">+ getNextValueVc()</text>
<text text-anchor="start" x="494.2113" y="-376.5" font-family="Helvetica,sans-Serif" font-size="10.00" fill="#000000">+ getRingPosition()</text>
</a>
</g>
</g>
<!-- Node6&#45;&gt;Node1 -->
<g id="edge5" class="edge">
<title>Node6&#45;&gt;Node1</title>
<path fill="none" stroke="#404040" d="M544.7232,-369.1087C535.876,-339.0697 524.2874,-304.279 510.7113,-274 509.6079,-271.539 508.4723,-269.0676 507.3084,-266.5897"/>
<polygon fill="none" stroke="#404040" points="507.2632,-266.4963 501.0485,-262.8388 502.0343,-255.6954 508.2491,-259.3529 507.2632,-266.4963"/>
<text text-anchor="middle" x="581.2113" y="-293.5" font-family="Helvetica,sans-Serif" font-size="10.00" fill="#000000"> #mBCJumpGenerator</text>
</g>
<!-- Node7 -->
<g id="node7" class="node">
<title>Node7</title>
<g id="a_node7"><a xlink:href="../../dc/dfc/classo2_1_1math__utils_1_1RandomRing.html" target="_top" xlink:title="{o2::math_utils::RandomRing\&lt; N \&gt;\n||+ RandomRing()\l+ RandomRing()\l+ initialize()\l+ initialize()\l+ initialize()\l+ getNextValue()\l+ getNextValueVc()\l+ getRingPosition()\l}">
<polygon fill="none" stroke="#000000" points="557.2113,-733 557.2113,-867 742.2113,-867 742.2113,-733 557.2113,-733"/>
<text text-anchor="middle" x="649.7113" y="-855" font-family="Helvetica,sans-Serif" font-size="10.00" fill="#000000">o2::math_utils::RandomRing&lt; N &gt;</text>
<polyline fill="none" stroke="#000000" points="557.2113,-848 742.2113,-848 "/>
<text text-anchor="middle" x="649.7113" y="-836" font-family="Helvetica,sans-Serif" font-size="10.00" fill="#000000"> </text>
<polyline fill="none" stroke="#000000" points="557.2113,-829 742.2113,-829 "/>
<text text-anchor="start" x="565.2113" y="-817" font-family="Helvetica,sans-Serif" font-size="10.00" fill="#000000">+ RandomRing()</text>
<text text-anchor="start" x="565.2113" y="-806" font-family="Helvetica,sans-Serif" font-size="10.00" fill="#000000">+ RandomRing()</text>
<text text-anchor="start" x="565.2113" y="-795" font-family="Helvetica,sans-Serif" font-size="10.00" fill="#000000">+ initialize()</text>
<text text-anchor="start" x="565.2113" y="-784" font-family="Helvetica,sans-Serif" font-size="10.00" fill="#000000">+ initialize()</text>
<text text-anchor="start" x="565.2113" y="-773" font-family="Helvetica,sans-Serif" font-size="10.00" fill="#000000">+ initialize()</text>
<text text-anchor="start" x="565.2113" y="-762" font-family="Helvetica,sans-Serif" font-size="10.00" fill="#000000">+ getNextValue()</text>
<text text-anchor="start" x="565.2113" y="-751" font-family="Helvetica,sans-Serif" font-size="10.00" fill="#000000">+ getNextValueVc()</text>
<text text-anchor="start" x="565.2113" y="-740" font-family="Helvetica,sans-Serif" font-size="10.00" fill="#000000">+ getRingPosition()</text>
</a>
</g>
</g>
<!-- Node7&#45;&gt;Node6 -->
<g id="edge6" class="edge">
<title>Node7&#45;&gt;Node6</title>
<path fill="none" stroke="#ffa500" d="M631.1143,-722.5844C616.2829,-660.8447 595.6616,-575.0023 581.1446,-514.5713"/>
<polygon fill="#ffa500" stroke="#ffa500" points="627.7963,-723.7571 633.5354,-732.6629 634.6027,-722.122 627.7963,-723.7571"/>
<text text-anchor="middle" x="621.7113" y="-569" font-family="Helvetica,sans-Serif" font-size="10.00" fill="#000000"> &lt; 10000 &gt;</text>
</g>
<!-- Node10 -->
<g id="node10" class="node">
<title>Node10</title>
<g id="a_node10"><a xlink:href="../../dc/dfc/classo2_1_1math__utils_1_1RandomRing.html" target="_top" xlink:title="{o2::math_utils::RandomRing\l\&lt; 1000 \&gt;\n||+ RandomRing()\l+ RandomRing()\l+ initialize()\l+ initialize()\l+ initialize()\l+ getNextValue()\l+ getNextValueVc()\l+ getRingPosition()\l}">
<polygon fill="none" stroke="#000000" points="659.2113,-369.5 659.2113,-514.5 814.2113,-514.5 814.2113,-369.5 659.2113,-369.5"/>
<text text-anchor="start" x="667.2113" y="-502.5" font-family="Helvetica,sans-Serif" font-size="10.00" fill="#000000">o2::math_utils::RandomRing</text>
<text text-anchor="middle" x="736.7113" y="-491.5" font-family="Helvetica,sans-Serif" font-size="10.00" fill="#000000">&lt; 1000 &gt;</text>
<polyline fill="none" stroke="#000000" points="659.2113,-484.5 814.2113,-484.5 "/>
<text text-anchor="middle" x="736.7113" y="-472.5" font-family="Helvetica,sans-Serif" font-size="10.00" fill="#000000"> </text>
<polyline fill="none" stroke="#000000" points="659.2113,-465.5 814.2113,-465.5 "/>
<text text-anchor="start" x="667.2113" y="-453.5" font-family="Helvetica,sans-Serif" font-size="10.00" fill="#000000">+ RandomRing()</text>
<text text-anchor="start" x="667.2113" y="-442.5" font-family="Helvetica,sans-Serif" font-size="10.00" fill="#000000">+ RandomRing()</text>
<text text-anchor="start" x="667.2113" y="-431.5" font-family="Helvetica,sans-Serif" font-size="10.00" fill="#000000">+ initialize()</text>
<text text-anchor="start" x="667.2113" y="-420.5" font-family="Helvetica,sans-Serif" font-size="10.00" fill="#000000">+ initialize()</text>
<text text-anchor="start" x="667.2113" y="-409.5" font-family="Helvetica,sans-Serif" font-size="10.00" fill="#000000">+ initialize()</text>
<text text-anchor="start" x="667.2113" y="-398.5" font-family="Helvetica,sans-Serif" font-size="10.00" fill="#000000">+ getNextValue()</text>
<text text-anchor="start" x="667.2113" y="-387.5" font-family="Helvetica,sans-Serif" font-size="10.00" fill="#000000">+ getNextValueVc()</text>
<text text-anchor="start" x="667.2113" y="-376.5" font-family="Helvetica,sans-Serif" font-size="10.00" fill="#000000">+ getRingPosition()</text>
</a>
</g>
</g>
<!-- Node7&#45;&gt;Node10 -->
<g id="edge10" class="edge">
<title>Node7&#45;&gt;Node10</title>
<path fill="none" stroke="#ffa500" d="M668.5246,-722.5844C683.5284,-660.8447 704.3895,-575.0023 719.0753,-514.5713"/>
<polygon fill="#ffa500" stroke="#ffa500" points="665.0359,-722.1192 666.0754,-732.6629 671.8379,-723.7723 665.0359,-722.1192"/>
<text text-anchor="middle" x="730.7113" y="-569" font-family="Helvetica,sans-Serif" font-size="10.00" fill="#000000"> &lt; 1000 &gt;</text>
</g>
<!-- Node8 -->
<g id="node8" class="node">
<title>Node8</title>
<g id="a_node8"><a xlink:href="../../d6/dca/classo2_1_1BunchFilling.html" target="_top" xlink:title="{o2::BunchFilling\n||+ getNBunches()\l+ testBC()\l+ setBC()\l+ setBCTrain()\l+ setBCTrains()\l+ print()\l+ getPattern()\l+ setDefault()\l+ loadFrom()\l}">
<polygon fill="none" stroke="#000000" points="832.7113,-369.5 832.7113,-514.5 932.7113,-514.5 932.7113,-369.5 832.7113,-369.5"/>
<text text-anchor="middle" x="882.7113" y="-502.5" font-family="Helvetica,sans-Serif" font-size="10.00" fill="#000000">o2::BunchFilling</text>
<polyline fill="none" stroke="#000000" points="832.7113,-495.5 932.7113,-495.5 "/>
<text text-anchor="middle" x="882.7113" y="-483.5" font-family="Helvetica,sans-Serif" font-size="10.00" fill="#000000"> </text>
<polyline fill="none" stroke="#000000" points="832.7113,-476.5 932.7113,-476.5 "/>
<text text-anchor="start" x="840.7113" y="-464.5" font-family="Helvetica,sans-Serif" font-size="10.00" fill="#000000">+ getNBunches()</text>
<text text-anchor="start" x="840.7113" y="-453.5" font-family="Helvetica,sans-Serif" font-size="10.00" fill="#000000">+ testBC()</text>
<text text-anchor="start" x="840.7113" y="-442.5" font-family="Helvetica,sans-Serif" font-size="10.00" fill="#000000">+ setBC()</text>
<text text-anchor="start" x="840.7113" y="-431.5" font-family="Helvetica,sans-Serif" font-size="10.00" fill="#000000">+ setBCTrain()</text>
<text text-anchor="start" x="840.7113" y="-420.5" font-family="Helvetica,sans-Serif" font-size="10.00" fill="#000000">+ setBCTrains()</text>
<text text-anchor="start" x="840.7113" y="-409.5" font-family="Helvetica,sans-Serif" font-size="10.00" fill="#000000">+ print()</text>
<text text-anchor="start" x="840.7113" y="-398.5" font-family="Helvetica,sans-Serif" font-size="10.00" fill="#000000">+ getPattern()</text>
<text text-anchor="start" x="840.7113" y="-387.5" font-family="Helvetica,sans-Serif" font-size="10.00" fill="#000000">+ setDefault()</text>
<text text-anchor="start" x="840.7113" y="-376.5" font-family="Helvetica,sans-Serif" font-size="10.00" fill="#000000">+ loadFrom()</text>
</a>
</g>
</g>
<!-- Node8&#45;&gt;Node1 -->
<g id="edge7" class="edge">
<title>Node8&#45;&gt;Node1</title>
<path fill="none" stroke="#404040" d="M855.7218,-369.1628C840.5386,-336.4599 818.7237,-299.5687 789.7113,-274 710.993,-204.6252 595.2224,-165.9718 515.0537,-146.1302"/>
<polygon fill="none" stroke="#404040" points="514.664,-146.0362 507.8931,-148.5173 502.9987,-143.2216 509.7696,-140.7405 514.664,-146.0362"/>
<text text-anchor="middle" x="858.7113" y="-293.5" font-family="Helvetica,sans-Serif" font-size="10.00" fill="#000000"> #mBCFilling</text>
</g>
<!-- Node9 -->
<g id="node9" class="node">
<title>Node9</title>
<polygon fill="none" stroke="#bfbfbf" points="950.7113,-413.5 950.7113,-470.5 1042.7113,-470.5 1042.7113,-413.5 950.7113,-413.5"/>
<text text-anchor="middle" x="996.7113" y="-458.5" font-family="Helvetica,sans-Serif" font-size="10.00" fill="#000000">vector&lt; float &gt;</text>
<polyline fill="none" stroke="#bfbfbf" points="950.7113,-451.5 1042.7113,-451.5 "/>
<text text-anchor="middle" x="996.7113" y="-439.5" font-family="Helvetica,sans-Serif" font-size="10.00" fill="#000000"> </text>
<polyline fill="none" stroke="#bfbfbf" points="950.7113,-432.5 1042.7113,-432.5 "/>
<text text-anchor="middle" x="996.7113" y="-420.5" font-family="Helvetica,sans-Serif" font-size="10.00" fill="#000000"> </text>
</g>
<!-- Node9&#45;&gt;Node1 -->
<g id="edge8" class="edge">
<title>Node9&#45;&gt;Node1</title>
<path fill="none" stroke="#404040" d="M987.5784,-413.4586C973.8262,-375.3282 944.0269,-308.5683 894.7113,-274 778.5087,-192.5466 615.3162,-155.3637 514.7061,-139.2711"/>
<polygon fill="none" stroke="#404040" points="514.6115,-139.2564 508.0679,-142.2864 502.7542,-137.4115 509.2978,-134.3815 514.6115,-139.2564"/>
<text text-anchor="middle" x="970.2113" y="-293.5" font-family="Helvetica,sans-Serif" font-size="10.00" fill="#000000"> #mTimeInBC</text>
</g>
<!-- Node10&#45;&gt;Node1 -->
<g id="edge9" class="edge">
<title>Node10&#45;&gt;Node1</title>
<path fill="none" stroke="#404040" d="M704.0087,-369.3679C687.5927,-337.842 665.6532,-301.8458 639.7113,-274 603.5175,-235.1499 555.1385,-201.2477 513.3417,-175.9165"/>
<polygon fill="none" stroke="#404040" points="513.1718,-175.8151 505.9696,-176.1736 502.8686,-169.6632 510.0709,-169.3048 513.1718,-175.8151"/>
<text text-anchor="middle" x="728.7113" y="-299" font-family="Helvetica,sans-Serif" font-size="10.00" fill="#000000"> #mCollTimeGenerator</text>
<text text-anchor="middle" x="728.7113" y="-288" font-family="Helvetica,sans-Serif" font-size="10.00" fill="#000000">#mNCollBCGenerator</text>
</g>
<!-- Node11&#45;&gt;Node1 -->
<g id="edge11" class="edge">
<title>Node11&#45;&gt;Node1</title>
<path fill="none" stroke="#404040" d="M143.9125,-336.108C148.3954,-314.1594 156.0438,-292.2028 168.7113,-274 208.1039,-217.3944 277.0016,-179.8589 333.2577,-157.0377"/>
<polygon fill="none" stroke="#404040" points="333.5276,-156.9314 337.6419,-151.0091 344.691,-152.5291 340.5767,-158.4514 333.5276,-156.9314"/>
<text text-anchor="middle" x="194.7113" y="-299" font-family="Helvetica,sans-Serif" font-size="10.00" fill="#000000"> #mFirstIR</text>
<text text-anchor="middle" x="194.7113" y="-288" font-family="Helvetica,sans-Serif" font-size="10.00" fill="#000000">#mIR</text>
</g>
<!-- Node12&#45;&gt;Node11 -->
<g id="edge12" class="edge">
<title>Node12&#45;&gt;Node11</title>
<path fill="none" stroke="#191970" d="M189.0878,-596.632C183.8109,-579.7647 178.626,-563.1916 173.7253,-547.5269"/>
<polygon fill="none" stroke="#191970" points="185.8777,-598.0937 192.2039,-606.5925 192.5584,-596.0036 185.8777,-598.0937"/>
</g>
<!-- Node13 -->
<g id="node13" class="node">
<title>Node13</title>
<polygon fill="none" stroke="#bfbfbf" points="219.7113,-1063.5 219.7113,-1120.5 275.7113,-1120.5 275.7113,-1063.5 219.7113,-1063.5"/>
<text text-anchor="middle" x="247.7113" y="-1108.5" font-family="Helvetica,sans-Serif" font-size="10.00" fill="#000000">uint16_t</text>
<polyline fill="none" stroke="#bfbfbf" points="219.7113,-1101.5 275.7113,-1101.5 "/>
<text text-anchor="middle" x="247.7113" y="-1089.5" font-family="Helvetica,sans-Serif" font-size="10.00" fill="#000000"> </text>
<polyline fill="none" stroke="#bfbfbf" points="219.7113,-1082.5 275.7113,-1082.5 "/>
<text text-anchor="middle" x="247.7113" y="-1070.5" font-family="Helvetica,sans-Serif" font-size="10.00" fill="#000000"> </text>
</g>
<!-- Node13&#45;&gt;Node12 -->
<g id="edge14" class="edge">
<title>Node13&#45;&gt;Node12</title>
<path fill="none" stroke="#404040" d="M248.1028,-1063.4646C248.2791,-1051.0347 248.4957,-1036.2965 248.7113,-1023 248.7448,-1020.9371 248.7786,-1018.8636 248.8127,-1016.7806"/>
<polygon fill="none" stroke="#404040" points="248.813,-1016.7558 244.9126,-1010.6905 249.0112,-1004.7574 252.9115,-1010.8227 248.813,-1016.7558"/>
<text text-anchor="middle" x="280.7113" y="-1037" font-family="Helvetica,sans-Serif" font-size="10.00" fill="#000000"> +DummyBC</text>
<text text-anchor="middle" x="280.7113" y="-1026" font-family="Helvetica,sans-Serif" font-size="10.00" fill="#000000">+bc</text>
</g>
<!-- Node14 -->
<g id="node14" class="node">
<title>Node14</title>
<g id="a_node14"><a xlink:href="../../d3/d87/classuint32__t.html" target="_top" xlink:title="{uint32_t\n||}">
<polygon fill="none" stroke="#000000" points="306.7113,-1063.5 306.7113,-1120.5 362.7113,-1120.5 362.7113,-1063.5 306.7113,-1063.5"/>
<text text-anchor="middle" x="334.7113" y="-1108.5" font-family="Helvetica,sans-Serif" font-size="10.00" fill="#000000">uint32_t</text>
<polyline fill="none" stroke="#000000" points="306.7113,-1101.5 362.7113,-1101.5 "/>
<text text-anchor="middle" x="334.7113" y="-1089.5" font-family="Helvetica,sans-Serif" font-size="10.00" fill="#000000"> </text>
<polyline fill="none" stroke="#000000" points="306.7113,-1082.5 362.7113,-1082.5 "/>
<text text-anchor="middle" x="334.7113" y="-1070.5" font-family="Helvetica,sans-Serif" font-size="10.00" fill="#000000"> </text>
</a>
</g>
</g>
<!-- Node14&#45;&gt;Node12 -->
<g id="edge15" class="edge">
<title>Node14&#45;&gt;Node12</title>
<path fill="none" stroke="#404040" d="M326.6995,-1063.4702C323.1119,-1050.6948 318.5351,-1034.3968 313.4215,-1016.1873"/>
<polygon fill="none" stroke="#404040" points="313.4166,-1016.1699 307.9434,-1011.4748 310.1722,-1004.6168 315.6454,-1009.3118 313.4166,-1016.1699"/>
<text text-anchor="middle" x="356.7113" y="-1037" font-family="Helvetica,sans-Serif" font-size="10.00" fill="#000000"> +orbit</text>
<text text-anchor="middle" x="356.7113" y="-1026" font-family="Helvetica,sans-Serif" font-size="10.00" fill="#000000">+DummyOrbit</text>
</g>
</g>
</svg>
