<?xml version="1.0" encoding="UTF-8" standalone="no"?>
<!DOCTYPE svg PUBLIC "-//W3C//DTD SVG 1.1//EN"
 "http://www.w3.org/Graphics/SVG/1.1/DTD/svg11.dtd">
<!-- Generated by graphviz version 2.40.1 (20161225.0304)
 -->
<!-- Title: /home/travis/build/AliceO2Group/AliceO2/Detectors/ITSMFT/common/reconstruction/include/ITSMFTReconstruction/RawPixelReader.h Pages: 1 -->
<svg width="3661pt" height="519pt"
 viewBox="0.00 0.00 3661.00 519.00" xmlns="http://www.w3.org/2000/svg" xmlns:xlink="http://www.w3.org/1999/xlink">
<g id="graph0" class="graph" transform="scale(1 1) rotate(0) translate(4 515)">
<title>/home/travis/build/AliceO2Group/AliceO2/Detectors/ITSMFT/common/reconstruction/include/ITSMFTReconstruction/RawPixelReader.h</title>
<!-- Node0 -->
<g id="node1" class="node">
<title>Node0</title>
<polygon fill="#bfbfbf" stroke="#000000" points="1956,-447.5 1956,-510.5 2172,-510.5 2172,-447.5 1956,-447.5"/>
<text text-anchor="start" x="1964" y="-498.5" font-family="Helvetica,sans-Serif" font-size="10.00" fill="#000000">/home/travis/build</text>
<text text-anchor="start" x="1964" y="-487.5" font-family="Helvetica,sans-Serif" font-size="10.00" fill="#000000">/AliceO2Group/AliceO2</text>
<text text-anchor="start" x="1964" y="-476.5" font-family="Helvetica,sans-Serif" font-size="10.00" fill="#000000">/Detectors/ITSMFT/common</text>
<text text-anchor="start" x="1964" y="-465.5" font-family="Helvetica,sans-Serif" font-size="10.00" fill="#000000">/reconstruction/include</text>
<text text-anchor="middle" x="2064" y="-454.5" font-family="Helvetica,sans-Serif" font-size="10.00" fill="#000000">/ITSMFTReconstruction/RawPixelReader.h</text>
</g>
<!-- Node1 -->
<g id="node2" class="node">
<title>Node1</title>
<g id="a_node2"><a xlink:href="../../d4/dee/RAWDataHeader_8h.html" target="_top" xlink:title="Definition of the RAW Data Header. ">
<polygon fill="none" stroke="#000000" points="1920.5,-118 1920.5,-137 2069.5,-137 2069.5,-118 1920.5,-118"/>
<text text-anchor="middle" x="1995" y="-125" font-family="Helvetica,sans-Serif" font-size="10.00" fill="#000000">Headers/RAWDataHeader.h</text>
</a>
</g>
</g>
<!-- Node0&#45;&gt;Node1 -->
<g id="edge1" class="edge">
<title>Node0&#45;&gt;Node1</title>
<path fill="none" stroke="#191970" d="M2066.0394,-447.1393C2068.0939,-401.72 2068.7938,-316.0948 2051,-246 2041.4898,-208.5367 2019.9451,-168.6174 2006.5234,-145.9952"/>
<polygon fill="#191970" stroke="#191970" points="2009.3403,-143.8903 2001.1638,-137.1526 2003.354,-147.5186 2009.3403,-143.8903"/>
</g>
<!-- Node3 -->
<g id="node4" class="node">
<title>Node3</title>
<g id="a_node4"><a xlink:href="../../d9/d80/InteractionRecord_8h.html" target="_top" xlink:title="CommonDataFormat/Interaction\lRecord.h">
<polygon fill="none" stroke="#000000" points="960,-112.5 960,-142.5 1134,-142.5 1134,-112.5 960,-112.5"/>
<text text-anchor="start" x="968" y="-130.5" font-family="Helvetica,sans-Serif" font-size="10.00" fill="#000000">CommonDataFormat/Interaction</text>
<text text-anchor="middle" x="1047" y="-119.5" font-family="Helvetica,sans-Serif" font-size="10.00" fill="#000000">Record.h</text>
</a>
</g>
</g>
<!-- Node0&#45;&gt;Node3 -->
<g id="edge3" class="edge">
<title>Node0&#45;&gt;Node3</title>
<path fill="none" stroke="#191970" d="M1955.6709,-477.3067C1751.0062,-473.0291 1315.286,-458.4785 1173,-411 1120.4884,-393.4777 1094.6088,-392.5434 1068,-344 1032.0528,-278.4203 1130.4357,-247.749 1101,-179 1096.0603,-167.4629 1087.1263,-157.2827 1077.9284,-149.0845"/>
<polygon fill="#191970" stroke="#191970" points="1080.1493,-146.3793 1070.222,-142.678 1075.6744,-151.7622 1080.1493,-146.3793"/>
</g>
<!-- Node9 -->
<g id="node10" class="node">
<title>Node9</title>
<g id="a_node10"><a xlink:href="../../df/d2e/PixelReader_8h.html" target="_top" xlink:title="Abstract class for Alpide data reader class. ">
<polygon fill="none" stroke="#000000" points="288.5,-246.5 288.5,-276.5 411.5,-276.5 411.5,-246.5 288.5,-246.5"/>
<text text-anchor="start" x="296.5" y="-264.5" font-family="Helvetica,sans-Serif" font-size="10.00" fill="#000000">ITSMFTReconstruction</text>
<text text-anchor="middle" x="350" y="-253.5" font-family="Helvetica,sans-Serif" font-size="10.00" fill="#000000">/PixelReader.h</text>
</a>
</g>
</g>
<!-- Node0&#45;&gt;Node9 -->
<g id="edge10" class="edge">
<title>Node0&#45;&gt;Node9</title>
<path fill="none" stroke="#191970" d="M1955.8104,-477.4107C1635.1412,-472.233 704.0181,-453.6631 574,-411 491.8811,-384.0542 411.5621,-318.0738 373.26,-283.4801"/>
<polygon fill="#191970" stroke="#191970" points="375.4799,-280.7672 365.739,-276.5999 370.755,-285.9322 375.4799,-280.7672"/>
</g>
<!-- Node10 -->
<g id="node11" class="node">
<title>Node10</title>
<g id="a_node11"><a xlink:href="../../da/d8d/PixelData_8h.html" target="_top" xlink:title="Transient data classes for single pixel and set of pixels from current chip. ">
<polygon fill="none" stroke="#000000" points="288.5,-179.5 288.5,-209.5 411.5,-209.5 411.5,-179.5 288.5,-179.5"/>
<text text-anchor="start" x="296.5" y="-197.5" font-family="Helvetica,sans-Serif" font-size="10.00" fill="#000000">ITSMFTReconstruction</text>
<text text-anchor="middle" x="350" y="-186.5" font-family="Helvetica,sans-Serif" font-size="10.00" fill="#000000">/PixelData.h</text>
</a>
</g>
</g>
<!-- Node0&#45;&gt;Node10 -->
<g id="edge34" class="edge">
<title>Node0&#45;&gt;Node10</title>
<path fill="none" stroke="#191970" d="M1955.7487,-477.6422C1700.42,-473.6731 1066.5745,-459.1365 860,-411 672.1518,-367.2272 465.6762,-259.1961 385.0072,-214.4288"/>
<polygon fill="#191970" stroke="#191970" points="386.6872,-211.3583 376.2492,-209.5421 383.2764,-217.4711 386.6872,-211.3583"/>
</g>
<!-- Node12 -->
<g id="node13" class="node">
<title>Node12</title>
<polygon fill="none" stroke="#bfbfbf" points="464,-56.5 464,-75.5 514,-75.5 514,-56.5 464,-56.5"/>
<text text-anchor="middle" x="489" y="-63.5" font-family="Helvetica,sans-Serif" font-size="10.00" fill="#000000">climits</text>
</g>
<!-- Node0&#45;&gt;Node12 -->
<g id="edge142" class="edge">
<title>Node0&#45;&gt;Node12</title>
<path fill="none" stroke="#191970" d="M1955.8414,-476.9016C1588.2876,-469.5057 400.7466,-443.3447 232,-411 124.5201,-390.3986 0,-437.9365 0,-328.5 0,-328.5 0,-328.5 0,-194.5 0,-100.6426 341.2352,-73.924 453.5987,-67.6702"/>
<polygon fill="#191970" stroke="#191970" points="453.9404,-71.157 463.7389,-67.1273 453.5661,-64.167 453.9404,-71.157"/>
</g>
<!-- Node13 -->
<g id="node14" class="node">
<title>Node13</title>
<polygon fill="none" stroke="#bfbfbf" points="478.5,-118 478.5,-137 525.5,-137 525.5,-118 478.5,-118"/>
<text text-anchor="middle" x="502" y="-125" font-family="Helvetica,sans-Serif" font-size="10.00" fill="#000000">vector</text>
</g>
<!-- Node0&#45;&gt;Node13 -->
<g id="edge140" class="edge">
<title>Node0&#45;&gt;Node13</title>
<path fill="none" stroke="#191970" d="M1955.7452,-477.6719C1650.0083,-473.3822 784.0695,-457.3726 504,-411 375.1673,-389.6685 222,-459.0867 222,-328.5 222,-328.5 222,-328.5 222,-261.5 222,-219.0788 235.2639,-203.3507 270,-179 343.5973,-127.4068 383.378,-170.3366 469,-143 470.8542,-142.408 472.739,-141.7346 474.6205,-141.0079"/>
<polygon fill="#191970" stroke="#191970" points="476.0258,-144.2136 483.841,-137.06 473.2706,-137.7786 476.0258,-144.2136"/>
</g>
<!-- Node17 -->
<g id="node18" class="node">
<title>Node17</title>
<polygon fill="none" stroke="#bfbfbf" points="2645,-118 2645,-137 2697,-137 2697,-118 2645,-118"/>
<text text-anchor="middle" x="2671" y="-125" font-family="Helvetica,sans-Serif" font-size="10.00" fill="#000000">cassert</text>
</g>
<!-- Node0&#45;&gt;Node17 -->
<g id="edge145" class="edge">
<title>Node0&#45;&gt;Node17</title>
<path fill="none" stroke="#191970" d="M2172.0494,-470.0238C2382.0651,-450.0988 2832.9602,-394.3631 2926,-277 2934.5591,-266.2033 2934.0244,-257.1998 2926,-246 2897.0225,-205.5555 2865.4998,-230.1302 2820,-210 2774.1286,-189.7053 2723.623,-160.0804 2694.7679,-142.4025"/>
<polygon fill="#191970" stroke="#191970" points="2696.5412,-139.3841 2686.1934,-137.1097 2692.8644,-145.3407 2696.5412,-139.3841"/>
</g>
<!-- Node22 -->
<g id="node23" class="node">
<title>Node22</title>
<polygon fill="none" stroke="#bfbfbf" points="1598,-118 1598,-137 1656,-137 1656,-118 1598,-118"/>
<text text-anchor="middle" x="1627" y="-125" font-family="Helvetica,sans-Serif" font-size="10.00" fill="#000000">memory</text>
</g>
<!-- Node0&#45;&gt;Node22 -->
<g id="edge143" class="edge">
<title>Node0&#45;&gt;Node22</title>
<path fill="none" stroke="#191970" d="M1984.645,-447.4906C1935.0442,-424.6526 1872.5429,-389.7606 1829,-344 1795.2936,-308.5769 1810.1321,-283.7055 1779,-246 1741.9651,-201.1454 1685.1372,-162.5656 1652.4753,-142.4222"/>
<polygon fill="#191970" stroke="#191970" points="1653.9166,-139.2028 1643.5516,-137.0076 1650.2853,-145.1874 1653.9166,-139.2028"/>
</g>
<!-- Node23 -->
<g id="node24" class="node">
<title>Node23</title>
<g id="a_node24"><a xlink:href="../../d3/d57/ChipMappingITS_8h.html" target="_top" xlink:title="ITSMFTReconstruction\l/ChipMappingITS.h">
<polygon fill="none" stroke="#000000" points="2484.5,-313.5 2484.5,-343.5 2607.5,-343.5 2607.5,-313.5 2484.5,-313.5"/>
<text text-anchor="start" x="2492.5" y="-331.5" font-family="Helvetica,sans-Serif" font-size="10.00" fill="#000000">ITSMFTReconstruction</text>
<text text-anchor="middle" x="2546" y="-320.5" font-family="Helvetica,sans-Serif" font-size="10.00" fill="#000000">/ChipMappingITS.h</text>
</a>
</g>
</g>
<!-- Node0&#45;&gt;Node23 -->
<g id="edge35" class="edge">
<title>Node0&#45;&gt;Node23</title>
<path fill="none" stroke="#191970" d="M2165.043,-447.4503C2262.9924,-416.8665 2408.1435,-371.5444 2488.0309,-346.6003"/>
<polygon fill="#191970" stroke="#191970" points="2489.412,-349.8358 2497.9143,-343.5143 2487.3256,-343.1539 2489.412,-349.8358"/>
</g>
<!-- Node24 -->
<g id="node25" class="node">
<title>Node24</title>
<polygon fill="none" stroke="#bfbfbf" points="3289,-118 3289,-137 3331,-137 3331,-118 3289,-118"/>
<text text-anchor="middle" x="3310" y="-125" font-family="Helvetica,sans-Serif" font-size="10.00" fill="#000000">array</text>
</g>
<!-- Node0&#45;&gt;Node24 -->
<g id="edge148" class="edge">
<title>Node0&#45;&gt;Node24</title>
<path fill="none" stroke="#191970" d="M2172.2549,-476.1992C2460.1762,-467.3194 3223,-433.8519 3223,-328.5 3223,-328.5 3223,-328.5 3223,-261.5 3223,-212.4444 3264.5236,-167.2136 3290.1971,-143.9363"/>
<polygon fill="#191970" stroke="#191970" points="3292.6959,-146.4001 3297.903,-137.1731 3288.0784,-141.139 3292.6959,-146.4001"/>
</g>
<!-- Node28 -->
<g id="node29" class="node">
<title>Node28</title>
<polygon fill="none" stroke="#bfbfbf" points="3229,-56.5 3229,-75.5 3293,-75.5 3293,-56.5 3229,-56.5"/>
<text text-anchor="middle" x="3261" y="-63.5" font-family="Helvetica,sans-Serif" font-size="10.00" fill="#000000">algorithm</text>
</g>
<!-- Node0&#45;&gt;Node28 -->
<g id="edge144" class="edge">
<title>Node0&#45;&gt;Node28</title>
<path fill="none" stroke="#191970" d="M2172.0489,-477.3134C2400.8871,-472.8621 2927.5471,-457.7258 3100,-411 3254.3268,-369.1854 3301.5822,-298.2073 3340,-143 3343.3105,-129.6258 3346.8669,-123.9446 3340,-112 3331.6295,-97.4399 3316.6806,-87.0571 3302.022,-79.8859"/>
<polygon fill="#191970" stroke="#191970" points="3303.0605,-76.5162 3292.5032,-75.6256 3300.2009,-82.9055 3303.0605,-76.5162"/>
</g>
<!-- Node33 -->
<g id="node34" class="node">
<title>Node33</title>
<polygon fill="none" stroke="#bfbfbf" points="2983,-185 2983,-204 3027,-204 3027,-185 2983,-185"/>
<text text-anchor="middle" x="3005" y="-192" font-family="Helvetica,sans-Serif" font-size="10.00" fill="#000000">bitset</text>
</g>
<!-- Node0&#45;&gt;Node33 -->
<g id="edge149" class="edge">
<title>Node0&#45;&gt;Node33</title>
<path fill="none" stroke="#191970" d="M2172.0648,-477.9303C2397.2974,-474.689 2900.9395,-461.7829 2959,-411 3016.615,-360.6066 3012.4188,-257.5526 3007.7203,-214.3026"/>
<polygon fill="#191970" stroke="#191970" points="3011.1759,-213.7243 3006.4925,-204.2208 3004.2272,-214.5706 3011.1759,-213.7243"/>
</g>
<!-- Node34 -->
<g id="node35" class="node">
<title>Node34</title>
<polygon fill="none" stroke="#bfbfbf" points="3045.5,-185 3045.5,-204 3118.5,-204 3118.5,-185 3045.5,-185"/>
<text text-anchor="middle" x="3082" y="-192" font-family="Helvetica,sans-Serif" font-size="10.00" fill="#000000">string_view</text>
</g>
<!-- Node0&#45;&gt;Node34 -->
<g id="edge147" class="edge">
<title>Node0&#45;&gt;Node34</title>
<path fill="none" stroke="#191970" d="M2172.1443,-477.0528C2401.1047,-472.0694 2919.2671,-455.9181 2985,-411 3053.1959,-364.3988 3074.0724,-257.9501 3079.917,-214.0172"/>
<polygon fill="#191970" stroke="#191970" points="3083.3969,-214.3941 3081.1229,-204.0462 3076.4475,-213.5536 3083.3969,-214.3941"/>
</g>
<!-- Node41 -->
<g id="node42" class="node">
<title>Node41</title>
<g id="a_node42"><a xlink:href="../../d8/da2/AlpideCoder_8h.html" target="_top" xlink:title="class for the ALPIDE data decoding/encoding ">
<polygon fill="none" stroke="#000000" points="841.5,-246.5 841.5,-276.5 964.5,-276.5 964.5,-246.5 841.5,-246.5"/>
<text text-anchor="start" x="849.5" y="-264.5" font-family="Helvetica,sans-Serif" font-size="10.00" fill="#000000">ITSMFTReconstruction</text>
<text text-anchor="middle" x="903" y="-253.5" font-family="Helvetica,sans-Serif" font-size="10.00" fill="#000000">/AlpideCoder.h</text>
</a>
</g>
</g>
<!-- Node0&#45;&gt;Node41 -->
<g id="edge76" class="edge">
<title>Node0&#45;&gt;Node41</title>
<path fill="none" stroke="#191970" d="M1955.6753,-477.6477C1700.6852,-473.6796 1077.9133,-459.1253 997,-411 949.9562,-383.0194 922.8111,-321.3562 910.6902,-286.5984"/>
<polygon fill="#191970" stroke="#191970" points="913.8877,-285.1228 907.4055,-276.7424 907.2468,-287.336 913.8877,-285.1228"/>
</g>
<!-- Node43 -->
<g id="node44" class="node">
<title>Node43</title>
<polygon fill="none" stroke="#bfbfbf" points="429.5,-185 429.5,-204 504.5,-204 504.5,-185 429.5,-185"/>
<text text-anchor="middle" x="467" y="-192" font-family="Helvetica,sans-Serif" font-size="10.00" fill="#000000">FairLogger.h</text>
</g>
<!-- Node0&#45;&gt;Node43 -->
<g id="edge139" class="edge">
<title>Node0&#45;&gt;Node43</title>
<path fill="none" stroke="#191970" d="M1955.6069,-477.441C1715.3574,-473.1583 1144.6211,-458.1968 958,-411 788.9324,-368.2425 762.6769,-313.7864 602,-246 568.859,-232.0185 530.4898,-217.5423 503.1466,-207.5121"/>
<polygon fill="#191970" stroke="#191970" points="504.1957,-204.1692 493.6018,-204.027 501.7948,-210.7446 504.1957,-204.1692"/>
</g>
<!-- Node45 -->
<g id="node46" class="node">
<title>Node45</title>
<g id="a_node46"><a xlink:href="../../d0/d35/PayLoadCont_8h.html" target="_top" xlink:title="Declaration of class for continuos buffer of ALPIDE data. ">
<polygon fill="none" stroke="#000000" points="1149.5,-185 1149.5,-204 1238.5,-204 1238.5,-185 1149.5,-185"/>
<text text-anchor="middle" x="1194" y="-192" font-family="Helvetica,sans-Serif" font-size="10.00" fill="#000000">PayLoadCont.h</text>
</a>
</g>
</g>
<!-- Node0&#45;&gt;Node45 -->
<g id="edge102" class="edge">
<title>Node0&#45;&gt;Node45</title>
<path fill="none" stroke="#191970" d="M1955.7711,-468.6039C1834.4696,-456.1171 1645.8925,-433.9667 1578,-411 1428.6348,-360.4726 1270.968,-251.045 1215.1077,-210.2508"/>
<polygon fill="#191970" stroke="#191970" points="1216.8731,-207.2045 1206.7439,-204.0979 1212.725,-212.8431 1216.8731,-207.2045"/>
</g>
<!-- Node49 -->
<g id="node50" class="node">
<title>Node49</title>
<g id="a_node50"><a xlink:href="../../dd/d86/GBTWord_8h.html" target="_top" xlink:title="ITSMFTReconstruction\l/GBTWord.h">
<polygon fill="none" stroke="#000000" points="2092.5,-313.5 2092.5,-343.5 2215.5,-343.5 2215.5,-313.5 2092.5,-313.5"/>
<text text-anchor="start" x="2100.5" y="-331.5" font-family="Helvetica,sans-Serif" font-size="10.00" fill="#000000">ITSMFTReconstruction</text>
<text text-anchor="middle" x="2154" y="-320.5" font-family="Helvetica,sans-Serif" font-size="10.00" fill="#000000">/GBTWord.h</text>
</a>
</g>
</g>
<!-- Node0&#45;&gt;Node49 -->
<g id="edge97" class="edge">
<title>Node0&#45;&gt;Node49</title>
<path fill="none" stroke="#191970" d="M2082.8669,-447.4503C2099.8525,-419.0466 2124.44,-377.9309 2139.8078,-352.2325"/>
<polygon fill="#191970" stroke="#191970" points="2142.8928,-353.8931 2145.0213,-343.5143 2136.8851,-350.3004 2142.8928,-353.8931"/>
</g>
<!-- Node50 -->
<g id="node51" class="node">
<title>Node50</title>
<g id="a_node51"><a xlink:href="../../de/da4/Triggers_8h.html" target="_top" xlink:title="Definition of the 32 Central Trigger System (CTS) Trigger Types defined in https://twiki.cern.ch/twiki/pub/ALICE/NoteForFEDevelopers/CTS_CRU_FE_interface.pdf. ">
<polygon fill="none" stroke="#000000" points="2306,-319 2306,-338 2466,-338 2466,-319 2306,-319"/>
<text text-anchor="middle" x="2386" y="-326" font-family="Helvetica,sans-Serif" font-size="10.00" fill="#000000">CommonConstants/Triggers.h</text>
</a>
</g>
</g>
<!-- Node0&#45;&gt;Node50 -->
<g id="edge100" class="edge">
<title>Node0&#45;&gt;Node50</title>
<path fill="none" stroke="#191970" d="M2131.5018,-447.4503C2200.8016,-415.0601 2305.4695,-366.1393 2356.2584,-342.401"/>
<polygon fill="#191970" stroke="#191970" points="2357.8057,-345.5413 2365.383,-338.1362 2354.8417,-339.1997 2357.8057,-345.5413"/>
</g>
<!-- Node51 -->
<g id="node52" class="node">
<title>Node51</title>
<g id="a_node52"><a xlink:href="../../d4/d20/PayLoadSG_8h.html" target="_top" xlink:title="Declaration of class for scatter&#45;gather buffer. ">
<polygon fill="none" stroke="#000000" points="969.5,-179.5 969.5,-209.5 1092.5,-209.5 1092.5,-179.5 969.5,-179.5"/>
<text text-anchor="start" x="977.5" y="-197.5" font-family="Helvetica,sans-Serif" font-size="10.00" fill="#000000">ITSMFTReconstruction</text>
<text text-anchor="middle" x="1031" y="-186.5" font-family="Helvetica,sans-Serif" font-size="10.00" fill="#000000">/PayLoadSG.h</text>
</a>
</g>
</g>
<!-- Node0&#45;&gt;Node51 -->
<g id="edge103" class="edge">
<title>Node0&#45;&gt;Node51</title>
<path fill="none" stroke="#191970" d="M1955.8856,-475.7518C1698.1168,-467.4876 1066.4291,-443.9591 1035,-411 985.4186,-359.005 1007.6366,-263.9833 1022.0848,-219.1546"/>
<polygon fill="#191970" stroke="#191970" points="1025.4155,-220.2305 1025.282,-209.6365 1018.7798,-218.0014 1025.4155,-220.2305"/>
</g>
<!-- Node52 -->
<g id="node53" class="node">
<title>Node52</title>
<g id="a_node53"><a xlink:href="../../d0/dd1/GBTLink_8h.html" target="_top" xlink:title="Declarations of helper classes for the ITS/MFT raw data decoding. ">
<polygon fill="none" stroke="#000000" points="1587.5,-380.5 1587.5,-410.5 1710.5,-410.5 1710.5,-380.5 1587.5,-380.5"/>
<text text-anchor="start" x="1595.5" y="-398.5" font-family="Helvetica,sans-Serif" font-size="10.00" fill="#000000">ITSMFTReconstruction</text>
<text text-anchor="middle" x="1649" y="-387.5" font-family="Helvetica,sans-Serif" font-size="10.00" fill="#000000">/GBTLink.h</text>
</a>
</g>
</g>
<!-- Node0&#45;&gt;Node52 -->
<g id="edge107" class="edge">
<title>Node0&#45;&gt;Node52</title>
<path fill="none" stroke="#191970" d="M1955.7764,-457.2249C1881.688,-442.318 1785.5074,-422.966 1720.7545,-409.9373"/>
<polygon fill="#191970" stroke="#191970" points="1721.134,-406.4436 1710.6401,-407.9023 1719.7532,-413.3061 1721.134,-406.4436"/>
</g>
<!-- Node53 -->
<g id="node54" class="node">
<title>Node53</title>
<g id="a_node54"><a xlink:href="../../db/d0e/RUDecodeData_8h.html" target="_top" xlink:title="Declaration of the Readout Unite decoder class. ">
<polygon fill="none" stroke="#000000" points="1077.5,-313.5 1077.5,-343.5 1200.5,-343.5 1200.5,-313.5 1077.5,-313.5"/>
<text text-anchor="start" x="1085.5" y="-331.5" font-family="Helvetica,sans-Serif" font-size="10.00" fill="#000000">ITSMFTReconstruction</text>
<text text-anchor="middle" x="1139" y="-320.5" font-family="Helvetica,sans-Serif" font-size="10.00" fill="#000000">/RUDecodeData.h</text>
</a>
</g>
</g>
<!-- Node0&#45;&gt;Node53 -->
<g id="edge135" class="edge">
<title>Node0&#45;&gt;Node53</title>
<path fill="none" stroke="#191970" d="M1955.8672,-474.7377C1742.0231,-465.6709 1280.0593,-442.6807 1215,-411 1188.4294,-398.0614 1166.6534,-371.4711 1153.3249,-351.9614"/>
<polygon fill="#191970" stroke="#191970" points="1156.2265,-350.0037 1147.8086,-343.5702 1150.3773,-353.849 1156.2265,-350.0037"/>
</g>
<!-- Node54 -->
<g id="node55" class="node">
<title>Node54</title>
<g id="a_node55"><a xlink:href="../../d6/dec/Raw_2include_2DetectorsRaw_2RDHUtils_8h.html" target="_top" xlink:title="DetectorsRaw/RDHUtils.h">
<polygon fill="none" stroke="#000000" points="1838.5,-319 1838.5,-338 1979.5,-338 1979.5,-319 1838.5,-319"/>
<text text-anchor="middle" x="1909" y="-326" font-family="Helvetica,sans-Serif" font-size="10.00" fill="#000000">DetectorsRaw/RDHUtils.h</text>
</a>
</g>
</g>
<!-- Node0&#45;&gt;Node54 -->
<g id="edge136" class="edge">
<title>Node0&#45;&gt;Node54</title>
<path fill="none" stroke="#191970" d="M2031.5069,-447.4503C1999.466,-416.3396 1951.7185,-369.9783 1926.3325,-345.3293"/>
<polygon fill="#191970" stroke="#191970" points="1928.537,-342.5913 1918.9243,-338.1362 1923.6606,-347.6135 1928.537,-342.5913"/>
</g>
<!-- Node57 -->
<g id="node58" class="node">
<title>Node57</title>
<polygon fill="none" stroke="#bfbfbf" points="3289,-386 3289,-405 3341,-405 3341,-386 3289,-386"/>
<text text-anchor="middle" x="3315" y="-393" font-family="Helvetica,sans-Serif" font-size="10.00" fill="#000000">TTree.h</text>
</g>
<!-- Node0&#45;&gt;Node57 -->
<g id="edge137" class="edge">
<title>Node0&#45;&gt;Node57</title>
<path fill="none" stroke="#191970" d="M2172.3089,-477.2519C2428.5964,-472.4166 3066.3495,-456.1028 3275,-411 3278.0324,-410.3445 3281.137,-409.4919 3284.21,-408.5238"/>
<polygon fill="#191970" stroke="#191970" points="3285.5295,-411.7697 3293.7916,-405.1373 3283.1968,-405.1698 3285.5295,-411.7697"/>
</g>
<!-- Node58 -->
<g id="node59" class="node">
<title>Node58</title>
<polygon fill="none" stroke="#bfbfbf" points="3359.5,-386 3359.5,-405 3442.5,-405 3442.5,-386 3359.5,-386"/>
<text text-anchor="middle" x="3401" y="-393" font-family="Helvetica,sans-Serif" font-size="10.00" fill="#000000">TStopwatch.h</text>
</g>
<!-- Node0&#45;&gt;Node58 -->
<g id="edge138" class="edge">
<title>Node0&#45;&gt;Node58</title>
<path fill="none" stroke="#191970" d="M2172.3475,-476.6431C2439.6176,-470.2865 3124.9809,-450.5392 3350,-411 3354.7082,-410.1727 3359.5928,-409.0482 3364.391,-407.7801"/>
<polygon fill="#191970" stroke="#191970" points="3365.3807,-411.1374 3374.0343,-405.0246 3363.4575,-404.4068 3365.3807,-411.1374"/>
</g>
<!-- Node59 -->
<g id="node60" class="node">
<title>Node59</title>
<polygon fill="none" stroke="#bfbfbf" points="3461,-386 3461,-405 3505,-405 3505,-386 3461,-386"/>
<text text-anchor="middle" x="3483" y="-393" font-family="Helvetica,sans-Serif" font-size="10.00" fill="#000000">limits</text>
</g>
<!-- Node0&#45;&gt;Node59 -->
<g id="edge141" class="edge">
<title>Node0&#45;&gt;Node59</title>
<path fill="none" stroke="#191970" d="M2172.1031,-476.2694C2477.0181,-468.2073 3329.6941,-443.0519 3452,-411 3453.9208,-410.4966 3455.8615,-409.8655 3457.7851,-409.1478"/>
<polygon fill="#191970" stroke="#191970" points="3459.3608,-412.278 3467.0887,-405.0303 3456.5277,-405.8769 3459.3608,-412.278"/>
</g>
<!-- Node60 -->
<g id="node61" class="node">
<title>Node60</title>
<polygon fill="none" stroke="#bfbfbf" points="3523.5,-386 3523.5,-405 3578.5,-405 3578.5,-386 3523.5,-386"/>
<text text-anchor="middle" x="3551" y="-393" font-family="Helvetica,sans-Serif" font-size="10.00" fill="#000000">fstream</text>
</g>
<!-- Node0&#45;&gt;Node60 -->
<g id="edge146" class="edge">
<title>Node0&#45;&gt;Node60</title>
<path fill="none" stroke="#191970" d="M2172.0319,-476.1073C2486.0382,-467.3947 3384.5114,-440.199 3514,-411 3516.8025,-410.3681 3519.6625,-409.5373 3522.4887,-408.5883"/>
<polygon fill="#191970" stroke="#191970" points="3523.7392,-411.8574 3531.8348,-405.0228 3521.244,-405.3171 3523.7392,-411.8574"/>
</g>
<!-- Node61 -->
<g id="node62" class="node">
<title>Node61</title>
<polygon fill="none" stroke="#bfbfbf" points="3597,-386 3597,-405 3653,-405 3653,-386 3597,-386"/>
<text text-anchor="middle" x="3625" y="-393" font-family="Helvetica,sans-Serif" font-size="10.00" fill="#000000">iomanip</text>
</g>
<!-- Node0&#45;&gt;Node61 -->
<g id="edge150" class="edge">
<title>Node0&#45;&gt;Node61</title>
<path fill="none" stroke="#191970" d="M2172.0218,-476.3723C2496.8988,-468.1631 3451.1152,-441.7034 3588,-411 3590.8032,-410.3712 3593.6637,-409.5427 3596.4902,-408.595"/>
<polygon fill="#191970" stroke="#191970" points="3597.7397,-411.8644 3605.8367,-405.0315 3595.2459,-405.3237 3597.7397,-411.8644"/>
</g>
<!-- Node2 -->
<g id="node3" class="node">
<title>Node2</title>
<polygon fill="none" stroke="#bfbfbf" points="1814,-56.5 1814,-75.5 1864,-75.5 1864,-56.5 1814,-56.5"/>
<text text-anchor="middle" x="1839" y="-63.5" font-family="Helvetica,sans-Serif" font-size="10.00" fill="#000000">cstdint</text>
</g>
<!-- Node1&#45;&gt;Node2 -->
<g id="edge2" class="edge">
<title>Node1&#45;&gt;Node2</title>
<path fill="none" stroke="#191970" d="M1970.625,-117.8906C1944.2944,-107.5103 1902.162,-90.9004 1872.6771,-79.2766"/>
<polygon fill="#191970" stroke="#191970" points="1873.7907,-75.9534 1863.2038,-75.5419 1871.2233,-82.4657 1873.7907,-75.9534"/>
</g>
<!-- Node3&#45;&gt;Node2 -->
<g id="edge8" class="edge">
<title>Node3&#45;&gt;Node2</title>
<path fill="none" stroke="#191970" d="M1134.2569,-113.6317C1138.9004,-113.043 1143.5033,-112.4938 1148,-112 1398.4776,-84.4943 1701.9692,-71.1944 1803.7906,-67.2756"/>
<polygon fill="#191970" stroke="#191970" points="1803.9717,-70.7714 1813.8318,-66.8946 1803.7062,-63.7764 1803.9717,-70.7714"/>
</g>
<!-- Node4 -->
<g id="node5" class="node">
<title>Node4</title>
<g id="a_node5"><a xlink:href="../../d2/d45/GPUCommonRtypes_8h.html" target="_top" xlink:title="GPUCommonRtypes.h">
<polygon fill="none" stroke="#000000" points="868.5,-56.5 868.5,-75.5 993.5,-75.5 993.5,-56.5 868.5,-56.5"/>
<text text-anchor="middle" x="931" y="-63.5" font-family="Helvetica,sans-Serif" font-size="10.00" fill="#000000">GPUCommonRtypes.h</text>
</a>
</g>
</g>
<!-- Node3&#45;&gt;Node4 -->
<g id="edge4" class="edge">
<title>Node3&#45;&gt;Node4</title>
<path fill="none" stroke="#191970" d="M1018.6232,-112.4554C1000.1172,-102.644 976.1112,-89.9167 957.9069,-80.2653"/>
<polygon fill="#191970" stroke="#191970" points="959.4505,-77.1222 948.9759,-75.5303 956.1715,-83.3068 959.4505,-77.1222"/>
</g>
<!-- Node6 -->
<g id="node7" class="node">
<title>Node6</title>
<polygon fill="none" stroke="#bfbfbf" points="1220.5,-56.5 1220.5,-75.5 1269.5,-75.5 1269.5,-56.5 1220.5,-56.5"/>
<text text-anchor="middle" x="1245" y="-63.5" font-family="Helvetica,sans-Serif" font-size="10.00" fill="#000000">iosfwd</text>
</g>
<!-- Node3&#45;&gt;Node6 -->
<g id="edge6" class="edge">
<title>Node3&#45;&gt;Node6</title>
<path fill="none" stroke="#191970" d="M1095.4362,-112.4554C1131.0772,-101.3851 1178.6698,-86.6026 1210.504,-76.7147"/>
<polygon fill="#191970" stroke="#191970" points="1211.7393,-79.996 1220.251,-73.6872 1209.6628,-73.3111 1211.7393,-79.996"/>
</g>
<!-- Node7 -->
<g id="node8" class="node">
<title>Node7</title>
<polygon fill="none" stroke="#bfbfbf" points="3065.5,-56.5 3065.5,-75.5 3112.5,-75.5 3112.5,-56.5 3065.5,-56.5"/>
<text text-anchor="middle" x="3089" y="-63.5" font-family="Helvetica,sans-Serif" font-size="10.00" fill="#000000">cmath</text>
</g>
<!-- Node3&#45;&gt;Node7 -->
<g id="edge7" class="edge">
<title>Node3&#45;&gt;Node7</title>
<path fill="none" stroke="#191970" d="M1134.4162,-118.4539C1161.4993,-115.9658 1191.4591,-113.5328 1219,-112 1968.2333,-70.3007 2157.1519,-104.5882 2907,-76 2958.8056,-74.0249 3018.8412,-70.4823 3055.3567,-68.1874"/>
<polygon fill="#191970" stroke="#191970" points="3055.6939,-71.6731 3065.4522,-67.547 3055.2507,-64.6872 3055.6939,-71.6731"/>
</g>
<!-- Node8 -->
<g id="node9" class="node">
<title>Node8</title>
<g id="a_node9"><a xlink:href="../../d4/dc6/LHCConstants_8h.html" target="_top" xlink:title="Header to collect LHC related constants. ">
<polygon fill="none" stroke="#000000" points="1012,-56.5 1012,-75.5 1202,-75.5 1202,-56.5 1012,-56.5"/>
<text text-anchor="middle" x="1107" y="-63.5" font-family="Helvetica,sans-Serif" font-size="10.00" fill="#000000">CommonConstants/LHCConstants.h</text>
</a>
</g>
</g>
<!-- Node3&#45;&gt;Node8 -->
<g id="edge9" class="edge">
<title>Node3&#45;&gt;Node8</title>
<path fill="none" stroke="#191970" d="M1061.8315,-112.2977C1070.4204,-103.4941 1081.2602,-92.3833 1090.1679,-83.2529"/>
<polygon fill="#191970" stroke="#191970" points="1092.9152,-85.4489 1097.3932,-75.8469 1087.9047,-80.5606 1092.9152,-85.4489"/>
</g>
<!-- Node5 -->
<g id="node6" class="node">
<title>Node5</title>
<polygon fill="none" stroke="#bfbfbf" points="901.5,-.5 901.5,-19.5 960.5,-19.5 960.5,-.5 901.5,-.5"/>
<text text-anchor="middle" x="931" y="-7.5" font-family="Helvetica,sans-Serif" font-size="10.00" fill="#000000">Rtypes.h</text>
</g>
<!-- Node4&#45;&gt;Node5 -->
<g id="edge5" class="edge">
<title>Node4&#45;&gt;Node5</title>
<path fill="none" stroke="#191970" d="M931,-56.2455C931,-48.9382 931,-38.6944 931,-29.7046"/>
<polygon fill="#191970" stroke="#191970" points="934.5001,-29.6426 931,-19.6427 927.5001,-29.6427 934.5001,-29.6426"/>
</g>
<!-- Node9&#45;&gt;Node3 -->
<g id="edge32" class="edge">
<title>Node9&#45;&gt;Node3</title>
<path fill="none" stroke="#191970" d="M411.6896,-258.351C490.0605,-253.2374 628.9593,-240.4351 744,-210 779.2664,-200.67 785.2061,-189.9614 820,-179 864.1578,-165.0886 914.255,-153.3144 956.1318,-144.5505"/>
<polygon fill="#191970" stroke="#191970" points="956.9541,-147.9546 966.0377,-142.5012 955.536,-141.0997 956.9541,-147.9546"/>
</g>
<!-- Node9&#45;&gt;Node5 -->
<g id="edge11" class="edge">
<title>Node9&#45;&gt;Node5</title>
<path fill="none" stroke="#191970" d="M288.2979,-259.642C211.227,-255.8705 85.9336,-244.4628 57,-210 48.141,-199.448 49.5923,-190.6169 57,-179 148.6846,-35.2182 731.7639,-13.7417 890.9146,-10.5524"/>
<polygon fill="#191970" stroke="#191970" points="891.2696,-14.0465 901.2024,-10.3603 891.1388,-7.0477 891.2696,-14.0465"/>
</g>
<!-- Node9&#45;&gt;Node10 -->
<g id="edge12" class="edge">
<title>Node9&#45;&gt;Node10</title>
<path fill="none" stroke="#191970" d="M350,-246.2967C350,-238.5013 350,-228.7991 350,-219.9064"/>
<polygon fill="#191970" stroke="#191970" points="353.5001,-219.6431 350,-209.6432 346.5001,-219.6432 353.5001,-219.6431"/>
</g>
<!-- Node9&#45;&gt;Node13 -->
<g id="edge33" class="edge">
<title>Node9&#45;&gt;Node13</title>
<path fill="none" stroke="#191970" d="M321.4222,-246.4406C293.9295,-230.012 259.231,-202.8664 279,-179 333.8257,-112.8108 387.2338,-169.4793 469,-143 470.8517,-142.4003 472.7347,-141.7211 474.6147,-140.9901"/>
<polygon fill="#191970" stroke="#191970" points="476.0245,-144.1938 483.8319,-137.0317 473.2622,-137.7618 476.0245,-144.1938"/>
</g>
<!-- Node15 -->
<g id="node16" class="node">
<title>Node15</title>
<g id="a_node16"><a xlink:href="../../d7/dcd/MCCompLabel_8h.html" target="_top" xlink:title="SimulationDataFormat\l/MCCompLabel.h">
<polygon fill="none" stroke="#000000" points="66.5,-179.5 66.5,-209.5 193.5,-209.5 193.5,-179.5 66.5,-179.5"/>
<text text-anchor="start" x="74.5" y="-197.5" font-family="Helvetica,sans-Serif" font-size="10.00" fill="#000000">SimulationDataFormat</text>
<text text-anchor="middle" x="130" y="-186.5" font-family="Helvetica,sans-Serif" font-size="10.00" fill="#000000">/MCCompLabel.h</text>
</a>
</g>
</g>
<!-- Node9&#45;&gt;Node15 -->
<g id="edge20" class="edge">
<title>Node9&#45;&gt;Node15</title>
<path fill="none" stroke="#191970" d="M300.6277,-246.4639C267.625,-236.4131 224.0337,-223.1375 189.1727,-212.5208"/>
<polygon fill="#191970" stroke="#191970" points="190.1735,-209.1669 179.5876,-209.6017 188.1342,-215.8633 190.1735,-209.1669"/>
</g>
<!-- Node16 -->
<g id="node17" class="node">
<title>Node16</title>
<g id="a_node17"><a xlink:href="../../db/d14/MCTruthContainer_8h.html" target="_top" xlink:title="Definition of a container to keep Monte Carlo truth external to simulation objects. ">
<polygon fill="none" stroke="#000000" points="1447.5,-179.5 1447.5,-209.5 1574.5,-209.5 1574.5,-179.5 1447.5,-179.5"/>
<text text-anchor="start" x="1455.5" y="-197.5" font-family="Helvetica,sans-Serif" font-size="10.00" fill="#000000">SimulationDataFormat</text>
<text text-anchor="middle" x="1511" y="-186.5" font-family="Helvetica,sans-Serif" font-size="10.00" fill="#000000">/MCTruthContainer.h</text>
</a>
</g>
</g>
<!-- Node9&#45;&gt;Node16 -->
<g id="edge22" class="edge">
<title>Node9&#45;&gt;Node16</title>
<path fill="none" stroke="#191970" d="M411.7178,-257.9841C557.2029,-249.6903 933.0228,-228.2304 1247,-210 1311.1333,-206.2762 1384.0269,-201.9926 1436.9455,-198.8736"/>
<polygon fill="#191970" stroke="#191970" points="1437.4778,-202.3484 1447.2544,-198.2658 1437.0657,-195.3605 1437.4778,-202.3484"/>
</g>
<!-- Node10&#45;&gt;Node2 -->
<g id="edge19" class="edge">
<title>Node10&#45;&gt;Node2</title>
<path fill="none" stroke="#191970" d="M403.7941,-179.4886C488.1935,-155.9602 642.8223,-112.9585 649,-112 765.492,-93.9256 1618.9405,-71.5455 1803.7625,-66.8776"/>
<polygon fill="#191970" stroke="#191970" points="1803.8512,-70.3766 1813.7599,-66.6259 1803.675,-63.3788 1803.8512,-70.3766"/>
</g>
<!-- Node10&#45;&gt;Node3 -->
<g id="edge16" class="edge">
<title>Node10&#45;&gt;Node3</title>
<path fill="none" stroke="#191970" d="M411.7511,-180.349C414.5331,-179.8622 417.2924,-179.409 420,-179 519.3675,-163.9889 799.863,-143.9475 949.7388,-133.8644"/>
<polygon fill="#191970" stroke="#191970" points="950.116,-137.347 959.8592,-133.1853 949.6473,-130.3627 950.116,-137.347"/>
</g>
<!-- Node11 -->
<g id="node12" class="node">
<title>Node11</title>
<g id="a_node12"><a xlink:href="../../d3/d1e/DataFormats_2Detectors_2ITSMFT_2common_2include_2DataFormatsITSMFT_2Digit_8h.html" target="_top" xlink:title="DataFormatsITSMFT/Digit.h">
<polygon fill="none" stroke="#000000" points="210.5,-118 210.5,-137 359.5,-137 359.5,-118 210.5,-118"/>
<text text-anchor="middle" x="285" y="-125" font-family="Helvetica,sans-Serif" font-size="10.00" fill="#000000">DataFormatsITSMFT/Digit.h</text>
</a>
</g>
</g>
<!-- Node10&#45;&gt;Node11 -->
<g id="edge13" class="edge">
<title>Node10&#45;&gt;Node11</title>
<path fill="none" stroke="#191970" d="M335.2505,-179.2967C325.1232,-168.8578 311.6788,-154.9997 301.2448,-144.2446"/>
<polygon fill="#191970" stroke="#191970" points="303.745,-141.7953 294.2697,-137.055 298.7208,-146.6695 303.745,-141.7953"/>
</g>
<!-- Node10&#45;&gt;Node13 -->
<g id="edge17" class="edge">
<title>Node10&#45;&gt;Node13</title>
<path fill="none" stroke="#191970" d="M385.5331,-179.4595C409.2518,-169.3371 441.0926,-155.5892 469,-143 470.1684,-142.4729 471.3584,-141.9323 472.5593,-141.3835"/>
<polygon fill="#191970" stroke="#191970" points="474.1953,-144.483 481.801,-137.1071 471.2556,-138.1302 474.1953,-144.483"/>
</g>
<!-- Node14 -->
<g id="node15" class="node">
<title>Node14</title>
<polygon fill="none" stroke="#bfbfbf" points="415.5,-118 415.5,-137 460.5,-137 460.5,-118 415.5,-118"/>
<text text-anchor="middle" x="438" y="-125" font-family="Helvetica,sans-Serif" font-size="10.00" fill="#000000">utility</text>
</g>
<!-- Node10&#45;&gt;Node14 -->
<g id="edge18" class="edge">
<title>Node10&#45;&gt;Node14</title>
<path fill="none" stroke="#191970" d="M369.9686,-179.2967C384.0787,-168.5537 402.9451,-154.1895 417.2308,-143.3129"/>
<polygon fill="#191970" stroke="#191970" points="419.614,-145.8975 425.4502,-137.055 415.3736,-140.328 419.614,-145.8975"/>
</g>
<!-- Node11&#45;&gt;Node5 -->
<g id="edge14" class="edge">
<title>Node11&#45;&gt;Node5</title>
<path fill="none" stroke="#191970" d="M302.7404,-117.9106C332.9963,-102.0499 396.9468,-70.6525 455,-56 537.3295,-35.2203 791.982,-18.2797 891.0208,-12.3095"/>
<polygon fill="#191970" stroke="#191970" points="891.4377,-15.7909 901.2112,-11.7009 891.0203,-8.8033 891.4377,-15.7909"/>
</g>
<!-- Node11&#45;&gt;Node12 -->
<g id="edge15" class="edge">
<title>Node11&#45;&gt;Node12</title>
<path fill="none" stroke="#191970" d="M316.875,-117.8906C354.1132,-106.6644 415.5203,-88.152 454.0372,-76.5403"/>
<polygon fill="#191970" stroke="#191970" points="455.2169,-79.8403 463.781,-73.6028 453.1963,-73.1382 455.2169,-79.8403"/>
</g>
<!-- Node15&#45;&gt;Node4 -->
<g id="edge21" class="edge">
<title>Node15&#45;&gt;Node4</title>
<path fill="none" stroke="#191970" d="M193.7177,-181.4797C261.4855,-167.5157 360.0604,-146.8225 368,-143 387.6384,-133.5451 385.8065,-120.2027 406,-112 486.08,-79.471 733.9252,-69.901 858.2805,-67.1194"/>
<polygon fill="#191970" stroke="#191970" points="858.5465,-70.6146 868.469,-66.9006 858.3961,-63.6162 858.5465,-70.6146"/>
</g>
<!-- Node16&#45;&gt;Node2 -->
<g id="edge24" class="edge">
<title>Node16&#45;&gt;Node2</title>
<path fill="none" stroke="#191970" d="M1514.8603,-179.2516C1520.5143,-160.255 1532.9676,-128.3145 1556,-112 1595.3276,-84.1432 1737.0793,-72.1096 1803.8048,-67.8999"/>
<polygon fill="#191970" stroke="#191970" points="1804.073,-71.3902 1813.8424,-67.2902 1803.6486,-64.403 1804.073,-71.3902"/>
</g>
<!-- Node16&#45;&gt;Node4 -->
<g id="edge23" class="edge">
<title>Node16&#45;&gt;Node4</title>
<path fill="none" stroke="#191970" d="M1491.1577,-179.219C1464.8457,-159.8742 1416.2121,-127.2371 1369,-112 1216.6387,-62.8275 1167.334,-93.91 1004.2075,-76.0608"/>
<polygon fill="#191970" stroke="#191970" points="1004.142,-72.5306 993.8096,-74.8741 1003.3482,-79.4855 1004.142,-72.5306"/>
</g>
<!-- Node16&#45;&gt;Node13 -->
<g id="edge31" class="edge">
<title>Node16&#45;&gt;Node13</title>
<path fill="none" stroke="#191970" d="M1447.2036,-190.7273C1251.0548,-179.1227 668.867,-144.64 649,-143 610.1635,-139.794 565.6782,-134.9377 535.9102,-131.517"/>
<polygon fill="#191970" stroke="#191970" points="535.9831,-128.0021 525.6466,-130.3274 535.1771,-134.9555 535.9831,-128.0021"/>
</g>
<!-- Node16&#45;&gt;Node17 -->
<g id="edge25" class="edge">
<title>Node16&#45;&gt;Node17</title>
<path fill="none" stroke="#191970" d="M1574.7037,-191.0754C1635.6233,-187.8345 1730.0714,-182.8991 1812,-179 1995.0786,-170.287 2457.5525,-184.835 2636,-143 2638.491,-142.416 2641.0244,-141.6571 2643.531,-140.7891"/>
<polygon fill="#191970" stroke="#191970" points="2644.9311,-143.9988 2652.9202,-137.04 2642.3352,-137.4979 2644.9311,-143.9988"/>
</g>
<!-- Node18 -->
<g id="node19" class="node">
<title>Node18</title>
<polygon fill="none" stroke="#bfbfbf" points="1799.5,-118 1799.5,-137 1864.5,-137 1864.5,-118 1799.5,-118"/>
<text text-anchor="middle" x="1832" y="-125" font-family="Helvetica,sans-Serif" font-size="10.00" fill="#000000">stdexcept</text>
</g>
<!-- Node16&#45;&gt;Node18 -->
<g id="edge26" class="edge">
<title>Node16&#45;&gt;Node18</title>
<path fill="none" stroke="#191970" d="M1574.5796,-185.9321C1631.5869,-177.5033 1717.2109,-162.9913 1790,-143 1792.8106,-142.2281 1795.6989,-141.3497 1798.582,-140.4127"/>
<polygon fill="#191970" stroke="#191970" points="1799.9373,-143.6474 1808.2432,-137.07 1797.6484,-137.0322 1799.9373,-143.6474"/>
</g>
<!-- Node19 -->
<g id="node20" class="node">
<title>Node19</title>
<polygon fill="none" stroke="#bfbfbf" points="1312,-118 1312,-137 1360,-137 1360,-118 1312,-118"/>
<text text-anchor="middle" x="1336" y="-125" font-family="Helvetica,sans-Serif" font-size="10.00" fill="#000000">gsl/gsl</text>
</g>
<!-- Node16&#45;&gt;Node19 -->
<g id="edge27" class="edge">
<title>Node16&#45;&gt;Node19</title>
<path fill="none" stroke="#191970" d="M1471.7266,-179.4639C1440.9436,-167.6784 1398.5796,-151.459 1369.4108,-140.2916"/>
<polygon fill="#191970" stroke="#191970" points="1370.6509,-137.0186 1360.0605,-136.7117 1368.148,-143.5559 1370.6509,-137.0186"/>
</g>
<!-- Node20 -->
<g id="node21" class="node">
<title>Node20</title>
<polygon fill="none" stroke="#bfbfbf" points="1712.5,-118 1712.5,-137 1781.5,-137 1781.5,-118 1712.5,-118"/>
<text text-anchor="middle" x="1747" y="-125" font-family="Helvetica,sans-Serif" font-size="10.00" fill="#000000">type_traits</text>
</g>
<!-- Node16&#45;&gt;Node20 -->
<g id="edge28" class="edge">
<title>Node16&#45;&gt;Node20</title>
<path fill="none" stroke="#191970" d="M1563.963,-179.4639C1606.0938,-167.503 1664.3105,-150.9754 1703.687,-139.7965"/>
<polygon fill="#191970" stroke="#191970" points="1704.8547,-143.1034 1713.5187,-137.0053 1702.943,-136.3695 1704.8547,-143.1034"/>
</g>
<!-- Node21 -->
<g id="node22" class="node">
<title>Node21</title>
<polygon fill="none" stroke="#bfbfbf" points="1454,-118 1454,-137 1504,-137 1504,-118 1454,-118"/>
<text text-anchor="middle" x="1479" y="-125" font-family="Helvetica,sans-Serif" font-size="10.00" fill="#000000">cstring</text>
</g>
<!-- Node16&#45;&gt;Node21 -->
<g id="edge29" class="edge">
<title>Node16&#45;&gt;Node21</title>
<path fill="none" stroke="#191970" d="M1503.7387,-179.2967C1499.0434,-169.4658 1492.8998,-156.6026 1487.9096,-146.1545"/>
<polygon fill="#191970" stroke="#191970" points="1491.0317,-144.5702 1483.5636,-137.055 1484.7151,-147.587 1491.0317,-144.5702"/>
</g>
<!-- Node16&#45;&gt;Node22 -->
<g id="edge30" class="edge">
<title>Node16&#45;&gt;Node22</title>
<path fill="none" stroke="#191970" d="M1537.0327,-179.4639C1556.3206,-168.3234 1582.4678,-153.2212 1601.6028,-142.1691"/>
<polygon fill="#191970" stroke="#191970" points="1603.4635,-145.1363 1610.3723,-137.1039 1599.9624,-139.0747 1603.4635,-145.1363"/>
</g>
<!-- Node23&#45;&gt;Node2 -->
<g id="edge39" class="edge">
<title>Node23&#45;&gt;Node2</title>
<path fill="none" stroke="#191970" d="M2484.4371,-315.0083C2481.2463,-314.3252 2478.086,-313.6524 2475,-313 2396.8849,-296.4851 2369.2545,-314.9344 2299,-277 2208.0204,-227.8749 2227.1227,-158.9465 2135,-112 2090.0275,-89.0816 1943.0681,-74.4713 1874.645,-68.7468"/>
<polygon fill="#191970" stroke="#191970" points="1874.618,-65.233 1864.3655,-67.9045 1874.0462,-72.2096 1874.618,-65.233"/>
</g>
<!-- Node23&#45;&gt;Node5 -->
<g id="edge36" class="edge">
<title>Node23&#45;&gt;Node5</title>
<path fill="none" stroke="#191970" d="M2518.2609,-313.3464C2438.6282,-269.948 2210.0309,-146.1216 2132,-112 2064.1223,-82.3182 2047.7036,-70.2333 1975,-56 1777.4772,-17.3306 1138.1023,-11.1369 971.1701,-10.1728"/>
<polygon fill="#191970" stroke="#191970" points="970.8865,-6.6713 960.8675,-10.1166 970.8483,-13.6712 970.8865,-6.6713"/>
</g>
<!-- Node23&#45;&gt;Node24 -->
<g id="edge37" class="edge">
<title>Node23&#45;&gt;Node24</title>
<path fill="none" stroke="#191970" d="M2607.778,-326.0698C2721.9477,-319.5675 2971.5952,-295.8559 3161,-210 3184.1302,-199.5152 3186.9927,-191.6734 3209,-179 3232.5594,-165.4328 3260.0985,-151.5136 3280.4642,-141.5718"/>
<polygon fill="#191970" stroke="#191970" points="3282.0842,-144.6761 3289.5562,-137.1648 3279.0309,-138.3771 3282.0842,-144.6761"/>
</g>
<!-- Node25 -->
<g id="node26" class="node">
<title>Node25</title>
<polygon fill="none" stroke="#bfbfbf" points="2867.5,-252 2867.5,-271 2916.5,-271 2916.5,-252 2867.5,-252"/>
<text text-anchor="middle" x="2892" y="-259" font-family="Helvetica,sans-Serif" font-size="10.00" fill="#000000">cstdlib</text>
</g>
<!-- Node23&#45;&gt;Node25 -->
<g id="edge38" class="edge">
<title>Node23&#45;&gt;Node25</title>
<path fill="none" stroke="#191970" d="M2607.7078,-322.0492C2670.305,-314.6005 2769.5853,-300.2878 2853,-277 2855.6075,-276.272 2858.2796,-275.4289 2860.9428,-274.5193"/>
<polygon fill="#191970" stroke="#191970" points="2862.2475,-277.7686 2870.4161,-271.0213 2859.8228,-271.2019 2862.2475,-277.7686"/>
</g>
<!-- Node26 -->
<g id="node27" class="node">
<title>Node26</title>
<polygon fill="none" stroke="#bfbfbf" points="2583,-118 2583,-137 2627,-137 2627,-118 2583,-118"/>
<text text-anchor="middle" x="2605" y="-125" font-family="Helvetica,sans-Serif" font-size="10.00" fill="#000000">string</text>
</g>
<!-- Node23&#45;&gt;Node26 -->
<g id="edge40" class="edge">
<title>Node23&#45;&gt;Node26</title>
<path fill="none" stroke="#191970" d="M2550.4346,-313.3923C2560.9904,-277.431 2587.5987,-186.7824 2599.3135,-146.8727"/>
<polygon fill="#191970" stroke="#191970" points="2602.678,-147.8372 2602.1362,-137.2562 2595.9614,-145.8656 2602.678,-147.8372"/>
</g>
<!-- Node27 -->
<g id="node28" class="node">
<title>Node27</title>
<g id="a_node28"><a xlink:href="../../dc/dcd/DataHeader_8h.html" target="_top" xlink:title="Headers/DataHeader.h">
<polygon fill="none" stroke="#000000" points="2341.5,-185 2341.5,-204 2468.5,-204 2468.5,-185 2341.5,-185"/>
<text text-anchor="middle" x="2405" y="-192" font-family="Helvetica,sans-Serif" font-size="10.00" fill="#000000">Headers/DataHeader.h</text>
</a>
</g>
</g>
<!-- Node23&#45;&gt;Node27 -->
<g id="edge41" class="edge">
<title>Node23&#45;&gt;Node27</title>
<path fill="none" stroke="#191970" d="M2530.0996,-313.389C2503.4859,-288.0965 2450.1249,-237.3847 2422.4878,-211.1196"/>
<polygon fill="#191970" stroke="#191970" points="2424.7657,-208.456 2415.1059,-204.1042 2419.9435,-213.5301 2424.7657,-208.456"/>
</g>
<!-- Node31 -->
<g id="node32" class="node">
<title>Node31</title>
<g id="a_node32"><a xlink:href="../../dc/dd8/RUInfo_8h.html" target="_top" xlink:title="ITSMFTReconstruction\l/RUInfo.h">
<polygon fill="none" stroke="#000000" points="1647.5,-246.5 1647.5,-276.5 1770.5,-276.5 1770.5,-246.5 1647.5,-246.5"/>
<text text-anchor="start" x="1655.5" y="-264.5" font-family="Helvetica,sans-Serif" font-size="10.00" fill="#000000">ITSMFTReconstruction</text>
<text text-anchor="middle" x="1709" y="-253.5" font-family="Helvetica,sans-Serif" font-size="10.00" fill="#000000">/RUInfo.h</text>
</a>
</g>
</g>
<!-- Node23&#45;&gt;Node31 -->
<g id="edge52" class="edge">
<title>Node23&#45;&gt;Node31</title>
<path fill="none" stroke="#191970" d="M2484.1421,-314.4284C2481.0582,-313.9052 2477.9981,-313.4242 2475,-313 2235.5225,-279.1133 2173.3075,-293.3853 1932,-277 1881.4574,-273.568 1824.4782,-269.606 1780.7676,-266.5468"/>
<polygon fill="#191970" stroke="#191970" points="1780.7411,-263.0364 1770.521,-265.8291 1780.252,-270.0193 1780.7411,-263.0364"/>
</g>
<!-- Node32 -->
<g id="node33" class="node">
<title>Node32</title>
<g id="a_node33"><a xlink:href="../../d6/d31/DetID_8h.html" target="_top" xlink:title="DetectorsCommonDataFormats\l/DetID.h">
<polygon fill="none" stroke="#000000" points="2601.5,-246.5 2601.5,-276.5 2772.5,-276.5 2772.5,-246.5 2601.5,-246.5"/>
<text text-anchor="start" x="2609.5" y="-264.5" font-family="Helvetica,sans-Serif" font-size="10.00" fill="#000000">DetectorsCommonDataFormats</text>
<text text-anchor="middle" x="2687" y="-253.5" font-family="Helvetica,sans-Serif" font-size="10.00" fill="#000000">/DetID.h</text>
</a>
</g>
</g>
<!-- Node23&#45;&gt;Node32 -->
<g id="edge55" class="edge">
<title>Node23&#45;&gt;Node32</title>
<path fill="none" stroke="#191970" d="M2577.6432,-313.4639C2597.7299,-303.9191 2623.9367,-291.4663 2645.6597,-281.144"/>
<polygon fill="#191970" stroke="#191970" points="2647.4446,-284.1709 2654.9746,-276.7177 2644.4403,-277.8484 2647.4446,-284.1709"/>
</g>
<!-- Node27&#45;&gt;Node2 -->
<g id="edge42" class="edge">
<title>Node27&#45;&gt;Node2</title>
<path fill="none" stroke="#191970" d="M2392.5646,-184.8108C2368.8806,-166.9433 2315.0112,-129.0742 2263,-112 2190.9201,-88.3377 1962.5577,-73.0828 1874.2964,-67.9371"/>
<polygon fill="#191970" stroke="#191970" points="1874.4315,-64.4392 1864.2472,-67.3599 1874.03,-71.4277 1874.4315,-64.4392"/>
</g>
<!-- Node27&#45;&gt;Node12 -->
<g id="edge49" class="edge">
<title>Node27&#45;&gt;Node12</title>
<path fill="none" stroke="#191970" d="M2376.1106,-184.9365C2319.6158,-166.7461 2190.2161,-127.5893 2078,-112 2058.0918,-109.2343 757.554,-73.3818 524.5396,-66.9761"/>
<polygon fill="#191970" stroke="#191970" points="524.3523,-63.4697 514.2599,-66.6935 524.16,-70.467 524.3523,-63.4697"/>
</g>
<!-- Node27&#45;&gt;Node17 -->
<g id="edge44" class="edge">
<title>Node27&#45;&gt;Node17</title>
<path fill="none" stroke="#191970" d="M2462.3317,-184.9793C2509.5974,-176.358 2578.0449,-162.0853 2636,-143 2637.8936,-142.3764 2639.8241,-141.6861 2641.7568,-140.9533"/>
<polygon fill="#191970" stroke="#191970" points="2643.3548,-144.0808 2651.278,-137.047 2640.6978,-137.6047 2643.3548,-144.0808"/>
</g>
<!-- Node27&#45;&gt;Node18 -->
<g id="edge47" class="edge">
<title>Node27&#45;&gt;Node18</title>
<path fill="none" stroke="#191970" d="M2341.2134,-189.6939C2246.8697,-182.1687 2064.7095,-166.0436 1911,-143 1899.1333,-141.221 1886.3411,-138.892 1874.5787,-136.5819"/>
<polygon fill="#191970" stroke="#191970" points="1875.0494,-133.1067 1864.5563,-134.5711 1873.6723,-139.9699 1875.0494,-133.1067"/>
</g>
<!-- Node27&#45;&gt;Node21 -->
<g id="edge45" class="edge">
<title>Node27&#45;&gt;Node21</title>
<path fill="none" stroke="#191970" d="M2341.3801,-192.1531C2203.8346,-186.7129 1868.6113,-171.4808 1589,-143 1563.9375,-140.4472 1535.812,-136.464 1514.2745,-133.1747"/>
<polygon fill="#191970" stroke="#191970" points="1514.6911,-129.6976 1504.2731,-131.6251 1513.6193,-136.6151 1514.6911,-129.6976"/>
</g>
<!-- Node27&#45;&gt;Node22 -->
<g id="edge43" class="edge">
<title>Node27&#45;&gt;Node22</title>
<path fill="none" stroke="#191970" d="M2341.3099,-192.5564C2217.7172,-188.1824 1936.9369,-175.3013 1703,-143 1690.9288,-141.3332 1677.8952,-138.9081 1666.088,-136.469"/>
<polygon fill="#191970" stroke="#191970" points="1666.5921,-132.9979 1656.0827,-134.3406 1665.1355,-139.8447 1666.5921,-132.9979"/>
</g>
<!-- Node27&#45;&gt;Node26 -->
<g id="edge48" class="edge">
<title>Node27&#45;&gt;Node26</title>
<path fill="none" stroke="#191970" d="M2442.8771,-184.9161C2477.5439,-175.6865 2529.9868,-160.5652 2574,-143 2575.3622,-142.4564 2576.7461,-141.8757 2578.1351,-141.2701"/>
<polygon fill="#191970" stroke="#191970" points="2579.6218,-144.4387 2587.2022,-137.0369 2576.6605,-138.0959 2579.6218,-144.4387"/>
</g>
<!-- Node27&#45;&gt;Node28 -->
<g id="edge46" class="edge">
<title>Node27&#45;&gt;Node28</title>
<path fill="none" stroke="#191970" d="M2468.682,-191.5856C2661.569,-182.6297 3227.1686,-155.3702 3242,-143 3258.4717,-129.2617 3261.9325,-103.7316 3262.1176,-85.8474"/>
<polygon fill="#191970" stroke="#191970" points="3265.6119,-85.554 3261.8836,-75.6368 3258.6138,-85.7145 3265.6119,-85.554"/>
</g>
<!-- Node29 -->
<g id="node30" class="node">
<title>Node29</title>
<g id="a_node30"><a xlink:href="../../d7/df8/Types_8h.html" target="_top" xlink:title="MemoryResources/Types.h">
<polygon fill="none" stroke="#000000" points="2419,-118 2419,-137 2565,-137 2565,-118 2419,-118"/>
<text text-anchor="middle" x="2492" y="-125" font-family="Helvetica,sans-Serif" font-size="10.00" fill="#000000">MemoryResources/Types.h</text>
</a>
</g>
</g>
<!-- Node27&#45;&gt;Node29 -->
<g id="edge50" class="edge">
<title>Node27&#45;&gt;Node29</title>
<path fill="none" stroke="#191970" d="M2417.465,-184.9005C2431.5487,-174.0544 2454.6888,-156.2339 2471.4539,-143.3229"/>
<polygon fill="#191970" stroke="#191970" points="2473.7708,-145.9562 2479.5581,-137.0817 2469.4997,-140.4102 2473.7708,-145.9562"/>
</g>
<!-- Node30 -->
<g id="node31" class="node">
<title>Node30</title>
<polygon fill="none" stroke="#bfbfbf" points="2353.5,-118 2353.5,-137 2400.5,-137 2400.5,-118 2353.5,-118"/>
<text text-anchor="middle" x="2377" y="-125" font-family="Helvetica,sans-Serif" font-size="10.00" fill="#000000">cerrno</text>
</g>
<!-- Node27&#45;&gt;Node30 -->
<g id="edge51" class="edge">
<title>Node27&#45;&gt;Node30</title>
<path fill="none" stroke="#191970" d="M2400.9883,-184.9005C2396.8298,-174.95 2390.2182,-159.1292 2384.9883,-146.6147"/>
<polygon fill="#191970" stroke="#191970" points="2388.0896,-144.9588 2381.0043,-137.0817 2381.6309,-147.658 2388.0896,-144.9588"/>
</g>
<!-- Node31&#45;&gt;Node2 -->
<g id="edge54" class="edge">
<title>Node31&#45;&gt;Node2</title>
<path fill="none" stroke="#191970" d="M1706.0906,-246.1982C1700.0376,-212.4814 1687.8582,-133.106 1703,-112 1714.9347,-95.3644 1767.559,-81.1363 1803.7345,-73.0766"/>
<polygon fill="#191970" stroke="#191970" points="1804.8783,-76.4101 1813.9116,-70.8738 1803.3974,-69.5686 1804.8783,-76.4101"/>
</g>
<!-- Node31&#45;&gt;Node5 -->
<g id="edge53" class="edge">
<title>Node31&#45;&gt;Node5</title>
<path fill="none" stroke="#191970" d="M1647.1783,-252.2586C1572.7094,-240.7392 1455.3841,-221.2057 1438,-210 1393.2272,-181.1396 1406.014,-150.3079 1369,-112 1340.3407,-82.3389 1333.1983,-71.5571 1295,-56 1236.8602,-32.3213 1052.4573,-17.8353 970.6943,-12.4237"/>
<polygon fill="#191970" stroke="#191970" points="970.7595,-8.9206 960.5535,-11.7643 970.3053,-15.9058 970.7595,-8.9206"/>
</g>
<!-- Node32&#45;&gt;Node2 -->
<g id="edge60" class="edge">
<title>Node32&#45;&gt;Node2</title>
<path fill="none" stroke="#191970" d="M2695.7022,-246.3859C2711.7067,-216.3842 2741.1072,-149.0193 2706,-112 2676.9447,-81.3623 2034.3645,-69.1142 1874.6767,-66.5376"/>
<polygon fill="#191970" stroke="#191970" points="1874.5017,-63.0345 1864.4474,-66.3752 1874.3905,-70.0336 1874.5017,-63.0345"/>
</g>
<!-- Node32&#45;&gt;Node5 -->
<g id="edge56" class="edge">
<title>Node32&#45;&gt;Node5</title>
<path fill="none" stroke="#191970" d="M2705.0917,-246.3413C2714.7889,-236.9968 2725.7889,-224.1218 2731,-210 2737.7766,-191.6359 2738.0446,-123.0831 2728,-112 2610.7016,17.4261 2512.9981,-71.3195 2339,-56 2062.551,-31.6603 1169.7584,-14.3249 970.6251,-10.7028"/>
<polygon fill="#191970" stroke="#191970" points="970.6715,-7.2031 960.6098,-10.5216 970.5448,-14.202 970.6715,-7.2031"/>
</g>
<!-- Node32&#45;&gt;Node17 -->
<g id="edge59" class="edge">
<title>Node32&#45;&gt;Node17</title>
<path fill="none" stroke="#191970" d="M2681.8542,-246.3803C2678.6562,-236.2244 2674.8187,-222.4691 2673,-210 2669.9086,-188.8052 2669.7458,-164.2297 2670.1454,-147.4502"/>
<polygon fill="#191970" stroke="#191970" points="2673.6512,-147.3265 2670.4827,-137.2165 2666.655,-147.0957 2673.6512,-147.3265"/>
</g>
<!-- Node32&#45;&gt;Node20 -->
<g id="edge63" class="edge">
<title>Node32&#45;&gt;Node20</title>
<path fill="none" stroke="#191970" d="M2601.4958,-260.4285C2394.9516,-257.28 1880.7549,-245.8942 1812,-210 1785.3121,-196.0673 1766.0117,-165.7902 1755.6706,-146.0464"/>
<polygon fill="#191970" stroke="#191970" points="1758.7928,-144.4643 1751.2041,-137.0709 1752.5259,-147.583 1758.7928,-144.4643"/>
</g>
<!-- Node32&#45;&gt;Node24 -->
<g id="edge57" class="edge">
<title>Node32&#45;&gt;Node24</title>
<path fill="none" stroke="#191970" d="M2772.6535,-254.038C2822.2407,-247.2535 2884.7779,-234.3729 2936,-210 2955.6814,-200.635 2953.9388,-187.5211 2974,-179 3098.0081,-126.3266 3145.0772,-178.673 3275,-143 3277.1869,-142.3995 3279.4126,-141.6838 3281.6281,-140.894"/>
<polygon fill="#191970" stroke="#191970" points="3283.1431,-144.0575 3291.122,-137.0871 3280.5377,-137.5604 3283.1431,-144.0575"/>
</g>
<!-- Node32&#45;&gt;Node26 -->
<g id="edge62" class="edge">
<title>Node32&#45;&gt;Node26</title>
<path fill="none" stroke="#191970" d="M2677.753,-246.389C2662.6076,-221.6393 2632.5676,-172.5495 2616.2253,-145.8438"/>
<polygon fill="#191970" stroke="#191970" points="2619.0823,-143.807 2610.8772,-137.1042 2613.1115,-147.4607 2619.0823,-143.807"/>
</g>
<!-- Node32&#45;&gt;Node27 -->
<g id="edge75" class="edge">
<title>Node32&#45;&gt;Node27</title>
<path fill="none" stroke="#191970" d="M2623.7137,-246.4639C2572.7297,-234.3507 2502.0315,-217.5536 2454.9683,-206.3719"/>
<polygon fill="#191970" stroke="#191970" points="2455.5456,-202.9117 2445.0073,-204.0053 2453.9274,-209.7221 2455.5456,-202.9117"/>
</g>
<!-- Node32&#45;&gt;Node33 -->
<g id="edge58" class="edge">
<title>Node32&#45;&gt;Node33</title>
<path fill="none" stroke="#191970" d="M2772.7162,-250.9825C2829.2284,-242.8004 2904.45,-229.5159 2969,-210 2971.1698,-209.344 2973.3845,-208.5962 2975.5957,-207.7917"/>
<polygon fill="#191970" stroke="#191970" points="2977.1153,-210.9542 2985.1169,-204.0099 2974.5312,-204.4486 2977.1153,-210.9542"/>
</g>
<!-- Node32&#45;&gt;Node34 -->
<g id="edge61" class="edge">
<title>Node32&#45;&gt;Node34</title>
<path fill="none" stroke="#191970" d="M2772.895,-250.6124C2859.641,-239.2956 2987.5394,-221.6414 3036,-210 3039.4646,-209.1677 3043.0396,-208.1875 3046.5939,-207.131"/>
<polygon fill="#191970" stroke="#191970" points="3047.9708,-210.3664 3056.4477,-204.0108 3045.8576,-203.693 3047.9708,-210.3664"/>
</g>
<!-- Node35 -->
<g id="node36" class="node">
<title>Node35</title>
<g id="a_node36"><a xlink:href="../../d9/d52/Common_2MathUtils_2include_2MathUtils_2Utils_8h.html" target="_top" xlink:title="MathUtils/Utils.h">
<polygon fill="none" stroke="#000000" points="2829,-185 2829,-204 2927,-204 2927,-185 2829,-185"/>
<text text-anchor="middle" x="2878" y="-192" font-family="Helvetica,sans-Serif" font-size="10.00" fill="#000000">MathUtils/Utils.h</text>
</a>
</g>
</g>
<!-- Node32&#45;&gt;Node35 -->
<g id="edge64" class="edge">
<title>Node32&#45;&gt;Node35</title>
<path fill="none" stroke="#191970" d="M2729.8641,-246.4639C2763.3099,-234.7316 2809.2817,-218.6054 2841.1025,-207.4431"/>
<polygon fill="#191970" stroke="#191970" points="2842.6251,-210.6182 2850.9028,-204.0053 2840.308,-204.0128 2842.6251,-210.6182"/>
</g>
<!-- Node35&#45;&gt;Node7 -->
<g id="edge66" class="edge">
<title>Node35&#45;&gt;Node7</title>
<path fill="none" stroke="#191970" d="M2915.7112,-184.8972C2970.8409,-170.7873 3067.2447,-145.8114 3070,-143 3084.784,-127.9152 3088.6725,-103.2611 3089.4147,-85.9221"/>
<polygon fill="#191970" stroke="#191970" points="3092.9163,-85.7977 3089.531,-75.7583 3085.9167,-85.7176 3092.9163,-85.7977"/>
</g>
<!-- Node35&#45;&gt;Node24 -->
<g id="edge65" class="edge">
<title>Node35&#45;&gt;Node24</title>
<path fill="none" stroke="#191970" d="M2913.1427,-184.9721C2922.171,-182.7677 2931.9037,-180.6018 2941,-179 3088.0419,-153.1071 3130.7961,-181.691 3275,-143 3277.1903,-142.4123 3279.4186,-141.7059 3281.6359,-140.9228"/>
<polygon fill="#191970" stroke="#191970" points="3283.1449,-144.089 3291.1335,-137.1296 3280.5486,-137.5883 3283.1449,-144.089"/>
</g>
<!-- Node36 -->
<g id="node37" class="node">
<title>Node36</title>
<g id="a_node37"><a xlink:href="../../df/d21/GPUCommonDef_8h.html" target="_top" xlink:title="GPUCommonDef.h">
<polygon fill="none" stroke="#000000" points="2791.5,-56.5 2791.5,-75.5 2898.5,-75.5 2898.5,-56.5 2791.5,-56.5"/>
<text text-anchor="middle" x="2845" y="-63.5" font-family="Helvetica,sans-Serif" font-size="10.00" fill="#000000">GPUCommonDef.h</text>
</a>
</g>
</g>
<!-- Node35&#45;&gt;Node36 -->
<g id="edge67" class="edge">
<title>Node35&#45;&gt;Node36</title>
<path fill="none" stroke="#191970" d="M2873.56,-184.8276C2869.0399,-174.6243 2862.1271,-157.9801 2858,-143 2852.7263,-123.8582 2849.2319,-101.4173 2847.2071,-85.7168"/>
<polygon fill="#191970" stroke="#191970" points="2850.6614,-85.1275 2845.9879,-75.6192 2843.7119,-85.9666 2850.6614,-85.1275"/>
</g>
<!-- Node39 -->
<g id="node40" class="node">
<title>Node39</title>
<g id="a_node40"><a xlink:href="../../d6/da2/GPUCommonMath_8h.html" target="_top" xlink:title="GPUCommonMath.h">
<polygon fill="none" stroke="#000000" points="3117.5,-118 3117.5,-137 3232.5,-137 3232.5,-118 3117.5,-118"/>
<text text-anchor="middle" x="3175" y="-125" font-family="Helvetica,sans-Serif" font-size="10.00" fill="#000000">GPUCommonMath.h</text>
</a>
</g>
</g>
<!-- Node35&#45;&gt;Node39 -->
<g id="edge70" class="edge">
<title>Node35&#45;&gt;Node39</title>
<path fill="none" stroke="#191970" d="M2916.277,-184.9229C2924.4284,-182.9282 2932.9921,-180.866 2941,-179 2974.6312,-171.1632 3063.066,-151.8292 3121.0714,-139.2077"/>
<polygon fill="#191970" stroke="#191970" points="3122.1444,-142.5562 3131.172,-137.0108 3120.6566,-135.7162 3122.1444,-142.5562"/>
</g>
<!-- Node40 -->
<g id="node41" class="node">
<title>Node40</title>
<g id="a_node41"><a xlink:href="../../d6/d84/MathConstants_8h.html" target="_top" xlink:title="useful math constants ">
<polygon fill="none" stroke="#000000" points="2867,-118 2867,-137 3061,-137 3061,-118 2867,-118"/>
<text text-anchor="middle" x="2964" y="-125" font-family="Helvetica,sans-Serif" font-size="10.00" fill="#000000">CommonConstants/MathConstants.h</text>
</a>
</g>
</g>
<!-- Node35&#45;&gt;Node40 -->
<g id="edge74" class="edge">
<title>Node35&#45;&gt;Node40</title>
<path fill="none" stroke="#191970" d="M2890.3217,-184.9005C2904.2435,-174.0544 2927.1176,-156.2339 2943.69,-143.3229"/>
<polygon fill="#191970" stroke="#191970" points="2945.9636,-145.9885 2951.7012,-137.0817 2941.6615,-140.4664 2945.9636,-145.9885"/>
</g>
<!-- Node37 -->
<g id="node38" class="node">
<title>Node37</title>
<g id="a_node38"><a xlink:href="../../d5/d93/GPUCommonDefSettings_8h.html" target="_top" xlink:title="GPUCommonDefSettings.h">
<polygon fill="none" stroke="#000000" points="2694,-.5 2694,-19.5 2842,-19.5 2842,-.5 2694,-.5"/>
<text text-anchor="middle" x="2768" y="-7.5" font-family="Helvetica,sans-Serif" font-size="10.00" fill="#000000">GPUCommonDefSettings.h</text>
</a>
</g>
</g>
<!-- Node36&#45;&gt;Node37 -->
<g id="edge68" class="edge">
<title>Node36&#45;&gt;Node37</title>
<path fill="none" stroke="#191970" d="M2831.5876,-56.2455C2819.9943,-47.814 2803.0252,-35.4729 2789.5322,-25.6598"/>
<polygon fill="#191970" stroke="#191970" points="2791.4047,-22.6938 2781.2587,-19.6427 2787.2874,-28.355 2791.4047,-22.6938"/>
</g>
<!-- Node38 -->
<g id="node39" class="node">
<title>Node38</title>
<g id="a_node39"><a xlink:href="../../da/d5a/GPUCommonDefAPI_8h.html" target="_top" xlink:title="GPUCommonDefAPI.h">
<polygon fill="none" stroke="#000000" points="2860,-.5 2860,-19.5 2984,-19.5 2984,-.5 2860,-.5"/>
<text text-anchor="middle" x="2922" y="-7.5" font-family="Helvetica,sans-Serif" font-size="10.00" fill="#000000">GPUCommonDefAPI.h</text>
</a>
</g>
</g>
<!-- Node36&#45;&gt;Node38 -->
<g id="edge69" class="edge">
<title>Node36&#45;&gt;Node38</title>
<path fill="none" stroke="#191970" d="M2858.4124,-56.2455C2870.0057,-47.814 2886.9748,-35.4729 2900.4678,-25.6598"/>
<polygon fill="#191970" stroke="#191970" points="2902.7126,-28.355 2908.7413,-19.6427 2898.5953,-22.6938 2902.7126,-28.355"/>
</g>
<!-- Node39&#45;&gt;Node7 -->
<g id="edge72" class="edge">
<title>Node39&#45;&gt;Node7</title>
<path fill="none" stroke="#191970" d="M3161.5625,-117.8906C3147.9305,-108.1421 3126.6154,-92.8994 3110.6078,-81.4521"/>
<polygon fill="#191970" stroke="#191970" points="3112.5132,-78.5118 3102.3431,-75.5419 3108.4414,-84.2057 3112.5132,-78.5118"/>
</g>
<!-- Node39&#45;&gt;Node28 -->
<g id="edge73" class="edge">
<title>Node39&#45;&gt;Node28</title>
<path fill="none" stroke="#191970" d="M3188.4375,-117.8906C3202.0695,-108.1421 3223.3846,-92.8994 3239.3922,-81.4521"/>
<polygon fill="#191970" stroke="#191970" points="3241.5586,-84.2057 3247.6569,-75.5419 3237.4868,-78.5118 3241.5586,-84.2057"/>
</g>
<!-- Node39&#45;&gt;Node36 -->
<g id="edge71" class="edge">
<title>Node39&#45;&gt;Node36</title>
<path fill="none" stroke="#191970" d="M3123.7996,-117.9581C3065.0643,-107.012 2968.8183,-89.0752 2906.1847,-77.4026"/>
<polygon fill="#191970" stroke="#191970" points="2906.521,-73.9051 2896.049,-75.5137 2905.2385,-80.7866 2906.521,-73.9051"/>
</g>
<!-- Node41&#45;&gt;Node2 -->
<g id="edge79" class="edge">
<title>Node41&#45;&gt;Node2</title>
<path fill="none" stroke="#191970" d="M964.6516,-259.0099C1128.0814,-252.1216 1561.4433,-231.8703 1583,-210 1613.6325,-178.9219 1560.063,-144.6626 1589,-112 1616.8718,-80.5397 1741.6747,-70.4293 1803.7321,-67.3148"/>
<polygon fill="#191970" stroke="#191970" points="1804.016,-70.8055 1813.8414,-66.8418 1803.6887,-63.8131 1804.016,-70.8055"/>
</g>
<!-- Node41&#45;&gt;Node5 -->
<g id="edge77" class="edge">
<title>Node41&#45;&gt;Node5</title>
<path fill="none" stroke="#191970" d="M862.0892,-246.4816C845.9717,-238.3159 829.1519,-226.4491 820,-210 813.3014,-197.9603 818.1995,-192.6596 820,-179 827.3968,-122.8854 818.7448,-101.0571 853,-56 863.7159,-41.905 880.0999,-31.3087 895.0906,-23.8607"/>
<polygon fill="#191970" stroke="#191970" points="896.5938,-27.0217 904.1813,-19.627 893.6385,-20.6761 896.5938,-27.0217"/>
</g>
<!-- Node41&#45;&gt;Node10 -->
<g id="edge90" class="edge">
<title>Node41&#45;&gt;Node10</title>
<path fill="none" stroke="#191970" d="M841.227,-252.6666C824.3107,-250.3662 805.9624,-247.9799 789,-246 628.6889,-227.2884 584.5349,-235.5032 422.1185,-210.2311"/>
<polygon fill="#191970" stroke="#191970" points="422.182,-206.698 411.7592,-208.5991 421.0927,-213.6127 422.182,-206.698"/>
</g>
<!-- Node41&#45;&gt;Node13 -->
<g id="edge80" class="edge">
<title>Node41&#45;&gt;Node13</title>
<path fill="none" stroke="#191970" d="M841.1578,-253.1058C742.0285,-239.5564 557.9901,-213.9744 552,-210 529.3919,-194.9995 515.3746,-165.9468 508.1288,-146.6336"/>
<polygon fill="#191970" stroke="#191970" points="511.3868,-145.3465 504.7885,-137.0572 504.7773,-147.652 511.3868,-145.3465"/>
</g>
<!-- Node41&#45;&gt;Node26 -->
<g id="edge81" class="edge">
<title>Node41&#45;&gt;Node26</title>
<path fill="none" stroke="#191970" d="M964.5704,-259.9666C1250.9724,-252.7742 2440.5226,-222.2195 2477,-210 2499.6828,-202.4015 2501.0151,-192.1473 2521,-179 2540.5338,-166.1495 2563.1553,-152.3397 2579.9985,-142.2585"/>
<polygon fill="#191970" stroke="#191970" points="2581.9056,-145.1964 2588.705,-137.0712 2578.3227,-139.1828 2581.9056,-145.1964"/>
</g>
<!-- Node42 -->
<g id="node43" class="node">
<title>Node42</title>
<polygon fill="none" stroke="#bfbfbf" points="829,-185 829,-204 875,-204 875,-185 829,-185"/>
<text text-anchor="middle" x="852" y="-192" font-family="Helvetica,sans-Serif" font-size="10.00" fill="#000000">cstdio</text>
</g>
<!-- Node41&#45;&gt;Node42 -->
<g id="edge78" class="edge">
<title>Node41&#45;&gt;Node42</title>
<path fill="none" stroke="#191970" d="M891.4273,-246.2967C883.7127,-236.1618 873.5449,-222.804 865.4671,-212.1921"/>
<polygon fill="#191970" stroke="#191970" points="868.1151,-209.8921 859.2732,-204.055 862.5451,-214.1319 868.1151,-209.8921"/>
</g>
<!-- Node41&#45;&gt;Node43 -->
<g id="edge82" class="edge">
<title>Node41&#45;&gt;Node43</title>
<path fill="none" stroke="#191970" d="M841.4736,-253.1049C824.4751,-250.7936 806.0238,-248.2922 789,-246 669.0208,-229.8449 637.374,-235.3693 519,-210 514.6333,-209.0642 510.1008,-207.9434 505.6134,-206.7383"/>
<polygon fill="#191970" stroke="#191970" points="506.5192,-203.3572 495.9442,-204.0044 504.6147,-210.0932 506.5192,-203.3572"/>
</g>
<!-- Node44 -->
<g id="node45" class="node">
<title>Node44</title>
<polygon fill="none" stroke="#bfbfbf" points="658,-118 658,-137 718,-137 718,-118 658,-118"/>
<text text-anchor="middle" x="688" y="-125" font-family="Helvetica,sans-Serif" font-size="10.00" fill="#000000">iostream</text>
</g>
<!-- Node41&#45;&gt;Node44 -->
<g id="edge83" class="edge">
<title>Node41&#45;&gt;Node44</title>
<path fill="none" stroke="#191970" d="M903.9821,-246.4529C904.3135,-227.9673 901.8844,-196.8673 884,-179 833.355,-128.4033 795.3521,-164.2823 727,-143 724.7109,-142.2872 722.3658,-141.5016 720.0171,-140.6737"/>
<polygon fill="#191970" stroke="#191970" points="721.0673,-137.3298 710.4747,-137.1096 718.618,-143.8873 721.0673,-137.3298"/>
</g>
<!-- Node41&#45;&gt;Node45 -->
<g id="edge84" class="edge">
<title>Node41&#45;&gt;Node45</title>
<path fill="none" stroke="#191970" d="M964.7136,-247.291C1017.626,-235.1085 1092.9638,-217.7626 1142.6425,-206.3246"/>
<polygon fill="#191970" stroke="#191970" points="1143.5693,-209.7028 1152.529,-204.0483 1141.9986,-202.8813 1143.5693,-209.7028"/>
</g>
<!-- Node47 -->
<g id="node48" class="node">
<title>Node47</title>
<polygon fill="none" stroke="#bfbfbf" points="736,-118 736,-137 774,-137 774,-118 736,-118"/>
<text text-anchor="middle" x="755" y="-125" font-family="Helvetica,sans-Serif" font-size="10.00" fill="#000000">map</text>
</g>
<!-- Node41&#45;&gt;Node47 -->
<g id="edge89" class="edge">
<title>Node41&#45;&gt;Node47</title>
<path fill="none" stroke="#191970" d="M911.7737,-246.2577C920.7503,-228.4233 931.4943,-198.8168 917,-179 908.9756,-168.0289 828.6015,-146.1768 784.1665,-134.7867"/>
<polygon fill="#191970" stroke="#191970" points="784.7824,-131.332 774.2283,-132.26 783.0575,-138.1162 784.7824,-131.332"/>
</g>
<!-- Node48 -->
<g id="node49" class="node">
<title>Node48</title>
<g id="a_node49"><a xlink:href="../../d0/d7b/NoiseMap_8h.html" target="_top" xlink:title="Definition of the ITSMFT NoiseMap. ">
<polygon fill="none" stroke="#000000" points="561,-185 561,-204 735,-204 735,-185 561,-185"/>
<text text-anchor="middle" x="648" y="-192" font-family="Helvetica,sans-Serif" font-size="10.00" fill="#000000">DataFormatsITSMFT/NoiseMap.h</text>
</a>
</g>
</g>
<!-- Node41&#45;&gt;Node48 -->
<g id="edge91" class="edge">
<title>Node41&#45;&gt;Node48</title>
<path fill="none" stroke="#191970" d="M845.773,-246.4639C799.9604,-234.4269 736.5447,-217.7647 693.9896,-206.5835"/>
<polygon fill="#191970" stroke="#191970" points="694.738,-203.1615 684.1768,-204.0053 692.9591,-209.9317 694.738,-203.1615"/>
</g>
<!-- Node45&#45;&gt;Node5 -->
<g id="edge88" class="edge">
<title>Node45&#45;&gt;Node5</title>
<path fill="none" stroke="#191970" d="M1194.7099,-184.8396C1196.3696,-168.3141 1201.7807,-134.2518 1219,-112 1241.1257,-83.4078 1301.8253,-83.1922 1278,-56 1257.9645,-33.1332 1057.2164,-17.9078 970.5246,-12.3501"/>
<polygon fill="#191970" stroke="#191970" points="970.7381,-8.8567 960.5376,-11.7204 970.2976,-15.8429 970.7381,-8.8567"/>
</g>
<!-- Node45&#45;&gt;Node13 -->
<g id="edge86" class="edge">
<title>Node45&#45;&gt;Node13</title>
<path fill="none" stroke="#191970" d="M1149.175,-186.2315C1133.9275,-183.6317 1116.7589,-180.9372 1101,-179 900.9805,-154.4122 849.6679,-161.5676 649,-143 610.1971,-139.4096 565.7056,-134.625 535.9269,-131.3261"/>
<polygon fill="#191970" stroke="#191970" points="535.9852,-127.8111 525.6593,-130.183 535.2106,-134.7681 535.9852,-127.8111"/>
</g>
<!-- Node45&#45;&gt;Node21 -->
<g id="edge85" class="edge">
<title>Node45&#45;&gt;Node21</title>
<path fill="none" stroke="#191970" d="M1234.5309,-184.9717C1290.5755,-171.7963 1390.8109,-148.2322 1443.8508,-135.7631"/>
<polygon fill="#191970" stroke="#191970" points="1444.8688,-139.1193 1453.8024,-133.4236 1443.2668,-132.3051 1444.8688,-139.1193"/>
</g>
<!-- Node46 -->
<g id="node47" class="node">
<title>Node46</title>
<polygon fill="none" stroke="#bfbfbf" points="1228.5,-118 1228.5,-137 1293.5,-137 1293.5,-118 1228.5,-118"/>
<text text-anchor="middle" x="1261" y="-125" font-family="Helvetica,sans-Serif" font-size="10.00" fill="#000000">functional</text>
</g>
<!-- Node45&#45;&gt;Node46 -->
<g id="edge87" class="edge">
<title>Node45&#45;&gt;Node46</title>
<path fill="none" stroke="#191970" d="M1203.5995,-184.9005C1214.147,-174.353 1231.2904,-157.2096 1244.1002,-144.3998"/>
<polygon fill="#191970" stroke="#191970" points="1246.8221,-146.6276 1251.4183,-137.0817 1241.8724,-141.6779 1246.8221,-146.6276"/>
</g>
<!-- Node48&#45;&gt;Node5 -->
<g id="edge92" class="edge">
<title>Node48&#45;&gt;Node5</title>
<path fill="none" stroke="#191970" d="M644.9558,-184.8342C640.3833,-168.3004 633.7955,-134.226 649,-112 677.0874,-70.9418 820.3848,-34.3434 891.2342,-18.426"/>
<polygon fill="#191970" stroke="#191970" points="892.1343,-21.8115 901.1394,-16.2295 890.6188,-14.9775 892.1343,-21.8115"/>
</g>
<!-- Node48&#45;&gt;Node12 -->
<g id="edge94" class="edge">
<title>Node48&#45;&gt;Node12</title>
<path fill="none" stroke="#191970" d="M634.3432,-184.9368C620.0586,-174.8224 597.1006,-158.2499 578,-143 552.8896,-122.9519 525.0433,-98.4768 507.2989,-82.5798"/>
<polygon fill="#191970" stroke="#191970" points="509.2303,-79.6094 499.4557,-75.5219 504.5479,-84.8127 509.2303,-79.6094"/>
</g>
<!-- Node48&#45;&gt;Node13 -->
<g id="edge95" class="edge">
<title>Node48&#45;&gt;Node13</title>
<path fill="none" stroke="#191970" d="M627.0818,-184.9005C602.2544,-173.5072 560.6567,-154.4178 532.3058,-141.4075"/>
<polygon fill="#191970" stroke="#191970" points="533.4279,-138.0715 522.8794,-137.0817 530.5083,-144.4336 533.4279,-138.0715"/>
</g>
<!-- Node48&#45;&gt;Node44 -->
<g id="edge93" class="edge">
<title>Node48&#45;&gt;Node44</title>
<path fill="none" stroke="#191970" d="M653.731,-184.9005C659.7905,-174.751 669.4961,-158.4941 677.0341,-145.8679"/>
<polygon fill="#191970" stroke="#191970" points="680.1586,-147.462 682.2796,-137.0817 674.1483,-143.8737 680.1586,-147.462"/>
</g>
<!-- Node48&#45;&gt;Node47 -->
<g id="edge96" class="edge">
<title>Node48&#45;&gt;Node47</title>
<path fill="none" stroke="#191970" d="M663.3305,-184.9005C681.0491,-173.8057 710.4228,-155.4128 731.1368,-142.4424"/>
<polygon fill="#191970" stroke="#191970" points="733.0799,-145.3553 739.6979,-137.0817 729.3649,-139.4224 733.0799,-145.3553"/>
</g>
<!-- Node49&#45;&gt;Node2 -->
<g id="edge99" class="edge">
<title>Node49&#45;&gt;Node2</title>
<path fill="none" stroke="#191970" d="M2147.4876,-313.279C2143.1998,-303.0804 2137.5579,-289.3154 2133,-277 2106.1698,-204.5055 2136.1353,-162.947 2078,-112 2048.1583,-85.8482 1933.4678,-73.31 1874.486,-68.486"/>
<polygon fill="#191970" stroke="#191970" points="1874.3977,-64.9684 1864.1541,-67.6735 1873.8489,-71.9468 1874.3977,-64.9684"/>
</g>
<!-- Node49&#45;&gt;Node5 -->
<g id="edge98" class="edge">
<title>Node49&#45;&gt;Node5</title>
<path fill="none" stroke="#191970" d="M2155.9377,-313.4713C2160.1506,-273.5114 2165.3775,-164.1365 2105,-112 2024.7169,-42.6749 1977.9924,-71.0979 1873,-56 1694.5691,-30.3416 1126.1848,-14.7907 970.6646,-10.9422"/>
<polygon fill="#191970" stroke="#191970" points="970.691,-7.4419 960.6081,-10.6955 970.5192,-14.4398 970.691,-7.4419"/>
</g>
<!-- Node50&#45;&gt;Node2 -->
<g id="edge101" class="edge">
<title>Node50&#45;&gt;Node2</title>
<path fill="none" stroke="#191970" d="M2310.814,-318.9981C2277.0965,-311.7912 2238.3931,-299.1491 2209,-277 2139.7702,-224.832 2177.0389,-160.2148 2105,-112 2067.8141,-87.1119 1938.1051,-73.7588 1874.5906,-68.5798"/>
<polygon fill="#191970" stroke="#191970" points="1874.5077,-65.0624 1864.2627,-67.7624 1873.9554,-72.0406 1874.5077,-65.0624"/>
</g>
<!-- Node51&#45;&gt;Node2 -->
<g id="edge104" class="edge">
<title>Node51&#45;&gt;Node2</title>
<path fill="none" stroke="#191970" d="M1063.8766,-179.347C1113.4184,-156.6239 1203.1322,-115.947 1219,-112 1331.1242,-84.1103 1689.339,-70.6965 1803.6114,-67.0523"/>
<polygon fill="#191970" stroke="#191970" points="1804.0067,-70.5417 1813.892,-66.73 1803.7872,-63.5452 1804.0067,-70.5417"/>
</g>
<!-- Node51&#45;&gt;Node5 -->
<g id="edge106" class="edge">
<title>Node51&#45;&gt;Node5</title>
<path fill="none" stroke="#191970" d="M983.9906,-179.4254C940.397,-162.3834 879.3006,-129.7707 859,-76 855.8604,-67.684 854.7296,-63.7959 859,-56 866.7587,-41.836 880.9409,-31.3995 894.6795,-24.0818"/>
<polygon fill="#191970" stroke="#191970" points="896.5898,-27.0438 904.0356,-19.5066 893.5146,-20.7555 896.5898,-27.0438"/>
</g>
<!-- Node51&#45;&gt;Node13 -->
<g id="edge105" class="edge">
<title>Node51&#45;&gt;Node13</title>
<path fill="none" stroke="#191970" d="M969.2817,-186.6831C857.0402,-172.4673 623.0443,-142.8307 535.7749,-131.7777"/>
<polygon fill="#191970" stroke="#191970" points="536.0009,-128.2785 525.6403,-130.4941 535.1213,-135.223 536.0009,-128.2785"/>
</g>
<!-- Node52&#45;&gt;Node1 -->
<g id="edge121" class="edge">
<title>Node52&#45;&gt;Node1</title>
<path fill="none" stroke="#191970" d="M1680.9276,-380.3468C1737.4398,-352.4382 1856.7662,-288.5208 1938,-210 1957.8555,-190.8076 1974.9895,-163.7245 1985.1513,-145.898"/>
<polygon fill="#191970" stroke="#191970" points="1988.2657,-147.4987 1990.0525,-137.0556 1982.1433,-144.1052 1988.2657,-147.4987"/>
</g>
<!-- Node52&#45;&gt;Node3 -->
<g id="edge134" class="edge">
<title>Node52&#45;&gt;Node3</title>
<path fill="none" stroke="#191970" d="M1609.326,-380.4978C1584.9171,-370.8745 1553.2064,-357.6593 1526,-344 1397.2537,-279.3613 1380.0764,-234.1764 1247,-179 1211.8816,-164.4391 1171.5444,-153.1053 1136.3361,-144.8232"/>
<polygon fill="#191970" stroke="#191970" points="1137.0807,-141.4031 1126.5501,-142.568 1135.5087,-148.2243 1137.0807,-141.4031"/>
</g>
<!-- Node52&#45;&gt;Node19 -->
<g id="edge110" class="edge">
<title>Node52&#45;&gt;Node19</title>
<path fill="none" stroke="#191970" d="M1625.7891,-380.4418C1580.7709,-350.6956 1479.4816,-281.0964 1405,-210 1383.6069,-189.5792 1362.2726,-162.8462 1349.1137,-145.429"/>
<polygon fill="#191970" stroke="#191970" points="1351.8026,-143.1798 1343.0207,-137.2529 1346.1897,-147.3627 1351.8026,-143.1798"/>
</g>
<!-- Node52&#45;&gt;Node22 -->
<g id="edge109" class="edge">
<title>Node52&#45;&gt;Node22</title>
<path fill="none" stroke="#191970" d="M1647.1221,-380.192C1644.4598,-357.6428 1639.7206,-314.1506 1638,-277 1635.9849,-233.4911 1642.5743,-222.3147 1638,-179 1636.8698,-168.2983 1634.4536,-156.5506 1632.1728,-146.9809"/>
<polygon fill="#191970" stroke="#191970" points="1635.5648,-146.1179 1629.731,-137.2739 1628.7763,-147.8256 1635.5648,-146.1179"/>
</g>
<!-- Node52&#45;&gt;Node26 -->
<g id="edge108" class="edge">
<title>Node52&#45;&gt;Node26</title>
<path fill="none" stroke="#191970" d="M1710.8644,-392.6493C1838.8083,-386.3147 2128.5189,-369.5785 2224,-344 2241.0947,-339.4205 2498.2219,-219.7369 2513,-210 2542.2065,-190.7567 2571.5253,-162.564 2588.9682,-144.625"/>
<polygon fill="#191970" stroke="#191970" points="2591.7155,-146.8167 2596.1038,-137.1733 2586.6596,-141.9753 2591.7155,-146.8167"/>
</g>
<!-- Node52&#45;&gt;Node31 -->
<g id="edge120" class="edge">
<title>Node52&#45;&gt;Node31</title>
<path fill="none" stroke="#191970" d="M1655.7661,-380.389C1666.0292,-357.4681 1685.6398,-313.6712 1697.9799,-286.1116"/>
<polygon fill="#191970" stroke="#191970" points="1701.2742,-287.3186 1702.1665,-276.7614 1694.8854,-284.4579 1701.2742,-287.3186"/>
</g>
<!-- Node52&#45;&gt;Node45 -->
<g id="edge111" class="edge">
<title>Node52&#45;&gt;Node45</title>
<path fill="none" stroke="#191970" d="M1587.1989,-388.0742C1516.3329,-378.8889 1405.0408,-362.2187 1367,-344 1331.5523,-327.0232 1247.4302,-246.8576 1211.1458,-211.418"/>
<polygon fill="#191970" stroke="#191970" points="1213.3665,-208.6936 1203.7759,-204.1912 1208.4655,-213.6916 1213.3665,-208.6936"/>
</g>
<!-- Node52&#45;&gt;Node49 -->
<g id="edge113" class="edge">
<title>Node52&#45;&gt;Node49</title>
<path fill="none" stroke="#191970" d="M1710.6703,-387.318C1804.5374,-374.8644 1982.8299,-351.2097 2082.3252,-338.0093"/>
<polygon fill="#191970" stroke="#191970" points="2082.838,-341.4721 2092.2908,-336.6872 2081.9173,-334.5329 2082.838,-341.4721"/>
</g>
<!-- Node52&#45;&gt;Node51 -->
<g id="edge112" class="edge">
<title>Node52&#45;&gt;Node51</title>
<path fill="none" stroke="#191970" d="M1587.2021,-389.4534C1499.7083,-380.4087 1344.4207,-362.4386 1291,-344 1200.1394,-312.6388 1105.1211,-248.7684 1059.188,-215.5813"/>
<polygon fill="#191970" stroke="#191970" points="1061.0756,-212.626 1050.9329,-209.5639 1056.9522,-218.2828 1061.0756,-212.626"/>
</g>
<!-- Node52&#45;&gt;Node53 -->
<g id="edge114" class="edge">
<title>Node52&#45;&gt;Node53</title>
<path fill="none" stroke="#191970" d="M1587.2524,-387.5826C1509.3327,-377.5655 1371.2048,-359.722 1253,-344 1239.2982,-342.1776 1224.6737,-340.2078 1210.6265,-338.3034"/>
<polygon fill="#191970" stroke="#191970" points="1210.9016,-334.8087 1200.5216,-336.9314 1209.9597,-341.7451 1210.9016,-334.8087"/>
</g>
<!-- Node52&#45;&gt;Node54 -->
<g id="edge122" class="edge">
<title>Node52&#45;&gt;Node54</title>
<path fill="none" stroke="#191970" d="M1707.3491,-380.4639C1754.1585,-368.4015 1818.992,-351.6944 1862.383,-340.5128"/>
<polygon fill="#191970" stroke="#191970" points="1863.3036,-343.89 1872.1138,-338.0053 1861.5567,-337.1115 1863.3036,-343.89"/>
</g>
<!-- Node53&#45;&gt;Node10 -->
<g id="edge117" class="edge">
<title>Node53&#45;&gt;Node10</title>
<path fill="none" stroke="#191970" d="M1077.2442,-319.4837C954.2541,-301.2746 669.8542,-257.906 421.7235,-210.2865"/>
<polygon fill="#191970" stroke="#191970" points="422.2799,-206.8294 411.7985,-208.3757 420.9564,-213.7032 422.2799,-206.8294"/>
</g>
<!-- Node53&#45;&gt;Node22 -->
<g id="edge116" class="edge">
<title>Node53&#45;&gt;Node22</title>
<path fill="none" stroke="#191970" d="M1200.7615,-321.8385C1317.1471,-307.9553 1562.195,-271.959 1617,-210 1632.1114,-192.916 1632.3729,-165.4714 1630.3623,-146.9768"/>
<polygon fill="#191970" stroke="#191970" points="1633.8224,-146.4474 1628.9702,-137.0289 1626.8899,-147.4175 1633.8224,-146.4474"/>
</g>
<!-- Node53&#45;&gt;Node24 -->
<g id="edge115" class="edge">
<title>Node53&#45;&gt;Node24</title>
<path fill="none" stroke="#191970" d="M1200.9783,-327.1563C1490.8852,-320.7948 2702.3743,-293.3335 2781,-277 2817.5244,-269.4125 2822.9084,-255.4339 2859,-246 2975.7006,-215.496 3019.0531,-261.7698 3128,-210 3146.1754,-201.3633 3143.7763,-189.4058 3161,-179 3163.6364,-177.4072 3236.2801,-152.576 3279.1438,-137.9852"/>
<polygon fill="#191970" stroke="#191970" points="3280.4874,-141.2251 3288.8272,-134.6907 3278.2327,-134.5982 3280.4874,-141.2251"/>
</g>
<!-- Node53&#45;&gt;Node41 -->
<g id="edge119" class="edge">
<title>Node53&#45;&gt;Node41</title>
<path fill="none" stroke="#191970" d="M1086.037,-313.4639C1050.4828,-303.3701 1003.4726,-290.024 965.9972,-279.3848"/>
<polygon fill="#191970" stroke="#191970" points="966.7697,-275.9659 956.194,-276.6017 964.858,-282.6998 966.7697,-275.9659"/>
</g>
<!-- Node53&#45;&gt;Node45 -->
<g id="edge118" class="edge">
<title>Node53&#45;&gt;Node45</title>
<path fill="none" stroke="#191970" d="M1145.2023,-313.389C1155.2716,-288.8564 1175.1568,-240.4088 1186.1803,-213.5517"/>
<polygon fill="#191970" stroke="#191970" points="1189.4987,-214.6842 1190.058,-204.1042 1183.023,-212.0262 1189.4987,-214.6842"/>
</g>
<!-- Node54&#45;&gt;Node1 -->
<g id="edge125" class="edge">
<title>Node54&#45;&gt;Node1</title>
<path fill="none" stroke="#191970" d="M1909.9516,-318.9212C1911.9106,-302.8097 1917.499,-269.7245 1932,-246 1944.3022,-225.8729 1958.5852,-230.0579 1971,-210 1983.0426,-190.5434 1989.2704,-164.782 1992.328,-147.2576"/>
<polygon fill="#191970" stroke="#191970" points="1995.8324,-147.4988 1993.9088,-137.0801 1988.9154,-146.4244 1995.8324,-147.4988"/>
</g>
<!-- Node54&#45;&gt;Node3 -->
<g id="edge131" class="edge">
<title>Node54&#45;&gt;Node3</title>
<path fill="none" stroke="#191970" d="M1850.5198,-318.9909C1795.41,-309.6516 1710.6751,-294.3155 1638,-277 1533.1822,-252.0262 1507.5172,-243.1766 1405,-210 1366.3442,-197.4902 1358.1948,-189.7018 1319,-179 1261.7228,-163.3609 1196.3843,-150.8227 1144.1033,-142.0346"/>
<polygon fill="#191970" stroke="#191970" points="1144.6018,-138.5695 1134.1632,-140.3823 1143.454,-145.4747 1144.6018,-138.5695"/>
</g>
<!-- Node54&#45;&gt;Node4 -->
<g id="edge124" class="edge">
<title>Node54&#45;&gt;Node4</title>
<path fill="none" stroke="#191970" d="M1838.1527,-323.388C1759.0649,-316.7143 1627.6481,-302.7278 1517,-277 1426.5123,-255.9599 1405.7342,-243.2851 1319,-210 1286.4729,-197.5174 1280.6348,-188.0845 1247,-179 1183.0297,-161.7222 1000.8668,-186.6351 951,-143 934.8083,-128.8317 930.9165,-103.3949 930.3509,-85.6497"/>
<polygon fill="#191970" stroke="#191970" points="933.8509,-85.5314 930.3559,-75.5296 926.8509,-85.5279 933.8509,-85.5314"/>
</g>
<!-- Node54&#45;&gt;Node36 -->
<g id="edge123" class="edge">
<title>Node54&#45;&gt;Node36</title>
<path fill="none" stroke="#191970" d="M1979.6429,-321.6047C2011.2409,-318.6759 2048.9651,-315.3928 2083,-313 2160.4674,-307.5538 2719.8371,-324.8536 2781,-277 2796.521,-264.8564 2828.4835,-135.7207 2840.3935,-85.6668"/>
<polygon fill="#191970" stroke="#191970" points="2843.8428,-86.2887 2842.7359,-75.7518 2837.0303,-84.6792 2843.8428,-86.2887"/>
</g>
<!-- Node55 -->
<g id="node56" class="node">
<title>Node55</title>
<g id="a_node56"><a xlink:href="../../d6/d89/RDHAny_8h.html" target="_top" xlink:title="Headers/RDHAny.h">
<polygon fill="none" stroke="#000000" points="1821,-185 1821,-204 1929,-204 1929,-185 1821,-185"/>
<text text-anchor="middle" x="1875" y="-192" font-family="Helvetica,sans-Serif" font-size="10.00" fill="#000000">Headers/RDHAny.h</text>
</a>
</g>
</g>
<!-- Node54&#45;&gt;Node55 -->
<g id="edge126" class="edge">
<title>Node54&#45;&gt;Node55</title>
<path fill="none" stroke="#191970" d="M1906.5548,-318.8631C1900.9922,-296.9398 1887.3024,-242.9858 1879.9155,-213.8727"/>
<polygon fill="#191970" stroke="#191970" points="1883.275,-212.8817 1877.423,-204.0496 1876.49,-214.6033 1883.275,-212.8817"/>
</g>
<!-- Node56 -->
<g id="node57" class="node">
<title>Node56</title>
<g id="a_node57"><a xlink:href="../../d7/d34/DAQID_8h.html" target="_top" xlink:title="Headers/DAQID.h">
<polygon fill="none" stroke="#000000" points="1941.5,-252 1941.5,-271 2042.5,-271 2042.5,-252 1941.5,-252"/>
<text text-anchor="middle" x="1992" y="-259" font-family="Helvetica,sans-Serif" font-size="10.00" fill="#000000">Headers/DAQID.h</text>
</a>
</g>
</g>
<!-- Node54&#45;&gt;Node56 -->
<g id="edge132" class="edge">
<title>Node54&#45;&gt;Node56</title>
<path fill="none" stroke="#191970" d="M1920.8919,-318.9005C1934.2048,-308.1539 1955.9999,-290.5603 1971.9568,-277.6794"/>
<polygon fill="#191970" stroke="#191970" points="1974.5474,-280.0863 1980.1302,-271.0817 1970.1506,-274.6395 1974.5474,-280.0863"/>
</g>
<!-- Node55&#45;&gt;Node1 -->
<g id="edge128" class="edge">
<title>Node55&#45;&gt;Node1</title>
<path fill="none" stroke="#191970" d="M1892.1931,-184.9005C1912.2427,-173.7062 1945.5988,-155.0823 1968.8602,-142.0947"/>
<polygon fill="#191970" stroke="#191970" points="1970.8138,-145.0126 1977.8388,-137.0817 1967.4013,-138.9007 1970.8138,-145.0126"/>
</g>
<!-- Node55&#45;&gt;Node18 -->
<g id="edge130" class="edge">
<title>Node55&#45;&gt;Node18</title>
<path fill="none" stroke="#191970" d="M1868.8391,-184.9005C1862.2614,-174.6515 1851.6867,-158.1747 1843.5507,-145.4976"/>
<polygon fill="#191970" stroke="#191970" points="1846.4963,-143.6071 1838.1494,-137.0817 1840.6051,-147.388 1846.4963,-143.6071"/>
</g>
<!-- Node55&#45;&gt;Node20 -->
<g id="edge129" class="edge">
<title>Node55&#45;&gt;Node20</title>
<path fill="none" stroke="#191970" d="M1856.6607,-184.9005C1835.0844,-173.6067 1799.0609,-154.7506 1774.2234,-141.7497"/>
<polygon fill="#191970" stroke="#191970" points="1775.7881,-138.6183 1765.3053,-137.0817 1772.5418,-144.8201 1775.7881,-138.6183"/>
</g>
<!-- Node55&#45;&gt;Node36 -->
<g id="edge127" class="edge">
<title>Node55&#45;&gt;Node36</title>
<path fill="none" stroke="#191970" d="M1875.9955,-184.8058C1878.4046,-166.9299 1886.3092,-129.0473 1911,-112 1946.7632,-87.308 2576.2885,-71.7372 2781.1504,-67.3063"/>
<polygon fill="#191970" stroke="#191970" points="2781.5232,-70.7992 2791.4457,-67.0853 2781.3729,-63.8008 2781.5232,-70.7992"/>
</g>
<!-- Node56&#45;&gt;Node27 -->
<g id="edge133" class="edge">
<title>Node56&#45;&gt;Node27</title>
<path fill="none" stroke="#191970" d="M2042.6419,-253.2845C2116.3561,-241.326 2253.4192,-219.0906 2336.2116,-205.6594"/>
<polygon fill="#191970" stroke="#191970" points="2336.969,-209.0823 2346.2795,-204.0261 2335.848,-202.1727 2336.969,-209.0823"/>
</g>
</g>
</svg>
