<?xml version="1.0" encoding="UTF-8" standalone="no"?>
<!DOCTYPE svg PUBLIC "-//W3C//DTD SVG 1.1//EN"
 "http://www.w3.org/Graphics/SVG/1.1/DTD/svg11.dtd">
<!-- Generated by graphviz version 2.40.1 (20161225.0304)
 -->
<!-- Title: UnaryKernel Pages: 1 -->
<svg width="163pt" height="193pt"
 viewBox="0.00 0.00 163.00 193.00" xmlns="http://www.w3.org/2000/svg" xmlns:xlink="http://www.w3.org/1999/xlink">
<g id="graph0" class="graph" transform="scale(1 1) rotate(0) translate(4 189)">
<title>UnaryKernel</title>
<!-- Node0 -->
<g id="node1" class="node">
<title>Node0</title>
<polygon fill="#bfbfbf" stroke="#000000" points="39,-127.5 39,-184.5 116,-184.5 116,-127.5 39,-127.5"/>
<text text-anchor="middle" x="77.5" y="-172.5" font-family="Helvetica,sans-Serif" font-size="10.00" fill="#000000">UnaryKernel</text>
<polyline fill="none" stroke="#000000" points="39,-165.5 116,-165.5 "/>
<text text-anchor="middle" x="77.5" y="-153.5" font-family="Helvetica,sans-Serif" font-size="10.00" fill="#000000"> </text>
<polyline fill="none" stroke="#000000" points="39,-146.5 116,-146.5 "/>
<text text-anchor="middle" x="77.5" y="-134.5" font-family="Helvetica,sans-Serif" font-size="10.00" fill="#000000"> </text>
</g>
<!-- Node1 -->
<g id="node2" class="node">
<title>Node1</title>
<g id="a_node2"><a xlink:href="../../db/d8a/classo2_1_1framework_1_1SortedGroupByKernel.html" target="_top" xlink:title="Build ranges. ">
<polygon fill="none" stroke="#000000" points="0,-.5 0,-90.5 155,-90.5 155,-.5 0,-.5"/>
<text text-anchor="start" x="8" y="-78.5" font-family="Helvetica,sans-Serif" font-size="10.00" fill="#000000">o2::framework::SortedGroup</text>
<text text-anchor="middle" x="77.5" y="-67.5" font-family="Helvetica,sans-Serif" font-size="10.00" fill="#000000">ByKernel&lt; T, ARRAY &gt;</text>
<polyline fill="none" stroke="#000000" points="0,-60.5 155,-60.5 "/>
<text text-anchor="middle" x="77.5" y="-48.5" font-family="Helvetica,sans-Serif" font-size="10.00" fill="#000000"> </text>
<polyline fill="none" stroke="#000000" points="0,-41.5 155,-41.5 "/>
<text text-anchor="start" x="8" y="-29.5" font-family="Helvetica,sans-Serif" font-size="10.00" fill="#000000">+ SortedGroupByKernel()</text>
<text text-anchor="start" x="8" y="-18.5" font-family="Helvetica,sans-Serif" font-size="10.00" fill="#000000">+ Call()</text>
<text text-anchor="start" x="8" y="-7.5" font-family="Helvetica,sans-Serif" font-size="10.00" fill="#000000">+ out_type()</text>
</a>
</g>
</g>
<!-- Node0&#45;&gt;Node1 -->
<g id="edge1" class="edge">
<title>Node0&#45;&gt;Node1</title>
<path fill="none" stroke="#191970" d="M77.5,-117.1977C77.5,-108.667 77.5,-99.5607 77.5,-90.7995"/>
<polygon fill="none" stroke="#191970" points="74.0001,-117.2559 77.5,-127.2559 81.0001,-117.2559 74.0001,-117.2559"/>
</g>
</g>
</svg>
