<?xml version="1.0" encoding="UTF-8" standalone="no"?>
<!DOCTYPE svg PUBLIC "-//W3C//DTD SVG 1.1//EN"
 "http://www.w3.org/Graphics/SVG/1.1/DTD/svg11.dtd">
<!-- Generated by graphviz version 2.40.1 (20161225.0304)
 -->
<!-- Title: /home/travis/build/AliceO2Group/AliceO2/DataFormats/Detectors/TRD/src/LinkRecord.cxx Pages: 1 -->
<!--zoomable 296 -->
<svg id="main" version="1.1" xmlns="http://www.w3.org/2000/svg" xmlns:xlink="http://www.w3.org/1999/xlink" xml:space="preserve" onload="init(evt)">
<style type="text/css"><![CDATA[
.edge:hover path { stroke: red; }
.edge:hover polygon { stroke: red; fill: red; }
]]></style>
<script type="text/javascript"><![CDATA[
var edges = document.getElementsByTagName('g');
if (edges && edges.length) {
  for (var i=0;i<edges.length;i++) {
    if (edges[i].id.substr(0,4)=='edge') {
      edges[i].setAttribute('class','edge');
    }
  }
}
]]></script>
        <defs>
                <circle id="rim" cx="0" cy="0" r="7"/>
                <circle id="rim2" cx="0" cy="0" r="3.5"/>
                <g id="zoomPlus">
                        <use xlink:href="#rim" fill="#404040">
                                <set attributeName="fill" to="#808080" begin="zoomplus.mouseover" end="zoomplus.mouseout"/>
                        </use>
                        <path d="M-4,0h8M0,-4v8" fill="none" stroke="white" stroke-width="1.5" pointer-events="none"/>
                </g>
                <g id="zoomMin">
                        <use xlink:href="#rim" fill="#404040">
                                <set attributeName="fill" to="#808080" begin="zoomminus.mouseover" end="zoomminus.mouseout"/>
                        </use>
                        <path d="M-4,0h8" fill="none" stroke="white" stroke-width="1.5" pointer-events="none"/>
                </g>
                <g id="dirArrow">
                        <path fill="none" stroke="white" stroke-width="1.5" d="M0,-3.0v7 M-2.5,-0.5L0,-3.0L2.5,-0.5"/>
                </g>
               <g id="resetDef">
                       <use xlink:href="#rim2" fill="#404040">
                               <set attributeName="fill" to="#808080" begin="reset.mouseover" end="reset.mouseout"/>
                       </use>
               </g>
        </defs>

<script type="text/javascript">
var viewWidth = 749;
var viewHeight = 296;
var sectionId = 'dynsection-0';
</script>
<script xlink:href="../../svgpan.js"/>
<svg id="graph" class="graph">
<g id="viewport">
<title>/home/travis/build/AliceO2Group/AliceO2/DataFormats/Detectors/TRD/src/LinkRecord.cxx</title>
<!-- Node0 -->
<g id="node1" class="node">
<title>Node0</title>
<polygon fill="#bfbfbf" stroke="#000000" points="124.6437,-235.5 124.6437,-287.5 258.6437,-287.5 258.6437,-235.5 124.6437,-235.5"/>
<text text-anchor="start" x="132.6437" y="-275.5" font-family="Helvetica,sans-Serif" font-size="10.00" fill="#000000">/home/travis/build</text>
<text text-anchor="start" x="132.6437" y="-264.5" font-family="Helvetica,sans-Serif" font-size="10.00" fill="#000000">/AliceO2Group/AliceO2</text>
<text text-anchor="start" x="132.6437" y="-253.5" font-family="Helvetica,sans-Serif" font-size="10.00" fill="#000000">/DataFormats/Detectors</text>
<text text-anchor="middle" x="191.6437" y="-242.5" font-family="Helvetica,sans-Serif" font-size="10.00" fill="#000000">/TRD/src/LinkRecord.cxx</text>
</g>
<!-- Node1 -->
<g id="node2" class="node">
<title>Node1</title>
<polygon fill="none" stroke="#bfbfbf" points="96.6437,-179.5 96.6437,-198.5 156.6437,-198.5 156.6437,-179.5 96.6437,-179.5"/>
<text text-anchor="middle" x="126.6437" y="-186.5" font-family="Helvetica,sans-Serif" font-size="10.00" fill="#000000">iostream</text>
</g>
<!-- Node0&#45;&gt;Node1 -->
<g id="edge1" class="edge">
<title>Node0&#45;&gt;Node1</title>
<path fill="none" stroke="#191970" d="M168.1772,-235.3258C159.4691,-225.613 149.8212,-214.8518 142.0174,-206.1476"/>
<polygon fill="#191970" stroke="#191970" points="144.4729,-203.6433 135.1914,-198.534 139.2609,-208.3161 144.4729,-203.6433"/>
</g>
<!-- Node2 -->
<g id="node3" class="node">
<title>Node2</title>
<g id="a_node3"><a xlink:href="../../de/d86/LinkRecord_8h.html" target="_top" xlink:title="DataFormatsTRD/LinkRecord.h">
<polygon fill="none" stroke="#000000" points="175.1437,-179.5 175.1437,-198.5 340.1437,-198.5 340.1437,-179.5 175.1437,-179.5"/>
<text text-anchor="middle" x="257.6437" y="-186.5" font-family="Helvetica,sans-Serif" font-size="10.00" fill="#000000">DataFormatsTRD/LinkRecord.h</text>
</a>
</g>
</g>
<!-- Node0&#45;&gt;Node2 -->
<g id="edge2" class="edge">
<title>Node0&#45;&gt;Node2</title>
<path fill="none" stroke="#191970" d="M215.4712,-235.3258C224.3133,-225.613 234.1097,-214.8518 242.0335,-206.1476"/>
<polygon fill="#191970" stroke="#191970" points="244.8208,-208.285 248.9645,-198.534 239.6445,-203.5727 244.8208,-208.285"/>
</g>
<!-- Node3 -->
<g id="node4" class="node">
<title>Node3</title>
<polygon fill="none" stroke="#bfbfbf" points="224.1437,-56.5 224.1437,-75.5 273.1437,-75.5 273.1437,-56.5 224.1437,-56.5"/>
<text text-anchor="middle" x="248.6437" y="-63.5" font-family="Helvetica,sans-Serif" font-size="10.00" fill="#000000">iosfwd</text>
</g>
<!-- Node2&#45;&gt;Node3 -->
<g id="edge3" class="edge">
<title>Node2&#45;&gt;Node3</title>
<path fill="none" stroke="#191970" d="M256.9375,-179.3484C255.4654,-159.2295 252.0433,-112.4608 250.0859,-85.7098"/>
<polygon fill="#191970" stroke="#191970" points="253.5672,-85.3247 249.3467,-75.6068 246.5858,-85.8356 253.5672,-85.3247"/>
</g>
<!-- Node4 -->
<g id="node5" class="node">
<title>Node4</title>
<polygon fill="none" stroke="#bfbfbf" points="28.1437,-.5 28.1437,-19.5 87.1437,-19.5 87.1437,-.5 28.1437,-.5"/>
<text text-anchor="middle" x="57.6437" y="-7.5" font-family="Helvetica,sans-Serif" font-size="10.00" fill="#000000">Rtypes.h</text>
</g>
<!-- Node2&#45;&gt;Node4 -->
<g id="edge4" class="edge">
<title>Node2&#45;&gt;Node4</title>
<path fill="none" stroke="#191970" d="M179.3251,-179.4596C111.1446,-170.3489 21.5333,-156.1048 10.6437,-143 -18.1501,-108.3487 18.7122,-54.8155 41.7358,-27.4334"/>
<polygon fill="#191970" stroke="#191970" points="44.4304,-29.6685 48.3488,-19.8249 39.1471,-25.0765 44.4304,-29.6685"/>
</g>
<!-- Node5 -->
<g id="node6" class="node">
<title>Node5</title>
<g id="a_node6"><a xlink:href="../../d9/d80/InteractionRecord_8h.html" target="_top" xlink:title="CommonDataFormat/Interaction\lRecord.h">
<polygon fill="none" stroke="#000000" points="285.6437,-112.5 285.6437,-142.5 459.6437,-142.5 459.6437,-112.5 285.6437,-112.5"/>
<text text-anchor="start" x="293.6437" y="-130.5" font-family="Helvetica,sans-Serif" font-size="10.00" fill="#000000">CommonDataFormat/Interaction</text>
<text text-anchor="middle" x="372.6437" y="-119.5" font-family="Helvetica,sans-Serif" font-size="10.00" fill="#000000">Record.h</text>
</a>
</g>
</g>
<!-- Node2&#45;&gt;Node5 -->
<g id="edge5" class="edge">
<title>Node2&#45;&gt;Node5</title>
<path fill="none" stroke="#191970" d="M275.6125,-179.3906C291.6087,-170.8361 315.516,-158.0509 335.5967,-147.3121"/>
<polygon fill="#191970" stroke="#191970" points="337.3439,-150.3469 344.5116,-142.5446 334.0428,-144.1741 337.3439,-150.3469"/>
</g>
<!-- Node10 -->
<g id="node11" class="node">
<title>Node10</title>
<g id="a_node11"><a xlink:href="../../de/d64/RangeReference_8h.html" target="_top" xlink:title="Class to refer to the 1st entry and N elements of some group in the continuous container. ">
<polygon fill="none" stroke="#000000" points="19.6437,-118 19.6437,-137 229.6437,-137 229.6437,-118 19.6437,-118"/>
<text text-anchor="middle" x="124.6437" y="-125" font-family="Helvetica,sans-Serif" font-size="10.00" fill="#000000">CommonDataFormat/RangeReference.h</text>
</a>
</g>
</g>
<!-- Node2&#45;&gt;Node10 -->
<g id="edge12" class="edge">
<title>Node2&#45;&gt;Node10</title>
<path fill="none" stroke="#191970" d="M236.8625,-179.3906C214.8043,-169.1908 179.7387,-152.9763 154.6768,-141.3875"/>
<polygon fill="#191970" stroke="#191970" points="155.8246,-138.0622 145.279,-137.0419 152.8867,-144.4158 155.8246,-138.0622"/>
</g>
<!-- Node11 -->
<g id="node12" class="node">
<title>Node11</title>
<g id="a_node12"><a xlink:href="../../dc/d62/RawData_8h.html" target="_top" xlink:title="DataFormatsTRD/RawData.h">
<polygon fill="none" stroke="#000000" points="538.6437,-118 538.6437,-137 694.6437,-137 694.6437,-118 538.6437,-118"/>
<text text-anchor="middle" x="616.6437" y="-125" font-family="Helvetica,sans-Serif" font-size="10.00" fill="#000000">DataFormatsTRD/RawData.h</text>
</a>
</g>
</g>
<!-- Node2&#45;&gt;Node11 -->
<g id="edge14" class="edge">
<title>Node2&#45;&gt;Node11</title>
<path fill="none" stroke="#191970" d="M313.3436,-179.4581C377.504,-168.4668 482.8087,-150.4272 550.9233,-138.7585"/>
<polygon fill="#191970" stroke="#191970" points="551.8432,-142.152 561.1086,-137.0137 550.6612,-135.2525 551.8432,-142.152"/>
</g>
<!-- Node5&#45;&gt;Node3 -->
<g id="edge8" class="edge">
<title>Node5&#45;&gt;Node3</title>
<path fill="none" stroke="#191970" d="M342.3099,-112.4554C322.3461,-102.554 296.3947,-89.683 276.8722,-80.0004"/>
<polygon fill="#191970" stroke="#191970" points="278.3731,-76.838 267.8593,-75.5303 275.2629,-83.1091 278.3731,-76.838"/>
</g>
<!-- Node6 -->
<g id="node7" class="node">
<title>Node6</title>
<g id="a_node7"><a xlink:href="../../d2/d45/GPUCommonRtypes_8h.html" target="_top" xlink:title="GPUCommonRtypes.h">
<polygon fill="none" stroke="#000000" points="62.1437,-56.5 62.1437,-75.5 187.1437,-75.5 187.1437,-56.5 62.1437,-56.5"/>
<text text-anchor="middle" x="124.6437" y="-63.5" font-family="Helvetica,sans-Serif" font-size="10.00" fill="#000000">GPUCommonRtypes.h</text>
</a>
</g>
</g>
<!-- Node5&#45;&gt;Node6 -->
<g id="edge6" class="edge">
<title>Node5&#45;&gt;Node6</title>
<path fill="none" stroke="#191970" d="M311.9761,-112.4554C269.1447,-101.8339 212.5329,-87.7951 172.7954,-77.9408"/>
<polygon fill="#191970" stroke="#191970" points="173.6234,-74.5402 163.0749,-75.5303 171.9385,-81.3344 173.6234,-74.5402"/>
</g>
<!-- Node7 -->
<g id="node8" class="node">
<title>Node7</title>
<polygon fill="none" stroke="#bfbfbf" points="291.1437,-56.5 291.1437,-75.5 338.1437,-75.5 338.1437,-56.5 291.1437,-56.5"/>
<text text-anchor="middle" x="314.6437" y="-63.5" font-family="Helvetica,sans-Serif" font-size="10.00" fill="#000000">cmath</text>
</g>
<!-- Node5&#45;&gt;Node7 -->
<g id="edge9" class="edge">
<title>Node5&#45;&gt;Node7</title>
<path fill="none" stroke="#191970" d="M358.3066,-112.2977C350.004,-103.4941 339.5255,-92.3833 330.9148,-83.2529"/>
<polygon fill="#191970" stroke="#191970" points="333.3376,-80.7206 323.9303,-75.8469 328.245,-85.5234 333.3376,-80.7206"/>
</g>
<!-- Node8 -->
<g id="node9" class="node">
<title>Node8</title>
<polygon fill="none" stroke="#bfbfbf" points="356.6437,-56.5 356.6437,-75.5 406.6437,-75.5 406.6437,-56.5 356.6437,-56.5"/>
<text text-anchor="middle" x="381.6437" y="-63.5" font-family="Helvetica,sans-Serif" font-size="10.00" fill="#000000">cstdint</text>
</g>
<!-- Node5&#45;&gt;Node8 -->
<g id="edge10" class="edge">
<title>Node5&#45;&gt;Node8</title>
<path fill="none" stroke="#191970" d="M374.8684,-112.2977C376.0397,-104.2945 377.4899,-94.3843 378.7478,-85.7889"/>
<polygon fill="#191970" stroke="#191970" points="382.2177,-86.2484 380.2027,-75.8469 375.2915,-85.2347 382.2177,-86.2484"/>
</g>
<!-- Node9 -->
<g id="node10" class="node">
<title>Node9</title>
<g id="a_node10"><a xlink:href="../../d4/dc6/LHCConstants_8h.html" target="_top" xlink:title="Header to collect LHC related constants. ">
<polygon fill="none" stroke="#000000" points="424.6437,-56.5 424.6437,-75.5 614.6437,-75.5 614.6437,-56.5 424.6437,-56.5"/>
<text text-anchor="middle" x="519.6437" y="-63.5" font-family="Helvetica,sans-Serif" font-size="10.00" fill="#000000">CommonConstants/LHCConstants.h</text>
</a>
</g>
</g>
<!-- Node5&#45;&gt;Node9 -->
<g id="edge11" class="edge">
<title>Node5&#45;&gt;Node9</title>
<path fill="none" stroke="#191970" d="M408.604,-112.4554C432.701,-102.374 464.1568,-89.2139 487.434,-79.4755"/>
<polygon fill="#191970" stroke="#191970" points="488.9896,-82.6187 496.8639,-75.5303 486.2879,-76.1611 488.9896,-82.6187"/>
</g>
<!-- Node6&#45;&gt;Node4 -->
<g id="edge7" class="edge">
<title>Node6&#45;&gt;Node4</title>
<path fill="none" stroke="#191970" d="M112.9732,-56.2455C103.0776,-47.9746 88.681,-35.9416 77.0536,-26.2232"/>
<polygon fill="#191970" stroke="#191970" points="79.0979,-23.3703 69.1805,-19.6427 74.6087,-28.7413 79.0979,-23.3703"/>
</g>
<!-- Node10&#45;&gt;Node6 -->
<g id="edge13" class="edge">
<title>Node10&#45;&gt;Node6</title>
<path fill="none" stroke="#191970" d="M124.6437,-117.8906C124.6437,-109.3657 124.6437,-96.6392 124.6437,-85.9235"/>
<polygon fill="#191970" stroke="#191970" points="128.1438,-85.7448 124.6437,-75.7449 121.1438,-85.7449 128.1438,-85.7448"/>
</g>
<!-- Node12 -->
<g id="node13" class="node">
<title>Node12</title>
<polygon fill="none" stroke="#bfbfbf" points="632.6437,-56.5 632.6437,-75.5 740.6437,-75.5 740.6437,-56.5 632.6437,-56.5"/>
<text text-anchor="middle" x="686.6437" y="-63.5" font-family="Helvetica,sans-Serif" font-size="10.00" fill="#000000">fairlogger/Logger.h</text>
</g>
<!-- Node11&#45;&gt;Node12 -->
<g id="edge15" class="edge">
<title>Node11&#45;&gt;Node12</title>
<path fill="none" stroke="#191970" d="M627.5812,-117.8906C638.3058,-108.4683 654.8724,-93.9134 667.7339,-82.6137"/>
<polygon fill="#191970" stroke="#191970" points="670.3496,-84.9745 675.552,-75.7449 665.7294,-79.7158 670.3496,-84.9745"/>
</g>
</g>
</svg>
        <g id="navigator" transform="translate(0 0)" fill="#404254">
                <rect fill="#f2f5e9" fill-opacity="0.5" stroke="#606060" stroke-width=".5" x="0" y="0" width="60" height="60"/>
                <use id="zoomplus" xlink:href="#zoomPlus" x="17" y="9" onmousedown="handleZoom(evt,'in')"/>
                <use id="zoomminus" xlink:href="#zoomMin" x="42" y="9" onmousedown="handleZoom(evt,'out')"/>
                <use id="reset" xlink:href="#resetDef" x="30" y="36" onmousedown="handleReset()"/>
                <g id="arrowUp" xlink:href="#dirArrow" transform="translate(30 24)" onmousedown="handlePan(0,-1)">
                  <use xlink:href="#rim" fill="#404040">
                        <set attributeName="fill" to="#808080" begin="arrowUp.mouseover" end="arrowUp.mouseout"/>
                  </use>
                  <path fill="none" stroke="white" stroke-width="1.5" d="M0,-3.0v7 M-2.5,-0.5L0,-3.0L2.5,-0.5"/>
                </g>
                <g id="arrowRight" xlink:href="#dirArrow" transform="rotate(90) translate(36 -43)" onmousedown="handlePan(1,0)">
                  <use xlink:href="#rim" fill="#404040">
                        <set attributeName="fill" to="#808080" begin="arrowRight.mouseover" end="arrowRight.mouseout"/>
                  </use>
                  <path fill="none" stroke="white" stroke-width="1.5" d="M0,-3.0v7 M-2.5,-0.5L0,-3.0L2.5,-0.5"/>
                </g>
                <g id="arrowDown" xlink:href="#dirArrow" transform="rotate(180) translate(-30 -48)" onmousedown="handlePan(0,1)">
                  <use xlink:href="#rim" fill="#404040">
                        <set attributeName="fill" to="#808080" begin="arrowDown.mouseover" end="arrowDown.mouseout"/>
                  </use>
                  <path fill="none" stroke="white" stroke-width="1.5" d="M0,-3.0v7 M-2.5,-0.5L0,-3.0L2.5,-0.5"/>
                </g>
                <g id="arrowLeft" xlink:href="#dirArrow" transform="rotate(270) translate(-36 17)" onmousedown="handlePan(-1,0)">
                  <use xlink:href="#rim" fill="#404040">
                        <set attributeName="fill" to="#808080" begin="arrowLeft.mouseover" end="arrowLeft.mouseout"/>
                  </use>
                  <path fill="none" stroke="white" stroke-width="1.5" d="M0,-3.0v7 M-2.5,-0.5L0,-3.0L2.5,-0.5"/>
                </g>
        </g>
        <svg viewBox="0 0 15 15" width="100%" height="30px" preserveAspectRatio="xMaxYMin meet">
         <g id="arrow_out" transform="scale(0.3 0.3)">
          <a xlink:href="LinkRecord_8cxx__incl_org.svg" target="_base">
           <rect id="button" ry="5" rx="5" y="6" x="6" height="38" width="38"
                fill="#f2f5e9" fill-opacity="0.5" stroke="#606060" stroke-width="1.0"/>
           <path id="arrow"
             d="M 11.500037,31.436501 C 11.940474,20.09759 22.043105,11.32322 32.158766,21.979434 L 37.068811,17.246167 C 37.068811,17.246167 37.088388,32 37.088388,32 L 22.160133,31.978069 C 22.160133,31.978069 26.997745,27.140456 26.997745,27.140456 C 18.528582,18.264221 13.291696,25.230495 11.500037,31.436501 z"
             style="fill:#404040;"/>
          </a>
         </g>
        </svg>
</svg>
