<?xml version="1.0" encoding="UTF-8" standalone="no"?>
<!DOCTYPE svg PUBLIC "-//W3C//DTD SVG 1.1//EN"
 "http://www.w3.org/Graphics/SVG/1.1/DTD/svg11.dtd">
<!-- Generated by graphviz version 2.40.1 (20161225.0304)
 -->
<!-- Title: /home/travis/build/AliceO2Group/AliceO2/Detectors/Vertexing/include/DetectorsVertexing/HelixHelper.h Pages: 1 -->
<svg width="996pt" height="239pt"
 viewBox="0.00 0.00 996.00 239.00" xmlns="http://www.w3.org/2000/svg" xmlns:xlink="http://www.w3.org/1999/xlink">
<g id="graph0" class="graph" transform="scale(1 1) rotate(0) translate(4 235)">
<title>/home/travis/build/AliceO2Group/AliceO2/Detectors/Vertexing/include/DetectorsVertexing/HelixHelper.h</title>
<!-- Node49 -->
<g id="node1" class="node">
<title>Node49</title>
<polygon fill="#bfbfbf" stroke="#000000" points="507,-178.5 507,-230.5 689,-230.5 689,-178.5 507,-178.5"/>
<text text-anchor="start" x="515" y="-218.5" font-family="Helvetica,sans-Serif" font-size="10.00" fill="#000000">/home/travis/build</text>
<text text-anchor="start" x="515" y="-207.5" font-family="Helvetica,sans-Serif" font-size="10.00" fill="#000000">/AliceO2Group/AliceO2</text>
<text text-anchor="start" x="515" y="-196.5" font-family="Helvetica,sans-Serif" font-size="10.00" fill="#000000">/Detectors/Vertexing/include</text>
<text text-anchor="middle" x="598" y="-185.5" font-family="Helvetica,sans-Serif" font-size="10.00" fill="#000000">/DetectorsVertexing/HelixHelper.h</text>
</g>
<!-- Node50 -->
<g id="node2" class="node">
<title>Node50</title>
<g id="a_node2"><a xlink:href="../../d6/da5/DCAFitterN_8h.html" target="_top" xlink:title="Defintions for N&#45;prongs secondary vertex fit. ">
<polygon fill="none" stroke="#000000" points="508.5,-89.5 508.5,-141.5 687.5,-141.5 687.5,-89.5 508.5,-89.5"/>
<text text-anchor="start" x="516.5" y="-129.5" font-family="Helvetica,sans-Serif" font-size="10.00" fill="#000000">/home/travis/build</text>
<text text-anchor="start" x="516.5" y="-118.5" font-family="Helvetica,sans-Serif" font-size="10.00" fill="#000000">/AliceO2Group/AliceO2</text>
<text text-anchor="start" x="516.5" y="-107.5" font-family="Helvetica,sans-Serif" font-size="10.00" fill="#000000">/Detectors/Vertexing/include</text>
<text text-anchor="middle" x="598" y="-96.5" font-family="Helvetica,sans-Serif" font-size="10.00" fill="#000000">/DetectorsVertexing/DCAFitterN.h</text>
</a>
</g>
</g>
<!-- Node49&#45;&gt;Node50 -->
<g id="edge1" class="edge">
<title>Node49&#45;&gt;Node50</title>
<path fill="none" stroke="#191970" d="M598,-168.1155C598,-159.2061 598,-149.8475 598,-141.5341"/>
<polygon fill="#191970" stroke="#191970" points="594.5001,-168.2784 598,-178.2784 601.5001,-168.2785 594.5001,-168.2784"/>
</g>
<!-- Node51 -->
<g id="node3" class="node">
<title>Node51</title>
<g id="a_node3"><a xlink:href="../../d2/d60/hfcandidatecreator2prong_8cxx.html" target="_top" xlink:title="Reconstruction of heavy&#45;flavour 2&#45;prong decay candidates. ">
<polygon fill="none" stroke="#000000" points="0,-6 0,-47 240,-47 240,-6 0,-6"/>
<text text-anchor="start" x="8" y="-35" font-family="Helvetica,sans-Serif" font-size="10.00" fill="#000000">/home/travis/build</text>
<text text-anchor="start" x="8" y="-24" font-family="Helvetica,sans-Serif" font-size="10.00" fill="#000000">/AliceO2Group/AliceO2</text>
<text text-anchor="middle" x="120" y="-13" font-family="Helvetica,sans-Serif" font-size="10.00" fill="#000000">/Analysis/Tasks/hfcandidatecreator2prong.cxx</text>
</a>
</g>
</g>
<!-- Node50&#45;&gt;Node51 -->
<g id="edge2" class="edge">
<title>Node50&#45;&gt;Node51</title>
<path fill="none" stroke="#191970" d="M498.1061,-98.3047C428.2511,-86.1104 332.8285,-69.1137 249,-53 239.1209,-51.101 228.827,-49.072 218.5526,-47.0137"/>
<polygon fill="#191970" stroke="#191970" points="497.7701,-101.7988 508.2227,-100.0683 498.9724,-94.9028 497.7701,-101.7988"/>
</g>
<!-- Node52 -->
<g id="node4" class="node">
<title>Node52</title>
<g id="a_node4"><a xlink:href="../../d7/dbb/hftrackindexskimscreator_8cxx.html" target="_top" xlink:title="Pre&#45;selection of 2&#45;prong and 3&#45;prong secondary vertices of heavy&#45;flavour decay candidates. ">
<polygon fill="none" stroke="#000000" points="258.5,-6 258.5,-47 497.5,-47 497.5,-6 258.5,-6"/>
<text text-anchor="start" x="266.5" y="-35" font-family="Helvetica,sans-Serif" font-size="10.00" fill="#000000">/home/travis/build</text>
<text text-anchor="start" x="266.5" y="-24" font-family="Helvetica,sans-Serif" font-size="10.00" fill="#000000">/AliceO2Group/AliceO2</text>
<text text-anchor="middle" x="378" y="-13" font-family="Helvetica,sans-Serif" font-size="10.00" fill="#000000">/Analysis/Tasks/hftrackindexskimscreator.cxx</text>
</a>
</g>
</g>
<!-- Node50&#45;&gt;Node52 -->
<g id="edge3" class="edge">
<title>Node50&#45;&gt;Node52</title>
<path fill="none" stroke="#191970" d="M523.9354,-85.5375C492.6917,-72.898 457.1027,-58.5007 428.8918,-47.0881"/>
<polygon fill="#191970" stroke="#191970" points="522.8965,-88.8927 533.4792,-89.3984 525.5217,-82.4036 522.8965,-88.8927"/>
</g>
<!-- Node53 -->
<g id="node5" class="node">
<title>Node53</title>
<g id="a_node5"><a xlink:href="../../de/d5e/vertexerhf_8cxx.html" target="_top" xlink:title="/home/travis/build\l/AliceO2Group/AliceO2\l/Analysis/Tasks/vertexerhf.cxx">
<polygon fill="none" stroke="#000000" points="516,-6 516,-47 680,-47 680,-6 516,-6"/>
<text text-anchor="start" x="524" y="-35" font-family="Helvetica,sans-Serif" font-size="10.00" fill="#000000">/home/travis/build</text>
<text text-anchor="start" x="524" y="-24" font-family="Helvetica,sans-Serif" font-size="10.00" fill="#000000">/AliceO2Group/AliceO2</text>
<text text-anchor="middle" x="598" y="-13" font-family="Helvetica,sans-Serif" font-size="10.00" fill="#000000">/Analysis/Tasks/vertexerhf.cxx</text>
</a>
</g>
</g>
<!-- Node50&#45;&gt;Node53 -->
<g id="edge4" class="edge">
<title>Node50&#45;&gt;Node53</title>
<path fill="none" stroke="#191970" d="M598,-79.1335C598,-68.2443 598,-56.6825 598,-47.1771"/>
<polygon fill="#191970" stroke="#191970" points="594.5001,-79.2784 598,-89.2784 601.5001,-79.2785 594.5001,-79.2784"/>
</g>
<!-- Node54 -->
<g id="node6" class="node">
<title>Node54</title>
<g id="a_node6"><a xlink:href="../../dd/dce/DCAFitterN_8cxx.html" target="_top" xlink:title="Defintions for N&#45;prongs secondary vertex fit. ">
<polygon fill="none" stroke="#000000" points="698,-.5 698,-52.5 832,-52.5 832,-.5 698,-.5"/>
<text text-anchor="start" x="706" y="-40.5" font-family="Helvetica,sans-Serif" font-size="10.00" fill="#000000">/home/travis/build</text>
<text text-anchor="start" x="706" y="-29.5" font-family="Helvetica,sans-Serif" font-size="10.00" fill="#000000">/AliceO2Group/AliceO2</text>
<text text-anchor="start" x="706" y="-18.5" font-family="Helvetica,sans-Serif" font-size="10.00" fill="#000000">/Detectors/Vertexing/src</text>
<text text-anchor="middle" x="765" y="-7.5" font-family="Helvetica,sans-Serif" font-size="10.00" fill="#000000">/DCAFitterN.cxx</text>
</a>
</g>
</g>
<!-- Node50&#45;&gt;Node54 -->
<g id="edge5" class="edge">
<title>Node50&#45;&gt;Node54</title>
<path fill="none" stroke="#191970" d="M656.047,-84.5648C675.6527,-74.1162 697.3286,-62.5644 716.1494,-52.5341"/>
<polygon fill="#191970" stroke="#191970" points="654.3811,-81.4865 647.2023,-89.2784 657.6734,-87.664 654.3811,-81.4865"/>
</g>
<!-- Node55 -->
<g id="node7" class="node">
<title>Node55</title>
<g id="a_node7"><a xlink:href="../../dd/de2/testDCAFitterN_8cxx.html" target="_top" xlink:title="/home/travis/build\l/AliceO2Group/AliceO2\l/Detectors/Vertexing/test\l/testDCAFitterN.cxx">
<polygon fill="none" stroke="#000000" points="850,-.5 850,-52.5 988,-52.5 988,-.5 850,-.5"/>
<text text-anchor="start" x="858" y="-40.5" font-family="Helvetica,sans-Serif" font-size="10.00" fill="#000000">/home/travis/build</text>
<text text-anchor="start" x="858" y="-29.5" font-family="Helvetica,sans-Serif" font-size="10.00" fill="#000000">/AliceO2Group/AliceO2</text>
<text text-anchor="start" x="858" y="-18.5" font-family="Helvetica,sans-Serif" font-size="10.00" fill="#000000">/Detectors/Vertexing/test</text>
<text text-anchor="middle" x="919" y="-7.5" font-family="Helvetica,sans-Serif" font-size="10.00" fill="#000000">/testDCAFitterN.cxx</text>
</a>
</g>
</g>
<!-- Node50&#45;&gt;Node55 -->
<g id="edge6" class="edge">
<title>Node50&#45;&gt;Node55</title>
<path fill="none" stroke="#191970" d="M697.4743,-91.7237C741.6451,-80.7017 794.1357,-66.9659 841,-53 843.8783,-52.1422 846.8093,-51.2469 849.7648,-50.3259"/>
<polygon fill="#191970" stroke="#191970" points="696.4621,-88.3687 687.6012,-94.1768 698.1501,-95.1621 696.4621,-88.3687"/>
</g>
</g>
</svg>
