<?xml version="1.0" encoding="UTF-8" standalone="no"?>
<!DOCTYPE svg PUBLIC "-//W3C//DTD SVG 1.1//EN"
 "http://www.w3.org/Graphics/SVG/1.1/DTD/svg11.dtd">
<!-- Generated by graphviz version 2.40.1 (20161225.0304)
 -->
<!-- Title: /home/travis/build/AliceO2Group/AliceO2/Analysis/Core/src/VarManager.cxx Pages: 1 -->
<svg width="339pt" height="162pt"
 viewBox="0.00 0.00 338.50 162.00" xmlns="http://www.w3.org/2000/svg" xmlns:xlink="http://www.w3.org/1999/xlink">
<g id="graph0" class="graph" transform="scale(1 1) rotate(0) translate(4 158)">
<title>/home/travis/build/AliceO2Group/AliceO2/Analysis/Core/src/VarManager.cxx</title>
<!-- Node0 -->
<g id="node1" class="node">
<title>Node0</title>
<polygon fill="#bfbfbf" stroke="#000000" points="146.5,-112.5 146.5,-153.5 330.5,-153.5 330.5,-112.5 146.5,-112.5"/>
<text text-anchor="start" x="154.5" y="-141.5" font-family="Helvetica,sans-Serif" font-size="10.00" fill="#000000">/home/travis/build</text>
<text text-anchor="start" x="154.5" y="-130.5" font-family="Helvetica,sans-Serif" font-size="10.00" fill="#000000">/AliceO2Group/AliceO2</text>
<text text-anchor="middle" x="238.5" y="-119.5" font-family="Helvetica,sans-Serif" font-size="10.00" fill="#000000">/Analysis/Core/src/VarManager.cxx</text>
</g>
<!-- Node1 -->
<g id="node2" class="node">
<title>Node1</title>
<g id="a_node2"><a xlink:href="../../d4/d30/VarManager_8h.html" target="_top" xlink:title="Analysis/VarManager.h">
<polygon fill="none" stroke="#000000" points="120,-56.5 120,-75.5 247,-75.5 247,-56.5 120,-56.5"/>
<text text-anchor="middle" x="183.5" y="-63.5" font-family="Helvetica,sans-Serif" font-size="10.00" fill="#000000">Analysis/VarManager.h</text>
</a>
</g>
</g>
<!-- Node0&#45;&gt;Node1 -->
<g id="edge1" class="edge">
<title>Node0&#45;&gt;Node1</title>
<path fill="none" stroke="#191970" d="M221.3991,-112.168C213.9256,-103.0639 205.2504,-92.4959 198.0873,-83.7699"/>
<polygon fill="#191970" stroke="#191970" points="200.579,-81.289 191.5287,-75.7805 195.1685,-85.7305 200.579,-81.289"/>
</g>
<!-- Node7 -->
<g id="node8" class="node">
<title>Node7</title>
<polygon fill="none" stroke="#bfbfbf" points="265.5,-56.5 265.5,-75.5 321.5,-75.5 321.5,-56.5 265.5,-56.5"/>
<text text-anchor="middle" x="293.5" y="-63.5" font-family="Helvetica,sans-Serif" font-size="10.00" fill="#000000">TMath.h</text>
</g>
<!-- Node0&#45;&gt;Node7 -->
<g id="edge7" class="edge">
<title>Node0&#45;&gt;Node7</title>
<path fill="none" stroke="#191970" d="M255.6009,-112.168C263.0744,-103.0639 271.7496,-92.4959 278.9127,-83.7699"/>
<polygon fill="#191970" stroke="#191970" points="281.8315,-85.7305 285.4713,-75.7805 276.421,-81.289 281.8315,-85.7305"/>
</g>
<!-- Node2 -->
<g id="node3" class="node">
<title>Node2</title>
<polygon fill="none" stroke="#bfbfbf" points="0,-.5 0,-19.5 63,-19.5 63,-.5 0,-.5"/>
<text text-anchor="middle" x="31.5" y="-7.5" font-family="Helvetica,sans-Serif" font-size="10.00" fill="#000000">TObject.h</text>
</g>
<!-- Node1&#45;&gt;Node2 -->
<g id="edge2" class="edge">
<title>Node1&#45;&gt;Node2</title>
<path fill="none" stroke="#191970" d="M157.3703,-56.3733C132.4232,-47.1822 94.6408,-33.2624 66.9794,-23.0713"/>
<polygon fill="#191970" stroke="#191970" points="67.8822,-19.674 57.2888,-19.5011 65.4622,-26.2424 67.8822,-19.674"/>
</g>
<!-- Node3 -->
<g id="node4" class="node">
<title>Node3</title>
<polygon fill="none" stroke="#bfbfbf" points="81.5,-.5 81.5,-19.5 141.5,-19.5 141.5,-.5 81.5,-.5"/>
<text text-anchor="middle" x="111.5" y="-7.5" font-family="Helvetica,sans-Serif" font-size="10.00" fill="#000000">TString.h</text>
</g>
<!-- Node1&#45;&gt;Node3 -->
<g id="edge3" class="edge">
<title>Node1&#45;&gt;Node3</title>
<path fill="none" stroke="#191970" d="M170.9586,-56.2455C160.2213,-47.8943 144.5527,-35.7076 131.9953,-25.9408"/>
<polygon fill="#191970" stroke="#191970" points="133.9401,-23.0194 123.8977,-19.6427 129.6425,-28.5449 133.9401,-23.0194"/>
</g>
<!-- Node4 -->
<g id="node5" class="node">
<title>Node4</title>
<polygon fill="none" stroke="#bfbfbf" points="160,-.5 160,-19.5 207,-19.5 207,-.5 160,-.5"/>
<text text-anchor="middle" x="183.5" y="-7.5" font-family="Helvetica,sans-Serif" font-size="10.00" fill="#000000">vector</text>
</g>
<!-- Node1&#45;&gt;Node4 -->
<g id="edge4" class="edge">
<title>Node1&#45;&gt;Node4</title>
<path fill="none" stroke="#191970" d="M183.5,-56.2455C183.5,-48.9382 183.5,-38.6944 183.5,-29.7046"/>
<polygon fill="#191970" stroke="#191970" points="187.0001,-29.6426 183.5,-19.6427 180.0001,-29.6427 187.0001,-29.6426"/>
</g>
<!-- Node5 -->
<g id="node6" class="node">
<title>Node5</title>
<polygon fill="none" stroke="#bfbfbf" points="225.5,-.5 225.5,-19.5 263.5,-19.5 263.5,-.5 225.5,-.5"/>
<text text-anchor="middle" x="244.5" y="-7.5" font-family="Helvetica,sans-Serif" font-size="10.00" fill="#000000">map</text>
</g>
<!-- Node1&#45;&gt;Node5 -->
<g id="edge5" class="edge">
<title>Node1&#45;&gt;Node5</title>
<path fill="none" stroke="#191970" d="M194.1254,-56.2455C203.0473,-48.0549 215.988,-36.1749 226.5192,-26.5069"/>
<polygon fill="#191970" stroke="#191970" points="228.9968,-28.9837 233.9964,-19.6427 224.2629,-23.8271 228.9968,-28.9837"/>
</g>
<!-- Node6 -->
<g id="node7" class="node">
<title>Node6</title>
<polygon fill="none" stroke="#bfbfbf" points="282,-.5 282,-19.5 329,-19.5 329,-.5 282,-.5"/>
<text text-anchor="middle" x="305.5" y="-7.5" font-family="Helvetica,sans-Serif" font-size="10.00" fill="#000000">cmath</text>
</g>
<!-- Node1&#45;&gt;Node6 -->
<g id="edge6" class="edge">
<title>Node1&#45;&gt;Node6</title>
<path fill="none" stroke="#191970" d="M204.4725,-56.3733C224.0567,-47.3838 253.4961,-33.8706 275.551,-23.7471"/>
<polygon fill="#191970" stroke="#191970" points="277.1729,-26.8538 284.8011,-19.5011 274.2527,-20.4919 277.1729,-26.8538"/>
</g>
</g>
</svg>
