<?xml version="1.0" encoding="UTF-8" standalone="no"?>
<!DOCTYPE svg PUBLIC "-//W3C//DTD SVG 1.1//EN"
 "http://www.w3.org/Graphics/SVG/1.1/DTD/svg11.dtd">
<!-- Generated by graphviz version 2.40.1 (20161225.0304)
 -->
<!-- Title: VarManager Pages: 1 -->
<svg width="194pt" height="314pt"
 viewBox="0.00 0.00 193.50 314.00" xmlns="http://www.w3.org/2000/svg" xmlns:xlink="http://www.w3.org/1999/xlink">
<g id="graph0" class="graph" transform="scale(1 1) rotate(0) translate(4 310)">
<title>VarManager</title>
<!-- Node2 -->
<g id="node1" class="node">
<title>Node2</title>
<polygon fill="#bfbfbf" stroke="#000000" points="0,-.5 0,-178.5 137,-178.5 137,-.5 0,-.5"/>
<text text-anchor="middle" x="68.5" y="-166.5" font-family="Helvetica,sans-Serif" font-size="10.00" fill="#000000">VarManager</text>
<polyline fill="none" stroke="#000000" points="0,-159.5 137,-159.5 "/>
<text text-anchor="middle" x="68.5" y="-147.5" font-family="Helvetica,sans-Serif" font-size="10.00" fill="#000000"> </text>
<polyline fill="none" stroke="#000000" points="0,-140.5 137,-140.5 "/>
<text text-anchor="start" x="8" y="-128.5" font-family="Helvetica,sans-Serif" font-size="10.00" fill="#000000">+ VarManager()</text>
<text text-anchor="start" x="8" y="-117.5" font-family="Helvetica,sans-Serif" font-size="10.00" fill="#000000">+ ~VarManager()</text>
<text text-anchor="start" x="8" y="-106.5" font-family="Helvetica,sans-Serif" font-size="10.00" fill="#000000">+ SetDefaultVarNames()</text>
<text text-anchor="start" x="8" y="-95.5" font-family="Helvetica,sans-Serif" font-size="10.00" fill="#000000">+ SetUseVariable()</text>
<text text-anchor="start" x="8" y="-84.5" font-family="Helvetica,sans-Serif" font-size="10.00" fill="#000000">+ SetUseVars()</text>
<text text-anchor="start" x="8" y="-73.5" font-family="Helvetica,sans-Serif" font-size="10.00" fill="#000000">+ SetUseVars()</text>
<text text-anchor="start" x="8" y="-62.5" font-family="Helvetica,sans-Serif" font-size="10.00" fill="#000000">+ GetUsedVar()</text>
<text text-anchor="start" x="8" y="-51.5" font-family="Helvetica,sans-Serif" font-size="10.00" fill="#000000">+ SetRunNumbers()</text>
<text text-anchor="start" x="8" y="-40.5" font-family="Helvetica,sans-Serif" font-size="10.00" fill="#000000">+ FillEvent()</text>
<text text-anchor="start" x="8" y="-29.5" font-family="Helvetica,sans-Serif" font-size="10.00" fill="#000000">+ FillTrack()</text>
<text text-anchor="start" x="8" y="-18.5" font-family="Helvetica,sans-Serif" font-size="10.00" fill="#000000">+ FillPair()</text>
<text text-anchor="start" x="8" y="-7.5" font-family="Helvetica,sans-Serif" font-size="10.00" fill="#000000">+ ResetValues()</text>
</g>
<!-- Node3 -->
<g id="node2" class="node">
<title>Node3</title>
<g id="a_node2"><a xlink:href="../../d5/d0f/classTObject.html" target="_top" xlink:title="{TObject\n||}">
<polygon fill="none" stroke="#000000" points="8.5,-248.5 8.5,-305.5 62.5,-305.5 62.5,-248.5 8.5,-248.5"/>
<text text-anchor="middle" x="35.5" y="-293.5" font-family="Helvetica,sans-Serif" font-size="10.00" fill="#000000">TObject</text>
<polyline fill="none" stroke="#000000" points="8.5,-286.5 62.5,-286.5 "/>
<text text-anchor="middle" x="35.5" y="-274.5" font-family="Helvetica,sans-Serif" font-size="10.00" fill="#000000"> </text>
<polyline fill="none" stroke="#000000" points="8.5,-267.5 62.5,-267.5 "/>
<text text-anchor="middle" x="35.5" y="-255.5" font-family="Helvetica,sans-Serif" font-size="10.00" fill="#000000"> </text>
</a>
</g>
</g>
<!-- Node3&#45;&gt;Node2 -->
<g id="edge1" class="edge">
<title>Node3&#45;&gt;Node2</title>
<path fill="none" stroke="#191970" d="M42.3899,-237.8531C45.4404,-220.5207 49.1636,-199.366 52.8318,-178.5236"/>
<polygon fill="none" stroke="#191970" points="38.8703,-237.6587 40.5839,-248.114 45.7644,-238.8721 38.8703,-237.6587"/>
</g>
<!-- Node4 -->
<g id="node3" class="node">
<title>Node4</title>
<polygon fill="none" stroke="#bfbfbf" points="80.5,-248.5 80.5,-305.5 124.5,-305.5 124.5,-248.5 80.5,-248.5"/>
<text text-anchor="middle" x="102.5" y="-293.5" font-family="Helvetica,sans-Serif" font-size="10.00" fill="#000000">static</text>
<polyline fill="none" stroke="#bfbfbf" points="80.5,-286.5 124.5,-286.5 "/>
<text text-anchor="middle" x="102.5" y="-274.5" font-family="Helvetica,sans-Serif" font-size="10.00" fill="#000000"> </text>
<polyline fill="none" stroke="#bfbfbf" points="80.5,-267.5 124.5,-267.5 "/>
<text text-anchor="middle" x="102.5" y="-255.5" font-family="Helvetica,sans-Serif" font-size="10.00" fill="#000000"> </text>
</g>
<!-- Node4&#45;&gt;Node2 -->
<g id="edge2" class="edge">
<title>Node4&#45;&gt;Node2</title>
<path fill="none" stroke="#404040" d="M97.262,-248.114C94.3991,-232.3261 90.6633,-211.7243 86.8367,-190.6212"/>
<polygon fill="none" stroke="#404040" points="86.7841,-190.331 81.7777,-185.141 84.6429,-178.5236 89.6493,-183.7136 86.7841,-190.331"/>
<text text-anchor="middle" x="139" y="-222" font-family="Helvetica,sans-Serif" font-size="10.00" fill="#000000"> +fgVariableUnits</text>
<text text-anchor="middle" x="139" y="-211" font-family="Helvetica,sans-Serif" font-size="10.00" fill="#000000">+fgVariableNames</text>
<text text-anchor="middle" x="139" y="-200" font-family="Helvetica,sans-Serif" font-size="10.00" fill="#000000">+fgValues</text>
</g>
</g>
</svg>
