<?xml version="1.0" encoding="UTF-8" standalone="no"?>
<!DOCTYPE svg PUBLIC "-//W3C//DTD SVG 1.1//EN"
 "http://www.w3.org/Graphics/SVG/1.1/DTD/svg11.dtd">
<!-- Generated by graphviz version 2.40.1 (20161225.0304)
 -->
<!-- Title: o2::framework::AnalysisDataProcessorBuilder::GroupSlicer&lt; G, A &gt; Pages: 1 -->
<svg width="1058pt" height="518pt"
 viewBox="0.00 0.00 1057.50 518.00" xmlns="http://www.w3.org/2000/svg" xmlns:xlink="http://www.w3.org/1999/xlink">
<g id="graph0" class="graph" transform="scale(1 1) rotate(0) translate(4 514)">
<title>o2::framework::AnalysisDataProcessorBuilder::GroupSlicer&lt; G, A &gt;</title>
<!-- Node1 -->
<g id="node1" class="node">
<title>Node1</title>
<polygon fill="#bfbfbf" stroke="#000000" points="326,-.5 326,-101.5 487,-101.5 487,-.5 326,-.5"/>
<text text-anchor="start" x="334" y="-89.5" font-family="Helvetica,sans-Serif" font-size="10.00" fill="#000000">o2::framework::AnalysisData</text>
<text text-anchor="start" x="334" y="-78.5" font-family="Helvetica,sans-Serif" font-size="10.00" fill="#000000">ProcessorBuilder::GroupSlicer</text>
<text text-anchor="middle" x="406.5" y="-67.5" font-family="Helvetica,sans-Serif" font-size="10.00" fill="#000000">&lt; G, A &gt;</text>
<polyline fill="none" stroke="#000000" points="326,-60.5 487,-60.5 "/>
<text text-anchor="middle" x="406.5" y="-48.5" font-family="Helvetica,sans-Serif" font-size="10.00" fill="#000000"> </text>
<polyline fill="none" stroke="#000000" points="326,-41.5 487,-41.5 "/>
<text text-anchor="start" x="334" y="-29.5" font-family="Helvetica,sans-Serif" font-size="10.00" fill="#000000">+ GroupSlicer()</text>
<text text-anchor="start" x="334" y="-18.5" font-family="Helvetica,sans-Serif" font-size="10.00" fill="#000000">+ begin()</text>
<text text-anchor="start" x="334" y="-7.5" font-family="Helvetica,sans-Serif" font-size="10.00" fill="#000000">+ end()</text>
</g>
<!-- Node2 -->
<g id="node2" class="node">
<title>Node2</title>
<polygon fill="none" stroke="#bfbfbf" points="353.5,-243 353.5,-300 403.5,-300 403.5,-243 353.5,-243"/>
<text text-anchor="middle" x="378.5" y="-288" font-family="Helvetica,sans-Serif" font-size="10.00" fill="#000000">int64_t</text>
<polyline fill="none" stroke="#bfbfbf" points="353.5,-281 403.5,-281 "/>
<text text-anchor="middle" x="378.5" y="-269" font-family="Helvetica,sans-Serif" font-size="10.00" fill="#000000"> </text>
<polyline fill="none" stroke="#bfbfbf" points="353.5,-262 403.5,-262 "/>
<text text-anchor="middle" x="378.5" y="-250" font-family="Helvetica,sans-Serif" font-size="10.00" fill="#000000"> </text>
</g>
<!-- Node2&#45;&gt;Node1 -->
<g id="edge1" class="edge">
<title>Node2&#45;&gt;Node1</title>
<path fill="none" stroke="#404040" d="M382.1605,-242.6735C386.289,-210.1614 393.1279,-156.3051 398.5069,-113.9454"/>
<polygon fill="none" stroke="#404040" points="398.5414,-113.6732 395.3292,-107.2171 400.0532,-101.7688 403.2654,-108.2249 398.5414,-113.6732"/>
<text text-anchor="middle" x="414.5" y="-123" font-family="Helvetica,sans-Serif" font-size="10.00" fill="#000000"> +max</text>
</g>
<!-- Node3 -->
<g id="node3" class="node">
<title>Node3</title>
<g id="a_node3"><a xlink:href="../../db/d21/structo2_1_1framework_1_1AnalysisDataProcessorBuilder_1_1GroupSlicer_1_1GroupSlicerIterator.html" target="_top" xlink:title="{o2::framework::AnalysisData\lProcessorBuilder::GroupSlicer\l\&lt; G, A \&gt;::GroupSlicerIterator\n||+ GroupSlicerIterator()\l+ GroupSlicerIterator()\l+ GroupSlicerIterator()\l+ operator=()\l+ operator=()\l+ getLabelFromType()\l+ GroupSlicerIterator()\l+ hasIndexTo()\l+ isIndexTo()\l+ operator++()\l+ operator==()\l+ operator!=()\l+ groupingElement()\l+ operator*()\l+ associatedTables()\l+ prepareArgument()\l}">
<polygon fill="none" stroke="#000000" points="422,-149.5 422,-393.5 583,-393.5 583,-149.5 422,-149.5"/>
<text text-anchor="start" x="430" y="-381.5" font-family="Helvetica,sans-Serif" font-size="10.00" fill="#000000">o2::framework::AnalysisData</text>
<text text-anchor="start" x="430" y="-370.5" font-family="Helvetica,sans-Serif" font-size="10.00" fill="#000000">ProcessorBuilder::GroupSlicer</text>
<text text-anchor="middle" x="502.5" y="-359.5" font-family="Helvetica,sans-Serif" font-size="10.00" fill="#000000">&lt; G, A &gt;::GroupSlicerIterator</text>
<polyline fill="none" stroke="#000000" points="422,-352.5 583,-352.5 "/>
<text text-anchor="middle" x="502.5" y="-340.5" font-family="Helvetica,sans-Serif" font-size="10.00" fill="#000000"> </text>
<polyline fill="none" stroke="#000000" points="422,-333.5 583,-333.5 "/>
<text text-anchor="start" x="430" y="-321.5" font-family="Helvetica,sans-Serif" font-size="10.00" fill="#000000">+ GroupSlicerIterator()</text>
<text text-anchor="start" x="430" y="-310.5" font-family="Helvetica,sans-Serif" font-size="10.00" fill="#000000">+ GroupSlicerIterator()</text>
<text text-anchor="start" x="430" y="-299.5" font-family="Helvetica,sans-Serif" font-size="10.00" fill="#000000">+ GroupSlicerIterator()</text>
<text text-anchor="start" x="430" y="-288.5" font-family="Helvetica,sans-Serif" font-size="10.00" fill="#000000">+ operator=()</text>
<text text-anchor="start" x="430" y="-277.5" font-family="Helvetica,sans-Serif" font-size="10.00" fill="#000000">+ operator=()</text>
<text text-anchor="start" x="430" y="-266.5" font-family="Helvetica,sans-Serif" font-size="10.00" fill="#000000">+ getLabelFromType()</text>
<text text-anchor="start" x="430" y="-255.5" font-family="Helvetica,sans-Serif" font-size="10.00" fill="#000000">+ GroupSlicerIterator()</text>
<text text-anchor="start" x="430" y="-244.5" font-family="Helvetica,sans-Serif" font-size="10.00" fill="#000000">+ hasIndexTo()</text>
<text text-anchor="start" x="430" y="-233.5" font-family="Helvetica,sans-Serif" font-size="10.00" fill="#000000">+ isIndexTo()</text>
<text text-anchor="start" x="430" y="-222.5" font-family="Helvetica,sans-Serif" font-size="10.00" fill="#000000">+ operator++()</text>
<text text-anchor="start" x="430" y="-211.5" font-family="Helvetica,sans-Serif" font-size="10.00" fill="#000000">+ operator==()</text>
<text text-anchor="start" x="430" y="-200.5" font-family="Helvetica,sans-Serif" font-size="10.00" fill="#000000">+ operator!=()</text>
<text text-anchor="start" x="430" y="-189.5" font-family="Helvetica,sans-Serif" font-size="10.00" fill="#000000">+ groupingElement()</text>
<text text-anchor="start" x="430" y="-178.5" font-family="Helvetica,sans-Serif" font-size="10.00" fill="#000000">+ operator*()</text>
<text text-anchor="start" x="430" y="-167.5" font-family="Helvetica,sans-Serif" font-size="10.00" fill="#000000">+ associatedTables()</text>
<text text-anchor="start" x="430" y="-156.5" font-family="Helvetica,sans-Serif" font-size="10.00" fill="#000000">+ prepareArgument()</text>
</a>
</g>
</g>
<!-- Node3&#45;&gt;Node1 -->
<g id="edge2" class="edge">
<title>Node3&#45;&gt;Node1</title>
<path fill="none" stroke="#404040" d="M449.3059,-149.3199C443.8227,-136.7255 438.4309,-124.3413 433.4213,-112.835"/>
<polygon fill="none" stroke="#404040" points="433.3402,-112.6485 427.2776,-108.744 428.55,-101.6461 434.6126,-105.5505 433.3402,-112.6485"/>
<text text-anchor="middle" x="464" y="-123" font-family="Helvetica,sans-Serif" font-size="10.00" fill="#000000"> +mBegin</text>
</g>
<!-- Node4 -->
<g id="node4" class="node">
<title>Node4</title>
<polygon fill="none" stroke="#bfbfbf" points="0,-447 0,-504 101,-504 101,-447 0,-447"/>
<text text-anchor="middle" x="50.5" y="-492" font-family="Helvetica,sans-Serif" font-size="10.00" fill="#000000">SelectionVector *</text>
<polyline fill="none" stroke="#bfbfbf" points="0,-485 101,-485 "/>
<text text-anchor="middle" x="50.5" y="-473" font-family="Helvetica,sans-Serif" font-size="10.00" fill="#000000"> </text>
<polyline fill="none" stroke="#bfbfbf" points="0,-466 101,-466 "/>
<text text-anchor="middle" x="50.5" y="-454" font-family="Helvetica,sans-Serif" font-size="10.00" fill="#000000"> </text>
</g>
<!-- Node4&#45;&gt;Node3 -->
<g id="edge3" class="edge">
<title>Node4&#45;&gt;Node3</title>
<path fill="none" stroke="#404040" d="M98.1706,-446.8907C102.2862,-444.7888 106.4318,-442.7932 110.5,-441 149.3424,-423.8786 159.8709,-420.3002 201.5,-412 244.5861,-403.4093 355.355,-415.2342 410.9379,-393.3068"/>
<polygon fill="none" stroke="#404040" points="411.0759,-393.2413 414.7813,-387.055 421.9169,-388.0959 418.2115,-394.2823 411.0759,-393.2413"/>
<text text-anchor="middle" x="244" y="-415" font-family="Helvetica,sans-Serif" font-size="10.00" fill="#000000"> +groupSelection</text>
</g>
<!-- Node5 -->
<g id="node5" class="node">
<title>Node5</title>
<polygon fill="none" stroke="#bfbfbf" points="119.5,-441.5 119.5,-509.5 271.5,-509.5 271.5,-441.5 119.5,-441.5"/>
<text text-anchor="start" x="127.5" y="-497.5" font-family="Helvetica,sans-Serif" font-size="10.00" fill="#000000">array&lt; soa::SelectionVector</text>
<text text-anchor="middle" x="195.5" y="-486.5" font-family="Helvetica,sans-Serif" font-size="10.00" fill="#000000"> const *, sizeof...(A)&gt;</text>
<polyline fill="none" stroke="#bfbfbf" points="119.5,-479.5 271.5,-479.5 "/>
<text text-anchor="middle" x="195.5" y="-467.5" font-family="Helvetica,sans-Serif" font-size="10.00" fill="#000000"> </text>
<polyline fill="none" stroke="#bfbfbf" points="119.5,-460.5 271.5,-460.5 "/>
<text text-anchor="middle" x="195.5" y="-448.5" font-family="Helvetica,sans-Serif" font-size="10.00" fill="#000000"> </text>
</g>
<!-- Node5&#45;&gt;Node3 -->
<g id="edge4" class="edge">
<title>Node5&#45;&gt;Node3</title>
<path fill="none" stroke="#404040" d="M250.2724,-441.4014C269.6463,-430.605 291.9819,-419.5337 313.5,-412 352.4941,-398.3479 371.5648,-414.7839 411.6345,-393.5188"/>
<polygon fill="none" stroke="#404040" points="411.6415,-393.5147 414.7984,-387.0313 421.9972,-387.4518 418.8403,-393.9352 411.6415,-393.5147"/>
<text text-anchor="middle" x="344" y="-415" font-family="Helvetica,sans-Serif" font-size="10.00" fill="#000000"> +selections</text>
</g>
<!-- Node6 -->
<g id="node6" class="node">
<title>Node6</title>
<g id="a_node6"><a xlink:href="../../d6/d30/classuint64__t.html" target="_top" xlink:title="{uint64_t\n||}">
<polygon fill="none" stroke="#000000" points="289.5,-447 289.5,-504 345.5,-504 345.5,-447 289.5,-447"/>
<text text-anchor="middle" x="317.5" y="-492" font-family="Helvetica,sans-Serif" font-size="10.00" fill="#000000">uint64_t</text>
<polyline fill="none" stroke="#000000" points="289.5,-485 345.5,-485 "/>
<text text-anchor="middle" x="317.5" y="-473" font-family="Helvetica,sans-Serif" font-size="10.00" fill="#000000"> </text>
<polyline fill="none" stroke="#000000" points="289.5,-466 345.5,-466 "/>
<text text-anchor="middle" x="317.5" y="-454" font-family="Helvetica,sans-Serif" font-size="10.00" fill="#000000"> </text>
</a>
</g>
</g>
<!-- Node6&#45;&gt;Node3 -->
<g id="edge5" class="edge">
<title>Node6&#45;&gt;Node3</title>
<path fill="none" stroke="#404040" d="M345.5971,-448.9241C348.5771,-446.219 351.5838,-443.5357 354.5,-441 379.5372,-419.229 389.6013,-418.0102 412.5,-394 412.7903,-393.6956 413.0804,-393.3903 413.3704,-393.0841"/>
<polygon fill="none" stroke="#404040" points="413.6244,-392.8071 414.7309,-385.6813 421.734,-383.962 420.6276,-391.0878 413.6244,-392.8071"/>
<text text-anchor="middle" x="419" y="-415" font-family="Helvetica,sans-Serif" font-size="10.00" fill="#000000"> +position</text>
</g>
<!-- Node7 -->
<g id="node7" class="node">
<title>Node7</title>
<polygon fill="none" stroke="#bfbfbf" points="363.5,-441.5 363.5,-509.5 519.5,-509.5 519.5,-441.5 363.5,-441.5"/>
<text text-anchor="start" x="371.5" y="-497.5" font-family="Helvetica,sans-Serif" font-size="10.00" fill="#000000">array&lt; soa::SelectionVector</text>
<text text-anchor="middle" x="441.5" y="-486.5" font-family="Helvetica,sans-Serif" font-size="10.00" fill="#000000">::const_iterator, sizeof...(A)&gt;</text>
<polyline fill="none" stroke="#bfbfbf" points="363.5,-479.5 519.5,-479.5 "/>
<text text-anchor="middle" x="441.5" y="-467.5" font-family="Helvetica,sans-Serif" font-size="10.00" fill="#000000"> </text>
<polyline fill="none" stroke="#bfbfbf" points="363.5,-460.5 519.5,-460.5 "/>
<text text-anchor="middle" x="441.5" y="-448.5" font-family="Helvetica,sans-Serif" font-size="10.00" fill="#000000"> </text>
</g>
<!-- Node7&#45;&gt;Node3 -->
<g id="edge6" class="edge">
<title>Node7&#45;&gt;Node3</title>
<path fill="none" stroke="#404040" d="M451.71,-441.355C454.8579,-430.8277 458.5335,-418.5355 462.442,-405.4643"/>
<polygon fill="none" stroke="#404040" points="462.4915,-405.2988 460.3781,-398.4043 465.9294,-393.8017 468.0428,-400.6962 462.4915,-405.2988"/>
<text text-anchor="middle" x="479.5" y="-415" font-family="Helvetica,sans-Serif" font-size="10.00" fill="#000000"> +starts</text>
</g>
<!-- Node8 -->
<g id="node8" class="node">
<title>Node8</title>
<polygon fill="none" stroke="#bfbfbf" points="538,-447 538,-504 591,-504 591,-447 538,-447"/>
<text text-anchor="middle" x="564.5" y="-492" font-family="Helvetica,sans-Serif" font-size="10.00" fill="#000000">iterator</text>
<polyline fill="none" stroke="#bfbfbf" points="538,-485 591,-485 "/>
<text text-anchor="middle" x="564.5" y="-473" font-family="Helvetica,sans-Serif" font-size="10.00" fill="#000000"> </text>
<polyline fill="none" stroke="#bfbfbf" points="538,-466 591,-466 "/>
<text text-anchor="middle" x="564.5" y="-454" font-family="Helvetica,sans-Serif" font-size="10.00" fill="#000000"> </text>
</g>
<!-- Node8&#45;&gt;Node3 -->
<g id="edge7" class="edge">
<title>Node8&#45;&gt;Node3</title>
<path fill="none" stroke="#404040" d="M555.7484,-446.7045C552.2373,-435.1518 547.9214,-420.951 543.2796,-405.6779"/>
<polygon fill="none" stroke="#404040" points="543.1638,-405.2969 537.5919,-400.7194 539.6743,-393.8155 545.2462,-398.393 543.1638,-405.2969"/>
<text text-anchor="middle" x="600.5" y="-415" font-family="Helvetica,sans-Serif" font-size="10.00" fill="#000000"> +mGroupingElement</text>
</g>
<!-- Node9 -->
<g id="node9" class="node">
<title>Node9</title>
<polygon fill="none" stroke="#bfbfbf" points="609,-441.5 609,-509.5 780,-509.5 780,-441.5 609,-441.5"/>
<text text-anchor="start" x="617" y="-497.5" font-family="Helvetica,sans-Serif" font-size="10.00" fill="#000000">array&lt; std::vector</text>
<text text-anchor="middle" x="694.5" y="-486.5" font-family="Helvetica,sans-Serif" font-size="10.00" fill="#000000">&lt; arrow::Datum &gt;, sizeof...(A)&gt;</text>
<polyline fill="none" stroke="#bfbfbf" points="609,-479.5 780,-479.5 "/>
<text text-anchor="middle" x="694.5" y="-467.5" font-family="Helvetica,sans-Serif" font-size="10.00" fill="#000000"> </text>
<polyline fill="none" stroke="#bfbfbf" points="609,-460.5 780,-460.5 "/>
<text text-anchor="middle" x="694.5" y="-448.5" font-family="Helvetica,sans-Serif" font-size="10.00" fill="#000000"> </text>
</g>
<!-- Node9&#45;&gt;Node3 -->
<g id="edge8" class="edge">
<title>Node9&#45;&gt;Node3</title>
<path fill="none" stroke="#404040" d="M677.1233,-441.2808C671.449,-431.4189 664.7296,-420.9218 657.5,-412 638.222,-388.2096 614.8306,-364.8506 592.126,-344.2191"/>
<polygon fill="none" stroke="#404040" points="592.0653,-344.1647 584.9279,-343.1365 583.1319,-336.1526 590.2693,-337.1808 592.0653,-344.1647"/>
<text text-anchor="middle" x="687" y="-415" font-family="Helvetica,sans-Serif" font-size="10.00" fill="#000000"> +groups</text>
</g>
<!-- Node10 -->
<g id="node10" class="node">
<title>Node10</title>
<polygon fill="none" stroke="#bfbfbf" points="798,-441.5 798,-509.5 943,-509.5 943,-441.5 798,-441.5"/>
<text text-anchor="start" x="806" y="-497.5" font-family="Helvetica,sans-Serif" font-size="10.00" fill="#000000">array&lt; std::vector</text>
<text text-anchor="middle" x="870.5" y="-486.5" font-family="Helvetica,sans-Serif" font-size="10.00" fill="#000000">&lt; uint64_t &gt;, sizeof...(A)&gt;</text>
<polyline fill="none" stroke="#bfbfbf" points="798,-479.5 943,-479.5 "/>
<text text-anchor="middle" x="870.5" y="-467.5" font-family="Helvetica,sans-Serif" font-size="10.00" fill="#000000"> </text>
<polyline fill="none" stroke="#bfbfbf" points="798,-460.5 943,-460.5 "/>
<text text-anchor="middle" x="870.5" y="-448.5" font-family="Helvetica,sans-Serif" font-size="10.00" fill="#000000"> </text>
</g>
<!-- Node10&#45;&gt;Node3 -->
<g id="edge9" class="edge">
<title>Node10&#45;&gt;Node3</title>
<path fill="none" stroke="#404040" d="M808.9051,-441.355C750.1535,-408.7862 660.9303,-359.3255 593.8919,-322.1629"/>
<polygon fill="none" stroke="#404040" points="593.8265,-322.1267 586.6395,-322.7161 583.3312,-316.3086 590.5182,-315.7192 593.8265,-322.1267"/>
<text text-anchor="middle" x="794" y="-415" font-family="Helvetica,sans-Serif" font-size="10.00" fill="#000000"> +offsets</text>
</g>
<!-- Node11 -->
<g id="node11" class="node">
<title>Node11</title>
<polygon fill="none" stroke="#bfbfbf" points="961.5,-447 961.5,-504 1049.5,-504 1049.5,-447 961.5,-447"/>
<text text-anchor="middle" x="1005.5" y="-492" font-family="Helvetica,sans-Serif" font-size="10.00" fill="#000000">tuple&lt; A... &gt; *</text>
<polyline fill="none" stroke="#bfbfbf" points="961.5,-485 1049.5,-485 "/>
<text text-anchor="middle" x="1005.5" y="-473" font-family="Helvetica,sans-Serif" font-size="10.00" fill="#000000"> </text>
<polyline fill="none" stroke="#bfbfbf" points="961.5,-466 1049.5,-466 "/>
<text text-anchor="middle" x="1005.5" y="-454" font-family="Helvetica,sans-Serif" font-size="10.00" fill="#000000"> </text>
</g>
<!-- Node11&#45;&gt;Node3 -->
<g id="edge10" class="edge">
<title>Node11&#45;&gt;Node3</title>
<path fill="none" stroke="#404040" d="M963.4584,-446.982C959.8081,-444.8599 956.1243,-442.8348 952.5,-441 833.3943,-380.7028 687.5026,-329.598 594.7624,-299.7288"/>
<polygon fill="none" stroke="#404040" points="594.5893,-299.6734 587.6552,-301.6531 583.1609,-296.0138 590.095,-294.0342 594.5893,-299.6734"/>
<text text-anchor="middle" x="921.5" y="-415" font-family="Helvetica,sans-Serif" font-size="10.00" fill="#000000"> +mAt</text>
</g>
</g>
</svg>
