<?xml version="1.0" encoding="UTF-8" standalone="no"?>
<!DOCTYPE svg PUBLIC "-//W3C//DTD SVG 1.1//EN"
 "http://www.w3.org/Graphics/SVG/1.1/DTD/svg11.dtd">
<!-- Generated by graphviz version 2.40.1 (20161225.0304)
 -->
<!-- Title: o2::ft0::CTF Pages: 1 -->
<!--zoomable 1465 -->
<svg id="main" version="1.1" xmlns="http://www.w3.org/2000/svg" xmlns:xlink="http://www.w3.org/1999/xlink" xml:space="preserve" onload="init(evt)">
<style type="text/css"><![CDATA[
.edge:hover path { stroke: red; }
.edge:hover polygon { stroke: red; fill: red; }
]]></style>
<script type="text/javascript"><![CDATA[
var edges = document.getElementsByTagName('g');
if (edges && edges.length) {
  for (var i=0;i<edges.length;i++) {
    if (edges[i].id.substr(0,4)=='edge') {
      edges[i].setAttribute('class','edge');
    }
  }
}
]]></script>
        <defs>
                <circle id="rim" cx="0" cy="0" r="7"/>
                <circle id="rim2" cx="0" cy="0" r="3.5"/>
                <g id="zoomPlus">
                        <use xlink:href="#rim" fill="#404040">
                                <set attributeName="fill" to="#808080" begin="zoomplus.mouseover" end="zoomplus.mouseout"/>
                        </use>
                        <path d="M-4,0h8M0,-4v8" fill="none" stroke="white" stroke-width="1.5" pointer-events="none"/>
                </g>
                <g id="zoomMin">
                        <use xlink:href="#rim" fill="#404040">
                                <set attributeName="fill" to="#808080" begin="zoomminus.mouseover" end="zoomminus.mouseout"/>
                        </use>
                        <path d="M-4,0h8" fill="none" stroke="white" stroke-width="1.5" pointer-events="none"/>
                </g>
                <g id="dirArrow">
                        <path fill="none" stroke="white" stroke-width="1.5" d="M0,-3.0v7 M-2.5,-0.5L0,-3.0L2.5,-0.5"/>
                </g>
               <g id="resetDef">
                       <use xlink:href="#rim2" fill="#404040">
                               <set attributeName="fill" to="#808080" begin="reset.mouseover" end="reset.mouseout"/>
                       </use>
               </g>
        </defs>

<script type="text/javascript">
var viewWidth = 906;
var viewHeight = 1465;
var sectionId = 'dynsection-1';
</script>
<script xlink:href="../../svgpan.js"/>
<svg id="graph" class="graph">
<g id="viewport">
<title>o2::ft0::CTF</title>
<!-- Node3 -->
<g id="node1" class="node">
<title>Node3</title>
<polygon fill="#bfbfbf" stroke="#000000" points="383.5,-.5 383.5,-57.5 476.5,-57.5 476.5,-.5 383.5,-.5"/>
<text text-anchor="middle" x="430" y="-45.5" font-family="Helvetica,sans-Serif" font-size="10.00" fill="#000000">o2::ft0::CTF</text>
<polyline fill="none" stroke="#000000" points="383.5,-38.5 476.5,-38.5 "/>
<text text-anchor="middle" x="430" y="-26.5" font-family="Helvetica,sans-Serif" font-size="10.00" fill="#000000"> </text>
<polyline fill="none" stroke="#000000" points="383.5,-19.5 476.5,-19.5 "/>
<text text-anchor="start" x="391.5" y="-7.5" font-family="Helvetica,sans-Serif" font-size="10.00" fill="#000000">+ ClassDefNV()</text>
</g>
<!-- Node4 -->
<g id="node2" class="node">
<title>Node4</title>
<g id="a_node2"><a xlink:href="../../dc/d08/classo2_1_1ctf_1_1EncodedBlocks.html" target="_top" xlink:title="{o2::ctf::EncodedBlocks\l\&lt; CTFHeader, 8, uint32_t \&gt;\n||+ setHeader()\l+ getHeader()\l+ getHeader()\l+ getMetadata()\l+ getMetadata()\l+ getBlock()\l+ setANSHeader()\l+ getANSHeader()\l+ getANSHeader()\l+ empty()\l+ flat()\l+ clear()\l+ compactify()\l+ size()\l+ getFreeSize()\l+ copyToFlat()\l+ copyToFlat()\l+ appendToTree()\l+ readFromTree()\l+ encode()\l+ encode()\l+ decode()\l+ decode()\l+ print()\l+ getNBlocks()\l+ getMinAlignedSize()\l+ get()\l+ get()\l+ getImage()\l+ create()\l+ create()\l+ estimateBlockSize()\l+ expand()\l+ readFromTree()\l+ createDictionaryBlocks()\l# init()\l# estimateSize()\l# estimateSizeFromMetadata()\l# fillFlatCopy()\l# ClassDefNV()\l# relocate()\l# fillTreeBranch()\l# readTreeBranch()\l}">
<polygon fill="none" stroke="#000000" points="283.5,-105.5 283.5,-635.5 452.5,-635.5 452.5,-105.5 283.5,-105.5"/>
<text text-anchor="start" x="291.5" y="-623.5" font-family="Helvetica,sans-Serif" font-size="10.00" fill="#000000">o2::ctf::EncodedBlocks</text>
<text text-anchor="middle" x="368" y="-612.5" font-family="Helvetica,sans-Serif" font-size="10.00" fill="#000000">&lt; CTFHeader, 8, uint32_t &gt;</text>
<polyline fill="none" stroke="#000000" points="283.5,-605.5 452.5,-605.5 "/>
<text text-anchor="middle" x="368" y="-593.5" font-family="Helvetica,sans-Serif" font-size="10.00" fill="#000000"> </text>
<polyline fill="none" stroke="#000000" points="283.5,-586.5 452.5,-586.5 "/>
<text text-anchor="start" x="291.5" y="-574.5" font-family="Helvetica,sans-Serif" font-size="10.00" fill="#000000">+ setHeader()</text>
<text text-anchor="start" x="291.5" y="-563.5" font-family="Helvetica,sans-Serif" font-size="10.00" fill="#000000">+ getHeader()</text>
<text text-anchor="start" x="291.5" y="-552.5" font-family="Helvetica,sans-Serif" font-size="10.00" fill="#000000">+ getHeader()</text>
<text text-anchor="start" x="291.5" y="-541.5" font-family="Helvetica,sans-Serif" font-size="10.00" fill="#000000">+ getMetadata()</text>
<text text-anchor="start" x="291.5" y="-530.5" font-family="Helvetica,sans-Serif" font-size="10.00" fill="#000000">+ getMetadata()</text>
<text text-anchor="start" x="291.5" y="-519.5" font-family="Helvetica,sans-Serif" font-size="10.00" fill="#000000">+ getBlock()</text>
<text text-anchor="start" x="291.5" y="-508.5" font-family="Helvetica,sans-Serif" font-size="10.00" fill="#000000">+ setANSHeader()</text>
<text text-anchor="start" x="291.5" y="-497.5" font-family="Helvetica,sans-Serif" font-size="10.00" fill="#000000">+ getANSHeader()</text>
<text text-anchor="start" x="291.5" y="-486.5" font-family="Helvetica,sans-Serif" font-size="10.00" fill="#000000">+ getANSHeader()</text>
<text text-anchor="start" x="291.5" y="-475.5" font-family="Helvetica,sans-Serif" font-size="10.00" fill="#000000">+ empty()</text>
<text text-anchor="start" x="291.5" y="-464.5" font-family="Helvetica,sans-Serif" font-size="10.00" fill="#000000">+ flat()</text>
<text text-anchor="start" x="291.5" y="-453.5" font-family="Helvetica,sans-Serif" font-size="10.00" fill="#000000">+ clear()</text>
<text text-anchor="start" x="291.5" y="-442.5" font-family="Helvetica,sans-Serif" font-size="10.00" fill="#000000">+ compactify()</text>
<text text-anchor="start" x="291.5" y="-431.5" font-family="Helvetica,sans-Serif" font-size="10.00" fill="#000000">+ size()</text>
<text text-anchor="start" x="291.5" y="-420.5" font-family="Helvetica,sans-Serif" font-size="10.00" fill="#000000">+ getFreeSize()</text>
<text text-anchor="start" x="291.5" y="-409.5" font-family="Helvetica,sans-Serif" font-size="10.00" fill="#000000">+ copyToFlat()</text>
<text text-anchor="start" x="291.5" y="-398.5" font-family="Helvetica,sans-Serif" font-size="10.00" fill="#000000">+ copyToFlat()</text>
<text text-anchor="start" x="291.5" y="-387.5" font-family="Helvetica,sans-Serif" font-size="10.00" fill="#000000">+ appendToTree()</text>
<text text-anchor="start" x="291.5" y="-376.5" font-family="Helvetica,sans-Serif" font-size="10.00" fill="#000000">+ readFromTree()</text>
<text text-anchor="start" x="291.5" y="-365.5" font-family="Helvetica,sans-Serif" font-size="10.00" fill="#000000">+ encode()</text>
<text text-anchor="start" x="291.5" y="-354.5" font-family="Helvetica,sans-Serif" font-size="10.00" fill="#000000">+ encode()</text>
<text text-anchor="start" x="291.5" y="-343.5" font-family="Helvetica,sans-Serif" font-size="10.00" fill="#000000">+ decode()</text>
<text text-anchor="start" x="291.5" y="-332.5" font-family="Helvetica,sans-Serif" font-size="10.00" fill="#000000">+ decode()</text>
<text text-anchor="start" x="291.5" y="-321.5" font-family="Helvetica,sans-Serif" font-size="10.00" fill="#000000">+ print()</text>
<text text-anchor="start" x="291.5" y="-310.5" font-family="Helvetica,sans-Serif" font-size="10.00" fill="#000000">+ getNBlocks()</text>
<text text-anchor="start" x="291.5" y="-299.5" font-family="Helvetica,sans-Serif" font-size="10.00" fill="#000000">+ getMinAlignedSize()</text>
<text text-anchor="start" x="291.5" y="-288.5" font-family="Helvetica,sans-Serif" font-size="10.00" fill="#000000">+ get()</text>
<text text-anchor="start" x="291.5" y="-277.5" font-family="Helvetica,sans-Serif" font-size="10.00" fill="#000000">+ get()</text>
<text text-anchor="start" x="291.5" y="-266.5" font-family="Helvetica,sans-Serif" font-size="10.00" fill="#000000">+ getImage()</text>
<text text-anchor="start" x="291.5" y="-255.5" font-family="Helvetica,sans-Serif" font-size="10.00" fill="#000000">+ create()</text>
<text text-anchor="start" x="291.5" y="-244.5" font-family="Helvetica,sans-Serif" font-size="10.00" fill="#000000">+ create()</text>
<text text-anchor="start" x="291.5" y="-233.5" font-family="Helvetica,sans-Serif" font-size="10.00" fill="#000000">+ estimateBlockSize()</text>
<text text-anchor="start" x="291.5" y="-222.5" font-family="Helvetica,sans-Serif" font-size="10.00" fill="#000000">+ expand()</text>
<text text-anchor="start" x="291.5" y="-211.5" font-family="Helvetica,sans-Serif" font-size="10.00" fill="#000000">+ readFromTree()</text>
<text text-anchor="start" x="291.5" y="-200.5" font-family="Helvetica,sans-Serif" font-size="10.00" fill="#000000">+ createDictionaryBlocks()</text>
<text text-anchor="start" x="291.5" y="-189.5" font-family="Helvetica,sans-Serif" font-size="10.00" fill="#000000"># init()</text>
<text text-anchor="start" x="291.5" y="-178.5" font-family="Helvetica,sans-Serif" font-size="10.00" fill="#000000"># estimateSize()</text>
<text text-anchor="start" x="291.5" y="-167.5" font-family="Helvetica,sans-Serif" font-size="10.00" fill="#000000"># estimateSizeFromMetadata()</text>
<text text-anchor="start" x="291.5" y="-156.5" font-family="Helvetica,sans-Serif" font-size="10.00" fill="#000000"># fillFlatCopy()</text>
<text text-anchor="start" x="291.5" y="-145.5" font-family="Helvetica,sans-Serif" font-size="10.00" fill="#000000"># ClassDefNV()</text>
<text text-anchor="start" x="291.5" y="-134.5" font-family="Helvetica,sans-Serif" font-size="10.00" fill="#000000"># relocate()</text>
<text text-anchor="start" x="291.5" y="-123.5" font-family="Helvetica,sans-Serif" font-size="10.00" fill="#000000"># fillTreeBranch()</text>
<text text-anchor="start" x="291.5" y="-112.5" font-family="Helvetica,sans-Serif" font-size="10.00" fill="#000000"># readTreeBranch()</text>
</a>
</g>
</g>
<!-- Node4&#45;&gt;Node3 -->
<g id="edge1" class="edge">
<title>Node4&#45;&gt;Node3</title>
<path fill="none" stroke="#191970" d="M418.0112,-95.035C420.6158,-80.6889 422.9287,-67.9493 424.8112,-57.5801"/>
<polygon fill="none" stroke="#191970" points="414.5059,-94.7498 416.1632,-105.2142 421.3933,-96.0003 414.5059,-94.7498"/>
</g>
<!-- Node5 -->
<g id="node3" class="node">
<title>Node5</title>
<g id="a_node3"><a xlink:href="../../da/d30/classstd_1_1array_3_01o2_1_1ctf_1_1Block_3_01uint32__t_01_4_00_01N_01_4.html" target="_top" xlink:title="{array\&lt; o2::ctf::Block\l\&lt; uint32_t \&gt;, N \&gt;\n||}">
<polygon fill="none" stroke="#000000" points="7.5,-914.5 7.5,-982.5 124.5,-982.5 124.5,-914.5 7.5,-914.5"/>
<text text-anchor="start" x="15.5" y="-970.5" font-family="Helvetica,sans-Serif" font-size="10.00" fill="#000000">array&lt; o2::ctf::Block</text>
<text text-anchor="middle" x="66" y="-959.5" font-family="Helvetica,sans-Serif" font-size="10.00" fill="#000000">&lt; uint32_t &gt;, N &gt;</text>
<polyline fill="none" stroke="#000000" points="7.5,-952.5 124.5,-952.5 "/>
<text text-anchor="middle" x="66" y="-940.5" font-family="Helvetica,sans-Serif" font-size="10.00" fill="#000000"> </text>
<polyline fill="none" stroke="#000000" points="7.5,-933.5 124.5,-933.5 "/>
<text text-anchor="middle" x="66" y="-921.5" font-family="Helvetica,sans-Serif" font-size="10.00" fill="#000000"> </text>
</a>
</g>
</g>
<!-- Node5&#45;&gt;Node4 -->
<g id="edge2" class="edge">
<title>Node5&#45;&gt;Node4</title>
<path fill="none" stroke="#404040" d="M70.2033,-914.3389C77.5601,-862.3193 95.6795,-761.0576 133,-683 169.7574,-606.1202 226.9737,-529.4952 275.7455,-471.3617"/>
<polygon fill="none" stroke="#404040" points="275.7491,-471.3574 276.5679,-464.1929 283.4962,-462.1932 282.6774,-469.3577 275.7491,-471.3574"/>
<text text-anchor="middle" x="175" y="-657" font-family="Helvetica,sans-Serif" font-size="10.00" fill="#000000"> #mBlocks</text>
</g>
<!-- Node6 -->
<g id="node4" class="node">
<title>Node6</title>
<polygon fill="none" stroke="#bfbfbf" points="238.5,-1272.5 238.5,-1329.5 399.5,-1329.5 399.5,-1272.5 238.5,-1272.5"/>
<text text-anchor="middle" x="319" y="-1317.5" font-family="Helvetica,sans-Serif" font-size="10.00" fill="#000000">array&lt; o2::ctf::Metadata, N &gt;</text>
<polyline fill="none" stroke="#bfbfbf" points="238.5,-1310.5 399.5,-1310.5 "/>
<text text-anchor="middle" x="319" y="-1298.5" font-family="Helvetica,sans-Serif" font-size="10.00" fill="#000000"> </text>
<polyline fill="none" stroke="#bfbfbf" points="238.5,-1291.5 399.5,-1291.5 "/>
<text text-anchor="middle" x="319" y="-1279.5" font-family="Helvetica,sans-Serif" font-size="10.00" fill="#000000"> </text>
</g>
<!-- Node6&#45;&gt;Node4 -->
<g id="edge3" class="edge">
<title>Node6&#45;&gt;Node4</title>
<path fill="none" stroke="#404040" d="M319.1246,-1272.3207C319.6598,-1184.2327 322.4642,-909.8212 337,-683 337.7453,-671.3703 338.5822,-659.504 339.4904,-647.5217"/>
<polygon fill="none" stroke="#404040" points="339.4943,-647.4694 335.9698,-641.1783 340.4214,-635.5053 343.9459,-641.7964 339.4943,-647.4694"/>
<text text-anchor="middle" x="370.5" y="-946" font-family="Helvetica,sans-Serif" font-size="10.00" fill="#000000"> #mMetadata</text>
</g>
<!-- Node17 -->
<g id="node15" class="node">
<title>Node17</title>
<g id="a_node15"><a xlink:href="../../dc/d08/classo2_1_1ctf_1_1EncodedBlocks.html" target="_top" xlink:title="&lt;&lt;======================== Auxiliary classes =======================&lt;&lt; ">
<polygon fill="none" stroke="#000000" points="521.5,-683.5 521.5,-1213.5 690.5,-1213.5 690.5,-683.5 521.5,-683.5"/>
<text text-anchor="start" x="529.5" y="-1201.5" font-family="Helvetica,sans-Serif" font-size="10.00" fill="#000000">o2::ctf::EncodedBlocks</text>
<text text-anchor="middle" x="606" y="-1190.5" font-family="Helvetica,sans-Serif" font-size="10.00" fill="#000000">&lt; H, N, W &gt;</text>
<polyline fill="none" stroke="#000000" points="521.5,-1183.5 690.5,-1183.5 "/>
<text text-anchor="middle" x="606" y="-1171.5" font-family="Helvetica,sans-Serif" font-size="10.00" fill="#000000"> </text>
<polyline fill="none" stroke="#000000" points="521.5,-1164.5 690.5,-1164.5 "/>
<text text-anchor="start" x="529.5" y="-1152.5" font-family="Helvetica,sans-Serif" font-size="10.00" fill="#000000">+ setHeader()</text>
<text text-anchor="start" x="529.5" y="-1141.5" font-family="Helvetica,sans-Serif" font-size="10.00" fill="#000000">+ getHeader()</text>
<text text-anchor="start" x="529.5" y="-1130.5" font-family="Helvetica,sans-Serif" font-size="10.00" fill="#000000">+ getHeader()</text>
<text text-anchor="start" x="529.5" y="-1119.5" font-family="Helvetica,sans-Serif" font-size="10.00" fill="#000000">+ getMetadata()</text>
<text text-anchor="start" x="529.5" y="-1108.5" font-family="Helvetica,sans-Serif" font-size="10.00" fill="#000000">+ getMetadata()</text>
<text text-anchor="start" x="529.5" y="-1097.5" font-family="Helvetica,sans-Serif" font-size="10.00" fill="#000000">+ getBlock()</text>
<text text-anchor="start" x="529.5" y="-1086.5" font-family="Helvetica,sans-Serif" font-size="10.00" fill="#000000">+ setANSHeader()</text>
<text text-anchor="start" x="529.5" y="-1075.5" font-family="Helvetica,sans-Serif" font-size="10.00" fill="#000000">+ getANSHeader()</text>
<text text-anchor="start" x="529.5" y="-1064.5" font-family="Helvetica,sans-Serif" font-size="10.00" fill="#000000">+ getANSHeader()</text>
<text text-anchor="start" x="529.5" y="-1053.5" font-family="Helvetica,sans-Serif" font-size="10.00" fill="#000000">+ empty()</text>
<text text-anchor="start" x="529.5" y="-1042.5" font-family="Helvetica,sans-Serif" font-size="10.00" fill="#000000">+ flat()</text>
<text text-anchor="start" x="529.5" y="-1031.5" font-family="Helvetica,sans-Serif" font-size="10.00" fill="#000000">+ clear()</text>
<text text-anchor="start" x="529.5" y="-1020.5" font-family="Helvetica,sans-Serif" font-size="10.00" fill="#000000">+ compactify()</text>
<text text-anchor="start" x="529.5" y="-1009.5" font-family="Helvetica,sans-Serif" font-size="10.00" fill="#000000">+ size()</text>
<text text-anchor="start" x="529.5" y="-998.5" font-family="Helvetica,sans-Serif" font-size="10.00" fill="#000000">+ getFreeSize()</text>
<text text-anchor="start" x="529.5" y="-987.5" font-family="Helvetica,sans-Serif" font-size="10.00" fill="#000000">+ copyToFlat()</text>
<text text-anchor="start" x="529.5" y="-976.5" font-family="Helvetica,sans-Serif" font-size="10.00" fill="#000000">+ copyToFlat()</text>
<text text-anchor="start" x="529.5" y="-965.5" font-family="Helvetica,sans-Serif" font-size="10.00" fill="#000000">+ appendToTree()</text>
<text text-anchor="start" x="529.5" y="-954.5" font-family="Helvetica,sans-Serif" font-size="10.00" fill="#000000">+ readFromTree()</text>
<text text-anchor="start" x="529.5" y="-943.5" font-family="Helvetica,sans-Serif" font-size="10.00" fill="#000000">+ encode()</text>
<text text-anchor="start" x="529.5" y="-932.5" font-family="Helvetica,sans-Serif" font-size="10.00" fill="#000000">+ encode()</text>
<text text-anchor="start" x="529.5" y="-921.5" font-family="Helvetica,sans-Serif" font-size="10.00" fill="#000000">+ decode()</text>
<text text-anchor="start" x="529.5" y="-910.5" font-family="Helvetica,sans-Serif" font-size="10.00" fill="#000000">+ decode()</text>
<text text-anchor="start" x="529.5" y="-899.5" font-family="Helvetica,sans-Serif" font-size="10.00" fill="#000000">+ print()</text>
<text text-anchor="start" x="529.5" y="-888.5" font-family="Helvetica,sans-Serif" font-size="10.00" fill="#000000">+ getNBlocks()</text>
<text text-anchor="start" x="529.5" y="-877.5" font-family="Helvetica,sans-Serif" font-size="10.00" fill="#000000">+ getMinAlignedSize()</text>
<text text-anchor="start" x="529.5" y="-866.5" font-family="Helvetica,sans-Serif" font-size="10.00" fill="#000000">+ get()</text>
<text text-anchor="start" x="529.5" y="-855.5" font-family="Helvetica,sans-Serif" font-size="10.00" fill="#000000">+ get()</text>
<text text-anchor="start" x="529.5" y="-844.5" font-family="Helvetica,sans-Serif" font-size="10.00" fill="#000000">+ getImage()</text>
<text text-anchor="start" x="529.5" y="-833.5" font-family="Helvetica,sans-Serif" font-size="10.00" fill="#000000">+ create()</text>
<text text-anchor="start" x="529.5" y="-822.5" font-family="Helvetica,sans-Serif" font-size="10.00" fill="#000000">+ create()</text>
<text text-anchor="start" x="529.5" y="-811.5" font-family="Helvetica,sans-Serif" font-size="10.00" fill="#000000">+ estimateBlockSize()</text>
<text text-anchor="start" x="529.5" y="-800.5" font-family="Helvetica,sans-Serif" font-size="10.00" fill="#000000">+ expand()</text>
<text text-anchor="start" x="529.5" y="-789.5" font-family="Helvetica,sans-Serif" font-size="10.00" fill="#000000">+ readFromTree()</text>
<text text-anchor="start" x="529.5" y="-778.5" font-family="Helvetica,sans-Serif" font-size="10.00" fill="#000000">+ createDictionaryBlocks()</text>
<text text-anchor="start" x="529.5" y="-767.5" font-family="Helvetica,sans-Serif" font-size="10.00" fill="#000000"># init()</text>
<text text-anchor="start" x="529.5" y="-756.5" font-family="Helvetica,sans-Serif" font-size="10.00" fill="#000000"># estimateSize()</text>
<text text-anchor="start" x="529.5" y="-745.5" font-family="Helvetica,sans-Serif" font-size="10.00" fill="#000000"># estimateSizeFromMetadata()</text>
<text text-anchor="start" x="529.5" y="-734.5" font-family="Helvetica,sans-Serif" font-size="10.00" fill="#000000"># fillFlatCopy()</text>
<text text-anchor="start" x="529.5" y="-723.5" font-family="Helvetica,sans-Serif" font-size="10.00" fill="#000000"># ClassDefNV()</text>
<text text-anchor="start" x="529.5" y="-712.5" font-family="Helvetica,sans-Serif" font-size="10.00" fill="#000000"># relocate()</text>
<text text-anchor="start" x="529.5" y="-701.5" font-family="Helvetica,sans-Serif" font-size="10.00" fill="#000000"># fillTreeBranch()</text>
<text text-anchor="start" x="529.5" y="-690.5" font-family="Helvetica,sans-Serif" font-size="10.00" fill="#000000"># readTreeBranch()</text>
</a>
</g>
</g>
<!-- Node6&#45;&gt;Node17 -->
<g id="edge15" class="edge">
<title>Node6&#45;&gt;Node17</title>
<path fill="none" stroke="#404040" d="M355.4994,-1272.1962C374.8757,-1258.1902 399.6639,-1242.2166 424,-1232 458.8038,-1217.3889 478.4664,-1238.7108 507,-1214 508.8826,-1212.3696 510.7295,-1210.6999 512.5413,-1208.993"/>
<polygon fill="none" stroke="#404040" points="512.8567,-1208.6753 514.2452,-1201.5991 521.3111,-1200.1592 519.9226,-1207.2354 512.8567,-1208.6753"/>
<text text-anchor="middle" x="457.5" y="-1235" font-family="Helvetica,sans-Serif" font-size="10.00" fill="#000000"> #mMetadata</text>
</g>
<!-- Node7 -->
<g id="node5" class="node">
<title>Node7</title>
<g id="a_node5"><a xlink:href="../../d5/d54/structo2_1_1ctf_1_1CTFHeader.html" target="_top" xlink:title="{o2::ctf::CTFHeader\n||+ describe()\l+ print()\l}">
<polygon fill="none" stroke="#000000" points="142.5,-914.5 142.5,-982.5 249.5,-982.5 249.5,-914.5 142.5,-914.5"/>
<text text-anchor="middle" x="196" y="-970.5" font-family="Helvetica,sans-Serif" font-size="10.00" fill="#000000">o2::ctf::CTFHeader</text>
<polyline fill="none" stroke="#000000" points="142.5,-963.5 249.5,-963.5 "/>
<text text-anchor="middle" x="196" y="-951.5" font-family="Helvetica,sans-Serif" font-size="10.00" fill="#000000"> </text>
<polyline fill="none" stroke="#000000" points="142.5,-944.5 249.5,-944.5 "/>
<text text-anchor="start" x="150.5" y="-932.5" font-family="Helvetica,sans-Serif" font-size="10.00" fill="#000000">+ describe()</text>
<text text-anchor="start" x="150.5" y="-921.5" font-family="Helvetica,sans-Serif" font-size="10.00" fill="#000000">+ print()</text>
</a>
</g>
</g>
<!-- Node7&#45;&gt;Node4 -->
<g id="edge4" class="edge">
<title>Node7&#45;&gt;Node4</title>
<path fill="none" stroke="#404040" d="M198.0456,-914.2783C202.0454,-858.6884 213.0003,-745.7472 240,-654 250.2489,-619.1735 263.9416,-583.0884 278.5627,-548.8072"/>
<polygon fill="none" stroke="#404040" points="278.5825,-548.7612 277.2886,-541.6671 283.3393,-537.7442 284.6332,-544.8382 278.5825,-548.7612"/>
<text text-anchor="middle" x="268.5" y="-657" font-family="Helvetica,sans-Serif" font-size="10.00" fill="#000000"> #mHeader</text>
</g>
<!-- Node8 -->
<g id="node6" class="node">
<title>Node8</title>
<polygon fill="none" stroke="#bfbfbf" points="88.5,-1272.5 88.5,-1329.5 141.5,-1329.5 141.5,-1272.5 88.5,-1272.5"/>
<text text-anchor="middle" x="115" y="-1317.5" font-family="Helvetica,sans-Serif" font-size="10.00" fill="#000000">mask_t</text>
<polyline fill="none" stroke="#bfbfbf" points="88.5,-1310.5 141.5,-1310.5 "/>
<text text-anchor="middle" x="115" y="-1298.5" font-family="Helvetica,sans-Serif" font-size="10.00" fill="#000000"> </text>
<polyline fill="none" stroke="#bfbfbf" points="88.5,-1291.5 141.5,-1291.5 "/>
<text text-anchor="middle" x="115" y="-1279.5" font-family="Helvetica,sans-Serif" font-size="10.00" fill="#000000"> </text>
</g>
<!-- Node8&#45;&gt;Node7 -->
<g id="edge5" class="edge">
<title>Node8&#45;&gt;Node7</title>
<path fill="none" stroke="#404040" d="M121.56,-1272.452C135.5341,-1211.6384 168.3476,-1068.8393 185.3568,-994.8176"/>
<polygon fill="none" stroke="#404040" points="185.4559,-994.3858 182.9013,-987.6424 188.1434,-982.6906 190.6981,-989.4341 185.4559,-994.3858"/>
<text text-anchor="middle" x="160" y="-1235" font-family="Helvetica,sans-Serif" font-size="10.00" fill="#000000"> +detectors</text>
</g>
<!-- Node9 -->
<g id="node7" class="node">
<title>Node9</title>
<g id="a_node7"><a xlink:href="../../d6/d30/classuint64__t.html" target="_top" xlink:title="{uint64_t\n||}">
<polygon fill="none" stroke="#000000" points="164,-1272.5 164,-1329.5 220,-1329.5 220,-1272.5 164,-1272.5"/>
<text text-anchor="middle" x="192" y="-1317.5" font-family="Helvetica,sans-Serif" font-size="10.00" fill="#000000">uint64_t</text>
<polyline fill="none" stroke="#000000" points="164,-1310.5 220,-1310.5 "/>
<text text-anchor="middle" x="192" y="-1298.5" font-family="Helvetica,sans-Serif" font-size="10.00" fill="#000000"> </text>
<polyline fill="none" stroke="#000000" points="164,-1291.5 220,-1291.5 "/>
<text text-anchor="middle" x="192" y="-1279.5" font-family="Helvetica,sans-Serif" font-size="10.00" fill="#000000"> </text>
</a>
</g>
</g>
<!-- Node9&#45;&gt;Node7 -->
<g id="edge6" class="edge">
<title>Node9&#45;&gt;Node7</title>
<path fill="none" stroke="#404040" d="M192.3239,-1272.452C193.014,-1211.6384 194.6344,-1068.8393 195.4744,-994.8176"/>
<polygon fill="none" stroke="#404040" points="195.4758,-994.6899 191.5441,-988.6448 195.612,-982.6906 199.5436,-988.7357 195.4758,-994.6899"/>
<text text-anchor="middle" x="207" y="-1235" font-family="Helvetica,sans-Serif" font-size="10.00" fill="#000000"> +run</text>
</g>
<!-- Node10 -->
<g id="node8" class="node">
<title>Node10</title>
<g id="a_node8"><a xlink:href="../../d3/d87/classuint32__t.html" target="_top" xlink:title="{uint32_t\n||}">
<polygon fill="none" stroke="#000000" points="0,-1272.5 0,-1329.5 56,-1329.5 56,-1272.5 0,-1272.5"/>
<text text-anchor="middle" x="28" y="-1317.5" font-family="Helvetica,sans-Serif" font-size="10.00" fill="#000000">uint32_t</text>
<polyline fill="none" stroke="#000000" points="0,-1310.5 56,-1310.5 "/>
<text text-anchor="middle" x="28" y="-1298.5" font-family="Helvetica,sans-Serif" font-size="10.00" fill="#000000"> </text>
<polyline fill="none" stroke="#000000" points="0,-1291.5 56,-1291.5 "/>
<text text-anchor="middle" x="28" y="-1279.5" font-family="Helvetica,sans-Serif" font-size="10.00" fill="#000000"> </text>
</a>
</g>
</g>
<!-- Node10&#45;&gt;Node7 -->
<g id="edge7" class="edge">
<title>Node10&#45;&gt;Node7</title>
<path fill="none" stroke="#404040" d="M35.3459,-1272.4988C40.3699,-1258.3983 48.4527,-1242.2472 61,-1232 86.5475,-1211.1356 109.8165,-1237.4633 133,-1214 190.8533,-1155.4483 199.196,-1054.0729 198.5849,-994.9759"/>
<polygon fill="none" stroke="#404040" points="198.5787,-994.6809 194.4512,-988.7679 198.3218,-982.6837 202.4493,-988.5967 198.5787,-994.6809"/>
<text text-anchor="middle" x="93" y="-1235" font-family="Helvetica,sans-Serif" font-size="10.00" fill="#000000"> +firstTForbit</text>
</g>
<!-- Node11 -->
<g id="node9" class="node">
<title>Node11</title>
<g id="a_node9"><a xlink:href="../../dc/dbb/structo2_1_1ctf_1_1ANSHeader.html" target="_top" xlink:title="&gt;&gt;======================== Auxiliary classes =======================&gt;&gt; ">
<polygon fill="none" stroke="#000000" points="417.5,-1267 417.5,-1335 526.5,-1335 526.5,-1267 417.5,-1267"/>
<text text-anchor="middle" x="472" y="-1323" font-family="Helvetica,sans-Serif" font-size="10.00" fill="#000000">o2::ctf::ANSHeader</text>
<polyline fill="none" stroke="#000000" points="417.5,-1316 526.5,-1316 "/>
<text text-anchor="middle" x="472" y="-1304" font-family="Helvetica,sans-Serif" font-size="10.00" fill="#000000"> </text>
<polyline fill="none" stroke="#000000" points="417.5,-1297 526.5,-1297 "/>
<text text-anchor="start" x="425.5" y="-1285" font-family="Helvetica,sans-Serif" font-size="10.00" fill="#000000">+ clear()</text>
<text text-anchor="start" x="425.5" y="-1274" font-family="Helvetica,sans-Serif" font-size="10.00" fill="#000000">+ ClassDefNV()</text>
</a>
</g>
</g>
<!-- Node11&#45;&gt;Node4 -->
<g id="edge8" class="edge">
<title>Node11&#45;&gt;Node4</title>
<path fill="none" stroke="#404040" d="M454.7294,-1266.7383C447.6437,-1251.0609 440.1438,-1232.0004 436,-1214 382.9598,-983.5982 424.6476,-918.5248 404,-683 402.9805,-671.3712 401.8804,-659.5057 400.72,-647.5241"/>
<polygon fill="none" stroke="#404040" points="400.7129,-647.4509 396.1458,-641.8704 399.5404,-635.5083 404.1075,-641.0888 400.7129,-647.4509"/>
<text text-anchor="middle" x="474.5" y="-946" font-family="Helvetica,sans-Serif" font-size="10.00" fill="#000000"> #mANSHeader</text>
</g>
<!-- Node11&#45;&gt;Node17 -->
<g id="edge18" class="edge">
<title>Node11&#45;&gt;Node17</title>
<path fill="none" stroke="#404040" d="M486,-1266.7838C492.4848,-1250.7872 500.2348,-1231.4577 507,-1214 510.3433,-1205.3725 513.7298,-1196.5795 517.135,-1187.692"/>
<polygon fill="none" stroke="#404040" points="517.1708,-1187.598 515.5774,-1180.5651 521.4564,-1176.3893 523.0499,-1183.4221 517.1708,-1187.598"/>
<text text-anchor="middle" x="537.5" y="-1235" font-family="Helvetica,sans-Serif" font-size="10.00" fill="#000000"> #mANSHeader</text>
</g>
<!-- Node12 -->
<g id="node10" class="node">
<title>Node12</title>
<polygon fill="none" stroke="#bfbfbf" points="435,-1399.5 435,-1456.5 485,-1456.5 485,-1399.5 435,-1399.5"/>
<text text-anchor="middle" x="460" y="-1444.5" font-family="Helvetica,sans-Serif" font-size="10.00" fill="#000000">uint8_t</text>
<polyline fill="none" stroke="#bfbfbf" points="435,-1437.5 485,-1437.5 "/>
<text text-anchor="middle" x="460" y="-1425.5" font-family="Helvetica,sans-Serif" font-size="10.00" fill="#000000"> </text>
<polyline fill="none" stroke="#bfbfbf" points="435,-1418.5 485,-1418.5 "/>
<text text-anchor="middle" x="460" y="-1406.5" font-family="Helvetica,sans-Serif" font-size="10.00" fill="#000000"> </text>
</g>
<!-- Node12&#45;&gt;Node11 -->
<g id="edge9" class="edge">
<title>Node12&#45;&gt;Node11</title>
<path fill="none" stroke="#404040" d="M459.309,-1399.4011C459.2937,-1386.96 459.6597,-1372.2306 461,-1359 461.3925,-1355.1252 461.9109,-1351.1228 462.5091,-1347.1161"/>
<polygon fill="none" stroke="#404040" points="462.5214,-1347.0422 459.5639,-1340.4654 464.4972,-1335.2059 467.4547,-1341.7827 462.5214,-1347.0422"/>
<text text-anchor="middle" x="499" y="-1373" font-family="Helvetica,sans-Serif" font-size="10.00" fill="#000000"> +minorVersion</text>
<text text-anchor="middle" x="499" y="-1362" font-family="Helvetica,sans-Serif" font-size="10.00" fill="#000000">+majorVersion</text>
</g>
<!-- Node13 -->
<g id="node11" class="node">
<title>Node13</title>
<g id="a_node11"><a xlink:href="../../d0/d1c/structo2_1_1ctf_1_1Registry.html" target="_top" xlink:title="registry struct for the buffer start and offsets of writable space ">
<polygon fill="none" stroke="#000000" points="545,-1261.5 545,-1340.5 667,-1340.5 667,-1261.5 545,-1261.5"/>
<text text-anchor="middle" x="606" y="-1328.5" font-family="Helvetica,sans-Serif" font-size="10.00" fill="#000000">o2::ctf::Registry</text>
<polyline fill="none" stroke="#000000" points="545,-1321.5 667,-1321.5 "/>
<text text-anchor="middle" x="606" y="-1309.5" font-family="Helvetica,sans-Serif" font-size="10.00" fill="#000000"> </text>
<polyline fill="none" stroke="#000000" points="545,-1302.5 667,-1302.5 "/>
<text text-anchor="start" x="553" y="-1290.5" font-family="Helvetica,sans-Serif" font-size="10.00" fill="#000000">+ getFreeBlockStart()</text>
<text text-anchor="start" x="553" y="-1279.5" font-family="Helvetica,sans-Serif" font-size="10.00" fill="#000000">+ getFreeSize()</text>
<text text-anchor="start" x="553" y="-1268.5" font-family="Helvetica,sans-Serif" font-size="10.00" fill="#000000">+ ClassDefNV()</text>
</a>
</g>
</g>
<!-- Node13&#45;&gt;Node4 -->
<g id="edge10" class="edge">
<title>Node13&#45;&gt;Node4</title>
<path fill="none" stroke="#404040" d="M667.0966,-1265.3219C670.4092,-1263.7841 673.7231,-1262.3313 677,-1261 705.9639,-1249.2324 725.9307,-1267.7739 745,-1243 897.3021,-1045.1371 846.5697,-885.146 700,-683 680.4732,-656.0691 663.2171,-662.2841 631,-654 597.1541,-645.2971 506.9208,-657.3292 462.9971,-635.4289"/>
<polygon fill="none" stroke="#404040" points="462.7975,-635.3031 455.5887,-635.4862 452.6471,-628.9023 459.8559,-628.7192 462.7975,-635.3031"/>
<text text-anchor="middle" x="867.5" y="-946" font-family="Helvetica,sans-Serif" font-size="10.00" fill="#000000"> #mRegistry</text>
</g>
<!-- Node13&#45;&gt;Node17 -->
<g id="edge19" class="edge">
<title>Node13&#45;&gt;Node17</title>
<path fill="none" stroke="#404040" d="M605.2259,-1261.3777C605.1319,-1255.2253 605.0512,-1248.9416 605,-1243 604.9579,-1238.1113 604.9914,-1236.8889 605,-1232 605.0037,-1229.9274 605.0075,-1227.8463 605.0114,-1225.7575"/>
<polygon fill="none" stroke="#404040" points="605.0114,-1225.7163 601.0235,-1219.7083 605.0356,-1213.7164 609.0235,-1219.7244 605.0114,-1225.7163"/>
<text text-anchor="middle" x="635.5" y="-1235" font-family="Helvetica,sans-Serif" font-size="10.00" fill="#000000"> #mRegistry</text>
</g>
<!-- Node14 -->
<g id="node12" class="node">
<title>Node14</title>
<polygon fill="none" stroke="#bfbfbf" points="539,-1399.5 539,-1456.5 577,-1456.5 577,-1399.5 539,-1399.5"/>
<text text-anchor="middle" x="558" y="-1444.5" font-family="Helvetica,sans-Serif" font-size="10.00" fill="#000000">char</text>
<polyline fill="none" stroke="#bfbfbf" points="539,-1437.5 577,-1437.5 "/>
<text text-anchor="middle" x="558" y="-1425.5" font-family="Helvetica,sans-Serif" font-size="10.00" fill="#000000"> </text>
<polyline fill="none" stroke="#bfbfbf" points="539,-1418.5 577,-1418.5 "/>
<text text-anchor="middle" x="558" y="-1406.5" font-family="Helvetica,sans-Serif" font-size="10.00" fill="#000000"> </text>
</g>
<!-- Node14&#45;&gt;Node13 -->
<g id="edge11" class="edge">
<title>Node14&#45;&gt;Node13</title>
<path fill="none" stroke="#404040" d="M561.0915,-1399.1725C563.0352,-1386.5568 566.1319,-1371.7553 571,-1359 571.954,-1356.5003 573.0149,-1353.9868 574.1561,-1351.4817"/>
<polygon fill="none" stroke="#404040" points="574.2208,-1351.3523 573.3292,-1344.1965 579.5916,-1340.6213 580.4832,-1347.7771 574.2208,-1351.3523"/>
<text text-anchor="middle" x="589" y="-1367.5" font-family="Helvetica,sans-Serif" font-size="10.00" fill="#000000"> +head</text>
</g>
<!-- Node15 -->
<g id="node13" class="node">
<title>Node15</title>
<polygon fill="none" stroke="#bfbfbf" points="595.5,-1399.5 595.5,-1456.5 640.5,-1456.5 640.5,-1399.5 595.5,-1399.5"/>
<text text-anchor="middle" x="618" y="-1444.5" font-family="Helvetica,sans-Serif" font-size="10.00" fill="#000000">size_t</text>
<polyline fill="none" stroke="#bfbfbf" points="595.5,-1437.5 640.5,-1437.5 "/>
<text text-anchor="middle" x="618" y="-1425.5" font-family="Helvetica,sans-Serif" font-size="10.00" fill="#000000"> </text>
<polyline fill="none" stroke="#bfbfbf" points="595.5,-1418.5 640.5,-1418.5 "/>
<text text-anchor="middle" x="618" y="-1406.5" font-family="Helvetica,sans-Serif" font-size="10.00" fill="#000000"> </text>
</g>
<!-- Node15&#45;&gt;Node13 -->
<g id="edge12" class="edge">
<title>Node15&#45;&gt;Node13</title>
<path fill="none" stroke="#404040" d="M615.307,-1399.4987C614.0202,-1385.8801 612.4382,-1369.1381 610.9461,-1353.3462"/>
<polygon fill="none" stroke="#404040" points="610.9049,-1352.9098 606.3582,-1347.3127 609.776,-1340.963 614.3228,-1346.5601 610.9049,-1352.9098"/>
<text text-anchor="middle" x="649.5" y="-1373" font-family="Helvetica,sans-Serif" font-size="10.00" fill="#000000"> +offsFreeStart</text>
<text text-anchor="middle" x="649.5" y="-1362" font-family="Helvetica,sans-Serif" font-size="10.00" fill="#000000">+size</text>
</g>
<!-- Node16 -->
<g id="node14" class="node">
<title>Node16</title>
<polygon fill="none" stroke="#bfbfbf" points="699.5,-1399.5 699.5,-1456.5 728.5,-1456.5 728.5,-1399.5 699.5,-1399.5"/>
<text text-anchor="middle" x="714" y="-1444.5" font-family="Helvetica,sans-Serif" font-size="10.00" fill="#000000">int</text>
<polyline fill="none" stroke="#bfbfbf" points="699.5,-1437.5 728.5,-1437.5 "/>
<text text-anchor="middle" x="714" y="-1425.5" font-family="Helvetica,sans-Serif" font-size="10.00" fill="#000000"> </text>
<polyline fill="none" stroke="#bfbfbf" points="699.5,-1418.5 728.5,-1418.5 "/>
<text text-anchor="middle" x="714" y="-1406.5" font-family="Helvetica,sans-Serif" font-size="10.00" fill="#000000"> </text>
</g>
<!-- Node16&#45;&gt;Node13 -->
<g id="edge13" class="edge">
<title>Node16&#45;&gt;Node13</title>
<path fill="none" stroke="#404040" d="M708.3125,-1399.1662C704.6741,-1385.9716 698.9109,-1370.7069 690,-1359 686.0419,-1353.8 681.4813,-1348.8947 676.5737,-1344.307"/>
<polygon fill="none" stroke="#404040" points="676.5002,-1344.2435 669.3451,-1343.3469 667.4208,-1336.3972 674.5759,-1337.2939 676.5002,-1344.2435"/>
<text text-anchor="middle" x="739" y="-1367.5" font-family="Helvetica,sans-Serif" font-size="10.00" fill="#000000"> +nFilledBlocks</text>
</g>
<!-- Node17&#45;&gt;Node4 -->
<g id="edge14" class="edge">
<title>Node17&#45;&gt;Node4</title>
<path fill="none" stroke="#ffa500" d="M516.3859,-698.5001C513.3384,-693.229 510.2099,-688.0548 507,-683 491.3312,-658.3259 476.4214,-660.8294 461,-636 458.1011,-631.3325 455.2773,-626.5625 452.5277,-621.7081"/>
<polygon fill="#ffa500" stroke="#ffa500" points="513.4772,-700.4674 521.4384,-707.4581 519.5743,-697.0285 513.4772,-700.4674"/>
<text text-anchor="middle" x="558.5" y="-657" font-family="Helvetica,sans-Serif" font-size="10.00" fill="#000000"> &lt; CTFHeader, 8, uint32_t &gt;</text>
</g>
<!-- Node18 -->
<g id="node16" class="node">
<title>Node18</title>
<polygon fill="none" stroke="#bfbfbf" points="685.5,-1272.5 685.5,-1329.5 714.5,-1329.5 714.5,-1272.5 685.5,-1272.5"/>
<text text-anchor="middle" x="700" y="-1317.5" font-family="Helvetica,sans-Serif" font-size="10.00" fill="#000000">H</text>
<polyline fill="none" stroke="#bfbfbf" points="685.5,-1310.5 714.5,-1310.5 "/>
<text text-anchor="middle" x="700" y="-1298.5" font-family="Helvetica,sans-Serif" font-size="10.00" fill="#000000"> </text>
<polyline fill="none" stroke="#bfbfbf" points="685.5,-1291.5 714.5,-1291.5 "/>
<text text-anchor="middle" x="700" y="-1279.5" font-family="Helvetica,sans-Serif" font-size="10.00" fill="#000000"> </text>
</g>
<!-- Node18&#45;&gt;Node17 -->
<g id="edge16" class="edge">
<title>Node18&#45;&gt;Node17</title>
<path fill="none" stroke="#404040" d="M692.3872,-1272.452C689.0211,-1259.829 684.7129,-1243.6736 679.8224,-1225.3341"/>
<polygon fill="none" stroke="#404040" points="679.7974,-1225.2398 674.3864,-1220.4731 676.7053,-1213.645 682.1163,-1218.4117 679.7974,-1225.2398"/>
<text text-anchor="middle" x="712.5" y="-1235" font-family="Helvetica,sans-Serif" font-size="10.00" fill="#000000"> #mHeader</text>
</g>
<!-- Node19 -->
<g id="node17" class="node">
<title>Node19</title>
<polygon fill="none" stroke="#bfbfbf" points="734.5,-1267 734.5,-1335 851.5,-1335 851.5,-1267 734.5,-1267"/>
<text text-anchor="start" x="742.5" y="-1323" font-family="Helvetica,sans-Serif" font-size="10.00" fill="#000000">array&lt; o2::ctf::Block</text>
<text text-anchor="middle" x="793" y="-1312" font-family="Helvetica,sans-Serif" font-size="10.00" fill="#000000">&lt; W &gt;, N &gt;</text>
<polyline fill="none" stroke="#bfbfbf" points="734.5,-1305 851.5,-1305 "/>
<text text-anchor="middle" x="793" y="-1293" font-family="Helvetica,sans-Serif" font-size="10.00" fill="#000000"> </text>
<polyline fill="none" stroke="#bfbfbf" points="734.5,-1286 851.5,-1286 "/>
<text text-anchor="middle" x="793" y="-1274" font-family="Helvetica,sans-Serif" font-size="10.00" fill="#000000"> </text>
</g>
<!-- Node19&#45;&gt;Node17 -->
<g id="edge17" class="edge">
<title>Node19&#45;&gt;Node17</title>
<path fill="none" stroke="#404040" d="M770.2276,-1266.7785C759.9896,-1250.9472 747.9903,-1231.7531 738,-1214 723.9662,-1189.0614 709.8029,-1162.4341 696.2281,-1136.0275"/>
<polygon fill="none" stroke="#404040" points="696.1185,-1135.8132 689.8246,-1132.2938 690.6526,-1125.1303 696.9465,-1128.6498 696.1185,-1135.8132"/>
<text text-anchor="middle" x="780" y="-1235" font-family="Helvetica,sans-Serif" font-size="10.00" fill="#000000"> #mBlocks</text>
</g>
<!-- Node20 -->
<g id="node18" class="node">
<title>Node20</title>
<polygon fill="none" stroke="#bfbfbf" points="470,-342 470,-399 514,-399 514,-342 470,-342"/>
<text text-anchor="middle" x="492" y="-387" font-family="Helvetica,sans-Serif" font-size="10.00" fill="#000000">static</text>
<polyline fill="none" stroke="#bfbfbf" points="470,-380 514,-380 "/>
<text text-anchor="middle" x="492" y="-368" font-family="Helvetica,sans-Serif" font-size="10.00" fill="#000000"> </text>
<polyline fill="none" stroke="#bfbfbf" points="470,-361 514,-361 "/>
<text text-anchor="middle" x="492" y="-349" font-family="Helvetica,sans-Serif" font-size="10.00" fill="#000000"> </text>
</g>
<!-- Node20&#45;&gt;Node3 -->
<g id="edge20" class="edge">
<title>Node20&#45;&gt;Node3</title>
<path fill="none" stroke="#404040" d="M491.1851,-341.7457C489.2298,-292.5228 482.676,-189.2698 461,-105 457.9175,-93.0161 453.3593,-80.4177 448.6813,-69.0005"/>
<polygon fill="none" stroke="#404040" points="448.5288,-68.6429 442.4951,-64.6939 443.8198,-57.6055 449.8534,-61.5545 448.5288,-68.6429"/>
<text text-anchor="middle" x="465.5" y="-79" font-family="Helvetica,sans-Serif" font-size="10.00" fill="#000000"> +N</text>
</g>
</g>
</svg>
        <g id="navigator" transform="translate(0 0)" fill="#404254">
                <rect fill="#f2f5e9" fill-opacity="0.5" stroke="#606060" stroke-width=".5" x="0" y="0" width="60" height="60"/>
                <use id="zoomplus" xlink:href="#zoomPlus" x="17" y="9" onmousedown="handleZoom(evt,'in')"/>
                <use id="zoomminus" xlink:href="#zoomMin" x="42" y="9" onmousedown="handleZoom(evt,'out')"/>
                <use id="reset" xlink:href="#resetDef" x="30" y="36" onmousedown="handleReset()"/>
                <g id="arrowUp" xlink:href="#dirArrow" transform="translate(30 24)" onmousedown="handlePan(0,-1)">
                  <use xlink:href="#rim" fill="#404040">
                        <set attributeName="fill" to="#808080" begin="arrowUp.mouseover" end="arrowUp.mouseout"/>
                  </use>
                  <path fill="none" stroke="white" stroke-width="1.5" d="M0,-3.0v7 M-2.5,-0.5L0,-3.0L2.5,-0.5"/>
                </g>
                <g id="arrowRight" xlink:href="#dirArrow" transform="rotate(90) translate(36 -43)" onmousedown="handlePan(1,0)">
                  <use xlink:href="#rim" fill="#404040">
                        <set attributeName="fill" to="#808080" begin="arrowRight.mouseover" end="arrowRight.mouseout"/>
                  </use>
                  <path fill="none" stroke="white" stroke-width="1.5" d="M0,-3.0v7 M-2.5,-0.5L0,-3.0L2.5,-0.5"/>
                </g>
                <g id="arrowDown" xlink:href="#dirArrow" transform="rotate(180) translate(-30 -48)" onmousedown="handlePan(0,1)">
                  <use xlink:href="#rim" fill="#404040">
                        <set attributeName="fill" to="#808080" begin="arrowDown.mouseover" end="arrowDown.mouseout"/>
                  </use>
                  <path fill="none" stroke="white" stroke-width="1.5" d="M0,-3.0v7 M-2.5,-0.5L0,-3.0L2.5,-0.5"/>
                </g>
                <g id="arrowLeft" xlink:href="#dirArrow" transform="rotate(270) translate(-36 17)" onmousedown="handlePan(-1,0)">
                  <use xlink:href="#rim" fill="#404040">
                        <set attributeName="fill" to="#808080" begin="arrowLeft.mouseover" end="arrowLeft.mouseout"/>
                  </use>
                  <path fill="none" stroke="white" stroke-width="1.5" d="M0,-3.0v7 M-2.5,-0.5L0,-3.0L2.5,-0.5"/>
                </g>
        </g>
        <svg viewBox="0 0 15 15" width="100%" height="30px" preserveAspectRatio="xMaxYMin meet">
         <g id="arrow_out" transform="scale(0.3 0.3)">
          <a xlink:href="structo2_1_1ft0_1_1CTF__coll__graph_org.svg" target="_base">
           <rect id="button" ry="5" rx="5" y="6" x="6" height="38" width="38"
                fill="#f2f5e9" fill-opacity="0.5" stroke="#606060" stroke-width="1.0"/>
           <path id="arrow"
             d="M 11.500037,31.436501 C 11.940474,20.09759 22.043105,11.32322 32.158766,21.979434 L 37.068811,17.246167 C 37.068811,17.246167 37.088388,32 37.088388,32 L 22.160133,31.978069 C 22.160133,31.978069 26.997745,27.140456 26.997745,27.140456 C 18.528582,18.264221 13.291696,25.230495 11.500037,31.436501 z"
             style="fill:#404040;"/>
          </a>
         </g>
        </svg>
</svg>
