<?xml version="1.0" encoding="UTF-8" standalone="no"?>
<!DOCTYPE svg PUBLIC "-//W3C//DTD SVG 1.1//EN"
 "http://www.w3.org/Graphics/SVG/1.1/DTD/svg11.dtd">
<!-- Generated by graphviz version 2.40.1 (20161225.0304)
 -->
<!-- Title: /home/travis/build/AliceO2Group/AliceO2/Detectors/TOF/reconstruction/include/TOFReconstruction/CTFCoder.h Pages: 1 -->
<svg width="934pt" height="261pt"
 viewBox="0.00 0.00 934.00 261.00" xmlns="http://www.w3.org/2000/svg" xmlns:xlink="http://www.w3.org/1999/xlink">
<g id="graph0" class="graph" transform="scale(1 1) rotate(0) translate(4 257)">
<title>/home/travis/build/AliceO2Group/AliceO2/Detectors/TOF/reconstruction/include/TOFReconstruction/CTFCoder.h</title>
<!-- Node81 -->
<g id="node1" class="node">
<title>Node81</title>
<polygon fill="#bfbfbf" stroke="#000000" points="215,-189.5 215,-252.5 376,-252.5 376,-189.5 215,-189.5"/>
<text text-anchor="start" x="223" y="-240.5" font-family="Helvetica,sans-Serif" font-size="10.00" fill="#000000">/home/travis/build</text>
<text text-anchor="start" x="223" y="-229.5" font-family="Helvetica,sans-Serif" font-size="10.00" fill="#000000">/AliceO2Group/AliceO2</text>
<text text-anchor="start" x="223" y="-218.5" font-family="Helvetica,sans-Serif" font-size="10.00" fill="#000000">/Detectors/TOF/reconstruction</text>
<text text-anchor="start" x="223" y="-207.5" font-family="Helvetica,sans-Serif" font-size="10.00" fill="#000000">/include/TOFReconstruction</text>
<text text-anchor="middle" x="295.5" y="-196.5" font-family="Helvetica,sans-Serif" font-size="10.00" fill="#000000">/CTFCoder.h</text>
</g>
<!-- Node82 -->
<g id="node2" class="node">
<title>Node82</title>
<g id="a_node2"><a xlink:href="../../d7/de7/TOF_2reconstruction_2src_2CTFCoder_8cxx.html" target="_top" xlink:title="/home/travis/build\l/AliceO2Group/AliceO2\l/Detectors/TOF/reconstruction\l/src/CTFCoder.cxx">
<polygon fill="none" stroke="#000000" points="15,-95 15,-147 176,-147 176,-95 15,-95"/>
<text text-anchor="start" x="23" y="-135" font-family="Helvetica,sans-Serif" font-size="10.00" fill="#000000">/home/travis/build</text>
<text text-anchor="start" x="23" y="-124" font-family="Helvetica,sans-Serif" font-size="10.00" fill="#000000">/AliceO2Group/AliceO2</text>
<text text-anchor="start" x="23" y="-113" font-family="Helvetica,sans-Serif" font-size="10.00" fill="#000000">/Detectors/TOF/reconstruction</text>
<text text-anchor="middle" x="95.5" y="-102" font-family="Helvetica,sans-Serif" font-size="10.00" fill="#000000">/src/CTFCoder.cxx</text>
</a>
</g>
</g>
<!-- Node81&#45;&gt;Node82 -->
<g id="edge1" class="edge">
<title>Node81&#45;&gt;Node82</title>
<path fill="none" stroke="#191970" d="M223.4113,-184.9557C198.4147,-172.4573 170.8887,-158.6944 147.7956,-147.1478"/>
<polygon fill="#191970" stroke="#191970" points="221.9837,-188.1549 232.4933,-189.4966 225.1142,-181.8939 221.9837,-188.1549"/>
</g>
<!-- Node83 -->
<g id="node3" class="node">
<title>Node83</title>
<g id="a_node3"><a xlink:href="../../d2/d19/TOF_2workflow_2include_2TOFWorkflow_2EntropyDecoderSpec_8h.html" target="_top" xlink:title="/home/travis/build\l/AliceO2Group/AliceO2\l/Detectors/TOF/workflow\l/include/TOFWorkflow/EntropyDecoder\lSpec.h">
<polygon fill="none" stroke="#000000" points="194,-89.5 194,-152.5 397,-152.5 397,-89.5 194,-89.5"/>
<text text-anchor="start" x="202" y="-140.5" font-family="Helvetica,sans-Serif" font-size="10.00" fill="#000000">/home/travis/build</text>
<text text-anchor="start" x="202" y="-129.5" font-family="Helvetica,sans-Serif" font-size="10.00" fill="#000000">/AliceO2Group/AliceO2</text>
<text text-anchor="start" x="202" y="-118.5" font-family="Helvetica,sans-Serif" font-size="10.00" fill="#000000">/Detectors/TOF/workflow</text>
<text text-anchor="start" x="202" y="-107.5" font-family="Helvetica,sans-Serif" font-size="10.00" fill="#000000">/include/TOFWorkflow/EntropyDecoder</text>
<text text-anchor="middle" x="295.5" y="-96.5" font-family="Helvetica,sans-Serif" font-size="10.00" fill="#000000">Spec.h</text>
</a>
</g>
</g>
<!-- Node81&#45;&gt;Node83 -->
<g id="edge2" class="edge">
<title>Node81&#45;&gt;Node83</title>
<path fill="none" stroke="#191970" d="M295.5,-179.2111C295.5,-170.37 295.5,-161.1767 295.5,-152.778"/>
<polygon fill="#191970" stroke="#191970" points="292.0001,-179.3593 295.5,-189.3594 299.0001,-179.3594 292.0001,-179.3593"/>
</g>
<!-- Node87 -->
<g id="node7" class="node">
<title>Node87</title>
<g id="a_node7"><a xlink:href="../../db/d30/TOF_2workflow_2include_2TOFWorkflow_2EntropyEncoderSpec_8h.html" target="_top" xlink:title="/home/travis/build\l/AliceO2Group/AliceO2\l/Detectors/TOF/workflow\l/include/TOFWorkflow/EntropyEncoder\lSpec.h">
<polygon fill="none" stroke="#000000" points="510,-89.5 510,-152.5 711,-152.5 711,-89.5 510,-89.5"/>
<text text-anchor="start" x="518" y="-140.5" font-family="Helvetica,sans-Serif" font-size="10.00" fill="#000000">/home/travis/build</text>
<text text-anchor="start" x="518" y="-129.5" font-family="Helvetica,sans-Serif" font-size="10.00" fill="#000000">/AliceO2Group/AliceO2</text>
<text text-anchor="start" x="518" y="-118.5" font-family="Helvetica,sans-Serif" font-size="10.00" fill="#000000">/Detectors/TOF/workflow</text>
<text text-anchor="start" x="518" y="-107.5" font-family="Helvetica,sans-Serif" font-size="10.00" fill="#000000">/include/TOFWorkflow/EntropyEncoder</text>
<text text-anchor="middle" x="610.5" y="-96.5" font-family="Helvetica,sans-Serif" font-size="10.00" fill="#000000">Spec.h</text>
</a>
</g>
</g>
<!-- Node81&#45;&gt;Node87 -->
<g id="edge6" class="edge">
<title>Node81&#45;&gt;Node87</title>
<path fill="none" stroke="#191970" d="M386.0068,-192.2677C425.1409,-179.8441 471.0571,-165.2676 511.1323,-152.5453"/>
<polygon fill="#191970" stroke="#191970" points="384.6835,-189.0156 376.2113,-195.3774 386.8016,-195.6874 384.6835,-189.0156"/>
</g>
<!-- Node84 -->
<g id="node4" class="node">
<title>Node84</title>
<g id="a_node4"><a xlink:href="../../dc/d55/ctf-reader-workflow_8cxx.html" target="_top" xlink:title="/home/travis/build\l/AliceO2Group/AliceO2\l/Detectors/CTF/workflow\l/src/ctf&#45;reader&#45;workflow.cxx">
<polygon fill="none" stroke="#000000" points="0,-.5 0,-52.5 151,-52.5 151,-.5 0,-.5"/>
<text text-anchor="start" x="8" y="-40.5" font-family="Helvetica,sans-Serif" font-size="10.00" fill="#000000">/home/travis/build</text>
<text text-anchor="start" x="8" y="-29.5" font-family="Helvetica,sans-Serif" font-size="10.00" fill="#000000">/AliceO2Group/AliceO2</text>
<text text-anchor="start" x="8" y="-18.5" font-family="Helvetica,sans-Serif" font-size="10.00" fill="#000000">/Detectors/CTF/workflow</text>
<text text-anchor="middle" x="75.5" y="-7.5" font-family="Helvetica,sans-Serif" font-size="10.00" fill="#000000">/src/ctf&#45;reader&#45;workflow.cxx</text>
</a>
</g>
</g>
<!-- Node83&#45;&gt;Node84 -->
<g id="edge3" class="edge">
<title>Node83&#45;&gt;Node84</title>
<path fill="none" stroke="#191970" d="M212.682,-85.4259C187.2773,-74.5134 159.8089,-62.7145 136.1727,-52.5617"/>
<polygon fill="#191970" stroke="#191970" points="211.3677,-88.6705 221.9373,-89.4015 214.1305,-82.2388 211.3677,-88.6705"/>
</g>
<!-- Node85 -->
<g id="node5" class="node">
<title>Node85</title>
<g id="a_node5"><a xlink:href="../../da/dfd/tof-reco-workflow_8cxx.html" target="_top" xlink:title="Basic DPL workflow for TOF reconstruction starting from digits. ">
<polygon fill="none" stroke="#000000" points="345,-.5 345,-52.5 548,-52.5 548,-.5 345,-.5"/>
<text text-anchor="start" x="353" y="-40.5" font-family="Helvetica,sans-Serif" font-size="10.00" fill="#000000">/home/travis/build</text>
<text text-anchor="start" x="353" y="-29.5" font-family="Helvetica,sans-Serif" font-size="10.00" fill="#000000">/AliceO2Group/AliceO2</text>
<text text-anchor="start" x="353" y="-18.5" font-family="Helvetica,sans-Serif" font-size="10.00" fill="#000000">/Detectors/GlobalTrackingWorkflow</text>
<text text-anchor="middle" x="446.5" y="-7.5" font-family="Helvetica,sans-Serif" font-size="10.00" fill="#000000">/tofworkflow/src/tof&#45;reco&#45;workflow.cxx</text>
</a>
</g>
</g>
<!-- Node83&#45;&gt;Node85 -->
<g id="edge4" class="edge">
<title>Node83&#45;&gt;Node85</title>
<path fill="none" stroke="#191970" d="M354.8087,-83.883C371.4975,-73.4387 389.2939,-62.3012 404.7247,-52.6442"/>
<polygon fill="#191970" stroke="#191970" points="352.8209,-80.998 346.2009,-89.27 356.5345,-86.9318 352.8209,-80.998"/>
</g>
<!-- Node86 -->
<g id="node6" class="node">
<title>Node86</title>
<g id="a_node6"><a xlink:href="../../d8/dc2/TOF_2workflow_2src_2EntropyDecoderSpec_8cxx.html" target="_top" xlink:title="/home/travis/build\l/AliceO2Group/AliceO2\l/Detectors/TOF/workflow\l/src/EntropyDecoderSpec.cxx">
<polygon fill="none" stroke="#000000" points="169.5,-.5 169.5,-52.5 327.5,-52.5 327.5,-.5 169.5,-.5"/>
<text text-anchor="start" x="177.5" y="-40.5" font-family="Helvetica,sans-Serif" font-size="10.00" fill="#000000">/home/travis/build</text>
<text text-anchor="start" x="177.5" y="-29.5" font-family="Helvetica,sans-Serif" font-size="10.00" fill="#000000">/AliceO2Group/AliceO2</text>
<text text-anchor="start" x="177.5" y="-18.5" font-family="Helvetica,sans-Serif" font-size="10.00" fill="#000000">/Detectors/TOF/workflow</text>
<text text-anchor="middle" x="248.5" y="-7.5" font-family="Helvetica,sans-Serif" font-size="10.00" fill="#000000">/src/EntropyDecoderSpec.cxx</text>
</a>
</g>
</g>
<!-- Node83&#45;&gt;Node86 -->
<g id="edge5" class="edge">
<title>Node83&#45;&gt;Node86</title>
<path fill="none" stroke="#191970" d="M275.1682,-80.1201C270.5343,-70.8031 265.733,-61.1494 261.5029,-52.6442"/>
<polygon fill="#191970" stroke="#191970" points="272.1319,-81.8749 279.7189,-89.27 278.3995,-78.7576 272.1319,-81.8749"/>
</g>
<!-- Node87&#45;&gt;Node85 -->
<g id="edge7" class="edge">
<title>Node87&#45;&gt;Node85</title>
<path fill="none" stroke="#191970" d="M546.5838,-84.1703C528.3145,-73.6431 508.7849,-62.3898 491.8719,-52.6442"/>
<polygon fill="#191970" stroke="#191970" points="545.0222,-87.3099 555.4341,-89.27 548.5171,-81.2447 545.0222,-87.3099"/>
</g>
<!-- Node88 -->
<g id="node8" class="node">
<title>Node88</title>
<g id="a_node8"><a xlink:href="../../d5/db8/TOF_2workflow_2src_2entropy-encoder-workflow_8cxx.html" target="_top" xlink:title="/home/travis/build\l/AliceO2Group/AliceO2\l/Detectors/TOF/workflow\l/src/entropy&#45;encoder&#45;workflow.cxx">
<polygon fill="none" stroke="#000000" points="566.5,-.5 566.5,-52.5 750.5,-52.5 750.5,-.5 566.5,-.5"/>
<text text-anchor="start" x="574.5" y="-40.5" font-family="Helvetica,sans-Serif" font-size="10.00" fill="#000000">/home/travis/build</text>
<text text-anchor="start" x="574.5" y="-29.5" font-family="Helvetica,sans-Serif" font-size="10.00" fill="#000000">/AliceO2Group/AliceO2</text>
<text text-anchor="start" x="574.5" y="-18.5" font-family="Helvetica,sans-Serif" font-size="10.00" fill="#000000">/Detectors/TOF/workflow</text>
<text text-anchor="middle" x="658.5" y="-7.5" font-family="Helvetica,sans-Serif" font-size="10.00" fill="#000000">/src/entropy&#45;encoder&#45;workflow.cxx</text>
</a>
</g>
</g>
<!-- Node87&#45;&gt;Node88 -->
<g id="edge8" class="edge">
<title>Node87&#45;&gt;Node88</title>
<path fill="none" stroke="#191970" d="M631.2644,-80.1201C635.9969,-70.8031 640.9003,-61.1494 645.2204,-52.6442"/>
<polygon fill="#191970" stroke="#191970" points="628.025,-78.7691 626.6168,-89.27 634.2661,-81.9392 628.025,-78.7691"/>
</g>
<!-- Node89 -->
<g id="node9" class="node">
<title>Node89</title>
<g id="a_node9"><a xlink:href="../../df/d4e/TOF_2workflow_2src_2EntropyEncoderSpec_8cxx.html" target="_top" xlink:title="/home/travis/build\l/AliceO2Group/AliceO2\l/Detectors/TOF/workflow\l/src/EntropyEncoderSpec.cxx">
<polygon fill="none" stroke="#000000" points="769,-.5 769,-52.5 926,-52.5 926,-.5 769,-.5"/>
<text text-anchor="start" x="777" y="-40.5" font-family="Helvetica,sans-Serif" font-size="10.00" fill="#000000">/home/travis/build</text>
<text text-anchor="start" x="777" y="-29.5" font-family="Helvetica,sans-Serif" font-size="10.00" fill="#000000">/AliceO2Group/AliceO2</text>
<text text-anchor="start" x="777" y="-18.5" font-family="Helvetica,sans-Serif" font-size="10.00" fill="#000000">/Detectors/TOF/workflow</text>
<text text-anchor="middle" x="847.5" y="-7.5" font-family="Helvetica,sans-Serif" font-size="10.00" fill="#000000">/src/EntropyEncoderSpec.cxx</text>
</a>
</g>
</g>
<!-- Node87&#45;&gt;Node89 -->
<g id="edge9" class="edge">
<title>Node87&#45;&gt;Node89</title>
<path fill="none" stroke="#191970" d="M699.3576,-85.5694C726.8258,-74.6169 756.5646,-62.759 782.1389,-52.5617"/>
<polygon fill="#191970" stroke="#191970" points="697.7396,-82.4466 689.7471,-89.4015 700.3322,-88.9487 697.7396,-82.4466"/>
</g>
</g>
</svg>
