<?xml version="1.0" encoding="UTF-8" standalone="no"?>
<!DOCTYPE svg PUBLIC "-//W3C//DTD SVG 1.1//EN"
 "http://www.w3.org/Graphics/SVG/1.1/DTD/svg11.dtd">
<!-- Generated by graphviz version 2.40.1 (20161225.0304)
 -->
<!-- Title: GPUCA_NAMESPACE::gpu::GPUTPCCompressionGatherKernels::GPUSharedMemory Pages: 1 -->
<svg width="687pt" height="419pt"
 viewBox="0.00 0.00 687.00 419.00" xmlns="http://www.w3.org/2000/svg" xmlns:xlink="http://www.w3.org/1999/xlink">
<g id="graph0" class="graph" transform="scale(1 1) rotate(0) translate(4 415)">
<title>GPUCA_NAMESPACE::gpu::GPUTPCCompressionGatherKernels::GPUSharedMemory</title>
<!-- Node3 -->
<g id="node1" class="node">
<title>Node3</title>
<polygon fill="#bfbfbf" stroke="#000000" points="367,-.5 367,-79.5 562,-79.5 562,-.5 367,-.5"/>
<text text-anchor="start" x="375" y="-67.5" font-family="Helvetica,sans-Serif" font-size="10.00" fill="#000000">GPUCA_NAMESPACE::gpu</text>
<text text-anchor="start" x="375" y="-56.5" font-family="Helvetica,sans-Serif" font-size="10.00" fill="#000000">::GPUTPCCompressionGatherKernels</text>
<text text-anchor="middle" x="464.5" y="-45.5" font-family="Helvetica,sans-Serif" font-size="10.00" fill="#000000">::GPUSharedMemory</text>
<polyline fill="none" stroke="#000000" points="367,-38.5 562,-38.5 "/>
<text text-anchor="middle" x="464.5" y="-26.5" font-family="Helvetica,sans-Serif" font-size="10.00" fill="#000000"> </text>
<polyline fill="none" stroke="#000000" points="367,-19.5 562,-19.5 "/>
<text text-anchor="start" x="375" y="-7.5" font-family="Helvetica,sans-Serif" font-size="10.00" fill="#000000">+ GPUdi()</text>
</g>
<!-- Node4 -->
<g id="node2" class="node">
<title>Node4</title>
<g id="a_node2"><a xlink:href="../../dd/deb/structGPUCA__NAMESPACE_1_1gpu_1_1GPUKernelTemplate_1_1GPUSharedMemoryScan64.html" target="_top" xlink:title="{GPUCA_NAMESPACE::gpu\l::GPUKernelTemplate::\lGPUSharedMemoryScan64\l\&lt; unsigned int, GPUCA_GET\l_THREAD_COUNT(GPUCA_LB_COMPRESSION\l_GATHER)\&gt;\n||}">
<polygon fill="none" stroke="#000000" points="0,-127.5 0,-239.5 235,-239.5 235,-127.5 0,-127.5"/>
<text text-anchor="start" x="8" y="-227.5" font-family="Helvetica,sans-Serif" font-size="10.00" fill="#000000">GPUCA_NAMESPACE::gpu</text>
<text text-anchor="start" x="8" y="-216.5" font-family="Helvetica,sans-Serif" font-size="10.00" fill="#000000">::GPUKernelTemplate::</text>
<text text-anchor="start" x="8" y="-205.5" font-family="Helvetica,sans-Serif" font-size="10.00" fill="#000000">GPUSharedMemoryScan64</text>
<text text-anchor="start" x="8" y="-194.5" font-family="Helvetica,sans-Serif" font-size="10.00" fill="#000000">&lt; unsigned int, GPUCA_GET</text>
<text text-anchor="start" x="8" y="-183.5" font-family="Helvetica,sans-Serif" font-size="10.00" fill="#000000">_THREAD_COUNT(GPUCA_LB_COMPRESSION</text>
<text text-anchor="middle" x="117.5" y="-172.5" font-family="Helvetica,sans-Serif" font-size="10.00" fill="#000000">_GATHER)&gt;</text>
<polyline fill="none" stroke="#000000" points="0,-165.5 235,-165.5 "/>
<text text-anchor="middle" x="117.5" y="-153.5" font-family="Helvetica,sans-Serif" font-size="10.00" fill="#000000"> </text>
<polyline fill="none" stroke="#000000" points="0,-146.5 235,-146.5 "/>
<text text-anchor="middle" x="117.5" y="-134.5" font-family="Helvetica,sans-Serif" font-size="10.00" fill="#000000"> </text>
</a>
</g>
</g>
<!-- Node4&#45;&gt;Node3 -->
<g id="edge1" class="edge">
<title>Node4&#45;&gt;Node3</title>
<path fill="none" stroke="#191970" d="M244.4535,-126.631C289.3187,-107.8527 330.6639,-91.4184 366.7387,-77.3583"/>
<polygon fill="none" stroke="#191970" points="242.9962,-123.4468 235.1312,-130.5455 245.7064,-129.9009 242.9962,-123.4468"/>
</g>
<!-- Node5 -->
<g id="node3" class="node">
<title>Node5</title>
<g id="a_node3"><a xlink:href="../../dd/deb/structGPUCA__NAMESPACE_1_1gpu_1_1GPUKernelTemplate_1_1GPUSharedMemoryScan64.html" target="_top" xlink:title="{GPUCA_NAMESPACE::gpu\l::GPUKernelTemplate::\lGPUSharedMemoryScan64\l\&lt; T, I \&gt;\n||}">
<polygon fill="none" stroke="#000000" points="44.5,-320.5 44.5,-410.5 190.5,-410.5 190.5,-320.5 44.5,-320.5"/>
<text text-anchor="start" x="52.5" y="-398.5" font-family="Helvetica,sans-Serif" font-size="10.00" fill="#000000">GPUCA_NAMESPACE::gpu</text>
<text text-anchor="start" x="52.5" y="-387.5" font-family="Helvetica,sans-Serif" font-size="10.00" fill="#000000">::GPUKernelTemplate::</text>
<text text-anchor="start" x="52.5" y="-376.5" font-family="Helvetica,sans-Serif" font-size="10.00" fill="#000000">GPUSharedMemoryScan64</text>
<text text-anchor="middle" x="117.5" y="-365.5" font-family="Helvetica,sans-Serif" font-size="10.00" fill="#000000">&lt; T, I &gt;</text>
<polyline fill="none" stroke="#000000" points="44.5,-358.5 190.5,-358.5 "/>
<text text-anchor="middle" x="117.5" y="-346.5" font-family="Helvetica,sans-Serif" font-size="10.00" fill="#000000"> </text>
<polyline fill="none" stroke="#000000" points="44.5,-339.5 190.5,-339.5 "/>
<text text-anchor="middle" x="117.5" y="-327.5" font-family="Helvetica,sans-Serif" font-size="10.00" fill="#000000"> </text>
</a>
</g>
</g>
<!-- Node5&#45;&gt;Node4 -->
<g id="edge2" class="edge">
<title>Node5&#45;&gt;Node4</title>
<path fill="none" stroke="#ffa500" d="M117.5,-309.7658C117.5,-287.5543 117.5,-262.0266 117.5,-239.7628"/>
<polygon fill="#ffa500" stroke="#ffa500" points="114.0001,-310.0432 117.5,-320.0432 121.0001,-310.0432 114.0001,-310.0432"/>
<text text-anchor="start" x="117.5" y="-288.5" font-family="Helvetica,sans-Serif" font-size="10.00" fill="#000000"> &lt; unsigned int, GPUCA</text>
<text text-anchor="start" x="117.5" y="-277.5" font-family="Helvetica,sans-Serif" font-size="10.00" fill="#000000">_GET_THREAD_COUNT(GPUCA</text>
<text text-anchor="middle" x="193" y="-266.5" font-family="Helvetica,sans-Serif" font-size="10.00" fill="#000000">_LB_COMPRESSION_GATHER)&gt;</text>
</g>
<!-- Node6 -->
<g id="node4" class="node">
<title>Node6</title>
<polygon fill="none" stroke="#bfbfbf" points="253,-155 253,-212 390,-212 390,-155 253,-155"/>
<text text-anchor="middle" x="321.5" y="-200" font-family="Helvetica,sans-Serif" font-size="10.00" fill="#000000">anonymous:+unbuffered</text>
<polyline fill="none" stroke="#bfbfbf" points="253,-193 390,-193 "/>
<text text-anchor="middle" x="321.5" y="-181" font-family="Helvetica,sans-Serif" font-size="10.00" fill="#000000"> </text>
<polyline fill="none" stroke="#bfbfbf" points="253,-174 390,-174 "/>
<text text-anchor="middle" x="321.5" y="-162" font-family="Helvetica,sans-Serif" font-size="10.00" fill="#000000"> </text>
</g>
<!-- Node6&#45;&gt;Node3 -->
<g id="edge3" class="edge">
<title>Node6&#45;&gt;Node3</title>
<path fill="none" stroke="#404040" d="M344.8391,-154.851C359.1689,-137.7909 378.2239,-116.0244 396.5,-98 399.8834,-94.6632 403.4304,-91.2948 407.0535,-87.95"/>
<polygon fill="none" stroke="#404040" points="407.2626,-87.761 409.0328,-80.7705 416.1664,-79.7159 414.3962,-86.7064 407.2626,-87.761"/>
<text text-anchor="middle" x="428.5" y="-101" font-family="Helvetica,sans-Serif" font-size="10.00" fill="#000000"> +unbuffered</text>
</g>
<!-- Node7 -->
<g id="node5" class="node">
<title>Node7</title>
<polygon fill="none" stroke="#bfbfbf" points="408,-155 408,-212 521,-212 521,-155 408,-155"/>
<text text-anchor="middle" x="464.5" y="-200" font-family="Helvetica,sans-Serif" font-size="10.00" fill="#000000">anonymous:+@243</text>
<polyline fill="none" stroke="#bfbfbf" points="408,-193 521,-193 "/>
<text text-anchor="middle" x="464.5" y="-181" font-family="Helvetica,sans-Serif" font-size="10.00" fill="#000000"> </text>
<polyline fill="none" stroke="#bfbfbf" points="408,-174 521,-174 "/>
<text text-anchor="middle" x="464.5" y="-162" font-family="Helvetica,sans-Serif" font-size="10.00" fill="#000000"> </text>
</g>
<!-- Node7&#45;&gt;Node3 -->
<g id="edge4" class="edge">
<title>Node7&#45;&gt;Node3</title>
<path fill="none" stroke="#404040" d="M464.5,-154.8055C464.5,-136.7553 464.5,-112.9361 464.5,-91.6746"/>
<polygon fill="none" stroke="#404040" points="464.5001,-91.5146 460.5,-85.5147 464.5,-79.5146 468.5,-85.5146 464.5001,-91.5146"/>
<text text-anchor="middle" x="484.5" y="-101" font-family="Helvetica,sans-Serif" font-size="10.00" fill="#000000"> +@243</text>
</g>
<!-- Node8 -->
<g id="node6" class="node">
<title>Node8</title>
<g id="a_node6"><a xlink:href="../../da/d09/structuint4.html" target="_top" xlink:title="{uint4\n||}">
<polygon fill="none" stroke="#000000" points="638,-155 638,-212 679,-212 679,-155 638,-155"/>
<text text-anchor="middle" x="658.5" y="-200" font-family="Helvetica,sans-Serif" font-size="10.00" fill="#000000">uint4</text>
<polyline fill="none" stroke="#000000" points="638,-193 679,-193 "/>
<text text-anchor="middle" x="658.5" y="-181" font-family="Helvetica,sans-Serif" font-size="10.00" fill="#000000"> </text>
<polyline fill="none" stroke="#000000" points="638,-174 679,-174 "/>
<text text-anchor="middle" x="658.5" y="-162" font-family="Helvetica,sans-Serif" font-size="10.00" fill="#000000"> </text>
</a>
</g>
</g>
<!-- Node8&#45;&gt;Node3 -->
<g id="edge5" class="edge">
<title>Node8&#45;&gt;Node3</title>
<path fill="none" stroke="#404040" d="M644.4753,-154.7163C638.8664,-145.1273 631.7606,-134.89 623.5,-127 606.9327,-111.176 586.928,-97.3156 566.7811,-85.582"/>
<polygon fill="none" stroke="#404040" points="566.7016,-85.5372 559.5104,-86.0728 556.2501,-79.6408 563.4413,-79.1051 566.7016,-85.5372"/>
<text text-anchor="middle" x="624.5" y="-101" font-family="Helvetica,sans-Serif" font-size="10.00" fill="#000000"> +buf128</text>
</g>
<!-- Node9 -->
<g id="node7" class="node">
<title>Node9</title>
<polygon fill="none" stroke="#bfbfbf" points="560,-337 560,-394 621,-394 621,-337 560,-337"/>
<text text-anchor="middle" x="590.5" y="-382" font-family="Helvetica,sans-Serif" font-size="10.00" fill="#000000">unsigned</text>
<polyline fill="none" stroke="#bfbfbf" points="560,-375 621,-375 "/>
<text text-anchor="middle" x="590.5" y="-363" font-family="Helvetica,sans-Serif" font-size="10.00" fill="#000000"> </text>
<polyline fill="none" stroke="#bfbfbf" points="560,-356 621,-356 "/>
<text text-anchor="middle" x="590.5" y="-344" font-family="Helvetica,sans-Serif" font-size="10.00" fill="#000000"> </text>
</g>
<!-- Node9&#45;&gt;Node3 -->
<g id="edge7" class="edge">
<title>Node9&#45;&gt;Node3</title>
<path fill="none" stroke="#404040" d="M584.597,-336.9131C573.0582,-282.146 547.1045,-164.5334 529.5,-127 523.4934,-114.1936 515.4249,-101.4214 507.0189,-89.7632"/>
<polygon fill="none" stroke="#404040" points="506.7773,-89.4402 499.98,-87.0324 499.5882,-79.832 506.3855,-82.2397 506.7773,-89.4402"/>
<text text-anchor="middle" x="594.5" y="-203" font-family="Helvetica,sans-Serif" font-size="10.00" fill="#000000"> +sizes</text>
<text text-anchor="middle" x="594.5" y="-192" font-family="Helvetica,sans-Serif" font-size="10.00" fill="#000000">+buf64</text>
<text text-anchor="middle" x="594.5" y="-181" font-family="Helvetica,sans-Serif" font-size="10.00" fill="#000000">+buf32</text>
<text text-anchor="middle" x="594.5" y="-170" font-family="Helvetica,sans-Serif" font-size="10.00" fill="#000000">+srcOffsets</text>
<text text-anchor="middle" x="594.5" y="-159" font-family="Helvetica,sans-Serif" font-size="10.00" fill="#000000">+warpOffset</text>
</g>
<!-- Node9&#45;&gt;Node8 -->
<g id="edge6" class="edge">
<title>Node9&#45;&gt;Node8</title>
<path fill="none" stroke="#404040" d="M601.2748,-336.6616C612.6647,-306.1768 630.7156,-257.864 643.4949,-223.6608"/>
<polygon fill="none" stroke="#404040" points="643.5756,-223.4445 641.9286,-216.424 647.7756,-212.2035 649.4226,-219.224 643.5756,-223.4445"/>
<text text-anchor="middle" x="641.5" y="-294" font-family="Helvetica,sans-Serif" font-size="10.00" fill="#000000"> +w</text>
<text text-anchor="middle" x="641.5" y="-283" font-family="Helvetica,sans-Serif" font-size="10.00" fill="#000000">+x</text>
<text text-anchor="middle" x="641.5" y="-272" font-family="Helvetica,sans-Serif" font-size="10.00" fill="#000000">+y</text>
<text text-anchor="middle" x="641.5" y="-261" font-family="Helvetica,sans-Serif" font-size="10.00" fill="#000000">+z</text>
</g>
</g>
</svg>
