<?xml version="1.0" encoding="UTF-8" standalone="no"?>
<!DOCTYPE svg PUBLIC "-//W3C//DTD SVG 1.1//EN"
 "http://www.w3.org/Graphics/SVG/1.1/DTD/svg11.dtd">
<!-- Generated by graphviz version 2.40.1 (20161225.0304)
 -->
<!-- Title: /home/travis/build/AliceO2Group/AliceO2/Analysis/DataModel/include/Analysis/Centrality.h Pages: 1 -->
<!--zoomable 239 -->
<svg id="main" version="1.1" xmlns="http://www.w3.org/2000/svg" xmlns:xlink="http://www.w3.org/1999/xlink" xml:space="preserve" onload="init(evt)">
<style type="text/css"><![CDATA[
.edge:hover path { stroke: red; }
.edge:hover polygon { stroke: red; fill: red; }
]]></style>
<script type="text/javascript"><![CDATA[
var edges = document.getElementsByTagName('g');
if (edges && edges.length) {
  for (var i=0;i<edges.length;i++) {
    if (edges[i].id.substr(0,4)=='edge') {
      edges[i].setAttribute('class','edge');
    }
  }
}
]]></script>
        <defs>
                <circle id="rim" cx="0" cy="0" r="7"/>
                <circle id="rim2" cx="0" cy="0" r="3.5"/>
                <g id="zoomPlus">
                        <use xlink:href="#rim" fill="#404040">
                                <set attributeName="fill" to="#808080" begin="zoomplus.mouseover" end="zoomplus.mouseout"/>
                        </use>
                        <path d="M-4,0h8M0,-4v8" fill="none" stroke="white" stroke-width="1.5" pointer-events="none"/>
                </g>
                <g id="zoomMin">
                        <use xlink:href="#rim" fill="#404040">
                                <set attributeName="fill" to="#808080" begin="zoomminus.mouseover" end="zoomminus.mouseout"/>
                        </use>
                        <path d="M-4,0h8" fill="none" stroke="white" stroke-width="1.5" pointer-events="none"/>
                </g>
                <g id="dirArrow">
                        <path fill="none" stroke="white" stroke-width="1.5" d="M0,-3.0v7 M-2.5,-0.5L0,-3.0L2.5,-0.5"/>
                </g>
               <g id="resetDef">
                       <use xlink:href="#rim2" fill="#404040">
                               <set attributeName="fill" to="#808080" begin="reset.mouseover" end="reset.mouseout"/>
                       </use>
               </g>
        </defs>

<script type="text/javascript">
var viewWidth = 1481;
var viewHeight = 239;
var sectionId = 'dynsection-1';
</script>
<script xlink:href="../../svgpan.js"/>
<svg id="graph" class="graph">
<g id="viewport">
<title>/home/travis/build/AliceO2Group/AliceO2/Analysis/DataModel/include/Analysis/Centrality.h</title>
<!-- Node44 -->
<g id="node1" class="node">
<title>Node44</title>
<polygon fill="#bfbfbf" stroke="#000000" points="635.5,-178.5 635.5,-230.5 790.5,-230.5 790.5,-178.5 635.5,-178.5"/>
<text text-anchor="start" x="643.5" y="-218.5" font-family="Helvetica,sans-Serif" font-size="10.00" fill="#000000">/home/travis/build</text>
<text text-anchor="start" x="643.5" y="-207.5" font-family="Helvetica,sans-Serif" font-size="10.00" fill="#000000">/AliceO2Group/AliceO2</text>
<text text-anchor="start" x="643.5" y="-196.5" font-family="Helvetica,sans-Serif" font-size="10.00" fill="#000000">/Analysis/DataModel/include</text>
<text text-anchor="middle" x="713" y="-185.5" font-family="Helvetica,sans-Serif" font-size="10.00" fill="#000000">/Analysis/Centrality.h</text>
</g>
<!-- Node45 -->
<g id="node2" class="node">
<title>Node45</title>
<g id="a_node2"><a xlink:href="../../d4/dbd/ReducedInfoTables_8h.html" target="_top" xlink:title="/home/travis/build\l/AliceO2Group/AliceO2\l/Analysis/DataModel/include\l/Analysis/ReducedInfoTables.h">
<polygon fill="none" stroke="#000000" points="94,-89.5 94,-141.5 258,-141.5 258,-89.5 94,-89.5"/>
<text text-anchor="start" x="102" y="-129.5" font-family="Helvetica,sans-Serif" font-size="10.00" fill="#000000">/home/travis/build</text>
<text text-anchor="start" x="102" y="-118.5" font-family="Helvetica,sans-Serif" font-size="10.00" fill="#000000">/AliceO2Group/AliceO2</text>
<text text-anchor="start" x="102" y="-107.5" font-family="Helvetica,sans-Serif" font-size="10.00" fill="#000000">/Analysis/DataModel/include</text>
<text text-anchor="middle" x="176" y="-96.5" font-family="Helvetica,sans-Serif" font-size="10.00" fill="#000000">/Analysis/ReducedInfoTables.h</text>
</a>
</g>
</g>
<!-- Node44&#45;&gt;Node45 -->
<g id="edge1" class="edge">
<title>Node44&#45;&gt;Node45</title>
<path fill="none" stroke="#191970" d="M625.2497,-195.9822C534.831,-186.3245 390.1148,-168.4084 267,-142 264.104,-141.3788 261.1654,-140.7139 258.2044,-140.0146"/>
<polygon fill="#191970" stroke="#191970" points="625.1448,-199.4906 635.4575,-197.062 625.8812,-192.5294 625.1448,-199.4906"/>
</g>
<!-- Node46 -->
<g id="node3" class="node">
<title>Node46</title>
<g id="a_node3"><a xlink:href="../../d9/d14/tableMaker_8cxx.html" target="_top" xlink:title="/home/travis/build\l/AliceO2Group/AliceO2\l/Analysis/Tasks/PWGDQ\l/tableMaker.cxx">
<polygon fill="none" stroke="#000000" points="0,-.5 0,-52.5 132,-52.5 132,-.5 0,-.5"/>
<text text-anchor="start" x="8" y="-40.5" font-family="Helvetica,sans-Serif" font-size="10.00" fill="#000000">/home/travis/build</text>
<text text-anchor="start" x="8" y="-29.5" font-family="Helvetica,sans-Serif" font-size="10.00" fill="#000000">/AliceO2Group/AliceO2</text>
<text text-anchor="start" x="8" y="-18.5" font-family="Helvetica,sans-Serif" font-size="10.00" fill="#000000">/Analysis/Tasks/PWGDQ</text>
<text text-anchor="middle" x="66" y="-7.5" font-family="Helvetica,sans-Serif" font-size="10.00" fill="#000000">/tableMaker.cxx</text>
</a>
</g>
</g>
<!-- Node44&#45;&gt;Node46 -->
<g id="edge10" class="edge">
<title>Node44&#45;&gt;Node46</title>
<path fill="none" stroke="#191970" d="M625.4567,-201.6108C462.061,-195.3838 123.6212,-178.2309 85,-142 60.9902,-119.4762 59.7592,-79.2069 62.0924,-52.671"/>
<polygon fill="#191970" stroke="#191970" points="625.3609,-205.1096 635.4853,-201.9877 625.6238,-198.1145 625.3609,-205.1096"/>
</g>
<!-- Node48 -->
<g id="node5" class="node">
<title>Node48</title>
<g id="a_node5"><a xlink:href="../../df/ded/dumpDataModel_8cxx.html" target="_top" xlink:title="/home/travis/build\l/AliceO2Group/AliceO2\l/Analysis/DataModel/src\l/dumpDataModel.cxx">
<polygon fill="none" stroke="#000000" points="276,-89.5 276,-141.5 410,-141.5 410,-89.5 276,-89.5"/>
<text text-anchor="start" x="284" y="-129.5" font-family="Helvetica,sans-Serif" font-size="10.00" fill="#000000">/home/travis/build</text>
<text text-anchor="start" x="284" y="-118.5" font-family="Helvetica,sans-Serif" font-size="10.00" fill="#000000">/AliceO2Group/AliceO2</text>
<text text-anchor="start" x="284" y="-107.5" font-family="Helvetica,sans-Serif" font-size="10.00" fill="#000000">/Analysis/DataModel/src</text>
<text text-anchor="middle" x="343" y="-96.5" font-family="Helvetica,sans-Serif" font-size="10.00" fill="#000000">/dumpDataModel.cxx</text>
</a>
</g>
</g>
<!-- Node44&#45;&gt;Node48 -->
<g id="edge4" class="edge">
<title>Node44&#45;&gt;Node48</title>
<path fill="none" stroke="#191970" d="M625.2859,-188.855C566.4706,-177.6321 487.5311,-161.15 419,-142 416.1738,-141.2103 413.2999,-140.3718 410.4051,-139.4978"/>
<polygon fill="#191970" stroke="#191970" points="624.8088,-192.3268 635.2856,-190.7495 626.1119,-185.4492 624.8088,-192.3268"/>
</g>
<!-- Node49 -->
<g id="node6" class="node">
<title>Node49</title>
<g id="a_node6"><a xlink:href="../../d5/d75/centralityQa_8cxx.html" target="_top" xlink:title="/home/travis/build\l/AliceO2Group/AliceO2\l/Analysis/Tasks/centralityQa.cxx">
<polygon fill="none" stroke="#000000" points="428,-95 428,-136 602,-136 602,-95 428,-95"/>
<text text-anchor="start" x="436" y="-124" font-family="Helvetica,sans-Serif" font-size="10.00" fill="#000000">/home/travis/build</text>
<text text-anchor="start" x="436" y="-113" font-family="Helvetica,sans-Serif" font-size="10.00" fill="#000000">/AliceO2Group/AliceO2</text>
<text text-anchor="middle" x="515" y="-102" font-family="Helvetica,sans-Serif" font-size="10.00" fill="#000000">/Analysis/Tasks/centralityQa.cxx</text>
</a>
</g>
</g>
<!-- Node44&#45;&gt;Node49 -->
<g id="edge5" class="edge">
<title>Node44&#45;&gt;Node49</title>
<path fill="none" stroke="#191970" d="M645.6138,-174.2102C617.6708,-161.65 585.9736,-147.4023 560.8027,-136.0881"/>
<polygon fill="#191970" stroke="#191970" points="644.3754,-177.4909 654.9313,-178.3984 647.2453,-171.1062 644.3754,-177.4909"/>
</g>
<!-- Node50 -->
<g id="node7" class="node">
<title>Node50</title>
<g id="a_node7"><a xlink:href="../../de/d41/centralityTable_8cxx.html" target="_top" xlink:title="/home/travis/build\l/AliceO2Group/AliceO2\l/Analysis/Tasks/centralityTable.cxx">
<polygon fill="none" stroke="#000000" points="620,-95 620,-136 806,-136 806,-95 620,-95"/>
<text text-anchor="start" x="628" y="-124" font-family="Helvetica,sans-Serif" font-size="10.00" fill="#000000">/home/travis/build</text>
<text text-anchor="start" x="628" y="-113" font-family="Helvetica,sans-Serif" font-size="10.00" fill="#000000">/AliceO2Group/AliceO2</text>
<text text-anchor="middle" x="713" y="-102" font-family="Helvetica,sans-Serif" font-size="10.00" fill="#000000">/Analysis/Tasks/centralityTable.cxx</text>
</a>
</g>
</g>
<!-- Node44&#45;&gt;Node50 -->
<g id="edge6" class="edge">
<title>Node44&#45;&gt;Node50</title>
<path fill="none" stroke="#191970" d="M713,-168.1335C713,-157.2443 713,-145.6825 713,-136.1771"/>
<polygon fill="#191970" stroke="#191970" points="709.5001,-168.2784 713,-178.2784 716.5001,-168.2785 709.5001,-168.2784"/>
</g>
<!-- Node51 -->
<g id="node8" class="node">
<title>Node51</title>
<g id="a_node8"><a xlink:href="../../df/d59/correlationsCollection_8cxx.html" target="_top" xlink:title="/home/travis/build\l/AliceO2Group/AliceO2\l/Analysis/Tasks/correlations\lCollection.cxx">
<polygon fill="none" stroke="#000000" points="824,-89.5 824,-141.5 976,-141.5 976,-89.5 824,-89.5"/>
<text text-anchor="start" x="832" y="-129.5" font-family="Helvetica,sans-Serif" font-size="10.00" fill="#000000">/home/travis/build</text>
<text text-anchor="start" x="832" y="-118.5" font-family="Helvetica,sans-Serif" font-size="10.00" fill="#000000">/AliceO2Group/AliceO2</text>
<text text-anchor="start" x="832" y="-107.5" font-family="Helvetica,sans-Serif" font-size="10.00" fill="#000000">/Analysis/Tasks/correlations</text>
<text text-anchor="middle" x="900" y="-96.5" font-family="Helvetica,sans-Serif" font-size="10.00" fill="#000000">Collection.cxx</text>
</a>
</g>
</g>
<!-- Node44&#45;&gt;Node51 -->
<g id="edge7" class="edge">
<title>Node44&#45;&gt;Node51</title>
<path fill="none" stroke="#191970" d="M777.1587,-173.9646C799.2833,-163.4347 823.8469,-151.744 845.1583,-141.6011"/>
<polygon fill="#191970" stroke="#191970" points="775.368,-170.9406 767.8426,-178.3984 778.3763,-177.2612 775.368,-170.9406"/>
</g>
<!-- Node52 -->
<g id="node9" class="node">
<title>Node52</title>
<g id="a_node9"><a xlink:href="../../d4/d39/correlationsMixed_8cxx.html" target="_top" xlink:title="/home/travis/build\l/AliceO2Group/AliceO2\l/Analysis/Tasks/correlations\lMixed.cxx">
<polygon fill="none" stroke="#000000" points="994,-89.5 994,-141.5 1146,-141.5 1146,-89.5 994,-89.5"/>
<text text-anchor="start" x="1002" y="-129.5" font-family="Helvetica,sans-Serif" font-size="10.00" fill="#000000">/home/travis/build</text>
<text text-anchor="start" x="1002" y="-118.5" font-family="Helvetica,sans-Serif" font-size="10.00" fill="#000000">/AliceO2Group/AliceO2</text>
<text text-anchor="start" x="1002" y="-107.5" font-family="Helvetica,sans-Serif" font-size="10.00" fill="#000000">/Analysis/Tasks/correlations</text>
<text text-anchor="middle" x="1070" y="-96.5" font-family="Helvetica,sans-Serif" font-size="10.00" fill="#000000">Mixed.cxx</text>
</a>
</g>
</g>
<!-- Node44&#45;&gt;Node52 -->
<g id="edge8" class="edge">
<title>Node44&#45;&gt;Node52</title>
<path fill="none" stroke="#191970" d="M800.5707,-186.1582C854.0917,-174.5077 923.7941,-158.5469 985,-142 987.8351,-141.2335 990.7177,-140.4348 993.6249,-139.613"/>
<polygon fill="#191970" stroke="#191970" points="799.8026,-182.7433 790.7711,-188.2826 801.2857,-189.5844 799.8026,-182.7433"/>
</g>
<!-- Node53 -->
<g id="node10" class="node">
<title>Node53</title>
<g id="a_node10"><a xlink:href="../../dc/db0/dptdptcorrelations_8cxx.html" target="_top" xlink:title="/home/travis/build\l/AliceO2Group/AliceO2\l/Analysis/Tasks/PWGCF\l/dptdptcorrelations.cxx">
<polygon fill="none" stroke="#000000" points="1164.5,-89.5 1164.5,-141.5 1293.5,-141.5 1293.5,-89.5 1164.5,-89.5"/>
<text text-anchor="start" x="1172.5" y="-129.5" font-family="Helvetica,sans-Serif" font-size="10.00" fill="#000000">/home/travis/build</text>
<text text-anchor="start" x="1172.5" y="-118.5" font-family="Helvetica,sans-Serif" font-size="10.00" fill="#000000">/AliceO2Group/AliceO2</text>
<text text-anchor="start" x="1172.5" y="-107.5" font-family="Helvetica,sans-Serif" font-size="10.00" fill="#000000">/Analysis/Tasks/PWGCF</text>
<text text-anchor="middle" x="1229" y="-96.5" font-family="Helvetica,sans-Serif" font-size="10.00" fill="#000000">/dptdptcorrelations.cxx</text>
</a>
</g>
</g>
<!-- Node44&#45;&gt;Node53 -->
<g id="edge9" class="edge">
<title>Node44&#45;&gt;Node53</title>
<path fill="none" stroke="#191970" d="M800.7154,-197.398C890.6272,-188.8868 1034.0154,-171.8861 1155,-142 1158.047,-141.2473 1161.1439,-140.416 1164.257,-139.5262"/>
<polygon fill="#191970" stroke="#191970" points="800.1945,-193.9313 790.5626,-198.3444 800.8443,-200.901 800.1945,-193.9313"/>
</g>
<!-- Node54 -->
<g id="node11" class="node">
<title>Node54</title>
<g id="a_node11"><a xlink:href="../../d4/d5e/reducedEventAnalysis_8cxx.html" target="_top" xlink:title="/home/travis/build\l/AliceO2Group/AliceO2\l/Analysis/Tasks/reducedEvent\lAnalysis.cxx">
<polygon fill="none" stroke="#000000" points="1311.5,-89.5 1311.5,-141.5 1472.5,-141.5 1472.5,-89.5 1311.5,-89.5"/>
<text text-anchor="start" x="1319.5" y="-129.5" font-family="Helvetica,sans-Serif" font-size="10.00" fill="#000000">/home/travis/build</text>
<text text-anchor="start" x="1319.5" y="-118.5" font-family="Helvetica,sans-Serif" font-size="10.00" fill="#000000">/AliceO2Group/AliceO2</text>
<text text-anchor="start" x="1319.5" y="-107.5" font-family="Helvetica,sans-Serif" font-size="10.00" fill="#000000">/Analysis/Tasks/reducedEvent</text>
<text text-anchor="middle" x="1392" y="-96.5" font-family="Helvetica,sans-Serif" font-size="10.00" fill="#000000">Analysis.cxx</text>
</a>
</g>
</g>
<!-- Node44&#45;&gt;Node54 -->
<g id="edge11" class="edge">
<title>Node44&#45;&gt;Node54</title>
<path fill="none" stroke="#191970" d="M800.762,-200.2497C916.6841,-193.489 1126.7678,-177.2594 1303,-142 1305.6874,-141.4623 1308.4104,-140.8792 1311.1524,-140.259"/>
<polygon fill="#191970" stroke="#191970" points="800.3103,-196.7698 790.5269,-200.8362 800.7108,-203.7583 800.3103,-196.7698"/>
</g>
<!-- Node45&#45;&gt;Node46 -->
<g id="edge2" class="edge">
<title>Node45&#45;&gt;Node46</title>
<path fill="none" stroke="#191970" d="M135.6599,-82.8612C123.3135,-72.8718 109.9039,-62.0222 98.177,-52.5341"/>
<polygon fill="#191970" stroke="#191970" points="133.6157,-85.7094 143.5913,-89.2784 138.0187,-80.2675 133.6157,-85.7094"/>
</g>
<!-- Node47 -->
<g id="node4" class="node">
<title>Node47</title>
<g id="a_node4"><a xlink:href="../../d8/d43/tableReader_8cxx.html" target="_top" xlink:title="/home/travis/build\l/AliceO2Group/AliceO2\l/Analysis/Tasks/PWGDQ\l/tableReader.cxx">
<polygon fill="none" stroke="#000000" points="150,-.5 150,-52.5 282,-52.5 282,-.5 150,-.5"/>
<text text-anchor="start" x="158" y="-40.5" font-family="Helvetica,sans-Serif" font-size="10.00" fill="#000000">/home/travis/build</text>
<text text-anchor="start" x="158" y="-29.5" font-family="Helvetica,sans-Serif" font-size="10.00" fill="#000000">/AliceO2Group/AliceO2</text>
<text text-anchor="start" x="158" y="-18.5" font-family="Helvetica,sans-Serif" font-size="10.00" fill="#000000">/Analysis/Tasks/PWGDQ</text>
<text text-anchor="middle" x="216" y="-7.5" font-family="Helvetica,sans-Serif" font-size="10.00" fill="#000000">/tableReader.cxx</text>
</a>
</g>
</g>
<!-- Node45&#45;&gt;Node47 -->
<g id="edge3" class="edge">
<title>Node45&#45;&gt;Node47</title>
<path fill="none" stroke="#191970" d="M191.9615,-79.9856C196.082,-70.8176 200.4411,-61.1186 204.2993,-52.5341"/>
<polygon fill="#191970" stroke="#191970" points="188.692,-78.7225 187.785,-89.2784 195.0768,-81.5921 188.692,-78.7225"/>
</g>
</g>
</svg>
        <g id="navigator" transform="translate(0 0)" fill="#404254">
                <rect fill="#f2f5e9" fill-opacity="0.5" stroke="#606060" stroke-width=".5" x="0" y="0" width="60" height="60"/>
                <use id="zoomplus" xlink:href="#zoomPlus" x="17" y="9" onmousedown="handleZoom(evt,'in')"/>
                <use id="zoomminus" xlink:href="#zoomMin" x="42" y="9" onmousedown="handleZoom(evt,'out')"/>
                <use id="reset" xlink:href="#resetDef" x="30" y="36" onmousedown="handleReset()"/>
                <g id="arrowUp" xlink:href="#dirArrow" transform="translate(30 24)" onmousedown="handlePan(0,-1)">
                  <use xlink:href="#rim" fill="#404040">
                        <set attributeName="fill" to="#808080" begin="arrowUp.mouseover" end="arrowUp.mouseout"/>
                  </use>
                  <path fill="none" stroke="white" stroke-width="1.5" d="M0,-3.0v7 M-2.5,-0.5L0,-3.0L2.5,-0.5"/>
                </g>
                <g id="arrowRight" xlink:href="#dirArrow" transform="rotate(90) translate(36 -43)" onmousedown="handlePan(1,0)">
                  <use xlink:href="#rim" fill="#404040">
                        <set attributeName="fill" to="#808080" begin="arrowRight.mouseover" end="arrowRight.mouseout"/>
                  </use>
                  <path fill="none" stroke="white" stroke-width="1.5" d="M0,-3.0v7 M-2.5,-0.5L0,-3.0L2.5,-0.5"/>
                </g>
                <g id="arrowDown" xlink:href="#dirArrow" transform="rotate(180) translate(-30 -48)" onmousedown="handlePan(0,1)">
                  <use xlink:href="#rim" fill="#404040">
                        <set attributeName="fill" to="#808080" begin="arrowDown.mouseover" end="arrowDown.mouseout"/>
                  </use>
                  <path fill="none" stroke="white" stroke-width="1.5" d="M0,-3.0v7 M-2.5,-0.5L0,-3.0L2.5,-0.5"/>
                </g>
                <g id="arrowLeft" xlink:href="#dirArrow" transform="rotate(270) translate(-36 17)" onmousedown="handlePan(-1,0)">
                  <use xlink:href="#rim" fill="#404040">
                        <set attributeName="fill" to="#808080" begin="arrowLeft.mouseover" end="arrowLeft.mouseout"/>
                  </use>
                  <path fill="none" stroke="white" stroke-width="1.5" d="M0,-3.0v7 M-2.5,-0.5L0,-3.0L2.5,-0.5"/>
                </g>
        </g>
        <svg viewBox="0 0 15 15" width="100%" height="30px" preserveAspectRatio="xMaxYMin meet">
         <g id="arrow_out" transform="scale(0.3 0.3)">
          <a xlink:href="Centrality_8h__dep__incl_org.svg" target="_base">
           <rect id="button" ry="5" rx="5" y="6" x="6" height="38" width="38"
                fill="#f2f5e9" fill-opacity="0.5" stroke="#606060" stroke-width="1.0"/>
           <path id="arrow"
             d="M 11.500037,31.436501 C 11.940474,20.09759 22.043105,11.32322 32.158766,21.979434 L 37.068811,17.246167 C 37.068811,17.246167 37.088388,32 37.088388,32 L 22.160133,31.978069 C 22.160133,31.978069 26.997745,27.140456 26.997745,27.140456 C 18.528582,18.264221 13.291696,25.230495 11.500037,31.436501 z"
             style="fill:#404040;"/>
          </a>
         </g>
        </svg>
</svg>
