<?xml version="1.0" encoding="UTF-8" standalone="no"?>
<!DOCTYPE svg PUBLIC "-//W3C//DTD SVG 1.1//EN"
 "http://www.w3.org/Graphics/SVG/1.1/DTD/svg11.dtd">
<!-- Generated by graphviz version 2.40.1 (20161225.0304)
 -->
<!-- Title: /home/travis/build/AliceO2Group/AliceO2/Analysis/Core/src/RunToTimestamp.cxx Pages: 1 -->
<svg width="257pt" height="162pt"
 viewBox="0.00 0.00 256.50 162.00" xmlns="http://www.w3.org/2000/svg" xmlns:xlink="http://www.w3.org/1999/xlink">
<g id="graph0" class="graph" transform="scale(1 1) rotate(0) translate(4 158)">
<title>/home/travis/build/AliceO2Group/AliceO2/Analysis/Core/src/RunToTimestamp.cxx</title>
<!-- Node0 -->
<g id="node1" class="node">
<title>Node0</title>
<polygon fill="#bfbfbf" stroke="#000000" points="37.5,-112.5 37.5,-153.5 248.5,-153.5 248.5,-112.5 37.5,-112.5"/>
<text text-anchor="start" x="45.5" y="-141.5" font-family="Helvetica,sans-Serif" font-size="10.00" fill="#000000">/home/travis/build</text>
<text text-anchor="start" x="45.5" y="-130.5" font-family="Helvetica,sans-Serif" font-size="10.00" fill="#000000">/AliceO2Group/AliceO2</text>
<text text-anchor="middle" x="143" y="-119.5" font-family="Helvetica,sans-Serif" font-size="10.00" fill="#000000">/Analysis/Core/src/RunToTimestamp.cxx</text>
</g>
<!-- Node1 -->
<g id="node2" class="node">
<title>Node1</title>
<g id="a_node2"><a xlink:href="../../d8/d9e/RunToTimestamp_8h.html" target="_top" xlink:title="Analysis/RunToTimestamp.h">
<polygon fill="none" stroke="#000000" points="0,-56.5 0,-75.5 154,-75.5 154,-56.5 0,-56.5"/>
<text text-anchor="middle" x="77" y="-63.5" font-family="Helvetica,sans-Serif" font-size="10.00" fill="#000000">Analysis/RunToTimestamp.h</text>
</a>
</g>
</g>
<!-- Node0&#45;&gt;Node1 -->
<g id="edge1" class="edge">
<title>Node0&#45;&gt;Node1</title>
<path fill="none" stroke="#191970" d="M122.479,-112.168C113.2305,-102.7794 102.4484,-91.834 93.7043,-82.9574"/>
<polygon fill="#191970" stroke="#191970" points="96.1456,-80.4483 86.6345,-75.7805 91.1588,-85.3607 96.1456,-80.4483"/>
</g>
<!-- Node4 -->
<g id="node5" class="node">
<title>Node4</title>
<polygon fill="none" stroke="#bfbfbf" points="172.5,-56.5 172.5,-75.5 247.5,-75.5 247.5,-56.5 172.5,-56.5"/>
<text text-anchor="middle" x="210" y="-63.5" font-family="Helvetica,sans-Serif" font-size="10.00" fill="#000000">FairLogger.h</text>
</g>
<!-- Node0&#45;&gt;Node4 -->
<g id="edge4" class="edge">
<title>Node0&#45;&gt;Node4</title>
<path fill="none" stroke="#191970" d="M163.832,-112.168C173.2206,-102.7794 184.166,-91.834 193.0426,-82.9574"/>
<polygon fill="#191970" stroke="#191970" points="195.6233,-85.3265 200.2195,-75.7805 190.6735,-80.3767 195.6233,-85.3265"/>
</g>
<!-- Node2 -->
<g id="node3" class="node">
<title>Node2</title>
<polygon fill="none" stroke="#bfbfbf" points="25,-.5 25,-19.5 63,-19.5 63,-.5 25,-.5"/>
<text text-anchor="middle" x="44" y="-7.5" font-family="Helvetica,sans-Serif" font-size="10.00" fill="#000000">map</text>
</g>
<!-- Node1&#45;&gt;Node2 -->
<g id="edge2" class="edge">
<title>Node1&#45;&gt;Node2</title>
<path fill="none" stroke="#191970" d="M71.2518,-56.2455C66.7565,-48.617 60.3752,-37.7881 54.9175,-28.5267"/>
<polygon fill="#191970" stroke="#191970" points="57.7747,-26.4811 49.6823,-19.6427 51.7439,-30.035 57.7747,-26.4811"/>
</g>
<!-- Node3 -->
<g id="node4" class="node">
<title>Node3</title>
<polygon fill="none" stroke="#bfbfbf" points="81.5,-.5 81.5,-19.5 140.5,-19.5 140.5,-.5 81.5,-.5"/>
<text text-anchor="middle" x="111" y="-7.5" font-family="Helvetica,sans-Serif" font-size="10.00" fill="#000000">Rtypes.h</text>
</g>
<!-- Node1&#45;&gt;Node3 -->
<g id="edge3" class="edge">
<title>Node1&#45;&gt;Node3</title>
<path fill="none" stroke="#191970" d="M82.9223,-56.2455C87.6027,-48.5367 94.2673,-37.5598 99.9289,-28.2348"/>
<polygon fill="#191970" stroke="#191970" points="102.9475,-30.007 105.1455,-19.6427 96.9639,-26.3741 102.9475,-30.007"/>
</g>
</g>
</svg>
