<?xml version="1.0" encoding="UTF-8" standalone="no"?>
<!DOCTYPE svg PUBLIC "-//W3C//DTD SVG 1.1//EN"
 "http://www.w3.org/Graphics/SVG/1.1/DTD/svg11.dtd">
<!-- Generated by graphviz version 2.40.1 (20161225.0304)
 -->
<!-- Title: o2::itsmft::RUDecodeData Pages: 1 -->
<!--zoomable 430 -->
<svg id="main" version="1.1" xmlns="http://www.w3.org/2000/svg" xmlns:xlink="http://www.w3.org/1999/xlink" xml:space="preserve" onload="init(evt)">
<style type="text/css"><![CDATA[
.edge:hover path { stroke: red; }
.edge:hover polygon { stroke: red; fill: red; }
]]></style>
<script type="text/javascript"><![CDATA[
var edges = document.getElementsByTagName('g');
if (edges && edges.length) {
  for (var i=0;i<edges.length;i++) {
    if (edges[i].id.substr(0,4)=='edge') {
      edges[i].setAttribute('class','edge');
    }
  }
}
]]></script>
        <defs>
                <circle id="rim" cx="0" cy="0" r="7"/>
                <circle id="rim2" cx="0" cy="0" r="3.5"/>
                <g id="zoomPlus">
                        <use xlink:href="#rim" fill="#404040">
                                <set attributeName="fill" to="#808080" begin="zoomplus.mouseover" end="zoomplus.mouseout"/>
                        </use>
                        <path d="M-4,0h8M0,-4v8" fill="none" stroke="white" stroke-width="1.5" pointer-events="none"/>
                </g>
                <g id="zoomMin">
                        <use xlink:href="#rim" fill="#404040">
                                <set attributeName="fill" to="#808080" begin="zoomminus.mouseover" end="zoomminus.mouseout"/>
                        </use>
                        <path d="M-4,0h8" fill="none" stroke="white" stroke-width="1.5" pointer-events="none"/>
                </g>
                <g id="dirArrow">
                        <path fill="none" stroke="white" stroke-width="1.5" d="M0,-3.0v7 M-2.5,-0.5L0,-3.0L2.5,-0.5"/>
                </g>
               <g id="resetDef">
                       <use xlink:href="#rim2" fill="#404040">
                               <set attributeName="fill" to="#808080" begin="reset.mouseover" end="reset.mouseout"/>
                       </use>
               </g>
        </defs>

<script type="text/javascript">
var viewWidth = 985;
var viewHeight = 430;
var sectionId = 'dynsection-0';
</script>
<script xlink:href="../../svgpan.js"/>
<svg id="graph" class="graph">
<g id="viewport">
<title>o2::itsmft::RUDecodeData</title>
<!-- Node1 -->
<g id="node1" class="node">
<title>Node1</title>
<polygon fill="#bfbfbf" stroke="#000000" points="468,-.5 468,-112.5 612,-112.5 612,-.5 468,-.5"/>
<text text-anchor="middle" x="540" y="-100.5" font-family="Helvetica,sans-Serif" font-size="10.00" fill="#000000">o2::itsmft::RUDecodeData</text>
<polyline fill="none" stroke="#000000" points="468,-93.5 612,-93.5 "/>
<text text-anchor="middle" x="540" y="-81.5" font-family="Helvetica,sans-Serif" font-size="10.00" fill="#000000"> </text>
<polyline fill="none" stroke="#000000" points="468,-74.5 612,-74.5 "/>
<text text-anchor="start" x="476" y="-62.5" font-family="Helvetica,sans-Serif" font-size="10.00" fill="#000000">+ RUDecodeData()</text>
<text text-anchor="start" x="476" y="-51.5" font-family="Helvetica,sans-Serif" font-size="10.00" fill="#000000">+ decodeROF()</text>
<text text-anchor="start" x="476" y="-40.5" font-family="Helvetica,sans-Serif" font-size="10.00" fill="#000000">+ clear()</text>
<text text-anchor="start" x="476" y="-29.5" font-family="Helvetica,sans-Serif" font-size="10.00" fill="#000000">+ setROFInfo()</text>
<text text-anchor="start" x="476" y="-18.5" font-family="Helvetica,sans-Serif" font-size="10.00" fill="#000000">+ decodeROF()</text>
<text text-anchor="start" x="476" y="-7.5" font-family="Helvetica,sans-Serif" font-size="10.00" fill="#000000">+ ClassDefNV()</text>
</g>
<!-- Node2 -->
<g id="node2" class="node">
<title>Node2</title>
<polygon fill="none" stroke="#bfbfbf" points="0,-226.5 0,-294.5 114,-294.5 114,-226.5 0,-226.5"/>
<text text-anchor="start" x="8" y="-282.5" font-family="Helvetica,sans-Serif" font-size="10.00" fill="#000000">array&lt; std::uint8_t,</text>
<text text-anchor="middle" x="57" y="-271.5" font-family="Helvetica,sans-Serif" font-size="10.00" fill="#000000"> MaxCablesPerRU &gt;</text>
<polyline fill="none" stroke="#bfbfbf" points="0,-264.5 114,-264.5 "/>
<text text-anchor="middle" x="57" y="-252.5" font-family="Helvetica,sans-Serif" font-size="10.00" fill="#000000"> </text>
<polyline fill="none" stroke="#bfbfbf" points="0,-245.5 114,-245.5 "/>
<text text-anchor="middle" x="57" y="-233.5" font-family="Helvetica,sans-Serif" font-size="10.00" fill="#000000"> </text>
</g>
<!-- Node2&#45;&gt;Node1 -->
<g id="edge1" class="edge">
<title>Node2&#45;&gt;Node1</title>
<path fill="none" stroke="#404040" d="M76.8945,-226.4761C96.2678,-196.5049 128.5249,-154.1245 168,-131 215.8443,-102.9729 361.6679,-79.5864 455.8943,-66.8599"/>
<polygon fill="none" stroke="#404040" points="456.0803,-66.8351 461.4986,-62.0768 467.9749,-65.2483 462.5565,-70.0066 456.0803,-66.8351"/>
<text text-anchor="middle" x="201" y="-172.5" font-family="Helvetica,sans-Serif" font-size="10.00" fill="#000000"> +cableHWID</text>
<text text-anchor="middle" x="201" y="-161.5" font-family="Helvetica,sans-Serif" font-size="10.00" fill="#000000">+cableLinkID</text>
</g>
<!-- Node3 -->
<g id="node3" class="node">
<title>Node3</title>
<polygon fill="none" stroke="#bfbfbf" points="132,-226.5 132,-294.5 238,-294.5 238,-226.5 132,-226.5"/>
<text text-anchor="start" x="140" y="-282.5" font-family="Helvetica,sans-Serif" font-size="10.00" fill="#000000">vector&lt; o2::itsmft</text>
<text text-anchor="middle" x="185" y="-271.5" font-family="Helvetica,sans-Serif" font-size="10.00" fill="#000000">::ChipPixelData &gt;</text>
<polyline fill="none" stroke="#bfbfbf" points="132,-264.5 238,-264.5 "/>
<text text-anchor="middle" x="185" y="-252.5" font-family="Helvetica,sans-Serif" font-size="10.00" fill="#000000"> </text>
<polyline fill="none" stroke="#bfbfbf" points="132,-245.5 238,-245.5 "/>
<text text-anchor="middle" x="185" y="-233.5" font-family="Helvetica,sans-Serif" font-size="10.00" fill="#000000"> </text>
</g>
<!-- Node3&#45;&gt;Node1 -->
<g id="edge2" class="edge">
<title>Node3&#45;&gt;Node1</title>
<path fill="none" stroke="#404040" d="M216.8486,-226.2159C245.0658,-197.5128 288.5747,-157.158 333,-131 354.664,-118.2441 408.7867,-98.9064 456.2561,-83.1293"/>
<polygon fill="none" stroke="#404040" points="456.4452,-83.0669 460.8888,-77.3876 467.8403,-79.3051 463.3967,-84.9844 456.4452,-83.0669"/>
<text text-anchor="middle" x="363.5" y="-167" font-family="Helvetica,sans-Serif" font-size="10.00" fill="#000000"> +chipsData</text>
</g>
<!-- Node4 -->
<g id="node4" class="node">
<title>Node4</title>
<polygon fill="none" stroke="#bfbfbf" points="256,-226.5 256,-294.5 436,-294.5 436,-226.5 256,-226.5"/>
<text text-anchor="start" x="264" y="-282.5" font-family="Helvetica,sans-Serif" font-size="10.00" fill="#000000">array&lt; o2::itsmft::</text>
<text text-anchor="middle" x="346" y="-271.5" font-family="Helvetica,sans-Serif" font-size="10.00" fill="#000000">PayLoadCont, MaxCablesPerRU &gt;</text>
<polyline fill="none" stroke="#bfbfbf" points="256,-264.5 436,-264.5 "/>
<text text-anchor="middle" x="346" y="-252.5" font-family="Helvetica,sans-Serif" font-size="10.00" fill="#000000"> </text>
<polyline fill="none" stroke="#bfbfbf" points="256,-245.5 436,-245.5 "/>
<text text-anchor="middle" x="346" y="-233.5" font-family="Helvetica,sans-Serif" font-size="10.00" fill="#000000"> </text>
</g>
<!-- Node4&#45;&gt;Node1 -->
<g id="edge3" class="edge">
<title>Node4&#45;&gt;Node1</title>
<path fill="none" stroke="#404040" d="M378.4712,-226.355C405.6179,-197.809 445.1051,-156.2863 478.2419,-121.4415"/>
<polygon fill="none" stroke="#404040" points="478.2488,-121.4343 479.4849,-114.3299 486.5183,-112.7385 485.2821,-119.8429 478.2488,-121.4343"/>
<text text-anchor="middle" x="496.5" y="-167" font-family="Helvetica,sans-Serif" font-size="10.00" fill="#000000"> +cableData</text>
</g>
<!-- Node5 -->
<g id="node5" class="node">
<title>Node5</title>
<polygon fill="none" stroke="#bfbfbf" points="454,-226.5 454,-294.5 626,-294.5 626,-226.5 454,-226.5"/>
<text text-anchor="start" x="462" y="-282.5" font-family="Helvetica,sans-Serif" font-size="10.00" fill="#000000">array&lt; const o2::itsmft</text>
<text text-anchor="middle" x="540" y="-271.5" font-family="Helvetica,sans-Serif" font-size="10.00" fill="#000000">::GBTLink *, MaxCablesPerRU &gt;</text>
<polyline fill="none" stroke="#bfbfbf" points="454,-264.5 626,-264.5 "/>
<text text-anchor="middle" x="540" y="-252.5" font-family="Helvetica,sans-Serif" font-size="10.00" fill="#000000"> </text>
<polyline fill="none" stroke="#bfbfbf" points="454,-245.5 626,-245.5 "/>
<text text-anchor="middle" x="540" y="-233.5" font-family="Helvetica,sans-Serif" font-size="10.00" fill="#000000"> </text>
</g>
<!-- Node5&#45;&gt;Node1 -->
<g id="edge4" class="edge">
<title>Node5&#45;&gt;Node1</title>
<path fill="none" stroke="#404040" d="M540,-226.355C540,-198.7767 540,-159.0865 540,-125.0073"/>
<polygon fill="none" stroke="#404040" points="540.0001,-124.7385 536,-118.7385 540,-112.7385 544,-118.7385 540.0001,-124.7385"/>
<text text-anchor="middle" x="576" y="-167" font-family="Helvetica,sans-Serif" font-size="10.00" fill="#000000"> +cableLinkPtr</text>
</g>
<!-- Node6 -->
<g id="node6" class="node">
<title>Node6</title>
<polygon fill="none" stroke="#bfbfbf" points="644.5,-232 644.5,-289 673.5,-289 673.5,-232 644.5,-232"/>
<text text-anchor="middle" x="659" y="-277" font-family="Helvetica,sans-Serif" font-size="10.00" fill="#000000">int</text>
<polyline fill="none" stroke="#bfbfbf" points="644.5,-270 673.5,-270 "/>
<text text-anchor="middle" x="659" y="-258" font-family="Helvetica,sans-Serif" font-size="10.00" fill="#000000"> </text>
<polyline fill="none" stroke="#bfbfbf" points="644.5,-251 673.5,-251 "/>
<text text-anchor="middle" x="659" y="-239" font-family="Helvetica,sans-Serif" font-size="10.00" fill="#000000"> </text>
</g>
<!-- Node6&#45;&gt;Node1 -->
<g id="edge5" class="edge">
<title>Node6&#45;&gt;Node1</title>
<path fill="none" stroke="#404040" d="M645.7023,-231.8753C642.3445,-224.1974 638.8787,-215.8474 636,-208 623.6997,-174.4686 631.1404,-161.7666 613,-131 611.333,-128.1727 609.5361,-125.3724 607.6361,-122.6092"/>
<polygon fill="none" stroke="#404040" points="607.5,-122.4256 600.7133,-119.988 600.3531,-112.7859 607.1398,-115.2234 607.5,-122.4256"/>
<text text-anchor="middle" x="683.5" y="-200" font-family="Helvetica,sans-Serif" font-size="10.00" fill="#000000"> +MaxCablesPerRU</text>
<text text-anchor="middle" x="683.5" y="-189" font-family="Helvetica,sans-Serif" font-size="10.00" fill="#000000">+nChipsFired</text>
<text text-anchor="middle" x="683.5" y="-178" font-family="Helvetica,sans-Serif" font-size="10.00" fill="#000000">+lastChipChecked</text>
<text text-anchor="middle" x="683.5" y="-167" font-family="Helvetica,sans-Serif" font-size="10.00" fill="#000000">+MaxLinksPerRU</text>
<text text-anchor="middle" x="683.5" y="-156" font-family="Helvetica,sans-Serif" font-size="10.00" fill="#000000">+ruSWID</text>
<text text-anchor="middle" x="683.5" y="-145" font-family="Helvetica,sans-Serif" font-size="10.00" fill="#000000">+nCables</text>
<text text-anchor="middle" x="683.5" y="-134" font-family="Helvetica,sans-Serif" font-size="10.00" fill="#000000">+MaxChipsPerRU</text>
</g>
<!-- Node7 -->
<g id="node7" class="node">
<title>Node7</title>
<g id="a_node7"><a xlink:href="../../dd/d8d/structo2_1_1itsmft_1_1RUInfo.html" target="_top" xlink:title="{o2::itsmft::RUInfo\n||}">
<polygon fill="none" stroke="#000000" points="696.5,-232 696.5,-289 799.5,-289 799.5,-232 696.5,-232"/>
<text text-anchor="middle" x="748" y="-277" font-family="Helvetica,sans-Serif" font-size="10.00" fill="#000000">o2::itsmft::RUInfo</text>
<polyline fill="none" stroke="#000000" points="696.5,-270 799.5,-270 "/>
<text text-anchor="middle" x="748" y="-258" font-family="Helvetica,sans-Serif" font-size="10.00" fill="#000000"> </text>
<polyline fill="none" stroke="#000000" points="696.5,-251 799.5,-251 "/>
<text text-anchor="middle" x="748" y="-239" font-family="Helvetica,sans-Serif" font-size="10.00" fill="#000000"> </text>
</a>
</g>
</g>
<!-- Node7&#45;&gt;Node1 -->
<g id="edge6" class="edge">
<title>Node7&#45;&gt;Node1</title>
<path fill="none" stroke="#404040" d="M752.0401,-231.8401C754.4313,-203.275 753.4491,-159.6457 731,-131 705.035,-97.8679 662.2969,-79.4483 623.8248,-69.2187"/>
<polygon fill="none" stroke="#404040" points="623.6931,-69.1862 616.9071,-71.6255 612.0454,-66.2998 618.8314,-63.8604 623.6931,-69.1862"/>
<text text-anchor="middle" x="772" y="-167" font-family="Helvetica,sans-Serif" font-size="10.00" fill="#000000"> +ruInfo</text>
</g>
<!-- Node8 -->
<g id="node8" class="node">
<title>Node8</title>
<polygon fill="none" stroke="#bfbfbf" points="618,-364.5 618,-421.5 674,-421.5 674,-364.5 618,-364.5"/>
<text text-anchor="middle" x="646" y="-409.5" font-family="Helvetica,sans-Serif" font-size="10.00" fill="#000000">uint16_t</text>
<polyline fill="none" stroke="#bfbfbf" points="618,-402.5 674,-402.5 "/>
<text text-anchor="middle" x="646" y="-390.5" font-family="Helvetica,sans-Serif" font-size="10.00" fill="#000000"> </text>
<polyline fill="none" stroke="#bfbfbf" points="618,-383.5 674,-383.5 "/>
<text text-anchor="middle" x="646" y="-371.5" font-family="Helvetica,sans-Serif" font-size="10.00" fill="#000000"> </text>
</g>
<!-- Node8&#45;&gt;Node7 -->
<g id="edge7" class="edge">
<title>Node8&#45;&gt;Node7</title>
<path fill="none" stroke="#404040" d="M647.5375,-364.1536C649.6333,-347.8715 654.3833,-327.8715 665,-313 668.5293,-308.0563 676.5234,-301.7977 686.2236,-295.3391"/>
<polygon fill="none" stroke="#404040" points="686.2729,-295.3077 689.1807,-288.7089 696.3904,-288.8551 693.4825,-295.4539 686.2729,-295.3077"/>
<text text-anchor="middle" x="704.5" y="-338" font-family="Helvetica,sans-Serif" font-size="10.00" fill="#000000"> +firstChipIDSW</text>
<text text-anchor="middle" x="704.5" y="-327" font-family="Helvetica,sans-Serif" font-size="10.00" fill="#000000">+idHW</text>
<text text-anchor="middle" x="704.5" y="-316" font-family="Helvetica,sans-Serif" font-size="10.00" fill="#000000">+idSW</text>
</g>
<!-- Node9 -->
<g id="node9" class="node">
<title>Node9</title>
<polygon fill="none" stroke="#bfbfbf" points="723,-364.5 723,-421.5 773,-421.5 773,-364.5 723,-364.5"/>
<text text-anchor="middle" x="748" y="-409.5" font-family="Helvetica,sans-Serif" font-size="10.00" fill="#000000">uint8_t</text>
<polyline fill="none" stroke="#bfbfbf" points="723,-402.5 773,-402.5 "/>
<text text-anchor="middle" x="748" y="-390.5" font-family="Helvetica,sans-Serif" font-size="10.00" fill="#000000"> </text>
<polyline fill="none" stroke="#bfbfbf" points="723,-383.5 773,-383.5 "/>
<text text-anchor="middle" x="748" y="-371.5" font-family="Helvetica,sans-Serif" font-size="10.00" fill="#000000"> </text>
</g>
<!-- Node9&#45;&gt;Node7 -->
<g id="edge8" class="edge">
<title>Node9&#45;&gt;Node7</title>
<path fill="none" stroke="#404040" d="M748,-364.2495C748,-345.8447 748,-321.6825 748,-301.3067"/>
<polygon fill="none" stroke="#404040" points="748.0001,-301.1944 744,-295.1945 748,-289.1944 752,-295.1944 748.0001,-301.1944"/>
<text text-anchor="middle" x="772" y="-338" font-family="Helvetica,sans-Serif" font-size="10.00" fill="#000000"> +layer</text>
<text text-anchor="middle" x="772" y="-327" font-family="Helvetica,sans-Serif" font-size="10.00" fill="#000000">+ruType</text>
<text text-anchor="middle" x="772" y="-316" font-family="Helvetica,sans-Serif" font-size="10.00" fill="#000000">+nCables</text>
</g>
<!-- Node10 -->
<g id="node10" class="node">
<title>Node10</title>
<polygon fill="none" stroke="#bfbfbf" points="797.5,-364.5 797.5,-421.5 840.5,-421.5 840.5,-364.5 797.5,-364.5"/>
<text text-anchor="middle" x="819" y="-409.5" font-family="Helvetica,sans-Serif" font-size="10.00" fill="#000000">const</text>
<polyline fill="none" stroke="#bfbfbf" points="797.5,-402.5 840.5,-402.5 "/>
<text text-anchor="middle" x="819" y="-390.5" font-family="Helvetica,sans-Serif" font-size="10.00" fill="#000000"> </text>
<polyline fill="none" stroke="#bfbfbf" points="797.5,-383.5 840.5,-383.5 "/>
<text text-anchor="middle" x="819" y="-371.5" font-family="Helvetica,sans-Serif" font-size="10.00" fill="#000000"> </text>
</g>
<!-- Node10&#45;&gt;Node7 -->
<g id="edge9" class="edge">
<title>Node10&#45;&gt;Node7</title>
<path fill="none" stroke="#404040" d="M814.5924,-364.3192C811.3225,-348.4706 805.8547,-328.8431 797,-313 794.183,-307.9597 790.7816,-303.0248 787.0994,-298.3222"/>
<polygon fill="none" stroke="#404040" points="786.9943,-298.198 780.0653,-296.2006 779.2441,-289.0364 786.173,-291.0338 786.9943,-298.198"/>
<text text-anchor="middle" x="839.5" y="-332.5" font-family="Helvetica,sans-Serif" font-size="10.00" fill="#000000"> +DUMMY16</text>
<text text-anchor="middle" x="839.5" y="-321.5" font-family="Helvetica,sans-Serif" font-size="10.00" fill="#000000">+DUMMY8</text>
</g>
<!-- Node11 -->
<g id="node11" class="node">
<title>Node11</title>
<polygon fill="none" stroke="#bfbfbf" points="817.5,-232 817.5,-289 976.5,-289 976.5,-232 817.5,-232"/>
<text text-anchor="middle" x="897" y="-277" font-family="Helvetica,sans-Serif" font-size="10.00" fill="#000000">array&lt; int, MaxLinksPerRU &gt;</text>
<polyline fill="none" stroke="#bfbfbf" points="817.5,-270 976.5,-270 "/>
<text text-anchor="middle" x="897" y="-258" font-family="Helvetica,sans-Serif" font-size="10.00" fill="#000000"> </text>
<polyline fill="none" stroke="#bfbfbf" points="817.5,-251 976.5,-251 "/>
<text text-anchor="middle" x="897" y="-239" font-family="Helvetica,sans-Serif" font-size="10.00" fill="#000000"> </text>
</g>
<!-- Node11&#45;&gt;Node1 -->
<g id="edge10" class="edge">
<title>Node11&#45;&gt;Node1</title>
<path fill="none" stroke="#404040" d="M881.9265,-231.9715C864.8951,-202.4498 834.4669,-157.0804 796,-131 744.7279,-96.2377 677.1032,-77.4609 624.2341,-67.4562"/>
<polygon fill="none" stroke="#404040" points="623.9714,-67.4088 617.3557,-70.2779 612.1628,-65.2745 618.7785,-62.4054 623.9714,-67.4088"/>
<text text-anchor="middle" x="883.5" y="-167" font-family="Helvetica,sans-Serif" font-size="10.00" fill="#000000"> +links</text>
</g>
</g>
</svg>
        <g id="navigator" transform="translate(0 0)" fill="#404254">
                <rect fill="#f2f5e9" fill-opacity="0.5" stroke="#606060" stroke-width=".5" x="0" y="0" width="60" height="60"/>
                <use id="zoomplus" xlink:href="#zoomPlus" x="17" y="9" onmousedown="handleZoom(evt,'in')"/>
                <use id="zoomminus" xlink:href="#zoomMin" x="42" y="9" onmousedown="handleZoom(evt,'out')"/>
                <use id="reset" xlink:href="#resetDef" x="30" y="36" onmousedown="handleReset()"/>
                <g id="arrowUp" xlink:href="#dirArrow" transform="translate(30 24)" onmousedown="handlePan(0,-1)">
                  <use xlink:href="#rim" fill="#404040">
                        <set attributeName="fill" to="#808080" begin="arrowUp.mouseover" end="arrowUp.mouseout"/>
                  </use>
                  <path fill="none" stroke="white" stroke-width="1.5" d="M0,-3.0v7 M-2.5,-0.5L0,-3.0L2.5,-0.5"/>
                </g>
                <g id="arrowRight" xlink:href="#dirArrow" transform="rotate(90) translate(36 -43)" onmousedown="handlePan(1,0)">
                  <use xlink:href="#rim" fill="#404040">
                        <set attributeName="fill" to="#808080" begin="arrowRight.mouseover" end="arrowRight.mouseout"/>
                  </use>
                  <path fill="none" stroke="white" stroke-width="1.5" d="M0,-3.0v7 M-2.5,-0.5L0,-3.0L2.5,-0.5"/>
                </g>
                <g id="arrowDown" xlink:href="#dirArrow" transform="rotate(180) translate(-30 -48)" onmousedown="handlePan(0,1)">
                  <use xlink:href="#rim" fill="#404040">
                        <set attributeName="fill" to="#808080" begin="arrowDown.mouseover" end="arrowDown.mouseout"/>
                  </use>
                  <path fill="none" stroke="white" stroke-width="1.5" d="M0,-3.0v7 M-2.5,-0.5L0,-3.0L2.5,-0.5"/>
                </g>
                <g id="arrowLeft" xlink:href="#dirArrow" transform="rotate(270) translate(-36 17)" onmousedown="handlePan(-1,0)">
                  <use xlink:href="#rim" fill="#404040">
                        <set attributeName="fill" to="#808080" begin="arrowLeft.mouseover" end="arrowLeft.mouseout"/>
                  </use>
                  <path fill="none" stroke="white" stroke-width="1.5" d="M0,-3.0v7 M-2.5,-0.5L0,-3.0L2.5,-0.5"/>
                </g>
        </g>
        <svg viewBox="0 0 15 15" width="100%" height="30px" preserveAspectRatio="xMaxYMin meet">
         <g id="arrow_out" transform="scale(0.3 0.3)">
          <a xlink:href="structo2_1_1itsmft_1_1RUDecodeData__coll__graph_org.svg" target="_base">
           <rect id="button" ry="5" rx="5" y="6" x="6" height="38" width="38"
                fill="#f2f5e9" fill-opacity="0.5" stroke="#606060" stroke-width="1.0"/>
           <path id="arrow"
             d="M 11.500037,31.436501 C 11.940474,20.09759 22.043105,11.32322 32.158766,21.979434 L 37.068811,17.246167 C 37.068811,17.246167 37.088388,32 37.088388,32 L 22.160133,31.978069 C 22.160133,31.978069 26.997745,27.140456 26.997745,27.140456 C 18.528582,18.264221 13.291696,25.230495 11.500037,31.436501 z"
             style="fill:#404040;"/>
          </a>
         </g>
        </svg>
</svg>
