<?xml version="1.0" encoding="UTF-8" standalone="no"?>
<!DOCTYPE svg PUBLIC "-//W3C//DTD SVG 1.1//EN"
 "http://www.w3.org/Graphics/SVG/1.1/DTD/svg11.dtd">
<!-- Generated by graphviz version 2.40.1 (20161225.0304)
 -->
<!-- Title: o2::ft0::Digit Pages: 1 -->
<svg width="803pt" height="914pt"
 viewBox="0.00 0.00 803.00 914.00" xmlns="http://www.w3.org/2000/svg" xmlns:xlink="http://www.w3.org/1999/xlink">
<g id="graph0" class="graph" transform="scale(1 1) rotate(0) translate(4 910)">
<title>o2::ft0::Digit</title>
<!-- Node1 -->
<g id="node1" class="node">
<title>Node1</title>
<polygon fill="#bfbfbf" stroke="#000000" points="374,-.5 374,-200.5 518,-200.5 518,-.5 374,-.5"/>
<text text-anchor="middle" x="446" y="-188.5" font-family="Helvetica,sans-Serif" font-size="10.00" fill="#000000">o2::ft0::Digit</text>
<polyline fill="none" stroke="#000000" points="374,-181.5 518,-181.5 "/>
<text text-anchor="middle" x="446" y="-169.5" font-family="Helvetica,sans-Serif" font-size="10.00" fill="#000000"> </text>
<polyline fill="none" stroke="#000000" points="374,-162.5 518,-162.5 "/>
<text text-anchor="start" x="382" y="-150.5" font-family="Helvetica,sans-Serif" font-size="10.00" fill="#000000">+ Digit()</text>
<text text-anchor="start" x="382" y="-139.5" font-family="Helvetica,sans-Serif" font-size="10.00" fill="#000000">+ Digit()</text>
<text text-anchor="start" x="382" y="-128.5" font-family="Helvetica,sans-Serif" font-size="10.00" fill="#000000">+ getOrbit()</text>
<text text-anchor="start" x="382" y="-117.5" font-family="Helvetica,sans-Serif" font-size="10.00" fill="#000000">+ getBC()</text>
<text text-anchor="start" x="382" y="-106.5" font-family="Helvetica,sans-Serif" font-size="10.00" fill="#000000">+ getTriggers()</text>
<text text-anchor="start" x="382" y="-95.5" font-family="Helvetica,sans-Serif" font-size="10.00" fill="#000000">+ getEventID()</text>
<text text-anchor="start" x="382" y="-84.5" font-family="Helvetica,sans-Serif" font-size="10.00" fill="#000000">+ getIntRecord()</text>
<text text-anchor="start" x="382" y="-73.5" font-family="Helvetica,sans-Serif" font-size="10.00" fill="#000000">+ getBunchChannelData()</text>
<text text-anchor="start" x="382" y="-62.5" font-family="Helvetica,sans-Serif" font-size="10.00" fill="#000000">+ printStream()</text>
<text text-anchor="start" x="382" y="-51.5" font-family="Helvetica,sans-Serif" font-size="10.00" fill="#000000">+ setTriggers()</text>
<text text-anchor="start" x="382" y="-40.5" font-family="Helvetica,sans-Serif" font-size="10.00" fill="#000000">+ setEventStatus()</text>
<text text-anchor="start" x="382" y="-29.5" font-family="Helvetica,sans-Serif" font-size="10.00" fill="#000000">+ setStatusFlag()</text>
<text text-anchor="start" x="382" y="-18.5" font-family="Helvetica,sans-Serif" font-size="10.00" fill="#000000">+ getStatusFlag()</text>
<text text-anchor="start" x="382" y="-7.5" font-family="Helvetica,sans-Serif" font-size="10.00" fill="#000000">+ ClassDefNV()</text>
</g>
<!-- Node2 -->
<g id="node2" class="node">
<title>Node2</title>
<g id="a_node2"><a xlink:href="../../d1/d21/structo2_1_1InteractionRecord.html" target="_top" xlink:title="{o2::InteractionRecord\n||+ InteractionRecord()\l+ InteractionRecord()\l+ InteractionRecord()\l+ InteractionRecord()\l+ clear()\l+ isDummy()\l+ setFromNS()\l+ bc2ns()\l+ operator==()\l+ operator!=()\l+ differenceInBC()\l+ toLong()\l+ setFromLong()\l+ operator\&gt;()\l+ operator\&gt;=()\l+ operator\&lt;()\l+ operator\&lt;=()\l+ operator&#45;&#45;()\l+ operator&#45;&#45;()\l+ operator++()\l+ operator++()\l+ operator+=()\l+ operator&#45;=()\l+ operator+=()\l+ operator&#45;=()\l+ operator+()\l+ operator&#45;()\l+ operator+()\l+ operator&#45;()\l+ print()\l+ ClassDefNV()\l+ bc2ns()\l+ ns2bc()\l}">
<polygon fill="none" stroke="#000000" points="102.5,-248.5 102.5,-657.5 223.5,-657.5 223.5,-248.5 102.5,-248.5"/>
<text text-anchor="middle" x="163" y="-645.5" font-family="Helvetica,sans-Serif" font-size="10.00" fill="#000000">o2::InteractionRecord</text>
<polyline fill="none" stroke="#000000" points="102.5,-638.5 223.5,-638.5 "/>
<text text-anchor="middle" x="163" y="-626.5" font-family="Helvetica,sans-Serif" font-size="10.00" fill="#000000"> </text>
<polyline fill="none" stroke="#000000" points="102.5,-619.5 223.5,-619.5 "/>
<text text-anchor="start" x="110.5" y="-607.5" font-family="Helvetica,sans-Serif" font-size="10.00" fill="#000000">+ InteractionRecord()</text>
<text text-anchor="start" x="110.5" y="-596.5" font-family="Helvetica,sans-Serif" font-size="10.00" fill="#000000">+ InteractionRecord()</text>
<text text-anchor="start" x="110.5" y="-585.5" font-family="Helvetica,sans-Serif" font-size="10.00" fill="#000000">+ InteractionRecord()</text>
<text text-anchor="start" x="110.5" y="-574.5" font-family="Helvetica,sans-Serif" font-size="10.00" fill="#000000">+ InteractionRecord()</text>
<text text-anchor="start" x="110.5" y="-563.5" font-family="Helvetica,sans-Serif" font-size="10.00" fill="#000000">+ clear()</text>
<text text-anchor="start" x="110.5" y="-552.5" font-family="Helvetica,sans-Serif" font-size="10.00" fill="#000000">+ isDummy()</text>
<text text-anchor="start" x="110.5" y="-541.5" font-family="Helvetica,sans-Serif" font-size="10.00" fill="#000000">+ setFromNS()</text>
<text text-anchor="start" x="110.5" y="-530.5" font-family="Helvetica,sans-Serif" font-size="10.00" fill="#000000">+ bc2ns()</text>
<text text-anchor="start" x="110.5" y="-519.5" font-family="Helvetica,sans-Serif" font-size="10.00" fill="#000000">+ operator==()</text>
<text text-anchor="start" x="110.5" y="-508.5" font-family="Helvetica,sans-Serif" font-size="10.00" fill="#000000">+ operator!=()</text>
<text text-anchor="start" x="110.5" y="-497.5" font-family="Helvetica,sans-Serif" font-size="10.00" fill="#000000">+ differenceInBC()</text>
<text text-anchor="start" x="110.5" y="-486.5" font-family="Helvetica,sans-Serif" font-size="10.00" fill="#000000">+ toLong()</text>
<text text-anchor="start" x="110.5" y="-475.5" font-family="Helvetica,sans-Serif" font-size="10.00" fill="#000000">+ setFromLong()</text>
<text text-anchor="start" x="110.5" y="-464.5" font-family="Helvetica,sans-Serif" font-size="10.00" fill="#000000">+ operator&gt;()</text>
<text text-anchor="start" x="110.5" y="-453.5" font-family="Helvetica,sans-Serif" font-size="10.00" fill="#000000">+ operator&gt;=()</text>
<text text-anchor="start" x="110.5" y="-442.5" font-family="Helvetica,sans-Serif" font-size="10.00" fill="#000000">+ operator&lt;()</text>
<text text-anchor="start" x="110.5" y="-431.5" font-family="Helvetica,sans-Serif" font-size="10.00" fill="#000000">+ operator&lt;=()</text>
<text text-anchor="start" x="110.5" y="-420.5" font-family="Helvetica,sans-Serif" font-size="10.00" fill="#000000">+ operator&#45;&#45;()</text>
<text text-anchor="start" x="110.5" y="-409.5" font-family="Helvetica,sans-Serif" font-size="10.00" fill="#000000">+ operator&#45;&#45;()</text>
<text text-anchor="start" x="110.5" y="-398.5" font-family="Helvetica,sans-Serif" font-size="10.00" fill="#000000">+ operator++()</text>
<text text-anchor="start" x="110.5" y="-387.5" font-family="Helvetica,sans-Serif" font-size="10.00" fill="#000000">+ operator++()</text>
<text text-anchor="start" x="110.5" y="-376.5" font-family="Helvetica,sans-Serif" font-size="10.00" fill="#000000">+ operator+=()</text>
<text text-anchor="start" x="110.5" y="-365.5" font-family="Helvetica,sans-Serif" font-size="10.00" fill="#000000">+ operator&#45;=()</text>
<text text-anchor="start" x="110.5" y="-354.5" font-family="Helvetica,sans-Serif" font-size="10.00" fill="#000000">+ operator+=()</text>
<text text-anchor="start" x="110.5" y="-343.5" font-family="Helvetica,sans-Serif" font-size="10.00" fill="#000000">+ operator&#45;=()</text>
<text text-anchor="start" x="110.5" y="-332.5" font-family="Helvetica,sans-Serif" font-size="10.00" fill="#000000">+ operator+()</text>
<text text-anchor="start" x="110.5" y="-321.5" font-family="Helvetica,sans-Serif" font-size="10.00" fill="#000000">+ operator&#45;()</text>
<text text-anchor="start" x="110.5" y="-310.5" font-family="Helvetica,sans-Serif" font-size="10.00" fill="#000000">+ operator+()</text>
<text text-anchor="start" x="110.5" y="-299.5" font-family="Helvetica,sans-Serif" font-size="10.00" fill="#000000">+ operator&#45;()</text>
<text text-anchor="start" x="110.5" y="-288.5" font-family="Helvetica,sans-Serif" font-size="10.00" fill="#000000">+ print()</text>
<text text-anchor="start" x="110.5" y="-277.5" font-family="Helvetica,sans-Serif" font-size="10.00" fill="#000000">+ ClassDefNV()</text>
<text text-anchor="start" x="110.5" y="-266.5" font-family="Helvetica,sans-Serif" font-size="10.00" fill="#000000">+ bc2ns()</text>
<text text-anchor="start" x="110.5" y="-255.5" font-family="Helvetica,sans-Serif" font-size="10.00" fill="#000000">+ ns2bc()</text>
</a>
</g>
</g>
<!-- Node2&#45;&gt;Node1 -->
<g id="edge1" class="edge">
<title>Node2&#45;&gt;Node1</title>
<path fill="none" stroke="#404040" d="M198.316,-248.4496C203.7156,-238.0476 209.9061,-228.1397 217,-219 253.2857,-172.2499 313.1651,-142.1826 362.5932,-124.0351"/>
<polygon fill="none" stroke="#404040" points="362.6284,-124.0227 366.945,-118.2462 373.9374,-120.0091 369.6208,-125.7855 362.6284,-124.0227"/>
<text text-anchor="middle" x="250.5" y="-222" font-family="Helvetica,sans-Serif" font-size="10.00" fill="#000000"> +mIntRecord</text>
</g>
<!-- Node3 -->
<g id="node3" class="node">
<title>Node3</title>
<polygon fill="none" stroke="#bfbfbf" points="0,-782.5 0,-839.5 50,-839.5 50,-782.5 0,-782.5"/>
<text text-anchor="middle" x="25" y="-827.5" font-family="Helvetica,sans-Serif" font-size="10.00" fill="#000000">double</text>
<polyline fill="none" stroke="#bfbfbf" points="0,-820.5 50,-820.5 "/>
<text text-anchor="middle" x="25" y="-808.5" font-family="Helvetica,sans-Serif" font-size="10.00" fill="#000000"> </text>
<polyline fill="none" stroke="#bfbfbf" points="0,-801.5 50,-801.5 "/>
<text text-anchor="middle" x="25" y="-789.5" font-family="Helvetica,sans-Serif" font-size="10.00" fill="#000000"> </text>
</g>
<!-- Node3&#45;&gt;Node2 -->
<g id="edge2" class="edge">
<title>Node3&#45;&gt;Node2</title>
<path fill="none" stroke="#404040" d="M26.1276,-782.4277C27.8918,-754.6469 32.4138,-711.5561 44,-676 56.9065,-636.392 76.6044,-595.4948 96.2821,-559.7109"/>
<polygon fill="none" stroke="#404040" points="96.5353,-559.2568 95.9647,-552.0683 102.3808,-548.7768 102.9514,-555.9653 96.5353,-559.2568"/>
<text text-anchor="middle" x="82" y="-684.5" font-family="Helvetica,sans-Serif" font-size="10.00" fill="#000000"> +DummyTime</text>
</g>
<!-- Node4 -->
<g id="node4" class="node">
<title>Node4</title>
<polygon fill="none" stroke="#bfbfbf" points="96,-782.5 96,-839.5 152,-839.5 152,-782.5 96,-782.5"/>
<text text-anchor="middle" x="124" y="-827.5" font-family="Helvetica,sans-Serif" font-size="10.00" fill="#000000">uint16_t</text>
<polyline fill="none" stroke="#bfbfbf" points="96,-820.5 152,-820.5 "/>
<text text-anchor="middle" x="124" y="-808.5" font-family="Helvetica,sans-Serif" font-size="10.00" fill="#000000"> </text>
<polyline fill="none" stroke="#bfbfbf" points="96,-801.5 152,-801.5 "/>
<text text-anchor="middle" x="124" y="-789.5" font-family="Helvetica,sans-Serif" font-size="10.00" fill="#000000"> </text>
</g>
<!-- Node4&#45;&gt;Node2 -->
<g id="edge3" class="edge">
<title>Node4&#45;&gt;Node2</title>
<path fill="none" stroke="#404040" d="M122.8805,-782.4925C122.1199,-755.1259 121.7625,-712.6552 125,-676 125.1841,-673.9156 125.377,-671.8213 125.5783,-669.7186"/>
<polygon fill="none" stroke="#404040" points="125.5976,-669.529 122.2291,-663.153 126.8191,-657.5914 130.1875,-663.9674 125.5976,-669.529"/>
<text text-anchor="middle" x="157" y="-690" font-family="Helvetica,sans-Serif" font-size="10.00" fill="#000000"> +DummyBC</text>
<text text-anchor="middle" x="157" y="-679" font-family="Helvetica,sans-Serif" font-size="10.00" fill="#000000">+bc</text>
</g>
<!-- Node5 -->
<g id="node5" class="node">
<title>Node5</title>
<g id="a_node5"><a xlink:href="../../d3/d87/classuint32__t.html" target="_top" xlink:title="{uint32_t\n||}">
<polygon fill="none" stroke="#000000" points="183,-782.5 183,-839.5 239,-839.5 239,-782.5 183,-782.5"/>
<text text-anchor="middle" x="211" y="-827.5" font-family="Helvetica,sans-Serif" font-size="10.00" fill="#000000">uint32_t</text>
<polyline fill="none" stroke="#000000" points="183,-820.5 239,-820.5 "/>
<text text-anchor="middle" x="211" y="-808.5" font-family="Helvetica,sans-Serif" font-size="10.00" fill="#000000"> </text>
<polyline fill="none" stroke="#000000" points="183,-801.5 239,-801.5 "/>
<text text-anchor="middle" x="211" y="-789.5" font-family="Helvetica,sans-Serif" font-size="10.00" fill="#000000"> </text>
</a>
</g>
</g>
<!-- Node5&#45;&gt;Node2 -->
<g id="edge4" class="edge">
<title>Node5&#45;&gt;Node2</title>
<path fill="none" stroke="#404040" d="M207.1531,-782.3085C203.6304,-756.0348 198.0633,-714.5138 192.0534,-669.6899"/>
<polygon fill="none" stroke="#404040" points="192.0275,-669.4962 187.2656,-664.081 190.4328,-657.6026 195.1947,-663.0178 192.0275,-669.4962"/>
<text text-anchor="middle" x="232" y="-690" font-family="Helvetica,sans-Serif" font-size="10.00" fill="#000000"> +orbit</text>
<text text-anchor="middle" x="232" y="-679" font-family="Helvetica,sans-Serif" font-size="10.00" fill="#000000">+DummyOrbit</text>
</g>
<!-- Node6 -->
<g id="node6" class="node">
<title>Node6</title>
<polygon fill="none" stroke="#bfbfbf" points="289,-782.5 289,-839.5 339,-839.5 339,-782.5 289,-782.5"/>
<text text-anchor="middle" x="314" y="-827.5" font-family="Helvetica,sans-Serif" font-size="10.00" fill="#000000">uint8_t</text>
<polyline fill="none" stroke="#bfbfbf" points="289,-820.5 339,-820.5 "/>
<text text-anchor="middle" x="314" y="-808.5" font-family="Helvetica,sans-Serif" font-size="10.00" fill="#000000"> </text>
<polyline fill="none" stroke="#bfbfbf" points="289,-801.5 339,-801.5 "/>
<text text-anchor="middle" x="314" y="-789.5" font-family="Helvetica,sans-Serif" font-size="10.00" fill="#000000"> </text>
</g>
<!-- Node6&#45;&gt;Node1 -->
<g id="edge5" class="edge">
<title>Node6&#45;&gt;Node1</title>
<path fill="none" stroke="#404040" d="M306.2972,-782.3954C284.875,-697.2505 230.9947,-439.476 307,-248 319.3713,-216.8338 341.7936,-188.4316 365.0696,-165.0543"/>
<polygon fill="none" stroke="#404040" points="365.0741,-165.0499 366.5781,-157.9974 373.6666,-156.6732 372.1626,-163.7257 365.0741,-165.0499"/>
<text text-anchor="middle" x="347" y="-450.5" font-family="Helvetica,sans-Serif" font-size="10.00" fill="#000000"> +mEventStatus</text>
</g>
<!-- Node8 -->
<g id="node8" class="node">
<title>Node8</title>
<g id="a_node8"><a xlink:href="../../db/df8/structo2_1_1ft0_1_1Triggers.html" target="_top" xlink:title="{o2::ft0::Triggers\n||+ Triggers()\l+ Triggers()\l+ getOrA()\l+ getOrC()\l+ getVertex()\l+ getCen()\l+ getSCen()\l+ setTriggers()\l+ cleanTriggers()\l+ ClassDefNV()\l}">
<polygon fill="none" stroke="#000000" points="396,-375 396,-531 496,-531 496,-375 396,-375"/>
<text text-anchor="middle" x="446" y="-519" font-family="Helvetica,sans-Serif" font-size="10.00" fill="#000000">o2::ft0::Triggers</text>
<polyline fill="none" stroke="#000000" points="396,-512 496,-512 "/>
<text text-anchor="middle" x="446" y="-500" font-family="Helvetica,sans-Serif" font-size="10.00" fill="#000000"> </text>
<polyline fill="none" stroke="#000000" points="396,-493 496,-493 "/>
<text text-anchor="start" x="404" y="-481" font-family="Helvetica,sans-Serif" font-size="10.00" fill="#000000">+ Triggers()</text>
<text text-anchor="start" x="404" y="-470" font-family="Helvetica,sans-Serif" font-size="10.00" fill="#000000">+ Triggers()</text>
<text text-anchor="start" x="404" y="-459" font-family="Helvetica,sans-Serif" font-size="10.00" fill="#000000">+ getOrA()</text>
<text text-anchor="start" x="404" y="-448" font-family="Helvetica,sans-Serif" font-size="10.00" fill="#000000">+ getOrC()</text>
<text text-anchor="start" x="404" y="-437" font-family="Helvetica,sans-Serif" font-size="10.00" fill="#000000">+ getVertex()</text>
<text text-anchor="start" x="404" y="-426" font-family="Helvetica,sans-Serif" font-size="10.00" fill="#000000">+ getCen()</text>
<text text-anchor="start" x="404" y="-415" font-family="Helvetica,sans-Serif" font-size="10.00" fill="#000000">+ getSCen()</text>
<text text-anchor="start" x="404" y="-404" font-family="Helvetica,sans-Serif" font-size="10.00" fill="#000000">+ setTriggers()</text>
<text text-anchor="start" x="404" y="-393" font-family="Helvetica,sans-Serif" font-size="10.00" fill="#000000">+ cleanTriggers()</text>
<text text-anchor="start" x="404" y="-382" font-family="Helvetica,sans-Serif" font-size="10.00" fill="#000000">+ ClassDefNV()</text>
</a>
</g>
</g>
<!-- Node6&#45;&gt;Node8 -->
<g id="edge9" class="edge">
<title>Node6&#45;&gt;Node8</title>
<path fill="none" stroke="#404040" d="M315.5879,-782.3796C318.5459,-752.9696 326.9831,-707.1947 351,-676 360.7192,-663.3761 372.0607,-670.4514 382,-658 408.1386,-625.2549 423.6615,-581.7562 432.8519,-543.2545"/>
<polygon fill="none" stroke="#404040" points="432.8664,-543.1897 430.2839,-536.4569 435.5055,-531.4835 438.088,-538.2163 432.8664,-543.1897"/>
<text text-anchor="middle" x="390.5" y="-684.5" font-family="Helvetica,sans-Serif" font-size="10.00" fill="#000000"> +triggersignals</text>
</g>
<!-- Node7 -->
<g id="node7" class="node">
<title>Node7</title>
<polygon fill="none" stroke="#bfbfbf" points="514.5,-424.5 514.5,-481.5 543.5,-481.5 543.5,-424.5 514.5,-424.5"/>
<text text-anchor="middle" x="529" y="-469.5" font-family="Helvetica,sans-Serif" font-size="10.00" fill="#000000">int</text>
<polyline fill="none" stroke="#bfbfbf" points="514.5,-462.5 543.5,-462.5 "/>
<text text-anchor="middle" x="529" y="-450.5" font-family="Helvetica,sans-Serif" font-size="10.00" fill="#000000"> </text>
<polyline fill="none" stroke="#bfbfbf" points="514.5,-443.5 543.5,-443.5 "/>
<text text-anchor="middle" x="529" y="-431.5" font-family="Helvetica,sans-Serif" font-size="10.00" fill="#000000"> </text>
</g>
<!-- Node7&#45;&gt;Node1 -->
<g id="edge6" class="edge">
<title>Node7&#45;&gt;Node1</title>
<path fill="none" stroke="#404040" d="M529.7674,-424.2521C530.1977,-379.4478 527.9634,-290.6686 507,-219 506.3301,-216.7098 505.6152,-214.4118 504.86,-212.1104"/>
<polygon fill="none" stroke="#404040" points="504.7862,-211.9026 499.0087,-207.5874 500.7699,-200.5947 506.5474,-204.9099 504.7862,-211.9026"/>
<text text-anchor="middle" x="539" y="-222" font-family="Helvetica,sans-Serif" font-size="10.00" fill="#000000"> +mEventID</text>
</g>
<!-- Node8&#45;&gt;Node1 -->
<g id="edge7" class="edge">
<title>Node8&#45;&gt;Node1</title>
<path fill="none" stroke="#404040" d="M446,-374.7688C446,-327.161 446,-265.5629 446,-212.8069"/>
<polygon fill="none" stroke="#404040" points="446.0001,-212.6504 442,-206.6504 446,-200.6504 450,-206.6504 446.0001,-212.6504"/>
<text text-anchor="middle" x="476" y="-222" font-family="Helvetica,sans-Serif" font-size="10.00" fill="#000000"> +mTriggers</text>
</g>
<!-- Node9 -->
<g id="node9" class="node">
<title>Node9</title>
<polygon fill="none" stroke="#bfbfbf" points="411,-782.5 411,-839.5 455,-839.5 455,-782.5 411,-782.5"/>
<text text-anchor="middle" x="433" y="-827.5" font-family="Helvetica,sans-Serif" font-size="10.00" fill="#000000">int8_t</text>
<polyline fill="none" stroke="#bfbfbf" points="411,-820.5 455,-820.5 "/>
<text text-anchor="middle" x="433" y="-808.5" font-family="Helvetica,sans-Serif" font-size="10.00" fill="#000000"> </text>
<polyline fill="none" stroke="#bfbfbf" points="411,-801.5 455,-801.5 "/>
<text text-anchor="middle" x="433" y="-789.5" font-family="Helvetica,sans-Serif" font-size="10.00" fill="#000000"> </text>
</g>
<!-- Node9&#45;&gt;Node8 -->
<g id="edge8" class="edge">
<title>Node9&#45;&gt;Node8</title>
<path fill="none" stroke="#404040" d="M432.8274,-782.2872C432.7544,-754.9527 432.8783,-712.6635 434,-676 435.3379,-632.2693 437.8279,-583.7619 440.1944,-543.1859"/>
<polygon fill="none" stroke="#404040" points="440.1984,-543.1175 436.5596,-536.8918 440.9069,-531.1384 444.5457,-537.3641 440.1984,-543.1175"/>
<text text-anchor="middle" x="458.5" y="-690" font-family="Helvetica,sans-Serif" font-size="10.00" fill="#000000"> +nChanA</text>
<text text-anchor="middle" x="458.5" y="-679" font-family="Helvetica,sans-Serif" font-size="10.00" fill="#000000">+nChanC</text>
</g>
<!-- Node10 -->
<g id="node10" class="node">
<title>Node10</title>
<polygon fill="none" stroke="#bfbfbf" points="479,-782.5 479,-839.5 529,-839.5 529,-782.5 479,-782.5"/>
<text text-anchor="middle" x="504" y="-827.5" font-family="Helvetica,sans-Serif" font-size="10.00" fill="#000000">int32_t</text>
<polyline fill="none" stroke="#bfbfbf" points="479,-820.5 529,-820.5 "/>
<text text-anchor="middle" x="504" y="-808.5" font-family="Helvetica,sans-Serif" font-size="10.00" fill="#000000"> </text>
<polyline fill="none" stroke="#bfbfbf" points="479,-801.5 529,-801.5 "/>
<text text-anchor="middle" x="504" y="-789.5" font-family="Helvetica,sans-Serif" font-size="10.00" fill="#000000"> </text>
</g>
<!-- Node10&#45;&gt;Node8 -->
<g id="edge10" class="edge">
<title>Node10&#45;&gt;Node8</title>
<path fill="none" stroke="#404040" d="M499.6186,-782.2813C495.4274,-754.9424 488.8909,-712.6504 483,-676 475.9721,-632.276 467.9508,-583.7694 461.1773,-543.1922"/>
<polygon fill="none" stroke="#404040" points="461.142,-542.9801 456.2077,-537.7215 459.164,-531.1443 464.0983,-536.4029 461.142,-542.9801"/>
<text text-anchor="middle" x="507.5" y="-690" font-family="Helvetica,sans-Serif" font-size="10.00" fill="#000000"> +amplA</text>
<text text-anchor="middle" x="507.5" y="-679" font-family="Helvetica,sans-Serif" font-size="10.00" fill="#000000">+amplC</text>
</g>
<!-- Node11 -->
<g id="node11" class="node">
<title>Node11</title>
<polygon fill="none" stroke="#bfbfbf" points="547,-782.5 547,-839.5 597,-839.5 597,-782.5 547,-782.5"/>
<text text-anchor="middle" x="572" y="-827.5" font-family="Helvetica,sans-Serif" font-size="10.00" fill="#000000">int16_t</text>
<polyline fill="none" stroke="#bfbfbf" points="547,-820.5 597,-820.5 "/>
<text text-anchor="middle" x="572" y="-808.5" font-family="Helvetica,sans-Serif" font-size="10.00" fill="#000000"> </text>
<polyline fill="none" stroke="#bfbfbf" points="547,-801.5 597,-801.5 "/>
<text text-anchor="middle" x="572" y="-789.5" font-family="Helvetica,sans-Serif" font-size="10.00" fill="#000000"> </text>
</g>
<!-- Node11&#45;&gt;Node8 -->
<g id="edge11" class="edge">
<title>Node11&#45;&gt;Node8</title>
<path fill="none" stroke="#404040" d="M569.6035,-782.3094C565.9005,-753.053 556.5401,-707.594 533,-676 524.161,-664.1368 513.8331,-669.8676 505,-658 480.3579,-624.8924 465.9896,-581.7625 457.6199,-543.6096"/>
<polygon fill="none" stroke="#404040" points="457.5293,-543.1694 452.4009,-538.0999 455.1079,-531.4162 460.2363,-536.4857 457.5293,-543.1694"/>
<text text-anchor="middle" x="565.5" y="-690" font-family="Helvetica,sans-Serif" font-size="10.00" fill="#000000"> +timeA</text>
<text text-anchor="middle" x="565.5" y="-679" font-family="Helvetica,sans-Serif" font-size="10.00" fill="#000000">+timeC</text>
</g>
<!-- Node12 -->
<g id="node12" class="node">
<title>Node12</title>
<g id="a_node12"><a xlink:href="../../d7/dc7/classo2_1_1dataformats_1_1RangeReference.html" target="_top" xlink:title="{o2::dataformats::RangeReference\l\&lt; int, int \&gt;\n||+ RangeReference()\l+ RangeReference()\l+ RangeReference()\l+ ~RangeReference()\l+ set()\l+ clear()\l+ getFirstEntry()\l+ getEntries()\l+ setFirstEntry()\l+ setEntries()\l+ changeEntriesBy()\l+ operator==()\l}">
<polygon fill="none" stroke="#000000" points="588,-358.5 588,-547.5 768,-547.5 768,-358.5 588,-358.5"/>
<text text-anchor="start" x="596" y="-535.5" font-family="Helvetica,sans-Serif" font-size="10.00" fill="#000000">o2::dataformats::RangeReference</text>
<text text-anchor="middle" x="678" y="-524.5" font-family="Helvetica,sans-Serif" font-size="10.00" fill="#000000">&lt; int, int &gt;</text>
<polyline fill="none" stroke="#000000" points="588,-517.5 768,-517.5 "/>
<text text-anchor="middle" x="678" y="-505.5" font-family="Helvetica,sans-Serif" font-size="10.00" fill="#000000"> </text>
<polyline fill="none" stroke="#000000" points="588,-498.5 768,-498.5 "/>
<text text-anchor="start" x="596" y="-486.5" font-family="Helvetica,sans-Serif" font-size="10.00" fill="#000000">+ RangeReference()</text>
<text text-anchor="start" x="596" y="-475.5" font-family="Helvetica,sans-Serif" font-size="10.00" fill="#000000">+ RangeReference()</text>
<text text-anchor="start" x="596" y="-464.5" font-family="Helvetica,sans-Serif" font-size="10.00" fill="#000000">+ RangeReference()</text>
<text text-anchor="start" x="596" y="-453.5" font-family="Helvetica,sans-Serif" font-size="10.00" fill="#000000">+ ~RangeReference()</text>
<text text-anchor="start" x="596" y="-442.5" font-family="Helvetica,sans-Serif" font-size="10.00" fill="#000000">+ set()</text>
<text text-anchor="start" x="596" y="-431.5" font-family="Helvetica,sans-Serif" font-size="10.00" fill="#000000">+ clear()</text>
<text text-anchor="start" x="596" y="-420.5" font-family="Helvetica,sans-Serif" font-size="10.00" fill="#000000">+ getFirstEntry()</text>
<text text-anchor="start" x="596" y="-409.5" font-family="Helvetica,sans-Serif" font-size="10.00" fill="#000000">+ getEntries()</text>
<text text-anchor="start" x="596" y="-398.5" font-family="Helvetica,sans-Serif" font-size="10.00" fill="#000000">+ setFirstEntry()</text>
<text text-anchor="start" x="596" y="-387.5" font-family="Helvetica,sans-Serif" font-size="10.00" fill="#000000">+ setEntries()</text>
<text text-anchor="start" x="596" y="-376.5" font-family="Helvetica,sans-Serif" font-size="10.00" fill="#000000">+ changeEntriesBy()</text>
<text text-anchor="start" x="596" y="-365.5" font-family="Helvetica,sans-Serif" font-size="10.00" fill="#000000">+ operator==()</text>
</a>
</g>
</g>
<!-- Node12&#45;&gt;Node1 -->
<g id="edge12" class="edge">
<title>Node12&#45;&gt;Node1</title>
<path fill="none" stroke="#404040" d="M645.5551,-358.4322C627.8451,-313.8924 603.3083,-261.3735 573,-219 559.8998,-200.6848 543.6365,-182.972 527.1701,-167.0686"/>
<polygon fill="none" stroke="#404040" points="526.7443,-166.6665 519.6357,-165.455 518.02,-158.4272 525.1286,-159.6387 526.7443,-166.6665"/>
<text text-anchor="middle" x="589.5" y="-222" font-family="Helvetica,sans-Serif" font-size="10.00" fill="#000000"> +ref</text>
</g>
<!-- Node13 -->
<g id="node13" class="node">
<title>Node13</title>
<g id="a_node13"><a xlink:href="../../d7/dc7/classo2_1_1dataformats_1_1RangeReference.html" target="_top" xlink:title="{o2::dataformats::RangeReference\l\&lt; FirstEntry, NElem \&gt;\n||+ RangeReference()\l+ RangeReference()\l+ RangeReference()\l+ ~RangeReference()\l+ set()\l+ clear()\l+ getFirstEntry()\l+ getEntries()\l+ setFirstEntry()\l+ setEntries()\l+ changeEntriesBy()\l+ operator==()\l}">
<polygon fill="none" stroke="#000000" points="615,-716.5 615,-905.5 795,-905.5 795,-716.5 615,-716.5"/>
<text text-anchor="start" x="623" y="-893.5" font-family="Helvetica,sans-Serif" font-size="10.00" fill="#000000">o2::dataformats::RangeReference</text>
<text text-anchor="middle" x="705" y="-882.5" font-family="Helvetica,sans-Serif" font-size="10.00" fill="#000000">&lt; FirstEntry, NElem &gt;</text>
<polyline fill="none" stroke="#000000" points="615,-875.5 795,-875.5 "/>
<text text-anchor="middle" x="705" y="-863.5" font-family="Helvetica,sans-Serif" font-size="10.00" fill="#000000"> </text>
<polyline fill="none" stroke="#000000" points="615,-856.5 795,-856.5 "/>
<text text-anchor="start" x="623" y="-844.5" font-family="Helvetica,sans-Serif" font-size="10.00" fill="#000000">+ RangeReference()</text>
<text text-anchor="start" x="623" y="-833.5" font-family="Helvetica,sans-Serif" font-size="10.00" fill="#000000">+ RangeReference()</text>
<text text-anchor="start" x="623" y="-822.5" font-family="Helvetica,sans-Serif" font-size="10.00" fill="#000000">+ RangeReference()</text>
<text text-anchor="start" x="623" y="-811.5" font-family="Helvetica,sans-Serif" font-size="10.00" fill="#000000">+ ~RangeReference()</text>
<text text-anchor="start" x="623" y="-800.5" font-family="Helvetica,sans-Serif" font-size="10.00" fill="#000000">+ set()</text>
<text text-anchor="start" x="623" y="-789.5" font-family="Helvetica,sans-Serif" font-size="10.00" fill="#000000">+ clear()</text>
<text text-anchor="start" x="623" y="-778.5" font-family="Helvetica,sans-Serif" font-size="10.00" fill="#000000">+ getFirstEntry()</text>
<text text-anchor="start" x="623" y="-767.5" font-family="Helvetica,sans-Serif" font-size="10.00" fill="#000000">+ getEntries()</text>
<text text-anchor="start" x="623" y="-756.5" font-family="Helvetica,sans-Serif" font-size="10.00" fill="#000000">+ setFirstEntry()</text>
<text text-anchor="start" x="623" y="-745.5" font-family="Helvetica,sans-Serif" font-size="10.00" fill="#000000">+ setEntries()</text>
<text text-anchor="start" x="623" y="-734.5" font-family="Helvetica,sans-Serif" font-size="10.00" fill="#000000">+ changeEntriesBy()</text>
<text text-anchor="start" x="623" y="-723.5" font-family="Helvetica,sans-Serif" font-size="10.00" fill="#000000">+ operator==()</text>
</a>
</g>
</g>
<!-- Node13&#45;&gt;Node12 -->
<g id="edge13" class="edge">
<title>Node13&#45;&gt;Node12</title>
<path fill="none" stroke="#ffa500" d="M697.0998,-706.2496C693.3183,-656.1095 688.8243,-596.5225 685.1458,-547.7479"/>
<polygon fill="#ffa500" stroke="#ffa500" points="693.6285,-706.763 697.8708,-716.4714 700.6087,-706.2365 693.6285,-706.763"/>
<text text-anchor="middle" x="725" y="-684.5" font-family="Helvetica,sans-Serif" font-size="10.00" fill="#000000"> &lt; int, int &gt;</text>
</g>
</g>
</svg>
