<?xml version="1.0" encoding="UTF-8" standalone="no"?>
<!DOCTYPE svg PUBLIC "-//W3C//DTD SVG 1.1//EN"
 "http://www.w3.org/Graphics/SVG/1.1/DTD/svg11.dtd">
<!-- Generated by graphviz version 2.40.1 (20161225.0304)
 -->
<!-- Title: /home/travis/build/AliceO2Group/AliceO2/Analysis/DataModel/include/PID/PIDResponse.h Pages: 1 -->
<svg width="1121pt" height="239pt"
 viewBox="0.00 0.00 1120.50 239.00" xmlns="http://www.w3.org/2000/svg" xmlns:xlink="http://www.w3.org/1999/xlink">
<g id="graph0" class="graph" transform="scale(1 1) rotate(0) translate(4 235)">
<title>/home/travis/build/AliceO2Group/AliceO2/Analysis/DataModel/include/PID/PIDResponse.h</title>
<!-- Node212 -->
<g id="node1" class="node">
<title>Node212</title>
<polygon fill="#bfbfbf" stroke="#000000" points="423.5,-178.5 423.5,-230.5 578.5,-230.5 578.5,-178.5 423.5,-178.5"/>
<text text-anchor="start" x="431.5" y="-218.5" font-family="Helvetica,sans-Serif" font-size="10.00" fill="#000000">/home/travis/build</text>
<text text-anchor="start" x="431.5" y="-207.5" font-family="Helvetica,sans-Serif" font-size="10.00" fill="#000000">/AliceO2Group/AliceO2</text>
<text text-anchor="start" x="431.5" y="-196.5" font-family="Helvetica,sans-Serif" font-size="10.00" fill="#000000">/Analysis/DataModel/include</text>
<text text-anchor="middle" x="501" y="-185.5" font-family="Helvetica,sans-Serif" font-size="10.00" fill="#000000">/PID/PIDResponse.h</text>
</g>
<!-- Node213 -->
<g id="node2" class="node">
<title>Node213</title>
<g id="a_node2"><a xlink:href="../../d4/dbd/ReducedInfoTables_8h.html" target="_top" xlink:title="/home/travis/build\l/AliceO2Group/AliceO2\l/Analysis/DataModel/include\l/Analysis/ReducedInfoTables.h">
<polygon fill="none" stroke="#000000" points="94,-89.5 94,-141.5 258,-141.5 258,-89.5 94,-89.5"/>
<text text-anchor="start" x="102" y="-129.5" font-family="Helvetica,sans-Serif" font-size="10.00" fill="#000000">/home/travis/build</text>
<text text-anchor="start" x="102" y="-118.5" font-family="Helvetica,sans-Serif" font-size="10.00" fill="#000000">/AliceO2Group/AliceO2</text>
<text text-anchor="start" x="102" y="-107.5" font-family="Helvetica,sans-Serif" font-size="10.00" fill="#000000">/Analysis/DataModel/include</text>
<text text-anchor="middle" x="176" y="-96.5" font-family="Helvetica,sans-Serif" font-size="10.00" fill="#000000">/Analysis/ReducedInfoTables.h</text>
</a>
</g>
</g>
<!-- Node212&#45;&gt;Node213 -->
<g id="edge1" class="edge">
<title>Node212&#45;&gt;Node213</title>
<path fill="none" stroke="#191970" d="M413.6041,-181.6534C369.5693,-170.016 315.3846,-155.5048 267,-142 264.1472,-141.2037 261.2456,-140.3884 258.3163,-139.5607"/>
<polygon fill="#191970" stroke="#191970" points="412.852,-185.0747 423.4141,-184.2428 414.6386,-178.3065 412.852,-185.0747"/>
</g>
<!-- Node214 -->
<g id="node3" class="node">
<title>Node214</title>
<g id="a_node3"><a xlink:href="../../d9/d14/tableMaker_8cxx.html" target="_top" xlink:title="/home/travis/build\l/AliceO2Group/AliceO2\l/Analysis/Tasks/PWGDQ\l/tableMaker.cxx">
<polygon fill="none" stroke="#000000" points="0,-.5 0,-52.5 132,-52.5 132,-.5 0,-.5"/>
<text text-anchor="start" x="8" y="-40.5" font-family="Helvetica,sans-Serif" font-size="10.00" fill="#000000">/home/travis/build</text>
<text text-anchor="start" x="8" y="-29.5" font-family="Helvetica,sans-Serif" font-size="10.00" fill="#000000">/AliceO2Group/AliceO2</text>
<text text-anchor="start" x="8" y="-18.5" font-family="Helvetica,sans-Serif" font-size="10.00" fill="#000000">/Analysis/Tasks/PWGDQ</text>
<text text-anchor="middle" x="66" y="-7.5" font-family="Helvetica,sans-Serif" font-size="10.00" fill="#000000">/tableMaker.cxx</text>
</a>
</g>
</g>
<!-- Node212&#45;&gt;Node214 -->
<g id="edge7" class="edge">
<title>Node212&#45;&gt;Node214</title>
<path fill="none" stroke="#191970" d="M413.0025,-196.7841C297.8754,-185.8615 107.9984,-164.6806 85,-142 61.7046,-119.0266 60.1955,-79.2665 62.2835,-52.9208"/>
<polygon fill="#191970" stroke="#191970" points="412.9317,-200.2928 423.2156,-197.7448 413.5874,-193.3236 412.9317,-200.2928"/>
</g>
<!-- Node216 -->
<g id="node5" class="node">
<title>Node216</title>
<g id="a_node5"><a xlink:href="../../df/ded/dumpDataModel_8cxx.html" target="_top" xlink:title="/home/travis/build\l/AliceO2Group/AliceO2\l/Analysis/DataModel/src\l/dumpDataModel.cxx">
<polygon fill="none" stroke="#000000" points="276,-89.5 276,-141.5 410,-141.5 410,-89.5 276,-89.5"/>
<text text-anchor="start" x="284" y="-129.5" font-family="Helvetica,sans-Serif" font-size="10.00" fill="#000000">/home/travis/build</text>
<text text-anchor="start" x="284" y="-118.5" font-family="Helvetica,sans-Serif" font-size="10.00" fill="#000000">/AliceO2Group/AliceO2</text>
<text text-anchor="start" x="284" y="-107.5" font-family="Helvetica,sans-Serif" font-size="10.00" fill="#000000">/Analysis/DataModel/src</text>
<text text-anchor="middle" x="343" y="-96.5" font-family="Helvetica,sans-Serif" font-size="10.00" fill="#000000">/dumpDataModel.cxx</text>
</a>
</g>
</g>
<!-- Node212&#45;&gt;Node216 -->
<g id="edge4" class="edge">
<title>Node212&#45;&gt;Node216</title>
<path fill="none" stroke="#191970" d="M445.5795,-173.2821C427.1629,-162.9082 406.864,-151.4741 389.2179,-141.5341"/>
<polygon fill="#191970" stroke="#191970" points="444.0188,-176.42 454.4494,-178.2784 447.4543,-170.321 444.0188,-176.42"/>
</g>
<!-- Node217 -->
<g id="node6" class="node">
<title>Node217</title>
<g id="a_node6"><a xlink:href="../../d5/d53/pidTOF_8cxx.html" target="_top" xlink:title="/home/travis/build\l/AliceO2Group/AliceO2\l/Analysis/Tasks/pidTOF.cxx">
<polygon fill="none" stroke="#000000" points="428,-95 428,-136 574,-136 574,-95 428,-95"/>
<text text-anchor="start" x="436" y="-124" font-family="Helvetica,sans-Serif" font-size="10.00" fill="#000000">/home/travis/build</text>
<text text-anchor="start" x="436" y="-113" font-family="Helvetica,sans-Serif" font-size="10.00" fill="#000000">/AliceO2Group/AliceO2</text>
<text text-anchor="middle" x="501" y="-102" font-family="Helvetica,sans-Serif" font-size="10.00" fill="#000000">/Analysis/Tasks/pidTOF.cxx</text>
</a>
</g>
</g>
<!-- Node212&#45;&gt;Node217 -->
<g id="edge5" class="edge">
<title>Node212&#45;&gt;Node217</title>
<path fill="none" stroke="#191970" d="M501,-168.1335C501,-157.2443 501,-145.6825 501,-136.1771"/>
<polygon fill="#191970" stroke="#191970" points="497.5001,-168.2784 501,-178.2784 504.5001,-168.2785 497.5001,-168.2784"/>
</g>
<!-- Node218 -->
<g id="node7" class="node">
<title>Node218</title>
<g id="a_node7"><a xlink:href="../../db/da2/pidTPC_8cxx.html" target="_top" xlink:title="/home/travis/build\l/AliceO2Group/AliceO2\l/Analysis/Tasks/pidTPC.cxx">
<polygon fill="none" stroke="#000000" points="592,-95 592,-136 740,-136 740,-95 592,-95"/>
<text text-anchor="start" x="600" y="-124" font-family="Helvetica,sans-Serif" font-size="10.00" fill="#000000">/home/travis/build</text>
<text text-anchor="start" x="600" y="-113" font-family="Helvetica,sans-Serif" font-size="10.00" fill="#000000">/AliceO2Group/AliceO2</text>
<text text-anchor="middle" x="666" y="-102" font-family="Helvetica,sans-Serif" font-size="10.00" fill="#000000">/Analysis/Tasks/pidTPC.cxx</text>
</a>
</g>
</g>
<!-- Node212&#45;&gt;Node218 -->
<g id="edge6" class="edge">
<title>Node212&#45;&gt;Node218</title>
<path fill="none" stroke="#191970" d="M558.5905,-173.436C581.5588,-161.0471 607.3695,-147.1249 627.932,-136.0336"/>
<polygon fill="#191970" stroke="#191970" points="556.7527,-170.4506 549.613,-178.2784 560.0759,-176.6115 556.7527,-170.4506"/>
</g>
<!-- Node219 -->
<g id="node8" class="node">
<title>Node219</title>
<g id="a_node8"><a xlink:href="../../df/d80/spectraTOF_8cxx.html" target="_top" xlink:title="/home/travis/build\l/AliceO2Group/AliceO2\l/Analysis/Tasks/spectraTOF.cxx">
<polygon fill="none" stroke="#000000" points="758.5,-95 758.5,-136 925.5,-136 925.5,-95 758.5,-95"/>
<text text-anchor="start" x="766.5" y="-124" font-family="Helvetica,sans-Serif" font-size="10.00" fill="#000000">/home/travis/build</text>
<text text-anchor="start" x="766.5" y="-113" font-family="Helvetica,sans-Serif" font-size="10.00" fill="#000000">/AliceO2Group/AliceO2</text>
<text text-anchor="middle" x="842" y="-102" font-family="Helvetica,sans-Serif" font-size="10.00" fill="#000000">/Analysis/Tasks/spectraTOF.cxx</text>
</a>
</g>
</g>
<!-- Node212&#45;&gt;Node219 -->
<g id="edge8" class="edge">
<title>Node212&#45;&gt;Node219</title>
<path fill="none" stroke="#191970" d="M588.4724,-183.1513C636.0399,-171.3669 695.8521,-156.2656 749,-142 756.0533,-140.1068 763.3949,-138.0918 770.723,-136.0512"/>
<polygon fill="#191970" stroke="#191970" points="587.3818,-179.8155 578.5147,-185.6142 589.0625,-186.6108 587.3818,-179.8155"/>
</g>
<!-- Node220 -->
<g id="node9" class="node">
<title>Node220</title>
<g id="a_node9"><a xlink:href="../../da/db2/spectraTPC_8cxx.html" target="_top" xlink:title="/home/travis/build\l/AliceO2Group/AliceO2\l/Analysis/Tasks/spectraTPC.cxx">
<polygon fill="none" stroke="#000000" points="943.5,-95 943.5,-136 1112.5,-136 1112.5,-95 943.5,-95"/>
<text text-anchor="start" x="951.5" y="-124" font-family="Helvetica,sans-Serif" font-size="10.00" fill="#000000">/home/travis/build</text>
<text text-anchor="start" x="951.5" y="-113" font-family="Helvetica,sans-Serif" font-size="10.00" fill="#000000">/AliceO2Group/AliceO2</text>
<text text-anchor="middle" x="1028" y="-102" font-family="Helvetica,sans-Serif" font-size="10.00" fill="#000000">/Analysis/Tasks/spectraTPC.cxx</text>
</a>
</g>
</g>
<!-- Node212&#45;&gt;Node220 -->
<g id="edge9" class="edge">
<title>Node212&#45;&gt;Node220</title>
<path fill="none" stroke="#191970" d="M588.7313,-195.3765C676.8322,-185.3937 816.1829,-167.3632 935,-142 943.1272,-140.2651 951.5885,-138.2104 959.9509,-136.0243"/>
<polygon fill="#191970" stroke="#191970" points="588.3244,-191.9001 578.7777,-196.4948 589.106,-198.8564 588.3244,-191.9001"/>
</g>
<!-- Node213&#45;&gt;Node214 -->
<g id="edge2" class="edge">
<title>Node213&#45;&gt;Node214</title>
<path fill="none" stroke="#191970" d="M135.6599,-82.8612C123.3135,-72.8718 109.9039,-62.0222 98.177,-52.5341"/>
<polygon fill="#191970" stroke="#191970" points="133.6157,-85.7094 143.5913,-89.2784 138.0187,-80.2675 133.6157,-85.7094"/>
</g>
<!-- Node215 -->
<g id="node4" class="node">
<title>Node215</title>
<g id="a_node4"><a xlink:href="../../d8/d43/tableReader_8cxx.html" target="_top" xlink:title="/home/travis/build\l/AliceO2Group/AliceO2\l/Analysis/Tasks/PWGDQ\l/tableReader.cxx">
<polygon fill="none" stroke="#000000" points="150,-.5 150,-52.5 282,-52.5 282,-.5 150,-.5"/>
<text text-anchor="start" x="158" y="-40.5" font-family="Helvetica,sans-Serif" font-size="10.00" fill="#000000">/home/travis/build</text>
<text text-anchor="start" x="158" y="-29.5" font-family="Helvetica,sans-Serif" font-size="10.00" fill="#000000">/AliceO2Group/AliceO2</text>
<text text-anchor="start" x="158" y="-18.5" font-family="Helvetica,sans-Serif" font-size="10.00" fill="#000000">/Analysis/Tasks/PWGDQ</text>
<text text-anchor="middle" x="216" y="-7.5" font-family="Helvetica,sans-Serif" font-size="10.00" fill="#000000">/tableReader.cxx</text>
</a>
</g>
</g>
<!-- Node213&#45;&gt;Node215 -->
<g id="edge3" class="edge">
<title>Node213&#45;&gt;Node215</title>
<path fill="none" stroke="#191970" d="M191.9615,-79.9856C196.082,-70.8176 200.4411,-61.1186 204.2993,-52.5341"/>
<polygon fill="#191970" stroke="#191970" points="188.692,-78.7225 187.785,-89.2784 195.0768,-81.5921 188.692,-78.7225"/>
</g>
</g>
</svg>
