<?xml version="1.0" encoding="UTF-8" standalone="no"?>
<!DOCTYPE svg PUBLIC "-//W3C//DTD SVG 1.1//EN"
 "http://www.w3.org/Graphics/SVG/1.1/DTD/svg11.dtd">
<!-- Generated by graphviz version 2.40.1 (20161225.0304)
 -->
<!-- Title: /home/travis/build/AliceO2Group/AliceO2/Framework/Core/test/benchmark_ASoA.cxx Pages: 1 -->
<svg width="2556pt" height="341pt"
 viewBox="0.00 0.00 2555.50 341.00" xmlns="http://www.w3.org/2000/svg" xmlns:xlink="http://www.w3.org/1999/xlink">
<g id="graph0" class="graph" transform="scale(1 1) rotate(0) translate(4 337)">
<title>/home/travis/build/AliceO2Group/AliceO2/Framework/Core/test/benchmark_ASoA.cxx</title>
<!-- Node0 -->
<g id="node1" class="node">
<title>Node0</title>
<polygon fill="#bfbfbf" stroke="#000000" points="1334.5,-280.5 1334.5,-332.5 1513.5,-332.5 1513.5,-280.5 1334.5,-280.5"/>
<text text-anchor="start" x="1342.5" y="-320.5" font-family="Helvetica,sans-Serif" font-size="10.00" fill="#000000">/home/travis/build</text>
<text text-anchor="start" x="1342.5" y="-309.5" font-family="Helvetica,sans-Serif" font-size="10.00" fill="#000000">/AliceO2Group/AliceO2</text>
<text text-anchor="start" x="1342.5" y="-298.5" font-family="Helvetica,sans-Serif" font-size="10.00" fill="#000000">/Framework/Core/test/benchmark</text>
<text text-anchor="middle" x="1424" y="-287.5" font-family="Helvetica,sans-Serif" font-size="10.00" fill="#000000">_ASoA.cxx</text>
</g>
<!-- Node1 -->
<g id="node2" class="node">
<title>Node1</title>
<g id="a_node2"><a xlink:href="../../de/d33/ASoA_8h.html" target="_top" xlink:title="Framework/ASoA.h">
<polygon fill="none" stroke="#000000" points="1312,-168.5 1312,-187.5 1420,-187.5 1420,-168.5 1312,-168.5"/>
<text text-anchor="middle" x="1366" y="-175.5" font-family="Helvetica,sans-Serif" font-size="10.00" fill="#000000">Framework/ASoA.h</text>
</a>
</g>
</g>
<!-- Node0&#45;&gt;Node1 -->
<g id="edge1" class="edge">
<title>Node0&#45;&gt;Node1</title>
<path fill="none" stroke="#191970" d="M1405.4038,-280.333C1398.2958,-269.4704 1390.5689,-256.5009 1385,-244 1378.3284,-229.0238 1373.3423,-211.0952 1370.1558,-197.7061"/>
<polygon fill="#191970" stroke="#191970" points="1373.5127,-196.6806 1367.9049,-187.6915 1366.6831,-198.2157 1373.5127,-196.6806"/>
</g>
<!-- Node32 -->
<g id="node33" class="node">
<title>Node32</title>
<g id="a_node33"><a xlink:href="../../d5/d98/TableBuilder_8h.html" target="_top" xlink:title="Framework/TableBuilder.h">
<polygon fill="none" stroke="#000000" points="506,-224.5 506,-243.5 648,-243.5 648,-224.5 506,-224.5"/>
<text text-anchor="middle" x="577" y="-231.5" font-family="Helvetica,sans-Serif" font-size="10.00" fill="#000000">Framework/TableBuilder.h</text>
</a>
</g>
</g>
<!-- Node0&#45;&gt;Node32 -->
<g id="edge40" class="edge">
<title>Node0&#45;&gt;Node32</title>
<path fill="none" stroke="#191970" d="M1334.158,-298.8099C1168.5571,-284.635 817.5912,-254.5937 658.4717,-240.9737"/>
<polygon fill="#191970" stroke="#191970" points="658.5343,-237.4663 648.2722,-240.1006 657.9372,-244.4408 658.5343,-237.4663"/>
</g>
<!-- Node40 -->
<g id="node41" class="node">
<title>Node40</title>
<polygon fill="none" stroke="#bfbfbf" points="1053.5,-168.5 1053.5,-187.5 1100.5,-187.5 1100.5,-168.5 1053.5,-168.5"/>
<text text-anchor="middle" x="1077" y="-175.5" font-family="Helvetica,sans-Serif" font-size="10.00" fill="#000000">vector</text>
</g>
<!-- Node0&#45;&gt;Node40 -->
<g id="edge77" class="edge">
<title>Node0&#45;&gt;Node40</title>
<path fill="none" stroke="#191970" d="M1353.7794,-280.4961C1279.6122,-253.0307 1165.8563,-210.905 1110.111,-190.2616"/>
<polygon fill="#191970" stroke="#191970" points="1111.3115,-186.9739 1100.7184,-186.7833 1108.8806,-193.5383 1111.3115,-186.9739"/>
</g>
<!-- Node41 -->
<g id="node42" class="node">
<title>Node41</title>
<g id="a_node42"><a xlink:href="../../d2/d8c/AnalysisDataModel_8h.html" target="_top" xlink:title="Framework/AnalysisDataModel.h">
<polygon fill="none" stroke="#000000" points="1394,-224.5 1394,-243.5 1570,-243.5 1570,-224.5 1394,-224.5"/>
<text text-anchor="middle" x="1482" y="-231.5" font-family="Helvetica,sans-Serif" font-size="10.00" fill="#000000">Framework/AnalysisDataModel.h</text>
</a>
</g>
</g>
<!-- Node0&#45;&gt;Node41 -->
<g id="edge59" class="edge">
<title>Node0&#45;&gt;Node41</title>
<path fill="none" stroke="#191970" d="M1444.9393,-280.3258C1452.6295,-270.7131 1461.1412,-260.0735 1468.0661,-251.4174"/>
<polygon fill="#191970" stroke="#191970" points="1470.8589,-253.5292 1474.3728,-243.534 1465.3928,-249.1563 1470.8589,-253.5292"/>
</g>
<!-- Node53 -->
<g id="node54" class="node">
<title>Node53</title>
<polygon fill="none" stroke="#bfbfbf" points="1588,-224.5 1588,-243.5 1726,-243.5 1726,-224.5 1588,-224.5"/>
<text text-anchor="middle" x="1657" y="-231.5" font-family="Helvetica,sans-Serif" font-size="10.00" fill="#000000">benchmark/benchmark.h</text>
</g>
<!-- Node0&#45;&gt;Node53 -->
<g id="edge75" class="edge">
<title>Node0&#45;&gt;Node53</title>
<path fill="none" stroke="#191970" d="M1507.7892,-280.4283C1544.8294,-268.9029 1586.6703,-255.8837 1616.5989,-246.5711"/>
<polygon fill="#191970" stroke="#191970" points="1617.7593,-249.8757 1626.2678,-243.5626 1615.6795,-243.1918 1617.7593,-249.8757"/>
</g>
<!-- Node54 -->
<g id="node55" class="node">
<title>Node54</title>
<polygon fill="none" stroke="#bfbfbf" points="1744,-224.5 1744,-243.5 1798,-243.5 1798,-224.5 1744,-224.5"/>
<text text-anchor="middle" x="1771" y="-231.5" font-family="Helvetica,sans-Serif" font-size="10.00" fill="#000000">random</text>
</g>
<!-- Node0&#45;&gt;Node54 -->
<g id="edge76" class="edge">
<title>Node0&#45;&gt;Node54</title>
<path fill="none" stroke="#191970" d="M1513.5239,-290.2939C1573.4355,-279.03 1654.2128,-263.0409 1734.1811,-244.0746"/>
<polygon fill="#191970" stroke="#191970" points="1735.0144,-247.4741 1743.9279,-241.747 1733.3884,-240.6655 1735.0144,-247.4741"/>
</g>
<!-- Node2 -->
<g id="node3" class="node">
<title>Node2</title>
<g id="a_node3"><a xlink:href="../../dd/dce/Pack_8h.html" target="_top" xlink:title="Framework/Pack.h">
<polygon fill="none" stroke="#000000" points="497.5,-56.5 497.5,-75.5 602.5,-75.5 602.5,-56.5 497.5,-56.5"/>
<text text-anchor="middle" x="550" y="-63.5" font-family="Helvetica,sans-Serif" font-size="10.00" fill="#000000">Framework/Pack.h</text>
</a>
</g>
</g>
<!-- Node1&#45;&gt;Node2 -->
<g id="edge2" class="edge">
<title>Node1&#45;&gt;Node2</title>
<path fill="none" stroke="#191970" d="M1311.8983,-171.3137C1189.3196,-156.03 880.8391,-116.8111 612.49,-76.2026"/>
<polygon fill="#191970" stroke="#191970" points="612.9719,-72.7357 602.5601,-74.6965 611.9222,-79.6566 612.9719,-72.7357"/>
</g>
<!-- Node6 -->
<g id="node7" class="node">
<title>Node6</title>
<g id="a_node7"><a xlink:href="../../d1/d00/CheckTypes_8h.html" target="_top" xlink:title="Framework/CheckTypes.h">
<polygon fill="none" stroke="#000000" points="1773,-56.5 1773,-75.5 1913,-75.5 1913,-56.5 1773,-56.5"/>
<text text-anchor="middle" x="1843" y="-63.5" font-family="Helvetica,sans-Serif" font-size="10.00" fill="#000000">Framework/CheckTypes.h</text>
</a>
</g>
</g>
<!-- Node1&#45;&gt;Node6 -->
<g id="edge6" class="edge">
<title>Node1&#45;&gt;Node6</title>
<path fill="none" stroke="#191970" d="M1368.4794,-168.4102C1372.879,-153.5283 1383.573,-125.2135 1404,-112 1468.8884,-70.0259 1668.194,-83.8576 1762.6082,-75.8712"/>
<polygon fill="#191970" stroke="#191970" points="1763.1597,-79.3341 1772.7714,-74.877 1762.4781,-72.3673 1763.1597,-79.3341"/>
</g>
<!-- Node7 -->
<g id="node8" class="node">
<title>Node7</title>
<g id="a_node8"><a xlink:href="../../de/d9b/FunctionalHelpers_8h.html" target="_top" xlink:title="Framework/FunctionalHelpers.h">
<polygon fill="none" stroke="#000000" points="495,-112.5 495,-131.5 665,-131.5 665,-112.5 495,-112.5"/>
<text text-anchor="middle" x="580" y="-119.5" font-family="Helvetica,sans-Serif" font-size="10.00" fill="#000000">Framework/FunctionalHelpers.h</text>
</a>
</g>
</g>
<!-- Node1&#45;&gt;Node7 -->
<g id="edge7" class="edge">
<title>Node1&#45;&gt;Node7</title>
<path fill="none" stroke="#191970" d="M1311.975,-174.1509C1180.4175,-164.7778 842.0489,-140.6701 675.4995,-128.804"/>
<polygon fill="#191970" stroke="#191970" points="675.4912,-125.2947 665.2677,-128.0751 674.9937,-132.277 675.4912,-125.2947"/>
</g>
<!-- Node9 -->
<g id="node10" class="node">
<title>Node9</title>
<g id="a_node10"><a xlink:href="../../d9/de8/CompilerBuiltins_8h.html" target="_top" xlink:title="Framework/CompilerBuiltins.h">
<polygon fill="none" stroke="#000000" points="315,-56.5 315,-75.5 479,-75.5 479,-56.5 315,-56.5"/>
<text text-anchor="middle" x="397" y="-63.5" font-family="Helvetica,sans-Serif" font-size="10.00" fill="#000000">Framework/CompilerBuiltins.h</text>
</a>
</g>
</g>
<!-- Node1&#45;&gt;Node9 -->
<g id="edge10" class="edge">
<title>Node1&#45;&gt;Node9</title>
<path fill="none" stroke="#191970" d="M1311.6494,-173.6528C1221.3008,-166.2546 1034.5518,-150.2336 877,-132 732.2834,-115.2518 563.6876,-90.9577 469.7563,-76.9929"/>
<polygon fill="#191970" stroke="#191970" points="470.1972,-73.5201 459.7906,-75.5084 469.1658,-80.4437 470.1972,-73.5201"/>
</g>
<!-- Node10 -->
<g id="node11" class="node">
<title>Node10</title>
<g id="a_node11"><a xlink:href="../../db/d31/Traits_8h.html" target="_top" xlink:title="Framework/Traits.h">
<polygon fill="none" stroke="#000000" points="137.5,-112.5 137.5,-131.5 246.5,-131.5 246.5,-112.5 137.5,-112.5"/>
<text text-anchor="middle" x="192" y="-119.5" font-family="Helvetica,sans-Serif" font-size="10.00" fill="#000000">Framework/Traits.h</text>
</a>
</g>
</g>
<!-- Node1&#45;&gt;Node10 -->
<g id="edge11" class="edge">
<title>Node1&#45;&gt;Node10</title>
<path fill="none" stroke="#191970" d="M1311.7301,-175.4113C1118.7095,-166.2042 465.8672,-135.0635 256.9074,-125.0961"/>
<polygon fill="#191970" stroke="#191970" points="256.8638,-121.5901 246.7084,-124.6096 256.5302,-128.5822 256.8638,-121.5901"/>
</g>
<!-- Node12 -->
<g id="node13" class="node">
<title>Node12</title>
<g id="a_node13"><a xlink:href="../../d0/d91/Expressions_8h.html" target="_top" xlink:title="Framework/Expressions.h">
<polygon fill="none" stroke="#000000" points="1020.5,-112.5 1020.5,-131.5 1161.5,-131.5 1161.5,-112.5 1020.5,-112.5"/>
<text text-anchor="middle" x="1091" y="-119.5" font-family="Helvetica,sans-Serif" font-size="10.00" fill="#000000">Framework/Expressions.h</text>
</a>
</g>
</g>
<!-- Node1&#45;&gt;Node12 -->
<g id="edge13" class="edge">
<title>Node1&#45;&gt;Node12</title>
<path fill="none" stroke="#191970" d="M1319.0383,-168.4369C1271.5787,-158.7724 1198.2134,-143.8326 1147.5777,-133.5213"/>
<polygon fill="#191970" stroke="#191970" points="1148.2653,-130.0895 1137.768,-131.5237 1146.8685,-136.9488 1148.2653,-130.0895"/>
</g>
<!-- Node18 -->
<g id="node19" class="node">
<title>Node18</title>
<polygon fill="none" stroke="#bfbfbf" points="2096.5,-56.5 2096.5,-75.5 2177.5,-75.5 2177.5,-56.5 2096.5,-56.5"/>
<text text-anchor="middle" x="2137" y="-63.5" font-family="Helvetica,sans-Serif" font-size="10.00" fill="#000000">arrow/table.h</text>
</g>
<!-- Node1&#45;&gt;Node18 -->
<g id="edge33" class="edge">
<title>Node1&#45;&gt;Node18</title>
<path fill="none" stroke="#191970" d="M1420.3782,-175.4804C1535.5567,-169.7736 1800.692,-154.5782 1888,-132 1909.1893,-126.5204 1912.2247,-118.8848 1933,-112 1961.028,-102.7117 2035.7947,-86.6562 2086.5918,-76.1827"/>
<polygon fill="#191970" stroke="#191970" points="2087.3193,-79.6064 2096.4107,-74.166 2085.911,-72.7495 2087.3193,-79.6064"/>
</g>
<!-- Node19 -->
<g id="node20" class="node">
<title>Node19</title>
<polygon fill="none" stroke="#bfbfbf" points="1931.5,-56.5 1931.5,-75.5 2078.5,-75.5 2078.5,-56.5 1931.5,-56.5"/>
<text text-anchor="middle" x="2005" y="-63.5" font-family="Helvetica,sans-Serif" font-size="10.00" fill="#000000">gandiva/selection_vector.h</text>
</g>
<!-- Node1&#45;&gt;Node19 -->
<g id="edge37" class="edge">
<title>Node1&#45;&gt;Node19</title>
<path fill="none" stroke="#191970" d="M1420.3661,-175.1869C1529.5404,-169.1561 1771.8392,-153.7423 1852,-132 1872.3422,-126.4825 1875.718,-120.5119 1895,-112 1920.6179,-100.6911 1949.8782,-88.4889 1971.7776,-79.4954"/>
<polygon fill="#191970" stroke="#191970" points="1973.3539,-82.6321 1981.282,-75.6039 1970.7014,-76.1541 1973.3539,-82.6321"/>
</g>
<!-- Node23 -->
<g id="node24" class="node">
<title>Node23</title>
<polygon fill="none" stroke="#bfbfbf" points="1675.5,-56.5 1675.5,-75.5 1754.5,-75.5 1754.5,-56.5 1675.5,-56.5"/>
<text text-anchor="middle" x="1715" y="-63.5" font-family="Helvetica,sans-Serif" font-size="10.00" fill="#000000">fmt/format.h</text>
</g>
<!-- Node1&#45;&gt;Node23 -->
<g id="edge39" class="edge">
<title>Node1&#45;&gt;Node23</title>
<path fill="none" stroke="#191970" d="M1363.3907,-168.4349C1360.1214,-154.1017 1356.5543,-127.1233 1371,-112 1414.6565,-66.2958 1585.2424,-84.8186 1665.2592,-75.7468"/>
<polygon fill="#191970" stroke="#191970" points="1666.0364,-79.1731 1675.4695,-74.3497 1665.0873,-72.2378 1666.0364,-79.1731"/>
</g>
<!-- Node27 -->
<g id="node28" class="node">
<title>Node27</title>
<g id="a_node28"><a xlink:href="../../d4/de7/ArrowTypes_8h.html" target="_top" xlink:title="Framework/ArrowTypes.h">
<polygon fill="none" stroke="#000000" points="1179.5,-112.5 1179.5,-131.5 1318.5,-131.5 1318.5,-112.5 1179.5,-112.5"/>
<text text-anchor="middle" x="1249" y="-119.5" font-family="Helvetica,sans-Serif" font-size="10.00" fill="#000000">Framework/ArrowTypes.h</text>
</a>
</g>
</g>
<!-- Node1&#45;&gt;Node27 -->
<g id="edge31" class="edge">
<title>Node1&#45;&gt;Node27</title>
<path fill="none" stroke="#191970" d="M1345.887,-168.3733C1327.1897,-159.4241 1299.1256,-145.9917 1278.0066,-135.8835"/>
<polygon fill="#191970" stroke="#191970" points="1279.3817,-132.6614 1268.8506,-131.5011 1276.3595,-138.9755 1279.3817,-132.6614"/>
</g>
<!-- Node28 -->
<g id="node29" class="node">
<title>Node28</title>
<polygon fill="none" stroke="#bfbfbf" points="1413,-112.5 1413,-131.5 1493,-131.5 1493,-112.5 1413,-112.5"/>
<text text-anchor="middle" x="1453" y="-119.5" font-family="Helvetica,sans-Serif" font-size="10.00" fill="#000000">arrow/array.h</text>
</g>
<!-- Node1&#45;&gt;Node28 -->
<g id="edge34" class="edge">
<title>Node1&#45;&gt;Node28</title>
<path fill="none" stroke="#191970" d="M1381.1542,-168.2455C1394.5027,-159.6534 1414.1586,-147.0014 1429.5383,-137.1018"/>
<polygon fill="#191970" stroke="#191970" points="1431.5051,-139.9982 1438.0194,-131.6427 1427.7164,-134.1121 1431.5051,-139.9982"/>
</g>
<!-- Node29 -->
<g id="node30" class="node">
<title>Node29</title>
<polygon fill="none" stroke="#bfbfbf" points="1511,-112.5 1511,-131.5 1621,-131.5 1621,-112.5 1511,-112.5"/>
<text text-anchor="middle" x="1566" y="-119.5" font-family="Helvetica,sans-Serif" font-size="10.00" fill="#000000">arrow/util/variant.h</text>
</g>
<!-- Node1&#45;&gt;Node29 -->
<g id="edge35" class="edge">
<title>Node1&#45;&gt;Node29</title>
<path fill="none" stroke="#191970" d="M1400.3812,-168.3733C1434.0701,-158.9404 1485.5482,-144.5265 1522.1618,-134.2747"/>
<polygon fill="#191970" stroke="#191970" points="1523.3815,-137.5679 1532.0674,-131.5011 1521.494,-130.8271 1523.3815,-137.5679"/>
</g>
<!-- Node30 -->
<g id="node31" class="node">
<title>Node30</title>
<polygon fill="none" stroke="#bfbfbf" points="1639.5,-112.5 1639.5,-131.5 1772.5,-131.5 1772.5,-112.5 1639.5,-112.5"/>
<text text-anchor="middle" x="1706" y="-119.5" font-family="Helvetica,sans-Serif" font-size="10.00" fill="#000000">arrow/compute/kernel.h</text>
</g>
<!-- Node1&#45;&gt;Node30 -->
<g id="edge36" class="edge">
<title>Node1&#45;&gt;Node30</title>
<path fill="none" stroke="#191970" d="M1420.25,-169.0647C1479.4224,-159.3187 1574.2259,-143.704 1638.2468,-133.1593"/>
<polygon fill="#191970" stroke="#191970" points="1638.9491,-136.5909 1648.2473,-131.5122 1637.8114,-129.684 1638.9491,-136.5909"/>
</g>
<!-- Node31 -->
<g id="node32" class="node">
<title>Node31</title>
<polygon fill="none" stroke="#bfbfbf" points="1791,-112.5 1791,-131.5 1843,-131.5 1843,-112.5 1791,-112.5"/>
<text text-anchor="middle" x="1817" y="-119.5" font-family="Helvetica,sans-Serif" font-size="10.00" fill="#000000">cassert</text>
</g>
<!-- Node1&#45;&gt;Node31 -->
<g id="edge38" class="edge">
<title>Node1&#45;&gt;Node31</title>
<path fill="none" stroke="#191970" d="M1420.1361,-174.7829C1499.7608,-169.4242 1652.8829,-156.7285 1781,-132 1781.0995,-131.9808 1781.1992,-131.9614 1781.2989,-131.942"/>
<polygon fill="#191970" stroke="#191970" points="1781.7821,-135.4208 1790.7696,-129.8106 1780.2451,-128.5917 1781.7821,-135.4208"/>
</g>
<!-- Node3 -->
<g id="node4" class="node">
<title>Node3</title>
<polygon fill="none" stroke="#bfbfbf" points="523.5,-.5 523.5,-19.5 576.5,-19.5 576.5,-.5 523.5,-.5"/>
<text text-anchor="middle" x="550" y="-7.5" font-family="Helvetica,sans-Serif" font-size="10.00" fill="#000000">cstddef</text>
</g>
<!-- Node2&#45;&gt;Node3 -->
<g id="edge3" class="edge">
<title>Node2&#45;&gt;Node3</title>
<path fill="none" stroke="#191970" d="M550,-56.2455C550,-48.9382 550,-38.6944 550,-29.7046"/>
<polygon fill="#191970" stroke="#191970" points="553.5001,-29.6426 550,-19.6427 546.5001,-29.6427 553.5001,-29.6426"/>
</g>
<!-- Node4 -->
<g id="node5" class="node">
<title>Node4</title>
<polygon fill="none" stroke="#bfbfbf" points="594.5,-.5 594.5,-19.5 639.5,-19.5 639.5,-.5 594.5,-.5"/>
<text text-anchor="middle" x="617" y="-7.5" font-family="Helvetica,sans-Serif" font-size="10.00" fill="#000000">utility</text>
</g>
<!-- Node2&#45;&gt;Node4 -->
<g id="edge4" class="edge">
<title>Node2&#45;&gt;Node4</title>
<path fill="none" stroke="#191970" d="M561.6705,-56.2455C571.5661,-47.9746 585.9627,-35.9416 597.5901,-26.2232"/>
<polygon fill="#191970" stroke="#191970" points="600.035,-28.7413 605.4632,-19.6427 595.5458,-23.3703 600.035,-28.7413"/>
</g>
<!-- Node5 -->
<g id="node6" class="node">
<title>Node5</title>
<polygon fill="none" stroke="#bfbfbf" points="459,-.5 459,-19.5 505,-19.5 505,-.5 459,-.5"/>
<text text-anchor="middle" x="482" y="-7.5" font-family="Helvetica,sans-Serif" font-size="10.00" fill="#000000">cstdio</text>
</g>
<!-- Node2&#45;&gt;Node5 -->
<g id="edge5" class="edge">
<title>Node2&#45;&gt;Node5</title>
<path fill="none" stroke="#191970" d="M538.1553,-56.2455C528.112,-47.9746 513.5005,-35.9416 501.6996,-26.2232"/>
<polygon fill="#191970" stroke="#191970" points="503.6533,-23.298 493.709,-19.6427 499.2033,-28.7015 503.6533,-23.298"/>
</g>
<!-- Node7&#45;&gt;Node2 -->
<g id="edge8" class="edge">
<title>Node7&#45;&gt;Node2</title>
<path fill="none" stroke="#191970" d="M574.7744,-112.2455C570.6877,-104.617 564.8865,-93.7881 559.925,-84.5267"/>
<polygon fill="#191970" stroke="#191970" points="562.9732,-82.8047 555.1657,-75.6427 556.8028,-86.1103 562.9732,-82.8047"/>
</g>
<!-- Node8 -->
<g id="node9" class="node">
<title>Node8</title>
<polygon fill="none" stroke="#bfbfbf" points="155.5,-56.5 155.5,-75.5 220.5,-75.5 220.5,-56.5 155.5,-56.5"/>
<text text-anchor="middle" x="188" y="-63.5" font-family="Helvetica,sans-Serif" font-size="10.00" fill="#000000">functional</text>
</g>
<!-- Node7&#45;&gt;Node8 -->
<g id="edge9" class="edge">
<title>Node7&#45;&gt;Node8</title>
<path fill="none" stroke="#191970" d="M494.7463,-113.2816C425.9986,-105.6765 326.6641,-93.3961 230.8092,-75.9946"/>
<polygon fill="#191970" stroke="#191970" points="231.4146,-72.5473 220.9469,-74.1835 230.1503,-79.4322 231.4146,-72.5473"/>
</g>
<!-- Node11 -->
<g id="node12" class="node">
<title>Node11</title>
<polygon fill="none" stroke="#bfbfbf" points="68.5,-56.5 68.5,-75.5 137.5,-75.5 137.5,-56.5 68.5,-56.5"/>
<text text-anchor="middle" x="103" y="-63.5" font-family="Helvetica,sans-Serif" font-size="10.00" fill="#000000">type_traits</text>
</g>
<!-- Node10&#45;&gt;Node11 -->
<g id="edge12" class="edge">
<title>Node10&#45;&gt;Node11</title>
<path fill="none" stroke="#191970" d="M176.4974,-112.2455C162.842,-103.6534 142.7343,-91.0014 127.0011,-81.1018"/>
<polygon fill="#191970" stroke="#191970" points="128.6529,-78.006 118.325,-75.6427 124.9249,-83.9307 128.6529,-78.006"/>
</g>
<!-- Node12&#45;&gt;Node2 -->
<g id="edge16" class="edge">
<title>Node12&#45;&gt;Node2</title>
<path fill="none" stroke="#191970" d="M1020.4793,-116.7281C928.7669,-109.5396 763.3746,-95.4439 612.4583,-76.1224"/>
<polygon fill="#191970" stroke="#191970" points="612.9054,-72.6512 602.5396,-74.8422 612.0093,-79.5936 612.9054,-72.6512"/>
</g>
<!-- Node12&#45;&gt;Node6 -->
<g id="edge17" class="edge">
<title>Node12&#45;&gt;Node6</title>
<path fill="none" stroke="#191970" d="M1161.6101,-112.8301C1164.4421,-112.5358 1167.2471,-112.2575 1170,-112 1429.5555,-87.72 1498.3502,-100.064 1762.5,-75.9807"/>
<polygon fill="#191970" stroke="#191970" points="1763.1506,-79.4357 1772.7875,-75.0334 1762.5087,-72.4651 1763.1506,-79.4357"/>
</g>
<!-- Node12&#45;&gt;Node9 -->
<g id="edge15" class="edge">
<title>Node12&#45;&gt;Node9</title>
<path fill="none" stroke="#191970" d="M1020.3819,-117.3787C909.5801,-109.9581 687.8709,-94.4274 489.3606,-76.1017"/>
<polygon fill="#191970" stroke="#191970" points="489.6079,-72.6097 479.3274,-75.1713 488.9614,-79.5798 489.6079,-72.6097"/>
</g>
<!-- Node13 -->
<g id="node14" class="node">
<title>Node13</title>
<g id="a_node14"><a xlink:href="../../dd/dc2/BasicOps_8h.html" target="_top" xlink:title="Framework/BasicOps.h">
<polygon fill="none" stroke="#000000" points="690,-56.5 690,-75.5 818,-75.5 818,-56.5 690,-56.5"/>
<text text-anchor="middle" x="754" y="-63.5" font-family="Helvetica,sans-Serif" font-size="10.00" fill="#000000">Framework/BasicOps.h</text>
</a>
</g>
</g>
<!-- Node12&#45;&gt;Node13 -->
<g id="edge14" class="edge">
<title>Node12&#45;&gt;Node13</title>
<path fill="none" stroke="#191970" d="M1033.4505,-112.4369C974.6851,-102.6717 883.5087,-87.5207 821.4034,-77.2006"/>
<polygon fill="#191970" stroke="#191970" points="821.7506,-73.7103 811.3121,-75.5237 820.6031,-80.6157 821.7506,-73.7103"/>
</g>
<!-- Node14 -->
<g id="node15" class="node">
<title>Node14</title>
<polygon fill="none" stroke="#bfbfbf" points="1556.5,-56.5 1556.5,-75.5 1657.5,-75.5 1657.5,-56.5 1556.5,-56.5"/>
<text text-anchor="middle" x="1607" y="-63.5" font-family="Helvetica,sans-Serif" font-size="10.00" fill="#000000">arrow/type_fwd.h</text>
</g>
<!-- Node12&#45;&gt;Node14 -->
<g id="edge18" class="edge">
<title>Node12&#45;&gt;Node14</title>
<path fill="none" stroke="#191970" d="M1161.6225,-112.9513C1164.4511,-112.6235 1167.2519,-112.3051 1170,-112 1334.1044,-93.7828 1378.4305,-97.689 1546.3758,-75.9989"/>
<polygon fill="#191970" stroke="#191970" points="1546.8341,-79.4688 1556.2982,-74.7064 1545.9298,-72.5275 1546.8341,-79.4688"/>
</g>
<!-- Node15 -->
<g id="node16" class="node">
<title>Node15</title>
<polygon fill="none" stroke="#bfbfbf" points="836,-56.5 836,-75.5 982,-75.5 982,-56.5 836,-56.5"/>
<text text-anchor="middle" x="909" y="-63.5" font-family="Helvetica,sans-Serif" font-size="10.00" fill="#000000">gandiva/gandiva_aliases.h</text>
</g>
<!-- Node12&#45;&gt;Node15 -->
<g id="edge19" class="edge">
<title>Node12&#45;&gt;Node15</title>
<path fill="none" stroke="#191970" d="M1059.7131,-112.3733C1029.3182,-103.021 983.0107,-88.7725 949.75,-78.5385"/>
<polygon fill="#191970" stroke="#191970" points="950.4658,-75.0968 939.8786,-75.5011 948.4071,-81.7873 950.4658,-75.0968"/>
</g>
<!-- Node16 -->
<g id="node17" class="node">
<title>Node16</title>
<polygon fill="none" stroke="#bfbfbf" points="1000,-56.5 1000,-75.5 1078,-75.5 1078,-56.5 1000,-56.5"/>
<text text-anchor="middle" x="1039" y="-63.5" font-family="Helvetica,sans-Serif" font-size="10.00" fill="#000000">arrow/type.h</text>
</g>
<!-- Node12&#45;&gt;Node16 -->
<g id="edge20" class="edge">
<title>Node12&#45;&gt;Node16</title>
<path fill="none" stroke="#191970" d="M1081.9423,-112.2455C1074.4858,-104.2155 1063.7366,-92.6394 1054.8583,-83.0781"/>
<polygon fill="#191970" stroke="#191970" points="1057.3232,-80.589 1047.9539,-75.6427 1052.1937,-85.3522 1057.3232,-80.589"/>
</g>
<!-- Node17 -->
<g id="node18" class="node">
<title>Node17</title>
<polygon fill="none" stroke="#bfbfbf" points="1096.5,-56.5 1096.5,-75.5 1191.5,-75.5 1191.5,-56.5 1096.5,-56.5"/>
<text text-anchor="middle" x="1144" y="-63.5" font-family="Helvetica,sans-Serif" font-size="10.00" fill="#000000">gandiva/arrow.h</text>
</g>
<!-- Node12&#45;&gt;Node17 -->
<g id="edge21" class="edge">
<title>Node12&#45;&gt;Node17</title>
<path fill="none" stroke="#191970" d="M1100.2319,-112.2455C1107.8317,-104.2155 1118.7877,-92.6394 1127.8368,-83.0781"/>
<polygon fill="#191970" stroke="#191970" points="1130.5421,-85.3115 1134.8739,-75.6427 1125.458,-80.4998 1130.5421,-85.3115"/>
</g>
<!-- Node12&#45;&gt;Node18 -->
<g id="edge22" class="edge">
<title>Node12&#45;&gt;Node18</title>
<path fill="none" stroke="#191970" d="M1161.6034,-112.755C1164.4373,-112.4815 1167.2445,-112.2281 1170,-112 1573.2049,-78.6293 1680.2625,-123.4127 2086.4698,-75.8499"/>
<polygon fill="#191970" stroke="#191970" points="2086.9072,-79.3227 2096.427,-74.6727 2086.0852,-72.3711 2086.9072,-79.3227"/>
</g>
<!-- Node12&#45;&gt;Node19 -->
<g id="edge23" class="edge">
<title>Node12&#45;&gt;Node19</title>
<path fill="none" stroke="#191970" d="M1161.606,-112.7852C1164.4392,-112.5034 1167.2455,-112.2399 1170,-112 1500.0878,-83.2515 1586.8829,-103.6238 1921.2954,-75.9952"/>
<polygon fill="#191970" stroke="#191970" points="1921.5876,-79.4831 1931.262,-75.1637 1921.0056,-72.5073 1921.5876,-79.4831"/>
</g>
<!-- Node20 -->
<g id="node21" class="node">
<title>Node20</title>
<polygon fill="none" stroke="#bfbfbf" points="1210,-56.5 1210,-75.5 1302,-75.5 1302,-56.5 1210,-56.5"/>
<text text-anchor="middle" x="1256" y="-63.5" font-family="Helvetica,sans-Serif" font-size="10.00" fill="#000000">gandiva/node.h</text>
</g>
<!-- Node12&#45;&gt;Node20 -->
<g id="edge24" class="edge">
<title>Node12&#45;&gt;Node20</title>
<path fill="none" stroke="#191970" d="M1119.3645,-112.3733C1146.6827,-103.1016 1188.1796,-89.0178 1218.2738,-78.804"/>
<polygon fill="#191970" stroke="#191970" points="1219.661,-82.0294 1228.0056,-75.5011 1217.4113,-75.4008 1219.661,-82.0294"/>
</g>
<!-- Node21 -->
<g id="node22" class="node">
<title>Node21</title>
<polygon fill="none" stroke="#bfbfbf" points="1320.5,-56.5 1320.5,-75.5 1409.5,-75.5 1409.5,-56.5 1320.5,-56.5"/>
<text text-anchor="middle" x="1365" y="-63.5" font-family="Helvetica,sans-Serif" font-size="10.00" fill="#000000">gandiva/filter.h</text>
</g>
<!-- Node12&#45;&gt;Node21 -->
<g id="edge25" class="edge">
<title>Node12&#45;&gt;Node21</title>
<path fill="none" stroke="#191970" d="M1137.791,-112.4369C1185.5515,-102.6756 1259.6428,-87.5329 1310.1366,-77.213"/>
<polygon fill="#191970" stroke="#191970" points="1311.1238,-80.5836 1320.2204,-75.152 1309.7221,-73.7254 1311.1238,-80.5836"/>
</g>
<!-- Node22 -->
<g id="node23" class="node">
<title>Node22</title>
<polygon fill="none" stroke="#bfbfbf" points="1428,-56.5 1428,-75.5 1538,-75.5 1538,-56.5 1428,-56.5"/>
<text text-anchor="middle" x="1483" y="-63.5" font-family="Helvetica,sans-Serif" font-size="10.00" fill="#000000">gandiva/projector.h</text>
</g>
<!-- Node12&#45;&gt;Node22 -->
<g id="edge26" class="edge">
<title>Node12&#45;&gt;Node22</title>
<path fill="none" stroke="#191970" d="M1160.5683,-112.4783C1224.5293,-103.6636 1322.2754,-90.041 1417.5813,-76.046"/>
<polygon fill="#191970" stroke="#191970" points="1418.3049,-79.4773 1427.689,-74.559 1417.286,-72.5519 1418.3049,-79.4773"/>
</g>
<!-- Node12&#45;&gt;Node23 -->
<g id="edge27" class="edge">
<title>Node12&#45;&gt;Node23</title>
<path fill="none" stroke="#191970" d="M1161.6141,-112.8716C1164.445,-112.5658 1167.2486,-112.2738 1170,-112 1386.7163,-90.4346 1445.3352,-105.6986 1665.5646,-75.8775"/>
<polygon fill="#191970" stroke="#191970" points="1666.0622,-79.3421 1675.4947,-74.5174 1665.1122,-72.4069 1666.0622,-79.3421"/>
</g>
<!-- Node24 -->
<g id="node25" class="node">
<title>Node24</title>
<polygon fill="none" stroke="#bfbfbf" points="620.5,-56.5 620.5,-75.5 671.5,-75.5 671.5,-56.5 620.5,-56.5"/>
<text text-anchor="middle" x="646" y="-63.5" font-family="Helvetica,sans-Serif" font-size="10.00" fill="#000000">variant</text>
</g>
<!-- Node12&#45;&gt;Node24 -->
<g id="edge28" class="edge">
<title>Node12&#45;&gt;Node24</title>
<path fill="none" stroke="#191970" d="M1020.4476,-117.6703C940.4834,-111.9592 806.1905,-99.9392 681.947,-75.8932"/>
<polygon fill="#191970" stroke="#191970" points="682.3638,-72.4082 671.8764,-73.913 681.0132,-79.2767 682.3638,-72.4082"/>
</g>
<!-- Node25 -->
<g id="node26" class="node">
<title>Node25</title>
<polygon fill="none" stroke="#bfbfbf" points="0,-56.5 0,-75.5 44,-75.5 44,-56.5 0,-56.5"/>
<text text-anchor="middle" x="22" y="-63.5" font-family="Helvetica,sans-Serif" font-size="10.00" fill="#000000">string</text>
</g>
<!-- Node12&#45;&gt;Node25 -->
<g id="edge29" class="edge">
<title>Node12&#45;&gt;Node25</title>
<path fill="none" stroke="#191970" d="M1020.2731,-119.7473C802.837,-112.6961 153.2009,-90.6472 59,-76 57.3275,-75.7399 55.622,-75.4328 53.9067,-75.0906"/>
<polygon fill="#191970" stroke="#191970" points="54.6665,-71.674 44.1349,-72.8292 53.0883,-78.4938 54.6665,-71.674"/>
</g>
<!-- Node26 -->
<g id="node27" class="node">
<title>Node26</title>
<polygon fill="none" stroke="#bfbfbf" points="239,-56.5 239,-75.5 297,-75.5 297,-56.5 239,-56.5"/>
<text text-anchor="middle" x="268" y="-63.5" font-family="Helvetica,sans-Serif" font-size="10.00" fill="#000000">memory</text>
</g>
<!-- Node12&#45;&gt;Node26 -->
<g id="edge30" class="edge">
<title>Node12&#45;&gt;Node26</title>
<path fill="none" stroke="#191970" d="M1020.3618,-119.6609C857.9651,-113.9988 460.8766,-98.4583 307.515,-75.9021"/>
<polygon fill="#191970" stroke="#191970" points="307.7513,-72.3973 297.3354,-74.3362 306.687,-79.316 307.7513,-72.3973"/>
</g>
<!-- Node27&#45;&gt;Node14 -->
<g id="edge32" class="edge">
<title>Node27&#45;&gt;Node14</title>
<path fill="none" stroke="#191970" d="M1312.1103,-112.4827C1370.2134,-103.6693 1459.0844,-90.0605 1546.2049,-76.1131"/>
<polygon fill="#191970" stroke="#191970" points="1546.9484,-79.5387 1556.268,-74.4993 1545.8399,-72.627 1546.9484,-79.5387"/>
</g>
<!-- Node32&#45;&gt;Node1 -->
<g id="edge41" class="edge">
<title>Node32&#45;&gt;Node1</title>
<path fill="none" stroke="#191970" d="M648.0611,-228.9564C800.2801,-218.1525 1155.8235,-192.9175 1301.7522,-182.56"/>
<polygon fill="#191970" stroke="#191970" points="1302.1641,-186.0397 1311.8911,-181.8404 1301.6684,-179.0573 1302.1641,-186.0397"/>
</g>
<!-- Node32&#45;&gt;Node7 -->
<g id="edge46" class="edge">
<title>Node32&#45;&gt;Node7</title>
<path fill="none" stroke="#191970" d="M648.2829,-228.7518C738.3702,-221.3822 883.7362,-206.7441 900,-188 905.8255,-181.2861 905.8211,-174.7177 900,-168 885.3124,-151.0501 764.2161,-137.3336 675.3146,-129.4206"/>
<polygon fill="#191970" stroke="#191970" points="675.4551,-125.9195 665.1873,-128.5317 674.843,-132.8927 675.4551,-125.9195"/>
</g>
<!-- Node32&#45;&gt;Node8 -->
<g id="edge54" class="edge">
<title>Node32&#45;&gt;Node8</title>
<path fill="none" stroke="#191970" d="M505.9248,-227.2628C439.665,-219.964 346.4756,-206.7885 315,-188 278.0473,-165.9421 286.4275,-141.4001 255,-112 242.3585,-100.174 226.4454,-89.118 213.2999,-80.8101"/>
<polygon fill="#191970" stroke="#191970" points="215.0655,-77.7869 204.7156,-75.5218 211.394,-83.7468 215.0655,-77.7869"/>
</g>
<!-- Node32&#45;&gt;Node18 -->
<g id="edge52" class="edge">
<title>Node32&#45;&gt;Node18</title>
<path fill="none" stroke="#191970" d="M648.0659,-231.5691C794.3884,-226.2541 1139.8495,-212.1079 1429,-188 1650.0779,-169.5676 1707.8964,-177.6204 1925,-132 1942.0819,-128.4105 2041.116,-96.8618 2097.5859,-78.714"/>
<polygon fill="#191970" stroke="#191970" points="2098.8222,-81.993 2107.2702,-75.5991 2096.6788,-75.3293 2098.8222,-81.993"/>
</g>
<!-- Node32&#45;&gt;Node25 -->
<g id="edge56" class="edge">
<title>Node32&#45;&gt;Node25</title>
<path fill="none" stroke="#191970" d="M505.9775,-230.9983C374.645,-224.9521 103.8017,-209.9821 67,-188 31.9245,-167.049 23.9521,-114.749 22.2918,-85.8943"/>
<polygon fill="#191970" stroke="#191970" points="25.7847,-85.6341 21.9157,-75.771 18.7895,-85.8941 25.7847,-85.6341"/>
</g>
<!-- Node32&#45;&gt;Node26 -->
<g id="edge57" class="edge">
<title>Node32&#45;&gt;Node26</title>
<path fill="none" stroke="#191970" d="M505.88,-227.5469C443.6394,-220.6783 359.0569,-208.0038 332,-188 322.889,-181.264 292.2003,-117.656 276.8696,-85.0604"/>
<polygon fill="#191970" stroke="#191970" points="279.8876,-83.252 272.4786,-75.6786 273.5477,-86.2193 279.8876,-83.252"/>
</g>
<!-- Node33 -->
<g id="node34" class="node">
<title>Node33</title>
<g id="a_node34"><a xlink:href="../../db/d4f/StructToTuple_8h.html" target="_top" xlink:title="Framework/StructToTuple.h">
<polygon fill="none" stroke="#000000" points="94.5,-168.5 94.5,-187.5 241.5,-187.5 241.5,-168.5 94.5,-168.5"/>
<text text-anchor="middle" x="168" y="-175.5" font-family="Helvetica,sans-Serif" font-size="10.00" fill="#000000">Framework/StructToTuple.h</text>
</a>
</g>
</g>
<!-- Node32&#45;&gt;Node33 -->
<g id="edge42" class="edge">
<title>Node32&#45;&gt;Node33</title>
<path fill="none" stroke="#191970" d="M507.1551,-224.4369C435.0992,-214.571 322.8925,-199.2078 247.4843,-188.8829"/>
<polygon fill="#191970" stroke="#191970" points="247.9392,-185.4126 237.5568,-187.5237 246.9896,-192.3479 247.9392,-185.4126"/>
</g>
<!-- Node34 -->
<g id="node35" class="node">
<title>Node34</title>
<polygon fill="none" stroke="#bfbfbf" points="39.5,-112.5 39.5,-131.5 80.5,-131.5 80.5,-112.5 39.5,-112.5"/>
<text text-anchor="middle" x="60" y="-119.5" font-family="Helvetica,sans-Serif" font-size="10.00" fill="#000000">tuple</text>
</g>
<!-- Node32&#45;&gt;Node34 -->
<g id="edge58" class="edge">
<title>Node32&#45;&gt;Node34</title>
<path fill="none" stroke="#191970" d="M505.7659,-231.471C377.4512,-226.3164 117.715,-212.9201 85,-188 70.7251,-177.1263 64.6011,-157.0936 61.9738,-141.9399"/>
<polygon fill="#191970" stroke="#191970" points="65.4331,-141.4033 60.6123,-131.9688 58.4975,-142.3504 65.4331,-141.4033"/>
</g>
<!-- Node35 -->
<g id="node36" class="node">
<title>Node35</title>
<g id="a_node36"><a xlink:href="../../d7/dbe/VariantHelpers_8h.html" target="_top" xlink:title="Framework/VariantHelpers.h">
<polygon fill="none" stroke="#000000" points="736.5,-168.5 736.5,-187.5 891.5,-187.5 891.5,-168.5 736.5,-168.5"/>
<text text-anchor="middle" x="814" y="-175.5" font-family="Helvetica,sans-Serif" font-size="10.00" fill="#000000">Framework/VariantHelpers.h</text>
</a>
</g>
</g>
<!-- Node32&#45;&gt;Node35 -->
<g id="edge47" class="edge">
<title>Node32&#45;&gt;Node35</title>
<path fill="none" stroke="#191970" d="M617.4725,-224.4369C657.948,-214.8731 720.2867,-200.1432 763.8703,-189.845"/>
<polygon fill="#191970" stroke="#191970" points="764.7673,-193.2295 773.6945,-187.5237 763.1576,-186.4171 764.7673,-193.2295"/>
</g>
<!-- Node36 -->
<g id="node37" class="node">
<title>Node36</title>
<polygon fill="none" stroke="#bfbfbf" points="341.5,-168.5 341.5,-187.5 450.5,-187.5 450.5,-168.5 341.5,-168.5"/>
<text text-anchor="middle" x="396" y="-175.5" font-family="Helvetica,sans-Serif" font-size="10.00" fill="#000000">arrow/type_traits.h</text>
</g>
<!-- Node32&#45;&gt;Node36 -->
<g id="edge49" class="edge">
<title>Node32&#45;&gt;Node36</title>
<path fill="none" stroke="#191970" d="M545.885,-224.3733C515.6571,-215.021 469.604,-200.7725 436.5261,-190.5385"/>
<polygon fill="#191970" stroke="#191970" points="437.2967,-187.1133 426.709,-187.5011 435.2277,-193.8005 437.2967,-187.1133"/>
</g>
<!-- Node37 -->
<g id="node38" class="node">
<title>Node37</title>
<polygon fill="none" stroke="#bfbfbf" points="469,-168.5 469,-187.5 525,-187.5 525,-168.5 469,-168.5"/>
<text text-anchor="middle" x="497" y="-175.5" font-family="Helvetica,sans-Serif" font-size="10.00" fill="#000000">sstream</text>
</g>
<!-- Node32&#45;&gt;Node37 -->
<g id="edge50" class="edge">
<title>Node32&#45;&gt;Node37</title>
<path fill="none" stroke="#191970" d="M563.0651,-224.2455C550.9053,-215.7337 533.0536,-203.2375 518.9715,-193.3801"/>
<polygon fill="#191970" stroke="#191970" points="520.9747,-190.51 510.7752,-187.6427 516.9605,-196.2447 520.9747,-190.51"/>
</g>
<!-- Node38 -->
<g id="node39" class="node">
<title>Node38</title>
<polygon fill="none" stroke="#bfbfbf" points="543,-168.5 543,-187.5 611,-187.5 611,-168.5 543,-168.5"/>
<text text-anchor="middle" x="577" y="-175.5" font-family="Helvetica,sans-Serif" font-size="10.00" fill="#000000">arrow/stl.h</text>
</g>
<!-- Node32&#45;&gt;Node38 -->
<g id="edge51" class="edge">
<title>Node32&#45;&gt;Node38</title>
<path fill="none" stroke="#191970" d="M577,-224.2455C577,-216.9382 577,-206.6944 577,-197.7046"/>
<polygon fill="#191970" stroke="#191970" points="580.5001,-197.6426 577,-187.6427 573.5001,-197.6427 580.5001,-197.6426"/>
</g>
<!-- Node39 -->
<g id="node40" class="node">
<title>Node39</title>
<polygon fill="none" stroke="#bfbfbf" points="629.5,-168.5 629.5,-187.5 718.5,-187.5 718.5,-168.5 629.5,-168.5"/>
<text text-anchor="middle" x="674" y="-175.5" font-family="Helvetica,sans-Serif" font-size="10.00" fill="#000000">arrow/builder.h</text>
</g>
<!-- Node32&#45;&gt;Node39 -->
<g id="edge53" class="edge">
<title>Node32&#45;&gt;Node39</title>
<path fill="none" stroke="#191970" d="M593.8961,-224.2455C608.918,-215.5731 631.1043,-202.7645 648.321,-192.825"/>
<polygon fill="#191970" stroke="#191970" points="650.3871,-195.6737 657.2975,-187.6427 646.8872,-189.6114 650.3871,-195.6737"/>
</g>
<!-- Node32&#45;&gt;Node40 -->
<g id="edge55" class="edge">
<title>Node32&#45;&gt;Node40</title>
<path fill="none" stroke="#191970" d="M648.1068,-226.036C757.5101,-213.7829 962.8974,-190.7795 1043.4074,-181.7624"/>
<polygon fill="#191970" stroke="#191970" points="1043.9282,-185.226 1053.4764,-180.6346 1043.149,-178.2695 1043.9282,-185.226"/>
</g>
<!-- Node33&#45;&gt;Node10 -->
<g id="edge43" class="edge">
<title>Node33&#45;&gt;Node10</title>
<path fill="none" stroke="#191970" d="M172.1805,-168.2455C175.381,-160.7776 179.896,-150.2427 183.8084,-141.1137"/>
<polygon fill="#191970" stroke="#191970" points="187.1452,-142.2129 187.8674,-131.6427 180.7112,-139.4554 187.1452,-142.2129"/>
</g>
<!-- Node33&#45;&gt;Node11 -->
<g id="edge45" class="edge">
<title>Node33&#45;&gt;Node11</title>
<path fill="none" stroke="#191970" d="M157.6466,-168.2287C148.8093,-159.4345 136.2556,-145.8064 128,-132 119.2672,-117.3957 112.6521,-99.2137 108.4269,-85.6334"/>
<polygon fill="#191970" stroke="#191970" points="111.7386,-84.4891 105.556,-75.8852 105.0237,-86.4667 111.7386,-84.4891"/>
</g>
<!-- Node33&#45;&gt;Node34 -->
<g id="edge44" class="edge">
<title>Node33&#45;&gt;Node34</title>
<path fill="none" stroke="#191970" d="M149.1878,-168.2455C132.1527,-159.4125 106.8425,-146.2887 87.5319,-136.2758"/>
<polygon fill="#191970" stroke="#191970" points="89.0853,-133.1388 78.5966,-131.6427 85.863,-139.353 89.0853,-133.1388"/>
</g>
<!-- Node35&#45;&gt;Node9 -->
<g id="edge48" class="edge">
<title>Node35&#45;&gt;Node9</title>
<path fill="none" stroke="#191970" d="M739.3651,-168.4789C646.2151,-156.4562 497.6235,-136.7604 486,-132 457.8516,-120.4719 430.5208,-98.0045 413.7369,-82.5099"/>
<polygon fill="#191970" stroke="#191970" points="416.0524,-79.8823 406.3873,-75.5421 411.2363,-84.9622 416.0524,-79.8823"/>
</g>
<!-- Node41&#45;&gt;Node1 -->
<g id="edge60" class="edge">
<title>Node41&#45;&gt;Node1</title>
<path fill="none" stroke="#191970" d="M1462.0589,-224.3733C1443.5214,-215.4241 1415.6972,-201.9917 1394.7587,-191.8835"/>
<polygon fill="#191970" stroke="#191970" points="1396.2081,-188.6967 1385.6809,-187.5011 1393.1648,-195.0006 1396.2081,-188.6967"/>
</g>
<!-- Node42 -->
<g id="node43" class="node">
<title>Node42</title>
<g id="a_node43"><a xlink:href="../../d9/d52/Common_2MathUtils_2include_2MathUtils_2Utils_8h.html" target="_top" xlink:title="MathUtils/Utils.h">
<polygon fill="none" stroke="#000000" points="2320,-168.5 2320,-187.5 2418,-187.5 2418,-168.5 2320,-168.5"/>
<text text-anchor="middle" x="2369" y="-175.5" font-family="Helvetica,sans-Serif" font-size="10.00" fill="#000000">MathUtils/Utils.h</text>
</a>
</g>
</g>
<!-- Node41&#45;&gt;Node42 -->
<g id="edge61" class="edge">
<title>Node41&#45;&gt;Node42</title>
<path fill="none" stroke="#191970" d="M1570.0127,-224.7537C1573.0443,-224.4903 1576.0469,-224.2381 1579,-224 1851.6599,-202.0182 2178.0749,-186.4035 2309.6901,-180.5489"/>
<polygon fill="#191970" stroke="#191970" points="2310.1141,-184.0336 2319.9495,-180.0948 2309.8045,-177.0405 2310.1141,-184.0336"/>
</g>
<!-- Node44 -->
<g id="node45" class="node">
<title>Node44</title>
<polygon fill="none" stroke="#bfbfbf" points="2500.5,-56.5 2500.5,-75.5 2547.5,-75.5 2547.5,-56.5 2500.5,-56.5"/>
<text text-anchor="middle" x="2524" y="-63.5" font-family="Helvetica,sans-Serif" font-size="10.00" fill="#000000">cmath</text>
</g>
<!-- Node41&#45;&gt;Node44 -->
<g id="edge72" class="edge">
<title>Node41&#45;&gt;Node44</title>
<path fill="none" stroke="#191970" d="M1570.0081,-224.6932C1573.041,-224.447 1576.0451,-224.2148 1579,-224 1767.1176,-210.3227 2248.3548,-248.5079 2427,-188 2468.1072,-174.0768 2482.2765,-167.6707 2507,-132 2516.467,-118.3412 2520.6631,-99.8033 2522.5224,-85.8516"/>
<polygon fill="#191970" stroke="#191970" points="2526.0117,-86.1359 2523.5686,-75.8266 2519.0495,-85.4093 2526.0117,-86.1359"/>
</g>
<!-- Node51 -->
<g id="node52" class="node">
<title>Node51</title>
<g id="a_node52"><a xlink:href="../../d2/d12/DataTypes_8h.html" target="_top" xlink:title="Framework/DataTypes.h">
<polygon fill="none" stroke="#000000" points="1975,-168.5 1975,-187.5 2109,-187.5 2109,-168.5 1975,-168.5"/>
<text text-anchor="middle" x="2042" y="-175.5" font-family="Helvetica,sans-Serif" font-size="10.00" fill="#000000">Framework/DataTypes.h</text>
</a>
</g>
</g>
<!-- Node41&#45;&gt;Node51 -->
<g id="edge73" class="edge">
<title>Node41&#45;&gt;Node51</title>
<path fill="none" stroke="#191970" d="M1570.025,-224.8913C1573.0531,-224.5888 1576.0516,-224.2909 1579,-224 1748.706,-207.256 1791.4709,-206.4492 1961,-188 1962.2677,-187.862 1963.5465,-187.7214 1964.8338,-187.5785"/>
<polygon fill="#191970" stroke="#191970" points="1965.2922,-191.049 1974.8337,-186.4436 1964.5028,-184.0937 1965.2922,-191.049"/>
</g>
<!-- Node43 -->
<g id="node44" class="node">
<title>Node43</title>
<polygon fill="none" stroke="#bfbfbf" points="2416,-112.5 2416,-131.5 2458,-131.5 2458,-112.5 2416,-112.5"/>
<text text-anchor="middle" x="2437" y="-119.5" font-family="Helvetica,sans-Serif" font-size="10.00" fill="#000000">array</text>
</g>
<!-- Node42&#45;&gt;Node43 -->
<g id="edge62" class="edge">
<title>Node42&#45;&gt;Node43</title>
<path fill="none" stroke="#191970" d="M2380.8447,-168.2455C2390.888,-159.9746 2405.4995,-147.9416 2417.3004,-138.2232"/>
<polygon fill="#191970" stroke="#191970" points="2419.7967,-140.7015 2425.291,-131.6427 2415.3467,-135.298 2419.7967,-140.7015"/>
</g>
<!-- Node42&#45;&gt;Node44 -->
<g id="edge63" class="edge">
<title>Node42&#45;&gt;Node44</title>
<path fill="none" stroke="#191970" d="M2410.479,-168.4318C2434.0308,-161.389 2462.9235,-149.8688 2484,-132 2498.8028,-119.4501 2509.6599,-99.9733 2516.2974,-85.4256"/>
<polygon fill="#191970" stroke="#191970" points="2519.6684,-86.4441 2520.3809,-75.8732 2513.2318,-83.6925 2519.6684,-86.4441"/>
</g>
<!-- Node45 -->
<g id="node46" class="node">
<title>Node45</title>
<g id="a_node46"><a xlink:href="../../df/d21/GPUCommonDef_8h.html" target="_top" xlink:title="GPUCommonDef.h">
<polygon fill="none" stroke="#000000" points="2308.5,-56.5 2308.5,-75.5 2415.5,-75.5 2415.5,-56.5 2308.5,-56.5"/>
<text text-anchor="middle" x="2362" y="-63.5" font-family="Helvetica,sans-Serif" font-size="10.00" fill="#000000">GPUCommonDef.h</text>
</a>
</g>
</g>
<!-- Node42&#45;&gt;Node45 -->
<g id="edge64" class="edge">
<title>Node42&#45;&gt;Node45</title>
<path fill="none" stroke="#191970" d="M2408.5588,-168.4143C2442.9833,-158.0297 2484.7888,-139.2143 2467,-112 2456.7098,-96.2576 2439.7089,-85.8694 2422.3538,-79.0275"/>
<polygon fill="#191970" stroke="#191970" points="2423.3107,-75.6526 2412.7161,-75.5799 2420.9529,-82.2436 2423.3107,-75.6526"/>
</g>
<!-- Node48 -->
<g id="node49" class="node">
<title>Node48</title>
<g id="a_node49"><a xlink:href="../../d6/da2/GPUCommonMath_8h.html" target="_top" xlink:title="GPUCommonMath.h">
<polygon fill="none" stroke="#000000" points="2070.5,-112.5 2070.5,-131.5 2185.5,-131.5 2185.5,-112.5 2070.5,-112.5"/>
<text text-anchor="middle" x="2128" y="-119.5" font-family="Helvetica,sans-Serif" font-size="10.00" fill="#000000">GPUCommonMath.h</text>
</a>
</g>
</g>
<!-- Node42&#45;&gt;Node48 -->
<g id="edge67" class="edge">
<title>Node42&#45;&gt;Node48</title>
<path fill="none" stroke="#191970" d="M2327.8445,-168.4369C2286.6858,-158.8731 2223.295,-144.1432 2178.9758,-133.845"/>
<polygon fill="#191970" stroke="#191970" points="2179.5185,-130.3779 2168.9858,-131.5237 2177.9341,-137.1963 2179.5185,-130.3779"/>
</g>
<!-- Node50 -->
<g id="node51" class="node">
<title>Node50</title>
<g id="a_node51"><a xlink:href="../../d6/d84/MathConstants_8h.html" target="_top" xlink:title="useful math constants ">
<polygon fill="none" stroke="#000000" points="2204,-112.5 2204,-131.5 2398,-131.5 2398,-112.5 2204,-112.5"/>
<text text-anchor="middle" x="2301" y="-119.5" font-family="Helvetica,sans-Serif" font-size="10.00" fill="#000000">CommonConstants/MathConstants.h</text>
</a>
</g>
</g>
<!-- Node42&#45;&gt;Node50 -->
<g id="edge71" class="edge">
<title>Node42&#45;&gt;Node50</title>
<path fill="none" stroke="#191970" d="M2357.1553,-168.2455C2347.112,-159.9746 2332.5005,-147.9416 2320.6996,-138.2232"/>
<polygon fill="#191970" stroke="#191970" points="2322.6533,-135.298 2312.709,-131.6427 2318.2033,-140.7015 2322.6533,-135.298"/>
</g>
<!-- Node46 -->
<g id="node47" class="node">
<title>Node46</title>
<g id="a_node47"><a xlink:href="../../d5/d93/GPUCommonDefSettings_8h.html" target="_top" xlink:title="GPUCommonDefSettings.h">
<polygon fill="none" stroke="#000000" points="2365,-.5 2365,-19.5 2513,-19.5 2513,-.5 2365,-.5"/>
<text text-anchor="middle" x="2439" y="-7.5" font-family="Helvetica,sans-Serif" font-size="10.00" fill="#000000">GPUCommonDefSettings.h</text>
</a>
</g>
</g>
<!-- Node45&#45;&gt;Node46 -->
<g id="edge65" class="edge">
<title>Node45&#45;&gt;Node46</title>
<path fill="none" stroke="#191970" d="M2375.4124,-56.2455C2387.0057,-47.814 2403.9748,-35.4729 2417.4678,-25.6598"/>
<polygon fill="#191970" stroke="#191970" points="2419.7126,-28.355 2425.7413,-19.6427 2415.5953,-22.6938 2419.7126,-28.355"/>
</g>
<!-- Node47 -->
<g id="node48" class="node">
<title>Node47</title>
<g id="a_node48"><a xlink:href="../../da/d5a/GPUCommonDefAPI_8h.html" target="_top" xlink:title="GPUCommonDefAPI.h">
<polygon fill="none" stroke="#000000" points="2223,-.5 2223,-19.5 2347,-19.5 2347,-.5 2223,-.5"/>
<text text-anchor="middle" x="2285" y="-7.5" font-family="Helvetica,sans-Serif" font-size="10.00" fill="#000000">GPUCommonDefAPI.h</text>
</a>
</g>
</g>
<!-- Node45&#45;&gt;Node47 -->
<g id="edge66" class="edge">
<title>Node45&#45;&gt;Node47</title>
<path fill="none" stroke="#191970" d="M2348.5876,-56.2455C2336.9943,-47.814 2320.0252,-35.4729 2306.5322,-25.6598"/>
<polygon fill="#191970" stroke="#191970" points="2308.4047,-22.6938 2298.2587,-19.6427 2304.2874,-28.355 2308.4047,-22.6938"/>
</g>
<!-- Node48&#45;&gt;Node44 -->
<g id="edge69" class="edge">
<title>Node48&#45;&gt;Node44</title>
<path fill="none" stroke="#191970" d="M2185.7385,-113.3477C2188.8709,-112.8891 2191.9736,-112.4374 2195,-112 2302.9642,-96.3957 2430.9884,-78.7388 2490.494,-70.5806"/>
<polygon fill="#191970" stroke="#191970" points="2491.0198,-74.0413 2500.4522,-69.2163 2490.0696,-67.1061 2491.0198,-74.0413"/>
</g>
<!-- Node48&#45;&gt;Node45 -->
<g id="edge68" class="edge">
<title>Node48&#45;&gt;Node45</title>
<path fill="none" stroke="#191970" d="M2167.9602,-112.4369C2207.8392,-102.8932 2269.2139,-88.2052 2312.2328,-77.9101"/>
<polygon fill="#191970" stroke="#191970" points="2313.2939,-81.2551 2322.2047,-75.5237 2311.6646,-74.4473 2313.2939,-81.2551"/>
</g>
<!-- Node49 -->
<g id="node50" class="node">
<title>Node49</title>
<polygon fill="none" stroke="#bfbfbf" points="2196,-56.5 2196,-75.5 2260,-75.5 2260,-56.5 2196,-56.5"/>
<text text-anchor="middle" x="2228" y="-63.5" font-family="Helvetica,sans-Serif" font-size="10.00" fill="#000000">algorithm</text>
</g>
<!-- Node48&#45;&gt;Node49 -->
<g id="edge70" class="edge">
<title>Node48&#45;&gt;Node49</title>
<path fill="none" stroke="#191970" d="M2145.4187,-112.2455C2161.0485,-103.4928 2184.2019,-90.527 2202.0185,-80.5496"/>
<polygon fill="#191970" stroke="#191970" points="2203.766,-83.5825 2210.7809,-75.6427 2200.3457,-77.475 2203.766,-83.5825"/>
</g>
<!-- Node52 -->
<g id="node53" class="node">
<title>Node52</title>
<polygon fill="none" stroke="#bfbfbf" points="2002,-112.5 2002,-131.5 2052,-131.5 2052,-112.5 2002,-112.5"/>
<text text-anchor="middle" x="2027" y="-119.5" font-family="Helvetica,sans-Serif" font-size="10.00" fill="#000000">cstdint</text>
</g>
<!-- Node51&#45;&gt;Node52 -->
<g id="edge74" class="edge">
<title>Node51&#45;&gt;Node52</title>
<path fill="none" stroke="#191970" d="M2039.3872,-168.2455C2037.4084,-160.8579 2034.6256,-150.4689 2032.1988,-141.4087"/>
<polygon fill="#191970" stroke="#191970" points="2035.5511,-140.3966 2029.5829,-131.6427 2028.7895,-142.2078 2035.5511,-140.3966"/>
</g>
</g>
</svg>
