<?xml version="1.0" encoding="UTF-8" standalone="no"?>
<!DOCTYPE svg PUBLIC "-//W3C//DTD SVG 1.1//EN"
 "http://www.w3.org/Graphics/SVG/1.1/DTD/svg11.dtd">
<!-- Generated by graphviz version 2.40.1 (20161225.0304)
 -->
<!-- Title: /home/travis/build/AliceO2Group/AliceO2/Framework/Core/src/TableBuilder.cxx Pages: 1 -->
<svg width="2680pt" height="330pt"
 viewBox="0.00 0.00 2679.50 330.00" xmlns="http://www.w3.org/2000/svg" xmlns:xlink="http://www.w3.org/1999/xlink">
<g id="graph0" class="graph" transform="scale(1 1) rotate(0) translate(4 326)">
<title>/home/travis/build/AliceO2Group/AliceO2/Framework/Core/src/TableBuilder.cxx</title>
<!-- Node0 -->
<g id="node1" class="node">
<title>Node0</title>
<polygon fill="#bfbfbf" stroke="#000000" points="2142,-280.5 2142,-321.5 2341,-321.5 2341,-280.5 2142,-280.5"/>
<text text-anchor="start" x="2150" y="-309.5" font-family="Helvetica,sans-Serif" font-size="10.00" fill="#000000">/home/travis/build</text>
<text text-anchor="start" x="2150" y="-298.5" font-family="Helvetica,sans-Serif" font-size="10.00" fill="#000000">/AliceO2Group/AliceO2</text>
<text text-anchor="middle" x="2241.5" y="-287.5" font-family="Helvetica,sans-Serif" font-size="10.00" fill="#000000">/Framework/Core/src/TableBuilder.cxx</text>
</g>
<!-- Node1 -->
<g id="node2" class="node">
<title>Node1</title>
<g id="a_node2"><a xlink:href="../../d5/d98/TableBuilder_8h.html" target="_top" xlink:title="Framework/TableBuilder.h">
<polygon fill="none" stroke="#000000" points="1074.5,-224.5 1074.5,-243.5 1216.5,-243.5 1216.5,-224.5 1074.5,-224.5"/>
<text text-anchor="middle" x="1145.5" y="-231.5" font-family="Helvetica,sans-Serif" font-size="10.00" fill="#000000">Framework/TableBuilder.h</text>
</a>
</g>
</g>
<!-- Node0&#45;&gt;Node1 -->
<g id="edge1" class="edge">
<title>Node0&#45;&gt;Node1</title>
<path fill="none" stroke="#191970" d="M2141.8186,-294.9063C1926.9597,-281.7717 1423.7338,-251.0088 1226.6748,-238.9623"/>
<polygon fill="#191970" stroke="#191970" points="1226.8718,-235.4679 1216.6768,-238.3511 1226.4446,-242.4549 1226.8718,-235.4679"/>
</g>
<!-- Node19 -->
<g id="node20" class="node">
<title>Node19</title>
<polygon fill="none" stroke="#bfbfbf" points="2090,-56.5 2090,-75.5 2171,-75.5 2171,-56.5 2090,-56.5"/>
<text text-anchor="middle" x="2130.5" y="-63.5" font-family="Helvetica,sans-Serif" font-size="10.00" fill="#000000">arrow/table.h</text>
</g>
<!-- Node0&#45;&gt;Node19 -->
<g id="edge62" class="edge">
<title>Node0&#45;&gt;Node19</title>
<path fill="none" stroke="#191970" d="M2253.4488,-280.0648C2267.2583,-252.879 2285.8721,-204.5835 2267.5,-168 2245.9404,-125.0694 2196.8013,-95.6255 2163.6241,-79.7916"/>
<polygon fill="#191970" stroke="#191970" points="2164.8547,-76.505 2154.3076,-75.5006 2161.9263,-82.8631 2164.8547,-76.505"/>
</g>
<!-- Node27 -->
<g id="node28" class="node">
<title>Node27</title>
<polygon fill="none" stroke="#bfbfbf" points="87.5,-56.5 87.5,-75.5 145.5,-75.5 145.5,-56.5 87.5,-56.5"/>
<text text-anchor="middle" x="116.5" y="-63.5" font-family="Helvetica,sans-Serif" font-size="10.00" fill="#000000">memory</text>
</g>
<!-- Node0&#45;&gt;Node27 -->
<g id="edge58" class="edge">
<title>Node0&#45;&gt;Node27</title>
<path fill="none" stroke="#191970" d="M2141.7535,-298.4983C1817.5148,-289.7595 795.7162,-257.2859 473.5,-188 349.758,-161.3918 209.4106,-105.4383 148.0354,-79.6036"/>
<polygon fill="#191970" stroke="#191970" points="149.109,-76.2573 138.5359,-75.5792 146.3784,-82.7028 149.109,-76.2573"/>
</g>
<!-- Node36 -->
<g id="node37" class="node">
<title>Node36</title>
<polygon fill="none" stroke="#bfbfbf" points="2042,-168.5 2042,-187.5 2151,-187.5 2151,-168.5 2042,-168.5"/>
<text text-anchor="middle" x="2096.5" y="-175.5" font-family="Helvetica,sans-Serif" font-size="10.00" fill="#000000">arrow/type_traits.h</text>
</g>
<!-- Node0&#45;&gt;Node36 -->
<g id="edge63" class="edge">
<title>Node0&#45;&gt;Node36</title>
<path fill="none" stroke="#191970" d="M2217.2303,-280.4126C2188.5676,-256.0987 2141.4986,-216.1712 2115.4054,-194.037"/>
<polygon fill="#191970" stroke="#191970" points="2117.6106,-191.318 2107.7206,-187.5182 2113.0824,-196.6561 2117.6106,-191.318"/>
</g>
<!-- Node39 -->
<g id="node40" class="node">
<title>Node39</title>
<polygon fill="none" stroke="#bfbfbf" points="2169,-168.5 2169,-187.5 2258,-187.5 2258,-168.5 2169,-168.5"/>
<text text-anchor="middle" x="2213.5" y="-175.5" font-family="Helvetica,sans-Serif" font-size="10.00" fill="#000000">arrow/builder.h</text>
</g>
<!-- Node0&#45;&gt;Node39 -->
<g id="edge59" class="edge">
<title>Node0&#45;&gt;Node39</title>
<path fill="none" stroke="#191970" d="M2236.8134,-280.4126C2231.5421,-257.2565 2223.047,-219.9384 2217.8972,-197.3165"/>
<polygon fill="#191970" stroke="#191970" points="2221.2991,-196.4918 2215.6667,-187.5182 2214.4738,-198.0456 2221.2991,-196.4918"/>
</g>
<!-- Node41 -->
<g id="node42" class="node">
<title>Node41</title>
<polygon fill="none" stroke="#bfbfbf" points="2305.5,-224.5 2305.5,-243.5 2429.5,-243.5 2429.5,-224.5 2305.5,-224.5"/>
<text text-anchor="middle" x="2367.5" y="-231.5" font-family="Helvetica,sans-Serif" font-size="10.00" fill="#000000">arrow/memory_pool.h</text>
</g>
<!-- Node0&#45;&gt;Node41 -->
<g id="edge60" class="edge">
<title>Node0&#45;&gt;Node41</title>
<path fill="none" stroke="#191970" d="M2280.3323,-280.3511C2299.7335,-270.0346 2322.7389,-257.8015 2340.2429,-248.4939"/>
<polygon fill="#191970" stroke="#191970" points="2342.1574,-251.4399 2349.3435,-243.6546 2338.8709,-245.2594 2342.1574,-251.4399"/>
</g>
<!-- Node42 -->
<g id="node43" class="node">
<title>Node42</title>
<polygon fill="none" stroke="#bfbfbf" points="2448,-224.5 2448,-243.5 2567,-243.5 2567,-224.5 2448,-224.5"/>
<text text-anchor="middle" x="2507.5" y="-231.5" font-family="Helvetica,sans-Serif" font-size="10.00" fill="#000000">arrow/record_batch.h</text>
</g>
<!-- Node0&#45;&gt;Node42 -->
<g id="edge61" class="edge">
<title>Node0&#45;&gt;Node42</title>
<path fill="none" stroke="#191970" d="M2323.1165,-280.4425C2367.9776,-269.1429 2422.0552,-255.5218 2460.007,-245.9625"/>
<polygon fill="#191970" stroke="#191970" points="2460.9347,-249.3383 2469.7769,-243.5017 2459.2249,-242.5503 2460.9347,-249.3383"/>
</g>
<!-- Node43 -->
<g id="node44" class="node">
<title>Node43</title>
<polygon fill="none" stroke="#bfbfbf" points="2585.5,-224.5 2585.5,-243.5 2671.5,-243.5 2671.5,-224.5 2585.5,-224.5"/>
<text text-anchor="middle" x="2628.5" y="-231.5" font-family="Helvetica,sans-Serif" font-size="10.00" fill="#000000">arrow/status.h</text>
</g>
<!-- Node0&#45;&gt;Node43 -->
<g id="edge64" class="edge">
<title>Node0&#45;&gt;Node43</title>
<path fill="none" stroke="#191970" d="M2341.2762,-284.5986C2405.4011,-273.9215 2490.7591,-259.4573 2575.3413,-244.1834"/>
<polygon fill="#191970" stroke="#191970" points="2576.1665,-247.591 2585.3831,-242.3655 2574.9195,-240.7029 2576.1665,-247.591"/>
</g>
<!-- Node2 -->
<g id="node3" class="node">
<title>Node2</title>
<g id="a_node3"><a xlink:href="../../de/d33/ASoA_8h.html" target="_top" xlink:title="Framework/ASoA.h">
<polygon fill="none" stroke="#000000" points="1241.5,-168.5 1241.5,-187.5 1349.5,-187.5 1349.5,-168.5 1241.5,-168.5"/>
<text text-anchor="middle" x="1295.5" y="-175.5" font-family="Helvetica,sans-Serif" font-size="10.00" fill="#000000">Framework/ASoA.h</text>
</a>
</g>
</g>
<!-- Node1&#45;&gt;Node2 -->
<g id="edge2" class="edge">
<title>Node1&#45;&gt;Node2</title>
<path fill="none" stroke="#191970" d="M1171.2859,-224.3733C1195.9047,-215.1822 1233.19,-201.2624 1260.4875,-191.0713"/>
<polygon fill="#191970" stroke="#191970" points="1261.9063,-194.2777 1270.0506,-187.5011 1259.458,-187.7198 1261.9063,-194.2777"/>
</g>
<!-- Node8 -->
<g id="node9" class="node">
<title>Node8</title>
<g id="a_node9"><a xlink:href="../../de/d9b/FunctionalHelpers_8h.html" target="_top" xlink:title="Framework/FunctionalHelpers.h">
<polygon fill="none" stroke="#000000" points="1739.5,-112.5 1739.5,-131.5 1909.5,-131.5 1909.5,-112.5 1739.5,-112.5"/>
<text text-anchor="middle" x="1824.5" y="-119.5" font-family="Helvetica,sans-Serif" font-size="10.00" fill="#000000">Framework/FunctionalHelpers.h</text>
</a>
</g>
</g>
<!-- Node1&#45;&gt;Node8 -->
<g id="edge45" class="edge">
<title>Node1&#45;&gt;Node8</title>
<path fill="none" stroke="#191970" d="M1203.0983,-224.4993C1327.932,-203.9081 1622.9236,-155.2497 1756.5796,-133.2034"/>
<polygon fill="#191970" stroke="#191970" points="1757.3943,-136.6164 1766.6913,-131.5355 1756.255,-129.7097 1757.3943,-136.6164"/>
</g>
<!-- Node9 -->
<g id="node10" class="node">
<title>Node9</title>
<polygon fill="none" stroke="#bfbfbf" points="2007,-56.5 2007,-75.5 2072,-75.5 2072,-56.5 2007,-56.5"/>
<text text-anchor="middle" x="2039.5" y="-63.5" font-family="Helvetica,sans-Serif" font-size="10.00" fill="#000000">functional</text>
</g>
<!-- Node1&#45;&gt;Node9 -->
<g id="edge53" class="edge">
<title>Node1&#45;&gt;Node9</title>
<path fill="none" stroke="#191970" d="M1216.5204,-227.9995C1381.892,-213.4856 1788.4752,-174.5276 1918.5,-132 1955.2426,-119.9825 1993.7993,-96.8481 2017.2476,-81.414"/>
<polygon fill="#191970" stroke="#191970" points="2019.388,-84.1929 2025.7472,-75.7187 2015.4914,-78.3777 2019.388,-84.1929"/>
</g>
<!-- Node1&#45;&gt;Node19 -->
<g id="edge51" class="edge">
<title>Node1&#45;&gt;Node19</title>
<path fill="none" stroke="#191970" d="M1216.6125,-232.4871C1359.4458,-227.8375 1690.219,-208.9181 1955.5,-132 2006.734,-117.1447 2064.2794,-94.1756 2098.9366,-79.6241"/>
<polygon fill="#191970" stroke="#191970" points="2100.6569,-82.6967 2108.5028,-75.5768 2097.9293,-76.25 2100.6569,-82.6967"/>
</g>
<!-- Node26 -->
<g id="node27" class="node">
<title>Node26</title>
<polygon fill="none" stroke="#bfbfbf" points="163.5,-56.5 163.5,-75.5 207.5,-75.5 207.5,-56.5 163.5,-56.5"/>
<text text-anchor="middle" x="185.5" y="-63.5" font-family="Helvetica,sans-Serif" font-size="10.00" fill="#000000">string</text>
</g>
<!-- Node1&#45;&gt;Node26 -->
<g id="edge55" class="edge">
<title>Node1&#45;&gt;Node26</title>
<path fill="none" stroke="#191970" d="M1074.4535,-230.6719C1010.1145,-225.9972 913.4483,-214.7932 833.5,-188 825.155,-185.2033 702.9392,-114.4978 694.5,-112 493.4061,-52.4806 427.62,-114.9753 217.7872,-75.7955"/>
<polygon fill="#191970" stroke="#191970" points="218.1663,-72.3043 207.6852,-73.852 216.8438,-79.1782 218.1663,-72.3043"/>
</g>
<!-- Node1&#45;&gt;Node27 -->
<g id="edge56" class="edge">
<title>Node1&#45;&gt;Node27</title>
<path fill="none" stroke="#191970" d="M1074.2211,-228.0022C986.5656,-220.0553 843.1718,-205.0378 792.5,-188 744.9508,-172.0121 737.8982,-157.1623 694.5,-132 679.3333,-123.2063 677.2415,-117.204 660.5,-112 448.358,-46.057 378.9576,-110.8918 155.8927,-75.9255"/>
<polygon fill="#191970" stroke="#191970" points="156.2721,-72.4415 145.8414,-74.2991 155.1539,-79.3516 156.2721,-72.4415"/>
</g>
<!-- Node33 -->
<g id="node34" class="node">
<title>Node33</title>
<g id="a_node34"><a xlink:href="../../db/d4f/StructToTuple_8h.html" target="_top" xlink:title="Framework/StructToTuple.h">
<polygon fill="none" stroke="#000000" points="502,-168.5 502,-187.5 649,-187.5 649,-168.5 502,-168.5"/>
<text text-anchor="middle" x="575.5" y="-175.5" font-family="Helvetica,sans-Serif" font-size="10.00" fill="#000000">Framework/StructToTuple.h</text>
</a>
</g>
</g>
<!-- Node1&#45;&gt;Node33 -->
<g id="edge41" class="edge">
<title>Node1&#45;&gt;Node33</title>
<path fill="none" stroke="#191970" d="M1074.4583,-227.4843C980.9066,-218.8338 811.307,-202.9089 666.5,-188 664.252,-187.7686 661.973,-187.532 659.6733,-187.2915"/>
<polygon fill="#191970" stroke="#191970" points="659.8027,-183.7858 649.4905,-186.2166 659.0678,-190.7471 659.8027,-183.7858"/>
</g>
<!-- Node34 -->
<g id="node35" class="node">
<title>Node34</title>
<polygon fill="none" stroke="#bfbfbf" points="445,-112.5 445,-131.5 486,-131.5 486,-112.5 445,-112.5"/>
<text text-anchor="middle" x="465.5" y="-119.5" font-family="Helvetica,sans-Serif" font-size="10.00" fill="#000000">tuple</text>
</g>
<!-- Node1&#45;&gt;Node34 -->
<g id="edge57" class="edge">
<title>Node1&#45;&gt;Node34</title>
<path fill="none" stroke="#191970" d="M1074.4347,-233.1785C914.9351,-230.7432 538.7661,-221.479 492.5,-188 477.6499,-177.2542 470.9457,-156.8608 467.9322,-141.5741"/>
<polygon fill="#191970" stroke="#191970" points="471.3652,-140.8765 466.3265,-131.5565 464.4534,-141.9844 471.3652,-140.8765"/>
</g>
<!-- Node35 -->
<g id="node36" class="node">
<title>Node35</title>
<g id="a_node36"><a xlink:href="../../d7/dbe/VariantHelpers_8h.html" target="_top" xlink:title="Framework/VariantHelpers.h">
<polygon fill="none" stroke="#000000" points="1068,-168.5 1068,-187.5 1223,-187.5 1223,-168.5 1068,-168.5"/>
<text text-anchor="middle" x="1145.5" y="-175.5" font-family="Helvetica,sans-Serif" font-size="10.00" fill="#000000">Framework/VariantHelpers.h</text>
</a>
</g>
</g>
<!-- Node1&#45;&gt;Node35 -->
<g id="edge46" class="edge">
<title>Node1&#45;&gt;Node35</title>
<path fill="none" stroke="#191970" d="M1145.5,-224.2455C1145.5,-216.9382 1145.5,-206.6944 1145.5,-197.7046"/>
<polygon fill="#191970" stroke="#191970" points="1149.0001,-197.6426 1145.5,-187.6427 1142.0001,-197.6427 1149.0001,-197.6426"/>
</g>
<!-- Node1&#45;&gt;Node36 -->
<g id="edge48" class="edge">
<title>Node1&#45;&gt;Node36</title>
<path fill="none" stroke="#191970" d="M1216.548,-232.5065C1366.6333,-228.8655 1726.8836,-217.56 2027.5,-188 2028.9681,-187.8556 2030.4529,-187.7024 2031.9493,-187.5413"/>
<polygon fill="#191970" stroke="#191970" points="2032.4146,-191.0109 2041.9432,-186.3787 2031.6057,-184.0578 2032.4146,-191.0109"/>
</g>
<!-- Node37 -->
<g id="node38" class="node">
<title>Node37</title>
<polygon fill="none" stroke="#bfbfbf" points="842.5,-168.5 842.5,-187.5 898.5,-187.5 898.5,-168.5 842.5,-168.5"/>
<text text-anchor="middle" x="870.5" y="-175.5" font-family="Helvetica,sans-Serif" font-size="10.00" fill="#000000">sstream</text>
</g>
<!-- Node1&#45;&gt;Node37 -->
<g id="edge49" class="edge">
<title>Node1&#45;&gt;Node37</title>
<path fill="none" stroke="#191970" d="M1089.9541,-224.4495C1043.8329,-216.2506 976.3089,-203.6287 908.7012,-188.1598"/>
<polygon fill="#191970" stroke="#191970" points="909.2593,-184.6967 898.7282,-185.8571 907.6844,-191.5172 909.2593,-184.6967"/>
</g>
<!-- Node38 -->
<g id="node39" class="node">
<title>Node38</title>
<polygon fill="none" stroke="#bfbfbf" points="916.5,-168.5 916.5,-187.5 984.5,-187.5 984.5,-168.5 916.5,-168.5"/>
<text text-anchor="middle" x="950.5" y="-175.5" font-family="Helvetica,sans-Serif" font-size="10.00" fill="#000000">arrow/stl.h</text>
</g>
<!-- Node1&#45;&gt;Node38 -->
<g id="edge50" class="edge">
<title>Node1&#45;&gt;Node38</title>
<path fill="none" stroke="#191970" d="M1111.9783,-224.3733C1079.1317,-214.9404 1028.9405,-200.5265 993.2422,-190.2747"/>
<polygon fill="#191970" stroke="#191970" points="994.1619,-186.8974 983.5843,-187.5011 992.2297,-193.6255 994.1619,-186.8974"/>
</g>
<!-- Node1&#45;&gt;Node39 -->
<g id="edge52" class="edge">
<title>Node1&#45;&gt;Node39</title>
<path fill="none" stroke="#191970" d="M1216.628,-232.0503C1412.3977,-226.4842 1957.381,-209.592 2158.602,-187.907"/>
<polygon fill="#191970" stroke="#191970" points="2159.232,-191.3585 2168.7824,-186.7716 2158.4561,-184.4017 2159.232,-191.3585"/>
</g>
<!-- Node40 -->
<g id="node41" class="node">
<title>Node40</title>
<polygon fill="none" stroke="#bfbfbf" points="1003,-168.5 1003,-187.5 1050,-187.5 1050,-168.5 1003,-168.5"/>
<text text-anchor="middle" x="1026.5" y="-175.5" font-family="Helvetica,sans-Serif" font-size="10.00" fill="#000000">vector</text>
</g>
<!-- Node1&#45;&gt;Node40 -->
<g id="edge54" class="edge">
<title>Node1&#45;&gt;Node40</title>
<path fill="none" stroke="#191970" d="M1125.0432,-224.3733C1106.0262,-215.4241 1077.4825,-201.9917 1056.0024,-191.8835"/>
<polygon fill="#191970" stroke="#191970" points="1057.2284,-188.5923 1046.6899,-187.5011 1054.2478,-194.926 1057.2284,-188.5923"/>
</g>
<!-- Node3 -->
<g id="node4" class="node">
<title>Node3</title>
<g id="a_node4"><a xlink:href="../../dd/dce/Pack_8h.html" target="_top" xlink:title="Framework/Pack.h">
<polygon fill="none" stroke="#000000" points="1884,-56.5 1884,-75.5 1989,-75.5 1989,-56.5 1884,-56.5"/>
<text text-anchor="middle" x="1936.5" y="-63.5" font-family="Helvetica,sans-Serif" font-size="10.00" fill="#000000">Framework/Pack.h</text>
</a>
</g>
</g>
<!-- Node2&#45;&gt;Node3 -->
<g id="edge3" class="edge">
<title>Node2&#45;&gt;Node3</title>
<path fill="none" stroke="#191970" d="M1295.106,-168.0532C1295.1205,-153.2214 1297.5897,-125.6007 1314.5,-112 1361.1881,-74.4495 1778.0384,-82.262 1873.7484,-75.727"/>
<polygon fill="#191970" stroke="#191970" points="1874.1226,-79.2078 1883.7819,-74.8549 1873.5164,-72.2341 1874.1226,-79.2078"/>
</g>
<!-- Node7 -->
<g id="node8" class="node">
<title>Node7</title>
<g id="a_node8"><a xlink:href="../../d1/d00/CheckTypes_8h.html" target="_top" xlink:title="Framework/CheckTypes.h">
<polygon fill="none" stroke="#000000" points="407.5,-56.5 407.5,-75.5 547.5,-75.5 547.5,-56.5 407.5,-56.5"/>
<text text-anchor="middle" x="477.5" y="-63.5" font-family="Helvetica,sans-Serif" font-size="10.00" fill="#000000">Framework/CheckTypes.h</text>
</a>
</g>
</g>
<!-- Node2&#45;&gt;Node7 -->
<g id="edge7" class="edge">
<title>Node2&#45;&gt;Node7</title>
<path fill="none" stroke="#191970" d="M1241.4109,-169.3129C1238.0601,-168.8478 1234.736,-168.4057 1231.5,-168 1063.1727,-146.8957 1015.2275,-176.4159 851.5,-132 831.1581,-126.4816 828.7167,-117.9608 808.5,-112 796.5534,-108.4776 651.6649,-88.9784 557.5841,-76.5243"/>
<polygon fill="#191970" stroke="#191970" points="557.8838,-73.0336 547.5112,-75.1921 556.966,-79.9732 557.8838,-73.0336"/>
</g>
<!-- Node2&#45;&gt;Node8 -->
<g id="edge8" class="edge">
<title>Node2&#45;&gt;Node8</title>
<path fill="none" stroke="#191970" d="M1349.6263,-172.2702C1438.8735,-162.8225 1618.0463,-143.8552 1728.9855,-132.1112"/>
<polygon fill="#191970" stroke="#191970" points="1729.5954,-135.5663 1739.1713,-131.0329 1728.8584,-128.6052 1729.5954,-135.5663"/>
</g>
<!-- Node10 -->
<g id="node11" class="node">
<title>Node10</title>
<g id="a_node11"><a xlink:href="../../d9/de8/CompilerBuiltins_8h.html" target="_top" xlink:title="Framework/CompilerBuiltins.h">
<polygon fill="none" stroke="#000000" points="225.5,-56.5 225.5,-75.5 389.5,-75.5 389.5,-56.5 225.5,-56.5"/>
<text text-anchor="middle" x="307.5" y="-63.5" font-family="Helvetica,sans-Serif" font-size="10.00" fill="#000000">Framework/CompilerBuiltins.h</text>
</a>
</g>
</g>
<!-- Node2&#45;&gt;Node10 -->
<g id="edge11" class="edge">
<title>Node2&#45;&gt;Node10</title>
<path fill="none" stroke="#191970" d="M1241.4154,-169.2764C1238.0635,-168.8204 1234.7379,-168.3903 1231.5,-168 1044.1761,-145.4222 989.585,-184.9925 808.5,-132 790.183,-126.6397 788.7857,-117.4662 770.5,-112 614.4612,-65.3551 565.629,-91.9825 399.881,-76.0971"/>
<polygon fill="#191970" stroke="#191970" points="400.1325,-72.6049 389.8348,-75.0962 399.4385,-79.5704 400.1325,-72.6049"/>
</g>
<!-- Node11 -->
<g id="node12" class="node">
<title>Node11</title>
<g id="a_node12"><a xlink:href="../../db/d31/Traits_8h.html" target="_top" xlink:title="Framework/Traits.h">
<polygon fill="none" stroke="#000000" points="543,-112.5 543,-131.5 652,-131.5 652,-112.5 543,-112.5"/>
<text text-anchor="middle" x="597.5" y="-119.5" font-family="Helvetica,sans-Serif" font-size="10.00" fill="#000000">Framework/Traits.h</text>
</a>
</g>
</g>
<!-- Node2&#45;&gt;Node11 -->
<g id="edge12" class="edge">
<title>Node2&#45;&gt;Node11</title>
<path fill="none" stroke="#191970" d="M1241.4209,-169.2288C1238.0677,-168.7846 1234.7403,-168.3701 1231.5,-168 1122.6589,-155.5698 801.3314,-134.7537 662.5497,-126.0344"/>
<polygon fill="#191970" stroke="#191970" points="662.6793,-122.5357 652.4798,-125.4028 662.241,-129.522 662.6793,-122.5357"/>
</g>
<!-- Node13 -->
<g id="node14" class="node">
<title>Node13</title>
<g id="a_node14"><a xlink:href="../../d0/d91/Expressions_8h.html" target="_top" xlink:title="Framework/Expressions.h">
<polygon fill="none" stroke="#000000" points="969,-112.5 969,-131.5 1110,-131.5 1110,-112.5 969,-112.5"/>
<text text-anchor="middle" x="1039.5" y="-119.5" font-family="Helvetica,sans-Serif" font-size="10.00" fill="#000000">Framework/Expressions.h</text>
</a>
</g>
</g>
<!-- Node2&#45;&gt;Node13 -->
<g id="edge14" class="edge">
<title>Node2&#45;&gt;Node13</title>
<path fill="none" stroke="#191970" d="M1251.7829,-168.4369C1207.8784,-158.8328 1140.1587,-144.0191 1093.055,-133.7152"/>
<polygon fill="#191970" stroke="#191970" points="1093.5537,-130.2416 1083.0368,-131.5237 1092.0578,-137.0799 1093.5537,-130.2416"/>
</g>
<!-- Node2&#45;&gt;Node19 -->
<g id="edge34" class="edge">
<title>Node2&#45;&gt;Node19</title>
<path fill="none" stroke="#191970" d="M1349.6793,-175.5885C1480.3597,-169.5157 1810.0873,-152.5978 1918.5,-132 1982.8739,-119.7693 2055.2294,-94.6818 2096.5846,-79.2038"/>
<polygon fill="#191970" stroke="#191970" points="2098.0439,-82.3939 2106.16,-75.5838 2095.5685,-75.8462 2098.0439,-82.3939"/>
</g>
<!-- Node20 -->
<g id="node21" class="node">
<title>Node20</title>
<polygon fill="none" stroke="#bfbfbf" points="566,-56.5 566,-75.5 713,-75.5 713,-56.5 566,-56.5"/>
<text text-anchor="middle" x="639.5" y="-63.5" font-family="Helvetica,sans-Serif" font-size="10.00" fill="#000000">gandiva/selection_vector.h</text>
</g>
<!-- Node2&#45;&gt;Node20 -->
<g id="edge38" class="edge">
<title>Node2&#45;&gt;Node20</title>
<path fill="none" stroke="#191970" d="M1241.3918,-169.4545C1238.0458,-168.9543 1234.7279,-168.4657 1231.5,-168 1110.8067,-150.5862 1075.7035,-168.9713 959.5,-132 941.3131,-126.2136 939.5978,-118.0595 921.5,-112 885.6889,-100.0098 792.7181,-86.0098 723.2499,-76.6323"/>
<polygon fill="#191970" stroke="#191970" points="723.5569,-73.1422 713.1806,-75.2831 722.6271,-80.0802 723.5569,-73.1422"/>
</g>
<!-- Node24 -->
<g id="node25" class="node">
<title>Node24</title>
<polygon fill="none" stroke="#bfbfbf" points="1787,-56.5 1787,-75.5 1866,-75.5 1866,-56.5 1787,-56.5"/>
<text text-anchor="middle" x="1826.5" y="-63.5" font-family="Helvetica,sans-Serif" font-size="10.00" fill="#000000">fmt/format.h</text>
</g>
<!-- Node2&#45;&gt;Node24 -->
<g id="edge40" class="edge">
<title>Node2&#45;&gt;Node24</title>
<path fill="none" stroke="#191970" d="M1349.8154,-174.1011C1442.8972,-167.0181 1628.915,-151.0002 1691.5,-132 1710.1396,-126.3412 1713.0482,-120.654 1730.5,-112 1752.7379,-100.9727 1778.0659,-88.8546 1797.1206,-79.8257"/>
<polygon fill="#191970" stroke="#191970" points="1798.6522,-82.9731 1806.1961,-75.534 1795.6597,-76.6449 1798.6522,-82.9731"/>
</g>
<!-- Node28 -->
<g id="node29" class="node">
<title>Node28</title>
<g id="a_node29"><a xlink:href="../../d4/de7/ArrowTypes_8h.html" target="_top" xlink:title="Framework/ArrowTypes.h">
<polygon fill="none" stroke="#000000" points="1128,-112.5 1128,-131.5 1267,-131.5 1267,-112.5 1128,-112.5"/>
<text text-anchor="middle" x="1197.5" y="-119.5" font-family="Helvetica,sans-Serif" font-size="10.00" fill="#000000">Framework/ArrowTypes.h</text>
</a>
</g>
</g>
<!-- Node2&#45;&gt;Node28 -->
<g id="edge32" class="edge">
<title>Node2&#45;&gt;Node28</title>
<path fill="none" stroke="#191970" d="M1278.4297,-168.2455C1263.253,-159.5731 1240.8379,-146.7645 1223.4437,-136.825"/>
<polygon fill="#191970" stroke="#191970" points="1224.7936,-133.5653 1214.3747,-131.6427 1221.3206,-139.643 1224.7936,-133.5653"/>
</g>
<!-- Node29 -->
<g id="node30" class="node">
<title>Node29</title>
<polygon fill="none" stroke="#bfbfbf" points="1323.5,-112.5 1323.5,-131.5 1403.5,-131.5 1403.5,-112.5 1323.5,-112.5"/>
<text text-anchor="middle" x="1363.5" y="-119.5" font-family="Helvetica,sans-Serif" font-size="10.00" fill="#000000">arrow/array.h</text>
</g>
<!-- Node2&#45;&gt;Node29 -->
<g id="edge35" class="edge">
<title>Node2&#45;&gt;Node29</title>
<path fill="none" stroke="#191970" d="M1307.3447,-168.2455C1317.388,-159.9746 1331.9995,-147.9416 1343.8004,-138.2232"/>
<polygon fill="#191970" stroke="#191970" points="1346.2967,-140.7015 1351.791,-131.6427 1341.8467,-135.298 1346.2967,-140.7015"/>
</g>
<!-- Node30 -->
<g id="node31" class="node">
<title>Node30</title>
<polygon fill="none" stroke="#bfbfbf" points="1421.5,-112.5 1421.5,-131.5 1531.5,-131.5 1531.5,-112.5 1421.5,-112.5"/>
<text text-anchor="middle" x="1476.5" y="-119.5" font-family="Helvetica,sans-Serif" font-size="10.00" fill="#000000">arrow/util/variant.h</text>
</g>
<!-- Node2&#45;&gt;Node30 -->
<g id="edge36" class="edge">
<title>Node2&#45;&gt;Node30</title>
<path fill="none" stroke="#191970" d="M1326.615,-168.3733C1356.8429,-159.021 1402.896,-144.7725 1435.9739,-134.5385"/>
<polygon fill="#191970" stroke="#191970" points="1437.2723,-137.8005 1445.791,-131.5011 1435.2033,-131.1133 1437.2723,-137.8005"/>
</g>
<!-- Node31 -->
<g id="node32" class="node">
<title>Node31</title>
<polygon fill="none" stroke="#bfbfbf" points="1550,-112.5 1550,-131.5 1683,-131.5 1683,-112.5 1550,-112.5"/>
<text text-anchor="middle" x="1616.5" y="-119.5" font-family="Helvetica,sans-Serif" font-size="10.00" fill="#000000">arrow/compute/kernel.h</text>
</g>
<!-- Node2&#45;&gt;Node31 -->
<g id="edge37" class="edge">
<title>Node2&#45;&gt;Node31</title>
<path fill="none" stroke="#191970" d="M1349.5903,-168.5637C1405.4135,-158.8251 1492.4937,-143.6335 1551.8986,-133.27"/>
<polygon fill="#191970" stroke="#191970" points="1552.6696,-136.6885 1561.9193,-131.5219 1551.4665,-129.7926 1552.6696,-136.6885"/>
</g>
<!-- Node32 -->
<g id="node33" class="node">
<title>Node32</title>
<polygon fill="none" stroke="#bfbfbf" points="860.5,-112.5 860.5,-131.5 912.5,-131.5 912.5,-112.5 860.5,-112.5"/>
<text text-anchor="middle" x="886.5" y="-119.5" font-family="Helvetica,sans-Serif" font-size="10.00" fill="#000000">cassert</text>
</g>
<!-- Node2&#45;&gt;Node32 -->
<g id="edge39" class="edge">
<title>Node2&#45;&gt;Node32</title>
<path fill="none" stroke="#191970" d="M1241.3993,-169.4008C1238.0514,-168.9139 1234.7311,-168.443 1231.5,-168 1096.2683,-149.4608 1060.761,-156.6026 926.5,-132 925.2326,-131.7678 923.9457,-131.5187 922.6483,-131.2565"/>
<polygon fill="#191970" stroke="#191970" points="923.1657,-127.7864 912.6458,-129.0441 921.6539,-134.6212 923.1657,-127.7864"/>
</g>
<!-- Node4 -->
<g id="node5" class="node">
<title>Node4</title>
<polygon fill="none" stroke="#bfbfbf" points="1843,-.5 1843,-19.5 1896,-19.5 1896,-.5 1843,-.5"/>
<text text-anchor="middle" x="1869.5" y="-7.5" font-family="Helvetica,sans-Serif" font-size="10.00" fill="#000000">cstddef</text>
</g>
<!-- Node3&#45;&gt;Node4 -->
<g id="edge4" class="edge">
<title>Node3&#45;&gt;Node4</title>
<path fill="none" stroke="#191970" d="M1924.8295,-56.2455C1914.9339,-47.9746 1900.5373,-35.9416 1888.9099,-26.2232"/>
<polygon fill="#191970" stroke="#191970" points="1890.9542,-23.3703 1881.0368,-19.6427 1886.465,-28.7413 1890.9542,-23.3703"/>
</g>
<!-- Node5 -->
<g id="node6" class="node">
<title>Node5</title>
<polygon fill="none" stroke="#bfbfbf" points="1914,-.5 1914,-19.5 1959,-19.5 1959,-.5 1914,-.5"/>
<text text-anchor="middle" x="1936.5" y="-7.5" font-family="Helvetica,sans-Serif" font-size="10.00" fill="#000000">utility</text>
</g>
<!-- Node3&#45;&gt;Node5 -->
<g id="edge5" class="edge">
<title>Node3&#45;&gt;Node5</title>
<path fill="none" stroke="#191970" d="M1936.5,-56.2455C1936.5,-48.9382 1936.5,-38.6944 1936.5,-29.7046"/>
<polygon fill="#191970" stroke="#191970" points="1940.0001,-29.6426 1936.5,-19.6427 1933.0001,-29.6427 1940.0001,-29.6426"/>
</g>
<!-- Node6 -->
<g id="node7" class="node">
<title>Node6</title>
<polygon fill="none" stroke="#bfbfbf" points="1977.5,-.5 1977.5,-19.5 2023.5,-19.5 2023.5,-.5 1977.5,-.5"/>
<text text-anchor="middle" x="2000.5" y="-7.5" font-family="Helvetica,sans-Serif" font-size="10.00" fill="#000000">cstdio</text>
</g>
<!-- Node3&#45;&gt;Node6 -->
<g id="edge6" class="edge">
<title>Node3&#45;&gt;Node6</title>
<path fill="none" stroke="#191970" d="M1947.6479,-56.2455C1957.0087,-48.0549 1970.5858,-36.1749 1981.6349,-26.5069"/>
<polygon fill="#191970" stroke="#191970" points="1984.2588,-28.8618 1989.4798,-19.6427 1979.6492,-23.5937 1984.2588,-28.8618"/>
</g>
<!-- Node8&#45;&gt;Node3 -->
<g id="edge9" class="edge">
<title>Node8&#45;&gt;Node3</title>
<path fill="none" stroke="#191970" d="M1843.7535,-112.3733C1861.5712,-103.4644 1888.2747,-90.1127 1908.4594,-80.0203"/>
<polygon fill="#191970" stroke="#191970" points="1910.1187,-83.1038 1917.4978,-75.5011 1906.9882,-76.8428 1910.1187,-83.1038"/>
</g>
<!-- Node8&#45;&gt;Node9 -->
<g id="edge10" class="edge">
<title>Node8&#45;&gt;Node9</title>
<path fill="none" stroke="#191970" d="M1861.4598,-112.3733C1899.1224,-102.5635 1957.4673,-87.3667 1997.0133,-77.0663"/>
<polygon fill="#191970" stroke="#191970" points="1998.0923,-80.4021 2006.8872,-74.4945 1996.3279,-73.6281 1998.0923,-80.4021"/>
</g>
<!-- Node12 -->
<g id="node13" class="node">
<title>Node12</title>
<polygon fill="none" stroke="#bfbfbf" points="0,-56.5 0,-75.5 69,-75.5 69,-56.5 0,-56.5"/>
<text text-anchor="middle" x="34.5" y="-63.5" font-family="Helvetica,sans-Serif" font-size="10.00" fill="#000000">type_traits</text>
</g>
<!-- Node11&#45;&gt;Node12 -->
<g id="edge13" class="edge">
<title>Node11&#45;&gt;Node12</title>
<path fill="none" stroke="#191970" d="M542.9284,-113.7616C538.0544,-113.1256 533.1912,-112.527 528.5,-112 332.3281,-89.9607 278.5592,-105.7827 79.3819,-75.9299"/>
<polygon fill="#191970" stroke="#191970" points="79.8899,-72.467 69.4777,-74.4261 78.839,-79.3877 79.8899,-72.467"/>
</g>
<!-- Node13&#45;&gt;Node3 -->
<g id="edge17" class="edge">
<title>Node13&#45;&gt;Node3</title>
<path fill="none" stroke="#191970" d="M1110.1059,-112.7843C1112.9391,-112.5027 1115.7455,-112.2396 1118.5,-112 1450.3432,-83.1409 1538.2185,-110.2953 1873.7876,-75.9492"/>
<polygon fill="#191970" stroke="#191970" points="1874.2015,-79.4251 1883.7884,-74.9149 1873.4814,-72.4622 1874.2015,-79.4251"/>
</g>
<!-- Node13&#45;&gt;Node7 -->
<g id="edge18" class="edge">
<title>Node13&#45;&gt;Node7</title>
<path fill="none" stroke="#191970" d="M968.6348,-115.9426C876.4528,-107.9083 710.1404,-92.8855 557.7167,-76.1079"/>
<polygon fill="#191970" stroke="#191970" points="558.0219,-72.6204 547.6979,-75.0003 557.2527,-79.578 558.0219,-72.6204"/>
</g>
<!-- Node13&#45;&gt;Node10 -->
<g id="edge16" class="edge">
<title>Node13&#45;&gt;Node10</title>
<path fill="none" stroke="#191970" d="M968.6935,-115.8161C953.1485,-114.5097 936.7719,-113.1727 921.5,-112 692.4789,-94.4146 632.2654,-96.661 399.9433,-76.0989"/>
<polygon fill="#191970" stroke="#191970" points="400.0958,-72.5987 389.8249,-75.1986 399.4753,-79.5712 400.0958,-72.5987"/>
</g>
<!-- Node14 -->
<g id="node15" class="node">
<title>Node14</title>
<g id="a_node15"><a xlink:href="../../dd/dc2/BasicOps_8h.html" target="_top" xlink:title="Framework/BasicOps.h">
<polygon fill="none" stroke="#000000" points="1521.5,-56.5 1521.5,-75.5 1649.5,-75.5 1649.5,-56.5 1521.5,-56.5"/>
<text text-anchor="middle" x="1585.5" y="-63.5" font-family="Helvetica,sans-Serif" font-size="10.00" fill="#000000">Framework/BasicOps.h</text>
</a>
</g>
</g>
<!-- Node13&#45;&gt;Node14 -->
<g id="edge15" class="edge">
<title>Node13&#45;&gt;Node14</title>
<path fill="none" stroke="#191970" d="M1110.121,-112.9378C1112.95,-112.6137 1115.7514,-112.2998 1118.5,-112 1289.6288,-93.3367 1335.5267,-95.6539 1511.239,-75.9808"/>
<polygon fill="#191970" stroke="#191970" points="1511.8009,-79.4397 1521.3457,-74.8411 1511.0164,-72.4838 1511.8009,-79.4397"/>
</g>
<!-- Node15 -->
<g id="node16" class="node">
<title>Node15</title>
<polygon fill="none" stroke="#bfbfbf" points="1668,-56.5 1668,-75.5 1769,-75.5 1769,-56.5 1668,-56.5"/>
<text text-anchor="middle" x="1718.5" y="-63.5" font-family="Helvetica,sans-Serif" font-size="10.00" fill="#000000">arrow/type_fwd.h</text>
</g>
<!-- Node13&#45;&gt;Node15 -->
<g id="edge19" class="edge">
<title>Node13&#45;&gt;Node15</title>
<path fill="none" stroke="#191970" d="M1110.112,-112.851C1112.9435,-112.5509 1115.7479,-112.2657 1118.5,-112 1354.6464,-89.2028 1417.8606,-103.4046 1657.7332,-75.9739"/>
<polygon fill="#191970" stroke="#191970" points="1658.2789,-79.4342 1667.8109,-74.809 1657.4751,-72.4805 1658.2789,-79.4342"/>
</g>
<!-- Node16 -->
<g id="node17" class="node">
<title>Node16</title>
<polygon fill="none" stroke="#bfbfbf" points="731.5,-56.5 731.5,-75.5 877.5,-75.5 877.5,-56.5 731.5,-56.5"/>
<text text-anchor="middle" x="804.5" y="-63.5" font-family="Helvetica,sans-Serif" font-size="10.00" fill="#000000">gandiva/gandiva_aliases.h</text>
</g>
<!-- Node13&#45;&gt;Node16 -->
<g id="edge20" class="edge">
<title>Node13&#45;&gt;Node16</title>
<path fill="none" stroke="#191970" d="M999.3691,-112.4369C959.2351,-102.8731 897.4225,-88.1432 854.2067,-77.845"/>
<polygon fill="#191970" stroke="#191970" points="855.0044,-74.4372 844.4654,-75.5237 853.3817,-81.2465 855.0044,-74.4372"/>
</g>
<!-- Node17 -->
<g id="node18" class="node">
<title>Node17</title>
<polygon fill="none" stroke="#bfbfbf" points="895.5,-56.5 895.5,-75.5 973.5,-75.5 973.5,-56.5 895.5,-56.5"/>
<text text-anchor="middle" x="934.5" y="-63.5" font-family="Helvetica,sans-Serif" font-size="10.00" fill="#000000">arrow/type.h</text>
</g>
<!-- Node13&#45;&gt;Node17 -->
<g id="edge21" class="edge">
<title>Node13&#45;&gt;Node17</title>
<path fill="none" stroke="#191970" d="M1021.2104,-112.2455C1004.7238,-103.4527 980.2648,-90.4079 961.5235,-80.4125"/>
<polygon fill="#191970" stroke="#191970" points="963.0506,-77.2604 952.58,-75.6427 959.7565,-83.4368 963.0506,-77.2604"/>
</g>
<!-- Node18 -->
<g id="node19" class="node">
<title>Node18</title>
<polygon fill="none" stroke="#bfbfbf" points="992,-56.5 992,-75.5 1087,-75.5 1087,-56.5 992,-56.5"/>
<text text-anchor="middle" x="1039.5" y="-63.5" font-family="Helvetica,sans-Serif" font-size="10.00" fill="#000000">gandiva/arrow.h</text>
</g>
<!-- Node13&#45;&gt;Node18 -->
<g id="edge22" class="edge">
<title>Node13&#45;&gt;Node18</title>
<path fill="none" stroke="#191970" d="M1039.5,-112.2455C1039.5,-104.9382 1039.5,-94.6944 1039.5,-85.7046"/>
<polygon fill="#191970" stroke="#191970" points="1043.0001,-85.6426 1039.5,-75.6427 1036.0001,-85.6427 1043.0001,-85.6426"/>
</g>
<!-- Node13&#45;&gt;Node19 -->
<g id="edge23" class="edge">
<title>Node13&#45;&gt;Node19</title>
<path fill="none" stroke="#191970" d="M1110.1029,-112.7486C1112.9369,-112.4769 1115.7443,-112.2255 1118.5,-112 1541.5976,-77.3734 1653.8419,-125.3542 2079.8069,-75.8662"/>
<polygon fill="#191970" stroke="#191970" points="2080.4037,-79.3203 2089.9278,-74.679 2079.5881,-72.3679 2080.4037,-79.3203"/>
</g>
<!-- Node13&#45;&gt;Node20 -->
<g id="edge24" class="edge">
<title>Node13&#45;&gt;Node20</title>
<path fill="none" stroke="#191970" d="M971.192,-112.4369C900.8655,-102.5912 791.4318,-87.2705 717.6873,-76.9462"/>
<polygon fill="#191970" stroke="#191970" points="717.9149,-73.444 707.5262,-75.5237 716.9443,-80.3764 717.9149,-73.444"/>
</g>
<!-- Node21 -->
<g id="node22" class="node">
<title>Node21</title>
<polygon fill="none" stroke="#bfbfbf" points="1105.5,-56.5 1105.5,-75.5 1197.5,-75.5 1197.5,-56.5 1105.5,-56.5"/>
<text text-anchor="middle" x="1151.5" y="-63.5" font-family="Helvetica,sans-Serif" font-size="10.00" fill="#000000">gandiva/node.h</text>
</g>
<!-- Node13&#45;&gt;Node21 -->
<g id="edge25" class="edge">
<title>Node13&#45;&gt;Node21</title>
<path fill="none" stroke="#191970" d="M1058.7535,-112.3733C1076.5712,-103.4644 1103.2747,-90.1127 1123.4594,-80.0203"/>
<polygon fill="#191970" stroke="#191970" points="1125.1187,-83.1038 1132.4978,-75.5011 1121.9882,-76.8428 1125.1187,-83.1038"/>
</g>
<!-- Node22 -->
<g id="node23" class="node">
<title>Node22</title>
<polygon fill="none" stroke="#bfbfbf" points="1216,-56.5 1216,-75.5 1305,-75.5 1305,-56.5 1216,-56.5"/>
<text text-anchor="middle" x="1260.5" y="-63.5" font-family="Helvetica,sans-Serif" font-size="10.00" fill="#000000">gandiva/filter.h</text>
</g>
<!-- Node13&#45;&gt;Node22 -->
<g id="edge26" class="edge">
<title>Node13&#45;&gt;Node22</title>
<path fill="none" stroke="#191970" d="M1077.2401,-112.4369C1114.7448,-102.9335 1172.3799,-88.3291 1212.9824,-78.0407"/>
<polygon fill="#191970" stroke="#191970" points="1214.0816,-81.3728 1222.9155,-75.5237 1212.3621,-74.5873 1214.0816,-81.3728"/>
</g>
<!-- Node23 -->
<g id="node24" class="node">
<title>Node23</title>
<polygon fill="none" stroke="#bfbfbf" points="1323.5,-56.5 1323.5,-75.5 1433.5,-75.5 1433.5,-56.5 1323.5,-56.5"/>
<text text-anchor="middle" x="1378.5" y="-63.5" font-family="Helvetica,sans-Serif" font-size="10.00" fill="#000000">gandiva/projector.h</text>
</g>
<!-- Node13&#45;&gt;Node23 -->
<g id="edge27" class="edge">
<title>Node13&#45;&gt;Node23</title>
<path fill="none" stroke="#191970" d="M1097.391,-112.4369C1157.3113,-102.5385 1250.7301,-87.1065 1313.2358,-76.7811"/>
<polygon fill="#191970" stroke="#191970" points="1314.0806,-80.1891 1323.3764,-75.106 1312.9397,-73.2827 1314.0806,-80.1891"/>
</g>
<!-- Node13&#45;&gt;Node24 -->
<g id="edge28" class="edge">
<title>Node13&#45;&gt;Node24</title>
<path fill="none" stroke="#191970" d="M1110.1081,-112.8089C1112.9407,-112.5205 1115.7463,-112.2492 1118.5,-112 1407.3512,-85.8621 1484.8391,-112.8084 1776.7071,-75.9058"/>
<polygon fill="#191970" stroke="#191970" points="1777.2605,-79.3636 1786.7358,-74.6235 1776.3726,-72.4201 1777.2605,-79.3636"/>
</g>
<!-- Node25 -->
<g id="node26" class="node">
<title>Node25</title>
<polygon fill="none" stroke="#bfbfbf" points="1452,-56.5 1452,-75.5 1503,-75.5 1503,-56.5 1452,-56.5"/>
<text text-anchor="middle" x="1477.5" y="-63.5" font-family="Helvetica,sans-Serif" font-size="10.00" fill="#000000">variant</text>
</g>
<!-- Node13&#45;&gt;Node25 -->
<g id="edge29" class="edge">
<title>Node13&#45;&gt;Node25</title>
<path fill="none" stroke="#191970" d="M1110.1287,-113.0055C1112.9556,-112.6626 1115.7544,-112.3263 1118.5,-112 1259.1422,-95.2861 1298.586,-103.6045 1441.5996,-75.8847"/>
<polygon fill="#191970" stroke="#191970" points="1442.4861,-79.2776 1451.6242,-73.9162 1441.1372,-72.4088 1442.4861,-79.2776"/>
</g>
<!-- Node13&#45;&gt;Node26 -->
<g id="edge30" class="edge">
<title>Node13&#45;&gt;Node26</title>
<path fill="none" stroke="#191970" d="M968.7082,-115.6122C953.1624,-114.3179 936.7817,-113.0374 921.5,-112 611.8414,-90.9786 526.9045,-131.7488 217.8213,-75.7763"/>
<polygon fill="#191970" stroke="#191970" points="218.1393,-72.2764 207.6725,-73.9185 216.8788,-79.162 218.1393,-72.2764"/>
</g>
<!-- Node13&#45;&gt;Node27 -->
<g id="edge31" class="edge">
<title>Node13&#45;&gt;Node27</title>
<path fill="none" stroke="#191970" d="M968.7114,-115.5647C953.1654,-114.2733 936.7838,-113.0059 921.5,-112 584.2981,-89.8062 493.5888,-126.9718 155.8935,-75.9074"/>
<polygon fill="#191970" stroke="#191970" points="156.2438,-72.4203 145.83,-74.3707 155.1871,-79.3401 156.2438,-72.4203"/>
</g>
<!-- Node28&#45;&gt;Node15 -->
<g id="edge33" class="edge">
<title>Node28&#45;&gt;Node15</title>
<path fill="none" stroke="#191970" d="M1267.1577,-113.5808C1272.0101,-113.0333 1276.8272,-112.5012 1281.5,-112 1445.6709,-94.3919 1489.9331,-97.7122 1657.8759,-75.9995"/>
<polygon fill="#191970" stroke="#191970" points="1658.3344,-79.4695 1667.7982,-74.7064 1657.4297,-72.5282 1658.3344,-79.4695"/>
</g>
<!-- Node33&#45;&gt;Node11 -->
<g id="edge42" class="edge">
<title>Node33&#45;&gt;Node11</title>
<path fill="none" stroke="#191970" d="M579.3321,-168.2455C582.2659,-160.7776 586.4047,-150.2427 589.991,-141.1137"/>
<polygon fill="#191970" stroke="#191970" points="593.3129,-142.23 593.7118,-131.6427 586.7976,-139.6704 593.3129,-142.23"/>
</g>
<!-- Node33&#45;&gt;Node12 -->
<g id="edge44" class="edge">
<title>Node33&#45;&gt;Node12</title>
<path fill="none" stroke="#191970" d="M567.2231,-168.2493C553.7448,-153.1469 525.4335,-124.5355 494.5,-112 325.5293,-43.5261 264.0245,-102.481 79.0498,-75.8256"/>
<polygon fill="#191970" stroke="#191970" points="79.4108,-72.3406 69.0009,-74.3114 78.3677,-79.2624 79.4108,-72.3406"/>
</g>
<!-- Node33&#45;&gt;Node34 -->
<g id="edge43" class="edge">
<title>Node33&#45;&gt;Node34</title>
<path fill="none" stroke="#191970" d="M556.3395,-168.2455C538.9889,-159.4125 513.2099,-146.2887 493.5417,-136.2758"/>
<polygon fill="#191970" stroke="#191970" points="494.9405,-133.0605 484.441,-131.6427 491.7647,-139.2986 494.9405,-133.0605"/>
</g>
<!-- Node35&#45;&gt;Node10 -->
<g id="edge47" class="edge">
<title>Node35&#45;&gt;Node10</title>
<path fill="none" stroke="#191970" d="M1067.885,-168.7568C964.851,-156.4076 794.2137,-135.6493 780.5,-132 758.1661,-126.0568 754.8865,-117.742 732.5,-112 590.9844,-75.7022 548.7351,-91.4384 399.8053,-76.1114"/>
<polygon fill="#191970" stroke="#191970" points="400.152,-72.6286 389.839,-75.056 399.4148,-79.5897 400.152,-72.6286"/>
</g>
</g>
</svg>
