<?xml version="1.0" encoding="UTF-8" standalone="no"?>
<!DOCTYPE svg PUBLIC "-//W3C//DTD SVG 1.1//EN"
 "http://www.w3.org/Graphics/SVG/1.1/DTD/svg11.dtd">
<!-- Generated by graphviz version 2.40.1 (20161225.0304)
 -->
<!-- Title: o2::vertexing::PVertexerParams Pages: 1 -->
<svg width="633pt" height="1147pt"
 viewBox="0.00 0.00 633.00 1147.00" xmlns="http://www.w3.org/2000/svg" xmlns:xlink="http://www.w3.org/1999/xlink">
<g id="graph0" class="graph" transform="scale(1 1) rotate(0) translate(4 1143)">
<title>o2::vertexing::PVertexerParams</title>
<!-- Node4 -->
<g id="node1" class="node">
<title>Node4</title>
<polygon fill="#bfbfbf" stroke="#000000" points="139,-.5 139,-68.5 273,-68.5 273,-.5 139,-.5"/>
<text text-anchor="start" x="147" y="-56.5" font-family="Helvetica,sans-Serif" font-size="10.00" fill="#000000">o2::vertexing::PVertexer</text>
<text text-anchor="middle" x="206" y="-45.5" font-family="Helvetica,sans-Serif" font-size="10.00" fill="#000000">Params</text>
<polyline fill="none" stroke="#000000" points="139,-38.5 273,-38.5 "/>
<text text-anchor="middle" x="206" y="-26.5" font-family="Helvetica,sans-Serif" font-size="10.00" fill="#000000"> </text>
<polyline fill="none" stroke="#000000" points="139,-19.5 273,-19.5 "/>
<text text-anchor="start" x="147" y="-7.5" font-family="Helvetica,sans-Serif" font-size="10.00" fill="#000000">+ O2ParamDef()</text>
</g>
<!-- Node5 -->
<g id="node2" class="node">
<title>Node5</title>
<g id="a_node2"><a xlink:href="../../d7/d50/classo2_1_1conf_1_1ConfigurableParamHelper.html" target="_top" xlink:title="{o2::conf::ConfigurableParam\lHelper\&lt; PVertexerParams \&gt;\n||+ getName()\l+ printKeyValues()\l+ output()\l+ getDataMembers()\l+ putKeyValues()\l+ initFrom()\l+ serializeTo()\l+ Instance()\l}">
<polygon fill="none" stroke="#000000" points="34.5,-226.5 34.5,-371.5 189.5,-371.5 189.5,-226.5 34.5,-226.5"/>
<text text-anchor="start" x="42.5" y="-359.5" font-family="Helvetica,sans-Serif" font-size="10.00" fill="#000000">o2::conf::ConfigurableParam</text>
<text text-anchor="middle" x="112" y="-348.5" font-family="Helvetica,sans-Serif" font-size="10.00" fill="#000000">Helper&lt; PVertexerParams &gt;</text>
<polyline fill="none" stroke="#000000" points="34.5,-341.5 189.5,-341.5 "/>
<text text-anchor="middle" x="112" y="-329.5" font-family="Helvetica,sans-Serif" font-size="10.00" fill="#000000"> </text>
<polyline fill="none" stroke="#000000" points="34.5,-322.5 189.5,-322.5 "/>
<text text-anchor="start" x="42.5" y="-310.5" font-family="Helvetica,sans-Serif" font-size="10.00" fill="#000000">+ getName()</text>
<text text-anchor="start" x="42.5" y="-299.5" font-family="Helvetica,sans-Serif" font-size="10.00" fill="#000000">+ printKeyValues()</text>
<text text-anchor="start" x="42.5" y="-288.5" font-family="Helvetica,sans-Serif" font-size="10.00" fill="#000000">+ output()</text>
<text text-anchor="start" x="42.5" y="-277.5" font-family="Helvetica,sans-Serif" font-size="10.00" fill="#000000">+ getDataMembers()</text>
<text text-anchor="start" x="42.5" y="-266.5" font-family="Helvetica,sans-Serif" font-size="10.00" fill="#000000">+ putKeyValues()</text>
<text text-anchor="start" x="42.5" y="-255.5" font-family="Helvetica,sans-Serif" font-size="10.00" fill="#000000">+ initFrom()</text>
<text text-anchor="start" x="42.5" y="-244.5" font-family="Helvetica,sans-Serif" font-size="10.00" fill="#000000">+ serializeTo()</text>
<text text-anchor="start" x="42.5" y="-233.5" font-family="Helvetica,sans-Serif" font-size="10.00" fill="#000000">+ Instance()</text>
</a>
</g>
</g>
<!-- Node5&#45;&gt;Node4 -->
<g id="edge1" class="edge">
<title>Node5&#45;&gt;Node4</title>
<path fill="none" stroke="#191970" d="M141.1834,-216.8829C158.9023,-167.025 180.5864,-106.0095 193.8406,-68.7146"/>
<polygon fill="none" stroke="#191970" points="137.8611,-215.7796 137.8102,-226.3744 144.4569,-218.1238 137.8611,-215.7796"/>
</g>
<!-- Node6 -->
<g id="node3" class="node">
<title>Node6</title>
<g id="a_node3"><a xlink:href="../../d6/d14/classo2_1_1conf_1_1ConfigurableParam.html" target="_top" xlink:title="{o2::conf::ConfigurableParam\n||+ getName()\l+ printKeyValues()\l+ toString()\l+ printAllRegisteredParamNames()\l+ printAllKeyValuePairs()\l+ readINI()\l+ readJSON()\l+ readConfigFile()\l+ writeJSON()\l+ writeINI()\l+ getValueAs()\l+ setValue()\l+ setValue()\l+ setEnumValue()\l+ setArrayValue()\l+ setValues()\l+ initialize()\l+ toCCDB()\l+ fromCCDB()\l+ updateFromString()\l+ updateFromFile()\l# ConfigurableParam()\l# ~ConfigurableParam()\l# putKeyValues()\l# output()\l# serializeTo()\l# initFrom()\l# setRegisterMode()\l# isInitialized()\l# initPropertyTree()\l# updateThroughStorageMap()\l# updateThroughStorageMapWith\lConversion()\l}">
<polygon fill="none" stroke="#000000" points="34,-602.5 34,-1011.5 222,-1011.5 222,-602.5 34,-602.5"/>
<text text-anchor="middle" x="128" y="-999.5" font-family="Helvetica,sans-Serif" font-size="10.00" fill="#000000">o2::conf::ConfigurableParam</text>
<polyline fill="none" stroke="#000000" points="34,-992.5 222,-992.5 "/>
<text text-anchor="middle" x="128" y="-980.5" font-family="Helvetica,sans-Serif" font-size="10.00" fill="#000000"> </text>
<polyline fill="none" stroke="#000000" points="34,-973.5 222,-973.5 "/>
<text text-anchor="start" x="42" y="-961.5" font-family="Helvetica,sans-Serif" font-size="10.00" fill="#000000">+ getName()</text>
<text text-anchor="start" x="42" y="-950.5" font-family="Helvetica,sans-Serif" font-size="10.00" fill="#000000">+ printKeyValues()</text>
<text text-anchor="start" x="42" y="-939.5" font-family="Helvetica,sans-Serif" font-size="10.00" fill="#000000">+ toString()</text>
<text text-anchor="start" x="42" y="-928.5" font-family="Helvetica,sans-Serif" font-size="10.00" fill="#000000">+ printAllRegisteredParamNames()</text>
<text text-anchor="start" x="42" y="-917.5" font-family="Helvetica,sans-Serif" font-size="10.00" fill="#000000">+ printAllKeyValuePairs()</text>
<text text-anchor="start" x="42" y="-906.5" font-family="Helvetica,sans-Serif" font-size="10.00" fill="#000000">+ readINI()</text>
<text text-anchor="start" x="42" y="-895.5" font-family="Helvetica,sans-Serif" font-size="10.00" fill="#000000">+ readJSON()</text>
<text text-anchor="start" x="42" y="-884.5" font-family="Helvetica,sans-Serif" font-size="10.00" fill="#000000">+ readConfigFile()</text>
<text text-anchor="start" x="42" y="-873.5" font-family="Helvetica,sans-Serif" font-size="10.00" fill="#000000">+ writeJSON()</text>
<text text-anchor="start" x="42" y="-862.5" font-family="Helvetica,sans-Serif" font-size="10.00" fill="#000000">+ writeINI()</text>
<text text-anchor="start" x="42" y="-851.5" font-family="Helvetica,sans-Serif" font-size="10.00" fill="#000000">+ getValueAs()</text>
<text text-anchor="start" x="42" y="-840.5" font-family="Helvetica,sans-Serif" font-size="10.00" fill="#000000">+ setValue()</text>
<text text-anchor="start" x="42" y="-829.5" font-family="Helvetica,sans-Serif" font-size="10.00" fill="#000000">+ setValue()</text>
<text text-anchor="start" x="42" y="-818.5" font-family="Helvetica,sans-Serif" font-size="10.00" fill="#000000">+ setEnumValue()</text>
<text text-anchor="start" x="42" y="-807.5" font-family="Helvetica,sans-Serif" font-size="10.00" fill="#000000">+ setArrayValue()</text>
<text text-anchor="start" x="42" y="-796.5" font-family="Helvetica,sans-Serif" font-size="10.00" fill="#000000">+ setValues()</text>
<text text-anchor="start" x="42" y="-785.5" font-family="Helvetica,sans-Serif" font-size="10.00" fill="#000000">+ initialize()</text>
<text text-anchor="start" x="42" y="-774.5" font-family="Helvetica,sans-Serif" font-size="10.00" fill="#000000">+ toCCDB()</text>
<text text-anchor="start" x="42" y="-763.5" font-family="Helvetica,sans-Serif" font-size="10.00" fill="#000000">+ fromCCDB()</text>
<text text-anchor="start" x="42" y="-752.5" font-family="Helvetica,sans-Serif" font-size="10.00" fill="#000000">+ updateFromString()</text>
<text text-anchor="start" x="42" y="-741.5" font-family="Helvetica,sans-Serif" font-size="10.00" fill="#000000">+ updateFromFile()</text>
<text text-anchor="start" x="42" y="-730.5" font-family="Helvetica,sans-Serif" font-size="10.00" fill="#000000"># ConfigurableParam()</text>
<text text-anchor="start" x="42" y="-719.5" font-family="Helvetica,sans-Serif" font-size="10.00" fill="#000000"># ~ConfigurableParam()</text>
<text text-anchor="start" x="42" y="-708.5" font-family="Helvetica,sans-Serif" font-size="10.00" fill="#000000"># putKeyValues()</text>
<text text-anchor="start" x="42" y="-697.5" font-family="Helvetica,sans-Serif" font-size="10.00" fill="#000000"># output()</text>
<text text-anchor="start" x="42" y="-686.5" font-family="Helvetica,sans-Serif" font-size="10.00" fill="#000000"># serializeTo()</text>
<text text-anchor="start" x="42" y="-675.5" font-family="Helvetica,sans-Serif" font-size="10.00" fill="#000000"># initFrom()</text>
<text text-anchor="start" x="42" y="-664.5" font-family="Helvetica,sans-Serif" font-size="10.00" fill="#000000"># setRegisterMode()</text>
<text text-anchor="start" x="42" y="-653.5" font-family="Helvetica,sans-Serif" font-size="10.00" fill="#000000"># isInitialized()</text>
<text text-anchor="start" x="42" y="-642.5" font-family="Helvetica,sans-Serif" font-size="10.00" fill="#000000"># initPropertyTree()</text>
<text text-anchor="start" x="42" y="-631.5" font-family="Helvetica,sans-Serif" font-size="10.00" fill="#000000"># updateThroughStorageMap()</text>
<text text-anchor="start" x="42" y="-620.5" font-family="Helvetica,sans-Serif" font-size="10.00" fill="#000000"># updateThroughStorageMapWith</text>
<text text-anchor="start" x="42" y="-609.5" font-family="Helvetica,sans-Serif" font-size="10.00" fill="#000000">Conversion()</text>
</a>
</g>
</g>
<!-- Node6&#45;&gt;Node5 -->
<g id="edge2" class="edge">
<title>Node6&#45;&gt;Node5</title>
<path fill="none" stroke="#191970" d="M119.893,-592.3125C119.5833,-583.0845 119.2842,-573.9493 119,-565 116.9218,-499.5494 114.9989,-425.0257 113.6964,-371.5436"/>
<polygon fill="none" stroke="#191970" points="116.3967,-592.4822 120.233,-602.3581 123.3927,-592.2454 116.3967,-592.4822"/>
</g>
<!-- Node8 -->
<g id="node5" class="node">
<title>Node8</title>
<g id="a_node5"><a xlink:href="../../d7/d50/classo2_1_1conf_1_1ConfigurableParamHelper.html" target="_top" xlink:title="{o2::conf::ConfigurableParam\lHelper\&lt; P \&gt;\n||+ getName()\l+ printKeyValues()\l+ output()\l+ getDataMembers()\l+ putKeyValues()\l+ initFrom()\l+ serializeTo()\l+ Instance()\l}">
<polygon fill="none" stroke="#000000" points="128,-419.5 128,-564.5 282,-564.5 282,-419.5 128,-419.5"/>
<text text-anchor="start" x="136" y="-552.5" font-family="Helvetica,sans-Serif" font-size="10.00" fill="#000000">o2::conf::ConfigurableParam</text>
<text text-anchor="middle" x="205" y="-541.5" font-family="Helvetica,sans-Serif" font-size="10.00" fill="#000000">Helper&lt; P &gt;</text>
<polyline fill="none" stroke="#000000" points="128,-534.5 282,-534.5 "/>
<text text-anchor="middle" x="205" y="-522.5" font-family="Helvetica,sans-Serif" font-size="10.00" fill="#000000"> </text>
<polyline fill="none" stroke="#000000" points="128,-515.5 282,-515.5 "/>
<text text-anchor="start" x="136" y="-503.5" font-family="Helvetica,sans-Serif" font-size="10.00" fill="#000000">+ getName()</text>
<text text-anchor="start" x="136" y="-492.5" font-family="Helvetica,sans-Serif" font-size="10.00" fill="#000000">+ printKeyValues()</text>
<text text-anchor="start" x="136" y="-481.5" font-family="Helvetica,sans-Serif" font-size="10.00" fill="#000000">+ output()</text>
<text text-anchor="start" x="136" y="-470.5" font-family="Helvetica,sans-Serif" font-size="10.00" fill="#000000">+ getDataMembers()</text>
<text text-anchor="start" x="136" y="-459.5" font-family="Helvetica,sans-Serif" font-size="10.00" fill="#000000">+ putKeyValues()</text>
<text text-anchor="start" x="136" y="-448.5" font-family="Helvetica,sans-Serif" font-size="10.00" fill="#000000">+ initFrom()</text>
<text text-anchor="start" x="136" y="-437.5" font-family="Helvetica,sans-Serif" font-size="10.00" fill="#000000">+ serializeTo()</text>
<text text-anchor="start" x="136" y="-426.5" font-family="Helvetica,sans-Serif" font-size="10.00" fill="#000000">+ Instance()</text>
</a>
</g>
</g>
<!-- Node6&#45;&gt;Node8 -->
<g id="edge5" class="edge">
<title>Node6&#45;&gt;Node8</title>
<path fill="none" stroke="#191970" d="M180.4581,-592.3986C182.8216,-582.7297 185.104,-573.3928 187.2621,-564.5639"/>
<polygon fill="none" stroke="#191970" points="177.0438,-591.6266 178.0691,-602.1717 183.8436,-593.2888 177.0438,-591.6266"/>
</g>
<!-- Node7 -->
<g id="node4" class="node">
<title>Node7</title>
<polygon fill="none" stroke="#bfbfbf" points="0,-1081.5 0,-1138.5 44,-1138.5 44,-1081.5 0,-1081.5"/>
<text text-anchor="middle" x="22" y="-1126.5" font-family="Helvetica,sans-Serif" font-size="10.00" fill="#000000">static</text>
<polyline fill="none" stroke="#bfbfbf" points="0,-1119.5 44,-1119.5 "/>
<text text-anchor="middle" x="22" y="-1107.5" font-family="Helvetica,sans-Serif" font-size="10.00" fill="#000000"> </text>
<polyline fill="none" stroke="#bfbfbf" points="0,-1100.5 44,-1100.5 "/>
<text text-anchor="middle" x="22" y="-1088.5" font-family="Helvetica,sans-Serif" font-size="10.00" fill="#000000"> </text>
</g>
<!-- Node7&#45;&gt;Node4 -->
<g id="edge9" class="edge">
<title>Node7&#45;&gt;Node4</title>
<path fill="none" stroke="#404040" d="M19.4648,-1081.1999C14.9532,-1027.3837 6,-907.8773 6,-807 6,-807 6,-807 6,-299 6,-204.7926 87.7203,-122.9485 146.6864,-76.1553"/>
<polygon fill="none" stroke="#404040" points="146.8346,-76.04 149.1131,-69.1983 156.3048,-68.6701 154.0263,-75.5118 146.8346,-76.04"/>
<text text-anchor="middle" x="38" y="-489.5" font-family="Helvetica,sans-Serif" font-size="10.00" fill="#000000"> +kDefTukey</text>
</g>
<!-- Node7&#45;&gt;Node6 -->
<g id="edge3" class="edge">
<title>Node7&#45;&gt;Node6</title>
<path fill="none" stroke="#404040" d="M31.9722,-1081.4945C37.3313,-1066.1756 44.4745,-1045.7568 52.4561,-1022.9416"/>
<polygon fill="none" stroke="#404040" points="52.4749,-1022.8877 50.6805,-1015.9034 56.4375,-1011.5608 58.2318,-1018.5451 52.4749,-1022.8877"/>
<text text-anchor="middle" x="107" y="-1055" font-family="Helvetica,sans-Serif" font-size="10.00" fill="#000000"> #sEnumRegistry</text>
<text text-anchor="middle" x="107" y="-1044" font-family="Helvetica,sans-Serif" font-size="10.00" fill="#000000">#sValueProvenanceMap</text>
<text text-anchor="middle" x="107" y="-1033" font-family="Helvetica,sans-Serif" font-size="10.00" fill="#000000">#sKeyToStorageMap</text>
</g>
<!-- Node8&#45;&gt;Node5 -->
<g id="edge4" class="edge">
<title>Node8&#45;&gt;Node5</title>
<path fill="none" stroke="#ffa500" d="M165.526,-410.0808C159.3688,-397.3031 153.0435,-384.1763 146.9952,-371.6245"/>
<polygon fill="#ffa500" stroke="#ffa500" points="162.4792,-411.8207 169.9732,-419.31 168.7852,-408.782 162.4792,-411.8207"/>
<text text-anchor="middle" x="213.5" y="-393" font-family="Helvetica,sans-Serif" font-size="10.00" fill="#000000"> &lt; PVertexerParams &gt;</text>
</g>
<!-- Node9 -->
<g id="node6" class="node">
<title>Node9</title>
<g id="a_node6"><a xlink:href="../../d4/dc3/classfloat.html" target="_top" xlink:title="{float\n||}">
<polygon fill="none" stroke="#000000" points="208,-270.5 208,-327.5 246,-327.5 246,-270.5 208,-270.5"/>
<text text-anchor="middle" x="227" y="-315.5" font-family="Helvetica,sans-Serif" font-size="10.00" fill="#000000">float</text>
<polyline fill="none" stroke="#000000" points="208,-308.5 246,-308.5 "/>
<text text-anchor="middle" x="227" y="-296.5" font-family="Helvetica,sans-Serif" font-size="10.00" fill="#000000"> </text>
<polyline fill="none" stroke="#000000" points="208,-289.5 246,-289.5 "/>
<text text-anchor="middle" x="227" y="-277.5" font-family="Helvetica,sans-Serif" font-size="10.00" fill="#000000"> </text>
</a>
</g>
</g>
<!-- Node9&#45;&gt;Node4 -->
<g id="edge6" class="edge">
<title>Node9&#45;&gt;Node4</title>
<path fill="none" stroke="#404040" d="M219.0312,-270.1623C214.5305,-252.3949 209.3484,-229.0596 207,-208 202.2133,-165.0739 202.4751,-115.8025 203.6316,-80.7613"/>
<polygon fill="none" stroke="#404040" points="203.6404,-80.525 199.8683,-74.3792 204.0905,-68.5334 207.8627,-74.6792 203.6404,-80.525"/>
<text text-anchor="middle" x="269" y="-200" font-family="Helvetica,sans-Serif" font-size="10.00" fill="#000000"> +upscaleFactor</text>
<text text-anchor="middle" x="269" y="-189" font-family="Helvetica,sans-Serif" font-size="10.00" fill="#000000">+maxChi2Mean</text>
<text text-anchor="middle" x="269" y="-178" font-family="Helvetica,sans-Serif" font-size="10.00" fill="#000000">+zHistoBinSize</text>
<text text-anchor="middle" x="269" y="-167" font-family="Helvetica,sans-Serif" font-size="10.00" fill="#000000">+acceptableScale2</text>
<text text-anchor="middle" x="269" y="-156" font-family="Helvetica,sans-Serif" font-size="10.00" fill="#000000">+zHistoRange</text>
<text text-anchor="middle" x="269" y="-145" font-family="Helvetica,sans-Serif" font-size="10.00" fill="#000000">+minZSeedRange</text>
<text text-anchor="middle" x="269" y="-134" font-family="Helvetica,sans-Serif" font-size="10.00" fill="#000000">+maxScale2</text>
<text text-anchor="middle" x="269" y="-123" font-family="Helvetica,sans-Serif" font-size="10.00" fill="#000000">+slowConvergenceFactor</text>
<text text-anchor="middle" x="269" y="-112" font-family="Helvetica,sans-Serif" font-size="10.00" fill="#000000">+minScale2</text>
<text text-anchor="middle" x="269" y="-101" font-family="Helvetica,sans-Serif" font-size="10.00" fill="#000000">+tukey</text>
<text text-anchor="middle" x="269" y="-90" font-family="Helvetica,sans-Serif" font-size="10.00" fill="#000000">...</text>
</g>
<!-- Node10 -->
<g id="node7" class="node">
<title>Node10</title>
<polygon fill="none" stroke="#bfbfbf" points="338.5,-270.5 338.5,-327.5 367.5,-327.5 367.5,-270.5 338.5,-270.5"/>
<text text-anchor="middle" x="353" y="-315.5" font-family="Helvetica,sans-Serif" font-size="10.00" fill="#000000">int</text>
<polyline fill="none" stroke="#bfbfbf" points="338.5,-308.5 367.5,-308.5 "/>
<text text-anchor="middle" x="353" y="-296.5" font-family="Helvetica,sans-Serif" font-size="10.00" fill="#000000"> </text>
<polyline fill="none" stroke="#bfbfbf" points="338.5,-289.5 367.5,-289.5 "/>
<text text-anchor="middle" x="353" y="-277.5" font-family="Helvetica,sans-Serif" font-size="10.00" fill="#000000"> </text>
</g>
<!-- Node10&#45;&gt;Node4 -->
<g id="edge7" class="edge">
<title>Node10&#45;&gt;Node4</title>
<path fill="none" stroke="#404040" d="M353.5375,-270.4275C353.9385,-219.4231 352.0551,-115.3806 331,-87 319.3862,-71.3455 302.2057,-60.3252 284.2755,-52.5791"/>
<polygon fill="none" stroke="#404040" points="284.2248,-52.5592 277.1771,-54.0856 273.0575,-48.167 280.1052,-46.6407 284.2248,-52.5592"/>
<text text-anchor="middle" x="427.5" y="-161.5" font-family="Helvetica,sans-Serif" font-size="10.00" fill="#000000"> +minTracksPerVtx</text>
<text text-anchor="middle" x="427.5" y="-150.5" font-family="Helvetica,sans-Serif" font-size="10.00" fill="#000000">+maxIterations</text>
<text text-anchor="middle" x="427.5" y="-139.5" font-family="Helvetica,sans-Serif" font-size="10.00" fill="#000000">+maxNScaleIncreased</text>
<text text-anchor="middle" x="427.5" y="-128.5" font-family="Helvetica,sans-Serif" font-size="10.00" fill="#000000">+maxNScaleSlowConvergence</text>
</g>
<!-- Node11 -->
<g id="node8" class="node">
<title>Node11</title>
<polygon fill="none" stroke="#bfbfbf" points="508,-270.5 508,-327.5 546,-327.5 546,-270.5 508,-270.5"/>
<text text-anchor="middle" x="527" y="-315.5" font-family="Helvetica,sans-Serif" font-size="10.00" fill="#000000">bool</text>
<polyline fill="none" stroke="#bfbfbf" points="508,-308.5 546,-308.5 "/>
<text text-anchor="middle" x="527" y="-296.5" font-family="Helvetica,sans-Serif" font-size="10.00" fill="#000000"> </text>
<polyline fill="none" stroke="#bfbfbf" points="508,-289.5 546,-289.5 "/>
<text text-anchor="middle" x="527" y="-277.5" font-family="Helvetica,sans-Serif" font-size="10.00" fill="#000000"> </text>
</g>
<!-- Node11&#45;&gt;Node4 -->
<g id="edge8" class="edge">
<title>Node11&#45;&gt;Node4</title>
<path fill="none" stroke="#404040" d="M533.7028,-270.3133C542.4272,-225.014 551.5457,-136.9441 505,-87 475.8805,-55.7545 363.7814,-43.0291 285.4473,-37.8975"/>
<polygon fill="none" stroke="#404040" points="285.16,-37.8798 278.924,-41.5009 273.183,-37.1374 279.4189,-33.5162 285.16,-37.8798"/>
<text text-anchor="middle" x="582.5" y="-145" font-family="Helvetica,sans-Serif" font-size="10.00" fill="#000000"> +useTimeInChi2</text>
</g>
</g>
</svg>
