<?xml version="1.0" encoding="UTF-8" standalone="no"?>
<!DOCTYPE svg PUBLIC "-//W3C//DTD SVG 1.1//EN"
 "http://www.w3.org/Graphics/SVG/1.1/DTD/svg11.dtd">
<!-- Generated by graphviz version 2.40.1 (20161225.0304)
 -->
<!-- Title: /home/travis/build/AliceO2Group/AliceO2/Detectors/ITSMFT/ITS/tracking/src/Vertexer.cxx Pages: 1 -->
<svg width="3921pt" height="676pt"
 viewBox="0.00 0.00 3921.32 676.00" xmlns="http://www.w3.org/2000/svg" xmlns:xlink="http://www.w3.org/1999/xlink">
<g id="graph0" class="graph" transform="scale(1 1) rotate(0) translate(4 672)">
<title>/home/travis/build/AliceO2Group/AliceO2/Detectors/ITSMFT/ITS/tracking/src/Vertexer.cxx</title>
<!-- Node0 -->
<g id="node1" class="node">
<title>Node0</title>
<polygon fill="#bfbfbf" stroke="#000000" points="3125.8151,-615.5 3125.8151,-667.5 3265.8151,-667.5 3265.8151,-615.5 3125.8151,-615.5"/>
<text text-anchor="start" x="3133.8151" y="-655.5" font-family="Helvetica,sans-Serif" font-size="10.00" fill="#000000">/home/travis/build</text>
<text text-anchor="start" x="3133.8151" y="-644.5" font-family="Helvetica,sans-Serif" font-size="10.00" fill="#000000">/AliceO2Group/AliceO2</text>
<text text-anchor="start" x="3133.8151" y="-633.5" font-family="Helvetica,sans-Serif" font-size="10.00" fill="#000000">/Detectors/ITSMFT/ITS</text>
<text text-anchor="middle" x="3195.8151" y="-622.5" font-family="Helvetica,sans-Serif" font-size="10.00" fill="#000000">/tracking/src/Vertexer.cxx</text>
</g>
<!-- Node1 -->
<g id="node2" class="node">
<title>Node1</title>
<g id="a_node2"><a xlink:href="../../de/d9b/Vertexer_8h.html" target="_top" xlink:title="ITStracking/Vertexer.h">
<polygon fill="none" stroke="#000000" points="1787.8151,-559.5 1787.8151,-578.5 1911.8151,-578.5 1911.8151,-559.5 1787.8151,-559.5"/>
<text text-anchor="middle" x="1849.8151" y="-566.5" font-family="Helvetica,sans-Serif" font-size="10.00" fill="#000000">ITStracking/Vertexer.h</text>
</a>
</g>
</g>
<!-- Node0&#45;&gt;Node1 -->
<g id="edge1" class="edge">
<title>Node0&#45;&gt;Node1</title>
<path fill="none" stroke="#191970" d="M3125.8137,-637.7295C2894.6488,-625.2782 2157.0596,-585.5492 1922.3034,-572.9045"/>
<polygon fill="#191970" stroke="#191970" points="1922.3441,-569.4017 1912.1703,-572.3587 1921.9675,-576.3915 1922.3441,-569.4017"/>
</g>
<!-- Node5 -->
<g id="node6" class="node">
<title>Node5</title>
<polygon fill="none" stroke="#bfbfbf" points="1827.8151,-56.5 1827.8151,-75.5 1869.8151,-75.5 1869.8151,-56.5 1827.8151,-56.5"/>
<text text-anchor="middle" x="1848.8151" y="-63.5" font-family="Helvetica,sans-Serif" font-size="10.00" fill="#000000">array</text>
</g>
<!-- Node0&#45;&gt;Node5 -->
<g id="edge136" class="edge">
<title>Node0&#45;&gt;Node5</title>
<path fill="none" stroke="#191970" d="M3125.4888,-640.452C2667.0748,-633.397 122.8151,-590.739 122.8151,-513 122.8151,-513 122.8151,-513 122.8151,-194.5 122.8151,-143.1074 -276.4376,-218.0038 366.8151,-112 514.5073,-87.6613 1617.2272,-69.5762 1817.6223,-66.4729"/>
<polygon fill="#191970" stroke="#191970" points="1817.8106,-69.9705 1827.7555,-66.3168 1817.7028,-62.9713 1817.8106,-69.9705"/>
</g>
<!-- Node7 -->
<g id="node8" class="node">
<title>Node7</title>
<g id="a_node8"><a xlink:href="../../dc/d8d/ITS_2tracking_2include_2ITStracking_2ROframe_8h.html" target="_top" xlink:title="ITStracking/ROframe.h">
<polygon fill="none" stroke="#000000" points="2138.3151,-386 2138.3151,-405 2265.3151,-405 2265.3151,-386 2138.3151,-386"/>
<text text-anchor="middle" x="2201.8151" y="-393" font-family="Helvetica,sans-Serif" font-size="10.00" fill="#000000">ITStracking/ROframe.h</text>
</a>
</g>
</g>
<!-- Node0&#45;&gt;Node7 -->
<g id="edge118" class="edge">
<title>Node0&#45;&gt;Node7</title>
<path fill="none" stroke="#191970" d="M3125.5229,-624.1037C2935.1278,-576.9838 2412.8794,-447.7352 2250.591,-407.5713"/>
<polygon fill="#191970" stroke="#191970" points="2250.9773,-404.0614 2240.4293,-405.0564 2249.2956,-410.8564 2250.9773,-404.0614"/>
</g>
<!-- Node12 -->
<g id="node13" class="node">
<title>Node12</title>
<g id="a_node13"><a xlink:href="../../da/d7f/Detectors_2ITSMFT_2ITS_2tracking_2include_2ITStracking_2Cluster_8h.html" target="_top" xlink:title="ITStracking/Cluster.h">
<polygon fill="none" stroke="#000000" points="3040.3151,-319 3040.3151,-338 3157.3151,-338 3157.3151,-319 3040.3151,-319"/>
<text text-anchor="middle" x="3098.8151" y="-326" font-family="Helvetica,sans-Serif" font-size="10.00" fill="#000000">ITStracking/Cluster.h</text>
</a>
</g>
</g>
<!-- Node0&#45;&gt;Node12 -->
<g id="edge117" class="edge">
<title>Node0&#45;&gt;Node12</title>
<path fill="none" stroke="#191970" d="M3209.0056,-615.4834C3226.56,-577.0506 3252.6576,-503.5537 3227.8151,-447 3206.8872,-399.3581 3156.3044,-362.4633 3125.0587,-343.2331"/>
<polygon fill="#191970" stroke="#191970" points="3126.7961,-340.1939 3116.4181,-338.0613 3123.201,-346.2003 3126.7961,-340.1939"/>
</g>
<!-- Node27 -->
<g id="node28" class="node">
<title>Node27</title>
<g id="a_node28"><a xlink:href="../../dc/ddf/ITS_2tracking_2include_2ITStracking_2IndexTableUtils_8h.html" target="_top" xlink:title="ITStracking/IndexTableUtils.h">
<polygon fill="none" stroke="#000000" points="3077.8151,-252 3077.8151,-271 3235.8151,-271 3235.8151,-252 3077.8151,-252"/>
<text text-anchor="middle" x="3156.8151" y="-259" font-family="Helvetica,sans-Serif" font-size="10.00" fill="#000000">ITStracking/IndexTableUtils.h</text>
</a>
</g>
</g>
<!-- Node0&#45;&gt;Node27 -->
<g id="edge120" class="edge">
<title>Node0&#45;&gt;Node27</title>
<path fill="none" stroke="#191970" d="M3266.0293,-630.5629C3330.4138,-616.0707 3415.8151,-583.5507 3415.8151,-513 3415.8151,-513 3415.8151,-513 3415.8151,-395.5 3415.8151,-357.3133 3419.711,-339.0775 3391.8151,-313 3370.6235,-293.1898 3303.2381,-279.715 3246.0295,-271.533"/>
<polygon fill="#191970" stroke="#191970" points="3246.234,-268.0278 3235.8471,-270.1162 3245.2693,-274.961 3246.234,-268.0278"/>
</g>
<!-- Node51 -->
<g id="node52" class="node">
<title>Node51</title>
<g id="a_node52"><a xlink:href="../../d2/dd6/VertexerTraits_8h.html" target="_top" xlink:title="Class to compute the primary vertex in ITS from tracklets. ">
<polygon fill="none" stroke="#000000" points="2944.3151,-503.5 2944.3151,-522.5 3095.3151,-522.5 3095.3151,-503.5 2944.3151,-503.5"/>
<text text-anchor="middle" x="3019.8151" y="-510.5" font-family="Helvetica,sans-Serif" font-size="10.00" fill="#000000">ITStracking/VertexerTraits.h</text>
</a>
</g>
</g>
<!-- Node0&#45;&gt;Node51 -->
<g id="edge121" class="edge">
<title>Node0&#45;&gt;Node51</title>
<path fill="none" stroke="#191970" d="M3160.1988,-615.4961C3124.5158,-589.4435 3070.7658,-550.1998 3041.1989,-528.6126"/>
<polygon fill="#191970" stroke="#191970" points="3042.9864,-525.5842 3032.8461,-522.5142 3038.8587,-531.2377 3042.9864,-525.5842"/>
</g>
<!-- Node53 -->
<g id="node54" class="node">
<title>Node53</title>
<g id="a_node54"><a xlink:href="../../df/d50/ClusterLines_8h.html" target="_top" xlink:title="ITStracking/ClusterLines.h">
<polygon fill="none" stroke="#000000" points="3075.3151,-447.5 3075.3151,-466.5 3218.3151,-466.5 3218.3151,-447.5 3075.3151,-447.5"/>
<text text-anchor="middle" x="3146.8151" y="-454.5" font-family="Helvetica,sans-Serif" font-size="10.00" fill="#000000">ITStracking/ClusterLines.h</text>
</a>
</g>
</g>
<!-- Node0&#45;&gt;Node53 -->
<g id="edge119" class="edge">
<title>Node0&#45;&gt;Node53</title>
<path fill="none" stroke="#191970" d="M3188.8985,-615.457C3178.9913,-578.1535 3160.9766,-510.3224 3152.078,-476.8167"/>
<polygon fill="#191970" stroke="#191970" points="3155.3843,-475.63 3149.4346,-466.8635 3148.6188,-477.4268 3155.3843,-475.63"/>
</g>
<!-- Node57 -->
<g id="node58" class="node">
<title>Node57</title>
<g id="a_node58"><a xlink:href="../../dd/dc5/TrackingConfigParam_8h.html" target="_top" xlink:title="ITStracking/TrackingConfig\lParam.h">
<polygon fill="none" stroke="#000000" points="3558.8151,-380.5 3558.8151,-410.5 3704.8151,-410.5 3704.8151,-380.5 3558.8151,-380.5"/>
<text text-anchor="start" x="3566.8151" y="-398.5" font-family="Helvetica,sans-Serif" font-size="10.00" fill="#000000">ITStracking/TrackingConfig</text>
<text text-anchor="middle" x="3631.8151" y="-387.5" font-family="Helvetica,sans-Serif" font-size="10.00" fill="#000000">Param.h</text>
</a>
</g>
</g>
<!-- Node0&#45;&gt;Node57 -->
<g id="edge122" class="edge">
<title>Node0&#45;&gt;Node57</title>
<path fill="none" stroke="#191970" d="M3265.8753,-631.7551C3314.1555,-622.9453 3378.5924,-606.9314 3429.8151,-579 3507.7389,-536.5085 3579.7859,-457.9439 3612.8303,-418.8537"/>
<polygon fill="#191970" stroke="#191970" points="3615.9206,-420.6135 3619.6442,-410.6945 3610.5478,-416.1265 3615.9206,-420.6135"/>
</g>
<!-- Node2 -->
<g id="node3" class="node">
<title>Node2</title>
<polygon fill="none" stroke="#bfbfbf" points="1525.8151,-503.5 1525.8151,-522.5 1575.8151,-522.5 1575.8151,-503.5 1525.8151,-503.5"/>
<text text-anchor="middle" x="1550.8151" y="-510.5" font-family="Helvetica,sans-Serif" font-size="10.00" fill="#000000">chrono</text>
</g>
<!-- Node1&#45;&gt;Node2 -->
<g id="edge2" class="edge">
<title>Node1&#45;&gt;Node2</title>
<path fill="none" stroke="#191970" d="M1787.5677,-560.2492C1735.926,-552.5222 1660.4257,-540.1501 1585.9973,-523.0776"/>
<polygon fill="#191970" stroke="#191970" points="1586.5138,-519.6044 1575.981,-520.7496 1584.929,-526.4227 1586.5138,-519.6044"/>
</g>
<!-- Node3 -->
<g id="node4" class="node">
<title>Node3</title>
<polygon fill="none" stroke="#bfbfbf" points="1766.3151,-503.5 1766.3151,-522.5 1821.3151,-522.5 1821.3151,-503.5 1766.3151,-503.5"/>
<text text-anchor="middle" x="1793.8151" y="-510.5" font-family="Helvetica,sans-Serif" font-size="10.00" fill="#000000">fstream</text>
</g>
<!-- Node1&#45;&gt;Node3 -->
<g id="edge3" class="edge">
<title>Node1&#45;&gt;Node3</title>
<path fill="none" stroke="#191970" d="M1840.0606,-559.2455C1831.9503,-551.1352 1820.2226,-539.4075 1810.607,-529.7919"/>
<polygon fill="#191970" stroke="#191970" points="1813.0037,-527.2389 1803.4577,-522.6427 1808.0539,-532.1887 1813.0037,-527.2389"/>
</g>
<!-- Node4 -->
<g id="node5" class="node">
<title>Node4</title>
<polygon fill="none" stroke="#bfbfbf" points="1001.8151,-252 1001.8151,-271 1057.8151,-271 1057.8151,-252 1001.8151,-252"/>
<text text-anchor="middle" x="1029.8151" y="-259" font-family="Helvetica,sans-Serif" font-size="10.00" fill="#000000">iomanip</text>
</g>
<!-- Node1&#45;&gt;Node4 -->
<g id="edge4" class="edge">
<title>Node1&#45;&gt;Node4</title>
<path fill="none" stroke="#191970" d="M1787.6984,-566.0566C1610.2586,-556.8277 1113.8151,-524.9364 1113.8151,-457 1113.8151,-457 1113.8151,-457 1113.8151,-395.5 1113.8151,-346.9399 1073.7233,-301.52 1048.9351,-278.0784"/>
<polygon fill="#191970" stroke="#191970" points="1051.2331,-275.437 1041.4949,-271.2636 1046.5051,-280.599 1051.2331,-275.437"/>
</g>
<!-- Node1&#45;&gt;Node5 -->
<g id="edge5" class="edge">
<title>Node1&#45;&gt;Node5</title>
<path fill="none" stroke="#191970" d="M1787.6995,-568.1956C1482.9815,-563.8504 160.8151,-540.2028 160.8151,-457 160.8151,-457 160.8151,-457 160.8151,-194.5 160.8151,-108.0231 1587.9454,-71.9338 1817.7504,-66.6831"/>
<polygon fill="#191970" stroke="#191970" points="1817.8598,-70.1816 1827.778,-66.4563 1817.7014,-63.1834 1817.8598,-70.1816"/>
</g>
<!-- Node6 -->
<g id="node7" class="node">
<title>Node6</title>
<polygon fill="none" stroke="#bfbfbf" points="189.3151,-185 189.3151,-204 238.3151,-204 238.3151,-185 189.3151,-185"/>
<text text-anchor="middle" x="213.8151" y="-192" font-family="Helvetica,sans-Serif" font-size="10.00" fill="#000000">iosfwd</text>
</g>
<!-- Node1&#45;&gt;Node6 -->
<g id="edge6" class="edge">
<title>Node1&#45;&gt;Node6</title>
<path fill="none" stroke="#191970" d="M1787.6471,-566.9346C1529.029,-557.9408 551.8151,-519.8016 551.8151,-457 551.8151,-457 551.8151,-457 551.8151,-328.5 551.8151,-183.4869 381.3973,-266.432 247.8151,-210 246.4331,-209.4162 245.0234,-208.8114 243.6023,-208.1942"/>
<polygon fill="#191970" stroke="#191970" points="244.7892,-204.8917 234.2294,-204.0307 241.9475,-211.2889 244.7892,-204.8917"/>
</g>
<!-- Node1&#45;&gt;Node7 -->
<g id="edge7" class="edge">
<title>Node1&#45;&gt;Node7</title>
<path fill="none" stroke="#191970" d="M1853.5237,-559.497C1863.1699,-536.1329 1891.423,-475.7057 1935.8151,-447 1966.9517,-426.8658 2060.6226,-411.9985 2127.9956,-403.5471"/>
<polygon fill="#191970" stroke="#191970" points="2128.6542,-406.9925 2138.1514,-402.2965 2127.7986,-400.045 2128.6542,-406.9925"/>
</g>
<!-- Node1&#45;&gt;Node12 -->
<g id="edge114" class="edge">
<title>Node1&#45;&gt;Node12</title>
<path fill="none" stroke="#191970" d="M1890.5475,-559.442C1947.6802,-546.1513 2054.9275,-521.6244 2146.8151,-503 2478.4416,-435.7838 2877.4045,-366.3402 3032.571,-339.7641"/>
<polygon fill="#191970" stroke="#191970" points="3033.6105,-343.1372 3042.8769,-338.0007 3032.4298,-336.2375 3033.6105,-343.1372"/>
</g>
<!-- Node25 -->
<g id="node26" class="node">
<title>Node25</title>
<g id="a_node26"><a xlink:href="../../d0/d86/Detectors_2ITSMFT_2ITS_2tracking_2include_2ITStracking_2Constants_8h.html" target="_top" xlink:title="ITStracking/Constants.h">
<polygon fill="none" stroke="#000000" points="2847.8151,-185 2847.8151,-204 2979.8151,-204 2979.8151,-185 2847.8151,-185"/>
<text text-anchor="middle" x="2913.8151" y="-192" font-family="Helvetica,sans-Serif" font-size="10.00" fill="#000000">ITStracking/Constants.h</text>
</a>
</g>
</g>
<!-- Node1&#45;&gt;Node25 -->
<g id="edge83" class="edge">
<title>Node1&#45;&gt;Node25</title>
<path fill="none" stroke="#191970" d="M1911.8857,-568.195C2151.5406,-564.8915 3009.0762,-551.197 3127.8151,-523 3185.8624,-509.2154 3217.6079,-517.2216 3249.8151,-467 3285.6185,-411.1705 3333.6403,-449.0508 3166.8151,-313 3130.8557,-283.6741 3111.1726,-295.9453 3068.8151,-277 3021.8595,-255.9982 2969.463,-226.8396 2939.1984,-209.4015"/>
<polygon fill="#191970" stroke="#191970" points="2940.5917,-206.1637 2930.1849,-204.1768 2937.0813,-212.2198 2940.5917,-206.1637"/>
</g>
<!-- Node28 -->
<g id="node29" class="node">
<title>Node28</title>
<g id="a_node29"><a xlink:href="../../d3/d6f/DataFormats_2Reconstruction_2include_2ReconstructionDataFormats_2Vertex_8h.html" target="_top" xlink:title="ReconstructionDataFormats\l/Vertex.h">
<polygon fill="none" stroke="#000000" points="1331.8151,-313.5 1331.8151,-343.5 1483.8151,-343.5 1483.8151,-313.5 1331.8151,-313.5"/>
<text text-anchor="start" x="1339.8151" y="-331.5" font-family="Helvetica,sans-Serif" font-size="10.00" fill="#000000">ReconstructionDataFormats</text>
<text text-anchor="middle" x="1407.8151" y="-320.5" font-family="Helvetica,sans-Serif" font-size="10.00" fill="#000000">/Vertex.h</text>
</a>
</g>
</g>
<!-- Node1&#45;&gt;Node28 -->
<g id="edge111" class="edge">
<title>Node1&#45;&gt;Node28</title>
<path fill="none" stroke="#191970" d="M1820.1562,-559.3449C1800.6527,-551.8396 1775.5517,-539.8504 1757.8151,-523 1729.6787,-496.2695 1744.1924,-472.3603 1714.8151,-447 1651.6733,-392.4922 1560.6947,-361.614 1494.1702,-345.1421"/>
<polygon fill="#191970" stroke="#191970" points="1494.6677,-341.6618 1484.1256,-342.7181 1493.0254,-348.4664 1494.6677,-341.6618"/>
</g>
<!-- Node50 -->
<g id="node51" class="node">
<title>Node50</title>
<g id="a_node51"><a xlink:href="../../d3/d59/Configuration_8h.html" target="_top" xlink:title="ITStracking/Configuration.h">
<polygon fill="none" stroke="#000000" points="1895.3151,-252 1895.3151,-271 2044.3151,-271 2044.3151,-252 1895.3151,-252"/>
<text text-anchor="middle" x="1969.8151" y="-259" font-family="Helvetica,sans-Serif" font-size="10.00" fill="#000000">ITStracking/Configuration.h</text>
</a>
</g>
</g>
<!-- Node1&#45;&gt;Node50 -->
<g id="edge84" class="edge">
<title>Node1&#45;&gt;Node50</title>
<path fill="none" stroke="#191970" d="M1849.8151,-559.4116C1849.8151,-540.0538 1849.8151,-494.9167 1849.8151,-457 1849.8151,-457 1849.8151,-457 1849.8151,-395.5 1849.8151,-357.7713 1846.4888,-342.6538 1869.8151,-313 1883.926,-295.0613 1905.9955,-282.768 1925.8157,-274.7043"/>
<polygon fill="#191970" stroke="#191970" points="1927.2239,-277.9132 1935.3202,-271.0793 1924.7294,-271.3727 1927.2239,-277.9132"/>
</g>
<!-- Node1&#45;&gt;Node51 -->
<g id="edge90" class="edge">
<title>Node1&#45;&gt;Node51</title>
<path fill="none" stroke="#191970" d="M1912.0196,-566.5579C2070.4809,-560.2531 2502.2403,-542.5496 2861.8151,-523 2885.244,-521.7262 2910.6169,-520.1899 2934.0321,-518.7079"/>
<polygon fill="#191970" stroke="#191970" points="2934.5287,-522.1835 2944.2859,-518.0546 2934.0835,-515.1976 2934.5287,-522.1835"/>
</g>
<!-- Node1&#45;&gt;Node53 -->
<g id="edge112" class="edge">
<title>Node1&#45;&gt;Node53</title>
<path fill="none" stroke="#191970" d="M1912.0953,-568.3202C2158.274,-565.4274 3052.6452,-552.8948 3104.8151,-523 3122.4322,-512.9048 3133.7967,-492.092 3140.2033,-476.5223"/>
<polygon fill="#191970" stroke="#191970" points="3143.6238,-477.3692 3143.8624,-466.777 3137.0705,-474.9085 3143.6238,-477.3692"/>
</g>
<!-- Node54 -->
<g id="node55" class="node">
<title>Node54</title>
<g id="a_node55"><a xlink:href="../../d8/db3/ITSMFT_2ITS_2tracking_2include_2ITStracking_2Tracklet_8h.html" target="_top" xlink:title="ITStracking/Tracklet.h">
<polygon fill="none" stroke="#000000" points="2896.8151,-386 2896.8151,-405 3018.8151,-405 3018.8151,-386 2896.8151,-386"/>
<text text-anchor="middle" x="2957.8151" y="-393" font-family="Helvetica,sans-Serif" font-size="10.00" fill="#000000">ITStracking/Tracklet.h</text>
</a>
</g>
</g>
<!-- Node1&#45;&gt;Node54 -->
<g id="edge113" class="edge">
<title>Node1&#45;&gt;Node54</title>
<path fill="none" stroke="#191970" d="M1910.5679,-559.4868C2100.7449,-529.7073 2684.0288,-438.3718 2887.1694,-406.5623"/>
<polygon fill="#191970" stroke="#191970" points="2887.7907,-410.0077 2897.1288,-405.0028 2886.7077,-403.092 2887.7907,-410.0077"/>
</g>
<!-- Node55 -->
<g id="node56" class="node">
<title>Node55</title>
<g id="a_node56"><a xlink:href="../../dd/da4/Logger_8h.html" target="_top" xlink:title="Framework/Logger.h">
<polygon fill="none" stroke="#000000" points="1594.3151,-503.5 1594.3151,-522.5 1709.3151,-522.5 1709.3151,-503.5 1594.3151,-503.5"/>
<text text-anchor="middle" x="1651.8151" y="-510.5" font-family="Helvetica,sans-Serif" font-size="10.00" fill="#000000">Framework/Logger.h</text>
</a>
</g>
</g>
<!-- Node1&#45;&gt;Node55 -->
<g id="edge115" class="edge">
<title>Node1&#45;&gt;Node55</title>
<path fill="none" stroke="#191970" d="M1815.7776,-559.3733C1782.4257,-549.9404 1731.4623,-535.5265 1695.2149,-525.2747"/>
<polygon fill="#191970" stroke="#191970" points="1695.9834,-521.8548 1685.4083,-522.5011 1694.0783,-528.5906 1695.9834,-521.8548"/>
</g>
<!-- Node7&#45;&gt;Node5 -->
<g id="edge8" class="edge">
<title>Node7&#45;&gt;Node5</title>
<path fill="none" stroke="#191970" d="M2138.2633,-388.4983C1982.9901,-370.747 1594.3217,-322.1785 1557.8151,-277 1474.9087,-174.4 1727.3156,-97.3772 1817.8204,-73.6447"/>
<polygon fill="#191970" stroke="#191970" points="1818.9685,-76.9633 1827.7784,-71.0781 1817.2213,-70.1848 1818.9685,-76.9633"/>
</g>
<!-- Node8 -->
<g id="node9" class="node">
<title>Node8</title>
<polygon fill="none" stroke="#bfbfbf" points="2991.3151,-118 2991.3151,-137 3038.3151,-137 3038.3151,-118 2991.3151,-118"/>
<text text-anchor="middle" x="3014.8151" y="-125" font-family="Helvetica,sans-Serif" font-size="10.00" fill="#000000">vector</text>
</g>
<!-- Node7&#45;&gt;Node8 -->
<g id="edge9" class="edge">
<title>Node7&#45;&gt;Node8</title>
<path fill="none" stroke="#191970" d="M2245.8168,-385.9377C2256.877,-383.7601 2268.7491,-381.6152 2279.8151,-380 2448.9948,-355.3058 2494.4781,-373.9044 2662.8151,-344 2777.7656,-323.5795 2845.5618,-369.4856 2916.8151,-277 2925.2237,-266.0857 2924.2406,-257.6055 2916.8151,-246 2896.2373,-213.8389 2859.3928,-242.1611 2838.8151,-210 2831.3895,-198.3945 2830.5532,-190.0258 2838.8151,-179 2855.8622,-156.2498 2934.7775,-140.1781 2980.9447,-132.5385"/>
<polygon fill="#191970" stroke="#191970" points="2981.7746,-135.9502 2991.0925,-130.9076 2980.6637,-129.0389 2981.7746,-135.9502"/>
</g>
<!-- Node9 -->
<g id="node10" class="node">
<title>Node9</title>
<polygon fill="none" stroke="#bfbfbf" points="2998.3151,-185 2998.3151,-204 3043.3151,-204 3043.3151,-185 2998.3151,-185"/>
<text text-anchor="middle" x="3020.8151" y="-192" font-family="Helvetica,sans-Serif" font-size="10.00" fill="#000000">utility</text>
</g>
<!-- Node7&#45;&gt;Node9 -->
<g id="edge10" class="edge">
<title>Node7&#45;&gt;Node9</title>
<path fill="none" stroke="#191970" d="M2227.4426,-385.9376C2274.5836,-367.8461 2377.4862,-325.9991 2456.8151,-277 2475.6533,-265.3642 2475.1894,-254.0533 2495.8151,-246 2700.463,-166.0945 2776.6168,-266.8997 2988.8151,-210 2990.7379,-209.4844 2992.6841,-208.8527 2994.6173,-208.1424"/>
<polygon fill="#191970" stroke="#191970" points="2996.1999,-211.2719 3004.0062,-204.1086 2993.4366,-204.8403 2996.1999,-211.2719"/>
</g>
<!-- Node10 -->
<g id="node11" class="node">
<title>Node10</title>
<polygon fill="none" stroke="#bfbfbf" points="2175.8151,-185 2175.8151,-204 2227.8151,-204 2227.8151,-185 2175.8151,-185"/>
<text text-anchor="middle" x="2201.8151" y="-192" font-family="Helvetica,sans-Serif" font-size="10.00" fill="#000000">cassert</text>
</g>
<!-- Node7&#45;&gt;Node10 -->
<g id="edge11" class="edge">
<title>Node7&#45;&gt;Node10</title>
<path fill="none" stroke="#191970" d="M2201.8151,-385.8054C2201.8151,-354.6298 2201.8151,-256.5298 2201.8151,-214.2302"/>
<polygon fill="#191970" stroke="#191970" points="2205.3151,-214.0973 2201.8151,-204.0974 2198.3151,-214.0974 2205.3151,-214.0973"/>
</g>
<!-- Node11 -->
<g id="node12" class="node">
<title>Node11</title>
<polygon fill="none" stroke="#bfbfbf" points="2213.8151,-252 2213.8151,-271 2261.8151,-271 2261.8151,-252 2213.8151,-252"/>
<text text-anchor="middle" x="2237.8151" y="-259" font-family="Helvetica,sans-Serif" font-size="10.00" fill="#000000">gsl/gsl</text>
</g>
<!-- Node7&#45;&gt;Node11 -->
<g id="edge12" class="edge">
<title>Node7&#45;&gt;Node11</title>
<path fill="none" stroke="#191970" d="M2204.4041,-385.8631C2210.2939,-363.9398 2224.789,-309.9858 2232.6105,-280.8727"/>
<polygon fill="#191970" stroke="#191970" points="2236.035,-281.6153 2235.2495,-271.0496 2229.2747,-279.7991 2236.035,-281.6153"/>
</g>
<!-- Node7&#45;&gt;Node12 -->
<g id="edge13" class="edge">
<title>Node7&#45;&gt;Node12</title>
<path fill="none" stroke="#191970" d="M2244.1392,-385.9264C2255.6575,-383.6398 2268.1689,-381.4455 2279.8151,-380 2592.4892,-341.1926 2674.1558,-373.8158 2987.8151,-344 3001.5318,-342.6961 3016.1531,-340.9276 3030.1291,-339.0513"/>
<polygon fill="#191970" stroke="#191970" points="3030.7395,-342.5004 3040.1696,-337.6711 3029.7861,-335.5656 3030.7395,-342.5004"/>
</g>
<!-- Node7&#45;&gt;Node25 -->
<g id="edge49" class="edge">
<title>Node7&#45;&gt;Node25</title>
<path fill="none" stroke="#191970" d="M2244.142,-385.9489C2255.6603,-383.6622 2268.171,-381.4622 2279.8151,-380 2353.7859,-370.7111 2898.5327,-398.1118 2949.8151,-344 2979.7759,-312.3861 2962.896,-287.5448 2949.8151,-246 2945.8518,-233.4129 2937.5957,-221.2221 2929.9888,-211.8636"/>
<polygon fill="#191970" stroke="#191970" points="2932.5072,-209.4245 2923.327,-204.1353 2927.205,-213.9949 2932.5072,-209.4245"/>
</g>
<!-- Node7&#45;&gt;Node28 -->
<g id="edge50" class="edge">
<title>Node7&#45;&gt;Node28</title>
<path fill="none" stroke="#191970" d="M2138.1809,-390.1304C1996.5761,-378.1813 1655.2746,-349.3813 1494.432,-335.809"/>
<polygon fill="#191970" stroke="#191970" points="1494.3615,-332.2907 1484.1026,-334.9374 1493.7728,-339.2659 1494.3615,-332.2907"/>
</g>
<!-- Node43 -->
<g id="node44" class="node">
<title>Node43</title>
<g id="a_node44"><a xlink:href="../../d7/dcd/MCCompLabel_8h.html" target="_top" xlink:title="SimulationDataFormat\l/MCCompLabel.h">
<polygon fill="none" stroke="#000000" points="1878.3151,-313.5 1878.3151,-343.5 2005.3151,-343.5 2005.3151,-313.5 1878.3151,-313.5"/>
<text text-anchor="start" x="1886.3151" y="-331.5" font-family="Helvetica,sans-Serif" font-size="10.00" fill="#000000">SimulationDataFormat</text>
<text text-anchor="middle" x="1941.8151" y="-320.5" font-family="Helvetica,sans-Serif" font-size="10.00" fill="#000000">/MCCompLabel.h</text>
</a>
</g>
</g>
<!-- Node7&#45;&gt;Node43 -->
<g id="edge71" class="edge">
<title>Node7&#45;&gt;Node43</title>
<path fill="none" stroke="#191970" d="M2164.8395,-385.9717C2124.6202,-375.6075 2059.4548,-358.8148 2009.9244,-346.0512"/>
<polygon fill="#191970" stroke="#191970" points="2010.7959,-342.6615 2000.2388,-343.5553 2009.049,-349.4401 2010.7959,-342.6615"/>
</g>
<!-- Node44 -->
<g id="node45" class="node">
<title>Node44</title>
<g id="a_node45"><a xlink:href="../../db/d14/MCTruthContainer_8h.html" target="_top" xlink:title="Definition of a container to keep Monte Carlo truth external to simulation objects. ">
<polygon fill="none" stroke="#000000" points="2526.3151,-313.5 2526.3151,-343.5 2653.3151,-343.5 2653.3151,-313.5 2526.3151,-313.5"/>
<text text-anchor="start" x="2534.3151" y="-331.5" font-family="Helvetica,sans-Serif" font-size="10.00" fill="#000000">SimulationDataFormat</text>
<text text-anchor="middle" x="2589.8151" y="-320.5" font-family="Helvetica,sans-Serif" font-size="10.00" fill="#000000">/MCTruthContainer.h</text>
</a>
</g>
</g>
<!-- Node7&#45;&gt;Node44 -->
<g id="edge73" class="edge">
<title>Node7&#45;&gt;Node44</title>
<path fill="none" stroke="#191970" d="M2248.3764,-385.9978C2258.7155,-383.9575 2269.6282,-381.8578 2279.8151,-380 2360.3987,-365.3034 2453.0903,-350.1311 2515.9691,-340.0963"/>
<polygon fill="#191970" stroke="#191970" points="2516.861,-343.4985 2526.186,-338.4692 2515.76,-336.5856 2516.861,-343.4985"/>
</g>
<!-- Node12&#45;&gt;Node5 -->
<g id="edge14" class="edge">
<title>Node12&#45;&gt;Node5</title>
<path fill="none" stroke="#191970" d="M3040.2414,-326.2546C2798.6967,-316.965 1892.316,-281.8008 1886.8151,-277 1858.317,-252.1291 1851.1176,-133.7555 1849.3605,-86.0217"/>
<polygon fill="#191970" stroke="#191970" points="1852.8497,-85.6286 1849.028,-75.7471 1845.8534,-85.8551 1852.8497,-85.6286"/>
</g>
<!-- Node13 -->
<g id="node14" class="node">
<title>Node13</title>
<g id="a_node14"><a xlink:href="../../df/d3d/Definitions_8h.html" target="_top" xlink:title="ITStracking/Definitions.h">
<polygon fill="none" stroke="#000000" points="3205.8151,-118 3205.8151,-137 3341.8151,-137 3341.8151,-118 3205.8151,-118"/>
<text text-anchor="middle" x="3273.8151" y="-125" font-family="Helvetica,sans-Serif" font-size="10.00" fill="#000000">ITStracking/Definitions.h</text>
</a>
</g>
</g>
<!-- Node12&#45;&gt;Node13 -->
<g id="edge15" class="edge">
<title>Node12&#45;&gt;Node13</title>
<path fill="none" stroke="#191970" d="M3139.4443,-318.9831C3177.5859,-309.2295 3230.8162,-293.2326 3244.8151,-277 3276.6475,-240.088 3277.6714,-178.8067 3275.7516,-147.3988"/>
<polygon fill="#191970" stroke="#191970" points="3279.2295,-146.9772 3274.9627,-137.2795 3272.2506,-147.5213 3279.2295,-146.9772"/>
</g>
<!-- Node18 -->
<g id="node19" class="node">
<title>Node18</title>
<g id="a_node19"><a xlink:href="../../dc/d3e/MathUtils_8h.html" target="_top" xlink:title="ITStracking/MathUtils.h">
<polygon fill="none" stroke="#000000" points="2317.8151,-252 2317.8151,-271 2447.8151,-271 2447.8151,-252 2317.8151,-252"/>
<text text-anchor="middle" x="2382.8151" y="-259" font-family="Helvetica,sans-Serif" font-size="10.00" fill="#000000">ITStracking/MathUtils.h</text>
</a>
</g>
</g>
<!-- Node12&#45;&gt;Node18 -->
<g id="edge21" class="edge">
<title>Node12&#45;&gt;Node18</title>
<path fill="none" stroke="#191970" d="M3040.0838,-324.4859C2932.1408,-316.8855 2695.0054,-299.1527 2495.8151,-277 2483.5471,-275.6356 2470.5536,-274.0167 2457.9153,-272.348"/>
<polygon fill="#191970" stroke="#191970" points="2458.2527,-268.862 2447.8765,-271.0031 2457.3231,-275.8001 2458.2527,-268.862"/>
</g>
<!-- Node12&#45;&gt;Node27 -->
<g id="edge41" class="edge">
<title>Node12&#45;&gt;Node27</title>
<path fill="none" stroke="#191970" d="M3107.125,-318.9005C3116.1696,-308.4525 3130.8168,-291.5325 3141.8705,-278.7635"/>
<polygon fill="#191970" stroke="#191970" points="3144.6217,-280.9331 3148.5205,-271.0817 3139.3292,-276.3515 3144.6217,-280.9331"/>
</g>
<!-- Node13&#45;&gt;Node5 -->
<g id="edge16" class="edge">
<title>Node13&#45;&gt;Node5</title>
<path fill="none" stroke="#191970" d="M3205.6083,-122.2848C3160.7818,-118.9899 3100.8325,-114.8344 3047.8151,-112 2584.0191,-87.2043 2018.609,-70.7069 1880.3956,-66.8617"/>
<polygon fill="#191970" stroke="#191970" points="1880.2101,-63.3554 1870.117,-66.5773 1880.0164,-70.3527 1880.2101,-63.3554"/>
</g>
<!-- Node14 -->
<g id="node15" class="node">
<title>Node14</title>
<g id="a_node15"><a xlink:href="../../df/d21/GPUCommonDef_8h.html" target="_top" xlink:title="GPUCommonDef.h">
<polygon fill="none" stroke="#000000" points="2925.3151,-56.5 2925.3151,-75.5 3032.3151,-75.5 3032.3151,-56.5 2925.3151,-56.5"/>
<text text-anchor="middle" x="2978.8151" y="-63.5" font-family="Helvetica,sans-Serif" font-size="10.00" fill="#000000">GPUCommonDef.h</text>
</a>
</g>
</g>
<!-- Node13&#45;&gt;Node14 -->
<g id="edge17" class="edge">
<title>Node13&#45;&gt;Node14</title>
<path fill="none" stroke="#191970" d="M3228.045,-117.9581C3175.9401,-107.0956 3090.8132,-89.3488 3034.7984,-77.6711"/>
<polygon fill="#191970" stroke="#191970" points="3035.1964,-74.1789 3024.6925,-75.5643 3033.7677,-81.0316 3035.1964,-74.1789"/>
</g>
<!-- Node17 -->
<g id="node18" class="node">
<title>Node17</title>
<polygon fill="none" stroke="#bfbfbf" points="3247.3151,-56.5 3247.3151,-75.5 3300.3151,-75.5 3300.3151,-56.5 3247.3151,-56.5"/>
<text text-anchor="middle" x="3273.8151" y="-63.5" font-family="Helvetica,sans-Serif" font-size="10.00" fill="#000000">cstddef</text>
</g>
<!-- Node13&#45;&gt;Node17 -->
<g id="edge20" class="edge">
<title>Node13&#45;&gt;Node17</title>
<path fill="none" stroke="#191970" d="M3273.8151,-117.8906C3273.8151,-109.3657 3273.8151,-96.6392 3273.8151,-85.9235"/>
<polygon fill="#191970" stroke="#191970" points="3277.3151,-85.7448 3273.8151,-75.7449 3270.3151,-85.7449 3277.3151,-85.7448"/>
</g>
<!-- Node15 -->
<g id="node16" class="node">
<title>Node15</title>
<g id="a_node16"><a xlink:href="../../d5/d93/GPUCommonDefSettings_8h.html" target="_top" xlink:title="GPUCommonDefSettings.h">
<polygon fill="none" stroke="#000000" points="2827.8151,-.5 2827.8151,-19.5 2975.8151,-19.5 2975.8151,-.5 2827.8151,-.5"/>
<text text-anchor="middle" x="2901.8151" y="-7.5" font-family="Helvetica,sans-Serif" font-size="10.00" fill="#000000">GPUCommonDefSettings.h</text>
</a>
</g>
</g>
<!-- Node14&#45;&gt;Node15 -->
<g id="edge18" class="edge">
<title>Node14&#45;&gt;Node15</title>
<path fill="none" stroke="#191970" d="M2965.4027,-56.2455C2953.8093,-47.814 2936.8403,-35.4729 2923.3472,-25.6598"/>
<polygon fill="#191970" stroke="#191970" points="2925.2197,-22.6938 2915.0737,-19.6427 2921.1025,-28.355 2925.2197,-22.6938"/>
</g>
<!-- Node16 -->
<g id="node17" class="node">
<title>Node16</title>
<g id="a_node17"><a xlink:href="../../da/d5a/GPUCommonDefAPI_8h.html" target="_top" xlink:title="GPUCommonDefAPI.h">
<polygon fill="none" stroke="#000000" points="2993.8151,-.5 2993.8151,-19.5 3117.8151,-19.5 3117.8151,-.5 2993.8151,-.5"/>
<text text-anchor="middle" x="3055.8151" y="-7.5" font-family="Helvetica,sans-Serif" font-size="10.00" fill="#000000">GPUCommonDefAPI.h</text>
</a>
</g>
</g>
<!-- Node14&#45;&gt;Node16 -->
<g id="edge19" class="edge">
<title>Node14&#45;&gt;Node16</title>
<path fill="none" stroke="#191970" d="M2992.2274,-56.2455C3003.8208,-47.814 3020.7898,-35.4729 3034.2829,-25.6598"/>
<polygon fill="#191970" stroke="#191970" points="3036.5276,-28.355 3042.5564,-19.6427 3032.4104,-22.6938 3036.5276,-28.355"/>
</g>
<!-- Node18&#45;&gt;Node5 -->
<g id="edge22" class="edge">
<title>Node18&#45;&gt;Node5</title>
<path fill="none" stroke="#191970" d="M2360.9707,-251.8262C2339.7417,-242.1375 2306.8412,-226.3528 2279.8151,-210 2259.658,-197.8035 2257.988,-189.3328 2236.8151,-179 2203.8319,-162.9036 1965.553,-97.6276 1879.6147,-74.3205"/>
<polygon fill="#191970" stroke="#191970" points="1880.4809,-70.9291 1869.9136,-71.6923 1878.6504,-77.6855 1880.4809,-70.9291"/>
</g>
<!-- Node18&#45;&gt;Node10 -->
<g id="edge24" class="edge">
<title>Node18&#45;&gt;Node10</title>
<path fill="none" stroke="#191970" d="M2356.251,-251.972C2327.864,-241.7494 2281.5722,-224.9619 2241.8151,-210 2239.9331,-209.2917 2238.0031,-208.5605 2236.0562,-207.8189"/>
<polygon fill="#191970" stroke="#191970" points="2236.9149,-204.3996 2226.3247,-204.0844 2234.4069,-210.9349 2236.9149,-204.3996"/>
</g>
<!-- Node18&#45;&gt;Node14 -->
<g id="edge40" class="edge">
<title>Node18&#45;&gt;Node14</title>
<path fill="none" stroke="#191970" d="M2429.974,-251.9946C2440.4455,-249.9545 2451.498,-247.8558 2461.8151,-246 2559.3283,-228.46 2587.3641,-239.925 2681.8151,-210 2788.3035,-176.2611 2904.8281,-110.4079 2954.3583,-80.9117"/>
<polygon fill="#191970" stroke="#191970" points="2956.3045,-83.8258 2963.0794,-75.6801 2952.7035,-77.823 2956.3045,-83.8258"/>
</g>
<!-- Node19 -->
<g id="node20" class="node">
<title>Node19</title>
<polygon fill="none" stroke="#bfbfbf" points="2311.3151,-56.5 2311.3151,-75.5 2358.3151,-75.5 2358.3151,-56.5 2311.3151,-56.5"/>
<text text-anchor="middle" x="2334.8151" y="-63.5" font-family="Helvetica,sans-Serif" font-size="10.00" fill="#000000">cmath</text>
</g>
<!-- Node18&#45;&gt;Node19 -->
<g id="edge23" class="edge">
<title>Node18&#45;&gt;Node19</title>
<path fill="none" stroke="#191970" d="M2380.4347,-251.8051C2372.949,-221.3163 2349.7833,-126.9646 2339.6471,-85.6804"/>
<polygon fill="#191970" stroke="#191970" points="2342.9933,-84.6304 2337.2097,-75.7534 2336.1952,-86.2995 2342.9933,-84.6304"/>
</g>
<!-- Node20 -->
<g id="node21" class="node">
<title>Node20</title>
<polygon fill="none" stroke="#bfbfbf" points="3061.8151,-185 3061.8151,-204 3121.8151,-204 3121.8151,-185 3061.8151,-185"/>
<text text-anchor="middle" x="3091.8151" y="-192" font-family="Helvetica,sans-Serif" font-size="10.00" fill="#000000">iostream</text>
</g>
<!-- Node18&#45;&gt;Node20 -->
<g id="edge25" class="edge">
<title>Node18&#45;&gt;Node20</title>
<path fill="none" stroke="#191970" d="M2446.3667,-251.968C2462.4718,-249.7768 2479.7579,-247.6181 2495.8151,-246 2742.6371,-221.128 2810.7992,-264.4799 3052.8151,-210 3055.6805,-209.355 3058.6106,-208.5287 3061.5139,-207.5943"/>
<polygon fill="#191970" stroke="#191970" points="3062.937,-210.8015 3071.1489,-204.1071 3060.5547,-204.2194 3062.937,-210.8015"/>
</g>
<!-- Node21 -->
<g id="node22" class="node">
<title>Node21</title>
<g id="a_node22"><a xlink:href="../../d9/d52/Common_2MathUtils_2include_2MathUtils_2Utils_8h.html" target="_top" xlink:title="MathUtils/Utils.h">
<polygon fill="none" stroke="#000000" points="2435.8151,-185 2435.8151,-204 2533.8151,-204 2533.8151,-185 2435.8151,-185"/>
<text text-anchor="middle" x="2484.8151" y="-192" font-family="Helvetica,sans-Serif" font-size="10.00" fill="#000000">MathUtils/Utils.h</text>
</a>
</g>
</g>
<!-- Node18&#45;&gt;Node21 -->
<g id="edge26" class="edge">
<title>Node18&#45;&gt;Node21</title>
<path fill="none" stroke="#191970" d="M2397.4292,-251.9005C2414.2441,-240.8554 2442.07,-222.5776 2461.8008,-209.6172"/>
<polygon fill="#191970" stroke="#191970" points="2463.7915,-212.4972 2470.228,-204.0817 2459.9483,-206.6465 2463.7915,-212.4972"/>
</g>
<!-- Node22 -->
<g id="node23" class="node">
<title>Node22</title>
<g id="a_node23"><a xlink:href="../../d6/da2/GPUCommonMath_8h.html" target="_top" xlink:title="GPUCommonMath.h">
<polygon fill="none" stroke="#000000" points="2178.3151,-118 2178.3151,-137 2293.3151,-137 2293.3151,-118 2178.3151,-118"/>
<text text-anchor="middle" x="2235.8151" y="-125" font-family="Helvetica,sans-Serif" font-size="10.00" fill="#000000">GPUCommonMath.h</text>
</a>
</g>
</g>
<!-- Node18&#45;&gt;Node22 -->
<g id="edge39" class="edge">
<title>Node18&#45;&gt;Node22</title>
<path fill="none" stroke="#191970" d="M2372.2432,-251.8631C2347.3455,-229.1672 2284.7892,-172.1431 2253.7948,-143.8897"/>
<polygon fill="#191970" stroke="#191970" points="2256.0393,-141.1998 2246.2911,-137.0496 2251.3236,-146.373 2256.0393,-141.1998"/>
</g>
<!-- Node18&#45;&gt;Node25 -->
<g id="edge35" class="edge">
<title>Node18&#45;&gt;Node25</title>
<path fill="none" stroke="#191970" d="M2428.24,-251.9398C2439.2031,-249.812 2450.9034,-247.6893 2461.8151,-246 2532.2988,-235.0881 2728.311,-213.9391 2837.6442,-202.4292"/>
<polygon fill="#191970" stroke="#191970" points="2838.0448,-205.9065 2847.624,-201.38 2837.3128,-198.9448 2838.0448,-205.9065"/>
</g>
<!-- Node21&#45;&gt;Node5 -->
<g id="edge27" class="edge">
<title>Node21&#45;&gt;Node5</title>
<path fill="none" stroke="#191970" d="M2464.5739,-184.8762C2420.7186,-164.0902 2319.5214,-116.5031 2302.8151,-112 2222.6027,-90.3794 1969.1146,-73.3107 1880.0929,-67.8464"/>
<polygon fill="#191970" stroke="#191970" points="1880.2684,-64.3507 1870.0746,-67.238 1879.844,-71.3379 1880.2684,-64.3507"/>
</g>
<!-- Node21&#45;&gt;Node14 -->
<g id="edge29" class="edge">
<title>Node21&#45;&gt;Node14</title>
<path fill="none" stroke="#191970" d="M2509.0227,-184.8195C2533.95,-174.7451 2573.8402,-158.3272 2607.8151,-143 2636.6246,-130.003 2641.6201,-121.3371 2671.8151,-112 2753.6316,-86.7001 2852.1624,-75.085 2915.1347,-69.9138"/>
<polygon fill="#191970" stroke="#191970" points="2915.6192,-73.3865 2925.3121,-69.1088 2915.0672,-66.4083 2915.6192,-73.3865"/>
</g>
<!-- Node21&#45;&gt;Node19 -->
<g id="edge28" class="edge">
<title>Node21&#45;&gt;Node19</title>
<path fill="none" stroke="#191970" d="M2516.0943,-184.9421C2556.1415,-171.1344 2617.3699,-143.7518 2590.8151,-112 2562.8821,-78.6005 2431.7643,-69.4175 2368.7698,-66.9193"/>
<polygon fill="#191970" stroke="#191970" points="2368.6741,-63.4137 2358.554,-66.5495 2368.4208,-70.4091 2368.6741,-63.4137"/>
</g>
<!-- Node21&#45;&gt;Node22 -->
<g id="edge30" class="edge">
<title>Node21&#45;&gt;Node22</title>
<path fill="none" stroke="#191970" d="M2449.4039,-184.9717C2405.2805,-173.0991 2329.8066,-152.7909 2281.4039,-139.7669"/>
<polygon fill="#191970" stroke="#191970" points="2282.0732,-136.3225 2271.5072,-137.1039 2280.2543,-143.0821 2282.0732,-136.3225"/>
</g>
<!-- Node24 -->
<g id="node25" class="node">
<title>Node24</title>
<g id="a_node25"><a xlink:href="../../d6/d84/MathConstants_8h.html" target="_top" xlink:title="useful math constants ">
<polygon fill="none" stroke="#000000" points="2387.8151,-118 2387.8151,-137 2581.8151,-137 2581.8151,-118 2387.8151,-118"/>
<text text-anchor="middle" x="2484.8151" y="-125" font-family="Helvetica,sans-Serif" font-size="10.00" fill="#000000">CommonConstants/MathConstants.h</text>
</a>
</g>
</g>
<!-- Node21&#45;&gt;Node24 -->
<g id="edge34" class="edge">
<title>Node21&#45;&gt;Node24</title>
<path fill="none" stroke="#191970" d="M2484.8151,-184.9005C2484.8151,-175.149 2484.8151,-159.7597 2484.8151,-147.3695"/>
<polygon fill="#191970" stroke="#191970" points="2488.3151,-147.0816 2484.8151,-137.0817 2481.3151,-147.0817 2488.3151,-147.0816"/>
</g>
<!-- Node22&#45;&gt;Node14 -->
<g id="edge31" class="edge">
<title>Node22&#45;&gt;Node14</title>
<path fill="none" stroke="#191970" d="M2293.5237,-120.827C2319.5621,-117.9239 2350.7169,-114.5993 2378.8151,-112 2573.8192,-93.9609 2804.9483,-77.6757 2914.7421,-70.2479"/>
<polygon fill="#191970" stroke="#191970" points="2915.2416,-73.7223 2924.9833,-69.557 2914.7703,-66.7381 2915.2416,-73.7223"/>
</g>
<!-- Node22&#45;&gt;Node19 -->
<g id="edge32" class="edge">
<title>Node22&#45;&gt;Node19</title>
<path fill="none" stroke="#191970" d="M2251.2838,-117.8906C2267.2671,-107.9616 2292.4254,-92.333 2310.9584,-80.8201"/>
<polygon fill="#191970" stroke="#191970" points="2312.8074,-83.7918 2319.4549,-75.5419 2309.1136,-77.8457 2312.8074,-83.7918"/>
</g>
<!-- Node23 -->
<g id="node24" class="node">
<title>Node23</title>
<polygon fill="none" stroke="#bfbfbf" points="2203.8151,-56.5 2203.8151,-75.5 2267.8151,-75.5 2267.8151,-56.5 2203.8151,-56.5"/>
<text text-anchor="middle" x="2235.8151" y="-63.5" font-family="Helvetica,sans-Serif" font-size="10.00" fill="#000000">algorithm</text>
</g>
<!-- Node22&#45;&gt;Node23 -->
<g id="edge33" class="edge">
<title>Node22&#45;&gt;Node23</title>
<path fill="none" stroke="#191970" d="M2235.8151,-117.8906C2235.8151,-109.3657 2235.8151,-96.6392 2235.8151,-85.9235"/>
<polygon fill="#191970" stroke="#191970" points="2239.3151,-85.7448 2235.8151,-75.7449 2232.3151,-85.7449 2239.3151,-85.7448"/>
</g>
<!-- Node25&#45;&gt;Node8 -->
<g id="edge37" class="edge">
<title>Node25&#45;&gt;Node8</title>
<path fill="none" stroke="#191970" d="M2928.2859,-184.9005C2944.936,-173.8554 2972.4891,-155.5776 2992.0264,-142.6172"/>
<polygon fill="#191970" stroke="#191970" points="2993.9727,-145.5263 3000.3711,-137.0817 2990.1031,-139.693 2993.9727,-145.5263"/>
</g>
<!-- Node25&#45;&gt;Node13 -->
<g id="edge38" class="edge">
<title>Node25&#45;&gt;Node13</title>
<path fill="none" stroke="#191970" d="M2959.5983,-184.9945C2969.5516,-182.9751 2980.03,-180.8848 2989.8151,-179 3065.0125,-164.5156 3151.6386,-148.9715 3209.2499,-138.7947"/>
<polygon fill="#191970" stroke="#191970" points="3210.0647,-142.2051 3219.3046,-137.0211 3208.8486,-135.3116 3210.0647,-142.2051"/>
</g>
<!-- Node26 -->
<g id="node27" class="node">
<title>Node26</title>
<polygon fill="none" stroke="#bfbfbf" points="2713.8151,-118 2713.8151,-137 2763.8151,-137 2763.8151,-118 2713.8151,-118"/>
<text text-anchor="middle" x="2738.8151" y="-125" font-family="Helvetica,sans-Serif" font-size="10.00" fill="#000000">climits</text>
</g>
<!-- Node25&#45;&gt;Node26 -->
<g id="edge36" class="edge">
<title>Node25&#45;&gt;Node26</title>
<path fill="none" stroke="#191970" d="M2888.7418,-184.9005C2858.4632,-173.3082 2807.3747,-153.7486 2773.3745,-140.7313"/>
<polygon fill="#191970" stroke="#191970" points="2774.4322,-137.3886 2763.8418,-137.0817 2771.9293,-143.9258 2774.4322,-137.3886"/>
</g>
<!-- Node27&#45;&gt;Node5 -->
<g id="edge42" class="edge">
<title>Node27&#45;&gt;Node5</title>
<path fill="none" stroke="#191970" d="M3077.6373,-256.3343C3030.8562,-253.2952 2970.4654,-249.3946 2916.8151,-246 2787.7145,-237.8315 2460.9424,-242.8149 2335.8151,-210 2305.2433,-201.9825 2300.9847,-191.1674 2271.8151,-179 2227.4462,-160.4927 2215.0947,-159.1512 2169.8151,-143 2131.5471,-129.3499 2122.9767,-122.8229 2083.8151,-112 2012.0328,-92.162 1925.6401,-77.5631 1880.2338,-70.5851"/>
<polygon fill="#191970" stroke="#191970" points="1880.5437,-67.0921 1870.1322,-69.055 1879.4953,-74.0132 1880.5437,-67.0921"/>
</g>
<!-- Node27&#45;&gt;Node8 -->
<g id="edge44" class="edge">
<title>Node27&#45;&gt;Node8</title>
<path fill="none" stroke="#191970" d="M3156.2902,-251.8545C3154.8844,-235.0467 3149.7244,-200.1665 3130.8151,-179 3109.3021,-154.9191 3074.4064,-141.532 3048.4995,-134.4866"/>
<polygon fill="#191970" stroke="#191970" points="3049.2635,-131.0696 3038.7101,-132.0059 3047.544,-137.8551 3049.2635,-131.0696"/>
</g>
<!-- Node27&#45;&gt;Node9 -->
<g id="edge43" class="edge">
<title>Node27&#45;&gt;Node9</title>
<path fill="none" stroke="#191970" d="M3137.3296,-251.9005C3114.3037,-240.5569 3075.7923,-221.5844 3049.3918,-208.5783"/>
<polygon fill="#191970" stroke="#191970" points="3050.7817,-205.3613 3040.2644,-204.0817 3047.6881,-211.6407 3050.7817,-205.3613"/>
</g>
<!-- Node27&#45;&gt;Node13 -->
<g id="edge46" class="edge">
<title>Node27&#45;&gt;Node13</title>
<path fill="none" stroke="#191970" d="M3165.4436,-251.6286C3174.5035,-241.263 3189.1632,-224.4882 3201.8151,-210 3221.4077,-187.5637 3243.9891,-161.6861 3258.5609,-144.9849"/>
<polygon fill="#191970" stroke="#191970" points="3261.4557,-146.9907 3265.3926,-137.1545 3256.181,-142.3888 3261.4557,-146.9907"/>
</g>
<!-- Node27&#45;&gt;Node14 -->
<g id="edge48" class="edge">
<title>Node27&#45;&gt;Node14</title>
<path fill="none" stroke="#191970" d="M3159.0121,-251.8176C3162.1524,-235.5534 3166.1771,-202.249 3152.8151,-179 3123.2378,-127.5377 3059.6403,-95.5062 3018.0762,-79.2138"/>
<polygon fill="#191970" stroke="#191970" points="3019.1249,-75.8683 3008.5336,-75.5969 3016.644,-82.414 3019.1249,-75.8683"/>
</g>
<!-- Node27&#45;&gt;Node22 -->
<g id="edge47" class="edge">
<title>Node27&#45;&gt;Node22</title>
<path fill="none" stroke="#191970" d="M3077.5737,-256.2599C2891.7695,-243.9267 2442.4665,-213.8149 2426.8151,-210 2364.6408,-194.8454 2297.044,-161.1533 2261.3084,-141.8401"/>
<polygon fill="#191970" stroke="#191970" points="2262.9709,-138.7601 2252.5182,-137.0305 2259.6109,-144.901 2262.9709,-138.7601"/>
</g>
<!-- Node27&#45;&gt;Node25 -->
<g id="edge45" class="edge">
<title>Node27&#45;&gt;Node25</title>
<path fill="none" stroke="#191970" d="M3122.2571,-251.9717C3079.197,-240.0991 3005.5418,-219.7909 2958.3054,-206.7669"/>
<polygon fill="#191970" stroke="#191970" points="2959.2178,-203.3879 2948.6472,-204.1039 2957.3571,-210.1361 2959.2178,-203.3879"/>
</g>
<!-- Node28&#45;&gt;Node4 -->
<g id="edge68" class="edge">
<title>Node28&#45;&gt;Node4</title>
<path fill="none" stroke="#191970" d="M1331.536,-321.2405C1262.8523,-313.6606 1159.5228,-299.6588 1071.8151,-277 1068.8261,-276.2278 1065.7536,-275.3221 1062.6954,-274.343"/>
<polygon fill="#191970" stroke="#191970" points="1063.6905,-270.984 1053.0958,-271.0385 1061.4121,-277.6028 1063.6905,-270.984"/>
</g>
<!-- Node28&#45;&gt;Node5 -->
<g id="edge67" class="edge">
<title>Node28&#45;&gt;Node5</title>
<path fill="none" stroke="#191970" d="M1403.3529,-313.4039C1399.1376,-296.2279 1394.8136,-267.7453 1404.8151,-246 1415.0882,-223.6638 1432.1756,-229.7518 1446.8151,-210 1475.1369,-171.7875 1451.7319,-140.4955 1489.8151,-112 1515.9024,-92.4802 1735.3689,-74.3951 1817.7428,-68.2329"/>
<polygon fill="#191970" stroke="#191970" points="1818.0422,-71.7204 1827.7568,-67.4922 1817.5258,-64.7395 1818.0422,-71.7204"/>
</g>
<!-- Node28&#45;&gt;Node6 -->
<g id="edge70" class="edge">
<title>Node28&#45;&gt;Node6</title>
<path fill="none" stroke="#191970" d="M1331.5279,-320.0405C1255.3933,-310.7977 1144.2276,-294.9005 1104.8151,-277 1084.9701,-267.9868 1087.182,-253.7619 1066.8151,-246 896.5826,-181.1238 424.9482,-252.5656 247.8151,-210 245.4733,-209.4373 243.0958,-208.7118 240.742,-207.8826"/>
<polygon fill="#191970" stroke="#191970" points="241.9336,-204.5886 231.3529,-204.0412 239.2829,-211.0673 241.9336,-204.5886"/>
</g>
<!-- Node29 -->
<g id="node30" class="node">
<title>Node29</title>
<g id="a_node30"><a xlink:href="../../dd/d76/Cartesian3D_8h.html" target="_top" xlink:title="MathUtils/Cartesian3D.h">
<polygon fill="none" stroke="#000000" points="1114.3151,-252 1114.3151,-271 1249.3151,-271 1249.3151,-252 1114.3151,-252"/>
<text text-anchor="middle" x="1181.8151" y="-259" font-family="Helvetica,sans-Serif" font-size="10.00" fill="#000000">MathUtils/Cartesian3D.h</text>
</a>
</g>
</g>
<!-- Node28&#45;&gt;Node29 -->
<g id="edge51" class="edge">
<title>Node28&#45;&gt;Node29</title>
<path fill="none" stroke="#191970" d="M1357.0962,-313.4639C1316.8363,-301.5284 1261.2375,-285.0456 1223.5332,-273.8678"/>
<polygon fill="#191970" stroke="#191970" points="1224.4601,-270.492 1213.8777,-271.0053 1222.4704,-277.2033 1224.4601,-270.492"/>
</g>
<!-- Node40 -->
<g id="node41" class="node">
<title>Node40</title>
<g id="a_node41"><a xlink:href="../../df/d5d/common_2include_2CommonDataFormat_2TimeStamp_8h.html" target="_top" xlink:title="CommonDataFormat/TimeStamp.h">
<polygon fill="none" stroke="#000000" points="1577.3151,-252 1577.3151,-271 1764.3151,-271 1764.3151,-252 1577.3151,-252"/>
<text text-anchor="middle" x="1670.8151" y="-259" font-family="Helvetica,sans-Serif" font-size="10.00" fill="#000000">CommonDataFormat/TimeStamp.h</text>
</a>
</g>
</g>
<!-- Node28&#45;&gt;Node40 -->
<g id="edge63" class="edge">
<title>Node28&#45;&gt;Node40</title>
<path fill="none" stroke="#191970" d="M1466.8374,-313.4639C1514.1869,-301.4015 1579.7685,-284.6944 1623.6602,-273.5128"/>
<polygon fill="#191970" stroke="#191970" points="1624.6768,-276.8657 1633.5033,-271.0053 1622.9487,-270.0824 1624.6768,-276.8657"/>
</g>
<!-- Node42 -->
<g id="node43" class="node">
<title>Node42</title>
<polygon fill="none" stroke="#bfbfbf" points="1414.3151,-252 1414.3151,-271 1445.3151,-271 1445.3151,-252 1414.3151,-252"/>
<text text-anchor="middle" x="1429.8151" y="-259" font-family="Helvetica,sans-Serif" font-size="10.00" fill="#000000">ios</text>
</g>
<!-- Node28&#45;&gt;Node42 -->
<g id="edge69" class="edge">
<title>Node28&#45;&gt;Node42</title>
<path fill="none" stroke="#191970" d="M1412.8072,-313.2967C1415.9687,-303.6685 1420.0852,-291.1318 1423.4765,-280.8038"/>
<polygon fill="#191970" stroke="#191970" points="1426.8831,-281.6478 1426.6776,-271.055 1420.2325,-279.464 1426.8831,-281.6478"/>
</g>
<!-- Node29&#45;&gt;Node6 -->
<g id="edge59" class="edge">
<title>Node29&#45;&gt;Node6</title>
<path fill="none" stroke="#191970" d="M1137.7352,-251.9561C1125.5089,-249.6403 1112.1933,-247.4238 1099.8151,-246 911.5542,-224.3448 432.1095,-254.1209 247.8151,-210 245.4729,-209.4393 243.0949,-208.7152 240.7409,-207.8869"/>
<polygon fill="#191970" stroke="#191970" points="241.9322,-204.5928 231.3514,-204.0473 239.2826,-211.072 241.9322,-204.5928"/>
</g>
<!-- Node30 -->
<g id="node31" class="node">
<title>Node30</title>
<polygon fill="none" stroke="#bfbfbf" points="256.8151,-179.5 256.8151,-209.5 420.8151,-209.5 420.8151,-179.5 256.8151,-179.5"/>
<text text-anchor="start" x="264.8151" y="-197.5" font-family="Helvetica,sans-Serif" font-size="10.00" fill="#000000">Math/GenVector/Displacement</text>
<text text-anchor="middle" x="338.8151" y="-186.5" font-family="Helvetica,sans-Serif" font-size="10.00" fill="#000000">Vector3D.h</text>
</g>
<!-- Node29&#45;&gt;Node30 -->
<g id="edge52" class="edge">
<title>Node29&#45;&gt;Node30</title>
<path fill="none" stroke="#191970" d="M1137.2972,-251.9691C1125.1884,-249.6824 1112.0411,-247.4773 1099.8151,-246 807.086,-210.6287 727.9508,-242.3614 431.2882,-210.0759"/>
<polygon fill="#191970" stroke="#191970" points="431.4186,-206.5691 421.0949,-208.9509 430.6506,-213.5269 431.4186,-206.5691"/>
</g>
<!-- Node31 -->
<g id="node32" class="node">
<title>Node31</title>
<polygon fill="none" stroke="#bfbfbf" points="439.3151,-185 439.3151,-204 628.3151,-204 628.3151,-185 439.3151,-185"/>
<text text-anchor="middle" x="533.8151" y="-192" font-family="Helvetica,sans-Serif" font-size="10.00" fill="#000000">Math/GenVector/PositionVector3D.h</text>
</g>
<!-- Node29&#45;&gt;Node31 -->
<g id="edge53" class="edge">
<title>Node29&#45;&gt;Node31</title>
<path fill="none" stroke="#191970" d="M1135.9863,-251.924C1124.237,-249.7206 1111.5916,-247.5671 1099.8151,-246 895.6589,-218.833 842.4606,-233.1943 637.8151,-210 626.5215,-208.72 614.5696,-207.1458 602.9477,-205.4962"/>
<polygon fill="#191970" stroke="#191970" points="603.2428,-202.0025 592.8443,-204.0326 602.2392,-208.9301 603.2428,-202.0025"/>
</g>
<!-- Node32 -->
<g id="node33" class="node">
<title>Node32</title>
<polygon fill="none" stroke="#bfbfbf" points="646.8151,-185 646.8151,-204 806.8151,-204 806.8151,-185 646.8151,-185"/>
<text text-anchor="middle" x="726.8151" y="-192" font-family="Helvetica,sans-Serif" font-size="10.00" fill="#000000">Math/GenVector/Rotation3D.h</text>
</g>
<!-- Node29&#45;&gt;Node32 -->
<g id="edge54" class="edge">
<title>Node29&#45;&gt;Node32</title>
<path fill="none" stroke="#191970" d="M1134.2038,-251.9939C1122.9507,-249.8876 1110.9778,-247.7609 1099.8151,-246 974.1368,-226.1751 941.6327,-228.92 815.8151,-210 807.1382,-208.6952 798.0032,-207.2204 789.0248,-205.7123"/>
<polygon fill="#191970" stroke="#191970" points="789.433,-202.2315 778.9872,-204.0027 788.2576,-209.1321 789.433,-202.2315"/>
</g>
<!-- Node33 -->
<g id="node34" class="node">
<title>Node33</title>
<polygon fill="none" stroke="#bfbfbf" points="824.8151,-185 824.8151,-204 992.8151,-204 992.8151,-185 824.8151,-185"/>
<text text-anchor="middle" x="908.8151" y="-192" font-family="Helvetica,sans-Serif" font-size="10.00" fill="#000000">Math/GenVector/Transform3D.h</text>
</g>
<!-- Node29&#45;&gt;Node33 -->
<g id="edge55" class="edge">
<title>Node29&#45;&gt;Node33</title>
<path fill="none" stroke="#191970" d="M1142.9907,-251.9717C1094.3109,-240.0246 1010.826,-219.5357 957.8024,-206.5225"/>
<polygon fill="#191970" stroke="#191970" points="958.4935,-203.0883 947.9474,-204.1039 956.825,-209.8866 958.4935,-203.0883"/>
</g>
<!-- Node34 -->
<g id="node35" class="node">
<title>Node34</title>
<polygon fill="none" stroke="#bfbfbf" points="1011.3151,-185 1011.3151,-204 1184.3151,-204 1184.3151,-185 1011.3151,-185"/>
<text text-anchor="middle" x="1097.8151" y="-192" font-family="Helvetica,sans-Serif" font-size="10.00" fill="#000000">Math/GenVector/Translation3D.h</text>
</g>
<!-- Node29&#45;&gt;Node34 -->
<g id="edge56" class="edge">
<title>Node29&#45;&gt;Node34</title>
<path fill="none" stroke="#191970" d="M1169.7799,-251.9005C1156.1818,-241.0544 1133.8397,-223.2339 1117.6527,-210.3229"/>
<polygon fill="#191970" stroke="#191970" points="1119.8281,-207.5811 1109.8279,-204.0817 1115.4632,-213.0535 1119.8281,-207.5811"/>
</g>
<!-- Node35 -->
<g id="node36" class="node">
<title>Node35</title>
<polygon fill="none" stroke="#bfbfbf" points="1532.3151,-118 1532.3151,-137 1591.3151,-137 1591.3151,-118 1532.3151,-118"/>
<text text-anchor="middle" x="1561.8151" y="-125" font-family="Helvetica,sans-Serif" font-size="10.00" fill="#000000">Rtypes.h</text>
</g>
<!-- Node29&#45;&gt;Node35 -->
<g id="edge57" class="edge">
<title>Node29&#45;&gt;Node35</title>
<path fill="none" stroke="#191970" d="M1249.5043,-256.4012C1304.5022,-250.3874 1383.1205,-237.4662 1446.8151,-210 1484.8603,-193.5942 1522.6786,-163.0088 1544.0637,-144.0403"/>
<polygon fill="#191970" stroke="#191970" points="1546.6024,-146.4635 1551.6732,-137.1609 1541.908,-141.2709 1546.6024,-146.4635"/>
</g>
<!-- Node36 -->
<g id="node37" class="node">
<title>Node36</title>
<polygon fill="none" stroke="#bfbfbf" points="1355.8151,-185 1355.8151,-204 1437.8151,-204 1437.8151,-185 1355.8151,-185"/>
<text text-anchor="middle" x="1396.8151" y="-192" font-family="Helvetica,sans-Serif" font-size="10.00" fill="#000000">TGeoMatrix.h</text>
</g>
<!-- Node29&#45;&gt;Node36 -->
<g id="edge58" class="edge">
<title>Node29&#45;&gt;Node36</title>
<path fill="none" stroke="#191970" d="M1212.6193,-251.9005C1250.4574,-240.1091 1314.7472,-220.0746 1356.4888,-207.0668"/>
<polygon fill="#191970" stroke="#191970" points="1357.5621,-210.3984 1366.0679,-204.0817 1355.4794,-203.7154 1357.5621,-210.3984"/>
</g>
<!-- Node37 -->
<g id="node38" class="node">
<title>Node37</title>
<g id="a_node38"><a xlink:href="../../d2/dd0/Cartesian2D_8h.html" target="_top" xlink:title="MathUtils/Cartesian2D.h">
<polygon fill="none" stroke="#000000" points="1202.3151,-185 1202.3151,-204 1337.3151,-204 1337.3151,-185 1202.3151,-185"/>
<text text-anchor="middle" x="1269.8151" y="-192" font-family="Helvetica,sans-Serif" font-size="10.00" fill="#000000">MathUtils/Cartesian2D.h</text>
</a>
</g>
</g>
<!-- Node29&#45;&gt;Node37 -->
<g id="edge60" class="edge">
<title>Node29&#45;&gt;Node37</title>
<path fill="none" stroke="#191970" d="M1194.4233,-251.9005C1208.6689,-241.0544 1232.0749,-223.2339 1249.0328,-210.3229"/>
<polygon fill="#191970" stroke="#191970" points="1251.394,-212.9241 1257.2302,-204.0817 1247.1536,-207.3547 1251.394,-212.9241"/>
</g>
<!-- Node38 -->
<g id="node39" class="node">
<title>Node38</title>
<polygon fill="none" stroke="#bfbfbf" points="1028.8151,-112.5 1028.8151,-142.5 1192.8151,-142.5 1192.8151,-112.5 1028.8151,-112.5"/>
<text text-anchor="start" x="1036.8151" y="-130.5" font-family="Helvetica,sans-Serif" font-size="10.00" fill="#000000">Math/GenVector/Displacement</text>
<text text-anchor="middle" x="1110.8151" y="-119.5" font-family="Helvetica,sans-Serif" font-size="10.00" fill="#000000">Vector2D.h</text>
</g>
<!-- Node37&#45;&gt;Node38 -->
<g id="edge61" class="edge">
<title>Node37&#45;&gt;Node38</title>
<path fill="none" stroke="#191970" d="M1247.0342,-184.9005C1223.3243,-174.9096 1185.5702,-159.0006 1155.8154,-146.4624"/>
<polygon fill="#191970" stroke="#191970" points="1157.0381,-143.1796 1146.4637,-142.5218 1154.3199,-149.6303 1157.0381,-143.1796"/>
</g>
<!-- Node39 -->
<g id="node40" class="node">
<title>Node39</title>
<polygon fill="none" stroke="#bfbfbf" points="1211.3151,-118 1211.3151,-137 1400.3151,-137 1400.3151,-118 1211.3151,-118"/>
<text text-anchor="middle" x="1305.8151" y="-125" font-family="Helvetica,sans-Serif" font-size="10.00" fill="#000000">Math/GenVector/PositionVector2D.h</text>
</g>
<!-- Node37&#45;&gt;Node39 -->
<g id="edge62" class="edge">
<title>Node37&#45;&gt;Node39</title>
<path fill="none" stroke="#191970" d="M1274.973,-184.9005C1280.373,-174.8505 1288.9906,-158.8122 1295.7456,-146.2403"/>
<polygon fill="#191970" stroke="#191970" points="1299.0166,-147.5472 1300.6667,-137.0817 1292.8504,-144.234 1299.0166,-147.5472"/>
</g>
<!-- Node40&#45;&gt;Node14 -->
<g id="edge66" class="edge">
<title>Node40&#45;&gt;Node14</title>
<path fill="none" stroke="#191970" d="M1764.3533,-254.4432C1802.3458,-251.6668 1846.6673,-248.5419 1886.8151,-246 2032.5204,-236.7748 2403.2932,-252.9978 2542.8151,-210 2597.883,-193.0292 2604.528,-172.8542 2653.8151,-143 2676.5031,-129.2574 2679.955,-121.2511 2704.8151,-112 2773.9713,-86.2651 2858.3193,-74.8609 2915.0074,-69.8498"/>
<polygon fill="#191970" stroke="#191970" points="2915.5895,-73.3133 2925.2605,-68.9865 2915.0021,-66.338 2915.5895,-73.3133"/>
</g>
<!-- Node41 -->
<g id="node42" class="node">
<title>Node41</title>
<g id="a_node42"><a xlink:href="../../d2/d45/GPUCommonRtypes_8h.html" target="_top" xlink:title="GPUCommonRtypes.h">
<polygon fill="none" stroke="#000000" points="1608.3151,-185 1608.3151,-204 1733.3151,-204 1733.3151,-185 1608.3151,-185"/>
<text text-anchor="middle" x="1670.8151" y="-192" font-family="Helvetica,sans-Serif" font-size="10.00" fill="#000000">GPUCommonRtypes.h</text>
</a>
</g>
</g>
<!-- Node40&#45;&gt;Node41 -->
<g id="edge64" class="edge">
<title>Node40&#45;&gt;Node41</title>
<path fill="none" stroke="#191970" d="M1670.8151,-251.9005C1670.8151,-242.149 1670.8151,-226.7597 1670.8151,-214.3695"/>
<polygon fill="#191970" stroke="#191970" points="1674.3151,-214.0816 1670.8151,-204.0817 1667.3151,-214.0817 1674.3151,-214.0816"/>
</g>
<!-- Node41&#45;&gt;Node35 -->
<g id="edge65" class="edge">
<title>Node41&#45;&gt;Node35</title>
<path fill="none" stroke="#191970" d="M1655.198,-184.9005C1637.1482,-173.8057 1607.2255,-155.4128 1586.1243,-142.4424"/>
<polygon fill="#191970" stroke="#191970" points="1587.7552,-139.3366 1577.4031,-137.0817 1584.0896,-145.3001 1587.7552,-139.3366"/>
</g>
<!-- Node43&#45;&gt;Node41 -->
<g id="edge72" class="edge">
<title>Node43&#45;&gt;Node41</title>
<path fill="none" stroke="#191970" d="M1878.2101,-320.007C1771.7956,-305.7619 1569.0853,-278.4571 1567.8151,-277 1542.972,-248.5016 1592.9526,-222.4642 1631.6177,-207.5562"/>
<polygon fill="#191970" stroke="#191970" points="1632.9984,-210.777 1641.1516,-204.0111 1630.5587,-204.2159 1632.9984,-210.777"/>
</g>
<!-- Node44&#45;&gt;Node8 -->
<g id="edge82" class="edge">
<title>Node44&#45;&gt;Node8</title>
<path fill="none" stroke="#191970" d="M2653.5369,-319.9134C2705.2443,-311.5961 2772.4674,-297.2591 2790.8151,-277 2820.3933,-244.3403 2776.0865,-211.5229 2805.8151,-179 2829.1569,-153.4642 2928.0649,-137.9264 2981.0197,-131.2823"/>
<polygon fill="#191970" stroke="#191970" points="2981.4583,-134.7548 2990.9619,-130.0717 2980.6122,-127.8061 2981.4583,-134.7548"/>
</g>
<!-- Node44&#45;&gt;Node10 -->
<g id="edge76" class="edge">
<title>Node44&#45;&gt;Node10</title>
<path fill="none" stroke="#191970" d="M2526.1222,-320.5792C2455.5085,-311.1419 2346.5794,-294.4467 2308.8151,-277 2289.0286,-267.8589 2287.997,-259.4105 2270.8151,-246 2255.059,-233.7024 2236.9384,-220.2016 2223.2216,-210.1093"/>
<polygon fill="#191970" stroke="#191970" points="2225.0467,-207.1074 2214.9128,-204.0163 2220.9072,-212.7524 2225.0467,-207.1074"/>
</g>
<!-- Node44&#45;&gt;Node11 -->
<g id="edge78" class="edge">
<title>Node44&#45;&gt;Node11</title>
<path fill="none" stroke="#191970" d="M2526.051,-322.2943C2461.9556,-315.0696 2360.7503,-300.9579 2275.8151,-277 2273.355,-276.3061 2270.8381,-275.5023 2268.3288,-274.633"/>
<polygon fill="#191970" stroke="#191970" points="2269.415,-271.3021 2258.8232,-271.0497 2266.9458,-277.8521 2269.415,-271.3021"/>
</g>
<!-- Node44&#45;&gt;Node41 -->
<g id="edge74" class="edge">
<title>Node44&#45;&gt;Node41</title>
<path fill="none" stroke="#191970" d="M2526.165,-326.9221C2371.6919,-322.6309 1980.3562,-308.8664 1853.8151,-277 1822.789,-269.1868 1742.128,-230.1408 1698.9932,-208.6842"/>
<polygon fill="#191970" stroke="#191970" points="1700.3984,-205.4738 1689.8879,-204.1388 1697.2718,-211.7368 1700.3984,-205.4738"/>
</g>
<!-- Node45 -->
<g id="node46" class="node">
<title>Node45</title>
<polygon fill="none" stroke="#bfbfbf" points="2731.8151,-252 2731.8151,-271 2781.8151,-271 2781.8151,-252 2731.8151,-252"/>
<text text-anchor="middle" x="2756.8151" y="-259" font-family="Helvetica,sans-Serif" font-size="10.00" fill="#000000">cstdint</text>
</g>
<!-- Node44&#45;&gt;Node45 -->
<g id="edge75" class="edge">
<title>Node44&#45;&gt;Node45</title>
<path fill="none" stroke="#191970" d="M2630.513,-313.4444C2656.9682,-303.485 2692.1223,-289.9256 2722.8151,-277 2724.1976,-276.4178 2725.6079,-275.8142 2727.0295,-275.198"/>
<polygon fill="#191970" stroke="#191970" points="2728.683,-278.2934 2736.4039,-271.0382 2725.8438,-271.8951 2728.683,-278.2934"/>
</g>
<!-- Node46 -->
<g id="node47" class="node">
<title>Node46</title>
<polygon fill="none" stroke="#bfbfbf" points="2504.3151,-252 2504.3151,-271 2569.3151,-271 2569.3151,-252 2504.3151,-252"/>
<text text-anchor="middle" x="2536.8151" y="-259" font-family="Helvetica,sans-Serif" font-size="10.00" fill="#000000">stdexcept</text>
</g>
<!-- Node44&#45;&gt;Node46 -->
<g id="edge77" class="edge">
<title>Node44&#45;&gt;Node46</title>
<path fill="none" stroke="#191970" d="M2577.7885,-313.2967C2569.7714,-303.1618 2559.2048,-289.804 2550.8103,-279.1921"/>
<polygon fill="#191970" stroke="#191970" points="2553.3225,-276.7264 2544.3735,-271.055 2547.8325,-281.0692 2553.3225,-276.7264"/>
</g>
<!-- Node47 -->
<g id="node48" class="node">
<title>Node47</title>
<polygon fill="none" stroke="#bfbfbf" points="2838.3151,-252 2838.3151,-271 2907.3151,-271 2907.3151,-252 2838.3151,-252"/>
<text text-anchor="middle" x="2872.8151" y="-259" font-family="Helvetica,sans-Serif" font-size="10.00" fill="#000000">type_traits</text>
</g>
<!-- Node44&#45;&gt;Node47 -->
<g id="edge79" class="edge">
<title>Node44&#45;&gt;Node47</title>
<path fill="none" stroke="#191970" d="M2653.7507,-316.0425C2700.9993,-306.446 2766.7551,-292.2708 2823.8151,-277 2827.2371,-276.0842 2830.7763,-275.0796 2834.314,-274.0358"/>
<polygon fill="#191970" stroke="#191970" points="2835.6345,-277.2925 2844.1815,-271.0316 2833.5956,-270.596 2835.6345,-277.2925"/>
</g>
<!-- Node48 -->
<g id="node49" class="node">
<title>Node48</title>
<polygon fill="none" stroke="#bfbfbf" points="2587.8151,-252 2587.8151,-271 2637.8151,-271 2637.8151,-252 2587.8151,-252"/>
<text text-anchor="middle" x="2612.8151" y="-259" font-family="Helvetica,sans-Serif" font-size="10.00" fill="#000000">cstring</text>
</g>
<!-- Node44&#45;&gt;Node48 -->
<g id="edge80" class="edge">
<title>Node44&#45;&gt;Node48</title>
<path fill="none" stroke="#191970" d="M2595.0341,-313.2967C2598.3393,-303.6685 2602.643,-291.1318 2606.1884,-280.8038"/>
<polygon fill="#191970" stroke="#191970" points="2609.5984,-281.6496 2609.535,-271.055 2602.9777,-279.3768 2609.5984,-281.6496"/>
</g>
<!-- Node49 -->
<g id="node50" class="node">
<title>Node49</title>
<polygon fill="none" stroke="#bfbfbf" points="2655.8151,-252 2655.8151,-271 2713.8151,-271 2713.8151,-252 2655.8151,-252"/>
<text text-anchor="middle" x="2684.8151" y="-259" font-family="Helvetica,sans-Serif" font-size="10.00" fill="#000000">memory</text>
</g>
<!-- Node44&#45;&gt;Node49 -->
<g id="edge81" class="edge">
<title>Node44&#45;&gt;Node49</title>
<path fill="none" stroke="#191970" d="M2611.372,-313.2967C2626.7483,-302.4524 2647.3565,-287.9182 2662.8289,-277.006"/>
<polygon fill="#191970" stroke="#191970" points="2665.1121,-279.6787 2671.267,-271.055 2661.0777,-273.9582 2665.1121,-279.6787"/>
</g>
<!-- Node50&#45;&gt;Node5 -->
<g id="edge85" class="edge">
<title>Node50&#45;&gt;Node5</title>
<path fill="none" stroke="#191970" d="M1964.5471,-251.874C1951.3152,-227.8508 1915.3394,-163.4875 1881.8151,-112 1875.6711,-102.564 1868.4174,-92.3613 1862.2776,-83.9677"/>
<polygon fill="#191970" stroke="#191970" points="1864.9176,-81.6511 1856.1576,-75.6917 1859.2893,-85.8132 1864.9176,-81.6511"/>
</g>
<!-- Node50&#45;&gt;Node8 -->
<g id="edge87" class="edge">
<title>Node50&#45;&gt;Node8</title>
<path fill="none" stroke="#191970" d="M2044.4281,-256.3718C2223.9512,-243.9978 2666.3671,-213.2779 2681.8151,-210 2721.5598,-201.5667 2728.7205,-190.0626 2767.8151,-179 2842.8553,-157.7657 2932.9838,-141.1582 2980.921,-133.012"/>
<polygon fill="#191970" stroke="#191970" points="2981.7668,-136.4191 2991.0487,-131.3106 2980.607,-129.5158 2981.7668,-136.4191"/>
</g>
<!-- Node50&#45;&gt;Node19 -->
<g id="edge88" class="edge">
<title>Node50&#45;&gt;Node19</title>
<path fill="none" stroke="#191970" d="M1979.6703,-251.7593C2007.1996,-225.1144 2088.2573,-150.4562 2169.8151,-112 2213.0831,-91.5983 2267.1229,-78.6734 2301.3139,-71.8844"/>
<polygon fill="#191970" stroke="#191970" points="2302.0946,-75.2984 2311.2537,-69.9729 2300.7727,-68.4244 2302.0946,-75.2984"/>
</g>
<!-- Node50&#45;&gt;Node25 -->
<g id="edge89" class="edge">
<title>Node50&#45;&gt;Node25</title>
<path fill="none" stroke="#191970" d="M2044.6206,-256.4702C2207.5089,-245.5005 2590.0654,-219.6377 2719.8151,-210 2758.4564,-207.1297 2801.4086,-203.7206 2837.055,-200.8313"/>
<polygon fill="#191970" stroke="#191970" points="2837.7028,-204.2903 2847.3865,-199.9919 2837.1358,-197.3133 2837.7028,-204.2903"/>
</g>
<!-- Node50&#45;&gt;Node26 -->
<g id="edge86" class="edge">
<title>Node50&#45;&gt;Node26</title>
<path fill="none" stroke="#191970" d="M1987.3692,-251.9302C2021.0349,-234.0876 2097.4941,-196.0116 2166.8151,-179 2350.4878,-133.9262 2402.5369,-160.8504 2590.8151,-143 2629.4668,-139.3355 2673.7411,-134.6319 2703.7168,-131.372"/>
<polygon fill="#191970" stroke="#191970" points="2704.1296,-134.8478 2713.6907,-130.2832 2703.3699,-127.8892 2704.1296,-134.8478"/>
</g>
<!-- Node51&#45;&gt;Node5 -->
<g id="edge91" class="edge">
<title>Node51&#45;&gt;Node5</title>
<path fill="none" stroke="#191970" d="M2944.0694,-512.5744C2744.5743,-510.9569 2208.1403,-503.263 2034.8151,-467 1919.2841,-442.8287 1611.3604,-370.1065 1538.8151,-277 1493.5313,-218.8818 1474.4937,-167.6183 1522.8151,-112 1542.0144,-89.9013 1739.2561,-73.7131 1817.2877,-68.1277"/>
<polygon fill="#191970" stroke="#191970" points="1817.7467,-71.6042 1827.4762,-67.4105 1817.2551,-64.6215 1817.7467,-71.6042"/>
</g>
<!-- Node51&#45;&gt;Node8 -->
<g id="edge93" class="edge">
<title>Node51&#45;&gt;Node8</title>
<path fill="none" stroke="#191970" d="M3095.4452,-504.7842C3146.9768,-497.6459 3209.1179,-485.5027 3227.8151,-467 3298.3587,-397.1898 3290.1695,-340.4907 3259.8151,-246 3248.6115,-211.1244 3241.9978,-199.7564 3211.8151,-179 3161.8417,-144.6337 3090.3702,-133.1998 3048.6606,-129.396"/>
<polygon fill="#191970" stroke="#191970" points="3048.7301,-125.8902 3038.4787,-128.566 3048.1613,-132.867 3048.7301,-125.8902"/>
</g>
<!-- Node51&#45;&gt;Node12 -->
<g id="edge94" class="edge">
<title>Node51&#45;&gt;Node12</title>
<path fill="none" stroke="#191970" d="M3023.9512,-503.3402C3036.4296,-474.1978 3073.8679,-386.7626 3090.5905,-347.708"/>
<polygon fill="#191970" stroke="#191970" points="3094.0011,-348.6346 3094.7198,-338.0641 3087.5661,-345.8792 3094.0011,-348.6346"/>
</g>
<!-- Node51&#45;&gt;Node13 -->
<g id="edge107" class="edge">
<title>Node51&#45;&gt;Node13</title>
<path fill="none" stroke="#191970" d="M3095.5451,-504.1256C3152.4972,-496.306 3224.836,-483.5804 3249.8151,-467 3274.875,-450.3659 3275.8094,-438.5782 3287.8151,-411 3329.7731,-314.6185 3377.7067,-274.5165 3333.8151,-179 3326.8293,-163.7977 3312.8962,-151.3979 3300.214,-142.5778"/>
<polygon fill="#191970" stroke="#191970" points="3302.0238,-139.5796 3291.7346,-137.0531 3298.2024,-145.4446 3302.0238,-139.5796"/>
</g>
<!-- Node51&#45;&gt;Node14 -->
<g id="edge110" class="edge">
<title>Node51&#45;&gt;Node14</title>
<path fill="none" stroke="#191970" d="M3095.3417,-511.1605C3237.3097,-505.64 3529.8151,-483.5786 3529.8151,-395.5 3529.8151,-395.5 3529.8151,-395.5 3529.8151,-194.5 3529.8151,-95.398 3187.4909,-72.6885 3042.4905,-67.5145"/>
<polygon fill="#191970" stroke="#191970" points="3042.5121,-64.0133 3032.3989,-67.1714 3042.2742,-71.0092 3042.5121,-64.0133"/>
</g>
<!-- Node51&#45;&gt;Node22 -->
<g id="edge109" class="edge">
<title>Node51&#45;&gt;Node22</title>
<path fill="none" stroke="#191970" d="M2944.2372,-511.5415C2719.647,-506.2137 2071.8151,-483.2412 2071.8151,-395.5 2071.8151,-395.5 2071.8151,-395.5 2071.8151,-261.5 2071.8151,-218.6249 2089.7266,-207.4359 2121.8151,-179 2141.8682,-161.2295 2169.0704,-148.626 2191.8734,-140.3366"/>
<polygon fill="#191970" stroke="#191970" points="2193.0462,-143.6344 2201.3431,-137.0456 2190.7483,-137.0223 2193.0462,-143.6344"/>
</g>
<!-- Node51&#45;&gt;Node50 -->
<g id="edge95" class="edge">
<title>Node51&#45;&gt;Node50</title>
<path fill="none" stroke="#191970" d="M2944.2868,-511.7843C2723.4588,-507.9154 2092.2955,-494.4942 2057.8151,-467 2002.2538,-422.6962 2048.5854,-375.5255 2014.8151,-313 2007.8502,-300.1045 1997.1396,-287.6714 1987.9148,-278.2528"/>
<polygon fill="#191970" stroke="#191970" points="1990.2198,-275.611 1980.6303,-271.1063 1985.3176,-280.6079 1990.2198,-275.611"/>
</g>
<!-- Node52 -->
<g id="node53" class="node">
<title>Node52</title>
<polygon fill="none" stroke="#bfbfbf" points="2974.8151,-447.5 2974.8151,-466.5 3018.8151,-466.5 3018.8151,-447.5 2974.8151,-447.5"/>
<text text-anchor="middle" x="2996.8151" y="-454.5" font-family="Helvetica,sans-Serif" font-size="10.00" fill="#000000">string</text>
</g>
<!-- Node51&#45;&gt;Node52 -->
<g id="edge92" class="edge">
<title>Node51&#45;&gt;Node52</title>
<path fill="none" stroke="#191970" d="M3015.8088,-503.2455C3012.7416,-495.7776 3008.4147,-485.2427 3004.6653,-476.1137"/>
<polygon fill="#191970" stroke="#191970" points="3007.8123,-474.5631 3000.7754,-466.6427 3001.3371,-477.2226 3007.8123,-474.5631"/>
</g>
<!-- Node51&#45;&gt;Node53 -->
<g id="edge96" class="edge">
<title>Node51&#45;&gt;Node53</title>
<path fill="none" stroke="#191970" d="M3041.6471,-503.3733C3062.1254,-494.3435 3092.9549,-480.7494 3115.947,-470.6111"/>
<polygon fill="#191970" stroke="#191970" points="3117.53,-473.7383 3125.2679,-466.5011 3114.7058,-467.3333 3117.53,-473.7383"/>
</g>
<!-- Node51&#45;&gt;Node54 -->
<g id="edge108" class="edge">
<title>Node51&#45;&gt;Node54</title>
<path fill="none" stroke="#191970" d="M3002.8875,-503.4496C2990.4042,-495.4332 2974.1928,-482.7701 2965.8151,-467 2957.4097,-451.1778 2955.9119,-430.6394 2956.2198,-415.637"/>
<polygon fill="#191970" stroke="#191970" points="2959.7271,-415.5734 2956.7227,-405.4135 2952.7355,-415.2294 2959.7271,-415.5734"/>
</g>
<!-- Node53&#45;&gt;Node5 -->
<g id="edge97" class="edge">
<title>Node53&#45;&gt;Node5</title>
<path fill="none" stroke="#191970" d="M3075.1157,-450.4518C3059.5317,-449.1748 3043.1282,-447.9419 3027.8151,-447 2618.4986,-421.8235 2510.8084,-475.4532 2105.8151,-411 1998.1362,-393.8633 1941.2051,-426.4127 1869.8151,-344 1804.7027,-268.8343 1830.5794,-135.2516 1843.3342,-85.4378"/>
<polygon fill="#191970" stroke="#191970" points="1846.7535,-86.1994 1845.9579,-75.6345 1839.9915,-84.3896 1846.7535,-86.1994"/>
</g>
<!-- Node53&#45;&gt;Node8 -->
<g id="edge98" class="edge">
<title>Node53&#45;&gt;Node8</title>
<path fill="none" stroke="#191970" d="M3153.9716,-447.0266C3179.6766,-410.6573 3264.7801,-285.2381 3244.8151,-246 3207.0029,-171.6862 3103.0994,-142.8386 3048.8303,-132.594"/>
<polygon fill="#191970" stroke="#191970" points="3049.1313,-129.0926 3038.6726,-130.7852 3047.9041,-135.9842 3049.1313,-129.0926"/>
</g>
<!-- Node53&#45;&gt;Node12 -->
<g id="edge99" class="edge">
<title>Node53&#45;&gt;Node12</title>
<path fill="none" stroke="#191970" d="M3143.2072,-447.3416C3135.3195,-426.2254 3116.4142,-375.6144 3105.9998,-347.7341"/>
<polygon fill="#191970" stroke="#191970" points="3109.2428,-346.4135 3102.4647,-338.2705 3102.6853,-348.863 3109.2428,-346.4135"/>
</g>
<!-- Node53&#45;&gt;Node13 -->
<g id="edge100" class="edge">
<title>Node53&#45;&gt;Node13</title>
<path fill="none" stroke="#191970" d="M3161.9469,-447.3755C3197.5464,-423.6771 3285.8501,-358.4656 3315.8151,-277 3330.8509,-236.122 3330.4253,-220.032 3315.8151,-179 3311.0984,-165.7536 3301.3536,-153.4474 3292.4371,-144.1885"/>
<polygon fill="#191970" stroke="#191970" points="3294.8653,-141.6677 3285.2707,-137.174 3289.9689,-146.6702 3294.8653,-141.6677"/>
</g>
<!-- Node53&#45;&gt;Node22 -->
<g id="edge106" class="edge">
<title>Node53&#45;&gt;Node22</title>
<path fill="none" stroke="#191970" d="M3075.115,-450.4639C3059.531,-449.1862 3043.1277,-447.9499 3027.8151,-447 2977.9819,-443.9088 2168.4331,-442.6472 2129.8151,-411 2100.6334,-387.0858 2109.8151,-366.2287 2109.8151,-328.5 2109.8151,-328.5 2109.8151,-328.5 2109.8151,-261.5 2109.8151,-219.9444 2125.4897,-209.4062 2153.8151,-179 2168.2791,-163.4734 2188.4153,-150.7376 2205.1137,-141.8152"/>
<polygon fill="#191970" stroke="#191970" points="2207.1796,-144.6892 2214.4793,-137.0103 2203.9843,-138.461 2207.1796,-144.6892"/>
</g>
<!-- Node53&#45;&gt;Node54 -->
<g id="edge101" class="edge">
<title>Node53&#45;&gt;Node54</title>
<path fill="none" stroke="#191970" d="M3117.2838,-447.3906C3084.8284,-436.8298 3032.557,-419.8208 2996.7665,-408.1747"/>
<polygon fill="#191970" stroke="#191970" points="2997.7312,-404.808 2987.1389,-405.0419 2995.5651,-411.4645 2997.7312,-404.808"/>
</g>
<!-- Node54&#45;&gt;Node12 -->
<g id="edge102" class="edge">
<title>Node54&#45;&gt;Node12</title>
<path fill="none" stroke="#191970" d="M2978.0169,-385.9005C3001.994,-374.5072 3042.1672,-355.4178 3069.5471,-342.4075"/>
<polygon fill="#191970" stroke="#191970" points="3071.1207,-345.5348 3078.6507,-338.0817 3068.1163,-339.2123 3071.1207,-345.5348"/>
</g>
<!-- Node54&#45;&gt;Node14 -->
<g id="edge105" class="edge">
<title>Node54&#45;&gt;Node14</title>
<path fill="none" stroke="#191970" d="M3019.1029,-386.2134C3061.7668,-378.368 3119.2999,-364.9887 3166.8151,-344 3287.197,-290.8241 3437.9759,-210.6027 3350.8151,-112 3330.7883,-89.3443 3143.7472,-75.3383 3042.7674,-69.3645"/>
<polygon fill="#191970" stroke="#191970" points="3042.8647,-65.8644 3032.6782,-68.7774 3042.458,-72.8525 3042.8647,-65.8644"/>
</g>
<!-- Node54&#45;&gt;Node20 -->
<g id="edge103" class="edge">
<title>Node54&#45;&gt;Node20</title>
<path fill="none" stroke="#191970" d="M2964.2781,-385.8054C2985.3277,-354.231 3052.1425,-254.0088 3079.7254,-212.6345"/>
<polygon fill="#191970" stroke="#191970" points="3082.7819,-214.3594 3085.4168,-204.0974 3076.9576,-210.4764 3082.7819,-214.3594"/>
</g>
<!-- Node54&#45;&gt;Node22 -->
<g id="edge104" class="edge">
<title>Node54&#45;&gt;Node22</title>
<path fill="none" stroke="#191970" d="M2896.601,-392.9867C2737.3761,-385.3578 2314.9914,-357.817 2204.8151,-277 2167.147,-249.3696 2145.8748,-220.7592 2166.8151,-179 2174.8399,-162.9968 2190.4581,-150.6956 2204.8084,-142.135"/>
<polygon fill="#191970" stroke="#191970" points="2206.9217,-144.9649 2213.963,-137.0484 2203.5217,-138.846 2206.9217,-144.9649"/>
</g>
<!-- Node56 -->
<g id="node57" class="node">
<title>Node56</title>
<polygon fill="none" stroke="#bfbfbf" points="1597.8151,-447.5 1597.8151,-466.5 1705.8151,-466.5 1705.8151,-447.5 1597.8151,-447.5"/>
<text text-anchor="middle" x="1651.8151" y="-454.5" font-family="Helvetica,sans-Serif" font-size="10.00" fill="#000000">fairlogger/Logger.h</text>
</g>
<!-- Node55&#45;&gt;Node56 -->
<g id="edge116" class="edge">
<title>Node55&#45;&gt;Node56</title>
<path fill="none" stroke="#191970" d="M1651.8151,-503.2455C1651.8151,-495.9382 1651.8151,-485.6944 1651.8151,-476.7046"/>
<polygon fill="#191970" stroke="#191970" points="1655.3151,-476.6426 1651.8151,-466.6427 1648.3151,-476.6427 1655.3151,-476.6426"/>
</g>
<!-- Node58 -->
<g id="node59" class="node">
<title>Node58</title>
<g id="a_node59"><a xlink:href="../../db/d2c/ConfigurableParam_8h.html" target="_top" xlink:title="CommonUtils/Configurable\lParam.h">
<polygon fill="none" stroke="#000000" points="3557.8151,-246.5 3557.8151,-276.5 3705.8151,-276.5 3705.8151,-246.5 3557.8151,-246.5"/>
<text text-anchor="start" x="3565.8151" y="-264.5" font-family="Helvetica,sans-Serif" font-size="10.00" fill="#000000">CommonUtils/Configurable</text>
<text text-anchor="middle" x="3631.8151" y="-253.5" font-family="Helvetica,sans-Serif" font-size="10.00" fill="#000000">Param.h</text>
</a>
</g>
</g>
<!-- Node57&#45;&gt;Node58 -->
<g id="edge123" class="edge">
<title>Node57&#45;&gt;Node58</title>
<path fill="none" stroke="#191970" d="M3631.8151,-380.389C3631.8151,-357.6691 3631.8151,-314.438 3631.8151,-286.8405"/>
<polygon fill="#191970" stroke="#191970" points="3635.3151,-286.7614 3631.8151,-276.7614 3628.3151,-286.7614 3635.3151,-286.7614"/>
</g>
<!-- Node63 -->
<g id="node64" class="node">
<title>Node63</title>
<g id="a_node64"><a xlink:href="../../da/d6b/ConfigurableParamHelper_8h.html" target="_top" xlink:title="CommonUtils/Configurable\lParamHelper.h">
<polygon fill="none" stroke="#000000" points="3668.8151,-313.5 3668.8151,-343.5 3816.8151,-343.5 3816.8151,-313.5 3668.8151,-313.5"/>
<text text-anchor="start" x="3676.8151" y="-331.5" font-family="Helvetica,sans-Serif" font-size="10.00" fill="#000000">CommonUtils/Configurable</text>
<text text-anchor="middle" x="3742.8151" y="-320.5" font-family="Helvetica,sans-Serif" font-size="10.00" fill="#000000">ParamHelper.h</text>
</a>
</g>
</g>
<!-- Node57&#45;&gt;Node63 -->
<g id="edge130" class="edge">
<title>Node57&#45;&gt;Node63</title>
<path fill="none" stroke="#191970" d="M3656.7256,-380.4639C3672.0422,-371.2188 3691.879,-359.2452 3708.65,-349.1222"/>
<polygon fill="#191970" stroke="#191970" points="3710.851,-351.8819 3717.6036,-343.7177 3707.2336,-345.889 3710.851,-351.8819"/>
</g>
<!-- Node58&#45;&gt;Node8 -->
<g id="edge124" class="edge">
<title>Node58&#45;&gt;Node8</title>
<path fill="none" stroke="#191970" d="M3588.0117,-246.4573C3533.6488,-228.2649 3437.8359,-197.7556 3353.8151,-179 3243.3755,-154.3471 3110.0382,-137.9108 3048.698,-131.0812"/>
<polygon fill="#191970" stroke="#191970" points="3048.7708,-127.5682 3038.4484,-129.9553 3048.0063,-134.5264 3048.7708,-127.5682"/>
</g>
<!-- Node58&#45;&gt;Node20 -->
<g id="edge129" class="edge">
<title>Node58&#45;&gt;Node20</title>
<path fill="none" stroke="#191970" d="M3557.5802,-252.2894C3441.7595,-237.919 3222.01,-210.6538 3131.8959,-199.473"/>
<polygon fill="#191970" stroke="#191970" points="3132.171,-195.9804 3121.8162,-198.2224 3131.3091,-202.9271 3132.171,-195.9804"/>
</g>
<!-- Node59 -->
<g id="node60" class="node">
<title>Node59</title>
<polygon fill="none" stroke="#bfbfbf" points="3557.8151,-185 3557.8151,-204 3595.8151,-204 3595.8151,-185 3557.8151,-185"/>
<text text-anchor="middle" x="3576.8151" y="-192" font-family="Helvetica,sans-Serif" font-size="10.00" fill="#000000">map</text>
</g>
<!-- Node58&#45;&gt;Node59 -->
<g id="edge125" class="edge">
<title>Node58&#45;&gt;Node59</title>
<path fill="none" stroke="#191970" d="M3619.3347,-246.2967C3610.9318,-236.0605 3599.8301,-222.5366 3591.0778,-211.8746"/>
<polygon fill="#191970" stroke="#191970" points="3593.7089,-209.5635 3584.6587,-204.055 3588.2984,-214.005 3593.7089,-209.5635"/>
</g>
<!-- Node60 -->
<g id="node61" class="node">
<title>Node60</title>
<polygon fill="none" stroke="#bfbfbf" points="3614.3151,-185 3614.3151,-204 3707.3151,-204 3707.3151,-185 3614.3151,-185"/>
<text text-anchor="middle" x="3660.8151" y="-192" font-family="Helvetica,sans-Serif" font-size="10.00" fill="#000000">unordered_map</text>
</g>
<!-- Node58&#45;&gt;Node60 -->
<g id="edge126" class="edge">
<title>Node58&#45;&gt;Node60</title>
<path fill="none" stroke="#191970" d="M3638.3956,-246.2967C3642.6069,-236.5672 3648.1037,-223.8675 3652.6005,-213.4784"/>
<polygon fill="#191970" stroke="#191970" points="3655.9191,-214.6225 3656.6793,-204.055 3649.495,-211.8419 3655.9191,-214.6225"/>
</g>
<!-- Node61 -->
<g id="node62" class="node">
<title>Node61</title>
<polygon fill="none" stroke="#bfbfbf" points="3725.3151,-179.5 3725.3151,-209.5 3838.3151,-209.5 3838.3151,-179.5 3725.3151,-179.5"/>
<text text-anchor="start" x="3733.3151" y="-197.5" font-family="Helvetica,sans-Serif" font-size="10.00" fill="#000000">boost/property_tree</text>
<text text-anchor="middle" x="3781.8151" y="-186.5" font-family="Helvetica,sans-Serif" font-size="10.00" fill="#000000">/ptree.hpp</text>
</g>
<!-- Node58&#45;&gt;Node61 -->
<g id="edge127" class="edge">
<title>Node58&#45;&gt;Node61</title>
<path fill="none" stroke="#191970" d="M3665.478,-246.4639C3687.1144,-236.7996 3715.4256,-224.154 3738.7018,-213.7572"/>
<polygon fill="#191970" stroke="#191970" points="3740.3022,-216.8758 3748.0053,-209.6017 3737.4473,-210.4844 3740.3022,-216.8758"/>
</g>
<!-- Node62 -->
<g id="node63" class="node">
<title>Node62</title>
<polygon fill="none" stroke="#bfbfbf" points="3856.3151,-185 3856.3151,-204 3913.3151,-204 3913.3151,-185 3856.3151,-185"/>
<text text-anchor="middle" x="3884.8151" y="-192" font-family="Helvetica,sans-Serif" font-size="10.00" fill="#000000">typeinfo</text>
</g>
<!-- Node58&#45;&gt;Node62 -->
<g id="edge128" class="edge">
<title>Node58&#45;&gt;Node62</title>
<path fill="none" stroke="#191970" d="M3706.1222,-246.9098C3748.1681,-237.8789 3801.4532,-225.1266 3847.8151,-210 3849.9131,-209.3155 3852.0586,-208.5629 3854.2077,-207.7697"/>
<polygon fill="#191970" stroke="#191970" points="3855.4868,-211.0277 3863.5168,-204.1162 3852.9294,-204.5115 3855.4868,-211.0277"/>
</g>
<!-- Node63&#45;&gt;Node47 -->
<g id="edge133" class="edge">
<title>Node63&#45;&gt;Node47</title>
<path fill="none" stroke="#191970" d="M3668.5077,-322.8871C3544.3193,-313.4917 3286.7311,-293.942 3068.8151,-277 3016.9572,-272.9683 2957.3895,-268.2444 2917.6646,-265.0808"/>
<polygon fill="#191970" stroke="#191970" points="2917.7564,-261.5771 2907.5099,-264.2717 2917.2003,-268.555 2917.7564,-261.5771"/>
</g>
<!-- Node63&#45;&gt;Node58 -->
<g id="edge131" class="edge">
<title>Node63&#45;&gt;Node58</title>
<path fill="none" stroke="#191970" d="M3717.9045,-313.4639C3702.5879,-304.2188 3682.7511,-292.2452 3665.9801,-282.1222"/>
<polygon fill="#191970" stroke="#191970" points="3667.3965,-278.889 3657.0265,-276.7177 3663.7791,-284.8819 3667.3965,-278.889"/>
</g>
<!-- Node63&#45;&gt;Node62 -->
<g id="edge134" class="edge">
<title>Node63&#45;&gt;Node62</title>
<path fill="none" stroke="#191970" d="M3799.3134,-313.3977C3819.7697,-305.4749 3841.5652,-293.8077 3856.8151,-277 3872.7225,-259.4675 3879.645,-232.5351 3882.623,-214.2504"/>
<polygon fill="#191970" stroke="#191970" points="3886.1176,-214.5281 3884.0125,-204.1445 3879.1829,-213.5745 3886.1176,-214.5281"/>
</g>
<!-- Node64 -->
<g id="node65" class="node">
<title>Node64</title>
<polygon fill="none" stroke="#bfbfbf" points="3724.3151,-252 3724.3151,-271 3781.3151,-271 3781.3151,-252 3724.3151,-252"/>
<text text-anchor="middle" x="3752.8151" y="-259" font-family="Helvetica,sans-Serif" font-size="10.00" fill="#000000">TClass.h</text>
</g>
<!-- Node63&#45;&gt;Node64 -->
<g id="edge132" class="edge">
<title>Node63&#45;&gt;Node64</title>
<path fill="none" stroke="#191970" d="M3745.0842,-313.2967C3746.5061,-303.7699 3748.3531,-291.3954 3749.8851,-281.1306"/>
<polygon fill="#191970" stroke="#191970" points="3753.3743,-281.4621 3751.3889,-271.055 3746.451,-280.4287 3753.3743,-281.4621"/>
</g>
<!-- Node65 -->
<g id="node66" class="node">
<title>Node65</title>
<polygon fill="none" stroke="#bfbfbf" points="3799.8151,-252 3799.8151,-271 3847.8151,-271 3847.8151,-252 3799.8151,-252"/>
<text text-anchor="middle" x="3823.8151" y="-259" font-family="Helvetica,sans-Serif" font-size="10.00" fill="#000000">TFile.h</text>
</g>
<!-- Node63&#45;&gt;Node65 -->
<g id="edge135" class="edge">
<title>Node63&#45;&gt;Node65</title>
<path fill="none" stroke="#191970" d="M3761.1952,-313.2967C3774.0604,-302.6551 3791.2214,-288.4602 3804.3247,-277.6217"/>
<polygon fill="#191970" stroke="#191970" points="3806.7888,-280.1257 3812.2635,-271.055 3802.3271,-274.7318 3806.7888,-280.1257"/>
</g>
</g>
</svg>
