<?xml version="1.0" encoding="UTF-8" standalone="no"?>
<!DOCTYPE svg PUBLIC "-//W3C//DTD SVG 1.1//EN"
 "http://www.w3.org/Graphics/SVG/1.1/DTD/svg11.dtd">
<!-- Generated by graphviz version 2.40.1 (20161225.0304)
 -->
<!-- Title: /home/travis/build/AliceO2Group/AliceO2/Framework/Core/src/Expressions.cxx Pages: 1 -->
<!--zoomable 274 -->
<svg id="main" version="1.1" xmlns="http://www.w3.org/2000/svg" xmlns:xlink="http://www.w3.org/1999/xlink" xml:space="preserve" onload="init(evt)">
<style type="text/css"><![CDATA[
.edge:hover path { stroke: red; }
.edge:hover polygon { stroke: red; fill: red; }
]]></style>
<script type="text/javascript"><![CDATA[
var edges = document.getElementsByTagName('g');
if (edges && edges.length) {
  for (var i=0;i<edges.length;i++) {
    if (edges[i].id.substr(0,4)=='edge') {
      edges[i].setAttribute('class','edge');
    }
  }
}
]]></script>
        <defs>
                <circle id="rim" cx="0" cy="0" r="7"/>
                <circle id="rim2" cx="0" cy="0" r="3.5"/>
                <g id="zoomPlus">
                        <use xlink:href="#rim" fill="#404040">
                                <set attributeName="fill" to="#808080" begin="zoomplus.mouseover" end="zoomplus.mouseout"/>
                        </use>
                        <path d="M-4,0h8M0,-4v8" fill="none" stroke="white" stroke-width="1.5" pointer-events="none"/>
                </g>
                <g id="zoomMin">
                        <use xlink:href="#rim" fill="#404040">
                                <set attributeName="fill" to="#808080" begin="zoomminus.mouseover" end="zoomminus.mouseout"/>
                        </use>
                        <path d="M-4,0h8" fill="none" stroke="white" stroke-width="1.5" pointer-events="none"/>
                </g>
                <g id="dirArrow">
                        <path fill="none" stroke="white" stroke-width="1.5" d="M0,-3.0v7 M-2.5,-0.5L0,-3.0L2.5,-0.5"/>
                </g>
               <g id="resetDef">
                       <use xlink:href="#rim2" fill="#404040">
                               <set attributeName="fill" to="#808080" begin="reset.mouseover" end="reset.mouseout"/>
                       </use>
               </g>
        </defs>

<script type="text/javascript">
var viewWidth = 2010;
var viewHeight = 274;
var sectionId = 'dynsection-0';
</script>
<script xlink:href="../../svgpan.js"/>
<svg id="graph" class="graph">
<g id="viewport">
<title>/home/travis/build/AliceO2Group/AliceO2/Framework/Core/src/Expressions.cxx</title>
<!-- Node0 -->
<g id="node1" class="node">
<title>Node0</title>
<polygon fill="#bfbfbf" stroke="#000000" points="1397,-224.5 1397,-265.5 1595,-265.5 1595,-224.5 1397,-224.5"/>
<text text-anchor="start" x="1405" y="-253.5" font-family="Helvetica,sans-Serif" font-size="10.00" fill="#000000">/home/travis/build</text>
<text text-anchor="start" x="1405" y="-242.5" font-family="Helvetica,sans-Serif" font-size="10.00" fill="#000000">/AliceO2Group/AliceO2</text>
<text text-anchor="middle" x="1496" y="-231.5" font-family="Helvetica,sans-Serif" font-size="10.00" fill="#000000">/Framework/Core/src/Expressions.cxx</text>
</g>
<!-- Node1 -->
<g id="node2" class="node">
<title>Node1</title>
<g id="a_node2"><a xlink:href="../../d1/d83/ExpressionHelpers_8h.html" target="_top" xlink:title="../src/ExpressionHelpers.h">
<polygon fill="none" stroke="#000000" points="1125.5,-168.5 1125.5,-187.5 1268.5,-187.5 1268.5,-168.5 1125.5,-168.5"/>
<text text-anchor="middle" x="1197" y="-175.5" font-family="Helvetica,sans-Serif" font-size="10.00" fill="#000000">../src/ExpressionHelpers.h</text>
</a>
</g>
</g>
<!-- Node0&#45;&gt;Node1 -->
<g id="edge1" class="edge">
<title>Node0&#45;&gt;Node1</title>
<path fill="none" stroke="#191970" d="M1404.2582,-224.4425C1353.4025,-213.0467 1292.0097,-199.2898 1249.2998,-189.7193"/>
<polygon fill="#191970" stroke="#191970" points="1249.9264,-186.273 1239.403,-187.5017 1248.3957,-193.1036 1249.9264,-186.273"/>
</g>
<!-- Node14 -->
<g id="node15" class="node">
<title>Node14</title>
<polygon fill="none" stroke="#bfbfbf" points="182.5,-56.5 182.5,-75.5 263.5,-75.5 263.5,-56.5 182.5,-56.5"/>
<text text-anchor="middle" x="223" y="-63.5" font-family="Helvetica,sans-Serif" font-size="10.00" fill="#000000">arrow/table.h</text>
</g>
<!-- Node0&#45;&gt;Node14 -->
<g id="edge31" class="edge">
<title>Node0&#45;&gt;Node14</title>
<path fill="none" stroke="#191970" d="M1396.9061,-233.5045C1189.8289,-209.0059 696.0863,-148.1041 273.5715,-76.196"/>
<polygon fill="#191970" stroke="#191970" points="274.0505,-72.7272 263.6042,-74.4953 272.8731,-79.6275 274.0505,-72.7272"/>
</g>
<!-- Node19 -->
<g id="node20" class="node">
<title>Node19</title>
<polygon fill="none" stroke="#bfbfbf" points="1922.5,-56.5 1922.5,-75.5 2001.5,-75.5 2001.5,-56.5 1922.5,-56.5"/>
<text text-anchor="middle" x="1962" y="-63.5" font-family="Helvetica,sans-Serif" font-size="10.00" fill="#000000">fmt/format.h</text>
</g>
<!-- Node0&#45;&gt;Node19 -->
<g id="edge32" class="edge">
<title>Node0&#45;&gt;Node19</title>
<path fill="none" stroke="#191970" d="M1396.7389,-236.7746C1290.347,-226.9305 1134.1747,-209.1042 1116,-188 1110.1995,-181.2645 1113.3378,-176.4809 1116,-168 1125.0836,-139.0623 1128.4555,-126.6729 1155,-112 1226.4876,-72.4841 1792.3149,-85.5625 1912.0734,-75.6782"/>
<polygon fill="#191970" stroke="#191970" points="1912.643,-79.1385 1922.2388,-74.6474 1911.9367,-72.1742 1912.643,-79.1385"/>
</g>
<!-- Node25 -->
<g id="node26" class="node">
<title>Node25</title>
<g id="a_node26"><a xlink:href="../../d7/dbe/VariantHelpers_8h.html" target="_top" xlink:title="Framework/VariantHelpers.h">
<polygon fill="none" stroke="#000000" points="182.5,-112.5 182.5,-131.5 337.5,-131.5 337.5,-112.5 182.5,-112.5"/>
<text text-anchor="middle" x="260" y="-119.5" font-family="Helvetica,sans-Serif" font-size="10.00" fill="#000000">Framework/VariantHelpers.h</text>
</a>
</g>
</g>
<!-- Node0&#45;&gt;Node25 -->
<g id="edge26" class="edge">
<title>Node0&#45;&gt;Node25</title>
<path fill="none" stroke="#191970" d="M1396.7638,-240.2073C1247.0041,-232.4376 954.4349,-215.1666 707,-188 570.6746,-173.0324 412.0756,-147.727 325.205,-133.1842"/>
<polygon fill="#191970" stroke="#191970" points="325.6712,-129.7136 315.2295,-131.5087 324.5116,-136.6169 325.6712,-129.7136"/>
</g>
<!-- Node26 -->
<g id="node27" class="node">
<title>Node26</title>
<g id="a_node27"><a xlink:href="../../dd/da4/Logger_8h.html" target="_top" xlink:title="Framework/Logger.h">
<polygon fill="none" stroke="#000000" points="1286.5,-168.5 1286.5,-187.5 1401.5,-187.5 1401.5,-168.5 1286.5,-168.5"/>
<text text-anchor="middle" x="1344" y="-175.5" font-family="Helvetica,sans-Serif" font-size="10.00" fill="#000000">Framework/Logger.h</text>
</a>
</g>
</g>
<!-- Node0&#45;&gt;Node26 -->
<g id="edge28" class="edge">
<title>Node0&#45;&gt;Node26</title>
<path fill="none" stroke="#191970" d="M1449.1547,-224.3511C1425.1,-213.748 1396.4524,-201.1204 1375.1375,-191.7251"/>
<polygon fill="#191970" stroke="#191970" points="1376.4653,-188.4855 1365.9031,-187.6546 1373.6418,-194.8908 1376.4653,-188.4855"/>
</g>
<!-- Node28 -->
<g id="node29" class="node">
<title>Node28</title>
<polygon fill="none" stroke="#bfbfbf" points="1420,-168.5 1420,-187.5 1572,-187.5 1572,-168.5 1420,-168.5"/>
<text text-anchor="middle" x="1496" y="-175.5" font-family="Helvetica,sans-Serif" font-size="10.00" fill="#000000">gandiva/tree_expr_builder.h</text>
</g>
<!-- Node0&#45;&gt;Node28 -->
<g id="edge30" class="edge">
<title>Node0&#45;&gt;Node28</title>
<path fill="none" stroke="#191970" d="M1496,-224.168C1496,-215.8226 1496,-206.2471 1496,-197.9879"/>
<polygon fill="#191970" stroke="#191970" points="1499.5001,-197.7804 1496,-187.7805 1492.5001,-197.7805 1499.5001,-197.7804"/>
</g>
<!-- Node29 -->
<g id="node30" class="node">
<title>Node29</title>
<polygon fill="none" stroke="#bfbfbf" points="1590.5,-168.5 1590.5,-187.5 1633.5,-187.5 1633.5,-168.5 1590.5,-168.5"/>
<text text-anchor="middle" x="1612" y="-175.5" font-family="Helvetica,sans-Serif" font-size="10.00" fill="#000000">stack</text>
</g>
<!-- Node0&#45;&gt;Node29 -->
<g id="edge33" class="edge">
<title>Node0&#45;&gt;Node29</title>
<path fill="none" stroke="#191970" d="M1531.7503,-224.3511C1549.4464,-214.1301 1570.3994,-202.0279 1586.4572,-192.7532"/>
<polygon fill="#191970" stroke="#191970" points="1588.3757,-195.687 1595.2845,-187.6546 1584.8746,-189.6254 1588.3757,-195.687"/>
</g>
<!-- Node30 -->
<g id="node31" class="node">
<title>Node30</title>
<polygon fill="none" stroke="#bfbfbf" points="1652,-168.5 1652,-187.5 1712,-187.5 1712,-168.5 1652,-168.5"/>
<text text-anchor="middle" x="1682" y="-175.5" font-family="Helvetica,sans-Serif" font-size="10.00" fill="#000000">iostream</text>
</g>
<!-- Node0&#45;&gt;Node30 -->
<g id="edge34" class="edge">
<title>Node0&#45;&gt;Node30</title>
<path fill="none" stroke="#191970" d="M1553.0702,-224.4425C1583.3713,-213.5275 1619.6858,-200.4465 1646.0419,-190.9527"/>
<polygon fill="#191970" stroke="#191970" points="1647.4001,-194.1836 1655.6222,-187.5017 1645.0278,-187.5979 1647.4001,-194.1836"/>
</g>
<!-- Node31 -->
<g id="node32" class="node">
<title>Node31</title>
<polygon fill="none" stroke="#bfbfbf" points="1730.5,-168.5 1730.5,-187.5 1823.5,-187.5 1823.5,-168.5 1730.5,-168.5"/>
<text text-anchor="middle" x="1777" y="-175.5" font-family="Helvetica,sans-Serif" font-size="10.00" fill="#000000">unordered_map</text>
</g>
<!-- Node0&#45;&gt;Node31 -->
<g id="edge35" class="edge">
<title>Node0&#45;&gt;Node31</title>
<path fill="none" stroke="#191970" d="M1582.2189,-224.4425C1629.8114,-213.0948 1687.2233,-199.4058 1727.3397,-189.8407"/>
<polygon fill="#191970" stroke="#191970" points="1728.2341,-193.2256 1737.1497,-187.5017 1726.6106,-186.4165 1728.2341,-193.2256"/>
</g>
<!-- Node32 -->
<g id="node33" class="node">
<title>Node32</title>
<polygon fill="none" stroke="#bfbfbf" points="1842,-168.5 1842,-187.5 1874,-187.5 1874,-168.5 1842,-168.5"/>
<text text-anchor="middle" x="1858" y="-175.5" font-family="Helvetica,sans-Serif" font-size="10.00" fill="#000000">set</text>
</g>
<!-- Node0&#45;&gt;Node32 -->
<g id="edge36" class="edge">
<title>Node0&#45;&gt;Node32</title>
<path fill="none" stroke="#191970" d="M1595.2864,-233.8596C1660.549,-225.2173 1747.7042,-211.17 1832.0308,-187.8134"/>
<polygon fill="#191970" stroke="#191970" points="1833.0899,-191.1514 1841.7665,-185.0713 1831.1921,-184.4136 1833.0899,-191.1514"/>
</g>
<!-- Node33 -->
<g id="node34" class="node">
<title>Node33</title>
<polygon fill="none" stroke="#bfbfbf" points="1892,-168.5 1892,-187.5 1956,-187.5 1956,-168.5 1892,-168.5"/>
<text text-anchor="middle" x="1924" y="-175.5" font-family="Helvetica,sans-Serif" font-size="10.00" fill="#000000">algorithm</text>
</g>
<!-- Node0&#45;&gt;Node33 -->
<g id="edge37" class="edge">
<title>Node0&#45;&gt;Node33</title>
<path fill="none" stroke="#191970" d="M1595.0498,-232.9916C1671.0433,-223.1773 1778.705,-207.978 1881.8654,-188.0848"/>
<polygon fill="#191970" stroke="#191970" points="1882.6861,-191.4908 1891.8334,-186.145 1881.349,-184.6197 1882.6861,-191.4908"/>
</g>
<!-- Node2 -->
<g id="node3" class="node">
<title>Node2</title>
<g id="a_node3"><a xlink:href="../../d0/d91/Expressions_8h.html" target="_top" xlink:title="Framework/Expressions.h">
<polygon fill="none" stroke="#000000" points="927.5,-112.5 927.5,-131.5 1068.5,-131.5 1068.5,-112.5 927.5,-112.5"/>
<text text-anchor="middle" x="998" y="-119.5" font-family="Helvetica,sans-Serif" font-size="10.00" fill="#000000">Framework/Expressions.h</text>
</a>
</g>
</g>
<!-- Node1&#45;&gt;Node2 -->
<g id="edge2" class="edge">
<title>Node1&#45;&gt;Node2</title>
<path fill="none" stroke="#191970" d="M1162.7907,-168.3733C1129.2703,-158.9404 1078.0495,-144.5265 1041.619,-134.2747"/>
<polygon fill="#191970" stroke="#191970" points="1042.3372,-130.8409 1031.7629,-131.5011 1040.4409,-137.5792 1042.3372,-130.8409"/>
</g>
<!-- Node1&#45;&gt;Node19 -->
<g id="edge25" class="edge">
<title>Node1&#45;&gt;Node19</title>
<path fill="none" stroke="#191970" d="M1185.7951,-168.4166C1170.8686,-154.5405 1148.0907,-128.6923 1164,-112 1191.4786,-83.1689 1813.2489,-81.2956 1912.0392,-75.476"/>
<polygon fill="#191970" stroke="#191970" points="1912.5557,-78.9456 1922.2386,-74.6455 1911.9875,-71.9687 1912.5557,-78.9456"/>
</g>
<!-- Node23 -->
<g id="node24" class="node">
<title>Node23</title>
<polygon fill="none" stroke="#bfbfbf" points="1173.5,-112.5 1173.5,-131.5 1220.5,-131.5 1220.5,-112.5 1173.5,-112.5"/>
<text text-anchor="middle" x="1197" y="-119.5" font-family="Helvetica,sans-Serif" font-size="10.00" fill="#000000">vector</text>
</g>
<!-- Node1&#45;&gt;Node23 -->
<g id="edge23" class="edge">
<title>Node1&#45;&gt;Node23</title>
<path fill="none" stroke="#191970" d="M1197,-168.2455C1197,-160.9382 1197,-150.6944 1197,-141.7046"/>
<polygon fill="#191970" stroke="#191970" points="1200.5001,-141.6426 1197,-131.6427 1193.5001,-141.6427 1200.5001,-141.6426"/>
</g>
<!-- Node24 -->
<g id="node25" class="node">
<title>Node24</title>
<polygon fill="none" stroke="#bfbfbf" points="1238.5,-112.5 1238.5,-131.5 1287.5,-131.5 1287.5,-112.5 1238.5,-112.5"/>
<text text-anchor="middle" x="1263" y="-119.5" font-family="Helvetica,sans-Serif" font-size="10.00" fill="#000000">iosfwd</text>
</g>
<!-- Node1&#45;&gt;Node24 -->
<g id="edge24" class="edge">
<title>Node1&#45;&gt;Node24</title>
<path fill="none" stroke="#191970" d="M1208.4963,-168.2455C1218.2442,-159.9746 1232.4259,-147.9416 1243.8798,-138.2232"/>
<polygon fill="#191970" stroke="#191970" points="1246.2747,-140.7813 1251.6354,-131.6427 1241.7459,-135.4437 1246.2747,-140.7813"/>
</g>
<!-- Node3 -->
<g id="node4" class="node">
<title>Node3</title>
<g id="a_node4"><a xlink:href="../../dd/dc2/BasicOps_8h.html" target="_top" xlink:title="Framework/BasicOps.h">
<polygon fill="none" stroke="#000000" points="1114,-56.5 1114,-75.5 1242,-75.5 1242,-56.5 1114,-56.5"/>
<text text-anchor="middle" x="1178" y="-63.5" font-family="Helvetica,sans-Serif" font-size="10.00" fill="#000000">Framework/BasicOps.h</text>
</a>
</g>
</g>
<!-- Node2&#45;&gt;Node3 -->
<g id="edge3" class="edge">
<title>Node2&#45;&gt;Node3</title>
<path fill="none" stroke="#191970" d="M1028.9431,-112.3733C1059.0039,-103.021 1104.8026,-88.7725 1137.6978,-78.5385"/>
<polygon fill="#191970" stroke="#191970" points="1138.9519,-81.8139 1147.4607,-75.5011 1136.8723,-75.1299 1138.9519,-81.8139"/>
</g>
<!-- Node4 -->
<g id="node5" class="node">
<title>Node4</title>
<g id="a_node5"><a xlink:href="../../d9/de8/CompilerBuiltins_8h.html" target="_top" xlink:title="Framework/CompilerBuiltins.h">
<polygon fill="none" stroke="#000000" points="0,-56.5 0,-75.5 164,-75.5 164,-56.5 0,-56.5"/>
<text text-anchor="middle" x="82" y="-63.5" font-family="Helvetica,sans-Serif" font-size="10.00" fill="#000000">Framework/CompilerBuiltins.h</text>
</a>
</g>
</g>
<!-- Node2&#45;&gt;Node4 -->
<g id="edge4" class="edge">
<title>Node2&#45;&gt;Node4</title>
<path fill="none" stroke="#191970" d="M927.2829,-119.3394C786.2055,-113.7517 459.5504,-99.4139 174.4449,-76.0806"/>
<polygon fill="#191970" stroke="#191970" points="174.5743,-72.5795 164.3208,-75.2468 173.9997,-79.5559 174.5743,-72.5795"/>
</g>
<!-- Node5 -->
<g id="node6" class="node">
<title>Node5</title>
<g id="a_node6"><a xlink:href="../../dd/dce/Pack_8h.html" target="_top" xlink:title="Framework/Pack.h">
<polygon fill="none" stroke="#000000" points="1260.5,-56.5 1260.5,-75.5 1365.5,-75.5 1365.5,-56.5 1260.5,-56.5"/>
<text text-anchor="middle" x="1313" y="-63.5" font-family="Helvetica,sans-Serif" font-size="10.00" fill="#000000">Framework/Pack.h</text>
</a>
</g>
</g>
<!-- Node2&#45;&gt;Node5 -->
<g id="edge5" class="edge">
<title>Node2&#45;&gt;Node5</title>
<path fill="none" stroke="#191970" d="M1051.7925,-112.4369C1106.8267,-102.653 1192.2718,-87.4628 1250.3295,-77.1414"/>
<polygon fill="#191970" stroke="#191970" points="1251.2454,-80.5336 1260.4783,-75.3372 1250.0201,-73.6416 1251.2454,-80.5336"/>
</g>
<!-- Node9 -->
<g id="node10" class="node">
<title>Node9</title>
<g id="a_node10"><a xlink:href="../../d1/d00/CheckTypes_8h.html" target="_top" xlink:title="Framework/CheckTypes.h">
<polygon fill="none" stroke="#000000" points="1384,-56.5 1384,-75.5 1524,-75.5 1524,-56.5 1384,-56.5"/>
<text text-anchor="middle" x="1454" y="-63.5" font-family="Helvetica,sans-Serif" font-size="10.00" fill="#000000">Framework/CheckTypes.h</text>
</a>
</g>
</g>
<!-- Node2&#45;&gt;Node9 -->
<g id="edge9" class="edge">
<title>Node2&#45;&gt;Node9</title>
<path fill="none" stroke="#191970" d="M1068.5368,-113.4894C1142.069,-104.5956 1260.9622,-90.1543 1373.6098,-76.1688"/>
<polygon fill="#191970" stroke="#191970" points="1374.2987,-79.6102 1383.7908,-74.9039 1373.4356,-72.6636 1374.2987,-79.6102"/>
</g>
<!-- Node10 -->
<g id="node11" class="node">
<title>Node10</title>
<polygon fill="none" stroke="#bfbfbf" points="1542.5,-56.5 1542.5,-75.5 1643.5,-75.5 1643.5,-56.5 1542.5,-56.5"/>
<text text-anchor="middle" x="1593" y="-63.5" font-family="Helvetica,sans-Serif" font-size="10.00" fill="#000000">arrow/type_fwd.h</text>
</g>
<!-- Node2&#45;&gt;Node10 -->
<g id="edge10" class="edge">
<title>Node2&#45;&gt;Node10</title>
<path fill="none" stroke="#191970" d="M1068.9398,-113.4538C1073.696,-112.9426 1078.4161,-112.4528 1083,-112 1279.4498,-92.593 1332.1758,-100.2565 1532.3504,-75.9802"/>
<polygon fill="#191970" stroke="#191970" points="1532.8046,-79.4508 1542.3052,-74.7615 1531.9539,-72.5026 1532.8046,-79.4508"/>
</g>
<!-- Node11 -->
<g id="node12" class="node">
<title>Node11</title>
<polygon fill="none" stroke="#bfbfbf" points="1662,-56.5 1662,-75.5 1808,-75.5 1808,-56.5 1662,-56.5"/>
<text text-anchor="middle" x="1735" y="-63.5" font-family="Helvetica,sans-Serif" font-size="10.00" fill="#000000">gandiva/gandiva_aliases.h</text>
</g>
<!-- Node2&#45;&gt;Node11 -->
<g id="edge11" class="edge">
<title>Node2&#45;&gt;Node11</title>
<path fill="none" stroke="#191970" d="M1068.9314,-113.3648C1073.6896,-112.8751 1078.4125,-112.4144 1083,-112 1332.4757,-89.4634 1398.5087,-99.1105 1651.4659,-76.0932"/>
<polygon fill="#191970" stroke="#191970" points="1652.0671,-79.5528 1661.7051,-75.153 1651.427,-72.5821 1652.0671,-79.5528"/>
</g>
<!-- Node12 -->
<g id="node13" class="node">
<title>Node12</title>
<polygon fill="none" stroke="#bfbfbf" points="1826,-56.5 1826,-75.5 1904,-75.5 1904,-56.5 1826,-56.5"/>
<text text-anchor="middle" x="1865" y="-63.5" font-family="Helvetica,sans-Serif" font-size="10.00" fill="#000000">arrow/type.h</text>
</g>
<!-- Node2&#45;&gt;Node12 -->
<g id="edge12" class="edge">
<title>Node2&#45;&gt;Node12</title>
<path fill="none" stroke="#191970" d="M1068.9249,-113.29C1073.6847,-112.8184 1078.4097,-112.3821 1083,-112 1405.1509,-85.1811 1491.2654,-116.7729 1815.633,-75.9807"/>
<polygon fill="#191970" stroke="#191970" points="1816.3129,-79.4225 1825.7918,-74.6894 1815.4302,-72.4784 1816.3129,-79.4225"/>
</g>
<!-- Node13 -->
<g id="node14" class="node">
<title>Node13</title>
<polygon fill="none" stroke="#bfbfbf" points="281.5,-56.5 281.5,-75.5 376.5,-75.5 376.5,-56.5 281.5,-56.5"/>
<text text-anchor="middle" x="329" y="-63.5" font-family="Helvetica,sans-Serif" font-size="10.00" fill="#000000">gandiva/arrow.h</text>
</g>
<!-- Node2&#45;&gt;Node13 -->
<g id="edge13" class="edge">
<title>Node2&#45;&gt;Node13</title>
<path fill="none" stroke="#191970" d="M927.4364,-119.0428C815.0467,-113.8171 588.3006,-101.1687 386.7917,-76.1208"/>
<polygon fill="#191970" stroke="#191970" points="386.9667,-72.6154 376.6084,-74.8416 386.0942,-79.5608 386.9667,-72.6154"/>
</g>
<!-- Node2&#45;&gt;Node14 -->
<g id="edge14" class="edge">
<title>Node2&#45;&gt;Node14</title>
<path fill="none" stroke="#191970" d="M927.2441,-118.7649C774.1825,-111.5682 415.3571,-93.5773 273.7827,-76.0438"/>
<polygon fill="#191970" stroke="#191970" points="273.934,-72.5345 263.5688,-74.7285 273.0399,-79.4771 273.934,-72.5345"/>
</g>
<!-- Node15 -->
<g id="node16" class="node">
<title>Node15</title>
<polygon fill="none" stroke="#bfbfbf" points="394.5,-56.5 394.5,-75.5 541.5,-75.5 541.5,-56.5 394.5,-56.5"/>
<text text-anchor="middle" x="468" y="-63.5" font-family="Helvetica,sans-Serif" font-size="10.00" fill="#000000">gandiva/selection_vector.h</text>
</g>
<!-- Node2&#45;&gt;Node15 -->
<g id="edge15" class="edge">
<title>Node2&#45;&gt;Node15</title>
<path fill="none" stroke="#191970" d="M927.1216,-115.0892C841.0044,-106.6065 691.01,-91.5553 551.7646,-76.0696"/>
<polygon fill="#191970" stroke="#191970" points="552.0848,-72.5837 541.7585,-74.9539 551.3091,-79.5405 552.0848,-72.5837"/>
</g>
<!-- Node16 -->
<g id="node17" class="node">
<title>Node16</title>
<polygon fill="none" stroke="#bfbfbf" points="560,-56.5 560,-75.5 652,-75.5 652,-56.5 560,-56.5"/>
<text text-anchor="middle" x="606" y="-63.5" font-family="Helvetica,sans-Serif" font-size="10.00" fill="#000000">gandiva/node.h</text>
</g>
<!-- Node2&#45;&gt;Node16 -->
<g id="edge16" class="edge">
<title>Node2&#45;&gt;Node16</title>
<path fill="none" stroke="#191970" d="M927.187,-113.2585C861.1685,-104.8978 759.7127,-91.5131 662.2176,-76.1414"/>
<polygon fill="#191970" stroke="#191970" points="662.6131,-72.6605 652.1882,-74.5507 661.5165,-79.574 662.6131,-72.6605"/>
</g>
<!-- Node17 -->
<g id="node18" class="node">
<title>Node17</title>
<polygon fill="none" stroke="#bfbfbf" points="670.5,-56.5 670.5,-75.5 759.5,-75.5 759.5,-56.5 670.5,-56.5"/>
<text text-anchor="middle" x="715" y="-63.5" font-family="Helvetica,sans-Serif" font-size="10.00" fill="#000000">gandiva/filter.h</text>
</g>
<!-- Node2&#45;&gt;Node17 -->
<g id="edge17" class="edge">
<title>Node2&#45;&gt;Node17</title>
<path fill="none" stroke="#191970" d="M949.6721,-112.4369C899.7959,-102.5674 822.1174,-87.1964 769.9396,-76.8714"/>
<polygon fill="#191970" stroke="#191970" points="770.3491,-73.3847 759.8599,-74.8769 768.9902,-80.2515 770.3491,-73.3847"/>
</g>
<!-- Node18 -->
<g id="node19" class="node">
<title>Node18</title>
<polygon fill="none" stroke="#bfbfbf" points="778,-56.5 778,-75.5 888,-75.5 888,-56.5 778,-56.5"/>
<text text-anchor="middle" x="833" y="-63.5" font-family="Helvetica,sans-Serif" font-size="10.00" fill="#000000">gandiva/projector.h</text>
</g>
<!-- Node2&#45;&gt;Node18 -->
<g id="edge18" class="edge">
<title>Node2&#45;&gt;Node18</title>
<path fill="none" stroke="#191970" d="M969.6355,-112.3733C942.3173,-103.1016 900.8204,-89.0178 870.7262,-78.804"/>
<polygon fill="#191970" stroke="#191970" points="871.5887,-75.4008 860.9944,-75.5011 869.339,-82.0294 871.5887,-75.4008"/>
</g>
<!-- Node2&#45;&gt;Node19 -->
<g id="edge19" class="edge">
<title>Node2&#45;&gt;Node19</title>
<path fill="none" stroke="#191970" d="M1068.9224,-113.2599C1073.6828,-112.7955 1078.4086,-112.3691 1083,-112 1447.7234,-82.6762 1544.7765,-120.364 1912.127,-75.8979"/>
<polygon fill="#191970" stroke="#191970" points="1912.7393,-79.3492 1922.2406,-74.6613 1911.8897,-72.4009 1912.7393,-79.3492"/>
</g>
<!-- Node20 -->
<g id="node21" class="node">
<title>Node20</title>
<polygon fill="none" stroke="#bfbfbf" points="906.5,-56.5 906.5,-75.5 957.5,-75.5 957.5,-56.5 906.5,-56.5"/>
<text text-anchor="middle" x="932" y="-63.5" font-family="Helvetica,sans-Serif" font-size="10.00" fill="#000000">variant</text>
</g>
<!-- Node2&#45;&gt;Node20 -->
<g id="edge20" class="edge">
<title>Node2&#45;&gt;Node20</title>
<path fill="none" stroke="#191970" d="M986.5037,-112.2455C976.7558,-103.9746 962.5741,-91.9416 951.1202,-82.2232"/>
<polygon fill="#191970" stroke="#191970" points="953.2541,-79.4437 943.3646,-75.6427 948.7253,-84.7813 953.2541,-79.4437"/>
</g>
<!-- Node21 -->
<g id="node22" class="node">
<title>Node21</title>
<polygon fill="none" stroke="#bfbfbf" points="976,-56.5 976,-75.5 1020,-75.5 1020,-56.5 976,-56.5"/>
<text text-anchor="middle" x="998" y="-63.5" font-family="Helvetica,sans-Serif" font-size="10.00" fill="#000000">string</text>
</g>
<!-- Node2&#45;&gt;Node21 -->
<g id="edge21" class="edge">
<title>Node2&#45;&gt;Node21</title>
<path fill="none" stroke="#191970" d="M998,-112.2455C998,-104.9382 998,-94.6944 998,-85.7046"/>
<polygon fill="#191970" stroke="#191970" points="1001.5001,-85.6426 998,-75.6427 994.5001,-85.6427 1001.5001,-85.6426"/>
</g>
<!-- Node22 -->
<g id="node23" class="node">
<title>Node22</title>
<polygon fill="none" stroke="#bfbfbf" points="1038,-56.5 1038,-75.5 1096,-75.5 1096,-56.5 1038,-56.5"/>
<text text-anchor="middle" x="1067" y="-63.5" font-family="Helvetica,sans-Serif" font-size="10.00" fill="#000000">memory</text>
</g>
<!-- Node2&#45;&gt;Node22 -->
<g id="edge22" class="edge">
<title>Node2&#45;&gt;Node22</title>
<path fill="none" stroke="#191970" d="M1010.0189,-112.2455C1020.2098,-103.9746 1035.0362,-91.9416 1047.0107,-82.2232"/>
<polygon fill="#191970" stroke="#191970" points="1049.5598,-84.662 1055.1188,-75.6427 1045.1486,-79.2268 1049.5598,-84.662"/>
</g>
<!-- Node6 -->
<g id="node7" class="node">
<title>Node6</title>
<polygon fill="none" stroke="#bfbfbf" points="1219.5,-.5 1219.5,-19.5 1272.5,-19.5 1272.5,-.5 1219.5,-.5"/>
<text text-anchor="middle" x="1246" y="-7.5" font-family="Helvetica,sans-Serif" font-size="10.00" fill="#000000">cstddef</text>
</g>
<!-- Node5&#45;&gt;Node6 -->
<g id="edge6" class="edge">
<title>Node5&#45;&gt;Node6</title>
<path fill="none" stroke="#191970" d="M1301.3295,-56.2455C1291.4339,-47.9746 1277.0373,-35.9416 1265.4099,-26.2232"/>
<polygon fill="#191970" stroke="#191970" points="1267.4542,-23.3703 1257.5368,-19.6427 1262.965,-28.7413 1267.4542,-23.3703"/>
</g>
<!-- Node7 -->
<g id="node8" class="node">
<title>Node7</title>
<polygon fill="none" stroke="#bfbfbf" points="1290.5,-.5 1290.5,-19.5 1335.5,-19.5 1335.5,-.5 1290.5,-.5"/>
<text text-anchor="middle" x="1313" y="-7.5" font-family="Helvetica,sans-Serif" font-size="10.00" fill="#000000">utility</text>
</g>
<!-- Node5&#45;&gt;Node7 -->
<g id="edge7" class="edge">
<title>Node5&#45;&gt;Node7</title>
<path fill="none" stroke="#191970" d="M1313,-56.2455C1313,-48.9382 1313,-38.6944 1313,-29.7046"/>
<polygon fill="#191970" stroke="#191970" points="1316.5001,-29.6426 1313,-19.6427 1309.5001,-29.6427 1316.5001,-29.6426"/>
</g>
<!-- Node8 -->
<g id="node9" class="node">
<title>Node8</title>
<polygon fill="none" stroke="#bfbfbf" points="1354,-.5 1354,-19.5 1400,-19.5 1400,-.5 1354,-.5"/>
<text text-anchor="middle" x="1377" y="-7.5" font-family="Helvetica,sans-Serif" font-size="10.00" fill="#000000">cstdio</text>
</g>
<!-- Node5&#45;&gt;Node8 -->
<g id="edge8" class="edge">
<title>Node5&#45;&gt;Node8</title>
<path fill="none" stroke="#191970" d="M1324.1479,-56.2455C1333.5087,-48.0549 1347.0858,-36.1749 1358.1349,-26.5069"/>
<polygon fill="#191970" stroke="#191970" points="1360.7588,-28.8618 1365.9798,-19.6427 1356.1492,-23.5937 1360.7588,-28.8618"/>
</g>
<!-- Node25&#45;&gt;Node4 -->
<g id="edge27" class="edge">
<title>Node25&#45;&gt;Node4</title>
<path fill="none" stroke="#191970" d="M229.4007,-112.3733C199.6739,-103.021 154.3841,-88.7725 121.8544,-78.5385"/>
<polygon fill="#191970" stroke="#191970" points="122.7895,-75.1636 112.2,-75.5011 120.6887,-81.8409 122.7895,-75.1636"/>
</g>
<!-- Node27 -->
<g id="node28" class="node">
<title>Node27</title>
<polygon fill="none" stroke="#bfbfbf" points="1306,-112.5 1306,-131.5 1414,-131.5 1414,-112.5 1306,-112.5"/>
<text text-anchor="middle" x="1360" y="-119.5" font-family="Helvetica,sans-Serif" font-size="10.00" fill="#000000">fairlogger/Logger.h</text>
</g>
<!-- Node26&#45;&gt;Node27 -->
<g id="edge29" class="edge">
<title>Node26&#45;&gt;Node27</title>
<path fill="none" stroke="#191970" d="M1346.787,-168.2455C1348.8977,-160.8579 1351.866,-150.4689 1354.4547,-141.4087"/>
<polygon fill="#191970" stroke="#191970" points="1357.863,-142.2195 1357.245,-131.6427 1351.1323,-140.2964 1357.863,-142.2195"/>
</g>
</g>
</svg>
        <g id="navigator" transform="translate(0 0)" fill="#404254">
                <rect fill="#f2f5e9" fill-opacity="0.5" stroke="#606060" stroke-width=".5" x="0" y="0" width="60" height="60"/>
                <use id="zoomplus" xlink:href="#zoomPlus" x="17" y="9" onmousedown="handleZoom(evt,'in')"/>
                <use id="zoomminus" xlink:href="#zoomMin" x="42" y="9" onmousedown="handleZoom(evt,'out')"/>
                <use id="reset" xlink:href="#resetDef" x="30" y="36" onmousedown="handleReset()"/>
                <g id="arrowUp" xlink:href="#dirArrow" transform="translate(30 24)" onmousedown="handlePan(0,-1)">
                  <use xlink:href="#rim" fill="#404040">
                        <set attributeName="fill" to="#808080" begin="arrowUp.mouseover" end="arrowUp.mouseout"/>
                  </use>
                  <path fill="none" stroke="white" stroke-width="1.5" d="M0,-3.0v7 M-2.5,-0.5L0,-3.0L2.5,-0.5"/>
                </g>
                <g id="arrowRight" xlink:href="#dirArrow" transform="rotate(90) translate(36 -43)" onmousedown="handlePan(1,0)">
                  <use xlink:href="#rim" fill="#404040">
                        <set attributeName="fill" to="#808080" begin="arrowRight.mouseover" end="arrowRight.mouseout"/>
                  </use>
                  <path fill="none" stroke="white" stroke-width="1.5" d="M0,-3.0v7 M-2.5,-0.5L0,-3.0L2.5,-0.5"/>
                </g>
                <g id="arrowDown" xlink:href="#dirArrow" transform="rotate(180) translate(-30 -48)" onmousedown="handlePan(0,1)">
                  <use xlink:href="#rim" fill="#404040">
                        <set attributeName="fill" to="#808080" begin="arrowDown.mouseover" end="arrowDown.mouseout"/>
                  </use>
                  <path fill="none" stroke="white" stroke-width="1.5" d="M0,-3.0v7 M-2.5,-0.5L0,-3.0L2.5,-0.5"/>
                </g>
                <g id="arrowLeft" xlink:href="#dirArrow" transform="rotate(270) translate(-36 17)" onmousedown="handlePan(-1,0)">
                  <use xlink:href="#rim" fill="#404040">
                        <set attributeName="fill" to="#808080" begin="arrowLeft.mouseover" end="arrowLeft.mouseout"/>
                  </use>
                  <path fill="none" stroke="white" stroke-width="1.5" d="M0,-3.0v7 M-2.5,-0.5L0,-3.0L2.5,-0.5"/>
                </g>
        </g>
        <svg viewBox="0 0 15 15" width="100%" height="30px" preserveAspectRatio="xMaxYMin meet">
         <g id="arrow_out" transform="scale(0.3 0.3)">
          <a xlink:href="Expressions_8cxx__incl_org.svg" target="_base">
           <rect id="button" ry="5" rx="5" y="6" x="6" height="38" width="38"
                fill="#f2f5e9" fill-opacity="0.5" stroke="#606060" stroke-width="1.0"/>
           <path id="arrow"
             d="M 11.500037,31.436501 C 11.940474,20.09759 22.043105,11.32322 32.158766,21.979434 L 37.068811,17.246167 C 37.068811,17.246167 37.088388,32 37.088388,32 L 22.160133,31.978069 C 22.160133,31.978069 26.997745,27.140456 26.997745,27.140456 C 18.528582,18.264221 13.291696,25.230495 11.500037,31.436501 z"
             style="fill:#404040;"/>
          </a>
         </g>
        </svg>
</svg>
