<?xml version="1.0" encoding="UTF-8" standalone="no"?>
<!DOCTYPE svg PUBLIC "-//W3C//DTD SVG 1.1//EN"
 "http://www.w3.org/Graphics/SVG/1.1/DTD/svg11.dtd">
<!-- Generated by graphviz version 2.40.1 (20161225.0304)
 -->
<!-- Title: /home/travis/build/AliceO2Group/AliceO2/Detectors/TPC/calibration/src/CalibTreeDump.cxx Pages: 1 -->
<svg width="3174pt" height="766pt"
 viewBox="0.00 0.00 3174.20 766.00" xmlns="http://www.w3.org/2000/svg" xmlns:xlink="http://www.w3.org/1999/xlink">
<g id="graph0" class="graph" transform="scale(1 1) rotate(0) translate(4 762)">
<title>/home/travis/build/AliceO2Group/AliceO2/Detectors/TPC/calibration/src/CalibTreeDump.cxx</title>
<!-- Node0 -->
<g id="node1" class="node">
<title>Node0</title>
<polygon fill="#bfbfbf" stroke="#000000" points="2471.6974,-705.5 2471.6974,-757.5 2614.6974,-757.5 2614.6974,-705.5 2471.6974,-705.5"/>
<text text-anchor="start" x="2479.6974" y="-745.5" font-family="Helvetica,sans-Serif" font-size="10.00" fill="#000000">/home/travis/build</text>
<text text-anchor="start" x="2479.6974" y="-734.5" font-family="Helvetica,sans-Serif" font-size="10.00" fill="#000000">/AliceO2Group/AliceO2</text>
<text text-anchor="start" x="2479.6974" y="-723.5" font-family="Helvetica,sans-Serif" font-size="10.00" fill="#000000">/Detectors/TPC/calibration</text>
<text text-anchor="middle" x="2543.1974" y="-712.5" font-family="Helvetica,sans-Serif" font-size="10.00" fill="#000000">/src/CalibTreeDump.cxx</text>
</g>
<!-- Node1 -->
<g id="node2" class="node">
<title>Node1</title>
<polygon fill="none" stroke="#bfbfbf" points="1443.6974,-649.5 1443.6974,-668.5 1522.6974,-668.5 1522.6974,-649.5 1443.6974,-649.5"/>
<text text-anchor="middle" x="1483.1974" y="-656.5" font-family="Helvetica,sans-Serif" font-size="10.00" fill="#000000">fmt/format.h</text>
</g>
<!-- Node0&#45;&gt;Node1 -->
<g id="edge1" class="edge">
<title>Node0&#45;&gt;Node1</title>
<path fill="none" stroke="#191970" d="M2471.692,-730.6082C2307.2829,-727.7974 1889.7088,-716.3236 1532.9404,-669.0741"/>
<polygon fill="#191970" stroke="#191970" points="1533.3095,-665.5924 1522.9341,-667.7373 1532.3826,-672.5308 1533.3095,-665.5924"/>
</g>
<!-- Node2 -->
<g id="node3" class="node">
<title>Node2</title>
<polygon fill="none" stroke="#bfbfbf" points="1540.6974,-649.5 1540.6974,-668.5 1589.6974,-668.5 1589.6974,-649.5 1540.6974,-649.5"/>
<text text-anchor="middle" x="1565.1974" y="-656.5" font-family="Helvetica,sans-Serif" font-size="10.00" fill="#000000">cstdlib</text>
</g>
<!-- Node0&#45;&gt;Node2 -->
<g id="edge2" class="edge">
<title>Node0&#45;&gt;Node2</title>
<path fill="none" stroke="#191970" d="M2471.5141,-728.445C2282.0578,-720.0962 1771.1715,-695.7291 1604.1974,-669 1602.7307,-668.7652 1601.2388,-668.5005 1599.736,-668.2125"/>
<polygon fill="#191970" stroke="#191970" points="1600.3275,-664.7592 1589.8107,-666.0426 1598.8324,-671.5977 1600.3275,-664.7592"/>
</g>
<!-- Node3 -->
<g id="node4" class="node">
<title>Node3</title>
<polygon fill="none" stroke="#bfbfbf" points="1804.6974,-593.5 1804.6974,-612.5 1877.6974,-612.5 1877.6974,-593.5 1804.6974,-593.5"/>
<text text-anchor="middle" x="1841.1974" y="-600.5" font-family="Helvetica,sans-Serif" font-size="10.00" fill="#000000">string_view</text>
</g>
<!-- Node0&#45;&gt;Node3 -->
<g id="edge3" class="edge">
<title>Node0&#45;&gt;Node3</title>
<path fill="none" stroke="#191970" d="M2471.529,-727.6206C2336.4983,-719.6973 2049.4998,-699.7644 1955.1974,-669 1920.0372,-657.5296 1883.8063,-634.2131 1861.8885,-618.5946"/>
<polygon fill="#191970" stroke="#191970" points="1863.8306,-615.6793 1853.6845,-612.6285 1859.7136,-621.3406 1863.8306,-615.6793"/>
</g>
<!-- Node4 -->
<g id="node5" class="node">
<title>Node4</title>
<polygon fill="none" stroke="#bfbfbf" points="2822.6974,-649.5 2822.6974,-668.5 2877.6974,-668.5 2877.6974,-649.5 2822.6974,-649.5"/>
<text text-anchor="middle" x="2850.1974" y="-656.5" font-family="Helvetica,sans-Serif" font-size="10.00" fill="#000000">fstream</text>
</g>
<!-- Node0&#45;&gt;Node4 -->
<g id="edge4" class="edge">
<title>Node0&#45;&gt;Node4</title>
<path fill="none" stroke="#191970" d="M2614.9089,-714.6304C2668.2309,-702.0762 2742.769,-684.5047 2808.1974,-669 2809.6561,-668.6543 2811.1432,-668.3016 2812.6455,-667.9451"/>
<polygon fill="#191970" stroke="#191970" points="2813.717,-671.288 2822.6369,-665.5709 2812.0986,-664.4777 2813.717,-671.288"/>
</g>
<!-- Node5 -->
<g id="node6" class="node">
<title>Node5</title>
<polygon fill="none" stroke="#bfbfbf" points="2896.1974,-649.5 2896.1974,-668.5 2956.1974,-668.5 2956.1974,-649.5 2896.1974,-649.5"/>
<text text-anchor="middle" x="2926.1974" y="-656.5" font-family="Helvetica,sans-Serif" font-size="10.00" fill="#000000">iostream</text>
</g>
<!-- Node0&#45;&gt;Node5 -->
<g id="edge5" class="edge">
<title>Node0&#45;&gt;Node5</title>
<path fill="none" stroke="#191970" d="M2614.9778,-719.9908C2682.525,-708.8114 2786.6782,-690.6783 2886.0996,-669.1295"/>
<polygon fill="#191970" stroke="#191970" points="2886.9908,-672.5175 2896.0144,-666.9656 2885.4981,-665.6785 2886.9908,-672.5175"/>
</g>
<!-- Node6 -->
<g id="node7" class="node">
<title>Node6</title>
<polygon fill="none" stroke="#bfbfbf" points="2974.1974,-649.5 2974.1974,-668.5 3030.1974,-668.5 3030.1974,-649.5 2974.1974,-649.5"/>
<text text-anchor="middle" x="3002.1974" y="-656.5" font-family="Helvetica,sans-Serif" font-size="10.00" fill="#000000">sstream</text>
</g>
<!-- Node0&#45;&gt;Node6 -->
<g id="edge6" class="edge">
<title>Node0&#45;&gt;Node6</title>
<path fill="none" stroke="#191970" d="M2614.9545,-723.4669C2697.1454,-713.6834 2835.9382,-695.3868 2964.0109,-669.0601"/>
<polygon fill="#191970" stroke="#191970" points="2964.9182,-672.4465 2973.9976,-666.9862 2963.4948,-665.5927 2964.9182,-672.4465"/>
</g>
<!-- Node7 -->
<g id="node8" class="node">
<title>Node7</title>
<polygon fill="none" stroke="#bfbfbf" points="2638.1974,-537.5 2638.1974,-556.5 2690.1974,-556.5 2690.1974,-537.5 2638.1974,-537.5"/>
<text text-anchor="middle" x="2664.1974" y="-544.5" font-family="Helvetica,sans-Serif" font-size="10.00" fill="#000000">cassert</text>
</g>
<!-- Node0&#45;&gt;Node7 -->
<g id="edge7" class="edge">
<title>Node0&#45;&gt;Node7</title>
<path fill="none" stroke="#191970" d="M2560.2771,-705.457C2585.0609,-667.6669 2630.3911,-598.5477 2652.0494,-565.5232"/>
<polygon fill="#191970" stroke="#191970" points="2655.1713,-567.145 2657.7287,-556.8635 2649.3178,-563.3061 2655.1713,-567.145"/>
</g>
<!-- Node8 -->
<g id="node9" class="node">
<title>Node8</title>
<polygon fill="none" stroke="#bfbfbf" points="3048.1974,-649.5 3048.1974,-668.5 3096.1974,-668.5 3096.1974,-649.5 3048.1974,-649.5"/>
<text text-anchor="middle" x="3072.1974" y="-656.5" font-family="Helvetica,sans-Serif" font-size="10.00" fill="#000000">TFile.h</text>
</g>
<!-- Node0&#45;&gt;Node8 -->
<g id="edge8" class="edge">
<title>Node0&#45;&gt;Node8</title>
<path fill="none" stroke="#191970" d="M2614.879,-726.2903C2709.8045,-718.5435 2882.3888,-701.5187 3037.9485,-668.9608"/>
<polygon fill="#191970" stroke="#191970" points="3039.1127,-672.2918 3048.1693,-666.7937 3037.6608,-665.444 3039.1127,-672.2918"/>
</g>
<!-- Node9 -->
<g id="node10" class="node">
<title>Node9</title>
<polygon fill="none" stroke="#bfbfbf" points="3114.1974,-649.5 3114.1974,-668.5 3166.1974,-668.5 3166.1974,-649.5 3114.1974,-649.5"/>
<text text-anchor="middle" x="3140.1974" y="-656.5" font-family="Helvetica,sans-Serif" font-size="10.00" fill="#000000">TTree.h</text>
</g>
<!-- Node0&#45;&gt;Node9 -->
<g id="edge9" class="edge">
<title>Node0&#45;&gt;Node9</title>
<path fill="none" stroke="#191970" d="M2614.7535,-727.3943C2720.1668,-720.4959 2923.3496,-703.9596 3103.9921,-668.9635"/>
<polygon fill="#191970" stroke="#191970" points="3104.7996,-672.3719 3113.9393,-667.013 3103.4526,-665.5027 3104.7996,-672.3719"/>
</g>
<!-- Node10 -->
<g id="node11" class="node">
<title>Node10</title>
<polygon fill="none" stroke="#bfbfbf" points="1292.1974,-414.5 1292.1974,-433.5 1348.1974,-433.5 1348.1974,-414.5 1292.1974,-414.5"/>
<text text-anchor="middle" x="1320.1974" y="-421.5" font-family="Helvetica,sans-Serif" font-size="10.00" fill="#000000">TMath.h</text>
</g>
<!-- Node0&#45;&gt;Node10 -->
<g id="edge10" class="edge">
<title>Node0&#45;&gt;Node10</title>
<path fill="none" stroke="#191970" d="M2471.3618,-728.6263C2260.1977,-719.2314 1656.1974,-685.1766 1656.1974,-603 1656.1974,-603 1656.1974,-603 1656.1974,-547 1656.1974,-531.2615 1445.5688,-463.3398 1357.8427,-435.7333"/>
<polygon fill="#191970" stroke="#191970" points="1358.8559,-432.383 1348.2667,-432.7264 1356.7588,-439.0615 1358.8559,-432.383"/>
</g>
<!-- Node11 -->
<g id="node12" class="node">
<title>Node11</title>
<g id="a_node12"><a xlink:href="../../df/d72/MathBase_8h.html" target="_top" xlink:title="MathUtils/MathBase.h">
<polygon fill="none" stroke="#000000" points="764.6974,-476 764.6974,-495 887.6974,-495 887.6974,-476 764.6974,-476"/>
<text text-anchor="middle" x="826.1974" y="-483" font-family="Helvetica,sans-Serif" font-size="10.00" fill="#000000">MathUtils/MathBase.h</text>
</a>
</g>
</g>
<!-- Node0&#45;&gt;Node11 -->
<g id="edge11" class="edge">
<title>Node0&#45;&gt;Node11</title>
<path fill="none" stroke="#191970" d="M2471.4295,-729.8146C2286.7728,-724.9523 1798.7621,-708.6345 1642.1974,-669 1621.3733,-663.7284 1618.6036,-655.7096 1598.1974,-649 1347.1168,-566.4445 1036.0347,-515.4627 897.9784,-495.3512"/>
<polygon fill="#191970" stroke="#191970" points="898.3406,-491.8673 887.9425,-493.8993 897.3383,-498.7951 898.3406,-491.8673"/>
</g>
<!-- Node30 -->
<g id="node31" class="node">
<title>Node30</title>
<g id="a_node31"><a xlink:href="../../db/d9b/CalArray_8h.html" target="_top" xlink:title="TPCBase/CalArray.h">
<polygon fill="none" stroke="#000000" points="2026.1974,-537.5 2026.1974,-556.5 2138.1974,-556.5 2138.1974,-537.5 2026.1974,-537.5"/>
<text text-anchor="middle" x="2082.1974" y="-544.5" font-family="Helvetica,sans-Serif" font-size="10.00" fill="#000000">TPCBase/CalArray.h</text>
</a>
</g>
</g>
<!-- Node0&#45;&gt;Node30 -->
<g id="edge31" class="edge">
<title>Node0&#45;&gt;Node30</title>
<path fill="none" stroke="#191970" d="M2478.1251,-705.457C2378.6006,-665.6256 2192.1102,-590.989 2115.9244,-560.4981"/>
<polygon fill="#191970" stroke="#191970" points="2116.9321,-557.1316 2106.3476,-556.6653 2114.3312,-563.6304 2116.9321,-557.1316"/>
</g>
<!-- Node37 -->
<g id="node38" class="node">
<title>Node37</title>
<g id="a_node38"><a xlink:href="../../d5/d1d/TPC_2base_2include_2TPCBase_2Mapper_8h.html" target="_top" xlink:title="TPCBase/Mapper.h">
<polygon fill="none" stroke="#000000" points="1722.6974,-476 1722.6974,-495 1829.6974,-495 1829.6974,-476 1722.6974,-476"/>
<text text-anchor="middle" x="1776.1974" y="-483" font-family="Helvetica,sans-Serif" font-size="10.00" fill="#000000">TPCBase/Mapper.h</text>
</a>
</g>
</g>
<!-- Node0&#45;&gt;Node37 -->
<g id="edge103" class="edge">
<title>Node0&#45;&gt;Node37</title>
<path fill="none" stroke="#191970" d="M2471.5453,-727.738C2328.5084,-719.6897 2012.3704,-699.0545 1908.1974,-669 1854.7251,-653.5729 1829.0469,-657.9243 1796.1974,-613 1772.8218,-581.0319 1772.1907,-532.4289 1774.0402,-505.4004"/>
<polygon fill="#191970" stroke="#191970" points="1777.5434,-505.5154 1774.9256,-495.249 1770.5699,-504.9071 1777.5434,-505.5154"/>
</g>
<!-- Node53 -->
<g id="node54" class="node">
<title>Node53</title>
<g id="a_node54"><a xlink:href="../../d3/dd6/Sector_8h.html" target="_top" xlink:title="TPCBase/Sector.h">
<polygon fill="none" stroke="#000000" points="2653.6974,-246.5 2653.6974,-265.5 2754.6974,-265.5 2754.6974,-246.5 2653.6974,-246.5"/>
<text text-anchor="middle" x="2704.1974" y="-253.5" font-family="Helvetica,sans-Serif" font-size="10.00" fill="#000000">TPCBase/Sector.h</text>
</a>
</g>
</g>
<!-- Node0&#45;&gt;Node53 -->
<g id="edge108" class="edge">
<title>Node0&#45;&gt;Node53</title>
<path fill="none" stroke="#191970" d="M2614.788,-725.1033C2688.9768,-714.08 2794.1974,-684.143 2794.1974,-603 2794.1974,-603 2794.1974,-603 2794.1974,-368 2794.1974,-325.8672 2755.0184,-290.5758 2728.3601,-271.4395"/>
<polygon fill="#191970" stroke="#191970" points="2730.0924,-268.3824 2719.8742,-265.5825 2726.1161,-274.1434 2730.0924,-268.3824"/>
</g>
<!-- Node58 -->
<g id="node59" class="node">
<title>Node58</title>
<g id="a_node59"><a xlink:href="../../df/d26/CRU_8h.html" target="_top" xlink:title="TPCBase/CRU.h">
<polygon fill="none" stroke="#000000" points="2583.1974,-358.5 2583.1974,-377.5 2675.1974,-377.5 2675.1974,-358.5 2583.1974,-358.5"/>
<text text-anchor="middle" x="2629.1974" y="-365.5" font-family="Helvetica,sans-Serif" font-size="10.00" fill="#000000">TPCBase/CRU.h</text>
</a>
</g>
</g>
<!-- Node0&#45;&gt;Node58 -->
<g id="edge102" class="edge">
<title>Node0&#45;&gt;Node58</title>
<path fill="none" stroke="#191970" d="M2614.7159,-718.9847C2676.5946,-703.5626 2756.1974,-670.5883 2756.1974,-603 2756.1974,-603 2756.1974,-603 2756.1974,-547 2756.1974,-475.0378 2687.0779,-411.8328 2650.8222,-383.6293"/>
<polygon fill="#191970" stroke="#191970" points="2652.8709,-380.7903 2642.7886,-377.5346 2648.64,-386.3671 2652.8709,-380.7903"/>
</g>
<!-- Node62 -->
<g id="node63" class="node">
<title>Node62</title>
<g id="a_node63"><a xlink:href="../../d6/d2b/TPC_2base_2include_2TPCBase_2CalDet_8h.html" target="_top" xlink:title="TPCBase/CalDet.h">
<polygon fill="none" stroke="#000000" points="2367.1974,-593.5 2367.1974,-612.5 2471.1974,-612.5 2471.1974,-593.5 2367.1974,-593.5"/>
<text text-anchor="middle" x="2419.1974" y="-600.5" font-family="Helvetica,sans-Serif" font-size="10.00" fill="#000000">TPCBase/CalDet.h</text>
</a>
</g>
</g>
<!-- Node0&#45;&gt;Node62 -->
<g id="edge89" class="edge">
<title>Node0&#45;&gt;Node62</title>
<path fill="none" stroke="#191970" d="M2518.1042,-705.4961C2493.3973,-679.8926 2456.3966,-641.5491 2435.3558,-619.7448"/>
<polygon fill="#191970" stroke="#191970" points="2437.841,-617.2797 2428.3784,-612.5142 2432.8038,-622.1405 2437.841,-617.2797"/>
</g>
<!-- Node64 -->
<g id="node65" class="node">
<title>Node64</title>
<g id="a_node65"><a xlink:href="../../de/d7a/Detectors_2TPC_2base_2include_2TPCBase_2Utils_8h.html" target="_top" xlink:title="TPCBase/Utils.h">
<polygon fill="none" stroke="#000000" points="1964.1974,-649.5 1964.1974,-668.5 2058.1974,-668.5 2058.1974,-649.5 1964.1974,-649.5"/>
<text text-anchor="middle" x="2011.1974" y="-656.5" font-family="Helvetica,sans-Serif" font-size="10.00" fill="#000000">TPCBase/Utils.h</text>
</a>
</g>
</g>
<!-- Node0&#45;&gt;Node64 -->
<g id="edge104" class="edge">
<title>Node0&#45;&gt;Node64</title>
<path fill="none" stroke="#191970" d="M2471.4495,-721.7223C2364.6186,-707.1636 2165.8728,-680.0789 2068.2728,-666.7781"/>
<polygon fill="#191970" stroke="#191970" points="2068.6805,-663.3014 2058.2994,-665.419 2067.7352,-670.2373 2068.6805,-663.3014"/>
</g>
<!-- Node65 -->
<g id="node66" class="node">
<title>Node65</title>
<g id="a_node66"><a xlink:href="../../da/d7a/CalibTreeDump_8h.html" target="_top" xlink:title="TPCCalibration/CalibTree\lDump.h">
<polygon fill="none" stroke="#000000" points="2476.6974,-470.5 2476.6974,-500.5 2613.6974,-500.5 2613.6974,-470.5 2476.6974,-470.5"/>
<text text-anchor="start" x="2484.6974" y="-488.5" font-family="Helvetica,sans-Serif" font-size="10.00" fill="#000000">TPCCalibration/CalibTree</text>
<text text-anchor="middle" x="2545.1974" y="-477.5" font-family="Helvetica,sans-Serif" font-size="10.00" fill="#000000">Dump.h</text>
</a>
</g>
</g>
<!-- Node0&#45;&gt;Node65 -->
<g id="edge109" class="edge">
<title>Node0&#45;&gt;Node65</title>
<path fill="none" stroke="#191970" d="M2590.8712,-705.4392C2651.7343,-668.7451 2744.0927,-599.3528 2699.1974,-537 2689.5646,-523.6214 2656.5909,-511.7181 2623.6138,-502.7343"/>
<polygon fill="#191970" stroke="#191970" points="2624.4326,-499.3307 2613.8703,-500.1607 2622.6449,-506.0985 2624.4326,-499.3307"/>
</g>
<!-- Node11&#45;&gt;Node10 -->
<g id="edge20" class="edge">
<title>Node11&#45;&gt;Node10</title>
<path fill="none" stroke="#191970" d="M887.9461,-480.8332C975.2928,-473.6953 1139.7261,-458.2825 1278.1974,-434 1279.4433,-433.7815 1280.7074,-433.5484 1281.9819,-433.3035"/>
<polygon fill="#191970" stroke="#191970" points="1282.756,-436.7174 1291.8272,-431.2435 1281.3223,-429.8658 1282.756,-436.7174"/>
</g>
<!-- Node12 -->
<g id="node13" class="node">
<title>Node12</title>
<polygon fill="none" stroke="#bfbfbf" points="1524.6974,-134.5 1524.6974,-153.5 1571.6974,-153.5 1571.6974,-134.5 1524.6974,-134.5"/>
<text text-anchor="middle" x="1548.1974" y="-141.5" font-family="Helvetica,sans-Serif" font-size="10.00" fill="#000000">cmath</text>
</g>
<!-- Node11&#45;&gt;Node12 -->
<g id="edge12" class="edge">
<title>Node11&#45;&gt;Node12</title>
<path fill="none" stroke="#191970" d="M887.6986,-481.3711C980.2807,-474.4512 1150.5506,-458.784 1206.1974,-434 1244.8989,-416.7631 1465.079,-219.1437 1530.1124,-160.382"/>
<polygon fill="#191970" stroke="#191970" points="1532.51,-162.9328 1537.5791,-153.6293 1527.8147,-157.741 1532.51,-162.9328"/>
</g>
<!-- Node13 -->
<g id="node14" class="node">
<title>Node13</title>
<polygon fill="none" stroke="#bfbfbf" points="1366.1974,-414.5 1366.1974,-433.5 1422.1974,-433.5 1422.1974,-414.5 1366.1974,-414.5"/>
<text text-anchor="middle" x="1394.1974" y="-421.5" font-family="Helvetica,sans-Serif" font-size="10.00" fill="#000000">numeric</text>
</g>
<!-- Node11&#45;&gt;Node13 -->
<g id="edge13" class="edge">
<title>Node11&#45;&gt;Node13</title>
<path fill="none" stroke="#191970" d="M887.9824,-482.8642C985.6359,-477.9621 1181.638,-465.1356 1356.1527,-433.9249"/>
<polygon fill="#191970" stroke="#191970" points="1356.8113,-437.3627 1366.0266,-432.135 1355.5627,-430.4749 1356.8113,-437.3627"/>
</g>
<!-- Node14 -->
<g id="node15" class="node">
<title>Node14</title>
<polygon fill="none" stroke="#bfbfbf" points="163.1974,-414.5 163.1974,-433.5 227.1974,-433.5 227.1974,-414.5 163.1974,-414.5"/>
<text text-anchor="middle" x="195.1974" y="-421.5" font-family="Helvetica,sans-Serif" font-size="10.00" fill="#000000">algorithm</text>
</g>
<!-- Node11&#45;&gt;Node14 -->
<g id="edge14" class="edge">
<title>Node11&#45;&gt;Node14</title>
<path fill="none" stroke="#191970" d="M764.6599,-483.2128C658.7218,-478.6013 435.0258,-465.9116 237.3212,-433.9618"/>
<polygon fill="#191970" stroke="#191970" points="237.7652,-430.488 227.3312,-432.3272 236.6348,-437.3962 237.7652,-430.488"/>
</g>
<!-- Node15 -->
<g id="node16" class="node">
<title>Node15</title>
<polygon fill="none" stroke="#bfbfbf" points="2097.6974,-358.5 2097.6974,-377.5 2144.6974,-377.5 2144.6974,-358.5 2097.6974,-358.5"/>
<text text-anchor="middle" x="2121.1974" y="-365.5" font-family="Helvetica,sans-Serif" font-size="10.00" fill="#000000">vector</text>
</g>
<!-- Node11&#45;&gt;Node15 -->
<g id="edge15" class="edge">
<title>Node11&#45;&gt;Node15</title>
<path fill="none" stroke="#191970" d="M887.7194,-483.7994C969.6395,-480.1981 1118.3674,-468.9743 1240.1974,-434 1260.4563,-428.1842 1262.7434,-419.0874 1283.1974,-414 1431.9842,-376.9931 1819.1498,-387.1337 1972.1974,-378 2011.785,-375.6375 2057.2612,-372.528 2087.455,-370.4076"/>
<polygon fill="#191970" stroke="#191970" points="2087.734,-373.8968 2097.4629,-369.7018 2087.2414,-366.9141 2087.734,-373.8968"/>
</g>
<!-- Node16 -->
<g id="node17" class="node">
<title>Node16</title>
<polygon fill="none" stroke="#bfbfbf" points="1440.1974,-414.5 1440.1974,-433.5 1482.1974,-433.5 1482.1974,-414.5 1440.1974,-414.5"/>
<text text-anchor="middle" x="1461.1974" y="-421.5" font-family="Helvetica,sans-Serif" font-size="10.00" fill="#000000">array</text>
</g>
<!-- Node11&#45;&gt;Node16 -->
<g id="edge16" class="edge">
<title>Node11&#45;&gt;Node16</title>
<path fill="none" stroke="#191970" d="M887.7924,-482.1133C1016.5087,-474.7421 1311.2154,-456.2544 1430.1219,-433.7155"/>
<polygon fill="#191970" stroke="#191970" points="1430.9391,-437.1216 1440.0622,-431.7346 1429.571,-430.2566 1430.9391,-437.1216"/>
</g>
<!-- Node17 -->
<g id="node18" class="node">
<title>Node17</title>
<polygon fill="none" stroke="#bfbfbf" points="561.6974,-73 561.6974,-92 620.6974,-92 620.6974,-73 561.6974,-73"/>
<text text-anchor="middle" x="591.1974" y="-80" font-family="Helvetica,sans-Serif" font-size="10.00" fill="#000000">Rtypes.h</text>
</g>
<!-- Node11&#45;&gt;Node17 -->
<g id="edge17" class="edge">
<title>Node11&#45;&gt;Node17</title>
<path fill="none" stroke="#191970" d="M764.546,-483.4892C581.0129,-477.2505 49.105,-457.2407 20.1974,-434 -3.5923,-414.874 1.1974,-398.5246 1.1974,-368 1.1974,-368 1.1974,-368 1.1974,-200 1.1974,-143.7537 418.9595,-98.9681 551.4154,-86.182"/>
<polygon fill="#191970" stroke="#191970" points="551.9136,-89.6504 561.5349,-85.214 551.247,-82.6822 551.9136,-89.6504"/>
</g>
<!-- Node18 -->
<g id="node19" class="node">
<title>Node18</title>
<polygon fill="none" stroke="#bfbfbf" points="245.1974,-414.5 245.1974,-433.5 331.1974,-433.5 331.1974,-414.5 245.1974,-414.5"/>
<text text-anchor="middle" x="288.1974" y="-421.5" font-family="Helvetica,sans-Serif" font-size="10.00" fill="#000000">TLinearFitter.h</text>
</g>
<!-- Node11&#45;&gt;Node18 -->
<g id="edge18" class="edge">
<title>Node11&#45;&gt;Node18</title>
<path fill="none" stroke="#191970" d="M764.6109,-480.6518C674.0455,-473.1512 499.4454,-457.2809 341.1971,-434.0446"/>
<polygon fill="#191970" stroke="#191970" points="341.6847,-430.5787 331.2797,-432.5754 340.6588,-437.5031 341.6847,-430.5787"/>
</g>
<!-- Node19 -->
<g id="node20" class="node">
<title>Node19</title>
<polygon fill="none" stroke="#bfbfbf" points="349.1974,-414.5 349.1974,-433.5 419.1974,-433.5 419.1974,-414.5 349.1974,-414.5"/>
<text text-anchor="middle" x="384.1974" y="-421.5" font-family="Helvetica,sans-Serif" font-size="10.00" fill="#000000">TVectorD.h</text>
</g>
<!-- Node11&#45;&gt;Node19 -->
<g id="edge19" class="edge">
<title>Node11&#45;&gt;Node19</title>
<path fill="none" stroke="#191970" d="M764.558,-479.3566C688.1664,-471.3344 553.8433,-455.8948 429.2967,-434.0582"/>
<polygon fill="#191970" stroke="#191970" points="429.6581,-430.5678 419.201,-432.27 428.4373,-437.4605 429.6581,-430.5678"/>
</g>
<!-- Node20 -->
<g id="node21" class="node">
<title>Node20</title>
<polygon fill="none" stroke="#bfbfbf" points="437.6974,-414.5 437.6974,-433.5 480.6974,-433.5 480.6974,-414.5 437.6974,-414.5"/>
<text text-anchor="middle" x="459.1974" y="-421.5" font-family="Helvetica,sans-Serif" font-size="10.00" fill="#000000">TF1.h</text>
</g>
<!-- Node11&#45;&gt;Node20 -->
<g id="edge21" class="edge">
<title>Node11&#45;&gt;Node20</title>
<path fill="none" stroke="#191970" d="M764.6264,-479.058C698.9292,-471.5137 591.774,-457.2859 490.5307,-433.7473"/>
<polygon fill="#191970" stroke="#191970" points="491.2896,-430.3303 480.753,-431.4402 489.682,-437.1432 491.2896,-430.3303"/>
</g>
<!-- Node21 -->
<g id="node22" class="node">
<title>Node21</title>
<polygon fill="none" stroke="#bfbfbf" points="499.1974,-414.5 499.1974,-433.5 561.1974,-433.5 561.1974,-414.5 499.1974,-414.5"/>
<text text-anchor="middle" x="530.1974" y="-421.5" font-family="Helvetica,sans-Serif" font-size="10.00" fill="#000000">Foption.h</text>
</g>
<!-- Node11&#45;&gt;Node21 -->
<g id="edge22" class="edge">
<title>Node11&#45;&gt;Node21</title>
<path fill="none" stroke="#191970" d="M775.0492,-475.9354C725.391,-466.4863 647.6577,-451.2658 571.3838,-434.1986"/>
<polygon fill="#191970" stroke="#191970" points="572.1319,-430.7795 561.6074,-431.9989 570.5952,-437.6088 572.1319,-430.7795"/>
</g>
<!-- Node22 -->
<g id="node23" class="node">
<title>Node22</title>
<polygon fill="none" stroke="#bfbfbf" points="579.1974,-414.5 579.1974,-433.5 667.1974,-433.5 667.1974,-414.5 579.1974,-414.5"/>
<text text-anchor="middle" x="623.1974" y="-421.5" font-family="Helvetica,sans-Serif" font-size="10.00" fill="#000000">HFitInterface.h</text>
</g>
<!-- Node11&#45;&gt;Node22 -->
<g id="edge23" class="edge">
<title>Node11&#45;&gt;Node22</title>
<path fill="none" stroke="#191970" d="M794.4787,-475.8906C759.4702,-465.2846 702.9955,-448.1753 664.5423,-436.5257"/>
<polygon fill="#191970" stroke="#191970" points="665.2787,-433.0917 654.6934,-433.5419 663.2491,-439.791 665.2787,-433.0917"/>
</g>
<!-- Node23 -->
<g id="node24" class="node">
<title>Node23</title>
<polygon fill="none" stroke="#bfbfbf" points="685.1974,-414.5 685.1974,-433.5 771.1974,-433.5 771.1974,-414.5 685.1974,-414.5"/>
<text text-anchor="middle" x="728.1974" y="-421.5" font-family="Helvetica,sans-Serif" font-size="10.00" fill="#000000">TFitResultPtr.h</text>
</g>
<!-- Node11&#45;&gt;Node23 -->
<g id="edge24" class="edge">
<title>Node11&#45;&gt;Node23</title>
<path fill="none" stroke="#191970" d="M810.8849,-475.8906C795.135,-466.0067 770.3851,-450.4749 752.0637,-438.9773"/>
<polygon fill="#191970" stroke="#191970" points="753.7331,-435.8929 743.4024,-433.5419 750.0122,-441.8221 753.7331,-435.8929"/>
</g>
<!-- Node24 -->
<g id="node25" class="node">
<title>Node24</title>
<polygon fill="none" stroke="#bfbfbf" points="789.6974,-414.5 789.6974,-433.5 862.6974,-433.5 862.6974,-414.5 789.6974,-414.5"/>
<text text-anchor="middle" x="826.1974" y="-421.5" font-family="Helvetica,sans-Serif" font-size="10.00" fill="#000000">TFitResult.h</text>
</g>
<!-- Node11&#45;&gt;Node24 -->
<g id="edge25" class="edge">
<title>Node11&#45;&gt;Node24</title>
<path fill="none" stroke="#191970" d="M826.1974,-475.8906C826.1974,-467.3657 826.1974,-454.6392 826.1974,-443.9235"/>
<polygon fill="#191970" stroke="#191970" points="829.6975,-443.7448 826.1974,-433.7449 822.6975,-443.7449 829.6975,-443.7448"/>
</g>
<!-- Node25 -->
<g id="node26" class="node">
<title>Node25</title>
<polygon fill="none" stroke="#bfbfbf" points="881.1974,-414.5 881.1974,-433.5 945.1974,-433.5 945.1974,-414.5 881.1974,-414.5"/>
<text text-anchor="middle" x="913.1974" y="-421.5" font-family="Helvetica,sans-Serif" font-size="10.00" fill="#000000">Fit/Fitter.h</text>
</g>
<!-- Node11&#45;&gt;Node25 -->
<g id="edge26" class="edge">
<title>Node11&#45;&gt;Node25</title>
<path fill="none" stroke="#191970" d="M839.7912,-475.8906C853.5817,-466.1421 875.1446,-450.8994 891.3384,-439.4521"/>
<polygon fill="#191970" stroke="#191970" points="893.5537,-442.1723 899.6991,-433.5419 889.513,-436.4563 893.5537,-442.1723"/>
</g>
<!-- Node26 -->
<g id="node27" class="node">
<title>Node26</title>
<polygon fill="none" stroke="#bfbfbf" points="963.6974,-414.5 963.6974,-433.5 1042.6974,-433.5 1042.6974,-414.5 963.6974,-414.5"/>
<text text-anchor="middle" x="1003.1974" y="-421.5" font-family="Helvetica,sans-Serif" font-size="10.00" fill="#000000">Fit/BinData.h</text>
</g>
<!-- Node11&#45;&gt;Node26 -->
<g id="edge27" class="edge">
<title>Node11&#45;&gt;Node26</title>
<path fill="none" stroke="#191970" d="M853.8537,-475.8906C884.1185,-465.3749 932.7829,-448.466 966.2885,-436.8243"/>
<polygon fill="#191970" stroke="#191970" points="967.4381,-440.1302 975.7354,-433.5419 965.1406,-433.5179 967.4381,-440.1302"/>
</g>
<!-- Node27 -->
<g id="node28" class="node">
<title>Node27</title>
<polygon fill="none" stroke="#bfbfbf" points="1060.6974,-414.5 1060.6974,-433.5 1197.6974,-433.5 1197.6974,-414.5 1060.6974,-414.5"/>
<text text-anchor="middle" x="1129.1974" y="-421.5" font-family="Helvetica,sans-Serif" font-size="10.00" fill="#000000">Math/WrappedMultiTF1.h</text>
</g>
<!-- Node11&#45;&gt;Node27 -->
<g id="edge28" class="edge">
<title>Node11&#45;&gt;Node27</title>
<path fill="none" stroke="#191970" d="M873.2087,-475.9581C926.8376,-465.073 1014.525,-447.2751 1072.0536,-435.5985"/>
<polygon fill="#191970" stroke="#191970" points="1072.9719,-438.9836 1082.0758,-433.5643 1071.5794,-432.1234 1072.9719,-438.9836"/>
</g>
<!-- Node28 -->
<g id="node29" class="node">
<title>Node28</title>
<g id="a_node29"><a xlink:href="../../dd/da4/Logger_8h.html" target="_top" xlink:title="Framework/Logger.h">
<polygon fill="none" stroke="#000000" points="29.6974,-414.5 29.6974,-433.5 144.6974,-433.5 144.6974,-414.5 29.6974,-414.5"/>
<text text-anchor="middle" x="87.1974" y="-421.5" font-family="Helvetica,sans-Serif" font-size="10.00" fill="#000000">Framework/Logger.h</text>
</a>
</g>
</g>
<!-- Node11&#45;&gt;Node28 -->
<g id="edge29" class="edge">
<title>Node11&#45;&gt;Node28</title>
<path fill="none" stroke="#191970" d="M764.4457,-482.2517C647.6362,-475.7834 386.1181,-459.7582 155.1849,-434.0352"/>
<polygon fill="#191970" stroke="#191970" points="155.2345,-430.5188 144.9065,-432.8815 154.4537,-437.4752 155.2345,-430.5188"/>
</g>
<!-- Node29 -->
<g id="node30" class="node">
<title>Node29</title>
<polygon fill="none" stroke="#bfbfbf" points="33.1974,-358.5 33.1974,-377.5 141.1974,-377.5 141.1974,-358.5 33.1974,-358.5"/>
<text text-anchor="middle" x="87.1974" y="-365.5" font-family="Helvetica,sans-Serif" font-size="10.00" fill="#000000">fairlogger/Logger.h</text>
</g>
<!-- Node28&#45;&gt;Node29 -->
<g id="edge30" class="edge">
<title>Node28&#45;&gt;Node29</title>
<path fill="none" stroke="#191970" d="M87.1974,-414.2455C87.1974,-406.9382 87.1974,-396.6944 87.1974,-387.7046"/>
<polygon fill="#191970" stroke="#191970" points="90.6975,-387.6426 87.1974,-377.6427 83.6975,-387.6427 90.6975,-387.6426"/>
</g>
<!-- Node30&#45;&gt;Node13 -->
<g id="edge36" class="edge">
<title>Node30&#45;&gt;Node13</title>
<path fill="none" stroke="#191970" d="M2026.1561,-543.3313C1937.6427,-536.979 1769.8194,-522.5137 1714.1974,-501 1691.8865,-492.3705 1692.3981,-478.9094 1670.1974,-470 1573.4258,-431.1644 1538.3892,-454.5795 1432.2106,-433.9683"/>
<polygon fill="#191970" stroke="#191970" points="1432.8949,-430.5359 1422.3988,-431.9789 1431.5038,-437.3963 1432.8949,-430.5359"/>
</g>
<!-- Node30&#45;&gt;Node15 -->
<g id="edge34" class="edge">
<title>Node30&#45;&gt;Node15</title>
<path fill="none" stroke="#191970" d="M2079.9927,-537.3328C2077.0429,-522.3119 2073.1594,-492.7328 2082.1974,-470 2090.3282,-449.5492 2107.2994,-454.1289 2116.1974,-434 2122.5857,-419.5486 2123.554,-401.5811 2123.0816,-388.0435"/>
<polygon fill="#191970" stroke="#191970" points="2126.5634,-387.645 2122.4333,-377.8884 2119.5776,-388.0911 2126.5634,-387.645"/>
</g>
<!-- Node31 -->
<g id="node32" class="node">
<title>Node31</title>
<polygon fill="none" stroke="#bfbfbf" points="1886.1974,-476 1886.1974,-495 1930.1974,-495 1930.1974,-476 1886.1974,-476"/>
<text text-anchor="middle" x="1908.1974" y="-483" font-family="Helvetica,sans-Serif" font-size="10.00" fill="#000000">Vc/Vc</text>
</g>
<!-- Node30&#45;&gt;Node31 -->
<g id="edge32" class="edge">
<title>Node30&#45;&gt;Node31</title>
<path fill="none" stroke="#191970" d="M2048.4519,-537.4974C2019.3847,-528.975 1976.5046,-515.5931 1940.1974,-501 1938.8371,-500.4532 1937.4538,-499.8745 1936.0634,-499.2745"/>
<polygon fill="#191970" stroke="#191970" points="1937.5055,-496.0854 1926.9549,-495.1179 1934.5993,-502.4536 1937.5055,-496.0854"/>
</g>
<!-- Node32 -->
<g id="node33" class="node">
<title>Node32</title>
<polygon fill="none" stroke="#bfbfbf" points="2324.1974,-476 2324.1974,-495 2382.1974,-495 2382.1974,-476 2324.1974,-476"/>
<text text-anchor="middle" x="2353.1974" y="-483" font-family="Helvetica,sans-Serif" font-size="10.00" fill="#000000">memory</text>
</g>
<!-- Node30&#45;&gt;Node32 -->
<g id="edge33" class="edge">
<title>Node30&#45;&gt;Node32</title>
<path fill="none" stroke="#191970" d="M2138.2932,-539.2446C2186.1903,-531.8501 2256.5857,-519.1405 2316.1974,-501 2318.3628,-500.341 2320.5748,-499.5996 2322.7865,-498.8072"/>
<polygon fill="#191970" stroke="#191970" points="2324.2781,-501.9828 2332.3371,-495.105 2321.7481,-495.456 2324.2781,-501.9828"/>
</g>
<!-- Node33 -->
<g id="node34" class="node">
<title>Node33</title>
<polygon fill="none" stroke="#bfbfbf" points="2450.1974,-414.5 2450.1974,-433.5 2494.1974,-433.5 2494.1974,-414.5 2450.1974,-414.5"/>
<text text-anchor="middle" x="2472.1974" y="-421.5" font-family="Helvetica,sans-Serif" font-size="10.00" fill="#000000">string</text>
</g>
<!-- Node30&#45;&gt;Node33 -->
<g id="edge35" class="edge">
<title>Node30&#45;&gt;Node33</title>
<path fill="none" stroke="#191970" d="M2081.8005,-537.4176C2081.6886,-520.8329 2084.1042,-486.933 2104.1974,-470 2160.9444,-422.178 2363.3154,-447.9773 2436.1974,-434 2437.4516,-433.7595 2438.7258,-433.4968 2440.0095,-433.2168"/>
<polygon fill="#191970" stroke="#191970" points="2440.978,-436.5832 2449.8626,-430.8115 2439.3178,-429.7829 2440.978,-436.5832"/>
</g>
<!-- Node34 -->
<g id="node35" class="node">
<title>Node34</title>
<polygon fill="none" stroke="#bfbfbf" points="1948.6974,-476 1948.6974,-495 2017.6974,-495 2017.6974,-476 1948.6974,-476"/>
<text text-anchor="middle" x="1983.1974" y="-483" font-family="Helvetica,sans-Serif" font-size="10.00" fill="#000000">type_traits</text>
</g>
<!-- Node30&#45;&gt;Node34 -->
<g id="edge37" class="edge">
<title>Node30&#45;&gt;Node34</title>
<path fill="none" stroke="#191970" d="M2066.7287,-537.3906C2050.7454,-527.4616 2025.5871,-511.833 2007.0541,-500.3201"/>
<polygon fill="#191970" stroke="#191970" points="2008.8989,-497.3457 1998.5575,-495.0419 2005.2051,-503.2918 2008.8989,-497.3457"/>
</g>
<!-- Node35 -->
<g id="node36" class="node">
<title>Node35</title>
<polygon fill="none" stroke="#bfbfbf" points="2112.6974,-476 2112.6974,-495 2213.6974,-495 2213.6974,-476 2112.6974,-476"/>
<text text-anchor="middle" x="2163.1974" y="-483" font-family="Helvetica,sans-Serif" font-size="10.00" fill="#000000">boost/format.hpp</text>
</g>
<!-- Node30&#45;&gt;Node35 -->
<g id="edge38" class="edge">
<title>Node30&#45;&gt;Node35</title>
<path fill="none" stroke="#191970" d="M2094.8537,-537.3906C2107.5743,-527.7324 2127.3978,-512.6812 2142.4258,-501.271"/>
<polygon fill="#191970" stroke="#191970" points="2144.7821,-503.8766 2150.63,-495.0419 2140.5491,-498.3015 2144.7821,-503.8766"/>
</g>
<!-- Node36 -->
<g id="node37" class="node">
<title>Node36</title>
<polygon fill="none" stroke="#bfbfbf" points="2231.6974,-476 2231.6974,-495 2306.6974,-495 2306.6974,-476 2231.6974,-476"/>
<text text-anchor="middle" x="2269.1974" y="-483" font-family="Helvetica,sans-Serif" font-size="10.00" fill="#000000">FairLogger.h</text>
</g>
<!-- Node30&#45;&gt;Node36 -->
<g id="edge39" class="edge">
<title>Node30&#45;&gt;Node36</title>
<path fill="none" stroke="#191970" d="M2111.6606,-537.4794C2140.2051,-528.234 2184.7039,-513.7641 2223.1974,-501 2225.8971,-500.1048 2228.6844,-499.1763 2231.4894,-498.2387"/>
<polygon fill="#191970" stroke="#191970" points="2232.6243,-501.5498 2240.9924,-495.0517 2230.3985,-494.913 2232.6243,-501.5498"/>
</g>
<!-- Node30&#45;&gt;Node37 -->
<g id="edge40" class="edge">
<title>Node30&#45;&gt;Node37</title>
<path fill="none" stroke="#191970" d="M2034.7207,-537.4581C1980.4816,-526.5571 1891.7462,-508.723 1833.6524,-497.0473"/>
<polygon fill="#191970" stroke="#191970" points="1834.0274,-493.5528 1823.5338,-495.0137 1832.6481,-500.4155 1834.0274,-493.5528"/>
</g>
<!-- Node37&#45;&gt;Node12 -->
<g id="edge45" class="edge">
<title>Node37&#45;&gt;Node12</title>
<path fill="none" stroke="#191970" d="M1734.0268,-475.932C1702.4383,-467.6697 1658.8775,-453.8972 1624.1974,-434 1585.3936,-411.7368 1548.1974,-412.7368 1548.1974,-368 1548.1974,-368 1548.1974,-368 1548.1974,-256 1548.1974,-223.7116 1548.1974,-186.1872 1548.1974,-163.8048"/>
<polygon fill="#191970" stroke="#191970" points="1551.6975,-163.5883 1548.1974,-153.5884 1544.6975,-163.5884 1551.6975,-163.5883"/>
</g>
<!-- Node37&#45;&gt;Node15 -->
<g id="edge42" class="edge">
<title>Node37&#45;&gt;Node15</title>
<path fill="none" stroke="#191970" d="M1816.7621,-475.9262C1825.7771,-473.89 1835.2984,-471.8101 1844.1974,-470 1933.1311,-451.9103 1963.3264,-473.161 2045.1974,-434 2069.4061,-422.4204 2091.9181,-400.9845 2106.058,-385.6836"/>
<polygon fill="#191970" stroke="#191970" points="2108.949,-387.7016 2113.0099,-377.9159 2103.7329,-383.0334 2108.949,-387.7016"/>
</g>
<!-- Node37&#45;&gt;Node16 -->
<g id="edge43" class="edge">
<title>Node37&#45;&gt;Node16</title>
<path fill="none" stroke="#191970" d="M1736.0052,-475.9473C1726.8832,-473.8883 1717.2233,-471.7936 1708.1974,-470 1614.4592,-451.3728 1589.3966,-455.1597 1496.1974,-434 1494.9148,-433.7088 1493.6094,-433.3989 1492.2934,-433.0751"/>
<polygon fill="#191970" stroke="#191970" points="1492.7622,-429.5789 1482.1997,-430.4064 1490.9729,-436.3463 1492.7622,-429.5789"/>
</g>
<!-- Node37&#45;&gt;Node33 -->
<g id="edge44" class="edge">
<title>Node37&#45;&gt;Node33</title>
<path fill="none" stroke="#191970" d="M1829.809,-476.375C1845.0839,-474.0193 1861.7658,-471.6777 1877.1974,-470 2124.6981,-443.0917 2190.7279,-475.5377 2436.1974,-434 2437.4566,-433.7869 2438.735,-433.5475 2440.0222,-433.287"/>
<polygon fill="#191970" stroke="#191970" points="2440.9574,-436.6626 2449.8905,-430.9661 2439.3548,-429.8485 2440.9574,-436.6626"/>
</g>
<!-- Node38 -->
<g id="node39" class="node">
<title>Node38</title>
<polygon fill="none" stroke="#bfbfbf" points="1690.1974,-414.5 1690.1974,-433.5 1728.1974,-433.5 1728.1974,-414.5 1690.1974,-414.5"/>
<text text-anchor="middle" x="1709.1974" y="-421.5" font-family="Helvetica,sans-Serif" font-size="10.00" fill="#000000">map</text>
</g>
<!-- Node37&#45;&gt;Node38 -->
<g id="edge41" class="edge">
<title>Node37&#45;&gt;Node38</title>
<path fill="none" stroke="#191970" d="M1765.7287,-475.8906C1755.4637,-466.4683 1739.6071,-451.9134 1727.2969,-440.6137"/>
<polygon fill="#191970" stroke="#191970" points="1729.5476,-437.9287 1719.8138,-433.7449 1724.814,-443.0856 1729.5476,-437.9287"/>
</g>
<!-- Node39 -->
<g id="node40" class="node">
<title>Node39</title>
<g id="a_node40"><a xlink:href="../../d1/d73/Defs_8h.html" target="_top" xlink:title="Common definitions for 2D coordinates. ">
<polygon fill="none" stroke="#000000" points="2227.6974,-190.5 2227.6974,-209.5 2360.6974,-209.5 2360.6974,-190.5 2227.6974,-190.5"/>
<text text-anchor="middle" x="2294.1974" y="-197.5" font-family="Helvetica,sans-Serif" font-size="10.00" fill="#000000">DataFormatsTPC/Defs.h</text>
</a>
</g>
</g>
<!-- Node37&#45;&gt;Node39 -->
<g id="edge46" class="edge">
<title>Node37&#45;&gt;Node39</title>
<path fill="none" stroke="#191970" d="M1750.9669,-475.8968C1699.2832,-455.4386 1586.1974,-406.2994 1586.1974,-368 1586.1974,-368 1586.1974,-368 1586.1974,-312 1586.1974,-248.6419 2034.2425,-215.2103 2217.4863,-204.1867"/>
<polygon fill="#191970" stroke="#191970" points="2217.8161,-207.6734 2227.5905,-203.5855 2217.4002,-200.6857 2217.8161,-207.6734"/>
</g>
<!-- Node51 -->
<g id="node52" class="node">
<title>Node51</title>
<g id="a_node52"><a xlink:href="../../de/d41/PadPos_8h.html" target="_top" xlink:title="TPCBase/PadPos.h">
<polygon fill="none" stroke="#000000" points="1935.1974,-302.5 1935.1974,-321.5 2041.1974,-321.5 2041.1974,-302.5 1935.1974,-302.5"/>
<text text-anchor="middle" x="1988.1974" y="-309.5" font-family="Helvetica,sans-Serif" font-size="10.00" fill="#000000">TPCBase/PadPos.h</text>
</a>
</g>
</g>
<!-- Node37&#45;&gt;Node51 -->
<g id="edge61" class="edge">
<title>Node37&#45;&gt;Node51</title>
<path fill="none" stroke="#191970" d="M1737.9001,-475.9332C1700.3362,-464.6112 1651.4887,-443.5006 1672.1974,-414 1701.5586,-372.1735 1841.8135,-339.359 1925.2807,-323.1351"/>
<polygon fill="#191970" stroke="#191970" points="1926.005,-326.5601 1935.1668,-321.2394 1924.6866,-319.6854 1926.005,-326.5601"/>
</g>
<!-- Node52 -->
<g id="node53" class="node">
<title>Node52</title>
<g id="a_node53"><a xlink:href="../../dd/d0b/PadSecPos_8h.html" target="_top" xlink:title="TPCBase/PadSecPos.h">
<polygon fill="none" stroke="#000000" points="2322.6974,-358.5 2322.6974,-377.5 2445.6974,-377.5 2445.6974,-358.5 2322.6974,-358.5"/>
<text text-anchor="middle" x="2384.1974" y="-365.5" font-family="Helvetica,sans-Serif" font-size="10.00" fill="#000000">TPCBase/PadSecPos.h</text>
</a>
</g>
</g>
<!-- Node37&#45;&gt;Node52 -->
<g id="edge62" class="edge">
<title>Node37&#45;&gt;Node52</title>
<path fill="none" stroke="#191970" d="M1829.8194,-476.4685C1845.0944,-474.114 1861.7738,-471.7497 1877.1974,-470 1931.2205,-463.8716 2322.9919,-468.2745 2365.1974,-434 2378.6215,-423.0985 2382.9335,-403.366 2384.1494,-388.3074"/>
<polygon fill="#191970" stroke="#191970" points="2387.6623,-388.0619 2384.5753,-377.9268 2380.6682,-387.7749 2387.6623,-388.0619"/>
</g>
<!-- Node37&#45;&gt;Node53 -->
<g id="edge88" class="edge">
<title>Node37&#45;&gt;Node53</title>
<path fill="none" stroke="#191970" d="M1829.8162,-476.4396C1845.0911,-474.0847 1861.7713,-471.7274 1877.1974,-470 2102.1356,-444.8121 2163.6801,-480.494 2385.1974,-434 2411.0624,-428.5712 2415.5584,-420.4117 2441.1974,-414 2494.1559,-400.7563 2645.3006,-416.3019 2684.1974,-378 2711.3622,-351.2507 2710.459,-302.8875 2707.3599,-275.7816"/>
<polygon fill="#191970" stroke="#191970" points="2710.7896,-275.0278 2705.9727,-265.5913 2703.8536,-275.9721 2710.7896,-275.0278"/>
</g>
<!-- Node55 -->
<g id="node56" class="node">
<title>Node55</title>
<g id="a_node56"><a xlink:href="../../da/d61/PadROCPos_8h.html" target="_top" xlink:title="TPCBase/PadROCPos.h">
<polygon fill="none" stroke="#000000" points="1835.6974,-358.5 1835.6974,-377.5 1962.6974,-377.5 1962.6974,-358.5 1835.6974,-358.5"/>
<text text-anchor="middle" x="1899.1974" y="-365.5" font-family="Helvetica,sans-Serif" font-size="10.00" fill="#000000">TPCBase/PadROCPos.h</text>
</a>
</g>
</g>
<!-- Node37&#45;&gt;Node55 -->
<g id="edge67" class="edge">
<title>Node37&#45;&gt;Node55</title>
<path fill="none" stroke="#191970" d="M1743.7536,-475.9418C1708.2391,-463.8422 1659.0931,-441.2553 1681.1974,-414 1699.2317,-391.7632 1769.3062,-379.8619 1825.2041,-373.7786"/>
<polygon fill="#191970" stroke="#191970" points="1825.8777,-377.2275 1835.4608,-372.7093 1825.1517,-370.2652 1825.8777,-377.2275"/>
</g>
<!-- Node57 -->
<g id="node58" class="node">
<title>Node57</title>
<g id="a_node58"><a xlink:href="../../d3/d54/DigitPos_8h.html" target="_top" xlink:title="TPCBase/DigitPos.h">
<polygon fill="none" stroke="#000000" points="2244.1974,-414.5 2244.1974,-433.5 2356.1974,-433.5 2356.1974,-414.5 2244.1974,-414.5"/>
<text text-anchor="middle" x="2300.1974" y="-421.5" font-family="Helvetica,sans-Serif" font-size="10.00" fill="#000000">TPCBase/DigitPos.h</text>
</a>
</g>
</g>
<!-- Node37&#45;&gt;Node57 -->
<g id="edge73" class="edge">
<title>Node37&#45;&gt;Node57</title>
<path fill="none" stroke="#191970" d="M1829.8619,-476.8158C1845.1374,-474.4658 1861.8065,-472.0169 1877.1974,-470 2003.0552,-453.5074 2150.5342,-438.4304 2233.9051,-430.2992"/>
<polygon fill="#191970" stroke="#191970" points="2234.3818,-433.7694 2243.9963,-429.3184 2233.7046,-426.8022 2234.3818,-433.7694"/>
</g>
<!-- Node59 -->
<g id="node60" class="node">
<title>Node59</title>
<g id="a_node60"><a xlink:href="../../d1/d1f/FECInfo_8h.html" target="_top" xlink:title="TPCBase/FECInfo.h">
<polygon fill="none" stroke="#000000" points="1188.1974,-246.5 1188.1974,-265.5 1296.1974,-265.5 1296.1974,-246.5 1188.1974,-246.5"/>
<text text-anchor="middle" x="1242.1974" y="-253.5" font-family="Helvetica,sans-Serif" font-size="10.00" fill="#000000">TPCBase/FECInfo.h</text>
</a>
</g>
</g>
<!-- Node37&#45;&gt;Node59 -->
<g id="edge81" class="edge">
<title>Node37&#45;&gt;Node59</title>
<path fill="none" stroke="#191970" d="M1733.6445,-475.9949C1724.589,-473.9953 1715.0802,-471.913 1706.1974,-470 1629.847,-453.5573 1606.8169,-462.743 1534.1974,-434 1477.4736,-411.5486 1323.6503,-310.4366 1265.176,-271.4229"/>
<polygon fill="#191970" stroke="#191970" points="1266.8981,-268.364 1256.6394,-265.7162 1263.0077,-274.1835 1266.8981,-268.364"/>
</g>
<!-- Node60 -->
<g id="node61" class="node">
<title>Node60</title>
<g id="a_node61"><a xlink:href="../../da/d9d/PadRegionInfo_8h.html" target="_top" xlink:title="TPCBase/PadRegionInfo.h">
<polygon fill="none" stroke="#000000" points="1896.1974,-414.5 1896.1974,-433.5 2036.1974,-433.5 2036.1974,-414.5 1896.1974,-414.5"/>
<text text-anchor="middle" x="1966.1974" y="-421.5" font-family="Helvetica,sans-Serif" font-size="10.00" fill="#000000">TPCBase/PadRegionInfo.h</text>
</a>
</g>
</g>
<!-- Node37&#45;&gt;Node60 -->
<g id="edge83" class="edge">
<title>Node37&#45;&gt;Node60</title>
<path fill="none" stroke="#191970" d="M1805.8849,-475.8906C1838.512,-465.3298 1891.06,-448.3208 1927.0399,-436.6747"/>
<polygon fill="#191970" stroke="#191970" points="1928.2822,-439.9514 1936.7184,-433.5419 1926.1265,-433.2916 1928.2822,-439.9514"/>
</g>
<!-- Node61 -->
<g id="node62" class="node">
<title>Node61</title>
<g id="a_node62"><a xlink:href="../../d6/d42/PartitionInfo_8h.html" target="_top" xlink:title="TPCBase/PartitionInfo.h">
<polygon fill="none" stroke="#000000" points="1746.6974,-414.5 1746.6974,-433.5 1877.6974,-433.5 1877.6974,-414.5 1746.6974,-414.5"/>
<text text-anchor="middle" x="1812.1974" y="-421.5" font-family="Helvetica,sans-Serif" font-size="10.00" fill="#000000">TPCBase/PartitionInfo.h</text>
</a>
</g>
</g>
<!-- Node37&#45;&gt;Node61 -->
<g id="edge87" class="edge">
<title>Node37&#45;&gt;Node61</title>
<path fill="none" stroke="#191970" d="M1781.8224,-475.8906C1787.0227,-467.0068 1794.894,-453.5601 1801.3207,-442.5811"/>
<polygon fill="#191970" stroke="#191970" points="1804.4618,-444.1432 1806.4931,-433.7449 1798.4207,-440.6069 1804.4618,-444.1432"/>
</g>
<!-- Node39&#45;&gt;Node12 -->
<g id="edge47" class="edge">
<title>Node39&#45;&gt;Node12</title>
<path fill="none" stroke="#191970" d="M2227.2851,-196.1367C2108.8219,-189.1088 1854.4652,-173.1734 1640.1974,-154 1620.9821,-152.2805 1599.5517,-149.974 1582.2118,-148.0094"/>
<polygon fill="#191970" stroke="#191970" points="1582.3339,-144.5006 1572.0003,-146.8387 1581.5365,-151.455 1582.3339,-144.5006"/>
</g>
<!-- Node40 -->
<g id="node41" class="node">
<title>Node40</title>
<g id="a_node41"><a xlink:href="../../d2/dd0/Cartesian2D_8h.html" target="_top" xlink:title="MathUtils/Cartesian2D.h">
<polygon fill="none" stroke="#000000" points="2283.6974,-73 2283.6974,-92 2418.6974,-92 2418.6974,-73 2283.6974,-73"/>
<text text-anchor="middle" x="2351.1974" y="-80" font-family="Helvetica,sans-Serif" font-size="10.00" fill="#000000">MathUtils/Cartesian2D.h</text>
</a>
</g>
</g>
<!-- Node39&#45;&gt;Node40 -->
<g id="edge48" class="edge">
<title>Node39&#45;&gt;Node40</title>
<path fill="none" stroke="#191970" d="M2298.862,-190.3845C2308.2979,-170.9331 2329.7975,-126.6138 2342.1035,-101.2462"/>
<polygon fill="#191970" stroke="#191970" points="2345.2528,-102.7733 2346.4684,-92.2484 2338.9547,-99.718 2345.2528,-102.7733"/>
</g>
<!-- Node43 -->
<g id="node44" class="node">
<title>Node43</title>
<g id="a_node44"><a xlink:href="../../dd/d76/Cartesian3D_8h.html" target="_top" xlink:title="MathUtils/Cartesian3D.h">
<polygon fill="none" stroke="#000000" points="1649.6974,-134.5 1649.6974,-153.5 1784.6974,-153.5 1784.6974,-134.5 1649.6974,-134.5"/>
<text text-anchor="middle" x="1717.1974" y="-141.5" font-family="Helvetica,sans-Serif" font-size="10.00" fill="#000000">MathUtils/Cartesian3D.h</text>
</a>
</g>
</g>
<!-- Node39&#45;&gt;Node43 -->
<g id="edge51" class="edge">
<title>Node39&#45;&gt;Node43</title>
<path fill="none" stroke="#191970" d="M2227.4445,-193.5214C2120.0362,-183.097 1909.3694,-162.651 1795.2013,-151.5706"/>
<polygon fill="#191970" stroke="#191970" points="1795.4247,-148.0759 1785.1333,-150.5934 1794.7484,-155.0432 1795.4247,-148.0759"/>
</g>
<!-- Node41 -->
<g id="node42" class="node">
<title>Node41</title>
<polygon fill="none" stroke="#bfbfbf" points="2171.1974,-.5 2171.1974,-30.5 2335.1974,-30.5 2335.1974,-.5 2171.1974,-.5"/>
<text text-anchor="start" x="2179.1974" y="-18.5" font-family="Helvetica,sans-Serif" font-size="10.00" fill="#000000">Math/GenVector/Displacement</text>
<text text-anchor="middle" x="2253.1974" y="-7.5" font-family="Helvetica,sans-Serif" font-size="10.00" fill="#000000">Vector2D.h</text>
</g>
<!-- Node40&#45;&gt;Node41 -->
<g id="edge49" class="edge">
<title>Node40&#45;&gt;Node41</title>
<path fill="none" stroke="#191970" d="M2337.1564,-72.9005C2323.2386,-63.3853 2301.4695,-48.5023 2283.5854,-36.2755"/>
<polygon fill="#191970" stroke="#191970" points="2285.4001,-33.2763 2275.1696,-30.5218 2281.4494,-39.0549 2285.4001,-33.2763"/>
</g>
<!-- Node42 -->
<g id="node43" class="node">
<title>Node42</title>
<polygon fill="none" stroke="#bfbfbf" points="2353.6974,-6 2353.6974,-25 2542.6974,-25 2542.6974,-6 2353.6974,-6"/>
<text text-anchor="middle" x="2448.1974" y="-13" font-family="Helvetica,sans-Serif" font-size="10.00" fill="#000000">Math/GenVector/PositionVector2D.h</text>
</g>
<!-- Node40&#45;&gt;Node42 -->
<g id="edge50" class="edge">
<title>Node40&#45;&gt;Node42</title>
<path fill="none" stroke="#191970" d="M2365.0952,-72.9005C2381.0138,-61.9052 2407.3095,-43.7422 2426.0573,-30.7927"/>
<polygon fill="#191970" stroke="#191970" points="2428.0866,-33.6448 2434.3255,-25.0817 2424.1083,-27.8852 2428.0866,-33.6448"/>
</g>
<!-- Node43&#45;&gt;Node17 -->
<g id="edge57" class="edge">
<title>Node43&#45;&gt;Node17</title>
<path fill="none" stroke="#191970" d="M1649.6241,-138.7868C1627.5047,-137.1554 1602.8089,-135.4138 1580.1974,-134 1211.3808,-110.9394 764.7365,-90.2996 630.9173,-84.2706"/>
<polygon fill="#191970" stroke="#191970" points="630.8885,-80.7659 620.7414,-83.8132 630.5741,-87.7588 630.8885,-80.7659"/>
</g>
<!-- Node43&#45;&gt;Node40 -->
<g id="edge60" class="edge">
<title>Node43&#45;&gt;Node40</title>
<path fill="none" stroke="#191970" d="M1784.9137,-141.0196C1890.1992,-135.8005 2099.3387,-123.0909 2275.1974,-98 2282.9773,-96.89 2291.1598,-95.4806 2299.1568,-93.9659"/>
<polygon fill="#191970" stroke="#191970" points="2300.0046,-97.3664 2309.1431,-92.0057 2298.6562,-90.4975 2300.0046,-97.3664"/>
</g>
<!-- Node44 -->
<g id="node45" class="node">
<title>Node44</title>
<polygon fill="none" stroke="#bfbfbf" points="1894.1974,-67.5 1894.1974,-97.5 2058.1974,-97.5 2058.1974,-67.5 1894.1974,-67.5"/>
<text text-anchor="start" x="1902.1974" y="-85.5" font-family="Helvetica,sans-Serif" font-size="10.00" fill="#000000">Math/GenVector/Displacement</text>
<text text-anchor="middle" x="1976.1974" y="-74.5" font-family="Helvetica,sans-Serif" font-size="10.00" fill="#000000">Vector3D.h</text>
</g>
<!-- Node43&#45;&gt;Node44 -->
<g id="edge52" class="edge">
<title>Node43&#45;&gt;Node44</title>
<path fill="none" stroke="#191970" d="M1757.382,-134.4581C1796.1161,-125.2606 1855.6356,-111.1276 1902.8256,-99.9223"/>
<polygon fill="#191970" stroke="#191970" points="1903.7756,-103.2941 1912.6964,-97.5784 1902.1583,-96.4835 1903.7756,-103.2941"/>
</g>
<!-- Node45 -->
<g id="node46" class="node">
<title>Node45</title>
<polygon fill="none" stroke="#bfbfbf" points="2076.6974,-73 2076.6974,-92 2265.6974,-92 2265.6974,-73 2076.6974,-73"/>
<text text-anchor="middle" x="2171.1974" y="-80" font-family="Helvetica,sans-Serif" font-size="10.00" fill="#000000">Math/GenVector/PositionVector3D.h</text>
</g>
<!-- Node43&#45;&gt;Node45 -->
<g id="edge53" class="edge">
<title>Node43&#45;&gt;Node45</title>
<path fill="none" stroke="#191970" d="M1784.9954,-135.4418C1855.5378,-126.4545 1969.1788,-111.7445 2067.1974,-98 2077.3353,-96.5784 2088.0221,-95.0359 2098.5309,-93.4936"/>
<polygon fill="#191970" stroke="#191970" points="2099.1459,-96.9409 2108.5281,-92.019 2098.1244,-90.0158 2099.1459,-96.9409"/>
</g>
<!-- Node46 -->
<g id="node47" class="node">
<title>Node46</title>
<polygon fill="none" stroke="#bfbfbf" points="1238.1974,-73 1238.1974,-92 1398.1974,-92 1398.1974,-73 1238.1974,-73"/>
<text text-anchor="middle" x="1318.1974" y="-80" font-family="Helvetica,sans-Serif" font-size="10.00" fill="#000000">Math/GenVector/Rotation3D.h</text>
</g>
<!-- Node43&#45;&gt;Node46 -->
<g id="edge54" class="edge">
<title>Node43&#45;&gt;Node46</title>
<path fill="none" stroke="#191970" d="M1649.6955,-134.4819C1586.8469,-125.5017 1490.5898,-111.4467 1407.1974,-98 1398.9619,-96.6721 1390.3067,-95.2268 1381.7617,-93.7704"/>
<polygon fill="#191970" stroke="#191970" points="1382.2612,-90.305 1371.813,-92.0619 1381.0763,-97.204 1382.2612,-90.305"/>
</g>
<!-- Node47 -->
<g id="node48" class="node">
<title>Node47</title>
<polygon fill="none" stroke="#bfbfbf" points="1416.1974,-73 1416.1974,-92 1584.1974,-92 1584.1974,-73 1416.1974,-73"/>
<text text-anchor="middle" x="1500.1974" y="-80" font-family="Helvetica,sans-Serif" font-size="10.00" fill="#000000">Math/GenVector/Transform3D.h</text>
</g>
<!-- Node43&#45;&gt;Node47 -->
<g id="edge55" class="edge">
<title>Node43&#45;&gt;Node47</title>
<path fill="none" stroke="#191970" d="M1683.2912,-134.3906C1645.6295,-123.7169 1584.7272,-106.4566 1543.6089,-94.8033"/>
<polygon fill="#191970" stroke="#191970" points="1544.441,-91.4013 1533.8656,-92.0419 1542.5323,-98.1361 1544.441,-91.4013"/>
</g>
<!-- Node48 -->
<g id="node49" class="node">
<title>Node48</title>
<polygon fill="none" stroke="#bfbfbf" points="1602.6974,-73 1602.6974,-92 1775.6974,-92 1775.6974,-73 1602.6974,-73"/>
<text text-anchor="middle" x="1689.1974" y="-80" font-family="Helvetica,sans-Serif" font-size="10.00" fill="#000000">Math/GenVector/Translation3D.h</text>
</g>
<!-- Node43&#45;&gt;Node48 -->
<g id="edge56" class="edge">
<title>Node43&#45;&gt;Node48</title>
<path fill="none" stroke="#191970" d="M1712.8224,-134.3906C1708.8186,-125.5965 1702.7791,-112.3312 1697.8089,-101.4145"/>
<polygon fill="#191970" stroke="#191970" points="1700.9632,-99.8957 1693.6341,-92.2449 1694.5924,-102.7963 1700.9632,-99.8957"/>
</g>
<!-- Node49 -->
<g id="node50" class="node">
<title>Node49</title>
<polygon fill="none" stroke="#bfbfbf" points="1794.1974,-73 1794.1974,-92 1876.1974,-92 1876.1974,-73 1794.1974,-73"/>
<text text-anchor="middle" x="1835.1974" y="-80" font-family="Helvetica,sans-Serif" font-size="10.00" fill="#000000">TGeoMatrix.h</text>
</g>
<!-- Node43&#45;&gt;Node49 -->
<g id="edge58" class="edge">
<title>Node43&#45;&gt;Node49</title>
<path fill="none" stroke="#191970" d="M1735.6349,-134.3906C1755.0321,-124.2811 1785.7664,-108.2628 1807.9591,-96.6962"/>
<polygon fill="#191970" stroke="#191970" points="1809.6392,-99.7675 1816.8894,-92.0419 1806.4039,-93.56 1809.6392,-99.7675"/>
</g>
<!-- Node50 -->
<g id="node51" class="node">
<title>Node50</title>
<polygon fill="none" stroke="#bfbfbf" points="1170.6974,-73 1170.6974,-92 1219.6974,-92 1219.6974,-73 1170.6974,-73"/>
<text text-anchor="middle" x="1195.1974" y="-80" font-family="Helvetica,sans-Serif" font-size="10.00" fill="#000000">iosfwd</text>
</g>
<!-- Node43&#45;&gt;Node50 -->
<g id="edge59" class="edge">
<title>Node43&#45;&gt;Node50</title>
<path fill="none" stroke="#191970" d="M1649.3204,-138.8629C1524.7583,-129.2498 1268.7652,-108.5623 1229.1974,-98 1227.0076,-97.4155 1224.7823,-96.7018 1222.5718,-95.9051"/>
<polygon fill="#191970" stroke="#191970" points="1223.713,-92.59 1213.1333,-92.024 1221.0509,-99.0641 1223.713,-92.59"/>
</g>
<!-- Node52&#45;&gt;Node51 -->
<g id="edge66" class="edge">
<title>Node52&#45;&gt;Node51</title>
<path fill="none" stroke="#191970" d="M2322.3224,-359.25C2248.5685,-348.8202 2125.9739,-331.4835 2051.5673,-320.9614"/>
<polygon fill="#191970" stroke="#191970" points="2051.7897,-317.4581 2041.3981,-319.5233 2050.8095,-324.3891 2051.7897,-317.4581"/>
</g>
<!-- Node52&#45;&gt;Node53 -->
<g id="edge63" class="edge">
<title>Node52&#45;&gt;Node53</title>
<path fill="none" stroke="#191970" d="M2397.5481,-358.4387C2418.1634,-344.1104 2459.4259,-317.1383 2498.1974,-302 2545.3421,-283.5924 2601.5762,-271.6578 2643.3702,-264.5696"/>
<polygon fill="#191970" stroke="#191970" points="2644.104,-267.9959 2653.4006,-262.9142 2642.9641,-261.0893 2644.104,-267.9959"/>
</g>
<!-- Node53&#45;&gt;Node39 -->
<g id="edge65" class="edge">
<title>Node53&#45;&gt;Node39</title>
<path fill="none" stroke="#191970" d="M2653.47,-248.0951C2648.6478,-247.374 2643.8311,-246.6653 2639.1974,-246 2546.9856,-232.7607 2440.7169,-218.7846 2370.7642,-209.7606"/>
<polygon fill="#191970" stroke="#191970" points="2371.0781,-206.2722 2360.7128,-208.4658 2370.1837,-213.2148 2371.0781,-206.2722"/>
</g>
<!-- Node54 -->
<g id="node55" class="node">
<title>Node54</title>
<g id="a_node55"><a xlink:href="../../d0/dda/DataFormats_2Detectors_2TPC_2include_2DataFormatsTPC_2Constants_8h.html" target="_top" xlink:title="DataFormatsTPC/Constants.h">
<polygon fill="none" stroke="#000000" points="2624.6974,-190.5 2624.6974,-209.5 2783.6974,-209.5 2783.6974,-190.5 2624.6974,-190.5"/>
<text text-anchor="middle" x="2704.1974" y="-197.5" font-family="Helvetica,sans-Serif" font-size="10.00" fill="#000000">DataFormatsTPC/Constants.h</text>
</a>
</g>
</g>
<!-- Node53&#45;&gt;Node54 -->
<g id="edge64" class="edge">
<title>Node53&#45;&gt;Node54</title>
<path fill="none" stroke="#191970" d="M2704.1974,-246.2455C2704.1974,-238.9382 2704.1974,-228.6944 2704.1974,-219.7046"/>
<polygon fill="#191970" stroke="#191970" points="2707.6975,-219.6426 2704.1974,-209.6427 2700.6975,-219.6427 2707.6975,-219.6426"/>
</g>
<!-- Node55&#45;&gt;Node39 -->
<g id="edge68" class="edge">
<title>Node55&#45;&gt;Node39</title>
<path fill="none" stroke="#191970" d="M1900.8016,-358.2134C1903.5931,-344.0841 1910.6084,-317.9237 1926.1974,-302 1969.9215,-257.3371 1995.4837,-264.4619 2055.1974,-246 2108.4323,-229.5411 2170.2405,-217.8329 2217.6638,-210.3482"/>
<polygon fill="#191970" stroke="#191970" points="2218.2108,-213.8053 2227.5568,-208.815 2217.1387,-206.8879 2218.2108,-213.8053"/>
</g>
<!-- Node55&#45;&gt;Node51 -->
<g id="edge72" class="edge">
<title>Node55&#45;&gt;Node51</title>
<path fill="none" stroke="#191970" d="M1914.7,-358.2455C1928.3554,-349.6534 1948.4631,-337.0014 1964.1963,-327.1018"/>
<polygon fill="#191970" stroke="#191970" points="1966.2725,-329.9307 1972.8725,-321.6427 1962.5445,-324.006 1966.2725,-329.9307"/>
</g>
<!-- Node56 -->
<g id="node57" class="node">
<title>Node56</title>
<g id="a_node57"><a xlink:href="../../dc/d14/ROC_8h.html" target="_top" xlink:title="TPCBase/ROC.h">
<polygon fill="none" stroke="#000000" points="2507.1974,-302.5 2507.1974,-321.5 2599.1974,-321.5 2599.1974,-302.5 2507.1974,-302.5"/>
<text text-anchor="middle" x="2553.1974" y="-309.5" font-family="Helvetica,sans-Serif" font-size="10.00" fill="#000000">TPCBase/ROC.h</text>
</a>
</g>
</g>
<!-- Node55&#45;&gt;Node56 -->
<g id="edge69" class="edge">
<title>Node55&#45;&gt;Node56</title>
<path fill="none" stroke="#191970" d="M1962.7979,-362.5541C2090.3646,-351.6309 2375.6078,-327.2065 2496.8907,-316.8214"/>
<polygon fill="#191970" stroke="#191970" points="2497.4046,-320.2903 2507.0695,-315.9498 2496.8074,-313.3158 2497.4046,-320.2903"/>
</g>
<!-- Node56&#45;&gt;Node39 -->
<g id="edge70" class="edge">
<title>Node56&#45;&gt;Node39</title>
<path fill="none" stroke="#191970" d="M2541.5595,-302.3578C2523.9109,-288.1704 2488.8597,-261.6628 2455.1974,-246 2422.3774,-230.7291 2383.3927,-219.4305 2352.006,-211.853"/>
<polygon fill="#191970" stroke="#191970" points="2352.6356,-208.4057 2342.0999,-209.5232 2351.033,-215.2198 2352.6356,-208.4057"/>
</g>
<!-- Node56&#45;&gt;Node53 -->
<g id="edge71" class="edge">
<title>Node56&#45;&gt;Node53</title>
<path fill="none" stroke="#191970" d="M2579.1552,-302.3733C2603.9382,-293.1822 2641.472,-279.2624 2668.9515,-269.0713"/>
<polygon fill="#191970" stroke="#191970" points="2670.4194,-272.26 2678.5783,-265.5011 2667.9853,-265.6968 2670.4194,-272.26"/>
</g>
<!-- Node57&#45;&gt;Node39 -->
<g id="edge74" class="edge">
<title>Node57&#45;&gt;Node39</title>
<path fill="none" stroke="#191970" d="M2299.9396,-414.375C2299.0318,-380.4851 2295.9715,-266.2317 2294.7287,-219.8332"/>
<polygon fill="#191970" stroke="#191970" points="2298.2209,-219.4918 2294.4543,-209.5891 2291.2234,-219.6793 2298.2209,-219.4918"/>
</g>
<!-- Node57&#45;&gt;Node51 -->
<g id="edge79" class="edge">
<title>Node57&#45;&gt;Node51</title>
<path fill="none" stroke="#191970" d="M2281.2241,-414.2804C2253.7411,-400.4667 2201.0143,-374.954 2154.1974,-358 2116.356,-344.2964 2072.4257,-332.2882 2039.2659,-323.98"/>
<polygon fill="#191970" stroke="#191970" points="2039.8875,-320.5283 2029.3394,-321.5227 2038.2053,-327.3232 2039.8875,-320.5283"/>
</g>
<!-- Node57&#45;&gt;Node52 -->
<g id="edge80" class="edge">
<title>Node57&#45;&gt;Node52</title>
<path fill="none" stroke="#191970" d="M2314.8291,-414.2455C2327.5968,-405.7337 2346.3412,-393.2375 2361.1273,-383.3801"/>
<polygon fill="#191970" stroke="#191970" points="2363.3544,-386.1019 2369.7334,-377.6427 2359.4714,-380.2775 2363.3544,-386.1019"/>
</g>
<!-- Node57&#45;&gt;Node58 -->
<g id="edge75" class="edge">
<title>Node57&#45;&gt;Node58</title>
<path fill="none" stroke="#191970" d="M2356.3807,-414.4369C2416.8424,-404.1455 2512.4474,-387.8723 2572.9385,-377.576"/>
<polygon fill="#191970" stroke="#191970" points="2573.7998,-380.9798 2583.0707,-375.8513 2572.6252,-374.079 2573.7998,-380.9798"/>
</g>
<!-- Node58&#45;&gt;Node39 -->
<g id="edge76" class="edge">
<title>Node58&#45;&gt;Node39</title>
<path fill="none" stroke="#191970" d="M2628.5356,-358.2894C2627.0944,-344.2547 2622.5383,-318.211 2608.1974,-302 2574.1901,-263.5578 2434.0921,-228.9829 2352.9827,-211.678"/>
<polygon fill="#191970" stroke="#191970" points="2353.4194,-208.1932 2342.9123,-209.5535 2351.9744,-215.0424 2353.4194,-208.1932"/>
</g>
<!-- Node58&#45;&gt;Node53 -->
<g id="edge77" class="edge">
<title>Node58&#45;&gt;Node53</title>
<path fill="none" stroke="#191970" d="M2635.5919,-358.4509C2648.101,-339.7707 2675.9895,-298.1238 2692.0929,-274.0761"/>
<polygon fill="#191970" stroke="#191970" points="2695.1632,-275.7814 2697.8191,-265.5249 2689.3468,-271.8865 2695.1632,-275.7814"/>
</g>
<!-- Node58&#45;&gt;Node56 -->
<g id="edge78" class="edge">
<title>Node58&#45;&gt;Node56</title>
<path fill="none" stroke="#191970" d="M2615.9592,-358.2455C2604.5164,-349.814 2587.7678,-337.4729 2574.45,-327.6598"/>
<polygon fill="#191970" stroke="#191970" points="2576.4107,-324.757 2566.2839,-321.6427 2572.2583,-330.3924 2576.4107,-324.757"/>
</g>
<!-- Node59&#45;&gt;Node50 -->
<g id="edge82" class="edge">
<title>Node59&#45;&gt;Node50</title>
<path fill="none" stroke="#191970" d="M1239.6035,-246.4248C1232.1421,-218.8807 1210.5158,-139.0477 1200.4571,-101.916"/>
<polygon fill="#191970" stroke="#191970" points="1203.8342,-100.9965 1197.8412,-92.2595 1197.0777,-102.8268 1203.8342,-100.9965"/>
</g>
<!-- Node60&#45;&gt;Node15 -->
<g id="edge84" class="edge">
<title>Node60&#45;&gt;Node15</title>
<path fill="none" stroke="#191970" d="M1992.8429,-414.3733C2019.1681,-404.8622 2059.5096,-390.2872 2087.926,-380.0207"/>
<polygon fill="#191970" stroke="#191970" points="2089.2216,-383.274 2097.4374,-376.5843 2086.843,-376.6905 2089.2216,-383.274"/>
</g>
<!-- Node60&#45;&gt;Node39 -->
<g id="edge85" class="edge">
<title>Node60&#45;&gt;Node39</title>
<path fill="none" stroke="#191970" d="M1980.2912,-414.375C2031.5979,-379.3363 2208.6929,-258.3933 2271.7142,-215.3544"/>
<polygon fill="#191970" stroke="#191970" points="2273.872,-218.1191 2280.1562,-209.5891 2269.9243,-212.3385 2273.872,-218.1191"/>
</g>
<!-- Node60&#45;&gt;Node51 -->
<g id="edge86" class="edge">
<title>Node60&#45;&gt;Node51</title>
<path fill="none" stroke="#191970" d="M1968.0731,-414.4509C1971.6775,-396.1013 1979.6349,-355.5908 1984.3927,-331.3693"/>
<polygon fill="#191970" stroke="#191970" points="1987.8333,-332.012 1986.3265,-321.5249 1980.9646,-330.6627 1987.8333,-332.012"/>
</g>
<!-- Node62&#45;&gt;Node7 -->
<g id="edge95" class="edge">
<title>Node62&#45;&gt;Node7</title>
<path fill="none" stroke="#191970" d="M2463.2566,-593.4371C2504.8187,-584.3397 2568.8317,-570.1304 2624.1974,-557 2625.4511,-556.7027 2626.7263,-556.3977 2628.0137,-556.0877"/>
<polygon fill="#191970" stroke="#191970" points="2629.087,-559.4284 2637.9696,-553.6536 2627.4244,-552.6287 2629.087,-559.4284"/>
</g>
<!-- Node62&#45;&gt;Node15 -->
<g id="edge91" class="edge">
<title>Node62&#45;&gt;Node15</title>
<path fill="none" stroke="#191970" d="M2366.9177,-597.9807C2315.0554,-591.7928 2240.8357,-579.2572 2223.1974,-557 2217.6766,-550.0335 2217.6092,-543.9126 2223.1974,-537 2271.2043,-477.6161 2343.1905,-560.3839 2391.1974,-501 2399.8592,-490.2855 2400.0208,-480.5819 2391.1974,-470 2334.1979,-401.6404 2274.0333,-473.3474 2194.1974,-434 2170.6635,-422.4012 2149.0962,-400.9692 2135.6043,-385.6744"/>
<polygon fill="#191970" stroke="#191970" points="2138.1321,-383.2448 2128.9783,-377.9102 2132.8075,-387.7889 2138.1321,-383.2448"/>
</g>
<!-- Node62&#45;&gt;Node30 -->
<g id="edge101" class="edge">
<title>Node62&#45;&gt;Node30</title>
<path fill="none" stroke="#191970" d="M2366.9109,-594.3114C2308.0345,-584.5278 2212.2497,-568.6111 2148.2487,-557.9759"/>
<polygon fill="#191970" stroke="#191970" points="2148.6988,-554.5028 2138.2603,-556.3161 2147.5513,-561.4081 2148.6988,-554.5028"/>
</g>
<!-- Node62&#45;&gt;Node32 -->
<g id="edge90" class="edge">
<title>Node62&#45;&gt;Node32</title>
<path fill="none" stroke="#191970" d="M2420.681,-593.4246C2422.2888,-580.0062 2423.5088,-555.212 2414.1974,-537 2406.5079,-521.9601 2392.3145,-509.5681 2379.5526,-500.7116"/>
<polygon fill="#191970" stroke="#191970" points="2381.3305,-497.6924 2371.0438,-495.1559 2377.5035,-503.5537 2381.3305,-497.6924"/>
</g>
<!-- Node62&#45;&gt;Node33 -->
<g id="edge92" class="edge">
<title>Node62&#45;&gt;Node33</title>
<path fill="none" stroke="#191970" d="M2422.0469,-593.3762C2430.4227,-565.0883 2455.0838,-481.7987 2466.401,-443.5767"/>
<polygon fill="#191970" stroke="#191970" points="2469.8507,-444.2536 2469.3338,-433.6714 2463.1387,-442.2662 2469.8507,-444.2536"/>
</g>
<!-- Node62&#45;&gt;Node35 -->
<g id="edge93" class="edge">
<title>Node62&#45;&gt;Node35</title>
<path fill="none" stroke="#191970" d="M2367.1418,-598.385C2308.021,-592.16 2216.3558,-579.2116 2190.1974,-557 2174.912,-544.0209 2168.2643,-521.4486 2165.3828,-505.1325"/>
<polygon fill="#191970" stroke="#191970" points="2168.818,-504.4309 2163.9299,-495.0311 2161.8893,-505.4276 2168.818,-504.4309"/>
</g>
<!-- Node62&#45;&gt;Node36 -->
<g id="edge96" class="edge">
<title>Node62&#45;&gt;Node36</title>
<path fill="none" stroke="#191970" d="M2415.7868,-593.2447C2410.4221,-579.1544 2398.7774,-553.0422 2381.1974,-537 2369.2479,-526.0957 2332.3541,-510.1107 2304.1439,-498.8481"/>
<polygon fill="#191970" stroke="#191970" points="2305.1697,-495.4904 2294.5829,-495.0775 2302.6015,-502.0023 2305.1697,-495.4904"/>
</g>
<!-- Node62&#45;&gt;Node37 -->
<g id="edge98" class="edge">
<title>Node62&#45;&gt;Node37</title>
<path fill="none" stroke="#191970" d="M2367.0231,-599.9465C2289.9149,-594.7779 2141.2643,-582.3008 2017.1974,-557 1943.2952,-541.9292 1859.3419,-514.6218 1812.5873,-498.4672"/>
<polygon fill="#191970" stroke="#191970" points="1813.5097,-495.0824 1802.9149,-495.1005 1811.2086,-501.6933 1813.5097,-495.0824"/>
</g>
<!-- Node62&#45;&gt;Node39 -->
<g id="edge97" class="edge">
<title>Node62&#45;&gt;Node39</title>
<path fill="none" stroke="#191970" d="M2437.4949,-593.4535C2462.4313,-580.4858 2508.528,-556.6647 2548.1974,-537 2581.325,-520.5782 2603.5058,-532.2946 2623.1974,-501 2643.7903,-468.2732 2642.8281,-447.3129 2623.1974,-414 2606.4316,-385.5487 2586.3594,-395.2473 2558.1974,-378 2466.0246,-321.5505 2360.6429,-247.4919 2316.0007,-215.6543"/>
<polygon fill="#191970" stroke="#191970" points="2317.8338,-212.6625 2307.663,-209.6949 2313.7633,-218.3573 2317.8338,-212.6625"/>
</g>
<!-- Node62&#45;&gt;Node53 -->
<g id="edge100" class="edge">
<title>Node62&#45;&gt;Node53</title>
<path fill="none" stroke="#191970" d="M2465.9322,-593.4189C2499.382,-585.7215 2545.056,-573.4746 2583.1974,-557 2605.344,-547.4341 2661.7873,-520.3475 2676.1974,-501 2725.2625,-435.1237 2711.8938,-403.4917 2722.1974,-322 2723.3124,-313.1813 2723.8455,-310.7348 2722.1974,-302 2720.4533,-292.7566 2716.8993,-282.9893 2713.4065,-274.844"/>
<polygon fill="#191970" stroke="#191970" points="2716.4998,-273.1923 2709.1559,-265.5556 2710.1346,-276.1052 2716.4998,-273.1923"/>
</g>
<!-- Node62&#45;&gt;Node56 -->
<g id="edge99" class="edge">
<title>Node62&#45;&gt;Node56</title>
<path fill="none" stroke="#191970" d="M2449.6227,-593.448C2476.0523,-584.8449 2515.1669,-571.3735 2548.1974,-557 2560.592,-551.6064 2649.1757,-512.5504 2656.1974,-501 2676.2833,-467.9596 2677.3409,-446.3738 2656.1974,-414 2634.4332,-380.6756 2600.8166,-407.5908 2574.1974,-378 2562.7756,-365.3031 2557.5635,-346.3792 2555.1866,-332.0462"/>
<polygon fill="#191970" stroke="#191970" points="2558.6048,-331.197 2553.8237,-321.7423 2551.6653,-332.115 2558.6048,-331.197"/>
</g>
<!-- Node63 -->
<g id="node64" class="node">
<title>Node63</title>
<polygon fill="none" stroke="#bfbfbf" points="2232.1974,-537.5 2232.1974,-556.5 2372.1974,-556.5 2372.1974,-537.5 2232.1974,-537.5"/>
<text text-anchor="middle" x="2302.1974" y="-544.5" font-family="Helvetica,sans-Serif" font-size="10.00" fill="#000000">boost/range/combine.hpp</text>
</g>
<!-- Node62&#45;&gt;Node63 -->
<g id="edge94" class="edge">
<title>Node62&#45;&gt;Node63</title>
<path fill="none" stroke="#191970" d="M2399.0844,-593.3733C2380.3871,-584.4241 2352.323,-570.9917 2331.204,-560.8835"/>
<polygon fill="#191970" stroke="#191970" points="2332.5791,-557.6614 2322.048,-556.5011 2329.557,-563.9755 2332.5791,-557.6614"/>
</g>
<!-- Node64&#45;&gt;Node3 -->
<g id="edge106" class="edge">
<title>Node64&#45;&gt;Node3</title>
<path fill="none" stroke="#191970" d="M1981.9734,-649.3733C1953.705,-640.0613 1910.7009,-625.8953 1879.663,-615.671"/>
<polygon fill="#191970" stroke="#191970" points="1880.6331,-612.3056 1870.0401,-612.5011 1878.443,-618.9542 1880.6331,-612.3056"/>
</g>
<!-- Node64&#45;&gt;Node15 -->
<g id="edge105" class="edge">
<title>Node64&#45;&gt;Node15</title>
<path fill="none" stroke="#191970" d="M1994.8673,-649.3761C1948.5337,-620.9113 1823.0044,-535.0533 1877.1974,-470 1933.8863,-401.9506 1998.2434,-481.1831 2073.1974,-434 2091.0986,-422.7313 2104.4455,-402.1588 2112.4618,-386.967"/>
<polygon fill="#191970" stroke="#191970" points="2115.6449,-388.4262 2116.9542,-377.9126 2109.3742,-385.315 2115.6449,-388.4262"/>
</g>
<!-- Node64&#45;&gt;Node62 -->
<g id="edge107" class="edge">
<title>Node64&#45;&gt;Node62</title>
<path fill="none" stroke="#191970" d="M2058.3988,-652.5214C2132.1985,-642.392 2274.9387,-622.8002 2357.0258,-611.5334"/>
<polygon fill="#191970" stroke="#191970" points="2357.5401,-614.9957 2366.9712,-610.1683 2356.5882,-608.0607 2357.5401,-614.9957"/>
</g>
<!-- Node65&#45;&gt;Node15 -->
<g id="edge110" class="edge">
<title>Node65&#45;&gt;Node15</title>
<path fill="none" stroke="#191970" d="M2476.4687,-477.0071C2399.0717,-466.9293 2278.4578,-449.5325 2235.1974,-434 2216.9231,-427.4387 2172.7353,-400.5438 2145.0509,-383.1766"/>
<polygon fill="#191970" stroke="#191970" points="2146.6821,-380.0675 2136.3563,-377.6953 2142.949,-385.9891 2146.6821,-380.0675"/>
</g>
<!-- Node65&#45;&gt;Node33 -->
<g id="edge111" class="edge">
<title>Node65&#45;&gt;Node33</title>
<path fill="none" stroke="#191970" d="M2527.1525,-470.2977C2516.386,-461.2274 2502.7123,-449.7077 2491.6979,-440.4285"/>
<polygon fill="#191970" stroke="#191970" points="2493.7885,-437.6132 2483.8856,-433.8469 2489.2784,-442.9667 2493.7885,-437.6132"/>
</g>
<!-- Node66 -->
<g id="node67" class="node">
<title>Node66</title>
<polygon fill="none" stroke="#bfbfbf" points="2512.1974,-414.5 2512.1974,-433.5 2614.1974,-433.5 2614.1974,-414.5 2512.1974,-414.5"/>
<text text-anchor="middle" x="2563.1974" y="-421.5" font-family="Helvetica,sans-Serif" font-size="10.00" fill="#000000">boost/variant.hpp</text>
</g>
<!-- Node65&#45;&gt;Node66 -->
<g id="edge112" class="edge">
<title>Node65&#45;&gt;Node66</title>
<path fill="none" stroke="#191970" d="M2549.6469,-470.2977C2552.0153,-462.2055 2554.9543,-452.1639 2557.4893,-443.5029"/>
<polygon fill="#191970" stroke="#191970" points="2560.8654,-444.4275 2560.3154,-433.8469 2554.1472,-442.4611 2560.8654,-444.4275"/>
</g>
</g>
</svg>
