<?xml version="1.0" encoding="UTF-8" standalone="no"?>
<!DOCTYPE svg PUBLIC "-//W3C//DTD SVG 1.1//EN"
 "http://www.w3.org/Graphics/SVG/1.1/DTD/svg11.dtd">
<!-- Generated by graphviz version 2.40.1 (20161225.0304)
 -->
<!-- Title: /home/travis/build/AliceO2Group/AliceO2/Framework/Core/include/Framework/RootTableBuilderHelpers.h Pages: 1 -->
<!--zoomable 341 -->
<svg id="main" version="1.1" xmlns="http://www.w3.org/2000/svg" xmlns:xlink="http://www.w3.org/1999/xlink" xml:space="preserve" onload="init(evt)">
<style type="text/css"><![CDATA[
.edge:hover path { stroke: red; }
.edge:hover polygon { stroke: red; fill: red; }
]]></style>
<script type="text/javascript"><![CDATA[
var edges = document.getElementsByTagName('g');
if (edges && edges.length) {
  for (var i=0;i<edges.length;i++) {
    if (edges[i].id.substr(0,4)=='edge') {
      edges[i].setAttribute('class','edge');
    }
  }
}
]]></script>
        <defs>
                <circle id="rim" cx="0" cy="0" r="7"/>
                <circle id="rim2" cx="0" cy="0" r="3.5"/>
                <g id="zoomPlus">
                        <use xlink:href="#rim" fill="#404040">
                                <set attributeName="fill" to="#808080" begin="zoomplus.mouseover" end="zoomplus.mouseout"/>
                        </use>
                        <path d="M-4,0h8M0,-4v8" fill="none" stroke="white" stroke-width="1.5" pointer-events="none"/>
                </g>
                <g id="zoomMin">
                        <use xlink:href="#rim" fill="#404040">
                                <set attributeName="fill" to="#808080" begin="zoomminus.mouseover" end="zoomminus.mouseout"/>
                        </use>
                        <path d="M-4,0h8" fill="none" stroke="white" stroke-width="1.5" pointer-events="none"/>
                </g>
                <g id="dirArrow">
                        <path fill="none" stroke="white" stroke-width="1.5" d="M0,-3.0v7 M-2.5,-0.5L0,-3.0L2.5,-0.5"/>
                </g>
               <g id="resetDef">
                       <use xlink:href="#rim2" fill="#404040">
                               <set attributeName="fill" to="#808080" begin="reset.mouseover" end="reset.mouseout"/>
                       </use>
               </g>
        </defs>

<script type="text/javascript">
var viewWidth = 2844;
var viewHeight = 341;
var sectionId = 'dynsection-0';
</script>
<script xlink:href="../../svgpan.js"/>
<svg id="graph" class="graph">
<g id="viewport">
<title>/home/travis/build/AliceO2Group/AliceO2/Framework/Core/include/Framework/RootTableBuilderHelpers.h</title>
<!-- Node0 -->
<g id="node1" class="node">
<title>Node0</title>
<polygon fill="#bfbfbf" stroke="#000000" points="2110.5,-280.5 2110.5,-332.5 2315.5,-332.5 2315.5,-280.5 2110.5,-280.5"/>
<text text-anchor="start" x="2118.5" y="-320.5" font-family="Helvetica,sans-Serif" font-size="10.00" fill="#000000">/home/travis/build</text>
<text text-anchor="start" x="2118.5" y="-309.5" font-family="Helvetica,sans-Serif" font-size="10.00" fill="#000000">/AliceO2Group/AliceO2</text>
<text text-anchor="start" x="2118.5" y="-298.5" font-family="Helvetica,sans-Serif" font-size="10.00" fill="#000000">/Framework/Core/include</text>
<text text-anchor="middle" x="2213" y="-287.5" font-family="Helvetica,sans-Serif" font-size="10.00" fill="#000000">/Framework/RootTableBuilderHelpers.h</text>
</g>
<!-- Node1 -->
<g id="node2" class="node">
<title>Node1</title>
<g id="a_node2"><a xlink:href="../../d5/d98/TableBuilder_8h.html" target="_top" xlink:title="Framework/TableBuilder.h">
<polygon fill="none" stroke="#000000" points="1552,-224.5 1552,-243.5 1694,-243.5 1694,-224.5 1552,-224.5"/>
<text text-anchor="middle" x="1623" y="-231.5" font-family="Helvetica,sans-Serif" font-size="10.00" fill="#000000">Framework/TableBuilder.h</text>
</a>
</g>
</g>
<!-- Node0&#45;&gt;Node1 -->
<g id="edge1" class="edge">
<title>Node0&#45;&gt;Node1</title>
<path fill="none" stroke="#191970" d="M2110.2298,-293.8715C1994.7687,-279.6834 1809.7208,-256.9445 1704.0162,-243.9554"/>
<polygon fill="#191970" stroke="#191970" points="1704.3917,-240.4753 1694.0394,-242.7294 1703.5379,-247.423 1704.3917,-240.4753"/>
</g>
<!-- Node19 -->
<g id="node20" class="node">
<title>Node19</title>
<polygon fill="none" stroke="#bfbfbf" points="2004.5,-56.5 2004.5,-75.5 2085.5,-75.5 2085.5,-56.5 2004.5,-56.5"/>
<text text-anchor="middle" x="2045" y="-63.5" font-family="Helvetica,sans-Serif" font-size="10.00" fill="#000000">arrow/table.h</text>
</g>
<!-- Node0&#45;&gt;Node19 -->
<g id="edge62" class="edge">
<title>Node0&#45;&gt;Node19</title>
<path fill="none" stroke="#191970" d="M2110.4999,-295.3803C1985.6982,-279.4833 1785.9466,-245.6258 1741,-188 1727.2963,-170.4305 1736.2712,-129.0104 1755,-112 1792.8944,-77.5824 1927.2273,-84.4392 1994.2228,-75.8216"/>
<polygon fill="#191970" stroke="#191970" points="1995.0028,-79.2437 2004.3719,-74.2969 1993.9629,-72.3214 1995.0028,-79.2437"/>
</g>
<!-- Node26 -->
<g id="node27" class="node">
<title>Node26</title>
<polygon fill="none" stroke="#bfbfbf" points="0,-56.5 0,-75.5 44,-75.5 44,-56.5 0,-56.5"/>
<text text-anchor="middle" x="22" y="-63.5" font-family="Helvetica,sans-Serif" font-size="10.00" fill="#000000">string</text>
</g>
<!-- Node0&#45;&gt;Node26 -->
<g id="edge68" class="edge">
<title>Node0&#45;&gt;Node26</title>
<path fill="none" stroke="#191970" d="M2110.3054,-304.5201C1799.5469,-298.2233 872.2107,-277.1042 572,-244 364.9961,-221.1737 301.5078,-228.5843 117,-132 89.3523,-117.5273 60.2666,-96.3071 41.6752,-81.8631"/>
<polygon fill="#191970" stroke="#191970" points="43.7004,-79.003 33.6792,-75.5642 39.3687,-84.5018 43.7004,-79.003"/>
</g>
<!-- Node27 -->
<g id="node28" class="node">
<title>Node27</title>
<polygon fill="none" stroke="#bfbfbf" points="62,-56.5 62,-75.5 120,-75.5 120,-56.5 62,-56.5"/>
<text text-anchor="middle" x="91" y="-63.5" font-family="Helvetica,sans-Serif" font-size="10.00" fill="#000000">memory</text>
</g>
<!-- Node0&#45;&gt;Node27 -->
<g id="edge69" class="edge">
<title>Node0&#45;&gt;Node27</title>
<path fill="none" stroke="#191970" d="M2110.2964,-304.3414C1770.082,-296.5118 682.2014,-265.8612 341,-188 250.636,-167.3792 155.2552,-109.11 113.1659,-81.2302"/>
<polygon fill="#191970" stroke="#191970" points="115.0398,-78.2727 104.7848,-75.6108 111.1416,-84.0868 115.0398,-78.2727"/>
</g>
<!-- Node34 -->
<g id="node35" class="node">
<title>Node34</title>
<polygon fill="none" stroke="#bfbfbf" points="1930.5,-112.5 1930.5,-131.5 1971.5,-131.5 1971.5,-112.5 1930.5,-112.5"/>
<text text-anchor="middle" x="1951" y="-119.5" font-family="Helvetica,sans-Serif" font-size="10.00" fill="#000000">tuple</text>
</g>
<!-- Node0&#45;&gt;Node34 -->
<g id="edge70" class="edge">
<title>Node0&#45;&gt;Node34</title>
<path fill="none" stroke="#191970" d="M2262.2757,-280.2543C2308.662,-252.2431 2366.2791,-206.6667 2332,-168 2308.847,-141.8835 2068.3427,-127.7022 1981.8063,-123.4148"/>
<polygon fill="#191970" stroke="#191970" points="1981.7346,-119.9074 1971.5768,-122.9189 1981.3956,-126.8991 1981.7346,-119.9074"/>
</g>
<!-- Node36 -->
<g id="node37" class="node">
<title>Node36</title>
<polygon fill="none" stroke="#bfbfbf" points="1954.5,-168.5 1954.5,-187.5 2063.5,-187.5 2063.5,-168.5 1954.5,-168.5"/>
<text text-anchor="middle" x="2009" y="-175.5" font-family="Helvetica,sans-Serif" font-size="10.00" fill="#000000">arrow/type_traits.h</text>
</g>
<!-- Node0&#45;&gt;Node36 -->
<g id="edge61" class="edge">
<title>Node0&#45;&gt;Node36</title>
<path fill="none" stroke="#191970" d="M2171.7176,-280.4961C2130.0012,-254.2189 2066.9808,-214.5222 2032.9058,-193.0583"/>
<polygon fill="#191970" stroke="#191970" points="2034.4309,-189.8825 2024.1042,-187.5142 2030.7001,-195.8054 2034.4309,-189.8825"/>
</g>
<!-- Node38 -->
<g id="node39" class="node">
<title>Node38</title>
<polygon fill="none" stroke="#bfbfbf" points="2082,-168.5 2082,-187.5 2150,-187.5 2150,-168.5 2082,-168.5"/>
<text text-anchor="middle" x="2116" y="-175.5" font-family="Helvetica,sans-Serif" font-size="10.00" fill="#000000">arrow/stl.h</text>
</g>
<!-- Node0&#45;&gt;Node38 -->
<g id="edge60" class="edge">
<title>Node0&#45;&gt;Node38</title>
<path fill="none" stroke="#191970" d="M2193.3706,-280.4961C2174.2978,-255.2295 2145.8594,-217.5559 2129.2962,-195.614"/>
<polygon fill="#191970" stroke="#191970" points="2132.0002,-193.3868 2123.1819,-187.5142 2126.4133,-197.6042 2132.0002,-193.3868"/>
</g>
<!-- Node39 -->
<g id="node40" class="node">
<title>Node39</title>
<polygon fill="none" stroke="#bfbfbf" points="2168.5,-168.5 2168.5,-187.5 2257.5,-187.5 2257.5,-168.5 2168.5,-168.5"/>
<text text-anchor="middle" x="2213" y="-175.5" font-family="Helvetica,sans-Serif" font-size="10.00" fill="#000000">arrow/builder.h</text>
</g>
<!-- Node0&#45;&gt;Node39 -->
<g id="edge63" class="edge">
<title>Node0&#45;&gt;Node39</title>
<path fill="none" stroke="#191970" d="M2213,-280.4961C2213,-256.0156 2213,-219.8881 2213,-197.7068"/>
<polygon fill="#191970" stroke="#191970" points="2216.5001,-197.5141 2213,-187.5142 2209.5001,-197.5142 2216.5001,-197.5141"/>
</g>
<!-- Node40 -->
<g id="node41" class="node">
<title>Node40</title>
<polygon fill="none" stroke="#bfbfbf" points="2275.5,-168.5 2275.5,-187.5 2322.5,-187.5 2322.5,-168.5 2275.5,-168.5"/>
<text text-anchor="middle" x="2299" y="-175.5" font-family="Helvetica,sans-Serif" font-size="10.00" fill="#000000">vector</text>
</g>
<!-- Node0&#45;&gt;Node40 -->
<g id="edge67" class="edge">
<title>Node0&#45;&gt;Node40</title>
<path fill="none" stroke="#191970" d="M2230.4034,-280.4961C2247.2382,-255.3418 2272.3028,-217.8906 2287.0152,-195.9075"/>
<polygon fill="#191970" stroke="#191970" points="2289.9793,-197.7714 2292.6325,-187.5142 2284.1619,-193.878 2289.9793,-197.7714"/>
</g>
<!-- Node41 -->
<g id="node42" class="node">
<title>Node41</title>
<g id="a_node42"><a xlink:href="../../dd/da4/Logger_8h.html" target="_top" xlink:title="Framework/Logger.h">
<polygon fill="none" stroke="#000000" points="2358.5,-224.5 2358.5,-243.5 2473.5,-243.5 2473.5,-224.5 2358.5,-224.5"/>
<text text-anchor="middle" x="2416" y="-231.5" font-family="Helvetica,sans-Serif" font-size="10.00" fill="#000000">Framework/Logger.h</text>
</a>
</g>
</g>
<!-- Node0&#45;&gt;Node41 -->
<g id="edge58" class="edge">
<title>Node0&#45;&gt;Node41</title>
<path fill="none" stroke="#191970" d="M2286.0009,-280.4283C2317.851,-269.0532 2353.7754,-256.2231 2379.7752,-246.9374"/>
<polygon fill="#191970" stroke="#191970" points="2380.9846,-250.2221 2389.2248,-243.5626 2378.6302,-243.6299 2380.9846,-250.2221"/>
</g>
<!-- Node43 -->
<g id="node44" class="node">
<title>Node43</title>
<polygon fill="none" stroke="#bfbfbf" points="2491.5,-224.5 2491.5,-243.5 2576.5,-243.5 2576.5,-224.5 2491.5,-224.5"/>
<text text-anchor="middle" x="2534" y="-231.5" font-family="Helvetica,sans-Serif" font-size="10.00" fill="#000000">TTreeReader.h</text>
</g>
<!-- Node0&#45;&gt;Node43 -->
<g id="edge64" class="edge">
<title>Node0&#45;&gt;Node43</title>
<path fill="none" stroke="#191970" d="M2315.8909,-283.2614C2371.2993,-270.747 2437.2692,-255.8473 2482.0387,-245.7358"/>
<polygon fill="#191970" stroke="#191970" points="2482.8358,-249.144 2491.819,-243.5269 2481.2936,-242.316 2482.8358,-249.144"/>
</g>
<!-- Node44 -->
<g id="node45" class="node">
<title>Node44</title>
<polygon fill="none" stroke="#bfbfbf" points="2594.5,-224.5 2594.5,-243.5 2707.5,-243.5 2707.5,-224.5 2594.5,-224.5"/>
<text text-anchor="middle" x="2651" y="-231.5" font-family="Helvetica,sans-Serif" font-size="10.00" fill="#000000">TTreeReaderValue.h</text>
</g>
<!-- Node0&#45;&gt;Node44 -->
<g id="edge65" class="edge">
<title>Node0&#45;&gt;Node44</title>
<path fill="none" stroke="#191970" d="M2315.6915,-289.502C2398.595,-275.7794 2512.8247,-256.8715 2584.2616,-245.0469"/>
<polygon fill="#191970" stroke="#191970" points="2585.1879,-248.4413 2594.4821,-243.3551 2584.0448,-241.5352 2585.1879,-248.4413"/>
</g>
<!-- Node45 -->
<g id="node46" class="node">
<title>Node45</title>
<polygon fill="none" stroke="#bfbfbf" points="2726,-224.5 2726,-243.5 2836,-243.5 2836,-224.5 2726,-224.5"/>
<text text-anchor="middle" x="2781" y="-231.5" font-family="Helvetica,sans-Serif" font-size="10.00" fill="#000000">TTreeReaderArray.h</text>
</g>
<!-- Node0&#45;&gt;Node45 -->
<g id="edge66" class="edge">
<title>Node0&#45;&gt;Node45</title>
<path fill="none" stroke="#191970" d="M2315.9267,-294.7016C2415.5832,-283.0557 2571.2025,-264.2856 2715.9022,-244.1212"/>
<polygon fill="#191970" stroke="#191970" points="2716.4395,-247.5803 2725.8584,-242.7292 2715.4701,-240.6477 2716.4395,-247.5803"/>
</g>
<!-- Node2 -->
<g id="node3" class="node">
<title>Node2</title>
<g id="a_node3"><a xlink:href="../../de/d33/ASoA_8h.html" target="_top" xlink:title="Framework/ASoA.h">
<polygon fill="none" stroke="#000000" points="1147,-168.5 1147,-187.5 1255,-187.5 1255,-168.5 1147,-168.5"/>
<text text-anchor="middle" x="1201" y="-175.5" font-family="Helvetica,sans-Serif" font-size="10.00" fill="#000000">Framework/ASoA.h</text>
</a>
</g>
</g>
<!-- Node1&#45;&gt;Node2 -->
<g id="edge2" class="edge">
<title>Node1&#45;&gt;Node2</title>
<path fill="none" stroke="#191970" d="M1551.8906,-224.5637C1471.7484,-213.9287 1342.6022,-196.7908 1265.3487,-186.5392"/>
<polygon fill="#191970" stroke="#191970" points="1265.6396,-183.0472 1255.2661,-185.2012 1264.7187,-189.9863 1265.6396,-183.0472"/>
</g>
<!-- Node8 -->
<g id="node9" class="node">
<title>Node8</title>
<g id="a_node9"><a xlink:href="../../de/d9b/FunctionalHelpers_8h.html" target="_top" xlink:title="Framework/FunctionalHelpers.h">
<polygon fill="none" stroke="#000000" points="377,-112.5 377,-131.5 547,-131.5 547,-112.5 377,-112.5"/>
<text text-anchor="middle" x="462" y="-119.5" font-family="Helvetica,sans-Serif" font-size="10.00" fill="#000000">Framework/FunctionalHelpers.h</text>
</a>
</g>
</g>
<!-- Node1&#45;&gt;Node8 -->
<g id="edge45" class="edge">
<title>Node1&#45;&gt;Node8</title>
<path fill="none" stroke="#191970" d="M1551.9111,-228.7644C1445.6708,-220.8007 1239.2059,-204.7873 1064,-188 839.4689,-166.4866 781.229,-157.3529 557.3648,-132.5929"/>
<polygon fill="#191970" stroke="#191970" points="557.5937,-129.097 547.2699,-131.4782 556.8253,-136.0547 557.5937,-129.097"/>
</g>
<!-- Node9 -->
<g id="node10" class="node">
<title>Node9</title>
<polygon fill="none" stroke="#bfbfbf" points="138.5,-56.5 138.5,-75.5 203.5,-75.5 203.5,-56.5 138.5,-56.5"/>
<text text-anchor="middle" x="171" y="-63.5" font-family="Helvetica,sans-Serif" font-size="10.00" fill="#000000">functional</text>
</g>
<!-- Node1&#45;&gt;Node9 -->
<g id="edge53" class="edge">
<title>Node1&#45;&gt;Node9</title>
<path fill="none" stroke="#191970" d="M1551.589,-232.7751C1313.1205,-228.4682 553.2513,-212.9206 446,-188 439.5771,-186.5076 272.0715,-111.4115 201.6897,-79.7962"/>
<polygon fill="#191970" stroke="#191970" points="202.986,-76.5416 192.4299,-75.6359 200.1172,-82.9268 202.986,-76.5416"/>
</g>
<!-- Node1&#45;&gt;Node19 -->
<g id="edge51" class="edge">
<title>Node1&#45;&gt;Node19</title>
<path fill="none" stroke="#191970" d="M1626.9009,-224.31C1637.0408,-200.5189 1666.7027,-139.1943 1713,-112 1819.1801,-49.6315 1867.8127,-94.0172 1994.335,-75.9167"/>
<polygon fill="#191970" stroke="#191970" points="1995.0325,-79.3507 2004.3845,-74.3718 1993.9688,-72.4319 1995.0325,-79.3507"/>
</g>
<!-- Node1&#45;&gt;Node26 -->
<g id="edge55" class="edge">
<title>Node1&#45;&gt;Node26</title>
<path fill="none" stroke="#191970" d="M1551.9203,-232.8137C1300.1526,-228.4238 459.5358,-212.0992 341,-188 228.3569,-165.0988 103.384,-106.9209 49.3508,-80.0269"/>
<polygon fill="#191970" stroke="#191970" points="50.9107,-76.8938 40.4033,-75.5354 47.7702,-83.1498 50.9107,-76.8938"/>
</g>
<!-- Node1&#45;&gt;Node27 -->
<g id="edge56" class="edge">
<title>Node1&#45;&gt;Node27</title>
<path fill="none" stroke="#191970" d="M1551.7111,-232.7349C1307.0761,-228.1988 510.5802,-211.7481 398,-188 383.8349,-185.012 200.9982,-110.8282 124.4009,-79.6267"/>
<polygon fill="#191970" stroke="#191970" points="125.3325,-76.227 114.7511,-75.6944 122.6908,-82.7094 125.3325,-76.227"/>
</g>
<!-- Node33 -->
<g id="node34" class="node">
<title>Node33</title>
<g id="a_node34"><a xlink:href="../../db/d4f/StructToTuple_8h.html" target="_top" xlink:title="Framework/StructToTuple.h">
<polygon fill="none" stroke="#000000" points="1750.5,-168.5 1750.5,-187.5 1897.5,-187.5 1897.5,-168.5 1750.5,-168.5"/>
<text text-anchor="middle" x="1824" y="-175.5" font-family="Helvetica,sans-Serif" font-size="10.00" fill="#000000">Framework/StructToTuple.h</text>
</a>
</g>
</g>
<!-- Node1&#45;&gt;Node33 -->
<g id="edge41" class="edge">
<title>Node1&#45;&gt;Node33</title>
<path fill="none" stroke="#191970" d="M1657.5531,-224.3733C1691.4104,-214.9404 1743.146,-200.5265 1779.9426,-190.2747"/>
<polygon fill="#191970" stroke="#191970" points="1781.204,-193.5566 1789.8978,-187.5011 1779.3253,-186.8135 1781.204,-193.5566"/>
</g>
<!-- Node1&#45;&gt;Node34 -->
<g id="edge57" class="edge">
<title>Node1&#45;&gt;Node34</title>
<path fill="none" stroke="#191970" d="M1694.0277,-228.8511C1766.0787,-222.513 1871.7224,-209.8143 1906,-188 1923.3012,-176.9895 1935.6297,-156.6773 1942.9575,-141.4832"/>
<polygon fill="#191970" stroke="#191970" points="1946.3304,-142.5156 1947.2313,-131.9591 1939.944,-139.6497 1946.3304,-142.5156"/>
</g>
<!-- Node35 -->
<g id="node36" class="node">
<title>Node35</title>
<g id="a_node36"><a xlink:href="../../d7/dbe/VariantHelpers_8h.html" target="_top" xlink:title="Framework/VariantHelpers.h">
<polygon fill="none" stroke="#000000" points="455.5,-168.5 455.5,-187.5 610.5,-187.5 610.5,-168.5 455.5,-168.5"/>
<text text-anchor="middle" x="533" y="-175.5" font-family="Helvetica,sans-Serif" font-size="10.00" fill="#000000">Framework/VariantHelpers.h</text>
</a>
</g>
</g>
<!-- Node1&#45;&gt;Node35 -->
<g id="edge46" class="edge">
<title>Node1&#45;&gt;Node35</title>
<path fill="none" stroke="#191970" d="M1551.9025,-230.3473C1359.8268,-220.4792 830.8549,-193.3026 620.7199,-182.5067"/>
<polygon fill="#191970" stroke="#191970" points="620.8216,-179.0074 610.6551,-181.9896 620.4623,-185.9982 620.8216,-179.0074"/>
</g>
<!-- Node1&#45;&gt;Node36 -->
<g id="edge48" class="edge">
<title>Node1&#45;&gt;Node36</title>
<path fill="none" stroke="#191970" d="M1688.9172,-224.4369C1760.235,-214.0903 1873.229,-197.6973 1944.1341,-187.4106"/>
<polygon fill="#191970" stroke="#191970" points="1944.8863,-190.8382 1954.2801,-185.9386 1943.8812,-183.9107 1944.8863,-190.8382"/>
</g>
<!-- Node37 -->
<g id="node38" class="node">
<title>Node37</title>
<polygon fill="none" stroke="#bfbfbf" points="1073,-168.5 1073,-187.5 1129,-187.5 1129,-168.5 1073,-168.5"/>
<text text-anchor="middle" x="1101" y="-175.5" font-family="Helvetica,sans-Serif" font-size="10.00" fill="#000000">sstream</text>
</g>
<!-- Node1&#45;&gt;Node37 -->
<g id="edge49" class="edge">
<title>Node1&#45;&gt;Node37</title>
<path fill="none" stroke="#191970" d="M1551.8037,-231.025C1458.8457,-226.3004 1291.0464,-214.8955 1139.1508,-187.9394"/>
<polygon fill="#191970" stroke="#191970" points="1139.6318,-184.4698 1129.1696,-186.1413 1138.3906,-191.3589 1139.6318,-184.4698"/>
</g>
<!-- Node1&#45;&gt;Node38 -->
<g id="edge50" class="edge">
<title>Node1&#45;&gt;Node38</title>
<path fill="none" stroke="#191970" d="M1694.1193,-229.392C1782.9477,-223.0225 1939.3902,-209.7796 2072,-188 2072.1015,-187.9833 2072.203,-187.9666 2072.3047,-187.9497"/>
<polygon fill="#191970" stroke="#191970" points="2072.7734,-191.4225 2081.9706,-186.163 2071.5009,-184.5391 2072.7734,-191.4225"/>
</g>
<!-- Node1&#45;&gt;Node39 -->
<g id="edge52" class="edge">
<title>Node1&#45;&gt;Node39</title>
<path fill="none" stroke="#191970" d="M1694.3385,-230.0969C1795.3217,-224.0786 1985.8923,-210.9092 2158.2486,-187.9781"/>
<polygon fill="#191970" stroke="#191970" points="2158.8204,-191.4328 2168.2649,-186.6316 2157.8877,-184.4952 2158.8204,-191.4328"/>
</g>
<!-- Node1&#45;&gt;Node40 -->
<g id="edge54" class="edge">
<title>Node1&#45;&gt;Node40</title>
<path fill="none" stroke="#191970" d="M1694.0833,-230.9151C1833.787,-224.5327 2140.6273,-208.8549 2265.2891,-187.6528"/>
<polygon fill="#191970" stroke="#191970" points="2266.1351,-191.0571 2275.363,-185.8516 2264.9031,-184.1664 2266.1351,-191.0571"/>
</g>
<!-- Node3 -->
<g id="node4" class="node">
<title>Node3</title>
<g id="a_node4"><a xlink:href="../../dd/dce/Pack_8h.html" target="_top" xlink:title="Framework/Pack.h">
<polygon fill="none" stroke="#000000" points="404.5,-56.5 404.5,-75.5 509.5,-75.5 509.5,-56.5 404.5,-56.5"/>
<text text-anchor="middle" x="457" y="-63.5" font-family="Helvetica,sans-Serif" font-size="10.00" fill="#000000">Framework/Pack.h</text>
</a>
</g>
</g>
<!-- Node2&#45;&gt;Node3 -->
<g id="edge3" class="edge">
<title>Node2&#45;&gt;Node3</title>
<path fill="none" stroke="#191970" d="M1146.7384,-169.1354C1143.7854,-168.7316 1140.858,-168.3497 1138,-168 953.3547,-145.4045 904.4794,-162.6552 721,-132 641.0553,-118.6431 549.6947,-93.5468 498.1243,-78.4447"/>
<polygon fill="#191970" stroke="#191970" points="498.9375,-75.0355 488.3559,-75.5639 496.9575,-81.7497 498.9375,-75.0355"/>
</g>
<!-- Node7 -->
<g id="node8" class="node">
<title>Node7</title>
<g id="a_node8"><a xlink:href="../../d1/d00/CheckTypes_8h.html" target="_top" xlink:title="Framework/CheckTypes.h">
<polygon fill="none" stroke="#000000" points="528,-56.5 528,-75.5 668,-75.5 668,-56.5 528,-56.5"/>
<text text-anchor="middle" x="598" y="-63.5" font-family="Helvetica,sans-Serif" font-size="10.00" fill="#000000">Framework/CheckTypes.h</text>
</a>
</g>
</g>
<!-- Node2&#45;&gt;Node7 -->
<g id="edge7" class="edge">
<title>Node2&#45;&gt;Node7</title>
<path fill="none" stroke="#191970" d="M1146.7301,-169.2014C1143.7791,-168.7805 1140.8546,-168.377 1138,-168 986.914,-148.0477 945.963,-164.173 797,-132 737.2318,-119.0913 670.2137,-94.7042 631.1969,-79.4616"/>
<polygon fill="#191970" stroke="#191970" points="632.0198,-76.0238 621.4331,-75.6091 629.4506,-82.5352 632.0198,-76.0238"/>
</g>
<!-- Node2&#45;&gt;Node8 -->
<g id="edge8" class="edge">
<title>Node2&#45;&gt;Node8</title>
<path fill="none" stroke="#191970" d="M1146.7471,-169.0611C1143.7918,-168.6765 1140.8616,-168.3191 1138,-168 891.8964,-140.5604 828.9527,-150.283 582,-132 573.9961,-131.4074 565.6942,-130.7677 557.3635,-130.1083"/>
<polygon fill="#191970" stroke="#191970" points="557.453,-126.6044 547.2058,-129.296 556.8949,-133.5821 557.453,-126.6044"/>
</g>
<!-- Node10 -->
<g id="node11" class="node">
<title>Node10</title>
<g id="a_node11"><a xlink:href="../../d9/de8/CompilerBuiltins_8h.html" target="_top" xlink:title="Framework/CompilerBuiltins.h">
<polygon fill="none" stroke="#000000" points="222,-56.5 222,-75.5 386,-75.5 386,-56.5 222,-56.5"/>
<text text-anchor="middle" x="304" y="-63.5" font-family="Helvetica,sans-Serif" font-size="10.00" fill="#000000">Framework/CompilerBuiltins.h</text>
</a>
</g>
</g>
<!-- Node2&#45;&gt;Node10 -->
<g id="edge11" class="edge">
<title>Node2&#45;&gt;Node10</title>
<path fill="none" stroke="#191970" d="M1146.7452,-169.0784C1143.7904,-168.6893 1140.8608,-168.3262 1138,-168 909.5893,-141.9552 848.0961,-173.597 622,-132 591.8554,-126.454 585.7909,-119.2081 556,-112 496.4527,-97.5922 428.0198,-85.3702 377.5078,-77.1538"/>
<polygon fill="#191970" stroke="#191970" points="377.7616,-73.6496 367.3319,-75.5132 376.6474,-80.5603 377.7616,-73.6496"/>
</g>
<!-- Node11 -->
<g id="node12" class="node">
<title>Node11</title>
<g id="a_node12"><a xlink:href="../../db/d31/Traits_8h.html" target="_top" xlink:title="Framework/Traits.h">
<polygon fill="none" stroke="#000000" points="1764.5,-112.5 1764.5,-131.5 1873.5,-131.5 1873.5,-112.5 1764.5,-112.5"/>
<text text-anchor="middle" x="1819" y="-119.5" font-family="Helvetica,sans-Serif" font-size="10.00" fill="#000000">Framework/Traits.h</text>
</a>
</g>
</g>
<!-- Node2&#45;&gt;Node11 -->
<g id="edge12" class="edge">
<title>Node2&#45;&gt;Node11</title>
<path fill="none" stroke="#191970" d="M1255.0318,-173.1039C1368.5974,-162.8132 1631.6486,-138.9768 1754.1085,-127.8801"/>
<polygon fill="#191970" stroke="#191970" points="1754.4534,-131.3633 1764.0967,-126.9751 1753.8216,-124.3919 1754.4534,-131.3633"/>
</g>
<!-- Node13 -->
<g id="node14" class="node">
<title>Node13</title>
<g id="a_node14"><a xlink:href="../../d0/d91/Expressions_8h.html" target="_top" xlink:title="Framework/Expressions.h">
<polygon fill="none" stroke="#000000" points="837.5,-112.5 837.5,-131.5 978.5,-131.5 978.5,-112.5 837.5,-112.5"/>
<text text-anchor="middle" x="908" y="-119.5" font-family="Helvetica,sans-Serif" font-size="10.00" fill="#000000">Framework/Expressions.h</text>
</a>
</g>
</g>
<!-- Node2&#45;&gt;Node13 -->
<g id="edge14" class="edge">
<title>Node2&#45;&gt;Node13</title>
<path fill="none" stroke="#191970" d="M1150.9644,-168.4369C1100.293,-158.7522 1021.9052,-143.7703 967.9441,-133.4569"/>
<polygon fill="#191970" stroke="#191970" points="968.3085,-129.9633 957.8292,-131.5237 966.9943,-136.8388 968.3085,-129.9633"/>
</g>
<!-- Node2&#45;&gt;Node19 -->
<g id="edge34" class="edge">
<title>Node2&#45;&gt;Node19</title>
<path fill="none" stroke="#191970" d="M1255.2563,-174.2243C1354.1071,-167.0049 1559.7317,-150.3228 1629,-132 1650.552,-126.2991 1653.4622,-117.7544 1675,-112 1810.1637,-75.8874 1851.7293,-97.0513 1994.3961,-75.9459"/>
<polygon fill="#191970" stroke="#191970" points="1995.0339,-79.3892 2004.3927,-74.4229 1993.9796,-72.469 1995.0339,-79.3892"/>
</g>
<!-- Node20 -->
<g id="node21" class="node">
<title>Node20</title>
<polygon fill="none" stroke="#bfbfbf" points="686.5,-56.5 686.5,-75.5 833.5,-75.5 833.5,-56.5 686.5,-56.5"/>
<text text-anchor="middle" x="760" y="-63.5" font-family="Helvetica,sans-Serif" font-size="10.00" fill="#000000">gandiva/selection_vector.h</text>
</g>
<!-- Node2&#45;&gt;Node20 -->
<g id="edge38" class="edge">
<title>Node2&#45;&gt;Node20</title>
<path fill="none" stroke="#191970" d="M1146.7252,-169.2374C1143.7755,-168.8073 1140.8526,-168.3919 1138,-168 1000.5867,-149.1238 953.3121,-191.4609 828,-132 805.1381,-121.152 785.2007,-99.5138 772.9265,-83.9677"/>
<polygon fill="#191970" stroke="#191970" points="775.45,-81.5026 766.6211,-75.6459 769.8707,-85.7301 775.45,-81.5026"/>
</g>
<!-- Node24 -->
<g id="node25" class="node">
<title>Node24</title>
<polygon fill="none" stroke="#bfbfbf" points="1907.5,-56.5 1907.5,-75.5 1986.5,-75.5 1986.5,-56.5 1907.5,-56.5"/>
<text text-anchor="middle" x="1947" y="-63.5" font-family="Helvetica,sans-Serif" font-size="10.00" fill="#000000">fmt/format.h</text>
</g>
<!-- Node2&#45;&gt;Node24 -->
<g id="edge40" class="edge">
<title>Node2&#45;&gt;Node24</title>
<path fill="none" stroke="#191970" d="M1255.045,-173.7378C1347.1722,-166.1252 1530.7045,-149.3562 1593,-132 1613.6928,-126.2347 1616.3666,-117.9745 1637,-112 1746.4024,-80.322 1780.7045,-94.8635 1897.4184,-75.9707"/>
<polygon fill="#191970" stroke="#191970" points="1898.1725,-79.3934 1907.4606,-74.2963 1897.0211,-72.4887 1898.1725,-79.3934"/>
</g>
<!-- Node28 -->
<g id="node29" class="node">
<title>Node28</title>
<g id="a_node29"><a xlink:href="../../d4/de7/ArrowTypes_8h.html" target="_top" xlink:title="Framework/ArrowTypes.h">
<polygon fill="none" stroke="#000000" points="1067.5,-112.5 1067.5,-131.5 1206.5,-131.5 1206.5,-112.5 1067.5,-112.5"/>
<text text-anchor="middle" x="1137" y="-119.5" font-family="Helvetica,sans-Serif" font-size="10.00" fill="#000000">Framework/ArrowTypes.h</text>
</a>
</g>
</g>
<!-- Node2&#45;&gt;Node28 -->
<g id="edge32" class="edge">
<title>Node2&#45;&gt;Node28</title>
<path fill="none" stroke="#191970" d="M1189.8521,-168.2455C1180.4913,-160.0549 1166.9142,-148.1749 1155.8651,-138.5069"/>
<polygon fill="#191970" stroke="#191970" points="1157.8508,-135.5937 1148.0202,-131.6427 1153.2412,-140.8618 1157.8508,-135.5937"/>
</g>
<!-- Node29 -->
<g id="node30" class="node">
<title>Node29</title>
<polygon fill="none" stroke="#bfbfbf" points="1225,-112.5 1225,-131.5 1305,-131.5 1305,-112.5 1225,-112.5"/>
<text text-anchor="middle" x="1265" y="-119.5" font-family="Helvetica,sans-Serif" font-size="10.00" fill="#000000">arrow/array.h</text>
</g>
<!-- Node2&#45;&gt;Node29 -->
<g id="edge35" class="edge">
<title>Node2&#45;&gt;Node29</title>
<path fill="none" stroke="#191970" d="M1212.1479,-168.2455C1221.5087,-160.0549 1235.0858,-148.1749 1246.1349,-138.5069"/>
<polygon fill="#191970" stroke="#191970" points="1248.7588,-140.8618 1253.9798,-131.6427 1244.1492,-135.5937 1248.7588,-140.8618"/>
</g>
<!-- Node30 -->
<g id="node31" class="node">
<title>Node30</title>
<polygon fill="none" stroke="#bfbfbf" points="1323,-112.5 1323,-131.5 1433,-131.5 1433,-112.5 1323,-112.5"/>
<text text-anchor="middle" x="1378" y="-119.5" font-family="Helvetica,sans-Serif" font-size="10.00" fill="#000000">arrow/util/variant.h</text>
</g>
<!-- Node2&#45;&gt;Node30 -->
<g id="edge36" class="edge">
<title>Node2&#45;&gt;Node30</title>
<path fill="none" stroke="#191970" d="M1231.4274,-168.3733C1260.9872,-159.021 1306.0226,-144.7725 1338.3695,-134.5385"/>
<polygon fill="#191970" stroke="#191970" points="1339.4913,-137.8546 1347.9697,-131.5011 1337.3797,-131.1807 1339.4913,-137.8546"/>
</g>
<!-- Node31 -->
<g id="node32" class="node">
<title>Node31</title>
<polygon fill="none" stroke="#bfbfbf" points="1451.5,-112.5 1451.5,-131.5 1584.5,-131.5 1584.5,-112.5 1451.5,-112.5"/>
<text text-anchor="middle" x="1518" y="-119.5" font-family="Helvetica,sans-Serif" font-size="10.00" fill="#000000">arrow/compute/kernel.h</text>
</g>
<!-- Node2&#45;&gt;Node31 -->
<g id="edge37" class="edge">
<title>Node2&#45;&gt;Node31</title>
<path fill="none" stroke="#191970" d="M1255.1341,-168.4369C1310.298,-158.6918 1395.8237,-143.5832 1454.2351,-133.2645"/>
<polygon fill="#191970" stroke="#191970" points="1454.8506,-136.71 1464.0892,-131.5237 1453.6328,-129.8167 1454.8506,-136.71"/>
</g>
<!-- Node32 -->
<g id="node33" class="node">
<title>Node32</title>
<polygon fill="none" stroke="#bfbfbf" points="997,-112.5 997,-131.5 1049,-131.5 1049,-112.5 997,-112.5"/>
<text text-anchor="middle" x="1023" y="-119.5" font-family="Helvetica,sans-Serif" font-size="10.00" fill="#000000">cassert</text>
</g>
<!-- Node2&#45;&gt;Node32 -->
<g id="edge39" class="edge">
<title>Node2&#45;&gt;Node32</title>
<path fill="none" stroke="#191970" d="M1170.4007,-168.3733C1139.4127,-158.6242 1091.5133,-143.5547 1058.7853,-133.2583"/>
<polygon fill="#191970" stroke="#191970" points="1059.7404,-129.8897 1049.151,-130.2273 1057.6396,-136.5671 1059.7404,-129.8897"/>
</g>
<!-- Node4 -->
<g id="node5" class="node">
<title>Node4</title>
<polygon fill="none" stroke="#bfbfbf" points="363.5,-.5 363.5,-19.5 416.5,-19.5 416.5,-.5 363.5,-.5"/>
<text text-anchor="middle" x="390" y="-7.5" font-family="Helvetica,sans-Serif" font-size="10.00" fill="#000000">cstddef</text>
</g>
<!-- Node3&#45;&gt;Node4 -->
<g id="edge4" class="edge">
<title>Node3&#45;&gt;Node4</title>
<path fill="none" stroke="#191970" d="M445.3295,-56.2455C435.4339,-47.9746 421.0373,-35.9416 409.4099,-26.2232"/>
<polygon fill="#191970" stroke="#191970" points="411.4542,-23.3703 401.5368,-19.6427 406.965,-28.7413 411.4542,-23.3703"/>
</g>
<!-- Node5 -->
<g id="node6" class="node">
<title>Node5</title>
<polygon fill="none" stroke="#bfbfbf" points="434.5,-.5 434.5,-19.5 479.5,-19.5 479.5,-.5 434.5,-.5"/>
<text text-anchor="middle" x="457" y="-7.5" font-family="Helvetica,sans-Serif" font-size="10.00" fill="#000000">utility</text>
</g>
<!-- Node3&#45;&gt;Node5 -->
<g id="edge5" class="edge">
<title>Node3&#45;&gt;Node5</title>
<path fill="none" stroke="#191970" d="M457,-56.2455C457,-48.9382 457,-38.6944 457,-29.7046"/>
<polygon fill="#191970" stroke="#191970" points="460.5001,-29.6426 457,-19.6427 453.5001,-29.6427 460.5001,-29.6426"/>
</g>
<!-- Node6 -->
<g id="node7" class="node">
<title>Node6</title>
<polygon fill="none" stroke="#bfbfbf" points="498,-.5 498,-19.5 544,-19.5 544,-.5 498,-.5"/>
<text text-anchor="middle" x="521" y="-7.5" font-family="Helvetica,sans-Serif" font-size="10.00" fill="#000000">cstdio</text>
</g>
<!-- Node3&#45;&gt;Node6 -->
<g id="edge6" class="edge">
<title>Node3&#45;&gt;Node6</title>
<path fill="none" stroke="#191970" d="M468.1479,-56.2455C477.5087,-48.0549 491.0858,-36.1749 502.1349,-26.5069"/>
<polygon fill="#191970" stroke="#191970" points="504.7588,-28.8618 509.9798,-19.6427 500.1492,-23.5937 504.7588,-28.8618"/>
</g>
<!-- Node8&#45;&gt;Node3 -->
<g id="edge9" class="edge">
<title>Node8&#45;&gt;Node3</title>
<path fill="none" stroke="#191970" d="M461.1291,-112.2455C460.4766,-104.9382 459.562,-94.6944 458.7593,-85.7046"/>
<polygon fill="#191970" stroke="#191970" points="462.2365,-85.2918 457.861,-75.6427 455.2642,-85.9143 462.2365,-85.2918"/>
</g>
<!-- Node8&#45;&gt;Node9 -->
<g id="edge10" class="edge">
<title>Node8&#45;&gt;Node9</title>
<path fill="none" stroke="#191970" d="M405.9645,-112.4906C357.6644,-104.1028 285.8315,-91.1749 213.7,-76.0632"/>
<polygon fill="#191970" stroke="#191970" points="214.0295,-72.5557 203.5224,-73.9166 212.5848,-79.4051 214.0295,-72.5557"/>
</g>
<!-- Node12 -->
<g id="node13" class="node">
<title>Node12</title>
<polygon fill="none" stroke="#bfbfbf" points="2103.5,-56.5 2103.5,-75.5 2172.5,-75.5 2172.5,-56.5 2103.5,-56.5"/>
<text text-anchor="middle" x="2138" y="-63.5" font-family="Helvetica,sans-Serif" font-size="10.00" fill="#000000">type_traits</text>
</g>
<!-- Node11&#45;&gt;Node12 -->
<g id="edge13" class="edge">
<title>Node11&#45;&gt;Node12</title>
<path fill="none" stroke="#191970" d="M1873.6936,-113.804C1927.1381,-105.5806 2011.0228,-92.1051 2093.4147,-76.0236"/>
<polygon fill="#191970" stroke="#191970" points="2094.3162,-79.4134 2103.4529,-74.0497 2092.9655,-72.545 2094.3162,-79.4134"/>
</g>
<!-- Node13&#45;&gt;Node3 -->
<g id="edge17" class="edge">
<title>Node13&#45;&gt;Node3</title>
<path fill="none" stroke="#191970" d="M837.2564,-114.5419C761.4226,-106.3418 637.2408,-92.3242 519.9766,-76.0874"/>
<polygon fill="#191970" stroke="#191970" points="520.1296,-72.575 509.7424,-74.6621 519.164,-79.5081 520.1296,-72.575"/>
</g>
<!-- Node13&#45;&gt;Node7 -->
<g id="edge18" class="edge">
<title>Node13&#45;&gt;Node7</title>
<path fill="none" stroke="#191970" d="M855.0613,-112.4369C801.227,-102.712 717.8239,-87.6456 660.7113,-77.3285"/>
<polygon fill="#191970" stroke="#191970" points="661.1833,-73.8572 650.7203,-75.5237 659.9388,-80.7457 661.1833,-73.8572"/>
</g>
<!-- Node13&#45;&gt;Node10 -->
<g id="edge16" class="edge">
<title>Node13&#45;&gt;Node10</title>
<path fill="none" stroke="#191970" d="M837.4243,-116.1216C740.5117,-107.9491 560.51,-92.411 396.6052,-76.1448"/>
<polygon fill="#191970" stroke="#191970" points="396.6297,-72.63 386.3321,-75.1222 395.9362,-79.5956 396.6297,-72.63"/>
</g>
<!-- Node14 -->
<g id="node15" class="node">
<title>Node14</title>
<g id="a_node15"><a xlink:href="../../dd/dc2/BasicOps_8h.html" target="_top" xlink:title="Framework/BasicOps.h">
<polygon fill="none" stroke="#000000" points="1642,-56.5 1642,-75.5 1770,-75.5 1770,-56.5 1642,-56.5"/>
<text text-anchor="middle" x="1706" y="-63.5" font-family="Helvetica,sans-Serif" font-size="10.00" fill="#000000">Framework/BasicOps.h</text>
</a>
</g>
</g>
<!-- Node13&#45;&gt;Node14 -->
<g id="edge15" class="edge">
<title>Node13&#45;&gt;Node14</title>
<path fill="none" stroke="#191970" d="M978.6419,-112.9033C981.8026,-112.5804 984.9332,-112.2771 988,-112 1270.1605,-86.5087 1344.8829,-102.8232 1631.5717,-75.9551"/>
<polygon fill="#191970" stroke="#191970" points="1632.2347,-79.408 1641.8603,-74.9809 1631.5748,-72.4392 1632.2347,-79.408"/>
</g>
<!-- Node15 -->
<g id="node16" class="node">
<title>Node15</title>
<polygon fill="none" stroke="#bfbfbf" points="1788.5,-56.5 1788.5,-75.5 1889.5,-75.5 1889.5,-56.5 1788.5,-56.5"/>
<text text-anchor="middle" x="1839" y="-63.5" font-family="Helvetica,sans-Serif" font-size="10.00" fill="#000000">arrow/type_fwd.h</text>
</g>
<!-- Node13&#45;&gt;Node15 -->
<g id="edge19" class="edge">
<title>Node13&#45;&gt;Node15</title>
<path fill="none" stroke="#191970" d="M978.6385,-112.8635C981.8001,-112.5513 984.9318,-112.2612 988,-112 1335.3127,-82.4359 1427.2857,-112.412 1778.1291,-75.9546"/>
<polygon fill="#191970" stroke="#191970" points="1778.7394,-79.4099 1788.3193,-74.8847 1778.0084,-72.4482 1778.7394,-79.4099"/>
</g>
<!-- Node16 -->
<g id="node17" class="node">
<title>Node16</title>
<polygon fill="none" stroke="#bfbfbf" points="852,-56.5 852,-75.5 998,-75.5 998,-56.5 852,-56.5"/>
<text text-anchor="middle" x="925" y="-63.5" font-family="Helvetica,sans-Serif" font-size="10.00" fill="#000000">gandiva/gandiva_aliases.h</text>
</g>
<!-- Node13&#45;&gt;Node16 -->
<g id="edge20" class="edge">
<title>Node13&#45;&gt;Node16</title>
<path fill="none" stroke="#191970" d="M910.9612,-112.2455C913.2038,-104.8579 916.3577,-94.4689 919.1081,-85.4087"/>
<polygon fill="#191970" stroke="#191970" points="922.517,-86.2282 922.0728,-75.6427 915.8188,-84.1948 922.517,-86.2282"/>
</g>
<!-- Node17 -->
<g id="node18" class="node">
<title>Node17</title>
<polygon fill="none" stroke="#bfbfbf" points="1016,-56.5 1016,-75.5 1094,-75.5 1094,-56.5 1016,-56.5"/>
<text text-anchor="middle" x="1055" y="-63.5" font-family="Helvetica,sans-Serif" font-size="10.00" fill="#000000">arrow/type.h</text>
</g>
<!-- Node13&#45;&gt;Node17 -->
<g id="edge21" class="edge">
<title>Node13&#45;&gt;Node17</title>
<path fill="none" stroke="#191970" d="M933.2702,-112.3733C957.3966,-103.1822 993.9362,-89.2624 1020.6877,-79.0713"/>
<polygon fill="#191970" stroke="#191970" points="1021.9607,-82.3318 1030.0596,-75.5011 1019.4687,-75.7904 1021.9607,-82.3318"/>
</g>
<!-- Node18 -->
<g id="node19" class="node">
<title>Node18</title>
<polygon fill="none" stroke="#bfbfbf" points="1112.5,-56.5 1112.5,-75.5 1207.5,-75.5 1207.5,-56.5 1112.5,-56.5"/>
<text text-anchor="middle" x="1160" y="-63.5" font-family="Helvetica,sans-Serif" font-size="10.00" fill="#000000">gandiva/arrow.h</text>
</g>
<!-- Node13&#45;&gt;Node18 -->
<g id="edge22" class="edge">
<title>Node13&#45;&gt;Node18</title>
<path fill="none" stroke="#191970" d="M951.034,-112.4369C994.2525,-102.8328 1060.9141,-88.0191 1107.2818,-77.7152"/>
<polygon fill="#191970" stroke="#191970" points="1108.1409,-81.1097 1117.1435,-75.5237 1106.6223,-74.2764 1108.1409,-81.1097"/>
</g>
<!-- Node13&#45;&gt;Node19 -->
<g id="edge23" class="edge">
<title>Node13&#45;&gt;Node19</title>
<path fill="none" stroke="#191970" d="M978.6354,-112.826C981.7978,-112.524 984.9305,-112.2462 988,-112 1431.029,-76.4619 1548.426,-127.304 1994.173,-75.8791"/>
<polygon fill="#191970" stroke="#191970" points="1994.9005,-79.3182 2004.4284,-74.6847 1994.0907,-72.3652 1994.9005,-79.3182"/>
</g>
<!-- Node13&#45;&gt;Node20 -->
<g id="edge24" class="edge">
<title>Node13&#45;&gt;Node20</title>
<path fill="none" stroke="#191970" d="M882.5579,-112.3733C858.2674,-103.1822 821.4792,-89.2624 794.5457,-79.0713"/>
<polygon fill="#191970" stroke="#191970" points="795.7016,-75.7666 785.1101,-75.5011 793.2243,-82.3136 795.7016,-75.7666"/>
</g>
<!-- Node21 -->
<g id="node22" class="node">
<title>Node21</title>
<polygon fill="none" stroke="#bfbfbf" points="1226,-56.5 1226,-75.5 1318,-75.5 1318,-56.5 1226,-56.5"/>
<text text-anchor="middle" x="1272" y="-63.5" font-family="Helvetica,sans-Serif" font-size="10.00" fill="#000000">gandiva/node.h</text>
</g>
<!-- Node13&#45;&gt;Node21 -->
<g id="edge25" class="edge">
<title>Node13&#45;&gt;Node21</title>
<path fill="none" stroke="#191970" d="M975.3793,-112.4997C1037.8361,-103.5601 1133.3025,-89.5563 1216,-76 1216.1005,-75.9835 1216.2011,-75.967 1216.3018,-75.9505"/>
<polygon fill="#191970" stroke="#191970" points="1216.5903,-79.4511 1225.873,-74.3442 1215.4316,-72.5477 1216.5903,-79.4511"/>
</g>
<!-- Node22 -->
<g id="node23" class="node">
<title>Node22</title>
<polygon fill="none" stroke="#bfbfbf" points="1336.5,-56.5 1336.5,-75.5 1425.5,-75.5 1425.5,-56.5 1336.5,-56.5"/>
<text text-anchor="middle" x="1381" y="-63.5" font-family="Helvetica,sans-Serif" font-size="10.00" fill="#000000">gandiva/filter.h</text>
</g>
<!-- Node13&#45;&gt;Node22 -->
<g id="edge26" class="edge">
<title>Node13&#45;&gt;Node22</title>
<path fill="none" stroke="#191970" d="M978.6617,-113.0951C981.817,-112.7202 984.941,-112.3536 988,-112 1135.2781,-94.9765 1175.356,-97.6825 1326.1595,-76.0238"/>
<polygon fill="#191970" stroke="#191970" points="1326.8601,-79.459 1336.2551,-74.5615 1325.8566,-72.5313 1326.8601,-79.459"/>
</g>
<!-- Node23 -->
<g id="node24" class="node">
<title>Node23</title>
<polygon fill="none" stroke="#bfbfbf" points="1444,-56.5 1444,-75.5 1554,-75.5 1554,-56.5 1444,-56.5"/>
<text text-anchor="middle" x="1499" y="-63.5" font-family="Helvetica,sans-Serif" font-size="10.00" fill="#000000">gandiva/projector.h</text>
</g>
<!-- Node13&#45;&gt;Node23 -->
<g id="edge27" class="edge">
<title>Node13&#45;&gt;Node23</title>
<path fill="none" stroke="#191970" d="M978.6511,-112.9982C981.8093,-112.6496 984.9368,-112.3149 988,-112 1182.54,-91.9996 1234.7607,-98.8942 1433.5253,-75.9691"/>
<polygon fill="#191970" stroke="#191970" points="1434.1904,-79.4154 1443.7185,-74.7823 1433.3808,-72.4624 1434.1904,-79.4154"/>
</g>
<!-- Node13&#45;&gt;Node24 -->
<g id="edge28" class="edge">
<title>Node13&#45;&gt;Node24</title>
<path fill="none" stroke="#191970" d="M978.6365,-112.8407C981.7987,-112.5347 984.931,-112.2521 988,-112 1388.0539,-79.143 1494.4109,-123.8727 1897.0684,-75.8984"/>
<polygon fill="#191970" stroke="#191970" points="1897.7319,-79.3439 1907.2421,-74.6741 1896.8956,-72.394 1897.7319,-79.3439"/>
</g>
<!-- Node25 -->
<g id="node26" class="node">
<title>Node25</title>
<polygon fill="none" stroke="#bfbfbf" points="1572.5,-56.5 1572.5,-75.5 1623.5,-75.5 1623.5,-56.5 1572.5,-56.5"/>
<text text-anchor="middle" x="1598" y="-63.5" font-family="Helvetica,sans-Serif" font-size="10.00" fill="#000000">variant</text>
</g>
<!-- Node13&#45;&gt;Node25 -->
<g id="edge29" class="edge">
<title>Node13&#45;&gt;Node25</title>
<path fill="none" stroke="#191970" d="M978.6443,-112.929C981.8043,-112.5991 984.9341,-112.2873 988,-112 1239.7024,-88.412 1308.9036,-118.6382 1562.284,-75.7493"/>
<polygon fill="#191970" stroke="#191970" points="1562.8855,-79.1974 1572.1505,-74.0583 1561.7029,-72.298 1562.8855,-79.1974"/>
</g>
<!-- Node13&#45;&gt;Node26 -->
<g id="edge30" class="edge">
<title>Node13&#45;&gt;Node26</title>
<path fill="none" stroke="#191970" d="M837.4572,-119.2514C653.0836,-111.9245 164.0502,-91.5275 54.3635,-75.5859"/>
<polygon fill="#191970" stroke="#191970" points="54.6092,-72.0794 44.1739,-73.911 53.4738,-78.9867 54.6092,-72.0794"/>
</g>
<!-- Node13&#45;&gt;Node27 -->
<g id="edge31" class="edge">
<title>Node13&#45;&gt;Node27</title>
<path fill="none" stroke="#191970" d="M837.2898,-119.6216C675.7462,-113.9035 282.4871,-98.2994 130.4294,-75.8903"/>
<polygon fill="#191970" stroke="#191970" points="130.752,-72.3988 120.3356,-74.3348 129.6859,-79.3171 130.752,-72.3988"/>
</g>
<!-- Node28&#45;&gt;Node15 -->
<g id="edge33" class="edge">
<title>Node28&#45;&gt;Node15</title>
<path fill="none" stroke="#191970" d="M1206.7608,-112.9311C1209.8814,-112.6006 1212.9722,-112.2882 1216,-112 1462.3147,-88.5582 1528.1809,-104.2214 1778.1923,-75.9746"/>
<polygon fill="#191970" stroke="#191970" points="1778.7738,-79.431 1788.312,-74.8188 1777.9794,-72.4762 1778.7738,-79.431"/>
</g>
<!-- Node33&#45;&gt;Node11 -->
<g id="edge42" class="edge">
<title>Node33&#45;&gt;Node11</title>
<path fill="none" stroke="#191970" d="M1823.1291,-168.2455C1822.4766,-160.9382 1821.562,-150.6944 1820.7593,-141.7046"/>
<polygon fill="#191970" stroke="#191970" points="1824.2365,-141.2918 1819.861,-131.6427 1817.2642,-141.9143 1824.2365,-141.2918"/>
</g>
<!-- Node33&#45;&gt;Node12 -->
<g id="edge44" class="edge">
<title>Node33&#45;&gt;Node12</title>
<path fill="none" stroke="#191970" d="M1835.075,-168.2739C1852.244,-153.7303 1886.8741,-126.481 1921,-112 1990.4722,-82.5202 2015.3148,-91.8783 2093.6068,-75.9879"/>
<polygon fill="#191970" stroke="#191970" points="2094.3618,-79.4057 2103.4261,-73.9205 2092.9196,-72.5559 2094.3618,-79.4057"/>
</g>
<!-- Node33&#45;&gt;Node34 -->
<g id="edge43" class="edge">
<title>Node33&#45;&gt;Node34</title>
<path fill="none" stroke="#191970" d="M1845.8321,-168.3733C1866.5585,-159.234 1897.8888,-145.4191 1920.9645,-135.244"/>
<polygon fill="#191970" stroke="#191970" points="1922.556,-138.3675 1930.2938,-131.1303 1919.7317,-131.9625 1922.556,-138.3675"/>
</g>
<!-- Node35&#45;&gt;Node10 -->
<g id="edge47" class="edge">
<title>Node35&#45;&gt;Node10</title>
<path fill="none" stroke="#191970" d="M469.5439,-168.4549C437.484,-161.6691 398.9308,-150.387 368,-132 347.1266,-119.5917 328.459,-98.6212 316.7478,-83.6481"/>
<polygon fill="#191970" stroke="#191970" points="319.5137,-81.5029 310.6921,-75.6352 313.9291,-85.7235 319.5137,-81.5029"/>
</g>
<!-- Node42 -->
<g id="node43" class="node">
<title>Node42</title>
<polygon fill="none" stroke="#bfbfbf" points="2379,-168.5 2379,-187.5 2487,-187.5 2487,-168.5 2379,-168.5"/>
<text text-anchor="middle" x="2433" y="-175.5" font-family="Helvetica,sans-Serif" font-size="10.00" fill="#000000">fairlogger/Logger.h</text>
</g>
<!-- Node41&#45;&gt;Node42 -->
<g id="edge59" class="edge">
<title>Node41&#45;&gt;Node42</title>
<path fill="none" stroke="#191970" d="M2418.9612,-224.2455C2421.2038,-216.8579 2424.3577,-206.4689 2427.1081,-197.4087"/>
<polygon fill="#191970" stroke="#191970" points="2430.517,-198.2282 2430.0728,-187.6427 2423.8188,-196.1948 2430.517,-198.2282"/>
</g>
</g>
</svg>
        <g id="navigator" transform="translate(0 0)" fill="#404254">
                <rect fill="#f2f5e9" fill-opacity="0.5" stroke="#606060" stroke-width=".5" x="0" y="0" width="60" height="60"/>
                <use id="zoomplus" xlink:href="#zoomPlus" x="17" y="9" onmousedown="handleZoom(evt,'in')"/>
                <use id="zoomminus" xlink:href="#zoomMin" x="42" y="9" onmousedown="handleZoom(evt,'out')"/>
                <use id="reset" xlink:href="#resetDef" x="30" y="36" onmousedown="handleReset()"/>
                <g id="arrowUp" xlink:href="#dirArrow" transform="translate(30 24)" onmousedown="handlePan(0,-1)">
                  <use xlink:href="#rim" fill="#404040">
                        <set attributeName="fill" to="#808080" begin="arrowUp.mouseover" end="arrowUp.mouseout"/>
                  </use>
                  <path fill="none" stroke="white" stroke-width="1.5" d="M0,-3.0v7 M-2.5,-0.5L0,-3.0L2.5,-0.5"/>
                </g>
                <g id="arrowRight" xlink:href="#dirArrow" transform="rotate(90) translate(36 -43)" onmousedown="handlePan(1,0)">
                  <use xlink:href="#rim" fill="#404040">
                        <set attributeName="fill" to="#808080" begin="arrowRight.mouseover" end="arrowRight.mouseout"/>
                  </use>
                  <path fill="none" stroke="white" stroke-width="1.5" d="M0,-3.0v7 M-2.5,-0.5L0,-3.0L2.5,-0.5"/>
                </g>
                <g id="arrowDown" xlink:href="#dirArrow" transform="rotate(180) translate(-30 -48)" onmousedown="handlePan(0,1)">
                  <use xlink:href="#rim" fill="#404040">
                        <set attributeName="fill" to="#808080" begin="arrowDown.mouseover" end="arrowDown.mouseout"/>
                  </use>
                  <path fill="none" stroke="white" stroke-width="1.5" d="M0,-3.0v7 M-2.5,-0.5L0,-3.0L2.5,-0.5"/>
                </g>
                <g id="arrowLeft" xlink:href="#dirArrow" transform="rotate(270) translate(-36 17)" onmousedown="handlePan(-1,0)">
                  <use xlink:href="#rim" fill="#404040">
                        <set attributeName="fill" to="#808080" begin="arrowLeft.mouseover" end="arrowLeft.mouseout"/>
                  </use>
                  <path fill="none" stroke="white" stroke-width="1.5" d="M0,-3.0v7 M-2.5,-0.5L0,-3.0L2.5,-0.5"/>
                </g>
        </g>
        <svg viewBox="0 0 15 15" width="100%" height="30px" preserveAspectRatio="xMaxYMin meet">
         <g id="arrow_out" transform="scale(0.3 0.3)">
          <a xlink:href="RootTableBuilderHelpers_8h__incl_org.svg" target="_base">
           <rect id="button" ry="5" rx="5" y="6" x="6" height="38" width="38"
                fill="#f2f5e9" fill-opacity="0.5" stroke="#606060" stroke-width="1.0"/>
           <path id="arrow"
             d="M 11.500037,31.436501 C 11.940474,20.09759 22.043105,11.32322 32.158766,21.979434 L 37.068811,17.246167 C 37.068811,17.246167 37.088388,32 37.088388,32 L 22.160133,31.978069 C 22.160133,31.978069 26.997745,27.140456 26.997745,27.140456 C 18.528582,18.264221 13.291696,25.230495 11.500037,31.436501 z"
             style="fill:#404040;"/>
          </a>
         </g>
        </svg>
</svg>
