<?xml version="1.0" encoding="UTF-8" standalone="no"?>
<!DOCTYPE svg PUBLIC "-//W3C//DTD SVG 1.1//EN"
 "http://www.w3.org/Graphics/SVG/1.1/DTD/svg11.dtd">
<!-- Generated by graphviz version 2.40.1 (20161225.0304)
 -->
<!-- Title: TestPages::RawPage Pages: 1 -->
<!--zoomable 529 -->
<svg id="main" version="1.1" xmlns="http://www.w3.org/2000/svg" xmlns:xlink="http://www.w3.org/1999/xlink" xml:space="preserve" onload="init(evt)">
<style type="text/css"><![CDATA[
.edge:hover path { stroke: red; }
.edge:hover polygon { stroke: red; fill: red; }
]]></style>
<script type="text/javascript"><![CDATA[
var edges = document.getElementsByTagName('g');
if (edges && edges.length) {
  for (var i=0;i<edges.length;i++) {
    if (edges[i].id.substr(0,4)=='edge') {
      edges[i].setAttribute('class','edge');
    }
  }
}
]]></script>
        <defs>
                <circle id="rim" cx="0" cy="0" r="7"/>
                <circle id="rim2" cx="0" cy="0" r="3.5"/>
                <g id="zoomPlus">
                        <use xlink:href="#rim" fill="#404040">
                                <set attributeName="fill" to="#808080" begin="zoomplus.mouseover" end="zoomplus.mouseout"/>
                        </use>
                        <path d="M-4,0h8M0,-4v8" fill="none" stroke="white" stroke-width="1.5" pointer-events="none"/>
                </g>
                <g id="zoomMin">
                        <use xlink:href="#rim" fill="#404040">
                                <set attributeName="fill" to="#808080" begin="zoomminus.mouseover" end="zoomminus.mouseout"/>
                        </use>
                        <path d="M-4,0h8" fill="none" stroke="white" stroke-width="1.5" pointer-events="none"/>
                </g>
                <g id="dirArrow">
                        <path fill="none" stroke="white" stroke-width="1.5" d="M0,-3.0v7 M-2.5,-0.5L0,-3.0L2.5,-0.5"/>
                </g>
               <g id="resetDef">
                       <use xlink:href="#rim2" fill="#404040">
                               <set attributeName="fill" to="#808080" begin="reset.mouseover" end="reset.mouseout"/>
                       </use>
               </g>
        </defs>

<script type="text/javascript">
var viewWidth = 1331;
var viewHeight = 529;
var sectionId = 'dynsection-0';
</script>
<script xlink:href="../../svgpan.js"/>
<svg id="graph" class="graph">
<g id="viewport">
<title>TestPages::RawPage</title>
<!-- Node1 -->
<g id="node1" class="node">
<title>Node1</title>
<polygon fill="#bfbfbf" stroke="#000000" points="529,-.5 529,-57.5 644,-57.5 644,-.5 529,-.5"/>
<text text-anchor="middle" x="586.5" y="-45.5" font-family="Helvetica,sans-Serif" font-size="10.00" fill="#000000">TestPages::RawPage</text>
<polyline fill="none" stroke="#000000" points="529,-38.5 644,-38.5 "/>
<text text-anchor="middle" x="586.5" y="-26.5" font-family="Helvetica,sans-Serif" font-size="10.00" fill="#000000"> </text>
<polyline fill="none" stroke="#000000" points="529,-19.5 644,-19.5 "/>
<text text-anchor="middle" x="586.5" y="-7.5" font-family="Helvetica,sans-Serif" font-size="10.00" fill="#000000"> </text>
</g>
<!-- Node2 -->
<g id="node2" class="node">
<title>Node2</title>
<polygon fill="none" stroke="#bfbfbf" points="539.5,-177 539.5,-234 577.5,-234 577.5,-177 539.5,-177"/>
<text text-anchor="middle" x="558.5" y="-222" font-family="Helvetica,sans-Serif" font-size="10.00" fill="#000000">char</text>
<polyline fill="none" stroke="#bfbfbf" points="539.5,-215 577.5,-215 "/>
<text text-anchor="middle" x="558.5" y="-203" font-family="Helvetica,sans-Serif" font-size="10.00" fill="#000000"> </text>
<polyline fill="none" stroke="#bfbfbf" points="539.5,-196 577.5,-196 "/>
<text text-anchor="middle" x="558.5" y="-184" font-family="Helvetica,sans-Serif" font-size="10.00" fill="#000000"> </text>
</g>
<!-- Node2&#45;&gt;Node1 -->
<g id="edge1" class="edge">
<title>Node2&#45;&gt;Node1</title>
<path fill="none" stroke="#404040" d="M563.061,-176.7494C567.6779,-147.6462 574.8585,-102.3832 580.0557,-69.6223"/>
<polygon fill="none" stroke="#404040" points="580.0607,-69.5901 577.0502,-63.0374 581.941,-57.7383 584.9514,-64.2909 580.0607,-69.5901"/>
<text text-anchor="middle" x="595.5" y="-79" font-family="Helvetica,sans-Serif" font-size="10.00" fill="#000000"> +data</text>
</g>
<!-- Node3 -->
<g id="node3" class="node">
<title>Node3</title>
<g id="a_node3"><a xlink:href="../../d8/d47/structo2_1_1header_1_1RAWDataHeaderV4.html" target="_top" xlink:title="{o2::header::RAWDataHeaderV4\n|+ word0\l+ blockLength\l+ zero0\l+ word1\l+ word2\l+ word3\l+ word4\l+ heartbeatBC\l+ zero42\l+ word5\l+ word6\l+ detectorField\l+ stop\l+ pageCnt\l|}">
<polygon fill="none" stroke="#000000" points="595,-105.5 595,-305.5 762,-305.5 762,-105.5 595,-105.5"/>
<text text-anchor="middle" x="678.5" y="-293.5" font-family="Helvetica,sans-Serif" font-size="10.00" fill="#000000">o2::header::RAWDataHeaderV4</text>
<polyline fill="none" stroke="#000000" points="595,-286.5 762,-286.5 "/>
<text text-anchor="start" x="603" y="-274.5" font-family="Helvetica,sans-Serif" font-size="10.00" fill="#000000">+ word0</text>
<text text-anchor="start" x="603" y="-263.5" font-family="Helvetica,sans-Serif" font-size="10.00" fill="#000000">+ blockLength</text>
<text text-anchor="start" x="603" y="-252.5" font-family="Helvetica,sans-Serif" font-size="10.00" fill="#000000">+ zero0</text>
<text text-anchor="start" x="603" y="-241.5" font-family="Helvetica,sans-Serif" font-size="10.00" fill="#000000">+ word1</text>
<text text-anchor="start" x="603" y="-230.5" font-family="Helvetica,sans-Serif" font-size="10.00" fill="#000000">+ word2</text>
<text text-anchor="start" x="603" y="-219.5" font-family="Helvetica,sans-Serif" font-size="10.00" fill="#000000">+ word3</text>
<text text-anchor="start" x="603" y="-208.5" font-family="Helvetica,sans-Serif" font-size="10.00" fill="#000000">+ word4</text>
<text text-anchor="start" x="603" y="-197.5" font-family="Helvetica,sans-Serif" font-size="10.00" fill="#000000">+ heartbeatBC</text>
<text text-anchor="start" x="603" y="-186.5" font-family="Helvetica,sans-Serif" font-size="10.00" fill="#000000">+ zero42</text>
<text text-anchor="start" x="603" y="-175.5" font-family="Helvetica,sans-Serif" font-size="10.00" fill="#000000">+ word5</text>
<text text-anchor="start" x="603" y="-164.5" font-family="Helvetica,sans-Serif" font-size="10.00" fill="#000000">+ word6</text>
<text text-anchor="start" x="603" y="-153.5" font-family="Helvetica,sans-Serif" font-size="10.00" fill="#000000">+ detectorField</text>
<text text-anchor="start" x="603" y="-142.5" font-family="Helvetica,sans-Serif" font-size="10.00" fill="#000000">+ stop</text>
<text text-anchor="start" x="603" y="-131.5" font-family="Helvetica,sans-Serif" font-size="10.00" fill="#000000">+ pageCnt</text>
<polyline fill="none" stroke="#000000" points="595,-124.5 762,-124.5 "/>
<text text-anchor="middle" x="678.5" y="-112.5" font-family="Helvetica,sans-Serif" font-size="10.00" fill="#000000"> </text>
</a>
</g>
</g>
<!-- Node3&#45;&gt;Node1 -->
<g id="edge2" class="edge">
<title>Node3&#45;&gt;Node1</title>
<path fill="none" stroke="#404040" d="M631.9747,-105.1902C626.9145,-95.2434 621.7073,-85.3685 616.5,-76 615.0391,-73.3718 613.4911,-70.6894 611.8986,-68.0047"/>
<polygon fill="none" stroke="#404040" points="611.8867,-67.9852 605.3439,-64.9535 605.6259,-57.7479 612.1688,-60.7796 611.8867,-67.9852"/>
<text text-anchor="middle" x="635.5" y="-79" font-family="Helvetica,sans-Serif" font-size="10.00" fill="#000000"> +rdh</text>
</g>
<!-- Node4 -->
<g id="node4" class="node">
<title>Node4</title>
<polygon fill="none" stroke="#bfbfbf" points="0,-463.5 0,-520.5 113,-520.5 113,-463.5 0,-463.5"/>
<text text-anchor="middle" x="56.5" y="-508.5" font-family="Helvetica,sans-Serif" font-size="10.00" fill="#000000">anonymous:+@147</text>
<polyline fill="none" stroke="#bfbfbf" points="0,-501.5 113,-501.5 "/>
<text text-anchor="middle" x="56.5" y="-489.5" font-family="Helvetica,sans-Serif" font-size="10.00" fill="#000000"> </text>
<polyline fill="none" stroke="#bfbfbf" points="0,-482.5 113,-482.5 "/>
<text text-anchor="middle" x="56.5" y="-470.5" font-family="Helvetica,sans-Serif" font-size="10.00" fill="#000000"> </text>
</g>
<!-- Node4&#45;&gt;Node3 -->
<g id="edge3" class="edge">
<title>Node4&#45;&gt;Node3</title>
<path fill="none" stroke="#404040" d="M64.2425,-463.3356C76.5352,-424.0826 104.6127,-354.9521 156.5,-324 235.5876,-276.8222 480.6587,-341.232 583.486,-306.2414"/>
<polygon fill="none" stroke="#404040" points="583.5835,-306.2024 587.6662,-300.2584 594.7233,-301.7409 590.6406,-307.6849 583.5835,-306.2024"/>
<text text-anchor="middle" x="176.5" y="-382" font-family="Helvetica,sans-Serif" font-size="10.00" fill="#000000"> +@147</text>
</g>
<!-- Node5 -->
<g id="node5" class="node">
<title>Node5</title>
<polygon fill="none" stroke="#bfbfbf" points="131,-463.5 131,-520.5 244,-520.5 244,-463.5 131,-463.5"/>
<text text-anchor="middle" x="187.5" y="-508.5" font-family="Helvetica,sans-Serif" font-size="10.00" fill="#000000">anonymous:+@139</text>
<polyline fill="none" stroke="#bfbfbf" points="131,-501.5 244,-501.5 "/>
<text text-anchor="middle" x="187.5" y="-489.5" font-family="Helvetica,sans-Serif" font-size="10.00" fill="#000000"> </text>
<polyline fill="none" stroke="#bfbfbf" points="131,-482.5 244,-482.5 "/>
<text text-anchor="middle" x="187.5" y="-470.5" font-family="Helvetica,sans-Serif" font-size="10.00" fill="#000000"> </text>
</g>
<!-- Node5&#45;&gt;Node3 -->
<g id="edge4" class="edge">
<title>Node5&#45;&gt;Node3</title>
<path fill="none" stroke="#404040" d="M193.907,-463.2093C204.2816,-424.1406 228.8158,-355.5925 278.5,-324 333.4175,-289.0798 505.8041,-330.768 583.1321,-306.2106"/>
<polygon fill="none" stroke="#404040" points="583.5216,-306.058 587.6481,-300.1442 594.694,-301.6787 590.5676,-307.5925 583.5216,-306.058"/>
<text text-anchor="middle" x="298.5" y="-382" font-family="Helvetica,sans-Serif" font-size="10.00" fill="#000000"> +@139</text>
</g>
<!-- Node6 -->
<g id="node6" class="node">
<title>Node6</title>
<polygon fill="none" stroke="#bfbfbf" points="262,-463.5 262,-520.5 375,-520.5 375,-463.5 262,-463.5"/>
<text text-anchor="middle" x="318.5" y="-508.5" font-family="Helvetica,sans-Serif" font-size="10.00" fill="#000000">anonymous:+@149</text>
<polyline fill="none" stroke="#bfbfbf" points="262,-501.5 375,-501.5 "/>
<text text-anchor="middle" x="318.5" y="-489.5" font-family="Helvetica,sans-Serif" font-size="10.00" fill="#000000"> </text>
<polyline fill="none" stroke="#bfbfbf" points="262,-482.5 375,-482.5 "/>
<text text-anchor="middle" x="318.5" y="-470.5" font-family="Helvetica,sans-Serif" font-size="10.00" fill="#000000"> </text>
</g>
<!-- Node6&#45;&gt;Node3 -->
<g id="edge5" class="edge">
<title>Node6&#45;&gt;Node3</title>
<path fill="none" stroke="#404040" d="M319.8946,-463.4317C323.4491,-424.95 335.9309,-357.4402 379.5,-324 413.6246,-297.8086 527.8881,-322.5208 583.6706,-305.7802"/>
<polygon fill="none" stroke="#404040" points="583.7679,-305.7423 587.9081,-299.8382 594.9505,-301.3891 590.8103,-307.2932 583.7679,-305.7423"/>
<text text-anchor="middle" x="399.5" y="-382" font-family="Helvetica,sans-Serif" font-size="10.00" fill="#000000"> +@149</text>
</g>
<!-- Node7 -->
<g id="node7" class="node">
<title>Node7</title>
<g id="a_node7"><a xlink:href="../../d6/d30/classuint64__t.html" target="_top" xlink:title="{uint64_t\n||}">
<polygon fill="none" stroke="#000000" points="393.5,-463.5 393.5,-520.5 449.5,-520.5 449.5,-463.5 393.5,-463.5"/>
<text text-anchor="middle" x="421.5" y="-508.5" font-family="Helvetica,sans-Serif" font-size="10.00" fill="#000000">uint64_t</text>
<polyline fill="none" stroke="#000000" points="393.5,-501.5 449.5,-501.5 "/>
<text text-anchor="middle" x="421.5" y="-489.5" font-family="Helvetica,sans-Serif" font-size="10.00" fill="#000000"> </text>
<polyline fill="none" stroke="#000000" points="393.5,-482.5 449.5,-482.5 "/>
<text text-anchor="middle" x="421.5" y="-470.5" font-family="Helvetica,sans-Serif" font-size="10.00" fill="#000000"> </text>
</a>
</g>
</g>
<!-- Node7&#45;&gt;Node3 -->
<g id="edge6" class="edge">
<title>Node7&#45;&gt;Node3</title>
<path fill="none" stroke="#404040" d="M421.4748,-463.3552C423.1063,-425.4223 432.0388,-359.2256 472.5,-324 508.4669,-292.6871 537.0364,-325.0237 583.8638,-306.2969"/>
<polygon fill="none" stroke="#404040" points="583.9637,-306.2498 587.6791,-300.0695 594.813,-301.1221 591.0975,-307.3024 583.9637,-306.2498"/>
<text text-anchor="middle" x="504.5" y="-437" font-family="Helvetica,sans-Serif" font-size="10.00" fill="#000000"> +word7</text>
<text text-anchor="middle" x="504.5" y="-426" font-family="Helvetica,sans-Serif" font-size="10.00" fill="#000000">+triggerType</text>
<text text-anchor="middle" x="504.5" y="-415" font-family="Helvetica,sans-Serif" font-size="10.00" fill="#000000">+zero6</text>
<text text-anchor="middle" x="504.5" y="-404" font-family="Helvetica,sans-Serif" font-size="10.00" fill="#000000">+par</text>
<text text-anchor="middle" x="504.5" y="-393" font-family="Helvetica,sans-Serif" font-size="10.00" fill="#000000">+feeId</text>
<text text-anchor="middle" x="504.5" y="-382" font-family="Helvetica,sans-Serif" font-size="10.00" fill="#000000">+priority</text>
<text text-anchor="middle" x="504.5" y="-371" font-family="Helvetica,sans-Serif" font-size="10.00" fill="#000000">+headerSize</text>
<text text-anchor="middle" x="504.5" y="-360" font-family="Helvetica,sans-Serif" font-size="10.00" fill="#000000">+version</text>
<text text-anchor="middle" x="504.5" y="-349" font-family="Helvetica,sans-Serif" font-size="10.00" fill="#000000">+triggerBC</text>
<text text-anchor="middle" x="504.5" y="-338" font-family="Helvetica,sans-Serif" font-size="10.00" fill="#000000">+zero41</text>
<text text-anchor="middle" x="504.5" y="-327" font-family="Helvetica,sans-Serif" font-size="10.00" fill="#000000">...</text>
</g>
<!-- Node8 -->
<g id="node8" class="node">
<title>Node8</title>
<polygon fill="none" stroke="#bfbfbf" points="468,-463.5 468,-520.5 581,-520.5 581,-463.5 468,-463.5"/>
<text text-anchor="middle" x="524.5" y="-508.5" font-family="Helvetica,sans-Serif" font-size="10.00" fill="#000000">anonymous:+@151</text>
<polyline fill="none" stroke="#bfbfbf" points="468,-501.5 581,-501.5 "/>
<text text-anchor="middle" x="524.5" y="-489.5" font-family="Helvetica,sans-Serif" font-size="10.00" fill="#000000"> </text>
<polyline fill="none" stroke="#bfbfbf" points="468,-482.5 581,-482.5 "/>
<text text-anchor="middle" x="524.5" y="-470.5" font-family="Helvetica,sans-Serif" font-size="10.00" fill="#000000"> </text>
</g>
<!-- Node8&#45;&gt;Node3 -->
<g id="edge7" class="edge">
<title>Node8&#45;&gt;Node3</title>
<path fill="none" stroke="#404040" d="M533.437,-463.3621C544.6828,-429.1032 565.6852,-370.5445 591.5,-324 592.9893,-321.3147 594.5308,-318.6201 596.1163,-315.923"/>
<polygon fill="none" stroke="#404040" points="596.2039,-315.7787 595.8991,-308.574 602.4324,-305.5217 602.7371,-312.7264 596.2039,-315.7787"/>
<text text-anchor="middle" x="611.5" y="-382" font-family="Helvetica,sans-Serif" font-size="10.00" fill="#000000"> +@151</text>
</g>
<!-- Node9 -->
<g id="node9" class="node">
<title>Node9</title>
<polygon fill="none" stroke="#bfbfbf" points="599.5,-463.5 599.5,-520.5 655.5,-520.5 655.5,-463.5 599.5,-463.5"/>
<text text-anchor="middle" x="627.5" y="-508.5" font-family="Helvetica,sans-Serif" font-size="10.00" fill="#000000">uint16_t</text>
<polyline fill="none" stroke="#bfbfbf" points="599.5,-501.5 655.5,-501.5 "/>
<text text-anchor="middle" x="627.5" y="-489.5" font-family="Helvetica,sans-Serif" font-size="10.00" fill="#000000"> </text>
<polyline fill="none" stroke="#bfbfbf" points="599.5,-482.5 655.5,-482.5 "/>
<text text-anchor="middle" x="627.5" y="-470.5" font-family="Helvetica,sans-Serif" font-size="10.00" fill="#000000"> </text>
</g>
<!-- Node9&#45;&gt;Node3 -->
<g id="edge8" class="edge">
<title>Node9&#45;&gt;Node3</title>
<path fill="none" stroke="#404040" d="M632.5765,-463.4819C638.6315,-429.4672 649.1202,-370.5456 658.5463,-317.593"/>
<polygon fill="none" stroke="#404040" points="658.5612,-317.5086 655.6747,-310.9005 660.6644,-305.6944 663.5509,-312.3026 658.5612,-317.5086"/>
<text text-anchor="middle" x="674" y="-382" font-family="Helvetica,sans-Serif" font-size="10.00" fill="#000000"> +cruID</text>
</g>
<!-- Node10 -->
<g id="node10" class="node">
<title>Node10</title>
<polygon fill="none" stroke="#bfbfbf" points="674,-463.5 674,-520.5 787,-520.5 787,-463.5 674,-463.5"/>
<text text-anchor="middle" x="730.5" y="-508.5" font-family="Helvetica,sans-Serif" font-size="10.00" fill="#000000">anonymous:+@153</text>
<polyline fill="none" stroke="#bfbfbf" points="674,-501.5 787,-501.5 "/>
<text text-anchor="middle" x="730.5" y="-489.5" font-family="Helvetica,sans-Serif" font-size="10.00" fill="#000000"> </text>
<polyline fill="none" stroke="#bfbfbf" points="674,-482.5 787,-482.5 "/>
<text text-anchor="middle" x="730.5" y="-470.5" font-family="Helvetica,sans-Serif" font-size="10.00" fill="#000000"> </text>
</g>
<!-- Node10&#45;&gt;Node3 -->
<g id="edge9" class="edge">
<title>Node10&#45;&gt;Node3</title>
<path fill="none" stroke="#404040" d="M725.3239,-463.4819C719.1502,-429.4672 708.4559,-370.5456 698.845,-317.593"/>
<polygon fill="none" stroke="#404040" points="698.8284,-317.5015 693.8212,-312.3123 696.6854,-305.6944 701.6926,-310.8836 698.8284,-317.5015"/>
<text text-anchor="middle" x="741.5" y="-382" font-family="Helvetica,sans-Serif" font-size="10.00" fill="#000000"> +@153</text>
</g>
<!-- Node11 -->
<g id="node11" class="node">
<title>Node11</title>
<polygon fill="none" stroke="#bfbfbf" points="805.5,-463.5 805.5,-520.5 855.5,-520.5 855.5,-463.5 805.5,-463.5"/>
<text text-anchor="middle" x="830.5" y="-508.5" font-family="Helvetica,sans-Serif" font-size="10.00" fill="#000000">uint8_t</text>
<polyline fill="none" stroke="#bfbfbf" points="805.5,-501.5 855.5,-501.5 "/>
<text text-anchor="middle" x="830.5" y="-489.5" font-family="Helvetica,sans-Serif" font-size="10.00" fill="#000000"> </text>
<polyline fill="none" stroke="#bfbfbf" points="805.5,-482.5 855.5,-482.5 "/>
<text text-anchor="middle" x="830.5" y="-470.5" font-family="Helvetica,sans-Serif" font-size="10.00" fill="#000000"> </text>
</g>
<!-- Node11&#45;&gt;Node3 -->
<g id="edge10" class="edge">
<title>Node11&#45;&gt;Node3</title>
<path fill="none" stroke="#404040" d="M807.3017,-463.4737C803.2806,-457.6058 799.4506,-451.2914 796.5,-445 772.9278,-394.7384 789.2488,-374.1784 765.5,-324 764.2794,-321.421 762.9994,-318.8412 761.6677,-316.2657"/>
<polygon fill="none" stroke="#404040" points="761.6604,-316.2523 755.2777,-312.8966 755.9203,-305.7142 762.3031,-309.0698 761.6604,-316.2523"/>
<text text-anchor="middle" x="836.5" y="-393" font-family="Helvetica,sans-Serif" font-size="10.00" fill="#000000"> +linkID</text>
<text text-anchor="middle" x="836.5" y="-382" font-family="Helvetica,sans-Serif" font-size="10.00" fill="#000000">+endPointID</text>
<text text-anchor="middle" x="836.5" y="-371" font-family="Helvetica,sans-Serif" font-size="10.00" fill="#000000">+packetCounter</text>
</g>
<!-- Node12 -->
<g id="node12" class="node">
<title>Node12</title>
<g id="a_node12"><a xlink:href="../../d3/d87/classuint32__t.html" target="_top" xlink:title="{uint32_t\n||}">
<polygon fill="none" stroke="#000000" points="873.5,-463.5 873.5,-520.5 929.5,-520.5 929.5,-463.5 873.5,-463.5"/>
<text text-anchor="middle" x="901.5" y="-508.5" font-family="Helvetica,sans-Serif" font-size="10.00" fill="#000000">uint32_t</text>
<polyline fill="none" stroke="#000000" points="873.5,-501.5 929.5,-501.5 "/>
<text text-anchor="middle" x="901.5" y="-489.5" font-family="Helvetica,sans-Serif" font-size="10.00" fill="#000000"> </text>
<polyline fill="none" stroke="#000000" points="873.5,-482.5 929.5,-482.5 "/>
<text text-anchor="middle" x="901.5" y="-470.5" font-family="Helvetica,sans-Serif" font-size="10.00" fill="#000000"> </text>
</a>
</g>
</g>
<!-- Node12&#45;&gt;Node3 -->
<g id="edge11" class="edge">
<title>Node12&#45;&gt;Node3</title>
<path fill="none" stroke="#404040" d="M900.161,-463.2483C897.7269,-421.3922 891.3796,-346.242 876.5,-324 851.7656,-287.0273 811.2373,-259.834 773.2695,-240.8925"/>
<polygon fill="none" stroke="#404040" points="772.9301,-240.7292 765.7888,-241.73 762.1183,-235.523 769.2596,-234.5221 772.9301,-240.7292"/>
<text text-anchor="middle" x="940" y="-398.5" font-family="Helvetica,sans-Serif" font-size="10.00" fill="#000000"> +heartbeatOrbit</text>
<text text-anchor="middle" x="940" y="-387.5" font-family="Helvetica,sans-Serif" font-size="10.00" fill="#000000">+triggerOrbit</text>
<text text-anchor="middle" x="940" y="-376.5" font-family="Helvetica,sans-Serif" font-size="10.00" fill="#000000">+memorySize</text>
<text text-anchor="middle" x="940" y="-365.5" font-family="Helvetica,sans-Serif" font-size="10.00" fill="#000000">+offsetToNext</text>
</g>
<!-- Node13 -->
<g id="node13" class="node">
<title>Node13</title>
<polygon fill="none" stroke="#bfbfbf" points="948,-463.5 948,-520.5 1061,-520.5 1061,-463.5 948,-463.5"/>
<text text-anchor="middle" x="1004.5" y="-508.5" font-family="Helvetica,sans-Serif" font-size="10.00" fill="#000000">anonymous:+@141</text>
<polyline fill="none" stroke="#bfbfbf" points="948,-501.5 1061,-501.5 "/>
<text text-anchor="middle" x="1004.5" y="-489.5" font-family="Helvetica,sans-Serif" font-size="10.00" fill="#000000"> </text>
<polyline fill="none" stroke="#bfbfbf" points="948,-482.5 1061,-482.5 "/>
<text text-anchor="middle" x="1004.5" y="-470.5" font-family="Helvetica,sans-Serif" font-size="10.00" fill="#000000"> </text>
</g>
<!-- Node13&#45;&gt;Node3 -->
<g id="edge12" class="edge">
<title>Node13&#45;&gt;Node3</title>
<path fill="none" stroke="#404040" d="M1008.9259,-463.4188C1012.8942,-427.0585 1013.9788,-364.1719 982.5,-324 932.4836,-260.1711 843.3437,-230.673 774.4762,-217.0697"/>
<polygon fill="none" stroke="#404040" points="774.0981,-216.9988 767.4637,-219.8245 762.3036,-214.7873 768.938,-211.9616 774.0981,-216.9988"/>
<text text-anchor="middle" x="1030.5" y="-382" font-family="Helvetica,sans-Serif" font-size="10.00" fill="#000000"> +@141</text>
</g>
<!-- Node14 -->
<g id="node14" class="node">
<title>Node14</title>
<polygon fill="none" stroke="#bfbfbf" points="1079,-463.5 1079,-520.5 1192,-520.5 1192,-463.5 1079,-463.5"/>
<text text-anchor="middle" x="1135.5" y="-508.5" font-family="Helvetica,sans-Serif" font-size="10.00" fill="#000000">anonymous:+@143</text>
<polyline fill="none" stroke="#bfbfbf" points="1079,-501.5 1192,-501.5 "/>
<text text-anchor="middle" x="1135.5" y="-489.5" font-family="Helvetica,sans-Serif" font-size="10.00" fill="#000000"> </text>
<polyline fill="none" stroke="#bfbfbf" points="1079,-482.5 1192,-482.5 "/>
<text text-anchor="middle" x="1135.5" y="-470.5" font-family="Helvetica,sans-Serif" font-size="10.00" fill="#000000"> </text>
</g>
<!-- Node14&#45;&gt;Node3 -->
<g id="edge13" class="edge">
<title>Node14&#45;&gt;Node3</title>
<path fill="none" stroke="#404040" d="M1129.1723,-463.3237C1119.4646,-425.9728 1097.3456,-361.0827 1054.5,-324 975.4555,-255.5874 856.8868,-226.6267 774.0945,-214.3941"/>
<polygon fill="none" stroke="#404040" points="774.03,-214.3851 767.5298,-217.5073 762.1478,-212.708 768.6479,-209.5858 774.03,-214.3851"/>
<text text-anchor="middle" x="1143.5" y="-382" font-family="Helvetica,sans-Serif" font-size="10.00" fill="#000000"> +@143</text>
</g>
<!-- Node15 -->
<g id="node15" class="node">
<title>Node15</title>
<polygon fill="none" stroke="#bfbfbf" points="1210,-463.5 1210,-520.5 1323,-520.5 1323,-463.5 1210,-463.5"/>
<text text-anchor="middle" x="1266.5" y="-508.5" font-family="Helvetica,sans-Serif" font-size="10.00" fill="#000000">anonymous:+@145</text>
<polyline fill="none" stroke="#bfbfbf" points="1210,-501.5 1323,-501.5 "/>
<text text-anchor="middle" x="1266.5" y="-489.5" font-family="Helvetica,sans-Serif" font-size="10.00" fill="#000000"> </text>
<polyline fill="none" stroke="#bfbfbf" points="1210,-482.5 1323,-482.5 "/>
<text text-anchor="middle" x="1266.5" y="-470.5" font-family="Helvetica,sans-Serif" font-size="10.00" fill="#000000"> </text>
</g>
<!-- Node15&#45;&gt;Node3 -->
<g id="edge14" class="edge">
<title>Node15&#45;&gt;Node3</title>
<path fill="none" stroke="#404040" d="M1257.5606,-463.4321C1244.2067,-425.5864 1215.3619,-359.4882 1167.5,-324 1105.8317,-278.2747 898.3173,-239.4755 774.3076,-219.6478"/>
<polygon fill="none" stroke="#404040" points="774.0576,-219.6083 767.5056,-222.6201 762.2055,-217.7306 768.7574,-214.7187 774.0576,-219.6083"/>
<text text-anchor="middle" x="1269.5" y="-382" font-family="Helvetica,sans-Serif" font-size="10.00" fill="#000000"> +@145</text>
</g>
</g>
</svg>
        <g id="navigator" transform="translate(0 0)" fill="#404254">
                <rect fill="#f2f5e9" fill-opacity="0.5" stroke="#606060" stroke-width=".5" x="0" y="0" width="60" height="60"/>
                <use id="zoomplus" xlink:href="#zoomPlus" x="17" y="9" onmousedown="handleZoom(evt,'in')"/>
                <use id="zoomminus" xlink:href="#zoomMin" x="42" y="9" onmousedown="handleZoom(evt,'out')"/>
                <use id="reset" xlink:href="#resetDef" x="30" y="36" onmousedown="handleReset()"/>
                <g id="arrowUp" xlink:href="#dirArrow" transform="translate(30 24)" onmousedown="handlePan(0,-1)">
                  <use xlink:href="#rim" fill="#404040">
                        <set attributeName="fill" to="#808080" begin="arrowUp.mouseover" end="arrowUp.mouseout"/>
                  </use>
                  <path fill="none" stroke="white" stroke-width="1.5" d="M0,-3.0v7 M-2.5,-0.5L0,-3.0L2.5,-0.5"/>
                </g>
                <g id="arrowRight" xlink:href="#dirArrow" transform="rotate(90) translate(36 -43)" onmousedown="handlePan(1,0)">
                  <use xlink:href="#rim" fill="#404040">
                        <set attributeName="fill" to="#808080" begin="arrowRight.mouseover" end="arrowRight.mouseout"/>
                  </use>
                  <path fill="none" stroke="white" stroke-width="1.5" d="M0,-3.0v7 M-2.5,-0.5L0,-3.0L2.5,-0.5"/>
                </g>
                <g id="arrowDown" xlink:href="#dirArrow" transform="rotate(180) translate(-30 -48)" onmousedown="handlePan(0,1)">
                  <use xlink:href="#rim" fill="#404040">
                        <set attributeName="fill" to="#808080" begin="arrowDown.mouseover" end="arrowDown.mouseout"/>
                  </use>
                  <path fill="none" stroke="white" stroke-width="1.5" d="M0,-3.0v7 M-2.5,-0.5L0,-3.0L2.5,-0.5"/>
                </g>
                <g id="arrowLeft" xlink:href="#dirArrow" transform="rotate(270) translate(-36 17)" onmousedown="handlePan(-1,0)">
                  <use xlink:href="#rim" fill="#404040">
                        <set attributeName="fill" to="#808080" begin="arrowLeft.mouseover" end="arrowLeft.mouseout"/>
                  </use>
                  <path fill="none" stroke="white" stroke-width="1.5" d="M0,-3.0v7 M-2.5,-0.5L0,-3.0L2.5,-0.5"/>
                </g>
        </g>
        <svg viewBox="0 0 15 15" width="100%" height="30px" preserveAspectRatio="xMaxYMin meet">
         <g id="arrow_out" transform="scale(0.3 0.3)">
          <a xlink:href="structTestPages_1_1RawPage__coll__graph_org.svg" target="_base">
           <rect id="button" ry="5" rx="5" y="6" x="6" height="38" width="38"
                fill="#f2f5e9" fill-opacity="0.5" stroke="#606060" stroke-width="1.0"/>
           <path id="arrow"
             d="M 11.500037,31.436501 C 11.940474,20.09759 22.043105,11.32322 32.158766,21.979434 L 37.068811,17.246167 C 37.068811,17.246167 37.088388,32 37.088388,32 L 22.160133,31.978069 C 22.160133,31.978069 26.997745,27.140456 26.997745,27.140456 C 18.528582,18.264221 13.291696,25.230495 11.500037,31.436501 z"
             style="fill:#404040;"/>
          </a>
         </g>
        </svg>
</svg>
