<?xml version="1.0" encoding="UTF-8" standalone="no"?>
<!DOCTYPE svg PUBLIC "-//W3C//DTD SVG 1.1//EN"
 "http://www.w3.org/Graphics/SVG/1.1/DTD/svg11.dtd">
<!-- Generated by graphviz version 2.40.1 (20161225.0304)
 -->
<!-- Title: o2::vertexing::VertexSeed Pages: 1 -->
<!--zoomable 1190 -->
<svg id="main" version="1.1" xmlns="http://www.w3.org/2000/svg" xmlns:xlink="http://www.w3.org/1999/xlink" xml:space="preserve" onload="init(evt)">
<style type="text/css"><![CDATA[
.edge:hover path { stroke: red; }
.edge:hover polygon { stroke: red; fill: red; }
]]></style>
<script type="text/javascript"><![CDATA[
var edges = document.getElementsByTagName('g');
if (edges && edges.length) {
  for (var i=0;i<edges.length;i++) {
    if (edges[i].id.substr(0,4)=='edge') {
      edges[i].setAttribute('class','edge');
    }
  }
}
]]></script>
        <defs>
                <circle id="rim" cx="0" cy="0" r="7"/>
                <circle id="rim2" cx="0" cy="0" r="3.5"/>
                <g id="zoomPlus">
                        <use xlink:href="#rim" fill="#404040">
                                <set attributeName="fill" to="#808080" begin="zoomplus.mouseover" end="zoomplus.mouseout"/>
                        </use>
                        <path d="M-4,0h8M0,-4v8" fill="none" stroke="white" stroke-width="1.5" pointer-events="none"/>
                </g>
                <g id="zoomMin">
                        <use xlink:href="#rim" fill="#404040">
                                <set attributeName="fill" to="#808080" begin="zoomminus.mouseover" end="zoomminus.mouseout"/>
                        </use>
                        <path d="M-4,0h8" fill="none" stroke="white" stroke-width="1.5" pointer-events="none"/>
                </g>
                <g id="dirArrow">
                        <path fill="none" stroke="white" stroke-width="1.5" d="M0,-3.0v7 M-2.5,-0.5L0,-3.0L2.5,-0.5"/>
                </g>
               <g id="resetDef">
                       <use xlink:href="#rim2" fill="#404040">
                               <set attributeName="fill" to="#808080" begin="reset.mouseover" end="reset.mouseout"/>
                       </use>
               </g>
        </defs>

<script type="text/javascript">
var viewWidth = 896;
var viewHeight = 1190;
var sectionId = 'dynsection-1';
</script>
<script xlink:href="../../svgpan.js"/>
<svg id="graph" class="graph">
<g id="viewport">
<title>o2::vertexing::VertexSeed</title>
<!-- Node3 -->
<g id="node1" class="node">
<title>Node3</title>
<polygon fill="#bfbfbf" stroke="#000000" points="425,-.5 425,-123.5 568,-123.5 568,-.5 425,-.5"/>
<text text-anchor="middle" x="496.5" y="-111.5" font-family="Helvetica,sans-Serif" font-size="10.00" fill="#000000">o2::vertexing::VertexSeed</text>
<polyline fill="none" stroke="#000000" points="425,-104.5 568,-104.5 "/>
<text text-anchor="start" x="433" y="-92.5" font-family="Helvetica,sans-Serif" font-size="10.00" fill="#000000">+ tMeanAcc</text>
<text text-anchor="start" x="433" y="-81.5" font-family="Helvetica,sans-Serif" font-size="10.00" fill="#000000">+ cxz</text>
<text text-anchor="start" x="433" y="-70.5" font-family="Helvetica,sans-Serif" font-size="10.00" fill="#000000">+ cz0</text>
<polyline fill="none" stroke="#000000" points="425,-63.5 568,-63.5 "/>
<text text-anchor="start" x="433" y="-51.5" font-family="Helvetica,sans-Serif" font-size="10.00" fill="#000000">+ setScale()</text>
<text text-anchor="start" x="433" y="-40.5" font-family="Helvetica,sans-Serif" font-size="10.00" fill="#000000">+ resetForNewIteration()</text>
<text text-anchor="start" x="433" y="-29.5" font-family="Helvetica,sans-Serif" font-size="10.00" fill="#000000">+ VertexSeed()</text>
<text text-anchor="start" x="433" y="-18.5" font-family="Helvetica,sans-Serif" font-size="10.00" fill="#000000">+ VertexSeed()</text>
<text text-anchor="start" x="433" y="-7.5" font-family="Helvetica,sans-Serif" font-size="10.00" fill="#000000">+ print()</text>
</g>
<!-- Node4 -->
<g id="node2" class="node">
<title>Node4</title>
<g id="a_node2"><a xlink:href="../../dd/ded/classo2_1_1dataformats_1_1Vertex.html" target="_top" xlink:title="{Vertex\n||+ Vertex()\l+ ~Vertex()\l+ Vertex()\l+ print()\l+ getNContributors()\l+ setNContributors()\l+ addContributor()\l+ getBits()\l+ isBitSet()\l+ setBits()\l+ setBit()\l+ resetBit()\l+ setChi2()\l+ getChi2()\l+ getTimeStamp()\l+ getTimeStamp()\l+ setTimeStamp()\l}">
<polygon fill="none" stroke="#000000" points="241,-281.5 241,-514.5 360,-514.5 360,-281.5 241,-281.5"/>
<text text-anchor="middle" x="300.5" y="-502.5" font-family="Helvetica,sans-Serif" font-size="10.00" fill="#000000">Vertex</text>
<polyline fill="none" stroke="#000000" points="241,-495.5 360,-495.5 "/>
<text text-anchor="middle" x="300.5" y="-483.5" font-family="Helvetica,sans-Serif" font-size="10.00" fill="#000000"> </text>
<polyline fill="none" stroke="#000000" points="241,-476.5 360,-476.5 "/>
<text text-anchor="start" x="249" y="-464.5" font-family="Helvetica,sans-Serif" font-size="10.00" fill="#000000">+ Vertex()</text>
<text text-anchor="start" x="249" y="-453.5" font-family="Helvetica,sans-Serif" font-size="10.00" fill="#000000">+ ~Vertex()</text>
<text text-anchor="start" x="249" y="-442.5" font-family="Helvetica,sans-Serif" font-size="10.00" fill="#000000">+ Vertex()</text>
<text text-anchor="start" x="249" y="-431.5" font-family="Helvetica,sans-Serif" font-size="10.00" fill="#000000">+ print()</text>
<text text-anchor="start" x="249" y="-420.5" font-family="Helvetica,sans-Serif" font-size="10.00" fill="#000000">+ getNContributors()</text>
<text text-anchor="start" x="249" y="-409.5" font-family="Helvetica,sans-Serif" font-size="10.00" fill="#000000">+ setNContributors()</text>
<text text-anchor="start" x="249" y="-398.5" font-family="Helvetica,sans-Serif" font-size="10.00" fill="#000000">+ addContributor()</text>
<text text-anchor="start" x="249" y="-387.5" font-family="Helvetica,sans-Serif" font-size="10.00" fill="#000000">+ getBits()</text>
<text text-anchor="start" x="249" y="-376.5" font-family="Helvetica,sans-Serif" font-size="10.00" fill="#000000">+ isBitSet()</text>
<text text-anchor="start" x="249" y="-365.5" font-family="Helvetica,sans-Serif" font-size="10.00" fill="#000000">+ setBits()</text>
<text text-anchor="start" x="249" y="-354.5" font-family="Helvetica,sans-Serif" font-size="10.00" fill="#000000">+ setBit()</text>
<text text-anchor="start" x="249" y="-343.5" font-family="Helvetica,sans-Serif" font-size="10.00" fill="#000000">+ resetBit()</text>
<text text-anchor="start" x="249" y="-332.5" font-family="Helvetica,sans-Serif" font-size="10.00" fill="#000000">+ setChi2()</text>
<text text-anchor="start" x="249" y="-321.5" font-family="Helvetica,sans-Serif" font-size="10.00" fill="#000000">+ getChi2()</text>
<text text-anchor="start" x="249" y="-310.5" font-family="Helvetica,sans-Serif" font-size="10.00" fill="#000000">+ getTimeStamp()</text>
<text text-anchor="start" x="249" y="-299.5" font-family="Helvetica,sans-Serif" font-size="10.00" fill="#000000">+ getTimeStamp()</text>
<text text-anchor="start" x="249" y="-288.5" font-family="Helvetica,sans-Serif" font-size="10.00" fill="#000000">+ setTimeStamp()</text>
</a>
</g>
</g>
<!-- Node4&#45;&gt;Node3 -->
<g id="edge1" class="edge">
<title>Node4&#45;&gt;Node3</title>
<path fill="none" stroke="#191970" d="M330.838,-271.7547C345.2271,-228.0129 365.5559,-180.3711 393.5,-142 402.2307,-130.0116 413.2365,-118.9208 424.7817,-109.053"/>
<polygon fill="none" stroke="#191970" points="327.493,-270.7239 327.7658,-281.3152 334.1574,-272.8655 327.493,-270.7239"/>
</g>
<!-- Node5 -->
<g id="node3" class="node">
<title>Node5</title>
<g id="a_node3"><a xlink:href="../../dc/d08/classo2_1_1dataformats_1_1VertexBase.html" target="_top" xlink:title="{o2::dataformats::VertexBase\n||+ VertexBase()\l+ ~VertexBase()\l+ VertexBase()\l+ print()\l+ asString()\l+ getX()\l+ getY()\l+ getZ()\l+ getSigmaX2()\l+ getSigmaY2()\l+ getSigmaZ2()\l+ getSigmaXY()\l+ getSigmaXZ()\l+ getSigmaYZ()\l+ getCov()\l+ getXYZ()\l+ getXYZ()\l+ setX()\l+ setY()\l+ setZ()\l+ setXYZ()\l+ setPos()\l+ setSigmaX2()\l+ setSigmaY2()\l+ setSigmaZ2()\l+ setSigmaXY()\l+ setSigmaXZ()\l+ setSigmaYZ()\l+ setCov()\l+ setCov()\l# ClassDefNV()\l}">
<polygon fill="none" stroke="#000000" points="142.5,-562.5 142.5,-949.5 298.5,-949.5 298.5,-562.5 142.5,-562.5"/>
<text text-anchor="middle" x="220.5" y="-937.5" font-family="Helvetica,sans-Serif" font-size="10.00" fill="#000000">o2::dataformats::VertexBase</text>
<polyline fill="none" stroke="#000000" points="142.5,-930.5 298.5,-930.5 "/>
<text text-anchor="middle" x="220.5" y="-918.5" font-family="Helvetica,sans-Serif" font-size="10.00" fill="#000000"> </text>
<polyline fill="none" stroke="#000000" points="142.5,-911.5 298.5,-911.5 "/>
<text text-anchor="start" x="150.5" y="-899.5" font-family="Helvetica,sans-Serif" font-size="10.00" fill="#000000">+ VertexBase()</text>
<text text-anchor="start" x="150.5" y="-888.5" font-family="Helvetica,sans-Serif" font-size="10.00" fill="#000000">+ ~VertexBase()</text>
<text text-anchor="start" x="150.5" y="-877.5" font-family="Helvetica,sans-Serif" font-size="10.00" fill="#000000">+ VertexBase()</text>
<text text-anchor="start" x="150.5" y="-866.5" font-family="Helvetica,sans-Serif" font-size="10.00" fill="#000000">+ print()</text>
<text text-anchor="start" x="150.5" y="-855.5" font-family="Helvetica,sans-Serif" font-size="10.00" fill="#000000">+ asString()</text>
<text text-anchor="start" x="150.5" y="-844.5" font-family="Helvetica,sans-Serif" font-size="10.00" fill="#000000">+ getX()</text>
<text text-anchor="start" x="150.5" y="-833.5" font-family="Helvetica,sans-Serif" font-size="10.00" fill="#000000">+ getY()</text>
<text text-anchor="start" x="150.5" y="-822.5" font-family="Helvetica,sans-Serif" font-size="10.00" fill="#000000">+ getZ()</text>
<text text-anchor="start" x="150.5" y="-811.5" font-family="Helvetica,sans-Serif" font-size="10.00" fill="#000000">+ getSigmaX2()</text>
<text text-anchor="start" x="150.5" y="-800.5" font-family="Helvetica,sans-Serif" font-size="10.00" fill="#000000">+ getSigmaY2()</text>
<text text-anchor="start" x="150.5" y="-789.5" font-family="Helvetica,sans-Serif" font-size="10.00" fill="#000000">+ getSigmaZ2()</text>
<text text-anchor="start" x="150.5" y="-778.5" font-family="Helvetica,sans-Serif" font-size="10.00" fill="#000000">+ getSigmaXY()</text>
<text text-anchor="start" x="150.5" y="-767.5" font-family="Helvetica,sans-Serif" font-size="10.00" fill="#000000">+ getSigmaXZ()</text>
<text text-anchor="start" x="150.5" y="-756.5" font-family="Helvetica,sans-Serif" font-size="10.00" fill="#000000">+ getSigmaYZ()</text>
<text text-anchor="start" x="150.5" y="-745.5" font-family="Helvetica,sans-Serif" font-size="10.00" fill="#000000">+ getCov()</text>
<text text-anchor="start" x="150.5" y="-734.5" font-family="Helvetica,sans-Serif" font-size="10.00" fill="#000000">+ getXYZ()</text>
<text text-anchor="start" x="150.5" y="-723.5" font-family="Helvetica,sans-Serif" font-size="10.00" fill="#000000">+ getXYZ()</text>
<text text-anchor="start" x="150.5" y="-712.5" font-family="Helvetica,sans-Serif" font-size="10.00" fill="#000000">+ setX()</text>
<text text-anchor="start" x="150.5" y="-701.5" font-family="Helvetica,sans-Serif" font-size="10.00" fill="#000000">+ setY()</text>
<text text-anchor="start" x="150.5" y="-690.5" font-family="Helvetica,sans-Serif" font-size="10.00" fill="#000000">+ setZ()</text>
<text text-anchor="start" x="150.5" y="-679.5" font-family="Helvetica,sans-Serif" font-size="10.00" fill="#000000">+ setXYZ()</text>
<text text-anchor="start" x="150.5" y="-668.5" font-family="Helvetica,sans-Serif" font-size="10.00" fill="#000000">+ setPos()</text>
<text text-anchor="start" x="150.5" y="-657.5" font-family="Helvetica,sans-Serif" font-size="10.00" fill="#000000">+ setSigmaX2()</text>
<text text-anchor="start" x="150.5" y="-646.5" font-family="Helvetica,sans-Serif" font-size="10.00" fill="#000000">+ setSigmaY2()</text>
<text text-anchor="start" x="150.5" y="-635.5" font-family="Helvetica,sans-Serif" font-size="10.00" fill="#000000">+ setSigmaZ2()</text>
<text text-anchor="start" x="150.5" y="-624.5" font-family="Helvetica,sans-Serif" font-size="10.00" fill="#000000">+ setSigmaXY()</text>
<text text-anchor="start" x="150.5" y="-613.5" font-family="Helvetica,sans-Serif" font-size="10.00" fill="#000000">+ setSigmaXZ()</text>
<text text-anchor="start" x="150.5" y="-602.5" font-family="Helvetica,sans-Serif" font-size="10.00" fill="#000000">+ setSigmaYZ()</text>
<text text-anchor="start" x="150.5" y="-591.5" font-family="Helvetica,sans-Serif" font-size="10.00" fill="#000000">+ setCov()</text>
<text text-anchor="start" x="150.5" y="-580.5" font-family="Helvetica,sans-Serif" font-size="10.00" fill="#000000">+ setCov()</text>
<text text-anchor="start" x="150.5" y="-569.5" font-family="Helvetica,sans-Serif" font-size="10.00" fill="#000000"># ClassDefNV()</text>
</a>
</g>
</g>
<!-- Node5&#45;&gt;Node4 -->
<g id="edge2" class="edge">
<title>Node5&#45;&gt;Node4</title>
<path fill="none" stroke="#191970" d="M265.9711,-552.5166C268.8307,-539.7199 271.6523,-527.0933 274.3759,-514.9052"/>
<polygon fill="none" stroke="#191970" points="262.5432,-551.8084 263.778,-562.331 269.3747,-553.3351 262.5432,-551.8084"/>
</g>
<!-- Node6 -->
<g id="node4" class="node">
<title>Node6</title>
<polygon fill="none" stroke="#bfbfbf" points="0,-1003 0,-1060 125,-1060 125,-1003 0,-1003"/>
<text text-anchor="middle" x="62.5" y="-1048" font-family="Helvetica,sans-Serif" font-size="10.00" fill="#000000">array&lt; float, kNCov &gt;</text>
<polyline fill="none" stroke="#bfbfbf" points="0,-1041 125,-1041 "/>
<text text-anchor="middle" x="62.5" y="-1029" font-family="Helvetica,sans-Serif" font-size="10.00" fill="#000000"> </text>
<polyline fill="none" stroke="#bfbfbf" points="0,-1022 125,-1022 "/>
<text text-anchor="middle" x="62.5" y="-1010" font-family="Helvetica,sans-Serif" font-size="10.00" fill="#000000"> </text>
</g>
<!-- Node6&#45;&gt;Node5 -->
<g id="edge3" class="edge">
<title>Node6&#45;&gt;Node5</title>
<path fill="none" stroke="#404040" d="M78.9616,-1002.7963C93.0135,-978.2945 114.3725,-941.0515 136.2697,-902.8699"/>
<polygon fill="none" stroke="#404040" points="136.4845,-902.4953 135.9996,-895.3005 142.4545,-892.0857 142.9393,-899.2805 136.4845,-902.4953"/>
<text text-anchor="middle" x="117.5" y="-971" font-family="Helvetica,sans-Serif" font-size="10.00" fill="#000000"> #mCov</text>
</g>
<!-- Node7 -->
<g id="node5" class="node">
<title>Node7</title>
<g id="a_node5"><a xlink:href="../../d5/daf/classROOT_1_1Math_1_1PositionVector3D.html" target="_top" xlink:title="{ROOT::Math::PositionVector3\lD\&lt; float \&gt;\n||}">
<polygon fill="none" stroke="#000000" points="143,-997.5 143,-1065.5 298,-1065.5 298,-997.5 143,-997.5"/>
<text text-anchor="start" x="151" y="-1053.5" font-family="Helvetica,sans-Serif" font-size="10.00" fill="#000000">ROOT::Math::PositionVector3</text>
<text text-anchor="middle" x="220.5" y="-1042.5" font-family="Helvetica,sans-Serif" font-size="10.00" fill="#000000">D&lt; float &gt;</text>
<polyline fill="none" stroke="#000000" points="143,-1035.5 298,-1035.5 "/>
<text text-anchor="middle" x="220.5" y="-1023.5" font-family="Helvetica,sans-Serif" font-size="10.00" fill="#000000"> </text>
<polyline fill="none" stroke="#000000" points="143,-1016.5 298,-1016.5 "/>
<text text-anchor="middle" x="220.5" y="-1004.5" font-family="Helvetica,sans-Serif" font-size="10.00" fill="#000000"> </text>
</a>
</g>
</g>
<!-- Node7&#45;&gt;Node5 -->
<g id="edge4" class="edge">
<title>Node7&#45;&gt;Node5</title>
<path fill="none" stroke="#404040" d="M220.5,-997.442C220.5,-987.1912 220.5,-975.122 220.5,-961.9385"/>
<polygon fill="none" stroke="#404040" points="220.5001,-961.5381 216.5,-955.5381 220.5,-949.5381 224.5,-955.538 220.5001,-961.5381"/>
<text text-anchor="middle" x="240" y="-971" font-family="Helvetica,sans-Serif" font-size="10.00" fill="#000000"> #mPos</text>
</g>
<!-- Node8 -->
<g id="node6" class="node">
<title>Node8</title>
<g id="a_node6"><a xlink:href="../../d5/daf/classROOT_1_1Math_1_1PositionVector3D.html" target="_top" xlink:title="{ROOT::Math::PositionVector3\lD\&lt; CoordSystem, Tag \&gt;\n||}">
<polygon fill="none" stroke="#000000" points="143,-1113.5 143,-1181.5 298,-1181.5 298,-1113.5 143,-1113.5"/>
<text text-anchor="start" x="151" y="-1169.5" font-family="Helvetica,sans-Serif" font-size="10.00" fill="#000000">ROOT::Math::PositionVector3</text>
<text text-anchor="middle" x="220.5" y="-1158.5" font-family="Helvetica,sans-Serif" font-size="10.00" fill="#000000">D&lt; CoordSystem, Tag &gt;</text>
<polyline fill="none" stroke="#000000" points="143,-1151.5 298,-1151.5 "/>
<text text-anchor="middle" x="220.5" y="-1139.5" font-family="Helvetica,sans-Serif" font-size="10.00" fill="#000000"> </text>
<polyline fill="none" stroke="#000000" points="143,-1132.5 298,-1132.5 "/>
<text text-anchor="middle" x="220.5" y="-1120.5" font-family="Helvetica,sans-Serif" font-size="10.00" fill="#000000"> </text>
</a>
</g>
</g>
<!-- Node8&#45;&gt;Node7 -->
<g id="edge5" class="edge">
<title>Node8&#45;&gt;Node7</title>
<path fill="none" stroke="#ffa500" d="M220.5,-1103.1851C220.5,-1090.8048 220.5,-1077.5422 220.5,-1065.833"/>
<polygon fill="#ffa500" stroke="#ffa500" points="217.0001,-1103.3235 220.5,-1113.3236 224.0001,-1103.3236 217.0001,-1103.3235"/>
<text text-anchor="middle" x="244.5" y="-1087" font-family="Helvetica,sans-Serif" font-size="10.00" fill="#000000"> &lt; float &gt;</text>
</g>
<!-- Node9 -->
<g id="node7" class="node">
<title>Node9</title>
<polygon fill="none" stroke="#bfbfbf" points="316.5,-1003 316.5,-1060 360.5,-1060 360.5,-1003 316.5,-1003"/>
<text text-anchor="middle" x="338.5" y="-1048" font-family="Helvetica,sans-Serif" font-size="10.00" fill="#000000">static</text>
<polyline fill="none" stroke="#bfbfbf" points="316.5,-1041 360.5,-1041 "/>
<text text-anchor="middle" x="338.5" y="-1029" font-family="Helvetica,sans-Serif" font-size="10.00" fill="#000000"> </text>
<polyline fill="none" stroke="#bfbfbf" points="316.5,-1022 360.5,-1022 "/>
<text text-anchor="middle" x="338.5" y="-1010" font-family="Helvetica,sans-Serif" font-size="10.00" fill="#000000"> </text>
</g>
<!-- Node9&#45;&gt;Node5 -->
<g id="edge6" class="edge">
<title>Node9&#45;&gt;Node5</title>
<path fill="none" stroke="#404040" d="M326.2059,-1002.7963C320.1015,-988.5441 312.1506,-969.9809 303.3482,-949.4295"/>
<polygon fill="none" stroke="#404040" points="303.2502,-949.2005 297.2109,-945.26 298.5255,-938.1697 304.5648,-942.1102 303.2502,-949.2005"/>
<text text-anchor="middle" x="338.5" y="-971" font-family="Helvetica,sans-Serif" font-size="10.00" fill="#000000"> +kNCov</text>
</g>
<!-- Node10 -->
<g id="node8" class="node">
<title>Node10</title>
<polygon fill="none" stroke="#bfbfbf" points="316.5,-727.5 316.5,-784.5 444.5,-784.5 444.5,-727.5 316.5,-727.5"/>
<text text-anchor="middle" x="380.5" y="-772.5" font-family="Helvetica,sans-Serif" font-size="10.00" fill="#000000">static ushort constexpr</text>
<polyline fill="none" stroke="#bfbfbf" points="316.5,-765.5 444.5,-765.5 "/>
<text text-anchor="middle" x="380.5" y="-753.5" font-family="Helvetica,sans-Serif" font-size="10.00" fill="#000000"> </text>
<polyline fill="none" stroke="#bfbfbf" points="316.5,-746.5 444.5,-746.5 "/>
<text text-anchor="middle" x="380.5" y="-734.5" font-family="Helvetica,sans-Serif" font-size="10.00" fill="#000000"> </text>
</g>
<!-- Node10&#45;&gt;Node4 -->
<g id="edge7" class="edge">
<title>Node10&#45;&gt;Node4</title>
<path fill="none" stroke="#404040" d="M374.0885,-727.3085C364.4123,-684.0076 345.4816,-599.2926 329.2445,-526.6318"/>
<polygon fill="none" stroke="#404040" points="329.177,-526.3291 323.9647,-521.3459 326.5599,-514.618 331.7721,-519.6012 329.177,-526.3291"/>
<text text-anchor="middle" x="363" y="-536" font-family="Helvetica,sans-Serif" font-size="10.00" fill="#000000"> +FlagsMask</text>
</g>
<!-- Node11 -->
<g id="node9" class="node">
<title>Node11</title>
<polygon fill="none" stroke="#bfbfbf" points="378.5,-369.5 378.5,-426.5 428.5,-426.5 428.5,-369.5 378.5,-369.5"/>
<text text-anchor="middle" x="403.5" y="-414.5" font-family="Helvetica,sans-Serif" font-size="10.00" fill="#000000">double</text>
<polyline fill="none" stroke="#bfbfbf" points="378.5,-407.5 428.5,-407.5 "/>
<text text-anchor="middle" x="403.5" y="-395.5" font-family="Helvetica,sans-Serif" font-size="10.00" fill="#000000"> </text>
<polyline fill="none" stroke="#bfbfbf" points="378.5,-388.5 428.5,-388.5 "/>
<text text-anchor="middle" x="403.5" y="-376.5" font-family="Helvetica,sans-Serif" font-size="10.00" fill="#000000"> </text>
</g>
<!-- Node11&#45;&gt;Node3 -->
<g id="edge8" class="edge">
<title>Node11&#45;&gt;Node3</title>
<path fill="none" stroke="#404040" d="M399.6941,-369.2809C394.4711,-320.337 389.1705,-218.6279 422.5,-142 423.6461,-139.365 424.9166,-136.7612 426.2928,-134.1939"/>
<polygon fill="none" stroke="#404040" points="426.32,-134.1486 425.9795,-126.9455 432.4975,-123.8607 432.838,-131.0638 426.32,-134.1486"/>
<text text-anchor="middle" x="457.5" y="-255" font-family="Helvetica,sans-Serif" font-size="10.00" fill="#000000"> +cy0</text>
<text text-anchor="middle" x="457.5" y="-244" font-family="Helvetica,sans-Serif" font-size="10.00" fill="#000000">+tMeanAccErr</text>
<text text-anchor="middle" x="457.5" y="-233" font-family="Helvetica,sans-Serif" font-size="10.00" fill="#000000">+cx0</text>
<text text-anchor="middle" x="457.5" y="-222" font-family="Helvetica,sans-Serif" font-size="10.00" fill="#000000">+wghChi2</text>
<text text-anchor="middle" x="457.5" y="-211" font-family="Helvetica,sans-Serif" font-size="10.00" fill="#000000">+wghSum</text>
<text text-anchor="middle" x="457.5" y="-200" font-family="Helvetica,sans-Serif" font-size="10.00" fill="#000000">+czz</text>
<text text-anchor="middle" x="457.5" y="-189" font-family="Helvetica,sans-Serif" font-size="10.00" fill="#000000">+cyy</text>
<text text-anchor="middle" x="457.5" y="-178" font-family="Helvetica,sans-Serif" font-size="10.00" fill="#000000">+cxx</text>
<text text-anchor="middle" x="457.5" y="-167" font-family="Helvetica,sans-Serif" font-size="10.00" fill="#000000">+cyz</text>
<text text-anchor="middle" x="457.5" y="-156" font-family="Helvetica,sans-Serif" font-size="10.00" fill="#000000">+cxy</text>
<text text-anchor="middle" x="457.5" y="-145" font-family="Helvetica,sans-Serif" font-size="10.00" fill="#000000">...</text>
</g>
<!-- Node12 -->
<g id="node10" class="node">
<title>Node12</title>
<g id="a_node10"><a xlink:href="../../d4/dc3/classfloat.html" target="_top" xlink:title="{float\n||}">
<polygon fill="none" stroke="#000000" points="477.5,-369.5 477.5,-426.5 515.5,-426.5 515.5,-369.5 477.5,-369.5"/>
<text text-anchor="middle" x="496.5" y="-414.5" font-family="Helvetica,sans-Serif" font-size="10.00" fill="#000000">float</text>
<polyline fill="none" stroke="#000000" points="477.5,-407.5 515.5,-407.5 "/>
<text text-anchor="middle" x="496.5" y="-395.5" font-family="Helvetica,sans-Serif" font-size="10.00" fill="#000000"> </text>
<polyline fill="none" stroke="#000000" points="477.5,-388.5 515.5,-388.5 "/>
<text text-anchor="middle" x="496.5" y="-376.5" font-family="Helvetica,sans-Serif" font-size="10.00" fill="#000000"> </text>
</a>
</g>
</g>
<!-- Node12&#45;&gt;Node3 -->
<g id="edge9" class="edge">
<title>Node12&#45;&gt;Node3</title>
<path fill="none" stroke="#404040" d="M496.5,-369.3528C496.5,-318.1208 496.5,-209.3057 496.5,-135.889"/>
<polygon fill="none" stroke="#404040" points="496.5001,-135.5207 492.5,-129.5207 496.5,-123.5207 500.5,-129.5206 496.5001,-135.5207"/>
<text text-anchor="middle" x="559" y="-216.5" font-family="Helvetica,sans-Serif" font-size="10.00" fill="#000000"> +scaleSigma2Prev</text>
<text text-anchor="middle" x="559" y="-205.5" font-family="Helvetica,sans-Serif" font-size="10.00" fill="#000000">+maxScaleSigma2Tested</text>
<text text-anchor="middle" x="559" y="-194.5" font-family="Helvetica,sans-Serif" font-size="10.00" fill="#000000">+scaleSigma2</text>
<text text-anchor="middle" x="559" y="-183.5" font-family="Helvetica,sans-Serif" font-size="10.00" fill="#000000">+scaleSig2ITuk2I</text>
</g>
<!-- Node13 -->
<g id="node11" class="node">
<title>Node13</title>
<polygon fill="none" stroke="#bfbfbf" points="630,-369.5 630,-426.5 659,-426.5 659,-369.5 630,-369.5"/>
<text text-anchor="middle" x="644.5" y="-414.5" font-family="Helvetica,sans-Serif" font-size="10.00" fill="#000000">int</text>
<polyline fill="none" stroke="#bfbfbf" points="630,-407.5 659,-407.5 "/>
<text text-anchor="middle" x="644.5" y="-395.5" font-family="Helvetica,sans-Serif" font-size="10.00" fill="#000000"> </text>
<polyline fill="none" stroke="#bfbfbf" points="630,-388.5 659,-388.5 "/>
<text text-anchor="middle" x="644.5" y="-376.5" font-family="Helvetica,sans-Serif" font-size="10.00" fill="#000000"> </text>
</g>
<!-- Node13&#45;&gt;Node3 -->
<g id="edge10" class="edge">
<title>Node13&#45;&gt;Node3</title>
<path fill="none" stroke="#404040" d="M645.1652,-369.4605C646.0347,-310.9124 645.2943,-179.5642 622.5,-142 611.825,-124.408 595.6479,-110.0319 578.4096,-98.5695"/>
<polygon fill="none" stroke="#404040" points="578.3401,-98.526 571.1318,-98.7303 568.1709,-92.1551 575.3791,-91.9508 578.3401,-98.526"/>
<text text-anchor="middle" x="706.5" y="-211" font-family="Helvetica,sans-Serif" font-size="10.00" fill="#000000"> +nIterations</text>
<text text-anchor="middle" x="706.5" y="-200" font-family="Helvetica,sans-Serif" font-size="10.00" fill="#000000">+nScaleIncrease</text>
<text text-anchor="middle" x="706.5" y="-189" font-family="Helvetica,sans-Serif" font-size="10.00" fill="#000000">+nScaleSlowConvergence</text>
</g>
<!-- Node14 -->
<g id="node12" class="node">
<title>Node14</title>
<polygon fill="none" stroke="#bfbfbf" points="776.5,-369.5 776.5,-426.5 814.5,-426.5 814.5,-369.5 776.5,-369.5"/>
<text text-anchor="middle" x="795.5" y="-414.5" font-family="Helvetica,sans-Serif" font-size="10.00" fill="#000000">bool</text>
<polyline fill="none" stroke="#bfbfbf" points="776.5,-407.5 814.5,-407.5 "/>
<text text-anchor="middle" x="795.5" y="-395.5" font-family="Helvetica,sans-Serif" font-size="10.00" fill="#000000"> </text>
<polyline fill="none" stroke="#bfbfbf" points="776.5,-388.5 814.5,-388.5 "/>
<text text-anchor="middle" x="795.5" y="-376.5" font-family="Helvetica,sans-Serif" font-size="10.00" fill="#000000"> </text>
</g>
<!-- Node14&#45;&gt;Node3 -->
<g id="edge11" class="edge">
<title>Node14&#45;&gt;Node3</title>
<path fill="none" stroke="#404040" d="M802.5098,-369.1954C813.2846,-317.3606 827.4401,-207.6647 773.5,-142 748.8202,-111.9558 652.0867,-88.9152 579.8383,-75.442"/>
<polygon fill="none" stroke="#404040" points="579.8209,-75.4389 573.1994,-78.2949 568.0164,-73.2812 574.6378,-70.4252 579.8209,-75.4389"/>
<text text-anchor="middle" x="849.5" y="-205.5" font-family="Helvetica,sans-Serif" font-size="10.00" fill="#000000"> +fillErrors</text>
<text text-anchor="middle" x="849.5" y="-194.5" font-family="Helvetica,sans-Serif" font-size="10.00" fill="#000000">+useConstraint</text>
</g>
</g>
</svg>
        <g id="navigator" transform="translate(0 0)" fill="#404254">
                <rect fill="#f2f5e9" fill-opacity="0.5" stroke="#606060" stroke-width=".5" x="0" y="0" width="60" height="60"/>
                <use id="zoomplus" xlink:href="#zoomPlus" x="17" y="9" onmousedown="handleZoom(evt,'in')"/>
                <use id="zoomminus" xlink:href="#zoomMin" x="42" y="9" onmousedown="handleZoom(evt,'out')"/>
                <use id="reset" xlink:href="#resetDef" x="30" y="36" onmousedown="handleReset()"/>
                <g id="arrowUp" xlink:href="#dirArrow" transform="translate(30 24)" onmousedown="handlePan(0,-1)">
                  <use xlink:href="#rim" fill="#404040">
                        <set attributeName="fill" to="#808080" begin="arrowUp.mouseover" end="arrowUp.mouseout"/>
                  </use>
                  <path fill="none" stroke="white" stroke-width="1.5" d="M0,-3.0v7 M-2.5,-0.5L0,-3.0L2.5,-0.5"/>
                </g>
                <g id="arrowRight" xlink:href="#dirArrow" transform="rotate(90) translate(36 -43)" onmousedown="handlePan(1,0)">
                  <use xlink:href="#rim" fill="#404040">
                        <set attributeName="fill" to="#808080" begin="arrowRight.mouseover" end="arrowRight.mouseout"/>
                  </use>
                  <path fill="none" stroke="white" stroke-width="1.5" d="M0,-3.0v7 M-2.5,-0.5L0,-3.0L2.5,-0.5"/>
                </g>
                <g id="arrowDown" xlink:href="#dirArrow" transform="rotate(180) translate(-30 -48)" onmousedown="handlePan(0,1)">
                  <use xlink:href="#rim" fill="#404040">
                        <set attributeName="fill" to="#808080" begin="arrowDown.mouseover" end="arrowDown.mouseout"/>
                  </use>
                  <path fill="none" stroke="white" stroke-width="1.5" d="M0,-3.0v7 M-2.5,-0.5L0,-3.0L2.5,-0.5"/>
                </g>
                <g id="arrowLeft" xlink:href="#dirArrow" transform="rotate(270) translate(-36 17)" onmousedown="handlePan(-1,0)">
                  <use xlink:href="#rim" fill="#404040">
                        <set attributeName="fill" to="#808080" begin="arrowLeft.mouseover" end="arrowLeft.mouseout"/>
                  </use>
                  <path fill="none" stroke="white" stroke-width="1.5" d="M0,-3.0v7 M-2.5,-0.5L0,-3.0L2.5,-0.5"/>
                </g>
        </g>
        <svg viewBox="0 0 15 15" width="100%" height="30px" preserveAspectRatio="xMaxYMin meet">
         <g id="arrow_out" transform="scale(0.3 0.3)">
          <a xlink:href="structo2_1_1vertexing_1_1VertexSeed__coll__graph_org.svg" target="_base">
           <rect id="button" ry="5" rx="5" y="6" x="6" height="38" width="38"
                fill="#f2f5e9" fill-opacity="0.5" stroke="#606060" stroke-width="1.0"/>
           <path id="arrow"
             d="M 11.500037,31.436501 C 11.940474,20.09759 22.043105,11.32322 32.158766,21.979434 L 37.068811,17.246167 C 37.068811,17.246167 37.088388,32 37.088388,32 L 22.160133,31.978069 C 22.160133,31.978069 26.997745,27.140456 26.997745,27.140456 C 18.528582,18.264221 13.291696,25.230495 11.500037,31.436501 z"
             style="fill:#404040;"/>
          </a>
         </g>
        </svg>
</svg>
