<?xml version="1.0" encoding="UTF-8" standalone="no"?>
<!DOCTYPE svg PUBLIC "-//W3C//DTD SVG 1.1//EN"
 "http://www.w3.org/Graphics/SVG/1.1/DTD/svg11.dtd">
<!-- Generated by graphviz version 2.40.1 (20161225.0304)
 -->
<!-- Title: /home/travis/build/AliceO2Group/AliceO2/Analysis/DataModel/include/PIDBase/ParamBase.h Pages: 1 -->
<!--zoomable 506 -->
<svg id="main" version="1.1" xmlns="http://www.w3.org/2000/svg" xmlns:xlink="http://www.w3.org/1999/xlink" xml:space="preserve" onload="init(evt)">
<style type="text/css"><![CDATA[
.edge:hover path { stroke: red; }
.edge:hover polygon { stroke: red; fill: red; }
]]></style>
<script type="text/javascript"><![CDATA[
var edges = document.getElementsByTagName('g');
if (edges && edges.length) {
  for (var i=0;i<edges.length;i++) {
    if (edges[i].id.substr(0,4)=='edge') {
      edges[i].setAttribute('class','edge');
    }
  }
}
]]></script>
        <defs>
                <circle id="rim" cx="0" cy="0" r="7"/>
                <circle id="rim2" cx="0" cy="0" r="3.5"/>
                <g id="zoomPlus">
                        <use xlink:href="#rim" fill="#404040">
                                <set attributeName="fill" to="#808080" begin="zoomplus.mouseover" end="zoomplus.mouseout"/>
                        </use>
                        <path d="M-4,0h8M0,-4v8" fill="none" stroke="white" stroke-width="1.5" pointer-events="none"/>
                </g>
                <g id="zoomMin">
                        <use xlink:href="#rim" fill="#404040">
                                <set attributeName="fill" to="#808080" begin="zoomminus.mouseover" end="zoomminus.mouseout"/>
                        </use>
                        <path d="M-4,0h8" fill="none" stroke="white" stroke-width="1.5" pointer-events="none"/>
                </g>
                <g id="dirArrow">
                        <path fill="none" stroke="white" stroke-width="1.5" d="M0,-3.0v7 M-2.5,-0.5L0,-3.0L2.5,-0.5"/>
                </g>
               <g id="resetDef">
                       <use xlink:href="#rim2" fill="#404040">
                               <set attributeName="fill" to="#808080" begin="reset.mouseover" end="reset.mouseout"/>
                       </use>
               </g>
        </defs>

<script type="text/javascript">
var viewWidth = 1145;
var viewHeight = 506;
var sectionId = 'dynsection-1';
</script>
<script xlink:href="../../svgpan.js"/>
<svg id="graph" class="graph">
<g id="viewport">
<title>/home/travis/build/AliceO2Group/AliceO2/Analysis/DataModel/include/PIDBase/ParamBase.h</title>
<!-- Node2 -->
<g id="node1" class="node">
<title>Node2</title>
<polygon fill="#bfbfbf" stroke="#000000" points="445.5,-445.5 445.5,-497.5 600.5,-497.5 600.5,-445.5 445.5,-445.5"/>
<text text-anchor="start" x="453.5" y="-485.5" font-family="Helvetica,sans-Serif" font-size="10.00" fill="#000000">/home/travis/build</text>
<text text-anchor="start" x="453.5" y="-474.5" font-family="Helvetica,sans-Serif" font-size="10.00" fill="#000000">/AliceO2Group/AliceO2</text>
<text text-anchor="start" x="453.5" y="-463.5" font-family="Helvetica,sans-Serif" font-size="10.00" fill="#000000">/Analysis/DataModel/include</text>
<text text-anchor="middle" x="523" y="-452.5" font-family="Helvetica,sans-Serif" font-size="10.00" fill="#000000">/PIDBase/ParamBase.h</text>
</g>
<!-- Node3 -->
<g id="node2" class="node">
<title>Node3</title>
<g id="a_node2"><a xlink:href="../../d4/dca/BetheBloch_8h.html" target="_top" xlink:title="Implementation for the TPC PID response of the BB parametrization. ">
<polygon fill="none" stroke="#000000" points="11.5,-356.5 11.5,-408.5 166.5,-408.5 166.5,-356.5 11.5,-356.5"/>
<text text-anchor="start" x="19.5" y="-396.5" font-family="Helvetica,sans-Serif" font-size="10.00" fill="#000000">/home/travis/build</text>
<text text-anchor="start" x="19.5" y="-385.5" font-family="Helvetica,sans-Serif" font-size="10.00" fill="#000000">/AliceO2Group/AliceO2</text>
<text text-anchor="start" x="19.5" y="-374.5" font-family="Helvetica,sans-Serif" font-size="10.00" fill="#000000">/Analysis/DataModel/include</text>
<text text-anchor="middle" x="89" y="-363.5" font-family="Helvetica,sans-Serif" font-size="10.00" fill="#000000">/PID/BetheBloch.h</text>
</a>
</g>
</g>
<!-- Node2&#45;&gt;Node3 -->
<g id="edge1" class="edge">
<title>Node2&#45;&gt;Node3</title>
<path fill="none" stroke="#191970" d="M435.1741,-458.7458C364.44,-447.751 262.6951,-430.303 175,-409 172.2673,-408.3362 169.4937,-407.6347 166.6984,-406.9041"/>
<polygon fill="#191970" stroke="#191970" points="434.9631,-462.2546 445.3799,-460.3208 436.0308,-455.3365 434.9631,-462.2546"/>
</g>
<!-- Node5 -->
<g id="node4" class="node">
<title>Node5</title>
<g id="a_node4"><a xlink:href="../../d3/da9/TOFReso_8h.html" target="_top" xlink:title="Implementation for the TOF PID response of the expected times resolution. ">
<polygon fill="none" stroke="#000000" points="357.5,-356.5 357.5,-408.5 512.5,-408.5 512.5,-356.5 357.5,-356.5"/>
<text text-anchor="start" x="365.5" y="-396.5" font-family="Helvetica,sans-Serif" font-size="10.00" fill="#000000">/home/travis/build</text>
<text text-anchor="start" x="365.5" y="-385.5" font-family="Helvetica,sans-Serif" font-size="10.00" fill="#000000">/AliceO2Group/AliceO2</text>
<text text-anchor="start" x="365.5" y="-374.5" font-family="Helvetica,sans-Serif" font-size="10.00" fill="#000000">/Analysis/DataModel/include</text>
<text text-anchor="middle" x="435" y="-363.5" font-family="Helvetica,sans-Serif" font-size="10.00" fill="#000000">/PID/TOFReso.h</text>
</a>
</g>
</g>
<!-- Node2&#45;&gt;Node5 -->
<g id="edge3" class="edge">
<title>Node2&#45;&gt;Node5</title>
<path fill="none" stroke="#191970" d="M489.8793,-438.0029C480.2389,-428.2529 469.8551,-417.7511 460.7416,-408.5341"/>
<polygon fill="#191970" stroke="#191970" points="487.5532,-440.6284 497.0731,-445.2784 492.5309,-435.7066 487.5532,-440.6284"/>
</g>
<!-- Node7 -->
<g id="node6" class="node">
<title>Node7</title>
<g id="a_node6"><a xlink:href="../../d0/d5c/TPCReso_8h.html" target="_top" xlink:title="Implementation for the TPC PID response of the BB resolution. ">
<polygon fill="none" stroke="#000000" points="184.5,-356.5 184.5,-408.5 339.5,-408.5 339.5,-356.5 184.5,-356.5"/>
<text text-anchor="start" x="192.5" y="-396.5" font-family="Helvetica,sans-Serif" font-size="10.00" fill="#000000">/home/travis/build</text>
<text text-anchor="start" x="192.5" y="-385.5" font-family="Helvetica,sans-Serif" font-size="10.00" fill="#000000">/AliceO2Group/AliceO2</text>
<text text-anchor="start" x="192.5" y="-374.5" font-family="Helvetica,sans-Serif" font-size="10.00" fill="#000000">/Analysis/DataModel/include</text>
<text text-anchor="middle" x="262" y="-363.5" font-family="Helvetica,sans-Serif" font-size="10.00" fill="#000000">/PID/TPCReso.h</text>
</a>
</g>
</g>
<!-- Node2&#45;&gt;Node7 -->
<g id="edge5" class="edge">
<title>Node2&#45;&gt;Node7</title>
<path fill="none" stroke="#191970" d="M436.7475,-442.0882C405.0272,-431.2717 369.3509,-419.1062 338.5437,-408.6011"/>
<polygon fill="#191970" stroke="#191970" points="435.8604,-445.4836 446.4549,-445.3984 438.1197,-438.8582 435.8604,-445.4836"/>
</g>
<!-- Node8 -->
<g id="node7" class="node">
<title>Node8</title>
<g id="a_node7"><a xlink:href="../../dc/d68/DetectorResponse_8h.html" target="_top" xlink:title="Handler for any detector (or other entity) response. This provides the basic quantities computed by a...">
<polygon fill="none" stroke="#000000" points="530.5,-356.5 530.5,-408.5 691.5,-408.5 691.5,-356.5 530.5,-356.5"/>
<text text-anchor="start" x="538.5" y="-396.5" font-family="Helvetica,sans-Serif" font-size="10.00" fill="#000000">/home/travis/build</text>
<text text-anchor="start" x="538.5" y="-385.5" font-family="Helvetica,sans-Serif" font-size="10.00" fill="#000000">/AliceO2Group/AliceO2</text>
<text text-anchor="start" x="538.5" y="-374.5" font-family="Helvetica,sans-Serif" font-size="10.00" fill="#000000">/Analysis/DataModel/include</text>
<text text-anchor="middle" x="611" y="-363.5" font-family="Helvetica,sans-Serif" font-size="10.00" fill="#000000">/PIDBase/DetectorResponse.h</text>
</a>
</g>
</g>
<!-- Node2&#45;&gt;Node8 -->
<g id="edge7" class="edge">
<title>Node2&#45;&gt;Node8</title>
<path fill="none" stroke="#191970" d="M556.1207,-438.0029C565.7611,-428.2529 576.1449,-417.7511 585.2584,-408.5341"/>
<polygon fill="#191970" stroke="#191970" points="553.4691,-435.7066 548.9269,-445.2784 558.4468,-440.6284 553.4691,-435.7066"/>
</g>
<!-- Node22 -->
<g id="node21" class="node">
<title>Node22</title>
<g id="a_node21"><a xlink:href="../../d7/d07/DetectorResponse_8cxx.html" target="_top" xlink:title="/home/travis/build\l/AliceO2Group/AliceO2\l/Analysis/DataModel/src\l/DetectorResponse.cxx">
<polygon fill="none" stroke="#000000" points="707,-267.5 707,-319.5 841,-319.5 841,-267.5 707,-267.5"/>
<text text-anchor="start" x="715" y="-307.5" font-family="Helvetica,sans-Serif" font-size="10.00" fill="#000000">/home/travis/build</text>
<text text-anchor="start" x="715" y="-296.5" font-family="Helvetica,sans-Serif" font-size="10.00" fill="#000000">/AliceO2Group/AliceO2</text>
<text text-anchor="start" x="715" y="-285.5" font-family="Helvetica,sans-Serif" font-size="10.00" fill="#000000">/Analysis/DataModel/src</text>
<text text-anchor="middle" x="774" y="-274.5" font-family="Helvetica,sans-Serif" font-size="10.00" fill="#000000">/DetectorResponse.cxx</text>
</a>
</g>
</g>
<!-- Node2&#45;&gt;Node22 -->
<g id="edge24" class="edge">
<title>Node2&#45;&gt;Node22</title>
<path fill="none" stroke="#191970" d="M610.8135,-453.314C641.6179,-443.8225 674.9893,-429.7095 701,-409 709.0494,-402.5911 739.7187,-351.8174 758.6501,-319.7577"/>
<polygon fill="#191970" stroke="#191970" points="609.5149,-450.0479 600.9148,-456.2358 611.4966,-456.7616 609.5149,-450.0479"/>
</g>
<!-- Node23 -->
<g id="node22" class="node">
<title>Node23</title>
<g id="a_node22"><a xlink:href="../../d7/d11/ParamBase_8cxx.html" target="_top" xlink:title="Set of utilities to handle the parametrization of the PID response for each detector These are the ba...">
<polygon fill="none" stroke="#000000" points="748,-356.5 748,-408.5 882,-408.5 882,-356.5 748,-356.5"/>
<text text-anchor="start" x="756" y="-396.5" font-family="Helvetica,sans-Serif" font-size="10.00" fill="#000000">/home/travis/build</text>
<text text-anchor="start" x="756" y="-385.5" font-family="Helvetica,sans-Serif" font-size="10.00" fill="#000000">/AliceO2Group/AliceO2</text>
<text text-anchor="start" x="756" y="-374.5" font-family="Helvetica,sans-Serif" font-size="10.00" fill="#000000">/Analysis/DataModel/src</text>
<text text-anchor="middle" x="815" y="-363.5" font-family="Helvetica,sans-Serif" font-size="10.00" fill="#000000">/ParamBase.cxx</text>
</a>
</g>
</g>
<!-- Node2&#45;&gt;Node23 -->
<g id="edge25" class="edge">
<title>Node2&#45;&gt;Node23</title>
<path fill="none" stroke="#191970" d="M610.8227,-446.0877C648.7787,-434.9494 693.6528,-421.5728 734,-409 738.5203,-407.5914 743.1762,-406.1209 747.8631,-404.6259"/>
<polygon fill="#191970" stroke="#191970" points="609.4337,-442.8474 600.8211,-449.0179 611.4018,-449.5651 609.4337,-442.8474"/>
</g>
<!-- Node4 -->
<g id="node3" class="node">
<title>Node4</title>
<g id="a_node3"><a xlink:href="../../d1/dc6/handleParamTPCBetheBloch_8cxx.html" target="_top" xlink:title="A simple tool to produce Bethe Bloch parametrization objects for the TPC PID Response. ">
<polygon fill="none" stroke="#000000" points="0,-267.5 0,-319.5 178,-319.5 178,-267.5 0,-267.5"/>
<text text-anchor="start" x="8" y="-307.5" font-family="Helvetica,sans-Serif" font-size="10.00" fill="#000000">/home/travis/build</text>
<text text-anchor="start" x="8" y="-296.5" font-family="Helvetica,sans-Serif" font-size="10.00" fill="#000000">/AliceO2Group/AliceO2</text>
<text text-anchor="start" x="8" y="-285.5" font-family="Helvetica,sans-Serif" font-size="10.00" fill="#000000">/Analysis/DataModel/src</text>
<text text-anchor="middle" x="89" y="-274.5" font-family="Helvetica,sans-Serif" font-size="10.00" fill="#000000">/handleParamTPCBetheBloch.cxx</text>
</a>
</g>
</g>
<!-- Node3&#45;&gt;Node4 -->
<g id="edge2" class="edge">
<title>Node3&#45;&gt;Node4</title>
<path fill="none" stroke="#191970" d="M89,-346.1155C89,-337.2061 89,-327.8475 89,-319.5341"/>
<polygon fill="#191970" stroke="#191970" points="85.5001,-346.2784 89,-356.2784 92.5001,-346.2785 85.5001,-346.2784"/>
</g>
<!-- Node6 -->
<g id="node5" class="node">
<title>Node6</title>
<g id="a_node5"><a xlink:href="../../d0/d84/handleParamTOFReso_8cxx.html" target="_top" xlink:title="/home/travis/build\l/AliceO2Group/AliceO2\l/Analysis/DataModel/src\l/handleParamTOFReso.cxx">
<polygon fill="none" stroke="#000000" points="196,-267.5 196,-319.5 342,-319.5 342,-267.5 196,-267.5"/>
<text text-anchor="start" x="204" y="-307.5" font-family="Helvetica,sans-Serif" font-size="10.00" fill="#000000">/home/travis/build</text>
<text text-anchor="start" x="204" y="-296.5" font-family="Helvetica,sans-Serif" font-size="10.00" fill="#000000">/AliceO2Group/AliceO2</text>
<text text-anchor="start" x="204" y="-285.5" font-family="Helvetica,sans-Serif" font-size="10.00" fill="#000000">/Analysis/DataModel/src</text>
<text text-anchor="middle" x="269" y="-274.5" font-family="Helvetica,sans-Serif" font-size="10.00" fill="#000000">/handleParamTOFReso.cxx</text>
</a>
</g>
</g>
<!-- Node5&#45;&gt;Node6 -->
<g id="edge4" class="edge">
<title>Node5&#45;&gt;Node6</title>
<path fill="none" stroke="#191970" d="M377.0371,-351.4235C357.6182,-341.0122 336.1819,-329.5192 317.5581,-319.5341"/>
<polygon fill="#191970" stroke="#191970" points="375.6253,-354.6379 386.0924,-356.2784 378.933,-348.4686 375.6253,-354.6379"/>
</g>
<!-- Node7&#45;&gt;Node4 -->
<g id="edge6" class="edge">
<title>Node7&#45;&gt;Node4</title>
<path fill="none" stroke="#191970" d="M201.8675,-351.5648C181.5573,-341.1162 159.1027,-329.5644 139.6057,-319.5341"/>
<polygon fill="#191970" stroke="#191970" points="200.5366,-354.816 211.03,-356.2784 203.7388,-348.5914 200.5366,-354.816"/>
</g>
<!-- Node9 -->
<g id="node8" class="node">
<title>Node9</title>
<g id="a_node8"><a xlink:href="../../d9/d66/PIDTOF_8h.html" target="_top" xlink:title="Implementation of the TOF detector response for PID. ">
<polygon fill="none" stroke="#000000" points="360.5,-267.5 360.5,-319.5 515.5,-319.5 515.5,-267.5 360.5,-267.5"/>
<text text-anchor="start" x="368.5" y="-307.5" font-family="Helvetica,sans-Serif" font-size="10.00" fill="#000000">/home/travis/build</text>
<text text-anchor="start" x="368.5" y="-296.5" font-family="Helvetica,sans-Serif" font-size="10.00" fill="#000000">/AliceO2Group/AliceO2</text>
<text text-anchor="start" x="368.5" y="-285.5" font-family="Helvetica,sans-Serif" font-size="10.00" fill="#000000">/Analysis/DataModel/include</text>
<text text-anchor="middle" x="438" y="-274.5" font-family="Helvetica,sans-Serif" font-size="10.00" fill="#000000">/PID/PIDTOF.h</text>
</a>
</g>
</g>
<!-- Node8&#45;&gt;Node9 -->
<g id="edge8" class="edge">
<title>Node8&#45;&gt;Node9</title>
<path fill="none" stroke="#191970" d="M550.8675,-351.5648C530.5573,-341.1162 508.1027,-329.5644 488.6057,-319.5341"/>
<polygon fill="#191970" stroke="#191970" points="549.5366,-354.816 560.03,-356.2784 552.7388,-348.5914 549.5366,-354.816"/>
</g>
<!-- Node20 -->
<g id="node19" class="node">
<title>Node20</title>
<g id="a_node19"><a xlink:href="../../df/d83/PIDTPC_8h.html" target="_top" xlink:title="Implementation of the TPC detector response for PID. ">
<polygon fill="none" stroke="#000000" points="533.5,-267.5 533.5,-319.5 688.5,-319.5 688.5,-267.5 533.5,-267.5"/>
<text text-anchor="start" x="541.5" y="-307.5" font-family="Helvetica,sans-Serif" font-size="10.00" fill="#000000">/home/travis/build</text>
<text text-anchor="start" x="541.5" y="-296.5" font-family="Helvetica,sans-Serif" font-size="10.00" fill="#000000">/AliceO2Group/AliceO2</text>
<text text-anchor="start" x="541.5" y="-285.5" font-family="Helvetica,sans-Serif" font-size="10.00" fill="#000000">/Analysis/DataModel/include</text>
<text text-anchor="middle" x="611" y="-274.5" font-family="Helvetica,sans-Serif" font-size="10.00" fill="#000000">/PID/PIDTPC.h</text>
</a>
</g>
</g>
<!-- Node8&#45;&gt;Node20 -->
<g id="edge20" class="edge">
<title>Node8&#45;&gt;Node20</title>
<path fill="none" stroke="#191970" d="M611,-346.1155C611,-337.2061 611,-327.8475 611,-319.5341"/>
<polygon fill="#191970" stroke="#191970" points="607.5001,-346.2784 611,-356.2784 614.5001,-346.2785 607.5001,-346.2784"/>
</g>
<!-- Node8&#45;&gt;Node22 -->
<g id="edge23" class="edge">
<title>Node8&#45;&gt;Node22</title>
<path fill="none" stroke="#191970" d="M667.9153,-351.4235C686.9833,-341.0122 708.0322,-329.5192 726.3195,-319.5341"/>
<polygon fill="#191970" stroke="#191970" points="666.1234,-348.4142 659.0238,-356.2784 669.478,-354.558 666.1234,-348.4142"/>
</g>
<!-- Node10 -->
<g id="node9" class="node">
<title>Node10</title>
<g id="a_node9"><a xlink:href="../../d1/d98/PIDResponse_8h.html" target="_top" xlink:title="Set of tables, tasks and utilities to provide the interface between the analysis data model and the P...">
<polygon fill="none" stroke="#000000" points="447.5,-178.5 447.5,-230.5 602.5,-230.5 602.5,-178.5 447.5,-178.5"/>
<text text-anchor="start" x="455.5" y="-218.5" font-family="Helvetica,sans-Serif" font-size="10.00" fill="#000000">/home/travis/build</text>
<text text-anchor="start" x="455.5" y="-207.5" font-family="Helvetica,sans-Serif" font-size="10.00" fill="#000000">/AliceO2Group/AliceO2</text>
<text text-anchor="start" x="455.5" y="-196.5" font-family="Helvetica,sans-Serif" font-size="10.00" fill="#000000">/Analysis/DataModel/include</text>
<text text-anchor="middle" x="525" y="-185.5" font-family="Helvetica,sans-Serif" font-size="10.00" fill="#000000">/PID/PIDResponse.h</text>
</a>
</g>
</g>
<!-- Node9&#45;&gt;Node10 -->
<g id="edge9" class="edge">
<title>Node9&#45;&gt;Node10</title>
<path fill="none" stroke="#191970" d="M470.7444,-260.0029C480.2752,-250.2529 490.541,-239.7511 499.5509,-230.5341"/>
<polygon fill="#191970" stroke="#191970" points="468.1198,-257.6808 463.6323,-267.2784 473.1255,-262.5741 468.1198,-257.6808"/>
</g>
<!-- Node19 -->
<g id="node18" class="node">
<title>Node19</title>
<g id="a_node18"><a xlink:href="../../df/d7e/PIDTOF_8cxx.html" target="_top" xlink:title="/home/travis/build\l/AliceO2Group/AliceO2\l/Analysis/DataModel/src\l/PIDTOF.cxx">
<polygon fill="none" stroke="#000000" points="295,-178.5 295,-230.5 429,-230.5 429,-178.5 295,-178.5"/>
<text text-anchor="start" x="303" y="-218.5" font-family="Helvetica,sans-Serif" font-size="10.00" fill="#000000">/home/travis/build</text>
<text text-anchor="start" x="303" y="-207.5" font-family="Helvetica,sans-Serif" font-size="10.00" fill="#000000">/AliceO2Group/AliceO2</text>
<text text-anchor="start" x="303" y="-196.5" font-family="Helvetica,sans-Serif" font-size="10.00" fill="#000000">/Analysis/DataModel/src</text>
<text text-anchor="middle" x="362" y="-185.5" font-family="Helvetica,sans-Serif" font-size="10.00" fill="#000000">/PIDTOF.cxx</text>
</a>
</g>
</g>
<!-- Node9&#45;&gt;Node19 -->
<g id="edge19" class="edge">
<title>Node9&#45;&gt;Node19</title>
<path fill="none" stroke="#191970" d="M408.9052,-259.4285C400.7187,-249.8416 391.9478,-239.5704 384.2314,-230.5341"/>
<polygon fill="#191970" stroke="#191970" points="406.4531,-261.9466 415.6086,-267.2784 411.7763,-257.4009 406.4531,-261.9466"/>
</g>
<!-- Node11 -->
<g id="node10" class="node">
<title>Node11</title>
<g id="a_node10"><a xlink:href="../../d4/dbd/ReducedInfoTables_8h.html" target="_top" xlink:title="/home/travis/build\l/AliceO2Group/AliceO2\l/Analysis/DataModel/include\l/Analysis/ReducedInfoTables.h">
<polygon fill="none" stroke="#000000" points="118,-89.5 118,-141.5 282,-141.5 282,-89.5 118,-89.5"/>
<text text-anchor="start" x="126" y="-129.5" font-family="Helvetica,sans-Serif" font-size="10.00" fill="#000000">/home/travis/build</text>
<text text-anchor="start" x="126" y="-118.5" font-family="Helvetica,sans-Serif" font-size="10.00" fill="#000000">/AliceO2Group/AliceO2</text>
<text text-anchor="start" x="126" y="-107.5" font-family="Helvetica,sans-Serif" font-size="10.00" fill="#000000">/Analysis/DataModel/include</text>
<text text-anchor="middle" x="200" y="-96.5" font-family="Helvetica,sans-Serif" font-size="10.00" fill="#000000">/Analysis/ReducedInfoTables.h</text>
</a>
</g>
</g>
<!-- Node10&#45;&gt;Node11 -->
<g id="edge10" class="edge">
<title>Node10&#45;&gt;Node11</title>
<path fill="none" stroke="#191970" d="M437.6181,-177.9578C371.4973,-160.0893 353.0538,-158.6254 291,-142 288.139,-141.2335 285.2305,-140.4438 282.2952,-139.6379"/>
<polygon fill="#191970" stroke="#191970" points="436.7054,-181.3367 447.274,-180.5913 438.5473,-174.5833 436.7054,-181.3367"/>
</g>
<!-- Node12 -->
<g id="node11" class="node">
<title>Node12</title>
<g id="a_node11"><a xlink:href="../../d9/d14/tableMaker_8cxx.html" target="_top" xlink:title="/home/travis/build\l/AliceO2Group/AliceO2\l/Analysis/Tasks/PWGDQ\l/tableMaker.cxx">
<polygon fill="none" stroke="#000000" points="24,-.5 24,-52.5 156,-52.5 156,-.5 24,-.5"/>
<text text-anchor="start" x="32" y="-40.5" font-family="Helvetica,sans-Serif" font-size="10.00" fill="#000000">/home/travis/build</text>
<text text-anchor="start" x="32" y="-29.5" font-family="Helvetica,sans-Serif" font-size="10.00" fill="#000000">/AliceO2Group/AliceO2</text>
<text text-anchor="start" x="32" y="-18.5" font-family="Helvetica,sans-Serif" font-size="10.00" fill="#000000">/Analysis/Tasks/PWGDQ</text>
<text text-anchor="middle" x="90" y="-7.5" font-family="Helvetica,sans-Serif" font-size="10.00" fill="#000000">/tableMaker.cxx</text>
</a>
</g>
</g>
<!-- Node10&#45;&gt;Node12 -->
<g id="edge16" class="edge">
<title>Node10&#45;&gt;Node12</title>
<path fill="none" stroke="#191970" d="M437.31,-178.3064C350.2788,-165.3924 160.3067,-190.6057 109,-142 85.1008,-119.3589 83.8404,-79.1208 86.1371,-52.6235"/>
<polygon fill="#191970" stroke="#191970" points="436.9423,-181.7953 447.397,-180.0779 438.1531,-174.9009 436.9423,-181.7953"/>
</g>
<!-- Node14 -->
<g id="node13" class="node">
<title>Node14</title>
<g id="a_node13"><a xlink:href="../../df/ded/dumpDataModel_8cxx.html" target="_top" xlink:title="/home/travis/build\l/AliceO2Group/AliceO2\l/Analysis/DataModel/src\l/dumpDataModel.cxx">
<polygon fill="none" stroke="#000000" points="300,-89.5 300,-141.5 434,-141.5 434,-89.5 300,-89.5"/>
<text text-anchor="start" x="308" y="-129.5" font-family="Helvetica,sans-Serif" font-size="10.00" fill="#000000">/home/travis/build</text>
<text text-anchor="start" x="308" y="-118.5" font-family="Helvetica,sans-Serif" font-size="10.00" fill="#000000">/AliceO2Group/AliceO2</text>
<text text-anchor="start" x="308" y="-107.5" font-family="Helvetica,sans-Serif" font-size="10.00" fill="#000000">/Analysis/DataModel/src</text>
<text text-anchor="middle" x="367" y="-96.5" font-family="Helvetica,sans-Serif" font-size="10.00" fill="#000000">/dumpDataModel.cxx</text>
</a>
</g>
</g>
<!-- Node10&#45;&gt;Node14 -->
<g id="edge13" class="edge">
<title>Node10&#45;&gt;Node14</title>
<path fill="none" stroke="#191970" d="M469.5795,-173.2821C451.1629,-162.9082 430.864,-151.4741 413.2179,-141.5341"/>
<polygon fill="#191970" stroke="#191970" points="468.0188,-176.42 478.4494,-178.2784 471.4543,-170.321 468.0188,-176.42"/>
</g>
<!-- Node15 -->
<g id="node14" class="node">
<title>Node15</title>
<g id="a_node14"><a xlink:href="../../d5/d53/pidTOF_8cxx.html" target="_top" xlink:title="/home/travis/build\l/AliceO2Group/AliceO2\l/Analysis/Tasks/pidTOF.cxx">
<polygon fill="none" stroke="#000000" points="452,-95 452,-136 598,-136 598,-95 452,-95"/>
<text text-anchor="start" x="460" y="-124" font-family="Helvetica,sans-Serif" font-size="10.00" fill="#000000">/home/travis/build</text>
<text text-anchor="start" x="460" y="-113" font-family="Helvetica,sans-Serif" font-size="10.00" fill="#000000">/AliceO2Group/AliceO2</text>
<text text-anchor="middle" x="525" y="-102" font-family="Helvetica,sans-Serif" font-size="10.00" fill="#000000">/Analysis/Tasks/pidTOF.cxx</text>
</a>
</g>
</g>
<!-- Node10&#45;&gt;Node15 -->
<g id="edge14" class="edge">
<title>Node10&#45;&gt;Node15</title>
<path fill="none" stroke="#191970" d="M525,-168.1335C525,-157.2443 525,-145.6825 525,-136.1771"/>
<polygon fill="#191970" stroke="#191970" points="521.5001,-168.2784 525,-178.2784 528.5001,-168.2785 521.5001,-168.2784"/>
</g>
<!-- Node16 -->
<g id="node15" class="node">
<title>Node16</title>
<g id="a_node15"><a xlink:href="../../db/da2/pidTPC_8cxx.html" target="_top" xlink:title="/home/travis/build\l/AliceO2Group/AliceO2\l/Analysis/Tasks/pidTPC.cxx">
<polygon fill="none" stroke="#000000" points="616,-95 616,-136 764,-136 764,-95 616,-95"/>
<text text-anchor="start" x="624" y="-124" font-family="Helvetica,sans-Serif" font-size="10.00" fill="#000000">/home/travis/build</text>
<text text-anchor="start" x="624" y="-113" font-family="Helvetica,sans-Serif" font-size="10.00" fill="#000000">/AliceO2Group/AliceO2</text>
<text text-anchor="middle" x="690" y="-102" font-family="Helvetica,sans-Serif" font-size="10.00" fill="#000000">/Analysis/Tasks/pidTPC.cxx</text>
</a>
</g>
</g>
<!-- Node10&#45;&gt;Node16 -->
<g id="edge15" class="edge">
<title>Node10&#45;&gt;Node16</title>
<path fill="none" stroke="#191970" d="M582.5905,-173.436C605.5588,-161.0471 631.3695,-147.1249 651.932,-136.0336"/>
<polygon fill="#191970" stroke="#191970" points="580.7527,-170.4506 573.613,-178.2784 584.0759,-176.6115 580.7527,-170.4506"/>
</g>
<!-- Node17 -->
<g id="node16" class="node">
<title>Node17</title>
<g id="a_node16"><a xlink:href="../../df/d80/spectraTOF_8cxx.html" target="_top" xlink:title="/home/travis/build\l/AliceO2Group/AliceO2\l/Analysis/Tasks/spectraTOF.cxx">
<polygon fill="none" stroke="#000000" points="782.5,-95 782.5,-136 949.5,-136 949.5,-95 782.5,-95"/>
<text text-anchor="start" x="790.5" y="-124" font-family="Helvetica,sans-Serif" font-size="10.00" fill="#000000">/home/travis/build</text>
<text text-anchor="start" x="790.5" y="-113" font-family="Helvetica,sans-Serif" font-size="10.00" fill="#000000">/AliceO2Group/AliceO2</text>
<text text-anchor="middle" x="866" y="-102" font-family="Helvetica,sans-Serif" font-size="10.00" fill="#000000">/Analysis/Tasks/spectraTOF.cxx</text>
</a>
</g>
</g>
<!-- Node10&#45;&gt;Node17 -->
<g id="edge17" class="edge">
<title>Node10&#45;&gt;Node17</title>
<path fill="none" stroke="#191970" d="M612.7127,-177.8973C684.6309,-159.334 704.9885,-159.2783 773,-142 780.3222,-140.1398 787.9439,-138.1147 795.5334,-136.0403"/>
<polygon fill="#191970" stroke="#191970" points="611.4949,-174.5979 602.7049,-180.5128 613.265,-181.3705 611.4949,-174.5979"/>
</g>
<!-- Node18 -->
<g id="node17" class="node">
<title>Node18</title>
<g id="a_node17"><a xlink:href="../../da/db2/spectraTPC_8cxx.html" target="_top" xlink:title="/home/travis/build\l/AliceO2Group/AliceO2\l/Analysis/Tasks/spectraTPC.cxx">
<polygon fill="none" stroke="#000000" points="967.5,-95 967.5,-136 1136.5,-136 1136.5,-95 967.5,-95"/>
<text text-anchor="start" x="975.5" y="-124" font-family="Helvetica,sans-Serif" font-size="10.00" fill="#000000">/home/travis/build</text>
<text text-anchor="start" x="975.5" y="-113" font-family="Helvetica,sans-Serif" font-size="10.00" fill="#000000">/AliceO2Group/AliceO2</text>
<text text-anchor="middle" x="1052" y="-102" font-family="Helvetica,sans-Serif" font-size="10.00" fill="#000000">/Analysis/Tasks/spectraTPC.cxx</text>
</a>
</g>
</g>
<!-- Node10&#45;&gt;Node18 -->
<g id="edge18" class="edge">
<title>Node10&#45;&gt;Node18</title>
<path fill="none" stroke="#191970" d="M612.8377,-178.0202C765.8627,-148.2791 810.0253,-170.7254 959,-142 967.5721,-140.3471 976.499,-138.2723 985.2828,-136.0152"/>
<polygon fill="#191970" stroke="#191970" points="611.7241,-174.673 602.5985,-180.0557 613.0891,-181.5386 611.7241,-174.673"/>
</g>
<!-- Node11&#45;&gt;Node12 -->
<g id="edge11" class="edge">
<title>Node11&#45;&gt;Node12</title>
<path fill="none" stroke="#191970" d="M159.6599,-82.8612C147.3135,-72.8718 133.9039,-62.0222 122.177,-52.5341"/>
<polygon fill="#191970" stroke="#191970" points="157.6157,-85.7094 167.5913,-89.2784 162.0187,-80.2675 157.6157,-85.7094"/>
</g>
<!-- Node13 -->
<g id="node12" class="node">
<title>Node13</title>
<g id="a_node12"><a xlink:href="../../d8/d43/tableReader_8cxx.html" target="_top" xlink:title="/home/travis/build\l/AliceO2Group/AliceO2\l/Analysis/Tasks/PWGDQ\l/tableReader.cxx">
<polygon fill="none" stroke="#000000" points="174,-.5 174,-52.5 306,-52.5 306,-.5 174,-.5"/>
<text text-anchor="start" x="182" y="-40.5" font-family="Helvetica,sans-Serif" font-size="10.00" fill="#000000">/home/travis/build</text>
<text text-anchor="start" x="182" y="-29.5" font-family="Helvetica,sans-Serif" font-size="10.00" fill="#000000">/AliceO2Group/AliceO2</text>
<text text-anchor="start" x="182" y="-18.5" font-family="Helvetica,sans-Serif" font-size="10.00" fill="#000000">/Analysis/Tasks/PWGDQ</text>
<text text-anchor="middle" x="240" y="-7.5" font-family="Helvetica,sans-Serif" font-size="10.00" fill="#000000">/tableReader.cxx</text>
</a>
</g>
</g>
<!-- Node11&#45;&gt;Node13 -->
<g id="edge12" class="edge">
<title>Node11&#45;&gt;Node13</title>
<path fill="none" stroke="#191970" d="M215.9615,-79.9856C220.082,-70.8176 224.4411,-61.1186 228.2993,-52.5341"/>
<polygon fill="#191970" stroke="#191970" points="212.692,-78.7225 211.785,-89.2784 219.0768,-81.5921 212.692,-78.7225"/>
</g>
<!-- Node20&#45;&gt;Node10 -->
<g id="edge21" class="edge">
<title>Node20&#45;&gt;Node10</title>
<path fill="none" stroke="#191970" d="M578.632,-260.0029C569.2107,-250.2529 559.0629,-239.7511 550.1566,-230.5341"/>
<polygon fill="#191970" stroke="#191970" points="576.1965,-262.5193 585.6623,-267.2784 581.2304,-257.6551 576.1965,-262.5193"/>
</g>
<!-- Node21 -->
<g id="node20" class="node">
<title>Node21</title>
<g id="a_node20"><a xlink:href="../../d2/d8f/PIDTPC_8cxx.html" target="_top" xlink:title="/home/travis/build\l/AliceO2Group/AliceO2\l/Analysis/DataModel/src\l/PIDTPC.cxx">
<polygon fill="none" stroke="#000000" points="621,-178.5 621,-230.5 755,-230.5 755,-178.5 621,-178.5"/>
<text text-anchor="start" x="629" y="-218.5" font-family="Helvetica,sans-Serif" font-size="10.00" fill="#000000">/home/travis/build</text>
<text text-anchor="start" x="629" y="-207.5" font-family="Helvetica,sans-Serif" font-size="10.00" fill="#000000">/AliceO2Group/AliceO2</text>
<text text-anchor="start" x="629" y="-196.5" font-family="Helvetica,sans-Serif" font-size="10.00" fill="#000000">/Analysis/DataModel/src</text>
<text text-anchor="middle" x="688" y="-185.5" font-family="Helvetica,sans-Serif" font-size="10.00" fill="#000000">/PIDTPC.cxx</text>
</a>
</g>
</g>
<!-- Node20&#45;&gt;Node21 -->
<g id="edge22" class="edge">
<title>Node20&#45;&gt;Node21</title>
<path fill="none" stroke="#191970" d="M640.2289,-259.7159C648.594,-250.0472 657.58,-239.6608 665.4761,-230.5341"/>
<polygon fill="#191970" stroke="#191970" points="637.5821,-257.4259 633.6861,-267.2784 642.8758,-262.0059 637.5821,-257.4259"/>
</g>
</g>
</svg>
        <g id="navigator" transform="translate(0 0)" fill="#404254">
                <rect fill="#f2f5e9" fill-opacity="0.5" stroke="#606060" stroke-width=".5" x="0" y="0" width="60" height="60"/>
                <use id="zoomplus" xlink:href="#zoomPlus" x="17" y="9" onmousedown="handleZoom(evt,'in')"/>
                <use id="zoomminus" xlink:href="#zoomMin" x="42" y="9" onmousedown="handleZoom(evt,'out')"/>
                <use id="reset" xlink:href="#resetDef" x="30" y="36" onmousedown="handleReset()"/>
                <g id="arrowUp" xlink:href="#dirArrow" transform="translate(30 24)" onmousedown="handlePan(0,-1)">
                  <use xlink:href="#rim" fill="#404040">
                        <set attributeName="fill" to="#808080" begin="arrowUp.mouseover" end="arrowUp.mouseout"/>
                  </use>
                  <path fill="none" stroke="white" stroke-width="1.5" d="M0,-3.0v7 M-2.5,-0.5L0,-3.0L2.5,-0.5"/>
                </g>
                <g id="arrowRight" xlink:href="#dirArrow" transform="rotate(90) translate(36 -43)" onmousedown="handlePan(1,0)">
                  <use xlink:href="#rim" fill="#404040">
                        <set attributeName="fill" to="#808080" begin="arrowRight.mouseover" end="arrowRight.mouseout"/>
                  </use>
                  <path fill="none" stroke="white" stroke-width="1.5" d="M0,-3.0v7 M-2.5,-0.5L0,-3.0L2.5,-0.5"/>
                </g>
                <g id="arrowDown" xlink:href="#dirArrow" transform="rotate(180) translate(-30 -48)" onmousedown="handlePan(0,1)">
                  <use xlink:href="#rim" fill="#404040">
                        <set attributeName="fill" to="#808080" begin="arrowDown.mouseover" end="arrowDown.mouseout"/>
                  </use>
                  <path fill="none" stroke="white" stroke-width="1.5" d="M0,-3.0v7 M-2.5,-0.5L0,-3.0L2.5,-0.5"/>
                </g>
                <g id="arrowLeft" xlink:href="#dirArrow" transform="rotate(270) translate(-36 17)" onmousedown="handlePan(-1,0)">
                  <use xlink:href="#rim" fill="#404040">
                        <set attributeName="fill" to="#808080" begin="arrowLeft.mouseover" end="arrowLeft.mouseout"/>
                  </use>
                  <path fill="none" stroke="white" stroke-width="1.5" d="M0,-3.0v7 M-2.5,-0.5L0,-3.0L2.5,-0.5"/>
                </g>
        </g>
        <svg viewBox="0 0 15 15" width="100%" height="30px" preserveAspectRatio="xMaxYMin meet">
         <g id="arrow_out" transform="scale(0.3 0.3)">
          <a xlink:href="ParamBase_8h__dep__incl_org.svg" target="_base">
           <rect id="button" ry="5" rx="5" y="6" x="6" height="38" width="38"
                fill="#f2f5e9" fill-opacity="0.5" stroke="#606060" stroke-width="1.0"/>
           <path id="arrow"
             d="M 11.500037,31.436501 C 11.940474,20.09759 22.043105,11.32322 32.158766,21.979434 L 37.068811,17.246167 C 37.068811,17.246167 37.088388,32 37.088388,32 L 22.160133,31.978069 C 22.160133,31.978069 26.997745,27.140456 26.997745,27.140456 C 18.528582,18.264221 13.291696,25.230495 11.500037,31.436501 z"
             style="fill:#404040;"/>
          </a>
         </g>
        </svg>
</svg>
