<?xml version="1.0" encoding="UTF-8" standalone="no"?>
<!DOCTYPE svg PUBLIC "-//W3C//DTD SVG 1.1//EN"
 "http://www.w3.org/Graphics/SVG/1.1/DTD/svg11.dtd">
<!-- Generated by graphviz version 2.40.1 (20161225.0304)
 -->
<!-- Title: o2::header::RAWDataHeaderV5 Pages: 1 -->
<!--zoomable 380 -->
<svg id="main" version="1.1" xmlns="http://www.w3.org/2000/svg" xmlns:xlink="http://www.w3.org/1999/xlink" xml:space="preserve" onload="init(evt)">
<style type="text/css"><![CDATA[
.edge:hover path { stroke: red; }
.edge:hover polygon { stroke: red; fill: red; }
]]></style>
<script type="text/javascript"><![CDATA[
var edges = document.getElementsByTagName('g');
if (edges && edges.length) {
  for (var i=0;i<edges.length;i++) {
    if (edges[i].id.substr(0,4)=='edge') {
      edges[i].setAttribute('class','edge');
    }
  }
}
]]></script>
        <defs>
                <circle id="rim" cx="0" cy="0" r="7"/>
                <circle id="rim2" cx="0" cy="0" r="3.5"/>
                <g id="zoomPlus">
                        <use xlink:href="#rim" fill="#404040">
                                <set attributeName="fill" to="#808080" begin="zoomplus.mouseover" end="zoomplus.mouseout"/>
                        </use>
                        <path d="M-4,0h8M0,-4v8" fill="none" stroke="white" stroke-width="1.5" pointer-events="none"/>
                </g>
                <g id="zoomMin">
                        <use xlink:href="#rim" fill="#404040">
                                <set attributeName="fill" to="#808080" begin="zoomminus.mouseover" end="zoomminus.mouseout"/>
                        </use>
                        <path d="M-4,0h8" fill="none" stroke="white" stroke-width="1.5" pointer-events="none"/>
                </g>
                <g id="dirArrow">
                        <path fill="none" stroke="white" stroke-width="1.5" d="M0,-3.0v7 M-2.5,-0.5L0,-3.0L2.5,-0.5"/>
                </g>
               <g id="resetDef">
                       <use xlink:href="#rim2" fill="#404040">
                               <set attributeName="fill" to="#808080" begin="reset.mouseover" end="reset.mouseout"/>
                       </use>
               </g>
        </defs>

<script type="text/javascript">
var viewWidth = 1263;
var viewHeight = 380;
var sectionId = 'dynsection-0';
</script>
<script xlink:href="../../svgpan.js"/>
<svg id="graph" class="graph">
<g id="viewport">
<title>o2::header::RAWDataHeaderV5</title>
<!-- Node1 -->
<g id="node1" class="node">
<title>Node1</title>
<polygon fill="#bfbfbf" stroke="#000000" points="544,-.5 544,-156.5 711,-156.5 711,-.5 544,-.5"/>
<text text-anchor="middle" x="627.5" y="-144.5" font-family="Helvetica,sans-Serif" font-size="10.00" fill="#000000">o2::header::RAWDataHeaderV5</text>
<polyline fill="none" stroke="#000000" points="544,-137.5 711,-137.5 "/>
<text text-anchor="start" x="552" y="-125.5" font-family="Helvetica,sans-Serif" font-size="10.00" fill="#000000">+ zero0</text>
<text text-anchor="start" x="552" y="-114.5" font-family="Helvetica,sans-Serif" font-size="10.00" fill="#000000">+ word1</text>
<text text-anchor="start" x="552" y="-103.5" font-family="Helvetica,sans-Serif" font-size="10.00" fill="#000000">+ word2</text>
<text text-anchor="start" x="552" y="-92.5" font-family="Helvetica,sans-Serif" font-size="10.00" fill="#000000">+ word3</text>
<text text-anchor="start" x="552" y="-81.5" font-family="Helvetica,sans-Serif" font-size="10.00" fill="#000000">+ word4</text>
<text text-anchor="start" x="552" y="-70.5" font-family="Helvetica,sans-Serif" font-size="10.00" fill="#000000">+ pageCnt</text>
<text text-anchor="start" x="552" y="-59.5" font-family="Helvetica,sans-Serif" font-size="10.00" fill="#000000">+ zero4</text>
<text text-anchor="start" x="552" y="-48.5" font-family="Helvetica,sans-Serif" font-size="10.00" fill="#000000">+ word5</text>
<text text-anchor="start" x="552" y="-37.5" font-family="Helvetica,sans-Serif" font-size="10.00" fill="#000000">+ word6</text>
<text text-anchor="start" x="552" y="-26.5" font-family="Helvetica,sans-Serif" font-size="10.00" fill="#000000">+ detectorField</text>
<polyline fill="none" stroke="#000000" points="544,-19.5 711,-19.5 "/>
<text text-anchor="middle" x="627.5" y="-7.5" font-family="Helvetica,sans-Serif" font-size="10.00" fill="#000000"> </text>
</g>
<!-- Node2 -->
<g id="node2" class="node">
<title>Node2</title>
<polygon fill="none" stroke="#bfbfbf" points="0,-314.5 0,-371.5 113,-371.5 113,-314.5 0,-314.5"/>
<text text-anchor="middle" x="56.5" y="-359.5" font-family="Helvetica,sans-Serif" font-size="10.00" fill="#000000">anonymous:+@115</text>
<polyline fill="none" stroke="#bfbfbf" points="0,-352.5 113,-352.5 "/>
<text text-anchor="middle" x="56.5" y="-340.5" font-family="Helvetica,sans-Serif" font-size="10.00" fill="#000000"> </text>
<polyline fill="none" stroke="#bfbfbf" points="0,-333.5 113,-333.5 "/>
<text text-anchor="middle" x="56.5" y="-321.5" font-family="Helvetica,sans-Serif" font-size="10.00" fill="#000000"> </text>
</g>
<!-- Node2&#45;&gt;Node1 -->
<g id="edge1" class="edge">
<title>Node2&#45;&gt;Node1</title>
<path fill="none" stroke="#404040" d="M65.8317,-314.4952C79.8438,-276.4067 110.0782,-209.6947 159.5,-175 218.4977,-133.5829 413.0583,-103.9277 531.945,-89.1514"/>
<polygon fill="none" stroke="#404040" points="532.007,-89.1438 537.4749,-84.4426 543.9176,-87.6817 538.4497,-92.383 532.007,-89.1438"/>
<text text-anchor="middle" x="179.5" y="-233" font-family="Helvetica,sans-Serif" font-size="10.00" fill="#000000"> +@115</text>
</g>
<!-- Node3 -->
<g id="node3" class="node">
<title>Node3</title>
<polygon fill="none" stroke="#bfbfbf" points="131,-314.5 131,-371.5 244,-371.5 244,-314.5 131,-314.5"/>
<text text-anchor="middle" x="187.5" y="-359.5" font-family="Helvetica,sans-Serif" font-size="10.00" fill="#000000">anonymous:+@125</text>
<polyline fill="none" stroke="#bfbfbf" points="131,-352.5 244,-352.5 "/>
<text text-anchor="middle" x="187.5" y="-340.5" font-family="Helvetica,sans-Serif" font-size="10.00" fill="#000000"> </text>
<polyline fill="none" stroke="#bfbfbf" points="131,-333.5 244,-333.5 "/>
<text text-anchor="middle" x="187.5" y="-321.5" font-family="Helvetica,sans-Serif" font-size="10.00" fill="#000000"> </text>
</g>
<!-- Node3&#45;&gt;Node1 -->
<g id="edge2" class="edge">
<title>Node3&#45;&gt;Node1</title>
<path fill="none" stroke="#404040" d="M196.0404,-314.3678C208.7375,-276.76 236.2055,-211.2603 282.5,-175 321.2367,-144.6594 443.8846,-114.9598 531.9189,-96.6994"/>
<polygon fill="none" stroke="#404040" points="532.0727,-96.6679 537.1458,-91.5431 543.8276,-94.2549 538.7544,-99.3797 532.0727,-96.6679"/>
<text text-anchor="middle" x="302.5" y="-233" font-family="Helvetica,sans-Serif" font-size="10.00" fill="#000000"> +@125</text>
</g>
<!-- Node4 -->
<g id="node4" class="node">
<title>Node4</title>
<polygon fill="none" stroke="#bfbfbf" points="262,-314.5 262,-371.5 375,-371.5 375,-314.5 262,-314.5"/>
<text text-anchor="middle" x="318.5" y="-359.5" font-family="Helvetica,sans-Serif" font-size="10.00" fill="#000000">anonymous:+@117</text>
<polyline fill="none" stroke="#bfbfbf" points="262,-352.5 375,-352.5 "/>
<text text-anchor="middle" x="318.5" y="-340.5" font-family="Helvetica,sans-Serif" font-size="10.00" fill="#000000"> </text>
<polyline fill="none" stroke="#bfbfbf" points="262,-333.5 375,-333.5 "/>
<text text-anchor="middle" x="318.5" y="-321.5" font-family="Helvetica,sans-Serif" font-size="10.00" fill="#000000"> </text>
</g>
<!-- Node4&#45;&gt;Node1 -->
<g id="edge3" class="edge">
<title>Node4&#45;&gt;Node1</title>
<path fill="none" stroke="#404040" d="M322.043,-314.2171C328.0286,-277.3485 343.4638,-213.6134 381.5,-175 421.8219,-134.0663 481.5703,-110.0876 532.0859,-96.2715"/>
<polygon fill="none" stroke="#404040" points="532.1012,-96.2676 536.8908,-90.8769 543.709,-93.2247 538.9194,-98.6154 532.1012,-96.2676"/>
<text text-anchor="middle" x="401.5" y="-233" font-family="Helvetica,sans-Serif" font-size="10.00" fill="#000000"> +@117</text>
</g>
<!-- Node5 -->
<g id="node5" class="node">
<title>Node5</title>
<g id="a_node5"><a xlink:href="../../d6/d30/classuint64__t.html" target="_top" xlink:title="{uint64_t\n||}">
<polygon fill="none" stroke="#000000" points="393.5,-314.5 393.5,-371.5 449.5,-371.5 449.5,-314.5 393.5,-314.5"/>
<text text-anchor="middle" x="421.5" y="-359.5" font-family="Helvetica,sans-Serif" font-size="10.00" fill="#000000">uint64_t</text>
<polyline fill="none" stroke="#000000" points="393.5,-352.5 449.5,-352.5 "/>
<text text-anchor="middle" x="421.5" y="-340.5" font-family="Helvetica,sans-Serif" font-size="10.00" fill="#000000"> </text>
<polyline fill="none" stroke="#000000" points="393.5,-333.5 449.5,-333.5 "/>
<text text-anchor="middle" x="421.5" y="-321.5" font-family="Helvetica,sans-Serif" font-size="10.00" fill="#000000"> </text>
</a>
</g>
</g>
<!-- Node5&#45;&gt;Node1 -->
<g id="edge4" class="edge">
<title>Node5&#45;&gt;Node1</title>
<path fill="none" stroke="#404040" d="M422.9442,-314.3173C426.0831,-278.4174 436.0276,-216.6007 467.5,-175 484.7106,-152.2508 508.9767,-133.7439 533.4203,-119.2491"/>
<polygon fill="none" stroke="#404040" points="533.4621,-119.2254 536.6935,-112.7788 543.887,-113.2821 540.6557,-119.7287 533.4621,-119.2254"/>
<text text-anchor="middle" x="501.5" y="-288" font-family="Helvetica,sans-Serif" font-size="10.00" fill="#000000"> +word7</text>
<text text-anchor="middle" x="501.5" y="-277" font-family="Helvetica,sans-Serif" font-size="10.00" fill="#000000">+triggerType</text>
<text text-anchor="middle" x="501.5" y="-266" font-family="Helvetica,sans-Serif" font-size="10.00" fill="#000000">+zero6</text>
<text text-anchor="middle" x="501.5" y="-255" font-family="Helvetica,sans-Serif" font-size="10.00" fill="#000000">+detectorPAR</text>
<text text-anchor="middle" x="501.5" y="-244" font-family="Helvetica,sans-Serif" font-size="10.00" fill="#000000">+feeId</text>
<text text-anchor="middle" x="501.5" y="-233" font-family="Helvetica,sans-Serif" font-size="10.00" fill="#000000">+priority</text>
<text text-anchor="middle" x="501.5" y="-222" font-family="Helvetica,sans-Serif" font-size="10.00" fill="#000000">+headerSize</text>
<text text-anchor="middle" x="501.5" y="-211" font-family="Helvetica,sans-Serif" font-size="10.00" fill="#000000">+version</text>
<text text-anchor="middle" x="501.5" y="-200" font-family="Helvetica,sans-Serif" font-size="10.00" fill="#000000">+word0</text>
<text text-anchor="middle" x="501.5" y="-189" font-family="Helvetica,sans-Serif" font-size="10.00" fill="#000000">+stop</text>
<text text-anchor="middle" x="501.5" y="-178" font-family="Helvetica,sans-Serif" font-size="10.00" fill="#000000">...</text>
</g>
<!-- Node6 -->
<g id="node6" class="node">
<title>Node6</title>
<polygon fill="none" stroke="#bfbfbf" points="468,-314.5 468,-371.5 581,-371.5 581,-314.5 468,-314.5"/>
<text text-anchor="middle" x="524.5" y="-359.5" font-family="Helvetica,sans-Serif" font-size="10.00" fill="#000000">anonymous:+@127</text>
<polyline fill="none" stroke="#bfbfbf" points="468,-352.5 581,-352.5 "/>
<text text-anchor="middle" x="524.5" y="-340.5" font-family="Helvetica,sans-Serif" font-size="10.00" fill="#000000"> </text>
<polyline fill="none" stroke="#bfbfbf" points="468,-333.5 581,-333.5 "/>
<text text-anchor="middle" x="524.5" y="-321.5" font-family="Helvetica,sans-Serif" font-size="10.00" fill="#000000"> </text>
</g>
<!-- Node6&#45;&gt;Node1 -->
<g id="edge5" class="edge">
<title>Node6&#45;&gt;Node1</title>
<path fill="none" stroke="#404040" d="M533.648,-314.4714C544.6404,-280.8135 564.0456,-223.3191 583.5,-175 584.4402,-172.6648 585.4055,-170.3038 586.3905,-167.9264"/>
<polygon fill="none" stroke="#404040" points="586.456,-167.7712 585.1049,-160.6877 591.1238,-156.7162 592.4749,-163.7996 586.456,-167.7712"/>
<text text-anchor="middle" x="603.5" y="-233" font-family="Helvetica,sans-Serif" font-size="10.00" fill="#000000"> +@127</text>
</g>
<!-- Node7 -->
<g id="node7" class="node">
<title>Node7</title>
<polygon fill="none" stroke="#bfbfbf" points="599.5,-314.5 599.5,-371.5 655.5,-371.5 655.5,-314.5 599.5,-314.5"/>
<text text-anchor="middle" x="627.5" y="-359.5" font-family="Helvetica,sans-Serif" font-size="10.00" fill="#000000">uint16_t</text>
<polyline fill="none" stroke="#bfbfbf" points="599.5,-352.5 655.5,-352.5 "/>
<text text-anchor="middle" x="627.5" y="-340.5" font-family="Helvetica,sans-Serif" font-size="10.00" fill="#000000"> </text>
<polyline fill="none" stroke="#bfbfbf" points="599.5,-333.5 655.5,-333.5 "/>
<text text-anchor="middle" x="627.5" y="-321.5" font-family="Helvetica,sans-Serif" font-size="10.00" fill="#000000"> </text>
</g>
<!-- Node7&#45;&gt;Node1 -->
<g id="edge6" class="edge">
<title>Node7&#45;&gt;Node1</title>
<path fill="none" stroke="#404040" d="M627.5,-314.4426C627.5,-279.7538 627.5,-219.5583 627.5,-168.6529"/>
<polygon fill="none" stroke="#404040" points="627.5001,-168.6069 623.5,-162.607 627.5,-156.6069 631.5,-162.6069 627.5001,-168.6069"/>
<text text-anchor="middle" x="646" y="-233" font-family="Helvetica,sans-Serif" font-size="10.00" fill="#000000"> +cruID</text>
</g>
<!-- Node8 -->
<g id="node8" class="node">
<title>Node8</title>
<polygon fill="none" stroke="#bfbfbf" points="674,-314.5 674,-371.5 787,-371.5 787,-314.5 674,-314.5"/>
<text text-anchor="middle" x="730.5" y="-359.5" font-family="Helvetica,sans-Serif" font-size="10.00" fill="#000000">anonymous:+@119</text>
<polyline fill="none" stroke="#bfbfbf" points="674,-352.5 787,-352.5 "/>
<text text-anchor="middle" x="730.5" y="-340.5" font-family="Helvetica,sans-Serif" font-size="10.00" fill="#000000"> </text>
<polyline fill="none" stroke="#bfbfbf" points="674,-333.5 787,-333.5 "/>
<text text-anchor="middle" x="730.5" y="-321.5" font-family="Helvetica,sans-Serif" font-size="10.00" fill="#000000"> </text>
</g>
<!-- Node8&#45;&gt;Node1 -->
<g id="edge7" class="edge">
<title>Node8&#45;&gt;Node1</title>
<path fill="none" stroke="#404040" d="M720.3855,-314.3038C708.442,-280.7296 687.7593,-223.5498 668.5,-175 667.5692,-172.6536 666.619,-170.2783 665.6541,-167.8841"/>
<polygon fill="none" stroke="#404040" points="665.5762,-167.6926 659.6085,-163.6444 661.0501,-156.5788 667.0177,-160.627 665.5762,-167.6926"/>
<text text-anchor="middle" x="732.5" y="-233" font-family="Helvetica,sans-Serif" font-size="10.00" fill="#000000"> +@119</text>
</g>
<!-- Node9 -->
<g id="node9" class="node">
<title>Node9</title>
<g id="a_node9"><a xlink:href="../../d3/d87/classuint32__t.html" target="_top" xlink:title="{uint32_t\n||}">
<polygon fill="none" stroke="#000000" points="805.5,-314.5 805.5,-371.5 861.5,-371.5 861.5,-314.5 805.5,-314.5"/>
<text text-anchor="middle" x="833.5" y="-359.5" font-family="Helvetica,sans-Serif" font-size="10.00" fill="#000000">uint32_t</text>
<polyline fill="none" stroke="#000000" points="805.5,-352.5 861.5,-352.5 "/>
<text text-anchor="middle" x="833.5" y="-340.5" font-family="Helvetica,sans-Serif" font-size="10.00" fill="#000000"> </text>
<polyline fill="none" stroke="#000000" points="805.5,-333.5 861.5,-333.5 "/>
<text text-anchor="middle" x="833.5" y="-321.5" font-family="Helvetica,sans-Serif" font-size="10.00" fill="#000000"> </text>
</a>
</g>
</g>
<!-- Node9&#45;&gt;Node1 -->
<g id="edge8" class="edge">
<title>Node9&#45;&gt;Node1</title>
<path fill="none" stroke="#404040" d="M825.2659,-314.476C814.0069,-279.0171 791.1634,-217.9398 756.5,-175 746.1095,-162.1286 733.6345,-150.0537 720.5928,-139.0945"/>
<polygon fill="none" stroke="#404040" points="720.332,-138.8826 713.1529,-138.2041 711.018,-131.3162 718.1972,-131.9948 720.332,-138.8826"/>
<text text-anchor="middle" x="858.5" y="-271.5" font-family="Helvetica,sans-Serif" font-size="10.00" fill="#000000"> +linkID</text>
<text text-anchor="middle" x="858.5" y="-260.5" font-family="Helvetica,sans-Serif" font-size="10.00" fill="#000000">+endPointID</text>
<text text-anchor="middle" x="858.5" y="-249.5" font-family="Helvetica,sans-Serif" font-size="10.00" fill="#000000">+reserved2</text>
<text text-anchor="middle" x="858.5" y="-238.5" font-family="Helvetica,sans-Serif" font-size="10.00" fill="#000000">+memorySize</text>
<text text-anchor="middle" x="858.5" y="-227.5" font-family="Helvetica,sans-Serif" font-size="10.00" fill="#000000">+offsetToNext</text>
<text text-anchor="middle" x="858.5" y="-216.5" font-family="Helvetica,sans-Serif" font-size="10.00" fill="#000000">+orbit</text>
<text text-anchor="middle" x="858.5" y="-205.5" font-family="Helvetica,sans-Serif" font-size="10.00" fill="#000000">+packetCounter</text>
<text text-anchor="middle" x="858.5" y="-194.5" font-family="Helvetica,sans-Serif" font-size="10.00" fill="#000000">+bunchCrossing</text>
</g>
<!-- Node10 -->
<g id="node10" class="node">
<title>Node10</title>
<polygon fill="none" stroke="#bfbfbf" points="880,-314.5 880,-371.5 993,-371.5 993,-314.5 880,-314.5"/>
<text text-anchor="middle" x="936.5" y="-359.5" font-family="Helvetica,sans-Serif" font-size="10.00" fill="#000000">anonymous:+@121</text>
<polyline fill="none" stroke="#bfbfbf" points="880,-352.5 993,-352.5 "/>
<text text-anchor="middle" x="936.5" y="-340.5" font-family="Helvetica,sans-Serif" font-size="10.00" fill="#000000"> </text>
<polyline fill="none" stroke="#bfbfbf" points="880,-333.5 993,-333.5 "/>
<text text-anchor="middle" x="936.5" y="-321.5" font-family="Helvetica,sans-Serif" font-size="10.00" fill="#000000"> </text>
</g>
<!-- Node10&#45;&gt;Node1 -->
<g id="edge9" class="edge">
<title>Node10&#45;&gt;Node1</title>
<path fill="none" stroke="#404040" d="M938.7365,-314.3506C939.992,-277.6263 936.5057,-214.047 902.5,-175 878.2732,-147.1816 792.4267,-119.7457 723.016,-101.2817"/>
<polygon fill="none" stroke="#404040" points="722.757,-101.2139 715.9384,-103.5605 711.1497,-98.169 717.9683,-95.8223 722.757,-101.2139"/>
<text text-anchor="middle" x="958.5" y="-233" font-family="Helvetica,sans-Serif" font-size="10.00" fill="#000000"> +@121</text>
</g>
<!-- Node11 -->
<g id="node11" class="node">
<title>Node11</title>
<polygon fill="none" stroke="#bfbfbf" points="1011,-314.5 1011,-371.5 1124,-371.5 1124,-314.5 1011,-314.5"/>
<text text-anchor="middle" x="1067.5" y="-359.5" font-family="Helvetica,sans-Serif" font-size="10.00" fill="#000000">anonymous:+@113</text>
<polyline fill="none" stroke="#bfbfbf" points="1011,-352.5 1124,-352.5 "/>
<text text-anchor="middle" x="1067.5" y="-340.5" font-family="Helvetica,sans-Serif" font-size="10.00" fill="#000000"> </text>
<polyline fill="none" stroke="#bfbfbf" points="1011,-333.5 1124,-333.5 "/>
<text text-anchor="middle" x="1067.5" y="-321.5" font-family="Helvetica,sans-Serif" font-size="10.00" fill="#000000"> </text>
</g>
<!-- Node11&#45;&gt;Node1 -->
<g id="edge10" class="edge">
<title>Node11&#45;&gt;Node1</title>
<path fill="none" stroke="#404040" d="M1060.7615,-314.3634C1050.4122,-276.7508 1026.9651,-211.2456 982.5,-175 942.9395,-142.7524 814.4079,-113.1575 723.4164,-95.4721"/>
<polygon fill="none" stroke="#404040" points="723.1832,-95.4274 716.5362,-98.2233 711.3988,-93.1629 718.0459,-90.367 723.1832,-95.4274"/>
<text text-anchor="middle" x="1074.5" y="-233" font-family="Helvetica,sans-Serif" font-size="10.00" fill="#000000"> +@113</text>
</g>
<!-- Node12 -->
<g id="node12" class="node">
<title>Node12</title>
<polygon fill="none" stroke="#bfbfbf" points="1142,-314.5 1142,-371.5 1255,-371.5 1255,-314.5 1142,-314.5"/>
<text text-anchor="middle" x="1198.5" y="-359.5" font-family="Helvetica,sans-Serif" font-size="10.00" fill="#000000">anonymous:+@123</text>
<polyline fill="none" stroke="#bfbfbf" points="1142,-352.5 1255,-352.5 "/>
<text text-anchor="middle" x="1198.5" y="-340.5" font-family="Helvetica,sans-Serif" font-size="10.00" fill="#000000"> </text>
<polyline fill="none" stroke="#bfbfbf" points="1142,-333.5 1255,-333.5 "/>
<text text-anchor="middle" x="1198.5" y="-321.5" font-family="Helvetica,sans-Serif" font-size="10.00" fill="#000000"> </text>
</g>
<!-- Node12&#45;&gt;Node1 -->
<g id="edge11" class="edge">
<title>Node12&#45;&gt;Node1</title>
<path fill="none" stroke="#404040" d="M1189.6849,-314.4999C1176.3616,-276.4167 1147.3284,-209.7108 1098.5,-175 1039.3046,-132.9196 842.9399,-103.4573 723.2497,-88.9035"/>
<polygon fill="none" stroke="#404040" points="723.1124,-88.8871 716.6784,-92.1434 711.1979,-87.4568 717.6319,-84.2005 723.1124,-88.8871"/>
<text text-anchor="middle" x="1201.5" y="-233" font-family="Helvetica,sans-Serif" font-size="10.00" fill="#000000"> +@123</text>
</g>
</g>
</svg>
        <g id="navigator" transform="translate(0 0)" fill="#404254">
                <rect fill="#f2f5e9" fill-opacity="0.5" stroke="#606060" stroke-width=".5" x="0" y="0" width="60" height="60"/>
                <use id="zoomplus" xlink:href="#zoomPlus" x="17" y="9" onmousedown="handleZoom(evt,'in')"/>
                <use id="zoomminus" xlink:href="#zoomMin" x="42" y="9" onmousedown="handleZoom(evt,'out')"/>
                <use id="reset" xlink:href="#resetDef" x="30" y="36" onmousedown="handleReset()"/>
                <g id="arrowUp" xlink:href="#dirArrow" transform="translate(30 24)" onmousedown="handlePan(0,-1)">
                  <use xlink:href="#rim" fill="#404040">
                        <set attributeName="fill" to="#808080" begin="arrowUp.mouseover" end="arrowUp.mouseout"/>
                  </use>
                  <path fill="none" stroke="white" stroke-width="1.5" d="M0,-3.0v7 M-2.5,-0.5L0,-3.0L2.5,-0.5"/>
                </g>
                <g id="arrowRight" xlink:href="#dirArrow" transform="rotate(90) translate(36 -43)" onmousedown="handlePan(1,0)">
                  <use xlink:href="#rim" fill="#404040">
                        <set attributeName="fill" to="#808080" begin="arrowRight.mouseover" end="arrowRight.mouseout"/>
                  </use>
                  <path fill="none" stroke="white" stroke-width="1.5" d="M0,-3.0v7 M-2.5,-0.5L0,-3.0L2.5,-0.5"/>
                </g>
                <g id="arrowDown" xlink:href="#dirArrow" transform="rotate(180) translate(-30 -48)" onmousedown="handlePan(0,1)">
                  <use xlink:href="#rim" fill="#404040">
                        <set attributeName="fill" to="#808080" begin="arrowDown.mouseover" end="arrowDown.mouseout"/>
                  </use>
                  <path fill="none" stroke="white" stroke-width="1.5" d="M0,-3.0v7 M-2.5,-0.5L0,-3.0L2.5,-0.5"/>
                </g>
                <g id="arrowLeft" xlink:href="#dirArrow" transform="rotate(270) translate(-36 17)" onmousedown="handlePan(-1,0)">
                  <use xlink:href="#rim" fill="#404040">
                        <set attributeName="fill" to="#808080" begin="arrowLeft.mouseover" end="arrowLeft.mouseout"/>
                  </use>
                  <path fill="none" stroke="white" stroke-width="1.5" d="M0,-3.0v7 M-2.5,-0.5L0,-3.0L2.5,-0.5"/>
                </g>
        </g>
        <svg viewBox="0 0 15 15" width="100%" height="30px" preserveAspectRatio="xMaxYMin meet">
         <g id="arrow_out" transform="scale(0.3 0.3)">
          <a xlink:href="structo2_1_1header_1_1RAWDataHeaderV5__coll__graph_org.svg" target="_base">
           <rect id="button" ry="5" rx="5" y="6" x="6" height="38" width="38"
                fill="#f2f5e9" fill-opacity="0.5" stroke="#606060" stroke-width="1.0"/>
           <path id="arrow"
             d="M 11.500037,31.436501 C 11.940474,20.09759 22.043105,11.32322 32.158766,21.979434 L 37.068811,17.246167 C 37.068811,17.246167 37.088388,32 37.088388,32 L 22.160133,31.978069 C 22.160133,31.978069 26.997745,27.140456 26.997745,27.140456 C 18.528582,18.264221 13.291696,25.230495 11.500037,31.436501 z"
             style="fill:#404040;"/>
          </a>
         </g>
        </svg>
</svg>
