<?xml version="1.0" encoding="UTF-8" standalone="no"?>
<!DOCTYPE svg PUBLIC "-//W3C//DTD SVG 1.1//EN"
 "http://www.w3.org/Graphics/SVG/1.1/DTD/svg11.dtd">
<!-- Generated by graphviz version 2.40.1 (20161225.0304)
 -->
<!-- Title: TableReader Pages: 1 -->
<svg width="1238pt" height="871pt"
 viewBox="0.00 0.00 1238.00 871.00" xmlns="http://www.w3.org/2000/svg" xmlns:xlink="http://www.w3.org/1999/xlink">
<g id="graph0" class="graph" transform="scale(1 1) rotate(0) translate(4 867)">
<title>TableReader</title>
<!-- Node1 -->
<g id="node1" class="node">
<title>Node1</title>
<polygon fill="#bfbfbf" stroke="#000000" points="181.5,-.5 181.5,-90.5 304.5,-90.5 304.5,-.5 181.5,-.5"/>
<text text-anchor="middle" x="243" y="-78.5" font-family="Helvetica,sans-Serif" font-size="10.00" fill="#000000">TableReader</text>
<polyline fill="none" stroke="#000000" points="181.5,-71.5 304.5,-71.5 "/>
<text text-anchor="middle" x="243" y="-59.5" font-family="Helvetica,sans-Serif" font-size="10.00" fill="#000000"> </text>
<polyline fill="none" stroke="#000000" points="181.5,-52.5 304.5,-52.5 "/>
<text text-anchor="start" x="189.5" y="-40.5" font-family="Helvetica,sans-Serif" font-size="10.00" fill="#000000">+ init()</text>
<text text-anchor="start" x="189.5" y="-29.5" font-family="Helvetica,sans-Serif" font-size="10.00" fill="#000000">+ DefineCuts()</text>
<text text-anchor="start" x="189.5" y="-18.5" font-family="Helvetica,sans-Serif" font-size="10.00" fill="#000000">+ process()</text>
<text text-anchor="start" x="189.5" y="-7.5" font-family="Helvetica,sans-Serif" font-size="10.00" fill="#000000">+ DefineHistograms()</text>
</g>
<!-- Node2 -->
<g id="node2" class="node">
<title>Node2</title>
<g id="a_node2"><a xlink:href="../../db/d7a/classAnalysisCompositeCut.html" target="_top" xlink:title="{AnalysisCompositeCut\n||+ AnalysisCompositeCut()\l+ AnalysisCompositeCut()\l+ ~AnalysisCompositeCut()\l+ AddCut()\l+ GetUseAND()\l+ GetNCuts()\l+ IsSelected()\l# AnalysisCompositeCut()\l# operator=()\l# ClassDef()\l}">
<polygon fill="none" stroke="#000000" points="166,-166 166,-322 320,-322 320,-166 166,-166"/>
<text text-anchor="middle" x="243" y="-310" font-family="Helvetica,sans-Serif" font-size="10.00" fill="#000000">AnalysisCompositeCut</text>
<polyline fill="none" stroke="#000000" points="166,-303 320,-303 "/>
<text text-anchor="middle" x="243" y="-291" font-family="Helvetica,sans-Serif" font-size="10.00" fill="#000000"> </text>
<polyline fill="none" stroke="#000000" points="166,-284 320,-284 "/>
<text text-anchor="start" x="174" y="-272" font-family="Helvetica,sans-Serif" font-size="10.00" fill="#000000">+ AnalysisCompositeCut()</text>
<text text-anchor="start" x="174" y="-261" font-family="Helvetica,sans-Serif" font-size="10.00" fill="#000000">+ AnalysisCompositeCut()</text>
<text text-anchor="start" x="174" y="-250" font-family="Helvetica,sans-Serif" font-size="10.00" fill="#000000">+ ~AnalysisCompositeCut()</text>
<text text-anchor="start" x="174" y="-239" font-family="Helvetica,sans-Serif" font-size="10.00" fill="#000000">+ AddCut()</text>
<text text-anchor="start" x="174" y="-228" font-family="Helvetica,sans-Serif" font-size="10.00" fill="#000000">+ GetUseAND()</text>
<text text-anchor="start" x="174" y="-217" font-family="Helvetica,sans-Serif" font-size="10.00" fill="#000000">+ GetNCuts()</text>
<text text-anchor="start" x="174" y="-206" font-family="Helvetica,sans-Serif" font-size="10.00" fill="#000000">+ IsSelected()</text>
<text text-anchor="start" x="174" y="-195" font-family="Helvetica,sans-Serif" font-size="10.00" fill="#000000"># AnalysisCompositeCut()</text>
<text text-anchor="start" x="174" y="-184" font-family="Helvetica,sans-Serif" font-size="10.00" fill="#000000"># operator=()</text>
<text text-anchor="start" x="174" y="-173" font-family="Helvetica,sans-Serif" font-size="10.00" fill="#000000"># ClassDef()</text>
</a>
</g>
</g>
<!-- Node2&#45;&gt;Node1 -->
<g id="edge1" class="edge">
<title>Node2&#45;&gt;Node1</title>
<path fill="none" stroke="#404040" d="M243,-165.8325C243,-144.8186 243,-122.4827 243,-102.8325"/>
<polygon fill="none" stroke="#404040" points="243.0001,-102.6654 239,-96.6654 243,-90.6654 247,-96.6654 243.0001,-102.6654"/>
<text text-anchor="middle" x="273" y="-134" font-family="Helvetica,sans-Serif" font-size="10.00" fill="#000000"> +fEventCut</text>
<text text-anchor="middle" x="273" y="-123" font-family="Helvetica,sans-Serif" font-size="10.00" fill="#000000">+fMuonCut</text>
<text text-anchor="middle" x="273" y="-112" font-family="Helvetica,sans-Serif" font-size="10.00" fill="#000000">+fTrackCut</text>
</g>
<!-- Node3 -->
<g id="node3" class="node">
<title>Node3</title>
<g id="a_node3"><a xlink:href="../../de/df4/classAnalysisCut.html" target="_top" xlink:title="{AnalysisCut\n||+ AnalysisCut()\l+ AnalysisCut()\l+ AnalysisCut()\l+ operator=()\l+ ~AnalysisCut()\l+ AddCut()\l+ IsSelected()\l# ClassDef()\l}">
<polygon fill="none" stroke="#000000" points="59.5,-419.5 59.5,-553.5 160.5,-553.5 160.5,-419.5 59.5,-419.5"/>
<text text-anchor="middle" x="110" y="-541.5" font-family="Helvetica,sans-Serif" font-size="10.00" fill="#000000">AnalysisCut</text>
<polyline fill="none" stroke="#000000" points="59.5,-534.5 160.5,-534.5 "/>
<text text-anchor="middle" x="110" y="-522.5" font-family="Helvetica,sans-Serif" font-size="10.00" fill="#000000"> </text>
<polyline fill="none" stroke="#000000" points="59.5,-515.5 160.5,-515.5 "/>
<text text-anchor="start" x="67.5" y="-503.5" font-family="Helvetica,sans-Serif" font-size="10.00" fill="#000000">+ AnalysisCut()</text>
<text text-anchor="start" x="67.5" y="-492.5" font-family="Helvetica,sans-Serif" font-size="10.00" fill="#000000">+ AnalysisCut()</text>
<text text-anchor="start" x="67.5" y="-481.5" font-family="Helvetica,sans-Serif" font-size="10.00" fill="#000000">+ AnalysisCut()</text>
<text text-anchor="start" x="67.5" y="-470.5" font-family="Helvetica,sans-Serif" font-size="10.00" fill="#000000">+ operator=()</text>
<text text-anchor="start" x="67.5" y="-459.5" font-family="Helvetica,sans-Serif" font-size="10.00" fill="#000000">+ ~AnalysisCut()</text>
<text text-anchor="start" x="67.5" y="-448.5" font-family="Helvetica,sans-Serif" font-size="10.00" fill="#000000">+ AddCut()</text>
<text text-anchor="start" x="67.5" y="-437.5" font-family="Helvetica,sans-Serif" font-size="10.00" fill="#000000">+ IsSelected()</text>
<text text-anchor="start" x="67.5" y="-426.5" font-family="Helvetica,sans-Serif" font-size="10.00" fill="#000000"># ClassDef()</text>
</a>
</g>
</g>
<!-- Node3&#45;&gt;Node2 -->
<g id="edge2" class="edge">
<title>Node3&#45;&gt;Node2</title>
<path fill="none" stroke="#191970" d="M151.7963,-410.2925C167.2043,-382.1989 184.6749,-350.3447 200.1726,-322.0875"/>
<polygon fill="none" stroke="#191970" points="148.6114,-408.8213 146.8713,-419.2723 154.7489,-412.1875 148.6114,-408.8213"/>
</g>
<!-- Node4 -->
<g id="node4" class="node">
<title>Node4</title>
<polygon fill="none" stroke="#bfbfbf" points="208,-640 208,-697 266,-697 266,-640 208,-640"/>
<text text-anchor="middle" x="237" y="-685" font-family="Helvetica,sans-Serif" font-size="10.00" fill="#000000">TNamed</text>
<polyline fill="none" stroke="#bfbfbf" points="208,-678 266,-678 "/>
<text text-anchor="middle" x="237" y="-666" font-family="Helvetica,sans-Serif" font-size="10.00" fill="#000000"> </text>
<polyline fill="none" stroke="#bfbfbf" points="208,-659 266,-659 "/>
<text text-anchor="middle" x="237" y="-647" font-family="Helvetica,sans-Serif" font-size="10.00" fill="#000000"> </text>
</g>
<!-- Node4&#45;&gt;Node3 -->
<g id="edge3" class="edge">
<title>Node4&#45;&gt;Node3</title>
<path fill="none" stroke="#191970" d="M212.1804,-631.3139C207.8156,-624.8558 203.2955,-618.2189 199,-612 185.869,-592.9891 171.4506,-572.4971 158.1139,-553.6953"/>
<polygon fill="none" stroke="#191970" points="209.5105,-633.6151 218.0002,-639.9535 215.3161,-629.7043 209.5105,-633.6151"/>
</g>
<!-- Node5 -->
<g id="node5" class="node">
<title>Node5</title>
<polygon fill="none" stroke="#bfbfbf" points="74,-634.5 74,-702.5 190,-702.5 190,-634.5 74,-634.5"/>
<text text-anchor="start" x="82" y="-690.5" font-family="Helvetica,sans-Serif" font-size="10.00" fill="#000000">vector&lt; AnalysisCut</text>
<text text-anchor="middle" x="132" y="-679.5" font-family="Helvetica,sans-Serif" font-size="10.00" fill="#000000">::CutContainer &gt;</text>
<polyline fill="none" stroke="#bfbfbf" points="74,-672.5 190,-672.5 "/>
<text text-anchor="middle" x="132" y="-660.5" font-family="Helvetica,sans-Serif" font-size="10.00" fill="#000000"> </text>
<polyline fill="none" stroke="#bfbfbf" points="74,-653.5 190,-653.5 "/>
<text text-anchor="middle" x="132" y="-641.5" font-family="Helvetica,sans-Serif" font-size="10.00" fill="#000000"> </text>
</g>
<!-- Node5&#45;&gt;Node3 -->
<g id="edge4" class="edge">
<title>Node5&#45;&gt;Node3</title>
<path fill="none" stroke="#404040" d="M127.862,-634.2672C125.5194,-614.8878 122.4855,-589.7895 119.5851,-565.7951"/>
<polygon fill="none" stroke="#404040" points="119.5706,-565.6743 114.8794,-560.1978 118.1305,-553.7611 122.8216,-559.2377 119.5706,-565.6743"/>
<text text-anchor="middle" x="141.5" y="-586" font-family="Helvetica,sans-Serif" font-size="10.00" fill="#000000"> #fCuts</text>
</g>
<!-- Node6 -->
<g id="node6" class="node">
<title>Node6</title>
<polygon fill="none" stroke="#bfbfbf" points="0,-640 0,-697 44,-697 44,-640 0,-640"/>
<text text-anchor="middle" x="22" y="-685" font-family="Helvetica,sans-Serif" font-size="10.00" fill="#000000">static</text>
<polyline fill="none" stroke="#bfbfbf" points="0,-678 44,-678 "/>
<text text-anchor="middle" x="22" y="-666" font-family="Helvetica,sans-Serif" font-size="10.00" fill="#000000"> </text>
<polyline fill="none" stroke="#bfbfbf" points="0,-659 44,-659 "/>
<text text-anchor="middle" x="22" y="-647" font-family="Helvetica,sans-Serif" font-size="10.00" fill="#000000"> </text>
</g>
<!-- Node6&#45;&gt;Node1 -->
<g id="edge25" class="edge">
<title>Node6&#45;&gt;Node1</title>
<path fill="none" stroke="#404040" d="M21.1651,-639.7023C20.3179,-582.3803 22.463,-450.5211 55,-346 84.3942,-251.5746 150.9686,-157.2829 196.4604,-100.1668"/>
<polygon fill="none" stroke="#404040" points="196.6086,-99.9827 197.2546,-92.8006 204.1327,-90.6346 203.4867,-97.8167 196.6086,-99.9827"/>
<text text-anchor="middle" x="108" y="-382" font-family="Helvetica,sans-Serif" font-size="10.00" fill="#000000"> +fgMuonFillMap</text>
<text text-anchor="middle" x="108" y="-371" font-family="Helvetica,sans-Serif" font-size="10.00" fill="#000000">+fgTrackFillMap</text>
<text text-anchor="middle" x="108" y="-360" font-family="Helvetica,sans-Serif" font-size="10.00" fill="#000000">+fgEventFillMap</text>
<text text-anchor="middle" x="108" y="-349" font-family="Helvetica,sans-Serif" font-size="10.00" fill="#000000">+fgEventMuonFillMap</text>
</g>
<!-- Node6&#45;&gt;Node3 -->
<g id="edge5" class="edge">
<title>Node6&#45;&gt;Node3</title>
<path fill="none" stroke="#404040" d="M30.4517,-639.8111C35.8187,-622.9328 43.3689,-601.366 52,-583 54.9293,-576.7668 58.1509,-570.4215 61.5289,-564.1128"/>
<polygon fill="none" stroke="#404040" points="61.5523,-564.0702 60.9405,-556.8851 67.3376,-553.5568 67.9494,-560.7419 61.5523,-564.0702"/>
<text text-anchor="middle" x="85.5" y="-586" font-family="Helvetica,sans-Serif" font-size="10.00" fill="#000000"> +fgUsedVars</text>
</g>
<!-- Node7 -->
<g id="node7" class="node">
<title>Node7</title>
<polygon fill="none" stroke="#bfbfbf" points="179,-458 179,-515 307,-515 307,-458 179,-458"/>
<text text-anchor="middle" x="243" y="-503" font-family="Helvetica,sans-Serif" font-size="10.00" fill="#000000">vector&lt; AnalysisCut &gt;</text>
<polyline fill="none" stroke="#bfbfbf" points="179,-496 307,-496 "/>
<text text-anchor="middle" x="243" y="-484" font-family="Helvetica,sans-Serif" font-size="10.00" fill="#000000"> </text>
<polyline fill="none" stroke="#bfbfbf" points="179,-477 307,-477 "/>
<text text-anchor="middle" x="243" y="-465" font-family="Helvetica,sans-Serif" font-size="10.00" fill="#000000"> </text>
</g>
<!-- Node7&#45;&gt;Node2 -->
<g id="edge6" class="edge">
<title>Node7&#45;&gt;Node2</title>
<path fill="none" stroke="#404040" d="M243,-457.7298C243,-427.3399 243,-377.8674 243,-334.17"/>
<polygon fill="none" stroke="#404040" points="243.0001,-334.0189 239,-328.019 243,-322.0189 247,-328.0189 243.0001,-334.0189"/>
<text text-anchor="middle" x="267.5" y="-365.5" font-family="Helvetica,sans-Serif" font-size="10.00" fill="#000000"> #fCutList</text>
</g>
<!-- Node8 -->
<g id="node8" class="node">
<title>Node8</title>
<polygon fill="none" stroke="#bfbfbf" points="402,-640 402,-697 440,-697 440,-640 402,-640"/>
<text text-anchor="middle" x="421" y="-685" font-family="Helvetica,sans-Serif" font-size="10.00" fill="#000000">bool</text>
<polyline fill="none" stroke="#bfbfbf" points="402,-678 440,-678 "/>
<text text-anchor="middle" x="421" y="-666" font-family="Helvetica,sans-Serif" font-size="10.00" fill="#000000"> </text>
<polyline fill="none" stroke="#bfbfbf" points="402,-659 440,-659 "/>
<text text-anchor="middle" x="421" y="-647" font-family="Helvetica,sans-Serif" font-size="10.00" fill="#000000"> </text>
</g>
<!-- Node8&#45;&gt;Node2 -->
<g id="edge7" class="edge">
<title>Node8&#45;&gt;Node2</title>
<path fill="none" stroke="#404040" d="M401.8459,-642.461C387.7294,-622.218 368.9765,-592.9657 357,-565 317.2237,-472.1203 334.9389,-439.2339 296,-346 294.2635,-341.8423 292.4211,-337.6246 290.505,-333.3898"/>
<polygon fill="none" stroke="#404040" points="290.3463,-333.0488 284.188,-329.2971 285.2825,-322.1695 291.4408,-325.9212 290.3463,-333.0488"/>
<text text-anchor="middle" x="401" y="-484" font-family="Helvetica,sans-Serif" font-size="10.00" fill="#000000"> #fOptionUseAND</text>
</g>
<!-- Node9 -->
<g id="node9" class="node">
<title>Node9</title>
<g id="a_node9"><a xlink:href="../../d4/d79/structo2_1_1framework_1_1OutputObj.html" target="_top" xlink:title="{o2::framework::OutputObj\l\&lt; HistogramManager \&gt;\n||+ spec()\l+ OutputObj()\l+ OutputObj()\l+ setObject()\l+ setObject()\l+ setObject()\l+ setHash()\l+ operator&#45;\&gt;()\l+ operator*()\l+ ref()\l}">
<polygon fill="none" stroke="#000000" points="709.5,-160.5 709.5,-327.5 852.5,-327.5 852.5,-160.5 709.5,-160.5"/>
<text text-anchor="start" x="717.5" y="-315.5" font-family="Helvetica,sans-Serif" font-size="10.00" fill="#000000">o2::framework::OutputObj</text>
<text text-anchor="middle" x="781" y="-304.5" font-family="Helvetica,sans-Serif" font-size="10.00" fill="#000000">&lt; HistogramManager &gt;</text>
<polyline fill="none" stroke="#000000" points="709.5,-297.5 852.5,-297.5 "/>
<text text-anchor="middle" x="781" y="-285.5" font-family="Helvetica,sans-Serif" font-size="10.00" fill="#000000"> </text>
<polyline fill="none" stroke="#000000" points="709.5,-278.5 852.5,-278.5 "/>
<text text-anchor="start" x="717.5" y="-266.5" font-family="Helvetica,sans-Serif" font-size="10.00" fill="#000000">+ spec()</text>
<text text-anchor="start" x="717.5" y="-255.5" font-family="Helvetica,sans-Serif" font-size="10.00" fill="#000000">+ OutputObj()</text>
<text text-anchor="start" x="717.5" y="-244.5" font-family="Helvetica,sans-Serif" font-size="10.00" fill="#000000">+ OutputObj()</text>
<text text-anchor="start" x="717.5" y="-233.5" font-family="Helvetica,sans-Serif" font-size="10.00" fill="#000000">+ setObject()</text>
<text text-anchor="start" x="717.5" y="-222.5" font-family="Helvetica,sans-Serif" font-size="10.00" fill="#000000">+ setObject()</text>
<text text-anchor="start" x="717.5" y="-211.5" font-family="Helvetica,sans-Serif" font-size="10.00" fill="#000000">+ setObject()</text>
<text text-anchor="start" x="717.5" y="-200.5" font-family="Helvetica,sans-Serif" font-size="10.00" fill="#000000">+ setHash()</text>
<text text-anchor="start" x="717.5" y="-189.5" font-family="Helvetica,sans-Serif" font-size="10.00" fill="#000000">+ operator&#45;&gt;()</text>
<text text-anchor="start" x="717.5" y="-178.5" font-family="Helvetica,sans-Serif" font-size="10.00" fill="#000000">+ operator*()</text>
<text text-anchor="start" x="717.5" y="-167.5" font-family="Helvetica,sans-Serif" font-size="10.00" fill="#000000">+ ref()</text>
</a>
</g>
</g>
<!-- Node8&#45;&gt;Node9 -->
<g id="edge13" class="edge">
<title>Node8&#45;&gt;Node9</title>
<path fill="none" stroke="#404040" d="M427.3828,-639.7861C441.031,-580.1962 474.0834,-445.524 502,-408 550.9369,-342.2217 634.7311,-298.1475 697.7466,-272.4059"/>
<polygon fill="none" stroke="#404040" points="698.113,-272.2597 702.2028,-266.3206 709.2581,-267.8116 705.1683,-273.7507 698.113,-272.2597"/>
<text text-anchor="middle" x="533" y="-484" font-family="Helvetica,sans-Serif" font-size="10.00" fill="#000000"> +isdangling</text>
</g>
<!-- Node17 -->
<g id="node17" class="node">
<title>Node17</title>
<g id="a_node17"><a xlink:href="../../d4/d79/structo2_1_1framework_1_1OutputObj.html" target="_top" xlink:title="{o2::framework::OutputObj\&lt; T \&gt;\n||+ OutputObj()\l+ OutputObj()\l+ setObject()\l+ setObject()\l+ setObject()\l+ setHash()\l+ spec()\l+ operator&#45;\&gt;()\l+ operator*()\l+ ref()\l}">
<polygon fill="none" stroke="#000000" points="629,-408.5 629,-564.5 801,-564.5 801,-408.5 629,-408.5"/>
<text text-anchor="middle" x="715" y="-552.5" font-family="Helvetica,sans-Serif" font-size="10.00" fill="#000000">o2::framework::OutputObj&lt; T &gt;</text>
<polyline fill="none" stroke="#000000" points="629,-545.5 801,-545.5 "/>
<text text-anchor="middle" x="715" y="-533.5" font-family="Helvetica,sans-Serif" font-size="10.00" fill="#000000"> </text>
<polyline fill="none" stroke="#000000" points="629,-526.5 801,-526.5 "/>
<text text-anchor="start" x="637" y="-514.5" font-family="Helvetica,sans-Serif" font-size="10.00" fill="#000000">+ OutputObj()</text>
<text text-anchor="start" x="637" y="-503.5" font-family="Helvetica,sans-Serif" font-size="10.00" fill="#000000">+ OutputObj()</text>
<text text-anchor="start" x="637" y="-492.5" font-family="Helvetica,sans-Serif" font-size="10.00" fill="#000000">+ setObject()</text>
<text text-anchor="start" x="637" y="-481.5" font-family="Helvetica,sans-Serif" font-size="10.00" fill="#000000">+ setObject()</text>
<text text-anchor="start" x="637" y="-470.5" font-family="Helvetica,sans-Serif" font-size="10.00" fill="#000000">+ setObject()</text>
<text text-anchor="start" x="637" y="-459.5" font-family="Helvetica,sans-Serif" font-size="10.00" fill="#000000">+ setHash()</text>
<text text-anchor="start" x="637" y="-448.5" font-family="Helvetica,sans-Serif" font-size="10.00" fill="#000000">+ spec()</text>
<text text-anchor="start" x="637" y="-437.5" font-family="Helvetica,sans-Serif" font-size="10.00" fill="#000000">+ operator&#45;&gt;()</text>
<text text-anchor="start" x="637" y="-426.5" font-family="Helvetica,sans-Serif" font-size="10.00" fill="#000000">+ operator*()</text>
<text text-anchor="start" x="637" y="-415.5" font-family="Helvetica,sans-Serif" font-size="10.00" fill="#000000">+ ref()</text>
</a>
</g>
</g>
<!-- Node8&#45;&gt;Node17 -->
<g id="edge23" class="edge">
<title>Node8&#45;&gt;Node17</title>
<path fill="none" stroke="#404040" d="M429.883,-639.9513C434.2425,-629.9277 440.4458,-619.3466 449,-612 481.2024,-584.3435 499.1124,-594.4052 540,-583 573.0194,-573.7896 584.1408,-579.9271 615,-565 616.0214,-564.5059 617.0421,-564.0001 618.0617,-563.4831"/>
<polygon fill="none" stroke="#404040" points="618.3958,-563.3006 621.744,-556.9139 628.9272,-557.5481 625.579,-563.9348 618.3958,-563.3006"/>
<text text-anchor="middle" x="571" y="-586" font-family="Helvetica,sans-Serif" font-size="10.00" fill="#000000"> +isdangling</text>
</g>
<!-- Node9&#45;&gt;Node1 -->
<g id="edge8" class="edge">
<title>Node9&#45;&gt;Node1</title>
<path fill="none" stroke="#404040" d="M709.2797,-217.5381C606.8067,-179.7298 419.4978,-110.6205 316.2099,-72.5115"/>
<polygon fill="none" stroke="#404040" points="315.9101,-72.4009 308.8964,-74.0767 304.6519,-68.247 311.6656,-66.5712 315.9101,-72.4009"/>
<text text-anchor="middle" x="523.5" y="-123" font-family="Helvetica,sans-Serif" font-size="10.00" fill="#000000"> +fHistMan</text>
</g>
<!-- Node10 -->
<g id="node10" class="node">
<title>Node10</title>
<polygon fill="none" stroke="#bfbfbf" points="1011,-458 1011,-515 1195,-515 1195,-458 1011,-458"/>
<text text-anchor="middle" x="1103" y="-503" font-family="Helvetica,sans-Serif" font-size="10.00" fill="#000000">shared_ptr&lt; HistogramManager &gt;</text>
<polyline fill="none" stroke="#bfbfbf" points="1011,-496 1195,-496 "/>
<text text-anchor="middle" x="1103" y="-484" font-family="Helvetica,sans-Serif" font-size="10.00" fill="#000000"> </text>
<polyline fill="none" stroke="#bfbfbf" points="1011,-477 1195,-477 "/>
<text text-anchor="middle" x="1103" y="-465" font-family="Helvetica,sans-Serif" font-size="10.00" fill="#000000"> </text>
</g>
<!-- Node10&#45;&gt;Node9 -->
<g id="edge9" class="edge">
<title>Node10&#45;&gt;Node9</title>
<path fill="none" stroke="#404040" d="M1079.6224,-457.9458C1053.9051,-427.7017 1010.3123,-379.7525 966,-346 934.5441,-322.0402 896.7713,-300.1705 863.5812,-282.8801"/>
<polygon fill="none" stroke="#404040" points="863.1905,-282.6794 856.0257,-283.4953 852.5168,-277.1955 859.6817,-276.3795 863.1905,-282.6794"/>
<text text-anchor="middle" x="1035" y="-365.5" font-family="Helvetica,sans-Serif" font-size="10.00" fill="#000000"> +object</text>
</g>
<!-- Node11 -->
<g id="node11" class="node">
<title>Node11</title>
<polygon fill="none" stroke="#bfbfbf" points="882.5,-640 882.5,-697 1021.5,-697 1021.5,-640 882.5,-640"/>
<text text-anchor="middle" x="952" y="-685" font-family="Helvetica,sans-Serif" font-size="10.00" fill="#000000">OutputObjHandlingPolicy</text>
<polyline fill="none" stroke="#bfbfbf" points="882.5,-678 1021.5,-678 "/>
<text text-anchor="middle" x="952" y="-666" font-family="Helvetica,sans-Serif" font-size="10.00" fill="#000000"> </text>
<polyline fill="none" stroke="#bfbfbf" points="882.5,-659 1021.5,-659 "/>
<text text-anchor="middle" x="952" y="-647" font-family="Helvetica,sans-Serif" font-size="10.00" fill="#000000"> </text>
</g>
<!-- Node11&#45;&gt;Node9 -->
<g id="edge10" class="edge">
<title>Node11&#45;&gt;Node9</title>
<path fill="none" stroke="#404040" d="M955.3818,-639.6823C959.9704,-590.0465 964.0812,-486.2251 930,-408 914.4024,-372.1995 887.7458,-339.0038 861.2534,-311.9764"/>
<polygon fill="none" stroke="#404040" points="861.1709,-311.8942 854.0976,-310.4913 852.672,-303.4225 859.7453,-304.8254 861.1709,-311.8942"/>
<text text-anchor="middle" x="978.5" y="-484" font-family="Helvetica,sans-Serif" font-size="10.00" fill="#000000"> +policy</text>
</g>
<!-- Node11&#45;&gt;Node17 -->
<g id="edge20" class="edge">
<title>Node11&#45;&gt;Node17</title>
<path fill="none" stroke="#404040" d="M914.708,-639.8623C886.8265,-618.4512 847.3882,-588.1652 810.9145,-560.1559"/>
<polygon fill="none" stroke="#404040" points="810.7353,-560.0183 803.5403,-559.5363 801.2178,-552.7094 808.4128,-553.1914 810.7353,-560.0183"/>
<text text-anchor="middle" x="874.5" y="-586" font-family="Helvetica,sans-Serif" font-size="10.00" fill="#000000"> +policy</text>
</g>
<!-- Node12 -->
<g id="node12" class="node">
<title>Node12</title>
<g id="a_node12"><a xlink:href="../../d3/d87/classuint32__t.html" target="_top" xlink:title="{uint32_t\n||}">
<polygon fill="none" stroke="#000000" points="807,-640 807,-697 863,-697 863,-640 807,-640"/>
<text text-anchor="middle" x="835" y="-685" font-family="Helvetica,sans-Serif" font-size="10.00" fill="#000000">uint32_t</text>
<polyline fill="none" stroke="#000000" points="807,-678 863,-678 "/>
<text text-anchor="middle" x="835" y="-666" font-family="Helvetica,sans-Serif" font-size="10.00" fill="#000000"> </text>
<polyline fill="none" stroke="#000000" points="807,-659 863,-659 "/>
<text text-anchor="middle" x="835" y="-647" font-family="Helvetica,sans-Serif" font-size="10.00" fill="#000000"> </text>
</a>
</g>
</g>
<!-- Node12&#45;&gt;Node9 -->
<g id="edge11" class="edge">
<title>Node12&#45;&gt;Node9</title>
<path fill="none" stroke="#404040" d="M853.7771,-639.8472C859.9875,-630.7725 867.083,-620.8137 874,-612 880.6082,-603.5798 886.1961,-604.0049 890,-594 891.7374,-589.4302 892.3427,-587.291 890,-583 882.9109,-570.0151 869.8999,-577.5083 862,-565 809.602,-482.0356 863.2967,-439.6501 834,-346 833.285,-343.7145 832.5206,-341.4191 831.713,-339.1198"/>
<polygon fill="none" stroke="#404040" points="831.6052,-338.8361 825.7351,-334.6479 827.3434,-327.6184 833.2135,-331.8066 831.6052,-338.8361"/>
<text text-anchor="middle" x="896" y="-484" font-family="Helvetica,sans-Serif" font-size="10.00" fill="#000000"> +mTaskHash</text>
</g>
<!-- Node12&#45;&gt;Node17 -->
<g id="edge19" class="edge">
<title>Node12&#45;&gt;Node17</title>
<path fill="none" stroke="#404040" d="M816.8182,-639.7219C809.8445,-630.1334 801.3055,-619.895 792,-612 778.9621,-600.9384 769.4302,-606.7159 758,-594 752.9294,-588.359 748.4194,-582.0454 744.4148,-575.38"/>
<polygon fill="none" stroke="#404040" points="744.3056,-575.181 737.9116,-571.8468 738.5301,-564.6623 744.9241,-567.9965 744.3056,-575.181"/>
<text text-anchor="middle" x="792" y="-586" font-family="Helvetica,sans-Serif" font-size="10.00" fill="#000000"> +mTaskHash</text>
</g>
<!-- Node13 -->
<g id="node13" class="node">
<title>Node13</title>
<polygon fill="none" stroke="#bfbfbf" points="737.5,-789 737.5,-846 766.5,-846 766.5,-789 737.5,-789"/>
<text text-anchor="middle" x="752" y="-834" font-family="Helvetica,sans-Serif" font-size="10.00" fill="#000000">int</text>
<polyline fill="none" stroke="#bfbfbf" points="737.5,-827 766.5,-827 "/>
<text text-anchor="middle" x="752" y="-815" font-family="Helvetica,sans-Serif" font-size="10.00" fill="#000000"> </text>
<polyline fill="none" stroke="#bfbfbf" points="737.5,-808 766.5,-808 "/>
<text text-anchor="middle" x="752" y="-796" font-family="Helvetica,sans-Serif" font-size="10.00" fill="#000000"> </text>
</g>
<!-- Node13&#45;&gt;Node9 -->
<g id="edge12" class="edge">
<title>Node13&#45;&gt;Node9</title>
<path fill="none" stroke="#404040" d="M766.7143,-815.4407C835.2173,-804.9285 1122.9741,-750.3039 1204,-565 1231.9553,-501.0669 1242.3632,-466.2855 1204,-408 1165.509,-349.5204 976.4953,-293.1753 864.5732,-264.2004"/>
<polygon fill="none" stroke="#404040" points="864.2805,-264.1254 857.4747,-266.5089 852.6569,-261.1434 859.4627,-258.7598 864.2805,-264.1254"/>
<text text-anchor="middle" x="1212" y="-586" font-family="Helvetica,sans-Serif" font-size="10.00" fill="#000000"> +label</text>
</g>
<!-- Node14 -->
<g id="node14" class="node">
<title>Node14</title>
<g id="a_node14"><a xlink:href="../../da/d96/structo2_1_1framework_1_1InputSpec.html" target="_top" xlink:title="{o2::framework::InputSpec\n||+ InputSpec()\l+ InputSpec()\l+ InputSpec()\l+ InputSpec()\l+ InputSpec()\l+ operator==()\l}">
<polygon fill="none" stroke="#000000" points="458,-612.5 458,-724.5 600,-724.5 600,-612.5 458,-612.5"/>
<text text-anchor="middle" x="529" y="-712.5" font-family="Helvetica,sans-Serif" font-size="10.00" fill="#000000">o2::framework::InputSpec</text>
<polyline fill="none" stroke="#000000" points="458,-705.5 600,-705.5 "/>
<text text-anchor="middle" x="529" y="-693.5" font-family="Helvetica,sans-Serif" font-size="10.00" fill="#000000"> </text>
<polyline fill="none" stroke="#000000" points="458,-686.5 600,-686.5 "/>
<text text-anchor="start" x="466" y="-674.5" font-family="Helvetica,sans-Serif" font-size="10.00" fill="#000000">+ InputSpec()</text>
<text text-anchor="start" x="466" y="-663.5" font-family="Helvetica,sans-Serif" font-size="10.00" fill="#000000">+ InputSpec()</text>
<text text-anchor="start" x="466" y="-652.5" font-family="Helvetica,sans-Serif" font-size="10.00" fill="#000000">+ InputSpec()</text>
<text text-anchor="start" x="466" y="-641.5" font-family="Helvetica,sans-Serif" font-size="10.00" fill="#000000">+ InputSpec()</text>
<text text-anchor="start" x="466" y="-630.5" font-family="Helvetica,sans-Serif" font-size="10.00" fill="#000000">+ InputSpec()</text>
<text text-anchor="start" x="466" y="-619.5" font-family="Helvetica,sans-Serif" font-size="10.00" fill="#000000">+ operator==()</text>
</a>
</g>
</g>
<!-- Node13&#45;&gt;Node14 -->
<g id="edge17" class="edge">
<title>Node13&#45;&gt;Node14</title>
<path fill="none" stroke="#404040" d="M737.3861,-808.1966C711.5324,-791.6897 656.1068,-756.0863 610,-725 609.8978,-724.9311 609.7956,-724.8622 609.6933,-724.7932"/>
<polygon fill="none" stroke="#404040" points="609.9595,-724.9739 602.7486,-724.9143 600.0302,-718.2352 607.2411,-718.2948 609.9595,-724.9739"/>
<text text-anchor="middle" x="677" y="-746" font-family="Helvetica,sans-Serif" font-size="10.00" fill="#000000"> +binding</text>
</g>
<!-- Node13&#45;&gt;Node17 -->
<g id="edge21" class="edge">
<title>Node13&#45;&gt;Node17</title>
<path fill="none" stroke="#404040" d="M748.8134,-788.9926C743.602,-742.3718 733.0418,-647.901 725.1017,-576.8691"/>
<polygon fill="none" stroke="#404040" points="725.0847,-576.7162 720.4428,-571.1977 723.7515,-564.7904 728.3933,-570.3089 725.0847,-576.7162"/>
<text text-anchor="middle" x="759" y="-666" font-family="Helvetica,sans-Serif" font-size="10.00" fill="#000000"> +label</text>
</g>
<!-- Node14&#45;&gt;Node9 -->
<g id="edge14" class="edge">
<title>Node14&#45;&gt;Node9</title>
<path fill="none" stroke="#404040" d="M556.83,-612.2304C559.1763,-606.1707 561.2978,-600.0196 563,-594 585.6659,-513.8469 546.2644,-481.2076 586,-408 612.0254,-360.0517 658.2331,-320.2392 699.1367,-291.8521"/>
<polygon fill="none" stroke="#404040" points="699.2043,-291.8062 701.9212,-285.1264 709.132,-285.0652 706.4152,-291.7449 699.2043,-291.8062"/>
<text text-anchor="middle" x="603" y="-484" font-family="Helvetica,sans-Serif" font-size="10.00" fill="#000000"> +spec</text>
</g>
<!-- Node14&#45;&gt;Node17 -->
<g id="edge24" class="edge">
<title>Node14&#45;&gt;Node17</title>
<path fill="none" stroke="#404040" d="M586.3238,-612.4089C598.9326,-600.0714 612.5726,-586.7247 626.0968,-573.4913"/>
<polygon fill="none" stroke="#404040" points="626.3784,-573.2158 627.8694,-566.1605 634.9554,-564.8232 633.4644,-571.8785 626.3784,-573.2158"/>
<text text-anchor="middle" x="628" y="-586" font-family="Helvetica,sans-Serif" font-size="10.00" fill="#000000"> +spec</text>
</g>
<!-- Node15 -->
<g id="node15" class="node">
<title>Node15</title>
<polygon fill="none" stroke="#bfbfbf" points="363,-789 363,-846 451,-846 451,-789 363,-789"/>
<text text-anchor="middle" x="407" y="-834" font-family="Helvetica,sans-Serif" font-size="10.00" fill="#000000">enum Lifetime</text>
<polyline fill="none" stroke="#bfbfbf" points="363,-827 451,-827 "/>
<text text-anchor="middle" x="407" y="-815" font-family="Helvetica,sans-Serif" font-size="10.00" fill="#000000"> </text>
<polyline fill="none" stroke="#bfbfbf" points="363,-808 451,-808 "/>
<text text-anchor="middle" x="407" y="-796" font-family="Helvetica,sans-Serif" font-size="10.00" fill="#000000"> </text>
</g>
<!-- Node15&#45;&gt;Node14 -->
<g id="edge15" class="edge">
<title>Node15&#45;&gt;Node14</title>
<path fill="none" stroke="#404040" d="M430.5228,-788.7713C443.3163,-773.1465 459.7007,-753.1361 475.4181,-733.9402"/>
<polygon fill="none" stroke="#404040" points="475.4595,-733.8897 476.1657,-726.7132 483.0617,-724.6049 482.3555,-731.7814 475.4595,-733.8897"/>
<text text-anchor="middle" x="493" y="-746" font-family="Helvetica,sans-Serif" font-size="10.00" fill="#000000"> +lifetime</text>
</g>
<!-- Node16 -->
<g id="node16" class="node">
<title>Node16</title>
<polygon fill="none" stroke="#bfbfbf" points="469,-772.5 469,-862.5 633,-862.5 633,-772.5 469,-772.5"/>
<text text-anchor="start" x="477" y="-850.5" font-family="Helvetica,sans-Serif" font-size="10.00" fill="#000000">variant&lt; o2::framework</text>
<text text-anchor="start" x="477" y="-839.5" font-family="Helvetica,sans-Serif" font-size="10.00" fill="#000000">::ConcreteDataMatcher,</text>
<text text-anchor="start" x="477" y="-828.5" font-family="Helvetica,sans-Serif" font-size="10.00" fill="#000000"> o2::framework::data_matcher</text>
<text text-anchor="middle" x="551" y="-817.5" font-family="Helvetica,sans-Serif" font-size="10.00" fill="#000000">::DataDescriptorMatcher &gt;</text>
<polyline fill="none" stroke="#bfbfbf" points="469,-810.5 633,-810.5 "/>
<text text-anchor="middle" x="551" y="-798.5" font-family="Helvetica,sans-Serif" font-size="10.00" fill="#000000"> </text>
<polyline fill="none" stroke="#bfbfbf" points="469,-791.5 633,-791.5 "/>
<text text-anchor="middle" x="551" y="-779.5" font-family="Helvetica,sans-Serif" font-size="10.00" fill="#000000"> </text>
</g>
<!-- Node16&#45;&gt;Node14 -->
<g id="edge16" class="edge">
<title>Node16&#45;&gt;Node14</title>
<path fill="none" stroke="#404040" d="M544.3396,-772.3907C542.6702,-761.0845 540.842,-748.7027 539.0479,-736.5514"/>
<polygon fill="none" stroke="#404040" points="539.0251,-736.3966 534.1915,-731.0453 537.2722,-724.5254 542.1057,-729.8767 539.0251,-736.3966"/>
<text text-anchor="middle" x="568" y="-746" font-family="Helvetica,sans-Serif" font-size="10.00" fill="#000000"> +matcher</text>
</g>
<!-- Node17&#45;&gt;Node9 -->
<g id="edge18" class="edge">
<title>Node17&#45;&gt;Node9</title>
<path fill="none" stroke="#ffa500" d="M707.3246,-398.1782C707.9332,-380.6268 710.1201,-362.5245 715,-346 716.822,-339.8303 719.1467,-333.6829 721.8284,-327.64"/>
<polygon fill="#ffa500" stroke="#ffa500" points="703.8207,-398.3711 707.1403,-408.4324 710.8195,-398.497 703.8207,-398.3711"/>
<text text-anchor="middle" x="774.5" y="-365.5" font-family="Helvetica,sans-Serif" font-size="10.00" fill="#000000"> &lt; HistogramManager &gt;</text>
</g>
<!-- Node18 -->
<g id="node18" class="node">
<title>Node18</title>
<polygon fill="none" stroke="#bfbfbf" points="618.5,-640 618.5,-697 715.5,-697 715.5,-640 618.5,-640"/>
<text text-anchor="middle" x="667" y="-685" font-family="Helvetica,sans-Serif" font-size="10.00" fill="#000000">shared_ptr&lt; T &gt;</text>
<polyline fill="none" stroke="#bfbfbf" points="618.5,-678 715.5,-678 "/>
<text text-anchor="middle" x="667" y="-666" font-family="Helvetica,sans-Serif" font-size="10.00" fill="#000000"> </text>
<polyline fill="none" stroke="#bfbfbf" points="618.5,-659 715.5,-659 "/>
<text text-anchor="middle" x="667" y="-647" font-family="Helvetica,sans-Serif" font-size="10.00" fill="#000000"> </text>
</g>
<!-- Node18&#45;&gt;Node17 -->
<g id="edge22" class="edge">
<title>Node18&#45;&gt;Node17</title>
<path fill="none" stroke="#404040" d="M664.2169,-639.6176C663.3726,-622.8652 663.6226,-601.4902 668,-583 668.5393,-580.722 669.1389,-578.4351 669.7915,-576.1458"/>
<polygon fill="none" stroke="#404040" points="669.7952,-576.134 667.8205,-569.1985 673.4631,-564.7083 675.4377,-571.6438 669.7952,-576.134"/>
<text text-anchor="middle" x="689" y="-586" font-family="Helvetica,sans-Serif" font-size="10.00" fill="#000000"> +object</text>
</g>
</g>
</svg>
