<?xml version="1.0" encoding="UTF-8" standalone="no"?>
<!DOCTYPE svg PUBLIC "-//W3C//DTD SVG 1.1//EN"
 "http://www.w3.org/Graphics/SVG/1.1/DTD/svg11.dtd">
<!-- Generated by graphviz version 2.40.1 (20161225.0304)
 -->
<!-- Title: Run2Matcher Pages: 1 -->
<svg width="618pt" height="684pt"
 viewBox="0.00 0.00 618.00 684.00" xmlns="http://www.w3.org/2000/svg" xmlns:xlink="http://www.w3.org/1999/xlink">
<g id="graph0" class="graph" transform="scale(1 1) rotate(0) translate(4 680)">
<title>Run2Matcher</title>
<!-- Node1 -->
<g id="node1" class="node">
<title>Node1</title>
<polygon fill="#bfbfbf" stroke="#000000" points="211.5,-.5 211.5,-57.5 291.5,-57.5 291.5,-.5 211.5,-.5"/>
<text text-anchor="middle" x="251.5" y="-45.5" font-family="Helvetica,sans-Serif" font-size="10.00" fill="#000000">Run2Matcher</text>
<polyline fill="none" stroke="#000000" points="211.5,-38.5 291.5,-38.5 "/>
<text text-anchor="middle" x="251.5" y="-26.5" font-family="Helvetica,sans-Serif" font-size="10.00" fill="#000000"> </text>
<polyline fill="none" stroke="#000000" points="211.5,-19.5 291.5,-19.5 "/>
<text text-anchor="start" x="219.5" y="-7.5" font-family="Helvetica,sans-Serif" font-size="10.00" fill="#000000">+ init()</text>
</g>
<!-- Node2 -->
<g id="node2" class="node">
<title>Node2</title>
<g id="a_node2"><a xlink:href="../../d5/df4/structo2_1_1framework_1_1Builds.html" target="_top" xlink:title="{o2::framework::Builds\l\&lt; aod::Run2MatchedExclusive \&gt;\n||+ pack()\l+ build()\l}">
<polygon fill="none" stroke="#000000" points="72,-105.5 72,-184.5 247,-184.5 247,-105.5 72,-105.5"/>
<text text-anchor="start" x="80" y="-172.5" font-family="Helvetica,sans-Serif" font-size="10.00" fill="#000000">o2::framework::Builds</text>
<text text-anchor="middle" x="159.5" y="-161.5" font-family="Helvetica,sans-Serif" font-size="10.00" fill="#000000">&lt; aod::Run2MatchedExclusive &gt;</text>
<polyline fill="none" stroke="#000000" points="72,-154.5 247,-154.5 "/>
<text text-anchor="middle" x="159.5" y="-142.5" font-family="Helvetica,sans-Serif" font-size="10.00" fill="#000000"> </text>
<polyline fill="none" stroke="#000000" points="72,-135.5 247,-135.5 "/>
<text text-anchor="start" x="80" y="-123.5" font-family="Helvetica,sans-Serif" font-size="10.00" fill="#000000">+ pack()</text>
<text text-anchor="start" x="80" y="-112.5" font-family="Helvetica,sans-Serif" font-size="10.00" fill="#000000">+ build()</text>
</a>
</g>
</g>
<!-- Node2&#45;&gt;Node1 -->
<g id="edge1" class="edge">
<title>Node2&#45;&gt;Node1</title>
<path fill="none" stroke="#404040" d="M190.9039,-105.4038C200.6795,-93.0781 211.4362,-79.5152 221.1391,-67.2811"/>
<polygon fill="none" stroke="#404040" points="221.1992,-67.2054 221.7935,-60.0188 228.6559,-57.8034 228.0615,-64.99 221.1992,-67.2054"/>
<text text-anchor="middle" x="247.5" y="-79" font-family="Helvetica,sans-Serif" font-size="10.00" fill="#000000"> +matched_e</text>
</g>
<!-- Node3 -->
<g id="node3" class="node">
<title>Node3</title>
<g id="a_node3"><a xlink:href="../../da/d17/structo2_1_1framework_1_1TransformTable.html" target="_top" xlink:title="{o2::framework::Transform\lTable\&lt; aod::Run2MatchedExclusive \&gt;\n||+ base_spec()\l+ base_specs_impl()\l+ base_specs()\l+ spec()\l+ ref()\l+ operator&#45;\&gt;()\l+ operator*()\l+ asArrowTable()\l}">
<polygon fill="none" stroke="#000000" points="27.5,-232.5 27.5,-377.5 227.5,-377.5 227.5,-232.5 27.5,-232.5"/>
<text text-anchor="start" x="35.5" y="-365.5" font-family="Helvetica,sans-Serif" font-size="10.00" fill="#000000">o2::framework::Transform</text>
<text text-anchor="middle" x="127.5" y="-354.5" font-family="Helvetica,sans-Serif" font-size="10.00" fill="#000000">Table&lt; aod::Run2MatchedExclusive &gt;</text>
<polyline fill="none" stroke="#000000" points="27.5,-347.5 227.5,-347.5 "/>
<text text-anchor="middle" x="127.5" y="-335.5" font-family="Helvetica,sans-Serif" font-size="10.00" fill="#000000"> </text>
<polyline fill="none" stroke="#000000" points="27.5,-328.5 227.5,-328.5 "/>
<text text-anchor="start" x="35.5" y="-316.5" font-family="Helvetica,sans-Serif" font-size="10.00" fill="#000000">+ base_spec()</text>
<text text-anchor="start" x="35.5" y="-305.5" font-family="Helvetica,sans-Serif" font-size="10.00" fill="#000000">+ base_specs_impl()</text>
<text text-anchor="start" x="35.5" y="-294.5" font-family="Helvetica,sans-Serif" font-size="10.00" fill="#000000">+ base_specs()</text>
<text text-anchor="start" x="35.5" y="-283.5" font-family="Helvetica,sans-Serif" font-size="10.00" fill="#000000">+ spec()</text>
<text text-anchor="start" x="35.5" y="-272.5" font-family="Helvetica,sans-Serif" font-size="10.00" fill="#000000">+ ref()</text>
<text text-anchor="start" x="35.5" y="-261.5" font-family="Helvetica,sans-Serif" font-size="10.00" fill="#000000">+ operator&#45;&gt;()</text>
<text text-anchor="start" x="35.5" y="-250.5" font-family="Helvetica,sans-Serif" font-size="10.00" fill="#000000">+ operator*()</text>
<text text-anchor="start" x="35.5" y="-239.5" font-family="Helvetica,sans-Serif" font-size="10.00" fill="#000000">+ asArrowTable()</text>
</a>
</g>
</g>
<!-- Node3&#45;&gt;Node2 -->
<g id="edge2" class="edge">
<title>Node3&#45;&gt;Node2</title>
<path fill="none" stroke="#191970" d="M137.7096,-222.0925C138.8641,-215.6094 140.126,-209.1834 141.5,-203 142.8265,-197.0305 144.4759,-190.7888 146.2337,-184.7046"/>
<polygon fill="none" stroke="#191970" points="134.1998,-221.8566 135.9831,-232.3003 141.1018,-223.024 134.1998,-221.8566"/>
</g>
<!-- Node4 -->
<g id="node4" class="node">
<title>Node4</title>
<polygon fill="none" stroke="#bfbfbf" points="0,-464 0,-532 169,-532 169,-464 0,-464"/>
<text text-anchor="start" x="8" y="-520" font-family="Helvetica,sans-Serif" font-size="10.00" fill="#000000">shared_ptr&lt; aod::Run2Matched</text>
<text text-anchor="middle" x="84.5" y="-509" font-family="Helvetica,sans-Serif" font-size="10.00" fill="#000000">Exclusive &gt;</text>
<polyline fill="none" stroke="#bfbfbf" points="0,-502 169,-502 "/>
<text text-anchor="middle" x="84.5" y="-490" font-family="Helvetica,sans-Serif" font-size="10.00" fill="#000000"> </text>
<polyline fill="none" stroke="#bfbfbf" points="0,-483 169,-483 "/>
<text text-anchor="middle" x="84.5" y="-471" font-family="Helvetica,sans-Serif" font-size="10.00" fill="#000000"> </text>
</g>
<!-- Node4&#45;&gt;Node3 -->
<g id="edge3" class="edge">
<title>Node4&#45;&gt;Node3</title>
<path fill="none" stroke="#404040" d="M81.2716,-463.5869C80.2788,-443.6159 80.5288,-418.1159 85.5,-396 86.0152,-393.7082 86.5928,-391.405 87.2249,-389.098"/>
<polygon fill="none" stroke="#404040" points="87.2465,-389.0281 85.2037,-382.1124 90.8018,-377.5668 92.8445,-384.4826 87.2465,-389.0281"/>
<text text-anchor="middle" x="104" y="-399" font-family="Helvetica,sans-Serif" font-size="10.00" fill="#000000"> +table</text>
</g>
<!-- Node5 -->
<g id="node5" class="node">
<title>Node5</title>
<g id="a_node5"><a xlink:href="../../da/d17/structo2_1_1framework_1_1TransformTable.html" target="_top" xlink:title="Base template for table transformation declarations. ">
<polygon fill="none" stroke="#000000" points="250,-425.5 250,-570.5 393,-570.5 393,-425.5 250,-425.5"/>
<text text-anchor="start" x="258" y="-558.5" font-family="Helvetica,sans-Serif" font-size="10.00" fill="#000000">o2::framework::Transform</text>
<text text-anchor="middle" x="321.5" y="-547.5" font-family="Helvetica,sans-Serif" font-size="10.00" fill="#000000">Table&lt; T &gt;</text>
<polyline fill="none" stroke="#000000" points="250,-540.5 393,-540.5 "/>
<text text-anchor="middle" x="321.5" y="-528.5" font-family="Helvetica,sans-Serif" font-size="10.00" fill="#000000"> </text>
<polyline fill="none" stroke="#000000" points="250,-521.5 393,-521.5 "/>
<text text-anchor="start" x="258" y="-509.5" font-family="Helvetica,sans-Serif" font-size="10.00" fill="#000000">+ base_spec()</text>
<text text-anchor="start" x="258" y="-498.5" font-family="Helvetica,sans-Serif" font-size="10.00" fill="#000000">+ base_specs_impl()</text>
<text text-anchor="start" x="258" y="-487.5" font-family="Helvetica,sans-Serif" font-size="10.00" fill="#000000">+ base_specs()</text>
<text text-anchor="start" x="258" y="-476.5" font-family="Helvetica,sans-Serif" font-size="10.00" fill="#000000">+ spec()</text>
<text text-anchor="start" x="258" y="-465.5" font-family="Helvetica,sans-Serif" font-size="10.00" fill="#000000">+ ref()</text>
<text text-anchor="start" x="258" y="-454.5" font-family="Helvetica,sans-Serif" font-size="10.00" fill="#000000">+ operator&#45;&gt;()</text>
<text text-anchor="start" x="258" y="-443.5" font-family="Helvetica,sans-Serif" font-size="10.00" fill="#000000">+ operator*()</text>
<text text-anchor="start" x="258" y="-432.5" font-family="Helvetica,sans-Serif" font-size="10.00" fill="#000000">+ asArrowTable()</text>
</a>
</g>
</g>
<!-- Node5&#45;&gt;Node3 -->
<g id="edge4" class="edge">
<title>Node5&#45;&gt;Node3</title>
<path fill="none" stroke="#ffa500" d="M240.5658,-457.2221C201.5811,-436.9372 161.8658,-415.0578 155.5,-407 148.6698,-398.3544 143.5032,-388.1584 139.5955,-377.6137"/>
<polygon fill="#ffa500" stroke="#ffa500" points="239.4209,-460.5707 249.9103,-462.0621 242.6404,-454.3549 239.4209,-460.5707"/>
<text text-anchor="middle" x="236.5" y="-399" font-family="Helvetica,sans-Serif" font-size="10.00" fill="#000000"> &lt; aod::Run2MatchedExclusive &gt;</text>
</g>
<!-- Node7 -->
<g id="node7" class="node">
<title>Node7</title>
<g id="a_node7"><a xlink:href="../../d5/df4/structo2_1_1framework_1_1Builds.html" target="_top" xlink:title="This helper struct allows you to declare index tables to be created in a task. ">
<polygon fill="none" stroke="#000000" points="259.5,-265.5 259.5,-344.5 383.5,-344.5 383.5,-265.5 259.5,-265.5"/>
<text text-anchor="start" x="267.5" y="-332.5" font-family="Helvetica,sans-Serif" font-size="10.00" fill="#000000">o2::framework::Builds</text>
<text text-anchor="middle" x="321.5" y="-321.5" font-family="Helvetica,sans-Serif" font-size="10.00" fill="#000000">&lt; T, IP &gt;</text>
<polyline fill="none" stroke="#000000" points="259.5,-314.5 383.5,-314.5 "/>
<text text-anchor="middle" x="321.5" y="-302.5" font-family="Helvetica,sans-Serif" font-size="10.00" fill="#000000"> </text>
<polyline fill="none" stroke="#000000" points="259.5,-295.5 383.5,-295.5 "/>
<text text-anchor="start" x="267.5" y="-283.5" font-family="Helvetica,sans-Serif" font-size="10.00" fill="#000000">+ pack()</text>
<text text-anchor="start" x="267.5" y="-272.5" font-family="Helvetica,sans-Serif" font-size="10.00" fill="#000000">+ build()</text>
</a>
</g>
</g>
<!-- Node5&#45;&gt;Node7 -->
<g id="edge7" class="edge">
<title>Node5&#45;&gt;Node7</title>
<path fill="none" stroke="#191970" d="M321.5,-415.2697C321.5,-390.771 321.5,-365.0636 321.5,-344.6389"/>
<polygon fill="none" stroke="#191970" points="318.0001,-415.31 321.5,-425.31 325.0001,-415.31 318.0001,-415.31"/>
</g>
<!-- Node9 -->
<g id="node9" class="node">
<title>Node9</title>
<g id="a_node9"><a xlink:href="../../da/d17/structo2_1_1framework_1_1TransformTable.html" target="_top" xlink:title="{o2::framework::Transform\lTable\&lt; aod::Run2MatchedSparse \&gt;\n||+ base_spec()\l+ base_specs_impl()\l+ base_specs()\l+ spec()\l+ ref()\l+ operator&#45;\&gt;()\l+ operator*()\l+ asArrowTable()\l}">
<polygon fill="none" stroke="#000000" points="415,-232.5 415,-377.5 602,-377.5 602,-232.5 415,-232.5"/>
<text text-anchor="start" x="423" y="-365.5" font-family="Helvetica,sans-Serif" font-size="10.00" fill="#000000">o2::framework::Transform</text>
<text text-anchor="middle" x="508.5" y="-354.5" font-family="Helvetica,sans-Serif" font-size="10.00" fill="#000000">Table&lt; aod::Run2MatchedSparse &gt;</text>
<polyline fill="none" stroke="#000000" points="415,-347.5 602,-347.5 "/>
<text text-anchor="middle" x="508.5" y="-335.5" font-family="Helvetica,sans-Serif" font-size="10.00" fill="#000000"> </text>
<polyline fill="none" stroke="#000000" points="415,-328.5 602,-328.5 "/>
<text text-anchor="start" x="423" y="-316.5" font-family="Helvetica,sans-Serif" font-size="10.00" fill="#000000">+ base_spec()</text>
<text text-anchor="start" x="423" y="-305.5" font-family="Helvetica,sans-Serif" font-size="10.00" fill="#000000">+ base_specs_impl()</text>
<text text-anchor="start" x="423" y="-294.5" font-family="Helvetica,sans-Serif" font-size="10.00" fill="#000000">+ base_specs()</text>
<text text-anchor="start" x="423" y="-283.5" font-family="Helvetica,sans-Serif" font-size="10.00" fill="#000000">+ spec()</text>
<text text-anchor="start" x="423" y="-272.5" font-family="Helvetica,sans-Serif" font-size="10.00" fill="#000000">+ ref()</text>
<text text-anchor="start" x="423" y="-261.5" font-family="Helvetica,sans-Serif" font-size="10.00" fill="#000000">+ operator&#45;&gt;()</text>
<text text-anchor="start" x="423" y="-250.5" font-family="Helvetica,sans-Serif" font-size="10.00" fill="#000000">+ operator*()</text>
<text text-anchor="start" x="423" y="-239.5" font-family="Helvetica,sans-Serif" font-size="10.00" fill="#000000">+ asArrowTable()</text>
</a>
</g>
</g>
<!-- Node5&#45;&gt;Node9 -->
<g id="edge11" class="edge">
<title>Node5&#45;&gt;Node9</title>
<path fill="none" stroke="#ffa500" d="M350.5157,-416.1591C354.6539,-408.9859 359.3016,-402.1332 364.5,-396 364.8033,-395.6422 387.5028,-381.2629 414.7914,-364.0371"/>
<polygon fill="#ffa500" stroke="#ffa500" points="347.206,-414.9229 345.5434,-425.3865 353.3683,-418.2436 347.206,-414.9229"/>
<text text-anchor="middle" x="438.5" y="-399" font-family="Helvetica,sans-Serif" font-size="10.00" fill="#000000"> &lt; aod::Run2MatchedSparse &gt;</text>
</g>
<!-- Node6 -->
<g id="node6" class="node">
<title>Node6</title>
<polygon fill="none" stroke="#bfbfbf" points="273,-618.5 273,-675.5 370,-675.5 370,-618.5 273,-618.5"/>
<text text-anchor="middle" x="321.5" y="-663.5" font-family="Helvetica,sans-Serif" font-size="10.00" fill="#000000">shared_ptr&lt; T &gt;</text>
<polyline fill="none" stroke="#bfbfbf" points="273,-656.5 370,-656.5 "/>
<text text-anchor="middle" x="321.5" y="-644.5" font-family="Helvetica,sans-Serif" font-size="10.00" fill="#000000"> </text>
<polyline fill="none" stroke="#bfbfbf" points="273,-637.5 370,-637.5 "/>
<text text-anchor="middle" x="321.5" y="-625.5" font-family="Helvetica,sans-Serif" font-size="10.00" fill="#000000"> </text>
</g>
<!-- Node6&#45;&gt;Node5 -->
<g id="edge5" class="edge">
<title>Node6&#45;&gt;Node5</title>
<path fill="none" stroke="#404040" d="M321.5,-618.2713C321.5,-607.8895 321.5,-595.5716 321.5,-582.843"/>
<polygon fill="none" stroke="#404040" points="321.5001,-582.5631 317.5,-576.5632 321.5,-570.5631 325.5,-576.5631 321.5001,-582.5631"/>
<text text-anchor="middle" x="340" y="-592" font-family="Helvetica,sans-Serif" font-size="10.00" fill="#000000"> +table</text>
</g>
<!-- Node7&#45;&gt;Node2 -->
<g id="edge6" class="edge">
<title>Node7&#45;&gt;Node2</title>
<path fill="none" stroke="#ffa500" d="M275.1418,-258.8016C263.2807,-248.8522 250.031,-239.1812 236.5,-232 209.6433,-217.7465 190.8058,-236.6301 170.5,-214 163.2898,-205.9645 159.7635,-195.1765 158.231,-184.5211"/>
<polygon fill="#ffa500" stroke="#ffa500" points="272.8705,-261.4646 282.7246,-265.3566 277.4483,-256.169 272.8705,-261.4646"/>
<text text-anchor="middle" x="251.5" y="-206" font-family="Helvetica,sans-Serif" font-size="10.00" fill="#000000"> &lt; aod::Run2MatchedExclusive &gt;</text>
</g>
<!-- Node8 -->
<g id="node8" class="node">
<title>Node8</title>
<g id="a_node8"><a xlink:href="../../d5/df4/structo2_1_1framework_1_1Builds.html" target="_top" xlink:title="{o2::framework::Builds\l\&lt; aod::Run2MatchedSparse \&gt;\n||+ pack()\l+ build()\l}">
<polygon fill="none" stroke="#000000" points="265,-105.5 265,-184.5 426,-184.5 426,-105.5 265,-105.5"/>
<text text-anchor="start" x="273" y="-172.5" font-family="Helvetica,sans-Serif" font-size="10.00" fill="#000000">o2::framework::Builds</text>
<text text-anchor="middle" x="345.5" y="-161.5" font-family="Helvetica,sans-Serif" font-size="10.00" fill="#000000">&lt; aod::Run2MatchedSparse &gt;</text>
<polyline fill="none" stroke="#000000" points="265,-154.5 426,-154.5 "/>
<text text-anchor="middle" x="345.5" y="-142.5" font-family="Helvetica,sans-Serif" font-size="10.00" fill="#000000"> </text>
<polyline fill="none" stroke="#000000" points="265,-135.5 426,-135.5 "/>
<text text-anchor="start" x="273" y="-123.5" font-family="Helvetica,sans-Serif" font-size="10.00" fill="#000000">+ pack()</text>
<text text-anchor="start" x="273" y="-112.5" font-family="Helvetica,sans-Serif" font-size="10.00" fill="#000000">+ build()</text>
</a>
</g>
</g>
<!-- Node7&#45;&gt;Node8 -->
<g id="edge12" class="edge">
<title>Node7&#45;&gt;Node8</title>
<path fill="none" stroke="#ffa500" d="M328.9539,-255.3071C332.3637,-232.5754 336.3481,-206.0127 339.5525,-184.6501"/>
<polygon fill="#ffa500" stroke="#ffa500" points="325.4548,-255.0408 327.4326,-265.4494 332.3774,-256.0793 325.4548,-255.0408"/>
<text text-anchor="middle" x="410.5" y="-206" font-family="Helvetica,sans-Serif" font-size="10.00" fill="#000000"> &lt; aod::Run2MatchedSparse &gt;</text>
</g>
<!-- Node8&#45;&gt;Node1 -->
<g id="edge8" class="edge">
<title>Node8&#45;&gt;Node1</title>
<path fill="none" stroke="#404040" d="M313.4134,-105.4038C303.4253,-93.0781 292.4348,-79.5152 282.5209,-67.2811"/>
<polygon fill="none" stroke="#404040" points="282.3957,-67.1266 275.5105,-64.9833 274.8407,-57.8034 281.7259,-59.9467 282.3957,-67.1266"/>
<text text-anchor="middle" x="331" y="-79" font-family="Helvetica,sans-Serif" font-size="10.00" fill="#000000"> +matched_s</text>
</g>
<!-- Node9&#45;&gt;Node8 -->
<g id="edge9" class="edge">
<title>Node9&#45;&gt;Node8</title>
<path fill="none" stroke="#191970" d="M500.0334,-222.5627C497.0885,-215.502 493.3146,-208.8388 488.5,-203 472.6491,-183.777 449.4427,-170.8662 426.3169,-162.2184"/>
<polygon fill="none" stroke="#191970" points="496.8887,-224.1627 503.5553,-232.3972 503.4788,-221.8026 496.8887,-224.1627"/>
</g>
<!-- Node10 -->
<g id="node10" class="node">
<title>Node10</title>
<polygon fill="none" stroke="#bfbfbf" points="441,-464 441,-532 610,-532 610,-464 441,-464"/>
<text text-anchor="start" x="449" y="-520" font-family="Helvetica,sans-Serif" font-size="10.00" fill="#000000">shared_ptr&lt; aod::Run2Matched</text>
<text text-anchor="middle" x="525.5" y="-509" font-family="Helvetica,sans-Serif" font-size="10.00" fill="#000000">Sparse &gt;</text>
<polyline fill="none" stroke="#bfbfbf" points="441,-502 610,-502 "/>
<text text-anchor="middle" x="525.5" y="-490" font-family="Helvetica,sans-Serif" font-size="10.00" fill="#000000"> </text>
<polyline fill="none" stroke="#bfbfbf" points="441,-483 610,-483 "/>
<text text-anchor="middle" x="525.5" y="-471" font-family="Helvetica,sans-Serif" font-size="10.00" fill="#000000"> </text>
</g>
<!-- Node10&#45;&gt;Node9 -->
<g id="edge10" class="edge">
<title>Node10&#45;&gt;Node9</title>
<path fill="none" stroke="#404040" d="M522.4999,-463.9397C520.6895,-443.3872 518.2959,-416.2125 516.0008,-390.1566"/>
<polygon fill="none" stroke="#404040" points="515.9735,-389.8457 511.4625,-384.2198 514.9205,-377.892 519.4316,-383.5178 515.9735,-389.8457"/>
<text text-anchor="middle" x="535" y="-399" font-family="Helvetica,sans-Serif" font-size="10.00" fill="#000000"> +table</text>
</g>
</g>
</svg>
