<?xml version="1.0" encoding="UTF-8" standalone="no"?>
<!DOCTYPE svg PUBLIC "-//W3C//DTD SVG 1.1//EN"
 "http://www.w3.org/Graphics/SVG/1.1/DTD/svg11.dtd">
<!-- Generated by graphviz version 2.40.1 (20161225.0304)
 -->
<!-- Title: HFCandidateCreator2ProngExpressions Pages: 1 -->
<!--zoomable 684 -->
<svg id="main" version="1.1" xmlns="http://www.w3.org/2000/svg" xmlns:xlink="http://www.w3.org/1999/xlink" xml:space="preserve" onload="init(evt)">
<style type="text/css"><![CDATA[
.edge:hover path { stroke: red; }
.edge:hover polygon { stroke: red; fill: red; }
]]></style>
<script type="text/javascript"><![CDATA[
var edges = document.getElementsByTagName('g');
if (edges && edges.length) {
  for (var i=0;i<edges.length;i++) {
    if (edges[i].id.substr(0,4)=='edge') {
      edges[i].setAttribute('class','edge');
    }
  }
}
]]></script>
        <defs>
                <circle id="rim" cx="0" cy="0" r="7"/>
                <circle id="rim2" cx="0" cy="0" r="3.5"/>
                <g id="zoomPlus">
                        <use xlink:href="#rim" fill="#404040">
                                <set attributeName="fill" to="#808080" begin="zoomplus.mouseover" end="zoomplus.mouseout"/>
                        </use>
                        <path d="M-4,0h8M0,-4v8" fill="none" stroke="white" stroke-width="1.5" pointer-events="none"/>
                </g>
                <g id="zoomMin">
                        <use xlink:href="#rim" fill="#404040">
                                <set attributeName="fill" to="#808080" begin="zoomminus.mouseover" end="zoomminus.mouseout"/>
                        </use>
                        <path d="M-4,0h8" fill="none" stroke="white" stroke-width="1.5" pointer-events="none"/>
                </g>
                <g id="dirArrow">
                        <path fill="none" stroke="white" stroke-width="1.5" d="M0,-3.0v7 M-2.5,-0.5L0,-3.0L2.5,-0.5"/>
                </g>
               <g id="resetDef">
                       <use xlink:href="#rim2" fill="#404040">
                               <set attributeName="fill" to="#808080" begin="reset.mouseover" end="reset.mouseout"/>
                       </use>
               </g>
        </defs>

<script type="text/javascript">
var viewWidth = 387;
var viewHeight = 684;
var sectionId = 'dynsection-0';
</script>
<script xlink:href="../../svgpan.js"/>
<svg id="graph" class="graph">
<g id="viewport">
<title>HFCandidateCreator2ProngExpressions</title>
<!-- Node1 -->
<g id="node1" class="node">
<title>Node1</title>
<polygon fill="#bfbfbf" stroke="#000000" points="130,-.5 130,-68.5 279,-68.5 279,-.5 130,-.5"/>
<text text-anchor="start" x="138" y="-56.5" font-family="Helvetica,sans-Serif" font-size="10.00" fill="#000000">HFCandidateCreator2Prong</text>
<text text-anchor="middle" x="204.5" y="-45.5" font-family="Helvetica,sans-Serif" font-size="10.00" fill="#000000">Expressions</text>
<polyline fill="none" stroke="#000000" points="130,-38.5 279,-38.5 "/>
<text text-anchor="middle" x="204.5" y="-26.5" font-family="Helvetica,sans-Serif" font-size="10.00" fill="#000000"> </text>
<polyline fill="none" stroke="#000000" points="130,-19.5 279,-19.5 "/>
<text text-anchor="start" x="138" y="-7.5" font-family="Helvetica,sans-Serif" font-size="10.00" fill="#000000">+ init()</text>
</g>
<!-- Node2 -->
<g id="node2" class="node">
<title>Node2</title>
<g id="a_node2"><a xlink:href="../../d7/d15/structo2_1_1framework_1_1Spawns.html" target="_top" xlink:title="{o2::framework::Spawns\l\&lt; aod::HfCandProng2Ext \&gt;\n||+ pack()\l}">
<polygon fill="none" stroke="#000000" points="130,-116.5 130,-184.5 279,-184.5 279,-116.5 130,-116.5"/>
<text text-anchor="start" x="138" y="-172.5" font-family="Helvetica,sans-Serif" font-size="10.00" fill="#000000">o2::framework::Spawns</text>
<text text-anchor="middle" x="204.5" y="-161.5" font-family="Helvetica,sans-Serif" font-size="10.00" fill="#000000">&lt; aod::HfCandProng2Ext &gt;</text>
<polyline fill="none" stroke="#000000" points="130,-154.5 279,-154.5 "/>
<text text-anchor="middle" x="204.5" y="-142.5" font-family="Helvetica,sans-Serif" font-size="10.00" fill="#000000"> </text>
<polyline fill="none" stroke="#000000" points="130,-135.5 279,-135.5 "/>
<text text-anchor="start" x="138" y="-123.5" font-family="Helvetica,sans-Serif" font-size="10.00" fill="#000000">+ pack()</text>
</a>
</g>
</g>
<!-- Node2&#45;&gt;Node1 -->
<g id="edge1" class="edge">
<title>Node2&#45;&gt;Node1</title>
<path fill="none" stroke="#404040" d="M204.5,-116.3236C204.5,-105.213 204.5,-92.6908 204.5,-80.8451"/>
<polygon fill="none" stroke="#404040" points="204.5001,-80.833 200.5,-74.833 204.5,-68.833 208.5,-74.833 204.5001,-80.833"/>
<text text-anchor="middle" x="261" y="-90" font-family="Helvetica,sans-Serif" font-size="10.00" fill="#000000"> +rowCandidateProng2</text>
</g>
<!-- Node3 -->
<g id="node3" class="node">
<title>Node3</title>
<g id="a_node3"><a xlink:href="../../da/d17/structo2_1_1framework_1_1TransformTable.html" target="_top" xlink:title="{o2::framework::Transform\lTable\&lt; aod::HfCandProng2Ext \&gt;\n||+ base_spec()\l+ base_specs_impl()\l+ base_specs()\l+ spec()\l+ ref()\l+ operator&#45;\&gt;()\l+ operator*()\l+ asArrowTable()\l}">
<polygon fill="none" stroke="#000000" points="25.5,-232.5 25.5,-377.5 199.5,-377.5 199.5,-232.5 25.5,-232.5"/>
<text text-anchor="start" x="33.5" y="-365.5" font-family="Helvetica,sans-Serif" font-size="10.00" fill="#000000">o2::framework::Transform</text>
<text text-anchor="middle" x="112.5" y="-354.5" font-family="Helvetica,sans-Serif" font-size="10.00" fill="#000000">Table&lt; aod::HfCandProng2Ext &gt;</text>
<polyline fill="none" stroke="#000000" points="25.5,-347.5 199.5,-347.5 "/>
<text text-anchor="middle" x="112.5" y="-335.5" font-family="Helvetica,sans-Serif" font-size="10.00" fill="#000000"> </text>
<polyline fill="none" stroke="#000000" points="25.5,-328.5 199.5,-328.5 "/>
<text text-anchor="start" x="33.5" y="-316.5" font-family="Helvetica,sans-Serif" font-size="10.00" fill="#000000">+ base_spec()</text>
<text text-anchor="start" x="33.5" y="-305.5" font-family="Helvetica,sans-Serif" font-size="10.00" fill="#000000">+ base_specs_impl()</text>
<text text-anchor="start" x="33.5" y="-294.5" font-family="Helvetica,sans-Serif" font-size="10.00" fill="#000000">+ base_specs()</text>
<text text-anchor="start" x="33.5" y="-283.5" font-family="Helvetica,sans-Serif" font-size="10.00" fill="#000000">+ spec()</text>
<text text-anchor="start" x="33.5" y="-272.5" font-family="Helvetica,sans-Serif" font-size="10.00" fill="#000000">+ ref()</text>
<text text-anchor="start" x="33.5" y="-261.5" font-family="Helvetica,sans-Serif" font-size="10.00" fill="#000000">+ operator&#45;&gt;()</text>
<text text-anchor="start" x="33.5" y="-250.5" font-family="Helvetica,sans-Serif" font-size="10.00" fill="#000000">+ operator*()</text>
<text text-anchor="start" x="33.5" y="-239.5" font-family="Helvetica,sans-Serif" font-size="10.00" fill="#000000">+ asArrowTable()</text>
</a>
</g>
</g>
<!-- Node3&#45;&gt;Node2 -->
<g id="edge2" class="edge">
<title>Node3&#45;&gt;Node2</title>
<path fill="none" stroke="#191970" d="M161.1377,-223.3204C169.2432,-209.7085 177.2391,-196.2806 184.1143,-184.7346"/>
<polygon fill="none" stroke="#191970" points="157.9152,-221.8913 155.8061,-232.2741 163.9296,-225.4727 157.9152,-221.8913"/>
</g>
<!-- Node4 -->
<g id="node4" class="node">
<title>Node4</title>
<polygon fill="none" stroke="#bfbfbf" points="0,-464 0,-532 173,-532 173,-464 0,-464"/>
<text text-anchor="start" x="8" y="-520" font-family="Helvetica,sans-Serif" font-size="10.00" fill="#000000">shared_ptr&lt; aod::HfCandProng2</text>
<text text-anchor="middle" x="86.5" y="-509" font-family="Helvetica,sans-Serif" font-size="10.00" fill="#000000">Ext &gt;</text>
<polyline fill="none" stroke="#bfbfbf" points="0,-502 173,-502 "/>
<text text-anchor="middle" x="86.5" y="-490" font-family="Helvetica,sans-Serif" font-size="10.00" fill="#000000"> </text>
<polyline fill="none" stroke="#bfbfbf" points="0,-483 173,-483 "/>
<text text-anchor="middle" x="86.5" y="-471" font-family="Helvetica,sans-Serif" font-size="10.00" fill="#000000"> </text>
</g>
<!-- Node4&#45;&gt;Node3 -->
<g id="edge3" class="edge">
<title>Node4&#45;&gt;Node3</title>
<path fill="none" stroke="#404040" d="M84.6452,-463.8369C84.1103,-443.9493 84.3603,-418.4493 87.5,-396 87.8018,-393.8424 88.1396,-391.6635 88.509,-389.4713"/>
<polygon fill="none" stroke="#404040" points="88.5123,-389.4536 85.7065,-382.8108 90.7592,-377.6659 93.565,-384.3087 88.5123,-389.4536"/>
<text text-anchor="middle" x="106" y="-399" font-family="Helvetica,sans-Serif" font-size="10.00" fill="#000000"> +table</text>
</g>
<!-- Node5 -->
<g id="node5" class="node">
<title>Node5</title>
<g id="a_node5"><a xlink:href="../../da/d17/structo2_1_1framework_1_1TransformTable.html" target="_top" xlink:title="Base template for table transformation declarations. ">
<polygon fill="none" stroke="#000000" points="208,-425.5 208,-570.5 351,-570.5 351,-425.5 208,-425.5"/>
<text text-anchor="start" x="216" y="-558.5" font-family="Helvetica,sans-Serif" font-size="10.00" fill="#000000">o2::framework::Transform</text>
<text text-anchor="middle" x="279.5" y="-547.5" font-family="Helvetica,sans-Serif" font-size="10.00" fill="#000000">Table&lt; T &gt;</text>
<polyline fill="none" stroke="#000000" points="208,-540.5 351,-540.5 "/>
<text text-anchor="middle" x="279.5" y="-528.5" font-family="Helvetica,sans-Serif" font-size="10.00" fill="#000000"> </text>
<polyline fill="none" stroke="#000000" points="208,-521.5 351,-521.5 "/>
<text text-anchor="start" x="216" y="-509.5" font-family="Helvetica,sans-Serif" font-size="10.00" fill="#000000">+ base_spec()</text>
<text text-anchor="start" x="216" y="-498.5" font-family="Helvetica,sans-Serif" font-size="10.00" fill="#000000">+ base_specs_impl()</text>
<text text-anchor="start" x="216" y="-487.5" font-family="Helvetica,sans-Serif" font-size="10.00" fill="#000000">+ base_specs()</text>
<text text-anchor="start" x="216" y="-476.5" font-family="Helvetica,sans-Serif" font-size="10.00" fill="#000000">+ spec()</text>
<text text-anchor="start" x="216" y="-465.5" font-family="Helvetica,sans-Serif" font-size="10.00" fill="#000000">+ ref()</text>
<text text-anchor="start" x="216" y="-454.5" font-family="Helvetica,sans-Serif" font-size="10.00" fill="#000000">+ operator&#45;&gt;()</text>
<text text-anchor="start" x="216" y="-443.5" font-family="Helvetica,sans-Serif" font-size="10.00" fill="#000000">+ operator*()</text>
<text text-anchor="start" x="216" y="-432.5" font-family="Helvetica,sans-Serif" font-size="10.00" fill="#000000">+ asArrowTable()</text>
</a>
</g>
</g>
<!-- Node5&#45;&gt;Node3 -->
<g id="edge4" class="edge">
<title>Node5&#45;&gt;Node3</title>
<path fill="none" stroke="#ffa500" d="M199.5151,-436.2872C193.8251,-432.3687 188.1175,-428.5692 182.5,-425 168.0685,-415.8306 159.6658,-419.9488 148.5,-407 141.0806,-398.3959 135.1574,-388.1618 130.4376,-377.5486"/>
<polygon fill="#ffa500" stroke="#ffa500" points="197.6259,-439.237 207.8264,-442.1006 201.638,-433.5009 197.6259,-439.237"/>
<text text-anchor="middle" x="216.5" y="-399" font-family="Helvetica,sans-Serif" font-size="10.00" fill="#000000"> &lt; aod::HfCandProng2Ext &gt;</text>
</g>
<!-- Node7 -->
<g id="node7" class="node">
<title>Node7</title>
<g id="a_node7"><a xlink:href="../../d7/d15/structo2_1_1framework_1_1Spawns.html" target="_top" xlink:title="{o2::framework::Spawns\&lt; T \&gt;\n||+ pack()\l}">
<polygon fill="none" stroke="#000000" points="217.5,-276.5 217.5,-333.5 377.5,-333.5 377.5,-276.5 217.5,-276.5"/>
<text text-anchor="middle" x="297.5" y="-321.5" font-family="Helvetica,sans-Serif" font-size="10.00" fill="#000000">o2::framework::Spawns&lt; T &gt;</text>
<polyline fill="none" stroke="#000000" points="217.5,-314.5 377.5,-314.5 "/>
<text text-anchor="middle" x="297.5" y="-302.5" font-family="Helvetica,sans-Serif" font-size="10.00" fill="#000000"> </text>
<polyline fill="none" stroke="#000000" points="217.5,-295.5 377.5,-295.5 "/>
<text text-anchor="start" x="225.5" y="-283.5" font-family="Helvetica,sans-Serif" font-size="10.00" fill="#000000">+ pack()</text>
</a>
</g>
</g>
<!-- Node5&#45;&gt;Node7 -->
<g id="edge7" class="edge">
<title>Node5&#45;&gt;Node7</title>
<path fill="none" stroke="#191970" d="M287.2289,-415.1293C289.9364,-386.0989 292.8005,-355.3892 294.8144,-333.7955"/>
<polygon fill="none" stroke="#191970" points="283.7232,-415.0282 286.2794,-425.31 290.693,-415.6782 283.7232,-415.0282"/>
</g>
<!-- Node6 -->
<g id="node6" class="node">
<title>Node6</title>
<polygon fill="none" stroke="#bfbfbf" points="231,-618.5 231,-675.5 328,-675.5 328,-618.5 231,-618.5"/>
<text text-anchor="middle" x="279.5" y="-663.5" font-family="Helvetica,sans-Serif" font-size="10.00" fill="#000000">shared_ptr&lt; T &gt;</text>
<polyline fill="none" stroke="#bfbfbf" points="231,-656.5 328,-656.5 "/>
<text text-anchor="middle" x="279.5" y="-644.5" font-family="Helvetica,sans-Serif" font-size="10.00" fill="#000000"> </text>
<polyline fill="none" stroke="#bfbfbf" points="231,-637.5 328,-637.5 "/>
<text text-anchor="middle" x="279.5" y="-625.5" font-family="Helvetica,sans-Serif" font-size="10.00" fill="#000000"> </text>
</g>
<!-- Node6&#45;&gt;Node5 -->
<g id="edge5" class="edge">
<title>Node6&#45;&gt;Node5</title>
<path fill="none" stroke="#404040" d="M279.5,-618.2713C279.5,-607.8895 279.5,-595.5716 279.5,-582.843"/>
<polygon fill="none" stroke="#404040" points="279.5001,-582.5631 275.5,-576.5632 279.5,-570.5631 283.5,-576.5631 279.5001,-582.5631"/>
<text text-anchor="middle" x="298" y="-592" font-family="Helvetica,sans-Serif" font-size="10.00" fill="#000000"> +table</text>
</g>
<!-- Node7&#45;&gt;Node2 -->
<g id="edge6" class="edge">
<title>Node7&#45;&gt;Node2</title>
<path fill="none" stroke="#ffa500" d="M275.059,-267.7189C259.8479,-242.449 239.8964,-209.3037 225.0915,-184.7084"/>
<polygon fill="#ffa500" stroke="#ffa500" points="272.0695,-269.5393 280.2254,-276.3018 278.0668,-265.9292 272.0695,-269.5393"/>
<text text-anchor="middle" x="310.5" y="-206" font-family="Helvetica,sans-Serif" font-size="10.00" fill="#000000"> &lt; aod::HfCandProng2Ext &gt;</text>
</g>
</g>
</svg>
        <g id="navigator" transform="translate(0 0)" fill="#404254">
                <rect fill="#f2f5e9" fill-opacity="0.5" stroke="#606060" stroke-width=".5" x="0" y="0" width="60" height="60"/>
                <use id="zoomplus" xlink:href="#zoomPlus" x="17" y="9" onmousedown="handleZoom(evt,'in')"/>
                <use id="zoomminus" xlink:href="#zoomMin" x="42" y="9" onmousedown="handleZoom(evt,'out')"/>
                <use id="reset" xlink:href="#resetDef" x="30" y="36" onmousedown="handleReset()"/>
                <g id="arrowUp" xlink:href="#dirArrow" transform="translate(30 24)" onmousedown="handlePan(0,-1)">
                  <use xlink:href="#rim" fill="#404040">
                        <set attributeName="fill" to="#808080" begin="arrowUp.mouseover" end="arrowUp.mouseout"/>
                  </use>
                  <path fill="none" stroke="white" stroke-width="1.5" d="M0,-3.0v7 M-2.5,-0.5L0,-3.0L2.5,-0.5"/>
                </g>
                <g id="arrowRight" xlink:href="#dirArrow" transform="rotate(90) translate(36 -43)" onmousedown="handlePan(1,0)">
                  <use xlink:href="#rim" fill="#404040">
                        <set attributeName="fill" to="#808080" begin="arrowRight.mouseover" end="arrowRight.mouseout"/>
                  </use>
                  <path fill="none" stroke="white" stroke-width="1.5" d="M0,-3.0v7 M-2.5,-0.5L0,-3.0L2.5,-0.5"/>
                </g>
                <g id="arrowDown" xlink:href="#dirArrow" transform="rotate(180) translate(-30 -48)" onmousedown="handlePan(0,1)">
                  <use xlink:href="#rim" fill="#404040">
                        <set attributeName="fill" to="#808080" begin="arrowDown.mouseover" end="arrowDown.mouseout"/>
                  </use>
                  <path fill="none" stroke="white" stroke-width="1.5" d="M0,-3.0v7 M-2.5,-0.5L0,-3.0L2.5,-0.5"/>
                </g>
                <g id="arrowLeft" xlink:href="#dirArrow" transform="rotate(270) translate(-36 17)" onmousedown="handlePan(-1,0)">
                  <use xlink:href="#rim" fill="#404040">
                        <set attributeName="fill" to="#808080" begin="arrowLeft.mouseover" end="arrowLeft.mouseout"/>
                  </use>
                  <path fill="none" stroke="white" stroke-width="1.5" d="M0,-3.0v7 M-2.5,-0.5L0,-3.0L2.5,-0.5"/>
                </g>
        </g>
        <svg viewBox="0 0 15 15" width="100%" height="30px" preserveAspectRatio="xMaxYMin meet">
         <g id="arrow_out" transform="scale(0.3 0.3)">
          <a xlink:href="structHFCandidateCreator2ProngExpressions__coll__graph_org.svg" target="_base">
           <rect id="button" ry="5" rx="5" y="6" x="6" height="38" width="38"
                fill="#f2f5e9" fill-opacity="0.5" stroke="#606060" stroke-width="1.0"/>
           <path id="arrow"
             d="M 11.500037,31.436501 C 11.940474,20.09759 22.043105,11.32322 32.158766,21.979434 L 37.068811,17.246167 C 37.068811,17.246167 37.088388,32 37.088388,32 L 22.160133,31.978069 C 22.160133,31.978069 26.997745,27.140456 26.997745,27.140456 C 18.528582,18.264221 13.291696,25.230495 11.500037,31.436501 z"
             style="fill:#404040;"/>
          </a>
         </g>
        </svg>
</svg>
