<?xml version="1.0" encoding="UTF-8" standalone="no"?>
<!DOCTYPE svg PUBLIC "-//W3C//DTD SVG 1.1//EN"
 "http://www.w3.org/Graphics/SVG/1.1/DTD/svg11.dtd">
<!-- Generated by graphviz version 2.40.1 (20161225.0304)
 -->
<!-- Title: /home/travis/build/AliceO2Group/AliceO2/Analysis/DataModel/src/DetectorResponse.cxx Pages: 1 -->
<svg width="540pt" height="240pt"
 viewBox="0.00 0.00 540.00 240.00" xmlns="http://www.w3.org/2000/svg" xmlns:xlink="http://www.w3.org/1999/xlink">
<g id="graph0" class="graph" transform="scale(1 1) rotate(0) translate(4 236)">
<title>/home/travis/build/AliceO2Group/AliceO2/Analysis/DataModel/src/DetectorResponse.cxx</title>
<!-- Node0 -->
<g id="node1" class="node">
<title>Node0</title>
<polygon fill="#bfbfbf" stroke="#000000" points="68,-179.5 68,-231.5 202,-231.5 202,-179.5 68,-179.5"/>
<text text-anchor="start" x="76" y="-219.5" font-family="Helvetica,sans-Serif" font-size="10.00" fill="#000000">/home/travis/build</text>
<text text-anchor="start" x="76" y="-208.5" font-family="Helvetica,sans-Serif" font-size="10.00" fill="#000000">/AliceO2Group/AliceO2</text>
<text text-anchor="start" x="76" y="-197.5" font-family="Helvetica,sans-Serif" font-size="10.00" fill="#000000">/Analysis/DataModel/src</text>
<text text-anchor="middle" x="135" y="-186.5" font-family="Helvetica,sans-Serif" font-size="10.00" fill="#000000">/DetectorResponse.cxx</text>
</g>
<!-- Node1 -->
<g id="node2" class="node">
<title>Node1</title>
<polygon fill="none" stroke="#bfbfbf" points="6,-123.5 6,-142.5 54,-142.5 54,-123.5 6,-123.5"/>
<text text-anchor="middle" x="30" y="-130.5" font-family="Helvetica,sans-Serif" font-size="10.00" fill="#000000">TFile.h</text>
</g>
<!-- Node0&#45;&gt;Node1 -->
<g id="edge1" class="edge">
<title>Node0&#45;&gt;Node1</title>
<path fill="none" stroke="#191970" d="M97.0926,-179.3258C82.0105,-168.912 65.1832,-157.2931 52.1535,-148.2965"/>
<polygon fill="#191970" stroke="#191970" points="54.0255,-145.3358 43.8079,-142.534 50.0482,-151.0961 54.0255,-145.3358"/>
</g>
<!-- Node2 -->
<g id="node3" class="node">
<title>Node2</title>
<g id="a_node3"><a xlink:href="../../d0/ded/ParamBase_8h.html" target="_top" xlink:title="Set of utilities to handle the parametrization of the PID response for each detector These are the ba...">
<polygon fill="none" stroke="#000000" points="0,-62 0,-81 124,-81 124,-62 0,-62"/>
<text text-anchor="middle" x="62" y="-69" font-family="Helvetica,sans-Serif" font-size="10.00" fill="#000000">PIDBase/ParamBase.h</text>
</a>
</g>
</g>
<!-- Node0&#45;&gt;Node2 -->
<g id="edge2" class="edge">
<title>Node0&#45;&gt;Node2</title>
<path fill="none" stroke="#191970" d="M120.7516,-179.3453C106.4469,-153.0875 84.7689,-113.2949 72.1326,-90.0995"/>
<polygon fill="#191970" stroke="#191970" points="75.176,-88.3697 67.3185,-81.2626 69.0289,-91.7185 75.176,-88.3697"/>
</g>
<!-- Node4 -->
<g id="node5" class="node">
<title>Node4</title>
<g id="a_node5"><a xlink:href="../../dc/d68/DetectorResponse_8h.html" target="_top" xlink:title="Handler for any detector (or other entity) response. This provides the basic quantities computed by a...">
<polygon fill="none" stroke="#000000" points="110,-123.5 110,-142.5 268,-142.5 268,-123.5 110,-123.5"/>
<text text-anchor="middle" x="189" y="-130.5" font-family="Helvetica,sans-Serif" font-size="10.00" fill="#000000">PIDBase/DetectorResponse.h</text>
</a>
</g>
</g>
<!-- Node0&#45;&gt;Node4 -->
<g id="edge4" class="edge">
<title>Node0&#45;&gt;Node4</title>
<path fill="none" stroke="#191970" d="M154.4952,-179.3258C161.5805,-169.8132 169.4147,-159.2951 175.8251,-150.6886"/>
<polygon fill="#191970" stroke="#191970" points="178.7323,-152.6446 181.8988,-142.534 173.1184,-148.4632 178.7323,-152.6446"/>
</g>
<!-- Node9 -->
<g id="node10" class="node">
<title>Node9</title>
<g id="a_node10"><a xlink:href="../../dd/da4/Logger_8h.html" target="_top" xlink:title="Framework/Logger.h">
<polygon fill="none" stroke="#000000" points="343.5,-123.5 343.5,-142.5 458.5,-142.5 458.5,-123.5 343.5,-123.5"/>
<text text-anchor="middle" x="401" y="-130.5" font-family="Helvetica,sans-Serif" font-size="10.00" fill="#000000">Framework/Logger.h</text>
</a>
</g>
</g>
<!-- Node0&#45;&gt;Node9 -->
<g id="edge11" class="edge">
<title>Node0&#45;&gt;Node9</title>
<path fill="none" stroke="#191970" d="M202.123,-187.2052C250.4251,-174.0401 314.236,-156.6481 356.3943,-145.1576"/>
<polygon fill="#191970" stroke="#191970" points="357.3694,-148.5196 366.097,-142.513 355.5286,-141.7659 357.3694,-148.5196"/>
</g>
<!-- Node3 -->
<g id="node4" class="node">
<title>Node3</title>
<polygon fill="none" stroke="#bfbfbf" points="28.5,-.5 28.5,-19.5 95.5,-19.5 95.5,-.5 28.5,-.5"/>
<text text-anchor="middle" x="62" y="-7.5" font-family="Helvetica,sans-Serif" font-size="10.00" fill="#000000">TNamed.h</text>
</g>
<!-- Node2&#45;&gt;Node3 -->
<g id="edge3" class="edge">
<title>Node2&#45;&gt;Node3</title>
<path fill="none" stroke="#191970" d="M62,-61.8906C62,-53.3657 62,-40.6392 62,-29.9235"/>
<polygon fill="#191970" stroke="#191970" points="65.5001,-29.7448 62,-19.7449 58.5001,-29.7449 65.5001,-29.7448"/>
</g>
<!-- Node4&#45;&gt;Node2 -->
<g id="edge10" class="edge">
<title>Node4&#45;&gt;Node2</title>
<path fill="none" stroke="#191970" d="M169.1563,-123.3906C148.1864,-113.2359 114.9056,-97.1196 90.9964,-85.5416"/>
<polygon fill="#191970" stroke="#191970" points="92.2301,-82.2502 81.7044,-81.0419 89.1792,-88.5504 92.2301,-82.2502"/>
</g>
<!-- Node5 -->
<g id="node6" class="node">
<title>Node5</title>
<polygon fill="none" stroke="#bfbfbf" points="135.5,-.5 135.5,-19.5 194.5,-19.5 194.5,-.5 135.5,-.5"/>
<text text-anchor="middle" x="165" y="-7.5" font-family="Helvetica,sans-Serif" font-size="10.00" fill="#000000">Rtypes.h</text>
</g>
<!-- Node4&#45;&gt;Node5 -->
<g id="edge5" class="edge">
<title>Node4&#45;&gt;Node5</title>
<path fill="none" stroke="#191970" d="M184.2746,-123.3957C180.0198,-114.2689 173.9897,-100.0398 171,-87 166.6116,-67.8593 165.2806,-45.4183 164.945,-29.7174"/>
<polygon fill="#191970" stroke="#191970" points="168.444,-29.5851 164.8471,-19.6195 161.4443,-29.653 168.444,-29.5851"/>
</g>
<!-- Node6 -->
<g id="node7" class="node">
<title>Node6</title>
<polygon fill="none" stroke="#bfbfbf" points="180,-62 180,-81 236,-81 236,-62 180,-62"/>
<text text-anchor="middle" x="208" y="-69" font-family="Helvetica,sans-Serif" font-size="10.00" fill="#000000">TMath.h</text>
</g>
<!-- Node4&#45;&gt;Node6 -->
<g id="edge6" class="edge">
<title>Node4&#45;&gt;Node6</title>
<path fill="none" stroke="#191970" d="M191.9688,-123.3906C194.6302,-114.776 198.6171,-101.8708 201.9491,-91.0858"/>
<polygon fill="#191970" stroke="#191970" points="205.3816,-91.8324 204.9894,-81.2449 198.6935,-89.7661 205.3816,-91.8324"/>
</g>
<!-- Node7 -->
<g id="node8" class="node">
<title>Node7</title>
<g id="a_node8"><a xlink:href="../../d5/d08/DataFormats_2Reconstruction_2include_2ReconstructionDataFormats_2PID_8h.html" target="_top" xlink:title="ReconstructionDataFormats\l/PID.h">
<polygon fill="none" stroke="#000000" points="254,-56.5 254,-86.5 406,-86.5 406,-56.5 254,-56.5"/>
<text text-anchor="start" x="262" y="-74.5" font-family="Helvetica,sans-Serif" font-size="10.00" fill="#000000">ReconstructionDataFormats</text>
<text text-anchor="middle" x="330" y="-63.5" font-family="Helvetica,sans-Serif" font-size="10.00" fill="#000000">/PID.h</text>
</a>
</g>
</g>
<!-- Node4&#45;&gt;Node7 -->
<g id="edge7" class="edge">
<title>Node4&#45;&gt;Node7</title>
<path fill="none" stroke="#191970" d="M211.0313,-123.3906C231.0857,-114.6435 261.2818,-101.4728 286.2334,-90.5897"/>
<polygon fill="#191970" stroke="#191970" points="287.7408,-93.7507 295.5075,-86.5446 284.9422,-87.3345 287.7408,-93.7507"/>
</g>
<!-- Node7&#45;&gt;Node5 -->
<g id="edge8" class="edge">
<title>Node7&#45;&gt;Node5</title>
<path fill="none" stroke="#191970" d="M289.6365,-56.4554C262.2265,-46.239 226.3341,-32.8609 200.109,-23.0861"/>
<polygon fill="#191970" stroke="#191970" points="201.1618,-19.7433 190.5691,-19.5303 198.717,-26.3025 201.1618,-19.7433"/>
</g>
<!-- Node8 -->
<g id="node9" class="node">
<title>Node8</title>
<g id="a_node9"><a xlink:href="../../d3/d9d/PhysicsConstants_8h.html" target="_top" xlink:title="Header to collect physics constants. ">
<polygon fill="none" stroke="#000000" points="226.5,-.5 226.5,-19.5 433.5,-19.5 433.5,-.5 226.5,-.5"/>
<text text-anchor="middle" x="330" y="-7.5" font-family="Helvetica,sans-Serif" font-size="10.00" fill="#000000">CommonConstants/PhysicsConstants.h</text>
</a>
</g>
</g>
<!-- Node7&#45;&gt;Node8 -->
<g id="edge9" class="edge">
<title>Node7&#45;&gt;Node8</title>
<path fill="none" stroke="#191970" d="M330,-56.2977C330,-48.3834 330,-38.6043 330,-30.0759"/>
<polygon fill="#191970" stroke="#191970" points="333.5001,-29.8469 330,-19.8469 326.5001,-29.847 333.5001,-29.8469"/>
</g>
<!-- Node10 -->
<g id="node11" class="node">
<title>Node10</title>
<polygon fill="none" stroke="#bfbfbf" points="424,-62 424,-81 532,-81 532,-62 424,-62"/>
<text text-anchor="middle" x="478" y="-69" font-family="Helvetica,sans-Serif" font-size="10.00" fill="#000000">fairlogger/Logger.h</text>
</g>
<!-- Node9&#45;&gt;Node10 -->
<g id="edge12" class="edge">
<title>Node9&#45;&gt;Node10</title>
<path fill="none" stroke="#191970" d="M413.0313,-123.3906C425.0107,-113.8227 443.6166,-98.9621 457.8525,-87.5919"/>
<polygon fill="#191970" stroke="#191970" points="460.4239,-90.0175 466.0532,-81.0419 456.0553,-84.5479 460.4239,-90.0175"/>
</g>
</g>
</svg>
