<?xml version="1.0" encoding="UTF-8" standalone="no"?>
<!DOCTYPE svg PUBLIC "-//W3C//DTD SVG 1.1//EN"
 "http://www.w3.org/Graphics/SVG/1.1/DTD/svg11.dtd">
<!-- Generated by graphviz version 2.40.1 (20161225.0304)
 -->
<!-- Title: o2::framework::Builds&lt; T, IP &gt; Pages: 1 -->
<svg width="776pt" height="398pt"
 viewBox="0.00 0.00 775.50 398.00" xmlns="http://www.w3.org/2000/svg" xmlns:xlink="http://www.w3.org/1999/xlink">
<g id="graph0" class="graph" transform="scale(1 1) rotate(0) translate(4 394)">
<title>o2::framework::Builds&lt; T, IP &gt;</title>
<!-- Node0 -->
<g id="node1" class="node">
<title>Node0</title>
<polygon fill="#bfbfbf" stroke="#000000" points="300.5,-127.5 300.5,-206.5 424.5,-206.5 424.5,-127.5 300.5,-127.5"/>
<text text-anchor="start" x="308.5" y="-194.5" font-family="Helvetica,sans-Serif" font-size="10.00" fill="#000000">o2::framework::Builds</text>
<text text-anchor="middle" x="362.5" y="-183.5" font-family="Helvetica,sans-Serif" font-size="10.00" fill="#000000">&lt; T, IP &gt;</text>
<polyline fill="none" stroke="#000000" points="300.5,-176.5 424.5,-176.5 "/>
<text text-anchor="middle" x="362.5" y="-164.5" font-family="Helvetica,sans-Serif" font-size="10.00" fill="#000000"> </text>
<polyline fill="none" stroke="#000000" points="300.5,-157.5 424.5,-157.5 "/>
<text text-anchor="start" x="308.5" y="-145.5" font-family="Helvetica,sans-Serif" font-size="10.00" fill="#000000">+ pack()</text>
<text text-anchor="start" x="308.5" y="-134.5" font-family="Helvetica,sans-Serif" font-size="10.00" fill="#000000">+ build()</text>
</g>
<!-- Node2 -->
<g id="node3" class="node">
<title>Node2</title>
<g id="a_node3"><a xlink:href="../../d5/df4/structo2_1_1framework_1_1Builds.html" target="_top" xlink:title="{o2::framework::Builds\l\&lt; aod::Run2MatchedSparse \&gt;\n||+ pack()\l+ build()\l}">
<polygon fill="none" stroke="#000000" points="0,-.5 0,-79.5 161,-79.5 161,-.5 0,-.5"/>
<text text-anchor="start" x="8" y="-67.5" font-family="Helvetica,sans-Serif" font-size="10.00" fill="#000000">o2::framework::Builds</text>
<text text-anchor="middle" x="80.5" y="-56.5" font-family="Helvetica,sans-Serif" font-size="10.00" fill="#000000">&lt; aod::Run2MatchedSparse &gt;</text>
<polyline fill="none" stroke="#000000" points="0,-49.5 161,-49.5 "/>
<text text-anchor="middle" x="80.5" y="-37.5" font-family="Helvetica,sans-Serif" font-size="10.00" fill="#000000"> </text>
<polyline fill="none" stroke="#000000" points="0,-30.5 161,-30.5 "/>
<text text-anchor="start" x="8" y="-18.5" font-family="Helvetica,sans-Serif" font-size="10.00" fill="#000000">+ pack()</text>
<text text-anchor="start" x="8" y="-7.5" font-family="Helvetica,sans-Serif" font-size="10.00" fill="#000000">+ build()</text>
</a>
</g>
</g>
<!-- Node0&#45;&gt;Node2 -->
<g id="edge2" class="edge">
<title>Node0&#45;&gt;Node2</title>
<path fill="none" stroke="#ffa500" d="M290.418,-156.3144C228.8772,-146.0323 146.21,-129.1086 119.5,-109 109.4962,-101.4687 101.6766,-90.5729 95.7523,-79.6563"/>
<polygon fill="#ffa500" stroke="#ffa500" points="290.051,-159.801 300.4863,-157.9693 291.1864,-152.8936 290.051,-159.801"/>
<text text-anchor="middle" x="193.5" y="-101" font-family="Helvetica,sans-Serif" font-size="10.00" fill="#000000"> &lt; aod::Run2MatchedSparse &gt;</text>
</g>
<!-- Node3 -->
<g id="node4" class="node">
<title>Node3</title>
<g id="a_node4"><a xlink:href="../../d5/df4/structo2_1_1framework_1_1Builds.html" target="_top" xlink:title="{o2::framework::Builds\l\&lt; aod::Run2MatchedExclusive \&gt;\n||+ pack()\l+ build()\l}">
<polygon fill="none" stroke="#000000" points="179,-.5 179,-79.5 354,-79.5 354,-.5 179,-.5"/>
<text text-anchor="start" x="187" y="-67.5" font-family="Helvetica,sans-Serif" font-size="10.00" fill="#000000">o2::framework::Builds</text>
<text text-anchor="middle" x="266.5" y="-56.5" font-family="Helvetica,sans-Serif" font-size="10.00" fill="#000000">&lt; aod::Run2MatchedExclusive &gt;</text>
<polyline fill="none" stroke="#000000" points="179,-49.5 354,-49.5 "/>
<text text-anchor="middle" x="266.5" y="-37.5" font-family="Helvetica,sans-Serif" font-size="10.00" fill="#000000"> </text>
<polyline fill="none" stroke="#000000" points="179,-30.5 354,-30.5 "/>
<text text-anchor="start" x="187" y="-18.5" font-family="Helvetica,sans-Serif" font-size="10.00" fill="#000000">+ pack()</text>
<text text-anchor="start" x="187" y="-7.5" font-family="Helvetica,sans-Serif" font-size="10.00" fill="#000000">+ build()</text>
</a>
</g>
</g>
<!-- Node0&#45;&gt;Node3 -->
<g id="edge3" class="edge">
<title>Node0&#45;&gt;Node3</title>
<path fill="none" stroke="#ffa500" d="M292.4084,-128.7983C285.8959,-122.9074 280.0468,-116.3131 275.5,-109 270.0782,-100.2795 267.2646,-89.7431 265.9249,-79.558"/>
<polygon fill="#ffa500" stroke="#ffa500" points="290.3973,-131.6784 300.3201,-135.3915 294.8786,-126.3008 290.3973,-131.6784"/>
<text text-anchor="middle" x="356.5" y="-101" font-family="Helvetica,sans-Serif" font-size="10.00" fill="#000000"> &lt; aod::Run2MatchedExclusive &gt;</text>
</g>
<!-- Node4 -->
<g id="node5" class="node">
<title>Node4</title>
<g id="a_node5"><a xlink:href="../../d5/df4/structo2_1_1framework_1_1Builds.html" target="_top" xlink:title="{o2::framework::Builds\l\&lt; aod::Run3MatchedExclusive \&gt;\n||+ pack()\l+ build()\l}">
<polygon fill="none" stroke="#000000" points="372,-.5 372,-79.5 547,-79.5 547,-.5 372,-.5"/>
<text text-anchor="start" x="380" y="-67.5" font-family="Helvetica,sans-Serif" font-size="10.00" fill="#000000">o2::framework::Builds</text>
<text text-anchor="middle" x="459.5" y="-56.5" font-family="Helvetica,sans-Serif" font-size="10.00" fill="#000000">&lt; aod::Run3MatchedExclusive &gt;</text>
<polyline fill="none" stroke="#000000" points="372,-49.5 547,-49.5 "/>
<text text-anchor="middle" x="459.5" y="-37.5" font-family="Helvetica,sans-Serif" font-size="10.00" fill="#000000"> </text>
<polyline fill="none" stroke="#000000" points="372,-30.5 547,-30.5 "/>
<text text-anchor="start" x="380" y="-18.5" font-family="Helvetica,sans-Serif" font-size="10.00" fill="#000000">+ pack()</text>
<text text-anchor="start" x="380" y="-7.5" font-family="Helvetica,sans-Serif" font-size="10.00" fill="#000000">+ build()</text>
</a>
</g>
</g>
<!-- Node0&#45;&gt;Node4 -->
<g id="edge4" class="edge">
<title>Node0&#45;&gt;Node4</title>
<path fill="none" stroke="#ffa500" d="M428.8016,-119.8218C431.9487,-116.3549 434.8811,-112.7424 437.5,-109 443.6276,-100.2438 448.1115,-89.6953 451.3676,-79.5102"/>
<polygon fill="#ffa500" stroke="#ffa500" points="426.1005,-117.5778 421.6072,-127.1726 431.1032,-122.474 426.1005,-117.5778"/>
<text text-anchor="middle" x="524.5" y="-101" font-family="Helvetica,sans-Serif" font-size="10.00" fill="#000000"> &lt; aod::Run3MatchedExclusive &gt;</text>
</g>
<!-- Node5 -->
<g id="node6" class="node">
<title>Node5</title>
<g id="a_node6"><a xlink:href="../../d5/df4/structo2_1_1framework_1_1Builds.html" target="_top" xlink:title="{o2::framework::Builds\l\&lt; aod::Run3MatchedSparse \&gt;\n||+ pack()\l+ build()\l}">
<polygon fill="none" stroke="#000000" points="565,-.5 565,-79.5 726,-79.5 726,-.5 565,-.5"/>
<text text-anchor="start" x="573" y="-67.5" font-family="Helvetica,sans-Serif" font-size="10.00" fill="#000000">o2::framework::Builds</text>
<text text-anchor="middle" x="645.5" y="-56.5" font-family="Helvetica,sans-Serif" font-size="10.00" fill="#000000">&lt; aod::Run3MatchedSparse &gt;</text>
<polyline fill="none" stroke="#000000" points="565,-49.5 726,-49.5 "/>
<text text-anchor="middle" x="645.5" y="-37.5" font-family="Helvetica,sans-Serif" font-size="10.00" fill="#000000"> </text>
<polyline fill="none" stroke="#000000" points="565,-30.5 726,-30.5 "/>
<text text-anchor="start" x="573" y="-18.5" font-family="Helvetica,sans-Serif" font-size="10.00" fill="#000000">+ pack()</text>
<text text-anchor="start" x="573" y="-7.5" font-family="Helvetica,sans-Serif" font-size="10.00" fill="#000000">+ build()</text>
</a>
</g>
</g>
<!-- Node0&#45;&gt;Node5 -->
<g id="edge5" class="edge">
<title>Node0&#45;&gt;Node5</title>
<path fill="none" stroke="#ffa500" d="M434.7735,-156.8391C497.5508,-146.8084 582.5175,-129.9531 609.5,-109 619.2113,-101.4587 626.5674,-90.5601 632.0155,-79.6439"/>
<polygon fill="#ffa500" stroke="#ffa500" points="433.8453,-153.4419 424.5091,-158.4504 434.931,-160.3572 433.8453,-153.4419"/>
<text text-anchor="middle" x="693.5" y="-101" font-family="Helvetica,sans-Serif" font-size="10.00" fill="#000000"> &lt; aod::Run3MatchedSparse &gt;</text>
</g>
<!-- Node1 -->
<g id="node2" class="node">
<title>Node1</title>
<g id="a_node2"><a xlink:href="../../da/d17/structo2_1_1framework_1_1TransformTable.html" target="_top" xlink:title="Base template for table transformation declarations. ">
<polygon fill="none" stroke="#000000" points="291,-244.5 291,-389.5 434,-389.5 434,-244.5 291,-244.5"/>
<text text-anchor="start" x="299" y="-377.5" font-family="Helvetica,sans-Serif" font-size="10.00" fill="#000000">o2::framework::Transform</text>
<text text-anchor="middle" x="362.5" y="-366.5" font-family="Helvetica,sans-Serif" font-size="10.00" fill="#000000">Table&lt; T &gt;</text>
<polyline fill="none" stroke="#000000" points="291,-359.5 434,-359.5 "/>
<text text-anchor="start" x="299" y="-347.5" font-family="Helvetica,sans-Serif" font-size="10.00" fill="#000000">+ table</text>
<polyline fill="none" stroke="#000000" points="291,-340.5 434,-340.5 "/>
<text text-anchor="start" x="299" y="-328.5" font-family="Helvetica,sans-Serif" font-size="10.00" fill="#000000">+ base_spec()</text>
<text text-anchor="start" x="299" y="-317.5" font-family="Helvetica,sans-Serif" font-size="10.00" fill="#000000">+ base_specs_impl()</text>
<text text-anchor="start" x="299" y="-306.5" font-family="Helvetica,sans-Serif" font-size="10.00" fill="#000000">+ base_specs()</text>
<text text-anchor="start" x="299" y="-295.5" font-family="Helvetica,sans-Serif" font-size="10.00" fill="#000000">+ spec()</text>
<text text-anchor="start" x="299" y="-284.5" font-family="Helvetica,sans-Serif" font-size="10.00" fill="#000000">+ ref()</text>
<text text-anchor="start" x="299" y="-273.5" font-family="Helvetica,sans-Serif" font-size="10.00" fill="#000000">+ operator&#45;&gt;()</text>
<text text-anchor="start" x="299" y="-262.5" font-family="Helvetica,sans-Serif" font-size="10.00" fill="#000000">+ operator*()</text>
<text text-anchor="start" x="299" y="-251.5" font-family="Helvetica,sans-Serif" font-size="10.00" fill="#000000">+ asArrowTable()</text>
</a>
</g>
</g>
<!-- Node1&#45;&gt;Node0 -->
<g id="edge1" class="edge">
<title>Node1&#45;&gt;Node0</title>
<path fill="none" stroke="#191970" d="M362.5,-234.1607C362.5,-224.5644 362.5,-215.1412 362.5,-206.5287"/>
<polygon fill="none" stroke="#191970" points="359.0001,-234.197 362.5,-244.197 366.0001,-234.197 359.0001,-234.197"/>
</g>
</g>
</svg>
