<?xml version="1.0" encoding="UTF-8" standalone="no"?>
<!DOCTYPE svg PUBLIC "-//W3C//DTD SVG 1.1//EN"
 "http://www.w3.org/Graphics/SVG/1.1/DTD/svg11.dtd">
<!-- Generated by graphviz version 2.40.1 (20161225.0304)
 -->
<!-- Title: /home/travis/build/AliceO2Group/AliceO2/Analysis/DataModel/include/Analysis/SecondaryVertexHF.h Pages: 1 -->
<svg width="838pt" height="150pt"
 viewBox="0.00 0.00 838.00 150.00" xmlns="http://www.w3.org/2000/svg" xmlns:xlink="http://www.w3.org/1999/xlink">
<g id="graph0" class="graph" transform="scale(1 1) rotate(0) translate(4 146)">
<title>/home/travis/build/AliceO2Group/AliceO2/Analysis/DataModel/include/Analysis/SecondaryVertexHF.h</title>
<!-- Node49 -->
<g id="node1" class="node">
<title>Node49</title>
<polygon fill="#bfbfbf" stroke="#000000" points="317.5,-89.5 317.5,-141.5 484.5,-141.5 484.5,-89.5 317.5,-89.5"/>
<text text-anchor="start" x="325.5" y="-129.5" font-family="Helvetica,sans-Serif" font-size="10.00" fill="#000000">/home/travis/build</text>
<text text-anchor="start" x="325.5" y="-118.5" font-family="Helvetica,sans-Serif" font-size="10.00" fill="#000000">/AliceO2Group/AliceO2</text>
<text text-anchor="start" x="325.5" y="-107.5" font-family="Helvetica,sans-Serif" font-size="10.00" fill="#000000">/Analysis/DataModel/include</text>
<text text-anchor="middle" x="401" y="-96.5" font-family="Helvetica,sans-Serif" font-size="10.00" fill="#000000">/Analysis/SecondaryVertexHF.h</text>
</g>
<!-- Node50 -->
<g id="node2" class="node">
<title>Node50</title>
<g id="a_node2"><a xlink:href="../../df/ded/dumpDataModel_8cxx.html" target="_top" xlink:title="/home/travis/build\l/AliceO2Group/AliceO2\l/Analysis/DataModel/src\l/dumpDataModel.cxx">
<polygon fill="none" stroke="#000000" points="0,-.5 0,-52.5 134,-52.5 134,-.5 0,-.5"/>
<text text-anchor="start" x="8" y="-40.5" font-family="Helvetica,sans-Serif" font-size="10.00" fill="#000000">/home/travis/build</text>
<text text-anchor="start" x="8" y="-29.5" font-family="Helvetica,sans-Serif" font-size="10.00" fill="#000000">/AliceO2Group/AliceO2</text>
<text text-anchor="start" x="8" y="-18.5" font-family="Helvetica,sans-Serif" font-size="10.00" fill="#000000">/Analysis/DataModel/src</text>
<text text-anchor="middle" x="67" y="-7.5" font-family="Helvetica,sans-Serif" font-size="10.00" fill="#000000">/dumpDataModel.cxx</text>
</a>
</g>
</g>
<!-- Node49&#45;&gt;Node50 -->
<g id="edge1" class="edge">
<title>Node49&#45;&gt;Node50</title>
<path fill="none" stroke="#191970" d="M307.3748,-95.1433C258.1452,-83.8553 196.9725,-68.9056 143,-53 140.0512,-52.131 137.048,-51.2156 134.0214,-50.2683"/>
<polygon fill="#191970" stroke="#191970" points="306.8454,-98.6123 317.3733,-97.4232 308.4017,-91.7875 306.8454,-98.6123"/>
</g>
<!-- Node51 -->
<g id="node3" class="node">
<title>Node51</title>
<g id="a_node3"><a xlink:href="../../d2/d60/hfcandidatecreator2prong_8cxx.html" target="_top" xlink:title="Reconstruction of heavy&#45;flavour 2&#45;prong decay candidates. ">
<polygon fill="none" stroke="#000000" points="152,-6 152,-47 392,-47 392,-6 152,-6"/>
<text text-anchor="start" x="160" y="-35" font-family="Helvetica,sans-Serif" font-size="10.00" fill="#000000">/home/travis/build</text>
<text text-anchor="start" x="160" y="-24" font-family="Helvetica,sans-Serif" font-size="10.00" fill="#000000">/AliceO2Group/AliceO2</text>
<text text-anchor="middle" x="272" y="-13" font-family="Helvetica,sans-Serif" font-size="10.00" fill="#000000">/Analysis/Tasks/hfcandidatecreator2prong.cxx</text>
</a>
</g>
</g>
<!-- Node49&#45;&gt;Node51 -->
<g id="edge2" class="edge">
<title>Node49&#45;&gt;Node51</title>
<path fill="none" stroke="#191970" d="M354.5727,-83.4688C337.0512,-71.3803 317.5942,-57.9564 301.9702,-47.1771"/>
<polygon fill="#191970" stroke="#191970" points="352.7747,-86.4805 362.9935,-89.2784 356.7499,-80.7187 352.7747,-86.4805"/>
</g>
<!-- Node52 -->
<g id="node4" class="node">
<title>Node52</title>
<g id="a_node4"><a xlink:href="../../d7/dbb/hftrackindexskimscreator_8cxx.html" target="_top" xlink:title="Pre&#45;selection of 2&#45;prong and 3&#45;prong secondary vertices of heavy&#45;flavour decay candidates. ">
<polygon fill="none" stroke="#000000" points="410.5,-6 410.5,-47 649.5,-47 649.5,-6 410.5,-6"/>
<text text-anchor="start" x="418.5" y="-35" font-family="Helvetica,sans-Serif" font-size="10.00" fill="#000000">/home/travis/build</text>
<text text-anchor="start" x="418.5" y="-24" font-family="Helvetica,sans-Serif" font-size="10.00" fill="#000000">/AliceO2Group/AliceO2</text>
<text text-anchor="middle" x="530" y="-13" font-family="Helvetica,sans-Serif" font-size="10.00" fill="#000000">/Analysis/Tasks/hftrackindexskimscreator.cxx</text>
</a>
</g>
</g>
<!-- Node49&#45;&gt;Node52 -->
<g id="edge3" class="edge">
<title>Node49&#45;&gt;Node52</title>
<path fill="none" stroke="#191970" d="M447.4273,-83.4688C464.9488,-71.3803 484.4058,-57.9564 500.0298,-47.1771"/>
<polygon fill="#191970" stroke="#191970" points="445.2501,-80.7187 439.0065,-89.2784 449.2253,-86.4805 445.2501,-80.7187"/>
</g>
<!-- Node53 -->
<g id="node5" class="node">
<title>Node53</title>
<g id="a_node5"><a xlink:href="../../d3/d48/taskdzero_8cxx.html" target="_top" xlink:title="/home/travis/build\l/AliceO2Group/AliceO2\l/Analysis/Tasks/taskdzero.cxx">
<polygon fill="none" stroke="#000000" points="668,-6 668,-47 830,-47 830,-6 668,-6"/>
<text text-anchor="start" x="676" y="-35" font-family="Helvetica,sans-Serif" font-size="10.00" fill="#000000">/home/travis/build</text>
<text text-anchor="start" x="676" y="-24" font-family="Helvetica,sans-Serif" font-size="10.00" fill="#000000">/AliceO2Group/AliceO2</text>
<text text-anchor="middle" x="749" y="-13" font-family="Helvetica,sans-Serif" font-size="10.00" fill="#000000">/Analysis/Tasks/taskdzero.cxx</text>
</a>
</g>
</g>
<!-- Node49&#45;&gt;Node53 -->
<g id="edge4" class="edge">
<title>Node49&#45;&gt;Node53</title>
<path fill="none" stroke="#191970" d="M494.6003,-93.984C543.6974,-82.4058 604.7571,-67.5466 659,-53 665.9222,-51.1436 673.1236,-49.1425 680.3038,-47.1013"/>
<polygon fill="#191970" stroke="#191970" points="493.5625,-90.6325 484.6294,-96.3291 495.1651,-97.4466 493.5625,-90.6325"/>
</g>
</g>
</svg>
