<?xml version="1.0" encoding="UTF-8" standalone="no"?>
<!DOCTYPE svg PUBLIC "-//W3C//DTD SVG 1.1//EN"
 "http://www.w3.org/Graphics/SVG/1.1/DTD/svg11.dtd">
<!-- Generated by graphviz version 2.40.1 (20161225.0304)
 -->
<!-- Title: /home/travis/build/AliceO2Group/AliceO2/DataFormats/Detectors/TRD/include/DataFormatsTRD/RawData.h Pages: 1 -->
<svg width="1106pt" height="361pt"
 viewBox="0.00 0.00 1106.24 361.00" xmlns="http://www.w3.org/2000/svg" xmlns:xlink="http://www.w3.org/1999/xlink">
<g id="graph0" class="graph" transform="scale(1 1) rotate(0) translate(4 357)">
<title>/home/travis/build/AliceO2Group/AliceO2/DataFormats/Detectors/TRD/include/DataFormatsTRD/RawData.h</title>
<!-- Node2 -->
<g id="node1" class="node">
<title>Node2</title>
<polygon fill="#bfbfbf" stroke="#000000" points="477.74,-289.5 477.74,-352.5 641.74,-352.5 641.74,-289.5 477.74,-289.5"/>
<text text-anchor="start" x="485.74" y="-340.5" font-family="Helvetica,sans-Serif" font-size="10.00" fill="#000000">/home/travis/build</text>
<text text-anchor="start" x="485.74" y="-329.5" font-family="Helvetica,sans-Serif" font-size="10.00" fill="#000000">/AliceO2Group/AliceO2</text>
<text text-anchor="start" x="485.74" y="-318.5" font-family="Helvetica,sans-Serif" font-size="10.00" fill="#000000">/DataFormats/Detectors</text>
<text text-anchor="start" x="485.74" y="-307.5" font-family="Helvetica,sans-Serif" font-size="10.00" fill="#000000">/TRD/include/DataFormatsTRD</text>
<text text-anchor="middle" x="559.74" y="-296.5" font-family="Helvetica,sans-Serif" font-size="10.00" fill="#000000">/RawData.h</text>
</g>
<!-- Node3 -->
<g id="node2" class="node">
<title>Node3</title>
<g id="a_node2"><a xlink:href="../../de/d86/LinkRecord_8h.html" target="_top" xlink:title="/home/travis/build\l/AliceO2Group/AliceO2\l/DataFormats/Detectors\l/TRD/include/DataFormatsTRD\l/LinkRecord.h">
<polygon fill="none" stroke="#000000" points="308.74,-189.5 308.74,-252.5 472.74,-252.5 472.74,-189.5 308.74,-189.5"/>
<text text-anchor="start" x="316.74" y="-240.5" font-family="Helvetica,sans-Serif" font-size="10.00" fill="#000000">/home/travis/build</text>
<text text-anchor="start" x="316.74" y="-229.5" font-family="Helvetica,sans-Serif" font-size="10.00" fill="#000000">/AliceO2Group/AliceO2</text>
<text text-anchor="start" x="316.74" y="-218.5" font-family="Helvetica,sans-Serif" font-size="10.00" fill="#000000">/DataFormats/Detectors</text>
<text text-anchor="start" x="316.74" y="-207.5" font-family="Helvetica,sans-Serif" font-size="10.00" fill="#000000">/TRD/include/DataFormatsTRD</text>
<text text-anchor="middle" x="390.74" y="-196.5" font-family="Helvetica,sans-Serif" font-size="10.00" fill="#000000">/LinkRecord.h</text>
</a>
</g>
</g>
<!-- Node2&#45;&gt;Node3 -->
<g id="edge1" class="edge">
<title>Node2&#45;&gt;Node3</title>
<path fill="none" stroke="#191970" d="M497.2819,-284.0425C479.831,-273.7166 461.0316,-262.5927 444.1546,-252.6063"/>
<polygon fill="#191970" stroke="#191970" points="495.8787,-287.2791 506.2673,-289.3594 499.4435,-281.2547 495.8787,-287.2791"/>
</g>
<!-- Node5 -->
<g id="node4" class="node">
<title>Node5</title>
<g id="a_node4"><a xlink:href="../../d3/d2d/Trap2CRU_8h.html" target="_top" xlink:title="/home/travis/build\l/AliceO2Group/AliceO2\l/Detectors/TRD/simulation\l/include/TRDSimulation/Trap2CRU.h">
<polygon fill="none" stroke="#000000" points="18.74,-95 18.74,-147 208.74,-147 208.74,-95 18.74,-95"/>
<text text-anchor="start" x="26.74" y="-135" font-family="Helvetica,sans-Serif" font-size="10.00" fill="#000000">/home/travis/build</text>
<text text-anchor="start" x="26.74" y="-124" font-family="Helvetica,sans-Serif" font-size="10.00" fill="#000000">/AliceO2Group/AliceO2</text>
<text text-anchor="start" x="26.74" y="-113" font-family="Helvetica,sans-Serif" font-size="10.00" fill="#000000">/Detectors/TRD/simulation</text>
<text text-anchor="middle" x="113.74" y="-102" font-family="Helvetica,sans-Serif" font-size="10.00" fill="#000000">/include/TRDSimulation/Trap2CRU.h</text>
</a>
</g>
</g>
<!-- Node2&#45;&gt;Node5 -->
<g id="edge16" class="edge">
<title>Node2&#45;&gt;Node5</title>
<path fill="none" stroke="#191970" d="M467.5548,-309.4422C382.431,-297.518 263.247,-277.2716 222.74,-253 179.5281,-227.1077 145.7538,-177.6352 127.8633,-147.1587"/>
<polygon fill="#191970" stroke="#191970" points="467.1132,-312.9144 477.4987,-310.8192 468.0734,-305.9806 467.1132,-312.9144"/>
</g>
<!-- Node6 -->
<g id="node5" class="node">
<title>Node6</title>
<g id="a_node5"><a xlink:href="../../d0/d2c/Trap2CRU_8cxx.html" target="_top" xlink:title="/home/travis/build\l/AliceO2Group/AliceO2\l/Detectors/TRD/simulation\l/src/Trap2CRU.cxx">
<polygon fill="none" stroke="#000000" points="21.24,-.5 21.24,-52.5 166.24,-52.5 166.24,-.5 21.24,-.5"/>
<text text-anchor="start" x="29.24" y="-40.5" font-family="Helvetica,sans-Serif" font-size="10.00" fill="#000000">/home/travis/build</text>
<text text-anchor="start" x="29.24" y="-29.5" font-family="Helvetica,sans-Serif" font-size="10.00" fill="#000000">/AliceO2Group/AliceO2</text>
<text text-anchor="start" x="29.24" y="-18.5" font-family="Helvetica,sans-Serif" font-size="10.00" fill="#000000">/Detectors/TRD/simulation</text>
<text text-anchor="middle" x="93.74" y="-7.5" font-family="Helvetica,sans-Serif" font-size="10.00" fill="#000000">/src/Trap2CRU.cxx</text>
</a>
</g>
</g>
<!-- Node2&#45;&gt;Node6 -->
<g id="edge17" class="edge">
<title>Node2&#45;&gt;Node6</title>
<path fill="none" stroke="#191970" d="M467.6654,-310.4127C365.6922,-297.8459 208.3355,-275.7166 152.74,-253 80.9479,-223.6655 45.5713,-221.7803 9.74,-153 -3.4019,-127.7735 -3.0293,-114.4171 9.74,-89 17.1657,-74.2192 29.9263,-62.0492 43.2907,-52.5017"/>
<polygon fill="#191970" stroke="#191970" points="467.3113,-313.8954 477.6624,-311.636 468.1616,-306.9472 467.3113,-313.8954"/>
</g>
<!-- Node7 -->
<g id="node6" class="node">
<title>Node7</title>
<g id="a_node6"><a xlink:href="../../d9/dfe/trap2raw_8cxx.html" target="_top" xlink:title="/home/travis/build\l/AliceO2Group/AliceO2\l/Detectors/TRD/simulation\l/src/trap2raw.cxx">
<polygon fill="none" stroke="#000000" points="184.24,-.5 184.24,-52.5 329.24,-52.5 329.24,-.5 184.24,-.5"/>
<text text-anchor="start" x="192.24" y="-40.5" font-family="Helvetica,sans-Serif" font-size="10.00" fill="#000000">/home/travis/build</text>
<text text-anchor="start" x="192.24" y="-29.5" font-family="Helvetica,sans-Serif" font-size="10.00" fill="#000000">/AliceO2Group/AliceO2</text>
<text text-anchor="start" x="192.24" y="-18.5" font-family="Helvetica,sans-Serif" font-size="10.00" fill="#000000">/Detectors/TRD/simulation</text>
<text text-anchor="middle" x="256.74" y="-7.5" font-family="Helvetica,sans-Serif" font-size="10.00" fill="#000000">/src/trap2raw.cxx</text>
</a>
</g>
</g>
<!-- Node2&#45;&gt;Node7 -->
<g id="edge18" class="edge">
<title>Node2&#45;&gt;Node7</title>
<path fill="none" stroke="#191970" d="M467.6163,-307.5198C402.4453,-296.084 322.7245,-277.608 299.74,-253 247.8304,-197.424 249.2879,-99.5778 253.4897,-52.8199"/>
<polygon fill="#191970" stroke="#191970" points="467.0795,-310.9788 477.5282,-309.2252 468.2665,-304.0802 467.0795,-310.9788"/>
</g>
<!-- Node8 -->
<g id="node7" class="node">
<title>Node8</title>
<g id="a_node7"><a xlink:href="../../dc/d96/TRDTrapSimulatorSpec_8h.html" target="_top" xlink:title="/home/travis/build\l/AliceO2Group/AliceO2\l/Detectors/TRD/workflow\l/include/TRDWorkflow/TRDTrapSimulator\lSpec.h">
<polygon fill="none" stroke="#000000" points="568.74,-89.5 568.74,-152.5 782.74,-152.5 782.74,-89.5 568.74,-89.5"/>
<text text-anchor="start" x="576.74" y="-140.5" font-family="Helvetica,sans-Serif" font-size="10.00" fill="#000000">/home/travis/build</text>
<text text-anchor="start" x="576.74" y="-129.5" font-family="Helvetica,sans-Serif" font-size="10.00" fill="#000000">/AliceO2Group/AliceO2</text>
<text text-anchor="start" x="576.74" y="-118.5" font-family="Helvetica,sans-Serif" font-size="10.00" fill="#000000">/Detectors/TRD/workflow</text>
<text text-anchor="start" x="576.74" y="-107.5" font-family="Helvetica,sans-Serif" font-size="10.00" fill="#000000">/include/TRDWorkflow/TRDTrapSimulator</text>
<text text-anchor="middle" x="675.74" y="-96.5" font-family="Helvetica,sans-Serif" font-size="10.00" fill="#000000">Spec.h</text>
</a>
</g>
</g>
<!-- Node2&#45;&gt;Node8 -->
<g id="edge20" class="edge">
<title>Node2&#45;&gt;Node8</title>
<path fill="none" stroke="#191970" d="M567.5898,-279.462C574.0582,-252.2188 585.0957,-216.6564 602.74,-189 611.2172,-175.7124 622.8918,-163.2791 634.4195,-152.7718"/>
<polygon fill="#191970" stroke="#191970" points="564.1204,-278.9365 565.3303,-289.462 570.9483,-280.4793 564.1204,-278.9365"/>
</g>
<!-- Node9 -->
<g id="node8" class="node">
<title>Node9</title>
<g id="a_node8"><a xlink:href="../../dd/de7/TRDTrapSimulatorSpec_8cxx.html" target="_top" xlink:title="/home/travis/build\l/AliceO2Group/AliceO2\l/Detectors/TRD/workflow\l/src/TRDTrapSimulatorSpec.cxx">
<polygon fill="none" stroke="#000000" points="401.74,-.5 401.74,-52.5 569.74,-52.5 569.74,-.5 401.74,-.5"/>
<text text-anchor="start" x="409.74" y="-40.5" font-family="Helvetica,sans-Serif" font-size="10.00" fill="#000000">/home/travis/build</text>
<text text-anchor="start" x="409.74" y="-29.5" font-family="Helvetica,sans-Serif" font-size="10.00" fill="#000000">/AliceO2Group/AliceO2</text>
<text text-anchor="start" x="409.74" y="-18.5" font-family="Helvetica,sans-Serif" font-size="10.00" fill="#000000">/Detectors/TRD/workflow</text>
<text text-anchor="middle" x="485.74" y="-7.5" font-family="Helvetica,sans-Serif" font-size="10.00" fill="#000000">/src/TRDTrapSimulatorSpec.cxx</text>
</a>
</g>
</g>
<!-- Node2&#45;&gt;Node9 -->
<g id="edge22" class="edge">
<title>Node2&#45;&gt;Node9</title>
<path fill="none" stroke="#191970" d="M557.4159,-279.1555C553.7613,-231.8133 544.5488,-152.9768 521.74,-89 517.2406,-76.3795 510.2133,-63.3904 503.5573,-52.5455"/>
<polygon fill="#191970" stroke="#191970" points="553.94,-279.6155 558.1532,-289.3365 560.9217,-279.1098 553.94,-279.6155"/>
</g>
<!-- Node12 -->
<g id="node11" class="node">
<title>Node12</title>
<g id="a_node11"><a xlink:href="../../d1/d78/TRDTrapRawWriterSpec_8cxx.html" target="_top" xlink:title="/home/travis/build\l/AliceO2Group/AliceO2\l/Detectors/TRD/workflow\l/src/TRDTrapRawWriterSpec.cxx">
<polygon fill="none" stroke="#000000" points="801.24,-95 801.24,-147 972.24,-147 972.24,-95 801.24,-95"/>
<text text-anchor="start" x="809.24" y="-135" font-family="Helvetica,sans-Serif" font-size="10.00" fill="#000000">/home/travis/build</text>
<text text-anchor="start" x="809.24" y="-124" font-family="Helvetica,sans-Serif" font-size="10.00" fill="#000000">/AliceO2Group/AliceO2</text>
<text text-anchor="start" x="809.24" y="-113" font-family="Helvetica,sans-Serif" font-size="10.00" fill="#000000">/Detectors/TRD/workflow</text>
<text text-anchor="middle" x="886.74" y="-102" font-family="Helvetica,sans-Serif" font-size="10.00" fill="#000000">/src/TRDTrapRawWriterSpec.cxx</text>
</a>
</g>
</g>
<!-- Node2&#45;&gt;Node12 -->
<g id="edge21" class="edge">
<title>Node2&#45;&gt;Node12</title>
<path fill="none" stroke="#191970" d="M585.764,-280.9576C591.488,-271.8466 597.4245,-262.1536 602.74,-253 618.9143,-225.1464 611.2032,-208.6291 636.74,-189 692.8118,-145.8998 723.7048,-172.3105 791.74,-153 798.2695,-151.1467 805.0143,-149.1154 811.7574,-147.0034"/>
<polygon fill="#191970" stroke="#191970" points="582.7615,-279.1569 580.3682,-289.4779 588.6754,-282.9021 582.7615,-279.1569"/>
</g>
<!-- Node13 -->
<g id="node12" class="node">
<title>Node13</title>
<g id="a_node12"><a xlink:href="../../da/d8b/RawData_8cxx.html" target="_top" xlink:title="/home/travis/build\l/AliceO2Group/AliceO2\l/DataFormats/Detectors\l/TRD/src/RawData.cxx">
<polygon fill="none" stroke="#000000" points="645.24,-195 645.24,-247 778.24,-247 778.24,-195 645.24,-195"/>
<text text-anchor="start" x="653.24" y="-235" font-family="Helvetica,sans-Serif" font-size="10.00" fill="#000000">/home/travis/build</text>
<text text-anchor="start" x="653.24" y="-224" font-family="Helvetica,sans-Serif" font-size="10.00" fill="#000000">/AliceO2Group/AliceO2</text>
<text text-anchor="start" x="653.24" y="-213" font-family="Helvetica,sans-Serif" font-size="10.00" fill="#000000">/DataFormats/Detectors</text>
<text text-anchor="middle" x="711.74" y="-202" font-family="Helvetica,sans-Serif" font-size="10.00" fill="#000000">/TRD/src/RawData.cxx</text>
</a>
</g>
</g>
<!-- Node2&#45;&gt;Node13 -->
<g id="edge14" class="edge">
<title>Node2&#45;&gt;Node13</title>
<path fill="none" stroke="#191970" d="M616.2337,-283.8331C634.8093,-271.6123 655.0524,-258.2944 672.1015,-247.078"/>
<polygon fill="#191970" stroke="#191970" points="614.2642,-280.9392 607.8337,-289.3594 618.1116,-286.7871 614.2642,-280.9392"/>
</g>
<!-- Node14 -->
<g id="node13" class="node">
<title>Node14</title>
<g id="a_node13"><a xlink:href="../../da/da9/testRawData_8cxx.html" target="_top" xlink:title="/home/travis/build\l/AliceO2Group/AliceO2\l/Detectors/TRD/base/test\l/testRawData.cxx">
<polygon fill="none" stroke="#000000" points="796.74,-195 796.74,-247 934.74,-247 934.74,-195 796.74,-195"/>
<text text-anchor="start" x="804.74" y="-235" font-family="Helvetica,sans-Serif" font-size="10.00" fill="#000000">/home/travis/build</text>
<text text-anchor="start" x="804.74" y="-224" font-family="Helvetica,sans-Serif" font-size="10.00" fill="#000000">/AliceO2Group/AliceO2</text>
<text text-anchor="start" x="804.74" y="-213" font-family="Helvetica,sans-Serif" font-size="10.00" fill="#000000">/Detectors/TRD/base/test</text>
<text text-anchor="middle" x="865.74" y="-202" font-family="Helvetica,sans-Serif" font-size="10.00" fill="#000000">/testRawData.cxx</text>
</a>
</g>
</g>
<!-- Node2&#45;&gt;Node14 -->
<g id="edge15" class="edge">
<title>Node2&#45;&gt;Node14</title>
<path fill="none" stroke="#191970" d="M651.5186,-295.8838C693.3764,-283.8531 743.3868,-268.6685 787.74,-253 792.9844,-251.1473 798.3905,-249.1396 803.7948,-247.0636"/>
<polygon fill="#191970" stroke="#191970" points="650.5444,-292.522 641.8921,-298.6365 652.469,-299.2522 650.5444,-292.522"/>
</g>
<!-- Node15 -->
<g id="node14" class="node">
<title>Node15</title>
<g id="a_node14"><a xlink:href="../../da/deb/TrapSimulator_8cxx.html" target="_top" xlink:title="/home/travis/build\l/AliceO2Group/AliceO2\l/Detectors/TRD/simulation\l/src/TrapSimulator.cxx">
<polygon fill="none" stroke="#000000" points="953.24,-195 953.24,-247 1098.24,-247 1098.24,-195 953.24,-195"/>
<text text-anchor="start" x="961.24" y="-235" font-family="Helvetica,sans-Serif" font-size="10.00" fill="#000000">/home/travis/build</text>
<text text-anchor="start" x="961.24" y="-224" font-family="Helvetica,sans-Serif" font-size="10.00" fill="#000000">/AliceO2Group/AliceO2</text>
<text text-anchor="start" x="961.24" y="-213" font-family="Helvetica,sans-Serif" font-size="10.00" fill="#000000">/Detectors/TRD/simulation</text>
<text text-anchor="middle" x="1025.74" y="-202" font-family="Helvetica,sans-Serif" font-size="10.00" fill="#000000">/src/TrapSimulator.cxx</text>
</a>
</g>
</g>
<!-- Node2&#45;&gt;Node15 -->
<g id="edge19" class="edge">
<title>Node2&#45;&gt;Node15</title>
<path fill="none" stroke="#191970" d="M652.4137,-309.7996C730.9104,-299.079 845.9539,-280.4495 943.74,-253 949.9195,-251.2654 956.2784,-249.2386 962.5917,-247.0622"/>
<polygon fill="#191970" stroke="#191970" points="651.5087,-306.3899 642.0666,-311.1958 652.4448,-313.327 651.5087,-306.3899"/>
</g>
<!-- Node4 -->
<g id="node3" class="node">
<title>Node4</title>
<g id="a_node3"><a xlink:href="../../d6/dc7/LinkRecord_8cxx.html" target="_top" xlink:title="/home/travis/build\l/AliceO2Group/AliceO2\l/DataFormats/Detectors\l/TRD/src/LinkRecord.cxx">
<polygon fill="none" stroke="#000000" points="378.74,-95 378.74,-147 512.74,-147 512.74,-95 378.74,-95"/>
<text text-anchor="start" x="386.74" y="-135" font-family="Helvetica,sans-Serif" font-size="10.00" fill="#000000">/home/travis/build</text>
<text text-anchor="start" x="386.74" y="-124" font-family="Helvetica,sans-Serif" font-size="10.00" fill="#000000">/AliceO2Group/AliceO2</text>
<text text-anchor="start" x="386.74" y="-113" font-family="Helvetica,sans-Serif" font-size="10.00" fill="#000000">/DataFormats/Detectors</text>
<text text-anchor="middle" x="445.74" y="-102" font-family="Helvetica,sans-Serif" font-size="10.00" fill="#000000">/TRD/src/LinkRecord.cxx</text>
</a>
</g>
</g>
<!-- Node3&#45;&gt;Node4 -->
<g id="edge2" class="edge">
<title>Node3&#45;&gt;Node4</title>
<path fill="none" stroke="#191970" d="M413.0118,-180.5058C419.2136,-169.2297 425.7838,-157.284 431.3971,-147.078"/>
<polygon fill="#191970" stroke="#191970" points="409.8948,-178.9105 408.1423,-189.3594 416.0283,-182.2839 409.8948,-178.9105"/>
</g>
<!-- Node3&#45;&gt;Node5 -->
<g id="edge3" class="edge">
<title>Node3&#45;&gt;Node5</title>
<path fill="none" stroke="#191970" d="M298.6697,-187.7616C261.9741,-174.5141 220.361,-159.4913 185.9139,-147.0556"/>
<polygon fill="#191970" stroke="#191970" points="297.7865,-191.1638 308.3808,-191.2675 300.1635,-184.5797 297.7865,-191.1638"/>
</g>
<!-- Node3&#45;&gt;Node6 -->
<g id="edge6" class="edge">
<title>Node3&#45;&gt;Node6</title>
<path fill="none" stroke="#191970" d="M337.6601,-183.3733C324.2038,-173.6241 309.8501,-163.0405 296.74,-153 260.8652,-125.525 255.6882,-113.5317 217.74,-89 197.0893,-75.6504 173.2094,-63.0167 151.9518,-52.6477"/>
<polygon fill="#191970" stroke="#191970" points="335.7466,-186.3086 345.9035,-189.3234 339.8435,-180.6327 335.7466,-186.3086"/>
</g>
<!-- Node3&#45;&gt;Node7 -->
<g id="edge7" class="edge">
<title>Node3&#45;&gt;Node7</title>
<path fill="none" stroke="#191970" d="M363.1304,-180.9249C336.6266,-142.4549 297.371,-85.4756 274.6934,-52.5592"/>
<polygon fill="#191970" stroke="#191970" points="360.3567,-183.0682 368.9123,-189.3173 366.1211,-179.0968 360.3567,-183.0682"/>
</g>
<!-- Node3&#45;&gt;Node8 -->
<g id="edge8" class="edge">
<title>Node3&#45;&gt;Node8</title>
<path fill="none" stroke="#191970" d="M482.4601,-188.8175C515.5521,-177.2063 552.8473,-164.1202 585.7866,-152.5626"/>
<polygon fill="#191970" stroke="#191970" points="481.0686,-185.5965 472.7914,-192.21 483.3863,-192.2017 481.0686,-185.5965"/>
</g>
<!-- Node3&#45;&gt;Node9 -->
<g id="edge13" class="edge">
<title>Node3&#45;&gt;Node9</title>
<path fill="none" stroke="#191970" d="M370.9495,-180.098C360.6818,-152.5767 353.3515,-116.4459 369.74,-89 379.0051,-73.4837 393.5986,-61.5919 409.3495,-52.5654"/>
<polygon fill="#191970" stroke="#191970" points="367.7199,-181.4484 374.6698,-189.4453 374.2237,-178.8598 367.7199,-181.4484"/>
</g>
<!-- Node3&#45;&gt;Node12 -->
<g id="edge12" class="edge">
<title>Node3&#45;&gt;Node12</title>
<path fill="none" stroke="#191970" d="M482.9831,-207.0774C582.6387,-191.7299 734.8038,-167.3226 791.74,-153 798.7443,-151.238 805.9742,-149.2064 813.1725,-147.0388"/>
<polygon fill="#191970" stroke="#191970" points="482.2597,-203.6474 472.9074,-208.6258 483.323,-210.5661 482.2597,-203.6474"/>
</g>
<!-- Node5&#45;&gt;Node6 -->
<g id="edge4" class="edge">
<title>Node5&#45;&gt;Node6</title>
<path fill="none" stroke="#191970" d="M106.12,-84.9957C103.8553,-74.295 101.4177,-62.7773 99.3094,-52.8157"/>
<polygon fill="#191970" stroke="#191970" points="102.7272,-85.8687 108.2219,-94.9273 109.5755,-84.4193 102.7272,-85.8687"/>
</g>
<!-- Node5&#45;&gt;Node7 -->
<g id="edge5" class="edge">
<title>Node5&#45;&gt;Node7</title>
<path fill="none" stroke="#191970" d="M161.7876,-89.2483C179.7014,-77.4101 199.8239,-64.1124 216.9184,-52.8157"/>
<polygon fill="#191970" stroke="#191970" points="159.6071,-86.494 153.1939,-94.9273 163.4665,-92.334 159.6071,-86.494"/>
</g>
<!-- Node8&#45;&gt;Node9 -->
<g id="edge9" class="edge">
<title>Node8&#45;&gt;Node9</title>
<path fill="none" stroke="#191970" d="M603.0589,-84.8507C581.4435,-74.0999 558.1941,-62.5364 538.1391,-52.5617"/>
<polygon fill="#191970" stroke="#191970" points="601.6962,-88.0819 612.2086,-89.4015 604.8135,-81.8144 601.6962,-88.0819"/>
</g>
<!-- Node10 -->
<g id="node9" class="node">
<title>Node10</title>
<g id="a_node9"><a xlink:href="../../d2/dc0/TRDTrapSimulatorWorkFlow_8cxx.html" target="_top" xlink:title="/home/travis/build\l/AliceO2Group/AliceO2\l/Detectors/TRD/workflow\l/src/TRDTrapSimulatorWorkFlow.cxx">
<polygon fill="none" stroke="#000000" points="782.24,-.5 782.24,-52.5 973.24,-52.5 973.24,-.5 782.24,-.5"/>
<text text-anchor="start" x="790.24" y="-40.5" font-family="Helvetica,sans-Serif" font-size="10.00" fill="#000000">/home/travis/build</text>
<text text-anchor="start" x="790.24" y="-29.5" font-family="Helvetica,sans-Serif" font-size="10.00" fill="#000000">/AliceO2Group/AliceO2</text>
<text text-anchor="start" x="790.24" y="-18.5" font-family="Helvetica,sans-Serif" font-size="10.00" fill="#000000">/Detectors/TRD/workflow</text>
<text text-anchor="middle" x="877.74" y="-7.5" font-family="Helvetica,sans-Serif" font-size="10.00" fill="#000000">/src/TRDTrapSimulatorWorkFlow.cxx</text>
</a>
</g>
</g>
<!-- Node8&#45;&gt;Node10 -->
<g id="edge10" class="edge">
<title>Node8&#45;&gt;Node10</title>
<path fill="none" stroke="#191970" d="M752.3963,-85.1385C775.5503,-74.3065 800.5195,-62.6254 822.0314,-52.5617"/>
<polygon fill="#191970" stroke="#191970" points="750.8586,-81.9937 743.2839,-89.4015 753.8248,-88.3342 750.8586,-81.9937"/>
</g>
<!-- Node11 -->
<g id="node10" class="node">
<title>Node11</title>
<g id="a_node10"><a xlink:href="../../d2/dd7/SimpleDigitizerWorkflow_8cxx.html" target="_top" xlink:title="/home/travis/build\l/AliceO2Group/AliceO2\l/Steer/DigitizerWorkflow\l/src/SimpleDigitizerWorkflow.cxx">
<polygon fill="none" stroke="#000000" points="587.74,-.5 587.74,-52.5 763.74,-52.5 763.74,-.5 587.74,-.5"/>
<text text-anchor="start" x="595.74" y="-40.5" font-family="Helvetica,sans-Serif" font-size="10.00" fill="#000000">/home/travis/build</text>
<text text-anchor="start" x="595.74" y="-29.5" font-family="Helvetica,sans-Serif" font-size="10.00" fill="#000000">/AliceO2Group/AliceO2</text>
<text text-anchor="start" x="595.74" y="-18.5" font-family="Helvetica,sans-Serif" font-size="10.00" fill="#000000">/Steer/DigitizerWorkflow</text>
<text text-anchor="middle" x="675.74" y="-7.5" font-family="Helvetica,sans-Serif" font-size="10.00" fill="#000000">/src/SimpleDigitizerWorkflow.cxx</text>
</a>
</g>
</g>
<!-- Node8&#45;&gt;Node11 -->
<g id="edge11" class="edge">
<title>Node8&#45;&gt;Node11</title>
<path fill="none" stroke="#191970" d="M675.74,-79.2457C675.74,-70.2008 675.74,-60.8836 675.74,-52.6442"/>
<polygon fill="#191970" stroke="#191970" points="672.2401,-79.2699 675.74,-89.27 679.2401,-79.27 672.2401,-79.2699"/>
</g>
</g>
</svg>
