<?xml version="1.0" encoding="UTF-8" standalone="no"?>
<!DOCTYPE svg PUBLIC "-//W3C//DTD SVG 1.1//EN"
 "http://www.w3.org/Graphics/SVG/1.1/DTD/svg11.dtd">
<!-- Generated by graphviz version 2.40.1 (20161225.0304)
 -->
<!-- Title: /home/travis/build/AliceO2Group/AliceO2/GPU/GPUTracking/Interface/GPUO2InterfaceConfiguration.h Pages: 1 -->
<svg width="1387pt" height="464pt"
 viewBox="0.00 0.00 1387.38 464.00" xmlns="http://www.w3.org/2000/svg" xmlns:xlink="http://www.w3.org/1999/xlink">
<g id="graph0" class="graph" transform="scale(1 1) rotate(0) translate(4 460)">
<title>/home/travis/build/AliceO2Group/AliceO2/GPU/GPUTracking/Interface/GPUO2InterfaceConfiguration.h</title>
<!-- Node0 -->
<g id="node1" class="node">
<title>Node0</title>
<polygon fill="#bfbfbf" stroke="#000000" points="688.8756,-403.5 688.8756,-455.5 860.8756,-455.5 860.8756,-403.5 688.8756,-403.5"/>
<text text-anchor="start" x="696.8756" y="-443.5" font-family="Helvetica,sans-Serif" font-size="10.00" fill="#000000">/home/travis/build</text>
<text text-anchor="start" x="696.8756" y="-432.5" font-family="Helvetica,sans-Serif" font-size="10.00" fill="#000000">/AliceO2Group/AliceO2</text>
<text text-anchor="start" x="696.8756" y="-421.5" font-family="Helvetica,sans-Serif" font-size="10.00" fill="#000000">/GPU/GPUTracking/Interface</text>
<text text-anchor="middle" x="774.8756" y="-410.5" font-family="Helvetica,sans-Serif" font-size="10.00" fill="#000000">/GPUO2InterfaceConfiguration.h</text>
</g>
<!-- Node1 -->
<g id="node2" class="node">
<title>Node1</title>
<polygon fill="none" stroke="#bfbfbf" points="895.8756,-224.5 895.8756,-243.5 953.8756,-243.5 953.8756,-224.5 895.8756,-224.5"/>
<text text-anchor="middle" x="924.8756" y="-231.5" font-family="Helvetica,sans-Serif" font-size="10.00" fill="#000000">memory</text>
</g>
<!-- Node0&#45;&gt;Node1 -->
<g id="edge1" class="edge">
<title>Node0&#45;&gt;Node1</title>
<path fill="none" stroke="#191970" d="M860.982,-411.1841C950.9677,-390.0909 1083.1571,-352.911 1112.8756,-311 1177.5504,-219.7911 1085.1434,-270.6114 963.8226,-244.0421"/>
<polygon fill="#191970" stroke="#191970" points="964.4407,-240.592 953.9049,-241.7088 962.8376,-247.406 964.4407,-240.592"/>
</g>
<!-- Node2 -->
<g id="node3" class="node">
<title>Node2</title>
<polygon fill="none" stroke="#bfbfbf" points="414.8756,-286 414.8756,-305 456.8756,-305 456.8756,-286 414.8756,-286"/>
<text text-anchor="middle" x="435.8756" y="-293" font-family="Helvetica,sans-Serif" font-size="10.00" fill="#000000">array</text>
</g>
<!-- Node0&#45;&gt;Node2 -->
<g id="edge2" class="edge">
<title>Node0&#45;&gt;Node2</title>
<path fill="none" stroke="#191970" d="M705.3972,-403.4416C643.5479,-380.0014 550.7627,-344.2395 470.8756,-311 469.3148,-310.3506 467.7187,-309.6772 466.1096,-308.991"/>
<polygon fill="#191970" stroke="#191970" points="467.4751,-305.7683 456.9082,-304.9988 464.6889,-312.1899 467.4751,-305.7683"/>
</g>
<!-- Node3 -->
<g id="node4" class="node">
<title>Node3</title>
<polygon fill="none" stroke="#bfbfbf" points="310.3756,-224.5 310.3756,-243.5 357.3756,-243.5 357.3756,-224.5 310.3756,-224.5"/>
<text text-anchor="middle" x="333.8756" y="-231.5" font-family="Helvetica,sans-Serif" font-size="10.00" fill="#000000">vector</text>
</g>
<!-- Node0&#45;&gt;Node3 -->
<g id="edge3" class="edge">
<title>Node0&#45;&gt;Node3</title>
<path fill="none" stroke="#191970" d="M688.8721,-415.6835C610.138,-399.9775 492.9704,-368.6744 405.8756,-311 381.5762,-294.9089 359.648,-269.0425 346.5433,-251.7883"/>
<polygon fill="#191970" stroke="#191970" points="349.2862,-249.6109 340.5288,-243.6478 343.6562,-253.7706 349.2862,-249.6109"/>
</g>
<!-- Node4 -->
<g id="node5" class="node">
<title>Node4</title>
<polygon fill="none" stroke="#bfbfbf" points="1314.3756,-347.5 1314.3756,-366.5 1379.3756,-366.5 1379.3756,-347.5 1314.3756,-347.5"/>
<text text-anchor="middle" x="1346.8756" y="-354.5" font-family="Helvetica,sans-Serif" font-size="10.00" fill="#000000">functional</text>
</g>
<!-- Node0&#45;&gt;Node4 -->
<g id="edge4" class="edge">
<title>Node0&#45;&gt;Node4</title>
<path fill="none" stroke="#191970" d="M861.1563,-422.4341C964.2615,-413.2908 1142.0823,-395.308 1303.8005,-367.0161"/>
<polygon fill="#191970" stroke="#191970" points="1304.6977,-370.4119 1313.9363,-365.2254 1303.4798,-363.5186 1304.6977,-370.4119"/>
</g>
<!-- Node5 -->
<g id="node6" class="node">
<title>Node5</title>
<polygon fill="none" stroke="#bfbfbf" points="971.8756,-224.5 971.8756,-243.5 1019.8756,-243.5 1019.8756,-224.5 971.8756,-224.5"/>
<text text-anchor="middle" x="995.8756" y="-231.5" font-family="Helvetica,sans-Serif" font-size="10.00" fill="#000000">gsl/gsl</text>
</g>
<!-- Node0&#45;&gt;Node5 -->
<g id="edge5" class="edge">
<title>Node0&#45;&gt;Node5</title>
<path fill="none" stroke="#191970" d="M861.175,-418.9219C917.7084,-409.9022 992.2615,-393.973 1053.8756,-367 1093.9681,-349.4486 1114.5511,-349.7604 1134.8756,-311 1141.2739,-298.798 1142.9437,-291.1684 1134.8756,-280 1122.4262,-262.7667 1066.9003,-248.4147 1029.9066,-240.5364"/>
<polygon fill="#191970" stroke="#191970" points="1030.5169,-237.0886 1020.0151,-238.4889 1029.098,-243.9433 1030.5169,-237.0886"/>
</g>
<!-- Node6 -->
<g id="node7" class="node">
<title>Node6</title>
<g id="a_node7"><a xlink:href="../../dd/dc6/GPUSettings_8h.html" target="_top" xlink:title="GPUSettings.h">
<polygon fill="none" stroke="#000000" points="259.8756,-347.5 259.8756,-366.5 345.8756,-366.5 345.8756,-347.5 259.8756,-347.5"/>
<text text-anchor="middle" x="302.8756" y="-354.5" font-family="Helvetica,sans-Serif" font-size="10.00" fill="#000000">GPUSettings.h</text>
</a>
</g>
</g>
<!-- Node0&#45;&gt;Node6 -->
<g id="edge6" class="edge">
<title>Node0&#45;&gt;Node6</title>
<path fill="none" stroke="#191970" d="M688.8523,-416.2867C591.827,-401.3834 437.0542,-377.6101 356.126,-365.1793"/>
<polygon fill="#191970" stroke="#191970" points="356.5731,-361.7071 346.1576,-363.6482 355.5103,-368.6259 356.5731,-361.7071"/>
</g>
<!-- Node15 -->
<g id="node16" class="node">
<title>Node15</title>
<g id="a_node16"><a xlink:href="../../d4/d50/GPUDisplayConfig_8h.html" target="_top" xlink:title="GPUDisplayConfig.h">
<polygon fill="none" stroke="#000000" points="2.8756,-347.5 2.8756,-366.5 116.8756,-366.5 116.8756,-347.5 2.8756,-347.5"/>
<text text-anchor="middle" x="59.8756" y="-354.5" font-family="Helvetica,sans-Serif" font-size="10.00" fill="#000000">GPUDisplayConfig.h</text>
</a>
</g>
</g>
<!-- Node0&#45;&gt;Node15 -->
<g id="edge18" class="edge">
<title>Node0&#45;&gt;Node15</title>
<path fill="none" stroke="#191970" d="M688.6279,-422.6957C566.1463,-412.6977 334.5732,-392.5596 127.2527,-367.1172"/>
<polygon fill="#191970" stroke="#191970" points="127.4401,-363.6139 117.0868,-365.8629 126.5829,-370.5612 127.4401,-363.6139"/>
</g>
<!-- Node16 -->
<g id="node17" class="node">
<title>Node16</title>
<g id="a_node17"><a xlink:href="../../d8/d93/GPUQAConfig_8h.html" target="_top" xlink:title="GPUQAConfig.h">
<polygon fill="none" stroke="#000000" points="134.8756,-347.5 134.8756,-366.5 226.8756,-366.5 226.8756,-347.5 134.8756,-347.5"/>
<text text-anchor="middle" x="180.8756" y="-354.5" font-family="Helvetica,sans-Serif" font-size="10.00" fill="#000000">GPUQAConfig.h</text>
</a>
</g>
</g>
<!-- Node0&#45;&gt;Node16 -->
<g id="edge21" class="edge">
<title>Node0&#45;&gt;Node16</title>
<path fill="none" stroke="#191970" d="M688.5667,-419.8264C584.6443,-408.0352 404.85,-387.178 250.8756,-367 246.4423,-366.419 241.8536,-365.8009 237.2433,-365.1681"/>
<polygon fill="#191970" stroke="#191970" points="237.5552,-361.6779 227.1685,-363.7677 236.5914,-368.6112 237.5552,-361.6779"/>
</g>
<!-- Node17 -->
<g id="node18" class="node">
<title>Node17</title>
<g id="a_node18"><a xlink:href="../../d4/dc5/GPUDataTypes_8h.html" target="_top" xlink:title="GPUDataTypes.h">
<polygon fill="none" stroke="#000000" points="1197.8756,-347.5 1197.8756,-366.5 1295.8756,-366.5 1295.8756,-347.5 1197.8756,-347.5"/>
<text text-anchor="middle" x="1246.8756" y="-354.5" font-family="Helvetica,sans-Serif" font-size="10.00" fill="#000000">GPUDataTypes.h</text>
</a>
</g>
</g>
<!-- Node0&#45;&gt;Node17 -->
<g id="edge24" class="edge">
<title>Node0&#45;&gt;Node17</title>
<path fill="none" stroke="#191970" d="M861.0726,-416.476C943.8599,-403.9321 1072.4444,-384.3576 1183.8756,-367 1185.1374,-366.8034 1186.4133,-366.6043 1187.6996,-366.4032"/>
<polygon fill="#191970" stroke="#191970" points="1188.3627,-369.8421 1197.6991,-364.8339 1187.2774,-362.9267 1188.3627,-369.8421"/>
</g>
<!-- Node19 -->
<g id="node20" class="node">
<title>Node19</title>
<g id="a_node20"><a xlink:href="../../d6/d20/GPUHostDataTypes_8h.html" target="_top" xlink:title="GPUHostDataTypes.h">
<polygon fill="none" stroke="#000000" points="714.8756,-347.5 714.8756,-366.5 834.8756,-366.5 834.8756,-347.5 714.8756,-347.5"/>
<text text-anchor="middle" x="774.8756" y="-354.5" font-family="Helvetica,sans-Serif" font-size="10.00" fill="#000000">GPUHostDataTypes.h</text>
</a>
</g>
</g>
<!-- Node0&#45;&gt;Node19 -->
<g id="edge27" class="edge">
<title>Node0&#45;&gt;Node19</title>
<path fill="none" stroke="#191970" d="M774.8756,-403.3258C774.8756,-394.5142 774.8756,-384.8397 774.8756,-376.621"/>
<polygon fill="#191970" stroke="#191970" points="778.3757,-376.534 774.8756,-366.534 771.3757,-376.534 778.3757,-376.534"/>
</g>
<!-- Node21 -->
<g id="node22" class="node">
<title>Node21</title>
<g id="a_node22"><a xlink:href="../../d0/dda/DataFormats_2Detectors_2TPC_2include_2DataFormatsTPC_2Constants_8h.html" target="_top" xlink:title="DataFormatsTPC/Constants.h">
<polygon fill="none" stroke="#000000" points="945.3756,-286 945.3756,-305 1104.3756,-305 1104.3756,-286 945.3756,-286"/>
<text text-anchor="middle" x="1024.8756" y="-293" font-family="Helvetica,sans-Serif" font-size="10.00" fill="#000000">DataFormatsTPC/Constants.h</text>
</a>
</g>
</g>
<!-- Node0&#45;&gt;Node21 -->
<g id="edge47" class="edge">
<title>Node0&#45;&gt;Node21</title>
<path fill="none" stroke="#191970" d="M823.6716,-403.3453C875.7444,-375.4343 956.3482,-332.2307 997.9664,-309.9233"/>
<polygon fill="#191970" stroke="#191970" points="999.79,-312.917 1006.9503,-305.1079 996.4831,-306.7474 999.79,-312.917"/>
</g>
<!-- Node6&#45;&gt;Node3 -->
<g id="edge10" class="edge">
<title>Node6&#45;&gt;Node3</title>
<path fill="none" stroke="#191970" d="M308.5693,-347.4998C313.7118,-338.4466 321.0428,-324.2673 324.8756,-311 330.3462,-292.0631 332.503,-269.5927 333.3472,-253.8294"/>
<polygon fill="#191970" stroke="#191970" points="336.8505,-253.8166 333.7585,-243.683 329.8562,-253.533 336.8505,-253.8166"/>
</g>
<!-- Node7 -->
<g id="node8" class="node">
<title>Node7</title>
<g id="a_node8"><a xlink:href="../../df/d21/GPUCommonDef_8h.html" target="_top" xlink:title="GPUCommonDef.h">
<polygon fill="none" stroke="#000000" points="201.3756,-56.5 201.3756,-75.5 308.3756,-75.5 308.3756,-56.5 201.3756,-56.5"/>
<text text-anchor="middle" x="254.8756" y="-63.5" font-family="Helvetica,sans-Serif" font-size="10.00" fill="#000000">GPUCommonDef.h</text>
</a>
</g>
</g>
<!-- Node6&#45;&gt;Node7 -->
<g id="edge7" class="edge">
<title>Node6&#45;&gt;Node7</title>
<path fill="none" stroke="#191970" d="M301.5448,-347.0185C299.564,-332.3233 295.6653,-304.0095 291.8756,-280 280.5815,-208.447 265.4,-123.7616 258.5272,-85.9562"/>
<polygon fill="#191970" stroke="#191970" points="261.9115,-85.005 256.6745,-75.795 255.025,-86.2606 261.9115,-85.005"/>
</g>
<!-- Node10 -->
<g id="node11" class="node">
<title>Node10</title>
<polygon fill="none" stroke="#bfbfbf" points="238.8756,-286 238.8756,-305 282.8756,-305 282.8756,-286 238.8756,-286"/>
<text text-anchor="middle" x="260.8756" y="-293" font-family="Helvetica,sans-Serif" font-size="10.00" fill="#000000">string</text>
</g>
<!-- Node6&#45;&gt;Node10 -->
<g id="edge11" class="edge">
<title>Node6&#45;&gt;Node10</title>
<path fill="none" stroke="#191970" d="M296.3131,-347.3906C290.1848,-338.417 280.8771,-324.7879 273.3384,-313.7491"/>
<polygon fill="#191970" stroke="#191970" points="276.0606,-311.529 267.5306,-305.2449 270.28,-315.4768 276.0606,-311.529"/>
</g>
<!-- Node11 -->
<g id="node12" class="node">
<title>Node11</title>
<g id="a_node12"><a xlink:href="../../da/d08/qconfig_8h.html" target="_top" xlink:title="utils/qconfig.h">
<polygon fill="none" stroke="#000000" points="56.3756,-286 56.3756,-305 141.3756,-305 141.3756,-286 56.3756,-286"/>
<text text-anchor="middle" x="98.8756" y="-293" font-family="Helvetica,sans-Serif" font-size="10.00" fill="#000000">utils/qconfig.h</text>
</a>
</g>
</g>
<!-- Node6&#45;&gt;Node11 -->
<g id="edge12" class="edge">
<title>Node6&#45;&gt;Node11</title>
<path fill="none" stroke="#191970" d="M271.0006,-347.3906C235.8197,-336.7846 179.0668,-319.6753 140.4241,-308.0257"/>
<polygon fill="#191970" stroke="#191970" points="141.1114,-304.5773 130.5268,-305.0419 139.0909,-311.2794 141.1114,-304.5773"/>
</g>
<!-- Node8 -->
<g id="node9" class="node">
<title>Node8</title>
<g id="a_node9"><a xlink:href="../../d5/d93/GPUCommonDefSettings_8h.html" target="_top" xlink:title="GPUCommonDefSettings.h">
<polygon fill="none" stroke="#000000" points="103.8756,-.5 103.8756,-19.5 251.8756,-19.5 251.8756,-.5 103.8756,-.5"/>
<text text-anchor="middle" x="177.8756" y="-7.5" font-family="Helvetica,sans-Serif" font-size="10.00" fill="#000000">GPUCommonDefSettings.h</text>
</a>
</g>
</g>
<!-- Node7&#45;&gt;Node8 -->
<g id="edge8" class="edge">
<title>Node7&#45;&gt;Node8</title>
<path fill="none" stroke="#191970" d="M241.4632,-56.2455C229.8699,-47.814 212.9008,-35.4729 199.4078,-25.6598"/>
<polygon fill="#191970" stroke="#191970" points="201.2803,-22.6938 191.1343,-19.6427 197.163,-28.355 201.2803,-22.6938"/>
</g>
<!-- Node9 -->
<g id="node10" class="node">
<title>Node9</title>
<g id="a_node10"><a xlink:href="../../da/d5a/GPUCommonDefAPI_8h.html" target="_top" xlink:title="GPUCommonDefAPI.h">
<polygon fill="none" stroke="#000000" points="269.8756,-.5 269.8756,-19.5 393.8756,-19.5 393.8756,-.5 269.8756,-.5"/>
<text text-anchor="middle" x="331.8756" y="-7.5" font-family="Helvetica,sans-Serif" font-size="10.00" fill="#000000">GPUCommonDefAPI.h</text>
</a>
</g>
</g>
<!-- Node7&#45;&gt;Node9 -->
<g id="edge9" class="edge">
<title>Node7&#45;&gt;Node9</title>
<path fill="none" stroke="#191970" d="M268.288,-56.2455C279.8813,-47.814 296.8503,-35.4729 310.3434,-25.6598"/>
<polygon fill="#191970" stroke="#191970" points="312.5881,-28.355 318.6169,-19.6427 308.4709,-22.6938 312.5881,-28.355"/>
</g>
<!-- Node12 -->
<g id="node13" class="node">
<title>Node12</title>
<g id="a_node13"><a xlink:href="../../d8/de9/qconfigoptions_8h.html" target="_top" xlink:title="qconfigoptions.h">
<polygon fill="none" stroke="#000000" points="47.3756,-224.5 47.3756,-243.5 144.3756,-243.5 144.3756,-224.5 47.3756,-224.5"/>
<text text-anchor="middle" x="95.8756" y="-231.5" font-family="Helvetica,sans-Serif" font-size="10.00" fill="#000000">qconfigoptions.h</text>
</a>
</g>
</g>
<!-- Node11&#45;&gt;Node12 -->
<g id="edge13" class="edge">
<title>Node11&#45;&gt;Node12</title>
<path fill="none" stroke="#191970" d="M98.4068,-285.8906C97.991,-277.3657 97.3702,-264.6392 96.8475,-253.9235"/>
<polygon fill="#191970" stroke="#191970" points="100.3341,-253.5624 96.3509,-243.7449 93.3424,-253.9035 100.3341,-253.5624"/>
</g>
<!-- Node13 -->
<g id="node14" class="node">
<title>Node13</title>
<g id="a_node14"><a xlink:href="../../d4/d57/GPUSettingsList_8h.html" target="_top" xlink:title="GPUSettingsList.h">
<polygon fill="none" stroke="#000000" points="62.8756,-168.5 62.8756,-187.5 166.8756,-187.5 166.8756,-168.5 62.8756,-168.5"/>
<text text-anchor="middle" x="114.8756" y="-175.5" font-family="Helvetica,sans-Serif" font-size="10.00" fill="#000000">GPUSettingsList.h</text>
</a>
</g>
</g>
<!-- Node12&#45;&gt;Node13 -->
<g id="edge14" class="edge">
<title>Node12&#45;&gt;Node13</title>
<path fill="none" stroke="#191970" d="M99.1851,-224.2455C101.7189,-216.7776 105.2933,-206.2427 108.3906,-197.1137"/>
<polygon fill="#191970" stroke="#191970" points="111.7054,-198.237 111.604,-187.6427 105.0765,-195.9879 111.7054,-198.237"/>
</g>
<!-- Node13&#45;&gt;Node6 -->
<g id="edge17" class="edge">
<title>Node13&#45;&gt;Node6</title>
<path fill="none" stroke="#191970" d="M122.8122,-187.5016C146.7924,-216.1645 217.6074,-300.4536 229.8756,-311 243.8532,-323.0158 261.2589,-334.1079 275.5682,-342.3884"/>
<polygon fill="#191970" stroke="#191970" points="274.0281,-345.5381 284.4571,-347.4053 277.4688,-339.442 274.0281,-345.5381"/>
</g>
<!-- Node14 -->
<g id="node15" class="node">
<title>Node14</title>
<g id="a_node15"><a xlink:href="../../d2/d37/GPUDefConstantsAndSettings_8h.html" target="_top" xlink:title="GPUDefConstantsAndSettings.h">
<polygon fill="none" stroke="#000000" points="29.3756,-112.5 29.3756,-131.5 200.3756,-131.5 200.3756,-112.5 29.3756,-112.5"/>
<text text-anchor="middle" x="114.8756" y="-119.5" font-family="Helvetica,sans-Serif" font-size="10.00" fill="#000000">GPUDefConstantsAndSettings.h</text>
</a>
</g>
</g>
<!-- Node13&#45;&gt;Node14 -->
<g id="edge15" class="edge">
<title>Node13&#45;&gt;Node14</title>
<path fill="none" stroke="#191970" d="M114.8756,-168.2455C114.8756,-160.9382 114.8756,-150.6944 114.8756,-141.7046"/>
<polygon fill="#191970" stroke="#191970" points="118.3757,-141.6426 114.8756,-131.6427 111.3757,-141.6427 118.3757,-141.6426"/>
</g>
<!-- Node14&#45;&gt;Node7 -->
<g id="edge16" class="edge">
<title>Node14&#45;&gt;Node7</title>
<path fill="none" stroke="#191970" d="M138.9424,-112.3733C161.7184,-103.2629 196.11,-89.5062 221.5246,-79.3404"/>
<polygon fill="#191970" stroke="#191970" points="223.1379,-82.4648 231.1228,-75.5011 220.5381,-75.9654 223.1379,-82.4648"/>
</g>
<!-- Node15&#45;&gt;Node7 -->
<g id="edge19" class="edge">
<title>Node15&#45;&gt;Node7</title>
<path fill="none" stroke="#191970" d="M51.4223,-347.2437C35.1083,-327.3757 .8756,-280.1833 .8756,-234 .8756,-234 .8756,-234 .8756,-178 .8756,-147.4754 -2.6268,-132.6252 19.8756,-112 44.3923,-89.5286 130.0544,-77.178 190.8568,-71.0749"/>
<polygon fill="#191970" stroke="#191970" points="191.5275,-74.5264 201.143,-70.0776 190.8519,-67.559 191.5275,-74.5264"/>
</g>
<!-- Node15&#45;&gt;Node11 -->
<g id="edge20" class="edge">
<title>Node15&#45;&gt;Node11</title>
<path fill="none" stroke="#191970" d="M65.9693,-347.3906C71.6599,-338.417 80.3028,-324.7879 87.303,-313.7491"/>
<polygon fill="#191970" stroke="#191970" points="90.2962,-315.5644 92.6959,-305.2449 84.3847,-311.8155 90.2962,-315.5644"/>
</g>
<!-- Node16&#45;&gt;Node7 -->
<g id="edge22" class="edge">
<title>Node16&#45;&gt;Node7</title>
<path fill="none" stroke="#191970" d="M183.3377,-347.3179C193.8941,-305.8054 235.4467,-142.403 249.8935,-85.5918"/>
<polygon fill="#191970" stroke="#191970" points="253.3317,-86.2726 252.4042,-75.7185 246.5476,-84.5474 253.3317,-86.2726"/>
</g>
<!-- Node16&#45;&gt;Node11 -->
<g id="edge23" class="edge">
<title>Node16&#45;&gt;Node11</title>
<path fill="none" stroke="#191970" d="M168.0631,-347.3906C155.1854,-337.7324 135.1172,-322.6812 119.9036,-311.271"/>
<polygon fill="#191970" stroke="#191970" points="121.6982,-308.2419 111.5981,-305.0419 117.4981,-313.8419 121.6982,-308.2419"/>
</g>
<!-- Node17&#45;&gt;Node7 -->
<g id="edge25" class="edge">
<title>Node17&#45;&gt;Node7</title>
<path fill="none" stroke="#191970" d="M1251.3261,-347.3521C1260.3337,-326.9143 1279.8756,-277.5554 1279.8756,-234 1279.8756,-234 1279.8756,-234 1279.8756,-178 1279.8756,-129.4311 543.0202,-82.7075 318.8244,-69.6154"/>
<polygon fill="#191970" stroke="#191970" points="318.7272,-66.1039 308.5409,-69.0175 318.3208,-73.0921 318.7272,-66.1039"/>
</g>
<!-- Node18 -->
<g id="node19" class="node">
<title>Node18</title>
<polygon fill="none" stroke="#bfbfbf" points="1198.3756,-286 1198.3756,-305 1251.3756,-305 1251.3756,-286 1198.3756,-286"/>
<text text-anchor="middle" x="1224.8756" y="-293" font-family="Helvetica,sans-Serif" font-size="10.00" fill="#000000">cstddef</text>
</g>
<!-- Node17&#45;&gt;Node18 -->
<g id="edge26" class="edge">
<title>Node17&#45;&gt;Node18</title>
<path fill="none" stroke="#191970" d="M1243.4381,-347.3906C1240.3243,-338.6862 1235.6436,-325.6015 1231.7616,-314.7494"/>
<polygon fill="#191970" stroke="#191970" points="1235.0253,-313.4817 1228.3616,-305.2449 1228.4343,-315.8394 1235.0253,-313.4817"/>
</g>
<!-- Node19&#45;&gt;Node1 -->
<g id="edge31" class="edge">
<title>Node19&#45;&gt;Node1</title>
<path fill="none" stroke="#191970" d="M798.2546,-347.4747C816.4412,-339.3904 841.7194,-326.626 860.8756,-311 882.0148,-293.7564 901.2879,-268.7171 913.0384,-251.9205"/>
<polygon fill="#191970" stroke="#191970" points="916.0121,-253.7721 918.7567,-243.5389 910.2297,-249.8271 916.0121,-253.7721"/>
</g>
<!-- Node19&#45;&gt;Node2 -->
<g id="edge30" class="edge">
<title>Node19&#45;&gt;Node2</title>
<path fill="none" stroke="#191970" d="M714.7302,-352.6559C652.6585,-347.0749 553.5118,-335.0792 470.8756,-311 468.7502,-310.3807 466.5852,-309.6601 464.4271,-308.875"/>
<polygon fill="#191970" stroke="#191970" points="465.7355,-305.6289 455.1522,-305.1351 463.1176,-312.1209 465.7355,-305.6289"/>
</g>
<!-- Node19&#45;&gt;Node3 -->
<g id="edge29" class="edge">
<title>Node19&#45;&gt;Node3</title>
<path fill="none" stroke="#191970" d="M714.6722,-350.4133C646.6208,-342.3349 540.5384,-327.6468 503.8756,-311 484.0296,-301.9889 484.8999,-290.6366 465.8756,-280 457.0175,-275.0474 403.3784,-256.9274 367.261,-244.962"/>
<polygon fill="#191970" stroke="#191970" points="368.1837,-241.5808 357.5905,-241.7664 365.9874,-248.2273 368.1837,-241.5808"/>
</g>
<!-- Node19&#45;&gt;Node7 -->
<g id="edge28" class="edge">
<title>Node19&#45;&gt;Node7</title>
<path fill="none" stroke="#191970" d="M803.5106,-347.4639C827.2456,-339.1111 861.557,-325.987 889.8756,-311 911.6659,-299.468 914.0212,-291.4101 935.8756,-280 975.1651,-259.4871 1003.8227,-280.5623 1028.8756,-244 1033.9,-236.6674 1034.1223,-231.1753 1028.8756,-224 944.8846,-109.1355 488.4974,-76.6722 318.6215,-68.4953"/>
<polygon fill="#191970" stroke="#191970" points="318.7279,-64.9965 308.5749,-68.0241 318.3999,-71.9889 318.7279,-64.9965"/>
</g>
<!-- Node20 -->
<g id="node21" class="node">
<title>Node20</title>
<polygon fill="none" stroke="#bfbfbf" points="803.8756,-286 803.8756,-305 851.8756,-305 851.8756,-286 803.8756,-286"/>
<text text-anchor="middle" x="827.8756" y="-293" font-family="Helvetica,sans-Serif" font-size="10.00" fill="#000000">mutex</text>
</g>
<!-- Node19&#45;&gt;Node20 -->
<g id="edge32" class="edge">
<title>Node19&#45;&gt;Node20</title>
<path fill="none" stroke="#191970" d="M783.1568,-347.3906C791.0449,-338.2376 803.107,-324.2409 812.7167,-313.09"/>
<polygon fill="#191970" stroke="#191970" points="815.6007,-315.1049 819.4776,-305.2449 810.2981,-310.5352 815.6007,-315.1049"/>
</g>
<!-- Node19&#45;&gt;Node21 -->
<g id="edge33" class="edge">
<title>Node19&#45;&gt;Node21</title>
<path fill="none" stroke="#191970" d="M813.6638,-347.4581C857.454,-336.6857 928.7665,-319.1428 976.2452,-307.4631"/>
<polygon fill="#191970" stroke="#191970" points="977.122,-310.8518 985.9964,-305.0643 975.4498,-304.0545 977.122,-310.8518"/>
</g>
<!-- Node22 -->
<g id="node23" class="node">
<title>Node22</title>
<g id="a_node23"><a xlink:href="../../db/d14/MCTruthContainer_8h.html" target="_top" xlink:title="Definition of a container to keep Monte Carlo truth external to simulation objects. ">
<polygon fill="none" stroke="#000000" points="513.3756,-280.5 513.3756,-310.5 640.3756,-310.5 640.3756,-280.5 513.3756,-280.5"/>
<text text-anchor="start" x="521.3756" y="-298.5" font-family="Helvetica,sans-Serif" font-size="10.00" fill="#000000">SimulationDataFormat</text>
<text text-anchor="middle" x="576.8756" y="-287.5" font-family="Helvetica,sans-Serif" font-size="10.00" fill="#000000">/MCTruthContainer.h</text>
</a>
</g>
</g>
<!-- Node19&#45;&gt;Node22 -->
<g id="edge34" class="edge">
<title>Node19&#45;&gt;Node22</title>
<path fill="none" stroke="#191970" d="M743.9381,-347.3906C714.9081,-338.3737 670.7448,-324.6563 635.1152,-313.5896"/>
<polygon fill="#191970" stroke="#191970" points="635.9,-310.1684 625.3118,-310.5446 633.8236,-316.8534 635.9,-310.1684"/>
</g>
<!-- Node30 -->
<g id="node31" class="node">
<title>Node30</title>
<g id="a_node31"><a xlink:href="../../d7/dcd/MCCompLabel_8h.html" target="_top" xlink:title="SimulationDataFormat\l/MCCompLabel.h">
<polygon fill="none" stroke="#000000" points="658.3756,-280.5 658.3756,-310.5 785.3756,-310.5 785.3756,-280.5 658.3756,-280.5"/>
<text text-anchor="start" x="666.3756" y="-298.5" font-family="Helvetica,sans-Serif" font-size="10.00" fill="#000000">SimulationDataFormat</text>
<text text-anchor="middle" x="721.8756" y="-287.5" font-family="Helvetica,sans-Serif" font-size="10.00" fill="#000000">/MCCompLabel.h</text>
</a>
</g>
</g>
<!-- Node19&#45;&gt;Node30 -->
<g id="edge45" class="edge">
<title>Node19&#45;&gt;Node30</title>
<path fill="none" stroke="#191970" d="M766.5943,-347.3906C759.8863,-339.6068 750.1597,-328.3202 741.4896,-318.2597"/>
<polygon fill="#191970" stroke="#191970" points="744.0204,-315.8349 734.8408,-310.5446 738.7178,-320.4046 744.0204,-315.8349"/>
</g>
<!-- Node22&#45;&gt;Node1 -->
<g id="edge43" class="edge">
<title>Node22&#45;&gt;Node1</title>
<path fill="none" stroke="#191970" d="M640.4366,-281.5957C643.2857,-281.0422 646.1087,-280.5075 648.8756,-280 750.599,-261.3429 779.7809,-265.0158 885.7522,-243.8389"/>
<polygon fill="#191970" stroke="#191970" points="886.4549,-247.2677 895.5611,-241.8523 885.0653,-240.407 886.4549,-247.2677"/>
</g>
<!-- Node22&#45;&gt;Node3 -->
<g id="edge44" class="edge">
<title>Node22&#45;&gt;Node3</title>
<path fill="none" stroke="#191970" d="M513.3577,-281.1064C473.7111,-271.8654 421.4264,-259.2156 367.3492,-244.3052"/>
<polygon fill="#191970" stroke="#191970" points="368.1634,-240.8989 357.5915,-241.5952 366.2902,-247.6436 368.1634,-240.8989"/>
</g>
<!-- Node22&#45;&gt;Node5 -->
<g id="edge40" class="edge">
<title>Node22&#45;&gt;Node5</title>
<path fill="none" stroke="#191970" d="M640.4145,-281.4686C643.2696,-280.9495 646.0999,-280.4568 648.8756,-280 784.2326,-257.7259 823.4949,-271.7881 961.7277,-243.9066"/>
<polygon fill="#191970" stroke="#191970" points="962.7634,-247.267 971.8541,-241.8256 961.3543,-240.4102 962.7634,-247.267"/>
</g>
<!-- Node23 -->
<g id="node24" class="node">
<title>Node23</title>
<g id="a_node24"><a xlink:href="../../d2/d45/GPUCommonRtypes_8h.html" target="_top" xlink:title="GPUCommonRtypes.h">
<polygon fill="none" stroke="#000000" points="752.3756,-224.5 752.3756,-243.5 877.3756,-243.5 877.3756,-224.5 752.3756,-224.5"/>
<text text-anchor="middle" x="814.8756" y="-231.5" font-family="Helvetica,sans-Serif" font-size="10.00" fill="#000000">GPUCommonRtypes.h</text>
</a>
</g>
</g>
<!-- Node22&#45;&gt;Node23 -->
<g id="edge35" class="edge">
<title>Node22&#45;&gt;Node23</title>
<path fill="none" stroke="#191970" d="M635.0969,-280.4554C676.027,-269.8789 730.0702,-255.914 768.1798,-246.0663"/>
<polygon fill="#191970" stroke="#191970" points="769.1877,-249.4209 777.994,-243.5303 767.4364,-242.6436 769.1877,-249.4209"/>
</g>
<!-- Node25 -->
<g id="node26" class="node">
<title>Node25</title>
<polygon fill="none" stroke="#bfbfbf" points="530.8756,-224.5 530.8756,-243.5 580.8756,-243.5 580.8756,-224.5 530.8756,-224.5"/>
<text text-anchor="middle" x="555.8756" y="-231.5" font-family="Helvetica,sans-Serif" font-size="10.00" fill="#000000">cstdint</text>
</g>
<!-- Node22&#45;&gt;Node25 -->
<g id="edge37" class="edge">
<title>Node22&#45;&gt;Node25</title>
<path fill="none" stroke="#191970" d="M571.6846,-280.2977C568.9214,-272.2055 565.4925,-262.1639 562.5351,-253.5029"/>
<polygon fill="#191970" stroke="#191970" points="565.7817,-252.1794 559.238,-243.8469 559.1572,-254.4415 565.7817,-252.1794"/>
</g>
<!-- Node26 -->
<g id="node27" class="node">
<title>Node26</title>
<polygon fill="none" stroke="#bfbfbf" points="598.8756,-224.5 598.8756,-243.5 650.8756,-243.5 650.8756,-224.5 598.8756,-224.5"/>
<text text-anchor="middle" x="624.8756" y="-231.5" font-family="Helvetica,sans-Serif" font-size="10.00" fill="#000000">cassert</text>
</g>
<!-- Node22&#45;&gt;Node26 -->
<g id="edge38" class="edge">
<title>Node22&#45;&gt;Node26</title>
<path fill="none" stroke="#191970" d="M588.7408,-280.2977C595.4731,-271.672 603.9341,-260.8312 610.9761,-251.8087"/>
<polygon fill="#191970" stroke="#191970" points="613.7965,-253.8836 617.1902,-243.8469 608.2783,-249.5766 613.7965,-253.8836"/>
</g>
<!-- Node27 -->
<g id="node28" class="node">
<title>Node27</title>
<polygon fill="none" stroke="#bfbfbf" points="669.3756,-224.5 669.3756,-243.5 734.3756,-243.5 734.3756,-224.5 669.3756,-224.5"/>
<text text-anchor="middle" x="701.8756" y="-231.5" font-family="Helvetica,sans-Serif" font-size="10.00" fill="#000000">stdexcept</text>
</g>
<!-- Node22&#45;&gt;Node27 -->
<g id="edge39" class="edge">
<title>Node22&#45;&gt;Node27</title>
<path fill="none" stroke="#191970" d="M607.454,-280.4554C627.5788,-270.554 653.7395,-257.683 673.4194,-248.0004"/>
<polygon fill="#191970" stroke="#191970" points="675.0774,-251.0855 682.505,-243.5303 671.9871,-244.8045 675.0774,-251.0855"/>
</g>
<!-- Node28 -->
<g id="node29" class="node">
<title>Node28</title>
<polygon fill="none" stroke="#bfbfbf" points="375.3756,-224.5 375.3756,-243.5 444.3756,-243.5 444.3756,-224.5 375.3756,-224.5"/>
<text text-anchor="middle" x="409.8756" y="-231.5" font-family="Helvetica,sans-Serif" font-size="10.00" fill="#000000">type_traits</text>
</g>
<!-- Node22&#45;&gt;Node28 -->
<g id="edge41" class="edge">
<title>Node22&#45;&gt;Node28</title>
<path fill="none" stroke="#191970" d="M536.0228,-280.4554C508.2806,-270.239 471.9531,-256.8609 445.4101,-247.0861"/>
<polygon fill="#191970" stroke="#191970" points="446.3481,-243.7018 435.7547,-243.5303 443.929,-250.2705 446.3481,-243.7018"/>
</g>
<!-- Node29 -->
<g id="node30" class="node">
<title>Node29</title>
<polygon fill="none" stroke="#bfbfbf" points="462.8756,-224.5 462.8756,-243.5 512.8756,-243.5 512.8756,-224.5 462.8756,-224.5"/>
<text text-anchor="middle" x="487.8756" y="-231.5" font-family="Helvetica,sans-Serif" font-size="10.00" fill="#000000">cstring</text>
</g>
<!-- Node22&#45;&gt;Node29 -->
<g id="edge42" class="edge">
<title>Node22&#45;&gt;Node29</title>
<path fill="none" stroke="#191970" d="M554.8756,-280.2977C541.2788,-270.9022 523.879,-258.8787 510.2189,-249.4395"/>
<polygon fill="#191970" stroke="#191970" points="512.0765,-246.4688 501.8598,-243.6633 508.097,-252.2276 512.0765,-246.4688"/>
</g>
<!-- Node24 -->
<g id="node25" class="node">
<title>Node24</title>
<polygon fill="none" stroke="#bfbfbf" points="785.3756,-168.5 785.3756,-187.5 844.3756,-187.5 844.3756,-168.5 785.3756,-168.5"/>
<text text-anchor="middle" x="814.8756" y="-175.5" font-family="Helvetica,sans-Serif" font-size="10.00" fill="#000000">Rtypes.h</text>
</g>
<!-- Node23&#45;&gt;Node24 -->
<g id="edge36" class="edge">
<title>Node23&#45;&gt;Node24</title>
<path fill="none" stroke="#191970" d="M814.8756,-224.2455C814.8756,-216.9382 814.8756,-206.6944 814.8756,-197.7046"/>
<polygon fill="#191970" stroke="#191970" points="818.3757,-197.6426 814.8756,-187.6427 811.3757,-197.6427 818.3757,-197.6426"/>
</g>
<!-- Node30&#45;&gt;Node23 -->
<g id="edge46" class="edge">
<title>Node30&#45;&gt;Node23</title>
<path fill="none" stroke="#191970" d="M744.8644,-280.2977C759.0722,-270.9022 777.2541,-258.8787 791.5281,-249.4395"/>
<polygon fill="#191970" stroke="#191970" points="793.8523,-252.0986 800.2628,-243.6633 789.9911,-246.2598 793.8523,-252.0986"/>
</g>
</g>
</svg>
