<?xml version="1.0" encoding="UTF-8" standalone="no"?>
<!DOCTYPE svg PUBLIC "-//W3C//DTD SVG 1.1//EN"
 "http://www.w3.org/Graphics/SVG/1.1/DTD/svg11.dtd">
<!-- Generated by graphviz version 2.40.1 (20161225.0304)
 -->
<!-- Title: o2::trd::TrackletHCHeader Pages: 1 -->
<svg width="230pt" height="215pt"
 viewBox="0.00 0.00 230.00 215.00" xmlns="http://www.w3.org/2000/svg" xmlns:xlink="http://www.w3.org/1999/xlink">
<g id="graph0" class="graph" transform="scale(1 1) rotate(0) translate(4 211)">
<title>o2::trd::TrackletHCHeader</title>
<!-- Node1 -->
<g id="node1" class="node">
<title>Node1</title>
<polygon fill="#bfbfbf" stroke="#000000" points="17,-.5 17,-57.5 159,-57.5 159,-.5 17,-.5"/>
<text text-anchor="middle" x="88" y="-45.5" font-family="Helvetica,sans-Serif" font-size="10.00" fill="#000000">o2::trd::TrackletHCHeader</text>
<polyline fill="none" stroke="#000000" points="17,-38.5 159,-38.5 "/>
<text text-anchor="middle" x="88" y="-26.5" font-family="Helvetica,sans-Serif" font-size="10.00" fill="#000000"> </text>
<polyline fill="none" stroke="#000000" points="17,-19.5 159,-19.5 "/>
<text text-anchor="middle" x="88" y="-7.5" font-family="Helvetica,sans-Serif" font-size="10.00" fill="#000000"> </text>
</g>
<!-- Node2 -->
<g id="node2" class="node">
<title>Node2</title>
<g id="a_node2"><a xlink:href="../../d3/d87/classuint32__t.html" target="_top" xlink:title="{uint32_t\n||}">
<polygon fill="none" stroke="#000000" points="0,-149.5 0,-206.5 56,-206.5 56,-149.5 0,-149.5"/>
<text text-anchor="middle" x="28" y="-194.5" font-family="Helvetica,sans-Serif" font-size="10.00" fill="#000000">uint32_t</text>
<polyline fill="none" stroke="#000000" points="0,-187.5 56,-187.5 "/>
<text text-anchor="middle" x="28" y="-175.5" font-family="Helvetica,sans-Serif" font-size="10.00" fill="#000000"> </text>
<polyline fill="none" stroke="#000000" points="0,-168.5 56,-168.5 "/>
<text text-anchor="middle" x="28" y="-156.5" font-family="Helvetica,sans-Serif" font-size="10.00" fill="#000000"> </text>
</a>
</g>
</g>
<!-- Node2&#45;&gt;Node1 -->
<g id="edge1" class="edge">
<title>Node2&#45;&gt;Node1</title>
<path fill="none" stroke="#404040" d="M39.5686,-149.2713C48.7407,-126.494 61.6655,-94.3973 71.8565,-69.0896"/>
<polygon fill="none" stroke="#404040" points="71.9844,-68.7719 70.5152,-61.712 76.4669,-57.6405 77.9361,-64.7004 71.9844,-68.7719"/>
<text text-anchor="middle" x="90" y="-123" font-family="Helvetica,sans-Serif" font-size="10.00" fill="#000000"> +word</text>
<text text-anchor="middle" x="90" y="-112" font-family="Helvetica,sans-Serif" font-size="10.00" fill="#000000">+one</text>
<text text-anchor="middle" x="90" y="-101" font-family="Helvetica,sans-Serif" font-size="10.00" fill="#000000">+format</text>
<text text-anchor="middle" x="90" y="-90" font-family="Helvetica,sans-Serif" font-size="10.00" fill="#000000">+MCLK</text>
<text text-anchor="middle" x="90" y="-79" font-family="Helvetica,sans-Serif" font-size="10.00" fill="#000000">+HCID</text>
</g>
<!-- Node3 -->
<g id="node3" class="node">
<title>Node3</title>
<polygon fill="none" stroke="#bfbfbf" points="74,-149.5 74,-206.5 222,-206.5 222,-149.5 74,-149.5"/>
<text text-anchor="middle" x="148" y="-194.5" font-family="Helvetica,sans-Serif" font-size="10.00" fill="#000000">anonymous:+__attribute__</text>
<polyline fill="none" stroke="#bfbfbf" points="74,-187.5 222,-187.5 "/>
<text text-anchor="middle" x="148" y="-175.5" font-family="Helvetica,sans-Serif" font-size="10.00" fill="#000000"> </text>
<polyline fill="none" stroke="#bfbfbf" points="74,-168.5 222,-168.5 "/>
<text text-anchor="middle" x="148" y="-156.5" font-family="Helvetica,sans-Serif" font-size="10.00" fill="#000000"> </text>
</g>
<!-- Node3&#45;&gt;Node1 -->
<g id="edge2" class="edge">
<title>Node3&#45;&gt;Node1</title>
<path fill="none" stroke="#404040" d="M140.4421,-149.2676C134.5639,-128.4984 125.6329,-99.9924 115,-76 113.8579,-73.4231 112.6135,-70.8057 111.3063,-68.1927"/>
<polygon fill="none" stroke="#404040" points="111.3049,-68.19 104.9592,-64.7647 105.6803,-57.5898 112.026,-61.015 111.3049,-68.19"/>
<text text-anchor="middle" x="171.5" y="-101" font-family="Helvetica,sans-Serif" font-size="10.00" fill="#000000"> +__attribute__</text>
</g>
</g>
</svg>
